$MeshFormat
4.1 0 8
$EndMeshFormat
$PhysicalNames
3
0 1 "Γ¹"
0 2 "Γ²"
1 3 "Ω"
$EndPhysicalNames
$Entities
2 1 0 0
1 0 0 0 1 1 
2 1 0 0 1 2 
1 0 0 0 1 0 0 1 3 2 1 -2 
$EndEntities
$Nodes
3 9 1 9
0 1 0 1
1
0 0 0
0 2 0 1
2
1 0 0
1 1 0 7
3
4
5
6
7
8
9
0.2499999999994109 0 0
0.4999999999986921 0 0
0.7499999999993406 0 0
0.1249999999997752 0 0
0.3749999999990515 0 0
0.6249999999990163 0 0
0.8749999999996704 0 0
$EndNodes
$Elements
3 6 1 6
0 1 15 1
1 1 
0 2 15 1
2 2 
1 1 8 4
3 1 3 6 
4 3 4 7 
5 4 5 8 
6 5 2 9 
$EndElements
