$MeshFormat
4.1 0 8
$EndMeshFormat
$PhysicalNames
3
0 1 "Γ¹"
0 2 "Γ²"
1 3 "Ω"
$EndPhysicalNames
$Entities
2 1 0 0
1 0 0 0 1 1 
2 1 0 0 1 2 
1 0 0 0 1 0 0 1 3 2 1 -2 
$EndEntities
$Nodes
3 10 1 10
0 1 0 1
1
0 0 0
0 2 0 1
2
1 0 0
1 1 0 8
3
4
5
6
7
8
9
10
0.1111111111109082 0 0
0.2222222222217143 0 0
0.333333333332501 0 0
0.4444444444432878 0 0
0.5555555555543833 0 0
0.6666666666657874 0 0
0.7777777777771916 0 0
0.8888888888885959 0 0
$EndNodes
$Elements
3 11 1 11
0 1 15 1
1 1 
0 2 15 1
2 2 
1 1 1 9
3 1 3 
4 3 4 
5 4 5 
6 5 6 
7 6 7 
8 7 8 
9 8 9 
10 9 10 
11 10 2 
$EndElements
