$MeshFormat
4.1 0 8
$EndMeshFormat
$PhysicalNames
3
0 1 "Γ¹"
0 2 "Γ²"
1 3 "Ω"
$EndPhysicalNames
$Entities
2 1 0 0
1 0 0 0 1 1 
2 1 0 0 1 2 
1 0 0 0 1 0 0 1 3 2 1 -2 
$EndEntities
$Nodes
3 13 1 13
0 1 0 1
1
0 0 0
0 2 0 1
2
1 0 0
1 1 0 11
3
4
5
6
7
8
9
10
11
12
13
0.1666666666663209 0 0
0.333333333332501 0 0
0.499999999998692 0 0
0.6666666666657874 0 0
0.8333333333328937 0 0
0.08333333333317175 0 0
0.2499999999994109 0 0
0.4166666666655965 0 0
0.5833333333322398 0 0
0.7499999999993405 0 0
0.9166666666664468 0 0
$EndNodes
$Elements
3 8 1 8
0 1 15 1
1 1 
0 2 15 1
2 2 
1 1 8 6
3 1 3 8 
4 3 4 9 
5 4 5 10 
6 5 6 11 
7 6 7 12 
8 7 2 13 
$EndElements
