$MeshFormat
4.1 0 8
$EndMeshFormat
$PhysicalNames
3
0 1 "Γ¹"
0 2 "Γ²"
1 3 "Ω"
$EndPhysicalNames
$Entities
2 1 0 0
1 0 0 0 1 1 
2 1 0 0 1 2 
1 0 0 0 1 0 0 1 3 2 1 -2 
$EndEntities
$Nodes
3 8 1 8
0 1 0 1
1
0 0 0
0 2 0 1
2
1 0 0
1 1 0 6
3
4
5
6
7
8
0.1428571428568665 0 0
0.2857142857135924 0 0
0.4285714285703183 0 0
0.5714285714274411 0 0
0.7142857142849607 0 0
0.8571428571424804 0 0
$EndNodes
$Elements
3 9 1 9
0 1 15 1
1 1 
0 2 15 1
2 2 
1 1 1 7
3 1 3 
4 3 4 
5 4 5 
6 5 6 
7 6 7 
8 7 8 
9 8 2 
$EndElements
