$MeshFormat
4.1 0 8
$EndMeshFormat
$PhysicalNames
3
0 1 "Γ¹"
0 2 "Γ²"
1 3 "Ω"
$EndPhysicalNames
$Entities
2 1 0 0
1 0 0 0 1 1 
2 1 0 0 1 2 
1 0 0 0 1 0 0 1 3 2 1 -2 
$EndEntities
$Nodes
3 101 1 101
0 1 0 1
1
0 0 0
0 2 0 1
2
1 0 0
1 1 0 99
3
4
5
6
7
8
9
10
11
12
13
14
15
16
17
18
19
20
21
22
23
24
25
26
27
28
29
30
31
32
33
34
35
36
37
38
39
40
41
42
43
44
45
46
47
48
49
50
51
52
53
54
55
56
57
58
59
60
61
62
63
64
65
66
67
68
69
70
71
72
73
74
75
76
77
78
79
80
81
82
83
84
85
86
87
88
89
90
91
92
93
94
95
96
97
98
99
100
101
0.009999999999981047 0 0
0.01999999999996225 0 0
0.0299999999999429 0 0
0.03999999999992164 0 0
0.04999999999989937 0 0
0.05999999999987804 0 0
0.06999999999986012 0 0
0.07999999999984475 0 0
0.08999999999982942 0 0
0.09999999999981411 0 0
0.1099999999997988 0 0
0.1199999999997825 0 0
0.1299999999997602 0 0
0.139999999999732 0 0
0.1499999999997028 0 0
0.1599999999996736 0 0
0.1699999999996445 0 0
0.1799999999996152 0 0
0.1899999999995861 0 0
0.1999999999995569 0 0
0.2099999999995277 0 0
0.2199999999994985 0 0
0.2299999999994693 0 0
0.2399999999994401 0 0
0.2499999999994109 0 0
0.2599999999993817 0 0
0.2699999999993525 0 0
0.2799999999993234 0 0
0.2899999999992942 0 0
0.299999999999265 0 0
0.3099999999992358 0 0
0.3199999999992066 0 0
0.3299999999991775 0 0
0.3399999999991483 0 0
0.349999999999119 0 0
0.3599999999990898 0 0
0.3699999999990606 0 0
0.3799999999990315 0 0
0.3899999999990023 0 0
0.3999999999989731 0 0
0.4099999999989439 0 0
0.4199999999989147 0 0
0.4299999999988856 0 0
0.4399999999988564 0 0
0.4499999999988272 0 0
0.4599999999987979 0 0
0.4699999999987687 0 0
0.4799999999987396 0 0
0.4899999999987104 0 0
0.4999999999986921 0 0
0.5099999999987076 0 0
0.5199999999987339 0 0
0.5299999999987604 0 0
0.5399999999987867 0 0
0.549999999998813 0 0
0.5599999999988394 0 0
0.5699999999988659 0 0
0.5799999999988923 0 0
0.5899999999989186 0 0
0.5999999999989449 0 0
0.6099999999989714 0 0
0.6199999999989977 0 0
0.6299999999990241 0 0
0.6399999999990504 0 0
0.6499999999990768 0 0
0.6599999999991032 0 0
0.6699999999991295 0 0
0.6799999999991559 0 0
0.6899999999991824 0 0
0.6999999999992087 0 0
0.7099999999992351 0 0
0.7199999999992615 0 0
0.7299999999992879 0 0
0.7399999999993142 0 0
0.7499999999993405 0 0
0.759999999999367 0 0
0.7699999999993933 0 0
0.7799999999994197 0 0
0.789999999999446 0 0
0.7999999999994724 0 0
0.8099999999994988 0 0
0.8199999999995252 0 0
0.8299999999995517 0 0
0.839999999999578 0 0
0.8499999999996044 0 0
0.8599999999996307 0 0
0.869999999999657 0 0
0.8799999999996835 0 0
0.8899999999997098 0 0
0.8999999999997362 0 0
0.9099999999997626 0 0
0.9199999999997889 0 0
0.9299999999998153 0 0
0.9399999999998417 0 0
0.9499999999998682 0 0
0.9599999999998945 0 0
0.9699999999999208 0 0
0.9799999999999472 0 0
0.9899999999999736 0 0
$EndNodes
$Elements
3 102 1 102
0 1 15 1
1 1 
0 2 15 1
2 2 
1 1 1 100
3 1 3 
4 3 4 
5 4 5 
6 5 6 
7 6 7 
8 7 8 
9 8 9 
10 9 10 
11 10 11 
12 11 12 
13 12 13 
14 13 14 
15 14 15 
16 15 16 
17 16 17 
18 17 18 
19 18 19 
20 19 20 
21 20 21 
22 21 22 
23 22 23 
24 23 24 
25 24 25 
26 25 26 
27 26 27 
28 27 28 
29 28 29 
30 29 30 
31 30 31 
32 31 32 
33 32 33 
34 33 34 
35 34 35 
36 35 36 
37 36 37 
38 37 38 
39 38 39 
40 39 40 
41 40 41 
42 41 42 
43 42 43 
44 43 44 
45 44 45 
46 45 46 
47 46 47 
48 47 48 
49 48 49 
50 49 50 
51 50 51 
52 51 52 
53 52 53 
54 53 54 
55 54 55 
56 55 56 
57 56 57 
58 57 58 
59 58 59 
60 59 60 
61 60 61 
62 61 62 
63 62 63 
64 63 64 
65 64 65 
66 65 66 
67 66 67 
68 67 68 
69 68 69 
70 69 70 
71 70 71 
72 71 72 
73 72 73 
74 73 74 
75 74 75 
76 75 76 
77 76 77 
78 77 78 
79 78 79 
80 79 80 
81 80 81 
82 81 82 
83 82 83 
84 83 84 
85 84 85 
86 85 86 
87 86 87 
88 87 88 
89 88 89 
90 89 90 
91 90 91 
92 91 92 
93 92 93 
94 93 94 
95 94 95 
96 95 96 
97 96 97 
98 97 98 
99 98 99 
100 99 100 
101 100 101 
102 101 2 
$EndElements
