$MeshFormat
4.1 0 8
$EndMeshFormat
$PhysicalNames
3
0 1 "Γ¹"
0 2 "Γ²"
1 3 "Ω"
$EndPhysicalNames
$Entities
2 1 0 0
1 0 0 0 1 1 
2 1 0 0 1 2 
1 0 0 0 1 0 0 1 3 2 1 -2 
$EndEntities
$Nodes
3 17 1 17
0 1 0 1
1
0 0 0
0 2 0 1
2
1 0 0
1 1 0 15
3
4
5
6
7
8
9
10
11
12
13
14
15
16
17
0.1249999999997731 0 0
0.2499999999994109 0 0
0.3749999999990461 0 0
0.4999999999986921 0 0
0.6249999999990109 0 0
0.7499999999993406 0 0
0.8749999999996703 0 0
0.06249999999987025 0 0
0.187499999999592 0 0
0.3124999999992285 0 0
0.4374999999988691 0 0
0.5624999999988515 0 0
0.6874999999991758 0 0
0.8124999999995054 0 0
0.9374999999998351 0 0
$EndNodes
$Elements
3 10 1 10
0 1 15 1
1 1 
0 2 15 1
2 2 
1 1 8 8
3 1 3 10 
4 3 4 11 
5 4 5 12 
6 5 6 13 
7 6 7 14 
8 7 8 15 
9 8 9 16 
10 9 2 17 
$EndElements
