$MeshFormat
4.1 0 8
$EndMeshFormat
$PhysicalNames
3
0 1 "Γ¹"
0 2 "Γ²"
1 3 "Ω"
$EndPhysicalNames
$Entities
2 1 0 0
1 0 0 0 1 1 
2 1 0 0 1 2 
1 0 0 0 1 0 0 1 3 2 1 -2 
$EndEntities
$Nodes
3 15 1 15
0 1 0 1
1
0 0 0
0 2 0 1
2
1 0 0
1 1 0 13
3
4
5
6
7
8
9
10
11
12
13
14
15
0.1428571428568665 0 0
0.2857142857135924 0 0
0.4285714285703183 0 0
0.5714285714274411 0 0
0.7142857142849607 0 0
0.8571428571424804 0 0
0.07142857142842809 0 0
0.2142857142852295 0 0
0.3571428571419554 0 0
0.4999999999986814 0 0
0.6428571428562009 0 0
0.7857142857137205 0 0
0.9285714285712402 0 0
$EndNodes
$Elements
3 9 1 9
0 1 15 1
1 1 
0 2 15 1
2 2 
1 1 8 7
3 1 3 9 
4 3 4 10 
5 4 5 11 
6 5 6 12 
7 6 7 13 
8 7 8 14 
9 8 2 15 
$EndElements
