$MeshFormat
4.1 0 8
$EndMeshFormat
$PhysicalNames
6
1 1 "Γ¹"
1 2 "Γ²"
1 3 "Γ³"
1 4 "Γ⁴"
1 6 "Γ"
2 5 "Ω"
$EndPhysicalNames
$Entities
4 5 1 0
1 0 0 0 0 
2 0.5 0 0 0 
3 0.5 1 0 0 
4 0 1 0 0 
1 0 0 0 0.5 0 0 1 1 2 1 -2 
2 0.5 0 0 0.5 1 0 1 2 2 2 -3 
3 0 1 0 0.5 1 0 1 3 2 3 -4 
4 0 0 0 0 1 0 1 4 2 4 -1 
5 0 0 0 0.5 1 0 1 6 0 
1 0 0 0 0.5 1 0 1 5 4 1 2 3 4 
$EndEntities
$Nodes
10 91 1 91
0 1 0 1
1
0 0 0
0 2 0 1
2
0.5 0 0
0 3 0 1
3
0.5 1 0
0 4 0 1
4
0 1 0
1 1 0 5
5
6
7
8
9
0.08333333333316043 0 0
0.1666666666662505 0 0
0.249999999999346 0 0
0.3333333333328937 0 0
0.4166666666664469 0 0
1 2 0 11
10
11
12
13
14
15
16
17
18
19
20
0.5 0.08333333333317297 0
0.5 0.1666666666663209 0
0.5 0.2499999999994109 0
0.5 0.333333333332501 0
0.5 0.4166666666655911 0
0.5 0.499999999998692 0
0.5 0.5833333333322344 0
0.5 0.6666666666657874 0
0.5 0.7499999999993405 0
0.5 0.8333333333328937 0
0.5 0.9166666666664468 0
1 3 0 5
21
22
23
24
25
0.416666666666551 1 0
0.3333333333337959 1 0
0.2500000000010297 1 0
0.1666666666673604 1 0
0.0833333333336802 1 0
1 4 0 11
26
27
28
29
30
31
32
33
34
35
36
0 0.9166666666663197 0
0 0.833333333333102 0
0 0.7500000000003471 0
0 0.6666666666675918 0
0 0.5833333333348364 0
0 0.5000000000020595 0
0 0.416666666668401 0
0 0.3333333333347207 0
0 0.2500000000010405 0
0 0.1666666666673604 0
0 0.0833333333336802 0
1 5 0 0
2 1 0 55
37
38
39
40
41
42
43
44
45
46
47
48
49
50
51
52
53
54
55
56
57
58
59
60
61
62
63
64
65
66
67
68
69
70
71
72
73
74
75
76
77
78
79
80
81
82
83
84
85
86
87
88
89
90
91
0.08333333333320374 0.08333333333359565 0
0.08333333333324706 0.1666666666671872 0
0.08333333333329038 0.2500000000007689 0
0.0833333333333337 0.3333333333343508 0
0.08333333333337699 0.4166666666679327 0
0.08333333333342031 0.5000000000014984 0
0.08333333333346364 0.5833333333344026 0
0.08333333333350694 0.6666666666672908 0
0.08333333333355027 0.7500000000001792 0
0.08333333333359356 0.8333333333330672 0
0.08333333333363689 0.9166666666663409 0
0.166666666666343 0.08333333333351112 0
0.1666666666664355 0.1666666666670139 0
0.166666666666528 0.2500000000004973 0
0.1666666666666205 0.3333333333339809 0
0.166666666666713 0.4166666666674644 0
0.1666666666668054 0.500000000000937 0
0.1666666666668979 0.5833333333339692 0
0.1666666666669904 0.6666666666669903 0
0.1666666666670829 0.7500000000000113 0
0.1666666666671754 0.8333333333330326 0
0.1666666666672679 0.9166666666663621 0
0.2499999999994864 0.08333333333342659 0
0.2499999999996266 0.1666666666668406 0
0.249999999999767 0.2500000000002257 0
0.2499999999999073 0.3333333333336109 0
0.2500000000000476 0.416666666666996 0
0.2500000000001878 0.5000000000003757 0
0.2500000000003282 0.5833333333335353 0
0.2500000000004685 0.6666666666666896 0
0.2500000000006088 0.7499999999998438 0
0.2500000000007492 0.8333333333329979 0
0.2500000000008894 0.9166666666663832 0
0.3333333333329689 0.08333333333334207 0
0.3333333333330441 0.1666666666666674 0
0.3333333333331192 0.2499999999999541 0
0.3333333333331945 0.3333333333332409 0
0.3333333333332696 0.4166666666665277 0
0.3333333333333448 0.4999999999998144 0
0.33333333333342 0.5833333333331017 0
0.3333333333334951 0.666666666666389 0
0.3333333333335704 0.7499999999996761 0
0.3333333333336455 0.8333333333329629 0
0.3333333333337207 0.9166666666664045 0
0.4166666666664556 0.08333333333325753 0
0.4166666666664641 0.1666666666664941 0
0.4166666666664728 0.2499999999996825 0
0.4166666666664816 0.3333333333328709 0
0.4166666666664902 0.4166666666660594 0
0.4166666666664989 0.4999999999992533 0
0.4166666666665076 0.583333333332668 0
0.4166666666665163 0.6666666666660883 0
0.416666666666525 0.7499999999995083 0
0.4166666666665337 0.8333333333329284 0
0.4166666666665423 0.9166666666664256 0
$EndNodes
$Elements
6 612 1 1660
1 1 1 6
1 1 5 
2 5 6 
3 6 7 
4 7 8 
5 8 9 
6 9 2 
1 2 1 12
7 2 10 
8 10 11 
9 11 12 
10 12 13 
11 13 14 
12 14 15 
13 15 16 
14 16 17 
15 17 18 
16 18 19 
17 19 20 
18 20 3 
1 3 1 6
19 3 21 
20 21 22 
21 22 23 
22 23 24 
23 24 25 
24 25 4 
1 4 1 12
25 4 26 
26 26 27 
27 27 28 
28 28 29 
29 29 30 
30 30 31 
31 31 32 
32 32 33 
33 33 34 
34 34 35 
35 35 36 
36 36 1 
1 5 1 432
1229 1 5 
1230 5 36 
1231 36 1 
1232 36 5 
1233 5 37 
1234 37 36 
1235 36 37 
1236 37 35 
1237 35 36 
1238 35 37 
1239 37 38 
1240 38 35 
1241 35 38 
1242 38 34 
1243 34 35 
1244 34 38 
1245 38 39 
1246 39 34 
1247 34 39 
1248 39 33 
1249 33 34 
1250 33 39 
1251 39 40 
1252 40 33 
1253 33 40 
1254 40 32 
1255 32 33 
1256 32 40 
1257 40 41 
1258 41 32 
1259 32 41 
1260 41 31 
1261 31 32 
1262 31 41 
1263 41 42 
1264 42 31 
1265 31 42 
1266 42 30 
1267 30 31 
1268 30 42 
1269 42 43 
1270 43 30 
1271 30 43 
1272 43 29 
1273 29 30 
1274 29 43 
1275 43 44 
1276 44 29 
1277 29 44 
1278 44 28 
1279 28 29 
1280 28 44 
1281 44 45 
1282 45 28 
1283 28 45 
1284 45 27 
1285 27 28 
1286 27 45 
1287 45 46 
1288 46 27 
1289 27 46 
1290 46 26 
1291 26 27 
1292 26 46 
1293 46 47 
1294 47 26 
1295 26 47 
1296 47 4 
1297 4 26 
1298 4 47 
1299 47 25 
1300 25 4 
1301 5 6 
1302 6 37 
1303 37 5 
1304 37 6 
1305 6 48 
1306 48 37 
1307 37 48 
1308 48 38 
1309 38 37 
1310 38 48 
1311 48 49 
1312 49 38 
1313 38 49 
1314 49 39 
1315 39 38 
1316 39 49 
1317 49 50 
1318 50 39 
1319 39 50 
1320 50 40 
1321 40 39 
1322 40 50 
1323 50 51 
1324 51 40 
1325 40 51 
1326 51 41 
1327 41 40 
1328 41 51 
1329 51 52 
1330 52 41 
1331 41 52 
1332 52 42 
1333 42 41 
1334 42 52 
1335 52 53 
1336 53 42 
1337 42 53 
1338 53 43 
1339 43 42 
1340 43 53 
1341 53 54 
1342 54 43 
1343 43 54 
1344 54 44 
1345 44 43 
1346 44 54 
1347 54 55 
1348 55 44 
1349 44 55 
1350 55 45 
1351 45 44 
1352 45 55 
1353 55 56 
1354 56 45 
1355 45 56 
1356 56 46 
1357 46 45 
1358 46 56 
1359 56 57 
1360 57 46 
1361 46 57 
1362 57 47 
1363 47 46 
1364 47 57 
1365 57 58 
1366 58 47 
1367 47 58 
1368 58 25 
1369 25 47 
1370 25 58 
1371 58 24 
1372 24 25 
1373 6 7 
1374 7 48 
1375 48 6 
1376 48 7 
1377 7 59 
1378 59 48 
1379 48 59 
1380 59 49 
1381 49 48 
1382 49 59 
1383 59 60 
1384 60 49 
1385 49 60 
1386 60 50 
1387 50 49 
1388 50 60 
1389 60 61 
1390 61 50 
1391 50 61 
1392 61 51 
1393 51 50 
1394 51 61 
1395 61 62 
1396 62 51 
1397 51 62 
1398 62 52 
1399 52 51 
1400 52 62 
1401 62 63 
1402 63 52 
1403 52 63 
1404 63 53 
1405 53 52 
1406 53 63 
1407 63 64 
1408 64 53 
1409 53 64 
1410 64 54 
1411 54 53 
1412 54 64 
1413 64 65 
1414 65 54 
1415 54 65 
1416 65 55 
1417 55 54 
1418 55 65 
1419 65 66 
1420 66 55 
1421 55 66 
1422 66 56 
1423 56 55 
1424 56 66 
1425 66 67 
1426 67 56 
1427 56 67 
1428 67 57 
1429 57 56 
1430 57 67 
1431 67 68 
1432 68 57 
1433 57 68 
1434 68 58 
1435 58 57 
1436 58 68 
1437 68 69 
1438 69 58 
1439 58 69 
1440 69 24 
1441 24 58 
1442 24 69 
1443 69 23 
1444 23 24 
1445 7 8 
1446 8 59 
1447 59 7 
1448 59 8 
1449 8 70 
1450 70 59 
1451 59 70 
1452 70 60 
1453 60 59 
1454 60 70 
1455 70 71 
1456 71 60 
1457 60 71 
1458 71 61 
1459 61 60 
1460 61 71 
1461 71 72 
1462 72 61 
1463 61 72 
1464 72 62 
1465 62 61 
1466 62 72 
1467 72 73 
1468 73 62 
1469 62 73 
1470 73 63 
1471 63 62 
1472 63 73 
1473 73 74 
1474 74 63 
1475 63 74 
1476 74 64 
1477 64 63 
1478 64 74 
1479 74 75 
1480 75 64 
1481 64 75 
1482 75 65 
1483 65 64 
1484 65 75 
1485 75 76 
1486 76 65 
1487 65 76 
1488 76 66 
1489 66 65 
1490 66 76 
1491 76 77 
1492 77 66 
1493 66 77 
1494 77 67 
1495 67 66 
1496 67 77 
1497 77 78 
1498 78 67 
1499 67 78 
1500 78 68 
1501 68 67 
1502 68 78 
1503 78 79 
1504 79 68 
1505 68 79 
1506 79 69 
1507 69 68 
1508 69 79 
1509 79 80 
1510 80 69 
1511 69 80 
1512 80 23 
1513 23 69 
1514 23 80 
1515 80 22 
1516 22 23 
1517 8 9 
1518 9 70 
1519 70 8 
1520 70 9 
1521 9 81 
1522 81 70 
1523 70 81 
1524 81 71 
1525 71 70 
1526 71 81 
1527 81 82 
1528 82 71 
1529 71 82 
1530 82 72 
1531 72 71 
1532 72 82 
1533 82 83 
1534 83 72 
1535 72 83 
1536 83 73 
1537 73 72 
1538 73 83 
1539 83 84 
1540 84 73 
1541 73 84 
1542 84 74 
1543 74 73 
1544 74 84 
1545 84 85 
1546 85 74 
1547 74 85 
1548 85 75 
1549 75 74 
1550 75 85 
1551 85 86 
1552 86 75 
1553 75 86 
1554 86 76 
1555 76 75 
1556 76 86 
1557 86 87 
1558 87 76 
1559 76 87 
1560 87 77 
1561 77 76 
1562 77 87 
1563 87 88 
1564 88 77 
1565 77 88 
1566 88 78 
1567 78 77 
1568 78 88 
1569 88 89 
1570 89 78 
1571 78 89 
1572 89 79 
1573 79 78 
1574 79 89 
1575 89 90 
1576 90 79 
1577 79 90 
1578 90 80 
1579 80 79 
1580 80 90 
1581 90 91 
1582 91 80 
1583 80 91 
1584 91 22 
1585 22 80 
1586 22 91 
1587 91 21 
1588 21 22 
1589 9 2 
1590 2 81 
1591 81 9 
1592 81 2 
1593 2 10 
1594 10 81 
1595 81 10 
1596 10 82 
1597 82 81 
1598 82 10 
1599 10 11 
1600 11 82 
1601 82 11 
1602 11 83 
1603 83 82 
1604 83 11 
1605 11 12 
1606 12 83 
1607 83 12 
1608 12 84 
1609 84 83 
1610 84 12 
1611 12 13 
1612 13 84 
1613 84 13 
1614 13 85 
1615 85 84 
1616 85 13 
1617 13 14 
1618 14 85 
1619 85 14 
1620 14 86 
1621 86 85 
1622 86 14 
1623 14 15 
1624 15 86 
1625 86 15 
1626 15 87 
1627 87 86 
1628 87 15 
1629 15 16 
1630 16 87 
1631 87 16 
1632 16 88 
1633 88 87 
1634 88 16 
1635 16 17 
1636 17 88 
1637 88 17 
1638 17 89 
1639 89 88 
1640 89 17 
1641 17 18 
1642 18 89 
1643 89 18 
1644 18 90 
1645 90 89 
1646 90 18 
1647 18 19 
1648 19 90 
1649 90 19 
1650 19 91 
1651 91 90 
1652 91 19 
1653 19 20 
1654 20 91 
1655 91 20 
1656 20 21 
1657 21 91 
1658 21 20 
1659 20 3 
1660 3 21 
2 1 2 144
37 1 5 36 
38 36 5 37 
39 36 37 35 
40 35 37 38 
41 35 38 34 
42 34 38 39 
43 34 39 33 
44 33 39 40 
45 33 40 32 
46 32 40 41 
47 32 41 31 
48 31 41 42 
49 31 42 30 
50 30 42 43 
51 30 43 29 
52 29 43 44 
53 29 44 28 
54 28 44 45 
55 28 45 27 
56 27 45 46 
57 27 46 26 
58 26 46 47 
59 26 47 4 
60 4 47 25 
61 5 6 37 
62 37 6 48 
63 37 48 38 
64 38 48 49 
65 38 49 39 
66 39 49 50 
67 39 50 40 
68 40 50 51 
69 40 51 41 
70 41 51 52 
71 41 52 42 
72 42 52 53 
73 42 53 43 
74 43 53 54 
75 43 54 44 
76 44 54 55 
77 44 55 45 
78 45 55 56 
79 45 56 46 
80 46 56 57 
81 46 57 47 
82 47 57 58 
83 47 58 25 
84 25 58 24 
85 6 7 48 
86 48 7 59 
87 48 59 49 
88 49 59 60 
89 49 60 50 
90 50 60 61 
91 50 61 51 
92 51 61 62 
93 51 62 52 
94 52 62 63 
95 52 63 53 
96 53 63 64 
97 53 64 54 
98 54 64 65 
99 54 65 55 
100 55 65 66 
101 55 66 56 
102 56 66 67 
103 56 67 57 
104 57 67 68 
105 57 68 58 
106 58 68 69 
107 58 69 24 
108 24 69 23 
109 7 8 59 
110 59 8 70 
111 59 70 60 
112 60 70 71 
113 60 71 61 
114 61 71 72 
115 61 72 62 
116 62 72 73 
117 62 73 63 
118 63 73 74 
119 63 74 64 
120 64 74 75 
121 64 75 65 
122 65 75 76 
123 65 76 66 
124 66 76 77 
125 66 77 67 
126 67 77 78 
127 67 78 68 
128 68 78 79 
129 68 79 69 
130 69 79 80 
131 69 80 23 
132 23 80 22 
133 8 9 70 
134 70 9 81 
135 70 81 71 
136 71 81 82 
137 71 82 72 
138 72 82 83 
139 72 83 73 
140 73 83 84 
141 73 84 74 
142 74 84 85 
143 74 85 75 
144 75 85 86 
145 75 86 76 
146 76 86 87 
147 76 87 77 
148 77 87 88 
149 77 88 78 
150 78 88 89 
151 78 89 79 
152 79 89 90 
153 79 90 80 
154 80 90 91 
155 80 91 22 
156 22 91 21 
157 9 2 81 
158 81 2 10 
159 81 10 82 
160 82 10 11 
161 82 11 83 
162 83 11 12 
163 83 12 84 
164 84 12 13 
165 84 13 85 
166 85 13 14 
167 85 14 86 
168 86 14 15 
169 86 15 87 
170 87 15 16 
171 87 16 88 
172 88 16 17 
173 88 17 89 
174 89 17 18 
175 89 18 90 
176 90 18 19 
177 90 19 91 
178 91 19 20 
179 91 20 21 
180 21 20 3 
$EndElements
