$MeshFormat
4.1 0 8
$EndMeshFormat
$PhysicalNames
6
1 1 "Γ¹"
1 2 "Γ²"
1 3 "Γ³"
1 4 "Γ⁴"
1 6 "Γ"
2 5 "Ω"
$EndPhysicalNames
$Entities
4 5 1 0
1 0 0 0 0 
2 0.8 0 0 0 
3 0.8 1 0 0 
4 0 1 0 0 
1 0 0 0 0.8 0 0 1 1 2 1 -2 
2 0.8 0 0 0.8 1 0 1 2 2 2 -3 
3 0 1 0 0.8 1 0 1 3 2 3 -4 
4 0 0 0 0 1 0 1 4 2 4 -1 
5 0 0 0 0.8 1 0 1 6 0 
1 0 0 0 0.8 1 0 1 5 4 1 2 3 4 
$EndEntities
$Nodes
10 143 1 143
0 1 0 1
1
0 0 0
0 2 0 1
2
0.8 0 0
0 3 0 1
3
0.8 1 0
0 4 0 1
4
0 1 0
1 1 0 9
5
6
7
8
9
10
11
12
13
0.07999999999985988 0 0
0.1599999999996481 0 0
0.2399999999994185 0 0
0.3199999999991672 0 0
0.3999999999989484 0 0
0.4799999999991544 0 0
0.5599999999993582 0 0
0.6399999999995793 0 0
0.719999999999783 0 0
1 2 0 11
14
15
16
17
18
19
20
21
22
23
24
0.8 0.08333333333317297 0
0.8 0.1666666666663209 0
0.8 0.2499999999994109 0
0.8 0.333333333332501 0
0.8 0.4166666666655911 0
0.8 0.499999999998692 0
0.8 0.5833333333322344 0
0.8 0.6666666666657874 0
0.8 0.7499999999993405 0
0.8 0.8333333333328937 0
0.8 0.9166666666664468 0
1 3 0 9
25
26
27
28
29
30
31
32
33
0.7200000000002214 1 0
0.6400000000004428 1 0
0.5600000000006642 1 0
0.4800000000008854 1 0
0.4000000000010959 1 0
0.3200000000008811 1 0
0.2400000000006685 1 0
0.1600000000004383 1 0
0.08000000000022567 1 0
1 4 0 11
34
35
36
37
38
39
40
41
42
43
44
0 0.9166666666663197 0
0 0.833333333333102 0
0 0.7500000000003471 0
0 0.6666666666675918 0
0 0.5833333333348364 0
0 0.5000000000020595 0
0 0.416666666668401 0
0 0.3333333333347207 0
0 0.2500000000010405 0
0 0.1666666666673604 0
0 0.0833333333336802 0
1 5 0 0
2 1 0 99
45
46
47
48
49
50
51
52
53
54
55
56
57
58
59
60
61
62
63
64
65
66
67
68
69
70
71
72
73
74
75
76
77
78
79
80
81
82
83
84
85
86
87
88
89
90
91
92
93
94
95
96
97
98
99
100
101
102
103
104
105
106
107
108
109
110
111
112
113
114
115
116
117
118
119
120
121
122
123
124
125
126
127
128
129
130
131
132
133
134
135
136
137
138
139
140
141
142
143
0.07999999999989037 0.08333333333362948 0
0.07999999999992082 0.1666666666672565 0
0.07999999999995132 0.2500000000008775 0
0.07999999999998181 0.3333333333344987 0
0.08000000000001228 0.4166666666681201 0
0.08000000000004277 0.5000000000017226 0
0.08000000000007325 0.5833333333345763 0
0.08000000000010374 0.6666666666674113 0
0.08000000000013423 0.7500000000002464 0
0.08000000000016472 0.8333333333330811 0
0.08000000000019518 0.9166666666663323 0
0.159999999999714 0.08333333333357879 0
0.1599999999997798 0.1666666666671525 0
0.1599999999998456 0.2500000000007147 0
0.1599999999999115 0.3333333333342768 0
0.1599999999999774 0.416666666667839 0
0.1600000000000432 0.500000000001386 0
0.1600000000001091 0.583333333334316 0
0.1600000000001749 0.666666666667231 0
0.1600000000002408 0.7500000000001458 0
0.1600000000003067 0.8333333333330601 0
0.1600000000003725 0.916666666666345 0
0.2399999999995226 0.08333333333352803 0
0.2399999999996268 0.1666666666670485 0
0.2399999999997309 0.2500000000005517 0
0.2399999999998351 0.3333333333340548 0
0.2399999999999393 0.416666666667558 0
0.2400000000000434 0.5000000000010494 0
0.2400000000001476 0.5833333333340558 0
0.2400000000002518 0.6666666666670504 0
0.240000000000356 0.7500000000000451 0
0.2400000000004602 0.8333333333330393 0
0.2400000000005643 0.9166666666663578 0
0.3199999999993101 0.08333333333347728 0
0.3199999999994528 0.1666666666669446 0
0.3199999999995956 0.2500000000003887 0
0.3199999999997385 0.3333333333338327 0
0.3199999999998814 0.4166666666672771 0
0.3200000000000242 0.5000000000007125 0
0.3200000000001669 0.5833333333337956 0
0.3200000000003098 0.6666666666668701 0
0.3200000000004526 0.7499999999999443 0
0.3200000000005955 0.8333333333330186 0
0.3200000000007382 0.9166666666663705 0
0.3999999999991274 0.08333333333342659 0
0.3999999999993064 0.1666666666668406 0
0.3999999999994852 0.2500000000002257 0
0.3999999999996642 0.3333333333336109 0
0.3999999999998433 0.416666666666996 0
0.4000000000000221 0.5000000000003757 0
0.400000000000201 0.5833333333335353 0
0.4000000000003801 0.6666666666666896 0
0.400000000000559 0.7499999999998436 0
0.400000000000738 0.8333333333329979 0
0.400000000000917 0.9166666666663832 0
0.4799999999992987 0.08333333333337588 0
0.4799999999994429 0.1666666666667367 0
0.4799999999995873 0.2500000000000627 0
0.4799999999997314 0.3333333333333889 0
0.4799999999998756 0.4166666666667151 0
0.4800000000000199 0.5000000000000391 0
0.4800000000001642 0.5833333333332751 0
0.4800000000003083 0.6666666666665091 0
0.4800000000004526 0.7499999999997432 0
0.480000000000597 0.8333333333329772 0
0.4800000000007411 0.9166666666663961 0
0.5599999999994671 0.08333333333332514 0
0.5599999999995758 0.1666666666666327 0
0.5599999999996847 0.2499999999998997 0
0.5599999999997934 0.3333333333331669 0
0.5599999999999024 0.416666666666434 0
0.5600000000000112 0.4999999999997022 0
0.56000000000012 0.5833333333330148 0
0.5600000000002288 0.6666666666663288 0
0.5600000000003378 0.7499999999996424 0
0.5600000000004464 0.8333333333329563 0
0.5600000000005552 0.9166666666664085 0
0.6399999999996511 0.0833333333332744 0
0.6399999999997235 0.1666666666665288 0
0.6399999999997952 0.2499999999997368 0
0.6399999999998671 0.3333333333329451 0
0.6399999999999391 0.4166666666661532 0
0.640000000000011 0.4999999999993655 0
0.6400000000000829 0.5833333333327546 0
0.6400000000001549 0.6666666666661483 0
0.6400000000002268 0.749999999999542 0
0.6400000000002988 0.8333333333329355 0
0.6400000000003707 0.9166666666664214 0
0.7199999999998195 0.08333333333322372 0
0.7199999999998561 0.1666666666664248 0
0.7199999999998925 0.2499999999995739 0
0.7199999999999291 0.333333333332723 0
0.7199999999999656 0.416666666665872 0
0.7200000000000022 0.4999999999990288 0
0.7200000000000388 0.5833333333324946 0
0.7200000000000752 0.666666666665968 0
0.7200000000001119 0.7499999999994413 0
0.7200000000001483 0.8333333333329146 0
0.7200000000001847 0.916666666666434 0
$EndNodes
$Elements
6 1004 1 2732
1 1 1 10
1 1 5 
2 5 6 
3 6 7 
4 7 8 
5 8 9 
6 9 10 
7 10 11 
8 11 12 
9 12 13 
10 13 2 
1 2 1 12
11 2 14 
12 14 15 
13 15 16 
14 16 17 
15 17 18 
16 18 19 
17 19 20 
18 20 21 
19 21 22 
20 22 23 
21 23 24 
22 24 3 
1 3 1 10
23 3 25 
24 25 26 
25 26 27 
26 27 28 
27 28 29 
28 29 30 
29 30 31 
30 31 32 
31 32 33 
32 33 4 
1 4 1 12
33 4 34 
34 34 35 
35 35 36 
36 36 37 
37 37 38 
38 38 39 
39 39 40 
40 40 41 
41 41 42 
42 42 43 
43 43 44 
44 44 1 
1 5 1 720
2013 1 5 
2014 5 44 
2015 44 1 
2016 44 5 
2017 5 45 
2018 45 44 
2019 44 45 
2020 45 43 
2021 43 44 
2022 43 45 
2023 45 46 
2024 46 43 
2025 43 46 
2026 46 42 
2027 42 43 
2028 42 46 
2029 46 47 
2030 47 42 
2031 42 47 
2032 47 41 
2033 41 42 
2034 41 47 
2035 47 48 
2036 48 41 
2037 41 48 
2038 48 40 
2039 40 41 
2040 40 48 
2041 48 49 
2042 49 40 
2043 40 49 
2044 49 39 
2045 39 40 
2046 39 49 
2047 49 50 
2048 50 39 
2049 39 50 
2050 50 38 
2051 38 39 
2052 38 50 
2053 50 51 
2054 51 38 
2055 38 51 
2056 51 37 
2057 37 38 
2058 37 51 
2059 51 52 
2060 52 37 
2061 37 52 
2062 52 36 
2063 36 37 
2064 36 52 
2065 52 53 
2066 53 36 
2067 36 53 
2068 53 35 
2069 35 36 
2070 35 53 
2071 53 54 
2072 54 35 
2073 35 54 
2074 54 34 
2075 34 35 
2076 34 54 
2077 54 55 
2078 55 34 
2079 34 55 
2080 55 4 
2081 4 34 
2082 4 55 
2083 55 33 
2084 33 4 
2085 5 6 
2086 6 45 
2087 45 5 
2088 45 6 
2089 6 56 
2090 56 45 
2091 45 56 
2092 56 46 
2093 46 45 
2094 46 56 
2095 56 57 
2096 57 46 
2097 46 57 
2098 57 47 
2099 47 46 
2100 47 57 
2101 57 58 
2102 58 47 
2103 47 58 
2104 58 48 
2105 48 47 
2106 48 58 
2107 58 59 
2108 59 48 
2109 48 59 
2110 59 49 
2111 49 48 
2112 49 59 
2113 59 60 
2114 60 49 
2115 49 60 
2116 60 50 
2117 50 49 
2118 50 60 
2119 60 61 
2120 61 50 
2121 50 61 
2122 61 51 
2123 51 50 
2124 51 61 
2125 61 62 
2126 62 51 
2127 51 62 
2128 62 52 
2129 52 51 
2130 52 62 
2131 62 63 
2132 63 52 
2133 52 63 
2134 63 53 
2135 53 52 
2136 53 63 
2137 63 64 
2138 64 53 
2139 53 64 
2140 64 54 
2141 54 53 
2142 54 64 
2143 64 65 
2144 65 54 
2145 54 65 
2146 65 55 
2147 55 54 
2148 55 65 
2149 65 66 
2150 66 55 
2151 55 66 
2152 66 33 
2153 33 55 
2154 33 66 
2155 66 32 
2156 32 33 
2157 6 7 
2158 7 56 
2159 56 6 
2160 56 7 
2161 7 67 
2162 67 56 
2163 56 67 
2164 67 57 
2165 57 56 
2166 57 67 
2167 67 68 
2168 68 57 
2169 57 68 
2170 68 58 
2171 58 57 
2172 58 68 
2173 68 69 
2174 69 58 
2175 58 69 
2176 69 59 
2177 59 58 
2178 59 69 
2179 69 70 
2180 70 59 
2181 59 70 
2182 70 60 
2183 60 59 
2184 60 70 
2185 70 71 
2186 71 60 
2187 60 71 
2188 71 61 
2189 61 60 
2190 61 71 
2191 71 72 
2192 72 61 
2193 61 72 
2194 72 62 
2195 62 61 
2196 62 72 
2197 72 73 
2198 73 62 
2199 62 73 
2200 73 63 
2201 63 62 
2202 63 73 
2203 73 74 
2204 74 63 
2205 63 74 
2206 74 64 
2207 64 63 
2208 64 74 
2209 74 75 
2210 75 64 
2211 64 75 
2212 75 65 
2213 65 64 
2214 65 75 
2215 75 76 
2216 76 65 
2217 65 76 
2218 76 66 
2219 66 65 
2220 66 76 
2221 76 77 
2222 77 66 
2223 66 77 
2224 77 32 
2225 32 66 
2226 32 77 
2227 77 31 
2228 31 32 
2229 7 8 
2230 8 67 
2231 67 7 
2232 67 8 
2233 8 78 
2234 78 67 
2235 67 78 
2236 78 68 
2237 68 67 
2238 68 78 
2239 78 79 
2240 79 68 
2241 68 79 
2242 79 69 
2243 69 68 
2244 69 79 
2245 79 80 
2246 80 69 
2247 69 80 
2248 80 70 
2249 70 69 
2250 70 80 
2251 80 81 
2252 81 70 
2253 70 81 
2254 81 71 
2255 71 70 
2256 71 81 
2257 81 82 
2258 82 71 
2259 71 82 
2260 82 72 
2261 72 71 
2262 72 82 
2263 82 83 
2264 83 72 
2265 72 83 
2266 83 73 
2267 73 72 
2268 73 83 
2269 83 84 
2270 84 73 
2271 73 84 
2272 84 74 
2273 74 73 
2274 74 84 
2275 84 85 
2276 85 74 
2277 74 85 
2278 85 75 
2279 75 74 
2280 75 85 
2281 85 86 
2282 86 75 
2283 75 86 
2284 86 76 
2285 76 75 
2286 76 86 
2287 86 87 
2288 87 76 
2289 76 87 
2290 87 77 
2291 77 76 
2292 77 87 
2293 87 88 
2294 88 77 
2295 77 88 
2296 88 31 
2297 31 77 
2298 31 88 
2299 88 30 
2300 30 31 
2301 8 9 
2302 9 78 
2303 78 8 
2304 78 9 
2305 9 89 
2306 89 78 
2307 78 89 
2308 89 79 
2309 79 78 
2310 79 89 
2311 89 90 
2312 90 79 
2313 79 90 
2314 90 80 
2315 80 79 
2316 80 90 
2317 90 91 
2318 91 80 
2319 80 91 
2320 91 81 
2321 81 80 
2322 81 91 
2323 91 92 
2324 92 81 
2325 81 92 
2326 92 82 
2327 82 81 
2328 82 92 
2329 92 93 
2330 93 82 
2331 82 93 
2332 93 83 
2333 83 82 
2334 83 93 
2335 93 94 
2336 94 83 
2337 83 94 
2338 94 84 
2339 84 83 
2340 84 94 
2341 94 95 
2342 95 84 
2343 84 95 
2344 95 85 
2345 85 84 
2346 85 95 
2347 95 96 
2348 96 85 
2349 85 96 
2350 96 86 
2351 86 85 
2352 86 96 
2353 96 97 
2354 97 86 
2355 86 97 
2356 97 87 
2357 87 86 
2358 87 97 
2359 97 98 
2360 98 87 
2361 87 98 
2362 98 88 
2363 88 87 
2364 88 98 
2365 98 99 
2366 99 88 
2367 88 99 
2368 99 30 
2369 30 88 
2370 30 99 
2371 99 29 
2372 29 30 
2373 9 10 
2374 10 89 
2375 89 9 
2376 89 10 
2377 10 100 
2378 100 89 
2379 89 100 
2380 100 90 
2381 90 89 
2382 90 100 
2383 100 101 
2384 101 90 
2385 90 101 
2386 101 91 
2387 91 90 
2388 91 101 
2389 101 102 
2390 102 91 
2391 91 102 
2392 102 92 
2393 92 91 
2394 92 102 
2395 102 103 
2396 103 92 
2397 92 103 
2398 103 93 
2399 93 92 
2400 93 103 
2401 103 104 
2402 104 93 
2403 93 104 
2404 104 94 
2405 94 93 
2406 94 104 
2407 104 105 
2408 105 94 
2409 94 105 
2410 105 95 
2411 95 94 
2412 95 105 
2413 105 106 
2414 106 95 
2415 95 106 
2416 106 96 
2417 96 95 
2418 96 106 
2419 106 107 
2420 107 96 
2421 96 107 
2422 107 97 
2423 97 96 
2424 97 107 
2425 107 108 
2426 108 97 
2427 97 108 
2428 108 98 
2429 98 97 
2430 98 108 
2431 108 109 
2432 109 98 
2433 98 109 
2434 109 99 
2435 99 98 
2436 99 109 
2437 109 110 
2438 110 99 
2439 99 110 
2440 110 29 
2441 29 99 
2442 29 110 
2443 110 28 
2444 28 29 
2445 10 11 
2446 11 100 
2447 100 10 
2448 100 11 
2449 11 111 
2450 111 100 
2451 100 111 
2452 111 101 
2453 101 100 
2454 101 111 
2455 111 112 
2456 112 101 
2457 101 112 
2458 112 102 
2459 102 101 
2460 102 112 
2461 112 113 
2462 113 102 
2463 102 113 
2464 113 103 
2465 103 102 
2466 103 113 
2467 113 114 
2468 114 103 
2469 103 114 
2470 114 104 
2471 104 103 
2472 104 114 
2473 114 115 
2474 115 104 
2475 104 115 
2476 115 105 
2477 105 104 
2478 105 115 
2479 115 116 
2480 116 105 
2481 105 116 
2482 116 106 
2483 106 105 
2484 106 116 
2485 116 117 
2486 117 106 
2487 106 117 
2488 117 107 
2489 107 106 
2490 107 117 
2491 117 118 
2492 118 107 
2493 107 118 
2494 118 108 
2495 108 107 
2496 108 118 
2497 118 119 
2498 119 108 
2499 108 119 
2500 119 109 
2501 109 108 
2502 109 119 
2503 119 120 
2504 120 109 
2505 109 120 
2506 120 110 
2507 110 109 
2508 110 120 
2509 120 121 
2510 121 110 
2511 110 121 
2512 121 28 
2513 28 110 
2514 28 121 
2515 121 27 
2516 27 28 
2517 11 12 
2518 12 111 
2519 111 11 
2520 111 12 
2521 12 122 
2522 122 111 
2523 111 122 
2524 122 112 
2525 112 111 
2526 112 122 
2527 122 123 
2528 123 112 
2529 112 123 
2530 123 113 
2531 113 112 
2532 113 123 
2533 123 124 
2534 124 113 
2535 113 124 
2536 124 114 
2537 114 113 
2538 114 124 
2539 124 125 
2540 125 114 
2541 114 125 
2542 125 115 
2543 115 114 
2544 115 125 
2545 125 126 
2546 126 115 
2547 115 126 
2548 126 116 
2549 116 115 
2550 116 126 
2551 126 127 
2552 127 116 
2553 116 127 
2554 127 117 
2555 117 116 
2556 117 127 
2557 127 128 
2558 128 117 
2559 117 128 
2560 128 118 
2561 118 117 
2562 118 128 
2563 128 129 
2564 129 118 
2565 118 129 
2566 129 119 
2567 119 118 
2568 119 129 
2569 129 130 
2570 130 119 
2571 119 130 
2572 130 120 
2573 120 119 
2574 120 130 
2575 130 131 
2576 131 120 
2577 120 131 
2578 131 121 
2579 121 120 
2580 121 131 
2581 131 132 
2582 132 121 
2583 121 132 
2584 132 27 
2585 27 121 
2586 27 132 
2587 132 26 
2588 26 27 
2589 12 13 
2590 13 122 
2591 122 12 
2592 122 13 
2593 13 133 
2594 133 122 
2595 122 133 
2596 133 123 
2597 123 122 
2598 123 133 
2599 133 134 
2600 134 123 
2601 123 134 
2602 134 124 
2603 124 123 
2604 124 134 
2605 134 135 
2606 135 124 
2607 124 135 
2608 135 125 
2609 125 124 
2610 125 135 
2611 135 136 
2612 136 125 
2613 125 136 
2614 136 126 
2615 126 125 
2616 126 136 
2617 136 137 
2618 137 126 
2619 126 137 
2620 137 127 
2621 127 126 
2622 127 137 
2623 137 138 
2624 138 127 
2625 127 138 
2626 138 128 
2627 128 127 
2628 128 138 
2629 138 139 
2630 139 128 
2631 128 139 
2632 139 129 
2633 129 128 
2634 129 139 
2635 139 140 
2636 140 129 
2637 129 140 
2638 140 130 
2639 130 129 
2640 130 140 
2641 140 141 
2642 141 130 
2643 130 141 
2644 141 131 
2645 131 130 
2646 131 141 
2647 141 142 
2648 142 131 
2649 131 142 
2650 142 132 
2651 132 131 
2652 132 142 
2653 142 143 
2654 143 132 
2655 132 143 
2656 143 26 
2657 26 132 
2658 26 143 
2659 143 25 
2660 25 26 
2661 13 2 
2662 2 133 
2663 133 13 
2664 133 2 
2665 2 14 
2666 14 133 
2667 133 14 
2668 14 134 
2669 134 133 
2670 134 14 
2671 14 15 
2672 15 134 
2673 134 15 
2674 15 135 
2675 135 134 
2676 135 15 
2677 15 16 
2678 16 135 
2679 135 16 
2680 16 136 
2681 136 135 
2682 136 16 
2683 16 17 
2684 17 136 
2685 136 17 
2686 17 137 
2687 137 136 
2688 137 17 
2689 17 18 
2690 18 137 
2691 137 18 
2692 18 138 
2693 138 137 
2694 138 18 
2695 18 19 
2696 19 138 
2697 138 19 
2698 19 139 
2699 139 138 
2700 139 19 
2701 19 20 
2702 20 139 
2703 139 20 
2704 20 140 
2705 140 139 
2706 140 20 
2707 20 21 
2708 21 140 
2709 140 21 
2710 21 141 
2711 141 140 
2712 141 21 
2713 21 22 
2714 22 141 
2715 141 22 
2716 22 142 
2717 142 141 
2718 142 22 
2719 22 23 
2720 23 142 
2721 142 23 
2722 23 143 
2723 143 142 
2724 143 23 
2725 23 24 
2726 24 143 
2727 143 24 
2728 24 25 
2729 25 143 
2730 25 24 
2731 24 3 
2732 3 25 
2 1 2 240
45 1 5 44 
46 44 5 45 
47 44 45 43 
48 43 45 46 
49 43 46 42 
50 42 46 47 
51 42 47 41 
52 41 47 48 
53 41 48 40 
54 40 48 49 
55 40 49 39 
56 39 49 50 
57 39 50 38 
58 38 50 51 
59 38 51 37 
60 37 51 52 
61 37 52 36 
62 36 52 53 
63 36 53 35 
64 35 53 54 
65 35 54 34 
66 34 54 55 
67 34 55 4 
68 4 55 33 
69 5 6 45 
70 45 6 56 
71 45 56 46 
72 46 56 57 
73 46 57 47 
74 47 57 58 
75 47 58 48 
76 48 58 59 
77 48 59 49 
78 49 59 60 
79 49 60 50 
80 50 60 61 
81 50 61 51 
82 51 61 62 
83 51 62 52 
84 52 62 63 
85 52 63 53 
86 53 63 64 
87 53 64 54 
88 54 64 65 
89 54 65 55 
90 55 65 66 
91 55 66 33 
92 33 66 32 
93 6 7 56 
94 56 7 67 
95 56 67 57 
96 57 67 68 
97 57 68 58 
98 58 68 69 
99 58 69 59 
100 59 69 70 
101 59 70 60 
102 60 70 71 
103 60 71 61 
104 61 71 72 
105 61 72 62 
106 62 72 73 
107 62 73 63 
108 63 73 74 
109 63 74 64 
110 64 74 75 
111 64 75 65 
112 65 75 76 
113 65 76 66 
114 66 76 77 
115 66 77 32 
116 32 77 31 
117 7 8 67 
118 67 8 78 
119 67 78 68 
120 68 78 79 
121 68 79 69 
122 69 79 80 
123 69 80 70 
124 70 80 81 
125 70 81 71 
126 71 81 82 
127 71 82 72 
128 72 82 83 
129 72 83 73 
130 73 83 84 
131 73 84 74 
132 74 84 85 
133 74 85 75 
134 75 85 86 
135 75 86 76 
136 76 86 87 
137 76 87 77 
138 77 87 88 
139 77 88 31 
140 31 88 30 
141 8 9 78 
142 78 9 89 
143 78 89 79 
144 79 89 90 
145 79 90 80 
146 80 90 91 
147 80 91 81 
148 81 91 92 
149 81 92 82 
150 82 92 93 
151 82 93 83 
152 83 93 94 
153 83 94 84 
154 84 94 95 
155 84 95 85 
156 85 95 96 
157 85 96 86 
158 86 96 97 
159 86 97 87 
160 87 97 98 
161 87 98 88 
162 88 98 99 
163 88 99 30 
164 30 99 29 
165 9 10 89 
166 89 10 100 
167 89 100 90 
168 90 100 101 
169 90 101 91 
170 91 101 102 
171 91 102 92 
172 92 102 103 
173 92 103 93 
174 93 103 104 
175 93 104 94 
176 94 104 105 
177 94 105 95 
178 95 105 106 
179 95 106 96 
180 96 106 107 
181 96 107 97 
182 97 107 108 
183 97 108 98 
184 98 108 109 
185 98 109 99 
186 99 109 110 
187 99 110 29 
188 29 110 28 
189 10 11 100 
190 100 11 111 
191 100 111 101 
192 101 111 112 
193 101 112 102 
194 102 112 113 
195 102 113 103 
196 103 113 114 
197 103 114 104 
198 104 114 115 
199 104 115 105 
200 105 115 116 
201 105 116 106 
202 106 116 117 
203 106 117 107 
204 107 117 118 
205 107 118 108 
206 108 118 119 
207 108 119 109 
208 109 119 120 
209 109 120 110 
210 110 120 121 
211 110 121 28 
212 28 121 27 
213 11 12 111 
214 111 12 122 
215 111 122 112 
216 112 122 123 
217 112 123 113 
218 113 123 124 
219 113 124 114 
220 114 124 125 
221 114 125 115 
222 115 125 126 
223 115 126 116 
224 116 126 127 
225 116 127 117 
226 117 127 128 
227 117 128 118 
228 118 128 129 
229 118 129 119 
230 119 129 130 
231 119 130 120 
232 120 130 131 
233 120 131 121 
234 121 131 132 
235 121 132 27 
236 27 132 26 
237 12 13 122 
238 122 13 133 
239 122 133 123 
240 123 133 134 
241 123 134 124 
242 124 134 135 
243 124 135 125 
244 125 135 136 
245 125 136 126 
246 126 136 137 
247 126 137 127 
248 127 137 138 
249 127 138 128 
250 128 138 139 
251 128 139 129 
252 129 139 140 
253 129 140 130 
254 130 140 141 
255 130 141 131 
256 131 141 142 
257 131 142 132 
258 132 142 143 
259 132 143 26 
260 26 143 25 
261 13 2 133 
262 133 2 14 
263 133 14 134 
264 134 14 15 
265 134 15 135 
266 135 15 16 
267 135 16 136 
268 136 16 17 
269 136 17 137 
270 137 17 18 
271 137 18 138 
272 138 18 19 
273 138 19 139 
274 139 19 20 
275 139 20 140 
276 140 20 21 
277 140 21 141 
278 141 21 22 
279 141 22 142 
280 142 22 23 
281 142 23 143 
282 143 23 24 
283 143 24 25 
284 25 24 3 
$EndElements
