$MeshFormat
4.1 0 8
$EndMeshFormat
$PhysicalNames
6
1 1 "Γ¹"
1 2 "Γ²"
1 3 "Γ³"
1 4 "Γ⁴"
1 6 "Γ"
2 5 "Ω"
$EndPhysicalNames
$Entities
4 5 1 0
1 0 0 0 0 
2 2 0 0 0 
3 2 1 0 0 
4 0 1 0 0 
1 0 0 0 2 0 0 1 1 2 1 -2 
2 2 0 0 2 1 0 1 2 2 2 -3 
3 0 1 0 2 1 0 1 3 2 3 -4 
4 0 0 0 0 1 0 1 4 2 4 -1 
5 0 0 0 2 1 0 1 6 0 
1 0 0 0 2 1 0 1 5 4 1 2 3 4 
$EndEntities
$Nodes
10 325 1 325
0 1 0 1
1
0 0 0
0 2 0 1
2
2 0 0
0 3 0 1
3
2 1 0
0 4 0 1
4
0 1 0
1 1 0 23
5
6
7
8
9
10
11
12
13
14
15
16
17
18
19
20
21
22
23
24
25
26
27
0.0833333333331692 0 0
0.1666666666663459 0 0
0.2499999999995462 0 0
0.3333333333326417 0 0
0.4166666666657318 0 0
0.4999999999988218 0 0
0.583333333331912 0 0
0.6666666666650021 0 0
0.7499999999980921 0 0
0.8333333333311822 0 0
0.9166666666642723 0 0
0.9999999999973841 0 0
1.083333333330915 0 0
1.166666666664469 0 0
1.249999999998022 0 0
1.333333333331575 0 0
1.416666666665128 0 0
1.499999999998681 0 0
1.583333333332234 0 0
1.666666666665787 0 0
1.749999999999341 0 0
1.833333333332894 0 0
1.916666666666447 0 0
1 2 0 11
28
29
30
31
32
33
34
35
36
37
38
2 0.08333333333317297 0
2 0.1666666666663209 0
2 0.2499999999994109 0
2 0.333333333332501 0
2 0.4166666666655911 0
2 0.499999999998692 0
2 0.5833333333322344 0
2 0.6666666666657874 0
2 0.7499999999993405 0
2 0.8333333333328937 0
2 0.9166666666664468 0
1 3 0 23
39
40
41
42
43
44
45
46
47
48
49
50
51
52
53
54
55
56
57
58
59
60
61
1.91666666666632 1 0
1.833333333332639 1 0
1.749999999999002 1 0
1.666666666666204 1 0
1.583333333333449 1 0
1.500000000000694 1 0
1.416666666667939 1 0
1.333333333335184 1 0
1.250000000002428 1 0
1.166666666669673 1 0
1.083333333336918 1 0
1.000000000004119 1 0
0.9166666666704819 1 0
0.833333333336802 1 0
0.7500000000031217 1 0
0.6666666666694414 1 0
0.5833333333357613 1 0
0.500000000002081 1 0
0.4166666666684009 1 0
0.3333333333347208 1 0
0.2500000000010405 1 0
0.1666666666673604 1 0
0.08333333333368032 1 0
1 4 0 11
62
63
64
65
66
67
68
69
70
71
72
0 0.9166666666663197 0
0 0.833333333333102 0
0 0.7500000000003471 0
0 0.6666666666675918 0
0 0.5833333333348364 0
0 0.5000000000020595 0
0 0.416666666668401 0
0 0.3333333333347207 0
0 0.2500000000010405 0
0 0.1666666666673604 0
0 0.0833333333336802 0
1 5 0 0
2 1 0 253
73
74
75
76
77
78
79
80
81
82
83
84
85
86
87
88
89
90
91
92
93
94
95
96
97
98
99
100
101
102
103
104
105
106
107
108
109
110
111
112
113
114
115
116
117
118
119
120
121
122
123
124
125
126
127
128
129
130
131
132
133
134
135
136
137
138
139
140
141
142
143
144
145
146
147
148
149
150
151
152
153
154
155
156
157
158
159
160
161
162
163
164
165
166
167
168
169
170
171
172
173
174
175
176
177
178
179
180
181
182
183
184
185
186
187
188
189
190
191
192
193
194
195
196
197
198
199
200
201
202
203
204
205
206
207
208
209
210
211
212
213
214
215
216
217
218
219
220
221
222
223
224
225
226
227
228
229
230
231
232
233
234
235
236
237
238
239
240
241
242
243
244
245
246
247
248
249
250
251
252
253
254
255
256
257
258
259
260
261
262
263
264
265
266
267
268
269
270
271
272
273
274
275
276
277
278
279
280
281
282
283
284
285
286
287
288
289
290
291
292
293
294
295
296
297
298
299
300
301
302
303
304
305
306
307
308
309
310
311
312
313
314
315
316
317
318
319
320
321
322
323
324
325
0.08333333333321181 0.08333333333365907 0
0.08333333333325439 0.1666666666673171 0
0.08333333333329701 0.2500000000009727 0
0.08333333333333956 0.3333333333346282 0
0.08333333333338215 0.4166666666682839 0
0.08333333333342476 0.5000000000019191 0
0.08333333333346736 0.5833333333347279 0
0.08333333333350994 0.6666666666675165 0
0.08333333333355254 0.750000000000305 0
0.08333333333359515 0.8333333333330933 0
0.08333333333363772 0.916666666666325 0
0.1666666666664305 0.08333333333363795 0
0.166666666666515 0.1666666666672738 0
0.1666666666665996 0.2500000000009047 0
0.1666666666666841 0.3333333333345357 0
0.1666666666667686 0.4166666666681669 0
0.1666666666668532 0.5000000000017788 0
0.1666666666669377 0.5833333333346196 0
0.1666666666670222 0.6666666666674415 0
0.1666666666671068 0.7500000000002632 0
0.1666666666671913 0.8333333333330848 0
0.1666666666672759 0.9166666666663303 0
0.2499999999996707 0.0833333333336168 0
0.2499999999997953 0.1666666666672305 0
0.2499999999999197 0.2500000000008368 0
0.2500000000000443 0.3333333333344432 0
0.2500000000001689 0.4166666666680497 0
0.2500000000002933 0.5000000000016385 0
0.2500000000004179 0.5833333333345112 0
0.2500000000005425 0.6666666666673662 0
0.2500000000006669 0.750000000000221 0
0.2500000000007915 0.8333333333330757 0
0.2500000000009159 0.9166666666663357 0
0.3333333333328149 0.08333333333359565 0
0.3333333333329883 0.1666666666671872 0
0.3333333333331615 0.2500000000007688 0
0.3333333333333348 0.3333333333343508 0
0.333333333333508 0.4166666666679327 0
0.3333333333336812 0.5000000000014984 0
0.3333333333338545 0.5833333333344026 0
0.3333333333340278 0.6666666666672909 0
0.333333333334201 0.7500000000001792 0
0.3333333333343743 0.8333333333330672 0
0.3333333333345476 0.916666666666341 0
0.4166666666659542 0.08333333333357455 0
0.4166666666661766 0.1666666666671439 0
0.4166666666663991 0.250000000000701 0
0.4166666666666214 0.3333333333342582 0
0.4166666666668438 0.4166666666678156 0
0.4166666666670663 0.500000000001358 0
0.4166666666672888 0.5833333333342943 0
0.4166666666675112 0.6666666666672159 0
0.4166666666677336 0.7500000000001372 0
0.416666666667956 0.8333333333330584 0
0.4166666666681785 0.9166666666663463 0
0.4999999999990934 0.08333333333355342 0
0.499999999999365 0.1666666666671006 0
0.4999999999996365 0.2500000000006332 0
0.4999999999999083 0.3333333333341658 0
0.5000000000001799 0.4166666666676986 0
0.5000000000004514 0.5000000000012177 0
0.500000000000723 0.5833333333341859 0
0.5000000000009945 0.6666666666671408 0
0.5000000000012661 0.7500000000000954 0
0.5000000000015379 0.8333333333330499 0
0.5000000000018094 0.9166666666663514 0
0.5833333333322327 0.08333333333353225 0
0.5833333333325534 0.1666666666670572 0
0.5833333333328743 0.2500000000005652 0
0.5833333333331951 0.3333333333340733 0
0.5833333333335158 0.4166666666675815 0
0.5833333333338366 0.5000000000010774 0
0.5833333333341575 0.5833333333340776 0
0.5833333333344781 0.6666666666670655 0
0.583333333334799 0.7500000000000537 0
0.5833333333351198 0.8333333333330412 0
0.5833333333354407 0.9166666666663568 0
0.666666666665372 0.08333333333351112 0
0.6666666666657419 0.1666666666670139 0
0.6666666666661119 0.2500000000004973 0
0.6666666666664819 0.3333333333339809 0
0.6666666666668518 0.4166666666674644 0
0.6666666666672217 0.500000000000937 0
0.6666666666675917 0.5833333333339692 0
0.6666666666679616 0.6666666666669903 0
0.6666666666683315 0.7500000000000113 0
0.6666666666687017 0.8333333333330326 0
0.6666666666690716 0.9166666666663621 0
0.7499999999985114 0.08333333333349001 0
0.7499999999989304 0.1666666666669706 0
0.7499999999993494 0.2500000000004294 0
0.7499999999997689 0.3333333333338883 0
0.7500000000001876 0.4166666666673473 0
0.7500000000006068 0.5000000000007967 0
0.7500000000010258 0.5833333333338606 0
0.7500000000014453 0.6666666666669152 0
0.7500000000018643 0.7499999999999697 0
0.7500000000022833 0.8333333333330237 0
0.7500000000027025 0.9166666666663674 0
0.8333333333316506 0.08333333333346886 0
0.8333333333321189 0.1666666666669273 0
0.8333333333325872 0.2500000000003615 0
0.8333333333330554 0.3333333333337958 0
0.8333333333335238 0.4166666666672302 0
0.8333333333339921 0.5000000000006564 0
0.8333333333344606 0.5833333333337523 0
0.8333333333349286 0.6666666666668399 0
0.8333333333353972 0.7499999999999275 0
0.8333333333358652 0.8333333333330154 0
0.8333333333363337 0.9166666666663728 0
0.9166666666647896 0.08333333333344771 0
0.9166666666653071 0.166666666666884 0
0.9166666666658247 0.2500000000002937 0
0.9166666666663423 0.3333333333337034 0
0.9166666666668597 0.4166666666671132 0
0.9166666666673771 0.500000000000516 0
0.9166666666678944 0.5833333333336437 0
0.9166666666684122 0.6666666666667647 0
0.9166666666689296 0.7499999999998858 0
0.916666666669447 0.8333333333330065 0
0.9166666666699643 0.9166666666663779 0
0.9999999999979454 0.08333333333342659 0
0.9999999999985065 0.1666666666668406 0
0.9999999999990679 0.2500000000002257 0
0.9999999999996292 0.3333333333336109 0
1.000000000000191 0.416666666666996 0
1.000000000000751 0.5000000000003757 0
1.000000000001313 0.5833333333335353 0
1.000000000001874 0.6666666666666896 0
1.000000000002435 0.7499999999998438 0
1.000000000002997 0.8333333333329979 0
1.000000000003558 0.9166666666663832 0
1.083333333331415 0.08333333333340547 0
1.083333333331916 0.1666666666667973 0
1.083333333332416 0.2500000000001578 0
1.083333333332916 0.3333333333335184 0
1.083333333333417 0.416666666666879 0
1.083333333333917 0.5000000000002354 0
1.083333333334417 0.583333333333427 0
1.083333333334917 0.6666666666666146 0
1.083333333335417 0.7499999999998018 0
1.083333333335918 0.8333333333329892 0
1.083333333336418 0.9166666666663885 0
1.166666666664902 0.08333333333338432 0
1.166666666665336 0.166666666666754 0
1.16666666666577 0.2500000000000899 0
1.166666666666204 0.3333333333334258 0
1.166666666666637 0.4166666666667619 0
1.166666666667071 0.500000000000095 0
1.166666666667505 0.5833333333333186 0
1.166666666667938 0.6666666666665393 0
1.166666666668372 0.7499999999997601 0
1.166666666668805 0.8333333333329805 0
1.166666666669239 0.9166666666663938 0
1.249999999998389 0.08333333333336317 0
1.249999999998757 0.1666666666667107 0
1.249999999999123 0.250000000000022 0
1.249999999999491 0.3333333333333334 0
1.249999999999858 0.4166666666666448 0
1.250000000000225 0.4999999999999547 0
1.250000000000592 0.5833333333332102 0
1.250000000000959 0.666666666666464 0
1.250000000001326 0.7499999999997179 0
1.250000000001694 0.833333333332972 0
1.250000000002061 0.9166666666663992 0
1.333333333331876 0.08333333333334207 0
1.333333333332176 0.1666666666666674 0
1.333333333332477 0.2499999999999541 0
1.333333333332778 0.3333333333332409 0
1.333333333333078 0.4166666666665277 0
1.333333333333379 0.4999999999998144 0
1.33333333333368 0.5833333333331017 0
1.333333333333981 0.666666666666389 0
1.333333333334281 0.7499999999996761 0
1.333333333334582 0.8333333333329629 0
1.333333333334883 0.9166666666664045 0
1.416666666665362 0.08333333333332092 0
1.416666666665596 0.1666666666666241 0
1.416666666665831 0.2499999999998862 0
1.416666666666065 0.3333333333331485 0
1.416666666666299 0.4166666666664107 0
1.416666666666533 0.4999999999996743 0
1.416666666666768 0.5833333333329933 0
1.416666666667002 0.6666666666663137 0
1.416666666667236 0.749999999999634 0
1.41666666666747 0.8333333333329546 0
1.416666666667705 0.9166666666664096 0
1.499999999998848 0.08333333333329977 0
1.499999999999017 0.1666666666665808 0
1.499999999999184 0.2499999999998183 0
1.499999999999353 0.333333333333056 0
1.49999999999952 0.4166666666662936 0
1.499999999999687 0.4999999999995339 0
1.499999999999855 0.5833333333328847 0
1.500000000000023 0.6666666666662384 0
1.500000000000191 0.7499999999995922 0
1.500000000000359 0.8333333333329458 0
1.500000000000526 0.9166666666664152 0
1.583333333332336 0.08333333333327862 0
1.583333333332437 0.1666666666665374 0
1.583333333332538 0.2499999999997504 0
1.583333333332639 0.3333333333329635 0
1.58333333333274 0.4166666666661765 0
1.583333333332842 0.4999999999993936 0
1.583333333332943 0.5833333333327764 0
1.583333333333044 0.6666666666661634 0
1.583333333333145 0.7499999999995502 0
1.583333333333246 0.8333333333329372 0
1.583333333333348 0.9166666666664205 0
1.666666666665822 0.08333333333325753 0
1.666666666665857 0.1666666666664941 0
1.666666666665892 0.2499999999996825 0
1.666666666665927 0.3333333333328709 0
1.666666666665961 0.4166666666660594 0
1.666666666665996 0.4999999999992533 0
1.66666666666603 0.583333333332668 0
1.666666666666065 0.6666666666660881 0
1.6666666666661 0.7499999999995082 0
1.666666666666134 0.8333333333329284 0
1.66666666666617 0.9166666666664256 0
1.749999999999312 0.08333333333323638 0
1.749999999999284 0.1666666666664508 0
1.749999999999256 0.2499999999996146 0
1.749999999999228 0.3333333333327785 0
1.749999999999199 0.4166666666659424 0
1.749999999999171 0.4999999999991129 0
1.749999999999143 0.5833333333325597 0
1.749999999999115 0.6666666666660128 0
1.749999999999087 0.7499999999994665 0
1.749999999999059 0.8333333333329199 0
1.749999999999031 0.9166666666664309 0
1.833333333332873 0.08333333333321523 0
1.833333333332851 0.1666666666664075 0
1.83333333333283 0.2499999999995467 0
1.833333333332809 0.3333333333326859 0
1.833333333332788 0.4166666666658253 0
1.833333333332766 0.4999999999989727 0
1.833333333332746 0.5833333333324513 0
1.833333333332724 0.6666666666659378 0
1.833333333332703 0.7499999999994243 0
1.833333333332682 0.833333333332911 0
1.833333333332661 0.9166666666664363 0
1.916666666666436 0.08333333333319408 0
1.916666666666426 0.1666666666663642 0
1.916666666666415 0.2499999999994788 0
1.916666666666405 0.3333333333325936 0
1.916666666666394 0.4166666666657082 0
1.916666666666383 0.4999999999988324 0
1.916666666666373 0.5833333333323429 0
1.916666666666362 0.6666666666658627 0
1.916666666666352 0.7499999999993826 0
1.916666666666341 0.8333333333329024 0
1.91666666666633 0.9166666666664414 0
$EndNodes
$Elements
6 2376 1 6484
1 1 1 24
1 1 5 
2 5 6 
3 6 7 
4 7 8 
5 8 9 
6 9 10 
7 10 11 
8 11 12 
9 12 13 
10 13 14 
11 14 15 
12 15 16 
13 16 17 
14 17 18 
15 18 19 
16 19 20 
17 20 21 
18 21 22 
19 22 23 
20 23 24 
21 24 25 
22 25 26 
23 26 27 
24 27 2 
1 2 1 12
25 2 28 
26 28 29 
27 29 30 
28 30 31 
29 31 32 
30 32 33 
31 33 34 
32 34 35 
33 35 36 
34 36 37 
35 37 38 
36 38 3 
1 3 1 24
37 3 39 
38 39 40 
39 40 41 
40 41 42 
41 42 43 
42 43 44 
43 44 45 
44 45 46 
45 46 47 
46 47 48 
47 48 49 
48 49 50 
49 50 51 
50 51 52 
51 52 53 
52 53 54 
53 54 55 
54 55 56 
55 56 57 
56 57 58 
57 58 59 
58 59 60 
59 60 61 
60 61 4 
1 4 1 12
61 4 62 
62 62 63 
63 63 64 
64 64 65 
65 65 66 
66 66 67 
67 67 68 
68 68 69 
69 69 70 
70 70 71 
71 71 72 
72 72 1 
1 5 1 1728
4757 1 5 
4758 5 72 
4759 72 1 
4760 72 5 
4761 5 73 
4762 73 72 
4763 72 73 
4764 73 71 
4765 71 72 
4766 71 73 
4767 73 74 
4768 74 71 
4769 71 74 
4770 74 70 
4771 70 71 
4772 70 74 
4773 74 75 
4774 75 70 
4775 70 75 
4776 75 69 
4777 69 70 
4778 69 75 
4779 75 76 
4780 76 69 
4781 69 76 
4782 76 68 
4783 68 69 
4784 68 76 
4785 76 77 
4786 77 68 
4787 68 77 
4788 77 67 
4789 67 68 
4790 67 77 
4791 77 78 
4792 78 67 
4793 67 78 
4794 78 66 
4795 66 67 
4796 66 78 
4797 78 79 
4798 79 66 
4799 66 79 
4800 79 65 
4801 65 66 
4802 65 79 
4803 79 80 
4804 80 65 
4805 65 80 
4806 80 64 
4807 64 65 
4808 64 80 
4809 80 81 
4810 81 64 
4811 64 81 
4812 81 63 
4813 63 64 
4814 63 81 
4815 81 82 
4816 82 63 
4817 63 82 
4818 82 62 
4819 62 63 
4820 62 82 
4821 82 83 
4822 83 62 
4823 62 83 
4824 83 4 
4825 4 62 
4826 4 83 
4827 83 61 
4828 61 4 
4829 5 6 
4830 6 73 
4831 73 5 
4832 73 6 
4833 6 84 
4834 84 73 
4835 73 84 
4836 84 74 
4837 74 73 
4838 74 84 
4839 84 85 
4840 85 74 
4841 74 85 
4842 85 75 
4843 75 74 
4844 75 85 
4845 85 86 
4846 86 75 
4847 75 86 
4848 86 76 
4849 76 75 
4850 76 86 
4851 86 87 
4852 87 76 
4853 76 87 
4854 87 77 
4855 77 76 
4856 77 87 
4857 87 88 
4858 88 77 
4859 77 88 
4860 88 78 
4861 78 77 
4862 78 88 
4863 88 89 
4864 89 78 
4865 78 89 
4866 89 79 
4867 79 78 
4868 79 89 
4869 89 90 
4870 90 79 
4871 79 90 
4872 90 80 
4873 80 79 
4874 80 90 
4875 90 91 
4876 91 80 
4877 80 91 
4878 91 81 
4879 81 80 
4880 81 91 
4881 91 92 
4882 92 81 
4883 81 92 
4884 92 82 
4885 82 81 
4886 82 92 
4887 92 93 
4888 93 82 
4889 82 93 
4890 93 83 
4891 83 82 
4892 83 93 
4893 93 94 
4894 94 83 
4895 83 94 
4896 94 61 
4897 61 83 
4898 61 94 
4899 94 60 
4900 60 61 
4901 6 7 
4902 7 84 
4903 84 6 
4904 84 7 
4905 7 95 
4906 95 84 
4907 84 95 
4908 95 85 
4909 85 84 
4910 85 95 
4911 95 96 
4912 96 85 
4913 85 96 
4914 96 86 
4915 86 85 
4916 86 96 
4917 96 97 
4918 97 86 
4919 86 97 
4920 97 87 
4921 87 86 
4922 87 97 
4923 97 98 
4924 98 87 
4925 87 98 
4926 98 88 
4927 88 87 
4928 88 98 
4929 98 99 
4930 99 88 
4931 88 99 
4932 99 89 
4933 89 88 
4934 89 99 
4935 99 100 
4936 100 89 
4937 89 100 
4938 100 90 
4939 90 89 
4940 90 100 
4941 100 101 
4942 101 90 
4943 90 101 
4944 101 91 
4945 91 90 
4946 91 101 
4947 101 102 
4948 102 91 
4949 91 102 
4950 102 92 
4951 92 91 
4952 92 102 
4953 102 103 
4954 103 92 
4955 92 103 
4956 103 93 
4957 93 92 
4958 93 103 
4959 103 104 
4960 104 93 
4961 93 104 
4962 104 94 
4963 94 93 
4964 94 104 
4965 104 105 
4966 105 94 
4967 94 105 
4968 105 60 
4969 60 94 
4970 60 105 
4971 105 59 
4972 59 60 
4973 7 8 
4974 8 95 
4975 95 7 
4976 95 8 
4977 8 106 
4978 106 95 
4979 95 106 
4980 106 96 
4981 96 95 
4982 96 106 
4983 106 107 
4984 107 96 
4985 96 107 
4986 107 97 
4987 97 96 
4988 97 107 
4989 107 108 
4990 108 97 
4991 97 108 
4992 108 98 
4993 98 97 
4994 98 108 
4995 108 109 
4996 109 98 
4997 98 109 
4998 109 99 
4999 99 98 
5000 99 109 
5001 109 110 
5002 110 99 
5003 99 110 
5004 110 100 
5005 100 99 
5006 100 110 
5007 110 111 
5008 111 100 
5009 100 111 
5010 111 101 
5011 101 100 
5012 101 111 
5013 111 112 
5014 112 101 
5015 101 112 
5016 112 102 
5017 102 101 
5018 102 112 
5019 112 113 
5020 113 102 
5021 102 113 
5022 113 103 
5023 103 102 
5024 103 113 
5025 113 114 
5026 114 103 
5027 103 114 
5028 114 104 
5029 104 103 
5030 104 114 
5031 114 115 
5032 115 104 
5033 104 115 
5034 115 105 
5035 105 104 
5036 105 115 
5037 115 116 
5038 116 105 
5039 105 116 
5040 116 59 
5041 59 105 
5042 59 116 
5043 116 58 
5044 58 59 
5045 8 9 
5046 9 106 
5047 106 8 
5048 106 9 
5049 9 117 
5050 117 106 
5051 106 117 
5052 117 107 
5053 107 106 
5054 107 117 
5055 117 118 
5056 118 107 
5057 107 118 
5058 118 108 
5059 108 107 
5060 108 118 
5061 118 119 
5062 119 108 
5063 108 119 
5064 119 109 
5065 109 108 
5066 109 119 
5067 119 120 
5068 120 109 
5069 109 120 
5070 120 110 
5071 110 109 
5072 110 120 
5073 120 121 
5074 121 110 
5075 110 121 
5076 121 111 
5077 111 110 
5078 111 121 
5079 121 122 
5080 122 111 
5081 111 122 
5082 122 112 
5083 112 111 
5084 112 122 
5085 122 123 
5086 123 112 
5087 112 123 
5088 123 113 
5089 113 112 
5090 113 123 
5091 123 124 
5092 124 113 
5093 113 124 
5094 124 114 
5095 114 113 
5096 114 124 
5097 124 125 
5098 125 114 
5099 114 125 
5100 125 115 
5101 115 114 
5102 115 125 
5103 125 126 
5104 126 115 
5105 115 126 
5106 126 116 
5107 116 115 
5108 116 126 
5109 126 127 
5110 127 116 
5111 116 127 
5112 127 58 
5113 58 116 
5114 58 127 
5115 127 57 
5116 57 58 
5117 9 10 
5118 10 117 
5119 117 9 
5120 117 10 
5121 10 128 
5122 128 117 
5123 117 128 
5124 128 118 
5125 118 117 
5126 118 128 
5127 128 129 
5128 129 118 
5129 118 129 
5130 129 119 
5131 119 118 
5132 119 129 
5133 129 130 
5134 130 119 
5135 119 130 
5136 130 120 
5137 120 119 
5138 120 130 
5139 130 131 
5140 131 120 
5141 120 131 
5142 131 121 
5143 121 120 
5144 121 131 
5145 131 132 
5146 132 121 
5147 121 132 
5148 132 122 
5149 122 121 
5150 122 132 
5151 132 133 
5152 133 122 
5153 122 133 
5154 133 123 
5155 123 122 
5156 123 133 
5157 133 134 
5158 134 123 
5159 123 134 
5160 134 124 
5161 124 123 
5162 124 134 
5163 134 135 
5164 135 124 
5165 124 135 
5166 135 125 
5167 125 124 
5168 125 135 
5169 135 136 
5170 136 125 
5171 125 136 
5172 136 126 
5173 126 125 
5174 126 136 
5175 136 137 
5176 137 126 
5177 126 137 
5178 137 127 
5179 127 126 
5180 127 137 
5181 137 138 
5182 138 127 
5183 127 138 
5184 138 57 
5185 57 127 
5186 57 138 
5187 138 56 
5188 56 57 
5189 10 11 
5190 11 128 
5191 128 10 
5192 128 11 
5193 11 139 
5194 139 128 
5195 128 139 
5196 139 129 
5197 129 128 
5198 129 139 
5199 139 140 
5200 140 129 
5201 129 140 
5202 140 130 
5203 130 129 
5204 130 140 
5205 140 141 
5206 141 130 
5207 130 141 
5208 141 131 
5209 131 130 
5210 131 141 
5211 141 142 
5212 142 131 
5213 131 142 
5214 142 132 
5215 132 131 
5216 132 142 
5217 142 143 
5218 143 132 
5219 132 143 
5220 143 133 
5221 133 132 
5222 133 143 
5223 143 144 
5224 144 133 
5225 133 144 
5226 144 134 
5227 134 133 
5228 134 144 
5229 144 145 
5230 145 134 
5231 134 145 
5232 145 135 
5233 135 134 
5234 135 145 
5235 145 146 
5236 146 135 
5237 135 146 
5238 146 136 
5239 136 135 
5240 136 146 
5241 146 147 
5242 147 136 
5243 136 147 
5244 147 137 
5245 137 136 
5246 137 147 
5247 147 148 
5248 148 137 
5249 137 148 
5250 148 138 
5251 138 137 
5252 138 148 
5253 148 149 
5254 149 138 
5255 138 149 
5256 149 56 
5257 56 138 
5258 56 149 
5259 149 55 
5260 55 56 
5261 11 12 
5262 12 139 
5263 139 11 
5264 139 12 
5265 12 150 
5266 150 139 
5267 139 150 
5268 150 140 
5269 140 139 
5270 140 150 
5271 150 151 
5272 151 140 
5273 140 151 
5274 151 141 
5275 141 140 
5276 141 151 
5277 151 152 
5278 152 141 
5279 141 152 
5280 152 142 
5281 142 141 
5282 142 152 
5283 152 153 
5284 153 142 
5285 142 153 
5286 153 143 
5287 143 142 
5288 143 153 
5289 153 154 
5290 154 143 
5291 143 154 
5292 154 144 
5293 144 143 
5294 144 154 
5295 154 155 
5296 155 144 
5297 144 155 
5298 155 145 
5299 145 144 
5300 145 155 
5301 155 156 
5302 156 145 
5303 145 156 
5304 156 146 
5305 146 145 
5306 146 156 
5307 156 157 
5308 157 146 
5309 146 157 
5310 157 147 
5311 147 146 
5312 147 157 
5313 157 158 
5314 158 147 
5315 147 158 
5316 158 148 
5317 148 147 
5318 148 158 
5319 158 159 
5320 159 148 
5321 148 159 
5322 159 149 
5323 149 148 
5324 149 159 
5325 159 160 
5326 160 149 
5327 149 160 
5328 160 55 
5329 55 149 
5330 55 160 
5331 160 54 
5332 54 55 
5333 12 13 
5334 13 150 
5335 150 12 
5336 150 13 
5337 13 161 
5338 161 150 
5339 150 161 
5340 161 151 
5341 151 150 
5342 151 161 
5343 161 162 
5344 162 151 
5345 151 162 
5346 162 152 
5347 152 151 
5348 152 162 
5349 162 163 
5350 163 152 
5351 152 163 
5352 163 153 
5353 153 152 
5354 153 163 
5355 163 164 
5356 164 153 
5357 153 164 
5358 164 154 
5359 154 153 
5360 154 164 
5361 164 165 
5362 165 154 
5363 154 165 
5364 165 155 
5365 155 154 
5366 155 165 
5367 165 166 
5368 166 155 
5369 155 166 
5370 166 156 
5371 156 155 
5372 156 166 
5373 166 167 
5374 167 156 
5375 156 167 
5376 167 157 
5377 157 156 
5378 157 167 
5379 167 168 
5380 168 157 
5381 157 168 
5382 168 158 
5383 158 157 
5384 158 168 
5385 168 169 
5386 169 158 
5387 158 169 
5388 169 159 
5389 159 158 
5390 159 169 
5391 169 170 
5392 170 159 
5393 159 170 
5394 170 160 
5395 160 159 
5396 160 170 
5397 170 171 
5398 171 160 
5399 160 171 
5400 171 54 
5401 54 160 
5402 54 171 
5403 171 53 
5404 53 54 
5405 13 14 
5406 14 161 
5407 161 13 
5408 161 14 
5409 14 172 
5410 172 161 
5411 161 172 
5412 172 162 
5413 162 161 
5414 162 172 
5415 172 173 
5416 173 162 
5417 162 173 
5418 173 163 
5419 163 162 
5420 163 173 
5421 173 174 
5422 174 163 
5423 163 174 
5424 174 164 
5425 164 163 
5426 164 174 
5427 174 175 
5428 175 164 
5429 164 175 
5430 175 165 
5431 165 164 
5432 165 175 
5433 175 176 
5434 176 165 
5435 165 176 
5436 176 166 
5437 166 165 
5438 166 176 
5439 176 177 
5440 177 166 
5441 166 177 
5442 177 167 
5443 167 166 
5444 167 177 
5445 177 178 
5446 178 167 
5447 167 178 
5448 178 168 
5449 168 167 
5450 168 178 
5451 178 179 
5452 179 168 
5453 168 179 
5454 179 169 
5455 169 168 
5456 169 179 
5457 179 180 
5458 180 169 
5459 169 180 
5460 180 170 
5461 170 169 
5462 170 180 
5463 180 181 
5464 181 170 
5465 170 181 
5466 181 171 
5467 171 170 
5468 171 181 
5469 181 182 
5470 182 171 
5471 171 182 
5472 182 53 
5473 53 171 
5474 53 182 
5475 182 52 
5476 52 53 
5477 14 15 
5478 15 172 
5479 172 14 
5480 172 15 
5481 15 183 
5482 183 172 
5483 172 183 
5484 183 173 
5485 173 172 
5486 173 183 
5487 183 184 
5488 184 173 
5489 173 184 
5490 184 174 
5491 174 173 
5492 174 184 
5493 184 185 
5494 185 174 
5495 174 185 
5496 185 175 
5497 175 174 
5498 175 185 
5499 185 186 
5500 186 175 
5501 175 186 
5502 186 176 
5503 176 175 
5504 176 186 
5505 186 187 
5506 187 176 
5507 176 187 
5508 187 177 
5509 177 176 
5510 177 187 
5511 187 188 
5512 188 177 
5513 177 188 
5514 188 178 
5515 178 177 
5516 178 188 
5517 188 189 
5518 189 178 
5519 178 189 
5520 189 179 
5521 179 178 
5522 179 189 
5523 189 190 
5524 190 179 
5525 179 190 
5526 190 180 
5527 180 179 
5528 180 190 
5529 190 191 
5530 191 180 
5531 180 191 
5532 191 181 
5533 181 180 
5534 181 191 
5535 191 192 
5536 192 181 
5537 181 192 
5538 192 182 
5539 182 181 
5540 182 192 
5541 192 193 
5542 193 182 
5543 182 193 
5544 193 52 
5545 52 182 
5546 52 193 
5547 193 51 
5548 51 52 
5549 15 16 
5550 16 183 
5551 183 15 
5552 183 16 
5553 16 194 
5554 194 183 
5555 183 194 
5556 194 184 
5557 184 183 
5558 184 194 
5559 194 195 
5560 195 184 
5561 184 195 
5562 195 185 
5563 185 184 
5564 185 195 
5565 195 196 
5566 196 185 
5567 185 196 
5568 196 186 
5569 186 185 
5570 186 196 
5571 196 197 
5572 197 186 
5573 186 197 
5574 197 187 
5575 187 186 
5576 187 197 
5577 197 198 
5578 198 187 
5579 187 198 
5580 198 188 
5581 188 187 
5582 188 198 
5583 198 199 
5584 199 188 
5585 188 199 
5586 199 189 
5587 189 188 
5588 189 199 
5589 199 200 
5590 200 189 
5591 189 200 
5592 200 190 
5593 190 189 
5594 190 200 
5595 200 201 
5596 201 190 
5597 190 201 
5598 201 191 
5599 191 190 
5600 191 201 
5601 201 202 
5602 202 191 
5603 191 202 
5604 202 192 
5605 192 191 
5606 192 202 
5607 202 203 
5608 203 192 
5609 192 203 
5610 203 193 
5611 193 192 
5612 193 203 
5613 203 204 
5614 204 193 
5615 193 204 
5616 204 51 
5617 51 193 
5618 51 204 
5619 204 50 
5620 50 51 
5621 16 17 
5622 17 194 
5623 194 16 
5624 194 17 
5625 17 205 
5626 205 194 
5627 194 205 
5628 205 195 
5629 195 194 
5630 195 205 
5631 205 206 
5632 206 195 
5633 195 206 
5634 206 196 
5635 196 195 
5636 196 206 
5637 206 207 
5638 207 196 
5639 196 207 
5640 207 197 
5641 197 196 
5642 197 207 
5643 207 208 
5644 208 197 
5645 197 208 
5646 208 198 
5647 198 197 
5648 198 208 
5649 208 209 
5650 209 198 
5651 198 209 
5652 209 199 
5653 199 198 
5654 199 209 
5655 209 210 
5656 210 199 
5657 199 210 
5658 210 200 
5659 200 199 
5660 200 210 
5661 210 211 
5662 211 200 
5663 200 211 
5664 211 201 
5665 201 200 
5666 201 211 
5667 211 212 
5668 212 201 
5669 201 212 
5670 212 202 
5671 202 201 
5672 202 212 
5673 212 213 
5674 213 202 
5675 202 213 
5676 213 203 
5677 203 202 
5678 203 213 
5679 213 214 
5680 214 203 
5681 203 214 
5682 214 204 
5683 204 203 
5684 204 214 
5685 214 215 
5686 215 204 
5687 204 215 
5688 215 50 
5689 50 204 
5690 50 215 
5691 215 49 
5692 49 50 
5693 17 18 
5694 18 205 
5695 205 17 
5696 205 18 
5697 18 216 
5698 216 205 
5699 205 216 
5700 216 206 
5701 206 205 
5702 206 216 
5703 216 217 
5704 217 206 
5705 206 217 
5706 217 207 
5707 207 206 
5708 207 217 
5709 217 218 
5710 218 207 
5711 207 218 
5712 218 208 
5713 208 207 
5714 208 218 
5715 218 219 
5716 219 208 
5717 208 219 
5718 219 209 
5719 209 208 
5720 209 219 
5721 219 220 
5722 220 209 
5723 209 220 
5724 220 210 
5725 210 209 
5726 210 220 
5727 220 221 
5728 221 210 
5729 210 221 
5730 221 211 
5731 211 210 
5732 211 221 
5733 221 222 
5734 222 211 
5735 211 222 
5736 222 212 
5737 212 211 
5738 212 222 
5739 222 223 
5740 223 212 
5741 212 223 
5742 223 213 
5743 213 212 
5744 213 223 
5745 223 224 
5746 224 213 
5747 213 224 
5748 224 214 
5749 214 213 
5750 214 224 
5751 224 225 
5752 225 214 
5753 214 225 
5754 225 215 
5755 215 214 
5756 215 225 
5757 225 226 
5758 226 215 
5759 215 226 
5760 226 49 
5761 49 215 
5762 49 226 
5763 226 48 
5764 48 49 
5765 18 19 
5766 19 216 
5767 216 18 
5768 216 19 
5769 19 227 
5770 227 216 
5771 216 227 
5772 227 217 
5773 217 216 
5774 217 227 
5775 227 228 
5776 228 217 
5777 217 228 
5778 228 218 
5779 218 217 
5780 218 228 
5781 228 229 
5782 229 218 
5783 218 229 
5784 229 219 
5785 219 218 
5786 219 229 
5787 229 230 
5788 230 219 
5789 219 230 
5790 230 220 
5791 220 219 
5792 220 230 
5793 230 231 
5794 231 220 
5795 220 231 
5796 231 221 
5797 221 220 
5798 221 231 
5799 231 232 
5800 232 221 
5801 221 232 
5802 232 222 
5803 222 221 
5804 222 232 
5805 232 233 
5806 233 222 
5807 222 233 
5808 233 223 
5809 223 222 
5810 223 233 
5811 233 234 
5812 234 223 
5813 223 234 
5814 234 224 
5815 224 223 
5816 224 234 
5817 234 235 
5818 235 224 
5819 224 235 
5820 235 225 
5821 225 224 
5822 225 235 
5823 235 236 
5824 236 225 
5825 225 236 
5826 236 226 
5827 226 225 
5828 226 236 
5829 236 237 
5830 237 226 
5831 226 237 
5832 237 48 
5833 48 226 
5834 48 237 
5835 237 47 
5836 47 48 
5837 19 20 
5838 20 227 
5839 227 19 
5840 227 20 
5841 20 238 
5842 238 227 
5843 227 238 
5844 238 228 
5845 228 227 
5846 228 238 
5847 238 239 
5848 239 228 
5849 228 239 
5850 239 229 
5851 229 228 
5852 229 239 
5853 239 240 
5854 240 229 
5855 229 240 
5856 240 230 
5857 230 229 
5858 230 240 
5859 240 241 
5860 241 230 
5861 230 241 
5862 241 231 
5863 231 230 
5864 231 241 
5865 241 242 
5866 242 231 
5867 231 242 
5868 242 232 
5869 232 231 
5870 232 242 
5871 242 243 
5872 243 232 
5873 232 243 
5874 243 233 
5875 233 232 
5876 233 243 
5877 243 244 
5878 244 233 
5879 233 244 
5880 244 234 
5881 234 233 
5882 234 244 
5883 244 245 
5884 245 234 
5885 234 245 
5886 245 235 
5887 235 234 
5888 235 245 
5889 245 246 
5890 246 235 
5891 235 246 
5892 246 236 
5893 236 235 
5894 236 246 
5895 246 247 
5896 247 236 
5897 236 247 
5898 247 237 
5899 237 236 
5900 237 247 
5901 247 248 
5902 248 237 
5903 237 248 
5904 248 47 
5905 47 237 
5906 47 248 
5907 248 46 
5908 46 47 
5909 20 21 
5910 21 238 
5911 238 20 
5912 238 21 
5913 21 249 
5914 249 238 
5915 238 249 
5916 249 239 
5917 239 238 
5918 239 249 
5919 249 250 
5920 250 239 
5921 239 250 
5922 250 240 
5923 240 239 
5924 240 250 
5925 250 251 
5926 251 240 
5927 240 251 
5928 251 241 
5929 241 240 
5930 241 251 
5931 251 252 
5932 252 241 
5933 241 252 
5934 252 242 
5935 242 241 
5936 242 252 
5937 252 253 
5938 253 242 
5939 242 253 
5940 253 243 
5941 243 242 
5942 243 253 
5943 253 254 
5944 254 243 
5945 243 254 
5946 254 244 
5947 244 243 
5948 244 254 
5949 254 255 
5950 255 244 
5951 244 255 
5952 255 245 
5953 245 244 
5954 245 255 
5955 255 256 
5956 256 245 
5957 245 256 
5958 256 246 
5959 246 245 
5960 246 256 
5961 256 257 
5962 257 246 
5963 246 257 
5964 257 247 
5965 247 246 
5966 247 257 
5967 257 258 
5968 258 247 
5969 247 258 
5970 258 248 
5971 248 247 
5972 248 258 
5973 258 259 
5974 259 248 
5975 248 259 
5976 259 46 
5977 46 248 
5978 46 259 
5979 259 45 
5980 45 46 
5981 21 22 
5982 22 249 
5983 249 21 
5984 249 22 
5985 22 260 
5986 260 249 
5987 249 260 
5988 260 250 
5989 250 249 
5990 250 260 
5991 260 261 
5992 261 250 
5993 250 261 
5994 261 251 
5995 251 250 
5996 251 261 
5997 261 262 
5998 262 251 
5999 251 262 
6000 262 252 
6001 252 251 
6002 252 262 
6003 262 263 
6004 263 252 
6005 252 263 
6006 263 253 
6007 253 252 
6008 253 263 
6009 263 264 
6010 264 253 
6011 253 264 
6012 264 254 
6013 254 253 
6014 254 264 
6015 264 265 
6016 265 254 
6017 254 265 
6018 265 255 
6019 255 254 
6020 255 265 
6021 265 266 
6022 266 255 
6023 255 266 
6024 266 256 
6025 256 255 
6026 256 266 
6027 266 267 
6028 267 256 
6029 256 267 
6030 267 257 
6031 257 256 
6032 257 267 
6033 267 268 
6034 268 257 
6035 257 268 
6036 268 258 
6037 258 257 
6038 258 268 
6039 268 269 
6040 269 258 
6041 258 269 
6042 269 259 
6043 259 258 
6044 259 269 
6045 269 270 
6046 270 259 
6047 259 270 
6048 270 45 
6049 45 259 
6050 45 270 
6051 270 44 
6052 44 45 
6053 22 23 
6054 23 260 
6055 260 22 
6056 260 23 
6057 23 271 
6058 271 260 
6059 260 271 
6060 271 261 
6061 261 260 
6062 261 271 
6063 271 272 
6064 272 261 
6065 261 272 
6066 272 262 
6067 262 261 
6068 262 272 
6069 272 273 
6070 273 262 
6071 262 273 
6072 273 263 
6073 263 262 
6074 263 273 
6075 273 274 
6076 274 263 
6077 263 274 
6078 274 264 
6079 264 263 
6080 264 274 
6081 274 275 
6082 275 264 
6083 264 275 
6084 275 265 
6085 265 264 
6086 265 275 
6087 275 276 
6088 276 265 
6089 265 276 
6090 276 266 
6091 266 265 
6092 266 276 
6093 276 277 
6094 277 266 
6095 266 277 
6096 277 267 
6097 267 266 
6098 267 277 
6099 277 278 
6100 278 267 
6101 267 278 
6102 278 268 
6103 268 267 
6104 268 278 
6105 278 279 
6106 279 268 
6107 268 279 
6108 279 269 
6109 269 268 
6110 269 279 
6111 279 280 
6112 280 269 
6113 269 280 
6114 280 270 
6115 270 269 
6116 270 280 
6117 280 281 
6118 281 270 
6119 270 281 
6120 281 44 
6121 44 270 
6122 44 281 
6123 281 43 
6124 43 44 
6125 23 24 
6126 24 271 
6127 271 23 
6128 271 24 
6129 24 282 
6130 282 271 
6131 271 282 
6132 282 272 
6133 272 271 
6134 272 282 
6135 282 283 
6136 283 272 
6137 272 283 
6138 283 273 
6139 273 272 
6140 273 283 
6141 283 284 
6142 284 273 
6143 273 284 
6144 284 274 
6145 274 273 
6146 274 284 
6147 284 285 
6148 285 274 
6149 274 285 
6150 285 275 
6151 275 274 
6152 275 285 
6153 285 286 
6154 286 275 
6155 275 286 
6156 286 276 
6157 276 275 
6158 276 286 
6159 286 287 
6160 287 276 
6161 276 287 
6162 287 277 
6163 277 276 
6164 277 287 
6165 287 288 
6166 288 277 
6167 277 288 
6168 288 278 
6169 278 277 
6170 278 288 
6171 288 289 
6172 289 278 
6173 278 289 
6174 289 279 
6175 279 278 
6176 279 289 
6177 289 290 
6178 290 279 
6179 279 290 
6180 290 280 
6181 280 279 
6182 280 290 
6183 290 291 
6184 291 280 
6185 280 291 
6186 291 281 
6187 281 280 
6188 281 291 
6189 291 292 
6190 292 281 
6191 281 292 
6192 292 43 
6193 43 281 
6194 43 292 
6195 292 42 
6196 42 43 
6197 24 25 
6198 25 282 
6199 282 24 
6200 282 25 
6201 25 293 
6202 293 282 
6203 282 293 
6204 293 283 
6205 283 282 
6206 283 293 
6207 293 294 
6208 294 283 
6209 283 294 
6210 294 284 
6211 284 283 
6212 284 294 
6213 294 295 
6214 295 284 
6215 284 295 
6216 295 285 
6217 285 284 
6218 285 295 
6219 295 296 
6220 296 285 
6221 285 296 
6222 296 286 
6223 286 285 
6224 286 296 
6225 296 297 
6226 297 286 
6227 286 297 
6228 297 287 
6229 287 286 
6230 287 297 
6231 297 298 
6232 298 287 
6233 287 298 
6234 298 288 
6235 288 287 
6236 288 298 
6237 298 299 
6238 299 288 
6239 288 299 
6240 299 289 
6241 289 288 
6242 289 299 
6243 299 300 
6244 300 289 
6245 289 300 
6246 300 290 
6247 290 289 
6248 290 300 
6249 300 301 
6250 301 290 
6251 290 301 
6252 301 291 
6253 291 290 
6254 291 301 
6255 301 302 
6256 302 291 
6257 291 302 
6258 302 292 
6259 292 291 
6260 292 302 
6261 302 303 
6262 303 292 
6263 292 303 
6264 303 42 
6265 42 292 
6266 42 303 
6267 303 41 
6268 41 42 
6269 25 26 
6270 26 293 
6271 293 25 
6272 293 26 
6273 26 304 
6274 304 293 
6275 293 304 
6276 304 294 
6277 294 293 
6278 294 304 
6279 304 305 
6280 305 294 
6281 294 305 
6282 305 295 
6283 295 294 
6284 295 305 
6285 305 306 
6286 306 295 
6287 295 306 
6288 306 296 
6289 296 295 
6290 296 306 
6291 306 307 
6292 307 296 
6293 296 307 
6294 307 297 
6295 297 296 
6296 297 307 
6297 307 308 
6298 308 297 
6299 297 308 
6300 308 298 
6301 298 297 
6302 298 308 
6303 308 309 
6304 309 298 
6305 298 309 
6306 309 299 
6307 299 298 
6308 299 309 
6309 309 310 
6310 310 299 
6311 299 310 
6312 310 300 
6313 300 299 
6314 300 310 
6315 310 311 
6316 311 300 
6317 300 311 
6318 311 301 
6319 301 300 
6320 301 311 
6321 311 312 
6322 312 301 
6323 301 312 
6324 312 302 
6325 302 301 
6326 302 312 
6327 312 313 
6328 313 302 
6329 302 313 
6330 313 303 
6331 303 302 
6332 303 313 
6333 313 314 
6334 314 303 
6335 303 314 
6336 314 41 
6337 41 303 
6338 41 314 
6339 314 40 
6340 40 41 
6341 26 27 
6342 27 304 
6343 304 26 
6344 304 27 
6345 27 315 
6346 315 304 
6347 304 315 
6348 315 305 
6349 305 304 
6350 305 315 
6351 315 316 
6352 316 305 
6353 305 316 
6354 316 306 
6355 306 305 
6356 306 316 
6357 316 317 
6358 317 306 
6359 306 317 
6360 317 307 
6361 307 306 
6362 307 317 
6363 317 318 
6364 318 307 
6365 307 318 
6366 318 308 
6367 308 307 
6368 308 318 
6369 318 319 
6370 319 308 
6371 308 319 
6372 319 309 
6373 309 308 
6374 309 319 
6375 319 320 
6376 320 309 
6377 309 320 
6378 320 310 
6379 310 309 
6380 310 320 
6381 320 321 
6382 321 310 
6383 310 321 
6384 321 311 
6385 311 310 
6386 311 321 
6387 321 322 
6388 322 311 
6389 311 322 
6390 322 312 
6391 312 311 
6392 312 322 
6393 322 323 
6394 323 312 
6395 312 323 
6396 323 313 
6397 313 312 
6398 313 323 
6399 323 324 
6400 324 313 
6401 313 324 
6402 324 314 
6403 314 313 
6404 314 324 
6405 324 325 
6406 325 314 
6407 314 325 
6408 325 40 
6409 40 314 
6410 40 325 
6411 325 39 
6412 39 40 
6413 27 2 
6414 2 315 
6415 315 27 
6416 315 2 
6417 2 28 
6418 28 315 
6419 315 28 
6420 28 316 
6421 316 315 
6422 316 28 
6423 28 29 
6424 29 316 
6425 316 29 
6426 29 317 
6427 317 316 
6428 317 29 
6429 29 30 
6430 30 317 
6431 317 30 
6432 30 318 
6433 318 317 
6434 318 30 
6435 30 31 
6436 31 318 
6437 318 31 
6438 31 319 
6439 319 318 
6440 319 31 
6441 31 32 
6442 32 319 
6443 319 32 
6444 32 320 
6445 320 319 
6446 320 32 
6447 32 33 
6448 33 320 
6449 320 33 
6450 33 321 
6451 321 320 
6452 321 33 
6453 33 34 
6454 34 321 
6455 321 34 
6456 34 322 
6457 322 321 
6458 322 34 
6459 34 35 
6460 35 322 
6461 322 35 
6462 35 323 
6463 323 322 
6464 323 35 
6465 35 36 
6466 36 323 
6467 323 36 
6468 36 324 
6469 324 323 
6470 324 36 
6471 36 37 
6472 37 324 
6473 324 37 
6474 37 325 
6475 325 324 
6476 325 37 
6477 37 38 
6478 38 325 
6479 325 38 
6480 38 39 
6481 39 325 
6482 39 38 
6483 38 3 
6484 3 39 
2 1 2 576
73 1 5 72 
74 72 5 73 
75 72 73 71 
76 71 73 74 
77 71 74 70 
78 70 74 75 
79 70 75 69 
80 69 75 76 
81 69 76 68 
82 68 76 77 
83 68 77 67 
84 67 77 78 
85 67 78 66 
86 66 78 79 
87 66 79 65 
88 65 79 80 
89 65 80 64 
90 64 80 81 
91 64 81 63 
92 63 81 82 
93 63 82 62 
94 62 82 83 
95 62 83 4 
96 4 83 61 
97 5 6 73 
98 73 6 84 
99 73 84 74 
100 74 84 85 
101 74 85 75 
102 75 85 86 
103 75 86 76 
104 76 86 87 
105 76 87 77 
106 77 87 88 
107 77 88 78 
108 78 88 89 
109 78 89 79 
110 79 89 90 
111 79 90 80 
112 80 90 91 
113 80 91 81 
114 81 91 92 
115 81 92 82 
116 82 92 93 
117 82 93 83 
118 83 93 94 
119 83 94 61 
120 61 94 60 
121 6 7 84 
122 84 7 95 
123 84 95 85 
124 85 95 96 
125 85 96 86 
126 86 96 97 
127 86 97 87 
128 87 97 98 
129 87 98 88 
130 88 98 99 
131 88 99 89 
132 89 99 100 
133 89 100 90 
134 90 100 101 
135 90 101 91 
136 91 101 102 
137 91 102 92 
138 92 102 103 
139 92 103 93 
140 93 103 104 
141 93 104 94 
142 94 104 105 
143 94 105 60 
144 60 105 59 
145 7 8 95 
146 95 8 106 
147 95 106 96 
148 96 106 107 
149 96 107 97 
150 97 107 108 
151 97 108 98 
152 98 108 109 
153 98 109 99 
154 99 109 110 
155 99 110 100 
156 100 110 111 
157 100 111 101 
158 101 111 112 
159 101 112 102 
160 102 112 113 
161 102 113 103 
162 103 113 114 
163 103 114 104 
164 104 114 115 
165 104 115 105 
166 105 115 116 
167 105 116 59 
168 59 116 58 
169 8 9 106 
170 106 9 117 
171 106 117 107 
172 107 117 118 
173 107 118 108 
174 108 118 119 
175 108 119 109 
176 109 119 120 
177 109 120 110 
178 110 120 121 
179 110 121 111 
180 111 121 122 
181 111 122 112 
182 112 122 123 
183 112 123 113 
184 113 123 124 
185 113 124 114 
186 114 124 125 
187 114 125 115 
188 115 125 126 
189 115 126 116 
190 116 126 127 
191 116 127 58 
192 58 127 57 
193 9 10 117 
194 117 10 128 
195 117 128 118 
196 118 128 129 
197 118 129 119 
198 119 129 130 
199 119 130 120 
200 120 130 131 
201 120 131 121 
202 121 131 132 
203 121 132 122 
204 122 132 133 
205 122 133 123 
206 123 133 134 
207 123 134 124 
208 124 134 135 
209 124 135 125 
210 125 135 136 
211 125 136 126 
212 126 136 137 
213 126 137 127 
214 127 137 138 
215 127 138 57 
216 57 138 56 
217 10 11 128 
218 128 11 139 
219 128 139 129 
220 129 139 140 
221 129 140 130 
222 130 140 141 
223 130 141 131 
224 131 141 142 
225 131 142 132 
226 132 142 143 
227 132 143 133 
228 133 143 144 
229 133 144 134 
230 134 144 145 
231 134 145 135 
232 135 145 146 
233 135 146 136 
234 136 146 147 
235 136 147 137 
236 137 147 148 
237 137 148 138 
238 138 148 149 
239 138 149 56 
240 56 149 55 
241 11 12 139 
242 139 12 150 
243 139 150 140 
244 140 150 151 
245 140 151 141 
246 141 151 152 
247 141 152 142 
248 142 152 153 
249 142 153 143 
250 143 153 154 
251 143 154 144 
252 144 154 155 
253 144 155 145 
254 145 155 156 
255 145 156 146 
256 146 156 157 
257 146 157 147 
258 147 157 158 
259 147 158 148 
260 148 158 159 
261 148 159 149 
262 149 159 160 
263 149 160 55 
264 55 160 54 
265 12 13 150 
266 150 13 161 
267 150 161 151 
268 151 161 162 
269 151 162 152 
270 152 162 163 
271 152 163 153 
272 153 163 164 
273 153 164 154 
274 154 164 165 
275 154 165 155 
276 155 165 166 
277 155 166 156 
278 156 166 167 
279 156 167 157 
280 157 167 168 
281 157 168 158 
282 158 168 169 
283 158 169 159 
284 159 169 170 
285 159 170 160 
286 160 170 171 
287 160 171 54 
288 54 171 53 
289 13 14 161 
290 161 14 172 
291 161 172 162 
292 162 172 173 
293 162 173 163 
294 163 173 174 
295 163 174 164 
296 164 174 175 
297 164 175 165 
298 165 175 176 
299 165 176 166 
300 166 176 177 
301 166 177 167 
302 167 177 178 
303 167 178 168 
304 168 178 179 
305 168 179 169 
306 169 179 180 
307 169 180 170 
308 170 180 181 
309 170 181 171 
310 171 181 182 
311 171 182 53 
312 53 182 52 
313 14 15 172 
314 172 15 183 
315 172 183 173 
316 173 183 184 
317 173 184 174 
318 174 184 185 
319 174 185 175 
320 175 185 186 
321 175 186 176 
322 176 186 187 
323 176 187 177 
324 177 187 188 
325 177 188 178 
326 178 188 189 
327 178 189 179 
328 179 189 190 
329 179 190 180 
330 180 190 191 
331 180 191 181 
332 181 191 192 
333 181 192 182 
334 182 192 193 
335 182 193 52 
336 52 193 51 
337 15 16 183 
338 183 16 194 
339 183 194 184 
340 184 194 195 
341 184 195 185 
342 185 195 196 
343 185 196 186 
344 186 196 197 
345 186 197 187 
346 187 197 198 
347 187 198 188 
348 188 198 199 
349 188 199 189 
350 189 199 200 
351 189 200 190 
352 190 200 201 
353 190 201 191 
354 191 201 202 
355 191 202 192 
356 192 202 203 
357 192 203 193 
358 193 203 204 
359 193 204 51 
360 51 204 50 
361 16 17 194 
362 194 17 205 
363 194 205 195 
364 195 205 206 
365 195 206 196 
366 196 206 207 
367 196 207 197 
368 197 207 208 
369 197 208 198 
370 198 208 209 
371 198 209 199 
372 199 209 210 
373 199 210 200 
374 200 210 211 
375 200 211 201 
376 201 211 212 
377 201 212 202 
378 202 212 213 
379 202 213 203 
380 203 213 214 
381 203 214 204 
382 204 214 215 
383 204 215 50 
384 50 215 49 
385 17 18 205 
386 205 18 216 
387 205 216 206 
388 206 216 217 
389 206 217 207 
390 207 217 218 
391 207 218 208 
392 208 218 219 
393 208 219 209 
394 209 219 220 
395 209 220 210 
396 210 220 221 
397 210 221 211 
398 211 221 222 
399 211 222 212 
400 212 222 223 
401 212 223 213 
402 213 223 224 
403 213 224 214 
404 214 224 225 
405 214 225 215 
406 215 225 226 
407 215 226 49 
408 49 226 48 
409 18 19 216 
410 216 19 227 
411 216 227 217 
412 217 227 228 
413 217 228 218 
414 218 228 229 
415 218 229 219 
416 219 229 230 
417 219 230 220 
418 220 230 231 
419 220 231 221 
420 221 231 232 
421 221 232 222 
422 222 232 233 
423 222 233 223 
424 223 233 234 
425 223 234 224 
426 224 234 235 
427 224 235 225 
428 225 235 236 
429 225 236 226 
430 226 236 237 
431 226 237 48 
432 48 237 47 
433 19 20 227 
434 227 20 238 
435 227 238 228 
436 228 238 239 
437 228 239 229 
438 229 239 240 
439 229 240 230 
440 230 240 241 
441 230 241 231 
442 231 241 242 
443 231 242 232 
444 232 242 243 
445 232 243 233 
446 233 243 244 
447 233 244 234 
448 234 244 245 
449 234 245 235 
450 235 245 246 
451 235 246 236 
452 236 246 247 
453 236 247 237 
454 237 247 248 
455 237 248 47 
456 47 248 46 
457 20 21 238 
458 238 21 249 
459 238 249 239 
460 239 249 250 
461 239 250 240 
462 240 250 251 
463 240 251 241 
464 241 251 252 
465 241 252 242 
466 242 252 253 
467 242 253 243 
468 243 253 254 
469 243 254 244 
470 244 254 255 
471 244 255 245 
472 245 255 256 
473 245 256 246 
474 246 256 257 
475 246 257 247 
476 247 257 258 
477 247 258 248 
478 248 258 259 
479 248 259 46 
480 46 259 45 
481 21 22 249 
482 249 22 260 
483 249 260 250 
484 250 260 261 
485 250 261 251 
486 251 261 262 
487 251 262 252 
488 252 262 263 
489 252 263 253 
490 253 263 264 
491 253 264 254 
492 254 264 265 
493 254 265 255 
494 255 265 266 
495 255 266 256 
496 256 266 267 
497 256 267 257 
498 257 267 268 
499 257 268 258 
500 258 268 269 
501 258 269 259 
502 259 269 270 
503 259 270 45 
504 45 270 44 
505 22 23 260 
506 260 23 271 
507 260 271 261 
508 261 271 272 
509 261 272 262 
510 262 272 273 
511 262 273 263 
512 263 273 274 
513 263 274 264 
514 264 274 275 
515 264 275 265 
516 265 275 276 
517 265 276 266 
518 266 276 277 
519 266 277 267 
520 267 277 278 
521 267 278 268 
522 268 278 279 
523 268 279 269 
524 269 279 280 
525 269 280 270 
526 270 280 281 
527 270 281 44 
528 44 281 43 
529 23 24 271 
530 271 24 282 
531 271 282 272 
532 272 282 283 
533 272 283 273 
534 273 283 284 
535 273 284 274 
536 274 284 285 
537 274 285 275 
538 275 285 286 
539 275 286 276 
540 276 286 287 
541 276 287 277 
542 277 287 288 
543 277 288 278 
544 278 288 289 
545 278 289 279 
546 279 289 290 
547 279 290 280 
548 280 290 291 
549 280 291 281 
550 281 291 292 
551 281 292 43 
552 43 292 42 
553 24 25 282 
554 282 25 293 
555 282 293 283 
556 283 293 294 
557 283 294 284 
558 284 294 295 
559 284 295 285 
560 285 295 296 
561 285 296 286 
562 286 296 297 
563 286 297 287 
564 287 297 298 
565 287 298 288 
566 288 298 299 
567 288 299 289 
568 289 299 300 
569 289 300 290 
570 290 300 301 
571 290 301 291 
572 291 301 302 
573 291 302 292 
574 292 302 303 
575 292 303 42 
576 42 303 41 
577 25 26 293 
578 293 26 304 
579 293 304 294 
580 294 304 305 
581 294 305 295 
582 295 305 306 
583 295 306 296 
584 296 306 307 
585 296 307 297 
586 297 307 308 
587 297 308 298 
588 298 308 309 
589 298 309 299 
590 299 309 310 
591 299 310 300 
592 300 310 311 
593 300 311 301 
594 301 311 312 
595 301 312 302 
596 302 312 313 
597 302 313 303 
598 303 313 314 
599 303 314 41 
600 41 314 40 
601 26 27 304 
602 304 27 315 
603 304 315 305 
604 305 315 316 
605 305 316 306 
606 306 316 317 
607 306 317 307 
608 307 317 318 
609 307 318 308 
610 308 318 319 
611 308 319 309 
612 309 319 320 
613 309 320 310 
614 310 320 321 
615 310 321 311 
616 311 321 322 
617 311 322 312 
618 312 322 323 
619 312 323 313 
620 313 323 324 
621 313 324 314 
622 314 324 325 
623 314 325 40 
624 40 325 39 
625 27 2 315 
626 315 2 28 
627 315 28 316 
628 316 28 29 
629 316 29 317 
630 317 29 30 
631 317 30 318 
632 318 30 31 
633 318 31 319 
634 319 31 32 
635 319 32 320 
636 320 32 33 
637 320 33 321 
638 321 33 34 
639 321 34 322 
640 322 34 35 
641 322 35 323 
642 323 35 36 
643 323 36 324 
644 324 36 37 
645 324 37 325 
646 325 37 38 
647 325 38 39 
648 39 38 3 
$EndElements
