$MeshFormat
4.1 0 8
$EndMeshFormat
$PhysicalNames
6
1 1 "Γ¹"
1 2 "Γ²"
1 3 "Γ³"
1 4 "Γ⁴"
1 6 "Γ"
2 5 "Ω"
$EndPhysicalNames
$Entities
4 5 1 0
1 0 0 0 0 
2 0.6 0 0 0 
3 0.6 1 0 0 
4 0 1 0 0 
1 0 0 0 0.6 0 0 1 1 2 1 -2 
2 0.6 0 0 0.6 1 0 1 2 2 2 -3 
3 0 1 0 0.6 1 0 1 3 2 3 -4 
4 0 0 0 0 1 0 1 4 2 4 -1 
5 0 0 0 0.6 1 0 1 6 0 
1 0 0 0 0.6 1 0 1 5 4 1 2 3 4 
$EndEntities
$Nodes
10 104 1 104
0 1 0 1
1
0 0 0
0 2 0 1
2
0.6 0 0
0 3 0 1
3
0.6 1 0
0 4 0 1
4
0 1 0
1 1 0 6
5
6
7
8
9
10
0.08571428571412083 0 0
0.1714285714281622 0 0
0.2571428571422091 0 0
0.3428571428564773 0 0
0.4285714285709946 0 0
0.514285714285481 0 0
1 2 0 11
11
12
13
14
15
16
17
18
19
20
21
0.6 0.08333333333317297 0
0.6 0.1666666666663209 0
0.6 0.2499999999994109 0
0.6 0.333333333332501 0
0.6 0.4166666666655911 0
0.6 0.499999999998692 0
0.6 0.5833333333322344 0
0.6 0.6666666666657874 0
0.6 0.7499999999993405 0
0.6 0.8333333333328937 0
0.6 0.9166666666664468 0
1 3 0 6
22
23
24
25
26
27
0.5142857142858537 1 0
0.4285714285718593 1 0
0.3428571428577997 1 0
0.2571428571435294 1 0
0.1714285714290098 1 0
0.08571428571452111 1 0
1 4 0 11
28
29
30
31
32
33
34
35
36
37
38
0 0.9166666666663197 0
0 0.833333333333102 0
0 0.7500000000003471 0
0 0.6666666666675918 0
0 0.5833333333348364 0
0 0.5000000000020595 0
0 0.416666666668401 0
0 0.3333333333347207 0
0 0.2500000000010405 0
0 0.1666666666673604 0
0 0.0833333333336802 0
1 5 0 0
2 1 0 66
39
40
41
42
43
44
45
46
47
48
49
50
51
52
53
54
55
56
57
58
59
60
61
62
63
64
65
66
67
68
69
70
71
72
73
74
75
76
77
78
79
80
81
82
83
84
85
86
87
88
89
90
91
92
93
94
95
96
97
98
99
100
101
102
103
104
0.08571428571415421 0.08333333333360775 0
0.08571428571418757 0.1666666666672119 0
0.08571428571422089 0.2500000000008077 0
0.08571428571425427 0.3333333333344037 0
0.08571428571428762 0.4166666666679997 0
0.08571428571432099 0.5000000000015783 0
0.08571428571435434 0.5833333333344646 0
0.08571428571438768 0.6666666666673341 0
0.08571428571442104 0.7500000000002033 0
0.08571428571445437 0.8333333333330722 0
0.08571428571448778 0.916666666666338 0
0.1714285714282329 0.08333333333353529 0
0.1714285714283035 0.1666666666670634 0
0.1714285714283741 0.2500000000005749 0
0.1714285714284448 0.3333333333340865 0
0.1714285714285154 0.4166666666675982 0
0.171428571428586 0.5000000000010973 0
0.1714285714286566 0.5833333333340929 0
0.1714285714287272 0.6666666666670762 0
0.1714285714287979 0.7500000000000595 0
0.1714285714288685 0.8333333333330426 0
0.1714285714289392 0.9166666666663559 0
0.2571428571423191 0.08333333333346282 0
0.2571428571424291 0.1666666666669149 0
0.2571428571425393 0.2500000000003421 0
0.2571428571426493 0.3333333333337694 0
0.2571428571427592 0.4166666666671968 0
0.2571428571428692 0.5000000000006164 0
0.2571428571429792 0.5833333333337212 0
0.2571428571430893 0.6666666666668184 0
0.2571428571431993 0.7499999999999156 0
0.2571428571433093 0.8333333333330128 0
0.2571428571434194 0.9166666666663741 0
0.3428571428565875 0.08333333333339037 0
0.3428571428566976 0.1666666666667664 0
0.3428571428568079 0.2500000000001094 0
0.3428571428569181 0.3333333333334523 0
0.3428571428570283 0.4166666666667953 0
0.3428571428571385 0.5000000000001352 0
0.3428571428572487 0.5833333333333495 0
0.3428571428573589 0.6666666666665608 0
0.342857142857469 0.7499999999997718 0
0.3428571428575792 0.833333333332983 0
0.3428571428576895 0.9166666666663923 0
0.4285714285710666 0.0833333333333179 0
0.4285714285711386 0.1666666666666179 0
0.4285714285712107 0.2499999999998765 0
0.4285714285712828 0.3333333333331351 0
0.4285714285713549 0.416666666666394 0
0.4285714285714269 0.4999999999996541 0
0.428571428571499 0.5833333333329778 0
0.428571428571571 0.666666666666303 0
0.4285714285716431 0.7499999999996282 0
0.4285714285717152 0.8333333333329532 0
0.4285714285717873 0.9166666666664105 0
0.5142857142855121 0.08333333333324543 0
0.5142857142855431 0.1666666666664694 0
0.5142857142855742 0.2499999999996437 0
0.5142857142856053 0.3333333333328182 0
0.5142857142856362 0.4166666666659925 0
0.5142857142856673 0.4999999999991731 0
0.5142857142856984 0.5833333333326061 0
0.5142857142857294 0.6666666666660452 0
0.5142857142857605 0.7499999999994842 0
0.5142857142857916 0.8333333333329235 0
0.5142857142858225 0.9166666666664285 0
$EndNodes
$Elements
6 710 1 1928
1 1 1 7
1 1 5 
2 5 6 
3 6 7 
4 7 8 
5 8 9 
6 9 10 
7 10 2 
1 2 1 12
8 2 11 
9 11 12 
10 12 13 
11 13 14 
12 14 15 
13 15 16 
14 16 17 
15 17 18 
16 18 19 
17 19 20 
18 20 21 
19 21 3 
1 3 1 7
20 3 22 
21 22 23 
22 23 24 
23 24 25 
24 25 26 
25 26 27 
26 27 4 
1 4 1 12
27 4 28 
28 28 29 
29 29 30 
30 30 31 
31 31 32 
32 32 33 
33 33 34 
34 34 35 
35 35 36 
36 36 37 
37 37 38 
38 38 1 
1 5 1 504
1425 1 5 
1426 5 38 
1427 38 1 
1428 38 5 
1429 5 39 
1430 39 38 
1431 38 39 
1432 39 37 
1433 37 38 
1434 37 39 
1435 39 40 
1436 40 37 
1437 37 40 
1438 40 36 
1439 36 37 
1440 36 40 
1441 40 41 
1442 41 36 
1443 36 41 
1444 41 35 
1445 35 36 
1446 35 41 
1447 41 42 
1448 42 35 
1449 35 42 
1450 42 34 
1451 34 35 
1452 34 42 
1453 42 43 
1454 43 34 
1455 34 43 
1456 43 33 
1457 33 34 
1458 33 43 
1459 43 44 
1460 44 33 
1461 33 44 
1462 44 32 
1463 32 33 
1464 32 44 
1465 44 45 
1466 45 32 
1467 32 45 
1468 45 31 
1469 31 32 
1470 31 45 
1471 45 46 
1472 46 31 
1473 31 46 
1474 46 30 
1475 30 31 
1476 30 46 
1477 46 47 
1478 47 30 
1479 30 47 
1480 47 29 
1481 29 30 
1482 29 47 
1483 47 48 
1484 48 29 
1485 29 48 
1486 48 28 
1487 28 29 
1488 28 48 
1489 48 49 
1490 49 28 
1491 28 49 
1492 49 4 
1493 4 28 
1494 4 49 
1495 49 27 
1496 27 4 
1497 5 6 
1498 6 39 
1499 39 5 
1500 39 6 
1501 6 50 
1502 50 39 
1503 39 50 
1504 50 40 
1505 40 39 
1506 40 50 
1507 50 51 
1508 51 40 
1509 40 51 
1510 51 41 
1511 41 40 
1512 41 51 
1513 51 52 
1514 52 41 
1515 41 52 
1516 52 42 
1517 42 41 
1518 42 52 
1519 52 53 
1520 53 42 
1521 42 53 
1522 53 43 
1523 43 42 
1524 43 53 
1525 53 54 
1526 54 43 
1527 43 54 
1528 54 44 
1529 44 43 
1530 44 54 
1531 54 55 
1532 55 44 
1533 44 55 
1534 55 45 
1535 45 44 
1536 45 55 
1537 55 56 
1538 56 45 
1539 45 56 
1540 56 46 
1541 46 45 
1542 46 56 
1543 56 57 
1544 57 46 
1545 46 57 
1546 57 47 
1547 47 46 
1548 47 57 
1549 57 58 
1550 58 47 
1551 47 58 
1552 58 48 
1553 48 47 
1554 48 58 
1555 58 59 
1556 59 48 
1557 48 59 
1558 59 49 
1559 49 48 
1560 49 59 
1561 59 60 
1562 60 49 
1563 49 60 
1564 60 27 
1565 27 49 
1566 27 60 
1567 60 26 
1568 26 27 
1569 6 7 
1570 7 50 
1571 50 6 
1572 50 7 
1573 7 61 
1574 61 50 
1575 50 61 
1576 61 51 
1577 51 50 
1578 51 61 
1579 61 62 
1580 62 51 
1581 51 62 
1582 62 52 
1583 52 51 
1584 52 62 
1585 62 63 
1586 63 52 
1587 52 63 
1588 63 53 
1589 53 52 
1590 53 63 
1591 63 64 
1592 64 53 
1593 53 64 
1594 64 54 
1595 54 53 
1596 54 64 
1597 64 65 
1598 65 54 
1599 54 65 
1600 65 55 
1601 55 54 
1602 55 65 
1603 65 66 
1604 66 55 
1605 55 66 
1606 66 56 
1607 56 55 
1608 56 66 
1609 66 67 
1610 67 56 
1611 56 67 
1612 67 57 
1613 57 56 
1614 57 67 
1615 67 68 
1616 68 57 
1617 57 68 
1618 68 58 
1619 58 57 
1620 58 68 
1621 68 69 
1622 69 58 
1623 58 69 
1624 69 59 
1625 59 58 
1626 59 69 
1627 69 70 
1628 70 59 
1629 59 70 
1630 70 60 
1631 60 59 
1632 60 70 
1633 70 71 
1634 71 60 
1635 60 71 
1636 71 26 
1637 26 60 
1638 26 71 
1639 71 25 
1640 25 26 
1641 7 8 
1642 8 61 
1643 61 7 
1644 61 8 
1645 8 72 
1646 72 61 
1647 61 72 
1648 72 62 
1649 62 61 
1650 62 72 
1651 72 73 
1652 73 62 
1653 62 73 
1654 73 63 
1655 63 62 
1656 63 73 
1657 73 74 
1658 74 63 
1659 63 74 
1660 74 64 
1661 64 63 
1662 64 74 
1663 74 75 
1664 75 64 
1665 64 75 
1666 75 65 
1667 65 64 
1668 65 75 
1669 75 76 
1670 76 65 
1671 65 76 
1672 76 66 
1673 66 65 
1674 66 76 
1675 76 77 
1676 77 66 
1677 66 77 
1678 77 67 
1679 67 66 
1680 67 77 
1681 77 78 
1682 78 67 
1683 67 78 
1684 78 68 
1685 68 67 
1686 68 78 
1687 78 79 
1688 79 68 
1689 68 79 
1690 79 69 
1691 69 68 
1692 69 79 
1693 79 80 
1694 80 69 
1695 69 80 
1696 80 70 
1697 70 69 
1698 70 80 
1699 80 81 
1700 81 70 
1701 70 81 
1702 81 71 
1703 71 70 
1704 71 81 
1705 81 82 
1706 82 71 
1707 71 82 
1708 82 25 
1709 25 71 
1710 25 82 
1711 82 24 
1712 24 25 
1713 8 9 
1714 9 72 
1715 72 8 
1716 72 9 
1717 9 83 
1718 83 72 
1719 72 83 
1720 83 73 
1721 73 72 
1722 73 83 
1723 83 84 
1724 84 73 
1725 73 84 
1726 84 74 
1727 74 73 
1728 74 84 
1729 84 85 
1730 85 74 
1731 74 85 
1732 85 75 
1733 75 74 
1734 75 85 
1735 85 86 
1736 86 75 
1737 75 86 
1738 86 76 
1739 76 75 
1740 76 86 
1741 86 87 
1742 87 76 
1743 76 87 
1744 87 77 
1745 77 76 
1746 77 87 
1747 87 88 
1748 88 77 
1749 77 88 
1750 88 78 
1751 78 77 
1752 78 88 
1753 88 89 
1754 89 78 
1755 78 89 
1756 89 79 
1757 79 78 
1758 79 89 
1759 89 90 
1760 90 79 
1761 79 90 
1762 90 80 
1763 80 79 
1764 80 90 
1765 90 91 
1766 91 80 
1767 80 91 
1768 91 81 
1769 81 80 
1770 81 91 
1771 91 92 
1772 92 81 
1773 81 92 
1774 92 82 
1775 82 81 
1776 82 92 
1777 92 93 
1778 93 82 
1779 82 93 
1780 93 24 
1781 24 82 
1782 24 93 
1783 93 23 
1784 23 24 
1785 9 10 
1786 10 83 
1787 83 9 
1788 83 10 
1789 10 94 
1790 94 83 
1791 83 94 
1792 94 84 
1793 84 83 
1794 84 94 
1795 94 95 
1796 95 84 
1797 84 95 
1798 95 85 
1799 85 84 
1800 85 95 
1801 95 96 
1802 96 85 
1803 85 96 
1804 96 86 
1805 86 85 
1806 86 96 
1807 96 97 
1808 97 86 
1809 86 97 
1810 97 87 
1811 87 86 
1812 87 97 
1813 97 98 
1814 98 87 
1815 87 98 
1816 98 88 
1817 88 87 
1818 88 98 
1819 98 99 
1820 99 88 
1821 88 99 
1822 99 89 
1823 89 88 
1824 89 99 
1825 99 100 
1826 100 89 
1827 89 100 
1828 100 90 
1829 90 89 
1830 90 100 
1831 100 101 
1832 101 90 
1833 90 101 
1834 101 91 
1835 91 90 
1836 91 101 
1837 101 102 
1838 102 91 
1839 91 102 
1840 102 92 
1841 92 91 
1842 92 102 
1843 102 103 
1844 103 92 
1845 92 103 
1846 103 93 
1847 93 92 
1848 93 103 
1849 103 104 
1850 104 93 
1851 93 104 
1852 104 23 
1853 23 93 
1854 23 104 
1855 104 22 
1856 22 23 
1857 10 2 
1858 2 94 
1859 94 10 
1860 94 2 
1861 2 11 
1862 11 94 
1863 94 11 
1864 11 95 
1865 95 94 
1866 95 11 
1867 11 12 
1868 12 95 
1869 95 12 
1870 12 96 
1871 96 95 
1872 96 12 
1873 12 13 
1874 13 96 
1875 96 13 
1876 13 97 
1877 97 96 
1878 97 13 
1879 13 14 
1880 14 97 
1881 97 14 
1882 14 98 
1883 98 97 
1884 98 14 
1885 14 15 
1886 15 98 
1887 98 15 
1888 15 99 
1889 99 98 
1890 99 15 
1891 15 16 
1892 16 99 
1893 99 16 
1894 16 100 
1895 100 99 
1896 100 16 
1897 16 17 
1898 17 100 
1899 100 17 
1900 17 101 
1901 101 100 
1902 101 17 
1903 17 18 
1904 18 101 
1905 101 18 
1906 18 102 
1907 102 101 
1908 102 18 
1909 18 19 
1910 19 102 
1911 102 19 
1912 19 103 
1913 103 102 
1914 103 19 
1915 19 20 
1916 20 103 
1917 103 20 
1918 20 104 
1919 104 103 
1920 104 20 
1921 20 21 
1922 21 104 
1923 104 21 
1924 21 22 
1925 22 104 
1926 22 21 
1927 21 3 
1928 3 22 
2 1 2 168
39 1 5 38 
40 38 5 39 
41 38 39 37 
42 37 39 40 
43 37 40 36 
44 36 40 41 
45 36 41 35 
46 35 41 42 
47 35 42 34 
48 34 42 43 
49 34 43 33 
50 33 43 44 
51 33 44 32 
52 32 44 45 
53 32 45 31 
54 31 45 46 
55 31 46 30 
56 30 46 47 
57 30 47 29 
58 29 47 48 
59 29 48 28 
60 28 48 49 
61 28 49 4 
62 4 49 27 
63 5 6 39 
64 39 6 50 
65 39 50 40 
66 40 50 51 
67 40 51 41 
68 41 51 52 
69 41 52 42 
70 42 52 53 
71 42 53 43 
72 43 53 54 
73 43 54 44 
74 44 54 55 
75 44 55 45 
76 45 55 56 
77 45 56 46 
78 46 56 57 
79 46 57 47 
80 47 57 58 
81 47 58 48 
82 48 58 59 
83 48 59 49 
84 49 59 60 
85 49 60 27 
86 27 60 26 
87 6 7 50 
88 50 7 61 
89 50 61 51 
90 51 61 62 
91 51 62 52 
92 52 62 63 
93 52 63 53 
94 53 63 64 
95 53 64 54 
96 54 64 65 
97 54 65 55 
98 55 65 66 
99 55 66 56 
100 56 66 67 
101 56 67 57 
102 57 67 68 
103 57 68 58 
104 58 68 69 
105 58 69 59 
106 59 69 70 
107 59 70 60 
108 60 70 71 
109 60 71 26 
110 26 71 25 
111 7 8 61 
112 61 8 72 
113 61 72 62 
114 62 72 73 
115 62 73 63 
116 63 73 74 
117 63 74 64 
118 64 74 75 
119 64 75 65 
120 65 75 76 
121 65 76 66 
122 66 76 77 
123 66 77 67 
124 67 77 78 
125 67 78 68 
126 68 78 79 
127 68 79 69 
128 69 79 80 
129 69 80 70 
130 70 80 81 
131 70 81 71 
132 71 81 82 
133 71 82 25 
134 25 82 24 
135 8 9 72 
136 72 9 83 
137 72 83 73 
138 73 83 84 
139 73 84 74 
140 74 84 85 
141 74 85 75 
142 75 85 86 
143 75 86 76 
144 76 86 87 
145 76 87 77 
146 77 87 88 
147 77 88 78 
148 78 88 89 
149 78 89 79 
150 79 89 90 
151 79 90 80 
152 80 90 91 
153 80 91 81 
154 81 91 92 
155 81 92 82 
156 82 92 93 
157 82 93 24 
158 24 93 23 
159 9 10 83 
160 83 10 94 
161 83 94 84 
162 84 94 95 
163 84 95 85 
164 85 95 96 
165 85 96 86 
166 86 96 97 
167 86 97 87 
168 87 97 98 
169 87 98 88 
170 88 98 99 
171 88 99 89 
172 89 99 100 
173 89 100 90 
174 90 100 101 
175 90 101 91 
176 91 101 102 
177 91 102 92 
178 92 102 103 
179 92 103 93 
180 93 103 104 
181 93 104 23 
182 23 104 22 
183 10 2 94 
184 94 2 11 
185 94 11 95 
186 95 11 12 
187 95 12 96 
188 96 12 13 
189 96 13 97 
190 97 13 14 
191 97 14 98 
192 98 14 15 
193 98 15 99 
194 99 15 16 
195 99 16 100 
196 100 16 17 
197 100 17 101 
198 101 17 18 
199 101 18 102 
200 102 18 19 
201 102 19 103 
202 103 19 20 
203 103 20 104 
204 104 20 21 
205 104 21 22 
206 22 21 3 
$EndElements
