$MeshFormat
4.1 0 8
$EndMeshFormat
$PhysicalNames
6
1 1 "Γ¹"
1 2 "Γ²"
1 3 "Γ³"
1 4 "Γ⁴"
1 6 "Γ"
2 5 "Ω"
$EndPhysicalNames
$Entities
4 5 1 0
1 0 0 0 0 
2 1.2 0 0 0 
3 1.2 1 0 0 
4 0 1 0 0 
1 0 0 0 1.2 0 0 1 1 2 1 -2 
2 1.2 0 0 1.2 1 0 1 2 2 2 -3 
3 0 1 0 1.2 1 0 1 3 2 3 -4 
4 0 0 0 0 1 0 1 4 2 4 -1 
5 0 0 0 1.2 1 0 1 6 0 
1 0 0 0 1.2 1 0 1 5 4 1 2 3 4 
$EndEntities
$Nodes
10 195 1 195
0 1 0 1
1
0 0 0
0 2 0 1
2
1.2 0 0
0 3 0 1
3
1.2 1 0
0 4 0 1
4
0 1 0
1 1 0 13
5
6
7
8
9
10
11
12
13
14
15
16
17
0.08571428571411836 0 0
0.1714285714282417 0 0
0.2571428571422884 0 0
0.3428571428563244 0 0
0.4285714285703605 0 0
0.5142857142844183 0 0
0.5999999999984761 0 0
0.6857142857129546 0 0
0.7714285714274703 0 0
0.8571428571419891 0 0
0.9428571428565082 0 0
1.028571428570962 0 0
1.114285714285481 0 0
1 2 0 11
18
19
20
21
22
23
24
25
26
27
28
1.2 0.08333333333317297 0
1.2 0.1666666666663209 0
1.2 0.2499999999994109 0
1.2 0.333333333332501 0
1.2 0.4166666666655911 0
1.2 0.499999999998692 0
1.2 0.5833333333322344 0
1.2 0.6666666666657874 0
1.2 0.7499999999993405 0
1.2 0.8333333333328937 0
1.2 0.9166666666664468 0
1 3 0 13
29
30
31
32
33
34
35
36
37
38
39
40
41
1.114285714285826 1 0
1.028571428571707 1 0
0.9428571428577562 1 0
0.8571428571437185 1 0
0.7714285714296806 1 0
0.6857142857155993 1 0
0.6000000000015399 1 0
0.5142857142870588 1 0
0.4285714285725407 1 0
0.3428571428580196 1 0
0.2571428571434983 1 0
0.1714285714290422 1 0
0.085714285714521 1 0
1 4 0 11
42
43
44
45
46
47
48
49
50
51
52
0 0.9166666666663197 0
0 0.833333333333102 0
0 0.7500000000003471 0
0 0.6666666666675918 0
0 0.5833333333348364 0
0 0.5000000000020595 0
0 0.416666666668401 0
0 0.3333333333347207 0
0 0.2500000000010405 0
0 0.1666666666673604 0
0 0.0833333333336802 0
1 5 0 0
2 1 0 143
53
54
55
56
57
58
59
60
61
62
63
64
65
66
67
68
69
70
71
72
73
74
75
76
77
78
79
80
81
82
83
84
85
86
87
88
89
90
91
92
93
94
95
96
97
98
99
100
101
102
103
104
105
106
107
108
109
110
111
112
113
114
115
116
117
118
119
120
121
122
123
124
125
126
127
128
129
130
131
132
133
134
135
136
137
138
139
140
141
142
143
144
145
146
147
148
149
150
151
152
153
154
155
156
157
158
159
160
161
162
163
164
165
166
167
168
169
170
171
172
173
174
175
176
177
178
179
180
181
182
183
184
185
186
187
188
189
190
191
192
193
194
195
0.08571428571415192 0.08333333333364396 0
0.08571428571418546 0.1666666666672862 0
0.08571428571421902 0.250000000000924 0
0.08571428571425255 0.3333333333345622 0
0.0857142857142861 0.4166666666682003 0
0.08571428571431966 0.500000000001819 0
0.08571428571435322 0.5833333333346504 0
0.08571428571438677 0.6666666666674628 0
0.08571428571442034 0.7500000000002752 0
0.08571428571445389 0.8333333333330872 0
0.08571428571448746 0.9166666666663288 0
0.1714285714283084 0.08333333333360775 0
0.1714285714283751 0.1666666666672119 0
0.1714285714284418 0.2500000000008077 0
0.1714285714285085 0.3333333333344037 0
0.1714285714285752 0.4166666666679997 0
0.1714285714286419 0.5000000000015783 0
0.1714285714287087 0.5833333333344646 0
0.1714285714287754 0.6666666666673341 0
0.1714285714288421 0.7500000000002033 0
0.1714285714289088 0.8333333333330722 0
0.1714285714289756 0.9166666666663379 0
0.2571428571423892 0.0833333333335715 0
0.25714285714249 0.1666666666671376 0
0.2571428571425908 0.2500000000006913 0
0.2571428571426917 0.3333333333342451 0
0.2571428571427926 0.4166666666677989 0
0.2571428571428934 0.5000000000013378 0
0.2571428571429942 0.5833333333342787 0
0.257142857143095 0.6666666666672052 0
0.2571428571431958 0.7500000000001313 0
0.2571428571432966 0.8333333333330574 0
0.2571428571433974 0.916666666666347 0
0.3428571428564658 0.08333333333353529 0
0.342857142856607 0.1666666666670634 0
0.3428571428567482 0.2500000000005749 0
0.3428571428568895 0.3333333333340865 0
0.3428571428570307 0.4166666666675982 0
0.3428571428571719 0.5000000000010973 0
0.3428571428573133 0.5833333333340929 0
0.3428571428574545 0.6666666666670762 0
0.3428571428575959 0.7500000000000595 0
0.3428571428577371 0.8333333333330426 0
0.3428571428578783 0.9166666666663559 0
0.4285714285705423 0.08333333333349906 0
0.4285714285707238 0.1666666666669891 0
0.4285714285709056 0.2500000000004585 0
0.4285714285710873 0.333333333333928 0
0.428571428571269 0.4166666666673975 0
0.4285714285714507 0.5000000000008569 0
0.4285714285716322 0.583333333333907 0
0.428571428571814 0.6666666666669474 0
0.4285714285719956 0.7499999999999875 0
0.4285714285721773 0.8333333333330277 0
0.428571428572359 0.916666666666365 0
0.5142857142846382 0.08333333333346282 0
0.5142857142848583 0.1666666666669149 0
0.5142857142850785 0.2500000000003421 0
0.5142857142852986 0.3333333333337694 0
0.5142857142855184 0.4166666666671968 0
0.5142857142857384 0.5000000000006164 0
0.5142857142859585 0.5833333333337212 0
0.5142857142861785 0.6666666666668184 0
0.5142857142863986 0.7499999999999156 0
0.5142857142866185 0.8333333333330128 0
0.5142857142868388 0.9166666666663741 0
0.5999999999987313 0.08333333333342659 0
0.5999999999989869 0.1666666666668406 0
0.599999999999242 0.2500000000002257 0
0.5999999999994974 0.3333333333336109 0
0.5999999999997525 0.416666666666996 0
0.6000000000000079 0.5000000000003757 0
0.6000000000002632 0.5833333333335353 0
0.6000000000005186 0.6666666666666896 0
0.6000000000007739 0.7499999999998436 0
0.6000000000010293 0.8333333333329979 0
0.6000000000012846 0.9166666666663832 0
0.6857142857131751 0.08333333333339037 0
0.6857142857133952 0.1666666666667664 0
0.6857142857136157 0.2500000000001094 0
0.6857142857138362 0.3333333333334523 0
0.6857142857140566 0.4166666666667953 0
0.6857142857142771 0.5000000000001352 0
0.6857142857144973 0.5833333333333495 0
0.6857142857147178 0.6666666666665608 0
0.6857142857149381 0.7499999999997718 0
0.6857142857151584 0.833333333332983 0
0.6857142857153791 0.9166666666663923 0
0.7714285714276545 0.08333333333335412 0
0.7714285714278387 0.1666666666666921 0
0.771428571428023 0.2499999999999929 0
0.7714285714282072 0.3333333333332938 0
0.7714285714283913 0.4166666666665947 0
0.7714285714285756 0.4999999999998948 0
0.7714285714287596 0.5833333333331636 0
0.7714285714289439 0.6666666666664318 0
0.7714285714291281 0.7499999999997001 0
0.7714285714293121 0.8333333333329681 0
0.7714285714294964 0.9166666666664014 0
0.8571428571421331 0.0833333333333179 0
0.8571428571422772 0.1666666666666179 0
0.8571428571424214 0.2499999999998765 0
0.8571428571425657 0.3333333333331351 0
0.8571428571427098 0.416666666666394 0
0.8571428571428539 0.4999999999996541 0
0.857142857142998 0.5833333333329778 0
0.8571428571431421 0.666666666666303 0
0.8571428571432862 0.7499999999996282 0
0.8571428571434303 0.8333333333329532 0
0.8571428571435745 0.9166666666664105 0
0.9428571428566123 0.08333333333328168 0
0.9428571428567166 0.1666666666665436 0
0.9428571428568203 0.2499999999997601 0
0.9428571428569242 0.3333333333329766 0
0.9428571428570283 0.4166666666661932 0
0.9428571428571322 0.4999999999994136 0
0.9428571428572363 0.5833333333327919 0
0.9428571428573402 0.666666666666174 0
0.9428571428574445 0.7499999999995562 0
0.9428571428575483 0.8333333333329384 0
0.9428571428576523 0.9166666666664196 0
1.028571428571024 0.08333333333324543 0
1.028571428571086 0.1666666666664694 0
1.028571428571148 0.2499999999996437 0
1.028571428571211 0.3333333333328182 0
1.028571428571272 0.4166666666659925 0
1.028571428571335 0.4999999999991731 0
1.028571428571397 0.5833333333326061 0
1.028571428571459 0.6666666666660452 0
1.028571428571521 0.7499999999994842 0
1.028571428571583 0.8333333333329235 0
1.028571428571645 0.9166666666664285 0
1.11428571428551 0.08333333333320921 0
1.114285714285539 0.1666666666663951 0
1.114285714285567 0.2499999999995273 0
1.114285714285596 0.3333333333326595 0
1.114285714285625 0.4166666666657919 0
1.114285714285653 0.4999999999989326 0
1.114285714285682 0.5833333333324202 0
1.114285714285711 0.6666666666659165 0
1.11428571428574 0.7499999999994122 0
1.114285714285768 0.8333333333329087 0
1.114285714285797 0.9166666666664378 0
$EndNodes
$Elements
6 1396 1 3804
1 1 1 14
1 1 5 
2 5 6 
3 6 7 
4 7 8 
5 8 9 
6 9 10 
7 10 11 
8 11 12 
9 12 13 
10 13 14 
11 14 15 
12 15 16 
13 16 17 
14 17 2 
1 2 1 12
15 2 18 
16 18 19 
17 19 20 
18 20 21 
19 21 22 
20 22 23 
21 23 24 
22 24 25 
23 25 26 
24 26 27 
25 27 28 
26 28 3 
1 3 1 14
27 3 29 
28 29 30 
29 30 31 
30 31 32 
31 32 33 
32 33 34 
33 34 35 
34 35 36 
35 36 37 
36 37 38 
37 38 39 
38 39 40 
39 40 41 
40 41 4 
1 4 1 12
41 4 42 
42 42 43 
43 43 44 
44 44 45 
45 45 46 
46 46 47 
47 47 48 
48 48 49 
49 49 50 
50 50 51 
51 51 52 
52 52 1 
1 5 1 1008
2797 1 5 
2798 5 52 
2799 52 1 
2800 52 5 
2801 5 53 
2802 53 52 
2803 52 53 
2804 53 51 
2805 51 52 
2806 51 53 
2807 53 54 
2808 54 51 
2809 51 54 
2810 54 50 
2811 50 51 
2812 50 54 
2813 54 55 
2814 55 50 
2815 50 55 
2816 55 49 
2817 49 50 
2818 49 55 
2819 55 56 
2820 56 49 
2821 49 56 
2822 56 48 
2823 48 49 
2824 48 56 
2825 56 57 
2826 57 48 
2827 48 57 
2828 57 47 
2829 47 48 
2830 47 57 
2831 57 58 
2832 58 47 
2833 47 58 
2834 58 46 
2835 46 47 
2836 46 58 
2837 58 59 
2838 59 46 
2839 46 59 
2840 59 45 
2841 45 46 
2842 45 59 
2843 59 60 
2844 60 45 
2845 45 60 
2846 60 44 
2847 44 45 
2848 44 60 
2849 60 61 
2850 61 44 
2851 44 61 
2852 61 43 
2853 43 44 
2854 43 61 
2855 61 62 
2856 62 43 
2857 43 62 
2858 62 42 
2859 42 43 
2860 42 62 
2861 62 63 
2862 63 42 
2863 42 63 
2864 63 4 
2865 4 42 
2866 4 63 
2867 63 41 
2868 41 4 
2869 5 6 
2870 6 53 
2871 53 5 
2872 53 6 
2873 6 64 
2874 64 53 
2875 53 64 
2876 64 54 
2877 54 53 
2878 54 64 
2879 64 65 
2880 65 54 
2881 54 65 
2882 65 55 
2883 55 54 
2884 55 65 
2885 65 66 
2886 66 55 
2887 55 66 
2888 66 56 
2889 56 55 
2890 56 66 
2891 66 67 
2892 67 56 
2893 56 67 
2894 67 57 
2895 57 56 
2896 57 67 
2897 67 68 
2898 68 57 
2899 57 68 
2900 68 58 
2901 58 57 
2902 58 68 
2903 68 69 
2904 69 58 
2905 58 69 
2906 69 59 
2907 59 58 
2908 59 69 
2909 69 70 
2910 70 59 
2911 59 70 
2912 70 60 
2913 60 59 
2914 60 70 
2915 70 71 
2916 71 60 
2917 60 71 
2918 71 61 
2919 61 60 
2920 61 71 
2921 71 72 
2922 72 61 
2923 61 72 
2924 72 62 
2925 62 61 
2926 62 72 
2927 72 73 
2928 73 62 
2929 62 73 
2930 73 63 
2931 63 62 
2932 63 73 
2933 73 74 
2934 74 63 
2935 63 74 
2936 74 41 
2937 41 63 
2938 41 74 
2939 74 40 
2940 40 41 
2941 6 7 
2942 7 64 
2943 64 6 
2944 64 7 
2945 7 75 
2946 75 64 
2947 64 75 
2948 75 65 
2949 65 64 
2950 65 75 
2951 75 76 
2952 76 65 
2953 65 76 
2954 76 66 
2955 66 65 
2956 66 76 
2957 76 77 
2958 77 66 
2959 66 77 
2960 77 67 
2961 67 66 
2962 67 77 
2963 77 78 
2964 78 67 
2965 67 78 
2966 78 68 
2967 68 67 
2968 68 78 
2969 78 79 
2970 79 68 
2971 68 79 
2972 79 69 
2973 69 68 
2974 69 79 
2975 79 80 
2976 80 69 
2977 69 80 
2978 80 70 
2979 70 69 
2980 70 80 
2981 80 81 
2982 81 70 
2983 70 81 
2984 81 71 
2985 71 70 
2986 71 81 
2987 81 82 
2988 82 71 
2989 71 82 
2990 82 72 
2991 72 71 
2992 72 82 
2993 82 83 
2994 83 72 
2995 72 83 
2996 83 73 
2997 73 72 
2998 73 83 
2999 83 84 
3000 84 73 
3001 73 84 
3002 84 74 
3003 74 73 
3004 74 84 
3005 84 85 
3006 85 74 
3007 74 85 
3008 85 40 
3009 40 74 
3010 40 85 
3011 85 39 
3012 39 40 
3013 7 8 
3014 8 75 
3015 75 7 
3016 75 8 
3017 8 86 
3018 86 75 
3019 75 86 
3020 86 76 
3021 76 75 
3022 76 86 
3023 86 87 
3024 87 76 
3025 76 87 
3026 87 77 
3027 77 76 
3028 77 87 
3029 87 88 
3030 88 77 
3031 77 88 
3032 88 78 
3033 78 77 
3034 78 88 
3035 88 89 
3036 89 78 
3037 78 89 
3038 89 79 
3039 79 78 
3040 79 89 
3041 89 90 
3042 90 79 
3043 79 90 
3044 90 80 
3045 80 79 
3046 80 90 
3047 90 91 
3048 91 80 
3049 80 91 
3050 91 81 
3051 81 80 
3052 81 91 
3053 91 92 
3054 92 81 
3055 81 92 
3056 92 82 
3057 82 81 
3058 82 92 
3059 92 93 
3060 93 82 
3061 82 93 
3062 93 83 
3063 83 82 
3064 83 93 
3065 93 94 
3066 94 83 
3067 83 94 
3068 94 84 
3069 84 83 
3070 84 94 
3071 94 95 
3072 95 84 
3073 84 95 
3074 95 85 
3075 85 84 
3076 85 95 
3077 95 96 
3078 96 85 
3079 85 96 
3080 96 39 
3081 39 85 
3082 39 96 
3083 96 38 
3084 38 39 
3085 8 9 
3086 9 86 
3087 86 8 
3088 86 9 
3089 9 97 
3090 97 86 
3091 86 97 
3092 97 87 
3093 87 86 
3094 87 97 
3095 97 98 
3096 98 87 
3097 87 98 
3098 98 88 
3099 88 87 
3100 88 98 
3101 98 99 
3102 99 88 
3103 88 99 
3104 99 89 
3105 89 88 
3106 89 99 
3107 99 100 
3108 100 89 
3109 89 100 
3110 100 90 
3111 90 89 
3112 90 100 
3113 100 101 
3114 101 90 
3115 90 101 
3116 101 91 
3117 91 90 
3118 91 101 
3119 101 102 
3120 102 91 
3121 91 102 
3122 102 92 
3123 92 91 
3124 92 102 
3125 102 103 
3126 103 92 
3127 92 103 
3128 103 93 
3129 93 92 
3130 93 103 
3131 103 104 
3132 104 93 
3133 93 104 
3134 104 94 
3135 94 93 
3136 94 104 
3137 104 105 
3138 105 94 
3139 94 105 
3140 105 95 
3141 95 94 
3142 95 105 
3143 105 106 
3144 106 95 
3145 95 106 
3146 106 96 
3147 96 95 
3148 96 106 
3149 106 107 
3150 107 96 
3151 96 107 
3152 107 38 
3153 38 96 
3154 38 107 
3155 107 37 
3156 37 38 
3157 9 10 
3158 10 97 
3159 97 9 
3160 97 10 
3161 10 108 
3162 108 97 
3163 97 108 
3164 108 98 
3165 98 97 
3166 98 108 
3167 108 109 
3168 109 98 
3169 98 109 
3170 109 99 
3171 99 98 
3172 99 109 
3173 109 110 
3174 110 99 
3175 99 110 
3176 110 100 
3177 100 99 
3178 100 110 
3179 110 111 
3180 111 100 
3181 100 111 
3182 111 101 
3183 101 100 
3184 101 111 
3185 111 112 
3186 112 101 
3187 101 112 
3188 112 102 
3189 102 101 
3190 102 112 
3191 112 113 
3192 113 102 
3193 102 113 
3194 113 103 
3195 103 102 
3196 103 113 
3197 113 114 
3198 114 103 
3199 103 114 
3200 114 104 
3201 104 103 
3202 104 114 
3203 114 115 
3204 115 104 
3205 104 115 
3206 115 105 
3207 105 104 
3208 105 115 
3209 115 116 
3210 116 105 
3211 105 116 
3212 116 106 
3213 106 105 
3214 106 116 
3215 116 117 
3216 117 106 
3217 106 117 
3218 117 107 
3219 107 106 
3220 107 117 
3221 117 118 
3222 118 107 
3223 107 118 
3224 118 37 
3225 37 107 
3226 37 118 
3227 118 36 
3228 36 37 
3229 10 11 
3230 11 108 
3231 108 10 
3232 108 11 
3233 11 119 
3234 119 108 
3235 108 119 
3236 119 109 
3237 109 108 
3238 109 119 
3239 119 120 
3240 120 109 
3241 109 120 
3242 120 110 
3243 110 109 
3244 110 120 
3245 120 121 
3246 121 110 
3247 110 121 
3248 121 111 
3249 111 110 
3250 111 121 
3251 121 122 
3252 122 111 
3253 111 122 
3254 122 112 
3255 112 111 
3256 112 122 
3257 122 123 
3258 123 112 
3259 112 123 
3260 123 113 
3261 113 112 
3262 113 123 
3263 123 124 
3264 124 113 
3265 113 124 
3266 124 114 
3267 114 113 
3268 114 124 
3269 124 125 
3270 125 114 
3271 114 125 
3272 125 115 
3273 115 114 
3274 115 125 
3275 125 126 
3276 126 115 
3277 115 126 
3278 126 116 
3279 116 115 
3280 116 126 
3281 126 127 
3282 127 116 
3283 116 127 
3284 127 117 
3285 117 116 
3286 117 127 
3287 127 128 
3288 128 117 
3289 117 128 
3290 128 118 
3291 118 117 
3292 118 128 
3293 128 129 
3294 129 118 
3295 118 129 
3296 129 36 
3297 36 118 
3298 36 129 
3299 129 35 
3300 35 36 
3301 11 12 
3302 12 119 
3303 119 11 
3304 119 12 
3305 12 130 
3306 130 119 
3307 119 130 
3308 130 120 
3309 120 119 
3310 120 130 
3311 130 131 
3312 131 120 
3313 120 131 
3314 131 121 
3315 121 120 
3316 121 131 
3317 131 132 
3318 132 121 
3319 121 132 
3320 132 122 
3321 122 121 
3322 122 132 
3323 132 133 
3324 133 122 
3325 122 133 
3326 133 123 
3327 123 122 
3328 123 133 
3329 133 134 
3330 134 123 
3331 123 134 
3332 134 124 
3333 124 123 
3334 124 134 
3335 134 135 
3336 135 124 
3337 124 135 
3338 135 125 
3339 125 124 
3340 125 135 
3341 135 136 
3342 136 125 
3343 125 136 
3344 136 126 
3345 126 125 
3346 126 136 
3347 136 137 
3348 137 126 
3349 126 137 
3350 137 127 
3351 127 126 
3352 127 137 
3353 137 138 
3354 138 127 
3355 127 138 
3356 138 128 
3357 128 127 
3358 128 138 
3359 138 139 
3360 139 128 
3361 128 139 
3362 139 129 
3363 129 128 
3364 129 139 
3365 139 140 
3366 140 129 
3367 129 140 
3368 140 35 
3369 35 129 
3370 35 140 
3371 140 34 
3372 34 35 
3373 12 13 
3374 13 130 
3375 130 12 
3376 130 13 
3377 13 141 
3378 141 130 
3379 130 141 
3380 141 131 
3381 131 130 
3382 131 141 
3383 141 142 
3384 142 131 
3385 131 142 
3386 142 132 
3387 132 131 
3388 132 142 
3389 142 143 
3390 143 132 
3391 132 143 
3392 143 133 
3393 133 132 
3394 133 143 
3395 143 144 
3396 144 133 
3397 133 144 
3398 144 134 
3399 134 133 
3400 134 144 
3401 144 145 
3402 145 134 
3403 134 145 
3404 145 135 
3405 135 134 
3406 135 145 
3407 145 146 
3408 146 135 
3409 135 146 
3410 146 136 
3411 136 135 
3412 136 146 
3413 146 147 
3414 147 136 
3415 136 147 
3416 147 137 
3417 137 136 
3418 137 147 
3419 147 148 
3420 148 137 
3421 137 148 
3422 148 138 
3423 138 137 
3424 138 148 
3425 148 149 
3426 149 138 
3427 138 149 
3428 149 139 
3429 139 138 
3430 139 149 
3431 149 150 
3432 150 139 
3433 139 150 
3434 150 140 
3435 140 139 
3436 140 150 
3437 150 151 
3438 151 140 
3439 140 151 
3440 151 34 
3441 34 140 
3442 34 151 
3443 151 33 
3444 33 34 
3445 13 14 
3446 14 141 
3447 141 13 
3448 141 14 
3449 14 152 
3450 152 141 
3451 141 152 
3452 152 142 
3453 142 141 
3454 142 152 
3455 152 153 
3456 153 142 
3457 142 153 
3458 153 143 
3459 143 142 
3460 143 153 
3461 153 154 
3462 154 143 
3463 143 154 
3464 154 144 
3465 144 143 
3466 144 154 
3467 154 155 
3468 155 144 
3469 144 155 
3470 155 145 
3471 145 144 
3472 145 155 
3473 155 156 
3474 156 145 
3475 145 156 
3476 156 146 
3477 146 145 
3478 146 156 
3479 156 157 
3480 157 146 
3481 146 157 
3482 157 147 
3483 147 146 
3484 147 157 
3485 157 158 
3486 158 147 
3487 147 158 
3488 158 148 
3489 148 147 
3490 148 158 
3491 158 159 
3492 159 148 
3493 148 159 
3494 159 149 
3495 149 148 
3496 149 159 
3497 159 160 
3498 160 149 
3499 149 160 
3500 160 150 
3501 150 149 
3502 150 160 
3503 160 161 
3504 161 150 
3505 150 161 
3506 161 151 
3507 151 150 
3508 151 161 
3509 161 162 
3510 162 151 
3511 151 162 
3512 162 33 
3513 33 151 
3514 33 162 
3515 162 32 
3516 32 33 
3517 14 15 
3518 15 152 
3519 152 14 
3520 152 15 
3521 15 163 
3522 163 152 
3523 152 163 
3524 163 153 
3525 153 152 
3526 153 163 
3527 163 164 
3528 164 153 
3529 153 164 
3530 164 154 
3531 154 153 
3532 154 164 
3533 164 165 
3534 165 154 
3535 154 165 
3536 165 155 
3537 155 154 
3538 155 165 
3539 165 166 
3540 166 155 
3541 155 166 
3542 166 156 
3543 156 155 
3544 156 166 
3545 166 167 
3546 167 156 
3547 156 167 
3548 167 157 
3549 157 156 
3550 157 167 
3551 167 168 
3552 168 157 
3553 157 168 
3554 168 158 
3555 158 157 
3556 158 168 
3557 168 169 
3558 169 158 
3559 158 169 
3560 169 159 
3561 159 158 
3562 159 169 
3563 169 170 
3564 170 159 
3565 159 170 
3566 170 160 
3567 160 159 
3568 160 170 
3569 170 171 
3570 171 160 
3571 160 171 
3572 171 161 
3573 161 160 
3574 161 171 
3575 171 172 
3576 172 161 
3577 161 172 
3578 172 162 
3579 162 161 
3580 162 172 
3581 172 173 
3582 173 162 
3583 162 173 
3584 173 32 
3585 32 162 
3586 32 173 
3587 173 31 
3588 31 32 
3589 15 16 
3590 16 163 
3591 163 15 
3592 163 16 
3593 16 174 
3594 174 163 
3595 163 174 
3596 174 164 
3597 164 163 
3598 164 174 
3599 174 175 
3600 175 164 
3601 164 175 
3602 175 165 
3603 165 164 
3604 165 175 
3605 175 176 
3606 176 165 
3607 165 176 
3608 176 166 
3609 166 165 
3610 166 176 
3611 176 177 
3612 177 166 
3613 166 177 
3614 177 167 
3615 167 166 
3616 167 177 
3617 177 178 
3618 178 167 
3619 167 178 
3620 178 168 
3621 168 167 
3622 168 178 
3623 178 179 
3624 179 168 
3625 168 179 
3626 179 169 
3627 169 168 
3628 169 179 
3629 179 180 
3630 180 169 
3631 169 180 
3632 180 170 
3633 170 169 
3634 170 180 
3635 180 181 
3636 181 170 
3637 170 181 
3638 181 171 
3639 171 170 
3640 171 181 
3641 181 182 
3642 182 171 
3643 171 182 
3644 182 172 
3645 172 171 
3646 172 182 
3647 182 183 
3648 183 172 
3649 172 183 
3650 183 173 
3651 173 172 
3652 173 183 
3653 183 184 
3654 184 173 
3655 173 184 
3656 184 31 
3657 31 173 
3658 31 184 
3659 184 30 
3660 30 31 
3661 16 17 
3662 17 174 
3663 174 16 
3664 174 17 
3665 17 185 
3666 185 174 
3667 174 185 
3668 185 175 
3669 175 174 
3670 175 185 
3671 185 186 
3672 186 175 
3673 175 186 
3674 186 176 
3675 176 175 
3676 176 186 
3677 186 187 
3678 187 176 
3679 176 187 
3680 187 177 
3681 177 176 
3682 177 187 
3683 187 188 
3684 188 177 
3685 177 188 
3686 188 178 
3687 178 177 
3688 178 188 
3689 188 189 
3690 189 178 
3691 178 189 
3692 189 179 
3693 179 178 
3694 179 189 
3695 189 190 
3696 190 179 
3697 179 190 
3698 190 180 
3699 180 179 
3700 180 190 
3701 190 191 
3702 191 180 
3703 180 191 
3704 191 181 
3705 181 180 
3706 181 191 
3707 191 192 
3708 192 181 
3709 181 192 
3710 192 182 
3711 182 181 
3712 182 192 
3713 192 193 
3714 193 182 
3715 182 193 
3716 193 183 
3717 183 182 
3718 183 193 
3719 193 194 
3720 194 183 
3721 183 194 
3722 194 184 
3723 184 183 
3724 184 194 
3725 194 195 
3726 195 184 
3727 184 195 
3728 195 30 
3729 30 184 
3730 30 195 
3731 195 29 
3732 29 30 
3733 17 2 
3734 2 185 
3735 185 17 
3736 185 2 
3737 2 18 
3738 18 185 
3739 185 18 
3740 18 186 
3741 186 185 
3742 186 18 
3743 18 19 
3744 19 186 
3745 186 19 
3746 19 187 
3747 187 186 
3748 187 19 
3749 19 20 
3750 20 187 
3751 187 20 
3752 20 188 
3753 188 187 
3754 188 20 
3755 20 21 
3756 21 188 
3757 188 21 
3758 21 189 
3759 189 188 
3760 189 21 
3761 21 22 
3762 22 189 
3763 189 22 
3764 22 190 
3765 190 189 
3766 190 22 
3767 22 23 
3768 23 190 
3769 190 23 
3770 23 191 
3771 191 190 
3772 191 23 
3773 23 24 
3774 24 191 
3775 191 24 
3776 24 192 
3777 192 191 
3778 192 24 
3779 24 25 
3780 25 192 
3781 192 25 
3782 25 193 
3783 193 192 
3784 193 25 
3785 25 26 
3786 26 193 
3787 193 26 
3788 26 194 
3789 194 193 
3790 194 26 
3791 26 27 
3792 27 194 
3793 194 27 
3794 27 195 
3795 195 194 
3796 195 27 
3797 27 28 
3798 28 195 
3799 195 28 
3800 28 29 
3801 29 195 
3802 29 28 
3803 28 3 
3804 3 29 
2 1 2 336
53 1 5 52 
54 52 5 53 
55 52 53 51 
56 51 53 54 
57 51 54 50 
58 50 54 55 
59 50 55 49 
60 49 55 56 
61 49 56 48 
62 48 56 57 
63 48 57 47 
64 47 57 58 
65 47 58 46 
66 46 58 59 
67 46 59 45 
68 45 59 60 
69 45 60 44 
70 44 60 61 
71 44 61 43 
72 43 61 62 
73 43 62 42 
74 42 62 63 
75 42 63 4 
76 4 63 41 
77 5 6 53 
78 53 6 64 
79 53 64 54 
80 54 64 65 
81 54 65 55 
82 55 65 66 
83 55 66 56 
84 56 66 67 
85 56 67 57 
86 57 67 68 
87 57 68 58 
88 58 68 69 
89 58 69 59 
90 59 69 70 
91 59 70 60 
92 60 70 71 
93 60 71 61 
94 61 71 72 
95 61 72 62 
96 62 72 73 
97 62 73 63 
98 63 73 74 
99 63 74 41 
100 41 74 40 
101 6 7 64 
102 64 7 75 
103 64 75 65 
104 65 75 76 
105 65 76 66 
106 66 76 77 
107 66 77 67 
108 67 77 78 
109 67 78 68 
110 68 78 79 
111 68 79 69 
112 69 79 80 
113 69 80 70 
114 70 80 81 
115 70 81 71 
116 71 81 82 
117 71 82 72 
118 72 82 83 
119 72 83 73 
120 73 83 84 
121 73 84 74 
122 74 84 85 
123 74 85 40 
124 40 85 39 
125 7 8 75 
126 75 8 86 
127 75 86 76 
128 76 86 87 
129 76 87 77 
130 77 87 88 
131 77 88 78 
132 78 88 89 
133 78 89 79 
134 79 89 90 
135 79 90 80 
136 80 90 91 
137 80 91 81 
138 81 91 92 
139 81 92 82 
140 82 92 93 
141 82 93 83 
142 83 93 94 
143 83 94 84 
144 84 94 95 
145 84 95 85 
146 85 95 96 
147 85 96 39 
148 39 96 38 
149 8 9 86 
150 86 9 97 
151 86 97 87 
152 87 97 98 
153 87 98 88 
154 88 98 99 
155 88 99 89 
156 89 99 100 
157 89 100 90 
158 90 100 101 
159 90 101 91 
160 91 101 102 
161 91 102 92 
162 92 102 103 
163 92 103 93 
164 93 103 104 
165 93 104 94 
166 94 104 105 
167 94 105 95 
168 95 105 106 
169 95 106 96 
170 96 106 107 
171 96 107 38 
172 38 107 37 
173 9 10 97 
174 97 10 108 
175 97 108 98 
176 98 108 109 
177 98 109 99 
178 99 109 110 
179 99 110 100 
180 100 110 111 
181 100 111 101 
182 101 111 112 
183 101 112 102 
184 102 112 113 
185 102 113 103 
186 103 113 114 
187 103 114 104 
188 104 114 115 
189 104 115 105 
190 105 115 116 
191 105 116 106 
192 106 116 117 
193 106 117 107 
194 107 117 118 
195 107 118 37 
196 37 118 36 
197 10 11 108 
198 108 11 119 
199 108 119 109 
200 109 119 120 
201 109 120 110 
202 110 120 121 
203 110 121 111 
204 111 121 122 
205 111 122 112 
206 112 122 123 
207 112 123 113 
208 113 123 124 
209 113 124 114 
210 114 124 125 
211 114 125 115 
212 115 125 126 
213 115 126 116 
214 116 126 127 
215 116 127 117 
216 117 127 128 
217 117 128 118 
218 118 128 129 
219 118 129 36 
220 36 129 35 
221 11 12 119 
222 119 12 130 
223 119 130 120 
224 120 130 131 
225 120 131 121 
226 121 131 132 
227 121 132 122 
228 122 132 133 
229 122 133 123 
230 123 133 134 
231 123 134 124 
232 124 134 135 
233 124 135 125 
234 125 135 136 
235 125 136 126 
236 126 136 137 
237 126 137 127 
238 127 137 138 
239 127 138 128 
240 128 138 139 
241 128 139 129 
242 129 139 140 
243 129 140 35 
244 35 140 34 
245 12 13 130 
246 130 13 141 
247 130 141 131 
248 131 141 142 
249 131 142 132 
250 132 142 143 
251 132 143 133 
252 133 143 144 
253 133 144 134 
254 134 144 145 
255 134 145 135 
256 135 145 146 
257 135 146 136 
258 136 146 147 
259 136 147 137 
260 137 147 148 
261 137 148 138 
262 138 148 149 
263 138 149 139 
264 139 149 150 
265 139 150 140 
266 140 150 151 
267 140 151 34 
268 34 151 33 
269 13 14 141 
270 141 14 152 
271 141 152 142 
272 142 152 153 
273 142 153 143 
274 143 153 154 
275 143 154 144 
276 144 154 155 
277 144 155 145 
278 145 155 156 
279 145 156 146 
280 146 156 157 
281 146 157 147 
282 147 157 158 
283 147 158 148 
284 148 158 159 
285 148 159 149 
286 149 159 160 
287 149 160 150 
288 150 160 161 
289 150 161 151 
290 151 161 162 
291 151 162 33 
292 33 162 32 
293 14 15 152 
294 152 15 163 
295 152 163 153 
296 153 163 164 
297 153 164 154 
298 154 164 165 
299 154 165 155 
300 155 165 166 
301 155 166 156 
302 156 166 167 
303 156 167 157 
304 157 167 168 
305 157 168 158 
306 158 168 169 
307 158 169 159 
308 159 169 170 
309 159 170 160 
310 160 170 171 
311 160 171 161 
312 161 171 172 
313 161 172 162 
314 162 172 173 
315 162 173 32 
316 32 173 31 
317 15 16 163 
318 163 16 174 
319 163 174 164 
320 164 174 175 
321 164 175 165 
322 165 175 176 
323 165 176 166 
324 166 176 177 
325 166 177 167 
326 167 177 178 
327 167 178 168 
328 168 178 179 
329 168 179 169 
330 169 179 180 
331 169 180 170 
332 170 180 181 
333 170 181 171 
334 171 181 182 
335 171 182 172 
336 172 182 183 
337 172 183 173 
338 173 183 184 
339 173 184 31 
340 31 184 30 
341 16 17 174 
342 174 17 185 
343 174 185 175 
344 175 185 186 
345 175 186 176 
346 176 186 187 
347 176 187 177 
348 177 187 188 
349 177 188 178 
350 178 188 189 
351 178 189 179 
352 179 189 190 
353 179 190 180 
354 180 190 191 
355 180 191 181 
356 181 191 192 
357 181 192 182 
358 182 192 193 
359 182 193 183 
360 183 193 194 
361 183 194 184 
362 184 194 195 
363 184 195 30 
364 30 195 29 
365 17 2 185 
366 185 2 18 
367 185 18 186 
368 186 18 19 
369 186 19 187 
370 187 19 20 
371 187 20 188 
372 188 20 21 
373 188 21 189 
374 189 21 22 
375 189 22 190 
376 190 22 23 
377 190 23 191 
378 191 23 24 
379 191 24 192 
380 192 24 25 
381 192 25 193 
382 193 25 26 
383 193 26 194 
384 194 26 27 
385 194 27 195 
386 195 27 28 
387 195 28 29 
388 29 28 3 
$EndElements
