$MeshFormat
4.1 0 8
$EndMeshFormat
$PhysicalNames
6
1 1 "Γ¹"
1 2 "Γ²"
1 3 "Γ³"
1 4 "Γ⁴"
1 6 "Γ"
2 5 "Ω"
$EndPhysicalNames
$Entities
4 5 1 0
1 0 0 0 0 
2 0.7 0 0 0 
3 0.7 1 0 0 
4 0 1 0 0 
1 0 0 0 0.7 0 0 1 1 2 1 -2 
2 0.7 0 0 0.7 1 0 1 2 2 2 -3 
3 0 1 0 0.7 1 0 1 3 2 3 -4 
4 0 0 0 0 1 0 1 4 2 4 -1 
5 0 0 0 0.7 1 0 1 6 0 
1 0 0 0 0.7 1 0 1 5 4 1 2 3 4 
$EndEntities
$Nodes
10 117 1 117
0 1 0 1
1
0 0 0
0 2 0 1
2
0.7 0 0
0 3 0 1
3
0.7 1 0
0 4 0 1
4
0 1 0
1 1 0 7
5
6
7
8
9
10
11
0.08749999999983571 0 0
0.1749999999995968 0 0
0.2624999999993499 0 0
0.3499999999991029 0 0
0.4374999999993329 0 0
0.5249999999995409 0 0
0.6124999999997812 0 0
1 2 0 11
12
13
14
15
16
17
18
19
20
21
22
0.7 0.08333333333317297 0
0.7 0.1666666666663209 0
0.7 0.2499999999994109 0
0.7 0.333333333332501 0
0.7 0.4166666666655911 0
0.7 0.499999999998692 0
0.7 0.5833333333322344 0
0.7 0.6666666666657874 0
0.7 0.7499999999993405 0
0.7 0.8333333333328937 0
0.7 0.9166666666664468 0
1 3 0 7
23
24
25
26
27
28
29
0.6125000000001816 1 0
0.5250000000003847 1 0
0.437500000000599 1 0
0.3500000000008566 1 0
0.2625000000006368 1 0
0.1750000000004387 1 0
0.08750000000020852 1 0
1 4 0 11
30
31
32
33
34
35
36
37
38
39
40
0 0.9166666666663197 0
0 0.833333333333102 0
0 0.7500000000003471 0
0 0.6666666666675918 0
0 0.5833333333348364 0
0 0.5000000000020595 0
0 0.416666666668401 0
0 0.3333333333347207 0
0 0.2500000000010405 0
0 0.1666666666673604 0
0 0.0833333333336802 0
1 5 0 0
2 1 0 77
41
42
43
44
45
46
47
48
49
50
51
52
53
54
55
56
57
58
59
60
61
62
63
64
65
66
67
68
69
70
71
72
73
74
75
76
77
78
79
80
81
82
83
84
85
86
87
88
89
90
91
92
93
94
95
96
97
98
99
100
101
102
103
104
105
106
107
108
109
110
111
112
113
114
115
116
117
0.08749999999986675 0.08333333333361681 0
0.08749999999989785 0.1666666666672305 0
0.08749999999992891 0.2500000000008368 0
0.08749999999995998 0.3333333333344433 0
0.08749999999999106 0.4166666666680499 0
0.08750000000002212 0.5000000000016385 0
0.0875000000000532 0.583333333334511 0
0.08750000000008425 0.6666666666673665 0
0.08750000000011532 0.750000000000221 0
0.08750000000014639 0.833333333333076 0
0.08750000000017749 0.9166666666663357 0
0.174999999999667 0.08333333333355339 0
0.1749999999997371 0.1666666666671005 0
0.1749999999998073 0.2500000000006332 0
0.1749999999998775 0.3333333333341657 0
0.1749999999999476 0.4166666666676986 0
0.1750000000000178 0.5000000000012177 0
0.1750000000000879 0.5833333333341859 0
0.1750000000001581 0.6666666666671408 0
0.1750000000002283 0.7500000000000953 0
0.1750000000002984 0.8333333333330499 0
0.1750000000003686 0.9166666666663517 0
0.2624999999994572 0.08333333333349001 0
0.2624999999995644 0.1666666666669706 0
0.2624999999996716 0.2500000000004294 0
0.2624999999997788 0.3333333333338883 0
0.2624999999998862 0.4166666666673473 0
0.2624999999999933 0.5000000000007967 0
0.2625000000001005 0.5833333333338606 0
0.2625000000002078 0.6666666666669152 0
0.262500000000315 0.7499999999999697 0
0.2625000000004223 0.8333333333330238 0
0.2625000000005295 0.9166666666663674 0
0.3499999999992491 0.08333333333342659 0
0.3499999999993951 0.1666666666668406 0
0.3499999999995413 0.2500000000002257 0
0.3499999999996876 0.3333333333336109 0
0.3499999999998337 0.416666666666996 0
0.3499999999999798 0.5000000000003757 0
0.3500000000001259 0.5833333333335353 0
0.3500000000002721 0.6666666666666896 0
0.3500000000004182 0.7499999999998438 0
0.3500000000005644 0.8333333333329979 0
0.3500000000007105 0.9166666666663832 0
0.4374999999994383 0.08333333333336317 0
0.4374999999995438 0.1666666666667107 0
0.4374999999996494 0.250000000000022 0
0.4374999999997549 0.3333333333333334 0
0.4374999999998603 0.4166666666666449 0
0.4374999999999659 0.4999999999999547 0
0.4375000000000714 0.5833333333332102 0
0.4375000000001769 0.666666666666464 0
0.4375000000002823 0.7499999999997179 0
0.437500000000388 0.8333333333329719 0
0.4375000000004935 0.9166666666663992 0
0.5249999999996111 0.08333333333329977 0
0.5249999999996817 0.1666666666665808 0
0.5249999999997519 0.2499999999998183 0
0.5249999999998221 0.333333333333056 0
0.5249999999998927 0.4166666666662936 0
0.5249999999999628 0.4999999999995339 0
0.5250000000000332 0.5833333333328847 0
0.5250000000001036 0.6666666666662384 0
0.5250000000001738 0.7499999999995922 0
0.5250000000002442 0.8333333333329458 0
0.5250000000003143 0.9166666666664152 0
0.6124999999998144 0.08333333333323638 0
0.6124999999998479 0.1666666666664507 0
0.6124999999998813 0.2499999999996146 0
0.6124999999999146 0.3333333333327785 0
0.6124999999999481 0.4166666666659423 0
0.6124999999999814 0.4999999999991129 0
0.6125000000000147 0.5833333333325597 0
0.612500000000048 0.666666666666013 0
0.6125000000000815 0.7499999999994663 0
0.6125000000001148 0.8333333333329197 0
0.6125000000001484 0.9166666666664309 0
$EndNodes
$Elements
6 808 1 2196
1 1 1 8
1 1 5 
2 5 6 
3 6 7 
4 7 8 
5 8 9 
6 9 10 
7 10 11 
8 11 2 
1 2 1 12
9 2 12 
10 12 13 
11 13 14 
12 14 15 
13 15 16 
14 16 17 
15 17 18 
16 18 19 
17 19 20 
18 20 21 
19 21 22 
20 22 3 
1 3 1 8
21 3 23 
22 23 24 
23 24 25 
24 25 26 
25 26 27 
26 27 28 
27 28 29 
28 29 4 
1 4 1 12
29 4 30 
30 30 31 
31 31 32 
32 32 33 
33 33 34 
34 34 35 
35 35 36 
36 36 37 
37 37 38 
38 38 39 
39 39 40 
40 40 1 
1 5 1 576
1621 1 5 
1622 5 40 
1623 40 1 
1624 40 5 
1625 5 41 
1626 41 40 
1627 40 41 
1628 41 39 
1629 39 40 
1630 39 41 
1631 41 42 
1632 42 39 
1633 39 42 
1634 42 38 
1635 38 39 
1636 38 42 
1637 42 43 
1638 43 38 
1639 38 43 
1640 43 37 
1641 37 38 
1642 37 43 
1643 43 44 
1644 44 37 
1645 37 44 
1646 44 36 
1647 36 37 
1648 36 44 
1649 44 45 
1650 45 36 
1651 36 45 
1652 45 35 
1653 35 36 
1654 35 45 
1655 45 46 
1656 46 35 
1657 35 46 
1658 46 34 
1659 34 35 
1660 34 46 
1661 46 47 
1662 47 34 
1663 34 47 
1664 47 33 
1665 33 34 
1666 33 47 
1667 47 48 
1668 48 33 
1669 33 48 
1670 48 32 
1671 32 33 
1672 32 48 
1673 48 49 
1674 49 32 
1675 32 49 
1676 49 31 
1677 31 32 
1678 31 49 
1679 49 50 
1680 50 31 
1681 31 50 
1682 50 30 
1683 30 31 
1684 30 50 
1685 50 51 
1686 51 30 
1687 30 51 
1688 51 4 
1689 4 30 
1690 4 51 
1691 51 29 
1692 29 4 
1693 5 6 
1694 6 41 
1695 41 5 
1696 41 6 
1697 6 52 
1698 52 41 
1699 41 52 
1700 52 42 
1701 42 41 
1702 42 52 
1703 52 53 
1704 53 42 
1705 42 53 
1706 53 43 
1707 43 42 
1708 43 53 
1709 53 54 
1710 54 43 
1711 43 54 
1712 54 44 
1713 44 43 
1714 44 54 
1715 54 55 
1716 55 44 
1717 44 55 
1718 55 45 
1719 45 44 
1720 45 55 
1721 55 56 
1722 56 45 
1723 45 56 
1724 56 46 
1725 46 45 
1726 46 56 
1727 56 57 
1728 57 46 
1729 46 57 
1730 57 47 
1731 47 46 
1732 47 57 
1733 57 58 
1734 58 47 
1735 47 58 
1736 58 48 
1737 48 47 
1738 48 58 
1739 58 59 
1740 59 48 
1741 48 59 
1742 59 49 
1743 49 48 
1744 49 59 
1745 59 60 
1746 60 49 
1747 49 60 
1748 60 50 
1749 50 49 
1750 50 60 
1751 60 61 
1752 61 50 
1753 50 61 
1754 61 51 
1755 51 50 
1756 51 61 
1757 61 62 
1758 62 51 
1759 51 62 
1760 62 29 
1761 29 51 
1762 29 62 
1763 62 28 
1764 28 29 
1765 6 7 
1766 7 52 
1767 52 6 
1768 52 7 
1769 7 63 
1770 63 52 
1771 52 63 
1772 63 53 
1773 53 52 
1774 53 63 
1775 63 64 
1776 64 53 
1777 53 64 
1778 64 54 
1779 54 53 
1780 54 64 
1781 64 65 
1782 65 54 
1783 54 65 
1784 65 55 
1785 55 54 
1786 55 65 
1787 65 66 
1788 66 55 
1789 55 66 
1790 66 56 
1791 56 55 
1792 56 66 
1793 66 67 
1794 67 56 
1795 56 67 
1796 67 57 
1797 57 56 
1798 57 67 
1799 67 68 
1800 68 57 
1801 57 68 
1802 68 58 
1803 58 57 
1804 58 68 
1805 68 69 
1806 69 58 
1807 58 69 
1808 69 59 
1809 59 58 
1810 59 69 
1811 69 70 
1812 70 59 
1813 59 70 
1814 70 60 
1815 60 59 
1816 60 70 
1817 70 71 
1818 71 60 
1819 60 71 
1820 71 61 
1821 61 60 
1822 61 71 
1823 71 72 
1824 72 61 
1825 61 72 
1826 72 62 
1827 62 61 
1828 62 72 
1829 72 73 
1830 73 62 
1831 62 73 
1832 73 28 
1833 28 62 
1834 28 73 
1835 73 27 
1836 27 28 
1837 7 8 
1838 8 63 
1839 63 7 
1840 63 8 
1841 8 74 
1842 74 63 
1843 63 74 
1844 74 64 
1845 64 63 
1846 64 74 
1847 74 75 
1848 75 64 
1849 64 75 
1850 75 65 
1851 65 64 
1852 65 75 
1853 75 76 
1854 76 65 
1855 65 76 
1856 76 66 
1857 66 65 
1858 66 76 
1859 76 77 
1860 77 66 
1861 66 77 
1862 77 67 
1863 67 66 
1864 67 77 
1865 77 78 
1866 78 67 
1867 67 78 
1868 78 68 
1869 68 67 
1870 68 78 
1871 78 79 
1872 79 68 
1873 68 79 
1874 79 69 
1875 69 68 
1876 69 79 
1877 79 80 
1878 80 69 
1879 69 80 
1880 80 70 
1881 70 69 
1882 70 80 
1883 80 81 
1884 81 70 
1885 70 81 
1886 81 71 
1887 71 70 
1888 71 81 
1889 81 82 
1890 82 71 
1891 71 82 
1892 82 72 
1893 72 71 
1894 72 82 
1895 82 83 
1896 83 72 
1897 72 83 
1898 83 73 
1899 73 72 
1900 73 83 
1901 83 84 
1902 84 73 
1903 73 84 
1904 84 27 
1905 27 73 
1906 27 84 
1907 84 26 
1908 26 27 
1909 8 9 
1910 9 74 
1911 74 8 
1912 74 9 
1913 9 85 
1914 85 74 
1915 74 85 
1916 85 75 
1917 75 74 
1918 75 85 
1919 85 86 
1920 86 75 
1921 75 86 
1922 86 76 
1923 76 75 
1924 76 86 
1925 86 87 
1926 87 76 
1927 76 87 
1928 87 77 
1929 77 76 
1930 77 87 
1931 87 88 
1932 88 77 
1933 77 88 
1934 88 78 
1935 78 77 
1936 78 88 
1937 88 89 
1938 89 78 
1939 78 89 
1940 89 79 
1941 79 78 
1942 79 89 
1943 89 90 
1944 90 79 
1945 79 90 
1946 90 80 
1947 80 79 
1948 80 90 
1949 90 91 
1950 91 80 
1951 80 91 
1952 91 81 
1953 81 80 
1954 81 91 
1955 91 92 
1956 92 81 
1957 81 92 
1958 92 82 
1959 82 81 
1960 82 92 
1961 92 93 
1962 93 82 
1963 82 93 
1964 93 83 
1965 83 82 
1966 83 93 
1967 93 94 
1968 94 83 
1969 83 94 
1970 94 84 
1971 84 83 
1972 84 94 
1973 94 95 
1974 95 84 
1975 84 95 
1976 95 26 
1977 26 84 
1978 26 95 
1979 95 25 
1980 25 26 
1981 9 10 
1982 10 85 
1983 85 9 
1984 85 10 
1985 10 96 
1986 96 85 
1987 85 96 
1988 96 86 
1989 86 85 
1990 86 96 
1991 96 97 
1992 97 86 
1993 86 97 
1994 97 87 
1995 87 86 
1996 87 97 
1997 97 98 
1998 98 87 
1999 87 98 
2000 98 88 
2001 88 87 
2002 88 98 
2003 98 99 
2004 99 88 
2005 88 99 
2006 99 89 
2007 89 88 
2008 89 99 
2009 99 100 
2010 100 89 
2011 89 100 
2012 100 90 
2013 90 89 
2014 90 100 
2015 100 101 
2016 101 90 
2017 90 101 
2018 101 91 
2019 91 90 
2020 91 101 
2021 101 102 
2022 102 91 
2023 91 102 
2024 102 92 
2025 92 91 
2026 92 102 
2027 102 103 
2028 103 92 
2029 92 103 
2030 103 93 
2031 93 92 
2032 93 103 
2033 103 104 
2034 104 93 
2035 93 104 
2036 104 94 
2037 94 93 
2038 94 104 
2039 104 105 
2040 105 94 
2041 94 105 
2042 105 95 
2043 95 94 
2044 95 105 
2045 105 106 
2046 106 95 
2047 95 106 
2048 106 25 
2049 25 95 
2050 25 106 
2051 106 24 
2052 24 25 
2053 10 11 
2054 11 96 
2055 96 10 
2056 96 11 
2057 11 107 
2058 107 96 
2059 96 107 
2060 107 97 
2061 97 96 
2062 97 107 
2063 107 108 
2064 108 97 
2065 97 108 
2066 108 98 
2067 98 97 
2068 98 108 
2069 108 109 
2070 109 98 
2071 98 109 
2072 109 99 
2073 99 98 
2074 99 109 
2075 109 110 
2076 110 99 
2077 99 110 
2078 110 100 
2079 100 99 
2080 100 110 
2081 110 111 
2082 111 100 
2083 100 111 
2084 111 101 
2085 101 100 
2086 101 111 
2087 111 112 
2088 112 101 
2089 101 112 
2090 112 102 
2091 102 101 
2092 102 112 
2093 112 113 
2094 113 102 
2095 102 113 
2096 113 103 
2097 103 102 
2098 103 113 
2099 113 114 
2100 114 103 
2101 103 114 
2102 114 104 
2103 104 103 
2104 104 114 
2105 114 115 
2106 115 104 
2107 104 115 
2108 115 105 
2109 105 104 
2110 105 115 
2111 115 116 
2112 116 105 
2113 105 116 
2114 116 106 
2115 106 105 
2116 106 116 
2117 116 117 
2118 117 106 
2119 106 117 
2120 117 24 
2121 24 106 
2122 24 117 
2123 117 23 
2124 23 24 
2125 11 2 
2126 2 107 
2127 107 11 
2128 107 2 
2129 2 12 
2130 12 107 
2131 107 12 
2132 12 108 
2133 108 107 
2134 108 12 
2135 12 13 
2136 13 108 
2137 108 13 
2138 13 109 
2139 109 108 
2140 109 13 
2141 13 14 
2142 14 109 
2143 109 14 
2144 14 110 
2145 110 109 
2146 110 14 
2147 14 15 
2148 15 110 
2149 110 15 
2150 15 111 
2151 111 110 
2152 111 15 
2153 15 16 
2154 16 111 
2155 111 16 
2156 16 112 
2157 112 111 
2158 112 16 
2159 16 17 
2160 17 112 
2161 112 17 
2162 17 113 
2163 113 112 
2164 113 17 
2165 17 18 
2166 18 113 
2167 113 18 
2168 18 114 
2169 114 113 
2170 114 18 
2171 18 19 
2172 19 114 
2173 114 19 
2174 19 115 
2175 115 114 
2176 115 19 
2177 19 20 
2178 20 115 
2179 115 20 
2180 20 116 
2181 116 115 
2182 116 20 
2183 20 21 
2184 21 116 
2185 116 21 
2186 21 117 
2187 117 116 
2188 117 21 
2189 21 22 
2190 22 117 
2191 117 22 
2192 22 23 
2193 23 117 
2194 23 22 
2195 22 3 
2196 3 23 
2 1 2 192
41 1 5 40 
42 40 5 41 
43 40 41 39 
44 39 41 42 
45 39 42 38 
46 38 42 43 
47 38 43 37 
48 37 43 44 
49 37 44 36 
50 36 44 45 
51 36 45 35 
52 35 45 46 
53 35 46 34 
54 34 46 47 
55 34 47 33 
56 33 47 48 
57 33 48 32 
58 32 48 49 
59 32 49 31 
60 31 49 50 
61 31 50 30 
62 30 50 51 
63 30 51 4 
64 4 51 29 
65 5 6 41 
66 41 6 52 
67 41 52 42 
68 42 52 53 
69 42 53 43 
70 43 53 54 
71 43 54 44 
72 44 54 55 
73 44 55 45 
74 45 55 56 
75 45 56 46 
76 46 56 57 
77 46 57 47 
78 47 57 58 
79 47 58 48 
80 48 58 59 
81 48 59 49 
82 49 59 60 
83 49 60 50 
84 50 60 61 
85 50 61 51 
86 51 61 62 
87 51 62 29 
88 29 62 28 
89 6 7 52 
90 52 7 63 
91 52 63 53 
92 53 63 64 
93 53 64 54 
94 54 64 65 
95 54 65 55 
96 55 65 66 
97 55 66 56 
98 56 66 67 
99 56 67 57 
100 57 67 68 
101 57 68 58 
102 58 68 69 
103 58 69 59 
104 59 69 70 
105 59 70 60 
106 60 70 71 
107 60 71 61 
108 61 71 72 
109 61 72 62 
110 62 72 73 
111 62 73 28 
112 28 73 27 
113 7 8 63 
114 63 8 74 
115 63 74 64 
116 64 74 75 
117 64 75 65 
118 65 75 76 
119 65 76 66 
120 66 76 77 
121 66 77 67 
122 67 77 78 
123 67 78 68 
124 68 78 79 
125 68 79 69 
126 69 79 80 
127 69 80 70 
128 70 80 81 
129 70 81 71 
130 71 81 82 
131 71 82 72 
132 72 82 83 
133 72 83 73 
134 73 83 84 
135 73 84 27 
136 27 84 26 
137 8 9 74 
138 74 9 85 
139 74 85 75 
140 75 85 86 
141 75 86 76 
142 76 86 87 
143 76 87 77 
144 77 87 88 
145 77 88 78 
146 78 88 89 
147 78 89 79 
148 79 89 90 
149 79 90 80 
150 80 90 91 
151 80 91 81 
152 81 91 92 
153 81 92 82 
154 82 92 93 
155 82 93 83 
156 83 93 94 
157 83 94 84 
158 84 94 95 
159 84 95 26 
160 26 95 25 
161 9 10 85 
162 85 10 96 
163 85 96 86 
164 86 96 97 
165 86 97 87 
166 87 97 98 
167 87 98 88 
168 88 98 99 
169 88 99 89 
170 89 99 100 
171 89 100 90 
172 90 100 101 
173 90 101 91 
174 91 101 102 
175 91 102 92 
176 92 102 103 
177 92 103 93 
178 93 103 104 
179 93 104 94 
180 94 104 105 
181 94 105 95 
182 95 105 106 
183 95 106 25 
184 25 106 24 
185 10 11 96 
186 96 11 107 
187 96 107 97 
188 97 107 108 
189 97 108 98 
190 98 108 109 
191 98 109 99 
192 99 109 110 
193 99 110 100 
194 100 110 111 
195 100 111 101 
196 101 111 112 
197 101 112 102 
198 102 112 113 
199 102 113 103 
200 103 113 114 
201 103 114 104 
202 104 114 115 
203 104 115 105 
204 105 115 116 
205 105 116 106 
206 106 116 117 
207 106 117 24 
208 24 117 23 
209 11 2 107 
210 107 2 12 
211 107 12 108 
212 108 12 13 
213 108 13 109 
214 109 13 14 
215 109 14 110 
216 110 14 15 
217 110 15 111 
218 111 15 16 
219 111 16 112 
220 112 16 17 
221 112 17 113 
222 113 17 18 
223 113 18 114 
224 114 18 19 
225 114 19 115 
226 115 19 20 
227 115 20 116 
228 116 20 21 
229 116 21 117 
230 117 21 22 
231 117 22 23 
232 23 22 3 
$EndElements
