$MeshFormat
4.1 0 8
$EndMeshFormat
$PhysicalNames
6
1 1 "Γ¹"
1 2 "Γ²"
1 3 "Γ³"
1 4 "Γ⁴"
1 6 "Γ"
2 5 "Ω"
$EndPhysicalNames
$Entities
4 5 1 0
1 0 0 0 0 
2 1.5 0 0 0 
3 1.5 1 0 0 
4 0 1 0 0 
1 0 0 0 1.5 0 0 1 1 2 1 -2 
2 1.5 0 0 1.5 1 0 1 2 2 2 -3 
3 0 1 0 1.5 1 0 1 3 2 3 -4 
4 0 0 0 0 1 0 1 4 2 4 -1 
5 0 0 0 1.5 1 0 1 6 0 
1 0 0 0 1.5 1 0 1 5 4 1 2 3 4 
$EndEntities
$Nodes
10 247 1 247
0 1 0 1
1
0 0 0
0 2 0 1
2
1.5 0 0
0 3 0 1
3
1.5 1 0
0 4 0 1
4
0 1 0
1 1 0 17
5
6
7
8
9
10
11
12
13
14
15
16
17
18
19
20
21
0.08333333333296108 0 0
0.1666666666659872 0 0
0.2499999999989113 0 0
0.3333333333319403 0 0
0.4166666666649764 0 0
0.4999999999980126 0 0
0.5833333333310489 0 0
0.666666666664085 0 0
0.749999999997143 0 0
0.8333333333307744 0 0
0.9166666666644276 0 0
0.9999999999980809 0 0
1.083333333331734 0 0
1.166666666665387 0 0
1.249999999999041 0 0
1.333333333332694 0 0
1.416666666666347 0 0
1 2 0 11
22
23
24
25
26
27
28
29
30
31
32
1.5 0.08333333333317297 0
1.5 0.1666666666663209 0
1.5 0.2499999999994109 0
1.5 0.333333333332501 0
1.5 0.4166666666655911 0
1.5 0.499999999998692 0
1.5 0.5833333333322344 0
1.5 0.6666666666657874 0
1.5 0.7499999999993405 0
1.5 0.8333333333328937 0
1.5 0.9166666666664468 0
1 3 0 17
33
34
35
36
37
38
39
40
41
42
43
44
45
46
47
48
49
1.416666666667662 1 0
1.333333333334254 1 0
1.250000000001583 1 0
1.166666666668074 1 0
1.083333333334507 1 0
1.000000000000969 1 0
0.9166666666680037 1 0
0.8333333333350532 1 0
0.750000000002081 1 0
0.6666666666685357 1 0
0.5833333333349686 1 0
0.5000000000014018 1 0
0.4166666666678347 1 0
0.3333333333342678 1 0
0.250000000000701 1 0
0.1666666666671341 1 0
0.08333333333356707 1 0
1 4 0 11
50
51
52
53
54
55
56
57
58
59
60
0 0.9166666666663197 0
0 0.833333333333102 0
0 0.7500000000003471 0
0 0.6666666666675918 0
0 0.5833333333348364 0
0 0.5000000000020595 0
0 0.416666666668401 0
0 0.3333333333347207 0
0 0.2500000000010405 0
0 0.1666666666673604 0
0 0.0833333333336802 0
1 5 0 0
2 1 0 187
61
62
63
64
65
66
67
68
69
70
71
72
73
74
75
76
77
78
79
80
81
82
83
84
85
86
87
88
89
90
91
92
93
94
95
96
97
98
99
100
101
102
103
104
105
106
107
108
109
110
111
112
113
114
115
116
117
118
119
120
121
122
123
124
125
126
127
128
129
130
131
132
133
134
135
136
137
138
139
140
141
142
143
144
145
146
147
148
149
150
151
152
153
154
155
156
157
158
159
160
161
162
163
164
165
166
167
168
169
170
171
172
173
174
175
176
177
178
179
180
181
182
183
184
185
186
187
188
189
190
191
192
193
194
195
196
197
198
199
200
201
202
203
204
205
206
207
208
209
210
211
212
213
214
215
216
217
218
219
220
221
222
223
224
225
226
227
228
229
230
231
232
233
234
235
236
237
238
239
240
241
242
243
244
245
246
247
0.0833333333330116 0.08333333333365202 0
0.08333333333306207 0.1666666666673026 0
0.0833333333331126 0.25000000000095 0
0.08333333333316309 0.3333333333345973 0
0.08333333333321358 0.4166666666682449 0
0.08333333333326409 0.5000000000018723 0
0.08333333333331458 0.5833333333346917 0
0.08333333333336507 0.6666666666674916 0
0.08333333333341558 0.7500000000002912 0
0.0833333333334661 0.8333333333330905 0
0.08333333333351656 0.9166666666663268 0
0.1666666666660828 0.08333333333362383 0
0.1666666666661784 0.1666666666672449 0
0.1666666666662739 0.2500000000008594 0
0.1666666666663695 0.3333333333344741 0
0.1666666666664651 0.4166666666680888 0
0.1666666666665607 0.5000000000016853 0
0.1666666666666562 0.5833333333345474 0
0.1666666666667518 0.6666666666673913 0
0.1666666666668474 0.7500000000002353 0
0.166666666666943 0.8333333333330789 0
0.1666666666670386 0.9166666666663339 0
0.2499999999990604 0.08333333333359565 0
0.2499999999992095 0.1666666666671872 0
0.2499999999993587 0.2500000000007688 0
0.2499999999995078 0.3333333333343508 0
0.2499999999996571 0.4166666666679326 0
0.2499999999998061 0.5000000000014984 0
0.2499999999999553 0.5833333333344026 0
0.2500000000001045 0.6666666666672909 0
0.2500000000002536 0.7500000000001793 0
0.2500000000004028 0.8333333333330674 0
0.2500000000005519 0.9166666666663408 0
0.3333333333321342 0.0833333333335675 0
0.3333333333323282 0.1666666666671294 0
0.3333333333325222 0.2500000000006783 0
0.3333333333327162 0.3333333333342274 0
0.33333333333291 0.4166666666677765 0
0.3333333333331041 0.5000000000013112 0
0.3333333333332981 0.5833333333342583 0
0.333333333333492 0.666666666667191 0
0.333333333333686 0.7500000000001235 0
0.3333333333338799 0.8333333333330558 0
0.3333333333340739 0.9166666666663479 0
0.4166666666652147 0.0833333333335393 0
0.4166666666654527 0.1666666666670716 0
0.416666666665691 0.2500000000005879 0
0.4166666666659291 0.3333333333341041 0
0.4166666666661674 0.4166666666676204 0
0.4166666666664056 0.500000000001124 0
0.4166666666666437 0.5833333333341135 0
0.416666666666882 0.6666666666670906 0
0.41666666666712 0.7500000000000674 0
0.4166666666673583 0.8333333333330443 0
0.4166666666675964 0.916666666666355 0
0.4999999999982951 0.08333333333351112 0
0.4999999999985775 0.1666666666670139 0
0.49999999999886 0.2500000000004973 0
0.4999999999991424 0.3333333333339809 0
0.4999999999994248 0.4166666666674643 0
0.4999999999997071 0.500000000000937 0
0.4999999999999896 0.5833333333339692 0
0.5000000000002721 0.6666666666669903 0
0.5000000000005543 0.7500000000000113 0
0.5000000000008368 0.8333333333330326 0
0.5000000000011192 0.9166666666663621 0
0.5833333333313753 0.08333333333348296 0
0.5833333333317021 0.1666666666669561 0
0.583333333332029 0.2500000000004068 0
0.5833333333323553 0.3333333333338575 0
0.5833333333326822 0.4166666666673082 0
0.5833333333330086 0.5000000000007498 0
0.5833333333333355 0.5833333333338244 0
0.583333333333662 0.6666666666668901 0
0.5833333333339887 0.7499999999999555 0
0.5833333333343154 0.8333333333330211 0
0.5833333333346419 0.9166666666663692 0
0.6666666666644558 0.08333333333345476 0
0.6666666666648269 0.1666666666668984 0
0.6666666666651977 0.2500000000003163 0
0.6666666666655687 0.3333333333337342 0
0.6666666666659395 0.4166666666671521 0
0.6666666666663104 0.5000000000005629 0
0.6666666666666812 0.5833333333336801 0
0.666666666667052 0.66666666666679 0
0.666666666667423 0.7499999999998996 0
0.666666666667794 0.8333333333330095 0
0.6666666666681649 0.9166666666663761 0
0.7499999999975543 0.08333333333342659 0
0.7499999999979658 0.1666666666668406 0
0.7499999999983774 0.2500000000002257 0
0.7499999999987889 0.3333333333336109 0
0.7499999999992004 0.416666666666996 0
0.749999999999612 0.5000000000003757 0
0.7500000000000233 0.5833333333335353 0
0.7500000000004351 0.6666666666666896 0
0.7500000000008464 0.7499999999998438 0
0.7500000000012579 0.8333333333329979 0
0.7500000000016697 0.9166666666663832 0
0.833333333331131 0.08333333333339842 0
0.8333333333314874 0.1666666666667828 0
0.8333333333318442 0.2500000000001351 0
0.8333333333322006 0.3333333333334875 0
0.8333333333325572 0.4166666666668399 0
0.8333333333329138 0.5000000000001887 0
0.8333333333332703 0.5833333333333908 0
0.8333333333336268 0.6666666666665892 0
0.8333333333339833 0.7499999999997881 0
0.8333333333343401 0.8333333333329861 0
0.8333333333346966 0.9166666666663903 0
0.9166666666647256 0.08333333333337022 0
0.9166666666650236 0.1666666666667251 0
0.9166666666653214 0.2500000000000446 0
0.9166666666656197 0.3333333333333643 0
0.9166666666659176 0.4166666666666838 0
0.9166666666662158 0.5000000000000016 0
0.9166666666665136 0.5833333333332462 0
0.9166666666668114 0.6666666666664891 0
0.9166666666671097 0.7499999999997321 0
0.9166666666674076 0.8333333333329748 0
0.9166666666677055 0.9166666666663974 0
0.9999999999983216 0.08333333333334207 0
0.9999999999985622 0.1666666666666674 0
0.999999999998803 0.2499999999999541 0
0.9999999999990433 0.3333333333332409 0
0.9999999999992841 0.4166666666665277 0
0.9999999999995248 0.4999999999998144 0
0.9999999999997655 0.5833333333331017 0
1.000000000000006 0.666666666666389 0
1.000000000000247 0.7499999999996761 0
1.000000000000488 0.8333333333329629 0
1.000000000000728 0.9166666666664045 0
1.083333333331965 0.08333333333331387 0
1.083333333332196 0.1666666666666096 0
1.083333333332428 0.2499999999998636 0
1.083333333332658 0.3333333333331176 0
1.083333333332889 0.4166666666663716 0
1.083333333333121 0.4999999999996274 0
1.083333333333351 0.5833333333329571 0
1.083333333333582 0.6666666666662886 0
1.083333333333814 0.7499999999996201 0
1.083333333334045 0.8333333333329513 0
1.083333333334276 0.9166666666664116 0
1.166666666665611 0.08333333333328567 0
1.166666666665835 0.1666666666665518 0
1.166666666666059 0.2499999999997731 0
1.166666666666282 0.3333333333329944 0
1.166666666666507 0.4166666666662155 0
1.16666666666673 0.4999999999994403 0
1.166666666666954 0.5833333333328126 0
1.166666666667178 0.6666666666661882 0
1.166666666667402 0.7499999999995642 0
1.166666666667626 0.8333333333329399 0
1.16666666666785 0.9166666666664185 0
1.249999999999253 0.08333333333325753 0
1.249999999999464 0.1666666666664941 0
1.249999999999676 0.2499999999996825 0
1.249999999999888 0.3333333333328709 0
1.2500000000001 0.4166666666660594 0
1.250000000000312 0.4999999999992533 0
1.250000000000524 0.583333333332668 0
1.250000000000735 0.6666666666660883 0
1.250000000000947 0.7499999999995083 0
1.250000000001159 0.8333333333329282 0
1.25000000000137 0.9166666666664256 0
1.333333333332824 0.08333333333322933 0
1.333333333332953 0.1666666666664363 0
1.333333333333083 0.249999999999592 0
1.333333333333214 0.3333333333327477 0
1.333333333333344 0.4166666666659034 0
1.333333333333474 0.4999999999990662 0
1.333333333333604 0.5833333333325235 0
1.333333333333733 0.666666666665988 0
1.333333333333863 0.7499999999994523 0
1.333333333333994 0.8333333333329168 0
1.333333333334124 0.9166666666664325 0
1.416666666666456 0.08333333333320116 0
1.416666666666566 0.1666666666663786 0
1.416666666666675 0.2499999999995015 0
1.416666666666785 0.3333333333326244 0
1.416666666666895 0.4166666666657473 0
1.416666666667005 0.4999999999988791 0
1.416666666667114 0.5833333333323789 0
1.416666666667223 0.6666666666658876 0
1.416666666667333 0.7499999999993964 0
1.416666666667442 0.8333333333329053 0
1.416666666667552 0.9166666666664396 0
$EndNodes
$Elements
6 1788 1 4876
1 1 1 18
1 1 5 
2 5 6 
3 6 7 
4 7 8 
5 8 9 
6 9 10 
7 10 11 
8 11 12 
9 12 13 
10 13 14 
11 14 15 
12 15 16 
13 16 17 
14 17 18 
15 18 19 
16 19 20 
17 20 21 
18 21 2 
1 2 1 12
19 2 22 
20 22 23 
21 23 24 
22 24 25 
23 25 26 
24 26 27 
25 27 28 
26 28 29 
27 29 30 
28 30 31 
29 31 32 
30 32 3 
1 3 1 18
31 3 33 
32 33 34 
33 34 35 
34 35 36 
35 36 37 
36 37 38 
37 38 39 
38 39 40 
39 40 41 
40 41 42 
41 42 43 
42 43 44 
43 44 45 
44 45 46 
45 46 47 
46 47 48 
47 48 49 
48 49 4 
1 4 1 12
49 4 50 
50 50 51 
51 51 52 
52 52 53 
53 53 54 
54 54 55 
55 55 56 
56 56 57 
57 57 58 
58 58 59 
59 59 60 
60 60 1 
1 5 1 1296
3581 1 5 
3582 5 60 
3583 60 1 
3584 60 5 
3585 5 61 
3586 61 60 
3587 60 61 
3588 61 59 
3589 59 60 
3590 59 61 
3591 61 62 
3592 62 59 
3593 59 62 
3594 62 58 
3595 58 59 
3596 58 62 
3597 62 63 
3598 63 58 
3599 58 63 
3600 63 57 
3601 57 58 
3602 57 63 
3603 63 64 
3604 64 57 
3605 57 64 
3606 64 56 
3607 56 57 
3608 56 64 
3609 64 65 
3610 65 56 
3611 56 65 
3612 65 55 
3613 55 56 
3614 55 65 
3615 65 66 
3616 66 55 
3617 55 66 
3618 66 54 
3619 54 55 
3620 54 66 
3621 66 67 
3622 67 54 
3623 54 67 
3624 67 53 
3625 53 54 
3626 53 67 
3627 67 68 
3628 68 53 
3629 53 68 
3630 68 52 
3631 52 53 
3632 52 68 
3633 68 69 
3634 69 52 
3635 52 69 
3636 69 51 
3637 51 52 
3638 51 69 
3639 69 70 
3640 70 51 
3641 51 70 
3642 70 50 
3643 50 51 
3644 50 70 
3645 70 71 
3646 71 50 
3647 50 71 
3648 71 4 
3649 4 50 
3650 4 71 
3651 71 49 
3652 49 4 
3653 5 6 
3654 6 61 
3655 61 5 
3656 61 6 
3657 6 72 
3658 72 61 
3659 61 72 
3660 72 62 
3661 62 61 
3662 62 72 
3663 72 73 
3664 73 62 
3665 62 73 
3666 73 63 
3667 63 62 
3668 63 73 
3669 73 74 
3670 74 63 
3671 63 74 
3672 74 64 
3673 64 63 
3674 64 74 
3675 74 75 
3676 75 64 
3677 64 75 
3678 75 65 
3679 65 64 
3680 65 75 
3681 75 76 
3682 76 65 
3683 65 76 
3684 76 66 
3685 66 65 
3686 66 76 
3687 76 77 
3688 77 66 
3689 66 77 
3690 77 67 
3691 67 66 
3692 67 77 
3693 77 78 
3694 78 67 
3695 67 78 
3696 78 68 
3697 68 67 
3698 68 78 
3699 78 79 
3700 79 68 
3701 68 79 
3702 79 69 
3703 69 68 
3704 69 79 
3705 79 80 
3706 80 69 
3707 69 80 
3708 80 70 
3709 70 69 
3710 70 80 
3711 80 81 
3712 81 70 
3713 70 81 
3714 81 71 
3715 71 70 
3716 71 81 
3717 81 82 
3718 82 71 
3719 71 82 
3720 82 49 
3721 49 71 
3722 49 82 
3723 82 48 
3724 48 49 
3725 6 7 
3726 7 72 
3727 72 6 
3728 72 7 
3729 7 83 
3730 83 72 
3731 72 83 
3732 83 73 
3733 73 72 
3734 73 83 
3735 83 84 
3736 84 73 
3737 73 84 
3738 84 74 
3739 74 73 
3740 74 84 
3741 84 85 
3742 85 74 
3743 74 85 
3744 85 75 
3745 75 74 
3746 75 85 
3747 85 86 
3748 86 75 
3749 75 86 
3750 86 76 
3751 76 75 
3752 76 86 
3753 86 87 
3754 87 76 
3755 76 87 
3756 87 77 
3757 77 76 
3758 77 87 
3759 87 88 
3760 88 77 
3761 77 88 
3762 88 78 
3763 78 77 
3764 78 88 
3765 88 89 
3766 89 78 
3767 78 89 
3768 89 79 
3769 79 78 
3770 79 89 
3771 89 90 
3772 90 79 
3773 79 90 
3774 90 80 
3775 80 79 
3776 80 90 
3777 90 91 
3778 91 80 
3779 80 91 
3780 91 81 
3781 81 80 
3782 81 91 
3783 91 92 
3784 92 81 
3785 81 92 
3786 92 82 
3787 82 81 
3788 82 92 
3789 92 93 
3790 93 82 
3791 82 93 
3792 93 48 
3793 48 82 
3794 48 93 
3795 93 47 
3796 47 48 
3797 7 8 
3798 8 83 
3799 83 7 
3800 83 8 
3801 8 94 
3802 94 83 
3803 83 94 
3804 94 84 
3805 84 83 
3806 84 94 
3807 94 95 
3808 95 84 
3809 84 95 
3810 95 85 
3811 85 84 
3812 85 95 
3813 95 96 
3814 96 85 
3815 85 96 
3816 96 86 
3817 86 85 
3818 86 96 
3819 96 97 
3820 97 86 
3821 86 97 
3822 97 87 
3823 87 86 
3824 87 97 
3825 97 98 
3826 98 87 
3827 87 98 
3828 98 88 
3829 88 87 
3830 88 98 
3831 98 99 
3832 99 88 
3833 88 99 
3834 99 89 
3835 89 88 
3836 89 99 
3837 99 100 
3838 100 89 
3839 89 100 
3840 100 90 
3841 90 89 
3842 90 100 
3843 100 101 
3844 101 90 
3845 90 101 
3846 101 91 
3847 91 90 
3848 91 101 
3849 101 102 
3850 102 91 
3851 91 102 
3852 102 92 
3853 92 91 
3854 92 102 
3855 102 103 
3856 103 92 
3857 92 103 
3858 103 93 
3859 93 92 
3860 93 103 
3861 103 104 
3862 104 93 
3863 93 104 
3864 104 47 
3865 47 93 
3866 47 104 
3867 104 46 
3868 46 47 
3869 8 9 
3870 9 94 
3871 94 8 
3872 94 9 
3873 9 105 
3874 105 94 
3875 94 105 
3876 105 95 
3877 95 94 
3878 95 105 
3879 105 106 
3880 106 95 
3881 95 106 
3882 106 96 
3883 96 95 
3884 96 106 
3885 106 107 
3886 107 96 
3887 96 107 
3888 107 97 
3889 97 96 
3890 97 107 
3891 107 108 
3892 108 97 
3893 97 108 
3894 108 98 
3895 98 97 
3896 98 108 
3897 108 109 
3898 109 98 
3899 98 109 
3900 109 99 
3901 99 98 
3902 99 109 
3903 109 110 
3904 110 99 
3905 99 110 
3906 110 100 
3907 100 99 
3908 100 110 
3909 110 111 
3910 111 100 
3911 100 111 
3912 111 101 
3913 101 100 
3914 101 111 
3915 111 112 
3916 112 101 
3917 101 112 
3918 112 102 
3919 102 101 
3920 102 112 
3921 112 113 
3922 113 102 
3923 102 113 
3924 113 103 
3925 103 102 
3926 103 113 
3927 113 114 
3928 114 103 
3929 103 114 
3930 114 104 
3931 104 103 
3932 104 114 
3933 114 115 
3934 115 104 
3935 104 115 
3936 115 46 
3937 46 104 
3938 46 115 
3939 115 45 
3940 45 46 
3941 9 10 
3942 10 105 
3943 105 9 
3944 105 10 
3945 10 116 
3946 116 105 
3947 105 116 
3948 116 106 
3949 106 105 
3950 106 116 
3951 116 117 
3952 117 106 
3953 106 117 
3954 117 107 
3955 107 106 
3956 107 117 
3957 117 118 
3958 118 107 
3959 107 118 
3960 118 108 
3961 108 107 
3962 108 118 
3963 118 119 
3964 119 108 
3965 108 119 
3966 119 109 
3967 109 108 
3968 109 119 
3969 119 120 
3970 120 109 
3971 109 120 
3972 120 110 
3973 110 109 
3974 110 120 
3975 120 121 
3976 121 110 
3977 110 121 
3978 121 111 
3979 111 110 
3980 111 121 
3981 121 122 
3982 122 111 
3983 111 122 
3984 122 112 
3985 112 111 
3986 112 122 
3987 122 123 
3988 123 112 
3989 112 123 
3990 123 113 
3991 113 112 
3992 113 123 
3993 123 124 
3994 124 113 
3995 113 124 
3996 124 114 
3997 114 113 
3998 114 124 
3999 124 125 
4000 125 114 
4001 114 125 
4002 125 115 
4003 115 114 
4004 115 125 
4005 125 126 
4006 126 115 
4007 115 126 
4008 126 45 
4009 45 115 
4010 45 126 
4011 126 44 
4012 44 45 
4013 10 11 
4014 11 116 
4015 116 10 
4016 116 11 
4017 11 127 
4018 127 116 
4019 116 127 
4020 127 117 
4021 117 116 
4022 117 127 
4023 127 128 
4024 128 117 
4025 117 128 
4026 128 118 
4027 118 117 
4028 118 128 
4029 128 129 
4030 129 118 
4031 118 129 
4032 129 119 
4033 119 118 
4034 119 129 
4035 129 130 
4036 130 119 
4037 119 130 
4038 130 120 
4039 120 119 
4040 120 130 
4041 130 131 
4042 131 120 
4043 120 131 
4044 131 121 
4045 121 120 
4046 121 131 
4047 131 132 
4048 132 121 
4049 121 132 
4050 132 122 
4051 122 121 
4052 122 132 
4053 132 133 
4054 133 122 
4055 122 133 
4056 133 123 
4057 123 122 
4058 123 133 
4059 133 134 
4060 134 123 
4061 123 134 
4062 134 124 
4063 124 123 
4064 124 134 
4065 134 135 
4066 135 124 
4067 124 135 
4068 135 125 
4069 125 124 
4070 125 135 
4071 135 136 
4072 136 125 
4073 125 136 
4074 136 126 
4075 126 125 
4076 126 136 
4077 136 137 
4078 137 126 
4079 126 137 
4080 137 44 
4081 44 126 
4082 44 137 
4083 137 43 
4084 43 44 
4085 11 12 
4086 12 127 
4087 127 11 
4088 127 12 
4089 12 138 
4090 138 127 
4091 127 138 
4092 138 128 
4093 128 127 
4094 128 138 
4095 138 139 
4096 139 128 
4097 128 139 
4098 139 129 
4099 129 128 
4100 129 139 
4101 139 140 
4102 140 129 
4103 129 140 
4104 140 130 
4105 130 129 
4106 130 140 
4107 140 141 
4108 141 130 
4109 130 141 
4110 141 131 
4111 131 130 
4112 131 141 
4113 141 142 
4114 142 131 
4115 131 142 
4116 142 132 
4117 132 131 
4118 132 142 
4119 142 143 
4120 143 132 
4121 132 143 
4122 143 133 
4123 133 132 
4124 133 143 
4125 143 144 
4126 144 133 
4127 133 144 
4128 144 134 
4129 134 133 
4130 134 144 
4131 144 145 
4132 145 134 
4133 134 145 
4134 145 135 
4135 135 134 
4136 135 145 
4137 145 146 
4138 146 135 
4139 135 146 
4140 146 136 
4141 136 135 
4142 136 146 
4143 146 147 
4144 147 136 
4145 136 147 
4146 147 137 
4147 137 136 
4148 137 147 
4149 147 148 
4150 148 137 
4151 137 148 
4152 148 43 
4153 43 137 
4154 43 148 
4155 148 42 
4156 42 43 
4157 12 13 
4158 13 138 
4159 138 12 
4160 138 13 
4161 13 149 
4162 149 138 
4163 138 149 
4164 149 139 
4165 139 138 
4166 139 149 
4167 149 150 
4168 150 139 
4169 139 150 
4170 150 140 
4171 140 139 
4172 140 150 
4173 150 151 
4174 151 140 
4175 140 151 
4176 151 141 
4177 141 140 
4178 141 151 
4179 151 152 
4180 152 141 
4181 141 152 
4182 152 142 
4183 142 141 
4184 142 152 
4185 152 153 
4186 153 142 
4187 142 153 
4188 153 143 
4189 143 142 
4190 143 153 
4191 153 154 
4192 154 143 
4193 143 154 
4194 154 144 
4195 144 143 
4196 144 154 
4197 154 155 
4198 155 144 
4199 144 155 
4200 155 145 
4201 145 144 
4202 145 155 
4203 155 156 
4204 156 145 
4205 145 156 
4206 156 146 
4207 146 145 
4208 146 156 
4209 156 157 
4210 157 146 
4211 146 157 
4212 157 147 
4213 147 146 
4214 147 157 
4215 157 158 
4216 158 147 
4217 147 158 
4218 158 148 
4219 148 147 
4220 148 158 
4221 158 159 
4222 159 148 
4223 148 159 
4224 159 42 
4225 42 148 
4226 42 159 
4227 159 41 
4228 41 42 
4229 13 14 
4230 14 149 
4231 149 13 
4232 149 14 
4233 14 160 
4234 160 149 
4235 149 160 
4236 160 150 
4237 150 149 
4238 150 160 
4239 160 161 
4240 161 150 
4241 150 161 
4242 161 151 
4243 151 150 
4244 151 161 
4245 161 162 
4246 162 151 
4247 151 162 
4248 162 152 
4249 152 151 
4250 152 162 
4251 162 163 
4252 163 152 
4253 152 163 
4254 163 153 
4255 153 152 
4256 153 163 
4257 163 164 
4258 164 153 
4259 153 164 
4260 164 154 
4261 154 153 
4262 154 164 
4263 164 165 
4264 165 154 
4265 154 165 
4266 165 155 
4267 155 154 
4268 155 165 
4269 165 166 
4270 166 155 
4271 155 166 
4272 166 156 
4273 156 155 
4274 156 166 
4275 166 167 
4276 167 156 
4277 156 167 
4278 167 157 
4279 157 156 
4280 157 167 
4281 167 168 
4282 168 157 
4283 157 168 
4284 168 158 
4285 158 157 
4286 158 168 
4287 168 169 
4288 169 158 
4289 158 169 
4290 169 159 
4291 159 158 
4292 159 169 
4293 169 170 
4294 170 159 
4295 159 170 
4296 170 41 
4297 41 159 
4298 41 170 
4299 170 40 
4300 40 41 
4301 14 15 
4302 15 160 
4303 160 14 
4304 160 15 
4305 15 171 
4306 171 160 
4307 160 171 
4308 171 161 
4309 161 160 
4310 161 171 
4311 171 172 
4312 172 161 
4313 161 172 
4314 172 162 
4315 162 161 
4316 162 172 
4317 172 173 
4318 173 162 
4319 162 173 
4320 173 163 
4321 163 162 
4322 163 173 
4323 173 174 
4324 174 163 
4325 163 174 
4326 174 164 
4327 164 163 
4328 164 174 
4329 174 175 
4330 175 164 
4331 164 175 
4332 175 165 
4333 165 164 
4334 165 175 
4335 175 176 
4336 176 165 
4337 165 176 
4338 176 166 
4339 166 165 
4340 166 176 
4341 176 177 
4342 177 166 
4343 166 177 
4344 177 167 
4345 167 166 
4346 167 177 
4347 177 178 
4348 178 167 
4349 167 178 
4350 178 168 
4351 168 167 
4352 168 178 
4353 178 179 
4354 179 168 
4355 168 179 
4356 179 169 
4357 169 168 
4358 169 179 
4359 179 180 
4360 180 169 
4361 169 180 
4362 180 170 
4363 170 169 
4364 170 180 
4365 180 181 
4366 181 170 
4367 170 181 
4368 181 40 
4369 40 170 
4370 40 181 
4371 181 39 
4372 39 40 
4373 15 16 
4374 16 171 
4375 171 15 
4376 171 16 
4377 16 182 
4378 182 171 
4379 171 182 
4380 182 172 
4381 172 171 
4382 172 182 
4383 182 183 
4384 183 172 
4385 172 183 
4386 183 173 
4387 173 172 
4388 173 183 
4389 183 184 
4390 184 173 
4391 173 184 
4392 184 174 
4393 174 173 
4394 174 184 
4395 184 185 
4396 185 174 
4397 174 185 
4398 185 175 
4399 175 174 
4400 175 185 
4401 185 186 
4402 186 175 
4403 175 186 
4404 186 176 
4405 176 175 
4406 176 186 
4407 186 187 
4408 187 176 
4409 176 187 
4410 187 177 
4411 177 176 
4412 177 187 
4413 187 188 
4414 188 177 
4415 177 188 
4416 188 178 
4417 178 177 
4418 178 188 
4419 188 189 
4420 189 178 
4421 178 189 
4422 189 179 
4423 179 178 
4424 179 189 
4425 189 190 
4426 190 179 
4427 179 190 
4428 190 180 
4429 180 179 
4430 180 190 
4431 190 191 
4432 191 180 
4433 180 191 
4434 191 181 
4435 181 180 
4436 181 191 
4437 191 192 
4438 192 181 
4439 181 192 
4440 192 39 
4441 39 181 
4442 39 192 
4443 192 38 
4444 38 39 
4445 16 17 
4446 17 182 
4447 182 16 
4448 182 17 
4449 17 193 
4450 193 182 
4451 182 193 
4452 193 183 
4453 183 182 
4454 183 193 
4455 193 194 
4456 194 183 
4457 183 194 
4458 194 184 
4459 184 183 
4460 184 194 
4461 194 195 
4462 195 184 
4463 184 195 
4464 195 185 
4465 185 184 
4466 185 195 
4467 195 196 
4468 196 185 
4469 185 196 
4470 196 186 
4471 186 185 
4472 186 196 
4473 196 197 
4474 197 186 
4475 186 197 
4476 197 187 
4477 187 186 
4478 187 197 
4479 197 198 
4480 198 187 
4481 187 198 
4482 198 188 
4483 188 187 
4484 188 198 
4485 198 199 
4486 199 188 
4487 188 199 
4488 199 189 
4489 189 188 
4490 189 199 
4491 199 200 
4492 200 189 
4493 189 200 
4494 200 190 
4495 190 189 
4496 190 200 
4497 200 201 
4498 201 190 
4499 190 201 
4500 201 191 
4501 191 190 
4502 191 201 
4503 201 202 
4504 202 191 
4505 191 202 
4506 202 192 
4507 192 191 
4508 192 202 
4509 202 203 
4510 203 192 
4511 192 203 
4512 203 38 
4513 38 192 
4514 38 203 
4515 203 37 
4516 37 38 
4517 17 18 
4518 18 193 
4519 193 17 
4520 193 18 
4521 18 204 
4522 204 193 
4523 193 204 
4524 204 194 
4525 194 193 
4526 194 204 
4527 204 205 
4528 205 194 
4529 194 205 
4530 205 195 
4531 195 194 
4532 195 205 
4533 205 206 
4534 206 195 
4535 195 206 
4536 206 196 
4537 196 195 
4538 196 206 
4539 206 207 
4540 207 196 
4541 196 207 
4542 207 197 
4543 197 196 
4544 197 207 
4545 207 208 
4546 208 197 
4547 197 208 
4548 208 198 
4549 198 197 
4550 198 208 
4551 208 209 
4552 209 198 
4553 198 209 
4554 209 199 
4555 199 198 
4556 199 209 
4557 209 210 
4558 210 199 
4559 199 210 
4560 210 200 
4561 200 199 
4562 200 210 
4563 210 211 
4564 211 200 
4565 200 211 
4566 211 201 
4567 201 200 
4568 201 211 
4569 211 212 
4570 212 201 
4571 201 212 
4572 212 202 
4573 202 201 
4574 202 212 
4575 212 213 
4576 213 202 
4577 202 213 
4578 213 203 
4579 203 202 
4580 203 213 
4581 213 214 
4582 214 203 
4583 203 214 
4584 214 37 
4585 37 203 
4586 37 214 
4587 214 36 
4588 36 37 
4589 18 19 
4590 19 204 
4591 204 18 
4592 204 19 
4593 19 215 
4594 215 204 
4595 204 215 
4596 215 205 
4597 205 204 
4598 205 215 
4599 215 216 
4600 216 205 
4601 205 216 
4602 216 206 
4603 206 205 
4604 206 216 
4605 216 217 
4606 217 206 
4607 206 217 
4608 217 207 
4609 207 206 
4610 207 217 
4611 217 218 
4612 218 207 
4613 207 218 
4614 218 208 
4615 208 207 
4616 208 218 
4617 218 219 
4618 219 208 
4619 208 219 
4620 219 209 
4621 209 208 
4622 209 219 
4623 219 220 
4624 220 209 
4625 209 220 
4626 220 210 
4627 210 209 
4628 210 220 
4629 220 221 
4630 221 210 
4631 210 221 
4632 221 211 
4633 211 210 
4634 211 221 
4635 221 222 
4636 222 211 
4637 211 222 
4638 222 212 
4639 212 211 
4640 212 222 
4641 222 223 
4642 223 212 
4643 212 223 
4644 223 213 
4645 213 212 
4646 213 223 
4647 223 224 
4648 224 213 
4649 213 224 
4650 224 214 
4651 214 213 
4652 214 224 
4653 224 225 
4654 225 214 
4655 214 225 
4656 225 36 
4657 36 214 
4658 36 225 
4659 225 35 
4660 35 36 
4661 19 20 
4662 20 215 
4663 215 19 
4664 215 20 
4665 20 226 
4666 226 215 
4667 215 226 
4668 226 216 
4669 216 215 
4670 216 226 
4671 226 227 
4672 227 216 
4673 216 227 
4674 227 217 
4675 217 216 
4676 217 227 
4677 227 228 
4678 228 217 
4679 217 228 
4680 228 218 
4681 218 217 
4682 218 228 
4683 228 229 
4684 229 218 
4685 218 229 
4686 229 219 
4687 219 218 
4688 219 229 
4689 229 230 
4690 230 219 
4691 219 230 
4692 230 220 
4693 220 219 
4694 220 230 
4695 230 231 
4696 231 220 
4697 220 231 
4698 231 221 
4699 221 220 
4700 221 231 
4701 231 232 
4702 232 221 
4703 221 232 
4704 232 222 
4705 222 221 
4706 222 232 
4707 232 233 
4708 233 222 
4709 222 233 
4710 233 223 
4711 223 222 
4712 223 233 
4713 233 234 
4714 234 223 
4715 223 234 
4716 234 224 
4717 224 223 
4718 224 234 
4719 234 235 
4720 235 224 
4721 224 235 
4722 235 225 
4723 225 224 
4724 225 235 
4725 235 236 
4726 236 225 
4727 225 236 
4728 236 35 
4729 35 225 
4730 35 236 
4731 236 34 
4732 34 35 
4733 20 21 
4734 21 226 
4735 226 20 
4736 226 21 
4737 21 237 
4738 237 226 
4739 226 237 
4740 237 227 
4741 227 226 
4742 227 237 
4743 237 238 
4744 238 227 
4745 227 238 
4746 238 228 
4747 228 227 
4748 228 238 
4749 238 239 
4750 239 228 
4751 228 239 
4752 239 229 
4753 229 228 
4754 229 239 
4755 239 240 
4756 240 229 
4757 229 240 
4758 240 230 
4759 230 229 
4760 230 240 
4761 240 241 
4762 241 230 
4763 230 241 
4764 241 231 
4765 231 230 
4766 231 241 
4767 241 242 
4768 242 231 
4769 231 242 
4770 242 232 
4771 232 231 
4772 232 242 
4773 242 243 
4774 243 232 
4775 232 243 
4776 243 233 
4777 233 232 
4778 233 243 
4779 243 244 
4780 244 233 
4781 233 244 
4782 244 234 
4783 234 233 
4784 234 244 
4785 244 245 
4786 245 234 
4787 234 245 
4788 245 235 
4789 235 234 
4790 235 245 
4791 245 246 
4792 246 235 
4793 235 246 
4794 246 236 
4795 236 235 
4796 236 246 
4797 246 247 
4798 247 236 
4799 236 247 
4800 247 34 
4801 34 236 
4802 34 247 
4803 247 33 
4804 33 34 
4805 21 2 
4806 2 237 
4807 237 21 
4808 237 2 
4809 2 22 
4810 22 237 
4811 237 22 
4812 22 238 
4813 238 237 
4814 238 22 
4815 22 23 
4816 23 238 
4817 238 23 
4818 23 239 
4819 239 238 
4820 239 23 
4821 23 24 
4822 24 239 
4823 239 24 
4824 24 240 
4825 240 239 
4826 240 24 
4827 24 25 
4828 25 240 
4829 240 25 
4830 25 241 
4831 241 240 
4832 241 25 
4833 25 26 
4834 26 241 
4835 241 26 
4836 26 242 
4837 242 241 
4838 242 26 
4839 26 27 
4840 27 242 
4841 242 27 
4842 27 243 
4843 243 242 
4844 243 27 
4845 27 28 
4846 28 243 
4847 243 28 
4848 28 244 
4849 244 243 
4850 244 28 
4851 28 29 
4852 29 244 
4853 244 29 
4854 29 245 
4855 245 244 
4856 245 29 
4857 29 30 
4858 30 245 
4859 245 30 
4860 30 246 
4861 246 245 
4862 246 30 
4863 30 31 
4864 31 246 
4865 246 31 
4866 31 247 
4867 247 246 
4868 247 31 
4869 31 32 
4870 32 247 
4871 247 32 
4872 32 33 
4873 33 247 
4874 33 32 
4875 32 3 
4876 3 33 
2 1 2 432
61 1 5 60 
62 60 5 61 
63 60 61 59 
64 59 61 62 
65 59 62 58 
66 58 62 63 
67 58 63 57 
68 57 63 64 
69 57 64 56 
70 56 64 65 
71 56 65 55 
72 55 65 66 
73 55 66 54 
74 54 66 67 
75 54 67 53 
76 53 67 68 
77 53 68 52 
78 52 68 69 
79 52 69 51 
80 51 69 70 
81 51 70 50 
82 50 70 71 
83 50 71 4 
84 4 71 49 
85 5 6 61 
86 61 6 72 
87 61 72 62 
88 62 72 73 
89 62 73 63 
90 63 73 74 
91 63 74 64 
92 64 74 75 
93 64 75 65 
94 65 75 76 
95 65 76 66 
96 66 76 77 
97 66 77 67 
98 67 77 78 
99 67 78 68 
100 68 78 79 
101 68 79 69 
102 69 79 80 
103 69 80 70 
104 70 80 81 
105 70 81 71 
106 71 81 82 
107 71 82 49 
108 49 82 48 
109 6 7 72 
110 72 7 83 
111 72 83 73 
112 73 83 84 
113 73 84 74 
114 74 84 85 
115 74 85 75 
116 75 85 86 
117 75 86 76 
118 76 86 87 
119 76 87 77 
120 77 87 88 
121 77 88 78 
122 78 88 89 
123 78 89 79 
124 79 89 90 
125 79 90 80 
126 80 90 91 
127 80 91 81 
128 81 91 92 
129 81 92 82 
130 82 92 93 
131 82 93 48 
132 48 93 47 
133 7 8 83 
134 83 8 94 
135 83 94 84 
136 84 94 95 
137 84 95 85 
138 85 95 96 
139 85 96 86 
140 86 96 97 
141 86 97 87 
142 87 97 98 
143 87 98 88 
144 88 98 99 
145 88 99 89 
146 89 99 100 
147 89 100 90 
148 90 100 101 
149 90 101 91 
150 91 101 102 
151 91 102 92 
152 92 102 103 
153 92 103 93 
154 93 103 104 
155 93 104 47 
156 47 104 46 
157 8 9 94 
158 94 9 105 
159 94 105 95 
160 95 105 106 
161 95 106 96 
162 96 106 107 
163 96 107 97 
164 97 107 108 
165 97 108 98 
166 98 108 109 
167 98 109 99 
168 99 109 110 
169 99 110 100 
170 100 110 111 
171 100 111 101 
172 101 111 112 
173 101 112 102 
174 102 112 113 
175 102 113 103 
176 103 113 114 
177 103 114 104 
178 104 114 115 
179 104 115 46 
180 46 115 45 
181 9 10 105 
182 105 10 116 
183 105 116 106 
184 106 116 117 
185 106 117 107 
186 107 117 118 
187 107 118 108 
188 108 118 119 
189 108 119 109 
190 109 119 120 
191 109 120 110 
192 110 120 121 
193 110 121 111 
194 111 121 122 
195 111 122 112 
196 112 122 123 
197 112 123 113 
198 113 123 124 
199 113 124 114 
200 114 124 125 
201 114 125 115 
202 115 125 126 
203 115 126 45 
204 45 126 44 
205 10 11 116 
206 116 11 127 
207 116 127 117 
208 117 127 128 
209 117 128 118 
210 118 128 129 
211 118 129 119 
212 119 129 130 
213 119 130 120 
214 120 130 131 
215 120 131 121 
216 121 131 132 
217 121 132 122 
218 122 132 133 
219 122 133 123 
220 123 133 134 
221 123 134 124 
222 124 134 135 
223 124 135 125 
224 125 135 136 
225 125 136 126 
226 126 136 137 
227 126 137 44 
228 44 137 43 
229 11 12 127 
230 127 12 138 
231 127 138 128 
232 128 138 139 
233 128 139 129 
234 129 139 140 
235 129 140 130 
236 130 140 141 
237 130 141 131 
238 131 141 142 
239 131 142 132 
240 132 142 143 
241 132 143 133 
242 133 143 144 
243 133 144 134 
244 134 144 145 
245 134 145 135 
246 135 145 146 
247 135 146 136 
248 136 146 147 
249 136 147 137 
250 137 147 148 
251 137 148 43 
252 43 148 42 
253 12 13 138 
254 138 13 149 
255 138 149 139 
256 139 149 150 
257 139 150 140 
258 140 150 151 
259 140 151 141 
260 141 151 152 
261 141 152 142 
262 142 152 153 
263 142 153 143 
264 143 153 154 
265 143 154 144 
266 144 154 155 
267 144 155 145 
268 145 155 156 
269 145 156 146 
270 146 156 157 
271 146 157 147 
272 147 157 158 
273 147 158 148 
274 148 158 159 
275 148 159 42 
276 42 159 41 
277 13 14 149 
278 149 14 160 
279 149 160 150 
280 150 160 161 
281 150 161 151 
282 151 161 162 
283 151 162 152 
284 152 162 163 
285 152 163 153 
286 153 163 164 
287 153 164 154 
288 154 164 165 
289 154 165 155 
290 155 165 166 
291 155 166 156 
292 156 166 167 
293 156 167 157 
294 157 167 168 
295 157 168 158 
296 158 168 169 
297 158 169 159 
298 159 169 170 
299 159 170 41 
300 41 170 40 
301 14 15 160 
302 160 15 171 
303 160 171 161 
304 161 171 172 
305 161 172 162 
306 162 172 173 
307 162 173 163 
308 163 173 174 
309 163 174 164 
310 164 174 175 
311 164 175 165 
312 165 175 176 
313 165 176 166 
314 166 176 177 
315 166 177 167 
316 167 177 178 
317 167 178 168 
318 168 178 179 
319 168 179 169 
320 169 179 180 
321 169 180 170 
322 170 180 181 
323 170 181 40 
324 40 181 39 
325 15 16 171 
326 171 16 182 
327 171 182 172 
328 172 182 183 
329 172 183 173 
330 173 183 184 
331 173 184 174 
332 174 184 185 
333 174 185 175 
334 175 185 186 
335 175 186 176 
336 176 186 187 
337 176 187 177 
338 177 187 188 
339 177 188 178 
340 178 188 189 
341 178 189 179 
342 179 189 190 
343 179 190 180 
344 180 190 191 
345 180 191 181 
346 181 191 192 
347 181 192 39 
348 39 192 38 
349 16 17 182 
350 182 17 193 
351 182 193 183 
352 183 193 194 
353 183 194 184 
354 184 194 195 
355 184 195 185 
356 185 195 196 
357 185 196 186 
358 186 196 197 
359 186 197 187 
360 187 197 198 
361 187 198 188 
362 188 198 199 
363 188 199 189 
364 189 199 200 
365 189 200 190 
366 190 200 201 
367 190 201 191 
368 191 201 202 
369 191 202 192 
370 192 202 203 
371 192 203 38 
372 38 203 37 
373 17 18 193 
374 193 18 204 
375 193 204 194 
376 194 204 205 
377 194 205 195 
378 195 205 206 
379 195 206 196 
380 196 206 207 
381 196 207 197 
382 197 207 208 
383 197 208 198 
384 198 208 209 
385 198 209 199 
386 199 209 210 
387 199 210 200 
388 200 210 211 
389 200 211 201 
390 201 211 212 
391 201 212 202 
392 202 212 213 
393 202 213 203 
394 203 213 214 
395 203 214 37 
396 37 214 36 
397 18 19 204 
398 204 19 215 
399 204 215 205 
400 205 215 216 
401 205 216 206 
402 206 216 217 
403 206 217 207 
404 207 217 218 
405 207 218 208 
406 208 218 219 
407 208 219 209 
408 209 219 220 
409 209 220 210 
410 210 220 221 
411 210 221 211 
412 211 221 222 
413 211 222 212 
414 212 222 223 
415 212 223 213 
416 213 223 224 
417 213 224 214 
418 214 224 225 
419 214 225 36 
420 36 225 35 
421 19 20 215 
422 215 20 226 
423 215 226 216 
424 216 226 227 
425 216 227 217 
426 217 227 228 
427 217 228 218 
428 218 228 229 
429 218 229 219 
430 219 229 230 
431 219 230 220 
432 220 230 231 
433 220 231 221 
434 221 231 232 
435 221 232 222 
436 222 232 233 
437 222 233 223 
438 223 233 234 
439 223 234 224 
440 224 234 235 
441 224 235 225 
442 225 235 236 
443 225 236 35 
444 35 236 34 
445 20 21 226 
446 226 21 237 
447 226 237 227 
448 227 237 238 
449 227 238 228 
450 228 238 239 
451 228 239 229 
452 229 239 240 
453 229 240 230 
454 230 240 241 
455 230 241 231 
456 231 241 242 
457 231 242 232 
458 232 242 243 
459 232 243 233 
460 233 243 244 
461 233 244 234 
462 234 244 245 
463 234 245 235 
464 235 245 246 
465 235 246 236 
466 236 246 247 
467 236 247 34 
468 34 247 33 
469 21 2 237 
470 237 2 22 
471 237 22 238 
472 238 22 23 
473 238 23 239 
474 239 23 24 
475 239 24 240 
476 240 24 25 
477 240 25 241 
478 241 25 26 
479 241 26 242 
480 242 26 27 
481 242 27 243 
482 243 27 28 
483 243 28 244 
484 244 28 29 
485 244 29 245 
486 245 29 30 
487 245 30 246 
488 246 30 31 
489 246 31 247 
490 247 31 32 
491 247 32 33 
492 33 32 3 
$EndElements
