$MeshFormat
4.1 0 8
$EndMeshFormat
$PhysicalNames
6
1 1 "Γ¹"
1 2 "Γ²"
1 3 "Γ³"
1 4 "Γ⁴"
1 6 "Γ"
2 5 "Ω"
$EndPhysicalNames
$Entities
4 5 1 0
1 0 0 0 0 
2 1.3 0 0 0 
3 1.3 1 0 0 
4 0 1 0 0 
1 0 0 0 1.3 0 0 1 1 2 1 -2 
2 1.3 0 0 1.3 1 0 1 2 2 2 -3 
3 0 1 0 1.3 1 0 1 3 2 3 -4 
4 0 0 0 0 1 0 1 4 2 4 -1 
5 0 0 0 1.3 1 0 1 6 0 
1 0 0 0 1.3 1 0 1 5 4 1 2 3 4 
$EndEntities
$Nodes
10 221 1 221
0 1 0 1
1
0 0 0
0 2 0 1
2
1.3 0 0
0 3 0 1
3
1.3 1 0
0 4 0 1
4
0 1 0
1 1 0 15
5
6
7
8
9
10
11
12
13
14
15
16
17
18
19
0.08124999999985409 0 0
0.1624999999997398 0 0
0.2437499999995223 0 0
0.3249999999992886 0 0
0.4062499999990606 0 0
0.4874999999988434 0 0
0.5687499999985935 0 0
0.6499999999983762 0 0
0.7312499999985709 0 0
0.8124999999988308 0 0
0.8937499999990471 0 0
0.9749999999992854 0 0
1.05624999999948 0 0
1.137499999999697 0 0
1.218749999999827 0 0
1 2 0 11
20
21
22
23
24
25
26
27
28
29
30
1.3 0.08333333333317297 0
1.3 0.1666666666663209 0
1.3 0.2499999999994109 0
1.3 0.333333333332501 0
1.3 0.4166666666655911 0
1.3 0.499999999998692 0
1.3 0.5833333333322344 0
1.3 0.6666666666657874 0
1.3 0.7499999999993405 0
1.3 0.8333333333328937 0
1.3 0.9166666666664468 0
1 3 0 15
31
32
33
34
35
36
37
38
39
40
41
42
43
44
45
1.218750000000149 1 0
1.137500000000255 1 0
1.056250000000403 1 0
0.9750000000005523 1 0
0.8937500000007879 1 0
0.8125000000009799 1 0
0.7312500000012371 1 0
0.6500000000014726 1 0
0.5687500000012967 1 0
0.4875000000010558 1 0
0.4062500000008582 1 0
0.3250000000006388 1 0
0.2437500000004629 1 0
0.1625000000002652 1 0
0.08125000000015437 1 0
1 4 0 11
46
47
48
49
50
51
52
53
54
55
56
0 0.9166666666663197 0
0 0.833333333333102 0
0 0.7500000000003471 0
0 0.6666666666675918 0
0 0.5833333333348364 0
0 0.5000000000020595 0
0 0.416666666668401 0
0 0.3333333333347207 0
0 0.2500000000010405 0
0 0.1666666666673604 0
0 0.0833333333336802 0
1 5 0 0
2 1 0 165
57
58
59
60
61
62
63
64
65
66
67
68
69
70
71
72
73
74
75
76
77
78
79
80
81
82
83
84
85
86
87
88
89
90
91
92
93
94
95
96
97
98
99
100
101
102
103
104
105
106
107
108
109
110
111
112
113
114
115
116
117
118
119
120
121
122
123
124
125
126
127
128
129
130
131
132
133
134
135
136
137
138
139
140
141
142
143
144
145
146
147
148
149
150
151
152
153
154
155
156
157
158
159
160
161
162
163
164
165
166
167
168
169
170
171
172
173
174
175
176
177
178
179
180
181
182
183
184
185
186
187
188
189
190
191
192
193
194
195
196
197
198
199
200
201
202
203
204
205
206
207
208
209
210
211
212
213
214
215
216
217
218
219
220
221
0.0812499999998791 0.08333333333364849 0
0.08124999999990415 0.1666666666672954 0
0.08124999999992917 0.2500000000009387 0
0.08124999999995418 0.333333333334582 0
0.0812499999999792 0.4166666666682254 0
0.08125000000000422 0.500000000001849 0
0.08125000000002922 0.5833333333346737 0
0.08125000000005426 0.6666666666674792 0
0.0812500000000793 0.7500000000002841 0
0.08125000000010434 0.8333333333330891 0
0.08125000000012934 0.9166666666663276 0
0.1624999999997835 0.0833333333336168 0
0.1624999999998273 0.1666666666672305 0
0.1624999999998712 0.2500000000008368 0
0.1624999999999149 0.3333333333344432 0
0.1624999999999587 0.4166666666680497 0
0.1625000000000025 0.5000000000016385 0
0.1625000000000462 0.583333333334511 0
0.16250000000009 0.6666666666673662 0
0.1625000000001338 0.750000000000221 0
0.1625000000001776 0.8333333333330758 0
0.1625000000002214 0.9166666666663357 0
0.2437499999996007 0.0833333333335851 0
0.2437499999996791 0.1666666666671655 0
0.2437499999997574 0.250000000000735 0
0.2437499999998358 0.3333333333343045 0
0.2437499999999141 0.4166666666678741 0
0.2437499999999926 0.5000000000014282 0
0.2437500000000709 0.5833333333343484 0
0.2437500000001494 0.6666666666672536 0
0.2437500000002278 0.7500000000001584 0
0.2437500000003061 0.8333333333330629 0
0.2437500000003845 0.9166666666663438 0
0.3249999999994012 0.08333333333355339 0
0.3249999999995137 0.1666666666671005 0
0.3249999999996262 0.2500000000006332 0
0.3249999999997387 0.3333333333341658 0
0.3249999999998512 0.4166666666676986 0
0.3249999999999637 0.5000000000012177 0
0.3250000000000761 0.5833333333341859 0
0.3250000000001888 0.6666666666671408 0
0.3250000000003012 0.7500000000000953 0
0.3250000000004137 0.8333333333330499 0
0.3250000000005263 0.9166666666663517 0
0.4062499999992104 0.08333333333352169 0
0.4062499999993603 0.1666666666670355 0
0.4062499999995099 0.2500000000005312 0
0.4062499999996598 0.333333333334027 0
0.4062499999998096 0.4166666666675229 0
0.4062499999999594 0.5000000000010072 0
0.4062500000001092 0.5833333333340234 0
0.406250000000259 0.666666666667028 0
0.4062500000004088 0.7500000000000328 0
0.4062500000005587 0.8333333333330371 0
0.4062500000007083 0.9166666666663594 0
0.4874999999990278 0.08333333333349 0
0.487499999999212 0.1666666666669706 0
0.4874999999993965 0.2500000000004294 0
0.4874999999995809 0.3333333333338883 0
0.4874999999997652 0.4166666666673473 0
0.4874999999999496 0.5000000000007967 0
0.487500000000134 0.5833333333338608 0
0.4875000000003184 0.6666666666669152 0
0.4875000000005025 0.7499999999999696 0
0.4875000000006871 0.8333333333330237 0
0.4875000000008715 0.9166666666663674 0
0.5687499999988186 0.08333333333345831 0
0.5687499999990441 0.1666666666669056 0
0.5687499999992695 0.2500000000003276 0
0.5687499999994945 0.3333333333337495 0
0.5687499999997199 0.4166666666671717 0
0.568749999999945 0.5000000000005862 0
0.5687500000001705 0.5833333333336981 0
0.5687500000003957 0.6666666666668024 0
0.5687500000006207 0.7499999999999066 0
0.5687500000008462 0.833333333333011 0
0.5687500000010716 0.9166666666663752 0
0.6499999999986344 0.08333333333342659 0
0.6499999999988924 0.1666666666668406 0
0.6499999999991504 0.2500000000002257 0
0.6499999999994086 0.3333333333336109 0
0.6499999999996664 0.416666666666996 0
0.6499999999999244 0.5000000000003757 0
0.6500000000001824 0.5833333333335353 0
0.6500000000004404 0.6666666666666896 0
0.6500000000006985 0.7499999999998438 0
0.6500000000009565 0.8333333333329979 0
0.6500000000012145 0.9166666666663832 0
0.731249999998793 0.08333333333339486 0
0.7312499999990153 0.1666666666667756 0
0.7312499999992373 0.2500000000001239 0
0.7312499999994596 0.3333333333334722 0
0.7312499999996817 0.4166666666668204 0
0.7312499999999041 0.5000000000001652 0
0.7312500000001262 0.5833333333333728 0
0.7312500000003482 0.6666666666665768 0
0.7312500000005705 0.749999999999781 0
0.7312500000007928 0.8333333333329848 0
0.7312500000010149 0.9166666666663912 0
0.8124999999990099 0.08333333333336317 0
0.8124999999991891 0.1666666666667107 0
0.8124999999993681 0.250000000000022 0
0.8124999999995471 0.3333333333333334 0
0.8124999999997264 0.4166666666666448 0
0.8124999999999054 0.4999999999999547 0
0.8125000000000844 0.5833333333332102 0
0.8125000000002636 0.666666666666464 0
0.8125000000004425 0.7499999999997179 0
0.8125000000006216 0.8333333333329718 0
0.8125000000008009 0.9166666666663992 0
0.8937499999991921 0.08333333333333147 0
0.8937499999993374 0.1666666666666457 0
0.8937499999994825 0.2499999999999202 0
0.8937499999996273 0.3333333333331946 0
0.8937499999997727 0.4166666666664692 0
0.8937499999999177 0.4999999999997444 0
0.8937500000000627 0.5833333333330475 0
0.8937500000002074 0.6666666666663512 0
0.8937500000003525 0.7499999999996551 0
0.8937500000004976 0.8333333333329589 0
0.8937500000006426 0.9166666666664072 0
0.974999999999391 0.08333333333329979 0
0.9749999999994965 0.1666666666665808 0
0.974999999999602 0.2499999999998183 0
0.9749999999997077 0.3333333333330559 0
0.9749999999998133 0.4166666666662936 0
0.9749999999999188 0.4999999999995339 0
0.9750000000000245 0.5833333333328847 0
0.9750000000001303 0.6666666666662384 0
0.9750000000002356 0.7499999999995921 0
0.9750000000003411 0.8333333333329456 0
0.9750000000004466 0.9166666666664152 0
1.056249999999557 0.08333333333326808 0
1.056249999999634 0.1666666666665158 0
1.056249999999711 0.2499999999997164 0
1.056249999999788 0.3333333333329173 0
1.056249999999865 0.416666666666118 0
1.056249999999942 0.4999999999993234 0
1.056250000000019 0.5833333333327222 0
1.056250000000096 0.6666666666661258 0
1.056250000000173 0.7499999999995292 0
1.056250000000249 0.8333333333329328 0
1.056250000000326 0.9166666666664229 0
1.137499999999744 0.08333333333323638 0
1.13749999999979 0.1666666666664507 0
1.137499999999836 0.2499999999996146 0
1.137499999999883 0.3333333333327785 0
1.13749999999993 0.4166666666659423 0
1.137499999999976 0.4999999999991129 0
1.137500000000022 0.5833333333325597 0
1.137500000000069 0.666666666666013 0
1.137500000000116 0.7499999999994663 0
1.137500000000162 0.8333333333329199 0
1.137500000000208 0.9166666666664309 0
1.218749999999854 0.08333333333320468 0
1.21874999999988 0.1666666666663858 0
1.218749999999907 0.2499999999995128 0
1.218749999999934 0.3333333333326397 0
1.218749999999961 0.4166666666657667 0
1.218749999999988 0.4999999999989025 0
1.218750000000015 0.5833333333323969 0
1.218750000000042 0.6666666666659002 0
1.218750000000069 0.7499999999994035 0
1.218750000000095 0.8333333333329066 0
1.218750000000123 0.9166666666664389 0
$EndNodes
$Elements
6 1592 1 4340
1 1 1 16
1 1 5 
2 5 6 
3 6 7 
4 7 8 
5 8 9 
6 9 10 
7 10 11 
8 11 12 
9 12 13 
10 13 14 
11 14 15 
12 15 16 
13 16 17 
14 17 18 
15 18 19 
16 19 2 
1 2 1 12
17 2 20 
18 20 21 
19 21 22 
20 22 23 
21 23 24 
22 24 25 
23 25 26 
24 26 27 
25 27 28 
26 28 29 
27 29 30 
28 30 3 
1 3 1 16
29 3 31 
30 31 32 
31 32 33 
32 33 34 
33 34 35 
34 35 36 
35 36 37 
36 37 38 
37 38 39 
38 39 40 
39 40 41 
40 41 42 
41 42 43 
42 43 44 
43 44 45 
44 45 4 
1 4 1 12
45 4 46 
46 46 47 
47 47 48 
48 48 49 
49 49 50 
50 50 51 
51 51 52 
52 52 53 
53 53 54 
54 54 55 
55 55 56 
56 56 1 
1 5 1 1152
3189 1 5 
3190 5 56 
3191 56 1 
3192 56 5 
3193 5 57 
3194 57 56 
3195 56 57 
3196 57 55 
3197 55 56 
3198 55 57 
3199 57 58 
3200 58 55 
3201 55 58 
3202 58 54 
3203 54 55 
3204 54 58 
3205 58 59 
3206 59 54 
3207 54 59 
3208 59 53 
3209 53 54 
3210 53 59 
3211 59 60 
3212 60 53 
3213 53 60 
3214 60 52 
3215 52 53 
3216 52 60 
3217 60 61 
3218 61 52 
3219 52 61 
3220 61 51 
3221 51 52 
3222 51 61 
3223 61 62 
3224 62 51 
3225 51 62 
3226 62 50 
3227 50 51 
3228 50 62 
3229 62 63 
3230 63 50 
3231 50 63 
3232 63 49 
3233 49 50 
3234 49 63 
3235 63 64 
3236 64 49 
3237 49 64 
3238 64 48 
3239 48 49 
3240 48 64 
3241 64 65 
3242 65 48 
3243 48 65 
3244 65 47 
3245 47 48 
3246 47 65 
3247 65 66 
3248 66 47 
3249 47 66 
3250 66 46 
3251 46 47 
3252 46 66 
3253 66 67 
3254 67 46 
3255 46 67 
3256 67 4 
3257 4 46 
3258 4 67 
3259 67 45 
3260 45 4 
3261 5 6 
3262 6 57 
3263 57 5 
3264 57 6 
3265 6 68 
3266 68 57 
3267 57 68 
3268 68 58 
3269 58 57 
3270 58 68 
3271 68 69 
3272 69 58 
3273 58 69 
3274 69 59 
3275 59 58 
3276 59 69 
3277 69 70 
3278 70 59 
3279 59 70 
3280 70 60 
3281 60 59 
3282 60 70 
3283 70 71 
3284 71 60 
3285 60 71 
3286 71 61 
3287 61 60 
3288 61 71 
3289 71 72 
3290 72 61 
3291 61 72 
3292 72 62 
3293 62 61 
3294 62 72 
3295 72 73 
3296 73 62 
3297 62 73 
3298 73 63 
3299 63 62 
3300 63 73 
3301 73 74 
3302 74 63 
3303 63 74 
3304 74 64 
3305 64 63 
3306 64 74 
3307 74 75 
3308 75 64 
3309 64 75 
3310 75 65 
3311 65 64 
3312 65 75 
3313 75 76 
3314 76 65 
3315 65 76 
3316 76 66 
3317 66 65 
3318 66 76 
3319 76 77 
3320 77 66 
3321 66 77 
3322 77 67 
3323 67 66 
3324 67 77 
3325 77 78 
3326 78 67 
3327 67 78 
3328 78 45 
3329 45 67 
3330 45 78 
3331 78 44 
3332 44 45 
3333 6 7 
3334 7 68 
3335 68 6 
3336 68 7 
3337 7 79 
3338 79 68 
3339 68 79 
3340 79 69 
3341 69 68 
3342 69 79 
3343 79 80 
3344 80 69 
3345 69 80 
3346 80 70 
3347 70 69 
3348 70 80 
3349 80 81 
3350 81 70 
3351 70 81 
3352 81 71 
3353 71 70 
3354 71 81 
3355 81 82 
3356 82 71 
3357 71 82 
3358 82 72 
3359 72 71 
3360 72 82 
3361 82 83 
3362 83 72 
3363 72 83 
3364 83 73 
3365 73 72 
3366 73 83 
3367 83 84 
3368 84 73 
3369 73 84 
3370 84 74 
3371 74 73 
3372 74 84 
3373 84 85 
3374 85 74 
3375 74 85 
3376 85 75 
3377 75 74 
3378 75 85 
3379 85 86 
3380 86 75 
3381 75 86 
3382 86 76 
3383 76 75 
3384 76 86 
3385 86 87 
3386 87 76 
3387 76 87 
3388 87 77 
3389 77 76 
3390 77 87 
3391 87 88 
3392 88 77 
3393 77 88 
3394 88 78 
3395 78 77 
3396 78 88 
3397 88 89 
3398 89 78 
3399 78 89 
3400 89 44 
3401 44 78 
3402 44 89 
3403 89 43 
3404 43 44 
3405 7 8 
3406 8 79 
3407 79 7 
3408 79 8 
3409 8 90 
3410 90 79 
3411 79 90 
3412 90 80 
3413 80 79 
3414 80 90 
3415 90 91 
3416 91 80 
3417 80 91 
3418 91 81 
3419 81 80 
3420 81 91 
3421 91 92 
3422 92 81 
3423 81 92 
3424 92 82 
3425 82 81 
3426 82 92 
3427 92 93 
3428 93 82 
3429 82 93 
3430 93 83 
3431 83 82 
3432 83 93 
3433 93 94 
3434 94 83 
3435 83 94 
3436 94 84 
3437 84 83 
3438 84 94 
3439 94 95 
3440 95 84 
3441 84 95 
3442 95 85 
3443 85 84 
3444 85 95 
3445 95 96 
3446 96 85 
3447 85 96 
3448 96 86 
3449 86 85 
3450 86 96 
3451 96 97 
3452 97 86 
3453 86 97 
3454 97 87 
3455 87 86 
3456 87 97 
3457 97 98 
3458 98 87 
3459 87 98 
3460 98 88 
3461 88 87 
3462 88 98 
3463 98 99 
3464 99 88 
3465 88 99 
3466 99 89 
3467 89 88 
3468 89 99 
3469 99 100 
3470 100 89 
3471 89 100 
3472 100 43 
3473 43 89 
3474 43 100 
3475 100 42 
3476 42 43 
3477 8 9 
3478 9 90 
3479 90 8 
3480 90 9 
3481 9 101 
3482 101 90 
3483 90 101 
3484 101 91 
3485 91 90 
3486 91 101 
3487 101 102 
3488 102 91 
3489 91 102 
3490 102 92 
3491 92 91 
3492 92 102 
3493 102 103 
3494 103 92 
3495 92 103 
3496 103 93 
3497 93 92 
3498 93 103 
3499 103 104 
3500 104 93 
3501 93 104 
3502 104 94 
3503 94 93 
3504 94 104 
3505 104 105 
3506 105 94 
3507 94 105 
3508 105 95 
3509 95 94 
3510 95 105 
3511 105 106 
3512 106 95 
3513 95 106 
3514 106 96 
3515 96 95 
3516 96 106 
3517 106 107 
3518 107 96 
3519 96 107 
3520 107 97 
3521 97 96 
3522 97 107 
3523 107 108 
3524 108 97 
3525 97 108 
3526 108 98 
3527 98 97 
3528 98 108 
3529 108 109 
3530 109 98 
3531 98 109 
3532 109 99 
3533 99 98 
3534 99 109 
3535 109 110 
3536 110 99 
3537 99 110 
3538 110 100 
3539 100 99 
3540 100 110 
3541 110 111 
3542 111 100 
3543 100 111 
3544 111 42 
3545 42 100 
3546 42 111 
3547 111 41 
3548 41 42 
3549 9 10 
3550 10 101 
3551 101 9 
3552 101 10 
3553 10 112 
3554 112 101 
3555 101 112 
3556 112 102 
3557 102 101 
3558 102 112 
3559 112 113 
3560 113 102 
3561 102 113 
3562 113 103 
3563 103 102 
3564 103 113 
3565 113 114 
3566 114 103 
3567 103 114 
3568 114 104 
3569 104 103 
3570 104 114 
3571 114 115 
3572 115 104 
3573 104 115 
3574 115 105 
3575 105 104 
3576 105 115 
3577 115 116 
3578 116 105 
3579 105 116 
3580 116 106 
3581 106 105 
3582 106 116 
3583 116 117 
3584 117 106 
3585 106 117 
3586 117 107 
3587 107 106 
3588 107 117 
3589 117 118 
3590 118 107 
3591 107 118 
3592 118 108 
3593 108 107 
3594 108 118 
3595 118 119 
3596 119 108 
3597 108 119 
3598 119 109 
3599 109 108 
3600 109 119 
3601 119 120 
3602 120 109 
3603 109 120 
3604 120 110 
3605 110 109 
3606 110 120 
3607 120 121 
3608 121 110 
3609 110 121 
3610 121 111 
3611 111 110 
3612 111 121 
3613 121 122 
3614 122 111 
3615 111 122 
3616 122 41 
3617 41 111 
3618 41 122 
3619 122 40 
3620 40 41 
3621 10 11 
3622 11 112 
3623 112 10 
3624 112 11 
3625 11 123 
3626 123 112 
3627 112 123 
3628 123 113 
3629 113 112 
3630 113 123 
3631 123 124 
3632 124 113 
3633 113 124 
3634 124 114 
3635 114 113 
3636 114 124 
3637 124 125 
3638 125 114 
3639 114 125 
3640 125 115 
3641 115 114 
3642 115 125 
3643 125 126 
3644 126 115 
3645 115 126 
3646 126 116 
3647 116 115 
3648 116 126 
3649 126 127 
3650 127 116 
3651 116 127 
3652 127 117 
3653 117 116 
3654 117 127 
3655 127 128 
3656 128 117 
3657 117 128 
3658 128 118 
3659 118 117 
3660 118 128 
3661 128 129 
3662 129 118 
3663 118 129 
3664 129 119 
3665 119 118 
3666 119 129 
3667 129 130 
3668 130 119 
3669 119 130 
3670 130 120 
3671 120 119 
3672 120 130 
3673 130 131 
3674 131 120 
3675 120 131 
3676 131 121 
3677 121 120 
3678 121 131 
3679 131 132 
3680 132 121 
3681 121 132 
3682 132 122 
3683 122 121 
3684 122 132 
3685 132 133 
3686 133 122 
3687 122 133 
3688 133 40 
3689 40 122 
3690 40 133 
3691 133 39 
3692 39 40 
3693 11 12 
3694 12 123 
3695 123 11 
3696 123 12 
3697 12 134 
3698 134 123 
3699 123 134 
3700 134 124 
3701 124 123 
3702 124 134 
3703 134 135 
3704 135 124 
3705 124 135 
3706 135 125 
3707 125 124 
3708 125 135 
3709 135 136 
3710 136 125 
3711 125 136 
3712 136 126 
3713 126 125 
3714 126 136 
3715 136 137 
3716 137 126 
3717 126 137 
3718 137 127 
3719 127 126 
3720 127 137 
3721 137 138 
3722 138 127 
3723 127 138 
3724 138 128 
3725 128 127 
3726 128 138 
3727 138 139 
3728 139 128 
3729 128 139 
3730 139 129 
3731 129 128 
3732 129 139 
3733 139 140 
3734 140 129 
3735 129 140 
3736 140 130 
3737 130 129 
3738 130 140 
3739 140 141 
3740 141 130 
3741 130 141 
3742 141 131 
3743 131 130 
3744 131 141 
3745 141 142 
3746 142 131 
3747 131 142 
3748 142 132 
3749 132 131 
3750 132 142 
3751 142 143 
3752 143 132 
3753 132 143 
3754 143 133 
3755 133 132 
3756 133 143 
3757 143 144 
3758 144 133 
3759 133 144 
3760 144 39 
3761 39 133 
3762 39 144 
3763 144 38 
3764 38 39 
3765 12 13 
3766 13 134 
3767 134 12 
3768 134 13 
3769 13 145 
3770 145 134 
3771 134 145 
3772 145 135 
3773 135 134 
3774 135 145 
3775 145 146 
3776 146 135 
3777 135 146 
3778 146 136 
3779 136 135 
3780 136 146 
3781 146 147 
3782 147 136 
3783 136 147 
3784 147 137 
3785 137 136 
3786 137 147 
3787 147 148 
3788 148 137 
3789 137 148 
3790 148 138 
3791 138 137 
3792 138 148 
3793 148 149 
3794 149 138 
3795 138 149 
3796 149 139 
3797 139 138 
3798 139 149 
3799 149 150 
3800 150 139 
3801 139 150 
3802 150 140 
3803 140 139 
3804 140 150 
3805 150 151 
3806 151 140 
3807 140 151 
3808 151 141 
3809 141 140 
3810 141 151 
3811 151 152 
3812 152 141 
3813 141 152 
3814 152 142 
3815 142 141 
3816 142 152 
3817 152 153 
3818 153 142 
3819 142 153 
3820 153 143 
3821 143 142 
3822 143 153 
3823 153 154 
3824 154 143 
3825 143 154 
3826 154 144 
3827 144 143 
3828 144 154 
3829 154 155 
3830 155 144 
3831 144 155 
3832 155 38 
3833 38 144 
3834 38 155 
3835 155 37 
3836 37 38 
3837 13 14 
3838 14 145 
3839 145 13 
3840 145 14 
3841 14 156 
3842 156 145 
3843 145 156 
3844 156 146 
3845 146 145 
3846 146 156 
3847 156 157 
3848 157 146 
3849 146 157 
3850 157 147 
3851 147 146 
3852 147 157 
3853 157 158 
3854 158 147 
3855 147 158 
3856 158 148 
3857 148 147 
3858 148 158 
3859 158 159 
3860 159 148 
3861 148 159 
3862 159 149 
3863 149 148 
3864 149 159 
3865 159 160 
3866 160 149 
3867 149 160 
3868 160 150 
3869 150 149 
3870 150 160 
3871 160 161 
3872 161 150 
3873 150 161 
3874 161 151 
3875 151 150 
3876 151 161 
3877 161 162 
3878 162 151 
3879 151 162 
3880 162 152 
3881 152 151 
3882 152 162 
3883 162 163 
3884 163 152 
3885 152 163 
3886 163 153 
3887 153 152 
3888 153 163 
3889 163 164 
3890 164 153 
3891 153 164 
3892 164 154 
3893 154 153 
3894 154 164 
3895 164 165 
3896 165 154 
3897 154 165 
3898 165 155 
3899 155 154 
3900 155 165 
3901 165 166 
3902 166 155 
3903 155 166 
3904 166 37 
3905 37 155 
3906 37 166 
3907 166 36 
3908 36 37 
3909 14 15 
3910 15 156 
3911 156 14 
3912 156 15 
3913 15 167 
3914 167 156 
3915 156 167 
3916 167 157 
3917 157 156 
3918 157 167 
3919 167 168 
3920 168 157 
3921 157 168 
3922 168 158 
3923 158 157 
3924 158 168 
3925 168 169 
3926 169 158 
3927 158 169 
3928 169 159 
3929 159 158 
3930 159 169 
3931 169 170 
3932 170 159 
3933 159 170 
3934 170 160 
3935 160 159 
3936 160 170 
3937 170 171 
3938 171 160 
3939 160 171 
3940 171 161 
3941 161 160 
3942 161 171 
3943 171 172 
3944 172 161 
3945 161 172 
3946 172 162 
3947 162 161 
3948 162 172 
3949 172 173 
3950 173 162 
3951 162 173 
3952 173 163 
3953 163 162 
3954 163 173 
3955 173 174 
3956 174 163 
3957 163 174 
3958 174 164 
3959 164 163 
3960 164 174 
3961 174 175 
3962 175 164 
3963 164 175 
3964 175 165 
3965 165 164 
3966 165 175 
3967 175 176 
3968 176 165 
3969 165 176 
3970 176 166 
3971 166 165 
3972 166 176 
3973 176 177 
3974 177 166 
3975 166 177 
3976 177 36 
3977 36 166 
3978 36 177 
3979 177 35 
3980 35 36 
3981 15 16 
3982 16 167 
3983 167 15 
3984 167 16 
3985 16 178 
3986 178 167 
3987 167 178 
3988 178 168 
3989 168 167 
3990 168 178 
3991 178 179 
3992 179 168 
3993 168 179 
3994 179 169 
3995 169 168 
3996 169 179 
3997 179 180 
3998 180 169 
3999 169 180 
4000 180 170 
4001 170 169 
4002 170 180 
4003 180 181 
4004 181 170 
4005 170 181 
4006 181 171 
4007 171 170 
4008 171 181 
4009 181 182 
4010 182 171 
4011 171 182 
4012 182 172 
4013 172 171 
4014 172 182 
4015 182 183 
4016 183 172 
4017 172 183 
4018 183 173 
4019 173 172 
4020 173 183 
4021 183 184 
4022 184 173 
4023 173 184 
4024 184 174 
4025 174 173 
4026 174 184 
4027 184 185 
4028 185 174 
4029 174 185 
4030 185 175 
4031 175 174 
4032 175 185 
4033 185 186 
4034 186 175 
4035 175 186 
4036 186 176 
4037 176 175 
4038 176 186 
4039 186 187 
4040 187 176 
4041 176 187 
4042 187 177 
4043 177 176 
4044 177 187 
4045 187 188 
4046 188 177 
4047 177 188 
4048 188 35 
4049 35 177 
4050 35 188 
4051 188 34 
4052 34 35 
4053 16 17 
4054 17 178 
4055 178 16 
4056 178 17 
4057 17 189 
4058 189 178 
4059 178 189 
4060 189 179 
4061 179 178 
4062 179 189 
4063 189 190 
4064 190 179 
4065 179 190 
4066 190 180 
4067 180 179 
4068 180 190 
4069 190 191 
4070 191 180 
4071 180 191 
4072 191 181 
4073 181 180 
4074 181 191 
4075 191 192 
4076 192 181 
4077 181 192 
4078 192 182 
4079 182 181 
4080 182 192 
4081 192 193 
4082 193 182 
4083 182 193 
4084 193 183 
4085 183 182 
4086 183 193 
4087 193 194 
4088 194 183 
4089 183 194 
4090 194 184 
4091 184 183 
4092 184 194 
4093 194 195 
4094 195 184 
4095 184 195 
4096 195 185 
4097 185 184 
4098 185 195 
4099 195 196 
4100 196 185 
4101 185 196 
4102 196 186 
4103 186 185 
4104 186 196 
4105 196 197 
4106 197 186 
4107 186 197 
4108 197 187 
4109 187 186 
4110 187 197 
4111 197 198 
4112 198 187 
4113 187 198 
4114 198 188 
4115 188 187 
4116 188 198 
4117 198 199 
4118 199 188 
4119 188 199 
4120 199 34 
4121 34 188 
4122 34 199 
4123 199 33 
4124 33 34 
4125 17 18 
4126 18 189 
4127 189 17 
4128 189 18 
4129 18 200 
4130 200 189 
4131 189 200 
4132 200 190 
4133 190 189 
4134 190 200 
4135 200 201 
4136 201 190 
4137 190 201 
4138 201 191 
4139 191 190 
4140 191 201 
4141 201 202 
4142 202 191 
4143 191 202 
4144 202 192 
4145 192 191 
4146 192 202 
4147 202 203 
4148 203 192 
4149 192 203 
4150 203 193 
4151 193 192 
4152 193 203 
4153 203 204 
4154 204 193 
4155 193 204 
4156 204 194 
4157 194 193 
4158 194 204 
4159 204 205 
4160 205 194 
4161 194 205 
4162 205 195 
4163 195 194 
4164 195 205 
4165 205 206 
4166 206 195 
4167 195 206 
4168 206 196 
4169 196 195 
4170 196 206 
4171 206 207 
4172 207 196 
4173 196 207 
4174 207 197 
4175 197 196 
4176 197 207 
4177 207 208 
4178 208 197 
4179 197 208 
4180 208 198 
4181 198 197 
4182 198 208 
4183 208 209 
4184 209 198 
4185 198 209 
4186 209 199 
4187 199 198 
4188 199 209 
4189 209 210 
4190 210 199 
4191 199 210 
4192 210 33 
4193 33 199 
4194 33 210 
4195 210 32 
4196 32 33 
4197 18 19 
4198 19 200 
4199 200 18 
4200 200 19 
4201 19 211 
4202 211 200 
4203 200 211 
4204 211 201 
4205 201 200 
4206 201 211 
4207 211 212 
4208 212 201 
4209 201 212 
4210 212 202 
4211 202 201 
4212 202 212 
4213 212 213 
4214 213 202 
4215 202 213 
4216 213 203 
4217 203 202 
4218 203 213 
4219 213 214 
4220 214 203 
4221 203 214 
4222 214 204 
4223 204 203 
4224 204 214 
4225 214 215 
4226 215 204 
4227 204 215 
4228 215 205 
4229 205 204 
4230 205 215 
4231 215 216 
4232 216 205 
4233 205 216 
4234 216 206 
4235 206 205 
4236 206 216 
4237 216 217 
4238 217 206 
4239 206 217 
4240 217 207 
4241 207 206 
4242 207 217 
4243 217 218 
4244 218 207 
4245 207 218 
4246 218 208 
4247 208 207 
4248 208 218 
4249 218 219 
4250 219 208 
4251 208 219 
4252 219 209 
4253 209 208 
4254 209 219 
4255 219 220 
4256 220 209 
4257 209 220 
4258 220 210 
4259 210 209 
4260 210 220 
4261 220 221 
4262 221 210 
4263 210 221 
4264 221 32 
4265 32 210 
4266 32 221 
4267 221 31 
4268 31 32 
4269 19 2 
4270 2 211 
4271 211 19 
4272 211 2 
4273 2 20 
4274 20 211 
4275 211 20 
4276 20 212 
4277 212 211 
4278 212 20 
4279 20 21 
4280 21 212 
4281 212 21 
4282 21 213 
4283 213 212 
4284 213 21 
4285 21 22 
4286 22 213 
4287 213 22 
4288 22 214 
4289 214 213 
4290 214 22 
4291 22 23 
4292 23 214 
4293 214 23 
4294 23 215 
4295 215 214 
4296 215 23 
4297 23 24 
4298 24 215 
4299 215 24 
4300 24 216 
4301 216 215 
4302 216 24 
4303 24 25 
4304 25 216 
4305 216 25 
4306 25 217 
4307 217 216 
4308 217 25 
4309 25 26 
4310 26 217 
4311 217 26 
4312 26 218 
4313 218 217 
4314 218 26 
4315 26 27 
4316 27 218 
4317 218 27 
4318 27 219 
4319 219 218 
4320 219 27 
4321 27 28 
4322 28 219 
4323 219 28 
4324 28 220 
4325 220 219 
4326 220 28 
4327 28 29 
4328 29 220 
4329 220 29 
4330 29 221 
4331 221 220 
4332 221 29 
4333 29 30 
4334 30 221 
4335 221 30 
4336 30 31 
4337 31 221 
4338 31 30 
4339 30 3 
4340 3 31 
2 1 2 384
57 1 5 56 
58 56 5 57 
59 56 57 55 
60 55 57 58 
61 55 58 54 
62 54 58 59 
63 54 59 53 
64 53 59 60 
65 53 60 52 
66 52 60 61 
67 52 61 51 
68 51 61 62 
69 51 62 50 
70 50 62 63 
71 50 63 49 
72 49 63 64 
73 49 64 48 
74 48 64 65 
75 48 65 47 
76 47 65 66 
77 47 66 46 
78 46 66 67 
79 46 67 4 
80 4 67 45 
81 5 6 57 
82 57 6 68 
83 57 68 58 
84 58 68 69 
85 58 69 59 
86 59 69 70 
87 59 70 60 
88 60 70 71 
89 60 71 61 
90 61 71 72 
91 61 72 62 
92 62 72 73 
93 62 73 63 
94 63 73 74 
95 63 74 64 
96 64 74 75 
97 64 75 65 
98 65 75 76 
99 65 76 66 
100 66 76 77 
101 66 77 67 
102 67 77 78 
103 67 78 45 
104 45 78 44 
105 6 7 68 
106 68 7 79 
107 68 79 69 
108 69 79 80 
109 69 80 70 
110 70 80 81 
111 70 81 71 
112 71 81 82 
113 71 82 72 
114 72 82 83 
115 72 83 73 
116 73 83 84 
117 73 84 74 
118 74 84 85 
119 74 85 75 
120 75 85 86 
121 75 86 76 
122 76 86 87 
123 76 87 77 
124 77 87 88 
125 77 88 78 
126 78 88 89 
127 78 89 44 
128 44 89 43 
129 7 8 79 
130 79 8 90 
131 79 90 80 
132 80 90 91 
133 80 91 81 
134 81 91 92 
135 81 92 82 
136 82 92 93 
137 82 93 83 
138 83 93 94 
139 83 94 84 
140 84 94 95 
141 84 95 85 
142 85 95 96 
143 85 96 86 
144 86 96 97 
145 86 97 87 
146 87 97 98 
147 87 98 88 
148 88 98 99 
149 88 99 89 
150 89 99 100 
151 89 100 43 
152 43 100 42 
153 8 9 90 
154 90 9 101 
155 90 101 91 
156 91 101 102 
157 91 102 92 
158 92 102 103 
159 92 103 93 
160 93 103 104 
161 93 104 94 
162 94 104 105 
163 94 105 95 
164 95 105 106 
165 95 106 96 
166 96 106 107 
167 96 107 97 
168 97 107 108 
169 97 108 98 
170 98 108 109 
171 98 109 99 
172 99 109 110 
173 99 110 100 
174 100 110 111 
175 100 111 42 
176 42 111 41 
177 9 10 101 
178 101 10 112 
179 101 112 102 
180 102 112 113 
181 102 113 103 
182 103 113 114 
183 103 114 104 
184 104 114 115 
185 104 115 105 
186 105 115 116 
187 105 116 106 
188 106 116 117 
189 106 117 107 
190 107 117 118 
191 107 118 108 
192 108 118 119 
193 108 119 109 
194 109 119 120 
195 109 120 110 
196 110 120 121 
197 110 121 111 
198 111 121 122 
199 111 122 41 
200 41 122 40 
201 10 11 112 
202 112 11 123 
203 112 123 113 
204 113 123 124 
205 113 124 114 
206 114 124 125 
207 114 125 115 
208 115 125 126 
209 115 126 116 
210 116 126 127 
211 116 127 117 
212 117 127 128 
213 117 128 118 
214 118 128 129 
215 118 129 119 
216 119 129 130 
217 119 130 120 
218 120 130 131 
219 120 131 121 
220 121 131 132 
221 121 132 122 
222 122 132 133 
223 122 133 40 
224 40 133 39 
225 11 12 123 
226 123 12 134 
227 123 134 124 
228 124 134 135 
229 124 135 125 
230 125 135 136 
231 125 136 126 
232 126 136 137 
233 126 137 127 
234 127 137 138 
235 127 138 128 
236 128 138 139 
237 128 139 129 
238 129 139 140 
239 129 140 130 
240 130 140 141 
241 130 141 131 
242 131 141 142 
243 131 142 132 
244 132 142 143 
245 132 143 133 
246 133 143 144 
247 133 144 39 
248 39 144 38 
249 12 13 134 
250 134 13 145 
251 134 145 135 
252 135 145 146 
253 135 146 136 
254 136 146 147 
255 136 147 137 
256 137 147 148 
257 137 148 138 
258 138 148 149 
259 138 149 139 
260 139 149 150 
261 139 150 140 
262 140 150 151 
263 140 151 141 
264 141 151 152 
265 141 152 142 
266 142 152 153 
267 142 153 143 
268 143 153 154 
269 143 154 144 
270 144 154 155 
271 144 155 38 
272 38 155 37 
273 13 14 145 
274 145 14 156 
275 145 156 146 
276 146 156 157 
277 146 157 147 
278 147 157 158 
279 147 158 148 
280 148 158 159 
281 148 159 149 
282 149 159 160 
283 149 160 150 
284 150 160 161 
285 150 161 151 
286 151 161 162 
287 151 162 152 
288 152 162 163 
289 152 163 153 
290 153 163 164 
291 153 164 154 
292 154 164 165 
293 154 165 155 
294 155 165 166 
295 155 166 37 
296 37 166 36 
297 14 15 156 
298 156 15 167 
299 156 167 157 
300 157 167 168 
301 157 168 158 
302 158 168 169 
303 158 169 159 
304 159 169 170 
305 159 170 160 
306 160 170 171 
307 160 171 161 
308 161 171 172 
309 161 172 162 
310 162 172 173 
311 162 173 163 
312 163 173 174 
313 163 174 164 
314 164 174 175 
315 164 175 165 
316 165 175 176 
317 165 176 166 
318 166 176 177 
319 166 177 36 
320 36 177 35 
321 15 16 167 
322 167 16 178 
323 167 178 168 
324 168 178 179 
325 168 179 169 
326 169 179 180 
327 169 180 170 
328 170 180 181 
329 170 181 171 
330 171 181 182 
331 171 182 172 
332 172 182 183 
333 172 183 173 
334 173 183 184 
335 173 184 174 
336 174 184 185 
337 174 185 175 
338 175 185 186 
339 175 186 176 
340 176 186 187 
341 176 187 177 
342 177 187 188 
343 177 188 35 
344 35 188 34 
345 16 17 178 
346 178 17 189 
347 178 189 179 
348 179 189 190 
349 179 190 180 
350 180 190 191 
351 180 191 181 
352 181 191 192 
353 181 192 182 
354 182 192 193 
355 182 193 183 
356 183 193 194 
357 183 194 184 
358 184 194 195 
359 184 195 185 
360 185 195 196 
361 185 196 186 
362 186 196 197 
363 186 197 187 
364 187 197 198 
365 187 198 188 
366 188 198 199 
367 188 199 34 
368 34 199 33 
369 17 18 189 
370 189 18 200 
371 189 200 190 
372 190 200 201 
373 190 201 191 
374 191 201 202 
375 191 202 192 
376 192 202 203 
377 192 203 193 
378 193 203 204 
379 193 204 194 
380 194 204 205 
381 194 205 195 
382 195 205 206 
383 195 206 196 
384 196 206 207 
385 196 207 197 
386 197 207 208 
387 197 208 198 
388 198 208 209 
389 198 209 199 
390 199 209 210 
391 199 210 33 
392 33 210 32 
393 18 19 200 
394 200 19 211 
395 200 211 201 
396 201 211 212 
397 201 212 202 
398 202 212 213 
399 202 213 203 
400 203 213 214 
401 203 214 204 
402 204 214 215 
403 204 215 205 
404 205 215 216 
405 205 216 206 
406 206 216 217 
407 206 217 207 
408 207 217 218 
409 207 218 208 
410 208 218 219 
411 208 219 209 
412 209 219 220 
413 209 220 210 
414 210 220 221 
415 210 221 32 
416 32 221 31 
417 19 2 211 
418 211 2 20 
419 211 20 212 
420 212 20 21 
421 212 21 213 
422 213 21 22 
423 213 22 214 
424 214 22 23 
425 214 23 215 
426 215 23 24 
427 215 24 216 
428 216 24 25 
429 216 25 217 
430 217 25 26 
431 217 26 218 
432 218 26 27 
433 218 27 219 
434 219 27 28 
435 219 28 220 
436 220 28 29 
437 220 29 221 
438 221 29 30 
439 221 30 31 
440 31 30 3 
$EndElements
