$MeshFormat
4.1 0 8
$EndMeshFormat
$PhysicalNames
6
1 1 "Γ¹"
1 2 "Γ²"
1 3 "Γ³"
1 4 "Γ⁴"
1 6 "Γ"
2 5 "Ω"
$EndPhysicalNames
$Entities
4 5 1 0
1 0 0 0 0 
2 1.4 0 0 0 
3 1.4 1 0 0 
4 0 1 0 0 
1 0 0 0 1.4 0 0 1 1 2 1 -2 
2 1.4 0 0 1.4 1 0 1 2 2 2 -3 
3 0 1 0 1.4 1 0 1 3 2 3 -4 
4 0 0 0 0 1 0 1 4 2 4 -1 
5 0 0 0 1.4 1 0 1 6 0 
1 0 0 0 1.4 1 0 1 5 4 1 2 3 4 
$EndEntities
$Nodes
10 234 1 234
0 1 0 1
1
0 0 0
0 2 0 1
2
1.4 0 0
0 3 0 1
3
1.4 1 0
0 4 0 1
4
0 1 0
1 1 0 16
5
6
7
8
9
10
11
12
13
14
15
16
17
18
19
20
0.08235294117629731 0 0
0.1647058823526327 0 0
0.2470588235288871 0 0
0.3294117647051367 0 0
0.4117647058813646 0 0
0.4941176470576143 0 0
0.5764705882338421 0 0
0.6588235294100702 0 0
0.7411764705865429 0 0
0.8235294117632389 0 0
0.9058823529399349 0 0
0.988235294116609 0 0
1.070588235293264 0 0
1.152941176469922 0 0
1.235294117646632 0 0
1.317647058823293 0 0
1 2 0 11
21
22
23
24
25
26
27
28
29
30
31
1.4 0.08333333333317297 0
1.4 0.1666666666663209 0
1.4 0.2499999999994109 0
1.4 0.333333333332501 0
1.4 0.4166666666655911 0
1.4 0.499999999998692 0
1.4 0.5833333333322344 0
1.4 0.6666666666657874 0
1.4 0.7499999999993405 0
1.4 0.8333333333328937 0
1.4 0.9166666666664468 0
1 3 0 16
32
33
34
35
36
37
38
39
40
41
42
43
44
45
46
47
1.317647058823718 1 0
1.235294117647431 1 0
1.152941176471154 1 0
1.070588235294862 1 0
0.9882352941185766 1 0
0.9058823529422797 1 0
0.8235294117660618 1 0
0.7411764705898439 1 0
0.658823529413381 1 0
0.5764705882366943 1 0
0.4941176470600078 1 0
0.4117647058833431 1 0
0.3294117647066979 1 0
0.2470588235300488 1 0
0.1647058823533489 1 0
0.08235294117669745 1 0
1 4 0 11
48
49
50
51
52
53
54
55
56
57
58
0 0.9166666666663197 0
0 0.833333333333102 0
0 0.7500000000003471 0
0 0.6666666666675918 0
0 0.5833333333348364 0
0 0.5000000000020595 0
0 0.416666666668401 0
0 0.3333333333347207 0
0 0.2500000000010405 0
0 0.1666666666673604 0
0 0.0833333333336802 0
1 5 0 0
2 1 0 176
59
60
61
62
63
64
65
66
67
68
69
70
71
72
73
74
75
76
77
78
79
80
81
82
83
84
85
86
87
88
89
90
91
92
93
94
95
96
97
98
99
100
101
102
103
104
105
106
107
108
109
110
111
112
113
114
115
116
117
118
119
120
121
122
123
124
125
126
127
128
129
130
131
132
133
134
135
136
137
138
139
140
141
142
143
144
145
146
147
148
149
150
151
152
153
154
155
156
157
158
159
160
161
162
163
164
165
166
167
168
169
170
171
172
173
174
175
176
177
178
179
180
181
182
183
184
185
186
187
188
189
190
191
192
193
194
195
196
197
198
199
200
201
202
203
204
205
206
207
208
209
210
211
212
213
214
215
216
217
218
219
220
221
222
223
224
225
226
227
228
229
230
231
232
233
234
0.08235294117633066 0.08333333333365037 0
0.08235294117636398 0.1666666666672993 0
0.08235294117639735 0.2500000000009447 0
0.08235294117643072 0.3333333333345902 0
0.08235294117646402 0.4166666666682357 0
0.08235294117649739 0.5000000000018614 0
0.08235294117653072 0.5833333333346833 0
0.08235294117656405 0.6666666666674856 0
0.08235294117659742 0.7500000000002879 0
0.08235294117663075 0.8333333333330897 0
0.08235294117666409 0.9166666666663271 0
0.1647058823526924 0.08333333333362052 0
0.1647058823527521 0.1666666666672381 0
0.1647058823528118 0.2500000000008488 0
0.1647058823528715 0.3333333333344596 0
0.1647058823529311 0.4166666666680705 0
0.1647058823529908 0.5000000000016633 0
0.1647058823530505 0.5833333333345302 0
0.1647058823531102 0.6666666666673795 0
0.1647058823531699 0.7500000000002286 0
0.1647058823532296 0.8333333333330776 0
0.1647058823532893 0.9166666666663348 0
0.2470588235289839 0.08333333333359071 0
0.2470588235290808 0.166666666667177 0
0.2470588235291776 0.2500000000007528 0
0.2470588235292743 0.333333333334329 0
0.2470588235293711 0.4166666666679051 0
0.247058823529468 0.5000000000014651 0
0.2470588235295647 0.5833333333343771 0
0.2470588235296615 0.6666666666672734 0
0.2470588235297584 0.7500000000001696 0
0.2470588235298552 0.8333333333330651 0
0.247058823529952 0.9166666666663422 0
0.3294117647052668 0.08333333333356084 0
0.329411764705397 0.1666666666671158 0
0.3294117647055271 0.250000000000657 0
0.3294117647056571 0.3333333333341985 0
0.3294117647057871 0.4166666666677399 0
0.3294117647059173 0.500000000001267 0
0.3294117647060473 0.5833333333342241 0
0.3294117647061774 0.6666666666671672 0
0.3294117647063076 0.7500000000001104 0
0.3294117647064377 0.8333333333330529 0
0.3294117647065677 0.9166666666663497 0
0.4117647058815295 0.08333333333353103 0
0.4117647058816944 0.1666666666670546 0
0.4117647058818592 0.2500000000005612 0
0.4117647058820242 0.3333333333340678 0
0.4117647058821889 0.4166666666675746 0
0.4117647058823539 0.5000000000010689 0
0.4117647058825186 0.5833333333340711 0
0.4117647058826837 0.6666666666670611 0
0.4117647058828484 0.750000000000051 0
0.4117647058830134 0.8333333333330408 0
0.4117647058831783 0.916666666666357 0
0.4941176470578137 0.08333333333350118 0
0.4941176470580132 0.1666666666669935 0
0.4941176470582127 0.2500000000004653 0
0.4941176470584121 0.3333333333339373 0
0.4941176470586116 0.4166666666674093 0
0.4941176470588111 0.5000000000008709 0
0.4941176470590105 0.5833333333339181 0
0.4941176470592099 0.666666666666955 0
0.4941176470594094 0.749999999999992 0
0.4941176470596089 0.8333333333330284 0
0.4941176470598084 0.9166666666663645 0
0.5764705882340798 0.08333333333347136 0
0.5764705882343174 0.1666666666669324 0
0.5764705882345553 0.2500000000003695 0
0.5764705882347927 0.3333333333338067 0
0.5764705882350305 0.4166666666672439 0
0.5764705882352683 0.5000000000006728 0
0.5764705882355059 0.5833333333337649 0
0.5764705882357435 0.6666666666668488 0
0.5764705882359812 0.7499999999999324 0
0.5764705882362189 0.8333333333330164 0
0.5764705882364567 0.9166666666663721 0
0.6588235294103459 0.08333333333344149 0
0.6588235294106219 0.1666666666668712 0
0.6588235294108979 0.2500000000002737 0
0.6588235294111737 0.3333333333336762 0
0.6588235294114495 0.4166666666670787 0
0.6588235294117257 0.5000000000004747 0
0.6588235294120015 0.5833333333336119 0
0.6588235294122773 0.6666666666667427 0
0.6588235294125533 0.7499999999998732 0
0.6588235294128291 0.8333333333330037 0
0.6588235294131051 0.9166666666663796 0
0.7411764705868178 0.08333333333341168 0
0.741176470587093 0.16666666666681 0
0.741176470587368 0.2500000000001777 0
0.7411764705876431 0.3333333333335456 0
0.7411764705879185 0.4166666666669134 0
0.7411764705881934 0.5000000000002767 0
0.7411764705884685 0.5833333333334589 0
0.7411764705887436 0.6666666666666365 0
0.7411764705890187 0.7499999999998143 0
0.7411764705892938 0.8333333333329919 0
0.7411764705895689 0.916666666666387 0
0.8235294117634743 0.08333333333338182 0
0.8235294117637093 0.1666666666667489 0
0.8235294117639447 0.2500000000000819 0
0.8235294117641798 0.3333333333334149 0
0.823529411764415 0.4166666666667481 0
0.8235294117646503 0.5000000000000786 0
0.8235294117648857 0.5833333333333057 0
0.823529411765121 0.6666666666665304 0
0.8235294117653562 0.749999999999755 0
0.8235294117655911 0.8333333333329794 0
0.8235294117658266 0.9166666666663945 0
0.9058823529401305 0.08333333333335201 0
0.9058823529403257 0.1666666666666878 0
0.9058823529405212 0.2499999999999861 0
0.9058823529407163 0.3333333333332844 0
0.9058823529409121 0.4166666666665828 0
0.9058823529411073 0.4999999999998805 0
0.9058823529413029 0.5833333333331527 0
0.9058823529414983 0.6666666666664243 0
0.9058823529416936 0.7499999999996957 0
0.905882352941889 0.8333333333329672 0
0.9058823529420842 0.9166666666664018 0
0.9882352941167729 0.08333333333332214 0
0.9882352941169372 0.1666666666666266 0
0.9882352941171009 0.2499999999998902 0
0.988235294117265 0.3333333333331539 0
0.9882352941174288 0.4166666666664176 0
0.9882352941175927 0.4999999999996825 0
0.9882352941177568 0.5833333333329997 0
0.9882352941179207 0.6666666666663181 0
0.9882352941180844 0.7499999999996366 0
0.9882352941182484 0.833333333332955 0
0.9882352941184125 0.9166666666664094 0
1.070588235293397 0.08333333333329233 0
1.07058823529353 0.1666666666665655 0
1.070588235293663 0.2499999999997944 0
1.070588235293797 0.3333333333330233 0
1.07058823529393 0.4166666666662522 0
1.070588235294063 0.4999999999994844 0
1.070588235294196 0.5833333333328465 0
1.070588235294329 0.666666666666212 0
1.070588235294462 0.7499999999995773 0
1.070588235294596 0.8333333333329427 0
1.070588235294729 0.9166666666664169 0
1.152941176470025 0.08333333333326247 0
1.152941176470128 0.1666666666665043 0
1.15294117647023 0.2499999999996985 0
1.152941176470333 0.3333333333328928 0
1.152941176470436 0.416666666666087 0
1.152941176470538 0.4999999999992863 0
1.152941176470641 0.5833333333326935 0
1.152941176470744 0.6666666666661059 0
1.152941176470847 0.7499999999995181 0
1.152941176470949 0.8333333333329305 0
1.152941176471052 0.9166666666664245 0
1.235294117646699 0.08333333333323266 0
1.235294117646765 0.1666666666664431 0
1.235294117646832 0.2499999999996027 0
1.235294117646898 0.3333333333327623 0
1.235294117646965 0.4166666666659217 0
1.235294117647032 0.4999999999990883 0
1.235294117647098 0.5833333333325406 0
1.235294117647165 0.6666666666659997 0
1.235294117647231 0.749999999999459 0
1.235294117647298 0.8333333333329181 0
1.235294117647365 0.9166666666664318 0
1.317647058823328 0.08333333333320279 0
1.317647058823364 0.166666666666382 0
1.317647058823399 0.2499999999995067 0
1.317647058823435 0.3333333333326315 0
1.31764705882347 0.4166666666657564 0
1.317647058823506 0.4999999999988901 0
1.317647058823541 0.5833333333323873 0
1.317647058823577 0.6666666666658936 0
1.317647058823612 0.7499999999993997 0
1.317647058823648 0.8333333333329062 0
1.317647058823682 0.9166666666664391 0
$EndNodes
$Elements
6 1690 1 4608
1 1 1 17
1 1 5 
2 5 6 
3 6 7 
4 7 8 
5 8 9 
6 9 10 
7 10 11 
8 11 12 
9 12 13 
10 13 14 
11 14 15 
12 15 16 
13 16 17 
14 17 18 
15 18 19 
16 19 20 
17 20 2 
1 2 1 12
18 2 21 
19 21 22 
20 22 23 
21 23 24 
22 24 25 
23 25 26 
24 26 27 
25 27 28 
26 28 29 
27 29 30 
28 30 31 
29 31 3 
1 3 1 17
30 3 32 
31 32 33 
32 33 34 
33 34 35 
34 35 36 
35 36 37 
36 37 38 
37 38 39 
38 39 40 
39 40 41 
40 41 42 
41 42 43 
42 43 44 
43 44 45 
44 45 46 
45 46 47 
46 47 4 
1 4 1 12
47 4 48 
48 48 49 
49 49 50 
50 50 51 
51 51 52 
52 52 53 
53 53 54 
54 54 55 
55 55 56 
56 56 57 
57 57 58 
58 58 1 
1 5 1 1224
3385 1 5 
3386 5 58 
3387 58 1 
3388 58 5 
3389 5 59 
3390 59 58 
3391 58 59 
3392 59 57 
3393 57 58 
3394 57 59 
3395 59 60 
3396 60 57 
3397 57 60 
3398 60 56 
3399 56 57 
3400 56 60 
3401 60 61 
3402 61 56 
3403 56 61 
3404 61 55 
3405 55 56 
3406 55 61 
3407 61 62 
3408 62 55 
3409 55 62 
3410 62 54 
3411 54 55 
3412 54 62 
3413 62 63 
3414 63 54 
3415 54 63 
3416 63 53 
3417 53 54 
3418 53 63 
3419 63 64 
3420 64 53 
3421 53 64 
3422 64 52 
3423 52 53 
3424 52 64 
3425 64 65 
3426 65 52 
3427 52 65 
3428 65 51 
3429 51 52 
3430 51 65 
3431 65 66 
3432 66 51 
3433 51 66 
3434 66 50 
3435 50 51 
3436 50 66 
3437 66 67 
3438 67 50 
3439 50 67 
3440 67 49 
3441 49 50 
3442 49 67 
3443 67 68 
3444 68 49 
3445 49 68 
3446 68 48 
3447 48 49 
3448 48 68 
3449 68 69 
3450 69 48 
3451 48 69 
3452 69 4 
3453 4 48 
3454 4 69 
3455 69 47 
3456 47 4 
3457 5 6 
3458 6 59 
3459 59 5 
3460 59 6 
3461 6 70 
3462 70 59 
3463 59 70 
3464 70 60 
3465 60 59 
3466 60 70 
3467 70 71 
3468 71 60 
3469 60 71 
3470 71 61 
3471 61 60 
3472 61 71 
3473 71 72 
3474 72 61 
3475 61 72 
3476 72 62 
3477 62 61 
3478 62 72 
3479 72 73 
3480 73 62 
3481 62 73 
3482 73 63 
3483 63 62 
3484 63 73 
3485 73 74 
3486 74 63 
3487 63 74 
3488 74 64 
3489 64 63 
3490 64 74 
3491 74 75 
3492 75 64 
3493 64 75 
3494 75 65 
3495 65 64 
3496 65 75 
3497 75 76 
3498 76 65 
3499 65 76 
3500 76 66 
3501 66 65 
3502 66 76 
3503 76 77 
3504 77 66 
3505 66 77 
3506 77 67 
3507 67 66 
3508 67 77 
3509 77 78 
3510 78 67 
3511 67 78 
3512 78 68 
3513 68 67 
3514 68 78 
3515 78 79 
3516 79 68 
3517 68 79 
3518 79 69 
3519 69 68 
3520 69 79 
3521 79 80 
3522 80 69 
3523 69 80 
3524 80 47 
3525 47 69 
3526 47 80 
3527 80 46 
3528 46 47 
3529 6 7 
3530 7 70 
3531 70 6 
3532 70 7 
3533 7 81 
3534 81 70 
3535 70 81 
3536 81 71 
3537 71 70 
3538 71 81 
3539 81 82 
3540 82 71 
3541 71 82 
3542 82 72 
3543 72 71 
3544 72 82 
3545 82 83 
3546 83 72 
3547 72 83 
3548 83 73 
3549 73 72 
3550 73 83 
3551 83 84 
3552 84 73 
3553 73 84 
3554 84 74 
3555 74 73 
3556 74 84 
3557 84 85 
3558 85 74 
3559 74 85 
3560 85 75 
3561 75 74 
3562 75 85 
3563 85 86 
3564 86 75 
3565 75 86 
3566 86 76 
3567 76 75 
3568 76 86 
3569 86 87 
3570 87 76 
3571 76 87 
3572 87 77 
3573 77 76 
3574 77 87 
3575 87 88 
3576 88 77 
3577 77 88 
3578 88 78 
3579 78 77 
3580 78 88 
3581 88 89 
3582 89 78 
3583 78 89 
3584 89 79 
3585 79 78 
3586 79 89 
3587 89 90 
3588 90 79 
3589 79 90 
3590 90 80 
3591 80 79 
3592 80 90 
3593 90 91 
3594 91 80 
3595 80 91 
3596 91 46 
3597 46 80 
3598 46 91 
3599 91 45 
3600 45 46 
3601 7 8 
3602 8 81 
3603 81 7 
3604 81 8 
3605 8 92 
3606 92 81 
3607 81 92 
3608 92 82 
3609 82 81 
3610 82 92 
3611 92 93 
3612 93 82 
3613 82 93 
3614 93 83 
3615 83 82 
3616 83 93 
3617 93 94 
3618 94 83 
3619 83 94 
3620 94 84 
3621 84 83 
3622 84 94 
3623 94 95 
3624 95 84 
3625 84 95 
3626 95 85 
3627 85 84 
3628 85 95 
3629 95 96 
3630 96 85 
3631 85 96 
3632 96 86 
3633 86 85 
3634 86 96 
3635 96 97 
3636 97 86 
3637 86 97 
3638 97 87 
3639 87 86 
3640 87 97 
3641 97 98 
3642 98 87 
3643 87 98 
3644 98 88 
3645 88 87 
3646 88 98 
3647 98 99 
3648 99 88 
3649 88 99 
3650 99 89 
3651 89 88 
3652 89 99 
3653 99 100 
3654 100 89 
3655 89 100 
3656 100 90 
3657 90 89 
3658 90 100 
3659 100 101 
3660 101 90 
3661 90 101 
3662 101 91 
3663 91 90 
3664 91 101 
3665 101 102 
3666 102 91 
3667 91 102 
3668 102 45 
3669 45 91 
3670 45 102 
3671 102 44 
3672 44 45 
3673 8 9 
3674 9 92 
3675 92 8 
3676 92 9 
3677 9 103 
3678 103 92 
3679 92 103 
3680 103 93 
3681 93 92 
3682 93 103 
3683 103 104 
3684 104 93 
3685 93 104 
3686 104 94 
3687 94 93 
3688 94 104 
3689 104 105 
3690 105 94 
3691 94 105 
3692 105 95 
3693 95 94 
3694 95 105 
3695 105 106 
3696 106 95 
3697 95 106 
3698 106 96 
3699 96 95 
3700 96 106 
3701 106 107 
3702 107 96 
3703 96 107 
3704 107 97 
3705 97 96 
3706 97 107 
3707 107 108 
3708 108 97 
3709 97 108 
3710 108 98 
3711 98 97 
3712 98 108 
3713 108 109 
3714 109 98 
3715 98 109 
3716 109 99 
3717 99 98 
3718 99 109 
3719 109 110 
3720 110 99 
3721 99 110 
3722 110 100 
3723 100 99 
3724 100 110 
3725 110 111 
3726 111 100 
3727 100 111 
3728 111 101 
3729 101 100 
3730 101 111 
3731 111 112 
3732 112 101 
3733 101 112 
3734 112 102 
3735 102 101 
3736 102 112 
3737 112 113 
3738 113 102 
3739 102 113 
3740 113 44 
3741 44 102 
3742 44 113 
3743 113 43 
3744 43 44 
3745 9 10 
3746 10 103 
3747 103 9 
3748 103 10 
3749 10 114 
3750 114 103 
3751 103 114 
3752 114 104 
3753 104 103 
3754 104 114 
3755 114 115 
3756 115 104 
3757 104 115 
3758 115 105 
3759 105 104 
3760 105 115 
3761 115 116 
3762 116 105 
3763 105 116 
3764 116 106 
3765 106 105 
3766 106 116 
3767 116 117 
3768 117 106 
3769 106 117 
3770 117 107 
3771 107 106 
3772 107 117 
3773 117 118 
3774 118 107 
3775 107 118 
3776 118 108 
3777 108 107 
3778 108 118 
3779 118 119 
3780 119 108 
3781 108 119 
3782 119 109 
3783 109 108 
3784 109 119 
3785 119 120 
3786 120 109 
3787 109 120 
3788 120 110 
3789 110 109 
3790 110 120 
3791 120 121 
3792 121 110 
3793 110 121 
3794 121 111 
3795 111 110 
3796 111 121 
3797 121 122 
3798 122 111 
3799 111 122 
3800 122 112 
3801 112 111 
3802 112 122 
3803 122 123 
3804 123 112 
3805 112 123 
3806 123 113 
3807 113 112 
3808 113 123 
3809 123 124 
3810 124 113 
3811 113 124 
3812 124 43 
3813 43 113 
3814 43 124 
3815 124 42 
3816 42 43 
3817 10 11 
3818 11 114 
3819 114 10 
3820 114 11 
3821 11 125 
3822 125 114 
3823 114 125 
3824 125 115 
3825 115 114 
3826 115 125 
3827 125 126 
3828 126 115 
3829 115 126 
3830 126 116 
3831 116 115 
3832 116 126 
3833 126 127 
3834 127 116 
3835 116 127 
3836 127 117 
3837 117 116 
3838 117 127 
3839 127 128 
3840 128 117 
3841 117 128 
3842 128 118 
3843 118 117 
3844 118 128 
3845 128 129 
3846 129 118 
3847 118 129 
3848 129 119 
3849 119 118 
3850 119 129 
3851 129 130 
3852 130 119 
3853 119 130 
3854 130 120 
3855 120 119 
3856 120 130 
3857 130 131 
3858 131 120 
3859 120 131 
3860 131 121 
3861 121 120 
3862 121 131 
3863 131 132 
3864 132 121 
3865 121 132 
3866 132 122 
3867 122 121 
3868 122 132 
3869 132 133 
3870 133 122 
3871 122 133 
3872 133 123 
3873 123 122 
3874 123 133 
3875 133 134 
3876 134 123 
3877 123 134 
3878 134 124 
3879 124 123 
3880 124 134 
3881 134 135 
3882 135 124 
3883 124 135 
3884 135 42 
3885 42 124 
3886 42 135 
3887 135 41 
3888 41 42 
3889 11 12 
3890 12 125 
3891 125 11 
3892 125 12 
3893 12 136 
3894 136 125 
3895 125 136 
3896 136 126 
3897 126 125 
3898 126 136 
3899 136 137 
3900 137 126 
3901 126 137 
3902 137 127 
3903 127 126 
3904 127 137 
3905 137 138 
3906 138 127 
3907 127 138 
3908 138 128 
3909 128 127 
3910 128 138 
3911 138 139 
3912 139 128 
3913 128 139 
3914 139 129 
3915 129 128 
3916 129 139 
3917 139 140 
3918 140 129 
3919 129 140 
3920 140 130 
3921 130 129 
3922 130 140 
3923 140 141 
3924 141 130 
3925 130 141 
3926 141 131 
3927 131 130 
3928 131 141 
3929 141 142 
3930 142 131 
3931 131 142 
3932 142 132 
3933 132 131 
3934 132 142 
3935 142 143 
3936 143 132 
3937 132 143 
3938 143 133 
3939 133 132 
3940 133 143 
3941 143 144 
3942 144 133 
3943 133 144 
3944 144 134 
3945 134 133 
3946 134 144 
3947 144 145 
3948 145 134 
3949 134 145 
3950 145 135 
3951 135 134 
3952 135 145 
3953 145 146 
3954 146 135 
3955 135 146 
3956 146 41 
3957 41 135 
3958 41 146 
3959 146 40 
3960 40 41 
3961 12 13 
3962 13 136 
3963 136 12 
3964 136 13 
3965 13 147 
3966 147 136 
3967 136 147 
3968 147 137 
3969 137 136 
3970 137 147 
3971 147 148 
3972 148 137 
3973 137 148 
3974 148 138 
3975 138 137 
3976 138 148 
3977 148 149 
3978 149 138 
3979 138 149 
3980 149 139 
3981 139 138 
3982 139 149 
3983 149 150 
3984 150 139 
3985 139 150 
3986 150 140 
3987 140 139 
3988 140 150 
3989 150 151 
3990 151 140 
3991 140 151 
3992 151 141 
3993 141 140 
3994 141 151 
3995 151 152 
3996 152 141 
3997 141 152 
3998 152 142 
3999 142 141 
4000 142 152 
4001 152 153 
4002 153 142 
4003 142 153 
4004 153 143 
4005 143 142 
4006 143 153 
4007 153 154 
4008 154 143 
4009 143 154 
4010 154 144 
4011 144 143 
4012 144 154 
4013 154 155 
4014 155 144 
4015 144 155 
4016 155 145 
4017 145 144 
4018 145 155 
4019 155 156 
4020 156 145 
4021 145 156 
4022 156 146 
4023 146 145 
4024 146 156 
4025 156 157 
4026 157 146 
4027 146 157 
4028 157 40 
4029 40 146 
4030 40 157 
4031 157 39 
4032 39 40 
4033 13 14 
4034 14 147 
4035 147 13 
4036 147 14 
4037 14 158 
4038 158 147 
4039 147 158 
4040 158 148 
4041 148 147 
4042 148 158 
4043 158 159 
4044 159 148 
4045 148 159 
4046 159 149 
4047 149 148 
4048 149 159 
4049 159 160 
4050 160 149 
4051 149 160 
4052 160 150 
4053 150 149 
4054 150 160 
4055 160 161 
4056 161 150 
4057 150 161 
4058 161 151 
4059 151 150 
4060 151 161 
4061 161 162 
4062 162 151 
4063 151 162 
4064 162 152 
4065 152 151 
4066 152 162 
4067 162 163 
4068 163 152 
4069 152 163 
4070 163 153 
4071 153 152 
4072 153 163 
4073 163 164 
4074 164 153 
4075 153 164 
4076 164 154 
4077 154 153 
4078 154 164 
4079 164 165 
4080 165 154 
4081 154 165 
4082 165 155 
4083 155 154 
4084 155 165 
4085 165 166 
4086 166 155 
4087 155 166 
4088 166 156 
4089 156 155 
4090 156 166 
4091 166 167 
4092 167 156 
4093 156 167 
4094 167 157 
4095 157 156 
4096 157 167 
4097 167 168 
4098 168 157 
4099 157 168 
4100 168 39 
4101 39 157 
4102 39 168 
4103 168 38 
4104 38 39 
4105 14 15 
4106 15 158 
4107 158 14 
4108 158 15 
4109 15 169 
4110 169 158 
4111 158 169 
4112 169 159 
4113 159 158 
4114 159 169 
4115 169 170 
4116 170 159 
4117 159 170 
4118 170 160 
4119 160 159 
4120 160 170 
4121 170 171 
4122 171 160 
4123 160 171 
4124 171 161 
4125 161 160 
4126 161 171 
4127 171 172 
4128 172 161 
4129 161 172 
4130 172 162 
4131 162 161 
4132 162 172 
4133 172 173 
4134 173 162 
4135 162 173 
4136 173 163 
4137 163 162 
4138 163 173 
4139 173 174 
4140 174 163 
4141 163 174 
4142 174 164 
4143 164 163 
4144 164 174 
4145 174 175 
4146 175 164 
4147 164 175 
4148 175 165 
4149 165 164 
4150 165 175 
4151 175 176 
4152 176 165 
4153 165 176 
4154 176 166 
4155 166 165 
4156 166 176 
4157 176 177 
4158 177 166 
4159 166 177 
4160 177 167 
4161 167 166 
4162 167 177 
4163 177 178 
4164 178 167 
4165 167 178 
4166 178 168 
4167 168 167 
4168 168 178 
4169 178 179 
4170 179 168 
4171 168 179 
4172 179 38 
4173 38 168 
4174 38 179 
4175 179 37 
4176 37 38 
4177 15 16 
4178 16 169 
4179 169 15 
4180 169 16 
4181 16 180 
4182 180 169 
4183 169 180 
4184 180 170 
4185 170 169 
4186 170 180 
4187 180 181 
4188 181 170 
4189 170 181 
4190 181 171 
4191 171 170 
4192 171 181 
4193 181 182 
4194 182 171 
4195 171 182 
4196 182 172 
4197 172 171 
4198 172 182 
4199 182 183 
4200 183 172 
4201 172 183 
4202 183 173 
4203 173 172 
4204 173 183 
4205 183 184 
4206 184 173 
4207 173 184 
4208 184 174 
4209 174 173 
4210 174 184 
4211 184 185 
4212 185 174 
4213 174 185 
4214 185 175 
4215 175 174 
4216 175 185 
4217 185 186 
4218 186 175 
4219 175 186 
4220 186 176 
4221 176 175 
4222 176 186 
4223 186 187 
4224 187 176 
4225 176 187 
4226 187 177 
4227 177 176 
4228 177 187 
4229 187 188 
4230 188 177 
4231 177 188 
4232 188 178 
4233 178 177 
4234 178 188 
4235 188 189 
4236 189 178 
4237 178 189 
4238 189 179 
4239 179 178 
4240 179 189 
4241 189 190 
4242 190 179 
4243 179 190 
4244 190 37 
4245 37 179 
4246 37 190 
4247 190 36 
4248 36 37 
4249 16 17 
4250 17 180 
4251 180 16 
4252 180 17 
4253 17 191 
4254 191 180 
4255 180 191 
4256 191 181 
4257 181 180 
4258 181 191 
4259 191 192 
4260 192 181 
4261 181 192 
4262 192 182 
4263 182 181 
4264 182 192 
4265 192 193 
4266 193 182 
4267 182 193 
4268 193 183 
4269 183 182 
4270 183 193 
4271 193 194 
4272 194 183 
4273 183 194 
4274 194 184 
4275 184 183 
4276 184 194 
4277 194 195 
4278 195 184 
4279 184 195 
4280 195 185 
4281 185 184 
4282 185 195 
4283 195 196 
4284 196 185 
4285 185 196 
4286 196 186 
4287 186 185 
4288 186 196 
4289 196 197 
4290 197 186 
4291 186 197 
4292 197 187 
4293 187 186 
4294 187 197 
4295 197 198 
4296 198 187 
4297 187 198 
4298 198 188 
4299 188 187 
4300 188 198 
4301 198 199 
4302 199 188 
4303 188 199 
4304 199 189 
4305 189 188 
4306 189 199 
4307 199 200 
4308 200 189 
4309 189 200 
4310 200 190 
4311 190 189 
4312 190 200 
4313 200 201 
4314 201 190 
4315 190 201 
4316 201 36 
4317 36 190 
4318 36 201 
4319 201 35 
4320 35 36 
4321 17 18 
4322 18 191 
4323 191 17 
4324 191 18 
4325 18 202 
4326 202 191 
4327 191 202 
4328 202 192 
4329 192 191 
4330 192 202 
4331 202 203 
4332 203 192 
4333 192 203 
4334 203 193 
4335 193 192 
4336 193 203 
4337 203 204 
4338 204 193 
4339 193 204 
4340 204 194 
4341 194 193 
4342 194 204 
4343 204 205 
4344 205 194 
4345 194 205 
4346 205 195 
4347 195 194 
4348 195 205 
4349 205 206 
4350 206 195 
4351 195 206 
4352 206 196 
4353 196 195 
4354 196 206 
4355 206 207 
4356 207 196 
4357 196 207 
4358 207 197 
4359 197 196 
4360 197 207 
4361 207 208 
4362 208 197 
4363 197 208 
4364 208 198 
4365 198 197 
4366 198 208 
4367 208 209 
4368 209 198 
4369 198 209 
4370 209 199 
4371 199 198 
4372 199 209 
4373 209 210 
4374 210 199 
4375 199 210 
4376 210 200 
4377 200 199 
4378 200 210 
4379 210 211 
4380 211 200 
4381 200 211 
4382 211 201 
4383 201 200 
4384 201 211 
4385 211 212 
4386 212 201 
4387 201 212 
4388 212 35 
4389 35 201 
4390 35 212 
4391 212 34 
4392 34 35 
4393 18 19 
4394 19 202 
4395 202 18 
4396 202 19 
4397 19 213 
4398 213 202 
4399 202 213 
4400 213 203 
4401 203 202 
4402 203 213 
4403 213 214 
4404 214 203 
4405 203 214 
4406 214 204 
4407 204 203 
4408 204 214 
4409 214 215 
4410 215 204 
4411 204 215 
4412 215 205 
4413 205 204 
4414 205 215 
4415 215 216 
4416 216 205 
4417 205 216 
4418 216 206 
4419 206 205 
4420 206 216 
4421 216 217 
4422 217 206 
4423 206 217 
4424 217 207 
4425 207 206 
4426 207 217 
4427 217 218 
4428 218 207 
4429 207 218 
4430 218 208 
4431 208 207 
4432 208 218 
4433 218 219 
4434 219 208 
4435 208 219 
4436 219 209 
4437 209 208 
4438 209 219 
4439 219 220 
4440 220 209 
4441 209 220 
4442 220 210 
4443 210 209 
4444 210 220 
4445 220 221 
4446 221 210 
4447 210 221 
4448 221 211 
4449 211 210 
4450 211 221 
4451 221 222 
4452 222 211 
4453 211 222 
4454 222 212 
4455 212 211 
4456 212 222 
4457 222 223 
4458 223 212 
4459 212 223 
4460 223 34 
4461 34 212 
4462 34 223 
4463 223 33 
4464 33 34 
4465 19 20 
4466 20 213 
4467 213 19 
4468 213 20 
4469 20 224 
4470 224 213 
4471 213 224 
4472 224 214 
4473 214 213 
4474 214 224 
4475 224 225 
4476 225 214 
4477 214 225 
4478 225 215 
4479 215 214 
4480 215 225 
4481 225 226 
4482 226 215 
4483 215 226 
4484 226 216 
4485 216 215 
4486 216 226 
4487 226 227 
4488 227 216 
4489 216 227 
4490 227 217 
4491 217 216 
4492 217 227 
4493 227 228 
4494 228 217 
4495 217 228 
4496 228 218 
4497 218 217 
4498 218 228 
4499 228 229 
4500 229 218 
4501 218 229 
4502 229 219 
4503 219 218 
4504 219 229 
4505 229 230 
4506 230 219 
4507 219 230 
4508 230 220 
4509 220 219 
4510 220 230 
4511 230 231 
4512 231 220 
4513 220 231 
4514 231 221 
4515 221 220 
4516 221 231 
4517 231 232 
4518 232 221 
4519 221 232 
4520 232 222 
4521 222 221 
4522 222 232 
4523 232 233 
4524 233 222 
4525 222 233 
4526 233 223 
4527 223 222 
4528 223 233 
4529 233 234 
4530 234 223 
4531 223 234 
4532 234 33 
4533 33 223 
4534 33 234 
4535 234 32 
4536 32 33 
4537 20 2 
4538 2 224 
4539 224 20 
4540 224 2 
4541 2 21 
4542 21 224 
4543 224 21 
4544 21 225 
4545 225 224 
4546 225 21 
4547 21 22 
4548 22 225 
4549 225 22 
4550 22 226 
4551 226 225 
4552 226 22 
4553 22 23 
4554 23 226 
4555 226 23 
4556 23 227 
4557 227 226 
4558 227 23 
4559 23 24 
4560 24 227 
4561 227 24 
4562 24 228 
4563 228 227 
4564 228 24 
4565 24 25 
4566 25 228 
4567 228 25 
4568 25 229 
4569 229 228 
4570 229 25 
4571 25 26 
4572 26 229 
4573 229 26 
4574 26 230 
4575 230 229 
4576 230 26 
4577 26 27 
4578 27 230 
4579 230 27 
4580 27 231 
4581 231 230 
4582 231 27 
4583 27 28 
4584 28 231 
4585 231 28 
4586 28 232 
4587 232 231 
4588 232 28 
4589 28 29 
4590 29 232 
4591 232 29 
4592 29 233 
4593 233 232 
4594 233 29 
4595 29 30 
4596 30 233 
4597 233 30 
4598 30 234 
4599 234 233 
4600 234 30 
4601 30 31 
4602 31 234 
4603 234 31 
4604 31 32 
4605 32 234 
4606 32 31 
4607 31 3 
4608 3 32 
2 1 2 408
59 1 5 58 
60 58 5 59 
61 58 59 57 
62 57 59 60 
63 57 60 56 
64 56 60 61 
65 56 61 55 
66 55 61 62 
67 55 62 54 
68 54 62 63 
69 54 63 53 
70 53 63 64 
71 53 64 52 
72 52 64 65 
73 52 65 51 
74 51 65 66 
75 51 66 50 
76 50 66 67 
77 50 67 49 
78 49 67 68 
79 49 68 48 
80 48 68 69 
81 48 69 4 
82 4 69 47 
83 5 6 59 
84 59 6 70 
85 59 70 60 
86 60 70 71 
87 60 71 61 
88 61 71 72 
89 61 72 62 
90 62 72 73 
91 62 73 63 
92 63 73 74 
93 63 74 64 
94 64 74 75 
95 64 75 65 
96 65 75 76 
97 65 76 66 
98 66 76 77 
99 66 77 67 
100 67 77 78 
101 67 78 68 
102 68 78 79 
103 68 79 69 
104 69 79 80 
105 69 80 47 
106 47 80 46 
107 6 7 70 
108 70 7 81 
109 70 81 71 
110 71 81 82 
111 71 82 72 
112 72 82 83 
113 72 83 73 
114 73 83 84 
115 73 84 74 
116 74 84 85 
117 74 85 75 
118 75 85 86 
119 75 86 76 
120 76 86 87 
121 76 87 77 
122 77 87 88 
123 77 88 78 
124 78 88 89 
125 78 89 79 
126 79 89 90 
127 79 90 80 
128 80 90 91 
129 80 91 46 
130 46 91 45 
131 7 8 81 
132 81 8 92 
133 81 92 82 
134 82 92 93 
135 82 93 83 
136 83 93 94 
137 83 94 84 
138 84 94 95 
139 84 95 85 
140 85 95 96 
141 85 96 86 
142 86 96 97 
143 86 97 87 
144 87 97 98 
145 87 98 88 
146 88 98 99 
147 88 99 89 
148 89 99 100 
149 89 100 90 
150 90 100 101 
151 90 101 91 
152 91 101 102 
153 91 102 45 
154 45 102 44 
155 8 9 92 
156 92 9 103 
157 92 103 93 
158 93 103 104 
159 93 104 94 
160 94 104 105 
161 94 105 95 
162 95 105 106 
163 95 106 96 
164 96 106 107 
165 96 107 97 
166 97 107 108 
167 97 108 98 
168 98 108 109 
169 98 109 99 
170 99 109 110 
171 99 110 100 
172 100 110 111 
173 100 111 101 
174 101 111 112 
175 101 112 102 
176 102 112 113 
177 102 113 44 
178 44 113 43 
179 9 10 103 
180 103 10 114 
181 103 114 104 
182 104 114 115 
183 104 115 105 
184 105 115 116 
185 105 116 106 
186 106 116 117 
187 106 117 107 
188 107 117 118 
189 107 118 108 
190 108 118 119 
191 108 119 109 
192 109 119 120 
193 109 120 110 
194 110 120 121 
195 110 121 111 
196 111 121 122 
197 111 122 112 
198 112 122 123 
199 112 123 113 
200 113 123 124 
201 113 124 43 
202 43 124 42 
203 10 11 114 
204 114 11 125 
205 114 125 115 
206 115 125 126 
207 115 126 116 
208 116 126 127 
209 116 127 117 
210 117 127 128 
211 117 128 118 
212 118 128 129 
213 118 129 119 
214 119 129 130 
215 119 130 120 
216 120 130 131 
217 120 131 121 
218 121 131 132 
219 121 132 122 
220 122 132 133 
221 122 133 123 
222 123 133 134 
223 123 134 124 
224 124 134 135 
225 124 135 42 
226 42 135 41 
227 11 12 125 
228 125 12 136 
229 125 136 126 
230 126 136 137 
231 126 137 127 
232 127 137 138 
233 127 138 128 
234 128 138 139 
235 128 139 129 
236 129 139 140 
237 129 140 130 
238 130 140 141 
239 130 141 131 
240 131 141 142 
241 131 142 132 
242 132 142 143 
243 132 143 133 
244 133 143 144 
245 133 144 134 
246 134 144 145 
247 134 145 135 
248 135 145 146 
249 135 146 41 
250 41 146 40 
251 12 13 136 
252 136 13 147 
253 136 147 137 
254 137 147 148 
255 137 148 138 
256 138 148 149 
257 138 149 139 
258 139 149 150 
259 139 150 140 
260 140 150 151 
261 140 151 141 
262 141 151 152 
263 141 152 142 
264 142 152 153 
265 142 153 143 
266 143 153 154 
267 143 154 144 
268 144 154 155 
269 144 155 145 
270 145 155 156 
271 145 156 146 
272 146 156 157 
273 146 157 40 
274 40 157 39 
275 13 14 147 
276 147 14 158 
277 147 158 148 
278 148 158 159 
279 148 159 149 
280 149 159 160 
281 149 160 150 
282 150 160 161 
283 150 161 151 
284 151 161 162 
285 151 162 152 
286 152 162 163 
287 152 163 153 
288 153 163 164 
289 153 164 154 
290 154 164 165 
291 154 165 155 
292 155 165 166 
293 155 166 156 
294 156 166 167 
295 156 167 157 
296 157 167 168 
297 157 168 39 
298 39 168 38 
299 14 15 158 
300 158 15 169 
301 158 169 159 
302 159 169 170 
303 159 170 160 
304 160 170 171 
305 160 171 161 
306 161 171 172 
307 161 172 162 
308 162 172 173 
309 162 173 163 
310 163 173 174 
311 163 174 164 
312 164 174 175 
313 164 175 165 
314 165 175 176 
315 165 176 166 
316 166 176 177 
317 166 177 167 
318 167 177 178 
319 167 178 168 
320 168 178 179 
321 168 179 38 
322 38 179 37 
323 15 16 169 
324 169 16 180 
325 169 180 170 
326 170 180 181 
327 170 181 171 
328 171 181 182 
329 171 182 172 
330 172 182 183 
331 172 183 173 
332 173 183 184 
333 173 184 174 
334 174 184 185 
335 174 185 175 
336 175 185 186 
337 175 186 176 
338 176 186 187 
339 176 187 177 
340 177 187 188 
341 177 188 178 
342 178 188 189 
343 178 189 179 
344 179 189 190 
345 179 190 37 
346 37 190 36 
347 16 17 180 
348 180 17 191 
349 180 191 181 
350 181 191 192 
351 181 192 182 
352 182 192 193 
353 182 193 183 
354 183 193 194 
355 183 194 184 
356 184 194 195 
357 184 195 185 
358 185 195 196 
359 185 196 186 
360 186 196 197 
361 186 197 187 
362 187 197 198 
363 187 198 188 
364 188 198 199 
365 188 199 189 
366 189 199 200 
367 189 200 190 
368 190 200 201 
369 190 201 36 
370 36 201 35 
371 17 18 191 
372 191 18 202 
373 191 202 192 
374 192 202 203 
375 192 203 193 
376 193 203 204 
377 193 204 194 
378 194 204 205 
379 194 205 195 
380 195 205 206 
381 195 206 196 
382 196 206 207 
383 196 207 197 
384 197 207 208 
385 197 208 198 
386 198 208 209 
387 198 209 199 
388 199 209 210 
389 199 210 200 
390 200 210 211 
391 200 211 201 
392 201 211 212 
393 201 212 35 
394 35 212 34 
395 18 19 202 
396 202 19 213 
397 202 213 203 
398 203 213 214 
399 203 214 204 
400 204 214 215 
401 204 215 205 
402 205 215 216 
403 205 216 206 
404 206 216 217 
405 206 217 207 
406 207 217 218 
407 207 218 208 
408 208 218 219 
409 208 219 209 
410 209 219 220 
411 209 220 210 
412 210 220 221 
413 210 221 211 
414 211 221 222 
415 211 222 212 
416 212 222 223 
417 212 223 34 
418 34 223 33 
419 19 20 213 
420 213 20 224 
421 213 224 214 
422 214 224 225 
423 214 225 215 
424 215 225 226 
425 215 226 216 
426 216 226 227 
427 216 227 217 
428 217 227 228 
429 217 228 218 
430 218 228 229 
431 218 229 219 
432 219 229 230 
433 219 230 220 
434 220 230 231 
435 220 231 221 
436 221 231 232 
437 221 232 222 
438 222 232 233 
439 222 233 223 
440 223 233 234 
441 223 234 33 
442 33 234 32 
443 20 2 224 
444 224 2 21 
445 224 21 225 
446 225 21 22 
447 225 22 226 
448 226 22 23 
449 226 23 227 
450 227 23 24 
451 227 24 228 
452 228 24 25 
453 228 25 229 
454 229 25 26 
455 229 26 230 
456 230 26 27 
457 230 27 231 
458 231 27 28 
459 231 28 232 
460 232 28 29 
461 232 29 233 
462 233 29 30 
463 233 30 234 
464 234 30 31 
465 234 31 32 
466 32 31 3 
$EndElements
