$MeshFormat
4.1 0 8
$EndMeshFormat
$PhysicalNames
6
1 1 "Γ¹"
1 2 "Γ²"
1 3 "Γ³"
1 4 "Γ⁴"
1 6 "Γ"
2 5 "Ω"
$EndPhysicalNames
$Entities
4 5 1 0
1 0 0 0 0 
2 0.9 0 0 0 
3 0.9 1 0 0 
4 0 1 0 0 
1 0 0 0 0.9 0 0 1 1 2 1 -2 
2 0.9 0 0 0.9 1 0 1 2 2 2 -3 
3 0 1 0 0.9 1 0 1 3 2 3 -4 
4 0 0 0 0 1 0 1 4 2 4 -1 
5 0 0 0 0.9 1 0 1 6 0 
1 0 0 0 0.9 1 0 1 5 4 1 2 3 4 
$EndEntities
$Nodes
10 156 1 156
0 1 0 1
1
0 0 0
0 2 0 1
2
0.9 0 0
0 3 0 1
3
0.9 1 0
0 4 0 1
4
0 1 0
1 1 0 10
5
6
7
8
9
10
11
12
13
14
0.0818181818180336 0 0
0.1636363636360194 0 0
0.2454545454539633 0 0
0.3272727272719071 0 0
0.409090909089851 0 0
0.4909090909080061 0 0
0.5727272727264108 0 0
0.6545454545448046 0 0
0.7363636363632102 0 0
0.8181818181816082 0 0
1 2 0 11
15
16
17
18
19
20
21
22
23
24
25
0.9 0.08333333333317297 0
0.9 0.1666666666663209 0
0.9 0.2499999999994109 0
0.9 0.333333333332501 0
0.9 0.4166666666655911 0
0.9 0.499999999998692 0
0.9 0.5833333333322344 0
0.9 0.6666666666657874 0
0.9 0.7499999999993405 0
0.9 0.8333333333328937 0
0.9 0.9166666666664468 0
1 3 0 10
26
27
28
29
30
31
32
33
34
35
0.8181818181819189 1 0
0.7363636363638594 1 0
0.654545454545863 1 0
0.572727272727991 1 0
0.4909090909101081 1 0
0.4090909090919599 1 0
0.327272727273562 1 0
0.2454545454551751 1 0
0.1636363636367761 1 0
0.08181818181838507 1 0
1 4 0 11
36
37
38
39
40
41
42
43
44
45
46
0 0.9166666666663197 0
0 0.833333333333102 0
0 0.7500000000003471 0
0 0.6666666666675918 0
0 0.5833333333348364 0
0 0.5000000000020595 0
0 0.416666666668401 0
0 0.3333333333347207 0
0 0.2500000000010405 0
0 0.1666666666673604 0
0 0.0833333333336802 0
1 5 0 0
2 1 0 110
47
48
49
50
51
52
53
54
55
56
57
58
59
60
61
62
63
64
65
66
67
68
69
70
71
72
73
74
75
76
77
78
79
80
81
82
83
84
85
86
87
88
89
90
91
92
93
94
95
96
97
98
99
100
101
102
103
104
105
106
107
108
109
110
111
112
113
114
115
116
117
118
119
120
121
122
123
124
125
126
127
128
129
130
131
132
133
134
135
136
137
138
139
140
141
142
143
144
145
146
147
148
149
150
151
152
153
154
155
156
0.08181818181806289 0.08333333333363406 0
0.08181818181809217 0.1666666666672658 0
0.08181818181812148 0.2500000000008922 0
0.08181818181815076 0.3333333333345188 0
0.08181818181818004 0.4166666666681455 0
0.08181818181820935 0.5000000000017532 0
0.08181818181823863 0.5833333333345995 0
0.08181818181826792 0.6666666666674277 0
0.08181818181829723 0.7500000000002552 0
0.08181818181832651 0.8333333333330829 0
0.08181818181835579 0.916666666666331 0
0.1636363636360825 0.08333333333358796 0
0.1636363636361455 0.1666666666671713 0
0.1636363636362086 0.2500000000007442 0
0.1636363636362717 0.3333333333343171 0
0.1636363636363347 0.41666666666789 0
0.1636363636363978 0.5000000000014468 0
0.1636363636364608 0.5833333333343631 0
0.1636363636365239 0.6666666666672634 0
0.163636363636587 0.7500000000001638 0
0.16363636363665 0.8333333333330638 0
0.1636363636367131 0.9166666666663428 0
0.2454545454540643 0.08333333333354186 0
0.2454545454541652 0.1666666666670768 0
0.2454545454542662 0.250000000000596 0
0.2454545454543672 0.3333333333341152 0
0.2454545454544682 0.4166666666676346 0
0.2454545454545691 0.5000000000011409 0
0.2454545454546702 0.5833333333341263 0
0.2454545454547711 0.6666666666670995 0
0.2454545454548721 0.7500000000000723 0
0.2454545454549731 0.8333333333330452 0
0.2454545454550741 0.9166666666663544 0
0.327272727272045 0.08333333333349571 0
0.327272727272183 0.1666666666669823 0
0.3272727272723209 0.2500000000004478 0
0.3272727272724588 0.3333333333339134 0
0.3272727272725968 0.4166666666673791 0
0.3272727272727346 0.5000000000008348 0
0.3272727272728725 0.58333333333389 0
0.3272727272730104 0.6666666666669355 0
0.3272727272731484 0.7499999999999808 0
0.3272727272732862 0.8333333333330261 0
0.3272727272734243 0.9166666666663659 0
0.4090909090900268 0.0833333333334496 0
0.4090909090902025 0.1666666666668878 0
0.4090909090903783 0.2500000000002996 0
0.409090909090554 0.3333333333337116 0
0.4090909090907298 0.4166666666671238 0
0.4090909090909054 0.5000000000005285 0
0.4090909090910811 0.5833333333336536 0
0.409090909091257 0.6666666666667713 0
0.4090909090914326 0.7499999999998893 0
0.4090909090916084 0.833333333333007 0
0.4090909090917842 0.9166666666663773 0
0.4909090909081812 0.08333333333340352 0
0.4909090909083563 0.1666666666667933 0
0.4909090909085315 0.2500000000001515 0
0.4909090909087067 0.3333333333335098 0
0.4909090909088819 0.4166666666668681 0
0.4909090909090571 0.5000000000002224 0
0.4909090909092323 0.5833333333334167 0
0.4909090909094075 0.6666666666666075 0
0.4909090909095827 0.7499999999997978 0
0.4909090909097579 0.8333333333329883 0
0.490909090909933 0.916666666666389 0
0.5727272727265426 0.08333333333335739 0
0.5727272727266742 0.1666666666666988 0
0.5727272727268057 0.2500000000000034 0
0.5727272727269376 0.3333333333333081 0
0.5727272727270694 0.4166666666666128 0
0.572727272727201 0.4999999999999163 0
0.5727272727273327 0.5833333333331802 0
0.5727272727274643 0.6666666666664434 0
0.572727272727596 0.7499999999997063 0
0.5727272727277276 0.8333333333329692 0
0.5727272727278593 0.9166666666664005 0
0.6545454545448929 0.08333333333331126 0
0.654545454544981 0.1666666666666043 0
0.6545454545450694 0.2499999999998554 0
0.6545454545451574 0.3333333333331063 0
0.6545454545452457 0.4166666666663574 0
0.6545454545453339 0.4999999999996103 0
0.654545454545422 0.5833333333329438 0
0.6545454545455102 0.6666666666662793 0
0.6545454545455983 0.7499999999996149 0
0.6545454545456867 0.8333333333329503 0
0.6545454545457746 0.9166666666664122 0
0.7363636363632642 0.08333333333326516 0
0.7363636363633184 0.1666666666665098 0
0.7363636363633727 0.2499999999997072 0
0.7363636363634265 0.3333333333329045 0
0.7363636363634807 0.4166666666661019 0
0.7363636363635349 0.4999999999993042 0
0.7363636363635888 0.583333333332707 0
0.736363636363643 0.6666666666661154 0
0.7363636363636969 0.7499999999995234 0
0.7363636363637511 0.8333333333329315 0
0.7363636363638053 0.9166666666664236 0
0.8181818181816342 0.08333333333321906 0
0.8181818181816599 0.1666666666664153 0
0.8181818181816859 0.249999999999559 0
0.8181818181817115 0.3333333333327027 0
0.8181818181817375 0.4166666666658465 0
0.8181818181817636 0.499999999998998 0
0.8181818181817895 0.5833333333324708 0
0.8181818181818152 0.6666666666659511 0
0.8181818181818411 0.7499999999994319 0
0.818181818181867 0.8333333333329124 0
0.818181818181893 0.9166666666664351 0
$EndNodes
$Elements
6 1102 1 3000
1 1 1 11
1 1 5 
2 5 6 
3 6 7 
4 7 8 
5 8 9 
6 9 10 
7 10 11 
8 11 12 
9 12 13 
10 13 14 
11 14 2 
1 2 1 12
12 2 15 
13 15 16 
14 16 17 
15 17 18 
16 18 19 
17 19 20 
18 20 21 
19 21 22 
20 22 23 
21 23 24 
22 24 25 
23 25 3 
1 3 1 11
24 3 26 
25 26 27 
26 27 28 
27 28 29 
28 29 30 
29 30 31 
30 31 32 
31 32 33 
32 33 34 
33 34 35 
34 35 4 
1 4 1 12
35 4 36 
36 36 37 
37 37 38 
38 38 39 
39 39 40 
40 40 41 
41 41 42 
42 42 43 
43 43 44 
44 44 45 
45 45 46 
46 46 1 
1 5 1 792
2209 1 5 
2210 5 46 
2211 46 1 
2212 46 5 
2213 5 47 
2214 47 46 
2215 46 47 
2216 47 45 
2217 45 46 
2218 45 47 
2219 47 48 
2220 48 45 
2221 45 48 
2222 48 44 
2223 44 45 
2224 44 48 
2225 48 49 
2226 49 44 
2227 44 49 
2228 49 43 
2229 43 44 
2230 43 49 
2231 49 50 
2232 50 43 
2233 43 50 
2234 50 42 
2235 42 43 
2236 42 50 
2237 50 51 
2238 51 42 
2239 42 51 
2240 51 41 
2241 41 42 
2242 41 51 
2243 51 52 
2244 52 41 
2245 41 52 
2246 52 40 
2247 40 41 
2248 40 52 
2249 52 53 
2250 53 40 
2251 40 53 
2252 53 39 
2253 39 40 
2254 39 53 
2255 53 54 
2256 54 39 
2257 39 54 
2258 54 38 
2259 38 39 
2260 38 54 
2261 54 55 
2262 55 38 
2263 38 55 
2264 55 37 
2265 37 38 
2266 37 55 
2267 55 56 
2268 56 37 
2269 37 56 
2270 56 36 
2271 36 37 
2272 36 56 
2273 56 57 
2274 57 36 
2275 36 57 
2276 57 4 
2277 4 36 
2278 4 57 
2279 57 35 
2280 35 4 
2281 5 6 
2282 6 47 
2283 47 5 
2284 47 6 
2285 6 58 
2286 58 47 
2287 47 58 
2288 58 48 
2289 48 47 
2290 48 58 
2291 58 59 
2292 59 48 
2293 48 59 
2294 59 49 
2295 49 48 
2296 49 59 
2297 59 60 
2298 60 49 
2299 49 60 
2300 60 50 
2301 50 49 
2302 50 60 
2303 60 61 
2304 61 50 
2305 50 61 
2306 61 51 
2307 51 50 
2308 51 61 
2309 61 62 
2310 62 51 
2311 51 62 
2312 62 52 
2313 52 51 
2314 52 62 
2315 62 63 
2316 63 52 
2317 52 63 
2318 63 53 
2319 53 52 
2320 53 63 
2321 63 64 
2322 64 53 
2323 53 64 
2324 64 54 
2325 54 53 
2326 54 64 
2327 64 65 
2328 65 54 
2329 54 65 
2330 65 55 
2331 55 54 
2332 55 65 
2333 65 66 
2334 66 55 
2335 55 66 
2336 66 56 
2337 56 55 
2338 56 66 
2339 66 67 
2340 67 56 
2341 56 67 
2342 67 57 
2343 57 56 
2344 57 67 
2345 67 68 
2346 68 57 
2347 57 68 
2348 68 35 
2349 35 57 
2350 35 68 
2351 68 34 
2352 34 35 
2353 6 7 
2354 7 58 
2355 58 6 
2356 58 7 
2357 7 69 
2358 69 58 
2359 58 69 
2360 69 59 
2361 59 58 
2362 59 69 
2363 69 70 
2364 70 59 
2365 59 70 
2366 70 60 
2367 60 59 
2368 60 70 
2369 70 71 
2370 71 60 
2371 60 71 
2372 71 61 
2373 61 60 
2374 61 71 
2375 71 72 
2376 72 61 
2377 61 72 
2378 72 62 
2379 62 61 
2380 62 72 
2381 72 73 
2382 73 62 
2383 62 73 
2384 73 63 
2385 63 62 
2386 63 73 
2387 73 74 
2388 74 63 
2389 63 74 
2390 74 64 
2391 64 63 
2392 64 74 
2393 74 75 
2394 75 64 
2395 64 75 
2396 75 65 
2397 65 64 
2398 65 75 
2399 75 76 
2400 76 65 
2401 65 76 
2402 76 66 
2403 66 65 
2404 66 76 
2405 76 77 
2406 77 66 
2407 66 77 
2408 77 67 
2409 67 66 
2410 67 77 
2411 77 78 
2412 78 67 
2413 67 78 
2414 78 68 
2415 68 67 
2416 68 78 
2417 78 79 
2418 79 68 
2419 68 79 
2420 79 34 
2421 34 68 
2422 34 79 
2423 79 33 
2424 33 34 
2425 7 8 
2426 8 69 
2427 69 7 
2428 69 8 
2429 8 80 
2430 80 69 
2431 69 80 
2432 80 70 
2433 70 69 
2434 70 80 
2435 80 81 
2436 81 70 
2437 70 81 
2438 81 71 
2439 71 70 
2440 71 81 
2441 81 82 
2442 82 71 
2443 71 82 
2444 82 72 
2445 72 71 
2446 72 82 
2447 82 83 
2448 83 72 
2449 72 83 
2450 83 73 
2451 73 72 
2452 73 83 
2453 83 84 
2454 84 73 
2455 73 84 
2456 84 74 
2457 74 73 
2458 74 84 
2459 84 85 
2460 85 74 
2461 74 85 
2462 85 75 
2463 75 74 
2464 75 85 
2465 85 86 
2466 86 75 
2467 75 86 
2468 86 76 
2469 76 75 
2470 76 86 
2471 86 87 
2472 87 76 
2473 76 87 
2474 87 77 
2475 77 76 
2476 77 87 
2477 87 88 
2478 88 77 
2479 77 88 
2480 88 78 
2481 78 77 
2482 78 88 
2483 88 89 
2484 89 78 
2485 78 89 
2486 89 79 
2487 79 78 
2488 79 89 
2489 89 90 
2490 90 79 
2491 79 90 
2492 90 33 
2493 33 79 
2494 33 90 
2495 90 32 
2496 32 33 
2497 8 9 
2498 9 80 
2499 80 8 
2500 80 9 
2501 9 91 
2502 91 80 
2503 80 91 
2504 91 81 
2505 81 80 
2506 81 91 
2507 91 92 
2508 92 81 
2509 81 92 
2510 92 82 
2511 82 81 
2512 82 92 
2513 92 93 
2514 93 82 
2515 82 93 
2516 93 83 
2517 83 82 
2518 83 93 
2519 93 94 
2520 94 83 
2521 83 94 
2522 94 84 
2523 84 83 
2524 84 94 
2525 94 95 
2526 95 84 
2527 84 95 
2528 95 85 
2529 85 84 
2530 85 95 
2531 95 96 
2532 96 85 
2533 85 96 
2534 96 86 
2535 86 85 
2536 86 96 
2537 96 97 
2538 97 86 
2539 86 97 
2540 97 87 
2541 87 86 
2542 87 97 
2543 97 98 
2544 98 87 
2545 87 98 
2546 98 88 
2547 88 87 
2548 88 98 
2549 98 99 
2550 99 88 
2551 88 99 
2552 99 89 
2553 89 88 
2554 89 99 
2555 99 100 
2556 100 89 
2557 89 100 
2558 100 90 
2559 90 89 
2560 90 100 
2561 100 101 
2562 101 90 
2563 90 101 
2564 101 32 
2565 32 90 
2566 32 101 
2567 101 31 
2568 31 32 
2569 9 10 
2570 10 91 
2571 91 9 
2572 91 10 
2573 10 102 
2574 102 91 
2575 91 102 
2576 102 92 
2577 92 91 
2578 92 102 
2579 102 103 
2580 103 92 
2581 92 103 
2582 103 93 
2583 93 92 
2584 93 103 
2585 103 104 
2586 104 93 
2587 93 104 
2588 104 94 
2589 94 93 
2590 94 104 
2591 104 105 
2592 105 94 
2593 94 105 
2594 105 95 
2595 95 94 
2596 95 105 
2597 105 106 
2598 106 95 
2599 95 106 
2600 106 96 
2601 96 95 
2602 96 106 
2603 106 107 
2604 107 96 
2605 96 107 
2606 107 97 
2607 97 96 
2608 97 107 
2609 107 108 
2610 108 97 
2611 97 108 
2612 108 98 
2613 98 97 
2614 98 108 
2615 108 109 
2616 109 98 
2617 98 109 
2618 109 99 
2619 99 98 
2620 99 109 
2621 109 110 
2622 110 99 
2623 99 110 
2624 110 100 
2625 100 99 
2626 100 110 
2627 110 111 
2628 111 100 
2629 100 111 
2630 111 101 
2631 101 100 
2632 101 111 
2633 111 112 
2634 112 101 
2635 101 112 
2636 112 31 
2637 31 101 
2638 31 112 
2639 112 30 
2640 30 31 
2641 10 11 
2642 11 102 
2643 102 10 
2644 102 11 
2645 11 113 
2646 113 102 
2647 102 113 
2648 113 103 
2649 103 102 
2650 103 113 
2651 113 114 
2652 114 103 
2653 103 114 
2654 114 104 
2655 104 103 
2656 104 114 
2657 114 115 
2658 115 104 
2659 104 115 
2660 115 105 
2661 105 104 
2662 105 115 
2663 115 116 
2664 116 105 
2665 105 116 
2666 116 106 
2667 106 105 
2668 106 116 
2669 116 117 
2670 117 106 
2671 106 117 
2672 117 107 
2673 107 106 
2674 107 117 
2675 117 118 
2676 118 107 
2677 107 118 
2678 118 108 
2679 108 107 
2680 108 118 
2681 118 119 
2682 119 108 
2683 108 119 
2684 119 109 
2685 109 108 
2686 109 119 
2687 119 120 
2688 120 109 
2689 109 120 
2690 120 110 
2691 110 109 
2692 110 120 
2693 120 121 
2694 121 110 
2695 110 121 
2696 121 111 
2697 111 110 
2698 111 121 
2699 121 122 
2700 122 111 
2701 111 122 
2702 122 112 
2703 112 111 
2704 112 122 
2705 122 123 
2706 123 112 
2707 112 123 
2708 123 30 
2709 30 112 
2710 30 123 
2711 123 29 
2712 29 30 
2713 11 12 
2714 12 113 
2715 113 11 
2716 113 12 
2717 12 124 
2718 124 113 
2719 113 124 
2720 124 114 
2721 114 113 
2722 114 124 
2723 124 125 
2724 125 114 
2725 114 125 
2726 125 115 
2727 115 114 
2728 115 125 
2729 125 126 
2730 126 115 
2731 115 126 
2732 126 116 
2733 116 115 
2734 116 126 
2735 126 127 
2736 127 116 
2737 116 127 
2738 127 117 
2739 117 116 
2740 117 127 
2741 127 128 
2742 128 117 
2743 117 128 
2744 128 118 
2745 118 117 
2746 118 128 
2747 128 129 
2748 129 118 
2749 118 129 
2750 129 119 
2751 119 118 
2752 119 129 
2753 129 130 
2754 130 119 
2755 119 130 
2756 130 120 
2757 120 119 
2758 120 130 
2759 130 131 
2760 131 120 
2761 120 131 
2762 131 121 
2763 121 120 
2764 121 131 
2765 131 132 
2766 132 121 
2767 121 132 
2768 132 122 
2769 122 121 
2770 122 132 
2771 132 133 
2772 133 122 
2773 122 133 
2774 133 123 
2775 123 122 
2776 123 133 
2777 133 134 
2778 134 123 
2779 123 134 
2780 134 29 
2781 29 123 
2782 29 134 
2783 134 28 
2784 28 29 
2785 12 13 
2786 13 124 
2787 124 12 
2788 124 13 
2789 13 135 
2790 135 124 
2791 124 135 
2792 135 125 
2793 125 124 
2794 125 135 
2795 135 136 
2796 136 125 
2797 125 136 
2798 136 126 
2799 126 125 
2800 126 136 
2801 136 137 
2802 137 126 
2803 126 137 
2804 137 127 
2805 127 126 
2806 127 137 
2807 137 138 
2808 138 127 
2809 127 138 
2810 138 128 
2811 128 127 
2812 128 138 
2813 138 139 
2814 139 128 
2815 128 139 
2816 139 129 
2817 129 128 
2818 129 139 
2819 139 140 
2820 140 129 
2821 129 140 
2822 140 130 
2823 130 129 
2824 130 140 
2825 140 141 
2826 141 130 
2827 130 141 
2828 141 131 
2829 131 130 
2830 131 141 
2831 141 142 
2832 142 131 
2833 131 142 
2834 142 132 
2835 132 131 
2836 132 142 
2837 142 143 
2838 143 132 
2839 132 143 
2840 143 133 
2841 133 132 
2842 133 143 
2843 143 144 
2844 144 133 
2845 133 144 
2846 144 134 
2847 134 133 
2848 134 144 
2849 144 145 
2850 145 134 
2851 134 145 
2852 145 28 
2853 28 134 
2854 28 145 
2855 145 27 
2856 27 28 
2857 13 14 
2858 14 135 
2859 135 13 
2860 135 14 
2861 14 146 
2862 146 135 
2863 135 146 
2864 146 136 
2865 136 135 
2866 136 146 
2867 146 147 
2868 147 136 
2869 136 147 
2870 147 137 
2871 137 136 
2872 137 147 
2873 147 148 
2874 148 137 
2875 137 148 
2876 148 138 
2877 138 137 
2878 138 148 
2879 148 149 
2880 149 138 
2881 138 149 
2882 149 139 
2883 139 138 
2884 139 149 
2885 149 150 
2886 150 139 
2887 139 150 
2888 150 140 
2889 140 139 
2890 140 150 
2891 150 151 
2892 151 140 
2893 140 151 
2894 151 141 
2895 141 140 
2896 141 151 
2897 151 152 
2898 152 141 
2899 141 152 
2900 152 142 
2901 142 141 
2902 142 152 
2903 152 153 
2904 153 142 
2905 142 153 
2906 153 143 
2907 143 142 
2908 143 153 
2909 153 154 
2910 154 143 
2911 143 154 
2912 154 144 
2913 144 143 
2914 144 154 
2915 154 155 
2916 155 144 
2917 144 155 
2918 155 145 
2919 145 144 
2920 145 155 
2921 155 156 
2922 156 145 
2923 145 156 
2924 156 27 
2925 27 145 
2926 27 156 
2927 156 26 
2928 26 27 
2929 14 2 
2930 2 146 
2931 146 14 
2932 146 2 
2933 2 15 
2934 15 146 
2935 146 15 
2936 15 147 
2937 147 146 
2938 147 15 
2939 15 16 
2940 16 147 
2941 147 16 
2942 16 148 
2943 148 147 
2944 148 16 
2945 16 17 
2946 17 148 
2947 148 17 
2948 17 149 
2949 149 148 
2950 149 17 
2951 17 18 
2952 18 149 
2953 149 18 
2954 18 150 
2955 150 149 
2956 150 18 
2957 18 19 
2958 19 150 
2959 150 19 
2960 19 151 
2961 151 150 
2962 151 19 
2963 19 20 
2964 20 151 
2965 151 20 
2966 20 152 
2967 152 151 
2968 152 20 
2969 20 21 
2970 21 152 
2971 152 21 
2972 21 153 
2973 153 152 
2974 153 21 
2975 21 22 
2976 22 153 
2977 153 22 
2978 22 154 
2979 154 153 
2980 154 22 
2981 22 23 
2982 23 154 
2983 154 23 
2984 23 155 
2985 155 154 
2986 155 23 
2987 23 24 
2988 24 155 
2989 155 24 
2990 24 156 
2991 156 155 
2992 156 24 
2993 24 25 
2994 25 156 
2995 156 25 
2996 25 26 
2997 26 156 
2998 26 25 
2999 25 3 
3000 3 26 
2 1 2 264
47 1 5 46 
48 46 5 47 
49 46 47 45 
50 45 47 48 
51 45 48 44 
52 44 48 49 
53 44 49 43 
54 43 49 50 
55 43 50 42 
56 42 50 51 
57 42 51 41 
58 41 51 52 
59 41 52 40 
60 40 52 53 
61 40 53 39 
62 39 53 54 
63 39 54 38 
64 38 54 55 
65 38 55 37 
66 37 55 56 
67 37 56 36 
68 36 56 57 
69 36 57 4 
70 4 57 35 
71 5 6 47 
72 47 6 58 
73 47 58 48 
74 48 58 59 
75 48 59 49 
76 49 59 60 
77 49 60 50 
78 50 60 61 
79 50 61 51 
80 51 61 62 
81 51 62 52 
82 52 62 63 
83 52 63 53 
84 53 63 64 
85 53 64 54 
86 54 64 65 
87 54 65 55 
88 55 65 66 
89 55 66 56 
90 56 66 67 
91 56 67 57 
92 57 67 68 
93 57 68 35 
94 35 68 34 
95 6 7 58 
96 58 7 69 
97 58 69 59 
98 59 69 70 
99 59 70 60 
100 60 70 71 
101 60 71 61 
102 61 71 72 
103 61 72 62 
104 62 72 73 
105 62 73 63 
106 63 73 74 
107 63 74 64 
108 64 74 75 
109 64 75 65 
110 65 75 76 
111 65 76 66 
112 66 76 77 
113 66 77 67 
114 67 77 78 
115 67 78 68 
116 68 78 79 
117 68 79 34 
118 34 79 33 
119 7 8 69 
120 69 8 80 
121 69 80 70 
122 70 80 81 
123 70 81 71 
124 71 81 82 
125 71 82 72 
126 72 82 83 
127 72 83 73 
128 73 83 84 
129 73 84 74 
130 74 84 85 
131 74 85 75 
132 75 85 86 
133 75 86 76 
134 76 86 87 
135 76 87 77 
136 77 87 88 
137 77 88 78 
138 78 88 89 
139 78 89 79 
140 79 89 90 
141 79 90 33 
142 33 90 32 
143 8 9 80 
144 80 9 91 
145 80 91 81 
146 81 91 92 
147 81 92 82 
148 82 92 93 
149 82 93 83 
150 83 93 94 
151 83 94 84 
152 84 94 95 
153 84 95 85 
154 85 95 96 
155 85 96 86 
156 86 96 97 
157 86 97 87 
158 87 97 98 
159 87 98 88 
160 88 98 99 
161 88 99 89 
162 89 99 100 
163 89 100 90 
164 90 100 101 
165 90 101 32 
166 32 101 31 
167 9 10 91 
168 91 10 102 
169 91 102 92 
170 92 102 103 
171 92 103 93 
172 93 103 104 
173 93 104 94 
174 94 104 105 
175 94 105 95 
176 95 105 106 
177 95 106 96 
178 96 106 107 
179 96 107 97 
180 97 107 108 
181 97 108 98 
182 98 108 109 
183 98 109 99 
184 99 109 110 
185 99 110 100 
186 100 110 111 
187 100 111 101 
188 101 111 112 
189 101 112 31 
190 31 112 30 
191 10 11 102 
192 102 11 113 
193 102 113 103 
194 103 113 114 
195 103 114 104 
196 104 114 115 
197 104 115 105 
198 105 115 116 
199 105 116 106 
200 106 116 117 
201 106 117 107 
202 107 117 118 
203 107 118 108 
204 108 118 119 
205 108 119 109 
206 109 119 120 
207 109 120 110 
208 110 120 121 
209 110 121 111 
210 111 121 122 
211 111 122 112 
212 112 122 123 
213 112 123 30 
214 30 123 29 
215 11 12 113 
216 113 12 124 
217 113 124 114 
218 114 124 125 
219 114 125 115 
220 115 125 126 
221 115 126 116 
222 116 126 127 
223 116 127 117 
224 117 127 128 
225 117 128 118 
226 118 128 129 
227 118 129 119 
228 119 129 130 
229 119 130 120 
230 120 130 131 
231 120 131 121 
232 121 131 132 
233 121 132 122 
234 122 132 133 
235 122 133 123 
236 123 133 134 
237 123 134 29 
238 29 134 28 
239 12 13 124 
240 124 13 135 
241 124 135 125 
242 125 135 136 
243 125 136 126 
244 126 136 137 
245 126 137 127 
246 127 137 138 
247 127 138 128 
248 128 138 139 
249 128 139 129 
250 129 139 140 
251 129 140 130 
252 130 140 141 
253 130 141 131 
254 131 141 142 
255 131 142 132 
256 132 142 143 
257 132 143 133 
258 133 143 144 
259 133 144 134 
260 134 144 145 
261 134 145 28 
262 28 145 27 
263 13 14 135 
264 135 14 146 
265 135 146 136 
266 136 146 147 
267 136 147 137 
268 137 147 148 
269 137 148 138 
270 138 148 149 
271 138 149 139 
272 139 149 150 
273 139 150 140 
274 140 150 151 
275 140 151 141 
276 141 151 152 
277 141 152 142 
278 142 152 153 
279 142 153 143 
280 143 153 154 
281 143 154 144 
282 144 154 155 
283 144 155 145 
284 145 155 156 
285 145 156 27 
286 27 156 26 
287 14 2 146 
288 146 2 15 
289 146 15 147 
290 147 15 16 
291 147 16 148 
292 148 16 17 
293 148 17 149 
294 149 17 18 
295 149 18 150 
296 150 18 19 
297 150 19 151 
298 151 19 20 
299 151 20 152 
300 152 20 21 
301 152 21 153 
302 153 21 22 
303 153 22 154 
304 154 22 23 
305 154 23 155 
306 155 23 24 
307 155 24 156 
308 156 24 25 
309 156 25 26 
310 26 25 3 
$EndElements
