$MeshFormat
4.1 0 8
$EndMeshFormat
$PhysicalNames
6
1 1 "Γ¹"
1 2 "Γ²"
1 3 "Γ³"
1 4 "Γ⁴"
1 6 "Γ"
2 5 "Ω"
$EndPhysicalNames
$Entities
4 5 1 0
1 0 0 0 0 
2 1.1 0 0 0 
3 1.1 1 0 0 
4 0 1 0 0 
1 0 0 0 1.1 0 0 1 1 2 1 -2 
2 1.1 0 0 1.1 1 0 1 2 2 2 -3 
3 0 1 0 1.1 1 0 1 3 2 3 -4 
4 0 0 0 0 1 0 1 4 2 4 -1 
5 0 0 0 1.1 1 0 1 6 0 
1 0 0 0 1.1 1 0 1 5 4 1 2 3 4 
$EndEntities
$Nodes
10 182 1 182
0 1 0 1
1
0 0 0
0 2 0 1
2
1.1 0 0
0 3 0 1
3
1.1 1 0
0 4 0 1
4
0 1 0
1 1 0 12
5
6
7
8
9
10
11
12
13
14
15
16
0.08461538461522505 0 0
0.1692307692304394 0 0
0.2538461538455589 0 0
0.3384615384606748 0 0
0.4230769230757908 0 0
0.5076923076909392 0 0
0.5923076923063334 0 0
0.6769230769219409 0 0
0.7615384615375483 0 0
0.846153846153134 0 0
0.9307692307687414 0 0
1.015384615384302 0 0
1 2 0 11
17
18
19
20
21
22
23
24
25
26
27
1.1 0.08333333333317297 0
1.1 0.1666666666663209 0
1.1 0.2499999999994109 0
1.1 0.333333333332501 0
1.1 0.4166666666655911 0
1.1 0.499999999998692 0
1.1 0.5833333333322344 0
1.1 0.6666666666657874 0
1.1 0.7499999999993405 0
1.1 0.8333333333328937 0
1.1 0.9166666666664468 0
1 3 0 12
28
29
30
31
32
33
34
35
36
37
38
39
1.015384615384742 1 0
0.9307692307694843 1 0
0.8461538461543131 1 0
0.7615384615392721 1 0
0.6769230769241876 1 0
0.5923076923090183 1 0
0.5076923076936305 1 0
0.423076923078029 1 0
0.3384615384624275 1 0
0.2538461538468481 1 0
0.1692307692312468 1 0
0.08461538461569185 1 0
1 4 0 11
40
41
42
43
44
45
46
47
48
49
50
0 0.9166666666663197 0
0 0.833333333333102 0
0 0.7500000000003471 0
0 0.6666666666675918 0
0 0.5833333333348364 0
0 0.5000000000020595 0
0 0.416666666668401 0
0 0.3333333333347207 0
0 0.2500000000010405 0
0 0.1666666666673604 0
0 0.0833333333336802 0
1 5 0 0
2 1 0 132
51
52
53
54
55
56
57
58
59
60
61
62
63
64
65
66
67
68
69
70
71
72
73
74
75
76
77
78
79
80
81
82
83
84
85
86
87
88
89
90
91
92
93
94
95
96
97
98
99
100
101
102
103
104
105
106
107
108
109
110
111
112
113
114
115
116
117
118
119
120
121
122
123
124
125
126
127
128
129
130
131
132
133
134
135
136
137
138
139
140
141
142
143
144
145
146
147
148
149
150
151
152
153
154
155
156
157
158
159
160
161
162
163
164
165
166
167
168
169
170
171
172
173
174
175
176
177
178
179
180
181
182
0.08461538461526394 0.08333333333364119 0
0.08461538461530284 0.1666666666672804 0
0.08461538461534177 0.2500000000009152 0
0.08461538461538064 0.33333333333455 0
0.08461538461541956 0.4166666666681849 0
0.08461538461545845 0.5000000000018003 0
0.08461538461549736 0.5833333333346362 0
0.08461538461553625 0.666666666667453 0
0.08461538461557516 0.7500000000002695 0
0.08461538461561405 0.833333333333086 0
0.08461538461565296 0.9166666666663295 0
0.1692307692305067 0.08333333333360216 0
0.169230769230574 0.1666666666672005 0
0.1692307692306413 0.2500000000007898 0
0.1692307692307085 0.3333333333343793 0
0.1692307692307758 0.4166666666679687 0
0.1692307692308431 0.5000000000015414 0
0.1692307692309104 0.5833333333344362 0
0.1692307692309777 0.666666666667314 0
0.169230769231045 0.7500000000001922 0
0.1692307692311122 0.8333333333330699 0
0.1692307692311795 0.9166666666663392 0
0.2538461538456663 0.08333333333356317 0
0.2538461538457737 0.1666666666671205 0
0.2538461538458812 0.2500000000006645 0
0.2538461538459887 0.3333333333342085 0
0.253846153846096 0.4166666666677525 0
0.2538461538462034 0.5000000000012823 0
0.2538461538463109 0.5833333333342361 0
0.2538461538464183 0.6666666666671754 0
0.2538461538465258 0.7500000000001149 0
0.2538461538466332 0.833333333333054 0
0.2538461538467406 0.916666666666349 0
0.3384615384608209 0.08333333333352413 0
0.3384615384609669 0.1666666666670405 0
0.338461538461113 0.2500000000005391 0
0.3384615384612591 0.3333333333340378 0
0.338461538461405 0.4166666666675365 0
0.3384615384615512 0.5000000000010234 0
0.3384615384616972 0.5833333333340358 0
0.3384615384618433 0.6666666666670367 0
0.3384615384619893 0.7500000000000374 0
0.3384615384621354 0.8333333333330379 0
0.3384615384622816 0.9166666666663588 0
0.4230769230759774 0.08333333333348511 0
0.4230769230761638 0.1666666666669606 0
0.4230769230763503 0.2500000000004138 0
0.4230769230765369 0.3333333333338669 0
0.4230769230767234 0.4166666666673202 0
0.4230769230769099 0.5000000000007643 0
0.4230769230770964 0.5833333333338355 0
0.4230769230772828 0.6666666666668979 0
0.4230769230774695 0.7499999999999599 0
0.423076923077656 0.8333333333330221 0
0.4230769230778424 0.9166666666663685 0
0.5076923076911634 0.0833333333334461 0
0.5076923076913878 0.1666666666668807 0
0.5076923076916119 0.2500000000002883 0
0.5076923076918363 0.3333333333336962 0
0.5076923076920605 0.4166666666671042 0
0.5076923076922849 0.5000000000005054 0
0.5076923076925092 0.5833333333336355 0
0.5076923076927334 0.6666666666667591 0
0.5076923076929577 0.7499999999998826 0
0.507692307693182 0.8333333333330059 0
0.5076923076934062 0.9166666666663783 0
0.5923076923065572 0.08333333333340708 0
0.5923076923067812 0.1666666666668006 0
0.5923076923070044 0.2500000000001631 0
0.5923076923072285 0.3333333333335255 0
0.5923076923074522 0.416666666666888 0
0.592307692307676 0.5000000000002462 0
0.5923076923078995 0.5833333333334354 0
0.5923076923081234 0.6666666666666203 0
0.5923076923083472 0.7499999999998049 0
0.5923076923085707 0.8333333333329899 0
0.5923076923087945 0.9166666666663881 0
0.6769230769221282 0.08333333333336805 0
0.6769230769223153 0.1666666666667207 0
0.6769230769225025 0.2500000000000376 0
0.6769230769226897 0.3333333333333547 0
0.6769230769228771 0.4166666666666718 0
0.6769230769230643 0.4999999999999871 0
0.6769230769232515 0.5833333333332351 0
0.6769230769234387 0.6666666666664813 0
0.6769230769236262 0.7499999999997277 0
0.6769230769238131 0.8333333333329735 0
0.6769230769240003 0.9166666666663978 0
0.761538461537692 0.08333333333332903 0
0.7615384615378358 0.1666666666666407 0
0.7615384615379794 0.2499999999999123 0
0.7615384615381231 0.333333333333184 0
0.7615384615382668 0.4166666666664557 0
0.7615384615384102 0.4999999999997282 0
0.7615384615385539 0.5833333333330351 0
0.7615384615386975 0.6666666666663428 0
0.761538461538841 0.7499999999996502 0
0.7615384615389849 0.8333333333329576 0
0.7615384615391283 0.9166666666664076 0
0.8461538461532323 0.08333333333329003 0
0.8461538461533309 0.1666666666665608 0
0.8461538461534287 0.2499999999997869 0
0.846153846153527 0.3333333333330132 0
0.8461538461536255 0.4166666666662395 0
0.8461538461537237 0.4999999999994691 0
0.8461538461538218 0.5833333333328348 0
0.8461538461539201 0.6666666666662038 0
0.8461538461540182 0.7499999999995727 0
0.8461538461541167 0.8333333333329417 0
0.846153846154215 0.9166666666664174 0
0.9307692307688032 0.08333333333325101 0
0.9307692307688651 0.1666666666664808 0
0.930769230768927 0.2499999999996616 0
0.9307692307689892 0.3333333333328425 0
0.9307692307690507 0.4166666666660235 0
0.9307692307691129 0.4999999999992102 0
0.9307692307691746 0.5833333333326347 0
0.9307692307692366 0.666666666666065 0
0.9307692307692985 0.7499999999994954 0
0.9307692307693602 0.8333333333329257 0
0.9307692307694224 0.9166666666664272 0
1.015384615384339 0.08333333333321201 0
1.015384615384376 0.1666666666664008 0
1.015384615384412 0.2499999999995363 0
1.015384615384449 0.3333333333326717 0
1.015384615384485 0.4166666666658072 0
1.015384615384522 0.4999999999989511 0
1.015384615384558 0.5833333333324344 0
1.015384615384596 0.6666666666659262 0
1.015384615384632 0.749999999999418 0
1.015384615384669 0.8333333333329097 0
1.015384615384706 0.9166666666664369 0
$EndNodes
$Elements
6 1298 1 3536
1 1 1 13
1 1 5 
2 5 6 
3 6 7 
4 7 8 
5 8 9 
6 9 10 
7 10 11 
8 11 12 
9 12 13 
10 13 14 
11 14 15 
12 15 16 
13 16 2 
1 2 1 12
14 2 17 
15 17 18 
16 18 19 
17 19 20 
18 20 21 
19 21 22 
20 22 23 
21 23 24 
22 24 25 
23 25 26 
24 26 27 
25 27 3 
1 3 1 13
26 3 28 
27 28 29 
28 29 30 
29 30 31 
30 31 32 
31 32 33 
32 33 34 
33 34 35 
34 35 36 
35 36 37 
36 37 38 
37 38 39 
38 39 4 
1 4 1 12
39 4 40 
40 40 41 
41 41 42 
42 42 43 
43 43 44 
44 44 45 
45 45 46 
46 46 47 
47 47 48 
48 48 49 
49 49 50 
50 50 1 
1 5 1 936
2601 1 5 
2602 5 50 
2603 50 1 
2604 50 5 
2605 5 51 
2606 51 50 
2607 50 51 
2608 51 49 
2609 49 50 
2610 49 51 
2611 51 52 
2612 52 49 
2613 49 52 
2614 52 48 
2615 48 49 
2616 48 52 
2617 52 53 
2618 53 48 
2619 48 53 
2620 53 47 
2621 47 48 
2622 47 53 
2623 53 54 
2624 54 47 
2625 47 54 
2626 54 46 
2627 46 47 
2628 46 54 
2629 54 55 
2630 55 46 
2631 46 55 
2632 55 45 
2633 45 46 
2634 45 55 
2635 55 56 
2636 56 45 
2637 45 56 
2638 56 44 
2639 44 45 
2640 44 56 
2641 56 57 
2642 57 44 
2643 44 57 
2644 57 43 
2645 43 44 
2646 43 57 
2647 57 58 
2648 58 43 
2649 43 58 
2650 58 42 
2651 42 43 
2652 42 58 
2653 58 59 
2654 59 42 
2655 42 59 
2656 59 41 
2657 41 42 
2658 41 59 
2659 59 60 
2660 60 41 
2661 41 60 
2662 60 40 
2663 40 41 
2664 40 60 
2665 60 61 
2666 61 40 
2667 40 61 
2668 61 4 
2669 4 40 
2670 4 61 
2671 61 39 
2672 39 4 
2673 5 6 
2674 6 51 
2675 51 5 
2676 51 6 
2677 6 62 
2678 62 51 
2679 51 62 
2680 62 52 
2681 52 51 
2682 52 62 
2683 62 63 
2684 63 52 
2685 52 63 
2686 63 53 
2687 53 52 
2688 53 63 
2689 63 64 
2690 64 53 
2691 53 64 
2692 64 54 
2693 54 53 
2694 54 64 
2695 64 65 
2696 65 54 
2697 54 65 
2698 65 55 
2699 55 54 
2700 55 65 
2701 65 66 
2702 66 55 
2703 55 66 
2704 66 56 
2705 56 55 
2706 56 66 
2707 66 67 
2708 67 56 
2709 56 67 
2710 67 57 
2711 57 56 
2712 57 67 
2713 67 68 
2714 68 57 
2715 57 68 
2716 68 58 
2717 58 57 
2718 58 68 
2719 68 69 
2720 69 58 
2721 58 69 
2722 69 59 
2723 59 58 
2724 59 69 
2725 69 70 
2726 70 59 
2727 59 70 
2728 70 60 
2729 60 59 
2730 60 70 
2731 70 71 
2732 71 60 
2733 60 71 
2734 71 61 
2735 61 60 
2736 61 71 
2737 71 72 
2738 72 61 
2739 61 72 
2740 72 39 
2741 39 61 
2742 39 72 
2743 72 38 
2744 38 39 
2745 6 7 
2746 7 62 
2747 62 6 
2748 62 7 
2749 7 73 
2750 73 62 
2751 62 73 
2752 73 63 
2753 63 62 
2754 63 73 
2755 73 74 
2756 74 63 
2757 63 74 
2758 74 64 
2759 64 63 
2760 64 74 
2761 74 75 
2762 75 64 
2763 64 75 
2764 75 65 
2765 65 64 
2766 65 75 
2767 75 76 
2768 76 65 
2769 65 76 
2770 76 66 
2771 66 65 
2772 66 76 
2773 76 77 
2774 77 66 
2775 66 77 
2776 77 67 
2777 67 66 
2778 67 77 
2779 77 78 
2780 78 67 
2781 67 78 
2782 78 68 
2783 68 67 
2784 68 78 
2785 78 79 
2786 79 68 
2787 68 79 
2788 79 69 
2789 69 68 
2790 69 79 
2791 79 80 
2792 80 69 
2793 69 80 
2794 80 70 
2795 70 69 
2796 70 80 
2797 80 81 
2798 81 70 
2799 70 81 
2800 81 71 
2801 71 70 
2802 71 81 
2803 81 82 
2804 82 71 
2805 71 82 
2806 82 72 
2807 72 71 
2808 72 82 
2809 82 83 
2810 83 72 
2811 72 83 
2812 83 38 
2813 38 72 
2814 38 83 
2815 83 37 
2816 37 38 
2817 7 8 
2818 8 73 
2819 73 7 
2820 73 8 
2821 8 84 
2822 84 73 
2823 73 84 
2824 84 74 
2825 74 73 
2826 74 84 
2827 84 85 
2828 85 74 
2829 74 85 
2830 85 75 
2831 75 74 
2832 75 85 
2833 85 86 
2834 86 75 
2835 75 86 
2836 86 76 
2837 76 75 
2838 76 86 
2839 86 87 
2840 87 76 
2841 76 87 
2842 87 77 
2843 77 76 
2844 77 87 
2845 87 88 
2846 88 77 
2847 77 88 
2848 88 78 
2849 78 77 
2850 78 88 
2851 88 89 
2852 89 78 
2853 78 89 
2854 89 79 
2855 79 78 
2856 79 89 
2857 89 90 
2858 90 79 
2859 79 90 
2860 90 80 
2861 80 79 
2862 80 90 
2863 90 91 
2864 91 80 
2865 80 91 
2866 91 81 
2867 81 80 
2868 81 91 
2869 91 92 
2870 92 81 
2871 81 92 
2872 92 82 
2873 82 81 
2874 82 92 
2875 92 93 
2876 93 82 
2877 82 93 
2878 93 83 
2879 83 82 
2880 83 93 
2881 93 94 
2882 94 83 
2883 83 94 
2884 94 37 
2885 37 83 
2886 37 94 
2887 94 36 
2888 36 37 
2889 8 9 
2890 9 84 
2891 84 8 
2892 84 9 
2893 9 95 
2894 95 84 
2895 84 95 
2896 95 85 
2897 85 84 
2898 85 95 
2899 95 96 
2900 96 85 
2901 85 96 
2902 96 86 
2903 86 85 
2904 86 96 
2905 96 97 
2906 97 86 
2907 86 97 
2908 97 87 
2909 87 86 
2910 87 97 
2911 97 98 
2912 98 87 
2913 87 98 
2914 98 88 
2915 88 87 
2916 88 98 
2917 98 99 
2918 99 88 
2919 88 99 
2920 99 89 
2921 89 88 
2922 89 99 
2923 99 100 
2924 100 89 
2925 89 100 
2926 100 90 
2927 90 89 
2928 90 100 
2929 100 101 
2930 101 90 
2931 90 101 
2932 101 91 
2933 91 90 
2934 91 101 
2935 101 102 
2936 102 91 
2937 91 102 
2938 102 92 
2939 92 91 
2940 92 102 
2941 102 103 
2942 103 92 
2943 92 103 
2944 103 93 
2945 93 92 
2946 93 103 
2947 103 104 
2948 104 93 
2949 93 104 
2950 104 94 
2951 94 93 
2952 94 104 
2953 104 105 
2954 105 94 
2955 94 105 
2956 105 36 
2957 36 94 
2958 36 105 
2959 105 35 
2960 35 36 
2961 9 10 
2962 10 95 
2963 95 9 
2964 95 10 
2965 10 106 
2966 106 95 
2967 95 106 
2968 106 96 
2969 96 95 
2970 96 106 
2971 106 107 
2972 107 96 
2973 96 107 
2974 107 97 
2975 97 96 
2976 97 107 
2977 107 108 
2978 108 97 
2979 97 108 
2980 108 98 
2981 98 97 
2982 98 108 
2983 108 109 
2984 109 98 
2985 98 109 
2986 109 99 
2987 99 98 
2988 99 109 
2989 109 110 
2990 110 99 
2991 99 110 
2992 110 100 
2993 100 99 
2994 100 110 
2995 110 111 
2996 111 100 
2997 100 111 
2998 111 101 
2999 101 100 
3000 101 111 
3001 111 112 
3002 112 101 
3003 101 112 
3004 112 102 
3005 102 101 
3006 102 112 
3007 112 113 
3008 113 102 
3009 102 113 
3010 113 103 
3011 103 102 
3012 103 113 
3013 113 114 
3014 114 103 
3015 103 114 
3016 114 104 
3017 104 103 
3018 104 114 
3019 114 115 
3020 115 104 
3021 104 115 
3022 115 105 
3023 105 104 
3024 105 115 
3025 115 116 
3026 116 105 
3027 105 116 
3028 116 35 
3029 35 105 
3030 35 116 
3031 116 34 
3032 34 35 
3033 10 11 
3034 11 106 
3035 106 10 
3036 106 11 
3037 11 117 
3038 117 106 
3039 106 117 
3040 117 107 
3041 107 106 
3042 107 117 
3043 117 118 
3044 118 107 
3045 107 118 
3046 118 108 
3047 108 107 
3048 108 118 
3049 118 119 
3050 119 108 
3051 108 119 
3052 119 109 
3053 109 108 
3054 109 119 
3055 119 120 
3056 120 109 
3057 109 120 
3058 120 110 
3059 110 109 
3060 110 120 
3061 120 121 
3062 121 110 
3063 110 121 
3064 121 111 
3065 111 110 
3066 111 121 
3067 121 122 
3068 122 111 
3069 111 122 
3070 122 112 
3071 112 111 
3072 112 122 
3073 122 123 
3074 123 112 
3075 112 123 
3076 123 113 
3077 113 112 
3078 113 123 
3079 123 124 
3080 124 113 
3081 113 124 
3082 124 114 
3083 114 113 
3084 114 124 
3085 124 125 
3086 125 114 
3087 114 125 
3088 125 115 
3089 115 114 
3090 115 125 
3091 125 126 
3092 126 115 
3093 115 126 
3094 126 116 
3095 116 115 
3096 116 126 
3097 126 127 
3098 127 116 
3099 116 127 
3100 127 34 
3101 34 116 
3102 34 127 
3103 127 33 
3104 33 34 
3105 11 12 
3106 12 117 
3107 117 11 
3108 117 12 
3109 12 128 
3110 128 117 
3111 117 128 
3112 128 118 
3113 118 117 
3114 118 128 
3115 128 129 
3116 129 118 
3117 118 129 
3118 129 119 
3119 119 118 
3120 119 129 
3121 129 130 
3122 130 119 
3123 119 130 
3124 130 120 
3125 120 119 
3126 120 130 
3127 130 131 
3128 131 120 
3129 120 131 
3130 131 121 
3131 121 120 
3132 121 131 
3133 131 132 
3134 132 121 
3135 121 132 
3136 132 122 
3137 122 121 
3138 122 132 
3139 132 133 
3140 133 122 
3141 122 133 
3142 133 123 
3143 123 122 
3144 123 133 
3145 133 134 
3146 134 123 
3147 123 134 
3148 134 124 
3149 124 123 
3150 124 134 
3151 134 135 
3152 135 124 
3153 124 135 
3154 135 125 
3155 125 124 
3156 125 135 
3157 135 136 
3158 136 125 
3159 125 136 
3160 136 126 
3161 126 125 
3162 126 136 
3163 136 137 
3164 137 126 
3165 126 137 
3166 137 127 
3167 127 126 
3168 127 137 
3169 137 138 
3170 138 127 
3171 127 138 
3172 138 33 
3173 33 127 
3174 33 138 
3175 138 32 
3176 32 33 
3177 12 13 
3178 13 128 
3179 128 12 
3180 128 13 
3181 13 139 
3182 139 128 
3183 128 139 
3184 139 129 
3185 129 128 
3186 129 139 
3187 139 140 
3188 140 129 
3189 129 140 
3190 140 130 
3191 130 129 
3192 130 140 
3193 140 141 
3194 141 130 
3195 130 141 
3196 141 131 
3197 131 130 
3198 131 141 
3199 141 142 
3200 142 131 
3201 131 142 
3202 142 132 
3203 132 131 
3204 132 142 
3205 142 143 
3206 143 132 
3207 132 143 
3208 143 133 
3209 133 132 
3210 133 143 
3211 143 144 
3212 144 133 
3213 133 144 
3214 144 134 
3215 134 133 
3216 134 144 
3217 144 145 
3218 145 134 
3219 134 145 
3220 145 135 
3221 135 134 
3222 135 145 
3223 145 146 
3224 146 135 
3225 135 146 
3226 146 136 
3227 136 135 
3228 136 146 
3229 146 147 
3230 147 136 
3231 136 147 
3232 147 137 
3233 137 136 
3234 137 147 
3235 147 148 
3236 148 137 
3237 137 148 
3238 148 138 
3239 138 137 
3240 138 148 
3241 148 149 
3242 149 138 
3243 138 149 
3244 149 32 
3245 32 138 
3246 32 149 
3247 149 31 
3248 31 32 
3249 13 14 
3250 14 139 
3251 139 13 
3252 139 14 
3253 14 150 
3254 150 139 
3255 139 150 
3256 150 140 
3257 140 139 
3258 140 150 
3259 150 151 
3260 151 140 
3261 140 151 
3262 151 141 
3263 141 140 
3264 141 151 
3265 151 152 
3266 152 141 
3267 141 152 
3268 152 142 
3269 142 141 
3270 142 152 
3271 152 153 
3272 153 142 
3273 142 153 
3274 153 143 
3275 143 142 
3276 143 153 
3277 153 154 
3278 154 143 
3279 143 154 
3280 154 144 
3281 144 143 
3282 144 154 
3283 154 155 
3284 155 144 
3285 144 155 
3286 155 145 
3287 145 144 
3288 145 155 
3289 155 156 
3290 156 145 
3291 145 156 
3292 156 146 
3293 146 145 
3294 146 156 
3295 156 157 
3296 157 146 
3297 146 157 
3298 157 147 
3299 147 146 
3300 147 157 
3301 157 158 
3302 158 147 
3303 147 158 
3304 158 148 
3305 148 147 
3306 148 158 
3307 158 159 
3308 159 148 
3309 148 159 
3310 159 149 
3311 149 148 
3312 149 159 
3313 159 160 
3314 160 149 
3315 149 160 
3316 160 31 
3317 31 149 
3318 31 160 
3319 160 30 
3320 30 31 
3321 14 15 
3322 15 150 
3323 150 14 
3324 150 15 
3325 15 161 
3326 161 150 
3327 150 161 
3328 161 151 
3329 151 150 
3330 151 161 
3331 161 162 
3332 162 151 
3333 151 162 
3334 162 152 
3335 152 151 
3336 152 162 
3337 162 163 
3338 163 152 
3339 152 163 
3340 163 153 
3341 153 152 
3342 153 163 
3343 163 164 
3344 164 153 
3345 153 164 
3346 164 154 
3347 154 153 
3348 154 164 
3349 164 165 
3350 165 154 
3351 154 165 
3352 165 155 
3353 155 154 
3354 155 165 
3355 165 166 
3356 166 155 
3357 155 166 
3358 166 156 
3359 156 155 
3360 156 166 
3361 166 167 
3362 167 156 
3363 156 167 
3364 167 157 
3365 157 156 
3366 157 167 
3367 167 168 
3368 168 157 
3369 157 168 
3370 168 158 
3371 158 157 
3372 158 168 
3373 168 169 
3374 169 158 
3375 158 169 
3376 169 159 
3377 159 158 
3378 159 169 
3379 169 170 
3380 170 159 
3381 159 170 
3382 170 160 
3383 160 159 
3384 160 170 
3385 170 171 
3386 171 160 
3387 160 171 
3388 171 30 
3389 30 160 
3390 30 171 
3391 171 29 
3392 29 30 
3393 15 16 
3394 16 161 
3395 161 15 
3396 161 16 
3397 16 172 
3398 172 161 
3399 161 172 
3400 172 162 
3401 162 161 
3402 162 172 
3403 172 173 
3404 173 162 
3405 162 173 
3406 173 163 
3407 163 162 
3408 163 173 
3409 173 174 
3410 174 163 
3411 163 174 
3412 174 164 
3413 164 163 
3414 164 174 
3415 174 175 
3416 175 164 
3417 164 175 
3418 175 165 
3419 165 164 
3420 165 175 
3421 175 176 
3422 176 165 
3423 165 176 
3424 176 166 
3425 166 165 
3426 166 176 
3427 176 177 
3428 177 166 
3429 166 177 
3430 177 167 
3431 167 166 
3432 167 177 
3433 177 178 
3434 178 167 
3435 167 178 
3436 178 168 
3437 168 167 
3438 168 178 
3439 178 179 
3440 179 168 
3441 168 179 
3442 179 169 
3443 169 168 
3444 169 179 
3445 179 180 
3446 180 169 
3447 169 180 
3448 180 170 
3449 170 169 
3450 170 180 
3451 180 181 
3452 181 170 
3453 170 181 
3454 181 171 
3455 171 170 
3456 171 181 
3457 181 182 
3458 182 171 
3459 171 182 
3460 182 29 
3461 29 171 
3462 29 182 
3463 182 28 
3464 28 29 
3465 16 2 
3466 2 172 
3467 172 16 
3468 172 2 
3469 2 17 
3470 17 172 
3471 172 17 
3472 17 173 
3473 173 172 
3474 173 17 
3475 17 18 
3476 18 173 
3477 173 18 
3478 18 174 
3479 174 173 
3480 174 18 
3481 18 19 
3482 19 174 
3483 174 19 
3484 19 175 
3485 175 174 
3486 175 19 
3487 19 20 
3488 20 175 
3489 175 20 
3490 20 176 
3491 176 175 
3492 176 20 
3493 20 21 
3494 21 176 
3495 176 21 
3496 21 177 
3497 177 176 
3498 177 21 
3499 21 22 
3500 22 177 
3501 177 22 
3502 22 178 
3503 178 177 
3504 178 22 
3505 22 23 
3506 23 178 
3507 178 23 
3508 23 179 
3509 179 178 
3510 179 23 
3511 23 24 
3512 24 179 
3513 179 24 
3514 24 180 
3515 180 179 
3516 180 24 
3517 24 25 
3518 25 180 
3519 180 25 
3520 25 181 
3521 181 180 
3522 181 25 
3523 25 26 
3524 26 181 
3525 181 26 
3526 26 182 
3527 182 181 
3528 182 26 
3529 26 27 
3530 27 182 
3531 182 27 
3532 27 28 
3533 28 182 
3534 28 27 
3535 27 3 
3536 3 28 
2 1 2 312
51 1 5 50 
52 50 5 51 
53 50 51 49 
54 49 51 52 
55 49 52 48 
56 48 52 53 
57 48 53 47 
58 47 53 54 
59 47 54 46 
60 46 54 55 
61 46 55 45 
62 45 55 56 
63 45 56 44 
64 44 56 57 
65 44 57 43 
66 43 57 58 
67 43 58 42 
68 42 58 59 
69 42 59 41 
70 41 59 60 
71 41 60 40 
72 40 60 61 
73 40 61 4 
74 4 61 39 
75 5 6 51 
76 51 6 62 
77 51 62 52 
78 52 62 63 
79 52 63 53 
80 53 63 64 
81 53 64 54 
82 54 64 65 
83 54 65 55 
84 55 65 66 
85 55 66 56 
86 56 66 67 
87 56 67 57 
88 57 67 68 
89 57 68 58 
90 58 68 69 
91 58 69 59 
92 59 69 70 
93 59 70 60 
94 60 70 71 
95 60 71 61 
96 61 71 72 
97 61 72 39 
98 39 72 38 
99 6 7 62 
100 62 7 73 
101 62 73 63 
102 63 73 74 
103 63 74 64 
104 64 74 75 
105 64 75 65 
106 65 75 76 
107 65 76 66 
108 66 76 77 
109 66 77 67 
110 67 77 78 
111 67 78 68 
112 68 78 79 
113 68 79 69 
114 69 79 80 
115 69 80 70 
116 70 80 81 
117 70 81 71 
118 71 81 82 
119 71 82 72 
120 72 82 83 
121 72 83 38 
122 38 83 37 
123 7 8 73 
124 73 8 84 
125 73 84 74 
126 74 84 85 
127 74 85 75 
128 75 85 86 
129 75 86 76 
130 76 86 87 
131 76 87 77 
132 77 87 88 
133 77 88 78 
134 78 88 89 
135 78 89 79 
136 79 89 90 
137 79 90 80 
138 80 90 91 
139 80 91 81 
140 81 91 92 
141 81 92 82 
142 82 92 93 
143 82 93 83 
144 83 93 94 
145 83 94 37 
146 37 94 36 
147 8 9 84 
148 84 9 95 
149 84 95 85 
150 85 95 96 
151 85 96 86 
152 86 96 97 
153 86 97 87 
154 87 97 98 
155 87 98 88 
156 88 98 99 
157 88 99 89 
158 89 99 100 
159 89 100 90 
160 90 100 101 
161 90 101 91 
162 91 101 102 
163 91 102 92 
164 92 102 103 
165 92 103 93 
166 93 103 104 
167 93 104 94 
168 94 104 105 
169 94 105 36 
170 36 105 35 
171 9 10 95 
172 95 10 106 
173 95 106 96 
174 96 106 107 
175 96 107 97 
176 97 107 108 
177 97 108 98 
178 98 108 109 
179 98 109 99 
180 99 109 110 
181 99 110 100 
182 100 110 111 
183 100 111 101 
184 101 111 112 
185 101 112 102 
186 102 112 113 
187 102 113 103 
188 103 113 114 
189 103 114 104 
190 104 114 115 
191 104 115 105 
192 105 115 116 
193 105 116 35 
194 35 116 34 
195 10 11 106 
196 106 11 117 
197 106 117 107 
198 107 117 118 
199 107 118 108 
200 108 118 119 
201 108 119 109 
202 109 119 120 
203 109 120 110 
204 110 120 121 
205 110 121 111 
206 111 121 122 
207 111 122 112 
208 112 122 123 
209 112 123 113 
210 113 123 124 
211 113 124 114 
212 114 124 125 
213 114 125 115 
214 115 125 126 
215 115 126 116 
216 116 126 127 
217 116 127 34 
218 34 127 33 
219 11 12 117 
220 117 12 128 
221 117 128 118 
222 118 128 129 
223 118 129 119 
224 119 129 130 
225 119 130 120 
226 120 130 131 
227 120 131 121 
228 121 131 132 
229 121 132 122 
230 122 132 133 
231 122 133 123 
232 123 133 134 
233 123 134 124 
234 124 134 135 
235 124 135 125 
236 125 135 136 
237 125 136 126 
238 126 136 137 
239 126 137 127 
240 127 137 138 
241 127 138 33 
242 33 138 32 
243 12 13 128 
244 128 13 139 
245 128 139 129 
246 129 139 140 
247 129 140 130 
248 130 140 141 
249 130 141 131 
250 131 141 142 
251 131 142 132 
252 132 142 143 
253 132 143 133 
254 133 143 144 
255 133 144 134 
256 134 144 145 
257 134 145 135 
258 135 145 146 
259 135 146 136 
260 136 146 147 
261 136 147 137 
262 137 147 148 
263 137 148 138 
264 138 148 149 
265 138 149 32 
266 32 149 31 
267 13 14 139 
268 139 14 150 
269 139 150 140 
270 140 150 151 
271 140 151 141 
272 141 151 152 
273 141 152 142 
274 142 152 153 
275 142 153 143 
276 143 153 154 
277 143 154 144 
278 144 154 155 
279 144 155 145 
280 145 155 156 
281 145 156 146 
282 146 156 157 
283 146 157 147 
284 147 157 158 
285 147 158 148 
286 148 158 159 
287 148 159 149 
288 149 159 160 
289 149 160 31 
290 31 160 30 
291 14 15 150 
292 150 15 161 
293 150 161 151 
294 151 161 162 
295 151 162 152 
296 152 162 163 
297 152 163 153 
298 153 163 164 
299 153 164 154 
300 154 164 165 
301 154 165 155 
302 155 165 166 
303 155 166 156 
304 156 166 167 
305 156 167 157 
306 157 167 168 
307 157 168 158 
308 158 168 169 
309 158 169 159 
310 159 169 170 
311 159 170 160 
312 160 170 171 
313 160 171 30 
314 30 171 29 
315 15 16 161 
316 161 16 172 
317 161 172 162 
318 162 172 173 
319 162 173 163 
320 163 173 174 
321 163 174 164 
322 164 174 175 
323 164 175 165 
324 165 175 176 
325 165 176 166 
326 166 176 177 
327 166 177 167 
328 167 177 178 
329 167 178 168 
330 168 178 179 
331 168 179 169 
332 169 179 180 
333 169 180 170 
334 170 180 181 
335 170 181 171 
336 171 181 182 
337 171 182 29 
338 29 182 28 
339 16 2 172 
340 172 2 17 
341 172 17 173 
342 173 17 18 
343 173 18 174 
344 174 18 19 
345 174 19 175 
346 175 19 20 
347 175 20 176 
348 176 20 21 
349 176 21 177 
350 177 21 22 
351 177 22 178 
352 178 22 23 
353 178 23 179 
354 179 23 24 
355 179 24 180 
356 180 24 25 
357 180 25 181 
358 181 25 26 
359 181 26 182 
360 182 26 27 
361 182 27 28 
362 28 27 3 
$EndElements
