$MeshFormat
4.1 0 8
$EndMeshFormat
$PhysicalNames
6
1 1 "Γ¹"
1 2 "Γ²"
1 3 "Γ³"
1 4 "Γ⁴"
1 6 "Γ"
2 5 "Ω"
$EndPhysicalNames
$Entities
4 5 1 0
1 0 0 0 0 
2 0.4 0 0 0 
3 0.4 1 0 0 
4 0 1 0 0 
1 0 0 0 0.4 0 0 1 1 2 1 -2 
2 0.4 0 0 0.4 1 0 1 2 2 2 -3 
3 0 1 0 0.4 1 0 1 3 2 3 -4 
4 0 0 0 0 1 0 1 4 2 4 -1 
5 0 0 0 0.4 1 0 1 6 0 
1 0 0 0 0.4 1 0 1 5 4 1 2 3 4 
$EndEntities
$Nodes
10 78 1 78
0 1 0 1
1
0 0 0
0 2 0 1
2
0.4 0 0
0 3 0 1
3
0.4 1 0
0 4 0 1
4
0 1 0
1 1 0 4
5
6
7
8
0.07999999999982406 0 0
0.1599999999995836 0 0
0.2399999999995772 0 0
0.3199999999997897 0 0
1 2 0 11
9
10
11
12
13
14
15
16
17
18
19
0.4 0.08333333333317297 0
0.4 0.1666666666663209 0
0.4 0.2499999999994109 0
0.4 0.333333333332501 0
0.4 0.4166666666655911 0
0.4 0.499999999998692 0
0.4 0.5833333333322344 0
0.4 0.6666666666657874 0
0.4 0.7499999999993405 0
0.4 0.8333333333328937 0
0.4 0.9166666666664468 0
1 3 0 4
20
21
22
23
0.3200000000002214 1 0
0.2400000000004427 1 0
0.1600000000004406 1 0
0.08000000000021917 1 0
1 4 0 11
24
25
26
27
28
29
30
31
32
33
34
0 0.9166666666663197 0
0 0.833333333333102 0
0 0.7500000000003471 0
0 0.6666666666675918 0
0 0.5833333333348364 0
0 0.5000000000020595 0
0 0.416666666668401 0
0 0.3333333333347207 0
0 0.2500000000010405 0
0 0.1666666666673604 0
0 0.0833333333336802 0
1 5 0 0
2 1 0 44
35
36
37
38
39
40
41
42
43
44
45
46
47
48
49
50
51
52
53
54
55
56
57
58
59
60
61
62
63
64
65
66
67
68
69
70
71
72
73
74
75
76
77
78
0.079999999999857 0.08333333333357879 0
0.07999999999988991 0.1666666666671525 0
0.07999999999992281 0.2500000000007147 0
0.07999999999995577 0.3333333333342768 0
0.07999999999998869 0.416666666667839 0
0.08000000000002161 0.500000000001386 0
0.08000000000005456 0.583333333334316 0
0.08000000000008747 0.666666666667231 0
0.08000000000012039 0.7500000000001458 0
0.08000000000015334 0.8333333333330601 0
0.08000000000018626 0.916666666666345 0
0.159999999999655 0.08333333333347728 0
0.1599999999997264 0.1666666666669446 0
0.1599999999997978 0.2500000000003887 0
0.1599999999998692 0.3333333333338327 0
0.1599999999999407 0.4166666666672771 0
0.1600000000000121 0.5000000000007125 0
0.1600000000000835 0.5833333333337956 0
0.1600000000001549 0.6666666666668701 0
0.1600000000002263 0.7499999999999443 0
0.1600000000002977 0.8333333333330186 0
0.1600000000003691 0.9166666666663705 0
0.2399999999996493 0.08333333333337588 0
0.2399999999997215 0.1666666666667367 0
0.2399999999997936 0.2500000000000627 0
0.2399999999998657 0.3333333333333889 0
0.2399999999999379 0.416666666666715 0
0.24000000000001 0.5000000000000391 0
0.2400000000000821 0.5833333333332751 0
0.2400000000001543 0.6666666666665093 0
0.2400000000002264 0.7499999999997432 0
0.2400000000002984 0.833333333332977 0
0.2400000000003706 0.9166666666663961 0
0.3199999999998255 0.0833333333332744 0
0.3199999999998617 0.1666666666665288 0
0.3199999999998976 0.2499999999997368 0
0.3199999999999336 0.3333333333329451 0
0.3199999999999695 0.4166666666661532 0
0.3200000000000055 0.4999999999993655 0
0.3200000000000415 0.5833333333327546 0
0.3200000000000774 0.6666666666661483 0
0.3200000000001134 0.749999999999542 0
0.3200000000001494 0.8333333333329355 0
0.3200000000001854 0.9166666666664214 0
$EndNodes
$Elements
6 514 1 1392
1 1 1 5
1 1 5 
2 5 6 
3 6 7 
4 7 8 
5 8 2 
1 2 1 12
6 2 9 
7 9 10 
8 10 11 
9 11 12 
10 12 13 
11 13 14 
12 14 15 
13 15 16 
14 16 17 
15 17 18 
16 18 19 
17 19 3 
1 3 1 5
18 3 20 
19 20 21 
20 21 22 
21 22 23 
22 23 4 
1 4 1 12
23 4 24 
24 24 25 
25 25 26 
26 26 27 
27 27 28 
28 28 29 
29 29 30 
30 30 31 
31 31 32 
32 32 33 
33 33 34 
34 34 1 
1 5 1 360
1033 1 5 
1034 5 34 
1035 34 1 
1036 34 5 
1037 5 35 
1038 35 34 
1039 34 35 
1040 35 33 
1041 33 34 
1042 33 35 
1043 35 36 
1044 36 33 
1045 33 36 
1046 36 32 
1047 32 33 
1048 32 36 
1049 36 37 
1050 37 32 
1051 32 37 
1052 37 31 
1053 31 32 
1054 31 37 
1055 37 38 
1056 38 31 
1057 31 38 
1058 38 30 
1059 30 31 
1060 30 38 
1061 38 39 
1062 39 30 
1063 30 39 
1064 39 29 
1065 29 30 
1066 29 39 
1067 39 40 
1068 40 29 
1069 29 40 
1070 40 28 
1071 28 29 
1072 28 40 
1073 40 41 
1074 41 28 
1075 28 41 
1076 41 27 
1077 27 28 
1078 27 41 
1079 41 42 
1080 42 27 
1081 27 42 
1082 42 26 
1083 26 27 
1084 26 42 
1085 42 43 
1086 43 26 
1087 26 43 
1088 43 25 
1089 25 26 
1090 25 43 
1091 43 44 
1092 44 25 
1093 25 44 
1094 44 24 
1095 24 25 
1096 24 44 
1097 44 45 
1098 45 24 
1099 24 45 
1100 45 4 
1101 4 24 
1102 4 45 
1103 45 23 
1104 23 4 
1105 5 6 
1106 6 35 
1107 35 5 
1108 35 6 
1109 6 46 
1110 46 35 
1111 35 46 
1112 46 36 
1113 36 35 
1114 36 46 
1115 46 47 
1116 47 36 
1117 36 47 
1118 47 37 
1119 37 36 
1120 37 47 
1121 47 48 
1122 48 37 
1123 37 48 
1124 48 38 
1125 38 37 
1126 38 48 
1127 48 49 
1128 49 38 
1129 38 49 
1130 49 39 
1131 39 38 
1132 39 49 
1133 49 50 
1134 50 39 
1135 39 50 
1136 50 40 
1137 40 39 
1138 40 50 
1139 50 51 
1140 51 40 
1141 40 51 
1142 51 41 
1143 41 40 
1144 41 51 
1145 51 52 
1146 52 41 
1147 41 52 
1148 52 42 
1149 42 41 
1150 42 52 
1151 52 53 
1152 53 42 
1153 42 53 
1154 53 43 
1155 43 42 
1156 43 53 
1157 53 54 
1158 54 43 
1159 43 54 
1160 54 44 
1161 44 43 
1162 44 54 
1163 54 55 
1164 55 44 
1165 44 55 
1166 55 45 
1167 45 44 
1168 45 55 
1169 55 56 
1170 56 45 
1171 45 56 
1172 56 23 
1173 23 45 
1174 23 56 
1175 56 22 
1176 22 23 
1177 6 7 
1178 7 46 
1179 46 6 
1180 46 7 
1181 7 57 
1182 57 46 
1183 46 57 
1184 57 47 
1185 47 46 
1186 47 57 
1187 57 58 
1188 58 47 
1189 47 58 
1190 58 48 
1191 48 47 
1192 48 58 
1193 58 59 
1194 59 48 
1195 48 59 
1196 59 49 
1197 49 48 
1198 49 59 
1199 59 60 
1200 60 49 
1201 49 60 
1202 60 50 
1203 50 49 
1204 50 60 
1205 60 61 
1206 61 50 
1207 50 61 
1208 61 51 
1209 51 50 
1210 51 61 
1211 61 62 
1212 62 51 
1213 51 62 
1214 62 52 
1215 52 51 
1216 52 62 
1217 62 63 
1218 63 52 
1219 52 63 
1220 63 53 
1221 53 52 
1222 53 63 
1223 63 64 
1224 64 53 
1225 53 64 
1226 64 54 
1227 54 53 
1228 54 64 
1229 64 65 
1230 65 54 
1231 54 65 
1232 65 55 
1233 55 54 
1234 55 65 
1235 65 66 
1236 66 55 
1237 55 66 
1238 66 56 
1239 56 55 
1240 56 66 
1241 66 67 
1242 67 56 
1243 56 67 
1244 67 22 
1245 22 56 
1246 22 67 
1247 67 21 
1248 21 22 
1249 7 8 
1250 8 57 
1251 57 7 
1252 57 8 
1253 8 68 
1254 68 57 
1255 57 68 
1256 68 58 
1257 58 57 
1258 58 68 
1259 68 69 
1260 69 58 
1261 58 69 
1262 69 59 
1263 59 58 
1264 59 69 
1265 69 70 
1266 70 59 
1267 59 70 
1268 70 60 
1269 60 59 
1270 60 70 
1271 70 71 
1272 71 60 
1273 60 71 
1274 71 61 
1275 61 60 
1276 61 71 
1277 71 72 
1278 72 61 
1279 61 72 
1280 72 62 
1281 62 61 
1282 62 72 
1283 72 73 
1284 73 62 
1285 62 73 
1286 73 63 
1287 63 62 
1288 63 73 
1289 73 74 
1290 74 63 
1291 63 74 
1292 74 64 
1293 64 63 
1294 64 74 
1295 74 75 
1296 75 64 
1297 64 75 
1298 75 65 
1299 65 64 
1300 65 75 
1301 75 76 
1302 76 65 
1303 65 76 
1304 76 66 
1305 66 65 
1306 66 76 
1307 76 77 
1308 77 66 
1309 66 77 
1310 77 67 
1311 67 66 
1312 67 77 
1313 77 78 
1314 78 67 
1315 67 78 
1316 78 21 
1317 21 67 
1318 21 78 
1319 78 20 
1320 20 21 
1321 8 2 
1322 2 68 
1323 68 8 
1324 68 2 
1325 2 9 
1326 9 68 
1327 68 9 
1328 9 69 
1329 69 68 
1330 69 9 
1331 9 10 
1332 10 69 
1333 69 10 
1334 10 70 
1335 70 69 
1336 70 10 
1337 10 11 
1338 11 70 
1339 70 11 
1340 11 71 
1341 71 70 
1342 71 11 
1343 11 12 
1344 12 71 
1345 71 12 
1346 12 72 
1347 72 71 
1348 72 12 
1349 12 13 
1350 13 72 
1351 72 13 
1352 13 73 
1353 73 72 
1354 73 13 
1355 13 14 
1356 14 73 
1357 73 14 
1358 14 74 
1359 74 73 
1360 74 14 
1361 14 15 
1362 15 74 
1363 74 15 
1364 15 75 
1365 75 74 
1366 75 15 
1367 15 16 
1368 16 75 
1369 75 16 
1370 16 76 
1371 76 75 
1372 76 16 
1373 16 17 
1374 17 76 
1375 76 17 
1376 17 77 
1377 77 76 
1378 77 17 
1379 17 18 
1380 18 77 
1381 77 18 
1382 18 78 
1383 78 77 
1384 78 18 
1385 18 19 
1386 19 78 
1387 78 19 
1388 19 20 
1389 20 78 
1390 20 19 
1391 19 3 
1392 3 20 
2 1 2 120
35 1 5 34 
36 34 5 35 
37 34 35 33 
38 33 35 36 
39 33 36 32 
40 32 36 37 
41 32 37 31 
42 31 37 38 
43 31 38 30 
44 30 38 39 
45 30 39 29 
46 29 39 40 
47 29 40 28 
48 28 40 41 
49 28 41 27 
50 27 41 42 
51 27 42 26 
52 26 42 43 
53 26 43 25 
54 25 43 44 
55 25 44 24 
56 24 44 45 
57 24 45 4 
58 4 45 23 
59 5 6 35 
60 35 6 46 
61 35 46 36 
62 36 46 47 
63 36 47 37 
64 37 47 48 
65 37 48 38 
66 38 48 49 
67 38 49 39 
68 39 49 50 
69 39 50 40 
70 40 50 51 
71 40 51 41 
72 41 51 52 
73 41 52 42 
74 42 52 53 
75 42 53 43 
76 43 53 54 
77 43 54 44 
78 44 54 55 
79 44 55 45 
80 45 55 56 
81 45 56 23 
82 23 56 22 
83 6 7 46 
84 46 7 57 
85 46 57 47 
86 47 57 58 
87 47 58 48 
88 48 58 59 
89 48 59 49 
90 49 59 60 
91 49 60 50 
92 50 60 61 
93 50 61 51 
94 51 61 62 
95 51 62 52 
96 52 62 63 
97 52 63 53 
98 53 63 64 
99 53 64 54 
100 54 64 65 
101 54 65 55 
102 55 65 66 
103 55 66 56 
104 56 66 67 
105 56 67 22 
106 22 67 21 
107 7 8 57 
108 57 8 68 
109 57 68 58 
110 58 68 69 
111 58 69 59 
112 59 69 70 
113 59 70 60 
114 60 70 71 
115 60 71 61 
116 61 71 72 
117 61 72 62 
118 62 72 73 
119 62 73 63 
120 63 73 74 
121 63 74 64 
122 64 74 75 
123 64 75 65 
124 65 75 76 
125 65 76 66 
126 66 76 77 
127 66 77 67 
128 67 77 78 
129 67 78 21 
130 21 78 20 
131 8 2 68 
132 68 2 9 
133 68 9 69 
134 69 9 10 
135 69 10 70 
136 70 10 11 
137 70 11 71 
138 71 11 12 
139 71 12 72 
140 72 12 13 
141 72 13 73 
142 73 13 14 
143 73 14 74 
144 74 14 15 
145 74 15 75 
146 75 15 16 
147 75 16 76 
148 76 16 17 
149 76 17 77 
150 77 17 18 
151 77 18 78 
152 78 18 19 
153 78 19 20 
154 20 19 3 
$EndElements
