$MeshFormat
4.1 0 8
$EndMeshFormat
$PhysicalNames
6
1 1 "Γ¹"
1 2 "Γ²"
1 3 "Γ³"
1 4 "Γ⁴"
1 6 "Γ"
2 5 "Ω"
$EndPhysicalNames
$Entities
4 5 1 0
1 0 0 0 0 
2 2.5 0 0 0 
3 2.5 1 0 0 
4 0 1 0 0 
1 0 0 0 2.5 0 0 1 1 2 1 -2 
2 2.5 0 0 2.5 1 0 1 2 2 2 -3 
3 0 1 0 2.5 1 0 1 3 2 3 -4 
4 0 0 0 0 1 0 1 4 2 4 -1 
5 0 0 0 2.5 1 0 1 6 0 
1 0 0 0 2.5 1 0 1 5 4 1 2 3 4 
$EndEntities
$Nodes
10 403 1 403
0 1 0 1
1
0 0 0
0 2 0 1
2
2.5 0 0
0 3 0 1
3
2.5 1 0
0 4 0 1
4
0 1 0
1 1 0 29
5
6
7
8
9
10
11
12
13
14
15
16
17
18
19
20
21
22
23
24
25
26
27
28
29
30
31
32
33
0.08333333333326891 0 0
0.1666666666665215 0 0
0.2499999999997963 0 0
0.3333333333330249 0 0
0.4166666666661146 0 0
0.4999999999992044 0 0
0.5833333333322942 0 0
0.6666666666653841 0 0
0.7499999999984742 0 0
0.8333333333315641 0 0
0.9166666666646541 0 0
0.9999999999977529 0 0
1.083333333331178 0 0
1.166666666664638 0 0
1.249999999998098 0 0
1.333333333331559 0 0
1.416666666665019 0 0
1.499999999998479 0 0
1.583333333331939 0 0
1.666666666665399 0 0
1.749999999998859 0 0
1.833333333332319 0 0
1.916666666665779 0 0
1.99999999999924 0 0
2.083333333332699 0 0
2.16666666666616 0 0
2.249999999999619 0 0
2.33333333333308 0 0
2.41666666666654 0 0
1 2 0 11
34
35
36
37
38
39
40
41
42
43
44
2.5 0.08333333333317297 0
2.5 0.1666666666663209 0
2.5 0.2499999999994109 0
2.5 0.333333333332501 0
2.5 0.4166666666655911 0
2.5 0.499999999998692 0
2.5 0.5833333333322344 0
2.5 0.6666666666657874 0
2.5 0.7499999999993405 0
2.5 0.8333333333328937 0
2.5 0.9166666666664468 0
1 3 0 29
45
46
47
48
49
50
51
52
53
54
55
56
57
58
59
60
61
62
63
64
65
66
67
68
69
70
71
72
73
2.416666666666667 1 0
2.333333333333333 1 0
2.25 1 0
2.166666666666667 1 0
2.083333333333334 1 0
2.000000000000001 1 0
1.916666666666668 1 0
1.833333333333335 1 0
1.750000000000001 1 0
1.666666666666668 1 0
1.583333333333334 1 0
1.500000000000001 1 0
1.416666666666668 1 0
1.333333333333334 1 0
1.250000000000001 1 0
1.166666666666667 1 0
1.083333333333334 1 0
1.000000000000001 1 0
0.9166666666666674 1 0
0.8333333333333339 1 0
0.7500000000000007 1 0
0.666666666666667 1 0
0.5833333333333337 1 0
0.5000000000000004 1 0
0.416666666666667 1 0
0.3333333333333339 1 0
0.25 1 0
0.166666666666667 1 0
0.08333333333333348 1 0
1 4 0 11
74
75
76
77
78
79
80
81
82
83
84
0 0.9166666666663197 0
0 0.833333333333102 0
0 0.7500000000003471 0
0 0.6666666666675918 0
0 0.5833333333348364 0
0 0.5000000000020595 0
0 0.416666666668401 0
0 0.3333333333347207 0
0 0.2500000000010405 0
0 0.1666666666673604 0
0 0.0833333333336802 0
1 5 0 0
2 1 0 319
85
86
87
88
89
90
91
92
93
94
95
96
97
98
99
100
101
102
103
104
105
106
107
108
109
110
111
112
113
114
115
116
117
118
119
120
121
122
123
124
125
126
127
128
129
130
131
132
133
134
135
136
137
138
139
140
141
142
143
144
145
146
147
148
149
150
151
152
153
154
155
156
157
158
159
160
161
162
163
164
165
166
167
168
169
170
171
172
173
174
175
176
177
178
179
180
181
182
183
184
185
186
187
188
189
190
191
192
193
194
195
196
197
198
199
200
201
202
203
204
205
206
207
208
209
210
211
212
213
214
215
216
217
218
219
220
221
222
223
224
225
226
227
228
229
230
231
232
233
234
235
236
237
238
239
240
241
242
243
244
245
246
247
248
249
250
251
252
253
254
255
256
257
258
259
260
261
262
263
264
265
266
267
268
269
270
271
272
273
274
275
276
277
278
279
280
281
282
283
284
285
286
287
288
289
290
291
292
293
294
295
296
297
298
299
300
301
302
303
304
305
306
307
308
309
310
311
312
313
314
315
316
317
318
319
320
321
322
323
324
325
326
327
328
329
330
331
332
333
334
335
336
337
338
339
340
341
342
343
344
345
346
347
348
349
350
351
352
353
354
355
356
357
358
359
360
361
362
363
364
365
366
367
368
369
370
371
372
373
374
375
376
377
378
379
380
381
382
383
384
385
386
387
388
389
390
391
392
393
394
395
396
397
398
399
400
401
402
403
0.08333333333327429 0.0833333333336633 0
0.08333333333327966 0.1666666666673257 0
0.08333333333328509 0.2500000000009862 0
0.08333333333329043 0.3333333333346468 0
0.08333333333329579 0.4166666666683074 0
0.0833333333333012 0.5000000000019473 0
0.08333333333330659 0.5833333333347497 0
0.08333333333331194 0.6666666666675316 0
0.08333333333331733 0.7500000000003134 0
0.08333333333332273 0.8333333333330948 0
0.08333333333332811 0.916666666666324 0
0.1666666666665336 0.08333333333364637 0
0.1666666666665458 0.1666666666672911 0
0.1666666666665579 0.2500000000009318 0
0.16666666666657 0.3333333333345727 0
0.1666666666665821 0.4166666666682137 0
0.1666666666665942 0.500000000001835 0
0.1666666666666063 0.5833333333346629 0
0.1666666666666184 0.6666666666674717 0
0.1666666666666306 0.7500000000002801 0
0.1666666666666427 0.8333333333330882 0
0.1666666666666548 0.916666666666328 0
0.2499999999998133 0.08333333333362947 0
0.2499999999998303 0.1666666666672565 0
0.2499999999998472 0.2500000000008776 0
0.2499999999998642 0.3333333333344987 0
0.2499999999998812 0.41666666666812 0
0.2499999999998982 0.5000000000017226 0
0.2499999999999152 0.5833333333345763 0
0.2499999999999321 0.6666666666674113 0
0.2499999999999492 0.7500000000002462 0
0.249999999999966 0.8333333333330811 0
0.249999999999983 0.9166666666663326 0
0.3333333333330507 0.08333333333361258 0
0.3333333333330764 0.1666666666672218 0
0.3333333333331022 0.2500000000008232 0
0.3333333333331279 0.3333333333344248 0
0.3333333333331536 0.4166666666680263 0
0.3333333333331795 0.5000000000016105 0
0.3333333333332053 0.5833333333344894 0
0.3333333333332308 0.6666666666673513 0
0.3333333333332566 0.7500000000002128 0
0.3333333333332824 0.833333333333074 0
0.3333333333333081 0.9166666666663366 0
0.4166666666661606 0.08333333333359565 0
0.4166666666662068 0.1666666666671872 0
0.4166666666662526 0.2500000000007688 0
0.4166666666662988 0.3333333333343508 0
0.4166666666663448 0.4166666666679327 0
0.4166666666663909 0.5000000000014984 0
0.4166666666664368 0.5833333333344026 0
0.4166666666664829 0.6666666666672909 0
0.416666666666529 0.7500000000001794 0
0.4166666666665749 0.8333333333330674 0
0.4166666666666209 0.9166666666663411 0
0.4999999999992707 0.08333333333357877 0
0.4999999999993372 0.1666666666671525 0
0.4999999999994035 0.2500000000007147 0
0.4999999999994696 0.3333333333342768 0
0.4999999999995361 0.416666666667839 0
0.4999999999996024 0.500000000001386 0
0.4999999999996688 0.583333333334316 0
0.4999999999997349 0.666666666667231 0
0.4999999999998014 0.7500000000001456 0
0.4999999999998678 0.8333333333330603 0
0.4999999999999342 0.916666666666345 0
0.5833333333323808 0.08333333333356183 0
0.5833333333324677 0.1666666666671179 0
0.5833333333325543 0.2500000000006602 0
0.5833333333326409 0.3333333333342027 0
0.5833333333327275 0.4166666666677454 0
0.5833333333328139 0.5000000000012736 0
0.5833333333329007 0.5833333333342292 0
0.5833333333329872 0.6666666666671708 0
0.5833333333330738 0.7500000000001122 0
0.5833333333331604 0.8333333333330536 0
0.5833333333332473 0.9166666666663494 0
0.666666666665491 0.08333333333354496 0
0.6666666666655978 0.1666666666670832 0
0.666666666665705 0.250000000000606 0
0.6666666666658116 0.3333333333341288 0
0.6666666666659187 0.4166666666676517 0
0.6666666666660255 0.5000000000011615 0
0.6666666666661323 0.5833333333341424 0
0.6666666666662394 0.6666666666671106 0
0.6666666666663463 0.7500000000000785 0
0.6666666666664534 0.8333333333330465 0
0.66666666666656 0.9166666666663537 0
0.7499999999986013 0.08333333333352802 0
0.7499999999987286 0.1666666666670485 0
0.7499999999988558 0.2500000000005517 0
0.7499999999989829 0.3333333333340548 0
0.7499999999991103 0.416666666667558 0
0.7499999999992375 0.5000000000010494 0
0.7499999999993647 0.5833333333340558 0
0.749999999999492 0.6666666666670507 0
0.749999999999619 0.7500000000000451 0
0.7499999999997464 0.8333333333330396 0
0.7499999999998734 0.9166666666663579 0
0.8333333333317114 0.0833333333335111 0
0.8333333333318592 0.1666666666670139 0
0.8333333333320065 0.2500000000004973 0
0.8333333333321538 0.3333333333339809 0
0.8333333333323016 0.4166666666674643 0
0.8333333333324491 0.500000000000937 0
0.8333333333325965 0.5833333333339692 0
0.8333333333327441 0.6666666666669903 0
0.8333333333328914 0.7500000000000114 0
0.8333333333330387 0.8333333333330327 0
0.8333333333331865 0.9166666666663621 0
0.916666666664822 0.08333333333349423 0
0.9166666666649896 0.1666666666669792 0
0.9166666666651575 0.250000000000443 0
0.9166666666653254 0.3333333333339067 0
0.916666666665493 0.4166666666673707 0
0.9166666666656609 0.5000000000008247 0
0.9166666666658287 0.5833333333338824 0
0.9166666666659962 0.6666666666669303 0
0.916666666666164 0.7499999999999781 0
0.9166666666663319 0.8333333333330256 0
0.9166666666664995 0.9166666666663663 0
0.9999999999979403 0.08333333333347728 0
0.9999999999981275 0.1666666666669446 0
0.9999999999983151 0.2500000000003887 0
0.9999999999985019 0.3333333333338327 0
0.9999999999986895 0.416666666667277 0
0.9999999999988769 0.5000000000007125 0
0.9999999999990643 0.5833333333337956 0
0.9999999999992517 0.6666666666668701 0
0.9999999999994391 0.7499999999999443 0
0.9999999999996263 0.8333333333330187 0
0.9999999999998134 0.9166666666663705 0
1.083333333331358 0.08333333333346044 0
1.083333333331538 0.16666666666691 0
1.083333333331717 0.2500000000003343 0
1.083333333331897 0.3333333333337589 0
1.083333333332076 0.4166666666671834 0
1.083333333332256 0.5000000000006002 0
1.083333333332436 0.5833333333337087 0
1.083333333332616 0.66666666666681 0
1.083333333332795 0.749999999999911 0
1.083333333332975 0.833333333333012 0
1.083333333333155 0.9166666666663748 0
1.166666666664807 0.08333333333344348 0
1.166666666664977 0.1666666666668753 0
1.166666666665146 0.2500000000002801 0
1.166666666665315 0.3333333333336849 0
1.166666666665484 0.4166666666670897 0
1.166666666665653 0.5000000000004881 0
1.166666666665822 0.5833333333336221 0
1.166666666665991 0.6666666666667498 0
1.16666666666616 0.7499999999998772 0
1.166666666666329 0.8333333333330046 0
1.166666666666498 0.9166666666663792 0
1.249999999998257 0.08333333333342659 0
1.249999999998416 0.1666666666668406 0
1.249999999998574 0.2500000000002257 0
1.249999999998733 0.3333333333336109 0
1.249999999998891 0.416666666666996 0
1.24999999999905 0.5000000000003757 0
1.249999999999208 0.5833333333335353 0
1.249999999999367 0.6666666666666896 0
1.249999999999525 0.7499999999998438 0
1.249999999999684 0.8333333333329979 0
1.249999999999842 0.9166666666663832 0
1.333333333331707 0.08333333333340968 0
1.333333333331854 0.1666666666668059 0
1.333333333332003 0.2500000000001714 0
1.333333333332151 0.3333333333335368 0
1.333333333332298 0.4166666666669023 0
1.333333333332447 0.5000000000002636 0
1.333333333332595 0.5833333333334487 0
1.333333333332742 0.6666666666666294 0
1.33333333333289 0.7499999999998103 0
1.333333333333038 0.833333333332991 0
1.333333333333187 0.9166666666663874 0
1.416666666665156 0.08333333333339275 0
1.416666666665293 0.1666666666667713 0
1.416666666665431 0.2500000000001171 0
1.416666666665568 0.3333333333334629 0
1.416666666665706 0.4166666666668087 0
1.416666666665843 0.5000000000001512 0
1.41666666666598 0.5833333333333619 0
1.416666666666118 0.6666666666665693 0
1.416666666666255 0.7499999999997767 0
1.416666666666393 0.8333333333329839 0
1.416666666666531 0.9166666666663918 0
1.499999999998606 0.08333333333337588 0
1.499999999998733 0.1666666666667367 0
1.49999999999886 0.2500000000000627 0
1.499999999998986 0.3333333333333889 0
1.499999999999113 0.4166666666667151 0
1.49999999999924 0.5000000000000391 0
1.499999999999367 0.5833333333332751 0
1.499999999999493 0.6666666666665091 0
1.49999999999962 0.7499999999997432 0
1.499999999999748 0.8333333333329772 0
1.499999999999874 0.9166666666663958 0
1.583333333332055 0.08333333333335895 0
1.583333333332171 0.166666666666702 0
1.583333333332288 0.2500000000000084 0
1.583333333332404 0.3333333333333149 0
1.58333333333252 0.4166666666666214 0
1.583333333332637 0.4999999999999267 0
1.583333333332753 0.5833333333331885 0
1.583333333332869 0.6666666666664489 0
1.583333333332986 0.7499999999997095 0
1.583333333333102 0.8333333333329702 0
1.583333333333218 0.9166666666664001 0
1.666666666665505 0.08333333333334207 0
1.66666666666561 0.1666666666666674 0
1.666666666665716 0.2499999999999541 0
1.666666666665822 0.3333333333332409 0
1.666666666665928 0.4166666666665277 0
1.666666666666033 0.4999999999998144 0
1.66666666666614 0.5833333333331017 0
1.666666666666245 0.666666666666389 0
1.666666666666351 0.7499999999996761 0
1.666666666666457 0.833333333332963 0
1.666666666666563 0.9166666666664045 0
1.749999999998954 0.08333333333332514 0
1.749999999999049 0.1666666666666327 0
1.749999999999145 0.2499999999998997 0
1.74999999999924 0.3333333333331669 0
1.749999999999335 0.416666666666434 0
1.74999999999943 0.4999999999997022 0
1.749999999999525 0.5833333333330148 0
1.749999999999621 0.6666666666663288 0
1.749999999999715 0.7499999999996423 0
1.749999999999811 0.8333333333329563 0
1.749999999999906 0.9166666666664087 0
1.833333333332404 0.08333333333330821 0
1.833333333332488 0.1666666666665981 0
1.833333333332573 0.2499999999998455 0
1.833333333332658 0.333333333333093 0
1.833333333332742 0.4166666666663403 0
1.833333333332827 0.49999999999959 0
1.833333333332912 0.5833333333329282 0
1.833333333332996 0.6666666666662686 0
1.833333333333081 0.7499999999996091 0
1.833333333333166 0.8333333333329492 0
1.83333333333325 0.9166666666664129 0
1.916666666665853 0.08333333333329133 0
1.916666666665928 0.1666666666665635 0
1.916666666666001 0.2499999999997912 0
1.916666666666075 0.333333333333019 0
1.916666666666149 0.4166666666662467 0
1.916666666666224 0.4999999999994778 0
1.916666666666298 0.5833333333328414 0
1.916666666666372 0.6666666666662084 0
1.916666666666446 0.7499999999995753 0
1.91666666666652 0.8333333333329422 0
1.916666666666594 0.9166666666664172 0
1.999999999999303 0.0833333333332744 0
1.999999999999366 0.1666666666665288 0
1.99999999999943 0.2499999999997368 0
1.999999999999493 0.3333333333329451 0
1.999999999999557 0.4166666666661532 0
1.99999999999962 0.4999999999993655 0
1.999999999999684 0.5833333333327546 0
1.999999999999747 0.6666666666661483 0
1.99999999999981 0.749999999999542 0
1.999999999999874 0.8333333333329355 0
1.999999999999937 0.9166666666664214 0
2.083333333332752 0.08333333333325753 0
2.083333333332805 0.1666666666664941 0
2.083333333332858 0.2499999999996825 0
2.083333333332911 0.3333333333328709 0
2.083333333332964 0.4166666666660594 0
2.083333333333017 0.4999999999992533 0
2.083333333333069 0.583333333332668 0
2.083333333333123 0.6666666666660883 0
2.083333333333175 0.7499999999995083 0
2.083333333333228 0.8333333333329282 0
2.083333333333282 0.9166666666664256 0
2.166666666666202 0.0833333333332406 0
2.166666666666245 0.1666666666664594 0
2.166666666666286 0.2499999999996282 0
2.166666666666329 0.333333333332797 0
2.166666666666372 0.4166666666659657 0
2.166666666666413 0.4999999999991411 0
2.166666666666455 0.5833333333325814 0
2.166666666666498 0.6666666666660279 0
2.16666666666654 0.7499999999994745 0
2.166666666666582 0.8333333333329215 0
2.166666666666625 0.9166666666664298 0
2.249999999999651 0.08333333333322369 0
2.249999999999683 0.1666666666664248 0
2.249999999999715 0.2499999999995739 0
2.249999999999747 0.333333333332723 0
2.249999999999779 0.416666666665872 0
2.24999999999981 0.4999999999990288 0
2.249999999999842 0.5833333333324946 0
2.249999999999874 0.666666666665968 0
2.249999999999905 0.7499999999994412 0
2.249999999999937 0.8333333333329146 0
2.249999999999968 0.916666666666434 0
2.333333333333102 0.08333333333320679 0
2.333333333333123 0.1666666666663902 0
2.333333333333143 0.2499999999995196 0
2.333333333333164 0.3333333333326491 0
2.333333333333185 0.4166666666657783 0
2.333333333333206 0.4999999999989165 0
2.333333333333228 0.5833333333324078 0
2.333333333333248 0.6666666666659078 0
2.33333333333327 0.7499999999994077 0
2.333333333333291 0.8333333333329075 0
2.333333333333312 0.9166666666664383 0
2.41666666666655 0.08333333333318989 0
2.416666666666562 0.1666666666663555 0
2.416666666666571 0.2499999999994652 0
2.416666666666583 0.333333333332575 0
2.416666666666593 0.4166666666656847 0
2.416666666666603 0.4999999999988043 0
2.416666666666614 0.5833333333323212 0
2.416666666666625 0.6666666666658476 0
2.416666666666635 0.7499999999993742 0
2.416666666666645 0.8333333333329006 0
2.416666666666656 0.9166666666664427 0
$EndNodes
$Elements
6 2964 1 8092
1 1 1 30
1 1 5 
2 5 6 
3 6 7 
4 7 8 
5 8 9 
6 9 10 
7 10 11 
8 11 12 
9 12 13 
10 13 14 
11 14 15 
12 15 16 
13 16 17 
14 17 18 
15 18 19 
16 19 20 
17 20 21 
18 21 22 
19 22 23 
20 23 24 
21 24 25 
22 25 26 
23 26 27 
24 27 28 
25 28 29 
26 29 30 
27 30 31 
28 31 32 
29 32 33 
30 33 2 
1 2 1 12
31 2 34 
32 34 35 
33 35 36 
34 36 37 
35 37 38 
36 38 39 
37 39 40 
38 40 41 
39 41 42 
40 42 43 
41 43 44 
42 44 3 
1 3 1 30
43 3 45 
44 45 46 
45 46 47 
46 47 48 
47 48 49 
48 49 50 
49 50 51 
50 51 52 
51 52 53 
52 53 54 
53 54 55 
54 55 56 
55 56 57 
56 57 58 
57 58 59 
58 59 60 
59 60 61 
60 61 62 
61 62 63 
62 63 64 
63 64 65 
64 65 66 
65 66 67 
66 67 68 
67 68 69 
68 69 70 
69 70 71 
70 71 72 
71 72 73 
72 73 4 
1 4 1 12
73 4 74 
74 74 75 
75 75 76 
76 76 77 
77 77 78 
78 78 79 
79 79 80 
80 80 81 
81 81 82 
82 82 83 
83 83 84 
84 84 1 
1 5 1 2160
5933 1 5 
5934 5 84 
5935 84 1 
5936 84 5 
5937 5 85 
5938 85 84 
5939 84 85 
5940 85 83 
5941 83 84 
5942 83 85 
5943 85 86 
5944 86 83 
5945 83 86 
5946 86 82 
5947 82 83 
5948 82 86 
5949 86 87 
5950 87 82 
5951 82 87 
5952 87 81 
5953 81 82 
5954 81 87 
5955 87 88 
5956 88 81 
5957 81 88 
5958 88 80 
5959 80 81 
5960 80 88 
5961 88 89 
5962 89 80 
5963 80 89 
5964 89 79 
5965 79 80 
5966 79 89 
5967 89 90 
5968 90 79 
5969 79 90 
5970 90 78 
5971 78 79 
5972 78 90 
5973 90 91 
5974 91 78 
5975 78 91 
5976 91 77 
5977 77 78 
5978 77 91 
5979 91 92 
5980 92 77 
5981 77 92 
5982 92 76 
5983 76 77 
5984 76 92 
5985 92 93 
5986 93 76 
5987 76 93 
5988 93 75 
5989 75 76 
5990 75 93 
5991 93 94 
5992 94 75 
5993 75 94 
5994 94 74 
5995 74 75 
5996 74 94 
5997 94 95 
5998 95 74 
5999 74 95 
6000 95 4 
6001 4 74 
6002 4 95 
6003 95 73 
6004 73 4 
6005 5 6 
6006 6 85 
6007 85 5 
6008 85 6 
6009 6 96 
6010 96 85 
6011 85 96 
6012 96 86 
6013 86 85 
6014 86 96 
6015 96 97 
6016 97 86 
6017 86 97 
6018 97 87 
6019 87 86 
6020 87 97 
6021 97 98 
6022 98 87 
6023 87 98 
6024 98 88 
6025 88 87 
6026 88 98 
6027 98 99 
6028 99 88 
6029 88 99 
6030 99 89 
6031 89 88 
6032 89 99 
6033 99 100 
6034 100 89 
6035 89 100 
6036 100 90 
6037 90 89 
6038 90 100 
6039 100 101 
6040 101 90 
6041 90 101 
6042 101 91 
6043 91 90 
6044 91 101 
6045 101 102 
6046 102 91 
6047 91 102 
6048 102 92 
6049 92 91 
6050 92 102 
6051 102 103 
6052 103 92 
6053 92 103 
6054 103 93 
6055 93 92 
6056 93 103 
6057 103 104 
6058 104 93 
6059 93 104 
6060 104 94 
6061 94 93 
6062 94 104 
6063 104 105 
6064 105 94 
6065 94 105 
6066 105 95 
6067 95 94 
6068 95 105 
6069 105 106 
6070 106 95 
6071 95 106 
6072 106 73 
6073 73 95 
6074 73 106 
6075 106 72 
6076 72 73 
6077 6 7 
6078 7 96 
6079 96 6 
6080 96 7 
6081 7 107 
6082 107 96 
6083 96 107 
6084 107 97 
6085 97 96 
6086 97 107 
6087 107 108 
6088 108 97 
6089 97 108 
6090 108 98 
6091 98 97 
6092 98 108 
6093 108 109 
6094 109 98 
6095 98 109 
6096 109 99 
6097 99 98 
6098 99 109 
6099 109 110 
6100 110 99 
6101 99 110 
6102 110 100 
6103 100 99 
6104 100 110 
6105 110 111 
6106 111 100 
6107 100 111 
6108 111 101 
6109 101 100 
6110 101 111 
6111 111 112 
6112 112 101 
6113 101 112 
6114 112 102 
6115 102 101 
6116 102 112 
6117 112 113 
6118 113 102 
6119 102 113 
6120 113 103 
6121 103 102 
6122 103 113 
6123 113 114 
6124 114 103 
6125 103 114 
6126 114 104 
6127 104 103 
6128 104 114 
6129 114 115 
6130 115 104 
6131 104 115 
6132 115 105 
6133 105 104 
6134 105 115 
6135 115 116 
6136 116 105 
6137 105 116 
6138 116 106 
6139 106 105 
6140 106 116 
6141 116 117 
6142 117 106 
6143 106 117 
6144 117 72 
6145 72 106 
6146 72 117 
6147 117 71 
6148 71 72 
6149 7 8 
6150 8 107 
6151 107 7 
6152 107 8 
6153 8 118 
6154 118 107 
6155 107 118 
6156 118 108 
6157 108 107 
6158 108 118 
6159 118 119 
6160 119 108 
6161 108 119 
6162 119 109 
6163 109 108 
6164 109 119 
6165 119 120 
6166 120 109 
6167 109 120 
6168 120 110 
6169 110 109 
6170 110 120 
6171 120 121 
6172 121 110 
6173 110 121 
6174 121 111 
6175 111 110 
6176 111 121 
6177 121 122 
6178 122 111 
6179 111 122 
6180 122 112 
6181 112 111 
6182 112 122 
6183 122 123 
6184 123 112 
6185 112 123 
6186 123 113 
6187 113 112 
6188 113 123 
6189 123 124 
6190 124 113 
6191 113 124 
6192 124 114 
6193 114 113 
6194 114 124 
6195 124 125 
6196 125 114 
6197 114 125 
6198 125 115 
6199 115 114 
6200 115 125 
6201 125 126 
6202 126 115 
6203 115 126 
6204 126 116 
6205 116 115 
6206 116 126 
6207 126 127 
6208 127 116 
6209 116 127 
6210 127 117 
6211 117 116 
6212 117 127 
6213 127 128 
6214 128 117 
6215 117 128 
6216 128 71 
6217 71 117 
6218 71 128 
6219 128 70 
6220 70 71 
6221 8 9 
6222 9 118 
6223 118 8 
6224 118 9 
6225 9 129 
6226 129 118 
6227 118 129 
6228 129 119 
6229 119 118 
6230 119 129 
6231 129 130 
6232 130 119 
6233 119 130 
6234 130 120 
6235 120 119 
6236 120 130 
6237 130 131 
6238 131 120 
6239 120 131 
6240 131 121 
6241 121 120 
6242 121 131 
6243 131 132 
6244 132 121 
6245 121 132 
6246 132 122 
6247 122 121 
6248 122 132 
6249 132 133 
6250 133 122 
6251 122 133 
6252 133 123 
6253 123 122 
6254 123 133 
6255 133 134 
6256 134 123 
6257 123 134 
6258 134 124 
6259 124 123 
6260 124 134 
6261 134 135 
6262 135 124 
6263 124 135 
6264 135 125 
6265 125 124 
6266 125 135 
6267 135 136 
6268 136 125 
6269 125 136 
6270 136 126 
6271 126 125 
6272 126 136 
6273 136 137 
6274 137 126 
6275 126 137 
6276 137 127 
6277 127 126 
6278 127 137 
6279 137 138 
6280 138 127 
6281 127 138 
6282 138 128 
6283 128 127 
6284 128 138 
6285 138 139 
6286 139 128 
6287 128 139 
6288 139 70 
6289 70 128 
6290 70 139 
6291 139 69 
6292 69 70 
6293 9 10 
6294 10 129 
6295 129 9 
6296 129 10 
6297 10 140 
6298 140 129 
6299 129 140 
6300 140 130 
6301 130 129 
6302 130 140 
6303 140 141 
6304 141 130 
6305 130 141 
6306 141 131 
6307 131 130 
6308 131 141 
6309 141 142 
6310 142 131 
6311 131 142 
6312 142 132 
6313 132 131 
6314 132 142 
6315 142 143 
6316 143 132 
6317 132 143 
6318 143 133 
6319 133 132 
6320 133 143 
6321 143 144 
6322 144 133 
6323 133 144 
6324 144 134 
6325 134 133 
6326 134 144 
6327 144 145 
6328 145 134 
6329 134 145 
6330 145 135 
6331 135 134 
6332 135 145 
6333 145 146 
6334 146 135 
6335 135 146 
6336 146 136 
6337 136 135 
6338 136 146 
6339 146 147 
6340 147 136 
6341 136 147 
6342 147 137 
6343 137 136 
6344 137 147 
6345 147 148 
6346 148 137 
6347 137 148 
6348 148 138 
6349 138 137 
6350 138 148 
6351 148 149 
6352 149 138 
6353 138 149 
6354 149 139 
6355 139 138 
6356 139 149 
6357 149 150 
6358 150 139 
6359 139 150 
6360 150 69 
6361 69 139 
6362 69 150 
6363 150 68 
6364 68 69 
6365 10 11 
6366 11 140 
6367 140 10 
6368 140 11 
6369 11 151 
6370 151 140 
6371 140 151 
6372 151 141 
6373 141 140 
6374 141 151 
6375 151 152 
6376 152 141 
6377 141 152 
6378 152 142 
6379 142 141 
6380 142 152 
6381 152 153 
6382 153 142 
6383 142 153 
6384 153 143 
6385 143 142 
6386 143 153 
6387 153 154 
6388 154 143 
6389 143 154 
6390 154 144 
6391 144 143 
6392 144 154 
6393 154 155 
6394 155 144 
6395 144 155 
6396 155 145 
6397 145 144 
6398 145 155 
6399 155 156 
6400 156 145 
6401 145 156 
6402 156 146 
6403 146 145 
6404 146 156 
6405 156 157 
6406 157 146 
6407 146 157 
6408 157 147 
6409 147 146 
6410 147 157 
6411 157 158 
6412 158 147 
6413 147 158 
6414 158 148 
6415 148 147 
6416 148 158 
6417 158 159 
6418 159 148 
6419 148 159 
6420 159 149 
6421 149 148 
6422 149 159 
6423 159 160 
6424 160 149 
6425 149 160 
6426 160 150 
6427 150 149 
6428 150 160 
6429 160 161 
6430 161 150 
6431 150 161 
6432 161 68 
6433 68 150 
6434 68 161 
6435 161 67 
6436 67 68 
6437 11 12 
6438 12 151 
6439 151 11 
6440 151 12 
6441 12 162 
6442 162 151 
6443 151 162 
6444 162 152 
6445 152 151 
6446 152 162 
6447 162 163 
6448 163 152 
6449 152 163 
6450 163 153 
6451 153 152 
6452 153 163 
6453 163 164 
6454 164 153 
6455 153 164 
6456 164 154 
6457 154 153 
6458 154 164 
6459 164 165 
6460 165 154 
6461 154 165 
6462 165 155 
6463 155 154 
6464 155 165 
6465 165 166 
6466 166 155 
6467 155 166 
6468 166 156 
6469 156 155 
6470 156 166 
6471 166 167 
6472 167 156 
6473 156 167 
6474 167 157 
6475 157 156 
6476 157 167 
6477 167 168 
6478 168 157 
6479 157 168 
6480 168 158 
6481 158 157 
6482 158 168 
6483 168 169 
6484 169 158 
6485 158 169 
6486 169 159 
6487 159 158 
6488 159 169 
6489 169 170 
6490 170 159 
6491 159 170 
6492 170 160 
6493 160 159 
6494 160 170 
6495 170 171 
6496 171 160 
6497 160 171 
6498 171 161 
6499 161 160 
6500 161 171 
6501 171 172 
6502 172 161 
6503 161 172 
6504 172 67 
6505 67 161 
6506 67 172 
6507 172 66 
6508 66 67 
6509 12 13 
6510 13 162 
6511 162 12 
6512 162 13 
6513 13 173 
6514 173 162 
6515 162 173 
6516 173 163 
6517 163 162 
6518 163 173 
6519 173 174 
6520 174 163 
6521 163 174 
6522 174 164 
6523 164 163 
6524 164 174 
6525 174 175 
6526 175 164 
6527 164 175 
6528 175 165 
6529 165 164 
6530 165 175 
6531 175 176 
6532 176 165 
6533 165 176 
6534 176 166 
6535 166 165 
6536 166 176 
6537 176 177 
6538 177 166 
6539 166 177 
6540 177 167 
6541 167 166 
6542 167 177 
6543 177 178 
6544 178 167 
6545 167 178 
6546 178 168 
6547 168 167 
6548 168 178 
6549 178 179 
6550 179 168 
6551 168 179 
6552 179 169 
6553 169 168 
6554 169 179 
6555 179 180 
6556 180 169 
6557 169 180 
6558 180 170 
6559 170 169 
6560 170 180 
6561 180 181 
6562 181 170 
6563 170 181 
6564 181 171 
6565 171 170 
6566 171 181 
6567 181 182 
6568 182 171 
6569 171 182 
6570 182 172 
6571 172 171 
6572 172 182 
6573 182 183 
6574 183 172 
6575 172 183 
6576 183 66 
6577 66 172 
6578 66 183 
6579 183 65 
6580 65 66 
6581 13 14 
6582 14 173 
6583 173 13 
6584 173 14 
6585 14 184 
6586 184 173 
6587 173 184 
6588 184 174 
6589 174 173 
6590 174 184 
6591 184 185 
6592 185 174 
6593 174 185 
6594 185 175 
6595 175 174 
6596 175 185 
6597 185 186 
6598 186 175 
6599 175 186 
6600 186 176 
6601 176 175 
6602 176 186 
6603 186 187 
6604 187 176 
6605 176 187 
6606 187 177 
6607 177 176 
6608 177 187 
6609 187 188 
6610 188 177 
6611 177 188 
6612 188 178 
6613 178 177 
6614 178 188 
6615 188 189 
6616 189 178 
6617 178 189 
6618 189 179 
6619 179 178 
6620 179 189 
6621 189 190 
6622 190 179 
6623 179 190 
6624 190 180 
6625 180 179 
6626 180 190 
6627 190 191 
6628 191 180 
6629 180 191 
6630 191 181 
6631 181 180 
6632 181 191 
6633 191 192 
6634 192 181 
6635 181 192 
6636 192 182 
6637 182 181 
6638 182 192 
6639 192 193 
6640 193 182 
6641 182 193 
6642 193 183 
6643 183 182 
6644 183 193 
6645 193 194 
6646 194 183 
6647 183 194 
6648 194 65 
6649 65 183 
6650 65 194 
6651 194 64 
6652 64 65 
6653 14 15 
6654 15 184 
6655 184 14 
6656 184 15 
6657 15 195 
6658 195 184 
6659 184 195 
6660 195 185 
6661 185 184 
6662 185 195 
6663 195 196 
6664 196 185 
6665 185 196 
6666 196 186 
6667 186 185 
6668 186 196 
6669 196 197 
6670 197 186 
6671 186 197 
6672 197 187 
6673 187 186 
6674 187 197 
6675 197 198 
6676 198 187 
6677 187 198 
6678 198 188 
6679 188 187 
6680 188 198 
6681 198 199 
6682 199 188 
6683 188 199 
6684 199 189 
6685 189 188 
6686 189 199 
6687 199 200 
6688 200 189 
6689 189 200 
6690 200 190 
6691 190 189 
6692 190 200 
6693 200 201 
6694 201 190 
6695 190 201 
6696 201 191 
6697 191 190 
6698 191 201 
6699 201 202 
6700 202 191 
6701 191 202 
6702 202 192 
6703 192 191 
6704 192 202 
6705 202 203 
6706 203 192 
6707 192 203 
6708 203 193 
6709 193 192 
6710 193 203 
6711 203 204 
6712 204 193 
6713 193 204 
6714 204 194 
6715 194 193 
6716 194 204 
6717 204 205 
6718 205 194 
6719 194 205 
6720 205 64 
6721 64 194 
6722 64 205 
6723 205 63 
6724 63 64 
6725 15 16 
6726 16 195 
6727 195 15 
6728 195 16 
6729 16 206 
6730 206 195 
6731 195 206 
6732 206 196 
6733 196 195 
6734 196 206 
6735 206 207 
6736 207 196 
6737 196 207 
6738 207 197 
6739 197 196 
6740 197 207 
6741 207 208 
6742 208 197 
6743 197 208 
6744 208 198 
6745 198 197 
6746 198 208 
6747 208 209 
6748 209 198 
6749 198 209 
6750 209 199 
6751 199 198 
6752 199 209 
6753 209 210 
6754 210 199 
6755 199 210 
6756 210 200 
6757 200 199 
6758 200 210 
6759 210 211 
6760 211 200 
6761 200 211 
6762 211 201 
6763 201 200 
6764 201 211 
6765 211 212 
6766 212 201 
6767 201 212 
6768 212 202 
6769 202 201 
6770 202 212 
6771 212 213 
6772 213 202 
6773 202 213 
6774 213 203 
6775 203 202 
6776 203 213 
6777 213 214 
6778 214 203 
6779 203 214 
6780 214 204 
6781 204 203 
6782 204 214 
6783 214 215 
6784 215 204 
6785 204 215 
6786 215 205 
6787 205 204 
6788 205 215 
6789 215 216 
6790 216 205 
6791 205 216 
6792 216 63 
6793 63 205 
6794 63 216 
6795 216 62 
6796 62 63 
6797 16 17 
6798 17 206 
6799 206 16 
6800 206 17 
6801 17 217 
6802 217 206 
6803 206 217 
6804 217 207 
6805 207 206 
6806 207 217 
6807 217 218 
6808 218 207 
6809 207 218 
6810 218 208 
6811 208 207 
6812 208 218 
6813 218 219 
6814 219 208 
6815 208 219 
6816 219 209 
6817 209 208 
6818 209 219 
6819 219 220 
6820 220 209 
6821 209 220 
6822 220 210 
6823 210 209 
6824 210 220 
6825 220 221 
6826 221 210 
6827 210 221 
6828 221 211 
6829 211 210 
6830 211 221 
6831 221 222 
6832 222 211 
6833 211 222 
6834 222 212 
6835 212 211 
6836 212 222 
6837 222 223 
6838 223 212 
6839 212 223 
6840 223 213 
6841 213 212 
6842 213 223 
6843 223 224 
6844 224 213 
6845 213 224 
6846 224 214 
6847 214 213 
6848 214 224 
6849 224 225 
6850 225 214 
6851 214 225 
6852 225 215 
6853 215 214 
6854 215 225 
6855 225 226 
6856 226 215 
6857 215 226 
6858 226 216 
6859 216 215 
6860 216 226 
6861 226 227 
6862 227 216 
6863 216 227 
6864 227 62 
6865 62 216 
6866 62 227 
6867 227 61 
6868 61 62 
6869 17 18 
6870 18 217 
6871 217 17 
6872 217 18 
6873 18 228 
6874 228 217 
6875 217 228 
6876 228 218 
6877 218 217 
6878 218 228 
6879 228 229 
6880 229 218 
6881 218 229 
6882 229 219 
6883 219 218 
6884 219 229 
6885 229 230 
6886 230 219 
6887 219 230 
6888 230 220 
6889 220 219 
6890 220 230 
6891 230 231 
6892 231 220 
6893 220 231 
6894 231 221 
6895 221 220 
6896 221 231 
6897 231 232 
6898 232 221 
6899 221 232 
6900 232 222 
6901 222 221 
6902 222 232 
6903 232 233 
6904 233 222 
6905 222 233 
6906 233 223 
6907 223 222 
6908 223 233 
6909 233 234 
6910 234 223 
6911 223 234 
6912 234 224 
6913 224 223 
6914 224 234 
6915 234 235 
6916 235 224 
6917 224 235 
6918 235 225 
6919 225 224 
6920 225 235 
6921 235 236 
6922 236 225 
6923 225 236 
6924 236 226 
6925 226 225 
6926 226 236 
6927 236 237 
6928 237 226 
6929 226 237 
6930 237 227 
6931 227 226 
6932 227 237 
6933 237 238 
6934 238 227 
6935 227 238 
6936 238 61 
6937 61 227 
6938 61 238 
6939 238 60 
6940 60 61 
6941 18 19 
6942 19 228 
6943 228 18 
6944 228 19 
6945 19 239 
6946 239 228 
6947 228 239 
6948 239 229 
6949 229 228 
6950 229 239 
6951 239 240 
6952 240 229 
6953 229 240 
6954 240 230 
6955 230 229 
6956 230 240 
6957 240 241 
6958 241 230 
6959 230 241 
6960 241 231 
6961 231 230 
6962 231 241 
6963 241 242 
6964 242 231 
6965 231 242 
6966 242 232 
6967 232 231 
6968 232 242 
6969 242 243 
6970 243 232 
6971 232 243 
6972 243 233 
6973 233 232 
6974 233 243 
6975 243 244 
6976 244 233 
6977 233 244 
6978 244 234 
6979 234 233 
6980 234 244 
6981 244 245 
6982 245 234 
6983 234 245 
6984 245 235 
6985 235 234 
6986 235 245 
6987 245 246 
6988 246 235 
6989 235 246 
6990 246 236 
6991 236 235 
6992 236 246 
6993 246 247 
6994 247 236 
6995 236 247 
6996 247 237 
6997 237 236 
6998 237 247 
6999 247 248 
7000 248 237 
7001 237 248 
7002 248 238 
7003 238 237 
7004 238 248 
7005 248 249 
7006 249 238 
7007 238 249 
7008 249 60 
7009 60 238 
7010 60 249 
7011 249 59 
7012 59 60 
7013 19 20 
7014 20 239 
7015 239 19 
7016 239 20 
7017 20 250 
7018 250 239 
7019 239 250 
7020 250 240 
7021 240 239 
7022 240 250 
7023 250 251 
7024 251 240 
7025 240 251 
7026 251 241 
7027 241 240 
7028 241 251 
7029 251 252 
7030 252 241 
7031 241 252 
7032 252 242 
7033 242 241 
7034 242 252 
7035 252 253 
7036 253 242 
7037 242 253 
7038 253 243 
7039 243 242 
7040 243 253 
7041 253 254 
7042 254 243 
7043 243 254 
7044 254 244 
7045 244 243 
7046 244 254 
7047 254 255 
7048 255 244 
7049 244 255 
7050 255 245 
7051 245 244 
7052 245 255 
7053 255 256 
7054 256 245 
7055 245 256 
7056 256 246 
7057 246 245 
7058 246 256 
7059 256 257 
7060 257 246 
7061 246 257 
7062 257 247 
7063 247 246 
7064 247 257 
7065 257 258 
7066 258 247 
7067 247 258 
7068 258 248 
7069 248 247 
7070 248 258 
7071 258 259 
7072 259 248 
7073 248 259 
7074 259 249 
7075 249 248 
7076 249 259 
7077 259 260 
7078 260 249 
7079 249 260 
7080 260 59 
7081 59 249 
7082 59 260 
7083 260 58 
7084 58 59 
7085 20 21 
7086 21 250 
7087 250 20 
7088 250 21 
7089 21 261 
7090 261 250 
7091 250 261 
7092 261 251 
7093 251 250 
7094 251 261 
7095 261 262 
7096 262 251 
7097 251 262 
7098 262 252 
7099 252 251 
7100 252 262 
7101 262 263 
7102 263 252 
7103 252 263 
7104 263 253 
7105 253 252 
7106 253 263 
7107 263 264 
7108 264 253 
7109 253 264 
7110 264 254 
7111 254 253 
7112 254 264 
7113 264 265 
7114 265 254 
7115 254 265 
7116 265 255 
7117 255 254 
7118 255 265 
7119 265 266 
7120 266 255 
7121 255 266 
7122 266 256 
7123 256 255 
7124 256 266 
7125 266 267 
7126 267 256 
7127 256 267 
7128 267 257 
7129 257 256 
7130 257 267 
7131 267 268 
7132 268 257 
7133 257 268 
7134 268 258 
7135 258 257 
7136 258 268 
7137 268 269 
7138 269 258 
7139 258 269 
7140 269 259 
7141 259 258 
7142 259 269 
7143 269 270 
7144 270 259 
7145 259 270 
7146 270 260 
7147 260 259 
7148 260 270 
7149 270 271 
7150 271 260 
7151 260 271 
7152 271 58 
7153 58 260 
7154 58 271 
7155 271 57 
7156 57 58 
7157 21 22 
7158 22 261 
7159 261 21 
7160 261 22 
7161 22 272 
7162 272 261 
7163 261 272 
7164 272 262 
7165 262 261 
7166 262 272 
7167 272 273 
7168 273 262 
7169 262 273 
7170 273 263 
7171 263 262 
7172 263 273 
7173 273 274 
7174 274 263 
7175 263 274 
7176 274 264 
7177 264 263 
7178 264 274 
7179 274 275 
7180 275 264 
7181 264 275 
7182 275 265 
7183 265 264 
7184 265 275 
7185 275 276 
7186 276 265 
7187 265 276 
7188 276 266 
7189 266 265 
7190 266 276 
7191 276 277 
7192 277 266 
7193 266 277 
7194 277 267 
7195 267 266 
7196 267 277 
7197 277 278 
7198 278 267 
7199 267 278 
7200 278 268 
7201 268 267 
7202 268 278 
7203 278 279 
7204 279 268 
7205 268 279 
7206 279 269 
7207 269 268 
7208 269 279 
7209 279 280 
7210 280 269 
7211 269 280 
7212 280 270 
7213 270 269 
7214 270 280 
7215 280 281 
7216 281 270 
7217 270 281 
7218 281 271 
7219 271 270 
7220 271 281 
7221 281 282 
7222 282 271 
7223 271 282 
7224 282 57 
7225 57 271 
7226 57 282 
7227 282 56 
7228 56 57 
7229 22 23 
7230 23 272 
7231 272 22 
7232 272 23 
7233 23 283 
7234 283 272 
7235 272 283 
7236 283 273 
7237 273 272 
7238 273 283 
7239 283 284 
7240 284 273 
7241 273 284 
7242 284 274 
7243 274 273 
7244 274 284 
7245 284 285 
7246 285 274 
7247 274 285 
7248 285 275 
7249 275 274 
7250 275 285 
7251 285 286 
7252 286 275 
7253 275 286 
7254 286 276 
7255 276 275 
7256 276 286 
7257 286 287 
7258 287 276 
7259 276 287 
7260 287 277 
7261 277 276 
7262 277 287 
7263 287 288 
7264 288 277 
7265 277 288 
7266 288 278 
7267 278 277 
7268 278 288 
7269 288 289 
7270 289 278 
7271 278 289 
7272 289 279 
7273 279 278 
7274 279 289 
7275 289 290 
7276 290 279 
7277 279 290 
7278 290 280 
7279 280 279 
7280 280 290 
7281 290 291 
7282 291 280 
7283 280 291 
7284 291 281 
7285 281 280 
7286 281 291 
7287 291 292 
7288 292 281 
7289 281 292 
7290 292 282 
7291 282 281 
7292 282 292 
7293 292 293 
7294 293 282 
7295 282 293 
7296 293 56 
7297 56 282 
7298 56 293 
7299 293 55 
7300 55 56 
7301 23 24 
7302 24 283 
7303 283 23 
7304 283 24 
7305 24 294 
7306 294 283 
7307 283 294 
7308 294 284 
7309 284 283 
7310 284 294 
7311 294 295 
7312 295 284 
7313 284 295 
7314 295 285 
7315 285 284 
7316 285 295 
7317 295 296 
7318 296 285 
7319 285 296 
7320 296 286 
7321 286 285 
7322 286 296 
7323 296 297 
7324 297 286 
7325 286 297 
7326 297 287 
7327 287 286 
7328 287 297 
7329 297 298 
7330 298 287 
7331 287 298 
7332 298 288 
7333 288 287 
7334 288 298 
7335 298 299 
7336 299 288 
7337 288 299 
7338 299 289 
7339 289 288 
7340 289 299 
7341 299 300 
7342 300 289 
7343 289 300 
7344 300 290 
7345 290 289 
7346 290 300 
7347 300 301 
7348 301 290 
7349 290 301 
7350 301 291 
7351 291 290 
7352 291 301 
7353 301 302 
7354 302 291 
7355 291 302 
7356 302 292 
7357 292 291 
7358 292 302 
7359 302 303 
7360 303 292 
7361 292 303 
7362 303 293 
7363 293 292 
7364 293 303 
7365 303 304 
7366 304 293 
7367 293 304 
7368 304 55 
7369 55 293 
7370 55 304 
7371 304 54 
7372 54 55 
7373 24 25 
7374 25 294 
7375 294 24 
7376 294 25 
7377 25 305 
7378 305 294 
7379 294 305 
7380 305 295 
7381 295 294 
7382 295 305 
7383 305 306 
7384 306 295 
7385 295 306 
7386 306 296 
7387 296 295 
7388 296 306 
7389 306 307 
7390 307 296 
7391 296 307 
7392 307 297 
7393 297 296 
7394 297 307 
7395 307 308 
7396 308 297 
7397 297 308 
7398 308 298 
7399 298 297 
7400 298 308 
7401 308 309 
7402 309 298 
7403 298 309 
7404 309 299 
7405 299 298 
7406 299 309 
7407 309 310 
7408 310 299 
7409 299 310 
7410 310 300 
7411 300 299 
7412 300 310 
7413 310 311 
7414 311 300 
7415 300 311 
7416 311 301 
7417 301 300 
7418 301 311 
7419 311 312 
7420 312 301 
7421 301 312 
7422 312 302 
7423 302 301 
7424 302 312 
7425 312 313 
7426 313 302 
7427 302 313 
7428 313 303 
7429 303 302 
7430 303 313 
7431 313 314 
7432 314 303 
7433 303 314 
7434 314 304 
7435 304 303 
7436 304 314 
7437 314 315 
7438 315 304 
7439 304 315 
7440 315 54 
7441 54 304 
7442 54 315 
7443 315 53 
7444 53 54 
7445 25 26 
7446 26 305 
7447 305 25 
7448 305 26 
7449 26 316 
7450 316 305 
7451 305 316 
7452 316 306 
7453 306 305 
7454 306 316 
7455 316 317 
7456 317 306 
7457 306 317 
7458 317 307 
7459 307 306 
7460 307 317 
7461 317 318 
7462 318 307 
7463 307 318 
7464 318 308 
7465 308 307 
7466 308 318 
7467 318 319 
7468 319 308 
7469 308 319 
7470 319 309 
7471 309 308 
7472 309 319 
7473 319 320 
7474 320 309 
7475 309 320 
7476 320 310 
7477 310 309 
7478 310 320 
7479 320 321 
7480 321 310 
7481 310 321 
7482 321 311 
7483 311 310 
7484 311 321 
7485 321 322 
7486 322 311 
7487 311 322 
7488 322 312 
7489 312 311 
7490 312 322 
7491 322 323 
7492 323 312 
7493 312 323 
7494 323 313 
7495 313 312 
7496 313 323 
7497 323 324 
7498 324 313 
7499 313 324 
7500 324 314 
7501 314 313 
7502 314 324 
7503 324 325 
7504 325 314 
7505 314 325 
7506 325 315 
7507 315 314 
7508 315 325 
7509 325 326 
7510 326 315 
7511 315 326 
7512 326 53 
7513 53 315 
7514 53 326 
7515 326 52 
7516 52 53 
7517 26 27 
7518 27 316 
7519 316 26 
7520 316 27 
7521 27 327 
7522 327 316 
7523 316 327 
7524 327 317 
7525 317 316 
7526 317 327 
7527 327 328 
7528 328 317 
7529 317 328 
7530 328 318 
7531 318 317 
7532 318 328 
7533 328 329 
7534 329 318 
7535 318 329 
7536 329 319 
7537 319 318 
7538 319 329 
7539 329 330 
7540 330 319 
7541 319 330 
7542 330 320 
7543 320 319 
7544 320 330 
7545 330 331 
7546 331 320 
7547 320 331 
7548 331 321 
7549 321 320 
7550 321 331 
7551 331 332 
7552 332 321 
7553 321 332 
7554 332 322 
7555 322 321 
7556 322 332 
7557 332 333 
7558 333 322 
7559 322 333 
7560 333 323 
7561 323 322 
7562 323 333 
7563 333 334 
7564 334 323 
7565 323 334 
7566 334 324 
7567 324 323 
7568 324 334 
7569 334 335 
7570 335 324 
7571 324 335 
7572 335 325 
7573 325 324 
7574 325 335 
7575 335 336 
7576 336 325 
7577 325 336 
7578 336 326 
7579 326 325 
7580 326 336 
7581 336 337 
7582 337 326 
7583 326 337 
7584 337 52 
7585 52 326 
7586 52 337 
7587 337 51 
7588 51 52 
7589 27 28 
7590 28 327 
7591 327 27 
7592 327 28 
7593 28 338 
7594 338 327 
7595 327 338 
7596 338 328 
7597 328 327 
7598 328 338 
7599 338 339 
7600 339 328 
7601 328 339 
7602 339 329 
7603 329 328 
7604 329 339 
7605 339 340 
7606 340 329 
7607 329 340 
7608 340 330 
7609 330 329 
7610 330 340 
7611 340 341 
7612 341 330 
7613 330 341 
7614 341 331 
7615 331 330 
7616 331 341 
7617 341 342 
7618 342 331 
7619 331 342 
7620 342 332 
7621 332 331 
7622 332 342 
7623 342 343 
7624 343 332 
7625 332 343 
7626 343 333 
7627 333 332 
7628 333 343 
7629 343 344 
7630 344 333 
7631 333 344 
7632 344 334 
7633 334 333 
7634 334 344 
7635 344 345 
7636 345 334 
7637 334 345 
7638 345 335 
7639 335 334 
7640 335 345 
7641 345 346 
7642 346 335 
7643 335 346 
7644 346 336 
7645 336 335 
7646 336 346 
7647 346 347 
7648 347 336 
7649 336 347 
7650 347 337 
7651 337 336 
7652 337 347 
7653 347 348 
7654 348 337 
7655 337 348 
7656 348 51 
7657 51 337 
7658 51 348 
7659 348 50 
7660 50 51 
7661 28 29 
7662 29 338 
7663 338 28 
7664 338 29 
7665 29 349 
7666 349 338 
7667 338 349 
7668 349 339 
7669 339 338 
7670 339 349 
7671 349 350 
7672 350 339 
7673 339 350 
7674 350 340 
7675 340 339 
7676 340 350 
7677 350 351 
7678 351 340 
7679 340 351 
7680 351 341 
7681 341 340 
7682 341 351 
7683 351 352 
7684 352 341 
7685 341 352 
7686 352 342 
7687 342 341 
7688 342 352 
7689 352 353 
7690 353 342 
7691 342 353 
7692 353 343 
7693 343 342 
7694 343 353 
7695 353 354 
7696 354 343 
7697 343 354 
7698 354 344 
7699 344 343 
7700 344 354 
7701 354 355 
7702 355 344 
7703 344 355 
7704 355 345 
7705 345 344 
7706 345 355 
7707 355 356 
7708 356 345 
7709 345 356 
7710 356 346 
7711 346 345 
7712 346 356 
7713 356 357 
7714 357 346 
7715 346 357 
7716 357 347 
7717 347 346 
7718 347 357 
7719 357 358 
7720 358 347 
7721 347 358 
7722 358 348 
7723 348 347 
7724 348 358 
7725 358 359 
7726 359 348 
7727 348 359 
7728 359 50 
7729 50 348 
7730 50 359 
7731 359 49 
7732 49 50 
7733 29 30 
7734 30 349 
7735 349 29 
7736 349 30 
7737 30 360 
7738 360 349 
7739 349 360 
7740 360 350 
7741 350 349 
7742 350 360 
7743 360 361 
7744 361 350 
7745 350 361 
7746 361 351 
7747 351 350 
7748 351 361 
7749 361 362 
7750 362 351 
7751 351 362 
7752 362 352 
7753 352 351 
7754 352 362 
7755 362 363 
7756 363 352 
7757 352 363 
7758 363 353 
7759 353 352 
7760 353 363 
7761 363 364 
7762 364 353 
7763 353 364 
7764 364 354 
7765 354 353 
7766 354 364 
7767 364 365 
7768 365 354 
7769 354 365 
7770 365 355 
7771 355 354 
7772 355 365 
7773 365 366 
7774 366 355 
7775 355 366 
7776 366 356 
7777 356 355 
7778 356 366 
7779 366 367 
7780 367 356 
7781 356 367 
7782 367 357 
7783 357 356 
7784 357 367 
7785 367 368 
7786 368 357 
7787 357 368 
7788 368 358 
7789 358 357 
7790 358 368 
7791 368 369 
7792 369 358 
7793 358 369 
7794 369 359 
7795 359 358 
7796 359 369 
7797 369 370 
7798 370 359 
7799 359 370 
7800 370 49 
7801 49 359 
7802 49 370 
7803 370 48 
7804 48 49 
7805 30 31 
7806 31 360 
7807 360 30 
7808 360 31 
7809 31 371 
7810 371 360 
7811 360 371 
7812 371 361 
7813 361 360 
7814 361 371 
7815 371 372 
7816 372 361 
7817 361 372 
7818 372 362 
7819 362 361 
7820 362 372 
7821 372 373 
7822 373 362 
7823 362 373 
7824 373 363 
7825 363 362 
7826 363 373 
7827 373 374 
7828 374 363 
7829 363 374 
7830 374 364 
7831 364 363 
7832 364 374 
7833 374 375 
7834 375 364 
7835 364 375 
7836 375 365 
7837 365 364 
7838 365 375 
7839 375 376 
7840 376 365 
7841 365 376 
7842 376 366 
7843 366 365 
7844 366 376 
7845 376 377 
7846 377 366 
7847 366 377 
7848 377 367 
7849 367 366 
7850 367 377 
7851 377 378 
7852 378 367 
7853 367 378 
7854 378 368 
7855 368 367 
7856 368 378 
7857 378 379 
7858 379 368 
7859 368 379 
7860 379 369 
7861 369 368 
7862 369 379 
7863 379 380 
7864 380 369 
7865 369 380 
7866 380 370 
7867 370 369 
7868 370 380 
7869 380 381 
7870 381 370 
7871 370 381 
7872 381 48 
7873 48 370 
7874 48 381 
7875 381 47 
7876 47 48 
7877 31 32 
7878 32 371 
7879 371 31 
7880 371 32 
7881 32 382 
7882 382 371 
7883 371 382 
7884 382 372 
7885 372 371 
7886 372 382 
7887 382 383 
7888 383 372 
7889 372 383 
7890 383 373 
7891 373 372 
7892 373 383 
7893 383 384 
7894 384 373 
7895 373 384 
7896 384 374 
7897 374 373 
7898 374 384 
7899 384 385 
7900 385 374 
7901 374 385 
7902 385 375 
7903 375 374 
7904 375 385 
7905 385 386 
7906 386 375 
7907 375 386 
7908 386 376 
7909 376 375 
7910 376 386 
7911 386 387 
7912 387 376 
7913 376 387 
7914 387 377 
7915 377 376 
7916 377 387 
7917 387 388 
7918 388 377 
7919 377 388 
7920 388 378 
7921 378 377 
7922 378 388 
7923 388 389 
7924 389 378 
7925 378 389 
7926 389 379 
7927 379 378 
7928 379 389 
7929 389 390 
7930 390 379 
7931 379 390 
7932 390 380 
7933 380 379 
7934 380 390 
7935 390 391 
7936 391 380 
7937 380 391 
7938 391 381 
7939 381 380 
7940 381 391 
7941 391 392 
7942 392 381 
7943 381 392 
7944 392 47 
7945 47 381 
7946 47 392 
7947 392 46 
7948 46 47 
7949 32 33 
7950 33 382 
7951 382 32 
7952 382 33 
7953 33 393 
7954 393 382 
7955 382 393 
7956 393 383 
7957 383 382 
7958 383 393 
7959 393 394 
7960 394 383 
7961 383 394 
7962 394 384 
7963 384 383 
7964 384 394 
7965 394 395 
7966 395 384 
7967 384 395 
7968 395 385 
7969 385 384 
7970 385 395 
7971 395 396 
7972 396 385 
7973 385 396 
7974 396 386 
7975 386 385 
7976 386 396 
7977 396 397 
7978 397 386 
7979 386 397 
7980 397 387 
7981 387 386 
7982 387 397 
7983 397 398 
7984 398 387 
7985 387 398 
7986 398 388 
7987 388 387 
7988 388 398 
7989 398 399 
7990 399 388 
7991 388 399 
7992 399 389 
7993 389 388 
7994 389 399 
7995 399 400 
7996 400 389 
7997 389 400 
7998 400 390 
7999 390 389 
8000 390 400 
8001 400 401 
8002 401 390 
8003 390 401 
8004 401 391 
8005 391 390 
8006 391 401 
8007 401 402 
8008 402 391 
8009 391 402 
8010 402 392 
8011 392 391 
8012 392 402 
8013 402 403 
8014 403 392 
8015 392 403 
8016 403 46 
8017 46 392 
8018 46 403 
8019 403 45 
8020 45 46 
8021 33 2 
8022 2 393 
8023 393 33 
8024 393 2 
8025 2 34 
8026 34 393 
8027 393 34 
8028 34 394 
8029 394 393 
8030 394 34 
8031 34 35 
8032 35 394 
8033 394 35 
8034 35 395 
8035 395 394 
8036 395 35 
8037 35 36 
8038 36 395 
8039 395 36 
8040 36 396 
8041 396 395 
8042 396 36 
8043 36 37 
8044 37 396 
8045 396 37 
8046 37 397 
8047 397 396 
8048 397 37 
8049 37 38 
8050 38 397 
8051 397 38 
8052 38 398 
8053 398 397 
8054 398 38 
8055 38 39 
8056 39 398 
8057 398 39 
8058 39 399 
8059 399 398 
8060 399 39 
8061 39 40 
8062 40 399 
8063 399 40 
8064 40 400 
8065 400 399 
8066 400 40 
8067 40 41 
8068 41 400 
8069 400 41 
8070 41 401 
8071 401 400 
8072 401 41 
8073 41 42 
8074 42 401 
8075 401 42 
8076 42 402 
8077 402 401 
8078 402 42 
8079 42 43 
8080 43 402 
8081 402 43 
8082 43 403 
8083 403 402 
8084 403 43 
8085 43 44 
8086 44 403 
8087 403 44 
8088 44 45 
8089 45 403 
8090 45 44 
8091 44 3 
8092 3 45 
2 1 2 720
85 1 5 84 
86 84 5 85 
87 84 85 83 
88 83 85 86 
89 83 86 82 
90 82 86 87 
91 82 87 81 
92 81 87 88 
93 81 88 80 
94 80 88 89 
95 80 89 79 
96 79 89 90 
97 79 90 78 
98 78 90 91 
99 78 91 77 
100 77 91 92 
101 77 92 76 
102 76 92 93 
103 76 93 75 
104 75 93 94 
105 75 94 74 
106 74 94 95 
107 74 95 4 
108 4 95 73 
109 5 6 85 
110 85 6 96 
111 85 96 86 
112 86 96 97 
113 86 97 87 
114 87 97 98 
115 87 98 88 
116 88 98 99 
117 88 99 89 
118 89 99 100 
119 89 100 90 
120 90 100 101 
121 90 101 91 
122 91 101 102 
123 91 102 92 
124 92 102 103 
125 92 103 93 
126 93 103 104 
127 93 104 94 
128 94 104 105 
129 94 105 95 
130 95 105 106 
131 95 106 73 
132 73 106 72 
133 6 7 96 
134 96 7 107 
135 96 107 97 
136 97 107 108 
137 97 108 98 
138 98 108 109 
139 98 109 99 
140 99 109 110 
141 99 110 100 
142 100 110 111 
143 100 111 101 
144 101 111 112 
145 101 112 102 
146 102 112 113 
147 102 113 103 
148 103 113 114 
149 103 114 104 
150 104 114 115 
151 104 115 105 
152 105 115 116 
153 105 116 106 
154 106 116 117 
155 106 117 72 
156 72 117 71 
157 7 8 107 
158 107 8 118 
159 107 118 108 
160 108 118 119 
161 108 119 109 
162 109 119 120 
163 109 120 110 
164 110 120 121 
165 110 121 111 
166 111 121 122 
167 111 122 112 
168 112 122 123 
169 112 123 113 
170 113 123 124 
171 113 124 114 
172 114 124 125 
173 114 125 115 
174 115 125 126 
175 115 126 116 
176 116 126 127 
177 116 127 117 
178 117 127 128 
179 117 128 71 
180 71 128 70 
181 8 9 118 
182 118 9 129 
183 118 129 119 
184 119 129 130 
185 119 130 120 
186 120 130 131 
187 120 131 121 
188 121 131 132 
189 121 132 122 
190 122 132 133 
191 122 133 123 
192 123 133 134 
193 123 134 124 
194 124 134 135 
195 124 135 125 
196 125 135 136 
197 125 136 126 
198 126 136 137 
199 126 137 127 
200 127 137 138 
201 127 138 128 
202 128 138 139 
203 128 139 70 
204 70 139 69 
205 9 10 129 
206 129 10 140 
207 129 140 130 
208 130 140 141 
209 130 141 131 
210 131 141 142 
211 131 142 132 
212 132 142 143 
213 132 143 133 
214 133 143 144 
215 133 144 134 
216 134 144 145 
217 134 145 135 
218 135 145 146 
219 135 146 136 
220 136 146 147 
221 136 147 137 
222 137 147 148 
223 137 148 138 
224 138 148 149 
225 138 149 139 
226 139 149 150 
227 139 150 69 
228 69 150 68 
229 10 11 140 
230 140 11 151 
231 140 151 141 
232 141 151 152 
233 141 152 142 
234 142 152 153 
235 142 153 143 
236 143 153 154 
237 143 154 144 
238 144 154 155 
239 144 155 145 
240 145 155 156 
241 145 156 146 
242 146 156 157 
243 146 157 147 
244 147 157 158 
245 147 158 148 
246 148 158 159 
247 148 159 149 
248 149 159 160 
249 149 160 150 
250 150 160 161 
251 150 161 68 
252 68 161 67 
253 11 12 151 
254 151 12 162 
255 151 162 152 
256 152 162 163 
257 152 163 153 
258 153 163 164 
259 153 164 154 
260 154 164 165 
261 154 165 155 
262 155 165 166 
263 155 166 156 
264 156 166 167 
265 156 167 157 
266 157 167 168 
267 157 168 158 
268 158 168 169 
269 158 169 159 
270 159 169 170 
271 159 170 160 
272 160 170 171 
273 160 171 161 
274 161 171 172 
275 161 172 67 
276 67 172 66 
277 12 13 162 
278 162 13 173 
279 162 173 163 
280 163 173 174 
281 163 174 164 
282 164 174 175 
283 164 175 165 
284 165 175 176 
285 165 176 166 
286 166 176 177 
287 166 177 167 
288 167 177 178 
289 167 178 168 
290 168 178 179 
291 168 179 169 
292 169 179 180 
293 169 180 170 
294 170 180 181 
295 170 181 171 
296 171 181 182 
297 171 182 172 
298 172 182 183 
299 172 183 66 
300 66 183 65 
301 13 14 173 
302 173 14 184 
303 173 184 174 
304 174 184 185 
305 174 185 175 
306 175 185 186 
307 175 186 176 
308 176 186 187 
309 176 187 177 
310 177 187 188 
311 177 188 178 
312 178 188 189 
313 178 189 179 
314 179 189 190 
315 179 190 180 
316 180 190 191 
317 180 191 181 
318 181 191 192 
319 181 192 182 
320 182 192 193 
321 182 193 183 
322 183 193 194 
323 183 194 65 
324 65 194 64 
325 14 15 184 
326 184 15 195 
327 184 195 185 
328 185 195 196 
329 185 196 186 
330 186 196 197 
331 186 197 187 
332 187 197 198 
333 187 198 188 
334 188 198 199 
335 188 199 189 
336 189 199 200 
337 189 200 190 
338 190 200 201 
339 190 201 191 
340 191 201 202 
341 191 202 192 
342 192 202 203 
343 192 203 193 
344 193 203 204 
345 193 204 194 
346 194 204 205 
347 194 205 64 
348 64 205 63 
349 15 16 195 
350 195 16 206 
351 195 206 196 
352 196 206 207 
353 196 207 197 
354 197 207 208 
355 197 208 198 
356 198 208 209 
357 198 209 199 
358 199 209 210 
359 199 210 200 
360 200 210 211 
361 200 211 201 
362 201 211 212 
363 201 212 202 
364 202 212 213 
365 202 213 203 
366 203 213 214 
367 203 214 204 
368 204 214 215 
369 204 215 205 
370 205 215 216 
371 205 216 63 
372 63 216 62 
373 16 17 206 
374 206 17 217 
375 206 217 207 
376 207 217 218 
377 207 218 208 
378 208 218 219 
379 208 219 209 
380 209 219 220 
381 209 220 210 
382 210 220 221 
383 210 221 211 
384 211 221 222 
385 211 222 212 
386 212 222 223 
387 212 223 213 
388 213 223 224 
389 213 224 214 
390 214 224 225 
391 214 225 215 
392 215 225 226 
393 215 226 216 
394 216 226 227 
395 216 227 62 
396 62 227 61 
397 17 18 217 
398 217 18 228 
399 217 228 218 
400 218 228 229 
401 218 229 219 
402 219 229 230 
403 219 230 220 
404 220 230 231 
405 220 231 221 
406 221 231 232 
407 221 232 222 
408 222 232 233 
409 222 233 223 
410 223 233 234 
411 223 234 224 
412 224 234 235 
413 224 235 225 
414 225 235 236 
415 225 236 226 
416 226 236 237 
417 226 237 227 
418 227 237 238 
419 227 238 61 
420 61 238 60 
421 18 19 228 
422 228 19 239 
423 228 239 229 
424 229 239 240 
425 229 240 230 
426 230 240 241 
427 230 241 231 
428 231 241 242 
429 231 242 232 
430 232 242 243 
431 232 243 233 
432 233 243 244 
433 233 244 234 
434 234 244 245 
435 234 245 235 
436 235 245 246 
437 235 246 236 
438 236 246 247 
439 236 247 237 
440 237 247 248 
441 237 248 238 
442 238 248 249 
443 238 249 60 
444 60 249 59 
445 19 20 239 
446 239 20 250 
447 239 250 240 
448 240 250 251 
449 240 251 241 
450 241 251 252 
451 241 252 242 
452 242 252 253 
453 242 253 243 
454 243 253 254 
455 243 254 244 
456 244 254 255 
457 244 255 245 
458 245 255 256 
459 245 256 246 
460 246 256 257 
461 246 257 247 
462 247 257 258 
463 247 258 248 
464 248 258 259 
465 248 259 249 
466 249 259 260 
467 249 260 59 
468 59 260 58 
469 20 21 250 
470 250 21 261 
471 250 261 251 
472 251 261 262 
473 251 262 252 
474 252 262 263 
475 252 263 253 
476 253 263 264 
477 253 264 254 
478 254 264 265 
479 254 265 255 
480 255 265 266 
481 255 266 256 
482 256 266 267 
483 256 267 257 
484 257 267 268 
485 257 268 258 
486 258 268 269 
487 258 269 259 
488 259 269 270 
489 259 270 260 
490 260 270 271 
491 260 271 58 
492 58 271 57 
493 21 22 261 
494 261 22 272 
495 261 272 262 
496 262 272 273 
497 262 273 263 
498 263 273 274 
499 263 274 264 
500 264 274 275 
501 264 275 265 
502 265 275 276 
503 265 276 266 
504 266 276 277 
505 266 277 267 
506 267 277 278 
507 267 278 268 
508 268 278 279 
509 268 279 269 
510 269 279 280 
511 269 280 270 
512 270 280 281 
513 270 281 271 
514 271 281 282 
515 271 282 57 
516 57 282 56 
517 22 23 272 
518 272 23 283 
519 272 283 273 
520 273 283 284 
521 273 284 274 
522 274 284 285 
523 274 285 275 
524 275 285 286 
525 275 286 276 
526 276 286 287 
527 276 287 277 
528 277 287 288 
529 277 288 278 
530 278 288 289 
531 278 289 279 
532 279 289 290 
533 279 290 280 
534 280 290 291 
535 280 291 281 
536 281 291 292 
537 281 292 282 
538 282 292 293 
539 282 293 56 
540 56 293 55 
541 23 24 283 
542 283 24 294 
543 283 294 284 
544 284 294 295 
545 284 295 285 
546 285 295 296 
547 285 296 286 
548 286 296 297 
549 286 297 287 
550 287 297 298 
551 287 298 288 
552 288 298 299 
553 288 299 289 
554 289 299 300 
555 289 300 290 
556 290 300 301 
557 290 301 291 
558 291 301 302 
559 291 302 292 
560 292 302 303 
561 292 303 293 
562 293 303 304 
563 293 304 55 
564 55 304 54 
565 24 25 294 
566 294 25 305 
567 294 305 295 
568 295 305 306 
569 295 306 296 
570 296 306 307 
571 296 307 297 
572 297 307 308 
573 297 308 298 
574 298 308 309 
575 298 309 299 
576 299 309 310 
577 299 310 300 
578 300 310 311 
579 300 311 301 
580 301 311 312 
581 301 312 302 
582 302 312 313 
583 302 313 303 
584 303 313 314 
585 303 314 304 
586 304 314 315 
587 304 315 54 
588 54 315 53 
589 25 26 305 
590 305 26 316 
591 305 316 306 
592 306 316 317 
593 306 317 307 
594 307 317 318 
595 307 318 308 
596 308 318 319 
597 308 319 309 
598 309 319 320 
599 309 320 310 
600 310 320 321 
601 310 321 311 
602 311 321 322 
603 311 322 312 
604 312 322 323 
605 312 323 313 
606 313 323 324 
607 313 324 314 
608 314 324 325 
609 314 325 315 
610 315 325 326 
611 315 326 53 
612 53 326 52 
613 26 27 316 
614 316 27 327 
615 316 327 317 
616 317 327 328 
617 317 328 318 
618 318 328 329 
619 318 329 319 
620 319 329 330 
621 319 330 320 
622 320 330 331 
623 320 331 321 
624 321 331 332 
625 321 332 322 
626 322 332 333 
627 322 333 323 
628 323 333 334 
629 323 334 324 
630 324 334 335 
631 324 335 325 
632 325 335 336 
633 325 336 326 
634 326 336 337 
635 326 337 52 
636 52 337 51 
637 27 28 327 
638 327 28 338 
639 327 338 328 
640 328 338 339 
641 328 339 329 
642 329 339 340 
643 329 340 330 
644 330 340 341 
645 330 341 331 
646 331 341 342 
647 331 342 332 
648 332 342 343 
649 332 343 333 
650 333 343 344 
651 333 344 334 
652 334 344 345 
653 334 345 335 
654 335 345 346 
655 335 346 336 
656 336 346 347 
657 336 347 337 
658 337 347 348 
659 337 348 51 
660 51 348 50 
661 28 29 338 
662 338 29 349 
663 338 349 339 
664 339 349 350 
665 339 350 340 
666 340 350 351 
667 340 351 341 
668 341 351 352 
669 341 352 342 
670 342 352 353 
671 342 353 343 
672 343 353 354 
673 343 354 344 
674 344 354 355 
675 344 355 345 
676 345 355 356 
677 345 356 346 
678 346 356 357 
679 346 357 347 
680 347 357 358 
681 347 358 348 
682 348 358 359 
683 348 359 50 
684 50 359 49 
685 29 30 349 
686 349 30 360 
687 349 360 350 
688 350 360 361 
689 350 361 351 
690 351 361 362 
691 351 362 352 
692 352 362 363 
693 352 363 353 
694 353 363 364 
695 353 364 354 
696 354 364 365 
697 354 365 355 
698 355 365 366 
699 355 366 356 
700 356 366 367 
701 356 367 357 
702 357 367 368 
703 357 368 358 
704 358 368 369 
705 358 369 359 
706 359 369 370 
707 359 370 49 
708 49 370 48 
709 30 31 360 
710 360 31 371 
711 360 371 361 
712 361 371 372 
713 361 372 362 
714 362 372 373 
715 362 373 363 
716 363 373 374 
717 363 374 364 
718 364 374 375 
719 364 375 365 
720 365 375 376 
721 365 376 366 
722 366 376 377 
723 366 377 367 
724 367 377 378 
725 367 378 368 
726 368 378 379 
727 368 379 369 
728 369 379 380 
729 369 380 370 
730 370 380 381 
731 370 381 48 
732 48 381 47 
733 31 32 371 
734 371 32 382 
735 371 382 372 
736 372 382 383 
737 372 383 373 
738 373 383 384 
739 373 384 374 
740 374 384 385 
741 374 385 375 
742 375 385 386 
743 375 386 376 
744 376 386 387 
745 376 387 377 
746 377 387 388 
747 377 388 378 
748 378 388 389 
749 378 389 379 
750 379 389 390 
751 379 390 380 
752 380 390 391 
753 380 391 381 
754 381 391 392 
755 381 392 47 
756 47 392 46 
757 32 33 382 
758 382 33 393 
759 382 393 383 
760 383 393 394 
761 383 394 384 
762 384 394 395 
763 384 395 385 
764 385 395 396 
765 385 396 386 
766 386 396 397 
767 386 397 387 
768 387 397 398 
769 387 398 388 
770 388 398 399 
771 388 399 389 
772 389 399 400 
773 389 400 390 
774 390 400 401 
775 390 401 391 
776 391 401 402 
777 391 402 392 
778 392 402 403 
779 392 403 46 
780 46 403 45 
781 33 2 393 
782 393 2 34 
783 393 34 394 
784 394 34 35 
785 394 35 395 
786 395 35 36 
787 395 36 396 
788 396 36 37 
789 396 37 397 
790 397 37 38 
791 397 38 398 
792 398 38 39 
793 398 39 399 
794 399 39 40 
795 399 40 400 
796 400 40 41 
797 400 41 401 
798 401 41 42 
799 401 42 402 
800 402 42 43 
801 402 43 403 
802 403 43 44 
803 403 44 45 
804 45 44 3 
$EndElements
