$MeshFormat
4.1 0 8
$EndMeshFormat
$PhysicalNames
6
1 1 "Γ¹"
1 2 "Γ²"
1 3 "Γ³"
1 4 "Γ⁴"
1 6 "Γ"
2 5 "Ω"
$EndPhysicalNames
$Entities
4 5 1 0
1 0 0 0 0 
2 0.3 0 0 0 
3 0.3 1 0 0 
4 0 1 0 0 
1 0 0 0 0.3 0 0 1 1 2 1 -2 
2 0.3 0 0 0.3 1 0 1 2 2 2 -3 
3 0 1 0 0.3 1 0 1 3 2 3 -4 
4 0 0 0 0 1 0 1 4 2 4 -1 
5 0 0 0 0.3 1 0 1 6 0 
1 0 0 0 0.3 1 0 1 5 4 1 2 3 4 
$EndEntities
$Nodes
10 65 1 65
0 1 0 1
1
0 0 0
0 2 0 1
2
0.3 0 0
0 3 0 1
3
0.3 1 0
0 4 0 1
4
0 1 0
1 1 0 3
5
6
7
0.07499999999982658 0 0
0.149999999999619 0 0
0.2249999999998122 0 0
1 2 0 11
8
9
10
11
12
13
14
15
16
17
18
0.3 0.08333333333317297 0
0.3 0.1666666666663209 0
0.3 0.2499999999994109 0
0.3 0.333333333332501 0
0.3 0.4166666666655911 0
0.3 0.499999999998692 0
0.3 0.5833333333322344 0
0.3 0.6666666666657874 0
0.3 0.7499999999993405 0
0.3 0.8333333333328937 0
0.3 0.9166666666664468 0
1 3 0 3
19
20
21
0.2250000000001843 1 0
0.150000000000385 1 0
0.07500000000018975 1 0
1 4 0 11
22
23
24
25
26
27
28
29
30
31
32
0 0.9166666666663197 0
0 0.833333333333102 0
0 0.7500000000003471 0
0 0.6666666666675918 0
0 0.5833333333348364 0
0 0.5000000000020595 0
0 0.416666666668401 0
0 0.3333333333347207 0
0 0.2500000000010405 0
0 0.1666666666673604 0
0 0.0833333333336802 0
1 5 0 0
2 1 0 33
33
34
35
36
37
38
39
40
41
42
43
44
45
46
47
48
49
50
51
52
53
54
55
56
57
58
59
60
61
62
63
64
65
0.07499999999985685 0.0833333333335534 0
0.0749999999998871 0.1666666666671005 0
0.07499999999991735 0.2500000000006332 0
0.07499999999994762 0.3333333333341658 0
0.07499999999997792 0.4166666666676985 0
0.07500000000000817 0.5000000000012177 0
0.07500000000003842 0.5833333333341859 0
0.07500000000006868 0.6666666666671406 0
0.07500000000009896 0.7500000000000955 0
0.07500000000012924 0.8333333333330498 0
0.07500000000015949 0.9166666666663514 0
0.1499999999996829 0.08333333333342659 0
0.1499999999997467 0.1666666666668406 0
0.1499999999998105 0.2500000000002257 0
0.1499999999998744 0.3333333333336109 0
0.1499999999999382 0.416666666666996 0
0.150000000000002 0.5000000000003757 0
0.1500000000000658 0.5833333333335353 0
0.1500000000001297 0.6666666666666896 0
0.1500000000001935 0.7499999999998438 0
0.1500000000002573 0.8333333333329979 0
0.1500000000003211 0.9166666666663832 0
0.2249999999998432 0.08333333333329977 0
0.2249999999998742 0.1666666666665808 0
0.2249999999999053 0.2499999999998183 0
0.2249999999999362 0.333333333333056 0
0.2249999999999673 0.4166666666662936 0
0.2249999999999983 0.4999999999995339 0
0.2250000000000292 0.5833333333328847 0
0.2250000000000603 0.6666666666662384 0
0.2250000000000913 0.7499999999995922 0
0.2250000000001223 0.8333333333329458 0
0.2250000000001533 0.9166666666664152 0
$EndNodes
$Elements
6 416 1 1124
1 1 1 4
1 1 5 
2 5 6 
3 6 7 
4 7 2 
1 2 1 12
5 2 8 
6 8 9 
7 9 10 
8 10 11 
9 11 12 
10 12 13 
11 13 14 
12 14 15 
13 15 16 
14 16 17 
15 17 18 
16 18 3 
1 3 1 4
17 3 19 
18 19 20 
19 20 21 
20 21 4 
1 4 1 12
21 4 22 
22 22 23 
23 23 24 
24 24 25 
25 25 26 
26 26 27 
27 27 28 
28 28 29 
29 29 30 
30 30 31 
31 31 32 
32 32 1 
1 5 1 288
837 1 5 
838 5 32 
839 32 1 
840 32 5 
841 5 33 
842 33 32 
843 32 33 
844 33 31 
845 31 32 
846 31 33 
847 33 34 
848 34 31 
849 31 34 
850 34 30 
851 30 31 
852 30 34 
853 34 35 
854 35 30 
855 30 35 
856 35 29 
857 29 30 
858 29 35 
859 35 36 
860 36 29 
861 29 36 
862 36 28 
863 28 29 
864 28 36 
865 36 37 
866 37 28 
867 28 37 
868 37 27 
869 27 28 
870 27 37 
871 37 38 
872 38 27 
873 27 38 
874 38 26 
875 26 27 
876 26 38 
877 38 39 
878 39 26 
879 26 39 
880 39 25 
881 25 26 
882 25 39 
883 39 40 
884 40 25 
885 25 40 
886 40 24 
887 24 25 
888 24 40 
889 40 41 
890 41 24 
891 24 41 
892 41 23 
893 23 24 
894 23 41 
895 41 42 
896 42 23 
897 23 42 
898 42 22 
899 22 23 
900 22 42 
901 42 43 
902 43 22 
903 22 43 
904 43 4 
905 4 22 
906 4 43 
907 43 21 
908 21 4 
909 5 6 
910 6 33 
911 33 5 
912 33 6 
913 6 44 
914 44 33 
915 33 44 
916 44 34 
917 34 33 
918 34 44 
919 44 45 
920 45 34 
921 34 45 
922 45 35 
923 35 34 
924 35 45 
925 45 46 
926 46 35 
927 35 46 
928 46 36 
929 36 35 
930 36 46 
931 46 47 
932 47 36 
933 36 47 
934 47 37 
935 37 36 
936 37 47 
937 47 48 
938 48 37 
939 37 48 
940 48 38 
941 38 37 
942 38 48 
943 48 49 
944 49 38 
945 38 49 
946 49 39 
947 39 38 
948 39 49 
949 49 50 
950 50 39 
951 39 50 
952 50 40 
953 40 39 
954 40 50 
955 50 51 
956 51 40 
957 40 51 
958 51 41 
959 41 40 
960 41 51 
961 51 52 
962 52 41 
963 41 52 
964 52 42 
965 42 41 
966 42 52 
967 52 53 
968 53 42 
969 42 53 
970 53 43 
971 43 42 
972 43 53 
973 53 54 
974 54 43 
975 43 54 
976 54 21 
977 21 43 
978 21 54 
979 54 20 
980 20 21 
981 6 7 
982 7 44 
983 44 6 
984 44 7 
985 7 55 
986 55 44 
987 44 55 
988 55 45 
989 45 44 
990 45 55 
991 55 56 
992 56 45 
993 45 56 
994 56 46 
995 46 45 
996 46 56 
997 56 57 
998 57 46 
999 46 57 
1000 57 47 
1001 47 46 
1002 47 57 
1003 57 58 
1004 58 47 
1005 47 58 
1006 58 48 
1007 48 47 
1008 48 58 
1009 58 59 
1010 59 48 
1011 48 59 
1012 59 49 
1013 49 48 
1014 49 59 
1015 59 60 
1016 60 49 
1017 49 60 
1018 60 50 
1019 50 49 
1020 50 60 
1021 60 61 
1022 61 50 
1023 50 61 
1024 61 51 
1025 51 50 
1026 51 61 
1027 61 62 
1028 62 51 
1029 51 62 
1030 62 52 
1031 52 51 
1032 52 62 
1033 62 63 
1034 63 52 
1035 52 63 
1036 63 53 
1037 53 52 
1038 53 63 
1039 63 64 
1040 64 53 
1041 53 64 
1042 64 54 
1043 54 53 
1044 54 64 
1045 64 65 
1046 65 54 
1047 54 65 
1048 65 20 
1049 20 54 
1050 20 65 
1051 65 19 
1052 19 20 
1053 7 2 
1054 2 55 
1055 55 7 
1056 55 2 
1057 2 8 
1058 8 55 
1059 55 8 
1060 8 56 
1061 56 55 
1062 56 8 
1063 8 9 
1064 9 56 
1065 56 9 
1066 9 57 
1067 57 56 
1068 57 9 
1069 9 10 
1070 10 57 
1071 57 10 
1072 10 58 
1073 58 57 
1074 58 10 
1075 10 11 
1076 11 58 
1077 58 11 
1078 11 59 
1079 59 58 
1080 59 11 
1081 11 12 
1082 12 59 
1083 59 12 
1084 12 60 
1085 60 59 
1086 60 12 
1087 12 13 
1088 13 60 
1089 60 13 
1090 13 61 
1091 61 60 
1092 61 13 
1093 13 14 
1094 14 61 
1095 61 14 
1096 14 62 
1097 62 61 
1098 62 14 
1099 14 15 
1100 15 62 
1101 62 15 
1102 15 63 
1103 63 62 
1104 63 15 
1105 15 16 
1106 16 63 
1107 63 16 
1108 16 64 
1109 64 63 
1110 64 16 
1111 16 17 
1112 17 64 
1113 64 17 
1114 17 65 
1115 65 64 
1116 65 17 
1117 17 18 
1118 18 65 
1119 65 18 
1120 18 19 
1121 19 65 
1122 19 18 
1123 18 3 
1124 3 19 
2 1 2 96
33 1 5 32 
34 32 5 33 
35 32 33 31 
36 31 33 34 
37 31 34 30 
38 30 34 35 
39 30 35 29 
40 29 35 36 
41 29 36 28 
42 28 36 37 
43 28 37 27 
44 27 37 38 
45 27 38 26 
46 26 38 39 
47 26 39 25 
48 25 39 40 
49 25 40 24 
50 24 40 41 
51 24 41 23 
52 23 41 42 
53 23 42 22 
54 22 42 43 
55 22 43 4 
56 4 43 21 
57 5 6 33 
58 33 6 44 
59 33 44 34 
60 34 44 45 
61 34 45 35 
62 35 45 46 
63 35 46 36 
64 36 46 47 
65 36 47 37 
66 37 47 48 
67 37 48 38 
68 38 48 49 
69 38 49 39 
70 39 49 50 
71 39 50 40 
72 40 50 51 
73 40 51 41 
74 41 51 52 
75 41 52 42 
76 42 52 53 
77 42 53 43 
78 43 53 54 
79 43 54 21 
80 21 54 20 
81 6 7 44 
82 44 7 55 
83 44 55 45 
84 45 55 56 
85 45 56 46 
86 46 56 57 
87 46 57 47 
88 47 57 58 
89 47 58 48 
90 48 58 59 
91 48 59 49 
92 49 59 60 
93 49 60 50 
94 50 60 61 
95 50 61 51 
96 51 61 62 
97 51 62 52 
98 52 62 63 
99 52 63 53 
100 53 63 64 
101 53 64 54 
102 54 64 65 
103 54 65 20 
104 20 65 19 
105 7 2 55 
106 55 2 8 
107 55 8 56 
108 56 8 9 
109 56 9 57 
110 57 9 10 
111 57 10 58 
112 58 10 11 
113 58 11 59 
114 59 11 12 
115 59 12 60 
116 60 12 13 
117 60 13 61 
118 61 13 14 
119 61 14 62 
120 62 14 15 
121 62 15 63 
122 63 15 16 
123 63 16 64 
124 64 16 17 
125 64 17 65 
126 65 17 18 
127 65 18 19 
128 19 18 3 
$EndElements
