$MeshFormat
4.1 0 8
$EndMeshFormat
$PhysicalNames
6
1 1 "Γ¹"
1 2 "Γ²"
1 3 "Γ³"
1 4 "Γ⁴"
1 6 "Γ"
2 5 "Ω"
$EndPhysicalNames
$Entities
4 5 1 0
1 0 0 0 0 
2 1 0 0 0 
3 1.707106781186547 0.7071067811865476 0 0 
4 0.7071067811865475 0.7071067811865476 0 0 
1 0 0 0 1 0 0 1 1 2 1 -2 
2 1 0 0 1.707106781186547 0.7071067811865476 0 1 2 2 2 -3 
3 0.7071067811865475 0.7071067811865476 0 1.707106781186547 0.7071067811865476 0 1 3 2 3 -4 
4 0 0 0 0.7071067811865475 0.7071067811865476 0 1 4 2 4 -1 
5 0 0 0 1.707106781186547 0.7071067811865476 0 1 6 0 
1 0 0 0 1.707106781186547 0.7071067811865476 0 1 5 4 1 2 3 4 
$EndEntities
$Nodes
10 400 1 400
0 1 0 1
1
0 0 0
0 2 0 1
2
1 0 0
0 3 0 1
3
1.707106781186547 0.7071067811865476 0
0 4 0 1
4
0.7071067811865475 0.7071067811865476 0
1 1 0 18
5
6
7
8
9
10
11
12
13
14
15
16
17
18
19
20
21
22
0.05263157894726194 0 0
0.1052631578945429 0 0
0.157894736841785 0 0
0.2105263157889998 0 0
0.2631578947362146 0 0
0.3157894736834294 0 0
0.3684210526306442 0 0
0.421052631577859 0 0
0.4736842105250738 0 0
0.5263157894724348 0 0
0.5789473684199421 0 0
0.6315789473674494 0 0
0.6842105263149566 0 0
0.7368421052624637 0 0
0.789473684209971 0 0
0.8421052631574782 0 0
0.8947368421049855 0 0
0.9473684210524927 0 0
1 2 0 18
23
24
25
26
27
28
29
30
31
32
33
34
35
36
37
38
39
40
1.037216146378175 0.03721614637817536 0
1.074432292756381 0.07443229275638093 0
1.111648439134546 0.1116484391345457 0
1.148864585512662 0.1488645855126617 0
1.186080731890827 0.1860807318908272 0
1.223296878268934 0.2232968782689344 0
1.260513024647075 0.2605130246470756 0
1.297729171025244 0.2977291710252441 0
1.334945317403359 0.3349453174033589 0
1.372161463781548 0.3721614637815479 0
1.409377610159885 0.4093776101598849 0
1.446593756538242 0.4465937565382419 0
1.483809902916546 0.4838099029165458 0
1.521026049294866 0.5210260492948658 0
1.558242195673255 0.5582421956732553 0
1.595458342051542 0.5954583420515421 0
1.632674488429857 0.6326744884298575 0
1.669890634808289 0.6698906348082891 0
1 3 0 18
41
42
43
44
45
46
47
48
49
50
51
52
53
54
55
56
57
58
1.65447520223935 0.7071067811865476 0
1.601843623292153 0.7071067811865476 0
1.549212044344955 0.7071067811865476 0
1.496580465397758 0.7071067811865476 0
1.44394888645056 0.7071067811865476 0
1.391317307503363 0.7071067811865476 0
1.338685728556166 0.7071067811865476 0
1.286054149608969 0.7071067811865476 0
1.233422570661771 0.7071067811865476 0
1.180790991714574 0.7071067811865476 0
1.128159412767377 0.7071067811865476 0
1.07552783382018 0.7071067811865476 0
1.022896254872983 0.7071067811865476 0
0.9702646759254544 0.7071067811865476 0
0.9176330969776729 0.7071067811865476 0
0.8650015180298916 0.7071067811865476 0
0.8123699390821102 0.7071067811865476 0
0.7597383601343288 0.7071067811865476 0
1 4 0 18
59
60
61
62
63
64
65
66
67
68
69
70
71
72
73
74
75
76
0.6698906348083538 0.6698906348083539 0
0.6326744884301658 0.6326744884301659 0
0.5954583420520423 0.5954583420520424 0
0.5582421956739463 0.5582421956739463 0
0.5210260492958576 0.5210260492958576 0
0.4838099029177432 0.4838099029177433 0
0.4465937565396029 0.446593756539603 0
0.4093776101614638 0.4093776101614639 0
0.372161463783329 0.372161463783329 0
0.3349453174050793 0.3349453174050794 0
0.297729171026739 0.2977291710267391 0
0.2605130246483867 0.2605130246483867 0
0.2232968782700294 0.2232968782700295 0
0.1860807318916955 0.1860807318916956 0
0.1488645855133695 0.1488645855133695 0
0.111648439135024 0.111648439135024 0
0.07443229275667396 0.07443229275667396 0
0.03721614637832615 0.03721614637832615 0
1 5 0 0
2 1 0 324
77
78
79
80
81
82
83
84
85
86
87
88
89
90
91
92
93
94
95
96
97
98
99
100
101
102
103
104
105
106
107
108
109
110
111
112
113
114
115
116
117
118
119
120
121
122
123
124
125
126
127
128
129
130
131
132
133
134
135
136
137
138
139
140
141
142
143
144
145
146
147
148
149
150
151
152
153
154
155
156
157
158
159
160
161
162
163
164
165
166
167
168
169
170
171
172
173
174
175
176
177
178
179
180
181
182
183
184
185
186
187
188
189
190
191
192
193
194
195
196
197
198
199
200
201
202
203
204
205
206
207
208
209
210
211
212
213
214
215
216
217
218
219
220
221
222
223
224
225
226
227
228
229
230
231
232
233
234
235
236
237
238
239
240
241
242
243
244
245
246
247
248
249
250
251
252
253
254
255
256
257
258
259
260
261
262
263
264
265
266
267
268
269
270
271
272
273
274
275
276
277
278
279
280
281
282
283
284
285
286
287
288
289
290
291
292
293
294
295
296
297
298
299
300
301
302
303
304
305
306
307
308
309
310
311
312
313
314
315
316
317
318
319
320
321
322
323
324
325
326
327
328
329
330
331
332
333
334
335
336
337
338
339
340
341
342
343
344
345
346
347
348
349
350
351
352
353
354
355
356
357
358
359
360
361
362
363
364
365
366
367
368
369
370
371
372
373
374
375
376
377
378
379
380
381
382
383
384
385
386
387
388
389
390
391
392
393
394
395
396
397
398
399
400
0.0898477253256075 0.03721614637831822 0
0.1270638717039752 0.07443229275665854 0
0.1642800180823428 0.1116484391349988 0
0.2014961644607035 0.1488645855133322 0
0.2387123108390484 0.1860807318916499 0
0.2759284572173978 0.2232968782699718 0
0.313144603595771 0.2605130246483176 0
0.350360749974141 0.2977291710266604 0
0.3875768963524967 0.3349453174049888 0
0.4247930427307706 0.3721614637832353 0
0.4620091891089433 0.4093776101613809 0
0.4992253354871213 0.4465937565395314 0
0.5364414818652975 0.4838099029176803 0
0.57365762824345 0.5210260492958054 0
0.6108737746215819 0.5582421956739099 0
0.6480899209997153 0.595458342052016 0
0.6853060673778761 0.6326744884301497 0
0.7225222137561043 0.6698906348083504 0
0.1424793042729068 0.03721614637831028 0
0.1796954506512934 0.07443229275664309 0
0.2169115970296776 0.1116484391349736 0
0.2541277434080526 0.148864585513295 0
0.2913438897864153 0.1860807318916042 0
0.328560036164779 0.2232968782699142 0
0.3657761825431673 0.2605130246482487 0
0.402992328921554 0.2977291710265817 0
0.4402084752999242 0.3349453174048982 0
0.477424621678221 0.3721614637831415 0
0.5146407680564311 0.4093776101612978 0
0.5518569144346466 0.4465937565394597 0
0.5890730608128578 0.4838099029176172 0
0.6262892071910476 0.5210260492957532 0
0.6635053535692215 0.5582421956738736 0
0.7007214999473913 0.5954583420519899 0
0.7379376463255889 0.6326744884301334 0
0.7751537927038561 0.6698906348083471 0
0.1951108832201694 0.03721614637830235 0
0.2323270295985769 0.07443229275662766 0
0.2695431759769797 0.1116484391349485 0
0.3067593223553709 0.1488645855132577 0
0.3439754687337537 0.1860807318915585 0
0.381191615112134 0.2232968782698566 0
0.418407761490539 0.2605130246481798 0
0.4556239078689445 0.297729171026503 0
0.4928400542473312 0.3349453174048077 0
0.5300562006256534 0.3721614637830477 0
0.5672723470039021 0.4093776101612145 0
0.6044884933821578 0.446593756539388 0
0.641704639760406 0.4838099029175541 0
0.6789207861386348 0.5210260492957011 0
0.7161369325168532 0.5582421956738373 0
0.7533530788950613 0.5954583420519632 0
0.790569225273297 0.6326744884301172 0
0.8277853716516055 0.6698906348083438 0
0.2477424621674061 0.0372161463782944 0
0.2849586085458358 0.07443229275661228 0
0.3221747549242587 0.1116484391349233 0
0.3593909013026678 0.1488645855132205 0
0.3966070476810719 0.1860807318915128 0
0.4338231940594701 0.2232968782697989 0
0.4710393404378936 0.2605130246481107 0
0.5082554868163189 0.2977291710264244 0
0.5454716331947238 0.3349453174047171 0
0.5826877795730724 0.3721614637829539 0
0.6199039259513619 0.4093776101611315 0
0.6571200723296586 0.4465937565393164 0
0.6943362187079452 0.4838099029174912 0
0.7315523650862148 0.5210260492956487 0
0.768768511464479 0.558242195673801 0
0.8059846578427268 0.595458342051937 0
0.8432008042210026 0.632674488430101 0
0.8804169505993538 0.6698906348083402 0
0.3003740411146428 0.03721614637828646 0
0.3375901874930948 0.07443229275659685 0
0.3748063338715377 0.1116484391348981 0
0.4120224802499646 0.1488645855131832 0
0.4492386266283902 0.186080731891467 0
0.4864547730068062 0.2232968782697413 0
0.5236709193852481 0.2605130246480416 0
0.560887065763694 0.2977291710263457 0
0.5981032121421164 0.3349453174046267 0
0.6353193585204919 0.3721614637828602 0
0.6725355048988215 0.4093776101610483 0
0.70975165127716 0.4465937565392447 0
0.7469677976554847 0.4838099029174283 0
0.784183944033795 0.5210260492955967 0
0.8214000904121046 0.5582421956737645 0
0.8586162367903922 0.5954583420519108 0
0.8958323831687082 0.6326744884300848 0
0.9330485295471019 0.6698906348083369 0
0.3530056200618661 0.03721614637827853 0
0.3902217664403272 0.07443229275658142 0
0.4274379128187769 0.1116484391348729 0
0.4646540591972081 0.1488645855131459 0
0.5018702055756418 0.1860807318914214 0
0.5390863519540622 0.2232968782696836 0
0.5763024983325091 0.2605130246479725 0
0.613518644710962 0.2977291710262669 0
0.6507347910893891 0.3349453174045361 0
0.6879509374677779 0.3721614637827665 0
0.7251670838461347 0.4093776101609653 0
0.7623832302245008 0.4465937565391732 0
0.7995993766028511 0.4838099029173652 0
0.8368155229811884 0.5210260492955443 0
0.8740316693595305 0.5582421956737282 0
0.911247815737845 0.5954583420518844 0
0.9484639621161871 0.6326744884300686 0
0.9856801084946102 0.6698906348083336 0
0.405637199009072 0.03721614637827059 0
0.4428533453875247 0.07443229275656599 0
0.4800694917659637 0.1116484391348478 0
0.5172856381443818 0.1488645855131087 0
0.5545017845228062 0.1860807318913757 0
0.5917179309012136 0.223296878269626 0
0.6289340772796486 0.2605130246479037 0
0.6661502236580905 0.2977291710261883 0
0.7033663700365052 0.3349453174044455 0
0.7405825164148895 0.3721614637826728 0
0.7777986627932563 0.4093776101608821 0
0.8150148091716327 0.4465937565391015 0
0.8522309555499905 0.4838099029173021 0
0.8894471019283383 0.5210260492954923 0
0.926663248306695 0.5582421956736917 0
0.9638793946850183 0.595458342051858 0
1.00109554106337 0.6326744884300524 0
1.038311687441805 0.66989063480833 0
0.458268777956278 0.03721614637826265 0
0.4954849243347222 0.07443229275655058 0
0.5327010707131506 0.1116484391348226 0
0.569917217091556 0.1488645855130715 0
0.6071333634699705 0.1860807318913299 0
0.6443495098483651 0.2232968782695683 0
0.6815656562267881 0.2605130246478347 0
0.7187818026052192 0.2977291710261096 0
0.755997948983621 0.3349453174043548 0
0.7932140953620014 0.3721614637825791 0
0.8304302417403777 0.4093776101607991 0
0.8676463881187648 0.44659375653903 0
0.9048625344971304 0.4838099029172391 0
0.9420786808754879 0.5210260492954399 0
0.9792948272538593 0.5582421956736553 0
1.016510973632192 0.5954583420518318 0
1.053727120010552 0.6326744884300362 0
1.090943266388999 0.6698906348083267 0
0.5109003569034839 0.03721614637825471 0
0.5481165032819197 0.07443229275653515 0
0.5853326496603374 0.1116484391347974 0
0.6225487960387296 0.1488645855130342 0
0.659764942417135 0.1860807318912842 0
0.696981088795517 0.2232968782695107 0
0.7341972351739273 0.2605130246477657 0
0.7714133815523478 0.2977291710260309 0
0.8086295279307368 0.3349453174042643 0
0.8458456743091132 0.3721614637824853 0
0.8830618206874995 0.4093776101607159 0
0.9202779670658968 0.4465937565389583 0
0.9574941134442703 0.4838099029171761 0
0.9947102598226372 0.521026049295388 0
1.031926406201024 0.5582421956736189 0
1.069142552579366 0.5954583420518054 0
1.106358698957736 0.6326744884300197 0
1.143574845336194 0.6698906348083231 0
0.5635319358508284 0.03721614637824679 0
0.6007480822292482 0.07443229275651975 0
0.6379642286076475 0.1116484391347723 0
0.675180374986019 0.148864585512997 0
0.7123965213644071 0.1860807318912385 0
0.7496126677427686 0.2232968782694531 0
0.786828814121159 0.2605130246476966 0
0.8240449604995616 0.2977291710259523 0
0.8612611068779297 0.3349453174041738 0
0.8984772532562942 0.3721614637823915 0
0.9356933996346826 0.4093776101606328 0
0.9729095460130828 0.4465937565388866 0
1.010125692391456 0.483809902917113 0
1.047341838769826 0.5210260492953356 0
1.084557985148219 0.5582421956735825 0
1.121774131526563 0.5954583420517792 0
1.158990277904934 0.6326744884300037 0
1.196206424283397 0.6698906348083198 0
0.6161635147983114 0.03721614637823883 0
0.6533796611767073 0.07443229275650431 0
0.6905958075550805 0.1116484391347471 0
0.7278119539334239 0.1488645855129597 0
0.7650281003117871 0.1860807318911928 0
0.8022442466901203 0.2232968782693955 0
0.8394603930684831 0.2605130246476276 0
0.8766765394468595 0.2977291710258736 0
0.9138926858251998 0.3349453174040833 0
0.951108832203545 0.3721614637822978 0
0.9883249785819274 0.4093776101605498 0
1.025541124960323 0.4465937565388151 0
1.062757271338688 0.4838099029170501 0
1.099973417717052 0.5210260492952834 0
1.137189564095445 0.5582421956735463 0
1.174405710473783 0.5954583420517527 0
1.211621856852148 0.6326744884299873 0
1.248838003230607 0.6698906348083165 0
0.6687950937457946 0.03721614637823092 0
0.7060112401241663 0.07443229275648888 0
0.7432273865025137 0.1116484391347219 0
0.7804435328808286 0.1488645855129225 0
0.8176596792591674 0.1860807318911471 0
0.8548758256374723 0.2232968782693378 0
0.8920919720158074 0.2605130246475587 0
0.9293081183941575 0.2977291710257949 0
0.9665242647724693 0.3349453174039927 0
1.003740411150795 0.372161463782204 0
1.040956557529171 0.4093776101604667 0
1.078172703907563 0.4465937565387433 0
1.11538885028592 0.483809902916987 0
1.152604996664279 0.5210260492952312 0
1.189821143042672 0.5582421956735099 0
1.227037289421002 0.5954583420517265 0
1.264253435799361 0.6326744884299711 0
1.301469582177817 0.6698906348083131 0
0.7214266726932773 0.03721614637822299 0
0.758642819071626 0.07443229275647345 0
0.7958589654499467 0.1116484391346967 0
0.8330751118282332 0.1488645855128852 0
0.8702912582065471 0.1860807318911015 0
0.907507404584824 0.2232968782692802 0
0.944723550963131 0.2605130246474897 0
0.9819396973414555 0.2977291710257163 0
1.019155843719739 0.3349453174039021 0
1.056371990098045 0.3721614637821104 0
1.093588136476416 0.4093776101603835 0
1.130804282854803 0.4465937565386717 0
1.168020429233152 0.4838099029169239 0
1.205236575611505 0.521026049295179 0
1.242452721989898 0.5582421956734737 0
1.279668868368222 0.5954583420517001 0
1.316885014746575 0.6326744884299549 0
1.354101161125028 0.6698906348083096 0
0.7740582516407603 0.03721614637821505 0
0.8112743980190849 0.07443229275645805 0
0.8484905443973799 0.1116484391346716 0
0.8857066907756379 0.148864585512848 0
0.922922837153927 0.1860807318910557 0
0.9601389835321755 0.2232968782692225 0
0.9973551299104552 0.2605130246474206 0
1.034571276288754 0.2977291710256375 0
1.071787422667009 0.3349453174038116 0
1.109003569045296 0.3721614637820166 0
1.146219715423661 0.4093776101603004 0
1.183435861802042 0.4465937565386001 0
1.220652008180384 0.4838099029168609 0
1.257868154558732 0.5210260492951269 0
1.295084300937123 0.5582421956734372 0
1.332300447315442 0.5954583420516737 0
1.369516593693789 0.6326744884299387 0
1.406732740072238 0.6698906348083062 0
0.8266898305882431 0.03721614637820711 0
0.863905976966544 0.07443229275644261 0
0.9011221233448131 0.1116484391346464 0
0.9383382697230426 0.1488645855128107 0
0.9755544161013071 0.18608073189101 0
1.012770562479527 0.2232968782691649 0
1.049986708857779 0.2605130246473515 0
1.087202855236052 0.2977291710255588 0
1.12441900161428 0.3349453174037211 0
1.161635147992546 0.3721614637819227 0
1.198851294370906 0.4093776101602173 0
1.236067440749282 0.4465937565385284 0
1.273283587127617 0.4838099029167979 0
1.310499733505959 0.5210260492950747 0
1.34771587988435 0.5582421956734009 0
1.384932026262662 0.5954583420516475 0
1.422148172641002 0.6326744884299225 0
1.459364319019448 0.6698906348083029 0
0.879321409535726 0.03721614637819918 0
0.9165375559140033 0.07443229275642721 0
0.9537537022922463 0.1116484391346212 0
0.9909698486704474 0.1488645855127735 0
1.028185995048687 0.1860807318909643 0
1.065402141426879 0.2232968782691073 0
1.102618287805103 0.2605130246472826 0
1.13983443418335 0.2977291710254802 0
1.177050580561549 0.3349453174036306 0
1.214266726939796 0.3721614637818291 0
1.251482873318151 0.4093776101601342 0
1.288699019696522 0.4465937565384568 0
1.325915166074849 0.4838099029167349 0
1.363131312453186 0.5210260492950225 0
1.400347458831576 0.5582421956733644 0
1.437563605209882 0.5954583420516213 0
1.474779751588216 0.6326744884299063 0
1.511995897966658 0.6698906348082994 0
0.9319529884832092 0.03721614637819123 0
0.9691691348614626 0.07443229275641178 0
1.006385281239679 0.111648439134596 0
1.043601427617852 0.1488645855127362 0
1.080817573996067 0.1860807318909186 0
1.118033720374231 0.2232968782690496 0
1.155249866752427 0.2605130246472137 0
1.192466013130648 0.2977291710254014 0
1.229682159508819 0.33494531740354 0
1.266898305887047 0.3721614637817354 0
1.304114452265396 0.4093776101600511 0
1.341330598643762 0.4465937565383852 0
1.378546745022081 0.4838099029166719 0
1.415762891400412 0.5210260492949701 0
1.452979037778803 0.558242195673328 0
1.490195184157102 0.5954583420515949 0
1.52741133053543 0.63267448842989 0
1.564627476913868 0.6698906348082959 0
0.9845845674306922 0.0372161463781833 0
1.021800713808922 0.07443229275639636 0
1.059016860187113 0.1116484391345709 0
1.096233006565257 0.148864585512699 0
1.133449152943447 0.1860807318908728 0
1.170665299321582 0.2232968782689921 0
1.207881445699751 0.2605130246471446 0
1.245097592077946 0.2977291710253228 0
1.282313738456089 0.3349453174034494 0
1.319529884834297 0.3721614637816417 0
1.35674603121264 0.409377610159968 0
1.393962177591001 0.4465937565383135 0
1.431178323969314 0.4838099029166089 0
1.468394470347639 0.5210260492949181 0
1.50561061672603 0.5582421956732916 0
1.542826763104322 0.5954583420515683 0
1.580042909482643 0.6326744884298735 0
1.617259055861079 0.6698906348082927 0
$EndNodes
$Elements
6 2964 1 8098
1 1 1 19
1 1 5 
2 5 6 
3 6 7 
4 7 8 
5 8 9 
6 9 10 
7 10 11 
8 11 12 
9 12 13 
10 13 14 
11 14 15 
12 15 16 
13 16 17 
14 17 18 
15 18 19 
16 19 20 
17 20 21 
18 21 22 
19 22 2 
1 2 1 19
20 2 23 
21 23 24 
22 24 25 
23 25 26 
24 26 27 
25 27 28 
26 28 29 
27 29 30 
28 30 31 
29 31 32 
30 32 33 
31 33 34 
32 34 35 
33 35 36 
34 36 37 
35 37 38 
36 38 39 
37 39 40 
38 40 3 
1 3 1 19
39 3 41 
40 41 42 
41 42 43 
42 43 44 
43 44 45 
44 45 46 
45 46 47 
46 47 48 
47 48 49 
48 49 50 
49 50 51 
50 51 52 
51 52 53 
52 53 54 
53 54 55 
54 55 56 
55 56 57 
56 57 58 
57 58 4 
1 4 1 19
58 4 59 
59 59 60 
60 60 61 
61 61 62 
62 62 63 
63 63 64 
64 64 65 
65 65 66 
66 66 67 
67 67 68 
68 68 69 
69 69 70 
70 70 71 
71 71 72 
72 72 73 
73 73 74 
74 74 75 
75 75 76 
76 76 1 
1 5 1 2166
5933 1 5 
5934 5 76 
5935 76 1 
5936 76 5 
5937 5 77 
5938 77 76 
5939 76 77 
5940 77 78 
5941 78 76 
5942 78 75 
5943 75 76 
5944 76 78 
5945 75 78 
5946 78 74 
5947 74 75 
5948 74 78 
5949 78 79 
5950 79 74 
5951 74 79 
5952 79 80 
5953 80 74 
5954 80 73 
5955 73 74 
5956 74 80 
5957 73 80 
5958 80 72 
5959 72 73 
5960 72 80 
5961 80 81 
5962 81 72 
5963 72 81 
5964 81 82 
5965 82 72 
5966 82 71 
5967 71 72 
5968 72 82 
5969 71 82 
5970 82 70 
5971 70 71 
5972 70 82 
5973 82 83 
5974 83 70 
5975 70 83 
5976 83 84 
5977 84 70 
5978 84 69 
5979 69 70 
5980 70 84 
5981 69 84 
5982 84 68 
5983 68 69 
5984 68 84 
5985 84 85 
5986 85 68 
5987 68 85 
5988 85 86 
5989 86 68 
5990 86 67 
5991 67 68 
5992 68 86 
5993 67 86 
5994 86 66 
5995 66 67 
5996 66 86 
5997 86 87 
5998 87 66 
5999 66 87 
6000 87 88 
6001 88 66 
6002 88 65 
6003 65 66 
6004 66 88 
6005 65 88 
6006 88 64 
6007 64 65 
6008 64 88 
6009 88 89 
6010 89 64 
6011 64 89 
6012 89 90 
6013 90 64 
6014 90 63 
6015 63 64 
6016 64 90 
6017 63 90 
6018 90 62 
6019 62 63 
6020 62 90 
6021 90 91 
6022 91 62 
6023 62 91 
6024 91 92 
6025 92 62 
6026 92 61 
6027 61 62 
6028 62 92 
6029 61 92 
6030 92 60 
6031 60 61 
6032 60 92 
6033 92 93 
6034 93 60 
6035 60 93 
6036 93 94 
6037 94 60 
6038 94 59 
6039 59 60 
6040 60 94 
6041 59 94 
6042 94 4 
6043 4 59 
6044 4 94 
6045 94 58 
6046 58 4 
6047 5 6 
6048 6 95 
6049 95 5 
6050 95 77 
6051 77 5 
6052 5 95 
6053 77 95 
6054 95 78 
6055 78 77 
6056 78 95 
6057 95 96 
6058 96 78 
6059 78 96 
6060 96 97 
6061 97 78 
6062 97 79 
6063 79 78 
6064 78 97 
6065 79 97 
6066 97 80 
6067 80 79 
6068 80 97 
6069 97 98 
6070 98 80 
6071 80 98 
6072 98 99 
6073 99 80 
6074 99 81 
6075 81 80 
6076 80 99 
6077 81 99 
6078 99 82 
6079 82 81 
6080 82 99 
6081 99 100 
6082 100 82 
6083 82 100 
6084 100 101 
6085 101 82 
6086 101 83 
6087 83 82 
6088 82 101 
6089 83 101 
6090 101 84 
6091 84 83 
6092 84 101 
6093 101 102 
6094 102 84 
6095 84 102 
6096 102 103 
6097 103 84 
6098 103 85 
6099 85 84 
6100 84 103 
6101 85 103 
6102 103 86 
6103 86 85 
6104 86 103 
6105 103 104 
6106 104 86 
6107 86 104 
6108 104 105 
6109 105 86 
6110 105 87 
6111 87 86 
6112 86 105 
6113 87 105 
6114 105 88 
6115 88 87 
6116 88 105 
6117 105 106 
6118 106 88 
6119 88 106 
6120 106 107 
6121 107 88 
6122 107 89 
6123 89 88 
6124 88 107 
6125 89 107 
6126 107 90 
6127 90 89 
6128 90 107 
6129 107 108 
6130 108 90 
6131 90 108 
6132 108 109 
6133 109 90 
6134 109 91 
6135 91 90 
6136 90 109 
6137 91 109 
6138 109 92 
6139 92 91 
6140 92 109 
6141 109 110 
6142 110 92 
6143 92 110 
6144 110 111 
6145 111 92 
6146 111 93 
6147 93 92 
6148 92 111 
6149 93 111 
6150 111 94 
6151 94 93 
6152 94 111 
6153 111 112 
6154 112 94 
6155 94 112 
6156 112 57 
6157 57 94 
6158 57 58 
6159 58 94 
6160 94 57 
6161 6 7 
6162 7 95 
6163 95 6 
6164 95 7 
6165 7 113 
6166 113 95 
6167 95 113 
6168 113 114 
6169 114 95 
6170 114 96 
6171 96 95 
6172 95 114 
6173 96 114 
6174 114 97 
6175 97 96 
6176 97 114 
6177 114 115 
6178 115 97 
6179 97 115 
6180 115 116 
6181 116 97 
6182 116 98 
6183 98 97 
6184 97 116 
6185 98 116 
6186 116 99 
6187 99 98 
6188 99 116 
6189 116 117 
6190 117 99 
6191 99 117 
6192 117 118 
6193 118 99 
6194 118 100 
6195 100 99 
6196 99 118 
6197 100 118 
6198 118 101 
6199 101 100 
6200 101 118 
6201 118 119 
6202 119 101 
6203 101 119 
6204 119 120 
6205 120 101 
6206 120 102 
6207 102 101 
6208 101 120 
6209 102 120 
6210 120 103 
6211 103 102 
6212 103 120 
6213 120 121 
6214 121 103 
6215 103 121 
6216 121 122 
6217 122 103 
6218 122 104 
6219 104 103 
6220 103 122 
6221 104 122 
6222 122 105 
6223 105 104 
6224 105 122 
6225 122 123 
6226 123 105 
6227 105 123 
6228 123 124 
6229 124 105 
6230 124 106 
6231 106 105 
6232 105 124 
6233 106 124 
6234 124 107 
6235 107 106 
6236 107 124 
6237 124 125 
6238 125 107 
6239 107 125 
6240 125 126 
6241 126 107 
6242 126 108 
6243 108 107 
6244 107 126 
6245 108 126 
6246 126 109 
6247 109 108 
6248 109 126 
6249 126 127 
6250 127 109 
6251 109 127 
6252 127 128 
6253 128 109 
6254 128 110 
6255 110 109 
6256 109 128 
6257 110 128 
6258 128 111 
6259 111 110 
6260 111 128 
6261 128 129 
6262 129 111 
6263 111 129 
6264 129 130 
6265 130 111 
6266 130 112 
6267 112 111 
6268 111 130 
6269 112 130 
6270 130 57 
6271 57 112 
6272 57 130 
6273 130 56 
6274 56 57 
6275 7 8 
6276 8 131 
6277 131 7 
6278 131 113 
6279 113 7 
6280 7 131 
6281 113 131 
6282 131 114 
6283 114 113 
6284 114 131 
6285 131 132 
6286 132 114 
6287 114 132 
6288 132 133 
6289 133 114 
6290 133 115 
6291 115 114 
6292 114 133 
6293 115 133 
6294 133 116 
6295 116 115 
6296 116 133 
6297 133 134 
6298 134 116 
6299 116 134 
6300 134 135 
6301 135 116 
6302 135 117 
6303 117 116 
6304 116 135 
6305 117 135 
6306 135 118 
6307 118 117 
6308 118 135 
6309 135 136 
6310 136 118 
6311 118 136 
6312 136 137 
6313 137 118 
6314 137 119 
6315 119 118 
6316 118 137 
6317 119 137 
6318 137 120 
6319 120 119 
6320 120 137 
6321 137 138 
6322 138 120 
6323 120 138 
6324 138 139 
6325 139 120 
6326 139 121 
6327 121 120 
6328 120 139 
6329 121 139 
6330 139 122 
6331 122 121 
6332 122 139 
6333 139 140 
6334 140 122 
6335 122 140 
6336 140 141 
6337 141 122 
6338 141 123 
6339 123 122 
6340 122 141 
6341 123 141 
6342 141 124 
6343 124 123 
6344 124 141 
6345 141 142 
6346 142 124 
6347 124 142 
6348 142 143 
6349 143 124 
6350 143 125 
6351 125 124 
6352 124 143 
6353 125 143 
6354 143 126 
6355 126 125 
6356 126 143 
6357 143 144 
6358 144 126 
6359 126 144 
6360 144 145 
6361 145 126 
6362 145 127 
6363 127 126 
6364 126 145 
6365 127 145 
6366 145 128 
6367 128 127 
6368 128 145 
6369 145 146 
6370 146 128 
6371 128 146 
6372 146 147 
6373 147 128 
6374 147 129 
6375 129 128 
6376 128 147 
6377 129 147 
6378 147 130 
6379 130 129 
6380 130 147 
6381 147 148 
6382 148 130 
6383 130 148 
6384 148 55 
6385 55 130 
6386 55 56 
6387 56 130 
6388 130 55 
6389 8 9 
6390 9 131 
6391 131 8 
6392 131 9 
6393 9 149 
6394 149 131 
6395 131 149 
6396 149 150 
6397 150 131 
6398 150 132 
6399 132 131 
6400 131 150 
6401 132 150 
6402 150 133 
6403 133 132 
6404 133 150 
6405 150 151 
6406 151 133 
6407 133 151 
6408 151 152 
6409 152 133 
6410 152 134 
6411 134 133 
6412 133 152 
6413 134 152 
6414 152 135 
6415 135 134 
6416 135 152 
6417 152 153 
6418 153 135 
6419 135 153 
6420 153 154 
6421 154 135 
6422 154 136 
6423 136 135 
6424 135 154 
6425 136 154 
6426 154 137 
6427 137 136 
6428 137 154 
6429 154 155 
6430 155 137 
6431 137 155 
6432 155 156 
6433 156 137 
6434 156 138 
6435 138 137 
6436 137 156 
6437 138 156 
6438 156 139 
6439 139 138 
6440 139 156 
6441 156 157 
6442 157 139 
6443 139 157 
6444 157 158 
6445 158 139 
6446 158 140 
6447 140 139 
6448 139 158 
6449 140 158 
6450 158 141 
6451 141 140 
6452 141 158 
6453 158 159 
6454 159 141 
6455 141 159 
6456 159 160 
6457 160 141 
6458 160 142 
6459 142 141 
6460 141 160 
6461 142 160 
6462 160 143 
6463 143 142 
6464 143 160 
6465 160 161 
6466 161 143 
6467 143 161 
6468 161 162 
6469 162 143 
6470 162 144 
6471 144 143 
6472 143 162 
6473 144 162 
6474 162 145 
6475 145 144 
6476 145 162 
6477 162 163 
6478 163 145 
6479 145 163 
6480 163 164 
6481 164 145 
6482 164 146 
6483 146 145 
6484 145 164 
6485 146 164 
6486 164 147 
6487 147 146 
6488 147 164 
6489 164 165 
6490 165 147 
6491 147 165 
6492 165 166 
6493 166 147 
6494 166 148 
6495 148 147 
6496 147 166 
6497 148 166 
6498 166 55 
6499 55 148 
6500 55 166 
6501 166 54 
6502 54 55 
6503 9 10 
6504 10 167 
6505 167 9 
6506 167 149 
6507 149 9 
6508 9 167 
6509 149 167 
6510 167 150 
6511 150 149 
6512 150 167 
6513 167 168 
6514 168 150 
6515 150 168 
6516 168 169 
6517 169 150 
6518 169 151 
6519 151 150 
6520 150 169 
6521 151 169 
6522 169 152 
6523 152 151 
6524 152 169 
6525 169 170 
6526 170 152 
6527 152 170 
6528 170 171 
6529 171 152 
6530 171 153 
6531 153 152 
6532 152 171 
6533 153 171 
6534 171 154 
6535 154 153 
6536 154 171 
6537 171 172 
6538 172 154 
6539 154 172 
6540 172 173 
6541 173 154 
6542 173 155 
6543 155 154 
6544 154 173 
6545 155 173 
6546 173 156 
6547 156 155 
6548 156 173 
6549 173 174 
6550 174 156 
6551 156 174 
6552 174 175 
6553 175 156 
6554 175 157 
6555 157 156 
6556 156 175 
6557 157 175 
6558 175 158 
6559 158 157 
6560 158 175 
6561 175 176 
6562 176 158 
6563 158 176 
6564 176 177 
6565 177 158 
6566 177 159 
6567 159 158 
6568 158 177 
6569 159 177 
6570 177 160 
6571 160 159 
6572 160 177 
6573 177 178 
6574 178 160 
6575 160 178 
6576 178 179 
6577 179 160 
6578 179 161 
6579 161 160 
6580 160 179 
6581 161 179 
6582 179 162 
6583 162 161 
6584 162 179 
6585 179 180 
6586 180 162 
6587 162 180 
6588 180 181 
6589 181 162 
6590 181 163 
6591 163 162 
6592 162 181 
6593 163 181 
6594 181 164 
6595 164 163 
6596 164 181 
6597 181 182 
6598 182 164 
6599 164 182 
6600 182 183 
6601 183 164 
6602 183 165 
6603 165 164 
6604 164 183 
6605 165 183 
6606 183 166 
6607 166 165 
6608 166 183 
6609 183 184 
6610 184 166 
6611 166 184 
6612 184 53 
6613 53 166 
6614 53 54 
6615 54 166 
6616 166 53 
6617 10 11 
6618 11 167 
6619 167 10 
6620 167 11 
6621 11 185 
6622 185 167 
6623 167 185 
6624 185 186 
6625 186 167 
6626 186 168 
6627 168 167 
6628 167 186 
6629 168 186 
6630 186 169 
6631 169 168 
6632 169 186 
6633 186 187 
6634 187 169 
6635 169 187 
6636 187 188 
6637 188 169 
6638 188 170 
6639 170 169 
6640 169 188 
6641 170 188 
6642 188 171 
6643 171 170 
6644 171 188 
6645 188 189 
6646 189 171 
6647 171 189 
6648 189 190 
6649 190 171 
6650 190 172 
6651 172 171 
6652 171 190 
6653 172 190 
6654 190 173 
6655 173 172 
6656 173 190 
6657 190 191 
6658 191 173 
6659 173 191 
6660 191 192 
6661 192 173 
6662 192 174 
6663 174 173 
6664 173 192 
6665 174 192 
6666 192 175 
6667 175 174 
6668 175 192 
6669 192 193 
6670 193 175 
6671 175 193 
6672 193 194 
6673 194 175 
6674 194 176 
6675 176 175 
6676 175 194 
6677 176 194 
6678 194 177 
6679 177 176 
6680 177 194 
6681 194 195 
6682 195 177 
6683 177 195 
6684 195 196 
6685 196 177 
6686 196 178 
6687 178 177 
6688 177 196 
6689 178 196 
6690 196 179 
6691 179 178 
6692 179 196 
6693 196 197 
6694 197 179 
6695 179 197 
6696 197 198 
6697 198 179 
6698 198 180 
6699 180 179 
6700 179 198 
6701 180 198 
6702 198 181 
6703 181 180 
6704 181 198 
6705 198 199 
6706 199 181 
6707 181 199 
6708 199 200 
6709 200 181 
6710 200 182 
6711 182 181 
6712 181 200 
6713 182 200 
6714 200 183 
6715 183 182 
6716 183 200 
6717 200 201 
6718 201 183 
6719 183 201 
6720 201 202 
6721 202 183 
6722 202 184 
6723 184 183 
6724 183 202 
6725 184 202 
6726 202 53 
6727 53 184 
6728 53 202 
6729 202 52 
6730 52 53 
6731 11 12 
6732 12 203 
6733 203 11 
6734 203 185 
6735 185 11 
6736 11 203 
6737 185 203 
6738 203 186 
6739 186 185 
6740 186 203 
6741 203 204 
6742 204 186 
6743 186 204 
6744 204 205 
6745 205 186 
6746 205 187 
6747 187 186 
6748 186 205 
6749 187 205 
6750 205 188 
6751 188 187 
6752 188 205 
6753 205 206 
6754 206 188 
6755 188 206 
6756 206 207 
6757 207 188 
6758 207 189 
6759 189 188 
6760 188 207 
6761 189 207 
6762 207 190 
6763 190 189 
6764 190 207 
6765 207 208 
6766 208 190 
6767 190 208 
6768 208 209 
6769 209 190 
6770 209 191 
6771 191 190 
6772 190 209 
6773 191 209 
6774 209 192 
6775 192 191 
6776 192 209 
6777 209 210 
6778 210 192 
6779 192 210 
6780 210 211 
6781 211 192 
6782 211 193 
6783 193 192 
6784 192 211 
6785 193 211 
6786 211 194 
6787 194 193 
6788 194 211 
6789 211 212 
6790 212 194 
6791 194 212 
6792 212 213 
6793 213 194 
6794 213 195 
6795 195 194 
6796 194 213 
6797 195 213 
6798 213 196 
6799 196 195 
6800 196 213 
6801 213 214 
6802 214 196 
6803 196 214 
6804 214 215 
6805 215 196 
6806 215 197 
6807 197 196 
6808 196 215 
6809 197 215 
6810 215 198 
6811 198 197 
6812 198 215 
6813 215 216 
6814 216 198 
6815 198 216 
6816 216 217 
6817 217 198 
6818 217 199 
6819 199 198 
6820 198 217 
6821 199 217 
6822 217 200 
6823 200 199 
6824 200 217 
6825 217 218 
6826 218 200 
6827 200 218 
6828 218 219 
6829 219 200 
6830 219 201 
6831 201 200 
6832 200 219 
6833 201 219 
6834 219 202 
6835 202 201 
6836 202 219 
6837 219 220 
6838 220 202 
6839 202 220 
6840 220 51 
6841 51 202 
6842 51 52 
6843 52 202 
6844 202 51 
6845 12 13 
6846 13 203 
6847 203 12 
6848 203 13 
6849 13 221 
6850 221 203 
6851 203 221 
6852 221 222 
6853 222 203 
6854 222 204 
6855 204 203 
6856 203 222 
6857 204 222 
6858 222 205 
6859 205 204 
6860 205 222 
6861 222 223 
6862 223 205 
6863 205 223 
6864 223 224 
6865 224 205 
6866 224 206 
6867 206 205 
6868 205 224 
6869 206 224 
6870 224 207 
6871 207 206 
6872 207 224 
6873 224 225 
6874 225 207 
6875 207 225 
6876 225 226 
6877 226 207 
6878 226 208 
6879 208 207 
6880 207 226 
6881 208 226 
6882 226 209 
6883 209 208 
6884 209 226 
6885 226 227 
6886 227 209 
6887 209 227 
6888 227 228 
6889 228 209 
6890 228 210 
6891 210 209 
6892 209 228 
6893 210 228 
6894 228 211 
6895 211 210 
6896 211 228 
6897 228 229 
6898 229 211 
6899 211 229 
6900 229 230 
6901 230 211 
6902 230 212 
6903 212 211 
6904 211 230 
6905 212 230 
6906 230 213 
6907 213 212 
6908 213 230 
6909 230 231 
6910 231 213 
6911 213 231 
6912 231 232 
6913 232 213 
6914 232 214 
6915 214 213 
6916 213 232 
6917 214 232 
6918 232 215 
6919 215 214 
6920 215 232 
6921 232 233 
6922 233 215 
6923 215 233 
6924 233 234 
6925 234 215 
6926 234 216 
6927 216 215 
6928 215 234 
6929 216 234 
6930 234 217 
6931 217 216 
6932 217 234 
6933 234 235 
6934 235 217 
6935 217 235 
6936 235 236 
6937 236 217 
6938 236 218 
6939 218 217 
6940 217 236 
6941 218 236 
6942 236 219 
6943 219 218 
6944 219 236 
6945 236 237 
6946 237 219 
6947 219 237 
6948 237 238 
6949 238 219 
6950 238 220 
6951 220 219 
6952 219 238 
6953 220 238 
6954 238 51 
6955 51 220 
6956 51 238 
6957 238 50 
6958 50 51 
6959 13 14 
6960 14 239 
6961 239 13 
6962 239 221 
6963 221 13 
6964 13 239 
6965 221 239 
6966 239 222 
6967 222 221 
6968 222 239 
6969 239 240 
6970 240 222 
6971 222 240 
6972 240 241 
6973 241 222 
6974 241 223 
6975 223 222 
6976 222 241 
6977 223 241 
6978 241 224 
6979 224 223 
6980 224 241 
6981 241 242 
6982 242 224 
6983 224 242 
6984 242 243 
6985 243 224 
6986 243 225 
6987 225 224 
6988 224 243 
6989 225 243 
6990 243 226 
6991 226 225 
6992 226 243 
6993 243 244 
6994 244 226 
6995 226 244 
6996 244 245 
6997 245 226 
6998 245 227 
6999 227 226 
7000 226 245 
7001 227 245 
7002 245 228 
7003 228 227 
7004 228 245 
7005 245 246 
7006 246 228 
7007 228 246 
7008 246 247 
7009 247 228 
7010 247 229 
7011 229 228 
7012 228 247 
7013 229 247 
7014 247 230 
7015 230 229 
7016 230 247 
7017 247 248 
7018 248 230 
7019 230 248 
7020 248 249 
7021 249 230 
7022 249 231 
7023 231 230 
7024 230 249 
7025 231 249 
7026 249 232 
7027 232 231 
7028 232 249 
7029 249 250 
7030 250 232 
7031 232 250 
7032 250 251 
7033 251 232 
7034 251 233 
7035 233 232 
7036 232 251 
7037 233 251 
7038 251 234 
7039 234 233 
7040 234 251 
7041 251 252 
7042 252 234 
7043 234 252 
7044 252 253 
7045 253 234 
7046 253 235 
7047 235 234 
7048 234 253 
7049 235 253 
7050 253 236 
7051 236 235 
7052 236 253 
7053 253 254 
7054 254 236 
7055 236 254 
7056 254 255 
7057 255 236 
7058 255 237 
7059 237 236 
7060 236 255 
7061 237 255 
7062 255 238 
7063 238 237 
7064 238 255 
7065 255 256 
7066 256 238 
7067 238 256 
7068 256 49 
7069 49 238 
7070 49 50 
7071 50 238 
7072 238 49 
7073 14 15 
7074 15 239 
7075 239 14 
7076 239 15 
7077 15 257 
7078 257 239 
7079 239 257 
7080 257 258 
7081 258 239 
7082 258 240 
7083 240 239 
7084 239 258 
7085 240 258 
7086 258 241 
7087 241 240 
7088 241 258 
7089 258 259 
7090 259 241 
7091 241 259 
7092 259 260 
7093 260 241 
7094 260 242 
7095 242 241 
7096 241 260 
7097 242 260 
7098 260 243 
7099 243 242 
7100 243 260 
7101 260 261 
7102 261 243 
7103 243 261 
7104 261 262 
7105 262 243 
7106 262 244 
7107 244 243 
7108 243 262 
7109 244 262 
7110 262 245 
7111 245 244 
7112 245 262 
7113 262 263 
7114 263 245 
7115 245 263 
7116 263 264 
7117 264 245 
7118 264 246 
7119 246 245 
7120 245 264 
7121 246 264 
7122 264 247 
7123 247 246 
7124 247 264 
7125 264 265 
7126 265 247 
7127 247 265 
7128 265 266 
7129 266 247 
7130 266 248 
7131 248 247 
7132 247 266 
7133 248 266 
7134 266 249 
7135 249 248 
7136 249 266 
7137 266 267 
7138 267 249 
7139 249 267 
7140 267 268 
7141 268 249 
7142 268 250 
7143 250 249 
7144 249 268 
7145 250 268 
7146 268 251 
7147 251 250 
7148 251 268 
7149 268 269 
7150 269 251 
7151 251 269 
7152 269 270 
7153 270 251 
7154 270 252 
7155 252 251 
7156 251 270 
7157 252 270 
7158 270 253 
7159 253 252 
7160 253 270 
7161 270 271 
7162 271 253 
7163 253 271 
7164 271 272 
7165 272 253 
7166 272 254 
7167 254 253 
7168 253 272 
7169 254 272 
7170 272 255 
7171 255 254 
7172 255 272 
7173 272 273 
7174 273 255 
7175 255 273 
7176 273 274 
7177 274 255 
7178 274 256 
7179 256 255 
7180 255 274 
7181 256 274 
7182 274 49 
7183 49 256 
7184 49 274 
7185 274 48 
7186 48 49 
7187 15 16 
7188 16 275 
7189 275 15 
7190 275 257 
7191 257 15 
7192 15 275 
7193 257 275 
7194 275 258 
7195 258 257 
7196 258 275 
7197 275 276 
7198 276 258 
7199 258 276 
7200 276 277 
7201 277 258 
7202 277 259 
7203 259 258 
7204 258 277 
7205 259 277 
7206 277 260 
7207 260 259 
7208 260 277 
7209 277 278 
7210 278 260 
7211 260 278 
7212 278 279 
7213 279 260 
7214 279 261 
7215 261 260 
7216 260 279 
7217 261 279 
7218 279 262 
7219 262 261 
7220 262 279 
7221 279 280 
7222 280 262 
7223 262 280 
7224 280 281 
7225 281 262 
7226 281 263 
7227 263 262 
7228 262 281 
7229 263 281 
7230 281 264 
7231 264 263 
7232 264 281 
7233 281 282 
7234 282 264 
7235 264 282 
7236 282 283 
7237 283 264 
7238 283 265 
7239 265 264 
7240 264 283 
7241 265 283 
7242 283 266 
7243 266 265 
7244 266 283 
7245 283 284 
7246 284 266 
7247 266 284 
7248 284 285 
7249 285 266 
7250 285 267 
7251 267 266 
7252 266 285 
7253 267 285 
7254 285 268 
7255 268 267 
7256 268 285 
7257 285 286 
7258 286 268 
7259 268 286 
7260 286 287 
7261 287 268 
7262 287 269 
7263 269 268 
7264 268 287 
7265 269 287 
7266 287 270 
7267 270 269 
7268 270 287 
7269 287 288 
7270 288 270 
7271 270 288 
7272 288 289 
7273 289 270 
7274 289 271 
7275 271 270 
7276 270 289 
7277 271 289 
7278 289 272 
7279 272 271 
7280 272 289 
7281 289 290 
7282 290 272 
7283 272 290 
7284 290 291 
7285 291 272 
7286 291 273 
7287 273 272 
7288 272 291 
7289 273 291 
7290 291 274 
7291 274 273 
7292 274 291 
7293 291 292 
7294 292 274 
7295 274 292 
7296 292 47 
7297 47 274 
7298 47 48 
7299 48 274 
7300 274 47 
7301 16 17 
7302 17 275 
7303 275 16 
7304 275 17 
7305 17 293 
7306 293 275 
7307 275 293 
7308 293 294 
7309 294 275 
7310 294 276 
7311 276 275 
7312 275 294 
7313 276 294 
7314 294 277 
7315 277 276 
7316 277 294 
7317 294 295 
7318 295 277 
7319 277 295 
7320 295 296 
7321 296 277 
7322 296 278 
7323 278 277 
7324 277 296 
7325 278 296 
7326 296 279 
7327 279 278 
7328 279 296 
7329 296 297 
7330 297 279 
7331 279 297 
7332 297 298 
7333 298 279 
7334 298 280 
7335 280 279 
7336 279 298 
7337 280 298 
7338 298 281 
7339 281 280 
7340 281 298 
7341 298 299 
7342 299 281 
7343 281 299 
7344 299 300 
7345 300 281 
7346 300 282 
7347 282 281 
7348 281 300 
7349 282 300 
7350 300 283 
7351 283 282 
7352 283 300 
7353 300 301 
7354 301 283 
7355 283 301 
7356 301 302 
7357 302 283 
7358 302 284 
7359 284 283 
7360 283 302 
7361 284 302 
7362 302 285 
7363 285 284 
7364 285 302 
7365 302 303 
7366 303 285 
7367 285 303 
7368 303 304 
7369 304 285 
7370 304 286 
7371 286 285 
7372 285 304 
7373 286 304 
7374 304 287 
7375 287 286 
7376 287 304 
7377 304 305 
7378 305 287 
7379 287 305 
7380 305 306 
7381 306 287 
7382 306 288 
7383 288 287 
7384 287 306 
7385 288 306 
7386 306 289 
7387 289 288 
7388 289 306 
7389 306 307 
7390 307 289 
7391 289 307 
7392 307 308 
7393 308 289 
7394 308 290 
7395 290 289 
7396 289 308 
7397 290 308 
7398 308 291 
7399 291 290 
7400 291 308 
7401 308 309 
7402 309 291 
7403 291 309 
7404 309 310 
7405 310 291 
7406 310 292 
7407 292 291 
7408 291 310 
7409 292 310 
7410 310 47 
7411 47 292 
7412 47 310 
7413 310 46 
7414 46 47 
7415 17 18 
7416 18 311 
7417 311 17 
7418 311 293 
7419 293 17 
7420 17 311 
7421 293 311 
7422 311 294 
7423 294 293 
7424 294 311 
7425 311 312 
7426 312 294 
7427 294 312 
7428 312 313 
7429 313 294 
7430 313 295 
7431 295 294 
7432 294 313 
7433 295 313 
7434 313 296 
7435 296 295 
7436 296 313 
7437 313 314 
7438 314 296 
7439 296 314 
7440 314 315 
7441 315 296 
7442 315 297 
7443 297 296 
7444 296 315 
7445 297 315 
7446 315 298 
7447 298 297 
7448 298 315 
7449 315 316 
7450 316 298 
7451 298 316 
7452 316 317 
7453 317 298 
7454 317 299 
7455 299 298 
7456 298 317 
7457 299 317 
7458 317 300 
7459 300 299 
7460 300 317 
7461 317 318 
7462 318 300 
7463 300 318 
7464 318 319 
7465 319 300 
7466 319 301 
7467 301 300 
7468 300 319 
7469 301 319 
7470 319 302 
7471 302 301 
7472 302 319 
7473 319 320 
7474 320 302 
7475 302 320 
7476 320 321 
7477 321 302 
7478 321 303 
7479 303 302 
7480 302 321 
7481 303 321 
7482 321 304 
7483 304 303 
7484 304 321 
7485 321 322 
7486 322 304 
7487 304 322 
7488 322 323 
7489 323 304 
7490 323 305 
7491 305 304 
7492 304 323 
7493 305 323 
7494 323 306 
7495 306 305 
7496 306 323 
7497 323 324 
7498 324 306 
7499 306 324 
7500 324 325 
7501 325 306 
7502 325 307 
7503 307 306 
7504 306 325 
7505 307 325 
7506 325 308 
7507 308 307 
7508 308 325 
7509 325 326 
7510 326 308 
7511 308 326 
7512 326 327 
7513 327 308 
7514 327 309 
7515 309 308 
7516 308 327 
7517 309 327 
7518 327 310 
7519 310 309 
7520 310 327 
7521 327 328 
7522 328 310 
7523 310 328 
7524 328 45 
7525 45 310 
7526 45 46 
7527 46 310 
7528 310 45 
7529 18 19 
7530 19 311 
7531 311 18 
7532 311 19 
7533 19 329 
7534 329 311 
7535 311 329 
7536 329 330 
7537 330 311 
7538 330 312 
7539 312 311 
7540 311 330 
7541 312 330 
7542 330 313 
7543 313 312 
7544 313 330 
7545 330 331 
7546 331 313 
7547 313 331 
7548 331 332 
7549 332 313 
7550 332 314 
7551 314 313 
7552 313 332 
7553 314 332 
7554 332 315 
7555 315 314 
7556 315 332 
7557 332 333 
7558 333 315 
7559 315 333 
7560 333 334 
7561 334 315 
7562 334 316 
7563 316 315 
7564 315 334 
7565 316 334 
7566 334 317 
7567 317 316 
7568 317 334 
7569 334 335 
7570 335 317 
7571 317 335 
7572 335 336 
7573 336 317 
7574 336 318 
7575 318 317 
7576 317 336 
7577 318 336 
7578 336 319 
7579 319 318 
7580 319 336 
7581 336 337 
7582 337 319 
7583 319 337 
7584 337 338 
7585 338 319 
7586 338 320 
7587 320 319 
7588 319 338 
7589 320 338 
7590 338 321 
7591 321 320 
7592 321 338 
7593 338 339 
7594 339 321 
7595 321 339 
7596 339 340 
7597 340 321 
7598 340 322 
7599 322 321 
7600 321 340 
7601 322 340 
7602 340 323 
7603 323 322 
7604 323 340 
7605 340 341 
7606 341 323 
7607 323 341 
7608 341 342 
7609 342 323 
7610 342 324 
7611 324 323 
7612 323 342 
7613 324 342 
7614 342 325 
7615 325 324 
7616 325 342 
7617 342 343 
7618 343 325 
7619 325 343 
7620 343 344 
7621 344 325 
7622 344 326 
7623 326 325 
7624 325 344 
7625 326 344 
7626 344 327 
7627 327 326 
7628 327 344 
7629 344 345 
7630 345 327 
7631 327 345 
7632 345 346 
7633 346 327 
7634 346 328 
7635 328 327 
7636 327 346 
7637 328 346 
7638 346 45 
7639 45 328 
7640 45 346 
7641 346 44 
7642 44 45 
7643 19 20 
7644 20 347 
7645 347 19 
7646 347 329 
7647 329 19 
7648 19 347 
7649 329 347 
7650 347 330 
7651 330 329 
7652 330 347 
7653 347 348 
7654 348 330 
7655 330 348 
7656 348 349 
7657 349 330 
7658 349 331 
7659 331 330 
7660 330 349 
7661 331 349 
7662 349 332 
7663 332 331 
7664 332 349 
7665 349 350 
7666 350 332 
7667 332 350 
7668 350 351 
7669 351 332 
7670 351 333 
7671 333 332 
7672 332 351 
7673 333 351 
7674 351 334 
7675 334 333 
7676 334 351 
7677 351 352 
7678 352 334 
7679 334 352 
7680 352 353 
7681 353 334 
7682 353 335 
7683 335 334 
7684 334 353 
7685 335 353 
7686 353 336 
7687 336 335 
7688 336 353 
7689 353 354 
7690 354 336 
7691 336 354 
7692 354 355 
7693 355 336 
7694 355 337 
7695 337 336 
7696 336 355 
7697 337 355 
7698 355 338 
7699 338 337 
7700 338 355 
7701 355 356 
7702 356 338 
7703 338 356 
7704 356 357 
7705 357 338 
7706 357 339 
7707 339 338 
7708 338 357 
7709 339 357 
7710 357 340 
7711 340 339 
7712 340 357 
7713 357 358 
7714 358 340 
7715 340 358 
7716 358 359 
7717 359 340 
7718 359 341 
7719 341 340 
7720 340 359 
7721 341 359 
7722 359 342 
7723 342 341 
7724 342 359 
7725 359 360 
7726 360 342 
7727 342 360 
7728 360 361 
7729 361 342 
7730 361 343 
7731 343 342 
7732 342 361 
7733 343 361 
7734 361 344 
7735 344 343 
7736 344 361 
7737 361 362 
7738 362 344 
7739 344 362 
7740 362 363 
7741 363 344 
7742 363 345 
7743 345 344 
7744 344 363 
7745 345 363 
7746 363 346 
7747 346 345 
7748 346 363 
7749 363 364 
7750 364 346 
7751 346 364 
7752 364 43 
7753 43 346 
7754 43 44 
7755 44 346 
7756 346 43 
7757 20 21 
7758 21 347 
7759 347 20 
7760 347 21 
7761 21 365 
7762 365 347 
7763 347 365 
7764 365 366 
7765 366 347 
7766 366 348 
7767 348 347 
7768 347 366 
7769 348 366 
7770 366 349 
7771 349 348 
7772 349 366 
7773 366 367 
7774 367 349 
7775 349 367 
7776 367 368 
7777 368 349 
7778 368 350 
7779 350 349 
7780 349 368 
7781 350 368 
7782 368 351 
7783 351 350 
7784 351 368 
7785 368 369 
7786 369 351 
7787 351 369 
7788 369 370 
7789 370 351 
7790 370 352 
7791 352 351 
7792 351 370 
7793 352 370 
7794 370 353 
7795 353 352 
7796 353 370 
7797 370 371 
7798 371 353 
7799 353 371 
7800 371 372 
7801 372 353 
7802 372 354 
7803 354 353 
7804 353 372 
7805 354 372 
7806 372 355 
7807 355 354 
7808 355 372 
7809 372 373 
7810 373 355 
7811 355 373 
7812 373 374 
7813 374 355 
7814 374 356 
7815 356 355 
7816 355 374 
7817 356 374 
7818 374 357 
7819 357 356 
7820 357 374 
7821 374 375 
7822 375 357 
7823 357 375 
7824 375 376 
7825 376 357 
7826 376 358 
7827 358 357 
7828 357 376 
7829 358 376 
7830 376 359 
7831 359 358 
7832 359 376 
7833 376 377 
7834 377 359 
7835 359 377 
7836 377 378 
7837 378 359 
7838 378 360 
7839 360 359 
7840 359 378 
7841 360 378 
7842 378 361 
7843 361 360 
7844 361 378 
7845 378 379 
7846 379 361 
7847 361 379 
7848 379 380 
7849 380 361 
7850 380 362 
7851 362 361 
7852 361 380 
7853 362 380 
7854 380 363 
7855 363 362 
7856 363 380 
7857 380 381 
7858 381 363 
7859 363 381 
7860 381 382 
7861 382 363 
7862 382 364 
7863 364 363 
7864 363 382 
7865 364 382 
7866 382 43 
7867 43 364 
7868 43 382 
7869 382 42 
7870 42 43 
7871 21 22 
7872 22 383 
7873 383 21 
7874 383 365 
7875 365 21 
7876 21 383 
7877 365 383 
7878 383 366 
7879 366 365 
7880 366 383 
7881 383 384 
7882 384 366 
7883 366 384 
7884 384 385 
7885 385 366 
7886 385 367 
7887 367 366 
7888 366 385 
7889 367 385 
7890 385 368 
7891 368 367 
7892 368 385 
7893 385 386 
7894 386 368 
7895 368 386 
7896 386 387 
7897 387 368 
7898 387 369 
7899 369 368 
7900 368 387 
7901 369 387 
7902 387 370 
7903 370 369 
7904 370 387 
7905 387 388 
7906 388 370 
7907 370 388 
7908 388 389 
7909 389 370 
7910 389 371 
7911 371 370 
7912 370 389 
7913 371 389 
7914 389 372 
7915 372 371 
7916 372 389 
7917 389 390 
7918 390 372 
7919 372 390 
7920 390 391 
7921 391 372 
7922 391 373 
7923 373 372 
7924 372 391 
7925 373 391 
7926 391 374 
7927 374 373 
7928 374 391 
7929 391 392 
7930 392 374 
7931 374 392 
7932 392 393 
7933 393 374 
7934 393 375 
7935 375 374 
7936 374 393 
7937 375 393 
7938 393 376 
7939 376 375 
7940 376 393 
7941 393 394 
7942 394 376 
7943 376 394 
7944 394 395 
7945 395 376 
7946 395 377 
7947 377 376 
7948 376 395 
7949 377 395 
7950 395 378 
7951 378 377 
7952 378 395 
7953 395 396 
7954 396 378 
7955 378 396 
7956 396 397 
7957 397 378 
7958 397 379 
7959 379 378 
7960 378 397 
7961 379 397 
7962 397 380 
7963 380 379 
7964 380 397 
7965 397 398 
7966 398 380 
7967 380 398 
7968 398 399 
7969 399 380 
7970 399 381 
7971 381 380 
7972 380 399 
7973 381 399 
7974 399 382 
7975 382 381 
7976 382 399 
7977 399 400 
7978 400 382 
7979 382 400 
7980 400 41 
7981 41 382 
7982 41 42 
7983 42 382 
7984 382 41 
7985 22 2 
7986 2 383 
7987 383 22 
7988 383 2 
7989 2 23 
7990 23 383 
7991 383 23 
7992 23 24 
7993 24 383 
7994 24 384 
7995 384 383 
7996 383 24 
7997 384 24 
7998 24 385 
7999 385 384 
8000 385 24 
8001 24 25 
8002 25 385 
8003 385 25 
8004 25 26 
8005 26 385 
8006 26 386 
8007 386 385 
8008 385 26 
8009 386 26 
8010 26 387 
8011 387 386 
8012 387 26 
8013 26 27 
8014 27 387 
8015 387 27 
8016 27 28 
8017 28 387 
8018 28 388 
8019 388 387 
8020 387 28 
8021 388 28 
8022 28 389 
8023 389 388 
8024 389 28 
8025 28 29 
8026 29 389 
8027 389 29 
8028 29 30 
8029 30 389 
8030 30 390 
8031 390 389 
8032 389 30 
8033 390 30 
8034 30 391 
8035 391 390 
8036 391 30 
8037 30 31 
8038 31 391 
8039 391 31 
8040 31 32 
8041 32 391 
8042 32 392 
8043 392 391 
8044 391 32 
8045 392 32 
8046 32 393 
8047 393 392 
8048 393 32 
8049 32 33 
8050 33 393 
8051 393 33 
8052 33 34 
8053 34 393 
8054 34 394 
8055 394 393 
8056 393 34 
8057 394 34 
8058 34 395 
8059 395 394 
8060 395 34 
8061 34 35 
8062 35 395 
8063 395 35 
8064 35 36 
8065 36 395 
8066 36 396 
8067 396 395 
8068 395 36 
8069 396 36 
8070 36 397 
8071 397 396 
8072 397 36 
8073 36 37 
8074 37 397 
8075 397 37 
8076 37 38 
8077 38 397 
8078 38 398 
8079 398 397 
8080 397 38 
8081 398 38 
8082 38 399 
8083 399 398 
8084 399 38 
8085 38 39 
8086 39 399 
8087 399 39 
8088 39 40 
8089 40 399 
8090 40 400 
8091 400 399 
8092 399 40 
8093 400 40 
8094 40 41 
8095 41 400 
8096 41 40 
8097 40 3 
8098 3 41 
2 1 2 722
77 1 5 76 
78 76 5 77 
79 76 77 78 
80 78 75 76 
81 75 78 74 
82 74 78 79 
83 74 79 80 
84 80 73 74 
85 73 80 72 
86 72 80 81 
87 72 81 82 
88 82 71 72 
89 71 82 70 
90 70 82 83 
91 70 83 84 
92 84 69 70 
93 69 84 68 
94 68 84 85 
95 68 85 86 
96 86 67 68 
97 67 86 66 
98 66 86 87 
99 66 87 88 
100 88 65 66 
101 65 88 64 
102 64 88 89 
103 64 89 90 
104 90 63 64 
105 63 90 62 
106 62 90 91 
107 62 91 92 
108 92 61 62 
109 61 92 60 
110 60 92 93 
111 60 93 94 
112 94 59 60 
113 59 94 4 
114 4 94 58 
115 5 6 95 
116 95 77 5 
117 77 95 78 
118 78 95 96 
119 78 96 97 
120 97 79 78 
121 79 97 80 
122 80 97 98 
123 80 98 99 
124 99 81 80 
125 81 99 82 
126 82 99 100 
127 82 100 101 
128 101 83 82 
129 83 101 84 
130 84 101 102 
131 84 102 103 
132 103 85 84 
133 85 103 86 
134 86 103 104 
135 86 104 105 
136 105 87 86 
137 87 105 88 
138 88 105 106 
139 88 106 107 
140 107 89 88 
141 89 107 90 
142 90 107 108 
143 90 108 109 
144 109 91 90 
145 91 109 92 
146 92 109 110 
147 92 110 111 
148 111 93 92 
149 93 111 94 
150 94 111 112 
151 94 112 57 
152 57 58 94 
153 6 7 95 
154 95 7 113 
155 95 113 114 
156 114 96 95 
157 96 114 97 
158 97 114 115 
159 97 115 116 
160 116 98 97 
161 98 116 99 
162 99 116 117 
163 99 117 118 
164 118 100 99 
165 100 118 101 
166 101 118 119 
167 101 119 120 
168 120 102 101 
169 102 120 103 
170 103 120 121 
171 103 121 122 
172 122 104 103 
173 104 122 105 
174 105 122 123 
175 105 123 124 
176 124 106 105 
177 106 124 107 
178 107 124 125 
179 107 125 126 
180 126 108 107 
181 108 126 109 
182 109 126 127 
183 109 127 128 
184 128 110 109 
185 110 128 111 
186 111 128 129 
187 111 129 130 
188 130 112 111 
189 112 130 57 
190 57 130 56 
191 7 8 131 
192 131 113 7 
193 113 131 114 
194 114 131 132 
195 114 132 133 
196 133 115 114 
197 115 133 116 
198 116 133 134 
199 116 134 135 
200 135 117 116 
201 117 135 118 
202 118 135 136 
203 118 136 137 
204 137 119 118 
205 119 137 120 
206 120 137 138 
207 120 138 139 
208 139 121 120 
209 121 139 122 
210 122 139 140 
211 122 140 141 
212 141 123 122 
213 123 141 124 
214 124 141 142 
215 124 142 143 
216 143 125 124 
217 125 143 126 
218 126 143 144 
219 126 144 145 
220 145 127 126 
221 127 145 128 
222 128 145 146 
223 128 146 147 
224 147 129 128 
225 129 147 130 
226 130 147 148 
227 130 148 55 
228 55 56 130 
229 8 9 131 
230 131 9 149 
231 131 149 150 
232 150 132 131 
233 132 150 133 
234 133 150 151 
235 133 151 152 
236 152 134 133 
237 134 152 135 
238 135 152 153 
239 135 153 154 
240 154 136 135 
241 136 154 137 
242 137 154 155 
243 137 155 156 
244 156 138 137 
245 138 156 139 
246 139 156 157 
247 139 157 158 
248 158 140 139 
249 140 158 141 
250 141 158 159 
251 141 159 160 
252 160 142 141 
253 142 160 143 
254 143 160 161 
255 143 161 162 
256 162 144 143 
257 144 162 145 
258 145 162 163 
259 145 163 164 
260 164 146 145 
261 146 164 147 
262 147 164 165 
263 147 165 166 
264 166 148 147 
265 148 166 55 
266 55 166 54 
267 9 10 167 
268 167 149 9 
269 149 167 150 
270 150 167 168 
271 150 168 169 
272 169 151 150 
273 151 169 152 
274 152 169 170 
275 152 170 171 
276 171 153 152 
277 153 171 154 
278 154 171 172 
279 154 172 173 
280 173 155 154 
281 155 173 156 
282 156 173 174 
283 156 174 175 
284 175 157 156 
285 157 175 158 
286 158 175 176 
287 158 176 177 
288 177 159 158 
289 159 177 160 
290 160 177 178 
291 160 178 179 
292 179 161 160 
293 161 179 162 
294 162 179 180 
295 162 180 181 
296 181 163 162 
297 163 181 164 
298 164 181 182 
299 164 182 183 
300 183 165 164 
301 165 183 166 
302 166 183 184 
303 166 184 53 
304 53 54 166 
305 10 11 167 
306 167 11 185 
307 167 185 186 
308 186 168 167 
309 168 186 169 
310 169 186 187 
311 169 187 188 
312 188 170 169 
313 170 188 171 
314 171 188 189 
315 171 189 190 
316 190 172 171 
317 172 190 173 
318 173 190 191 
319 173 191 192 
320 192 174 173 
321 174 192 175 
322 175 192 193 
323 175 193 194 
324 194 176 175 
325 176 194 177 
326 177 194 195 
327 177 195 196 
328 196 178 177 
329 178 196 179 
330 179 196 197 
331 179 197 198 
332 198 180 179 
333 180 198 181 
334 181 198 199 
335 181 199 200 
336 200 182 181 
337 182 200 183 
338 183 200 201 
339 183 201 202 
340 202 184 183 
341 184 202 53 
342 53 202 52 
343 11 12 203 
344 203 185 11 
345 185 203 186 
346 186 203 204 
347 186 204 205 
348 205 187 186 
349 187 205 188 
350 188 205 206 
351 188 206 207 
352 207 189 188 
353 189 207 190 
354 190 207 208 
355 190 208 209 
356 209 191 190 
357 191 209 192 
358 192 209 210 
359 192 210 211 
360 211 193 192 
361 193 211 194 
362 194 211 212 
363 194 212 213 
364 213 195 194 
365 195 213 196 
366 196 213 214 
367 196 214 215 
368 215 197 196 
369 197 215 198 
370 198 215 216 
371 198 216 217 
372 217 199 198 
373 199 217 200 
374 200 217 218 
375 200 218 219 
376 219 201 200 
377 201 219 202 
378 202 219 220 
379 202 220 51 
380 51 52 202 
381 12 13 203 
382 203 13 221 
383 203 221 222 
384 222 204 203 
385 204 222 205 
386 205 222 223 
387 205 223 224 
388 224 206 205 
389 206 224 207 
390 207 224 225 
391 207 225 226 
392 226 208 207 
393 208 226 209 
394 209 226 227 
395 209 227 228 
396 228 210 209 
397 210 228 211 
398 211 228 229 
399 211 229 230 
400 230 212 211 
401 212 230 213 
402 213 230 231 
403 213 231 232 
404 232 214 213 
405 214 232 215 
406 215 232 233 
407 215 233 234 
408 234 216 215 
409 216 234 217 
410 217 234 235 
411 217 235 236 
412 236 218 217 
413 218 236 219 
414 219 236 237 
415 219 237 238 
416 238 220 219 
417 220 238 51 
418 51 238 50 
419 13 14 239 
420 239 221 13 
421 221 239 222 
422 222 239 240 
423 222 240 241 
424 241 223 222 
425 223 241 224 
426 224 241 242 
427 224 242 243 
428 243 225 224 
429 225 243 226 
430 226 243 244 
431 226 244 245 
432 245 227 226 
433 227 245 228 
434 228 245 246 
435 228 246 247 
436 247 229 228 
437 229 247 230 
438 230 247 248 
439 230 248 249 
440 249 231 230 
441 231 249 232 
442 232 249 250 
443 232 250 251 
444 251 233 232 
445 233 251 234 
446 234 251 252 
447 234 252 253 
448 253 235 234 
449 235 253 236 
450 236 253 254 
451 236 254 255 
452 255 237 236 
453 237 255 238 
454 238 255 256 
455 238 256 49 
456 49 50 238 
457 14 15 239 
458 239 15 257 
459 239 257 258 
460 258 240 239 
461 240 258 241 
462 241 258 259 
463 241 259 260 
464 260 242 241 
465 242 260 243 
466 243 260 261 
467 243 261 262 
468 262 244 243 
469 244 262 245 
470 245 262 263 
471 245 263 264 
472 264 246 245 
473 246 264 247 
474 247 264 265 
475 247 265 266 
476 266 248 247 
477 248 266 249 
478 249 266 267 
479 249 267 268 
480 268 250 249 
481 250 268 251 
482 251 268 269 
483 251 269 270 
484 270 252 251 
485 252 270 253 
486 253 270 271 
487 253 271 272 
488 272 254 253 
489 254 272 255 
490 255 272 273 
491 255 273 274 
492 274 256 255 
493 256 274 49 
494 49 274 48 
495 15 16 275 
496 275 257 15 
497 257 275 258 
498 258 275 276 
499 258 276 277 
500 277 259 258 
501 259 277 260 
502 260 277 278 
503 260 278 279 
504 279 261 260 
505 261 279 262 
506 262 279 280 
507 262 280 281 
508 281 263 262 
509 263 281 264 
510 264 281 282 
511 264 282 283 
512 283 265 264 
513 265 283 266 
514 266 283 284 
515 266 284 285 
516 285 267 266 
517 267 285 268 
518 268 285 286 
519 268 286 287 
520 287 269 268 
521 269 287 270 
522 270 287 288 
523 270 288 289 
524 289 271 270 
525 271 289 272 
526 272 289 290 
527 272 290 291 
528 291 273 272 
529 273 291 274 
530 274 291 292 
531 274 292 47 
532 47 48 274 
533 16 17 275 
534 275 17 293 
535 275 293 294 
536 294 276 275 
537 276 294 277 
538 277 294 295 
539 277 295 296 
540 296 278 277 
541 278 296 279 
542 279 296 297 
543 279 297 298 
544 298 280 279 
545 280 298 281 
546 281 298 299 
547 281 299 300 
548 300 282 281 
549 282 300 283 
550 283 300 301 
551 283 301 302 
552 302 284 283 
553 284 302 285 
554 285 302 303 
555 285 303 304 
556 304 286 285 
557 286 304 287 
558 287 304 305 
559 287 305 306 
560 306 288 287 
561 288 306 289 
562 289 306 307 
563 289 307 308 
564 308 290 289 
565 290 308 291 
566 291 308 309 
567 291 309 310 
568 310 292 291 
569 292 310 47 
570 47 310 46 
571 17 18 311 
572 311 293 17 
573 293 311 294 
574 294 311 312 
575 294 312 313 
576 313 295 294 
577 295 313 296 
578 296 313 314 
579 296 314 315 
580 315 297 296 
581 297 315 298 
582 298 315 316 
583 298 316 317 
584 317 299 298 
585 299 317 300 
586 300 317 318 
587 300 318 319 
588 319 301 300 
589 301 319 302 
590 302 319 320 
591 302 320 321 
592 321 303 302 
593 303 321 304 
594 304 321 322 
595 304 322 323 
596 323 305 304 
597 305 323 306 
598 306 323 324 
599 306 324 325 
600 325 307 306 
601 307 325 308 
602 308 325 326 
603 308 326 327 
604 327 309 308 
605 309 327 310 
606 310 327 328 
607 310 328 45 
608 45 46 310 
609 18 19 311 
610 311 19 329 
611 311 329 330 
612 330 312 311 
613 312 330 313 
614 313 330 331 
615 313 331 332 
616 332 314 313 
617 314 332 315 
618 315 332 333 
619 315 333 334 
620 334 316 315 
621 316 334 317 
622 317 334 335 
623 317 335 336 
624 336 318 317 
625 318 336 319 
626 319 336 337 
627 319 337 338 
628 338 320 319 
629 320 338 321 
630 321 338 339 
631 321 339 340 
632 340 322 321 
633 322 340 323 
634 323 340 341 
635 323 341 342 
636 342 324 323 
637 324 342 325 
638 325 342 343 
639 325 343 344 
640 344 326 325 
641 326 344 327 
642 327 344 345 
643 327 345 346 
644 346 328 327 
645 328 346 45 
646 45 346 44 
647 19 20 347 
648 347 329 19 
649 329 347 330 
650 330 347 348 
651 330 348 349 
652 349 331 330 
653 331 349 332 
654 332 349 350 
655 332 350 351 
656 351 333 332 
657 333 351 334 
658 334 351 352 
659 334 352 353 
660 353 335 334 
661 335 353 336 
662 336 353 354 
663 336 354 355 
664 355 337 336 
665 337 355 338 
666 338 355 356 
667 338 356 357 
668 357 339 338 
669 339 357 340 
670 340 357 358 
671 340 358 359 
672 359 341 340 
673 341 359 342 
674 342 359 360 
675 342 360 361 
676 361 343 342 
677 343 361 344 
678 344 361 362 
679 344 362 363 
680 363 345 344 
681 345 363 346 
682 346 363 364 
683 346 364 43 
684 43 44 346 
685 20 21 347 
686 347 21 365 
687 347 365 366 
688 366 348 347 
689 348 366 349 
690 349 366 367 
691 349 367 368 
692 368 350 349 
693 350 368 351 
694 351 368 369 
695 351 369 370 
696 370 352 351 
697 352 370 353 
698 353 370 371 
699 353 371 372 
700 372 354 353 
701 354 372 355 
702 355 372 373 
703 355 373 374 
704 374 356 355 
705 356 374 357 
706 357 374 375 
707 357 375 376 
708 376 358 357 
709 358 376 359 
710 359 376 377 
711 359 377 378 
712 378 360 359 
713 360 378 361 
714 361 378 379 
715 361 379 380 
716 380 362 361 
717 362 380 363 
718 363 380 381 
719 363 381 382 
720 382 364 363 
721 364 382 43 
722 43 382 42 
723 21 22 383 
724 383 365 21 
725 365 383 366 
726 366 383 384 
727 366 384 385 
728 385 367 366 
729 367 385 368 
730 368 385 386 
731 368 386 387 
732 387 369 368 
733 369 387 370 
734 370 387 388 
735 370 388 389 
736 389 371 370 
737 371 389 372 
738 372 389 390 
739 372 390 391 
740 391 373 372 
741 373 391 374 
742 374 391 392 
743 374 392 393 
744 393 375 374 
745 375 393 376 
746 376 393 394 
747 376 394 395 
748 395 377 376 
749 377 395 378 
750 378 395 396 
751 378 396 397 
752 397 379 378 
753 379 397 380 
754 380 397 398 
755 380 398 399 
756 399 381 380 
757 381 399 382 
758 382 399 400 
759 382 400 41 
760 41 42 382 
761 22 2 383 
762 383 2 23 
763 383 23 24 
764 24 384 383 
765 384 24 385 
766 385 24 25 
767 385 25 26 
768 26 386 385 
769 386 26 387 
770 387 26 27 
771 387 27 28 
772 28 388 387 
773 388 28 389 
774 389 28 29 
775 389 29 30 
776 30 390 389 
777 390 30 391 
778 391 30 31 
779 391 31 32 
780 32 392 391 
781 392 32 393 
782 393 32 33 
783 393 33 34 
784 34 394 393 
785 394 34 395 
786 395 34 35 
787 395 35 36 
788 36 396 395 
789 396 36 397 
790 397 36 37 
791 397 37 38 
792 38 398 397 
793 398 38 399 
794 399 38 39 
795 399 39 40 
796 40 400 399 
797 400 40 41 
798 41 40 3 
$EndElements
