$MeshFormat
4.1 0 8
$EndMeshFormat
$PhysicalNames
6
0 4 "A"
1 1 "Γ¹"
1 2 "Γ²"
1 3 "Γ³"
1 6 "Γ"
2 5 "Ω"
$EndPhysicalNames
$Entities
7 10 3 0
1 0 0 0 1 4 
2 0.5 0 0 0 
3 1 0 0 0 
4 0.7071067811865475 0.7071067811865475 0 0 
5 0 1 0 0 
6 0 0.5 0 0 
7 0.4 0.4 0 0 
1 0 0 0 0.5 0 0 1 2 2 1 -2 
2 0.5 0 0 1 0 0 1 2 2 2 -3 
3 0.7071067811865476 0 0 1 0.7071067811865475 0 1 1 2 3 -4 
4 1.110223024625157e-16 0.7071067811865476 0 0.7071067811865476 1 0 1 1 2 4 -5 
5 0 0.5 0 0 1 0 1 3 2 5 -6 
6 0 0 0 0 0.5 0 1 3 2 6 -1 
7 0.4 0 0 0.5 0.4 0 0 2 7 -2 
8 0 0.4 0 0.4 0.5 0 0 2 7 -6 
9 0.4 0.4 0 0.7071067811865475 0.7071067811865475 0 0 2 7 -4 
10 0 0 0 0.5 0.5 0 1 6 0 
1 0 0 0 0.5 0.5 0 1 5 4 1 -7 8 6 
2 0.4 0 0 1 0.7071067811865475 0 1 5 4 2 3 -9 7 
3 0 0.4 0 0.7071067811865476 1 0 1 5 4 9 4 5 -8 
$EndEntities
$Nodes
20 721 1 721
0 1 0 1
1
0 0 0
0 2 0 1
2
0.5 0 0
0 3 0 1
3
1 0 0
0 4 0 1
4
0.7071067811865475 0.7071067811865475 0
0 5 0 1
5
0 1 0
0 6 0 1
6
0 0.5 0
0 7 0 1
7
0.4 0.4 0
1 1 0 14
8
9
10
11
12
13
14
15
16
17
18
19
20
21
0.03333333333326624 0 0
0.0666666666665424 0 0
0.09999999999977845 0 0
0.1333333333330145 0 0
0.1666666666662505 0 0
0.1999999999994866 0 0
0.2333333333327226 0 0
0.2666666666660513 0 0
0.2999999999994725 0 0
0.3333333333328938 0 0
0.366666666666315 0 0
0.3999999999997362 0 0
0.4333333333331575 0 0
0.4666666666665787 0 0
1 2 0 14
22
23
24
25
26
27
28
29
30
31
32
33
34
35
0.5333333333333333 0 0
0.5666666666666667 0 0
0.6 0 0
0.6333333333333333 0 0
0.6666666666666666 0 0
0.7 0 0
0.7333333333333334 0 0
0.7666666666666666 0 0
0.8 0 0
0.8333333333333333 0 0
0.8666666666666667 0 0
0.9 0 0
0.9333333333333333 0 0
0.9666666666666667 0 0
1 3 0 14
36
37
38
39
40
41
42
43
44
45
46
47
48
49
0.9986295347486895 0.05233595635522309 0
0.9945218953409422 0.1045284635276928 0
0.9876883405292959 0.1564344654559397 0
0.9781476006166993 0.2079116913687014 0
0.9659258260993916 0.2588190458104037 0
0.9510565160208195 0.3090169952192607 0
0.9335804261352892 0.3583679504881147 0
0.9135454572269126 0.4067366440094515 0
0.8910065237743308 0.4539905005521404 0
0.866025403432818 0.5000000006090248 0
0.8386705676219024 0.5446390355132068 0
0.8090169941389678 0.5877852526172713 0
0.7771459613283612 0.6293203912086571 0
0.74314482544247 0.6691306063976455 0
1 4 0 14
50
51
52
53
54
55
56
57
58
59
60
61
62
63
0.6691306063175992 0.7431448255145441 0
0.6293203908708045 0.7771459616019489 0
0.5877852519231126 0.8090169946433037 0
0.5446390344678349 0.8386705683007749 0
0.4999999992533537 0.8660254042155151 0
0.4539904988195286 0.8910065246571407 0
0.4067366419946896 0.9135454581239424 0
0.3583679484686948 0.9335804269104719 0
0.3090169933522966 0.951056516627433 0
0.2588190443200888 0.9659258264987203 0
0.2079116901539207 0.9781476008749089 0
0.1564344645215507 0.9876883406772887 0
0.1045284629952342 0.9945218953969058 0
0.05233595614501524 0.9986295347597063 0
1 5 0 14
64
65
66
67
68
69
70
71
72
73
74
75
76
77
0 0.9666666666666667 0
0 0.9333333333333333 0
0 0.9 0
0 0.8666666666666667 0
0 0.8333333333333334 0
0 0.8 0
0 0.7666666666666666 0
0 0.7333333333333334 0
0 0.7 0
0 0.6666666666666667 0
0 0.6333333333333333 0
0 0.6 0
0 0.5666666666666667 0
0 0.5333333333333333 0
1 6 0 14
78
79
80
81
82
83
84
85
86
87
88
89
90
91
0 0.4666666666665279 0
0 0.433333333333102 0
0 0.4 0
0 0.366666666666898 0
0 0.3333333333337959 0
0 0.3000000000006937 0
0 0.2666666666675916 0
0 0.2333333333343045 0
0 0.2000000000008325 0
0 0.1666666666673604 0
0 0.1333333333338882 0
0 0.1000000000004162 0
0 0.06666666666694415 0
0 0.03333333333347199 0
1 7 0 14
92
93
94
95
96
97
98
99
100
101
102
103
104
105
0.4066666666666485 0.3733333333334063 0
0.4133333333332962 0.3466666666668151 0
0.419999999999944 0.3200000000002239 0
0.4266666666665919 0.2933333333336327 0
0.4333333333332396 0.2666666666670416 0
0.4399999999998899 0.2400000000004403 0
0.4466666666665401 0.2133333333338396 0
0.4533333333332071 0.1866666666671716 0
0.4599999999998922 0.1600000000004311 0
0.4666666666665759 0.1333333333336964 0
0.4733333333332617 0.1066666666669531 0
0.479999999999946 0.08000000000021584 0
0.4866666666666307 0.05333333333347701 0
0.4933333333333141 0.02666666666674378 0
1 8 0 14
106
107
108
109
110
111
112
113
114
115
116
117
118
119
0.3733333333334063 0.4066666666666485 0
0.3466666666668151 0.4133333333332962 0
0.3200000000002239 0.419999999999944 0
0.2933333333336327 0.4266666666665919 0
0.2666666666670416 0.4333333333332396 0
0.2400000000004403 0.4399999999998899 0
0.2133333333338396 0.4466666666665401 0
0.1866666666671716 0.4533333333332071 0
0.1600000000004311 0.4599999999998922 0
0.1333333333336964 0.4666666666665759 0
0.1066666666669531 0.4733333333332617 0
0.08000000000021584 0.479999999999946 0
0.05333333333347701 0.4866666666666307 0
0.02666666666674378 0.4933333333333141 0
1 9 0 14
120
121
122
123
124
125
126
127
128
129
130
131
132
133
0.4204737854122811 0.4204737854122811 0
0.4409475708246814 0.4409475708246814 0
0.4614213562370817 0.4614213562370817 0
0.4818951416494821 0.4818951416494821 0
0.5023689270618572 0.5023689270618572 0
0.5228427124740725 0.5228427124740725 0
0.5433164978862878 0.5433164978862878 0
0.5637902832985031 0.5637902832985031 0
0.584264068711035 0.584264068711035 0
0.6047378541236205 0.6047378541236205 0
0.6252116395362058 0.6252116395362058 0
0.6456854249487912 0.6456854249487912 0
0.6661592103613767 0.6661592103613767 0
0.6866329957739621 0.6866329957739621 0
1 10 0 0
2 1 0 196
134
135
136
137
138
139
140
141
142
143
144
145
146
147
148
149
150
151
152
153
154
155
156
157
158
159
160
161
162
163
164
165
166
167
168
169
170
171
172
173
174
175
176
177
178
179
180
181
182
183
184
185
186
187
188
189
190
191
192
193
194
195
196
197
198
199
200
201
202
203
204
205
206
207
208
209
210
211
212
213
214
215
216
217
218
219
220
221
222
223
224
225
226
227
228
229
230
231
232
233
234
235
236
237
238
239
240
241
242
243
244
245
246
247
248
249
250
251
252
253
254
255
256
257
258
259
260
261
262
263
264
265
266
267
268
269
270
271
272
273
274
275
276
277
278
279
280
281
282
283
284
285
286
287
288
289
290
291
292
293
294
295
296
297
298
299
300
301
302
303
304
305
306
307
308
309
310
311
312
313
314
315
316
317
318
319
320
321
322
323
324
325
326
327
328
329
0.03288888888883014 0.03288888888902217 0
0.03244444444439418 0.06577777777804379 0
0.03199999999995815 0.09866666666706565 0
0.03155555555552213 0.1315555555560874 0
0.03111111111108604 0.1644444444451096 0
0.03066666666665007 0.1973333333341313 0
0.03022222222221401 0.2302222222231533 0
0.02977777777777916 0.2631111111119979 0
0.02933333333334542 0.2960000000006653 0
0.02888888888891168 0.3288888888893329 0
0.02844444444447811 0.3617777777779995 0
0.02800000000004454 0.3946666666666663 0
0.02755555555561097 0.4275555555553329 0
0.02711111111117739 0.4604444444443018 0
0.06577777777766881 0.03244444444457249 0
0.06488888888879557 0.06488888888914372 0
0.06399999999992215 0.09733333333371563 0
0.06311111111104874 0.1297777777782873 0
0.06222222222217516 0.1622222222228599 0
0.06133333333330188 0.1946666666674312 0
0.06044444444442839 0.2271111111120034 0
0.05955555555555732 0.2595555555564055 0
0.0586666666666885 0.2920000000006382 0
0.05777777777781965 0.3244444444448714 0
0.05688888888895113 0.3568888888891029 0
0.05600000000008262 0.3893333333333344 0
0.0551111111112141 0.4217777777775659 0
0.0542222222223456 0.4542222222220782 0
0.09866666666647042 0.03200000000012275 0
0.09733333333316289 0.06400000000024351 0
0.09599999999985515 0.09600000000036535 0
0.09466666666654744 0.1280000000004868 0
0.09333333333323945 0.1600000000006096 0
0.09199999999993186 0.1920000000007306 0
0.090666666666624 0.2240000000008527 0
0.08933333333331976 0.2560000000008124 0
0.08800000000001887 0.2880000000006108 0
0.08666666666671798 0.320000000000409 0
0.08533333333341757 0.3520000000002054 0
0.08400000000011718 0.3840000000000017 0
0.08266666666681678 0.4159999999997979 0
0.08133333333351639 0.4479999999998532 0
0.1315555555552719 0.03155555555567304 0
0.1297777777775301 0.06311111111134335 0
0.1279999999997878 0.09466666666701512 0
0.1262222222220457 0.1262222222226864 0
0.1244444444443031 0.1577777777783594 0
0.1226666666665612 0.1893333333340302 0
0.1208888888888188 0.2208888888897023 0
0.1191111111110813 0.2524444444452195 0
0.1173333333333483 0.2840000000005832 0
0.1155555555556152 0.3155555555559469 0
0.1137777777778828 0.3471111111113081 0
0.1120000000001505 0.378666666666669 0
0.110222222222418 0.41022222222203 0
0.1084444444446856 0.4417777777776286 0
0.1644444444440738 0.0311111111112232 0
0.162222222221898 0.06222222222244299 0
0.1599999999997217 0.09333333333366461 0
0.1577777777775456 0.1244444444448856 0
0.1555555555553689 0.1555555555561088 0
0.153333333333193 0.1866666666673291 0
0.1511111111110165 0.2177777777785512 0
0.1488888888888462 0.2488888888896258 0
0.1466666666666813 0.2800000000005547 0
0.1444444444445165 0.311111111111484 0
0.1422222222223526 0.3422222222224096 0
0.1400000000001886 0.3733333333333353 0
0.1377777777780246 0.404444444444261 0
0.1355555555558606 0.4355555555554026 0
0.1973333333328751 0.03066666666677352 0
0.1946666666662647 0.06133333333354292 0
0.1919999999996539 0.09200000000031451 0
0.1893333333330431 0.1226666666670855 0
0.1866666666664318 0.1533333333338588 0
0.1839999999998213 0.1840000000006288 0
0.1813333333332102 0.214666666667401 0
0.1786666666666064 0.2453333333340333 0
0.1760000000000093 0.2760000000005277 0
0.1733333333334121 0.3066666666670222 0
0.170666666666816 0.3373333333335128 0
0.1680000000002198 0.3680000000000033 0
0.1653333333336236 0.3986666666664938 0
0.1626666666670275 0.4293333333331786 0
0.2302222222216768 0.03022222222232375 0
0.2271111111106324 0.06044444444464266 0
0.2239999999995872 0.09066666666696413 0
0.2208888888885422 0.1208888888892849 0
0.2177777777774966 0.1511111111116085 0
0.2146666666664519 0.181333333333928 0
0.2115555555554065 0.2115555555562502 0
0.2084444444443697 0.24177777777844 0
0.2053333333333406 0.2720000000004997 0
0.2022222222223116 0.3022222222225598 0
0.1991111111112836 0.332444444444615 0
0.1960000000002557 0.3626666666666702 0
0.1928888888892278 0.3928888888887253 0
0.1897777777781998 0.4231111111109533 0
0.2631111111105602 0.02977777777787517 0
0.2595555555550705 0.05955555555574479 0
0.2559999999995801 0.08933333333361737 0
0.25244444444409 0.1191111111114891 0
0.2488888888885989 0.1488888888893641 0
0.2453333333331091 0.1786666666672344 0
0.2417777777776185 0.2084444444451079 0
0.2382222222221375 0.2382222222228563 0
0.2346666666666656 0.2680000000004825 0
0.2311111111111935 0.2977777777781092 0
0.2275555555557228 0.3275555555557303 0
0.2240000000002521 0.3573333333333515 0
0.2204444444447813 0.3871111111109726 0
0.2168888888893106 0.4168888888887449 0
0.2959999999995255 0.02933333333342772 0
0.29199999999958 0.05866666666684919 0
0.2879999999996337 0.08800000000027397 0
0.2839999999996876 0.1173333333336978 0
0.2799999999997406 0.1466666666671252 0
0.275999999999795 0.1760000000005476 0
0.2719999999998484 0.2053333333339734 0
0.2679999999999127 0.2346666666672817 0
0.2639999999999871 0.2640000000004755 0
0.2600000000000615 0.2933333333336698 0
0.2560000000001373 0.3226666666668582 0
0.2520000000002131 0.3520000000000463 0
0.248000000000289 0.3813333333332344 0
0.2440000000003648 0.4106666666665522 0
0.3288888888884908 0.02888888888898027 0
0.3244444444440896 0.05777777777795357 0
0.3199999999996874 0.08666666666693057 0
0.3155555555552854 0.1155555555559065 0
0.3111111111108826 0.1444444444448865 0
0.306666666666481 0.1733333333338608 0
0.3022222222220786 0.2022222222228388 0
0.2977777777776882 0.231111111111707 0
0.2933333333333091 0.2600000000004685 0
0.2888888888889299 0.2888888888892306 0
0.2844444444445524 0.3177777777779857 0
0.2800000000001747 0.3466666666667409 0
0.2755555555557971 0.3755555555554962 0
0.2711111111114196 0.4044444444443593 0
0.3617777777774554 0.02844444444453299 0
0.3568888888885975 0.05688888888905826 0
0.351999999999739 0.08533333333358761 0
0.3471111111108804 0.1137777777781158 0
0.342222222222021 0.1422222222226485 0
0.3373333333331631 0.1706666666671749 0
0.3324444444443041 0.1991111111117054 0
0.3275555555554583 0.2275555555561335 0
0.3226666666666249 0.256000000000463 0
0.3177777777777914 0.2844444444447928 0
0.3128888888889597 0.3128888888891151 0
0.3080000000001281 0.3413333333334376 0
0.3031111111112964 0.3697777777777601 0
0.298222222222465 0.398222222222169 0
0.3946666666664201 0.02800000000008569 0
0.3893333333331058 0.05600000000016297 0
0.3839999999997905 0.08400000000024468 0
0.3786666666664756 0.1120000000003252 0
0.3733333333331595 0.1400000000004105 0
0.367999999999845 0.168000000000489 0
0.3626666666665296 0.1960000000005721 0
0.3573333333332284 0.2240000000005601 0
0.3519999999999407 0.2520000000004574 0
0.3466666666666531 0.2800000000003551 0
0.3413333333333673 0.3080000000002447 0
0.3360000000000815 0.3360000000001344 0
0.3306666666667957 0.3640000000000239 0
0.3253333333335102 0.3919999999999784 0
0.4275555555553847 0.0275555555556384 0
0.421777777777614 0.05511111111126767 0
0.4159999999998423 0.08266666666690178 0
0.4102222222220708 0.1102222222225345 0
0.4044444444442981 0.1377777777781725 0
0.3986666666665271 0.1653333333338031 0
0.3928888888887551 0.1928888888894387 0
0.3871111111109986 0.2204444444449868 0
0.3813333333332566 0.2480000000004518 0
0.3755555555555147 0.2755555555559174 0
0.3697777777777749 0.3031111111113742 0
0.364000000000035 0.330666666666831 0
0.3582222222222952 0.3582222222222878 0
0.3524444444445556 0.3857777777777879 0
0.4604444444443492 0.02711111111119111 0
0.4542222222221223 0.05422222222237238 0
0.4479999999998938 0.0813333333335589 0
0.4417777777776659 0.1084444444447439 0
0.4355555555554366 0.1355555555559346 0
0.4293333333332091 0.1626666666671172 0
0.4231111111109804 0.1897777777783053 0
0.4168888888887686 0.2168888888894133 0
0.4106666666665725 0.2440000000004463 0
0.4044444444443763 0.2711111111114797 0
0.3982222222221825 0.2982222222225037 0
0.3919999999999886 0.3253333333335277 0
0.3857777777777947 0.3524444444445518 0
0.3795555555556008 0.3795555555555974 0
2 2 0 196
330
331
332
333
334
335
336
337
338
339
340
341
342
343
344
345
346
347
348
349
350
351
352
353
354
355
356
357
358
359
360
361
362
363
364
365
366
367
368
369
370
371
372
373
374
375
376
377
378
379
380
381
382
383
384
385
386
387
388
389
390
391
392
393
394
395
396
397
398
399
400
401
402
403
404
405
406
407
408
409
410
411
412
413
414
415
416
417
418
419
420
421
422
423
424
425
426
427
428
429
430
431
432
433
434
435
436
437
438
439
440
441
442
443
444
445
446
447
448
449
450
451
452
453
454
455
456
457
458
459
460
461
462
463
464
465
466
467
468
469
470
471
472
473
474
475
476
477
478
479
480
481
482
483
484
485
486
487
488
489
490
491
492
493
494
495
496
497
498
499
500
501
502
503
504
505
506
507
508
509
510
511
512
513
514
515
516
517
518
519
520
521
522
523
524
525
0.5270197467609909 0.02837795264596414 0
0.520523681911556 0.05674634201306825 0
0.5138458893685273 0.08509563103056277 0
0.5069876178187693 0.1134163349803569 0
0.4999506106286967 0.1416990474987529 0
0.4927371010678755 0.1699344663482847 0
0.4853498061865902 0.1981134189218219 0
0.4777919193704654 0.2262268873787905 0
0.4700671015847435 0.2542660333704532 0
0.4621794713397601 0.2822222222630634 0
0.4541335933968192 0.3100870468121509 0
0.4459344662757442 0.337852350174564 0
0.4375875085328251 0.3655102483027992 0
0.4290985439182208 0.3930531515375416 0
0.560706160188679 0.0300892386251934 0
0.5543806971565035 0.06015935069267726 0
0.5476917787371409 0.09019126206093632 0
0.540641902304319 0.1201660032937961 0
0.5332345545908688 0.1500647616638535 0
0.5254742021359191 0.1798689326961908 0
0.5173662790400415 0.209560171176533 0
0.5089171720744672 0.2391204414238104 0
0.5001342031696808 0.2685320667405433 0
0.4910256093463712 0.29777777785917 0
0.4816005201271439 0.3268407602907611 0
0.471868932551648 0.3557047003490038 0
0.4618416837324631 0.3843538299388897 0
0.4515304211699077 0.4127729697417899 0
0.5943925736163675 0.03180052460442265 0
0.588237712401451 0.06357235937228624 0
0.5815376681057542 0.09528689309130985 0
0.5742961867898689 0.1269156716072353 0
0.566518498553041 0.1584304758289539 0
0.5582113032039627 0.1898033990440968 0
0.5493827518934928 0.2210069234312441 0
0.5400424247784689 0.2520139954688302 0
0.5302013047546182 0.2827981001106334 0
0.5198717473529822 0.3133333334552764 0
0.5090674468574682 0.3435944737693714 0
0.4978033988275514 0.3735570505234433 0
0.486095858932101 0.4031974115749804 0
0.4739622984215944 0.4324927879460383 0
0.6280789870440557 0.03351181058365193 0
0.6220947276463983 0.06698536805189524 0
0.6153835574743679 0.1003825241216834 0
0.6079504712754189 0.1336653399206744 0
0.5998024425152131 0.1667961899940544 0
0.5909484042720065 0.1997378653920029 0
0.5813992247469443 0.2324536756859553 0
0.5711676774824705 0.26490754951385 0
0.5602684063395557 0.2970641334807234 0
0.5487178853595932 0.328888889051383 0
0.536534373587793 0.3603481872479818 0
0.5237378651034551 0.3914094006978832 0
0.510350034131739 0.4220409932110709 0
0.4963941756732811 0.4522126061502867 0
0.6617654004717416 0.0352230965628793 0
0.6559517428913409 0.07039837673150048 0
0.6492294468429748 0.1054781551520513 0
0.6416047557609595 0.1404150082341062 0
0.6330863864773745 0.1751619041591456 0
0.6236855053400373 0.2096723317398979 0
0.6134156976003812 0.2439004279406534 0
0.6022929301864562 0.2778011035588554 0
0.5903355079244753 0.3113301668507971 0
0.577564023366185 0.3444444446474716 0
0.5640013003180969 0.3771019007265725 0
0.5496723313793369 0.4092617508723017 0
0.5346042093313539 0.4408845748471389 0
0.5188260529249437 0.4719324243545111 0
0.6954518138994125 0.03693438254209477 0
0.6898087581362542 0.07381138541108197 0
0.6830753362115383 0.1105737861823836 0
0.6752590402464441 0.1471646765474906 0
0.6663703304394671 0.1835276183241779 0
0.6564226064079879 0.2196067980877226 0
0.6454321704537264 0.2553471801952703 0
0.6334181828903399 0.2906946576037682 0
0.6204026095092829 0.3255962002207678 0
0.6064101613726558 0.3600000002434467 0
0.5914682270482711 0.3938556142050398 0
0.5756067976550804 0.4271141010465873 0
0.5588583845308227 0.4597281564830646 0
0.5412579301764532 0.4916522425585843 0
0.7291382273270834 0.03864566852131022 0
0.7236657733811679 0.07722439409066341 0
0.7169212255801019 0.1156694172127159 0
0.7089133247319291 0.153914344860875 0
0.69965427440156 0.1918933324892103 0
0.6891597074759385 0.2295412644355474 0
0.677448643307072 0.266793932449887 0
0.664543435594223 0.3035882116486812 0
0.6504697110940906 0.3398622335907385 0
0.6352562993791263 0.3755555558394219 0
0.6189351537784448 0.4106093276835072 0
0.6015412639308236 0.4449664512208727 0
0.5831125597302916 0.47857173811899 0
0.5636898074279625 0.5113720607626572 0
0.7628246407547544 0.0403569545005257 0
0.757522788626081 0.08063740277024485 0
0.7507671149486653 0.1207650482430482 0
0.7425676092174135 0.1606640131742595 0
0.7329382183636526 0.2002590466542427 0
0.7218968085438889 0.2394757307833721 0
0.7094651161604175 0.2782406847045038 0
0.6956686882981068 0.3164817656935942 0
0.6805368126788983 0.354128266960709 0
0.6641024373855969 0.3911111114353971 0
0.6464020805086187 0.4273630411619746 0
0.6274757302065673 0.4628188013951582 0
0.6073667349297607 0.4974153197549155 0
0.5861216846794721 0.5310918789667305 0
0.7965110541824553 0.04206824047976475 0
0.7913798038710529 0.08405041144987345 0
0.7846130043173146 0.1258606792734511 0
0.7762218937030096 0.1674136814877376 0
0.7662221623258815 0.2086247608193916 0
0.7546339096119988 0.2494101971313361 0
0.7414815890139443 0.289687436959282 0
0.7267939410021926 0.3293753197386901 0
0.7106039142639277 0.3683943003308838 0
0.692948575392308 0.406666667031597 0
0.6738690072390506 0.4441167546406865 0
0.6534101964825847 0.4806711515697076 0
0.6316209101295188 0.5162589013911235 0
0.6085535619312851 0.5508116971711032 0
0.8301974676101607 0.0437795264590078 0
0.8252368191160345 0.08746342012951001 0
0.8184588936859782 0.1309563103038658 0
0.8098761781886243 0.1741633498012316 0
0.799506106288133 0.2169904749845603 0
0.7873710106801356 0.2593446634793234 0
0.7734980618675017 0.3011341892140875 0
0.7579191937063127 0.3422688737838168 0
0.740671015848995 0.3826603337010933 0
0.7217947133990598 0.422222222627835 0
0.7013359339695259 0.4608704681194398 0
0.6793446627586485 0.4985235017443017 0
0.6558750853293257 0.5351024830273791 0
0.6309854391831491 0.5705315153755269 0
0.8638838810378665 0.04549081243825086 0
0.8590938343610162 0.09087642880914658 0
0.8523047830546417 0.1360519413342806 0
0.8435304626742396 0.1809130181147255 0
0.8327900502503848 0.225356189149729 0
0.8201081117482726 0.2692791298273109 0
0.8055145347210591 0.3125809414688929 0
0.7890444464104326 0.3551624278289438 0
0.7707381174340622 0.3969263670713026 0
0.7506408514058113 0.4377777782240729 0
0.7288028607000011 0.4776241815981931 0
0.7052791290347123 0.5163758519188953 0
0.680129260529133 0.5539460646636348 0
0.6534173164350132 0.5902513335799506 0
0.8975702944655723 0.04720209841749392 0
0.8929508496059975 0.09428943748878311 0
0.886150672423305 0.1411475723646954 0
0.8771847471598546 0.1876626864282195 0
0.8660739942126364 0.2337219033148976 0
0.8528452128164091 0.2792135961752982 0
0.8375310075746166 0.3240276937236983 0
0.8201696991145526 0.3680559818740707 0
0.8008052190191293 0.4111924004415121 0
0.7794869894125629 0.4533333338203108 0
0.756269787430476 0.4943778950769465 0
0.7312135953107761 0.5342282020934893 0
0.7043834357289399 0.57278964629989 0
0.6758491936868772 0.6099711517843743 0
0.931256707893278 0.04891338439673698 0
0.926807864850979 0.09770244616841969 0
0.9199965617919686 0.1462432033951101 0
0.9108390316454695 0.1944123547417135 0
0.899357938174888 0.2420876174800663 0
0.8855823138845458 0.2891480625232857 0
0.8695474804281741 0.3354744459785037 0
0.8512949518186727 0.3809495359191977 0
0.8308723206041965 0.4254584338117215 0
0.8083331274193145 0.4688888894165489 0
0.7837367141609516 0.5111316085556999 0
0.75714806158684 0.5520805522680833 0
0.7286376109287467 0.5916332279361456 0
0.6982810709387413 0.6296909699887979 0
0.9649431213209836 0.05062467037598002 0
0.9606648800959602 0.1011154548480562 0
0.9538424511606322 0.1513388344255249 0
0.9444933161310843 0.2011620230552073 0
0.9326418821371398 0.2504533316452349 0
0.9183194149526828 0.2990825288712732 0
0.9015639532817319 0.3469211982333091 0
0.8824202045227924 0.3938430899643245 0
0.8609394221892634 0.4397244671819308 0
0.837179265426066 0.4844444450127868 0
0.811203640891427 0.5278853220344533 0
0.7830825278629036 0.5699329024426772 0
0.752891786128554 0.6104768095724012 0
0.7207129481906055 0.6494107881932217 0
2 3 0 196
526
527
528
529
530
531
532
533
534
535
536
537
538
539
540
541
542
543
544
545
546
547
548
549
550
551
552
553
554
555
556
557
558
559
560
561
562
563
564
565
566
567
568
569
570
571
572
573
574
575
576
577
578
579
580
581
582
583
584
585
586
587
588
589
590
591
592
593
594
595
596
597
598
599
600
601
602
603
604
605
606
607
608
609
610
611
612
613
614
615
616
617
618
619
620
621
622
623
624
625
626
627
628
629
630
631
632
633
634
635
636
637
638
639
640
641
642
643
644
645
646
647
648
649
650
651
652
653
654
655
656
657
658
659
660
661
662
663
664
665
666
667
668
669
670
671
672
673
674
675
676
677
678
679
680
681
682
683
684
685
686
687
688
689
690
691
692
693
694
695
696
697
698
699
700
701
702
703
704
705
706
707
708
709
710
711
712
713
714
715
716
717
718
719
720
721
0.3930531515322053 0.4290985439230258 0
0.3655102482802758 0.4375875085510644 0
0.337852350128287 0.4459344663093668 0
0.3100870467424593 0.4541335934420776 0
0.2822222221726854 0.46217947139194 0
0.254266033254946 0.4700671016435978 0
0.2262268872444731 0.4777919194302675 0
0.198113418787194 0.4853498062382691 0
0.1699344662238205 0.4927371011083167 0
0.1416990473993986 0.4999506106553187 0
0.1134163348993716 0.5069876178359835 0
0.08509563096827023 0.5138458893783935 0
0.05674634197757102 0.5205236819152872 0
0.0283779526319503 0.5270197467617255 0
0.4127729697311172 0.4515304211795176 0
0.3843538298938429 0.4618416837689416 0
0.3557047002564494 0.4718689326188929 0
0.3268407601513782 0.4816005202176603 0
0.2977777776784139 0.4910256094507309 0
0.2685320665095284 0.500134203287389 0
0.2391204411551755 0.5089171721940713 0
0.2095601709072771 0.5173662791433995 0
0.1798689324472623 0.5254742022168013 0
0.1500647614651448 0.5332345546441128 0
0.1201660031318254 0.5406419023387473 0
0.09019126193635116 0.5476917787568735 0
0.06015935062168279 0.5543806971639655 0
0.0300892385971657 0.5607061601901484 0
0.4324927879300292 0.4739622984360093 0
0.4031974115074099 0.4860958589868187 0
0.3735570503846117 0.4978033989284188 0
0.3435944735602972 0.509067446993243 0
0.3133333331841423 0.5198717475095217 0
0.2827980997641111 0.5302013049311805 0
0.2520139950658779 0.540042424957875 0
0.2210069230273602 0.5493827520485296 0
0.1898033986707041 0.5582113033252859 0
0.158430475530891 0.566518498632907 0
0.1269156713642792 0.574296186841511 0
0.09528689290443207 0.581537668135353 0
0.06357235926579455 0.5882377124126439 0
0.03180052456238109 0.5943925736185711 0
0.4522126061289412 0.496394175692501 0
0.422040993120977 0.5103500342046958 0
0.3914094005127743 0.5237378652379447 0
0.360348186969216 0.5365343737688257 0
0.3288888886898708 0.5487178855683127 0
0.2970641330186937 0.5602684065749718 0
0.2649075489765804 0.5711676777216786 0
0.2324536751474433 0.5813992249536597 0
0.1997378648941459 0.5909484044337703 0
0.1667961895966372 0.599802442621701 0
0.133665339596733 0.6079504713442747 0
0.1003825238725131 0.6153835575138329 0
0.06698536790990631 0.6220947276613222 0
0.0335118105275965 0.6280789870469937 0
0.4719324243278291 0.5188260529489684 0
0.4408845747345216 0.53460420942255 0
0.4092617506409157 0.5496723315474492 0
0.3771019003781154 0.5640013005443881 0
0.3444444441955813 0.5775640236270846 0
0.3113301662732599 0.5903355082187457 0
0.2778011028872682 0.6022929304854663 0
0.2439004272675135 0.6134156978587757 0
0.2096723311175767 0.6236855055422423 0
0.1751619036623741 0.6330863866104842 0
0.1404150078291793 0.6416047558470298 0
0.1054781548405884 0.6492294468923057 0
0.07039837655401432 0.655951742909996 0
0.03522309649281001 0.6617654004754143 0
0.4916522425265658 0.541257930205283 0
0.4597281563479236 0.5588583846402581 0
0.4271141007689239 0.5756067978568149 0
0.3938556137868912 0.5914682273198202 0
0.3599999997011785 0.6064101616857349 0
0.3255961995277231 0.6204026098624073 0
0.2906946567978636 0.6334181832491519 0
0.2553471793875024 0.6454321707637998 0
0.2196067973409371 0.6564226066506335 0
0.1835276177280521 0.6663703305991988 0
0.1471646760615784 0.6752590403497285 0
0.1105737858086281 0.6830753362707354 0
0.07381138519809856 0.6898087581586403 0
0.03693438245801163 0.6954518139038195 0
0.5113720607253026 0.5636898074615971 0
0.4785717379613256 0.5831125598579663 0
0.444966450896932 0.6015412641661804 0
0.4106093271956671 0.6189351540952521 0
0.3755555552067755 0.6352562997443851 0
0.3398622327821863 0.6504697115060689 0
0.3035882107084591 0.6645434360128374 0
0.2667939315074912 0.6774486436688241 0
0.2295412635642975 0.689159707759025 0
0.1918933317937301 0.6996542745879137 0
0.1539143442939774 0.7089133248524269 0
0.1156694167766678 0.7169212256491655 0
0.0772243938421828 0.7236657734072846 0
0.03864566842321324 0.7291382273322249 0
0.5310918789240391 0.5861216847179117 0
0.4974153195747277 0.6073667350756744 0
0.4628188010249403 0.6274757304755465 0
0.427363040604443 0.6464020808706843 0
0.3911111107123727 0.6641024378030358 0
0.3541282660366496 0.6805368131497304 0
0.3164817646190546 0.6956686887765229 0
0.27824068362748 0.7094651165738486 0
0.239475729787658 0.7218968088674161 0
0.2002590458594082 0.732938218576628 0
0.1606640125263765 0.7425676093551257 0
0.1207650477447075 0.7507671150275951 0
0.08063740248626697 0.7575227886559288 0
0.04035695438841486 0.7628246407606303 0
0.5508116971230756 0.6085535619745295 0
0.5162589011884122 0.6316209102936718 0
0.4806711511532125 0.6534101967851863 0
0.4441167540134635 0.6738690076463739 0
0.4066666662181945 0.6929485758619262 0
0.3683942992913168 0.7106039147936141 0
0.329375318529833 0.7267939415404108 0
0.2896874357476301 0.7414815894790542 0
0.2494101960111576 0.7546339099759669 0
0.2086247599252027 0.7662221625654787 0
0.1674136807588693 0.7762218938579358 0
0.1258606787128178 0.7846130044061104 0
0.08405041113039836 0.7913798039046313 0
0.04206824035364005 0.7965110541890652 0
0.5705315153221633 0.6309854392311989 0
0.535102482802144 0.655875085511718 0
0.4985235012815291 0.6793446630948725 0
0.4608704674225255 0.7013359344221076 0
0.4222222217240544 0.721794713920858 0
0.3826603325460189 0.7406710164375353 0
0.3422688724406426 0.7579191943043326 0
0.3011341878678077 0.7734980623842902 0
0.2593446622346808 0.7873710110845445 0
0.2169904739910171 0.7995061065543525 0
0.1741633489913779 0.8098761783607648 0
0.13095630968094 0.8184588937846402 0
0.08746341977453767 0.8252368191533437 0
0.04377952631886926 0.8301974676175055 0
0.5902513335212504 0.6534173164878678 0
0.5539460644158762 0.680129260729764 0
0.516375851409846 0.7052791294045587 0
0.4776241808315874 0.7288028611978411 0
0.4377777772299143 0.7506408519797892 0
0.3969263658007208 0.7707381180814565 0
0.3551624263514519 0.7890444470682543 0
0.312580939987985 0.8055145352895268 0
0.269279128458204 0.8201081121931223 0
0.2253561880568314 0.8327900505432262 0
0.1809130172238864 0.8435304628635937 0
0.1360519406490621 0.8523047831631697 0
0.09087642841867698 0.8590938344020561 0
0.04549081228409847 0.8638838810459455 0
0.6099711517203376 0.675849193744537 0
0.5727896460296085 0.7043834359478103 0
0.5342282015381625 0.731213595714245 0
0.4943778942406492 0.7562697879735746 0
0.4533333327357741 0.779486990038721 0
0.4111923990554228 0.8008052197253774 0
0.3680559802622613 0.8201696998321765 0
0.3240276921081625 0.8375310081947629 0
0.2792135946817271 0.8528452133017002 0
0.2337219021226458 0.8660739945320994 0
0.187662685456395 0.8771847473664223 0
0.1411475716171843 0.8861506725416998 0
0.09428943706281627 0.8929508496507688 0
0.04720209824932765 0.8975702944743857 0
0.629690969919425 0.6982810710012061 0
0.5916332276433405 0.7286376111658565 0
0.5520805516664793 0.7571480620239315 0
0.511131607649711 0.7837367147493081 0
0.468888888241634 0.8083331280976522 0
0.4254584323101246 0.8308723213692984 0
0.3809495341730709 0.8512949525960987 0
0.3354744442283399 0.8695474810999995 0
0.2891480609052503 0.8855823144102776 0
0.2420876161884601 0.8993579385209731 0
0.1944123536889036 0.9108390318692512 0
0.1462432025853064 0.9199965619202294 0
0.09770244570695562 0.9268078648994811 0
0.04891338421455686 0.931256707902826 0
0.6494107881185121 0.720712948257875 0
0.6104768092570725 0.7528917863839028 0
0.5699329017947959 0.7830825283336171 0
0.5278853210587731 0.8112036415250413 0
0.4844444437474938 0.8371792661565837 0
0.4397244655648266 0.8609394230132198 0
0.3938430880838802 0.8824202053600203 0
0.3469211963485174 0.9015639540052357 0
0.2990825271287735 0.9183194155188557 0
0.2504533302542744 0.9326418825098467 0
0.2011620219214122 0.9444933163720801 0
0.1513388335534286 0.953842451298759 0
0.1011154543510949 0.9606648801481932 0
0.05062467017978604 0.9649431213312663 0
$EndNodes
$Elements
11 2791 1 7027
0 1 15 1
1 1 
1 1 1 15
2 1 8 
3 8 9 
4 9 10 
5 10 11 
6 11 12 
7 12 13 
8 13 14 
9 14 15 
10 15 16 
11 16 17 
12 17 18 
13 18 19 
14 19 20 
15 20 21 
16 21 2 
1 2 1 15
17 2 22 
18 22 23 
19 23 24 
20 24 25 
21 25 26 
22 26 27 
23 27 28 
24 28 29 
25 29 30 
26 30 31 
27 31 32 
28 32 33 
29 33 34 
30 34 35 
31 35 3 
1 3 1 15
32 3 36 
33 36 37 
34 37 38 
35 38 39 
36 39 40 
37 40 41 
38 41 42 
39 42 43 
40 43 44 
41 44 45 
42 45 46 
43 46 47 
44 47 48 
45 48 49 
46 49 4 
1 4 1 15
47 4 50 
48 50 51 
49 51 52 
50 52 53 
51 53 54 
52 54 55 
53 55 56 
54 56 57 
55 57 58 
56 58 59 
57 59 60 
58 60 61 
59 61 62 
60 62 63 
61 63 5 
1 5 1 15
62 5 64 
63 64 65 
64 65 66 
65 66 67 
66 67 68 
67 68 69 
68 69 70 
69 70 71 
70 71 72 
71 72 73 
72 73 74 
73 74 75 
74 75 76 
75 76 77 
76 77 6 
1 6 1 15
77 6 78 
78 78 79 
79 79 80 
80 80 81 
81 81 82 
82 82 83 
83 83 84 
84 84 85 
85 85 86 
86 86 87 
87 87 88 
88 88 89 
89 89 90 
90 90 91 
91 91 1 
1 10 1 1350
5678 1 8 
5679 8 91 
5680 91 1 
5681 91 8 
5682 8 134 
5683 134 91 
5684 91 134 
5685 134 90 
5686 90 91 
5687 90 134 
5688 134 135 
5689 135 90 
5690 90 135 
5691 135 89 
5692 89 90 
5693 89 135 
5694 135 136 
5695 136 89 
5696 89 136 
5697 136 88 
5698 88 89 
5699 88 136 
5700 136 137 
5701 137 88 
5702 88 137 
5703 137 87 
5704 87 88 
5705 87 137 
5706 137 138 
5707 138 87 
5708 87 138 
5709 138 86 
5710 86 87 
5711 86 138 
5712 138 139 
5713 139 86 
5714 86 139 
5715 139 85 
5716 85 86 
5717 85 139 
5718 139 140 
5719 140 85 
5720 85 140 
5721 140 84 
5722 84 85 
5723 84 140 
5724 140 141 
5725 141 84 
5726 84 141 
5727 141 83 
5728 83 84 
5729 83 141 
5730 141 142 
5731 142 83 
5732 83 142 
5733 142 82 
5734 82 83 
5735 82 142 
5736 142 143 
5737 143 82 
5738 82 143 
5739 143 81 
5740 81 82 
5741 81 143 
5742 143 144 
5743 144 81 
5744 81 144 
5745 144 80 
5746 80 81 
5747 80 144 
5748 144 145 
5749 145 80 
5750 80 145 
5751 145 79 
5752 79 80 
5753 79 145 
5754 145 146 
5755 146 79 
5756 79 146 
5757 146 78 
5758 78 79 
5759 78 146 
5760 146 147 
5761 147 78 
5762 78 147 
5763 147 6 
5764 6 78 
5765 6 147 
5766 147 119 
5767 119 6 
5768 8 9 
5769 9 134 
5770 134 8 
5771 134 9 
5772 9 148 
5773 148 134 
5774 134 148 
5775 148 135 
5776 135 134 
5777 135 148 
5778 148 149 
5779 149 135 
5780 135 149 
5781 149 136 
5782 136 135 
5783 136 149 
5784 149 150 
5785 150 136 
5786 136 150 
5787 150 137 
5788 137 136 
5789 137 150 
5790 150 151 
5791 151 137 
5792 137 151 
5793 151 138 
5794 138 137 
5795 138 151 
5796 151 152 
5797 152 138 
5798 138 152 
5799 152 139 
5800 139 138 
5801 139 152 
5802 152 153 
5803 153 139 
5804 139 153 
5805 153 140 
5806 140 139 
5807 140 153 
5808 153 154 
5809 154 140 
5810 140 154 
5811 154 141 
5812 141 140 
5813 141 154 
5814 154 155 
5815 155 141 
5816 141 155 
5817 155 142 
5818 142 141 
5819 142 155 
5820 155 156 
5821 156 142 
5822 142 156 
5823 156 143 
5824 143 142 
5825 143 156 
5826 156 157 
5827 157 143 
5828 143 157 
5829 157 144 
5830 144 143 
5831 144 157 
5832 157 158 
5833 158 144 
5834 144 158 
5835 158 145 
5836 145 144 
5837 145 158 
5838 158 159 
5839 159 145 
5840 145 159 
5841 159 146 
5842 146 145 
5843 146 159 
5844 159 160 
5845 160 146 
5846 146 160 
5847 160 147 
5848 147 146 
5849 147 160 
5850 160 161 
5851 161 147 
5852 147 161 
5853 161 119 
5854 119 147 
5855 119 161 
5856 161 118 
5857 118 119 
5858 9 10 
5859 10 148 
5860 148 9 
5861 148 10 
5862 10 162 
5863 162 148 
5864 148 162 
5865 162 149 
5866 149 148 
5867 149 162 
5868 162 163 
5869 163 149 
5870 149 163 
5871 163 150 
5872 150 149 
5873 150 163 
5874 163 164 
5875 164 150 
5876 150 164 
5877 164 151 
5878 151 150 
5879 151 164 
5880 164 165 
5881 165 151 
5882 151 165 
5883 165 152 
5884 152 151 
5885 152 165 
5886 165 166 
5887 166 152 
5888 152 166 
5889 166 153 
5890 153 152 
5891 153 166 
5892 166 167 
5893 167 153 
5894 153 167 
5895 167 154 
5896 154 153 
5897 154 167 
5898 167 168 
5899 168 154 
5900 154 168 
5901 168 155 
5902 155 154 
5903 155 168 
5904 168 169 
5905 169 155 
5906 155 169 
5907 169 156 
5908 156 155 
5909 156 169 
5910 169 170 
5911 170 156 
5912 156 170 
5913 170 157 
5914 157 156 
5915 157 170 
5916 170 171 
5917 171 157 
5918 157 171 
5919 171 158 
5920 158 157 
5921 158 171 
5922 171 172 
5923 172 158 
5924 158 172 
5925 172 159 
5926 159 158 
5927 159 172 
5928 172 173 
5929 173 159 
5930 159 173 
5931 173 160 
5932 160 159 
5933 160 173 
5934 173 174 
5935 174 160 
5936 160 174 
5937 174 161 
5938 161 160 
5939 161 174 
5940 174 175 
5941 175 161 
5942 161 175 
5943 175 118 
5944 118 161 
5945 118 175 
5946 175 117 
5947 117 118 
5948 10 11 
5949 11 162 
5950 162 10 
5951 162 11 
5952 11 176 
5953 176 162 
5954 162 176 
5955 176 163 
5956 163 162 
5957 163 176 
5958 176 177 
5959 177 163 
5960 163 177 
5961 177 164 
5962 164 163 
5963 164 177 
5964 177 178 
5965 178 164 
5966 164 178 
5967 178 165 
5968 165 164 
5969 165 178 
5970 178 179 
5971 179 165 
5972 165 179 
5973 179 166 
5974 166 165 
5975 166 179 
5976 179 180 
5977 180 166 
5978 166 180 
5979 180 167 
5980 167 166 
5981 167 180 
5982 180 181 
5983 181 167 
5984 167 181 
5985 181 168 
5986 168 167 
5987 168 181 
5988 181 182 
5989 182 168 
5990 168 182 
5991 182 169 
5992 169 168 
5993 169 182 
5994 182 183 
5995 183 169 
5996 169 183 
5997 183 170 
5998 170 169 
5999 170 183 
6000 183 184 
6001 184 170 
6002 170 184 
6003 184 171 
6004 171 170 
6005 171 184 
6006 184 185 
6007 185 171 
6008 171 185 
6009 185 172 
6010 172 171 
6011 172 185 
6012 185 186 
6013 186 172 
6014 172 186 
6015 186 173 
6016 173 172 
6017 173 186 
6018 186 187 
6019 187 173 
6020 173 187 
6021 187 174 
6022 174 173 
6023 174 187 
6024 187 188 
6025 188 174 
6026 174 188 
6027 188 175 
6028 175 174 
6029 175 188 
6030 188 189 
6031 189 175 
6032 175 189 
6033 189 117 
6034 117 175 
6035 117 189 
6036 189 116 
6037 116 117 
6038 11 12 
6039 12 176 
6040 176 11 
6041 176 12 
6042 12 190 
6043 190 176 
6044 176 190 
6045 190 177 
6046 177 176 
6047 177 190 
6048 190 191 
6049 191 177 
6050 177 191 
6051 191 178 
6052 178 177 
6053 178 191 
6054 191 192 
6055 192 178 
6056 178 192 
6057 192 179 
6058 179 178 
6059 179 192 
6060 192 193 
6061 193 179 
6062 179 193 
6063 193 180 
6064 180 179 
6065 180 193 
6066 193 194 
6067 194 180 
6068 180 194 
6069 194 181 
6070 181 180 
6071 181 194 
6072 194 195 
6073 195 181 
6074 181 195 
6075 195 182 
6076 182 181 
6077 182 195 
6078 195 196 
6079 196 182 
6080 182 196 
6081 196 183 
6082 183 182 
6083 183 196 
6084 196 197 
6085 197 183 
6086 183 197 
6087 197 184 
6088 184 183 
6089 184 197 
6090 197 198 
6091 198 184 
6092 184 198 
6093 198 185 
6094 185 184 
6095 185 198 
6096 198 199 
6097 199 185 
6098 185 199 
6099 199 186 
6100 186 185 
6101 186 199 
6102 199 200 
6103 200 186 
6104 186 200 
6105 200 187 
6106 187 186 
6107 187 200 
6108 200 201 
6109 201 187 
6110 187 201 
6111 201 188 
6112 188 187 
6113 188 201 
6114 201 202 
6115 202 188 
6116 188 202 
6117 202 189 
6118 189 188 
6119 189 202 
6120 202 203 
6121 203 189 
6122 189 203 
6123 203 116 
6124 116 189 
6125 116 203 
6126 203 115 
6127 115 116 
6128 12 13 
6129 13 190 
6130 190 12 
6131 190 13 
6132 13 204 
6133 204 190 
6134 190 204 
6135 204 191 
6136 191 190 
6137 191 204 
6138 204 205 
6139 205 191 
6140 191 205 
6141 205 192 
6142 192 191 
6143 192 205 
6144 205 206 
6145 206 192 
6146 192 206 
6147 206 193 
6148 193 192 
6149 193 206 
6150 206 207 
6151 207 193 
6152 193 207 
6153 207 194 
6154 194 193 
6155 194 207 
6156 207 208 
6157 208 194 
6158 194 208 
6159 208 195 
6160 195 194 
6161 195 208 
6162 208 209 
6163 209 195 
6164 195 209 
6165 209 196 
6166 196 195 
6167 196 209 
6168 209 210 
6169 210 196 
6170 196 210 
6171 210 197 
6172 197 196 
6173 197 210 
6174 210 211 
6175 211 197 
6176 197 211 
6177 211 198 
6178 198 197 
6179 198 211 
6180 211 212 
6181 212 198 
6182 198 212 
6183 212 199 
6184 199 198 
6185 199 212 
6186 212 213 
6187 213 199 
6188 199 213 
6189 213 200 
6190 200 199 
6191 200 213 
6192 213 214 
6193 214 200 
6194 200 214 
6195 214 201 
6196 201 200 
6197 201 214 
6198 214 215 
6199 215 201 
6200 201 215 
6201 215 202 
6202 202 201 
6203 202 215 
6204 215 216 
6205 216 202 
6206 202 216 
6207 216 203 
6208 203 202 
6209 203 216 
6210 216 217 
6211 217 203 
6212 203 217 
6213 217 115 
6214 115 203 
6215 115 217 
6216 217 114 
6217 114 115 
6218 13 14 
6219 14 204 
6220 204 13 
6221 204 14 
6222 14 218 
6223 218 204 
6224 204 218 
6225 218 205 
6226 205 204 
6227 205 218 
6228 218 219 
6229 219 205 
6230 205 219 
6231 219 206 
6232 206 205 
6233 206 219 
6234 219 220 
6235 220 206 
6236 206 220 
6237 220 207 
6238 207 206 
6239 207 220 
6240 220 221 
6241 221 207 
6242 207 221 
6243 221 208 
6244 208 207 
6245 208 221 
6246 221 222 
6247 222 208 
6248 208 222 
6249 222 209 
6250 209 208 
6251 209 222 
6252 222 223 
6253 223 209 
6254 209 223 
6255 223 210 
6256 210 209 
6257 210 223 
6258 223 224 
6259 224 210 
6260 210 224 
6261 224 211 
6262 211 210 
6263 211 224 
6264 224 225 
6265 225 211 
6266 211 225 
6267 225 212 
6268 212 211 
6269 212 225 
6270 225 226 
6271 226 212 
6272 212 226 
6273 226 213 
6274 213 212 
6275 213 226 
6276 226 227 
6277 227 213 
6278 213 227 
6279 227 214 
6280 214 213 
6281 214 227 
6282 227 228 
6283 228 214 
6284 214 228 
6285 228 215 
6286 215 214 
6287 215 228 
6288 228 229 
6289 229 215 
6290 215 229 
6291 229 216 
6292 216 215 
6293 216 229 
6294 229 230 
6295 230 216 
6296 216 230 
6297 230 217 
6298 217 216 
6299 217 230 
6300 230 231 
6301 231 217 
6302 217 231 
6303 231 114 
6304 114 217 
6305 114 231 
6306 231 113 
6307 113 114 
6308 14 15 
6309 15 218 
6310 218 14 
6311 218 15 
6312 15 232 
6313 232 218 
6314 218 232 
6315 232 219 
6316 219 218 
6317 219 232 
6318 232 233 
6319 233 219 
6320 219 233 
6321 233 220 
6322 220 219 
6323 220 233 
6324 233 234 
6325 234 220 
6326 220 234 
6327 234 221 
6328 221 220 
6329 221 234 
6330 234 235 
6331 235 221 
6332 221 235 
6333 235 222 
6334 222 221 
6335 222 235 
6336 235 236 
6337 236 222 
6338 222 236 
6339 236 223 
6340 223 222 
6341 223 236 
6342 236 237 
6343 237 223 
6344 223 237 
6345 237 224 
6346 224 223 
6347 224 237 
6348 237 238 
6349 238 224 
6350 224 238 
6351 238 225 
6352 225 224 
6353 225 238 
6354 238 239 
6355 239 225 
6356 225 239 
6357 239 226 
6358 226 225 
6359 226 239 
6360 239 240 
6361 240 226 
6362 226 240 
6363 240 227 
6364 227 226 
6365 227 240 
6366 240 241 
6367 241 227 
6368 227 241 
6369 241 228 
6370 228 227 
6371 228 241 
6372 241 242 
6373 242 228 
6374 228 242 
6375 242 229 
6376 229 228 
6377 229 242 
6378 242 243 
6379 243 229 
6380 229 243 
6381 243 230 
6382 230 229 
6383 230 243 
6384 243 244 
6385 244 230 
6386 230 244 
6387 244 231 
6388 231 230 
6389 231 244 
6390 244 245 
6391 245 231 
6392 231 245 
6393 245 113 
6394 113 231 
6395 113 245 
6396 245 112 
6397 112 113 
6398 15 16 
6399 16 232 
6400 232 15 
6401 232 16 
6402 16 246 
6403 246 232 
6404 232 246 
6405 246 233 
6406 233 232 
6407 233 246 
6408 246 247 
6409 247 233 
6410 233 247 
6411 247 234 
6412 234 233 
6413 234 247 
6414 247 248 
6415 248 234 
6416 234 248 
6417 248 235 
6418 235 234 
6419 235 248 
6420 248 249 
6421 249 235 
6422 235 249 
6423 249 236 
6424 236 235 
6425 236 249 
6426 249 250 
6427 250 236 
6428 236 250 
6429 250 237 
6430 237 236 
6431 237 250 
6432 250 251 
6433 251 237 
6434 237 251 
6435 251 238 
6436 238 237 
6437 238 251 
6438 251 252 
6439 252 238 
6440 238 252 
6441 252 239 
6442 239 238 
6443 239 252 
6444 252 253 
6445 253 239 
6446 239 253 
6447 253 240 
6448 240 239 
6449 240 253 
6450 253 254 
6451 254 240 
6452 240 254 
6453 254 241 
6454 241 240 
6455 241 254 
6456 254 255 
6457 255 241 
6458 241 255 
6459 255 242 
6460 242 241 
6461 242 255 
6462 255 256 
6463 256 242 
6464 242 256 
6465 256 243 
6466 243 242 
6467 243 256 
6468 256 257 
6469 257 243 
6470 243 257 
6471 257 244 
6472 244 243 
6473 244 257 
6474 257 258 
6475 258 244 
6476 244 258 
6477 258 245 
6478 245 244 
6479 245 258 
6480 258 259 
6481 259 245 
6482 245 259 
6483 259 112 
6484 112 245 
6485 112 259 
6486 259 111 
6487 111 112 
6488 16 17 
6489 17 246 
6490 246 16 
6491 246 17 
6492 17 260 
6493 260 246 
6494 246 260 
6495 260 247 
6496 247 246 
6497 247 260 
6498 260 261 
6499 261 247 
6500 247 261 
6501 261 248 
6502 248 247 
6503 248 261 
6504 261 262 
6505 262 248 
6506 248 262 
6507 262 249 
6508 249 248 
6509 249 262 
6510 262 263 
6511 263 249 
6512 249 263 
6513 263 250 
6514 250 249 
6515 250 263 
6516 263 264 
6517 264 250 
6518 250 264 
6519 264 251 
6520 251 250 
6521 251 264 
6522 264 265 
6523 265 251 
6524 251 265 
6525 265 252 
6526 252 251 
6527 252 265 
6528 265 266 
6529 266 252 
6530 252 266 
6531 266 253 
6532 253 252 
6533 253 266 
6534 266 267 
6535 267 253 
6536 253 267 
6537 267 254 
6538 254 253 
6539 254 267 
6540 267 268 
6541 268 254 
6542 254 268 
6543 268 255 
6544 255 254 
6545 255 268 
6546 268 269 
6547 269 255 
6548 255 269 
6549 269 256 
6550 256 255 
6551 256 269 
6552 269 270 
6553 270 256 
6554 256 270 
6555 270 257 
6556 257 256 
6557 257 270 
6558 270 271 
6559 271 257 
6560 257 271 
6561 271 258 
6562 258 257 
6563 258 271 
6564 271 272 
6565 272 258 
6566 258 272 
6567 272 259 
6568 259 258 
6569 259 272 
6570 272 273 
6571 273 259 
6572 259 273 
6573 273 111 
6574 111 259 
6575 111 273 
6576 273 110 
6577 110 111 
6578 17 18 
6579 18 260 
6580 260 17 
6581 260 18 
6582 18 274 
6583 274 260 
6584 260 274 
6585 274 261 
6586 261 260 
6587 261 274 
6588 274 275 
6589 275 261 
6590 261 275 
6591 275 262 
6592 262 261 
6593 262 275 
6594 275 276 
6595 276 262 
6596 262 276 
6597 276 263 
6598 263 262 
6599 263 276 
6600 276 277 
6601 277 263 
6602 263 277 
6603 277 264 
6604 264 263 
6605 264 277 
6606 277 278 
6607 278 264 
6608 264 278 
6609 278 265 
6610 265 264 
6611 265 278 
6612 278 279 
6613 279 265 
6614 265 279 
6615 279 266 
6616 266 265 
6617 266 279 
6618 279 280 
6619 280 266 
6620 266 280 
6621 280 267 
6622 267 266 
6623 267 280 
6624 280 281 
6625 281 267 
6626 267 281 
6627 281 268 
6628 268 267 
6629 268 281 
6630 281 282 
6631 282 268 
6632 268 282 
6633 282 269 
6634 269 268 
6635 269 282 
6636 282 283 
6637 283 269 
6638 269 283 
6639 283 270 
6640 270 269 
6641 270 283 
6642 283 284 
6643 284 270 
6644 270 284 
6645 284 271 
6646 271 270 
6647 271 284 
6648 284 285 
6649 285 271 
6650 271 285 
6651 285 272 
6652 272 271 
6653 272 285 
6654 285 286 
6655 286 272 
6656 272 286 
6657 286 273 
6658 273 272 
6659 273 286 
6660 286 287 
6661 287 273 
6662 273 287 
6663 287 110 
6664 110 273 
6665 110 287 
6666 287 109 
6667 109 110 
6668 18 19 
6669 19 274 
6670 274 18 
6671 274 19 
6672 19 288 
6673 288 274 
6674 274 288 
6675 288 275 
6676 275 274 
6677 275 288 
6678 288 289 
6679 289 275 
6680 275 289 
6681 289 276 
6682 276 275 
6683 276 289 
6684 289 290 
6685 290 276 
6686 276 290 
6687 290 277 
6688 277 276 
6689 277 290 
6690 290 291 
6691 291 277 
6692 277 291 
6693 291 278 
6694 278 277 
6695 278 291 
6696 291 292 
6697 292 278 
6698 278 292 
6699 292 279 
6700 279 278 
6701 279 292 
6702 292 293 
6703 293 279 
6704 279 293 
6705 293 280 
6706 280 279 
6707 280 293 
6708 293 294 
6709 294 280 
6710 280 294 
6711 294 281 
6712 281 280 
6713 281 294 
6714 294 295 
6715 295 281 
6716 281 295 
6717 295 282 
6718 282 281 
6719 282 295 
6720 295 296 
6721 296 282 
6722 282 296 
6723 296 283 
6724 283 282 
6725 283 296 
6726 296 297 
6727 297 283 
6728 283 297 
6729 297 284 
6730 284 283 
6731 284 297 
6732 297 298 
6733 298 284 
6734 284 298 
6735 298 285 
6736 285 284 
6737 285 298 
6738 298 299 
6739 299 285 
6740 285 299 
6741 299 286 
6742 286 285 
6743 286 299 
6744 299 300 
6745 300 286 
6746 286 300 
6747 300 287 
6748 287 286 
6749 287 300 
6750 300 301 
6751 301 287 
6752 287 301 
6753 301 109 
6754 109 287 
6755 109 301 
6756 301 108 
6757 108 109 
6758 19 20 
6759 20 288 
6760 288 19 
6761 288 20 
6762 20 302 
6763 302 288 
6764 288 302 
6765 302 289 
6766 289 288 
6767 289 302 
6768 302 303 
6769 303 289 
6770 289 303 
6771 303 290 
6772 290 289 
6773 290 303 
6774 303 304 
6775 304 290 
6776 290 304 
6777 304 291 
6778 291 290 
6779 291 304 
6780 304 305 
6781 305 291 
6782 291 305 
6783 305 292 
6784 292 291 
6785 292 305 
6786 305 306 
6787 306 292 
6788 292 306 
6789 306 293 
6790 293 292 
6791 293 306 
6792 306 307 
6793 307 293 
6794 293 307 
6795 307 294 
6796 294 293 
6797 294 307 
6798 307 308 
6799 308 294 
6800 294 308 
6801 308 295 
6802 295 294 
6803 295 308 
6804 308 309 
6805 309 295 
6806 295 309 
6807 309 296 
6808 296 295 
6809 296 309 
6810 309 310 
6811 310 296 
6812 296 310 
6813 310 297 
6814 297 296 
6815 297 310 
6816 310 311 
6817 311 297 
6818 297 311 
6819 311 298 
6820 298 297 
6821 298 311 
6822 311 312 
6823 312 298 
6824 298 312 
6825 312 299 
6826 299 298 
6827 299 312 
6828 312 313 
6829 313 299 
6830 299 313 
6831 313 300 
6832 300 299 
6833 300 313 
6834 313 314 
6835 314 300 
6836 300 314 
6837 314 301 
6838 301 300 
6839 301 314 
6840 314 315 
6841 315 301 
6842 301 315 
6843 315 108 
6844 108 301 
6845 108 315 
6846 315 107 
6847 107 108 
6848 20 21 
6849 21 302 
6850 302 20 
6851 302 21 
6852 21 316 
6853 316 302 
6854 302 316 
6855 316 303 
6856 303 302 
6857 303 316 
6858 316 317 
6859 317 303 
6860 303 317 
6861 317 304 
6862 304 303 
6863 304 317 
6864 317 318 
6865 318 304 
6866 304 318 
6867 318 305 
6868 305 304 
6869 305 318 
6870 318 319 
6871 319 305 
6872 305 319 
6873 319 306 
6874 306 305 
6875 306 319 
6876 319 320 
6877 320 306 
6878 306 320 
6879 320 307 
6880 307 306 
6881 307 320 
6882 320 321 
6883 321 307 
6884 307 321 
6885 321 308 
6886 308 307 
6887 308 321 
6888 321 322 
6889 322 308 
6890 308 322 
6891 322 309 
6892 309 308 
6893 309 322 
6894 322 323 
6895 323 309 
6896 309 323 
6897 323 310 
6898 310 309 
6899 310 323 
6900 323 324 
6901 324 310 
6902 310 324 
6903 324 311 
6904 311 310 
6905 311 324 
6906 324 325 
6907 325 311 
6908 311 325 
6909 325 312 
6910 312 311 
6911 312 325 
6912 325 326 
6913 326 312 
6914 312 326 
6915 326 313 
6916 313 312 
6917 313 326 
6918 326 327 
6919 327 313 
6920 313 327 
6921 327 314 
6922 314 313 
6923 314 327 
6924 327 328 
6925 328 314 
6926 314 328 
6927 328 315 
6928 315 314 
6929 315 328 
6930 328 329 
6931 329 315 
6932 315 329 
6933 329 107 
6934 107 315 
6935 107 329 
6936 329 106 
6937 106 107 
6938 21 2 
6939 2 316 
6940 316 21 
6941 316 2 
6942 2 105 
6943 105 316 
6944 316 105 
6945 105 317 
6946 317 316 
6947 317 105 
6948 105 104 
6949 104 317 
6950 317 104 
6951 104 318 
6952 318 317 
6953 318 104 
6954 104 103 
6955 103 318 
6956 318 103 
6957 103 319 
6958 319 318 
6959 319 103 
6960 103 102 
6961 102 319 
6962 319 102 
6963 102 320 
6964 320 319 
6965 320 102 
6966 102 101 
6967 101 320 
6968 320 101 
6969 101 321 
6970 321 320 
6971 321 101 
6972 101 100 
6973 100 321 
6974 321 100 
6975 100 322 
6976 322 321 
6977 322 100 
6978 100 99 
6979 99 322 
6980 322 99 
6981 99 323 
6982 323 322 
6983 323 99 
6984 99 98 
6985 98 323 
6986 323 98 
6987 98 324 
6988 324 323 
6989 324 98 
6990 98 97 
6991 97 324 
6992 324 97 
6993 97 325 
6994 325 324 
6995 325 97 
6996 97 96 
6997 96 325 
6998 325 96 
6999 96 326 
7000 326 325 
7001 326 96 
7002 96 95 
7003 95 326 
7004 326 95 
7005 95 327 
7006 327 326 
7007 327 95 
7008 95 94 
7009 94 327 
7010 327 94 
7011 94 328 
7012 328 327 
7013 328 94 
7014 94 93 
7015 93 328 
7016 328 93 
7017 93 329 
7018 329 328 
7019 329 93 
7020 93 92 
7021 92 329 
7022 329 92 
7023 92 106 
7024 106 329 
7025 106 92 
7026 92 7 
7027 7 106 
2 1 2 450
92 1 8 91 
93 91 8 134 
94 91 134 90 
95 90 134 135 
96 90 135 89 
97 89 135 136 
98 89 136 88 
99 88 136 137 
100 88 137 87 
101 87 137 138 
102 87 138 86 
103 86 138 139 
104 86 139 85 
105 85 139 140 
106 85 140 84 
107 84 140 141 
108 84 141 83 
109 83 141 142 
110 83 142 82 
111 82 142 143 
112 82 143 81 
113 81 143 144 
114 81 144 80 
115 80 144 145 
116 80 145 79 
117 79 145 146 
118 79 146 78 
119 78 146 147 
120 78 147 6 
121 6 147 119 
122 8 9 134 
123 134 9 148 
124 134 148 135 
125 135 148 149 
126 135 149 136 
127 136 149 150 
128 136 150 137 
129 137 150 151 
130 137 151 138 
131 138 151 152 
132 138 152 139 
133 139 152 153 
134 139 153 140 
135 140 153 154 
136 140 154 141 
137 141 154 155 
138 141 155 142 
139 142 155 156 
140 142 156 143 
141 143 156 157 
142 143 157 144 
143 144 157 158 
144 144 158 145 
145 145 158 159 
146 145 159 146 
147 146 159 160 
148 146 160 147 
149 147 160 161 
150 147 161 119 
151 119 161 118 
152 9 10 148 
153 148 10 162 
154 148 162 149 
155 149 162 163 
156 149 163 150 
157 150 163 164 
158 150 164 151 
159 151 164 165 
160 151 165 152 
161 152 165 166 
162 152 166 153 
163 153 166 167 
164 153 167 154 
165 154 167 168 
166 154 168 155 
167 155 168 169 
168 155 169 156 
169 156 169 170 
170 156 170 157 
171 157 170 171 
172 157 171 158 
173 158 171 172 
174 158 172 159 
175 159 172 173 
176 159 173 160 
177 160 173 174 
178 160 174 161 
179 161 174 175 
180 161 175 118 
181 118 175 117 
182 10 11 162 
183 162 11 176 
184 162 176 163 
185 163 176 177 
186 163 177 164 
187 164 177 178 
188 164 178 165 
189 165 178 179 
190 165 179 166 
191 166 179 180 
192 166 180 167 
193 167 180 181 
194 167 181 168 
195 168 181 182 
196 168 182 169 
197 169 182 183 
198 169 183 170 
199 170 183 184 
200 170 184 171 
201 171 184 185 
202 171 185 172 
203 172 185 186 
204 172 186 173 
205 173 186 187 
206 173 187 174 
207 174 187 188 
208 174 188 175 
209 175 188 189 
210 175 189 117 
211 117 189 116 
212 11 12 176 
213 176 12 190 
214 176 190 177 
215 177 190 191 
216 177 191 178 
217 178 191 192 
218 178 192 179 
219 179 192 193 
220 179 193 180 
221 180 193 194 
222 180 194 181 
223 181 194 195 
224 181 195 182 
225 182 195 196 
226 182 196 183 
227 183 196 197 
228 183 197 184 
229 184 197 198 
230 184 198 185 
231 185 198 199 
232 185 199 186 
233 186 199 200 
234 186 200 187 
235 187 200 201 
236 187 201 188 
237 188 201 202 
238 188 202 189 
239 189 202 203 
240 189 203 116 
241 116 203 115 
242 12 13 190 
243 190 13 204 
244 190 204 191 
245 191 204 205 
246 191 205 192 
247 192 205 206 
248 192 206 193 
249 193 206 207 
250 193 207 194 
251 194 207 208 
252 194 208 195 
253 195 208 209 
254 195 209 196 
255 196 209 210 
256 196 210 197 
257 197 210 211 
258 197 211 198 
259 198 211 212 
260 198 212 199 
261 199 212 213 
262 199 213 200 
263 200 213 214 
264 200 214 201 
265 201 214 215 
266 201 215 202 
267 202 215 216 
268 202 216 203 
269 203 216 217 
270 203 217 115 
271 115 217 114 
272 13 14 204 
273 204 14 218 
274 204 218 205 
275 205 218 219 
276 205 219 206 
277 206 219 220 
278 206 220 207 
279 207 220 221 
280 207 221 208 
281 208 221 222 
282 208 222 209 
283 209 222 223 
284 209 223 210 
285 210 223 224 
286 210 224 211 
287 211 224 225 
288 211 225 212 
289 212 225 226 
290 212 226 213 
291 213 226 227 
292 213 227 214 
293 214 227 228 
294 214 228 215 
295 215 228 229 
296 215 229 216 
297 216 229 230 
298 216 230 217 
299 217 230 231 
300 217 231 114 
301 114 231 113 
302 14 15 218 
303 218 15 232 
304 218 232 219 
305 219 232 233 
306 219 233 220 
307 220 233 234 
308 220 234 221 
309 221 234 235 
310 221 235 222 
311 222 235 236 
312 222 236 223 
313 223 236 237 
314 223 237 224 
315 224 237 238 
316 224 238 225 
317 225 238 239 
318 225 239 226 
319 226 239 240 
320 226 240 227 
321 227 240 241 
322 227 241 228 
323 228 241 242 
324 228 242 229 
325 229 242 243 
326 229 243 230 
327 230 243 244 
328 230 244 231 
329 231 244 245 
330 231 245 113 
331 113 245 112 
332 15 16 232 
333 232 16 246 
334 232 246 233 
335 233 246 247 
336 233 247 234 
337 234 247 248 
338 234 248 235 
339 235 248 249 
340 235 249 236 
341 236 249 250 
342 236 250 237 
343 237 250 251 
344 237 251 238 
345 238 251 252 
346 238 252 239 
347 239 252 253 
348 239 253 240 
349 240 253 254 
350 240 254 241 
351 241 254 255 
352 241 255 242 
353 242 255 256 
354 242 256 243 
355 243 256 257 
356 243 257 244 
357 244 257 258 
358 244 258 245 
359 245 258 259 
360 245 259 112 
361 112 259 111 
362 16 17 246 
363 246 17 260 
364 246 260 247 
365 247 260 261 
366 247 261 248 
367 248 261 262 
368 248 262 249 
369 249 262 263 
370 249 263 250 
371 250 263 264 
372 250 264 251 
373 251 264 265 
374 251 265 252 
375 252 265 266 
376 252 266 253 
377 253 266 267 
378 253 267 254 
379 254 267 268 
380 254 268 255 
381 255 268 269 
382 255 269 256 
383 256 269 270 
384 256 270 257 
385 257 270 271 
386 257 271 258 
387 258 271 272 
388 258 272 259 
389 259 272 273 
390 259 273 111 
391 111 273 110 
392 17 18 260 
393 260 18 274 
394 260 274 261 
395 261 274 275 
396 261 275 262 
397 262 275 276 
398 262 276 263 
399 263 276 277 
400 263 277 264 
401 264 277 278 
402 264 278 265 
403 265 278 279 
404 265 279 266 
405 266 279 280 
406 266 280 267 
407 267 280 281 
408 267 281 268 
409 268 281 282 
410 268 282 269 
411 269 282 283 
412 269 283 270 
413 270 283 284 
414 270 284 271 
415 271 284 285 
416 271 285 272 
417 272 285 286 
418 272 286 273 
419 273 286 287 
420 273 287 110 
421 110 287 109 
422 18 19 274 
423 274 19 288 
424 274 288 275 
425 275 288 289 
426 275 289 276 
427 276 289 290 
428 276 290 277 
429 277 290 291 
430 277 291 278 
431 278 291 292 
432 278 292 279 
433 279 292 293 
434 279 293 280 
435 280 293 294 
436 280 294 281 
437 281 294 295 
438 281 295 282 
439 282 295 296 
440 282 296 283 
441 283 296 297 
442 283 297 284 
443 284 297 298 
444 284 298 285 
445 285 298 299 
446 285 299 286 
447 286 299 300 
448 286 300 287 
449 287 300 301 
450 287 301 109 
451 109 301 108 
452 19 20 288 
453 288 20 302 
454 288 302 289 
455 289 302 303 
456 289 303 290 
457 290 303 304 
458 290 304 291 
459 291 304 305 
460 291 305 292 
461 292 305 306 
462 292 306 293 
463 293 306 307 
464 293 307 294 
465 294 307 308 
466 294 308 295 
467 295 308 309 
468 295 309 296 
469 296 309 310 
470 296 310 297 
471 297 310 311 
472 297 311 298 
473 298 311 312 
474 298 312 299 
475 299 312 313 
476 299 313 300 
477 300 313 314 
478 300 314 301 
479 301 314 315 
480 301 315 108 
481 108 315 107 
482 20 21 302 
483 302 21 316 
484 302 316 303 
485 303 316 317 
486 303 317 304 
487 304 317 318 
488 304 318 305 
489 305 318 319 
490 305 319 306 
491 306 319 320 
492 306 320 307 
493 307 320 321 
494 307 321 308 
495 308 321 322 
496 308 322 309 
497 309 322 323 
498 309 323 310 
499 310 323 324 
500 310 324 311 
501 311 324 325 
502 311 325 312 
503 312 325 326 
504 312 326 313 
505 313 326 327 
506 313 327 314 
507 314 327 328 
508 314 328 315 
509 315 328 329 
510 315 329 107 
511 107 329 106 
512 21 2 316 
513 316 2 105 
514 316 105 317 
515 317 105 104 
516 317 104 318 
517 318 104 103 
518 318 103 319 
519 319 103 102 
520 319 102 320 
521 320 102 101 
522 320 101 321 
523 321 101 100 
524 321 100 322 
525 322 100 99 
526 322 99 323 
527 323 99 98 
528 323 98 324 
529 324 98 97 
530 324 97 325 
531 325 97 96 
532 325 96 326 
533 326 96 95 
534 326 95 327 
535 327 95 94 
536 327 94 328 
537 328 94 93 
538 328 93 329 
539 329 93 92 
540 329 92 106 
541 106 92 7 
2 2 2 450
542 2 22 330 
543 330 105 2 
544 105 330 331 
545 331 104 105 
546 104 331 332 
547 332 103 104 
548 103 332 333 
549 333 102 103 
550 102 333 334 
551 334 101 102 
552 101 334 335 
553 335 100 101 
554 100 335 336 
555 336 99 100 
556 99 336 337 
557 337 98 99 
558 98 337 338 
559 338 97 98 
560 97 338 339 
561 339 96 97 
562 96 339 340 
563 340 95 96 
564 95 340 341 
565 341 94 95 
566 94 341 342 
567 342 93 94 
568 93 342 343 
569 343 92 93 
570 92 343 120 
571 120 7 92 
572 22 23 344 
573 344 330 22 
574 330 344 345 
575 345 331 330 
576 331 345 346 
577 346 332 331 
578 332 346 347 
579 347 333 332 
580 333 347 348 
581 348 334 333 
582 334 348 349 
583 349 335 334 
584 335 349 350 
585 350 336 335 
586 336 350 351 
587 351 337 336 
588 337 351 352 
589 352 338 337 
590 338 352 353 
591 353 339 338 
592 339 353 354 
593 354 340 339 
594 340 354 355 
595 355 341 340 
596 341 355 356 
597 356 342 341 
598 342 356 357 
599 357 343 342 
600 343 357 121 
601 121 120 343 
602 23 24 358 
603 358 344 23 
604 344 358 359 
605 359 345 344 
606 345 359 360 
607 360 346 345 
608 346 360 361 
609 361 347 346 
610 347 361 362 
611 362 348 347 
612 348 362 363 
613 363 349 348 
614 349 363 364 
615 364 350 349 
616 350 364 365 
617 365 351 350 
618 351 365 366 
619 366 352 351 
620 352 366 367 
621 367 353 352 
622 353 367 368 
623 368 354 353 
624 354 368 369 
625 369 355 354 
626 355 369 370 
627 370 356 355 
628 356 370 371 
629 371 357 356 
630 357 371 122 
631 122 121 357 
632 24 25 372 
633 372 358 24 
634 358 372 373 
635 373 359 358 
636 359 373 374 
637 374 360 359 
638 360 374 375 
639 375 361 360 
640 361 375 376 
641 376 362 361 
642 362 376 377 
643 377 363 362 
644 363 377 378 
645 378 364 363 
646 364 378 379 
647 379 365 364 
648 365 379 380 
649 380 366 365 
650 366 380 381 
651 381 367 366 
652 367 381 382 
653 382 368 367 
654 368 382 383 
655 383 369 368 
656 369 383 384 
657 384 370 369 
658 370 384 385 
659 385 371 370 
660 371 385 123 
661 123 122 371 
662 25 26 386 
663 386 372 25 
664 372 386 387 
665 387 373 372 
666 373 387 388 
667 388 374 373 
668 374 388 389 
669 389 375 374 
670 375 389 390 
671 390 376 375 
672 376 390 391 
673 391 377 376 
674 377 391 392 
675 392 378 377 
676 378 392 393 
677 393 379 378 
678 379 393 394 
679 394 380 379 
680 380 394 395 
681 395 381 380 
682 381 395 396 
683 396 382 381 
684 382 396 397 
685 397 383 382 
686 383 397 398 
687 398 384 383 
688 384 398 399 
689 399 385 384 
690 385 399 124 
691 124 123 385 
692 26 27 400 
693 400 386 26 
694 386 400 401 
695 401 387 386 
696 387 401 402 
697 402 388 387 
698 388 402 403 
699 403 389 388 
700 389 403 404 
701 404 390 389 
702 390 404 405 
703 405 391 390 
704 391 405 406 
705 406 392 391 
706 392 406 407 
707 407 393 392 
708 393 407 408 
709 408 394 393 
710 394 408 409 
711 409 395 394 
712 395 409 410 
713 410 396 395 
714 396 410 411 
715 411 397 396 
716 397 411 412 
717 412 398 397 
718 398 412 413 
719 413 399 398 
720 399 413 125 
721 125 124 399 
722 27 28 414 
723 414 400 27 
724 400 414 415 
725 415 401 400 
726 401 415 416 
727 416 402 401 
728 402 416 417 
729 417 403 402 
730 403 417 418 
731 418 404 403 
732 404 418 419 
733 419 405 404 
734 405 419 420 
735 420 406 405 
736 406 420 421 
737 421 407 406 
738 407 421 422 
739 422 408 407 
740 408 422 423 
741 423 409 408 
742 409 423 424 
743 424 410 409 
744 410 424 425 
745 425 411 410 
746 411 425 426 
747 426 412 411 
748 412 426 427 
749 427 413 412 
750 413 427 126 
751 126 125 413 
752 28 29 428 
753 428 414 28 
754 414 428 429 
755 429 415 414 
756 415 429 430 
757 430 416 415 
758 416 430 431 
759 431 417 416 
760 417 431 432 
761 432 418 417 
762 418 432 433 
763 433 419 418 
764 419 433 434 
765 434 420 419 
766 420 434 435 
767 435 421 420 
768 421 435 436 
769 436 422 421 
770 422 436 437 
771 437 423 422 
772 423 437 438 
773 438 424 423 
774 424 438 439 
775 439 425 424 
776 425 439 440 
777 440 426 425 
778 426 440 441 
779 441 427 426 
780 427 441 127 
781 127 126 427 
782 29 30 442 
783 442 428 29 
784 428 442 443 
785 443 429 428 
786 429 443 444 
787 444 430 429 
788 430 444 445 
789 445 431 430 
790 431 445 446 
791 446 432 431 
792 432 446 447 
793 447 433 432 
794 433 447 448 
795 448 434 433 
796 434 448 449 
797 449 435 434 
798 435 449 450 
799 450 436 435 
800 436 450 451 
801 451 437 436 
802 437 451 452 
803 452 438 437 
804 438 452 453 
805 453 439 438 
806 439 453 454 
807 454 440 439 
808 440 454 455 
809 455 441 440 
810 441 455 128 
811 128 127 441 
812 30 31 456 
813 456 442 30 
814 442 456 457 
815 457 443 442 
816 443 457 458 
817 458 444 443 
818 444 458 459 
819 459 445 444 
820 445 459 460 
821 460 446 445 
822 446 460 461 
823 461 447 446 
824 447 461 462 
825 462 448 447 
826 448 462 463 
827 463 449 448 
828 449 463 464 
829 464 450 449 
830 450 464 465 
831 465 451 450 
832 451 465 466 
833 466 452 451 
834 452 466 467 
835 467 453 452 
836 453 467 468 
837 468 454 453 
838 454 468 469 
839 469 455 454 
840 455 469 129 
841 129 128 455 
842 31 32 470 
843 470 456 31 
844 456 470 471 
845 471 457 456 
846 457 471 472 
847 472 458 457 
848 458 472 473 
849 473 459 458 
850 459 473 474 
851 474 460 459 
852 460 474 475 
853 475 461 460 
854 461 475 476 
855 476 462 461 
856 462 476 477 
857 477 463 462 
858 463 477 478 
859 478 464 463 
860 464 478 479 
861 479 465 464 
862 465 479 480 
863 480 466 465 
864 466 480 481 
865 481 467 466 
866 467 481 482 
867 482 468 467 
868 468 482 483 
869 483 469 468 
870 469 483 130 
871 130 129 469 
872 32 33 484 
873 484 470 32 
874 470 484 485 
875 485 471 470 
876 471 485 486 
877 486 472 471 
878 472 486 487 
879 487 473 472 
880 473 487 488 
881 488 474 473 
882 474 488 489 
883 489 475 474 
884 475 489 490 
885 490 476 475 
886 476 490 491 
887 491 477 476 
888 477 491 492 
889 492 478 477 
890 478 492 493 
891 493 479 478 
892 479 493 494 
893 494 480 479 
894 480 494 495 
895 495 481 480 
896 481 495 496 
897 496 482 481 
898 482 496 497 
899 497 483 482 
900 483 497 131 
901 131 130 483 
902 33 34 498 
903 498 484 33 
904 484 498 499 
905 499 485 484 
906 485 499 500 
907 500 486 485 
908 486 500 501 
909 501 487 486 
910 487 501 502 
911 502 488 487 
912 488 502 503 
913 503 489 488 
914 489 503 504 
915 504 490 489 
916 490 504 505 
917 505 491 490 
918 491 505 506 
919 506 492 491 
920 492 506 507 
921 507 493 492 
922 493 507 508 
923 508 494 493 
924 494 508 509 
925 509 495 494 
926 495 509 510 
927 510 496 495 
928 496 510 511 
929 511 497 496 
930 497 511 132 
931 132 131 497 
932 34 35 512 
933 512 498 34 
934 498 512 513 
935 513 499 498 
936 499 513 514 
937 514 500 499 
938 500 514 515 
939 515 501 500 
940 501 515 516 
941 516 502 501 
942 502 516 517 
943 517 503 502 
944 503 517 518 
945 518 504 503 
946 504 518 519 
947 519 505 504 
948 505 519 520 
949 520 506 505 
950 506 520 521 
951 521 507 506 
952 507 521 522 
953 522 508 507 
954 508 522 523 
955 523 509 508 
956 509 523 524 
957 524 510 509 
958 510 524 525 
959 525 511 510 
960 511 525 133 
961 133 132 511 
962 35 3 36 
963 36 512 35 
964 512 36 37 
965 37 513 512 
966 513 37 38 
967 38 514 513 
968 514 38 39 
969 39 515 514 
970 515 39 40 
971 40 516 515 
972 516 40 41 
973 41 517 516 
974 517 41 42 
975 42 518 517 
976 518 42 43 
977 43 519 518 
978 519 43 44 
979 44 520 519 
980 520 44 45 
981 45 521 520 
982 521 45 46 
983 46 522 521 
984 522 46 47 
985 47 523 522 
986 523 47 48 
987 48 524 523 
988 524 48 49 
989 49 525 524 
990 525 49 4 
991 4 133 525 
2 3 2 450
992 7 120 106 
993 106 120 526 
994 106 526 107 
995 107 526 527 
996 107 527 108 
997 108 527 528 
998 108 528 109 
999 109 528 529 
1000 109 529 110 
1001 110 529 530 
1002 110 530 111 
1003 111 530 531 
1004 111 531 112 
1005 112 531 532 
1006 112 532 113 
1007 113 532 533 
1008 113 533 114 
1009 114 533 534 
1010 114 534 115 
1011 115 534 535 
1012 115 535 116 
1013 116 535 536 
1014 116 536 117 
1015 117 536 537 
1016 117 537 118 
1017 118 537 538 
1018 118 538 119 
1019 119 538 539 
1020 119 539 6 
1021 6 539 77 
1022 120 121 526 
1023 526 121 540 
1024 526 540 527 
1025 527 540 541 
1026 527 541 528 
1027 528 541 542 
1028 528 542 529 
1029 529 542 543 
1030 529 543 530 
1031 530 543 544 
1032 530 544 531 
1033 531 544 545 
1034 531 545 532 
1035 532 545 546 
1036 532 546 533 
1037 533 546 547 
1038 533 547 534 
1039 534 547 548 
1040 534 548 535 
1041 535 548 549 
1042 535 549 536 
1043 536 549 550 
1044 536 550 537 
1045 537 550 551 
1046 537 551 538 
1047 538 551 552 
1048 538 552 539 
1049 539 552 553 
1050 539 553 77 
1051 77 553 76 
1052 121 122 540 
1053 540 122 554 
1054 540 554 541 
1055 541 554 555 
1056 541 555 542 
1057 542 555 556 
1058 542 556 543 
1059 543 556 557 
1060 543 557 544 
1061 544 557 558 
1062 544 558 545 
1063 545 558 559 
1064 545 559 546 
1065 546 559 560 
1066 546 560 547 
1067 547 560 561 
1068 547 561 548 
1069 548 561 562 
1070 548 562 549 
1071 549 562 563 
1072 549 563 550 
1073 550 563 564 
1074 550 564 551 
1075 551 564 565 
1076 551 565 552 
1077 552 565 566 
1078 552 566 553 
1079 553 566 567 
1080 553 567 76 
1081 76 567 75 
1082 122 123 554 
1083 554 123 568 
1084 554 568 555 
1085 555 568 569 
1086 555 569 556 
1087 556 569 570 
1088 556 570 557 
1089 557 570 571 
1090 557 571 558 
1091 558 571 572 
1092 558 572 559 
1093 559 572 573 
1094 559 573 560 
1095 560 573 574 
1096 560 574 561 
1097 561 574 575 
1098 561 575 562 
1099 562 575 576 
1100 562 576 563 
1101 563 576 577 
1102 563 577 564 
1103 564 577 578 
1104 564 578 565 
1105 565 578 579 
1106 565 579 566 
1107 566 579 580 
1108 566 580 567 
1109 567 580 581 
1110 567 581 75 
1111 75 581 74 
1112 123 124 568 
1113 568 124 582 
1114 568 582 569 
1115 569 582 583 
1116 569 583 570 
1117 570 583 584 
1118 570 584 571 
1119 571 584 585 
1120 571 585 572 
1121 572 585 586 
1122 572 586 573 
1123 573 586 587 
1124 573 587 574 
1125 574 587 588 
1126 574 588 575 
1127 575 588 589 
1128 575 589 576 
1129 576 589 590 
1130 576 590 577 
1131 577 590 591 
1132 577 591 578 
1133 578 591 592 
1134 578 592 579 
1135 579 592 593 
1136 579 593 580 
1137 580 593 594 
1138 580 594 581 
1139 581 594 595 
1140 581 595 74 
1141 74 595 73 
1142 124 125 582 
1143 582 125 596 
1144 582 596 583 
1145 583 596 597 
1146 583 597 584 
1147 584 597 598 
1148 584 598 585 
1149 585 598 599 
1150 585 599 586 
1151 586 599 600 
1152 586 600 587 
1153 587 600 601 
1154 587 601 588 
1155 588 601 602 
1156 588 602 589 
1157 589 602 603 
1158 589 603 590 
1159 590 603 604 
1160 590 604 591 
1161 591 604 605 
1162 591 605 592 
1163 592 605 606 
1164 592 606 593 
1165 593 606 607 
1166 593 607 594 
1167 594 607 608 
1168 594 608 595 
1169 595 608 609 
1170 595 609 73 
1171 73 609 72 
1172 125 126 596 
1173 596 126 610 
1174 596 610 597 
1175 597 610 611 
1176 597 611 598 
1177 598 611 612 
1178 598 612 599 
1179 599 612 613 
1180 599 613 600 
1181 600 613 614 
1182 600 614 601 
1183 601 614 615 
1184 601 615 602 
1185 602 615 616 
1186 602 616 603 
1187 603 616 617 
1188 603 617 604 
1189 604 617 618 
1190 604 618 605 
1191 605 618 619 
1192 605 619 606 
1193 606 619 620 
1194 606 620 607 
1195 607 620 621 
1196 607 621 608 
1197 608 621 622 
1198 608 622 609 
1199 609 622 623 
1200 609 623 72 
1201 72 623 71 
1202 126 127 610 
1203 610 127 624 
1204 610 624 611 
1205 611 624 625 
1206 611 625 612 
1207 612 625 626 
1208 612 626 613 
1209 613 626 627 
1210 613 627 614 
1211 614 627 628 
1212 614 628 615 
1213 615 628 629 
1214 615 629 616 
1215 616 629 630 
1216 616 630 617 
1217 617 630 631 
1218 617 631 618 
1219 618 631 632 
1220 618 632 619 
1221 619 632 633 
1222 619 633 620 
1223 620 633 634 
1224 620 634 621 
1225 621 634 635 
1226 621 635 622 
1227 622 635 636 
1228 622 636 623 
1229 623 636 637 
1230 623 637 71 
1231 71 637 70 
1232 127 128 624 
1233 624 128 638 
1234 624 638 625 
1235 625 638 639 
1236 625 639 626 
1237 626 639 640 
1238 626 640 627 
1239 627 640 641 
1240 627 641 628 
1241 628 641 642 
1242 628 642 629 
1243 629 642 643 
1244 629 643 630 
1245 630 643 644 
1246 630 644 631 
1247 631 644 645 
1248 631 645 632 
1249 632 645 646 
1250 632 646 633 
1251 633 646 647 
1252 633 647 634 
1253 634 647 648 
1254 634 648 635 
1255 635 648 649 
1256 635 649 636 
1257 636 649 650 
1258 636 650 637 
1259 637 650 651 
1260 637 651 70 
1261 70 651 69 
1262 128 129 638 
1263 638 129 652 
1264 638 652 639 
1265 639 652 653 
1266 639 653 640 
1267 640 653 654 
1268 640 654 641 
1269 641 654 655 
1270 641 655 642 
1271 642 655 656 
1272 642 656 643 
1273 643 656 657 
1274 643 657 644 
1275 644 657 658 
1276 644 658 645 
1277 645 658 659 
1278 645 659 646 
1279 646 659 660 
1280 646 660 647 
1281 647 660 661 
1282 647 661 648 
1283 648 661 662 
1284 648 662 649 
1285 649 662 663 
1286 649 663 650 
1287 650 663 664 
1288 650 664 651 
1289 651 664 665 
1290 651 665 69 
1291 69 665 68 
1292 129 130 652 
1293 652 130 666 
1294 652 666 653 
1295 653 666 667 
1296 653 667 654 
1297 654 667 668 
1298 654 668 655 
1299 655 668 669 
1300 655 669 656 
1301 656 669 670 
1302 656 670 657 
1303 657 670 671 
1304 657 671 658 
1305 658 671 672 
1306 658 672 659 
1307 659 672 673 
1308 659 673 660 
1309 660 673 674 
1310 660 674 661 
1311 661 674 675 
1312 661 675 662 
1313 662 675 676 
1314 662 676 663 
1315 663 676 677 
1316 663 677 664 
1317 664 677 678 
1318 664 678 665 
1319 665 678 679 
1320 665 679 68 
1321 68 679 67 
1322 130 131 666 
1323 666 131 680 
1324 666 680 667 
1325 667 680 681 
1326 667 681 668 
1327 668 681 682 
1328 668 682 669 
1329 669 682 683 
1330 669 683 670 
1331 670 683 684 
1332 670 684 671 
1333 671 684 685 
1334 671 685 672 
1335 672 685 686 
1336 672 686 673 
1337 673 686 687 
1338 673 687 674 
1339 674 687 688 
1340 674 688 675 
1341 675 688 689 
1342 675 689 676 
1343 676 689 690 
1344 676 690 677 
1345 677 690 691 
1346 677 691 678 
1347 678 691 692 
1348 678 692 679 
1349 679 692 693 
1350 679 693 67 
1351 67 693 66 
1352 131 132 680 
1353 680 132 694 
1354 680 694 681 
1355 681 694 695 
1356 681 695 682 
1357 682 695 696 
1358 682 696 683 
1359 683 696 697 
1360 683 697 684 
1361 684 697 698 
1362 684 698 685 
1363 685 698 699 
1364 685 699 686 
1365 686 699 700 
1366 686 700 687 
1367 687 700 701 
1368 687 701 688 
1369 688 701 702 
1370 688 702 689 
1371 689 702 703 
1372 689 703 690 
1373 690 703 704 
1374 690 704 691 
1375 691 704 705 
1376 691 705 692 
1377 692 705 706 
1378 692 706 693 
1379 693 706 707 
1380 693 707 66 
1381 66 707 65 
1382 132 133 694 
1383 694 133 708 
1384 694 708 695 
1385 695 708 709 
1386 695 709 696 
1387 696 709 710 
1388 696 710 697 
1389 697 710 711 
1390 697 711 698 
1391 698 711 712 
1392 698 712 699 
1393 699 712 713 
1394 699 713 700 
1395 700 713 714 
1396 700 714 701 
1397 701 714 715 
1398 701 715 702 
1399 702 715 716 
1400 702 716 703 
1401 703 716 717 
1402 703 717 704 
1403 704 717 718 
1404 704 718 705 
1405 705 718 719 
1406 705 719 706 
1407 706 719 720 
1408 706 720 707 
1409 707 720 721 
1410 707 721 65 
1411 65 721 64 
1412 133 4 708 
1413 708 4 50 
1414 708 50 709 
1415 709 50 51 
1416 709 51 710 
1417 710 51 52 
1418 710 52 711 
1419 711 52 53 
1420 711 53 712 
1421 712 53 54 
1422 712 54 713 
1423 713 54 55 
1424 713 55 714 
1425 714 55 56 
1426 714 56 715 
1427 715 56 57 
1428 715 57 716 
1429 716 57 58 
1430 716 58 717 
1431 717 58 59 
1432 717 59 718 
1433 718 59 60 
1434 718 60 719 
1435 719 60 61 
1436 719 61 720 
1437 720 61 62 
1438 720 62 721 
1439 721 62 63 
1440 721 63 64 
1441 64 63 5 
$EndElements
