$MeshFormat
4.1 0 8
$EndMeshFormat
$PhysicalNames
6
1 1 "Γ¹"
1 2 "Γ²"
1 3 "Γ³"
1 4 "Γ⁴"
1 6 "Γ"
2 5 "Ω"
$EndPhysicalNames
$Entities
4 5 1 0
1 0 0 0 0 
2 1 0 0 0 
3 1.707106781186547 0.7071067811865476 0 0 
4 0.7071067811865475 0.7071067811865476 0 0 
1 0 0 0 1 0 0 1 1 2 1 -2 
2 1 0 0 1.707106781186547 0.7071067811865476 0 1 2 2 2 -3 
3 0.7071067811865475 0.7071067811865476 0 1.707106781186547 0.7071067811865476 0 1 3 2 3 -4 
4 0 0 0 0.7071067811865475 0.7071067811865476 0 1 4 2 4 -1 
5 0 0 0 1.707106781186547 0.7071067811865476 0 1 6 0 
1 0 0 0 1.707106781186547 0.7071067811865476 0 1 5 4 1 2 3 4 
$EndEntities
$Nodes
10 121 1 121
0 1 0 1
1
0 0 0
0 2 0 1
2
1 0 0
0 3 0 1
3
1.707106781186547 0.7071067811865476 0
0 4 0 1
4
0.7071067811865475 0.7071067811865476 0
1 1 0 9
5
6
7
8
9
10
11
12
13
0.09999999999981413 0 0
0.1999999999995569 0 0
0.299999999999265 0 0
0.3999999999989731 0 0
0.4999999999986921 0 0
0.599999999998945 0 0
0.6999999999992088 0 0
0.7999999999994725 0 0
0.8999999999997362 0 0
1 2 0 9
14
15
16
17
18
19
20
21
22
1.070710678118555 0.07071067811855491 0
1.141421356237025 0.1414213562370251 0
1.212132034355502 0.2121320343555023 0
1.282842712474012 0.2828427124740115 0
1.353553390592416 0.3535533905924161 0
1.424264068711202 0.4242640687112024 0
1.494974746830106 0.4949747468301066 0
1.56568542494891 0.5656854249489102 0
1.636396103067679 0.636396103067679 0
1 3 0 9
23
24
25
26
27
28
29
30
31
1.607106781186872 0.7071067811865476 0
1.507106781187197 0.7071067811865476 0
1.407106781187522 0.7071067811865476 0
1.307106781187848 0.7071067811865476 0
1.207106781188173 0.7071067811865476 0
1.107106781188498 0.7071067811865476 0
1.007106781188823 0.7071067811865476 0
0.9071067811881167 0.7071067811865476 0
0.8071067811873321 0.7071067811865476 0
1 4 0 9
32
33
34
35
36
37
38
39
40
0.636396103067986 0.6363961030679861 0
0.5656854249495676 0.5656854249495678 0
0.4949747468311807 0.4949747468311808 0
0.4242640687127159 0.4242640687127159 0
0.353553390594239 0.3535533905942391 0
0.2828427124753944 0.2828427124753945 0
0.2121320343565239 0.2121320343565239 0
0.1414213562377042 0.1414213562377042 0
0.07071067811884135 0.07071067811884135 0
1 5 0 0
2 1 0 81
41
42
43
44
45
46
47
48
49
50
51
52
53
54
55
56
57
58
59
60
61
62
63
64
65
66
67
68
69
70
71
72
73
74
75
76
77
78
79
80
81
82
83
84
85
86
87
88
89
90
91
92
93
94
95
96
97
98
99
100
101
102
103
104
105
106
107
108
109
110
111
112
113
114
115
116
117
118
119
120
121
0.1707106781187239 0.07071067811881272 0
0.2414213562376446 0.1414213562376363 0
0.312132034356527 0.2121320343564218 0
0.3828427124754585 0.2828427124752562 0
0.453553390594356 0.3535533905940568 0
0.5242640687129609 0.4242640687125646 0
0.5949747468315668 0.4949747468310734 0
0.6656854249500926 0.565685424949502 0
0.736396103068643 0.6363961030679556 0
0.2707106781185423 0.07071067811878409 0
0.3414213562375278 0.1414213562375684 0
0.4121320343564803 0.2121320343563196 0
0.4828427124754796 0.2828427124751179 0
0.5535533905944376 0.3535533905938745 0
0.6242640687131774 0.4242640687124131 0
0.6949747468319313 0.494974746830966 0
0.7656854249506028 0.5656854249494361 0
0.8363961030692926 0.6363961030679246 0
0.3707106781183214 0.07071067811875544 0
0.4414213562373676 0.1414213562375005 0
0.5121320343563858 0.2121320343562175 0
0.5828427124754489 0.2828427124749796 0
0.6535533905944625 0.3535533905936922 0
0.724264068713333 0.4242640687122619 0
0.7949747468322308 0.4949747468308585 0
0.8656854249510439 0.5656854249493704 0
0.9363961030698684 0.636396103067894 0
0.4707106781179976 0.07071067811872681 0
0.5414213562370013 0.1414213562374326 0
0.6121320343559817 0.2121320343561152 0
0.6828427124750055 0.2828427124748413 0
0.7535533905939718 0.3535533905935099 0
0.8242640687128704 0.4242640687121105 0
0.8949747468318084 0.4949747468307512 0
0.9656854249506601 0.5656854249493047 0
1.036396103069516 0.6363961030678633 0
0.5707106781176836 0.07071067811869815 0
0.6414213562366434 0.1414213562373647 0
0.7121320343555851 0.2121320343560131 0
0.7828427124745683 0.2828427124747031 0
0.8535533905934862 0.3535533905933276 0
0.9242640687124112 0.4242640687119592 0
0.994974746831389 0.4949747468306437 0
1.065685424950278 0.5656854249492389 0
1.136396103069164 0.6363961030678325 0
0.6707106781178501 0.0707106781186695 0
0.7414213562367128 0.1414213562372968 0
0.8121320343555627 0.2121320343559109 0
0.8828427124744518 0.2828427124745648 0
0.9535533905932678 0.3535533905931453 0
1.024264068712166 0.4242640687118078 0
1.09497474683113 0.4949747468305364 0
1.165685424950002 0.5656854249491732 0
1.236396103068866 0.6363961030678018 0
0.7707106781180262 0.07071067811864087 0
0.8414213562367909 0.1414213562372288 0
0.9121320343555477 0.2121320343558088 0
0.9828427124743417 0.2828427124744264 0
1.053553390593055 0.353553390592963 0
1.124264068711925 0.4242640687116565 0
1.194974746830874 0.4949747468304289 0
1.265685424949729 0.5656854249491075 0
1.33639610306857 0.6363961030677712 0
0.8707106781182025 0.07071067811861222 0
0.9414213562368687 0.141421356237161 0
1.012132034355532 0.2121320343557067 0
1.082842712474231 0.2828427124742881 0
1.153553390592842 0.3535533905927807 0
1.224264068711684 0.4242640687115052 0
1.294974746830619 0.4949747468303215 0
1.365685424949456 0.5656854249490417 0
1.436396103068273 0.6363961030677405 0
0.9707106781183786 0.07071067811858357 0
1.041421356236947 0.141421356237093 0
1.112132034355518 0.2121320343556045 0
1.182842712474122 0.2828427124741498 0
1.253553390592629 0.3535533905925984 0
1.324264068711443 0.4242640687113537 0
1.394974746830362 0.494974746830214 0
1.465685424949183 0.565685424948976 0
1.536396103067976 0.6363961030677097 0
$EndNodes
$Elements
6 840 1 2284
1 1 1 10
1 1 5 
2 5 6 
3 6 7 
4 7 8 
5 8 9 
6 9 10 
7 10 11 
8 11 12 
9 12 13 
10 13 2 
1 2 1 10
11 2 14 
12 14 15 
13 15 16 
14 16 17 
15 17 18 
16 18 19 
17 19 20 
18 20 21 
19 21 22 
20 22 3 
1 3 1 10
21 3 23 
22 23 24 
23 24 25 
24 25 26 
25 26 27 
26 27 28 
27 28 29 
28 29 30 
29 30 31 
30 31 4 
1 4 1 10
31 4 32 
32 32 33 
33 33 34 
34 34 35 
35 35 36 
36 36 37 
37 37 38 
38 38 39 
39 39 40 
40 40 1 
1 5 1 600
1685 1 5 
1686 5 40 
1687 40 1 
1688 40 5 
1689 5 41 
1690 41 40 
1691 40 41 
1692 41 42 
1693 42 40 
1694 42 39 
1695 39 40 
1696 40 42 
1697 39 42 
1698 42 38 
1699 38 39 
1700 38 42 
1701 42 43 
1702 43 38 
1703 38 43 
1704 43 44 
1705 44 38 
1706 44 37 
1707 37 38 
1708 38 44 
1709 37 44 
1710 44 36 
1711 36 37 
1712 36 44 
1713 44 45 
1714 45 36 
1715 36 45 
1716 45 46 
1717 46 36 
1718 46 35 
1719 35 36 
1720 36 46 
1721 35 46 
1722 46 34 
1723 34 35 
1724 34 46 
1725 46 47 
1726 47 34 
1727 34 47 
1728 47 48 
1729 48 34 
1730 48 33 
1731 33 34 
1732 34 48 
1733 33 48 
1734 48 32 
1735 32 33 
1736 32 48 
1737 48 49 
1738 49 32 
1739 32 49 
1740 49 31 
1741 31 32 
1742 31 4 
1743 4 32 
1744 32 31 
1745 5 6 
1746 6 50 
1747 50 5 
1748 50 41 
1749 41 5 
1750 5 50 
1751 41 50 
1752 50 42 
1753 42 41 
1754 42 50 
1755 50 51 
1756 51 42 
1757 42 51 
1758 51 52 
1759 52 42 
1760 52 43 
1761 43 42 
1762 42 52 
1763 43 52 
1764 52 44 
1765 44 43 
1766 44 52 
1767 52 53 
1768 53 44 
1769 44 53 
1770 53 54 
1771 54 44 
1772 54 45 
1773 45 44 
1774 44 54 
1775 45 54 
1776 54 46 
1777 46 45 
1778 46 54 
1779 54 55 
1780 55 46 
1781 46 55 
1782 55 56 
1783 56 46 
1784 56 47 
1785 47 46 
1786 46 56 
1787 47 56 
1788 56 48 
1789 48 47 
1790 48 56 
1791 56 57 
1792 57 48 
1793 48 57 
1794 57 58 
1795 58 48 
1796 58 49 
1797 49 48 
1798 48 58 
1799 49 58 
1800 58 31 
1801 31 49 
1802 31 58 
1803 58 30 
1804 30 31 
1805 6 7 
1806 7 50 
1807 50 6 
1808 50 7 
1809 7 59 
1810 59 50 
1811 50 59 
1812 59 60 
1813 60 50 
1814 60 51 
1815 51 50 
1816 50 60 
1817 51 60 
1818 60 52 
1819 52 51 
1820 52 60 
1821 60 61 
1822 61 52 
1823 52 61 
1824 61 62 
1825 62 52 
1826 62 53 
1827 53 52 
1828 52 62 
1829 53 62 
1830 62 54 
1831 54 53 
1832 54 62 
1833 62 63 
1834 63 54 
1835 54 63 
1836 63 64 
1837 64 54 
1838 64 55 
1839 55 54 
1840 54 64 
1841 55 64 
1842 64 56 
1843 56 55 
1844 56 64 
1845 64 65 
1846 65 56 
1847 56 65 
1848 65 66 
1849 66 56 
1850 66 57 
1851 57 56 
1852 56 66 
1853 57 66 
1854 66 58 
1855 58 57 
1856 58 66 
1857 66 67 
1858 67 58 
1859 58 67 
1860 67 29 
1861 29 58 
1862 29 30 
1863 30 58 
1864 58 29 
1865 7 8 
1866 8 68 
1867 68 7 
1868 68 59 
1869 59 7 
1870 7 68 
1871 59 68 
1872 68 60 
1873 60 59 
1874 60 68 
1875 68 69 
1876 69 60 
1877 60 69 
1878 69 70 
1879 70 60 
1880 70 61 
1881 61 60 
1882 60 70 
1883 61 70 
1884 70 62 
1885 62 61 
1886 62 70 
1887 70 71 
1888 71 62 
1889 62 71 
1890 71 72 
1891 72 62 
1892 72 63 
1893 63 62 
1894 62 72 
1895 63 72 
1896 72 64 
1897 64 63 
1898 64 72 
1899 72 73 
1900 73 64 
1901 64 73 
1902 73 74 
1903 74 64 
1904 74 65 
1905 65 64 
1906 64 74 
1907 65 74 
1908 74 66 
1909 66 65 
1910 66 74 
1911 74 75 
1912 75 66 
1913 66 75 
1914 75 76 
1915 76 66 
1916 76 67 
1917 67 66 
1918 66 76 
1919 67 76 
1920 76 29 
1921 29 67 
1922 29 76 
1923 76 28 
1924 28 29 
1925 8 9 
1926 9 68 
1927 68 8 
1928 68 9 
1929 9 77 
1930 77 68 
1931 68 77 
1932 77 78 
1933 78 68 
1934 78 69 
1935 69 68 
1936 68 78 
1937 69 78 
1938 78 70 
1939 70 69 
1940 70 78 
1941 78 79 
1942 79 70 
1943 70 79 
1944 79 80 
1945 80 70 
1946 80 71 
1947 71 70 
1948 70 80 
1949 71 80 
1950 80 72 
1951 72 71 
1952 72 80 
1953 80 81 
1954 81 72 
1955 72 81 
1956 81 82 
1957 82 72 
1958 82 73 
1959 73 72 
1960 72 82 
1961 73 82 
1962 82 74 
1963 74 73 
1964 74 82 
1965 82 83 
1966 83 74 
1967 74 83 
1968 83 84 
1969 84 74 
1970 84 75 
1971 75 74 
1972 74 84 
1973 75 84 
1974 84 76 
1975 76 75 
1976 76 84 
1977 84 85 
1978 85 76 
1979 76 85 
1980 85 27 
1981 27 76 
1982 27 28 
1983 28 76 
1984 76 27 
1985 9 10 
1986 10 86 
1987 86 9 
1988 86 77 
1989 77 9 
1990 9 86 
1991 77 86 
1992 86 78 
1993 78 77 
1994 78 86 
1995 86 87 
1996 87 78 
1997 78 87 
1998 87 88 
1999 88 78 
2000 88 79 
2001 79 78 
2002 78 88 
2003 79 88 
2004 88 80 
2005 80 79 
2006 80 88 
2007 88 89 
2008 89 80 
2009 80 89 
2010 89 90 
2011 90 80 
2012 90 81 
2013 81 80 
2014 80 90 
2015 81 90 
2016 90 82 
2017 82 81 
2018 82 90 
2019 90 91 
2020 91 82 
2021 82 91 
2022 91 92 
2023 92 82 
2024 92 83 
2025 83 82 
2026 82 92 
2027 83 92 
2028 92 84 
2029 84 83 
2030 84 92 
2031 92 93 
2032 93 84 
2033 84 93 
2034 93 94 
2035 94 84 
2036 94 85 
2037 85 84 
2038 84 94 
2039 85 94 
2040 94 27 
2041 27 85 
2042 27 94 
2043 94 26 
2044 26 27 
2045 10 11 
2046 11 86 
2047 86 10 
2048 86 11 
2049 11 95 
2050 95 86 
2051 86 95 
2052 95 96 
2053 96 86 
2054 96 87 
2055 87 86 
2056 86 96 
2057 87 96 
2058 96 88 
2059 88 87 
2060 88 96 
2061 96 97 
2062 97 88 
2063 88 97 
2064 97 98 
2065 98 88 
2066 98 89 
2067 89 88 
2068 88 98 
2069 89 98 
2070 98 90 
2071 90 89 
2072 90 98 
2073 98 99 
2074 99 90 
2075 90 99 
2076 99 100 
2077 100 90 
2078 100 91 
2079 91 90 
2080 90 100 
2081 91 100 
2082 100 92 
2083 92 91 
2084 92 100 
2085 100 101 
2086 101 92 
2087 92 101 
2088 101 102 
2089 102 92 
2090 102 93 
2091 93 92 
2092 92 102 
2093 93 102 
2094 102 94 
2095 94 93 
2096 94 102 
2097 102 103 
2098 103 94 
2099 94 103 
2100 103 25 
2101 25 94 
2102 25 26 
2103 26 94 
2104 94 25 
2105 11 12 
2106 12 104 
2107 104 11 
2108 104 95 
2109 95 11 
2110 11 104 
2111 95 104 
2112 104 96 
2113 96 95 
2114 96 104 
2115 104 105 
2116 105 96 
2117 96 105 
2118 105 106 
2119 106 96 
2120 106 97 
2121 97 96 
2122 96 106 
2123 97 106 
2124 106 98 
2125 98 97 
2126 98 106 
2127 106 107 
2128 107 98 
2129 98 107 
2130 107 108 
2131 108 98 
2132 108 99 
2133 99 98 
2134 98 108 
2135 99 108 
2136 108 100 
2137 100 99 
2138 100 108 
2139 108 109 
2140 109 100 
2141 100 109 
2142 109 110 
2143 110 100 
2144 110 101 
2145 101 100 
2146 100 110 
2147 101 110 
2148 110 102 
2149 102 101 
2150 102 110 
2151 110 111 
2152 111 102 
2153 102 111 
2154 111 112 
2155 112 102 
2156 112 103 
2157 103 102 
2158 102 112 
2159 103 112 
2160 112 25 
2161 25 103 
2162 25 112 
2163 112 24 
2164 24 25 
2165 12 13 
2166 13 104 
2167 104 12 
2168 104 13 
2169 13 113 
2170 113 104 
2171 104 113 
2172 113 114 
2173 114 104 
2174 114 105 
2175 105 104 
2176 104 114 
2177 105 114 
2178 114 106 
2179 106 105 
2180 106 114 
2181 114 115 
2182 115 106 
2183 106 115 
2184 115 116 
2185 116 106 
2186 116 107 
2187 107 106 
2188 106 116 
2189 107 116 
2190 116 108 
2191 108 107 
2192 108 116 
2193 116 117 
2194 117 108 
2195 108 117 
2196 117 118 
2197 118 108 
2198 118 109 
2199 109 108 
2200 108 118 
2201 109 118 
2202 118 110 
2203 110 109 
2204 110 118 
2205 118 119 
2206 119 110 
2207 110 119 
2208 119 120 
2209 120 110 
2210 120 111 
2211 111 110 
2212 110 120 
2213 111 120 
2214 120 112 
2215 112 111 
2216 112 120 
2217 120 121 
2218 121 112 
2219 112 121 
2220 121 23 
2221 23 112 
2222 23 24 
2223 24 112 
2224 112 23 
2225 13 2 
2226 2 14 
2227 14 13 
2228 14 113 
2229 113 13 
2230 13 14 
2231 113 14 
2232 14 114 
2233 114 113 
2234 114 14 
2235 14 15 
2236 15 114 
2237 114 15 
2238 15 16 
2239 16 114 
2240 16 115 
2241 115 114 
2242 114 16 
2243 115 16 
2244 16 116 
2245 116 115 
2246 116 16 
2247 16 17 
2248 17 116 
2249 116 17 
2250 17 18 
2251 18 116 
2252 18 117 
2253 117 116 
2254 116 18 
2255 117 18 
2256 18 118 
2257 118 117 
2258 118 18 
2259 18 19 
2260 19 118 
2261 118 19 
2262 19 20 
2263 20 118 
2264 20 119 
2265 119 118 
2266 118 20 
2267 119 20 
2268 20 120 
2269 120 119 
2270 120 20 
2271 20 21 
2272 21 120 
2273 120 21 
2274 21 22 
2275 22 120 
2276 22 121 
2277 121 120 
2278 120 22 
2279 121 22 
2280 22 23 
2281 23 121 
2282 23 22 
2283 22 3 
2284 3 23 
2 1 2 200
41 1 5 40 
42 40 5 41 
43 40 41 42 
44 42 39 40 
45 39 42 38 
46 38 42 43 
47 38 43 44 
48 44 37 38 
49 37 44 36 
50 36 44 45 
51 36 45 46 
52 46 35 36 
53 35 46 34 
54 34 46 47 
55 34 47 48 
56 48 33 34 
57 33 48 32 
58 32 48 49 
59 32 49 31 
60 31 4 32 
61 5 6 50 
62 50 41 5 
63 41 50 42 
64 42 50 51 
65 42 51 52 
66 52 43 42 
67 43 52 44 
68 44 52 53 
69 44 53 54 
70 54 45 44 
71 45 54 46 
72 46 54 55 
73 46 55 56 
74 56 47 46 
75 47 56 48 
76 48 56 57 
77 48 57 58 
78 58 49 48 
79 49 58 31 
80 31 58 30 
81 6 7 50 
82 50 7 59 
83 50 59 60 
84 60 51 50 
85 51 60 52 
86 52 60 61 
87 52 61 62 
88 62 53 52 
89 53 62 54 
90 54 62 63 
91 54 63 64 
92 64 55 54 
93 55 64 56 
94 56 64 65 
95 56 65 66 
96 66 57 56 
97 57 66 58 
98 58 66 67 
99 58 67 29 
100 29 30 58 
101 7 8 68 
102 68 59 7 
103 59 68 60 
104 60 68 69 
105 60 69 70 
106 70 61 60 
107 61 70 62 
108 62 70 71 
109 62 71 72 
110 72 63 62 
111 63 72 64 
112 64 72 73 
113 64 73 74 
114 74 65 64 
115 65 74 66 
116 66 74 75 
117 66 75 76 
118 76 67 66 
119 67 76 29 
120 29 76 28 
121 8 9 68 
122 68 9 77 
123 68 77 78 
124 78 69 68 
125 69 78 70 
126 70 78 79 
127 70 79 80 
128 80 71 70 
129 71 80 72 
130 72 80 81 
131 72 81 82 
132 82 73 72 
133 73 82 74 
134 74 82 83 
135 74 83 84 
136 84 75 74 
137 75 84 76 
138 76 84 85 
139 76 85 27 
140 27 28 76 
141 9 10 86 
142 86 77 9 
143 77 86 78 
144 78 86 87 
145 78 87 88 
146 88 79 78 
147 79 88 80 
148 80 88 89 
149 80 89 90 
150 90 81 80 
151 81 90 82 
152 82 90 91 
153 82 91 92 
154 92 83 82 
155 83 92 84 
156 84 92 93 
157 84 93 94 
158 94 85 84 
159 85 94 27 
160 27 94 26 
161 10 11 86 
162 86 11 95 
163 86 95 96 
164 96 87 86 
165 87 96 88 
166 88 96 97 
167 88 97 98 
168 98 89 88 
169 89 98 90 
170 90 98 99 
171 90 99 100 
172 100 91 90 
173 91 100 92 
174 92 100 101 
175 92 101 102 
176 102 93 92 
177 93 102 94 
178 94 102 103 
179 94 103 25 
180 25 26 94 
181 11 12 104 
182 104 95 11 
183 95 104 96 
184 96 104 105 
185 96 105 106 
186 106 97 96 
187 97 106 98 
188 98 106 107 
189 98 107 108 
190 108 99 98 
191 99 108 100 
192 100 108 109 
193 100 109 110 
194 110 101 100 
195 101 110 102 
196 102 110 111 
197 102 111 112 
198 112 103 102 
199 103 112 25 
200 25 112 24 
201 12 13 104 
202 104 13 113 
203 104 113 114 
204 114 105 104 
205 105 114 106 
206 106 114 115 
207 106 115 116 
208 116 107 106 
209 107 116 108 
210 108 116 117 
211 108 117 118 
212 118 109 108 
213 109 118 110 
214 110 118 119 
215 110 119 120 
216 120 111 110 
217 111 120 112 
218 112 120 121 
219 112 121 23 
220 23 24 112 
221 13 2 14 
222 14 113 13 
223 113 14 114 
224 114 14 15 
225 114 15 16 
226 16 115 114 
227 115 16 116 
228 116 16 17 
229 116 17 18 
230 18 117 116 
231 117 18 118 
232 118 18 19 
233 118 19 20 
234 20 119 118 
235 119 20 120 
236 120 20 21 
237 120 21 22 
238 22 121 120 
239 121 22 23 
240 23 22 3 
$EndElements
