$MeshFormat
4.1 0 8
$EndMeshFormat
$PhysicalNames
6
1 1 "Γ¹"
1 2 "Γ²"
1 3 "Γ³"
1 4 "Γ⁴"
1 6 "Γ"
2 5 "Ω"
$EndPhysicalNames
$Entities
4 5 1 0
1 0 0 0 0 
2 1 0 0 0 
3 1.5 0.8660254037844387 0 0 
4 0.4999999999999999 0.8660254037844387 0 0 
1 0 0 0 1 0 0 1 1 2 1 -2 
2 1 0 0 1.5 0.8660254037844387 0 1 2 2 2 -3 
3 0.5 0.8660254037844387 0 1.5 0.8660254037844387 0 1 3 2 3 -4 
4 0 0 0 0.4999999999999999 0.8660254037844387 0 1 4 2 4 -1 
5 0 0 0 1.5 0.8660254037844387 0 1 6 0 
1 0 0 0 1.5 0.8660254037844387 0 1 5 4 1 2 3 4 
$EndEntities
$Nodes
10 324 1 324
0 1 0 1
1
0 0 0
0 2 0 1
2
1 0 0
0 3 0 1
3
1.5 0.8660254037844387 0
0 4 0 1
4
0.4999999999999999 0.8660254037844387 0
1 1 0 16
5
6
7
8
9
10
11
12
13
14
15
16
17
18
19
20
0.05882352941164516 0 0
0.1176470588233163 0 0
0.1764705882349197 0 0
0.2352941176465127 0 0
0.2941176470581057 0 0
0.3529411764696987 0 0
0.4117647058812917 0 0
0.4705882352928847 0 0
0.5294117647046411 0 0
0.5882352941165611 0 0
0.6470588235284809 0 0
0.7058823529404007 0 0
0.7647058823523205 0 0
0.8235294117642404 0 0
0.8823529411761603 0 0
0.9411764705880802 0 0
1 2 0 16
21
22
23
24
25
26
27
28
29
30
31
32
33
34
35
36
1.029411764705838 0.05094267081077261 0
1.058823529411684 0.1018853416215593 0
1.088235294117505 0.1528280124323012 0
1.11764705882332 0.2037706832430354 0
1.147058823529143 0.2547133540537816 0
1.176470588234969 0.3056560248645335 0
1.205882352940789 0.3565986956752744 0
1.235294117646591 0.4075413664859842 0
1.264705882352468 0.4584840372968246 0
1.294117647058424 0.5094267081078013 0
1.323529411764365 0.5603693789187518 0
1.352941176470315 0.6113120497297186 0
1.382352941176256 0.6622547205406693 0
1.411764705882206 0.713197391351636 0
1.441176470588147 0.7641400621625866 0
1.470588235294097 0.8150827329735534 0
1 3 0 16
37
38
39
40
41
42
43
44
45
46
47
48
49
50
51
52
1.441176470588562 0.8660254037844387 0
1.382352941177124 0.8660254037844387 0
1.323529411765686 0.8660254037844387 0
1.264705882354248 0.8660254037844387 0
1.20588235294281 0.8660254037844387 0
1.147058823531371 0.8660254037844387 0
1.088235294119933 0.8660254037844387 0
1.029411764708495 0.8660254037844387 0
0.9705882352967308 0.8660254037844387 0
0.9117647058846394 0.8660254037844387 0
0.8529411764725481 0.8660254037844387 0
0.7941176470604567 0.8660254037844387 0
0.7352941176483654 0.8660254037844387 0
0.676470588236274 0.8660254037844387 0
0.6176470588241827 0.8660254037844387 0
0.5588235294120913 0.8660254037844387 0
1 4 0 16
53
54
55
56
57
58
59
60
61
62
63
64
65
66
67
68
0.4705882352941865 0.8150827329737087 0
0.4411764705882974 0.7641400621628477 0
0.41176470588248 0.7131973913521108 0
0.3823529411766604 0.6622547205413702 0
0.3529411764708658 0.6113120497306728 0
0.3235294117650479 0.5603693789199351 0
0.294117647059246 0.5094267081092252 0
0.2647058823534726 0.4584840372985646 0
0.235294117647604 0.407541366487739 0
0.205882352941639 0.3565986956767464 0
0.1764705882356892 0.3056560248657803 0
0.14705882352973 0.254713354054798 0
0.1176470588237803 0.2037706832438319 0
0.08823529411782111 0.1528280124328495 0
0.05882352941187136 0.1018853416218833 0
0.02941176470591217 0.05094267081090098 0
1 5 0 0
2 1 0 256
69
70
71
72
73
74
75
76
77
78
79
80
81
82
83
84
85
86
87
88
89
90
91
92
93
94
95
96
97
98
99
100
101
102
103
104
105
106
107
108
109
110
111
112
113
114
115
116
117
118
119
120
121
122
123
124
125
126
127
128
129
130
131
132
133
134
135
136
137
138
139
140
141
142
143
144
145
146
147
148
149
150
151
152
153
154
155
156
157
158
159
160
161
162
163
164
165
166
167
168
169
170
171
172
173
174
175
176
177
178
179
180
181
182
183
184
185
186
187
188
189
190
191
192
193
194
195
196
197
198
199
200
201
202
203
204
205
206
207
208
209
210
211
212
213
214
215
216
217
218
219
220
221
222
223
224
225
226
227
228
229
230
231
232
233
234
235
236
237
238
239
240
241
242
243
244
245
246
247
248
249
250
251
252
253
254
255
256
257
258
259
260
261
262
263
264
265
266
267
268
269
270
271
272
273
274
275
276
277
278
279
280
281
282
283
284
285
286
287
288
289
290
291
292
293
294
295
296
297
298
299
300
301
302
303
304
305
306
307
308
309
310
311
312
313
314
315
316
317
318
319
320
321
322
323
324
0.08823529411757923 0.05094267081089345 0
0.117647058823558 0.1018853416218643 0
0.1470588235295264 0.1528280124328172 0
0.1764705882355034 0.203770683243785 0
0.2058823529414719 0.2547133540547382 0
0.2352941176474495 0.305656024865707 0
0.2647058823534179 0.3565986956766598 0
0.2941176470593996 0.4075413664876358 0
0.3235294117652949 0.4584840372984622 0
0.3529411764711053 0.5094267081091415 0
0.3823529411769417 0.5603693789198655 0
0.4117647058827935 0.6113120497306165 0
0.441176470588623 0.6622547205413289 0
0.4705882352944765 0.7131973913520827 0
0.5000000000003274 0.7641400621628324 0
0.5294117647062464 0.8150827329736995 0
0.1470588235292707 0.05094267081088589 0
0.1764705882352676 0.1018853416218452 0
0.2058823529412531 0.152828012432785 0
0.2352941176472463 0.2037706832437381 0
0.2647058823532322 0.2547133540546785 0
0.2941176470592267 0.3056560248656336 0
0.3235294117652122 0.3565986956765732 0
0.352941176471209 0.4075413664875325 0
0.3823529411771294 0.4584840372983598 0
0.4117647058829753 0.5094267081090578 0
0.4411764705888445 0.5603693789197958 0
0.4705882352947289 0.6113120497305604 0
0.5000000000005915 0.6622547205412879 0
0.5294117647064777 0.713197391352055 0
0.5588235294123605 0.764140062162817 0
0.5882352941183078 0.8150827329736903 0
0.2058823529408984 0.05094267081087834 0
0.2352941176469173 0.1018853416218261 0
0.2647058823529239 0.1528280124327527 0
0.2941176470589375 0.2037706832436913 0
0.3235294117649445 0.2547133540546186 0
0.3529411764709597 0.3056560248655603 0
0.3823529411769665 0.3565986956764867 0
0.4117647058829823 0.4075413664874293 0
0.4411764705889321 0.4584840372982575 0
0.4705882352948174 0.5094267081089738 0
0.5000000000007236 0.5603693789197265 0
0.5294117647066443 0.6113120497305042 0
0.5588235294125443 0.6622547205412465 0
0.5882352941184666 0.7131973913520271 0
0.6176470588243853 0.7641400621628016 0
0.6470588235303651 0.8150827329736815 0
0.2647058823525164 0.05094267081087078 0
0.2941176470585579 0.1018853416218071 0
0.3235294117645864 0.1528280124327205 0
0.3529411764706208 0.2037706832436444 0
0.3823529411766495 0.2547133540545588 0
0.4117647058826863 0.305656024865487 0
0.4411764705887146 0.3565986956764001 0
0.4705882352947501 0.407541366487326 0
0.5000000000007296 0.4584840372981551 0
0.5294117647066551 0.5094267081088901 0
0.5588235294125987 0.5603693789196568 0
0.5882352941185569 0.6113120497304481 0
0.6176470588244947 0.6622547205412053 0
0.6470588235304542 0.7131973913519992 0
0.6764705882364095 0.7641400621627862 0
0.7058823529424219 0.8150827329736722 0
0.3235294117641344 0.05094267081086322 0
0.3529411764701986 0.101885341621788 0
0.3823529411762487 0.1528280124326882 0
0.4117647058823039 0.2037706832435976 0
0.4411764705883547 0.2547133540544991 0
0.470588235294413 0.3056560248654135 0
0.500000000000463 0.3565986956763135 0
0.5294117647065182 0.4075413664872228 0
0.5588235294125277 0.4584840372980528 0
0.588235294118493 0.5094267081088064 0
0.6176470588244738 0.560369378919587 0
0.6470588235304688 0.6113120497303922 0
0.6764705882364448 0.662254720541164 0
0.7058823529424412 0.7131973913519714 0
0.7352941176484333 0.7641400621627709 0
0.7647058823544787 0.8150827329736628 0
0.3823529411757523 0.05094267081085567 0
0.4117647058818393 0.101885341621769 0
0.4411764705879109 0.152828012432656 0
0.4705882352939871 0.2037706832435507 0
0.5000000000000595 0.2547133540544393 0
0.5294117647061396 0.3056560248653402 0
0.558823529412211 0.3565986956762269 0
0.588235294118286 0.4075413664871197 0
0.6176470588243255 0.4584840372979504 0
0.6470588235303305 0.5094267081087227 0
0.6764705882363492 0.5603693789195173 0
0.7058823529423813 0.611312049730336 0
0.7352941176483954 0.6622547205411229 0
0.7647058823544286 0.7131973913519432 0
0.7941176470604572 0.7641400621627557 0
0.8235294117665355 0.8150827329736539 0
0.4411764705873702 0.05094267081084812 0
0.4705882352934798 0.1018853416217499 0
0.4999999999995733 0.1528280124326237 0
0.5294117647056704 0.2037706832435039 0
0.5588235294117648 0.2547133540543795 0
0.5882352941178661 0.305656024865267 0
0.6176470588239592 0.3565986956761403 0
0.647058823530054 0.4075413664870166 0
0.6764705882361228 0.4584840372978481 0
0.7058823529421685 0.509426708108639 0
0.7352941176482245 0.5603693789194478 0
0.7647058823542938 0.6113120497302797 0
0.7941176470603454 0.6622547205410816 0
0.8235294117664157 0.7131973913519152 0
0.852941176472481 0.7641400621627401 0
0.8823529411785922 0.8150827329736445 0
0.4999999999989881 0.05094267081084057 0
0.5294117647051204 0.1018853416217308 0
0.5588235294112357 0.1528280124325915 0
0.5882352941173539 0.203770683243457 0
0.6176470588234698 0.2547133540543197 0
0.6470588235295927 0.3056560248651936 0
0.6764705882357076 0.3565986956760537 0
0.7058823529418218 0.4075413664869133 0
0.7352941176479206 0.4584840372977458 0
0.7647058823540063 0.5094267081085551 0
0.7941176470600999 0.5603693789193782 0
0.8235294117662062 0.6113120497302238 0
0.8529411764722956 0.6622547205410403 0
0.8823529411784031 0.7131973913518872 0
0.9117647058845046 0.7641400621627249 0
0.9411764705906489 0.8150827329736358 0
0.5588235294107405 0.05094267081083302 0
0.5882352941168669 0.1018853416217118 0
0.617647058822975 0.1528280124325592 0
0.6470588235290852 0.2037706832434102 0
0.6764705882351943 0.2547133540542599 0
0.7058823529413097 0.3056560248651202 0
0.7352941176474173 0.3565986956759671 0
0.7647058823535225 0.4075413664868101 0
0.7941176470596224 0.4584840372976434 0
0.823529411765719 0.5094267081084713 0
0.8529411764718214 0.5603693789193085 0
0.8823529411779363 0.6113120497301674 0
0.9117647058840348 0.6622547205409992 0
0.9411764705901502 0.7131973913518592 0
0.9705882352962596 0.7641400621627094 0
1.000000000002408 0.8150827329736264 0
0.6176470588226282 0.05094267081082546 0
0.647058823528719 0.1018853416216927 0
0.6764705882347911 0.152828012432527 0
0.7058823529408643 0.2037706832433633 0
0.7352941176469379 0.2547133540542002 0
0.7647058823530171 0.3056560248650469 0
0.7941176470590888 0.3565986956758805 0
0.8235294117651561 0.4075413664867067 0
0.8529411764712281 0.4584840372975411 0
0.8823529411773072 0.5094267081083876 0
0.9117647058833893 0.5603693789192389 0
0.9411764705894832 0.6113120497301116 0
0.9705882352955625 0.6622547205409579 0
1.000000000001657 0.7131973913518312 0
1.029411764707745 0.7641400621626941 0
1.058823529413869 0.8150827329736173 0
0.6764705882345152 0.05094267081081792 0
0.7058823529405713 0.1018853416216736 0
0.7352941176466073 0.1528280124324947 0
0.7647058823526438 0.2037706832433164 0
0.7941176470586812 0.2547133540541404 0
0.8235294117647245 0.3056560248649736 0
0.8529411764707602 0.3565986956757939 0
0.8823529411767896 0.4075413664866036 0
0.9117647058828338 0.4584840372974387 0
0.9411764705888952 0.5094267081083039 0
0.9705882352949572 0.5603693789191695 0
1.000000000001031 0.6113120497300554 0
1.02941176470709 0.6622547205409166 0
1.058823529413164 0.7131973913518033 0
1.088235294119231 0.7641400621626788 0
1.11764705882533 0.8150827329736081 0
0.7352941176464023 0.05094267081081037 0
0.7647058823524231 0.1018853416216546 0
0.7941176470584237 0.1528280124324624 0
0.8235294117644234 0.2037706832432696 0
0.8529411764704252 0.2547133540540805 0
0.8823529411764319 0.3056560248649003 0
0.9117647058824317 0.3565986956757074 0
0.9411764705884231 0.4075413664865002 0
0.9705882352944395 0.4584840372973363 0
1.000000000000484 0.5094267081082202 0
1.029411764706525 0.5603693789190999 0
1.058823529412578 0.6113120497299992 0
1.088235294118618 0.6622547205408753 0
1.117647058824671 0.7131973913517756 0
1.147058823530717 0.7641400621626634 0
1.176470588236791 0.8150827329735989 0
0.7941176470582892 0.05094267081080282 0
0.8235294117642754 0.1018853416216355 0
0.8529411764702399 0.1528280124324302 0
0.8823529411762027 0.2037706832432228 0
0.9117647058821686 0.2547133540540208 0
0.9411764705881394 0.3056560248648269 0
0.9705882352941034 0.3565986956756207 0
1.000000000000056 0.4075413664863972 0
1.029411764706045 0.458484037297234 0
1.058823529412071 0.5094267081081363 0
1.088235294118093 0.5603693789190302 0
1.117647058824125 0.6113120497299432 0
1.147058823530145 0.6622547205408341 0
1.176470588236178 0.7131973913517475 0
1.205882352942203 0.7641400621626481 0
1.235294117648253 0.81508273297359 0
0.8529411764701765 0.05094267081079527 0
0.8823529411761278 0.1018853416216165 0
0.9117647058820558 0.1528280124323979 0
0.9411764705879822 0.2037706832431759 0
0.9705882352939124 0.2547133540539611 0
0.9999999999998472 0.3056560248647536 0
1.029411764705775 0.3565986956755342 0
1.05882352941169 0.407541366486294 0
1.088235294117651 0.4584840372971317 0
1.11764705882366 0.5094267081080526 0
1.147058823529661 0.5603693789189605 0
1.176470588235673 0.6113120497298868 0
1.205882352941673 0.6622547205407929 0
1.235294117647685 0.7131973913517197 0
1.264705882353689 0.7641400621626325 0
1.294117647059714 0.8150827329735807 0
0.9117647058820638 0.05094267081078772 0
0.9411764705879798 0.1018853416215974 0
0.9705882352938723 0.1528280124323657 0
0.9999999999997617 0.2037706832431291 0
1.029411764705656 0.2547133540539012 0
1.058823529411555 0.3056560248646804 0
1.088235294117446 0.3565986956754476 0
1.117647058823324 0.4075413664861908 0
1.147058823529257 0.4584840372970294 0
1.176470588235248 0.5094267081079689 0
1.205882352941229 0.5603693789188912 0
1.23529411764722 0.6113120497298309 0
1.2647058823532 0.6622547205407516 0
1.294117647059192 0.7131973913516919 0
1.323529411765175 0.7641400621626175 0
1.352941176471175 0.8150827329735719 0
0.9705882352939509 0.05094267081078017 0
0.9999999999998319 0.1018853416215783 0
1.029411764705688 0.1528280124323334 0
1.058823529411541 0.2037706832430822 0
1.088235294117399 0.2547133540538414 0
1.117647058823262 0.3056560248646069 0
1.147058823529118 0.356598695675361 0
1.176470588234957 0.4075413664860875 0
1.205882352940862 0.458484037296927 0
1.235294117646835 0.5094267081078852 0
1.264705882352797 0.5603693789188214 0
1.294117647058767 0.6113120497297747 0
1.323529411764728 0.6622547205407104 0
1.352941176470699 0.7131973913516639 0
1.382352941176661 0.7641400621626019 0
1.411764705882635 0.8150827329735624 0
$EndNodes
$Elements
6 2380 1 6498
1 1 1 17
1 1 5 
2 5 6 
3 6 7 
4 7 8 
5 8 9 
6 9 10 
7 10 11 
8 11 12 
9 12 13 
10 13 14 
11 14 15 
12 15 16 
13 16 17 
14 17 18 
15 18 19 
16 19 20 
17 20 2 
1 2 1 17
18 2 21 
19 21 22 
20 22 23 
21 23 24 
22 24 25 
23 25 26 
24 26 27 
25 27 28 
26 28 29 
27 29 30 
28 30 31 
29 31 32 
30 32 33 
31 33 34 
32 34 35 
33 35 36 
34 36 3 
1 3 1 17
35 3 37 
36 37 38 
37 38 39 
38 39 40 
39 40 41 
40 41 42 
41 42 43 
42 43 44 
43 44 45 
44 45 46 
45 46 47 
46 47 48 
47 48 49 
48 49 50 
49 50 51 
50 51 52 
51 52 4 
1 4 1 17
52 4 53 
53 53 54 
54 54 55 
55 55 56 
56 56 57 
57 57 58 
58 58 59 
59 59 60 
60 60 61 
61 61 62 
62 62 63 
63 63 64 
64 64 65 
65 65 66 
66 66 67 
67 67 68 
68 68 1 
1 5 1 1734
4765 1 5 
4766 5 68 
4767 68 1 
4768 68 5 
4769 5 69 
4770 69 68 
4771 68 69 
4772 69 70 
4773 70 68 
4774 70 67 
4775 67 68 
4776 68 70 
4777 67 70 
4778 70 66 
4779 66 67 
4780 66 70 
4781 70 71 
4782 71 66 
4783 66 71 
4784 71 72 
4785 72 66 
4786 72 65 
4787 65 66 
4788 66 72 
4789 65 72 
4790 72 64 
4791 64 65 
4792 64 72 
4793 72 73 
4794 73 64 
4795 64 73 
4796 73 74 
4797 74 64 
4798 74 63 
4799 63 64 
4800 64 74 
4801 63 74 
4802 74 62 
4803 62 63 
4804 62 74 
4805 74 75 
4806 75 62 
4807 62 75 
4808 75 76 
4809 76 62 
4810 76 61 
4811 61 62 
4812 62 76 
4813 61 76 
4814 76 60 
4815 60 61 
4816 60 76 
4817 76 77 
4818 77 60 
4819 60 77 
4820 77 78 
4821 78 60 
4822 78 59 
4823 59 60 
4824 60 78 
4825 59 78 
4826 78 58 
4827 58 59 
4828 58 78 
4829 78 79 
4830 79 58 
4831 58 79 
4832 79 80 
4833 80 58 
4834 80 57 
4835 57 58 
4836 58 80 
4837 57 80 
4838 80 56 
4839 56 57 
4840 56 80 
4841 80 81 
4842 81 56 
4843 56 81 
4844 81 82 
4845 82 56 
4846 82 55 
4847 55 56 
4848 56 82 
4849 55 82 
4850 82 54 
4851 54 55 
4852 54 82 
4853 82 83 
4854 83 54 
4855 54 83 
4856 83 84 
4857 84 54 
4858 84 53 
4859 53 54 
4860 54 84 
4861 53 84 
4862 84 4 
4863 4 53 
4864 4 84 
4865 84 52 
4866 52 4 
4867 5 6 
4868 6 85 
4869 85 5 
4870 85 69 
4871 69 5 
4872 5 85 
4873 69 85 
4874 85 70 
4875 70 69 
4876 70 85 
4877 85 86 
4878 86 70 
4879 70 86 
4880 86 87 
4881 87 70 
4882 87 71 
4883 71 70 
4884 70 87 
4885 71 87 
4886 87 72 
4887 72 71 
4888 72 87 
4889 87 88 
4890 88 72 
4891 72 88 
4892 88 89 
4893 89 72 
4894 89 73 
4895 73 72 
4896 72 89 
4897 73 89 
4898 89 74 
4899 74 73 
4900 74 89 
4901 89 90 
4902 90 74 
4903 74 90 
4904 90 91 
4905 91 74 
4906 91 75 
4907 75 74 
4908 74 91 
4909 75 91 
4910 91 76 
4911 76 75 
4912 76 91 
4913 91 92 
4914 92 76 
4915 76 92 
4916 92 93 
4917 93 76 
4918 93 77 
4919 77 76 
4920 76 93 
4921 77 93 
4922 93 78 
4923 78 77 
4924 78 93 
4925 93 94 
4926 94 78 
4927 78 94 
4928 94 95 
4929 95 78 
4930 95 79 
4931 79 78 
4932 78 95 
4933 79 95 
4934 95 80 
4935 80 79 
4936 80 95 
4937 95 96 
4938 96 80 
4939 80 96 
4940 96 97 
4941 97 80 
4942 97 81 
4943 81 80 
4944 80 97 
4945 81 97 
4946 97 82 
4947 82 81 
4948 82 97 
4949 97 98 
4950 98 82 
4951 82 98 
4952 98 99 
4953 99 82 
4954 99 83 
4955 83 82 
4956 82 99 
4957 83 99 
4958 99 84 
4959 84 83 
4960 84 99 
4961 99 100 
4962 100 84 
4963 84 100 
4964 100 51 
4965 51 84 
4966 51 52 
4967 52 84 
4968 84 51 
4969 6 7 
4970 7 85 
4971 85 6 
4972 85 7 
4973 7 101 
4974 101 85 
4975 85 101 
4976 101 102 
4977 102 85 
4978 102 86 
4979 86 85 
4980 85 102 
4981 86 102 
4982 102 87 
4983 87 86 
4984 87 102 
4985 102 103 
4986 103 87 
4987 87 103 
4988 103 104 
4989 104 87 
4990 104 88 
4991 88 87 
4992 87 104 
4993 88 104 
4994 104 89 
4995 89 88 
4996 89 104 
4997 104 105 
4998 105 89 
4999 89 105 
5000 105 106 
5001 106 89 
5002 106 90 
5003 90 89 
5004 89 106 
5005 90 106 
5006 106 91 
5007 91 90 
5008 91 106 
5009 106 107 
5010 107 91 
5011 91 107 
5012 107 108 
5013 108 91 
5014 108 92 
5015 92 91 
5016 91 108 
5017 92 108 
5018 108 93 
5019 93 92 
5020 93 108 
5021 108 109 
5022 109 93 
5023 93 109 
5024 109 110 
5025 110 93 
5026 110 94 
5027 94 93 
5028 93 110 
5029 94 110 
5030 110 95 
5031 95 94 
5032 95 110 
5033 110 111 
5034 111 95 
5035 95 111 
5036 111 112 
5037 112 95 
5038 112 96 
5039 96 95 
5040 95 112 
5041 96 112 
5042 112 97 
5043 97 96 
5044 97 112 
5045 112 113 
5046 113 97 
5047 97 113 
5048 113 114 
5049 114 97 
5050 114 98 
5051 98 97 
5052 97 114 
5053 98 114 
5054 114 99 
5055 99 98 
5056 99 114 
5057 114 115 
5058 115 99 
5059 99 115 
5060 115 116 
5061 116 99 
5062 116 100 
5063 100 99 
5064 99 116 
5065 100 116 
5066 116 51 
5067 51 100 
5068 51 116 
5069 116 50 
5070 50 51 
5071 7 8 
5072 8 117 
5073 117 7 
5074 117 101 
5075 101 7 
5076 7 117 
5077 101 117 
5078 117 102 
5079 102 101 
5080 102 117 
5081 117 118 
5082 118 102 
5083 102 118 
5084 118 119 
5085 119 102 
5086 119 103 
5087 103 102 
5088 102 119 
5089 103 119 
5090 119 104 
5091 104 103 
5092 104 119 
5093 119 120 
5094 120 104 
5095 104 120 
5096 120 121 
5097 121 104 
5098 121 105 
5099 105 104 
5100 104 121 
5101 105 121 
5102 121 106 
5103 106 105 
5104 106 121 
5105 121 122 
5106 122 106 
5107 106 122 
5108 122 123 
5109 123 106 
5110 123 107 
5111 107 106 
5112 106 123 
5113 107 123 
5114 123 108 
5115 108 107 
5116 108 123 
5117 123 124 
5118 124 108 
5119 108 124 
5120 124 125 
5121 125 108 
5122 125 109 
5123 109 108 
5124 108 125 
5125 109 125 
5126 125 110 
5127 110 109 
5128 110 125 
5129 125 126 
5130 126 110 
5131 110 126 
5132 126 127 
5133 127 110 
5134 127 111 
5135 111 110 
5136 110 127 
5137 111 127 
5138 127 112 
5139 112 111 
5140 112 127 
5141 127 128 
5142 128 112 
5143 112 128 
5144 128 129 
5145 129 112 
5146 129 113 
5147 113 112 
5148 112 129 
5149 113 129 
5150 129 114 
5151 114 113 
5152 114 129 
5153 129 130 
5154 130 114 
5155 114 130 
5156 130 131 
5157 131 114 
5158 131 115 
5159 115 114 
5160 114 131 
5161 115 131 
5162 131 116 
5163 116 115 
5164 116 131 
5165 131 132 
5166 132 116 
5167 116 132 
5168 132 49 
5169 49 116 
5170 49 50 
5171 50 116 
5172 116 49 
5173 8 9 
5174 9 117 
5175 117 8 
5176 117 9 
5177 9 133 
5178 133 117 
5179 117 133 
5180 133 134 
5181 134 117 
5182 134 118 
5183 118 117 
5184 117 134 
5185 118 134 
5186 134 119 
5187 119 118 
5188 119 134 
5189 134 135 
5190 135 119 
5191 119 135 
5192 135 136 
5193 136 119 
5194 136 120 
5195 120 119 
5196 119 136 
5197 120 136 
5198 136 121 
5199 121 120 
5200 121 136 
5201 136 137 
5202 137 121 
5203 121 137 
5204 137 138 
5205 138 121 
5206 138 122 
5207 122 121 
5208 121 138 
5209 122 138 
5210 138 123 
5211 123 122 
5212 123 138 
5213 138 139 
5214 139 123 
5215 123 139 
5216 139 140 
5217 140 123 
5218 140 124 
5219 124 123 
5220 123 140 
5221 124 140 
5222 140 125 
5223 125 124 
5224 125 140 
5225 140 141 
5226 141 125 
5227 125 141 
5228 141 142 
5229 142 125 
5230 142 126 
5231 126 125 
5232 125 142 
5233 126 142 
5234 142 127 
5235 127 126 
5236 127 142 
5237 142 143 
5238 143 127 
5239 127 143 
5240 143 144 
5241 144 127 
5242 144 128 
5243 128 127 
5244 127 144 
5245 128 144 
5246 144 129 
5247 129 128 
5248 129 144 
5249 144 145 
5250 145 129 
5251 129 145 
5252 145 146 
5253 146 129 
5254 146 130 
5255 130 129 
5256 129 146 
5257 130 146 
5258 146 131 
5259 131 130 
5260 131 146 
5261 146 147 
5262 147 131 
5263 131 147 
5264 147 148 
5265 148 131 
5266 148 132 
5267 132 131 
5268 131 148 
5269 132 148 
5270 148 49 
5271 49 132 
5272 49 148 
5273 148 48 
5274 48 49 
5275 9 10 
5276 10 149 
5277 149 9 
5278 149 133 
5279 133 9 
5280 9 149 
5281 133 149 
5282 149 134 
5283 134 133 
5284 134 149 
5285 149 150 
5286 150 134 
5287 134 150 
5288 150 151 
5289 151 134 
5290 151 135 
5291 135 134 
5292 134 151 
5293 135 151 
5294 151 136 
5295 136 135 
5296 136 151 
5297 151 152 
5298 152 136 
5299 136 152 
5300 152 153 
5301 153 136 
5302 153 137 
5303 137 136 
5304 136 153 
5305 137 153 
5306 153 138 
5307 138 137 
5308 138 153 
5309 153 154 
5310 154 138 
5311 138 154 
5312 154 155 
5313 155 138 
5314 155 139 
5315 139 138 
5316 138 155 
5317 139 155 
5318 155 140 
5319 140 139 
5320 140 155 
5321 155 156 
5322 156 140 
5323 140 156 
5324 156 157 
5325 157 140 
5326 157 141 
5327 141 140 
5328 140 157 
5329 141 157 
5330 157 142 
5331 142 141 
5332 142 157 
5333 157 158 
5334 158 142 
5335 142 158 
5336 158 159 
5337 159 142 
5338 159 143 
5339 143 142 
5340 142 159 
5341 143 159 
5342 159 144 
5343 144 143 
5344 144 159 
5345 159 160 
5346 160 144 
5347 144 160 
5348 160 161 
5349 161 144 
5350 161 145 
5351 145 144 
5352 144 161 
5353 145 161 
5354 161 146 
5355 146 145 
5356 146 161 
5357 161 162 
5358 162 146 
5359 146 162 
5360 162 163 
5361 163 146 
5362 163 147 
5363 147 146 
5364 146 163 
5365 147 163 
5366 163 148 
5367 148 147 
5368 148 163 
5369 163 164 
5370 164 148 
5371 148 164 
5372 164 47 
5373 47 148 
5374 47 48 
5375 48 148 
5376 148 47 
5377 10 11 
5378 11 149 
5379 149 10 
5380 149 11 
5381 11 165 
5382 165 149 
5383 149 165 
5384 165 166 
5385 166 149 
5386 166 150 
5387 150 149 
5388 149 166 
5389 150 166 
5390 166 151 
5391 151 150 
5392 151 166 
5393 166 167 
5394 167 151 
5395 151 167 
5396 167 168 
5397 168 151 
5398 168 152 
5399 152 151 
5400 151 168 
5401 152 168 
5402 168 153 
5403 153 152 
5404 153 168 
5405 168 169 
5406 169 153 
5407 153 169 
5408 169 170 
5409 170 153 
5410 170 154 
5411 154 153 
5412 153 170 
5413 154 170 
5414 170 155 
5415 155 154 
5416 155 170 
5417 170 171 
5418 171 155 
5419 155 171 
5420 171 172 
5421 172 155 
5422 172 156 
5423 156 155 
5424 155 172 
5425 156 172 
5426 172 157 
5427 157 156 
5428 157 172 
5429 172 173 
5430 173 157 
5431 157 173 
5432 173 174 
5433 174 157 
5434 174 158 
5435 158 157 
5436 157 174 
5437 158 174 
5438 174 159 
5439 159 158 
5440 159 174 
5441 174 175 
5442 175 159 
5443 159 175 
5444 175 176 
5445 176 159 
5446 176 160 
5447 160 159 
5448 159 176 
5449 160 176 
5450 176 161 
5451 161 160 
5452 161 176 
5453 176 177 
5454 177 161 
5455 161 177 
5456 177 178 
5457 178 161 
5458 178 162 
5459 162 161 
5460 161 178 
5461 162 178 
5462 178 163 
5463 163 162 
5464 163 178 
5465 178 179 
5466 179 163 
5467 163 179 
5468 179 180 
5469 180 163 
5470 180 164 
5471 164 163 
5472 163 180 
5473 164 180 
5474 180 47 
5475 47 164 
5476 47 180 
5477 180 46 
5478 46 47 
5479 11 12 
5480 12 181 
5481 181 11 
5482 181 165 
5483 165 11 
5484 11 181 
5485 165 181 
5486 181 166 
5487 166 165 
5488 166 181 
5489 181 182 
5490 182 166 
5491 166 182 
5492 182 183 
5493 183 166 
5494 183 167 
5495 167 166 
5496 166 183 
5497 167 183 
5498 183 168 
5499 168 167 
5500 168 183 
5501 183 184 
5502 184 168 
5503 168 184 
5504 184 185 
5505 185 168 
5506 185 169 
5507 169 168 
5508 168 185 
5509 169 185 
5510 185 170 
5511 170 169 
5512 170 185 
5513 185 186 
5514 186 170 
5515 170 186 
5516 186 187 
5517 187 170 
5518 187 171 
5519 171 170 
5520 170 187 
5521 171 187 
5522 187 172 
5523 172 171 
5524 172 187 
5525 187 188 
5526 188 172 
5527 172 188 
5528 188 189 
5529 189 172 
5530 189 173 
5531 173 172 
5532 172 189 
5533 173 189 
5534 189 174 
5535 174 173 
5536 174 189 
5537 189 190 
5538 190 174 
5539 174 190 
5540 190 191 
5541 191 174 
5542 191 175 
5543 175 174 
5544 174 191 
5545 175 191 
5546 191 176 
5547 176 175 
5548 176 191 
5549 191 192 
5550 192 176 
5551 176 192 
5552 192 193 
5553 193 176 
5554 193 177 
5555 177 176 
5556 176 193 
5557 177 193 
5558 193 178 
5559 178 177 
5560 178 193 
5561 193 194 
5562 194 178 
5563 178 194 
5564 194 195 
5565 195 178 
5566 195 179 
5567 179 178 
5568 178 195 
5569 179 195 
5570 195 180 
5571 180 179 
5572 180 195 
5573 195 196 
5574 196 180 
5575 180 196 
5576 196 45 
5577 45 180 
5578 45 46 
5579 46 180 
5580 180 45 
5581 12 13 
5582 13 181 
5583 181 12 
5584 181 13 
5585 13 197 
5586 197 181 
5587 181 197 
5588 197 198 
5589 198 181 
5590 198 182 
5591 182 181 
5592 181 198 
5593 182 198 
5594 198 183 
5595 183 182 
5596 183 198 
5597 198 199 
5598 199 183 
5599 183 199 
5600 199 200 
5601 200 183 
5602 200 184 
5603 184 183 
5604 183 200 
5605 184 200 
5606 200 185 
5607 185 184 
5608 185 200 
5609 200 201 
5610 201 185 
5611 185 201 
5612 201 202 
5613 202 185 
5614 202 186 
5615 186 185 
5616 185 202 
5617 186 202 
5618 202 187 
5619 187 186 
5620 187 202 
5621 202 203 
5622 203 187 
5623 187 203 
5624 203 204 
5625 204 187 
5626 204 188 
5627 188 187 
5628 187 204 
5629 188 204 
5630 204 189 
5631 189 188 
5632 189 204 
5633 204 205 
5634 205 189 
5635 189 205 
5636 205 206 
5637 206 189 
5638 206 190 
5639 190 189 
5640 189 206 
5641 190 206 
5642 206 191 
5643 191 190 
5644 191 206 
5645 206 207 
5646 207 191 
5647 191 207 
5648 207 208 
5649 208 191 
5650 208 192 
5651 192 191 
5652 191 208 
5653 192 208 
5654 208 193 
5655 193 192 
5656 193 208 
5657 208 209 
5658 209 193 
5659 193 209 
5660 209 210 
5661 210 193 
5662 210 194 
5663 194 193 
5664 193 210 
5665 194 210 
5666 210 195 
5667 195 194 
5668 195 210 
5669 210 211 
5670 211 195 
5671 195 211 
5672 211 212 
5673 212 195 
5674 212 196 
5675 196 195 
5676 195 212 
5677 196 212 
5678 212 45 
5679 45 196 
5680 45 212 
5681 212 44 
5682 44 45 
5683 13 14 
5684 14 213 
5685 213 13 
5686 213 197 
5687 197 13 
5688 13 213 
5689 197 213 
5690 213 198 
5691 198 197 
5692 198 213 
5693 213 214 
5694 214 198 
5695 198 214 
5696 214 215 
5697 215 198 
5698 215 199 
5699 199 198 
5700 198 215 
5701 199 215 
5702 215 200 
5703 200 199 
5704 200 215 
5705 215 216 
5706 216 200 
5707 200 216 
5708 216 217 
5709 217 200 
5710 217 201 
5711 201 200 
5712 200 217 
5713 201 217 
5714 217 202 
5715 202 201 
5716 202 217 
5717 217 218 
5718 218 202 
5719 202 218 
5720 218 219 
5721 219 202 
5722 219 203 
5723 203 202 
5724 202 219 
5725 203 219 
5726 219 204 
5727 204 203 
5728 204 219 
5729 219 220 
5730 220 204 
5731 204 220 
5732 220 221 
5733 221 204 
5734 221 205 
5735 205 204 
5736 204 221 
5737 205 221 
5738 221 206 
5739 206 205 
5740 206 221 
5741 221 222 
5742 222 206 
5743 206 222 
5744 222 223 
5745 223 206 
5746 223 207 
5747 207 206 
5748 206 223 
5749 207 223 
5750 223 208 
5751 208 207 
5752 208 223 
5753 223 224 
5754 224 208 
5755 208 224 
5756 224 225 
5757 225 208 
5758 225 209 
5759 209 208 
5760 208 225 
5761 209 225 
5762 225 210 
5763 210 209 
5764 210 225 
5765 225 226 
5766 226 210 
5767 210 226 
5768 226 227 
5769 227 210 
5770 227 211 
5771 211 210 
5772 210 227 
5773 211 227 
5774 227 212 
5775 212 211 
5776 212 227 
5777 227 228 
5778 228 212 
5779 212 228 
5780 228 43 
5781 43 212 
5782 43 44 
5783 44 212 
5784 212 43 
5785 14 15 
5786 15 213 
5787 213 14 
5788 213 15 
5789 15 229 
5790 229 213 
5791 213 229 
5792 229 230 
5793 230 213 
5794 230 214 
5795 214 213 
5796 213 230 
5797 214 230 
5798 230 215 
5799 215 214 
5800 215 230 
5801 230 231 
5802 231 215 
5803 215 231 
5804 231 232 
5805 232 215 
5806 232 216 
5807 216 215 
5808 215 232 
5809 216 232 
5810 232 217 
5811 217 216 
5812 217 232 
5813 232 233 
5814 233 217 
5815 217 233 
5816 233 234 
5817 234 217 
5818 234 218 
5819 218 217 
5820 217 234 
5821 218 234 
5822 234 219 
5823 219 218 
5824 219 234 
5825 234 235 
5826 235 219 
5827 219 235 
5828 235 236 
5829 236 219 
5830 236 220 
5831 220 219 
5832 219 236 
5833 220 236 
5834 236 221 
5835 221 220 
5836 221 236 
5837 236 237 
5838 237 221 
5839 221 237 
5840 237 238 
5841 238 221 
5842 238 222 
5843 222 221 
5844 221 238 
5845 222 238 
5846 238 223 
5847 223 222 
5848 223 238 
5849 238 239 
5850 239 223 
5851 223 239 
5852 239 240 
5853 240 223 
5854 240 224 
5855 224 223 
5856 223 240 
5857 224 240 
5858 240 225 
5859 225 224 
5860 225 240 
5861 240 241 
5862 241 225 
5863 225 241 
5864 241 242 
5865 242 225 
5866 242 226 
5867 226 225 
5868 225 242 
5869 226 242 
5870 242 227 
5871 227 226 
5872 227 242 
5873 242 243 
5874 243 227 
5875 227 243 
5876 243 244 
5877 244 227 
5878 244 228 
5879 228 227 
5880 227 244 
5881 228 244 
5882 244 43 
5883 43 228 
5884 43 244 
5885 244 42 
5886 42 43 
5887 15 16 
5888 16 245 
5889 245 15 
5890 245 229 
5891 229 15 
5892 15 245 
5893 229 245 
5894 245 230 
5895 230 229 
5896 230 245 
5897 245 246 
5898 246 230 
5899 230 246 
5900 246 247 
5901 247 230 
5902 247 231 
5903 231 230 
5904 230 247 
5905 231 247 
5906 247 232 
5907 232 231 
5908 232 247 
5909 247 248 
5910 248 232 
5911 232 248 
5912 248 249 
5913 249 232 
5914 249 233 
5915 233 232 
5916 232 249 
5917 233 249 
5918 249 234 
5919 234 233 
5920 234 249 
5921 249 250 
5922 250 234 
5923 234 250 
5924 250 251 
5925 251 234 
5926 251 235 
5927 235 234 
5928 234 251 
5929 235 251 
5930 251 236 
5931 236 235 
5932 236 251 
5933 251 252 
5934 252 236 
5935 236 252 
5936 252 253 
5937 253 236 
5938 253 237 
5939 237 236 
5940 236 253 
5941 237 253 
5942 253 238 
5943 238 237 
5944 238 253 
5945 253 254 
5946 254 238 
5947 238 254 
5948 254 255 
5949 255 238 
5950 255 239 
5951 239 238 
5952 238 255 
5953 239 255 
5954 255 240 
5955 240 239 
5956 240 255 
5957 255 256 
5958 256 240 
5959 240 256 
5960 256 257 
5961 257 240 
5962 257 241 
5963 241 240 
5964 240 257 
5965 241 257 
5966 257 242 
5967 242 241 
5968 242 257 
5969 257 258 
5970 258 242 
5971 242 258 
5972 258 259 
5973 259 242 
5974 259 243 
5975 243 242 
5976 242 259 
5977 243 259 
5978 259 244 
5979 244 243 
5980 244 259 
5981 259 260 
5982 260 244 
5983 244 260 
5984 260 41 
5985 41 244 
5986 41 42 
5987 42 244 
5988 244 41 
5989 16 17 
5990 17 245 
5991 245 16 
5992 245 17 
5993 17 261 
5994 261 245 
5995 245 261 
5996 261 262 
5997 262 245 
5998 262 246 
5999 246 245 
6000 245 262 
6001 246 262 
6002 262 247 
6003 247 246 
6004 247 262 
6005 262 263 
6006 263 247 
6007 247 263 
6008 263 264 
6009 264 247 
6010 264 248 
6011 248 247 
6012 247 264 
6013 248 264 
6014 264 249 
6015 249 248 
6016 249 264 
6017 264 265 
6018 265 249 
6019 249 265 
6020 265 266 
6021 266 249 
6022 266 250 
6023 250 249 
6024 249 266 
6025 250 266 
6026 266 251 
6027 251 250 
6028 251 266 
6029 266 267 
6030 267 251 
6031 251 267 
6032 267 268 
6033 268 251 
6034 268 252 
6035 252 251 
6036 251 268 
6037 252 268 
6038 268 253 
6039 253 252 
6040 253 268 
6041 268 269 
6042 269 253 
6043 253 269 
6044 269 270 
6045 270 253 
6046 270 254 
6047 254 253 
6048 253 270 
6049 254 270 
6050 270 255 
6051 255 254 
6052 255 270 
6053 270 271 
6054 271 255 
6055 255 271 
6056 271 272 
6057 272 255 
6058 272 256 
6059 256 255 
6060 255 272 
6061 256 272 
6062 272 257 
6063 257 256 
6064 257 272 
6065 272 273 
6066 273 257 
6067 257 273 
6068 273 274 
6069 274 257 
6070 274 258 
6071 258 257 
6072 257 274 
6073 258 274 
6074 274 259 
6075 259 258 
6076 259 274 
6077 274 275 
6078 275 259 
6079 259 275 
6080 275 276 
6081 276 259 
6082 276 260 
6083 260 259 
6084 259 276 
6085 260 276 
6086 276 41 
6087 41 260 
6088 41 276 
6089 276 40 
6090 40 41 
6091 17 18 
6092 18 277 
6093 277 17 
6094 277 261 
6095 261 17 
6096 17 277 
6097 261 277 
6098 277 262 
6099 262 261 
6100 262 277 
6101 277 278 
6102 278 262 
6103 262 278 
6104 278 279 
6105 279 262 
6106 279 263 
6107 263 262 
6108 262 279 
6109 263 279 
6110 279 264 
6111 264 263 
6112 264 279 
6113 279 280 
6114 280 264 
6115 264 280 
6116 280 281 
6117 281 264 
6118 281 265 
6119 265 264 
6120 264 281 
6121 265 281 
6122 281 266 
6123 266 265 
6124 266 281 
6125 281 282 
6126 282 266 
6127 266 282 
6128 282 283 
6129 283 266 
6130 283 267 
6131 267 266 
6132 266 283 
6133 267 283 
6134 283 268 
6135 268 267 
6136 268 283 
6137 283 284 
6138 284 268 
6139 268 284 
6140 284 285 
6141 285 268 
6142 285 269 
6143 269 268 
6144 268 285 
6145 269 285 
6146 285 270 
6147 270 269 
6148 270 285 
6149 285 286 
6150 286 270 
6151 270 286 
6152 286 287 
6153 287 270 
6154 287 271 
6155 271 270 
6156 270 287 
6157 271 287 
6158 287 272 
6159 272 271 
6160 272 287 
6161 287 288 
6162 288 272 
6163 272 288 
6164 288 289 
6165 289 272 
6166 289 273 
6167 273 272 
6168 272 289 
6169 273 289 
6170 289 274 
6171 274 273 
6172 274 289 
6173 289 290 
6174 290 274 
6175 274 290 
6176 290 291 
6177 291 274 
6178 291 275 
6179 275 274 
6180 274 291 
6181 275 291 
6182 291 276 
6183 276 275 
6184 276 291 
6185 291 292 
6186 292 276 
6187 276 292 
6188 292 39 
6189 39 276 
6190 39 40 
6191 40 276 
6192 276 39 
6193 18 19 
6194 19 277 
6195 277 18 
6196 277 19 
6197 19 293 
6198 293 277 
6199 277 293 
6200 293 294 
6201 294 277 
6202 294 278 
6203 278 277 
6204 277 294 
6205 278 294 
6206 294 279 
6207 279 278 
6208 279 294 
6209 294 295 
6210 295 279 
6211 279 295 
6212 295 296 
6213 296 279 
6214 296 280 
6215 280 279 
6216 279 296 
6217 280 296 
6218 296 281 
6219 281 280 
6220 281 296 
6221 296 297 
6222 297 281 
6223 281 297 
6224 297 298 
6225 298 281 
6226 298 282 
6227 282 281 
6228 281 298 
6229 282 298 
6230 298 283 
6231 283 282 
6232 283 298 
6233 298 299 
6234 299 283 
6235 283 299 
6236 299 300 
6237 300 283 
6238 300 284 
6239 284 283 
6240 283 300 
6241 284 300 
6242 300 285 
6243 285 284 
6244 285 300 
6245 300 301 
6246 301 285 
6247 285 301 
6248 301 302 
6249 302 285 
6250 302 286 
6251 286 285 
6252 285 302 
6253 286 302 
6254 302 287 
6255 287 286 
6256 287 302 
6257 302 303 
6258 303 287 
6259 287 303 
6260 303 304 
6261 304 287 
6262 304 288 
6263 288 287 
6264 287 304 
6265 288 304 
6266 304 289 
6267 289 288 
6268 289 304 
6269 304 305 
6270 305 289 
6271 289 305 
6272 305 306 
6273 306 289 
6274 306 290 
6275 290 289 
6276 289 306 
6277 290 306 
6278 306 291 
6279 291 290 
6280 291 306 
6281 306 307 
6282 307 291 
6283 291 307 
6284 307 308 
6285 308 291 
6286 308 292 
6287 292 291 
6288 291 308 
6289 292 308 
6290 308 39 
6291 39 292 
6292 39 308 
6293 308 38 
6294 38 39 
6295 19 20 
6296 20 309 
6297 309 19 
6298 309 293 
6299 293 19 
6300 19 309 
6301 293 309 
6302 309 294 
6303 294 293 
6304 294 309 
6305 309 310 
6306 310 294 
6307 294 310 
6308 310 311 
6309 311 294 
6310 311 295 
6311 295 294 
6312 294 311 
6313 295 311 
6314 311 296 
6315 296 295 
6316 296 311 
6317 311 312 
6318 312 296 
6319 296 312 
6320 312 313 
6321 313 296 
6322 313 297 
6323 297 296 
6324 296 313 
6325 297 313 
6326 313 298 
6327 298 297 
6328 298 313 
6329 313 314 
6330 314 298 
6331 298 314 
6332 314 315 
6333 315 298 
6334 315 299 
6335 299 298 
6336 298 315 
6337 299 315 
6338 315 300 
6339 300 299 
6340 300 315 
6341 315 316 
6342 316 300 
6343 300 316 
6344 316 317 
6345 317 300 
6346 317 301 
6347 301 300 
6348 300 317 
6349 301 317 
6350 317 302 
6351 302 301 
6352 302 317 
6353 317 318 
6354 318 302 
6355 302 318 
6356 318 319 
6357 319 302 
6358 319 303 
6359 303 302 
6360 302 319 
6361 303 319 
6362 319 304 
6363 304 303 
6364 304 319 
6365 319 320 
6366 320 304 
6367 304 320 
6368 320 321 
6369 321 304 
6370 321 305 
6371 305 304 
6372 304 321 
6373 305 321 
6374 321 306 
6375 306 305 
6376 306 321 
6377 321 322 
6378 322 306 
6379 306 322 
6380 322 323 
6381 323 306 
6382 323 307 
6383 307 306 
6384 306 323 
6385 307 323 
6386 323 308 
6387 308 307 
6388 308 323 
6389 323 324 
6390 324 308 
6391 308 324 
6392 324 37 
6393 37 308 
6394 37 38 
6395 38 308 
6396 308 37 
6397 20 2 
6398 2 309 
6399 309 20 
6400 309 2 
6401 2 21 
6402 21 309 
6403 309 21 
6404 21 22 
6405 22 309 
6406 22 310 
6407 310 309 
6408 309 22 
6409 310 22 
6410 22 311 
6411 311 310 
6412 311 22 
6413 22 23 
6414 23 311 
6415 311 23 
6416 23 24 
6417 24 311 
6418 24 312 
6419 312 311 
6420 311 24 
6421 312 24 
6422 24 313 
6423 313 312 
6424 313 24 
6425 24 25 
6426 25 313 
6427 313 25 
6428 25 26 
6429 26 313 
6430 26 314 
6431 314 313 
6432 313 26 
6433 314 26 
6434 26 315 
6435 315 314 
6436 315 26 
6437 26 27 
6438 27 315 
6439 315 27 
6440 27 28 
6441 28 315 
6442 28 316 
6443 316 315 
6444 315 28 
6445 316 28 
6446 28 317 
6447 317 316 
6448 317 28 
6449 28 29 
6450 29 317 
6451 317 29 
6452 29 30 
6453 30 317 
6454 30 318 
6455 318 317 
6456 317 30 
6457 318 30 
6458 30 319 
6459 319 318 
6460 319 30 
6461 30 31 
6462 31 319 
6463 319 31 
6464 31 32 
6465 32 319 
6466 32 320 
6467 320 319 
6468 319 32 
6469 320 32 
6470 32 321 
6471 321 320 
6472 321 32 
6473 32 33 
6474 33 321 
6475 321 33 
6476 33 34 
6477 34 321 
6478 34 322 
6479 322 321 
6480 321 34 
6481 322 34 
6482 34 323 
6483 323 322 
6484 323 34 
6485 34 35 
6486 35 323 
6487 323 35 
6488 35 36 
6489 36 323 
6490 36 324 
6491 324 323 
6492 323 36 
6493 324 36 
6494 36 37 
6495 37 324 
6496 37 36 
6497 36 3 
6498 3 37 
2 1 2 578
69 1 5 68 
70 68 5 69 
71 68 69 70 
72 70 67 68 
73 67 70 66 
74 66 70 71 
75 66 71 72 
76 72 65 66 
77 65 72 64 
78 64 72 73 
79 64 73 74 
80 74 63 64 
81 63 74 62 
82 62 74 75 
83 62 75 76 
84 76 61 62 
85 61 76 60 
86 60 76 77 
87 60 77 78 
88 78 59 60 
89 59 78 58 
90 58 78 79 
91 58 79 80 
92 80 57 58 
93 57 80 56 
94 56 80 81 
95 56 81 82 
96 82 55 56 
97 55 82 54 
98 54 82 83 
99 54 83 84 
100 84 53 54 
101 53 84 4 
102 4 84 52 
103 5 6 85 
104 85 69 5 
105 69 85 70 
106 70 85 86 
107 70 86 87 
108 87 71 70 
109 71 87 72 
110 72 87 88 
111 72 88 89 
112 89 73 72 
113 73 89 74 
114 74 89 90 
115 74 90 91 
116 91 75 74 
117 75 91 76 
118 76 91 92 
119 76 92 93 
120 93 77 76 
121 77 93 78 
122 78 93 94 
123 78 94 95 
124 95 79 78 
125 79 95 80 
126 80 95 96 
127 80 96 97 
128 97 81 80 
129 81 97 82 
130 82 97 98 
131 82 98 99 
132 99 83 82 
133 83 99 84 
134 84 99 100 
135 84 100 51 
136 51 52 84 
137 6 7 85 
138 85 7 101 
139 85 101 102 
140 102 86 85 
141 86 102 87 
142 87 102 103 
143 87 103 104 
144 104 88 87 
145 88 104 89 
146 89 104 105 
147 89 105 106 
148 106 90 89 
149 90 106 91 
150 91 106 107 
151 91 107 108 
152 108 92 91 
153 92 108 93 
154 93 108 109 
155 93 109 110 
156 110 94 93 
157 94 110 95 
158 95 110 111 
159 95 111 112 
160 112 96 95 
161 96 112 97 
162 97 112 113 
163 97 113 114 
164 114 98 97 
165 98 114 99 
166 99 114 115 
167 99 115 116 
168 116 100 99 
169 100 116 51 
170 51 116 50 
171 7 8 117 
172 117 101 7 
173 101 117 102 
174 102 117 118 
175 102 118 119 
176 119 103 102 
177 103 119 104 
178 104 119 120 
179 104 120 121 
180 121 105 104 
181 105 121 106 
182 106 121 122 
183 106 122 123 
184 123 107 106 
185 107 123 108 
186 108 123 124 
187 108 124 125 
188 125 109 108 
189 109 125 110 
190 110 125 126 
191 110 126 127 
192 127 111 110 
193 111 127 112 
194 112 127 128 
195 112 128 129 
196 129 113 112 
197 113 129 114 
198 114 129 130 
199 114 130 131 
200 131 115 114 
201 115 131 116 
202 116 131 132 
203 116 132 49 
204 49 50 116 
205 8 9 117 
206 117 9 133 
207 117 133 134 
208 134 118 117 
209 118 134 119 
210 119 134 135 
211 119 135 136 
212 136 120 119 
213 120 136 121 
214 121 136 137 
215 121 137 138 
216 138 122 121 
217 122 138 123 
218 123 138 139 
219 123 139 140 
220 140 124 123 
221 124 140 125 
222 125 140 141 
223 125 141 142 
224 142 126 125 
225 126 142 127 
226 127 142 143 
227 127 143 144 
228 144 128 127 
229 128 144 129 
230 129 144 145 
231 129 145 146 
232 146 130 129 
233 130 146 131 
234 131 146 147 
235 131 147 148 
236 148 132 131 
237 132 148 49 
238 49 148 48 
239 9 10 149 
240 149 133 9 
241 133 149 134 
242 134 149 150 
243 134 150 151 
244 151 135 134 
245 135 151 136 
246 136 151 152 
247 136 152 153 
248 153 137 136 
249 137 153 138 
250 138 153 154 
251 138 154 155 
252 155 139 138 
253 139 155 140 
254 140 155 156 
255 140 156 157 
256 157 141 140 
257 141 157 142 
258 142 157 158 
259 142 158 159 
260 159 143 142 
261 143 159 144 
262 144 159 160 
263 144 160 161 
264 161 145 144 
265 145 161 146 
266 146 161 162 
267 146 162 163 
268 163 147 146 
269 147 163 148 
270 148 163 164 
271 148 164 47 
272 47 48 148 
273 10 11 149 
274 149 11 165 
275 149 165 166 
276 166 150 149 
277 150 166 151 
278 151 166 167 
279 151 167 168 
280 168 152 151 
281 152 168 153 
282 153 168 169 
283 153 169 170 
284 170 154 153 
285 154 170 155 
286 155 170 171 
287 155 171 172 
288 172 156 155 
289 156 172 157 
290 157 172 173 
291 157 173 174 
292 174 158 157 
293 158 174 159 
294 159 174 175 
295 159 175 176 
296 176 160 159 
297 160 176 161 
298 161 176 177 
299 161 177 178 
300 178 162 161 
301 162 178 163 
302 163 178 179 
303 163 179 180 
304 180 164 163 
305 164 180 47 
306 47 180 46 
307 11 12 181 
308 181 165 11 
309 165 181 166 
310 166 181 182 
311 166 182 183 
312 183 167 166 
313 167 183 168 
314 168 183 184 
315 168 184 185 
316 185 169 168 
317 169 185 170 
318 170 185 186 
319 170 186 187 
320 187 171 170 
321 171 187 172 
322 172 187 188 
323 172 188 189 
324 189 173 172 
325 173 189 174 
326 174 189 190 
327 174 190 191 
328 191 175 174 
329 175 191 176 
330 176 191 192 
331 176 192 193 
332 193 177 176 
333 177 193 178 
334 178 193 194 
335 178 194 195 
336 195 179 178 
337 179 195 180 
338 180 195 196 
339 180 196 45 
340 45 46 180 
341 12 13 181 
342 181 13 197 
343 181 197 198 
344 198 182 181 
345 182 198 183 
346 183 198 199 
347 183 199 200 
348 200 184 183 
349 184 200 185 
350 185 200 201 
351 185 201 202 
352 202 186 185 
353 186 202 187 
354 187 202 203 
355 187 203 204 
356 204 188 187 
357 188 204 189 
358 189 204 205 
359 189 205 206 
360 206 190 189 
361 190 206 191 
362 191 206 207 
363 191 207 208 
364 208 192 191 
365 192 208 193 
366 193 208 209 
367 193 209 210 
368 210 194 193 
369 194 210 195 
370 195 210 211 
371 195 211 212 
372 212 196 195 
373 196 212 45 
374 45 212 44 
375 13 14 213 
376 213 197 13 
377 197 213 198 
378 198 213 214 
379 198 214 215 
380 215 199 198 
381 199 215 200 
382 200 215 216 
383 200 216 217 
384 217 201 200 
385 201 217 202 
386 202 217 218 
387 202 218 219 
388 219 203 202 
389 203 219 204 
390 204 219 220 
391 204 220 221 
392 221 205 204 
393 205 221 206 
394 206 221 222 
395 206 222 223 
396 223 207 206 
397 207 223 208 
398 208 223 224 
399 208 224 225 
400 225 209 208 
401 209 225 210 
402 210 225 226 
403 210 226 227 
404 227 211 210 
405 211 227 212 
406 212 227 228 
407 212 228 43 
408 43 44 212 
409 14 15 213 
410 213 15 229 
411 213 229 230 
412 230 214 213 
413 214 230 215 
414 215 230 231 
415 215 231 232 
416 232 216 215 
417 216 232 217 
418 217 232 233 
419 217 233 234 
420 234 218 217 
421 218 234 219 
422 219 234 235 
423 219 235 236 
424 236 220 219 
425 220 236 221 
426 221 236 237 
427 221 237 238 
428 238 222 221 
429 222 238 223 
430 223 238 239 
431 223 239 240 
432 240 224 223 
433 224 240 225 
434 225 240 241 
435 225 241 242 
436 242 226 225 
437 226 242 227 
438 227 242 243 
439 227 243 244 
440 244 228 227 
441 228 244 43 
442 43 244 42 
443 15 16 245 
444 245 229 15 
445 229 245 230 
446 230 245 246 
447 230 246 247 
448 247 231 230 
449 231 247 232 
450 232 247 248 
451 232 248 249 
452 249 233 232 
453 233 249 234 
454 234 249 250 
455 234 250 251 
456 251 235 234 
457 235 251 236 
458 236 251 252 
459 236 252 253 
460 253 237 236 
461 237 253 238 
462 238 253 254 
463 238 254 255 
464 255 239 238 
465 239 255 240 
466 240 255 256 
467 240 256 257 
468 257 241 240 
469 241 257 242 
470 242 257 258 
471 242 258 259 
472 259 243 242 
473 243 259 244 
474 244 259 260 
475 244 260 41 
476 41 42 244 
477 16 17 245 
478 245 17 261 
479 245 261 262 
480 262 246 245 
481 246 262 247 
482 247 262 263 
483 247 263 264 
484 264 248 247 
485 248 264 249 
486 249 264 265 
487 249 265 266 
488 266 250 249 
489 250 266 251 
490 251 266 267 
491 251 267 268 
492 268 252 251 
493 252 268 253 
494 253 268 269 
495 253 269 270 
496 270 254 253 
497 254 270 255 
498 255 270 271 
499 255 271 272 
500 272 256 255 
501 256 272 257 
502 257 272 273 
503 257 273 274 
504 274 258 257 
505 258 274 259 
506 259 274 275 
507 259 275 276 
508 276 260 259 
509 260 276 41 
510 41 276 40 
511 17 18 277 
512 277 261 17 
513 261 277 262 
514 262 277 278 
515 262 278 279 
516 279 263 262 
517 263 279 264 
518 264 279 280 
519 264 280 281 
520 281 265 264 
521 265 281 266 
522 266 281 282 
523 266 282 283 
524 283 267 266 
525 267 283 268 
526 268 283 284 
527 268 284 285 
528 285 269 268 
529 269 285 270 
530 270 285 286 
531 270 286 287 
532 287 271 270 
533 271 287 272 
534 272 287 288 
535 272 288 289 
536 289 273 272 
537 273 289 274 
538 274 289 290 
539 274 290 291 
540 291 275 274 
541 275 291 276 
542 276 291 292 
543 276 292 39 
544 39 40 276 
545 18 19 277 
546 277 19 293 
547 277 293 294 
548 294 278 277 
549 278 294 279 
550 279 294 295 
551 279 295 296 
552 296 280 279 
553 280 296 281 
554 281 296 297 
555 281 297 298 
556 298 282 281 
557 282 298 283 
558 283 298 299 
559 283 299 300 
560 300 284 283 
561 284 300 285 
562 285 300 301 
563 285 301 302 
564 302 286 285 
565 286 302 287 
566 287 302 303 
567 287 303 304 
568 304 288 287 
569 288 304 289 
570 289 304 305 
571 289 305 306 
572 306 290 289 
573 290 306 291 
574 291 306 307 
575 291 307 308 
576 308 292 291 
577 292 308 39 
578 39 308 38 
579 19 20 309 
580 309 293 19 
581 293 309 294 
582 294 309 310 
583 294 310 311 
584 311 295 294 
585 295 311 296 
586 296 311 312 
587 296 312 313 
588 313 297 296 
589 297 313 298 
590 298 313 314 
591 298 314 315 
592 315 299 298 
593 299 315 300 
594 300 315 316 
595 300 316 317 
596 317 301 300 
597 301 317 302 
598 302 317 318 
599 302 318 319 
600 319 303 302 
601 303 319 304 
602 304 319 320 
603 304 320 321 
604 321 305 304 
605 305 321 306 
606 306 321 322 
607 306 322 323 
608 323 307 306 
609 307 323 308 
610 308 323 324 
611 308 324 37 
612 37 38 308 
613 20 2 309 
614 309 2 21 
615 309 21 22 
616 22 310 309 
617 310 22 311 
618 311 22 23 
619 311 23 24 
620 24 312 311 
621 312 24 313 
622 313 24 25 
623 313 25 26 
624 26 314 313 
625 314 26 315 
626 315 26 27 
627 315 27 28 
628 28 316 315 
629 316 28 317 
630 317 28 29 
631 317 29 30 
632 30 318 317 
633 318 30 319 
634 319 30 31 
635 319 31 32 
636 32 320 319 
637 320 32 321 
638 321 32 33 
639 321 33 34 
640 34 322 321 
641 322 34 323 
642 323 34 35 
643 323 35 36 
644 36 324 323 
645 324 36 37 
646 37 36 3 
$EndElements
