$MeshFormat
4.1 0 8
$EndMeshFormat
$PhysicalNames
6
1 1 "Γ¹"
1 2 "Γ²"
1 3 "Γ³"
1 4 "Γ⁴"
1 6 "Γ"
2 5 "Ω"
$EndPhysicalNames
$Entities
4 5 1 0
1 0 0 0 0 
2 1 0 0 0 
3 1.866025403784439 0.5000000000000001 0 0 
4 0.8660254037844386 0.5000000000000001 0 0 
1 0 0 0 1 0 0 1 1 2 1 -2 
2 1 0 0 1.866025403784439 0.5000000000000001 0 1 2 2 2 -3 
3 0.8660254037844386 0.5000000000000001 0 1.866025403784439 0.5000000000000001 0 1 3 2 3 -4 
4 0 0 0 0.8660254037844386 0.5000000000000001 0 1 4 2 4 -1 
5 0 0 0 1.866025403784439 0.5000000000000001 0 1 6 0 
1 0 0 0 1.866025403784439 0.5000000000000001 0 1 5 4 1 2 3 4 
$EndEntities
$Nodes
10 625 1 625
0 1 0 1
1
0 0 0
0 2 0 1
2
1 0 0
0 3 0 1
3
1.866025403784439 0.5000000000000001 0
0 4 0 1
4
0.8660254037844386 0.5000000000000001 0
1 1 0 23
5
6
7
8
9
10
11
12
13
14
15
16
17
18
19
20
21
22
23
24
25
26
27
0.0416666666665846 0 0
0.08333333333317297 0 0
0.1249999999997731 0 0
0.1666666666663209 0 0
0.2083333333328659 0 0
0.2499999999994109 0 0
0.291666666665956 0 0
0.333333333332501 0 0
0.374999999999046 0 0
0.4166666666655911 0 0
0.4583333333321362 0 0
0.499999999998692 0 0
0.5416666666654577 0 0
0.5833333333322344 0 0
0.6249999999990109 0 0
0.6666666666657874 0 0
0.708333333332564 0 0
0.7499999999993405 0 0
0.7916666666661172 0 0
0.8333333333328937 0 0
0.8749999999996703 0 0
0.9166666666664468 0 0
0.9583333333332233 0 0
1 2 0 23
28
29
30
31
32
33
34
35
36
37
38
39
40
41
42
43
44
45
46
47
48
49
50
1.036084391824302 0.02083333333330453 0
1.072168783648593 0.04166666666660321 0
1.108253175472876 0.0624999999998967 0
1.14433756729717 0.08333333333319684 0
1.180421959121461 0.1041666666664953 0
1.216506350945755 0.1249999999997951 0
1.252590742769962 0.1458333333330448 0
1.288675134594244 0.1666666666663384 0
1.324759526418535 0.1874999999996368 0
1.360843918242827 0.2083333333329353 0
1.396928310067088 0.2291666666662164 0
1.433012701891253 0.2499999999994424 0
1.469097093715595 0.2708333333327698 0
1.505181485539993 0.2916666666661299 0
1.541265877364445 0.3124999999995212 0
1.577350269188875 0.3333333333329 0
1.613434661013327 0.3541666666662913 0
1.649519052837796 0.3749999999996924 0
1.685603444662243 0.3958333333330811 0
1.721687836486685 0.4166666666664661 0
1.757772228311115 0.437499999999845 0
1.793856620135589 0.4583333333332488 0
1.829941011960052 0.4791666666666464 0
1 3 0 23
51
52
53
54
55
56
57
58
59
60
61
62
63
64
65
66
67
68
69
70
71
72
73
1.824358737118171 0.5000000000000001 0
1.782692070451904 0.5000000000000001 0
1.741025403785637 0.5000000000000001 0
1.699358737119369 0.5000000000000001 0
1.657692070453102 0.5000000000000001 0
1.616025403786835 0.5000000000000001 0
1.574358737120568 0.5000000000000001 0
1.5326920704543 0.5000000000000001 0
1.491025403788033 0.5000000000000001 0
1.449358737121766 0.5000000000000001 0
1.407692070455498 0.5000000000000001 0
1.366025403789188 0.5000000000000001 0
1.324358737122039 0.5000000000000001 0
1.282692070454846 0.5000000000000001 0
1.241025403787654 0.5000000000000001 0
1.199358737120461 0.5000000000000001 0
1.157692070453268 0.5000000000000001 0
1.116025403786076 0.5000000000000001 0
1.074358737118884 0.5000000000000001 0
1.032692070451691 0.5000000000000001 0
0.9910254037846288 0.5000000000000001 0
0.9493587371178988 0.5000000000000001 0
0.9076920704511687 0.5000000000000001 0
1 4 0 23
74
75
76
77
78
79
80
81
82
83
84
85
86
87
88
89
90
91
92
93
94
95
96
0.8299410119601783 0.4791666666667195 0
0.7938566201359237 0.4583333333334422 0
0.7577722283116746 0.437500000000168 0
0.7216878364874473 0.4166666666669064 0
0.6856034446632198 0.3958333333336447 0
0.6495190528389924 0.3750000000003831 0
0.6134346610147757 0.3541666666671277 0
0.5773502691905104 0.3333333333338441 0
0.5412658773662287 0.3125000000005512 0
0.5051814855418908 0.2916666666672257 0
0.4690970937176078 0.2708333333339321 0
0.4330127018933276 0.2500000000006399 0
0.3969283100688902 0.229166666667257 0
0.3608439182444338 0.2083333333338633 0
0.3247595264199831 0.1875000000004727 0
0.2886751345955431 0.1666666666670883 0
0.2525907427710976 0.1458333333337008 0
0.2165063509466515 0.1250000000003129 0
0.1804219591222056 0.104166666666925 0
0.1443375672977601 0.08333333333353754 0
0.1082531754733201 0.06250000000015316 0
0.07216878364886925 0.04166666666676255 0
0.03608439182441836 0.0208333333333719 0
1 5 0 0
2 1 0 529
97
98
99
100
101
102
103
104
105
106
107
108
109
110
111
112
113
114
115
116
117
118
119
120
121
122
123
124
125
126
127
128
129
130
131
132
133
134
135
136
137
138
139
140
141
142
143
144
145
146
147
148
149
150
151
152
153
154
155
156
157
158
159
160
161
162
163
164
165
166
167
168
169
170
171
172
173
174
175
176
177
178
179
180
181
182
183
184
185
186
187
188
189
190
191
192
193
194
195
196
197
198
199
200
201
202
203
204
205
206
207
208
209
210
211
212
213
214
215
216
217
218
219
220
221
222
223
224
225
226
227
228
229
230
231
232
233
234
235
236
237
238
239
240
241
242
243
244
245
246
247
248
249
250
251
252
253
254
255
256
257
258
259
260
261
262
263
264
265
266
267
268
269
270
271
272
273
274
275
276
277
278
279
280
281
282
283
284
285
286
287
288
289
290
291
292
293
294
295
296
297
298
299
300
301
302
303
304
305
306
307
308
309
310
311
312
313
314
315
316
317
318
319
320
321
322
323
324
325
326
327
328
329
330
331
332
333
334
335
336
337
338
339
340
341
342
343
344
345
346
347
348
349
350
351
352
353
354
355
356
357
358
359
360
361
362
363
364
365
366
367
368
369
370
371
372
373
374
375
376
377
378
379
380
381
382
383
384
385
386
387
388
389
390
391
392
393
394
395
396
397
398
399
400
401
402
403
404
405
406
407
408
409
410
411
412
413
414
415
416
417
418
419
420
421
422
423
424
425
426
427
428
429
430
431
432
433
434
435
436
437
438
439
440
441
442
443
444
445
446
447
448
449
450
451
452
453
454
455
456
457
458
459
460
461
462
463
464
465
466
467
468
469
470
471
472
473
474
475
476
477
478
479
480
481
482
483
484
485
486
487
488
489
490
491
492
493
494
495
496
497
498
499
500
501
502
503
504
505
506
507
508
509
510
511
512
513
514
515
516
517
518
519
520
521
522
523
524
525
526
527
528
529
530
531
532
533
534
535
536
537
538
539
540
541
542
543
544
545
546
547
548
549
550
551
552
553
554
555
556
557
558
559
560
561
562
563
564
565
566
567
568
569
570
571
572
573
574
575
576
577
578
579
580
581
582
583
584
585
586
587
588
589
590
591
592
593
594
595
596
597
598
599
600
601
602
603
604
605
606
607
608
609
610
611
612
613
614
615
616
617
618
619
620
621
622
623
624
625
0.07775105849100414 0.02083333333336909 0
0.1138354503154545 0.04166666666675593 0
0.1499198421399044 0.06250000000014247 0
0.1860042339643444 0.08333333333352333 0
0.2220886257887895 0.1041666666669071 0
0.2581730176132351 0.1250000000002914 0
0.2942574094376774 0.1458333333336735 0
0.3303418012621221 0.166666666667057 0
0.3664261930865618 0.1875000000004379 0
0.4025105849110122 0.2083333333338246 0
0.4385949767354664 0.2291666666672137 0
0.4746793685598986 0.25000000000059 0
0.5107637603841874 0.2708333333338836 0
0.5468481522084813 0.2916666666671802 0
0.5829325440328299 0.3125000000005083 0
0.6190169358571239 0.3333333333338049 0
0.6551013276814031 0.3541666666670928 0
0.6911857195056361 0.3750000000003544 0
0.727270111329879 0.3958333333336213 0
0.7633545031541215 0.4166666666668881 0
0.7994388949783631 0.4375000000001546 0
0.8355232868026277 0.4583333333334341 0
0.8716076786268971 0.4791666666667165 0
0.1194177251575936 0.02083333333336627 0
0.1555021169820431 0.04166666666674927 0
0.191586508806492 0.06250000000013178 0
0.2276709006309318 0.08333333333350913 0
0.2637552924553764 0.1041666666668892 0
0.2998396842798214 0.1250000000002697 0
0.3359240761042597 0.1458333333336462 0
0.3720084679287036 0.1666666666670258 0
0.4080928597531431 0.1875000000004031 0
0.4441772515775926 0.208333333333786 0
0.4802616434020446 0.2291666666671703 0
0.5163460352264714 0.2500000000005402 0
0.5524304270507688 0.2708333333338352 0
0.5885148188750733 0.2916666666671344 0
0.6245992106994324 0.3125000000004654 0
0.6606836025237386 0.3333333333337655 0
0.6967679943480314 0.354166666667058 0
0.7328523861722811 0.3750000000003257 0
0.7689367779965388 0.3958333333335977 0
0.8050211698207959 0.4166666666668697 0
0.8411055616450522 0.4375000000001411 0
0.8771899534693322 0.458333333333426 0
0.9132743452936161 0.4791666666667133 0
0.1610843918241943 0.02083333333336347 0
0.1971687836486426 0.04166666666674263 0
0.2332531754730898 0.0625000000001211 0
0.2693375672975291 0.08333333333349498 0
0.3054219591219726 0.1041666666668713 0
0.3415063509464168 0.1250000000002482 0
0.3775907427708504 0.1458333333336188 0
0.4136751345952928 0.1666666666669945 0
0.4497595264197316 0.1875000000003682 0
0.4858439182441799 0.2083333333337473 0
0.5219283100686292 0.229166666667127 0
0.5580127018930501 0.2500000000004902 0
0.5940970937173551 0.2708333333337868 0
0.6301814855416699 0.2916666666670887 0
0.6662658773660395 0.3125000000004224 0
0.7023502691903571 0.3333333333337261 0
0.738434661014663 0.3541666666670232 0
0.7745190528389287 0.3750000000002968 0
0.810603444663201 0.3958333333335743 0
0.8466878364874726 0.4166666666668514 0
0.8827722283117427 0.4375000000001276 0
0.9188566201360374 0.458333333333418 0
0.9549410119603354 0.4791666666667104 0
0.2027510584907586 0.02083333333336067 0
0.2388354503152217 0.041666666666736 0
0.2749198421396835 0.06250000000011041 0
0.311004233964138 0.08333333333348077 0
0.3470886257885964 0.1041666666668534 0
0.3831730176130559 0.1250000000002266 0
0.4192574094375008 0.1458333333335914 0
0.455341801261958 0.1666666666669633 0
0.491426193086412 0.1875000000003334 0
0.5275105849108751 0.2083333333337087 0
0.5635949767353376 0.2291666666670836 0
0.5996793685597687 0.2500000000004403 0
0.6357637603840979 0.2708333333337384 0
0.6718481522084387 0.2916666666670432 0
0.7079325440328343 0.3125000000003795 0
0.7440169358571798 0.3333333333336868 0
0.7801013276815152 0.3541666666669884 0
0.8161857195058126 0.375000000000268 0
0.8522701113301154 0.3958333333335508 0
0.8883545031544173 0.4166666666668331 0
0.924438894978717 0.4375000000001141 0
0.9605232868030429 0.45833333333341 0
0.996607678627371 0.4791666666667073 0
0.2444177251573258 0.02083333333335785 0
0.2805021169818092 0.04166666666672936 0
0.316586508806291 0.06250000000009973 0
0.3526709006307663 0.08333333333346654 0
0.3887552924552452 0.1041666666668355 0
0.4248396842797253 0.125000000000205 0
0.4609240761041875 0.1458333333335641 0
0.4970084679286648 0.166666666666932 0
0.5330928597531397 0.1875000000002985 0
0.5691772515776228 0.20833333333367 0
0.6052616434021043 0.2291666666670402 0
0.6413460352265509 0.2500000000003905 0
0.6774304270509095 0.27083333333369 0
0.7135148188752825 0.2916666666669974 0
0.7495992106997098 0.3125000000003366 0
0.7856836025240883 0.3333333333336474 0
0.8217679943484584 0.3541666666669535 0
0.8578523861727936 0.3750000000002394 0
0.8939367779971326 0.3958333333335272 0
0.9300211698214702 0.4166666666668147 0
0.9661055616458056 0.4375000000001008 0
1.002189953470167 0.4583333333334019 0
1.038274345294531 0.4791666666667042 0
0.2860843918238928 0.02083333333335505 0
0.3221687836483967 0.04166666666672272 0
0.3582531754728983 0.06250000000008904 0
0.3943375672973948 0.08333333333345237 0
0.4304219591218943 0.1041666666668176 0
0.4665063509463949 0.1250000000001835 0
0.502590742770874 0.1458333333335368 0
0.5386751345953715 0.1666666666669008 0
0.5747595264198671 0.1875000000002638 0
0.6108439182443707 0.2083333333336313 0
0.646928310068871 0.2291666666669969 0
0.6830127018933333 0.2500000000003406 0
0.7190970937177216 0.2708333333336416 0
0.7551814855421262 0.2916666666669518 0
0.7912658773665854 0.3125000000002937 0
0.827350269190997 0.3333333333336082 0
0.8634346610154016 0.3541666666669187 0
0.8995190528397743 0.3750000000002105 0
0.9356034446641492 0.3958333333335039 0
0.9716878364885231 0.4166666666667965 0
1.007772228312894 0.4375000000000873 0
1.043856620137292 0.4583333333333938 0
1.079941011961691 0.4791666666667012 0
0.3277510584904601 0.02083333333335224 0
0.3638354503149842 0.04166666666671606 0
0.3999198421395057 0.06250000000007835 0
0.436004233964023 0.08333333333343818 0
0.4720886257885432 0.1041666666667997 0
0.5081730176130642 0.1250000000001619 0
0.5442574094375605 0.1458333333335095 0
0.5803418012620783 0.1666666666668696 0
0.6164261930865944 0.1875000000002289 0
0.6525105849111186 0.2083333333335926 0
0.6885949767356379 0.2291666666669535 0
0.7246793685601154 0.2500000000002907 0
0.7607637603845334 0.2708333333335931 0
0.7968481522089695 0.2916666666669062 0
0.8329325440334605 0.3125000000002507 0
0.8690169358579054 0.3333333333335687 0
0.9051013276823449 0.3541666666668838 0
0.9411857195067549 0.3750000000001816 0
0.9772701113311663 0.3958333333334804 0
1.013354503155576 0.416666666666778 0
1.049438894979982 0.4375000000000738 0
1.085523286804416 0.4583333333333859 0
1.121607678628852 0.4791666666666982 0
0.3694177251570272 0.02083333333334944 0
0.4055021169815718 0.04166666666670943 0
0.4415865088061133 0.06250000000006767 0
0.4776709006306514 0.08333333333342396 0
0.5137552924551922 0.1041666666667818 0
0.5498396842797343 0.1250000000001403 0
0.5859240761042471 0.1458333333334821 0
0.6220084679287848 0.1666666666668383 0
0.6580928597533222 0.1875000000001941 0
0.6941772515778665 0.208333333333554 0
0.7302616434024043 0.2291666666669102 0
0.7663460352268979 0.2500000000002408 0
0.8024304270513455 0.2708333333335446 0
0.8385148188758134 0.2916666666668604 0
0.874599210700336 0.3125000000002078 0
0.9106836025248141 0.3333333333335294 0
0.9467679943492884 0.3541666666668489 0
0.9828523861737359 0.375000000000153 0
1.018936777998184 0.3958333333334568 0
1.055021169822629 0.4166666666667597 0
1.09110556164707 0.4375000000000603 0
1.127189953471541 0.4583333333333778 0
1.163274345296012 0.4791666666666952 0
0.4110843918235944 0.02083333333334663 0
0.4471687836481592 0.0416666666667028 0
0.4832531754727207 0.06250000000005698 0
0.5193375672972798 0.08333333333340977 0
0.555421959121841 0.1041666666667639 0
0.5915063509464036 0.1250000000001187 0
0.6275907427709335 0.1458333333334548 0
0.6636751345954918 0.1666666666668071 0
0.6997595264200497 0.1875000000001592 0
0.7358439182446141 0.2083333333335153 0
0.7719283100691712 0.2291666666668668 0
0.8080127018936802 0.2500000000001909 0
0.8440970937181571 0.2708333333334961 0
0.8801814855426568 0.2916666666668147 0
0.9162658773672114 0.312500000000165 0
0.9523502691917225 0.33333333333349 0
0.9884346610162316 0.3541666666668141 0
1.024519052840717 0.3750000000001241 0
1.0606034446652 0.3958333333334333 0
1.096687836489681 0.4166666666667414 0
1.132772228314159 0.4375000000000469 0
1.168856620138666 0.4583333333333697 0
1.204941011963172 0.4791666666666921 0
0.4527510584901616 0.02083333333334382 0
0.4888354503147467 0.04166666666669617 0
0.5249198421393282 0.0625000000000463 0
0.5610042339639082 0.08333333333339554 0
0.5970886257884899 0.104166666666746 0
0.6331730176130731 0.1250000000000971 0
0.6692574094376202 0.1458333333334275 0
0.7053418012621985 0.1666666666667758 0
0.7414261930867769 0.1875000000001244 0
0.777510584911362 0.2083333333334766 0
0.8135949767359376 0.2291666666668234 0
0.8496793685604627 0.250000000000141 0
0.8857637603849691 0.2708333333334477 0
0.9218481522095008 0.2916666666667692 0
0.9579325440340867 0.312500000000122 0
0.9940169358586309 0.3333333333334507 0
1.030101327683175 0.3541666666667792 0
1.066185719507697 0.3750000000000954 0
1.102270111332217 0.3958333333334099 0
1.138354503156734 0.4166666666667229 0
1.174438894981247 0.4375000000000335 0
1.21052328680579 0.4583333333333616 0
1.246607678630332 0.479166666666689 0
0.4944177251567287 0.02083333333334102 0
0.5305021169813343 0.04166666666668952 0
0.5665865088059358 0.06250000000003561 0
0.6026709006305363 0.0833333333333814 0
0.638755292455139 0.1041666666667281 0
0.6748396842797425 0.1250000000000756 0
0.7109240761043066 0.1458333333334002 0
0.7470084679289053 0.1666666666667446 0
0.783092859753505 0.1875000000000896 0
0.8191772515781103 0.208333333333438 0
0.8552616434027046 0.2291666666667801 0
0.8913460352272449 0.250000000000091 0
0.9274304270517808 0.2708333333333993 0
0.963514818876344 0.2916666666667234 0
0.9995992107009625 0.312500000000079 0
1.03568360252554 0.3333333333334114 0
1.071767994350118 0.3541666666667443 0
1.107852386174678 0.3750000000000666 0
1.143936777999234 0.3958333333333864 0
1.180021169823787 0.4166666666667046 0
1.216105561648336 0.4375000000000199 0
1.252189953472915 0.4583333333333536 0
1.288274345297493 0.4791666666666859 0
0.5360843918233043 0.02083333333333822 0
0.5721687836479281 0.04166666666668287 0
0.608253175472547 0.06250000000002492 0
0.6443375672971666 0.08333333333336719 0
0.6804219591217874 0.1041666666667102 0
0.7165063509464095 0.125000000000054 0
0.752590742770988 0.1458333333333728 0
0.7886751345956047 0.1666666666667133 0
0.8247595264202225 0.1875000000000547 0
0.8608439182448462 0.2083333333333993 0
0.8969283100694571 0.2291666666667367 0
0.9330127018940111 0.2500000000000411 0
0.9690970937185743 0.2708333333333509 0
1.005181485543167 0.2916666666666779 0
1.041265877367814 0.3125000000000362 0
1.077350269192423 0.3333333333333721 0
1.113434661017034 0.3541666666667095 0
1.149519052841629 0.3750000000000377 0
1.185603444666219 0.3958333333333629 0
1.221687836490805 0.4166666666666863 0
1.257772228315387 0.4375000000000065 0
1.293856620140001 0.4583333333333454 0
1.329941011964612 0.4791666666666829 0
0.5777510584900463 0.0208333333333354 0
0.6138354503146443 0.04166666666667624 0
0.6499198421392376 0.06250000000001424 0
0.6860042339638318 0.08333333333335298 0
0.722088625788427 0.1041666666666922 0
0.7581730176130241 0.1250000000000324 0
0.7942574094375741 0.1458333333333455 0
0.8303418012621646 0.1666666666666821 0
0.8664261930867574 0.1875000000000199 0
0.9025105849113551 0.2083333333333606 0
0.9385949767359391 0.2291666666666933 0
0.9746793685604627 0.2499999999999913 0
1.010763760385009 0.2708333333333025 0
1.046848152209588 0.2916666666666322 0
1.082932544034221 0.3124999999999932 0
1.119016935858817 0.3333333333333327 0
1.155101327683416 0.3541666666666746 0
1.191185719508004 0.3750000000000091 0
1.227270111332583 0.3958333333333394 0
1.26335450315716 0.4166666666666679 0
1.299438894981731 0.4374999999999931 0
1.335523286806335 0.4583333333333374 0
1.371607678630936 0.4791666666666798 0
0.6194177251567968 0.02083333333333259 0
0.6555021169813671 0.0416666666666696 0
0.691586508805932 0.06250000000000355 0
0.7276709006304991 0.08333333333333878 0
0.7637552924550668 0.1041666666666743 0
0.799839684279636 0.1250000000000108 0
0.8359240761041548 0.1458333333333182 0
0.8720084679287174 0.1666666666666508 0
0.908092859753283 0.1874999999999851 0
0.9441772515778526 0.2083333333333219 0
0.9802616434024073 0.22916666666665 0
1.016346035226899 0.2499999999999413 0
1.052430427051427 0.2708333333332541 0
1.088514818875989 0.2916666666665865 0
1.124599210700606 0.3124999999999503 0
1.160683602525186 0.3333333333332934 0
1.196767994349773 0.3541666666666398 0
1.232852386174349 0.3749999999999802 0
1.268936777998916 0.3958333333333159 0
1.305021169823481 0.4166666666666496 0
1.341105561648039 0.4374999999999796 0
1.377189953472631 0.4583333333333294 0
1.413274345297219 0.4791666666666768 0
0.6610843918235473 0.02083333333332979 0
0.6971687836480895 0.04166666666666295 0
0.7332531754726261 0.06249999999999287 0
0.7693375672971662 0.0833333333333246 0
0.8054219591217062 0.1041666666666564 0
0.8415063509462477 0.1249999999999893 0
0.8775907427707353 0.1458333333332908 0
0.9136751345952701 0.1666666666666196 0
0.949759526419808 0.1874999999999503 0
0.9858439182443502 0.2083333333332833 0
1.021928310068875 0.2291666666666066 0
1.058012701893334 0.2499999999998915 0
1.094097093717843 0.2708333333332057 0
1.130181485542389 0.2916666666665409 0
1.166265877366989 0.3124999999999074 0
1.202350269191555 0.333333333333254 0
1.238434661016128 0.3541666666666049 0
1.274519052840693 0.3749999999999515 0
1.310603444665249 0.3958333333332924 0
1.346687836489802 0.4166666666666312 0
1.382772228314346 0.4374999999999662 0
1.418856620138927 0.4583333333333214 0
1.454941011963503 0.4791666666666737 0
0.7027510584902977 0.02083333333332698 0
0.7388354503148123 0.0416666666666563 0
0.7749198421393206 0.06249999999998218 0
0.8110042339638331 0.08333333333331039 0
0.8470886257883457 0.1041666666666385 0
0.8831730176128596 0.1249999999999677 0
0.9192574094373162 0.1458333333332635 0
0.9553418012618228 0.1666666666665884 0
0.9914261930863335 0.1874999999999155 0
1.027510584910847 0.2083333333332446 0
1.063594976735343 0.2291666666665633 0
1.099679368559769 0.2499999999998416 0
1.13576376038426 0.2708333333331573 0
1.17184815220879 0.2916666666664952 0
1.207932544033373 0.3124999999998646 0
1.244016935857924 0.3333333333332147 0
1.280101327682483 0.35416666666657 0
1.316185719507038 0.3749999999999227 0
1.352270111331581 0.395833333333269 0
1.388354503156121 0.4166666666666129 0
1.424438894980654 0.4374999999999526 0
1.460523286805222 0.4583333333333133 0
1.496607678629785 0.4791666666666707 0
0.7444177251570483 0.02083333333332417 0
0.7805021169815348 0.04166666666664968 0
0.8165865088060152 0.0624999999999715 0
0.8526709006305002 0.08333333333329618 0
0.8887552924549849 0.1041666666666206 0
0.9248396842794717 0.1249999999999461 0
0.9609240761038971 0.1458333333332362 0
0.9970084679283755 0.1666666666665571 0
1.033092859752859 0.1874999999998806 0
1.069177251577345 0.208333333333206 0
1.105261643401812 0.2291666666665199 0
1.141346035226205 0.2499999999997917 0
1.177430427050677 0.2708333333331088 0
1.21351481887519 0.2916666666664495 0
1.249599210699757 0.3124999999998216 0
1.285683602524293 0.3333333333331754 0
1.321767994348838 0.3541666666665353 0
1.357852386173383 0.3749999999998939 0
1.393936777997915 0.3958333333332454 0
1.430021169822442 0.4166666666665946 0
1.466105561646962 0.4374999999999391 0
1.502189953471518 0.4583333333333053 0
1.538274345296069 0.4791666666666676 0
0.7860843918237987 0.02083333333332137 0
0.8221687836482574 0.04166666666664304 0
0.8582531754727094 0.06249999999996081 0
0.8943375672971674 0.08333333333328202 0
0.9304219591216244 0.1041666666666027 0
0.9665063509460834 0.1249999999999246 0
1.002590742770477 0.1458333333332088 0
1.038675134594928 0.1666666666665259 0
1.074759526419383 0.1874999999998458 0
1.110843918243842 0.2083333333331673 0
1.146928310068279 0.2291666666664766 0
1.18301270189264 0.2499999999997418 0
1.219097093717094 0.2708333333330604 0
1.25518148554159 0.2916666666664038 0
1.291265877366141 0.3124999999997786 0
1.327350269190662 0.3333333333331361 0
1.363434661015195 0.3541666666665004 0
1.399519052839727 0.3749999999998652 0
1.435603444664247 0.3958333333332219 0
1.471687836488762 0.4166666666665761 0
1.507772228313269 0.4374999999999258 0
1.543856620137814 0.4583333333332971 0
1.579941011962352 0.4791666666666646 0
0.8277510584905494 0.02083333333331856 0
0.8638354503149802 0.0416666666666364 0
0.8999198421394039 0.06249999999995012 0
0.9360042339638346 0.08333333333326783 0
0.972088625788264 0.1041666666665848 0
1.008173017612696 0.124999999999903 0
1.044257409437058 0.1458333333331815 0
1.080341801261481 0.1666666666664945 0
1.116426193085909 0.187499999999811 0
1.15251058491034 0.2083333333331287 0
1.188594976734747 0.2291666666664332 0
1.224679368559076 0.2499999999996919 0
1.260763760383511 0.270833333333012 0
1.296848152207991 0.2916666666663582 0
1.332932544032525 0.3124999999997358 0
1.369016935857031 0.3333333333330967 0
1.40510132768155 0.3541666666664656 0
1.441185719506072 0.3749999999998364 0
1.47727011133058 0.3958333333331986 0
1.513354503155083 0.4166666666665578 0
1.549438894979577 0.4374999999999123 0
1.58552328680411 0.4583333333332892 0
1.621607678628635 0.4791666666666616 0
0.8694177251572998 0.02083333333331576 0
0.9055021169817029 0.04166666666662978 0
0.9415865088060983 0.06249999999993944 0
0.9776709006305017 0.08333333333325361 0
1.013755292454903 0.1041666666665669 0
1.049839684279307 0.1249999999998814 0
1.085924076103639 0.1458333333331541 0
1.122008467928034 0.1666666666664633 0
1.158092859752434 0.1874999999997762 0
1.194177251576837 0.20833333333309 0
1.230261643401215 0.2291666666663898 0
1.266346035225512 0.249999999999642 0
1.302430427049927 0.2708333333329636 0
1.338514818874391 0.2916666666663125 0
1.374599210698909 0.3124999999996928 0
1.4106836025234 0.3333333333330574 0
1.446767994347905 0.3541666666664307 0
1.482852386172417 0.3749999999998075 0
1.518936777996913 0.3958333333331751 0
1.555021169821403 0.4166666666665396 0
1.591105561645884 0.4374999999998987 0
1.627189953470406 0.458333333333281 0
1.663274345294919 0.4791666666666585 0
0.9110843918240501 0.02083333333331295 0
0.9471687836484253 0.04166666666662312 0
0.9832531754727927 0.06249999999992875 0
1.019337567297169 0.0833333333332394 0
1.055421959121542 0.104166666666549 0
1.091506350945919 0.1249999999998598 0
1.127590742770219 0.1458333333331268 0
1.163675134594586 0.1666666666664321 0
1.19975952641896 0.1874999999997413 0
1.235843918243334 0.2083333333330513 0
1.271928310067683 0.2291666666663464 0
1.308012701891947 0.249999999999592 0
1.344097093716345 0.270833333332915 0
1.380181485540791 0.2916666666662668 0
1.416265877365293 0.3124999999996498 0
1.452350269189769 0.333333333333018 0
1.488434661014261 0.3541666666663958 0
1.524519052838762 0.3749999999997788 0
1.560603444663245 0.3958333333331516 0
1.596687836487724 0.4166666666665212 0
1.632772228312192 0.4374999999998854 0
1.668856620136701 0.458333333333273 0
1.704941011961202 0.4791666666666554 0
0.9527510584908007 0.02083333333331014 0
0.9888354503151483 0.04166666666661648 0
1.024919842139487 0.06249999999991807 0
1.061004233963836 0.08333333333322523 0
1.097088625788182 0.1041666666665311 0
1.133173017612531 0.1249999999998382 0
1.1692574094368 0.1458333333330995 0
1.205341801261139 0.1666666666664009 0
1.241426193085485 0.1874999999997065 0
1.277510584909832 0.2083333333330126 0
1.313594976734151 0.2291666666663031 0
1.349679368558382 0.2499999999995421 0
1.385763760382761 0.2708333333328666 0
1.421848152207192 0.2916666666662212 0
1.457932544031677 0.312499999999607 0
1.494016935856137 0.3333333333329787 0
1.530101327680616 0.3541666666663611 0
1.566185719505107 0.37499999999975 0
1.602270111329578 0.395833333333128 0
1.638354503154044 0.4166666666665029 0
1.6744388949785 0.4374999999998718 0
1.710523286802997 0.4583333333332649 0
1.746607678627485 0.4791666666666525 0
0.9944177251575511 0.02083333333330734 0
1.030502116981871 0.04166666666660985 0
1.066586508806181 0.06249999999990738 0
1.102670900630503 0.08333333333321104 0
1.138755292454822 0.1041666666665132 0
1.174839684279143 0.1249999999998167 0
1.210924076103381 0.1458333333330722 0
1.247008467927692 0.1666666666663696 0
1.28309285975201 0.1874999999996717 0
1.319177251576329 0.208333333332974 0
1.35526164340062 0.2291666666662597 0
1.391346035224818 0.2499999999994922 0
1.427430427049177 0.2708333333328182 0
1.463514818873592 0.2916666666661755 0
1.49959921069806 0.3124999999995641 0
1.535683602522506 0.3333333333329394 0
1.571767994346972 0.3541666666663261 0
1.607852386171451 0.3749999999997212 0
1.643936777995911 0.3958333333331046 0
1.680021169820364 0.4166666666664844 0
1.716105561644808 0.4374999999998584 0
1.752189953469293 0.4583333333332568 0
1.788274345293769 0.4791666666666494 0
$EndNodes
$Elements
6 4704 1 12868
1 1 1 24
1 1 5 
2 5 6 
3 6 7 
4 7 8 
5 8 9 
6 9 10 
7 10 11 
8 11 12 
9 12 13 
10 13 14 
11 14 15 
12 15 16 
13 16 17 
14 17 18 
15 18 19 
16 19 20 
17 20 21 
18 21 22 
19 22 23 
20 23 24 
21 24 25 
22 25 26 
23 26 27 
24 27 2 
1 2 1 24
25 2 28 
26 28 29 
27 29 30 
28 30 31 
29 31 32 
30 32 33 
31 33 34 
32 34 35 
33 35 36 
34 36 37 
35 37 38 
36 38 39 
37 39 40 
38 40 41 
39 41 42 
40 42 43 
41 43 44 
42 44 45 
43 45 46 
44 46 47 
45 47 48 
46 48 49 
47 49 50 
48 50 3 
1 3 1 24
49 3 51 
50 51 52 
51 52 53 
52 53 54 
53 54 55 
54 55 56 
55 56 57 
56 57 58 
57 58 59 
58 59 60 
59 60 61 
60 61 62 
61 62 63 
62 63 64 
63 64 65 
64 65 66 
65 66 67 
66 67 68 
67 68 69 
68 69 70 
69 70 71 
70 71 72 
71 72 73 
72 73 4 
1 4 1 24
73 4 74 
74 74 75 
75 75 76 
76 76 77 
77 77 78 
78 78 79 
79 79 80 
80 80 81 
81 81 82 
82 82 83 
83 83 84 
84 84 85 
85 85 86 
86 86 87 
87 87 88 
88 88 89 
89 89 90 
90 90 91 
91 91 92 
92 92 93 
93 93 94 
94 94 95 
95 95 96 
96 96 1 
1 5 1 3456
9413 1 5 
9414 5 96 
9415 96 1 
9416 96 5 
9417 5 97 
9418 97 96 
9419 96 97 
9420 97 98 
9421 98 96 
9422 98 95 
9423 95 96 
9424 96 98 
9425 95 98 
9426 98 94 
9427 94 95 
9428 94 98 
9429 98 99 
9430 99 94 
9431 94 99 
9432 99 100 
9433 100 94 
9434 100 93 
9435 93 94 
9436 94 100 
9437 93 100 
9438 100 92 
9439 92 93 
9440 92 100 
9441 100 101 
9442 101 92 
9443 92 101 
9444 101 102 
9445 102 92 
9446 102 91 
9447 91 92 
9448 92 102 
9449 91 102 
9450 102 90 
9451 90 91 
9452 90 102 
9453 102 103 
9454 103 90 
9455 90 103 
9456 103 104 
9457 104 90 
9458 104 89 
9459 89 90 
9460 90 104 
9461 89 104 
9462 104 88 
9463 88 89 
9464 88 104 
9465 104 105 
9466 105 88 
9467 88 105 
9468 105 106 
9469 106 88 
9470 106 87 
9471 87 88 
9472 88 106 
9473 87 106 
9474 106 86 
9475 86 87 
9476 86 106 
9477 106 107 
9478 107 86 
9479 86 107 
9480 107 108 
9481 108 86 
9482 108 85 
9483 85 86 
9484 86 108 
9485 85 108 
9486 108 84 
9487 84 85 
9488 84 108 
9489 108 109 
9490 109 84 
9491 84 109 
9492 109 110 
9493 110 84 
9494 110 83 
9495 83 84 
9496 84 110 
9497 83 110 
9498 110 82 
9499 82 83 
9500 82 110 
9501 110 111 
9502 111 82 
9503 82 111 
9504 111 112 
9505 112 82 
9506 112 81 
9507 81 82 
9508 82 112 
9509 81 112 
9510 112 80 
9511 80 81 
9512 80 112 
9513 112 113 
9514 113 80 
9515 80 113 
9516 113 114 
9517 114 80 
9518 114 79 
9519 79 80 
9520 80 114 
9521 79 114 
9522 114 78 
9523 78 79 
9524 78 114 
9525 114 115 
9526 115 78 
9527 78 115 
9528 115 116 
9529 116 78 
9530 116 77 
9531 77 78 
9532 78 116 
9533 77 116 
9534 116 76 
9535 76 77 
9536 76 116 
9537 116 117 
9538 117 76 
9539 76 117 
9540 117 118 
9541 118 76 
9542 118 75 
9543 75 76 
9544 76 118 
9545 75 118 
9546 118 74 
9547 74 75 
9548 74 118 
9549 118 119 
9550 119 74 
9551 74 119 
9552 119 73 
9553 73 74 
9554 73 4 
9555 4 74 
9556 74 73 
9557 5 6 
9558 6 120 
9559 120 5 
9560 120 97 
9561 97 5 
9562 5 120 
9563 97 120 
9564 120 98 
9565 98 97 
9566 98 120 
9567 120 121 
9568 121 98 
9569 98 121 
9570 121 122 
9571 122 98 
9572 122 99 
9573 99 98 
9574 98 122 
9575 99 122 
9576 122 100 
9577 100 99 
9578 100 122 
9579 122 123 
9580 123 100 
9581 100 123 
9582 123 124 
9583 124 100 
9584 124 101 
9585 101 100 
9586 100 124 
9587 101 124 
9588 124 102 
9589 102 101 
9590 102 124 
9591 124 125 
9592 125 102 
9593 102 125 
9594 125 126 
9595 126 102 
9596 126 103 
9597 103 102 
9598 102 126 
9599 103 126 
9600 126 104 
9601 104 103 
9602 104 126 
9603 126 127 
9604 127 104 
9605 104 127 
9606 127 128 
9607 128 104 
9608 128 105 
9609 105 104 
9610 104 128 
9611 105 128 
9612 128 106 
9613 106 105 
9614 106 128 
9615 128 129 
9616 129 106 
9617 106 129 
9618 129 130 
9619 130 106 
9620 130 107 
9621 107 106 
9622 106 130 
9623 107 130 
9624 130 108 
9625 108 107 
9626 108 130 
9627 130 131 
9628 131 108 
9629 108 131 
9630 131 132 
9631 132 108 
9632 132 109 
9633 109 108 
9634 108 132 
9635 109 132 
9636 132 110 
9637 110 109 
9638 110 132 
9639 132 133 
9640 133 110 
9641 110 133 
9642 133 134 
9643 134 110 
9644 134 111 
9645 111 110 
9646 110 134 
9647 111 134 
9648 134 112 
9649 112 111 
9650 112 134 
9651 134 135 
9652 135 112 
9653 112 135 
9654 135 136 
9655 136 112 
9656 136 113 
9657 113 112 
9658 112 136 
9659 113 136 
9660 136 114 
9661 114 113 
9662 114 136 
9663 136 137 
9664 137 114 
9665 114 137 
9666 137 138 
9667 138 114 
9668 138 115 
9669 115 114 
9670 114 138 
9671 115 138 
9672 138 116 
9673 116 115 
9674 116 138 
9675 138 139 
9676 139 116 
9677 116 139 
9678 139 140 
9679 140 116 
9680 140 117 
9681 117 116 
9682 116 140 
9683 117 140 
9684 140 118 
9685 118 117 
9686 118 140 
9687 140 141 
9688 141 118 
9689 118 141 
9690 141 142 
9691 142 118 
9692 142 119 
9693 119 118 
9694 118 142 
9695 119 142 
9696 142 73 
9697 73 119 
9698 73 142 
9699 142 72 
9700 72 73 
9701 6 7 
9702 7 120 
9703 120 6 
9704 120 7 
9705 7 143 
9706 143 120 
9707 120 143 
9708 143 144 
9709 144 120 
9710 144 121 
9711 121 120 
9712 120 144 
9713 121 144 
9714 144 122 
9715 122 121 
9716 122 144 
9717 144 145 
9718 145 122 
9719 122 145 
9720 145 146 
9721 146 122 
9722 146 123 
9723 123 122 
9724 122 146 
9725 123 146 
9726 146 124 
9727 124 123 
9728 124 146 
9729 146 147 
9730 147 124 
9731 124 147 
9732 147 148 
9733 148 124 
9734 148 125 
9735 125 124 
9736 124 148 
9737 125 148 
9738 148 126 
9739 126 125 
9740 126 148 
9741 148 149 
9742 149 126 
9743 126 149 
9744 149 150 
9745 150 126 
9746 150 127 
9747 127 126 
9748 126 150 
9749 127 150 
9750 150 128 
9751 128 127 
9752 128 150 
9753 150 151 
9754 151 128 
9755 128 151 
9756 151 152 
9757 152 128 
9758 152 129 
9759 129 128 
9760 128 152 
9761 129 152 
9762 152 130 
9763 130 129 
9764 130 152 
9765 152 153 
9766 153 130 
9767 130 153 
9768 153 154 
9769 154 130 
9770 154 131 
9771 131 130 
9772 130 154 
9773 131 154 
9774 154 132 
9775 132 131 
9776 132 154 
9777 154 155 
9778 155 132 
9779 132 155 
9780 155 156 
9781 156 132 
9782 156 133 
9783 133 132 
9784 132 156 
9785 133 156 
9786 156 134 
9787 134 133 
9788 134 156 
9789 156 157 
9790 157 134 
9791 134 157 
9792 157 158 
9793 158 134 
9794 158 135 
9795 135 134 
9796 134 158 
9797 135 158 
9798 158 136 
9799 136 135 
9800 136 158 
9801 158 159 
9802 159 136 
9803 136 159 
9804 159 160 
9805 160 136 
9806 160 137 
9807 137 136 
9808 136 160 
9809 137 160 
9810 160 138 
9811 138 137 
9812 138 160 
9813 160 161 
9814 161 138 
9815 138 161 
9816 161 162 
9817 162 138 
9818 162 139 
9819 139 138 
9820 138 162 
9821 139 162 
9822 162 140 
9823 140 139 
9824 140 162 
9825 162 163 
9826 163 140 
9827 140 163 
9828 163 164 
9829 164 140 
9830 164 141 
9831 141 140 
9832 140 164 
9833 141 164 
9834 164 142 
9835 142 141 
9836 142 164 
9837 164 165 
9838 165 142 
9839 142 165 
9840 165 71 
9841 71 142 
9842 71 72 
9843 72 142 
9844 142 71 
9845 7 8 
9846 8 166 
9847 166 7 
9848 166 143 
9849 143 7 
9850 7 166 
9851 143 166 
9852 166 144 
9853 144 143 
9854 144 166 
9855 166 167 
9856 167 144 
9857 144 167 
9858 167 168 
9859 168 144 
9860 168 145 
9861 145 144 
9862 144 168 
9863 145 168 
9864 168 146 
9865 146 145 
9866 146 168 
9867 168 169 
9868 169 146 
9869 146 169 
9870 169 170 
9871 170 146 
9872 170 147 
9873 147 146 
9874 146 170 
9875 147 170 
9876 170 148 
9877 148 147 
9878 148 170 
9879 170 171 
9880 171 148 
9881 148 171 
9882 171 172 
9883 172 148 
9884 172 149 
9885 149 148 
9886 148 172 
9887 149 172 
9888 172 150 
9889 150 149 
9890 150 172 
9891 172 173 
9892 173 150 
9893 150 173 
9894 173 174 
9895 174 150 
9896 174 151 
9897 151 150 
9898 150 174 
9899 151 174 
9900 174 152 
9901 152 151 
9902 152 174 
9903 174 175 
9904 175 152 
9905 152 175 
9906 175 176 
9907 176 152 
9908 176 153 
9909 153 152 
9910 152 176 
9911 153 176 
9912 176 154 
9913 154 153 
9914 154 176 
9915 176 177 
9916 177 154 
9917 154 177 
9918 177 178 
9919 178 154 
9920 178 155 
9921 155 154 
9922 154 178 
9923 155 178 
9924 178 156 
9925 156 155 
9926 156 178 
9927 178 179 
9928 179 156 
9929 156 179 
9930 179 180 
9931 180 156 
9932 180 157 
9933 157 156 
9934 156 180 
9935 157 180 
9936 180 158 
9937 158 157 
9938 158 180 
9939 180 181 
9940 181 158 
9941 158 181 
9942 181 182 
9943 182 158 
9944 182 159 
9945 159 158 
9946 158 182 
9947 159 182 
9948 182 160 
9949 160 159 
9950 160 182 
9951 182 183 
9952 183 160 
9953 160 183 
9954 183 184 
9955 184 160 
9956 184 161 
9957 161 160 
9958 160 184 
9959 161 184 
9960 184 162 
9961 162 161 
9962 162 184 
9963 184 185 
9964 185 162 
9965 162 185 
9966 185 186 
9967 186 162 
9968 186 163 
9969 163 162 
9970 162 186 
9971 163 186 
9972 186 164 
9973 164 163 
9974 164 186 
9975 186 187 
9976 187 164 
9977 164 187 
9978 187 188 
9979 188 164 
9980 188 165 
9981 165 164 
9982 164 188 
9983 165 188 
9984 188 71 
9985 71 165 
9986 71 188 
9987 188 70 
9988 70 71 
9989 8 9 
9990 9 166 
9991 166 8 
9992 166 9 
9993 9 189 
9994 189 166 
9995 166 189 
9996 189 190 
9997 190 166 
9998 190 167 
9999 167 166 
10000 166 190 
10001 167 190 
10002 190 168 
10003 168 167 
10004 168 190 
10005 190 191 
10006 191 168 
10007 168 191 
10008 191 192 
10009 192 168 
10010 192 169 
10011 169 168 
10012 168 192 
10013 169 192 
10014 192 170 
10015 170 169 
10016 170 192 
10017 192 193 
10018 193 170 
10019 170 193 
10020 193 194 
10021 194 170 
10022 194 171 
10023 171 170 
10024 170 194 
10025 171 194 
10026 194 172 
10027 172 171 
10028 172 194 
10029 194 195 
10030 195 172 
10031 172 195 
10032 195 196 
10033 196 172 
10034 196 173 
10035 173 172 
10036 172 196 
10037 173 196 
10038 196 174 
10039 174 173 
10040 174 196 
10041 196 197 
10042 197 174 
10043 174 197 
10044 197 198 
10045 198 174 
10046 198 175 
10047 175 174 
10048 174 198 
10049 175 198 
10050 198 176 
10051 176 175 
10052 176 198 
10053 198 199 
10054 199 176 
10055 176 199 
10056 199 200 
10057 200 176 
10058 200 177 
10059 177 176 
10060 176 200 
10061 177 200 
10062 200 178 
10063 178 177 
10064 178 200 
10065 200 201 
10066 201 178 
10067 178 201 
10068 201 202 
10069 202 178 
10070 202 179 
10071 179 178 
10072 178 202 
10073 179 202 
10074 202 180 
10075 180 179 
10076 180 202 
10077 202 203 
10078 203 180 
10079 180 203 
10080 203 204 
10081 204 180 
10082 204 181 
10083 181 180 
10084 180 204 
10085 181 204 
10086 204 182 
10087 182 181 
10088 182 204 
10089 204 205 
10090 205 182 
10091 182 205 
10092 205 206 
10093 206 182 
10094 206 183 
10095 183 182 
10096 182 206 
10097 183 206 
10098 206 184 
10099 184 183 
10100 184 206 
10101 206 207 
10102 207 184 
10103 184 207 
10104 207 208 
10105 208 184 
10106 208 185 
10107 185 184 
10108 184 208 
10109 185 208 
10110 208 186 
10111 186 185 
10112 186 208 
10113 208 209 
10114 209 186 
10115 186 209 
10116 209 210 
10117 210 186 
10118 210 187 
10119 187 186 
10120 186 210 
10121 187 210 
10122 210 188 
10123 188 187 
10124 188 210 
10125 210 211 
10126 211 188 
10127 188 211 
10128 211 69 
10129 69 188 
10130 69 70 
10131 70 188 
10132 188 69 
10133 9 10 
10134 10 212 
10135 212 9 
10136 212 189 
10137 189 9 
10138 9 212 
10139 189 212 
10140 212 190 
10141 190 189 
10142 190 212 
10143 212 213 
10144 213 190 
10145 190 213 
10146 213 214 
10147 214 190 
10148 214 191 
10149 191 190 
10150 190 214 
10151 191 214 
10152 214 192 
10153 192 191 
10154 192 214 
10155 214 215 
10156 215 192 
10157 192 215 
10158 215 216 
10159 216 192 
10160 216 193 
10161 193 192 
10162 192 216 
10163 193 216 
10164 216 194 
10165 194 193 
10166 194 216 
10167 216 217 
10168 217 194 
10169 194 217 
10170 217 218 
10171 218 194 
10172 218 195 
10173 195 194 
10174 194 218 
10175 195 218 
10176 218 196 
10177 196 195 
10178 196 218 
10179 218 219 
10180 219 196 
10181 196 219 
10182 219 220 
10183 220 196 
10184 220 197 
10185 197 196 
10186 196 220 
10187 197 220 
10188 220 198 
10189 198 197 
10190 198 220 
10191 220 221 
10192 221 198 
10193 198 221 
10194 221 222 
10195 222 198 
10196 222 199 
10197 199 198 
10198 198 222 
10199 199 222 
10200 222 200 
10201 200 199 
10202 200 222 
10203 222 223 
10204 223 200 
10205 200 223 
10206 223 224 
10207 224 200 
10208 224 201 
10209 201 200 
10210 200 224 
10211 201 224 
10212 224 202 
10213 202 201 
10214 202 224 
10215 224 225 
10216 225 202 
10217 202 225 
10218 225 226 
10219 226 202 
10220 226 203 
10221 203 202 
10222 202 226 
10223 203 226 
10224 226 204 
10225 204 203 
10226 204 226 
10227 226 227 
10228 227 204 
10229 204 227 
10230 227 228 
10231 228 204 
10232 228 205 
10233 205 204 
10234 204 228 
10235 205 228 
10236 228 206 
10237 206 205 
10238 206 228 
10239 228 229 
10240 229 206 
10241 206 229 
10242 229 230 
10243 230 206 
10244 230 207 
10245 207 206 
10246 206 230 
10247 207 230 
10248 230 208 
10249 208 207 
10250 208 230 
10251 230 231 
10252 231 208 
10253 208 231 
10254 231 232 
10255 232 208 
10256 232 209 
10257 209 208 
10258 208 232 
10259 209 232 
10260 232 210 
10261 210 209 
10262 210 232 
10263 232 233 
10264 233 210 
10265 210 233 
10266 233 234 
10267 234 210 
10268 234 211 
10269 211 210 
10270 210 234 
10271 211 234 
10272 234 69 
10273 69 211 
10274 69 234 
10275 234 68 
10276 68 69 
10277 10 11 
10278 11 212 
10279 212 10 
10280 212 11 
10281 11 235 
10282 235 212 
10283 212 235 
10284 235 236 
10285 236 212 
10286 236 213 
10287 213 212 
10288 212 236 
10289 213 236 
10290 236 214 
10291 214 213 
10292 214 236 
10293 236 237 
10294 237 214 
10295 214 237 
10296 237 238 
10297 238 214 
10298 238 215 
10299 215 214 
10300 214 238 
10301 215 238 
10302 238 216 
10303 216 215 
10304 216 238 
10305 238 239 
10306 239 216 
10307 216 239 
10308 239 240 
10309 240 216 
10310 240 217 
10311 217 216 
10312 216 240 
10313 217 240 
10314 240 218 
10315 218 217 
10316 218 240 
10317 240 241 
10318 241 218 
10319 218 241 
10320 241 242 
10321 242 218 
10322 242 219 
10323 219 218 
10324 218 242 
10325 219 242 
10326 242 220 
10327 220 219 
10328 220 242 
10329 242 243 
10330 243 220 
10331 220 243 
10332 243 244 
10333 244 220 
10334 244 221 
10335 221 220 
10336 220 244 
10337 221 244 
10338 244 222 
10339 222 221 
10340 222 244 
10341 244 245 
10342 245 222 
10343 222 245 
10344 245 246 
10345 246 222 
10346 246 223 
10347 223 222 
10348 222 246 
10349 223 246 
10350 246 224 
10351 224 223 
10352 224 246 
10353 246 247 
10354 247 224 
10355 224 247 
10356 247 248 
10357 248 224 
10358 248 225 
10359 225 224 
10360 224 248 
10361 225 248 
10362 248 226 
10363 226 225 
10364 226 248 
10365 248 249 
10366 249 226 
10367 226 249 
10368 249 250 
10369 250 226 
10370 250 227 
10371 227 226 
10372 226 250 
10373 227 250 
10374 250 228 
10375 228 227 
10376 228 250 
10377 250 251 
10378 251 228 
10379 228 251 
10380 251 252 
10381 252 228 
10382 252 229 
10383 229 228 
10384 228 252 
10385 229 252 
10386 252 230 
10387 230 229 
10388 230 252 
10389 252 253 
10390 253 230 
10391 230 253 
10392 253 254 
10393 254 230 
10394 254 231 
10395 231 230 
10396 230 254 
10397 231 254 
10398 254 232 
10399 232 231 
10400 232 254 
10401 254 255 
10402 255 232 
10403 232 255 
10404 255 256 
10405 256 232 
10406 256 233 
10407 233 232 
10408 232 256 
10409 233 256 
10410 256 234 
10411 234 233 
10412 234 256 
10413 256 257 
10414 257 234 
10415 234 257 
10416 257 67 
10417 67 234 
10418 67 68 
10419 68 234 
10420 234 67 
10421 11 12 
10422 12 258 
10423 258 11 
10424 258 235 
10425 235 11 
10426 11 258 
10427 235 258 
10428 258 236 
10429 236 235 
10430 236 258 
10431 258 259 
10432 259 236 
10433 236 259 
10434 259 260 
10435 260 236 
10436 260 237 
10437 237 236 
10438 236 260 
10439 237 260 
10440 260 238 
10441 238 237 
10442 238 260 
10443 260 261 
10444 261 238 
10445 238 261 
10446 261 262 
10447 262 238 
10448 262 239 
10449 239 238 
10450 238 262 
10451 239 262 
10452 262 240 
10453 240 239 
10454 240 262 
10455 262 263 
10456 263 240 
10457 240 263 
10458 263 264 
10459 264 240 
10460 264 241 
10461 241 240 
10462 240 264 
10463 241 264 
10464 264 242 
10465 242 241 
10466 242 264 
10467 264 265 
10468 265 242 
10469 242 265 
10470 265 266 
10471 266 242 
10472 266 243 
10473 243 242 
10474 242 266 
10475 243 266 
10476 266 244 
10477 244 243 
10478 244 266 
10479 266 267 
10480 267 244 
10481 244 267 
10482 267 268 
10483 268 244 
10484 268 245 
10485 245 244 
10486 244 268 
10487 245 268 
10488 268 246 
10489 246 245 
10490 246 268 
10491 268 269 
10492 269 246 
10493 246 269 
10494 269 270 
10495 270 246 
10496 270 247 
10497 247 246 
10498 246 270 
10499 247 270 
10500 270 248 
10501 248 247 
10502 248 270 
10503 270 271 
10504 271 248 
10505 248 271 
10506 271 272 
10507 272 248 
10508 272 249 
10509 249 248 
10510 248 272 
10511 249 272 
10512 272 250 
10513 250 249 
10514 250 272 
10515 272 273 
10516 273 250 
10517 250 273 
10518 273 274 
10519 274 250 
10520 274 251 
10521 251 250 
10522 250 274 
10523 251 274 
10524 274 252 
10525 252 251 
10526 252 274 
10527 274 275 
10528 275 252 
10529 252 275 
10530 275 276 
10531 276 252 
10532 276 253 
10533 253 252 
10534 252 276 
10535 253 276 
10536 276 254 
10537 254 253 
10538 254 276 
10539 276 277 
10540 277 254 
10541 254 277 
10542 277 278 
10543 278 254 
10544 278 255 
10545 255 254 
10546 254 278 
10547 255 278 
10548 278 256 
10549 256 255 
10550 256 278 
10551 278 279 
10552 279 256 
10553 256 279 
10554 279 280 
10555 280 256 
10556 280 257 
10557 257 256 
10558 256 280 
10559 257 280 
10560 280 67 
10561 67 257 
10562 67 280 
10563 280 66 
10564 66 67 
10565 12 13 
10566 13 258 
10567 258 12 
10568 258 13 
10569 13 281 
10570 281 258 
10571 258 281 
10572 281 282 
10573 282 258 
10574 282 259 
10575 259 258 
10576 258 282 
10577 259 282 
10578 282 260 
10579 260 259 
10580 260 282 
10581 282 283 
10582 283 260 
10583 260 283 
10584 283 284 
10585 284 260 
10586 284 261 
10587 261 260 
10588 260 284 
10589 261 284 
10590 284 262 
10591 262 261 
10592 262 284 
10593 284 285 
10594 285 262 
10595 262 285 
10596 285 286 
10597 286 262 
10598 286 263 
10599 263 262 
10600 262 286 
10601 263 286 
10602 286 264 
10603 264 263 
10604 264 286 
10605 286 287 
10606 287 264 
10607 264 287 
10608 287 288 
10609 288 264 
10610 288 265 
10611 265 264 
10612 264 288 
10613 265 288 
10614 288 266 
10615 266 265 
10616 266 288 
10617 288 289 
10618 289 266 
10619 266 289 
10620 289 290 
10621 290 266 
10622 290 267 
10623 267 266 
10624 266 290 
10625 267 290 
10626 290 268 
10627 268 267 
10628 268 290 
10629 290 291 
10630 291 268 
10631 268 291 
10632 291 292 
10633 292 268 
10634 292 269 
10635 269 268 
10636 268 292 
10637 269 292 
10638 292 270 
10639 270 269 
10640 270 292 
10641 292 293 
10642 293 270 
10643 270 293 
10644 293 294 
10645 294 270 
10646 294 271 
10647 271 270 
10648 270 294 
10649 271 294 
10650 294 272 
10651 272 271 
10652 272 294 
10653 294 295 
10654 295 272 
10655 272 295 
10656 295 296 
10657 296 272 
10658 296 273 
10659 273 272 
10660 272 296 
10661 273 296 
10662 296 274 
10663 274 273 
10664 274 296 
10665 296 297 
10666 297 274 
10667 274 297 
10668 297 298 
10669 298 274 
10670 298 275 
10671 275 274 
10672 274 298 
10673 275 298 
10674 298 276 
10675 276 275 
10676 276 298 
10677 298 299 
10678 299 276 
10679 276 299 
10680 299 300 
10681 300 276 
10682 300 277 
10683 277 276 
10684 276 300 
10685 277 300 
10686 300 278 
10687 278 277 
10688 278 300 
10689 300 301 
10690 301 278 
10691 278 301 
10692 301 302 
10693 302 278 
10694 302 279 
10695 279 278 
10696 278 302 
10697 279 302 
10698 302 280 
10699 280 279 
10700 280 302 
10701 302 303 
10702 303 280 
10703 280 303 
10704 303 65 
10705 65 280 
10706 65 66 
10707 66 280 
10708 280 65 
10709 13 14 
10710 14 304 
10711 304 13 
10712 304 281 
10713 281 13 
10714 13 304 
10715 281 304 
10716 304 282 
10717 282 281 
10718 282 304 
10719 304 305 
10720 305 282 
10721 282 305 
10722 305 306 
10723 306 282 
10724 306 283 
10725 283 282 
10726 282 306 
10727 283 306 
10728 306 284 
10729 284 283 
10730 284 306 
10731 306 307 
10732 307 284 
10733 284 307 
10734 307 308 
10735 308 284 
10736 308 285 
10737 285 284 
10738 284 308 
10739 285 308 
10740 308 286 
10741 286 285 
10742 286 308 
10743 308 309 
10744 309 286 
10745 286 309 
10746 309 310 
10747 310 286 
10748 310 287 
10749 287 286 
10750 286 310 
10751 287 310 
10752 310 288 
10753 288 287 
10754 288 310 
10755 310 311 
10756 311 288 
10757 288 311 
10758 311 312 
10759 312 288 
10760 312 289 
10761 289 288 
10762 288 312 
10763 289 312 
10764 312 290 
10765 290 289 
10766 290 312 
10767 312 313 
10768 313 290 
10769 290 313 
10770 313 314 
10771 314 290 
10772 314 291 
10773 291 290 
10774 290 314 
10775 291 314 
10776 314 292 
10777 292 291 
10778 292 314 
10779 314 315 
10780 315 292 
10781 292 315 
10782 315 316 
10783 316 292 
10784 316 293 
10785 293 292 
10786 292 316 
10787 293 316 
10788 316 294 
10789 294 293 
10790 294 316 
10791 316 317 
10792 317 294 
10793 294 317 
10794 317 318 
10795 318 294 
10796 318 295 
10797 295 294 
10798 294 318 
10799 295 318 
10800 318 296 
10801 296 295 
10802 296 318 
10803 318 319 
10804 319 296 
10805 296 319 
10806 319 320 
10807 320 296 
10808 320 297 
10809 297 296 
10810 296 320 
10811 297 320 
10812 320 298 
10813 298 297 
10814 298 320 
10815 320 321 
10816 321 298 
10817 298 321 
10818 321 322 
10819 322 298 
10820 322 299 
10821 299 298 
10822 298 322 
10823 299 322 
10824 322 300 
10825 300 299 
10826 300 322 
10827 322 323 
10828 323 300 
10829 300 323 
10830 323 324 
10831 324 300 
10832 324 301 
10833 301 300 
10834 300 324 
10835 301 324 
10836 324 302 
10837 302 301 
10838 302 324 
10839 324 325 
10840 325 302 
10841 302 325 
10842 325 326 
10843 326 302 
10844 326 303 
10845 303 302 
10846 302 326 
10847 303 326 
10848 326 65 
10849 65 303 
10850 65 326 
10851 326 64 
10852 64 65 
10853 14 15 
10854 15 304 
10855 304 14 
10856 304 15 
10857 15 327 
10858 327 304 
10859 304 327 
10860 327 328 
10861 328 304 
10862 328 305 
10863 305 304 
10864 304 328 
10865 305 328 
10866 328 306 
10867 306 305 
10868 306 328 
10869 328 329 
10870 329 306 
10871 306 329 
10872 329 330 
10873 330 306 
10874 330 307 
10875 307 306 
10876 306 330 
10877 307 330 
10878 330 308 
10879 308 307 
10880 308 330 
10881 330 331 
10882 331 308 
10883 308 331 
10884 331 332 
10885 332 308 
10886 332 309 
10887 309 308 
10888 308 332 
10889 309 332 
10890 332 310 
10891 310 309 
10892 310 332 
10893 332 333 
10894 333 310 
10895 310 333 
10896 333 334 
10897 334 310 
10898 334 311 
10899 311 310 
10900 310 334 
10901 311 334 
10902 334 312 
10903 312 311 
10904 312 334 
10905 334 335 
10906 335 312 
10907 312 335 
10908 335 336 
10909 336 312 
10910 336 313 
10911 313 312 
10912 312 336 
10913 313 336 
10914 336 314 
10915 314 313 
10916 314 336 
10917 336 337 
10918 337 314 
10919 314 337 
10920 337 338 
10921 338 314 
10922 338 315 
10923 315 314 
10924 314 338 
10925 315 338 
10926 338 316 
10927 316 315 
10928 316 338 
10929 338 339 
10930 339 316 
10931 316 339 
10932 339 340 
10933 340 316 
10934 340 317 
10935 317 316 
10936 316 340 
10937 317 340 
10938 340 318 
10939 318 317 
10940 318 340 
10941 340 341 
10942 341 318 
10943 318 341 
10944 341 342 
10945 342 318 
10946 342 319 
10947 319 318 
10948 318 342 
10949 319 342 
10950 342 320 
10951 320 319 
10952 320 342 
10953 342 343 
10954 343 320 
10955 320 343 
10956 343 344 
10957 344 320 
10958 344 321 
10959 321 320 
10960 320 344 
10961 321 344 
10962 344 322 
10963 322 321 
10964 322 344 
10965 344 345 
10966 345 322 
10967 322 345 
10968 345 346 
10969 346 322 
10970 346 323 
10971 323 322 
10972 322 346 
10973 323 346 
10974 346 324 
10975 324 323 
10976 324 346 
10977 346 347 
10978 347 324 
10979 324 347 
10980 347 348 
10981 348 324 
10982 348 325 
10983 325 324 
10984 324 348 
10985 325 348 
10986 348 326 
10987 326 325 
10988 326 348 
10989 348 349 
10990 349 326 
10991 326 349 
10992 349 63 
10993 63 326 
10994 63 64 
10995 64 326 
10996 326 63 
10997 15 16 
10998 16 350 
10999 350 15 
11000 350 327 
11001 327 15 
11002 15 350 
11003 327 350 
11004 350 328 
11005 328 327 
11006 328 350 
11007 350 351 
11008 351 328 
11009 328 351 
11010 351 352 
11011 352 328 
11012 352 329 
11013 329 328 
11014 328 352 
11015 329 352 
11016 352 330 
11017 330 329 
11018 330 352 
11019 352 353 
11020 353 330 
11021 330 353 
11022 353 354 
11023 354 330 
11024 354 331 
11025 331 330 
11026 330 354 
11027 331 354 
11028 354 332 
11029 332 331 
11030 332 354 
11031 354 355 
11032 355 332 
11033 332 355 
11034 355 356 
11035 356 332 
11036 356 333 
11037 333 332 
11038 332 356 
11039 333 356 
11040 356 334 
11041 334 333 
11042 334 356 
11043 356 357 
11044 357 334 
11045 334 357 
11046 357 358 
11047 358 334 
11048 358 335 
11049 335 334 
11050 334 358 
11051 335 358 
11052 358 336 
11053 336 335 
11054 336 358 
11055 358 359 
11056 359 336 
11057 336 359 
11058 359 360 
11059 360 336 
11060 360 337 
11061 337 336 
11062 336 360 
11063 337 360 
11064 360 338 
11065 338 337 
11066 338 360 
11067 360 361 
11068 361 338 
11069 338 361 
11070 361 362 
11071 362 338 
11072 362 339 
11073 339 338 
11074 338 362 
11075 339 362 
11076 362 340 
11077 340 339 
11078 340 362 
11079 362 363 
11080 363 340 
11081 340 363 
11082 363 364 
11083 364 340 
11084 364 341 
11085 341 340 
11086 340 364 
11087 341 364 
11088 364 342 
11089 342 341 
11090 342 364 
11091 364 365 
11092 365 342 
11093 342 365 
11094 365 366 
11095 366 342 
11096 366 343 
11097 343 342 
11098 342 366 
11099 343 366 
11100 366 344 
11101 344 343 
11102 344 366 
11103 366 367 
11104 367 344 
11105 344 367 
11106 367 368 
11107 368 344 
11108 368 345 
11109 345 344 
11110 344 368 
11111 345 368 
11112 368 346 
11113 346 345 
11114 346 368 
11115 368 369 
11116 369 346 
11117 346 369 
11118 369 370 
11119 370 346 
11120 370 347 
11121 347 346 
11122 346 370 
11123 347 370 
11124 370 348 
11125 348 347 
11126 348 370 
11127 370 371 
11128 371 348 
11129 348 371 
11130 371 372 
11131 372 348 
11132 372 349 
11133 349 348 
11134 348 372 
11135 349 372 
11136 372 63 
11137 63 349 
11138 63 372 
11139 372 62 
11140 62 63 
11141 16 17 
11142 17 350 
11143 350 16 
11144 350 17 
11145 17 373 
11146 373 350 
11147 350 373 
11148 373 374 
11149 374 350 
11150 374 351 
11151 351 350 
11152 350 374 
11153 351 374 
11154 374 352 
11155 352 351 
11156 352 374 
11157 374 375 
11158 375 352 
11159 352 375 
11160 375 376 
11161 376 352 
11162 376 353 
11163 353 352 
11164 352 376 
11165 353 376 
11166 376 354 
11167 354 353 
11168 354 376 
11169 376 377 
11170 377 354 
11171 354 377 
11172 377 378 
11173 378 354 
11174 378 355 
11175 355 354 
11176 354 378 
11177 355 378 
11178 378 356 
11179 356 355 
11180 356 378 
11181 378 379 
11182 379 356 
11183 356 379 
11184 379 380 
11185 380 356 
11186 380 357 
11187 357 356 
11188 356 380 
11189 357 380 
11190 380 358 
11191 358 357 
11192 358 380 
11193 380 381 
11194 381 358 
11195 358 381 
11196 381 382 
11197 382 358 
11198 382 359 
11199 359 358 
11200 358 382 
11201 359 382 
11202 382 360 
11203 360 359 
11204 360 382 
11205 382 383 
11206 383 360 
11207 360 383 
11208 383 384 
11209 384 360 
11210 384 361 
11211 361 360 
11212 360 384 
11213 361 384 
11214 384 362 
11215 362 361 
11216 362 384 
11217 384 385 
11218 385 362 
11219 362 385 
11220 385 386 
11221 386 362 
11222 386 363 
11223 363 362 
11224 362 386 
11225 363 386 
11226 386 364 
11227 364 363 
11228 364 386 
11229 386 387 
11230 387 364 
11231 364 387 
11232 387 388 
11233 388 364 
11234 388 365 
11235 365 364 
11236 364 388 
11237 365 388 
11238 388 366 
11239 366 365 
11240 366 388 
11241 388 389 
11242 389 366 
11243 366 389 
11244 389 390 
11245 390 366 
11246 390 367 
11247 367 366 
11248 366 390 
11249 367 390 
11250 390 368 
11251 368 367 
11252 368 390 
11253 390 391 
11254 391 368 
11255 368 391 
11256 391 392 
11257 392 368 
11258 392 369 
11259 369 368 
11260 368 392 
11261 369 392 
11262 392 370 
11263 370 369 
11264 370 392 
11265 392 393 
11266 393 370 
11267 370 393 
11268 393 394 
11269 394 370 
11270 394 371 
11271 371 370 
11272 370 394 
11273 371 394 
11274 394 372 
11275 372 371 
11276 372 394 
11277 394 395 
11278 395 372 
11279 372 395 
11280 395 61 
11281 61 372 
11282 61 62 
11283 62 372 
11284 372 61 
11285 17 18 
11286 18 396 
11287 396 17 
11288 396 373 
11289 373 17 
11290 17 396 
11291 373 396 
11292 396 374 
11293 374 373 
11294 374 396 
11295 396 397 
11296 397 374 
11297 374 397 
11298 397 398 
11299 398 374 
11300 398 375 
11301 375 374 
11302 374 398 
11303 375 398 
11304 398 376 
11305 376 375 
11306 376 398 
11307 398 399 
11308 399 376 
11309 376 399 
11310 399 400 
11311 400 376 
11312 400 377 
11313 377 376 
11314 376 400 
11315 377 400 
11316 400 378 
11317 378 377 
11318 378 400 
11319 400 401 
11320 401 378 
11321 378 401 
11322 401 402 
11323 402 378 
11324 402 379 
11325 379 378 
11326 378 402 
11327 379 402 
11328 402 380 
11329 380 379 
11330 380 402 
11331 402 403 
11332 403 380 
11333 380 403 
11334 403 404 
11335 404 380 
11336 404 381 
11337 381 380 
11338 380 404 
11339 381 404 
11340 404 382 
11341 382 381 
11342 382 404 
11343 404 405 
11344 405 382 
11345 382 405 
11346 405 406 
11347 406 382 
11348 406 383 
11349 383 382 
11350 382 406 
11351 383 406 
11352 406 384 
11353 384 383 
11354 384 406 
11355 406 407 
11356 407 384 
11357 384 407 
11358 407 408 
11359 408 384 
11360 408 385 
11361 385 384 
11362 384 408 
11363 385 408 
11364 408 386 
11365 386 385 
11366 386 408 
11367 408 409 
11368 409 386 
11369 386 409 
11370 409 410 
11371 410 386 
11372 410 387 
11373 387 386 
11374 386 410 
11375 387 410 
11376 410 388 
11377 388 387 
11378 388 410 
11379 410 411 
11380 411 388 
11381 388 411 
11382 411 412 
11383 412 388 
11384 412 389 
11385 389 388 
11386 388 412 
11387 389 412 
11388 412 390 
11389 390 389 
11390 390 412 
11391 412 413 
11392 413 390 
11393 390 413 
11394 413 414 
11395 414 390 
11396 414 391 
11397 391 390 
11398 390 414 
11399 391 414 
11400 414 392 
11401 392 391 
11402 392 414 
11403 414 415 
11404 415 392 
11405 392 415 
11406 415 416 
11407 416 392 
11408 416 393 
11409 393 392 
11410 392 416 
11411 393 416 
11412 416 394 
11413 394 393 
11414 394 416 
11415 416 417 
11416 417 394 
11417 394 417 
11418 417 418 
11419 418 394 
11420 418 395 
11421 395 394 
11422 394 418 
11423 395 418 
11424 418 61 
11425 61 395 
11426 61 418 
11427 418 60 
11428 60 61 
11429 18 19 
11430 19 396 
11431 396 18 
11432 396 19 
11433 19 419 
11434 419 396 
11435 396 419 
11436 419 420 
11437 420 396 
11438 420 397 
11439 397 396 
11440 396 420 
11441 397 420 
11442 420 398 
11443 398 397 
11444 398 420 
11445 420 421 
11446 421 398 
11447 398 421 
11448 421 422 
11449 422 398 
11450 422 399 
11451 399 398 
11452 398 422 
11453 399 422 
11454 422 400 
11455 400 399 
11456 400 422 
11457 422 423 
11458 423 400 
11459 400 423 
11460 423 424 
11461 424 400 
11462 424 401 
11463 401 400 
11464 400 424 
11465 401 424 
11466 424 402 
11467 402 401 
11468 402 424 
11469 424 425 
11470 425 402 
11471 402 425 
11472 425 426 
11473 426 402 
11474 426 403 
11475 403 402 
11476 402 426 
11477 403 426 
11478 426 404 
11479 404 403 
11480 404 426 
11481 426 427 
11482 427 404 
11483 404 427 
11484 427 428 
11485 428 404 
11486 428 405 
11487 405 404 
11488 404 428 
11489 405 428 
11490 428 406 
11491 406 405 
11492 406 428 
11493 428 429 
11494 429 406 
11495 406 429 
11496 429 430 
11497 430 406 
11498 430 407 
11499 407 406 
11500 406 430 
11501 407 430 
11502 430 408 
11503 408 407 
11504 408 430 
11505 430 431 
11506 431 408 
11507 408 431 
11508 431 432 
11509 432 408 
11510 432 409 
11511 409 408 
11512 408 432 
11513 409 432 
11514 432 410 
11515 410 409 
11516 410 432 
11517 432 433 
11518 433 410 
11519 410 433 
11520 433 434 
11521 434 410 
11522 434 411 
11523 411 410 
11524 410 434 
11525 411 434 
11526 434 412 
11527 412 411 
11528 412 434 
11529 434 435 
11530 435 412 
11531 412 435 
11532 435 436 
11533 436 412 
11534 436 413 
11535 413 412 
11536 412 436 
11537 413 436 
11538 436 414 
11539 414 413 
11540 414 436 
11541 436 437 
11542 437 414 
11543 414 437 
11544 437 438 
11545 438 414 
11546 438 415 
11547 415 414 
11548 414 438 
11549 415 438 
11550 438 416 
11551 416 415 
11552 416 438 
11553 438 439 
11554 439 416 
11555 416 439 
11556 439 440 
11557 440 416 
11558 440 417 
11559 417 416 
11560 416 440 
11561 417 440 
11562 440 418 
11563 418 417 
11564 418 440 
11565 440 441 
11566 441 418 
11567 418 441 
11568 441 59 
11569 59 418 
11570 59 60 
11571 60 418 
11572 418 59 
11573 19 20 
11574 20 442 
11575 442 19 
11576 442 419 
11577 419 19 
11578 19 442 
11579 419 442 
11580 442 420 
11581 420 419 
11582 420 442 
11583 442 443 
11584 443 420 
11585 420 443 
11586 443 444 
11587 444 420 
11588 444 421 
11589 421 420 
11590 420 444 
11591 421 444 
11592 444 422 
11593 422 421 
11594 422 444 
11595 444 445 
11596 445 422 
11597 422 445 
11598 445 446 
11599 446 422 
11600 446 423 
11601 423 422 
11602 422 446 
11603 423 446 
11604 446 424 
11605 424 423 
11606 424 446 
11607 446 447 
11608 447 424 
11609 424 447 
11610 447 448 
11611 448 424 
11612 448 425 
11613 425 424 
11614 424 448 
11615 425 448 
11616 448 426 
11617 426 425 
11618 426 448 
11619 448 449 
11620 449 426 
11621 426 449 
11622 449 450 
11623 450 426 
11624 450 427 
11625 427 426 
11626 426 450 
11627 427 450 
11628 450 428 
11629 428 427 
11630 428 450 
11631 450 451 
11632 451 428 
11633 428 451 
11634 451 452 
11635 452 428 
11636 452 429 
11637 429 428 
11638 428 452 
11639 429 452 
11640 452 430 
11641 430 429 
11642 430 452 
11643 452 453 
11644 453 430 
11645 430 453 
11646 453 454 
11647 454 430 
11648 454 431 
11649 431 430 
11650 430 454 
11651 431 454 
11652 454 432 
11653 432 431 
11654 432 454 
11655 454 455 
11656 455 432 
11657 432 455 
11658 455 456 
11659 456 432 
11660 456 433 
11661 433 432 
11662 432 456 
11663 433 456 
11664 456 434 
11665 434 433 
11666 434 456 
11667 456 457 
11668 457 434 
11669 434 457 
11670 457 458 
11671 458 434 
11672 458 435 
11673 435 434 
11674 434 458 
11675 435 458 
11676 458 436 
11677 436 435 
11678 436 458 
11679 458 459 
11680 459 436 
11681 436 459 
11682 459 460 
11683 460 436 
11684 460 437 
11685 437 436 
11686 436 460 
11687 437 460 
11688 460 438 
11689 438 437 
11690 438 460 
11691 460 461 
11692 461 438 
11693 438 461 
11694 461 462 
11695 462 438 
11696 462 439 
11697 439 438 
11698 438 462 
11699 439 462 
11700 462 440 
11701 440 439 
11702 440 462 
11703 462 463 
11704 463 440 
11705 440 463 
11706 463 464 
11707 464 440 
11708 464 441 
11709 441 440 
11710 440 464 
11711 441 464 
11712 464 59 
11713 59 441 
11714 59 464 
11715 464 58 
11716 58 59 
11717 20 21 
11718 21 442 
11719 442 20 
11720 442 21 
11721 21 465 
11722 465 442 
11723 442 465 
11724 465 466 
11725 466 442 
11726 466 443 
11727 443 442 
11728 442 466 
11729 443 466 
11730 466 444 
11731 444 443 
11732 444 466 
11733 466 467 
11734 467 444 
11735 444 467 
11736 467 468 
11737 468 444 
11738 468 445 
11739 445 444 
11740 444 468 
11741 445 468 
11742 468 446 
11743 446 445 
11744 446 468 
11745 468 469 
11746 469 446 
11747 446 469 
11748 469 470 
11749 470 446 
11750 470 447 
11751 447 446 
11752 446 470 
11753 447 470 
11754 470 448 
11755 448 447 
11756 448 470 
11757 470 471 
11758 471 448 
11759 448 471 
11760 471 472 
11761 472 448 
11762 472 449 
11763 449 448 
11764 448 472 
11765 449 472 
11766 472 450 
11767 450 449 
11768 450 472 
11769 472 473 
11770 473 450 
11771 450 473 
11772 473 474 
11773 474 450 
11774 474 451 
11775 451 450 
11776 450 474 
11777 451 474 
11778 474 452 
11779 452 451 
11780 452 474 
11781 474 475 
11782 475 452 
11783 452 475 
11784 475 476 
11785 476 452 
11786 476 453 
11787 453 452 
11788 452 476 
11789 453 476 
11790 476 454 
11791 454 453 
11792 454 476 
11793 476 477 
11794 477 454 
11795 454 477 
11796 477 478 
11797 478 454 
11798 478 455 
11799 455 454 
11800 454 478 
11801 455 478 
11802 478 456 
11803 456 455 
11804 456 478 
11805 478 479 
11806 479 456 
11807 456 479 
11808 479 480 
11809 480 456 
11810 480 457 
11811 457 456 
11812 456 480 
11813 457 480 
11814 480 458 
11815 458 457 
11816 458 480 
11817 480 481 
11818 481 458 
11819 458 481 
11820 481 482 
11821 482 458 
11822 482 459 
11823 459 458 
11824 458 482 
11825 459 482 
11826 482 460 
11827 460 459 
11828 460 482 
11829 482 483 
11830 483 460 
11831 460 483 
11832 483 484 
11833 484 460 
11834 484 461 
11835 461 460 
11836 460 484 
11837 461 484 
11838 484 462 
11839 462 461 
11840 462 484 
11841 484 485 
11842 485 462 
11843 462 485 
11844 485 486 
11845 486 462 
11846 486 463 
11847 463 462 
11848 462 486 
11849 463 486 
11850 486 464 
11851 464 463 
11852 464 486 
11853 486 487 
11854 487 464 
11855 464 487 
11856 487 57 
11857 57 464 
11858 57 58 
11859 58 464 
11860 464 57 
11861 21 22 
11862 22 488 
11863 488 21 
11864 488 465 
11865 465 21 
11866 21 488 
11867 465 488 
11868 488 466 
11869 466 465 
11870 466 488 
11871 488 489 
11872 489 466 
11873 466 489 
11874 489 490 
11875 490 466 
11876 490 467 
11877 467 466 
11878 466 490 
11879 467 490 
11880 490 468 
11881 468 467 
11882 468 490 
11883 490 491 
11884 491 468 
11885 468 491 
11886 491 492 
11887 492 468 
11888 492 469 
11889 469 468 
11890 468 492 
11891 469 492 
11892 492 470 
11893 470 469 
11894 470 492 
11895 492 493 
11896 493 470 
11897 470 493 
11898 493 494 
11899 494 470 
11900 494 471 
11901 471 470 
11902 470 494 
11903 471 494 
11904 494 472 
11905 472 471 
11906 472 494 
11907 494 495 
11908 495 472 
11909 472 495 
11910 495 496 
11911 496 472 
11912 496 473 
11913 473 472 
11914 472 496 
11915 473 496 
11916 496 474 
11917 474 473 
11918 474 496 
11919 496 497 
11920 497 474 
11921 474 497 
11922 497 498 
11923 498 474 
11924 498 475 
11925 475 474 
11926 474 498 
11927 475 498 
11928 498 476 
11929 476 475 
11930 476 498 
11931 498 499 
11932 499 476 
11933 476 499 
11934 499 500 
11935 500 476 
11936 500 477 
11937 477 476 
11938 476 500 
11939 477 500 
11940 500 478 
11941 478 477 
11942 478 500 
11943 500 501 
11944 501 478 
11945 478 501 
11946 501 502 
11947 502 478 
11948 502 479 
11949 479 478 
11950 478 502 
11951 479 502 
11952 502 480 
11953 480 479 
11954 480 502 
11955 502 503 
11956 503 480 
11957 480 503 
11958 503 504 
11959 504 480 
11960 504 481 
11961 481 480 
11962 480 504 
11963 481 504 
11964 504 482 
11965 482 481 
11966 482 504 
11967 504 505 
11968 505 482 
11969 482 505 
11970 505 506 
11971 506 482 
11972 506 483 
11973 483 482 
11974 482 506 
11975 483 506 
11976 506 484 
11977 484 483 
11978 484 506 
11979 506 507 
11980 507 484 
11981 484 507 
11982 507 508 
11983 508 484 
11984 508 485 
11985 485 484 
11986 484 508 
11987 485 508 
11988 508 486 
11989 486 485 
11990 486 508 
11991 508 509 
11992 509 486 
11993 486 509 
11994 509 510 
11995 510 486 
11996 510 487 
11997 487 486 
11998 486 510 
11999 487 510 
12000 510 57 
12001 57 487 
12002 57 510 
12003 510 56 
12004 56 57 
12005 22 23 
12006 23 488 
12007 488 22 
12008 488 23 
12009 23 511 
12010 511 488 
12011 488 511 
12012 511 512 
12013 512 488 
12014 512 489 
12015 489 488 
12016 488 512 
12017 489 512 
12018 512 490 
12019 490 489 
12020 490 512 
12021 512 513 
12022 513 490 
12023 490 513 
12024 513 514 
12025 514 490 
12026 514 491 
12027 491 490 
12028 490 514 
12029 491 514 
12030 514 492 
12031 492 491 
12032 492 514 
12033 514 515 
12034 515 492 
12035 492 515 
12036 515 516 
12037 516 492 
12038 516 493 
12039 493 492 
12040 492 516 
12041 493 516 
12042 516 494 
12043 494 493 
12044 494 516 
12045 516 517 
12046 517 494 
12047 494 517 
12048 517 518 
12049 518 494 
12050 518 495 
12051 495 494 
12052 494 518 
12053 495 518 
12054 518 496 
12055 496 495 
12056 496 518 
12057 518 519 
12058 519 496 
12059 496 519 
12060 519 520 
12061 520 496 
12062 520 497 
12063 497 496 
12064 496 520 
12065 497 520 
12066 520 498 
12067 498 497 
12068 498 520 
12069 520 521 
12070 521 498 
12071 498 521 
12072 521 522 
12073 522 498 
12074 522 499 
12075 499 498 
12076 498 522 
12077 499 522 
12078 522 500 
12079 500 499 
12080 500 522 
12081 522 523 
12082 523 500 
12083 500 523 
12084 523 524 
12085 524 500 
12086 524 501 
12087 501 500 
12088 500 524 
12089 501 524 
12090 524 502 
12091 502 501 
12092 502 524 
12093 524 525 
12094 525 502 
12095 502 525 
12096 525 526 
12097 526 502 
12098 526 503 
12099 503 502 
12100 502 526 
12101 503 526 
12102 526 504 
12103 504 503 
12104 504 526 
12105 526 527 
12106 527 504 
12107 504 527 
12108 527 528 
12109 528 504 
12110 528 505 
12111 505 504 
12112 504 528 
12113 505 528 
12114 528 506 
12115 506 505 
12116 506 528 
12117 528 529 
12118 529 506 
12119 506 529 
12120 529 530 
12121 530 506 
12122 530 507 
12123 507 506 
12124 506 530 
12125 507 530 
12126 530 508 
12127 508 507 
12128 508 530 
12129 530 531 
12130 531 508 
12131 508 531 
12132 531 532 
12133 532 508 
12134 532 509 
12135 509 508 
12136 508 532 
12137 509 532 
12138 532 510 
12139 510 509 
12140 510 532 
12141 532 533 
12142 533 510 
12143 510 533 
12144 533 55 
12145 55 510 
12146 55 56 
12147 56 510 
12148 510 55 
12149 23 24 
12150 24 534 
12151 534 23 
12152 534 511 
12153 511 23 
12154 23 534 
12155 511 534 
12156 534 512 
12157 512 511 
12158 512 534 
12159 534 535 
12160 535 512 
12161 512 535 
12162 535 536 
12163 536 512 
12164 536 513 
12165 513 512 
12166 512 536 
12167 513 536 
12168 536 514 
12169 514 513 
12170 514 536 
12171 536 537 
12172 537 514 
12173 514 537 
12174 537 538 
12175 538 514 
12176 538 515 
12177 515 514 
12178 514 538 
12179 515 538 
12180 538 516 
12181 516 515 
12182 516 538 
12183 538 539 
12184 539 516 
12185 516 539 
12186 539 540 
12187 540 516 
12188 540 517 
12189 517 516 
12190 516 540 
12191 517 540 
12192 540 518 
12193 518 517 
12194 518 540 
12195 540 541 
12196 541 518 
12197 518 541 
12198 541 542 
12199 542 518 
12200 542 519 
12201 519 518 
12202 518 542 
12203 519 542 
12204 542 520 
12205 520 519 
12206 520 542 
12207 542 543 
12208 543 520 
12209 520 543 
12210 543 544 
12211 544 520 
12212 544 521 
12213 521 520 
12214 520 544 
12215 521 544 
12216 544 522 
12217 522 521 
12218 522 544 
12219 544 545 
12220 545 522 
12221 522 545 
12222 545 546 
12223 546 522 
12224 546 523 
12225 523 522 
12226 522 546 
12227 523 546 
12228 546 524 
12229 524 523 
12230 524 546 
12231 546 547 
12232 547 524 
12233 524 547 
12234 547 548 
12235 548 524 
12236 548 525 
12237 525 524 
12238 524 548 
12239 525 548 
12240 548 526 
12241 526 525 
12242 526 548 
12243 548 549 
12244 549 526 
12245 526 549 
12246 549 550 
12247 550 526 
12248 550 527 
12249 527 526 
12250 526 550 
12251 527 550 
12252 550 528 
12253 528 527 
12254 528 550 
12255 550 551 
12256 551 528 
12257 528 551 
12258 551 552 
12259 552 528 
12260 552 529 
12261 529 528 
12262 528 552 
12263 529 552 
12264 552 530 
12265 530 529 
12266 530 552 
12267 552 553 
12268 553 530 
12269 530 553 
12270 553 554 
12271 554 530 
12272 554 531 
12273 531 530 
12274 530 554 
12275 531 554 
12276 554 532 
12277 532 531 
12278 532 554 
12279 554 555 
12280 555 532 
12281 532 555 
12282 555 556 
12283 556 532 
12284 556 533 
12285 533 532 
12286 532 556 
12287 533 556 
12288 556 55 
12289 55 533 
12290 55 556 
12291 556 54 
12292 54 55 
12293 24 25 
12294 25 534 
12295 534 24 
12296 534 25 
12297 25 557 
12298 557 534 
12299 534 557 
12300 557 558 
12301 558 534 
12302 558 535 
12303 535 534 
12304 534 558 
12305 535 558 
12306 558 536 
12307 536 535 
12308 536 558 
12309 558 559 
12310 559 536 
12311 536 559 
12312 559 560 
12313 560 536 
12314 560 537 
12315 537 536 
12316 536 560 
12317 537 560 
12318 560 538 
12319 538 537 
12320 538 560 
12321 560 561 
12322 561 538 
12323 538 561 
12324 561 562 
12325 562 538 
12326 562 539 
12327 539 538 
12328 538 562 
12329 539 562 
12330 562 540 
12331 540 539 
12332 540 562 
12333 562 563 
12334 563 540 
12335 540 563 
12336 563 564 
12337 564 540 
12338 564 541 
12339 541 540 
12340 540 564 
12341 541 564 
12342 564 542 
12343 542 541 
12344 542 564 
12345 564 565 
12346 565 542 
12347 542 565 
12348 565 566 
12349 566 542 
12350 566 543 
12351 543 542 
12352 542 566 
12353 543 566 
12354 566 544 
12355 544 543 
12356 544 566 
12357 566 567 
12358 567 544 
12359 544 567 
12360 567 568 
12361 568 544 
12362 568 545 
12363 545 544 
12364 544 568 
12365 545 568 
12366 568 546 
12367 546 545 
12368 546 568 
12369 568 569 
12370 569 546 
12371 546 569 
12372 569 570 
12373 570 546 
12374 570 547 
12375 547 546 
12376 546 570 
12377 547 570 
12378 570 548 
12379 548 547 
12380 548 570 
12381 570 571 
12382 571 548 
12383 548 571 
12384 571 572 
12385 572 548 
12386 572 549 
12387 549 548 
12388 548 572 
12389 549 572 
12390 572 550 
12391 550 549 
12392 550 572 
12393 572 573 
12394 573 550 
12395 550 573 
12396 573 574 
12397 574 550 
12398 574 551 
12399 551 550 
12400 550 574 
12401 551 574 
12402 574 552 
12403 552 551 
12404 552 574 
12405 574 575 
12406 575 552 
12407 552 575 
12408 575 576 
12409 576 552 
12410 576 553 
12411 553 552 
12412 552 576 
12413 553 576 
12414 576 554 
12415 554 553 
12416 554 576 
12417 576 577 
12418 577 554 
12419 554 577 
12420 577 578 
12421 578 554 
12422 578 555 
12423 555 554 
12424 554 578 
12425 555 578 
12426 578 556 
12427 556 555 
12428 556 578 
12429 578 579 
12430 579 556 
12431 556 579 
12432 579 53 
12433 53 556 
12434 53 54 
12435 54 556 
12436 556 53 
12437 25 26 
12438 26 580 
12439 580 25 
12440 580 557 
12441 557 25 
12442 25 580 
12443 557 580 
12444 580 558 
12445 558 557 
12446 558 580 
12447 580 581 
12448 581 558 
12449 558 581 
12450 581 582 
12451 582 558 
12452 582 559 
12453 559 558 
12454 558 582 
12455 559 582 
12456 582 560 
12457 560 559 
12458 560 582 
12459 582 583 
12460 583 560 
12461 560 583 
12462 583 584 
12463 584 560 
12464 584 561 
12465 561 560 
12466 560 584 
12467 561 584 
12468 584 562 
12469 562 561 
12470 562 584 
12471 584 585 
12472 585 562 
12473 562 585 
12474 585 586 
12475 586 562 
12476 586 563 
12477 563 562 
12478 562 586 
12479 563 586 
12480 586 564 
12481 564 563 
12482 564 586 
12483 586 587 
12484 587 564 
12485 564 587 
12486 587 588 
12487 588 564 
12488 588 565 
12489 565 564 
12490 564 588 
12491 565 588 
12492 588 566 
12493 566 565 
12494 566 588 
12495 588 589 
12496 589 566 
12497 566 589 
12498 589 590 
12499 590 566 
12500 590 567 
12501 567 566 
12502 566 590 
12503 567 590 
12504 590 568 
12505 568 567 
12506 568 590 
12507 590 591 
12508 591 568 
12509 568 591 
12510 591 592 
12511 592 568 
12512 592 569 
12513 569 568 
12514 568 592 
12515 569 592 
12516 592 570 
12517 570 569 
12518 570 592 
12519 592 593 
12520 593 570 
12521 570 593 
12522 593 594 
12523 594 570 
12524 594 571 
12525 571 570 
12526 570 594 
12527 571 594 
12528 594 572 
12529 572 571 
12530 572 594 
12531 594 595 
12532 595 572 
12533 572 595 
12534 595 596 
12535 596 572 
12536 596 573 
12537 573 572 
12538 572 596 
12539 573 596 
12540 596 574 
12541 574 573 
12542 574 596 
12543 596 597 
12544 597 574 
12545 574 597 
12546 597 598 
12547 598 574 
12548 598 575 
12549 575 574 
12550 574 598 
12551 575 598 
12552 598 576 
12553 576 575 
12554 576 598 
12555 598 599 
12556 599 576 
12557 576 599 
12558 599 600 
12559 600 576 
12560 600 577 
12561 577 576 
12562 576 600 
12563 577 600 
12564 600 578 
12565 578 577 
12566 578 600 
12567 600 601 
12568 601 578 
12569 578 601 
12570 601 602 
12571 602 578 
12572 602 579 
12573 579 578 
12574 578 602 
12575 579 602 
12576 602 53 
12577 53 579 
12578 53 602 
12579 602 52 
12580 52 53 
12581 26 27 
12582 27 580 
12583 580 26 
12584 580 27 
12585 27 603 
12586 603 580 
12587 580 603 
12588 603 604 
12589 604 580 
12590 604 581 
12591 581 580 
12592 580 604 
12593 581 604 
12594 604 582 
12595 582 581 
12596 582 604 
12597 604 605 
12598 605 582 
12599 582 605 
12600 605 606 
12601 606 582 
12602 606 583 
12603 583 582 
12604 582 606 
12605 583 606 
12606 606 584 
12607 584 583 
12608 584 606 
12609 606 607 
12610 607 584 
12611 584 607 
12612 607 608 
12613 608 584 
12614 608 585 
12615 585 584 
12616 584 608 
12617 585 608 
12618 608 586 
12619 586 585 
12620 586 608 
12621 608 609 
12622 609 586 
12623 586 609 
12624 609 610 
12625 610 586 
12626 610 587 
12627 587 586 
12628 586 610 
12629 587 610 
12630 610 588 
12631 588 587 
12632 588 610 
12633 610 611 
12634 611 588 
12635 588 611 
12636 611 612 
12637 612 588 
12638 612 589 
12639 589 588 
12640 588 612 
12641 589 612 
12642 612 590 
12643 590 589 
12644 590 612 
12645 612 613 
12646 613 590 
12647 590 613 
12648 613 614 
12649 614 590 
12650 614 591 
12651 591 590 
12652 590 614 
12653 591 614 
12654 614 592 
12655 592 591 
12656 592 614 
12657 614 615 
12658 615 592 
12659 592 615 
12660 615 616 
12661 616 592 
12662 616 593 
12663 593 592 
12664 592 616 
12665 593 616 
12666 616 594 
12667 594 593 
12668 594 616 
12669 616 617 
12670 617 594 
12671 594 617 
12672 617 618 
12673 618 594 
12674 618 595 
12675 595 594 
12676 594 618 
12677 595 618 
12678 618 596 
12679 596 595 
12680 596 618 
12681 618 619 
12682 619 596 
12683 596 619 
12684 619 620 
12685 620 596 
12686 620 597 
12687 597 596 
12688 596 620 
12689 597 620 
12690 620 598 
12691 598 597 
12692 598 620 
12693 620 621 
12694 621 598 
12695 598 621 
12696 621 622 
12697 622 598 
12698 622 599 
12699 599 598 
12700 598 622 
12701 599 622 
12702 622 600 
12703 600 599 
12704 600 622 
12705 622 623 
12706 623 600 
12707 600 623 
12708 623 624 
12709 624 600 
12710 624 601 
12711 601 600 
12712 600 624 
12713 601 624 
12714 624 602 
12715 602 601 
12716 602 624 
12717 624 625 
12718 625 602 
12719 602 625 
12720 625 51 
12721 51 602 
12722 51 52 
12723 52 602 
12724 602 51 
12725 27 2 
12726 2 28 
12727 28 27 
12728 28 603 
12729 603 27 
12730 27 28 
12731 603 28 
12732 28 604 
12733 604 603 
12734 604 28 
12735 28 29 
12736 29 604 
12737 604 29 
12738 29 30 
12739 30 604 
12740 30 605 
12741 605 604 
12742 604 30 
12743 605 30 
12744 30 606 
12745 606 605 
12746 606 30 
12747 30 31 
12748 31 606 
12749 606 31 
12750 31 32 
12751 32 606 
12752 32 607 
12753 607 606 
12754 606 32 
12755 607 32 
12756 32 608 
12757 608 607 
12758 608 32 
12759 32 33 
12760 33 608 
12761 608 33 
12762 33 34 
12763 34 608 
12764 34 609 
12765 609 608 
12766 608 34 
12767 609 34 
12768 34 610 
12769 610 609 
12770 610 34 
12771 34 35 
12772 35 610 
12773 610 35 
12774 35 36 
12775 36 610 
12776 36 611 
12777 611 610 
12778 610 36 
12779 611 36 
12780 36 612 
12781 612 611 
12782 612 36 
12783 36 37 
12784 37 612 
12785 612 37 
12786 37 38 
12787 38 612 
12788 38 613 
12789 613 612 
12790 612 38 
12791 613 38 
12792 38 614 
12793 614 613 
12794 614 38 
12795 38 39 
12796 39 614 
12797 614 39 
12798 39 40 
12799 40 614 
12800 40 615 
12801 615 614 
12802 614 40 
12803 615 40 
12804 40 616 
12805 616 615 
12806 616 40 
12807 40 41 
12808 41 616 
12809 616 41 
12810 41 42 
12811 42 616 
12812 42 617 
12813 617 616 
12814 616 42 
12815 617 42 
12816 42 618 
12817 618 617 
12818 618 42 
12819 42 43 
12820 43 618 
12821 618 43 
12822 43 44 
12823 44 618 
12824 44 619 
12825 619 618 
12826 618 44 
12827 619 44 
12828 44 620 
12829 620 619 
12830 620 44 
12831 44 45 
12832 45 620 
12833 620 45 
12834 45 46 
12835 46 620 
12836 46 621 
12837 621 620 
12838 620 46 
12839 621 46 
12840 46 622 
12841 622 621 
12842 622 46 
12843 46 47 
12844 47 622 
12845 622 47 
12846 47 48 
12847 48 622 
12848 48 623 
12849 623 622 
12850 622 48 
12851 623 48 
12852 48 624 
12853 624 623 
12854 624 48 
12855 48 49 
12856 49 624 
12857 624 49 
12858 49 50 
12859 50 624 
12860 50 625 
12861 625 624 
12862 624 50 
12863 625 50 
12864 50 51 
12865 51 625 
12866 51 50 
12867 50 3 
12868 3 51 
2 1 2 1152
97 1 5 96 
98 96 5 97 
99 96 97 98 
100 98 95 96 
101 95 98 94 
102 94 98 99 
103 94 99 100 
104 100 93 94 
105 93 100 92 
106 92 100 101 
107 92 101 102 
108 102 91 92 
109 91 102 90 
110 90 102 103 
111 90 103 104 
112 104 89 90 
113 89 104 88 
114 88 104 105 
115 88 105 106 
116 106 87 88 
117 87 106 86 
118 86 106 107 
119 86 107 108 
120 108 85 86 
121 85 108 84 
122 84 108 109 
123 84 109 110 
124 110 83 84 
125 83 110 82 
126 82 110 111 
127 82 111 112 
128 112 81 82 
129 81 112 80 
130 80 112 113 
131 80 113 114 
132 114 79 80 
133 79 114 78 
134 78 114 115 
135 78 115 116 
136 116 77 78 
137 77 116 76 
138 76 116 117 
139 76 117 118 
140 118 75 76 
141 75 118 74 
142 74 118 119 
143 74 119 73 
144 73 4 74 
145 5 6 120 
146 120 97 5 
147 97 120 98 
148 98 120 121 
149 98 121 122 
150 122 99 98 
151 99 122 100 
152 100 122 123 
153 100 123 124 
154 124 101 100 
155 101 124 102 
156 102 124 125 
157 102 125 126 
158 126 103 102 
159 103 126 104 
160 104 126 127 
161 104 127 128 
162 128 105 104 
163 105 128 106 
164 106 128 129 
165 106 129 130 
166 130 107 106 
167 107 130 108 
168 108 130 131 
169 108 131 132 
170 132 109 108 
171 109 132 110 
172 110 132 133 
173 110 133 134 
174 134 111 110 
175 111 134 112 
176 112 134 135 
177 112 135 136 
178 136 113 112 
179 113 136 114 
180 114 136 137 
181 114 137 138 
182 138 115 114 
183 115 138 116 
184 116 138 139 
185 116 139 140 
186 140 117 116 
187 117 140 118 
188 118 140 141 
189 118 141 142 
190 142 119 118 
191 119 142 73 
192 73 142 72 
193 6 7 120 
194 120 7 143 
195 120 143 144 
196 144 121 120 
197 121 144 122 
198 122 144 145 
199 122 145 146 
200 146 123 122 
201 123 146 124 
202 124 146 147 
203 124 147 148 
204 148 125 124 
205 125 148 126 
206 126 148 149 
207 126 149 150 
208 150 127 126 
209 127 150 128 
210 128 150 151 
211 128 151 152 
212 152 129 128 
213 129 152 130 
214 130 152 153 
215 130 153 154 
216 154 131 130 
217 131 154 132 
218 132 154 155 
219 132 155 156 
220 156 133 132 
221 133 156 134 
222 134 156 157 
223 134 157 158 
224 158 135 134 
225 135 158 136 
226 136 158 159 
227 136 159 160 
228 160 137 136 
229 137 160 138 
230 138 160 161 
231 138 161 162 
232 162 139 138 
233 139 162 140 
234 140 162 163 
235 140 163 164 
236 164 141 140 
237 141 164 142 
238 142 164 165 
239 142 165 71 
240 71 72 142 
241 7 8 166 
242 166 143 7 
243 143 166 144 
244 144 166 167 
245 144 167 168 
246 168 145 144 
247 145 168 146 
248 146 168 169 
249 146 169 170 
250 170 147 146 
251 147 170 148 
252 148 170 171 
253 148 171 172 
254 172 149 148 
255 149 172 150 
256 150 172 173 
257 150 173 174 
258 174 151 150 
259 151 174 152 
260 152 174 175 
261 152 175 176 
262 176 153 152 
263 153 176 154 
264 154 176 177 
265 154 177 178 
266 178 155 154 
267 155 178 156 
268 156 178 179 
269 156 179 180 
270 180 157 156 
271 157 180 158 
272 158 180 181 
273 158 181 182 
274 182 159 158 
275 159 182 160 
276 160 182 183 
277 160 183 184 
278 184 161 160 
279 161 184 162 
280 162 184 185 
281 162 185 186 
282 186 163 162 
283 163 186 164 
284 164 186 187 
285 164 187 188 
286 188 165 164 
287 165 188 71 
288 71 188 70 
289 8 9 166 
290 166 9 189 
291 166 189 190 
292 190 167 166 
293 167 190 168 
294 168 190 191 
295 168 191 192 
296 192 169 168 
297 169 192 170 
298 170 192 193 
299 170 193 194 
300 194 171 170 
301 171 194 172 
302 172 194 195 
303 172 195 196 
304 196 173 172 
305 173 196 174 
306 174 196 197 
307 174 197 198 
308 198 175 174 
309 175 198 176 
310 176 198 199 
311 176 199 200 
312 200 177 176 
313 177 200 178 
314 178 200 201 
315 178 201 202 
316 202 179 178 
317 179 202 180 
318 180 202 203 
319 180 203 204 
320 204 181 180 
321 181 204 182 
322 182 204 205 
323 182 205 206 
324 206 183 182 
325 183 206 184 
326 184 206 207 
327 184 207 208 
328 208 185 184 
329 185 208 186 
330 186 208 209 
331 186 209 210 
332 210 187 186 
333 187 210 188 
334 188 210 211 
335 188 211 69 
336 69 70 188 
337 9 10 212 
338 212 189 9 
339 189 212 190 
340 190 212 213 
341 190 213 214 
342 214 191 190 
343 191 214 192 
344 192 214 215 
345 192 215 216 
346 216 193 192 
347 193 216 194 
348 194 216 217 
349 194 217 218 
350 218 195 194 
351 195 218 196 
352 196 218 219 
353 196 219 220 
354 220 197 196 
355 197 220 198 
356 198 220 221 
357 198 221 222 
358 222 199 198 
359 199 222 200 
360 200 222 223 
361 200 223 224 
362 224 201 200 
363 201 224 202 
364 202 224 225 
365 202 225 226 
366 226 203 202 
367 203 226 204 
368 204 226 227 
369 204 227 228 
370 228 205 204 
371 205 228 206 
372 206 228 229 
373 206 229 230 
374 230 207 206 
375 207 230 208 
376 208 230 231 
377 208 231 232 
378 232 209 208 
379 209 232 210 
380 210 232 233 
381 210 233 234 
382 234 211 210 
383 211 234 69 
384 69 234 68 
385 10 11 212 
386 212 11 235 
387 212 235 236 
388 236 213 212 
389 213 236 214 
390 214 236 237 
391 214 237 238 
392 238 215 214 
393 215 238 216 
394 216 238 239 
395 216 239 240 
396 240 217 216 
397 217 240 218 
398 218 240 241 
399 218 241 242 
400 242 219 218 
401 219 242 220 
402 220 242 243 
403 220 243 244 
404 244 221 220 
405 221 244 222 
406 222 244 245 
407 222 245 246 
408 246 223 222 
409 223 246 224 
410 224 246 247 
411 224 247 248 
412 248 225 224 
413 225 248 226 
414 226 248 249 
415 226 249 250 
416 250 227 226 
417 227 250 228 
418 228 250 251 
419 228 251 252 
420 252 229 228 
421 229 252 230 
422 230 252 253 
423 230 253 254 
424 254 231 230 
425 231 254 232 
426 232 254 255 
427 232 255 256 
428 256 233 232 
429 233 256 234 
430 234 256 257 
431 234 257 67 
432 67 68 234 
433 11 12 258 
434 258 235 11 
435 235 258 236 
436 236 258 259 
437 236 259 260 
438 260 237 236 
439 237 260 238 
440 238 260 261 
441 238 261 262 
442 262 239 238 
443 239 262 240 
444 240 262 263 
445 240 263 264 
446 264 241 240 
447 241 264 242 
448 242 264 265 
449 242 265 266 
450 266 243 242 
451 243 266 244 
452 244 266 267 
453 244 267 268 
454 268 245 244 
455 245 268 246 
456 246 268 269 
457 246 269 270 
458 270 247 246 
459 247 270 248 
460 248 270 271 
461 248 271 272 
462 272 249 248 
463 249 272 250 
464 250 272 273 
465 250 273 274 
466 274 251 250 
467 251 274 252 
468 252 274 275 
469 252 275 276 
470 276 253 252 
471 253 276 254 
472 254 276 277 
473 254 277 278 
474 278 255 254 
475 255 278 256 
476 256 278 279 
477 256 279 280 
478 280 257 256 
479 257 280 67 
480 67 280 66 
481 12 13 258 
482 258 13 281 
483 258 281 282 
484 282 259 258 
485 259 282 260 
486 260 282 283 
487 260 283 284 
488 284 261 260 
489 261 284 262 
490 262 284 285 
491 262 285 286 
492 286 263 262 
493 263 286 264 
494 264 286 287 
495 264 287 288 
496 288 265 264 
497 265 288 266 
498 266 288 289 
499 266 289 290 
500 290 267 266 
501 267 290 268 
502 268 290 291 
503 268 291 292 
504 292 269 268 
505 269 292 270 
506 270 292 293 
507 270 293 294 
508 294 271 270 
509 271 294 272 
510 272 294 295 
511 272 295 296 
512 296 273 272 
513 273 296 274 
514 274 296 297 
515 274 297 298 
516 298 275 274 
517 275 298 276 
518 276 298 299 
519 276 299 300 
520 300 277 276 
521 277 300 278 
522 278 300 301 
523 278 301 302 
524 302 279 278 
525 279 302 280 
526 280 302 303 
527 280 303 65 
528 65 66 280 
529 13 14 304 
530 304 281 13 
531 281 304 282 
532 282 304 305 
533 282 305 306 
534 306 283 282 
535 283 306 284 
536 284 306 307 
537 284 307 308 
538 308 285 284 
539 285 308 286 
540 286 308 309 
541 286 309 310 
542 310 287 286 
543 287 310 288 
544 288 310 311 
545 288 311 312 
546 312 289 288 
547 289 312 290 
548 290 312 313 
549 290 313 314 
550 314 291 290 
551 291 314 292 
552 292 314 315 
553 292 315 316 
554 316 293 292 
555 293 316 294 
556 294 316 317 
557 294 317 318 
558 318 295 294 
559 295 318 296 
560 296 318 319 
561 296 319 320 
562 320 297 296 
563 297 320 298 
564 298 320 321 
565 298 321 322 
566 322 299 298 
567 299 322 300 
568 300 322 323 
569 300 323 324 
570 324 301 300 
571 301 324 302 
572 302 324 325 
573 302 325 326 
574 326 303 302 
575 303 326 65 
576 65 326 64 
577 14 15 304 
578 304 15 327 
579 304 327 328 
580 328 305 304 
581 305 328 306 
582 306 328 329 
583 306 329 330 
584 330 307 306 
585 307 330 308 
586 308 330 331 
587 308 331 332 
588 332 309 308 
589 309 332 310 
590 310 332 333 
591 310 333 334 
592 334 311 310 
593 311 334 312 
594 312 334 335 
595 312 335 336 
596 336 313 312 
597 313 336 314 
598 314 336 337 
599 314 337 338 
600 338 315 314 
601 315 338 316 
602 316 338 339 
603 316 339 340 
604 340 317 316 
605 317 340 318 
606 318 340 341 
607 318 341 342 
608 342 319 318 
609 319 342 320 
610 320 342 343 
611 320 343 344 
612 344 321 320 
613 321 344 322 
614 322 344 345 
615 322 345 346 
616 346 323 322 
617 323 346 324 
618 324 346 347 
619 324 347 348 
620 348 325 324 
621 325 348 326 
622 326 348 349 
623 326 349 63 
624 63 64 326 
625 15 16 350 
626 350 327 15 
627 327 350 328 
628 328 350 351 
629 328 351 352 
630 352 329 328 
631 329 352 330 
632 330 352 353 
633 330 353 354 
634 354 331 330 
635 331 354 332 
636 332 354 355 
637 332 355 356 
638 356 333 332 
639 333 356 334 
640 334 356 357 
641 334 357 358 
642 358 335 334 
643 335 358 336 
644 336 358 359 
645 336 359 360 
646 360 337 336 
647 337 360 338 
648 338 360 361 
649 338 361 362 
650 362 339 338 
651 339 362 340 
652 340 362 363 
653 340 363 364 
654 364 341 340 
655 341 364 342 
656 342 364 365 
657 342 365 366 
658 366 343 342 
659 343 366 344 
660 344 366 367 
661 344 367 368 
662 368 345 344 
663 345 368 346 
664 346 368 369 
665 346 369 370 
666 370 347 346 
667 347 370 348 
668 348 370 371 
669 348 371 372 
670 372 349 348 
671 349 372 63 
672 63 372 62 
673 16 17 350 
674 350 17 373 
675 350 373 374 
676 374 351 350 
677 351 374 352 
678 352 374 375 
679 352 375 376 
680 376 353 352 
681 353 376 354 
682 354 376 377 
683 354 377 378 
684 378 355 354 
685 355 378 356 
686 356 378 379 
687 356 379 380 
688 380 357 356 
689 357 380 358 
690 358 380 381 
691 358 381 382 
692 382 359 358 
693 359 382 360 
694 360 382 383 
695 360 383 384 
696 384 361 360 
697 361 384 362 
698 362 384 385 
699 362 385 386 
700 386 363 362 
701 363 386 364 
702 364 386 387 
703 364 387 388 
704 388 365 364 
705 365 388 366 
706 366 388 389 
707 366 389 390 
708 390 367 366 
709 367 390 368 
710 368 390 391 
711 368 391 392 
712 392 369 368 
713 369 392 370 
714 370 392 393 
715 370 393 394 
716 394 371 370 
717 371 394 372 
718 372 394 395 
719 372 395 61 
720 61 62 372 
721 17 18 396 
722 396 373 17 
723 373 396 374 
724 374 396 397 
725 374 397 398 
726 398 375 374 
727 375 398 376 
728 376 398 399 
729 376 399 400 
730 400 377 376 
731 377 400 378 
732 378 400 401 
733 378 401 402 
734 402 379 378 
735 379 402 380 
736 380 402 403 
737 380 403 404 
738 404 381 380 
739 381 404 382 
740 382 404 405 
741 382 405 406 
742 406 383 382 
743 383 406 384 
744 384 406 407 
745 384 407 408 
746 408 385 384 
747 385 408 386 
748 386 408 409 
749 386 409 410 
750 410 387 386 
751 387 410 388 
752 388 410 411 
753 388 411 412 
754 412 389 388 
755 389 412 390 
756 390 412 413 
757 390 413 414 
758 414 391 390 
759 391 414 392 
760 392 414 415 
761 392 415 416 
762 416 393 392 
763 393 416 394 
764 394 416 417 
765 394 417 418 
766 418 395 394 
767 395 418 61 
768 61 418 60 
769 18 19 396 
770 396 19 419 
771 396 419 420 
772 420 397 396 
773 397 420 398 
774 398 420 421 
775 398 421 422 
776 422 399 398 
777 399 422 400 
778 400 422 423 
779 400 423 424 
780 424 401 400 
781 401 424 402 
782 402 424 425 
783 402 425 426 
784 426 403 402 
785 403 426 404 
786 404 426 427 
787 404 427 428 
788 428 405 404 
789 405 428 406 
790 406 428 429 
791 406 429 430 
792 430 407 406 
793 407 430 408 
794 408 430 431 
795 408 431 432 
796 432 409 408 
797 409 432 410 
798 410 432 433 
799 410 433 434 
800 434 411 410 
801 411 434 412 
802 412 434 435 
803 412 435 436 
804 436 413 412 
805 413 436 414 
806 414 436 437 
807 414 437 438 
808 438 415 414 
809 415 438 416 
810 416 438 439 
811 416 439 440 
812 440 417 416 
813 417 440 418 
814 418 440 441 
815 418 441 59 
816 59 60 418 
817 19 20 442 
818 442 419 19 
819 419 442 420 
820 420 442 443 
821 420 443 444 
822 444 421 420 
823 421 444 422 
824 422 444 445 
825 422 445 446 
826 446 423 422 
827 423 446 424 
828 424 446 447 
829 424 447 448 
830 448 425 424 
831 425 448 426 
832 426 448 449 
833 426 449 450 
834 450 427 426 
835 427 450 428 
836 428 450 451 
837 428 451 452 
838 452 429 428 
839 429 452 430 
840 430 452 453 
841 430 453 454 
842 454 431 430 
843 431 454 432 
844 432 454 455 
845 432 455 456 
846 456 433 432 
847 433 456 434 
848 434 456 457 
849 434 457 458 
850 458 435 434 
851 435 458 436 
852 436 458 459 
853 436 459 460 
854 460 437 436 
855 437 460 438 
856 438 460 461 
857 438 461 462 
858 462 439 438 
859 439 462 440 
860 440 462 463 
861 440 463 464 
862 464 441 440 
863 441 464 59 
864 59 464 58 
865 20 21 442 
866 442 21 465 
867 442 465 466 
868 466 443 442 
869 443 466 444 
870 444 466 467 
871 444 467 468 
872 468 445 444 
873 445 468 446 
874 446 468 469 
875 446 469 470 
876 470 447 446 
877 447 470 448 
878 448 470 471 
879 448 471 472 
880 472 449 448 
881 449 472 450 
882 450 472 473 
883 450 473 474 
884 474 451 450 
885 451 474 452 
886 452 474 475 
887 452 475 476 
888 476 453 452 
889 453 476 454 
890 454 476 477 
891 454 477 478 
892 478 455 454 
893 455 478 456 
894 456 478 479 
895 456 479 480 
896 480 457 456 
897 457 480 458 
898 458 480 481 
899 458 481 482 
900 482 459 458 
901 459 482 460 
902 460 482 483 
903 460 483 484 
904 484 461 460 
905 461 484 462 
906 462 484 485 
907 462 485 486 
908 486 463 462 
909 463 486 464 
910 464 486 487 
911 464 487 57 
912 57 58 464 
913 21 22 488 
914 488 465 21 
915 465 488 466 
916 466 488 489 
917 466 489 490 
918 490 467 466 
919 467 490 468 
920 468 490 491 
921 468 491 492 
922 492 469 468 
923 469 492 470 
924 470 492 493 
925 470 493 494 
926 494 471 470 
927 471 494 472 
928 472 494 495 
929 472 495 496 
930 496 473 472 
931 473 496 474 
932 474 496 497 
933 474 497 498 
934 498 475 474 
935 475 498 476 
936 476 498 499 
937 476 499 500 
938 500 477 476 
939 477 500 478 
940 478 500 501 
941 478 501 502 
942 502 479 478 
943 479 502 480 
944 480 502 503 
945 480 503 504 
946 504 481 480 
947 481 504 482 
948 482 504 505 
949 482 505 506 
950 506 483 482 
951 483 506 484 
952 484 506 507 
953 484 507 508 
954 508 485 484 
955 485 508 486 
956 486 508 509 
957 486 509 510 
958 510 487 486 
959 487 510 57 
960 57 510 56 
961 22 23 488 
962 488 23 511 
963 488 511 512 
964 512 489 488 
965 489 512 490 
966 490 512 513 
967 490 513 514 
968 514 491 490 
969 491 514 492 
970 492 514 515 
971 492 515 516 
972 516 493 492 
973 493 516 494 
974 494 516 517 
975 494 517 518 
976 518 495 494 
977 495 518 496 
978 496 518 519 
979 496 519 520 
980 520 497 496 
981 497 520 498 
982 498 520 521 
983 498 521 522 
984 522 499 498 
985 499 522 500 
986 500 522 523 
987 500 523 524 
988 524 501 500 
989 501 524 502 
990 502 524 525 
991 502 525 526 
992 526 503 502 
993 503 526 504 
994 504 526 527 
995 504 527 528 
996 528 505 504 
997 505 528 506 
998 506 528 529 
999 506 529 530 
1000 530 507 506 
1001 507 530 508 
1002 508 530 531 
1003 508 531 532 
1004 532 509 508 
1005 509 532 510 
1006 510 532 533 
1007 510 533 55 
1008 55 56 510 
1009 23 24 534 
1010 534 511 23 
1011 511 534 512 
1012 512 534 535 
1013 512 535 536 
1014 536 513 512 
1015 513 536 514 
1016 514 536 537 
1017 514 537 538 
1018 538 515 514 
1019 515 538 516 
1020 516 538 539 
1021 516 539 540 
1022 540 517 516 
1023 517 540 518 
1024 518 540 541 
1025 518 541 542 
1026 542 519 518 
1027 519 542 520 
1028 520 542 543 
1029 520 543 544 
1030 544 521 520 
1031 521 544 522 
1032 522 544 545 
1033 522 545 546 
1034 546 523 522 
1035 523 546 524 
1036 524 546 547 
1037 524 547 548 
1038 548 525 524 
1039 525 548 526 
1040 526 548 549 
1041 526 549 550 
1042 550 527 526 
1043 527 550 528 
1044 528 550 551 
1045 528 551 552 
1046 552 529 528 
1047 529 552 530 
1048 530 552 553 
1049 530 553 554 
1050 554 531 530 
1051 531 554 532 
1052 532 554 555 
1053 532 555 556 
1054 556 533 532 
1055 533 556 55 
1056 55 556 54 
1057 24 25 534 
1058 534 25 557 
1059 534 557 558 
1060 558 535 534 
1061 535 558 536 
1062 536 558 559 
1063 536 559 560 
1064 560 537 536 
1065 537 560 538 
1066 538 560 561 
1067 538 561 562 
1068 562 539 538 
1069 539 562 540 
1070 540 562 563 
1071 540 563 564 
1072 564 541 540 
1073 541 564 542 
1074 542 564 565 
1075 542 565 566 
1076 566 543 542 
1077 543 566 544 
1078 544 566 567 
1079 544 567 568 
1080 568 545 544 
1081 545 568 546 
1082 546 568 569 
1083 546 569 570 
1084 570 547 546 
1085 547 570 548 
1086 548 570 571 
1087 548 571 572 
1088 572 549 548 
1089 549 572 550 
1090 550 572 573 
1091 550 573 574 
1092 574 551 550 
1093 551 574 552 
1094 552 574 575 
1095 552 575 576 
1096 576 553 552 
1097 553 576 554 
1098 554 576 577 
1099 554 577 578 
1100 578 555 554 
1101 555 578 556 
1102 556 578 579 
1103 556 579 53 
1104 53 54 556 
1105 25 26 580 
1106 580 557 25 
1107 557 580 558 
1108 558 580 581 
1109 558 581 582 
1110 582 559 558 
1111 559 582 560 
1112 560 582 583 
1113 560 583 584 
1114 584 561 560 
1115 561 584 562 
1116 562 584 585 
1117 562 585 586 
1118 586 563 562 
1119 563 586 564 
1120 564 586 587 
1121 564 587 588 
1122 588 565 564 
1123 565 588 566 
1124 566 588 589 
1125 566 589 590 
1126 590 567 566 
1127 567 590 568 
1128 568 590 591 
1129 568 591 592 
1130 592 569 568 
1131 569 592 570 
1132 570 592 593 
1133 570 593 594 
1134 594 571 570 
1135 571 594 572 
1136 572 594 595 
1137 572 595 596 
1138 596 573 572 
1139 573 596 574 
1140 574 596 597 
1141 574 597 598 
1142 598 575 574 
1143 575 598 576 
1144 576 598 599 
1145 576 599 600 
1146 600 577 576 
1147 577 600 578 
1148 578 600 601 
1149 578 601 602 
1150 602 579 578 
1151 579 602 53 
1152 53 602 52 
1153 26 27 580 
1154 580 27 603 
1155 580 603 604 
1156 604 581 580 
1157 581 604 582 
1158 582 604 605 
1159 582 605 606 
1160 606 583 582 
1161 583 606 584 
1162 584 606 607 
1163 584 607 608 
1164 608 585 584 
1165 585 608 586 
1166 586 608 609 
1167 586 609 610 
1168 610 587 586 
1169 587 610 588 
1170 588 610 611 
1171 588 611 612 
1172 612 589 588 
1173 589 612 590 
1174 590 612 613 
1175 590 613 614 
1176 614 591 590 
1177 591 614 592 
1178 592 614 615 
1179 592 615 616 
1180 616 593 592 
1181 593 616 594 
1182 594 616 617 
1183 594 617 618 
1184 618 595 594 
1185 595 618 596 
1186 596 618 619 
1187 596 619 620 
1188 620 597 596 
1189 597 620 598 
1190 598 620 621 
1191 598 621 622 
1192 622 599 598 
1193 599 622 600 
1194 600 622 623 
1195 600 623 624 
1196 624 601 600 
1197 601 624 602 
1198 602 624 625 
1199 602 625 51 
1200 51 52 602 
1201 27 2 28 
1202 28 603 27 
1203 603 28 604 
1204 604 28 29 
1205 604 29 30 
1206 30 605 604 
1207 605 30 606 
1208 606 30 31 
1209 606 31 32 
1210 32 607 606 
1211 607 32 608 
1212 608 32 33 
1213 608 33 34 
1214 34 609 608 
1215 609 34 610 
1216 610 34 35 
1217 610 35 36 
1218 36 611 610 
1219 611 36 612 
1220 612 36 37 
1221 612 37 38 
1222 38 613 612 
1223 613 38 614 
1224 614 38 39 
1225 614 39 40 
1226 40 615 614 
1227 615 40 616 
1228 616 40 41 
1229 616 41 42 
1230 42 617 616 
1231 617 42 618 
1232 618 42 43 
1233 618 43 44 
1234 44 619 618 
1235 619 44 620 
1236 620 44 45 
1237 620 45 46 
1238 46 621 620 
1239 621 46 622 
1240 622 46 47 
1241 622 47 48 
1242 48 623 622 
1243 623 48 624 
1244 624 48 49 
1245 624 49 50 
1246 50 625 624 
1247 625 50 51 
1248 51 50 3 
$EndElements
