$MeshFormat
4.1 0 8
$EndMeshFormat
$PhysicalNames
5
1 1 "Γ¹"
1 2 "Γ²"
1 3 "Γ³"
1 5 "Γ"
2 4 "Ω"
$EndPhysicalNames
$Entities
3 4 1 0
1 0 0 0 0 
2 1 0 0 0 
3 0.5 0.8660254037844385 0 0 
1 0 0 0 1 0 0 1 1 2 1 -2 
2 0.5 0 0 1 0.8660254037844385 0 1 2 2 2 -3 
3 0 0 0 0.5 0.8660254037844385 0 1 3 2 3 -1 
4 0 0 0 1 0.8660254037844385 0 1 5 0 
1 0 0 0 1 0.8660254037844385 0 1 4 3 1 2 3 
$EndEntities
$Nodes
8 421 1 421
0 1 0 1
1
0 0 0
0 2 0 1
2
1 0 0
0 3 0 1
3
0.5 0.8660254037844385 0
1 1 0 19
4
5
6
7
8
9
10
11
12
13
14
15
16
17
18
19
20
21
22
0.04999999999989938 0 0
0.09999999999981413 0 0
0.1499999999997028 0 0
0.1999999999995569 0 0
0.2499999999994109 0 0
0.299999999999265 0 0
0.3499999999991191 0 0
0.3999999999989731 0 0
0.4499999999988272 0 0
0.4999999999986921 0 0
0.5499999999988131 0 0
0.599999999998945 0 0
0.6499999999990769 0 0
0.6999999999992088 0 0
0.7499999999993406 0 0
0.7999999999994725 0 0
0.8499999999996044 0 0
0.8999999999997362 0 0
0.9499999999998682 0 0
1 2 0 19
23
24
25
26
27
28
29
30
31
32
33
34
35
36
37
38
39
40
41
0.9750000000000368 0.04330127018915813 0
0.9500000000000667 0.0866025403783284 0
0.9250000000001101 0.1299038105674751 0
0.9000000000001662 0.1732050807565998 0
0.8750000000002199 0.2165063509457286 0
0.8500000000002808 0.2598076211348452 0
0.8250000000003379 0.3031088913239683 0
0.8000000000003893 0.3464101615131012 0
0.7750000000004444 0.3897114317022275 0
0.7500000000004958 0.4330127018913604 0
0.7250000000004524 0.4763139720806576 0
0.7000000000004024 0.5196152422699661 0
0.6750000000003514 0.5629165124592763 0
0.6500000000002986 0.6062177826485899 0
0.6250000000002456 0.6495190528379035 0
0.6000000000002021 0.6928203230272006 0
0.5750000000001492 0.7361215932165143 0
0.5500000000000944 0.779422863405831 0
0.5250000000000379 0.8227241335951511 0
1 3 0 19
42
43
44
45
46
47
48
49
50
51
52
53
54
55
56
57
58
59
60
0.4750000000000096 0.8227241335952333 0
0.4500000000000099 0.7794228634060119 0
0.4250000000000561 0.73612159321687 0
0.4000000000001671 0.6928203230278402 0
0.3750000000002781 0.6495190528388105 0
0.3500000000003852 0.6062177826497741 0
0.3250000000004755 0.5629165124607085 0
0.3000000000005564 0.5196152422716267 0
0.2750000000006579 0.4763139720825807 0
0.2500000000007502 0.4330127018935186 0
0.2250000000006837 0.3897114317041815 0
0.200000000000608 0.3464101615148284 0
0.1750000000005312 0.3031088913254736 0
0.1500000000004527 0.2598076211361156 0
0.1250000000003741 0.2165063509467576 0
0.100000000000305 0.1732050807574159 0
0.07500000000022639 0.1299038105680579 0
0.05000000000014593 0.08660254037869664 0
0.02500000000006358 0.04330127018933205 0
1 4 0 0
2 1 0 361
61
62
63
64
65
66
67
68
69
70
71
72
73
74
75
76
77
78
79
80
81
82
83
84
85
86
87
88
89
90
91
92
93
94
95
96
97
98
99
100
101
102
103
104
105
106
107
108
109
110
111
112
113
114
115
116
117
118
119
120
121
122
123
124
125
126
127
128
129
130
131
132
133
134
135
136
137
138
139
140
141
142
143
144
145
146
147
148
149
150
151
152
153
154
155
156
157
158
159
160
161
162
163
164
165
166
167
168
169
170
171
172
173
174
175
176
177
178
179
180
181
182
183
184
185
186
187
188
189
190
191
192
193
194
195
196
197
198
199
200
201
202
203
204
205
206
207
208
209
210
211
212
213
214
215
216
217
218
219
220
221
222
223
224
225
226
227
228
229
230
231
232
233
234
235
236
237
238
239
240
241
242
243
244
245
246
247
248
249
250
251
252
253
254
255
256
257
258
259
260
261
262
263
264
265
266
267
268
269
270
271
272
273
274
275
276
277
278
279
280
281
282
283
284
285
286
287
288
289
290
291
292
293
294
295
296
297
298
299
300
301
302
303
304
305
306
307
308
309
310
311
312
313
314
315
316
317
318
319
320
321
322
323
324
325
326
327
328
329
330
331
332
333
334
335
336
337
338
339
340
341
342
343
344
345
346
347
348
349
350
351
352
353
354
355
356
357
358
359
360
361
362
363
364
365
366
367
368
369
370
371
372
373
374
375
376
377
378
379
380
381
382
383
384
385
386
387
388
389
390
391
392
393
394
395
396
397
398
399
400
401
402
403
404
405
406
407
408
409
410
411
412
413
414
415
416
417
418
419
420
421
0.04874999999990943 0.002165063509463412 0
0.04749999999991913 0.004330127018927431 0
0.04624999999992951 0.006495190528390272 0
0.04499999999994053 0.008660254037852014 0
0.04374999999995142 0.01082531754731396 0
0.04249999999996268 0.01299038105677529 0
0.04124999999997375 0.01515544456623696 0
0.03999999999998453 0.0173205080756991 0
0.0387499999999955 0.01948557158516092 0
0.03750000000000629 0.02165063509462308 0
0.03625000000001231 0.02381569860409345 0
0.03500000000001803 0.02598076211356437 0
0.03375000000002368 0.02814582562303539 0
0.03250000000002926 0.03031088913250658 0
0.03125000000003481 0.03247595264197776 0
0.03000000000004085 0.03464101615144811 0
0.02875000000004641 0.03680607966091931 0
0.02750000000005189 0.03897114317039065 0
0.02625000000005727 0.04113620667986217 0
0.0974999999998344 0.00433012701892845 0
0.09499999999985397 0.008660254037858115 0
0.0924999999998749 0.01299038105678542 0
0.08999999999989708 0.01732050807571053 0
0.08749999999991903 0.02165063509463605 0
0.08499999999994173 0.02598076211356035 0
0.08249999999996405 0.0303108891324853 0
0.07999999999998578 0.03464101615141121 0
0.07750000000000787 0.03897114317033649 0
0.0750000000000296 0.04330127018926242 0
0.07250000000004186 0.04763139720820478 0
0.07000000000005345 0.05196152422714826 0
0.06750000000006492 0.05629165124609192 0
0.06500000000007626 0.06062177826503592 0
0.06250000000008753 0.06495190528397991 0
0.06000000000009979 0.06928203230292226 0
0.05750000000011108 0.07361215932186629 0
0.05500000000012219 0.0779422863408106 0
0.05250000000013313 0.08227241335975523 0
0.1462499999997346 0.006495190528393324 0
0.1424999999997652 0.01299038105678847 0
0.1387499999997979 0.01948557158518007 0
0.1349999999998324 0.02598076211356839 0
0.1312499999998667 0.03247595264195732 0
0.127499999999902 0.03897114317034441 0
0.1237499999999368 0.04546633369873246 0
0.1199999999999707 0.051961524227122 0
0.1162500000000051 0.05845671475551054 0
0.112500000000039 0.0649519052839001 0
0.1087500000000587 0.07144709581231429 0
0.1050000000000773 0.07794228634073012 0
0.1012500000000958 0.08443747686914628 0
0.09750000000011408 0.09093266739756291 0
0.09375000000013231 0.09742785792597955 0
0.09000000000015201 0.1039230484543937 0
0.08625000000017022 0.1104182389828104 0
0.0825000000001882 0.1169134295112275 0
0.07875000000020591 0.1234086200396451 0
0.1949999999996017 0.008660254037858032 0
0.189999999999645 0.01732050807571849 0
0.1849999999996911 0.02598076211357424 0
0.1799999999997398 0.0346410161514256 0
0.1749999999997878 0.04330127018927776 0
0.1699999999998374 0.05196152422712749 0
0.1649999999998863 0.06062177826497852 0
0.159999999999934 0.06928203230283149 0
0.1549999999999824 0.07794228634068318 0
0.1500000000000301 0.08660254037853617 0
0.1450000000000588 0.09526279441642201 0
0.1400000000000862 0.1039230484543101 0
0.1350000000001134 0.1125833024921986 0
0.1300000000001403 0.1212435565300877 0
0.125000000000167 0.1299038105679768 0
0.1200000000001958 0.1385640646058626 0
0.1150000000002226 0.1472243186437518 0
0.110000000000249 0.1558845726816415 0
0.1050000000002751 0.164544826719532 0
0.2437499999994683 0.01082531754732193 0
0.237499999999524 0.0216506350946469 0
0.2312499999995829 0.03247595264196596 0
0.2249999999996452 0.04330127018927956 0
0.2187499999997067 0.05412658773659414 0
0.2124999999997701 0.06495190528390567 0
0.2062499999998326 0.07577722283121885 0
0.1999999999998935 0.08660254037853445 0
0.1937499999999555 0.09742785792584843 0
0.1875000000000165 0.1082531754731641 0
0.1812500000000538 0.1190784930205208 0
0.1750000000000894 0.1299038105678803 0
0.1687500000001249 0.1407291281152402 0
0.1625000000001598 0.151554445662601 0
0.1562500000001947 0.1623797632099619 0
0.1500000000002321 0.1732050807573185 0
0.143750000000267 0.1840303983046793 0
0.1375000000003015 0.1948557158520409 0
0.1312500000003355 0.2056810333994033 0
0.2924999999993354 0.01299038105678663 0
0.2849999999994037 0.02598076211357691 0
0.2774999999994761 0.0389711431703601 0
0.2699999999995524 0.05196152422713674 0
0.2624999999996279 0.06495190528391458 0
0.2549999999997056 0.07794228634068874 0
0.247499999999782 0.09093266739746485 0
0.2399999999998569 0.1039230484542439 0
0.2324999999999328 0.116913429511021 0
0.2250000000000076 0.1299038105678001 0
0.2175000000000539 0.1428941916246285 0
0.2100000000000983 0.1558845726814602 0
0.2025000000001424 0.1688749537382924 0
0.1950000000001859 0.1818653347951257 0
0.1875000000002295 0.194855715851959 0
0.1800000000002758 0.2078460969087873 0
0.1725000000003192 0.2208364779656206 0
0.1650000000003622 0.2338268590224549 0
0.1575000000004046 0.24681724007929 0
0.3412499999992026 0.01515544456625134 0
0.3324999999992836 0.03031088913250695 0
0.3237499999993694 0.04546633369875429 0
0.3149999999994597 0.06062177826499395 0
0.306249999999549 0.07577722283123503 0
0.2974999999996409 0.09093266739747183 0
0.2887499999997316 0.1060881119637109 0
0.2799999999998202 0.1212435565299534 0
0.2712499999999101 0.1363990010961936 0
0.2624999999999987 0.1515544456624362 0
0.2537500000000541 0.1667098902287362 0
0.2450000000001072 0.1818653347950401 0
0.23625000000016 0.1970207793613447 0
0.2275000000002121 0.2121762239276505 0
0.2187500000002642 0.2273316684939563 0
0.2100000000003195 0.2424871130602562 0
0.2012500000003716 0.257642557626562 0
0.1925000000004231 0.2727980021928689 0
0.1837500000004738 0.2879534467591768 0
0.3899999999990696 0.01732050807571589 0
0.3799999999991633 0.03464101615143664 0
0.3699999999992624 0.05196152422714796 0
0.3599999999993665 0.06928203230285052 0
0.3499999999994698 0.08660254037855467 0
0.3399999999995759 0.1039230484542539 0
0.3299999999996805 0.1212435565299558 0
0.3199999999997827 0.1385640646056616 0
0.3099999999998866 0.1558845726813648 0
0.299999999999989 0.1732050807570706 0
0.2900000000000532 0.1905255888328422 0
0.280000000000115 0.2078460969086182 0
0.2700000000001763 0.2251666049843949 0
0.2600000000002369 0.242487113060173 0
0.2500000000002974 0.2598076211359511 0
0.2400000000003619 0.2771281292117226 0
0.2300000000004224 0.2944486372875006 0
0.2200000000004823 0.31176914536328 0
0.2100000000005414 0.3290896534390606 0
0.4387499999989365 0.01948557158518036 0
0.4274999999990429 0.03897114317036619 0
0.4162499999991552 0.05845671475554141 0
0.4049999999992733 0.07794228634070677 0
0.3937499999993903 0.0974278579258739 0
0.3824999999995104 0.1169134295110356 0
0.371249999999629 0.1363990010962002 0
0.3599999999997451 0.1558845726813692 0
0.3487499999998626 0.1753701442665352 0
0.3374999999999786 0.1948557158517043 0
0.3262500000000518 0.2143412874369472 0
0.3150000000001222 0.2338268590221952 0
0.303750000000192 0.253312430607444 0
0.2925000000002611 0.2727980021926943 0
0.2812500000003302 0.2922835737779446 0
0.2700000000004034 0.3117691453631876 0
0.2587500000004724 0.3312547169484379 0
0.2475000000005406 0.3507402885336896 0
0.2362500000006079 0.3702258601189429 0
0.4874999999988134 0.02165063509464402 0
0.4749999999989312 0.04330127018929412 0
0.4624999999990558 0.06495190528393244 0
0.4499999999991868 0.08660254037855977 0
0.4374999999993166 0.1082531754731891 0
0.4249999999994498 0.1299038105678124 0
0.4124999999995814 0.1515544456624389 0
0.39999999999971 0.1732050807570703 0
0.3874999999998403 0.1948557158516984 0
0.374999999999969 0.2165063509463298 0
0.3625000000000501 0.2381569860410434 0
0.3500000000001282 0.2598076211357625 0
0.3375000000002054 0.2814582562304826 0
0.3250000000002821 0.3031088913252044 0
0.3125000000003585 0.3247595264199261 0
0.3000000000004397 0.3464101615146398 0
0.287500000000516 0.3680607966093615 0
0.2750000000005915 0.3897114317040848 0
0.2625000000006662 0.4113620667988099 0
0.5362499999989255 0.02381569860409394 0
0.5224999999990342 0.04763139720819456 0
0.5087499999991504 0.07144709581228223 0
0.4949999999992735 0.09526279441635779 0
0.4812499999993953 0.1190784930204356 0
0.467499999999521 0.1428941916245067 0
0.4537499999996446 0.1667098902285813 0
0.4399999999997651 0.1905255888326614 0
0.4262499999998878 0.2143412874367379 0
0.4125000000000083 0.238156986040818 0
0.3987500000000765 0.2619726846449883 0
0.3850000000001415 0.2857883832491649 0
0.3712500000002056 0.3096040818533426 0
0.3575000000002687 0.333419780457522 0
0.3437500000003318 0.3572354790617014 0
0.3300000000004001 0.3810511776658719 0
0.3162500000004633 0.4048668762700513 0
0.3025000000005253 0.4286825748742325 0
0.2887500000005865 0.4524982734784156 0
0.5849999999990479 0.02598076211354304 0
0.5699999999991461 0.05196152422709337 0
0.554999999999253 0.07794228634062955 0
0.5399999999993671 0.1039230484541526 0
0.5249999999994799 0.129903810567678 0
0.5099999999995969 0.1558845726811962 0
0.4949999999997119 0.1818653347947182 0
0.4799999999998231 0.2078460969082461 0
0.4649999999999368 0.2338268590217701 0
0.4500000000000483 0.259807621135298 0
0.4350000000001027 0.2857883832489244 0
0.4200000000001534 0.3117691453625576 0
0.4050000000002033 0.337749907476192 0
0.390000000000252 0.3637306695898284 0
0.3750000000003009 0.3897114317034646 0
0.3600000000003554 0.4156921938170911 0
0.3450000000004042 0.4416729559307275 0
0.3300000000004519 0.4676537180443657 0
0.3150000000004985 0.4936344801580059 0
0.6337499999991706 0.02814582562299395 0
0.6174999999992602 0.05629165124599578 0
0.6012499999993584 0.08443747686898231 0
0.5849999999994645 0.1125833024919545 0
0.5687499999995693 0.1407291281149294 0
0.552499999999679 0.1688749537378964 0
0.5362499999997858 0.1970207793608675 0
0.5199999999998892 0.2251666049838451 0
0.503749999999995 0.2533124306068183 0
0.4875000000000985 0.2814582562297958 0
0.4712500000001401 0.3096040818528802 0
0.4550000000001776 0.3377499074759721 0
0.4387500000002145 0.3658957330990646 0
0.4225000000002499 0.3940415587221597 0
0.4062500000002854 0.4221873843452547 0
0.3900000000003272 0.4503332099683391 0
0.3737500000003626 0.478479035591434 0
0.3575000000003971 0.5066248612145312 0
0.3412500000004302 0.5347706868376303 0
0.6824999999992934 0.03031088913244404 0
0.6649999999993731 0.06062177826489658 0
0.6474999999994623 0.09093266739733261 0
0.6299999999995605 0.1212435565297533 0
0.6124999999996568 0.1515544456621768 0
0.5949999999997582 0.1818653347945917 0
0.5774999999998569 0.2121762239270112 0
0.5599999999999519 0.2424871130594376 0
0.5425000000000495 0.2727980021918593 0
0.525000000000144 0.3031088913242857 0
0.5075000000001727 0.3334197804568272 0
0.4900000000001963 0.3637306695893763 0
0.4725000000002194 0.394041558721927 0
0.4550000000002413 0.4243524478544799 0
0.437500000000263 0.4546633369870325 0
0.4200000000002915 0.4849742261195741 0
0.4025000000003133 0.5152851152521267 0
0.3850000000003336 0.5455960043846818 0
0.3675000000003529 0.5759068935172392 0
0.7312499999994152 0.03247595264189267 0
0.7124999999994844 0.06495190528379444 0
0.6937499999995639 0.09742785792567853 0
0.6749999999996527 0.1299038105675462 0
0.65624999999974 0.1623797632094168 0
0.6374999999998325 0.1948557158512783 0
0.6187499999999223 0.2273316684931447 0
0.6000000000000074 0.2598076211350184 0
0.5812500000000957 0.2922835737768872 0
0.5625000000001811 0.324759526418761 0
0.5437500000001954 0.357235479060758 0
0.5250000000002049 0.3897114317027635 0
0.5062500000002135 0.4221873843447701 0
0.4875000000002208 0.4546633369867795 0
0.4687500000002279 0.4871392896287887 0
0.4500000000002422 0.5196152422707856 0
0.4312500000002493 0.5520911949127948 0
0.4125000000002552 0.5845671475548065 0
0.3937500000002597 0.6170431001968207 0
0.7799999999995366 0.03464101615134096 0
0.7599999999995953 0.06928203230269163 0
0.7399999999996646 0.1039230484540235 0
0.7199999999997442 0.1385640646053377 0
0.6999999999998221 0.1732050807566552 0
0.6799999999999053 0.2078460969079629 0
0.6599999999999859 0.2424871130592759 0
0.6400000000000619 0.2771281292105966 0
0.6200000000001407 0.3117691453619121 0
0.6000000000002164 0.346410161513233 0
0.5800000000002165 0.3810511776646852 0
0.5600000000002112 0.4156921938161464 0
0.5400000000002051 0.4503332099676091 0
0.5200000000001974 0.4849742261190744 0
0.5000000000001898 0.5196152422705397 0
0.4800000000001899 0.5542562584219919 0
0.4600000000001823 0.5888972745734572 0
0.4400000000001731 0.6235382907249251 0
0.4200000000001626 0.6581793068763956 0
0.8287499999996584 0.03680607966078926 0
0.8074999999997063 0.07361215932158884 0
0.7862499999997659 0.1104182389823684 0
0.7649999999998358 0.1472243186431293 0
0.7437499999999042 0.1840303983038936 0
0.7224999999999786 0.2208364779646475 0
0.7012500000000497 0.2576425576254069 0
0.680000000000116 0.2944486372861748 0
0.6587500000001855 0.3312547169469371 0
0.6375000000002518 0.3680607966077049 0
0.6162500000002373 0.4048668762686124 0
0.5950000000002176 0.4416729559295295 0
0.5737500000001967 0.4784790355904479 0
0.5525000000001745 0.5152851152513693 0
0.5312500000001519 0.5520911949122906 0
0.5100000000001375 0.588897274573198 0
0.4887500000001151 0.6257033542341195 0
0.4675000000000912 0.6625094338950437 0
0.4462500000000657 0.6993155135559704 0
0.877499999999783 0.03897114317024316 0
0.8549999999998237 0.07794228634049727 0
0.8324999999998763 0.1169134295107301 0
0.8099999999999407 0.1558845726809432 0
0.7875000000000025 0.19485571585116 0
0.7650000000000711 0.2338268590213658 0
0.7425000000001363 0.2727980021915773 0
0.720000000000196 0.3117691453617978 0
0.6975000000002594 0.3507402885320124 0
0.6750000000003193 0.3897114317022329 0
0.652500000000294 0.4286825748726013 0
0.6300000000002625 0.4676537180429797 0
0.6075000000002304 0.5066248612133598 0
0.5850000000001965 0.5455960043837428 0
0.5625000000001624 0.5845671475541258 0
0.540000000000137 0.623538290724494 0
0.5175000000001031 0.6625094338948773 0
0.4950000000000675 0.7014805770652631 0
0.4725000000000303 0.7404517202356521 0
0.9262499999999101 0.04113620667970105 0
0.9024999999999458 0.08227241335941364 0
0.8787499999999937 0.1234086200391038 0
0.8550000000000546 0.1645448267187732 0
0.8312500000001125 0.2056810333984463 0
0.8075000000001772 0.2468172400781079 0
0.7837500000002386 0.2879534467577757 0
0.7600000000002947 0.3290896534374528 0
0.736250000000354 0.3702258601171236 0
0.71250000000041 0.4113620667968007 0
0.6887500000003757 0.4524982734766338 0
0.6650000000003355 0.4936344801564778 0
0.6412500000002939 0.5347706868363231 0
0.6175000000002508 0.5759068935161717 0
0.5937500000002075 0.6170431001960205 0
0.5700000000001734 0.6581793068758538 0
0.5462500000001301 0.6993155135557024 0
0.5225000000000852 0.7404517202355543 0
0.4987500000000385 0.7815879269154092 0
$EndNodes
$Elements
5 3180 1 8703
1 1 1 20
1 1 4 
2 4 5 
3 5 6 
4 6 7 
5 7 8 
6 8 9 
7 9 10 
8 10 11 
9 11 12 
10 12 13 
11 13 14 
12 14 15 
13 15 16 
14 16 17 
15 17 18 
16 18 19 
17 19 20 
18 20 21 
19 21 22 
20 22 2 
1 2 1 20
21 2 23 
22 23 24 
23 24 25 
24 25 26 
25 26 27 
26 27 28 
27 28 29 
28 29 30 
29 30 31 
30 31 32 
31 32 33 
32 33 34 
33 34 35 
34 35 36 
35 36 37 
36 37 38 
37 38 39 
38 39 40 
39 40 41 
40 41 3 
1 3 1 20
41 3 42 
42 42 43 
43 43 44 
44 44 45 
45 45 46 
46 46 47 
47 47 48 
48 48 49 
49 49 50 
50 50 51 
51 51 52 
52 52 53 
53 53 54 
54 54 55 
55 55 56 
56 56 57 
57 57 58 
58 58 59 
59 59 60 
60 60 1 
1 4 1 2340
6364 1 4 
6365 4 61 
6366 61 1 
6367 1 61 
6368 61 62 
6369 62 1 
6370 1 62 
6371 62 63 
6372 63 1 
6373 1 63 
6374 63 64 
6375 64 1 
6376 1 64 
6377 64 65 
6378 65 1 
6379 1 65 
6380 65 66 
6381 66 1 
6382 1 66 
6383 66 67 
6384 67 1 
6385 1 67 
6386 67 68 
6387 68 1 
6388 1 68 
6389 68 69 
6390 69 1 
6391 1 69 
6392 69 70 
6393 70 1 
6394 1 70 
6395 70 71 
6396 71 1 
6397 1 71 
6398 71 72 
6399 72 1 
6400 1 72 
6401 72 73 
6402 73 1 
6403 1 73 
6404 73 74 
6405 74 1 
6406 1 74 
6407 74 75 
6408 75 1 
6409 1 75 
6410 75 76 
6411 76 1 
6412 1 76 
6413 76 77 
6414 77 1 
6415 1 77 
6416 77 78 
6417 78 1 
6418 1 78 
6419 78 79 
6420 79 1 
6421 1 79 
6422 79 60 
6423 60 1 
6424 4 5 
6425 5 61 
6426 61 4 
6427 61 5 
6428 5 80 
6429 80 61 
6430 61 80 
6431 80 62 
6432 62 61 
6433 62 80 
6434 80 81 
6435 81 62 
6436 62 81 
6437 81 63 
6438 63 62 
6439 63 81 
6440 81 82 
6441 82 63 
6442 63 82 
6443 82 64 
6444 64 63 
6445 64 82 
6446 82 83 
6447 83 64 
6448 64 83 
6449 83 65 
6450 65 64 
6451 65 83 
6452 83 84 
6453 84 65 
6454 65 84 
6455 84 66 
6456 66 65 
6457 66 84 
6458 84 85 
6459 85 66 
6460 66 85 
6461 85 67 
6462 67 66 
6463 67 85 
6464 85 86 
6465 86 67 
6466 67 86 
6467 86 68 
6468 68 67 
6469 68 86 
6470 86 87 
6471 87 68 
6472 68 87 
6473 87 69 
6474 69 68 
6475 69 87 
6476 87 88 
6477 88 69 
6478 69 88 
6479 88 70 
6480 70 69 
6481 70 88 
6482 88 89 
6483 89 70 
6484 70 89 
6485 89 71 
6486 71 70 
6487 71 89 
6488 89 90 
6489 90 71 
6490 71 90 
6491 90 72 
6492 72 71 
6493 72 90 
6494 90 91 
6495 91 72 
6496 72 91 
6497 91 73 
6498 73 72 
6499 73 91 
6500 91 92 
6501 92 73 
6502 73 92 
6503 92 74 
6504 74 73 
6505 74 92 
6506 92 93 
6507 93 74 
6508 74 93 
6509 93 75 
6510 75 74 
6511 75 93 
6512 93 94 
6513 94 75 
6514 75 94 
6515 94 76 
6516 76 75 
6517 76 94 
6518 94 95 
6519 95 76 
6520 76 95 
6521 95 77 
6522 77 76 
6523 77 95 
6524 95 96 
6525 96 77 
6526 77 96 
6527 96 78 
6528 78 77 
6529 78 96 
6530 96 97 
6531 97 78 
6532 78 97 
6533 97 79 
6534 79 78 
6535 79 97 
6536 97 98 
6537 98 79 
6538 79 98 
6539 98 60 
6540 60 79 
6541 60 98 
6542 98 59 
6543 59 60 
6544 5 6 
6545 6 80 
6546 80 5 
6547 80 6 
6548 6 99 
6549 99 80 
6550 80 99 
6551 99 81 
6552 81 80 
6553 81 99 
6554 99 100 
6555 100 81 
6556 81 100 
6557 100 82 
6558 82 81 
6559 82 100 
6560 100 101 
6561 101 82 
6562 82 101 
6563 101 83 
6564 83 82 
6565 83 101 
6566 101 102 
6567 102 83 
6568 83 102 
6569 102 84 
6570 84 83 
6571 84 102 
6572 102 103 
6573 103 84 
6574 84 103 
6575 103 85 
6576 85 84 
6577 85 103 
6578 103 104 
6579 104 85 
6580 85 104 
6581 104 86 
6582 86 85 
6583 86 104 
6584 104 105 
6585 105 86 
6586 86 105 
6587 105 87 
6588 87 86 
6589 87 105 
6590 105 106 
6591 106 87 
6592 87 106 
6593 106 88 
6594 88 87 
6595 88 106 
6596 106 107 
6597 107 88 
6598 88 107 
6599 107 89 
6600 89 88 
6601 89 107 
6602 107 108 
6603 108 89 
6604 89 108 
6605 108 90 
6606 90 89 
6607 90 108 
6608 108 109 
6609 109 90 
6610 90 109 
6611 109 91 
6612 91 90 
6613 91 109 
6614 109 110 
6615 110 91 
6616 91 110 
6617 110 92 
6618 92 91 
6619 92 110 
6620 110 111 
6621 111 92 
6622 92 111 
6623 111 93 
6624 93 92 
6625 93 111 
6626 111 112 
6627 112 93 
6628 93 112 
6629 112 94 
6630 94 93 
6631 94 112 
6632 112 113 
6633 113 94 
6634 94 113 
6635 113 95 
6636 95 94 
6637 95 113 
6638 113 114 
6639 114 95 
6640 95 114 
6641 114 96 
6642 96 95 
6643 96 114 
6644 114 115 
6645 115 96 
6646 96 115 
6647 115 97 
6648 97 96 
6649 97 115 
6650 115 116 
6651 116 97 
6652 97 116 
6653 116 98 
6654 98 97 
6655 98 116 
6656 116 117 
6657 117 98 
6658 98 117 
6659 117 59 
6660 59 98 
6661 59 117 
6662 117 58 
6663 58 59 
6664 6 7 
6665 7 99 
6666 99 6 
6667 99 7 
6668 7 118 
6669 118 99 
6670 99 118 
6671 118 100 
6672 100 99 
6673 100 118 
6674 118 119 
6675 119 100 
6676 100 119 
6677 119 101 
6678 101 100 
6679 101 119 
6680 119 120 
6681 120 101 
6682 101 120 
6683 120 102 
6684 102 101 
6685 102 120 
6686 120 121 
6687 121 102 
6688 102 121 
6689 121 103 
6690 103 102 
6691 103 121 
6692 121 122 
6693 122 103 
6694 103 122 
6695 122 104 
6696 104 103 
6697 104 122 
6698 122 123 
6699 123 104 
6700 104 123 
6701 123 105 
6702 105 104 
6703 105 123 
6704 123 124 
6705 124 105 
6706 105 124 
6707 124 106 
6708 106 105 
6709 106 124 
6710 124 125 
6711 125 106 
6712 106 125 
6713 125 107 
6714 107 106 
6715 107 125 
6716 125 126 
6717 126 107 
6718 107 126 
6719 126 108 
6720 108 107 
6721 108 126 
6722 126 127 
6723 127 108 
6724 108 127 
6725 127 109 
6726 109 108 
6727 109 127 
6728 127 128 
6729 128 109 
6730 109 128 
6731 128 110 
6732 110 109 
6733 110 128 
6734 128 129 
6735 129 110 
6736 110 129 
6737 129 111 
6738 111 110 
6739 111 129 
6740 129 130 
6741 130 111 
6742 111 130 
6743 130 112 
6744 112 111 
6745 112 130 
6746 130 131 
6747 131 112 
6748 112 131 
6749 131 113 
6750 113 112 
6751 113 131 
6752 131 132 
6753 132 113 
6754 113 132 
6755 132 114 
6756 114 113 
6757 114 132 
6758 132 133 
6759 133 114 
6760 114 133 
6761 133 115 
6762 115 114 
6763 115 133 
6764 133 134 
6765 134 115 
6766 115 134 
6767 134 116 
6768 116 115 
6769 116 134 
6770 134 135 
6771 135 116 
6772 116 135 
6773 135 117 
6774 117 116 
6775 117 135 
6776 135 136 
6777 136 117 
6778 117 136 
6779 136 58 
6780 58 117 
6781 58 136 
6782 136 57 
6783 57 58 
6784 7 8 
6785 8 118 
6786 118 7 
6787 118 8 
6788 8 137 
6789 137 118 
6790 118 137 
6791 137 119 
6792 119 118 
6793 119 137 
6794 137 138 
6795 138 119 
6796 119 138 
6797 138 120 
6798 120 119 
6799 120 138 
6800 138 139 
6801 139 120 
6802 120 139 
6803 139 121 
6804 121 120 
6805 121 139 
6806 139 140 
6807 140 121 
6808 121 140 
6809 140 122 
6810 122 121 
6811 122 140 
6812 140 141 
6813 141 122 
6814 122 141 
6815 141 123 
6816 123 122 
6817 123 141 
6818 141 142 
6819 142 123 
6820 123 142 
6821 142 124 
6822 124 123 
6823 124 142 
6824 142 143 
6825 143 124 
6826 124 143 
6827 143 125 
6828 125 124 
6829 125 143 
6830 143 144 
6831 144 125 
6832 125 144 
6833 144 126 
6834 126 125 
6835 126 144 
6836 144 145 
6837 145 126 
6838 126 145 
6839 145 127 
6840 127 126 
6841 127 145 
6842 145 146 
6843 146 127 
6844 127 146 
6845 146 128 
6846 128 127 
6847 128 146 
6848 146 147 
6849 147 128 
6850 128 147 
6851 147 129 
6852 129 128 
6853 129 147 
6854 147 148 
6855 148 129 
6856 129 148 
6857 148 130 
6858 130 129 
6859 130 148 
6860 148 149 
6861 149 130 
6862 130 149 
6863 149 131 
6864 131 130 
6865 131 149 
6866 149 150 
6867 150 131 
6868 131 150 
6869 150 132 
6870 132 131 
6871 132 150 
6872 150 151 
6873 151 132 
6874 132 151 
6875 151 133 
6876 133 132 
6877 133 151 
6878 151 152 
6879 152 133 
6880 133 152 
6881 152 134 
6882 134 133 
6883 134 152 
6884 152 153 
6885 153 134 
6886 134 153 
6887 153 135 
6888 135 134 
6889 135 153 
6890 153 154 
6891 154 135 
6892 135 154 
6893 154 136 
6894 136 135 
6895 136 154 
6896 154 155 
6897 155 136 
6898 136 155 
6899 155 57 
6900 57 136 
6901 57 155 
6902 155 56 
6903 56 57 
6904 8 9 
6905 9 137 
6906 137 8 
6907 137 9 
6908 9 156 
6909 156 137 
6910 137 156 
6911 156 138 
6912 138 137 
6913 138 156 
6914 156 157 
6915 157 138 
6916 138 157 
6917 157 139 
6918 139 138 
6919 139 157 
6920 157 158 
6921 158 139 
6922 139 158 
6923 158 140 
6924 140 139 
6925 140 158 
6926 158 159 
6927 159 140 
6928 140 159 
6929 159 141 
6930 141 140 
6931 141 159 
6932 159 160 
6933 160 141 
6934 141 160 
6935 160 142 
6936 142 141 
6937 142 160 
6938 160 161 
6939 161 142 
6940 142 161 
6941 161 143 
6942 143 142 
6943 143 161 
6944 161 162 
6945 162 143 
6946 143 162 
6947 162 144 
6948 144 143 
6949 144 162 
6950 162 163 
6951 163 144 
6952 144 163 
6953 163 145 
6954 145 144 
6955 145 163 
6956 163 164 
6957 164 145 
6958 145 164 
6959 164 146 
6960 146 145 
6961 146 164 
6962 164 165 
6963 165 146 
6964 146 165 
6965 165 147 
6966 147 146 
6967 147 165 
6968 165 166 
6969 166 147 
6970 147 166 
6971 166 148 
6972 148 147 
6973 148 166 
6974 166 167 
6975 167 148 
6976 148 167 
6977 167 149 
6978 149 148 
6979 149 167 
6980 167 168 
6981 168 149 
6982 149 168 
6983 168 150 
6984 150 149 
6985 150 168 
6986 168 169 
6987 169 150 
6988 150 169 
6989 169 151 
6990 151 150 
6991 151 169 
6992 169 170 
6993 170 151 
6994 151 170 
6995 170 152 
6996 152 151 
6997 152 170 
6998 170 171 
6999 171 152 
7000 152 171 
7001 171 153 
7002 153 152 
7003 153 171 
7004 171 172 
7005 172 153 
7006 153 172 
7007 172 154 
7008 154 153 
7009 154 172 
7010 172 173 
7011 173 154 
7012 154 173 
7013 173 155 
7014 155 154 
7015 155 173 
7016 173 174 
7017 174 155 
7018 155 174 
7019 174 56 
7020 56 155 
7021 56 174 
7022 174 55 
7023 55 56 
7024 9 10 
7025 10 156 
7026 156 9 
7027 156 10 
7028 10 175 
7029 175 156 
7030 156 175 
7031 175 157 
7032 157 156 
7033 157 175 
7034 175 176 
7035 176 157 
7036 157 176 
7037 176 158 
7038 158 157 
7039 158 176 
7040 176 177 
7041 177 158 
7042 158 177 
7043 177 159 
7044 159 158 
7045 159 177 
7046 177 178 
7047 178 159 
7048 159 178 
7049 178 160 
7050 160 159 
7051 160 178 
7052 178 179 
7053 179 160 
7054 160 179 
7055 179 161 
7056 161 160 
7057 161 179 
7058 179 180 
7059 180 161 
7060 161 180 
7061 180 162 
7062 162 161 
7063 162 180 
7064 180 181 
7065 181 162 
7066 162 181 
7067 181 163 
7068 163 162 
7069 163 181 
7070 181 182 
7071 182 163 
7072 163 182 
7073 182 164 
7074 164 163 
7075 164 182 
7076 182 183 
7077 183 164 
7078 164 183 
7079 183 165 
7080 165 164 
7081 165 183 
7082 183 184 
7083 184 165 
7084 165 184 
7085 184 166 
7086 166 165 
7087 166 184 
7088 184 185 
7089 185 166 
7090 166 185 
7091 185 167 
7092 167 166 
7093 167 185 
7094 185 186 
7095 186 167 
7096 167 186 
7097 186 168 
7098 168 167 
7099 168 186 
7100 186 187 
7101 187 168 
7102 168 187 
7103 187 169 
7104 169 168 
7105 169 187 
7106 187 188 
7107 188 169 
7108 169 188 
7109 188 170 
7110 170 169 
7111 170 188 
7112 188 189 
7113 189 170 
7114 170 189 
7115 189 171 
7116 171 170 
7117 171 189 
7118 189 190 
7119 190 171 
7120 171 190 
7121 190 172 
7122 172 171 
7123 172 190 
7124 190 191 
7125 191 172 
7126 172 191 
7127 191 173 
7128 173 172 
7129 173 191 
7130 191 192 
7131 192 173 
7132 173 192 
7133 192 174 
7134 174 173 
7135 174 192 
7136 192 193 
7137 193 174 
7138 174 193 
7139 193 55 
7140 55 174 
7141 55 193 
7142 193 54 
7143 54 55 
7144 10 11 
7145 11 175 
7146 175 10 
7147 175 11 
7148 11 194 
7149 194 175 
7150 175 194 
7151 194 176 
7152 176 175 
7153 176 194 
7154 194 195 
7155 195 176 
7156 176 195 
7157 195 177 
7158 177 176 
7159 177 195 
7160 195 196 
7161 196 177 
7162 177 196 
7163 196 178 
7164 178 177 
7165 178 196 
7166 196 197 
7167 197 178 
7168 178 197 
7169 197 179 
7170 179 178 
7171 179 197 
7172 197 198 
7173 198 179 
7174 179 198 
7175 198 180 
7176 180 179 
7177 180 198 
7178 198 199 
7179 199 180 
7180 180 199 
7181 199 181 
7182 181 180 
7183 181 199 
7184 199 200 
7185 200 181 
7186 181 200 
7187 200 182 
7188 182 181 
7189 182 200 
7190 200 201 
7191 201 182 
7192 182 201 
7193 201 183 
7194 183 182 
7195 183 201 
7196 201 202 
7197 202 183 
7198 183 202 
7199 202 184 
7200 184 183 
7201 184 202 
7202 202 203 
7203 203 184 
7204 184 203 
7205 203 185 
7206 185 184 
7207 185 203 
7208 203 204 
7209 204 185 
7210 185 204 
7211 204 186 
7212 186 185 
7213 186 204 
7214 204 205 
7215 205 186 
7216 186 205 
7217 205 187 
7218 187 186 
7219 187 205 
7220 205 206 
7221 206 187 
7222 187 206 
7223 206 188 
7224 188 187 
7225 188 206 
7226 206 207 
7227 207 188 
7228 188 207 
7229 207 189 
7230 189 188 
7231 189 207 
7232 207 208 
7233 208 189 
7234 189 208 
7235 208 190 
7236 190 189 
7237 190 208 
7238 208 209 
7239 209 190 
7240 190 209 
7241 209 191 
7242 191 190 
7243 191 209 
7244 209 210 
7245 210 191 
7246 191 210 
7247 210 192 
7248 192 191 
7249 192 210 
7250 210 211 
7251 211 192 
7252 192 211 
7253 211 193 
7254 193 192 
7255 193 211 
7256 211 212 
7257 212 193 
7258 193 212 
7259 212 54 
7260 54 193 
7261 54 212 
7262 212 53 
7263 53 54 
7264 11 12 
7265 12 194 
7266 194 11 
7267 194 12 
7268 12 213 
7269 213 194 
7270 194 213 
7271 213 195 
7272 195 194 
7273 195 213 
7274 213 214 
7275 214 195 
7276 195 214 
7277 214 196 
7278 196 195 
7279 196 214 
7280 214 215 
7281 215 196 
7282 196 215 
7283 215 197 
7284 197 196 
7285 197 215 
7286 215 216 
7287 216 197 
7288 197 216 
7289 216 198 
7290 198 197 
7291 198 216 
7292 216 217 
7293 217 198 
7294 198 217 
7295 217 199 
7296 199 198 
7297 199 217 
7298 217 218 
7299 218 199 
7300 199 218 
7301 218 200 
7302 200 199 
7303 200 218 
7304 218 219 
7305 219 200 
7306 200 219 
7307 219 201 
7308 201 200 
7309 201 219 
7310 219 220 
7311 220 201 
7312 201 220 
7313 220 202 
7314 202 201 
7315 202 220 
7316 220 221 
7317 221 202 
7318 202 221 
7319 221 203 
7320 203 202 
7321 203 221 
7322 221 222 
7323 222 203 
7324 203 222 
7325 222 204 
7326 204 203 
7327 204 222 
7328 222 223 
7329 223 204 
7330 204 223 
7331 223 205 
7332 205 204 
7333 205 223 
7334 223 224 
7335 224 205 
7336 205 224 
7337 224 206 
7338 206 205 
7339 206 224 
7340 224 225 
7341 225 206 
7342 206 225 
7343 225 207 
7344 207 206 
7345 207 225 
7346 225 226 
7347 226 207 
7348 207 226 
7349 226 208 
7350 208 207 
7351 208 226 
7352 226 227 
7353 227 208 
7354 208 227 
7355 227 209 
7356 209 208 
7357 209 227 
7358 227 228 
7359 228 209 
7360 209 228 
7361 228 210 
7362 210 209 
7363 210 228 
7364 228 229 
7365 229 210 
7366 210 229 
7367 229 211 
7368 211 210 
7369 211 229 
7370 229 230 
7371 230 211 
7372 211 230 
7373 230 212 
7374 212 211 
7375 212 230 
7376 230 231 
7377 231 212 
7378 212 231 
7379 231 53 
7380 53 212 
7381 53 231 
7382 231 52 
7383 52 53 
7384 12 13 
7385 13 213 
7386 213 12 
7387 213 13 
7388 13 232 
7389 232 213 
7390 213 232 
7391 232 214 
7392 214 213 
7393 214 232 
7394 232 233 
7395 233 214 
7396 214 233 
7397 233 215 
7398 215 214 
7399 215 233 
7400 233 234 
7401 234 215 
7402 215 234 
7403 234 216 
7404 216 215 
7405 216 234 
7406 234 235 
7407 235 216 
7408 216 235 
7409 235 217 
7410 217 216 
7411 217 235 
7412 235 236 
7413 236 217 
7414 217 236 
7415 236 218 
7416 218 217 
7417 218 236 
7418 236 237 
7419 237 218 
7420 218 237 
7421 237 219 
7422 219 218 
7423 219 237 
7424 237 238 
7425 238 219 
7426 219 238 
7427 238 220 
7428 220 219 
7429 220 238 
7430 238 239 
7431 239 220 
7432 220 239 
7433 239 221 
7434 221 220 
7435 221 239 
7436 239 240 
7437 240 221 
7438 221 240 
7439 240 222 
7440 222 221 
7441 222 240 
7442 240 241 
7443 241 222 
7444 222 241 
7445 241 223 
7446 223 222 
7447 223 241 
7448 241 242 
7449 242 223 
7450 223 242 
7451 242 224 
7452 224 223 
7453 224 242 
7454 242 243 
7455 243 224 
7456 224 243 
7457 243 225 
7458 225 224 
7459 225 243 
7460 243 244 
7461 244 225 
7462 225 244 
7463 244 226 
7464 226 225 
7465 226 244 
7466 244 245 
7467 245 226 
7468 226 245 
7469 245 227 
7470 227 226 
7471 227 245 
7472 245 246 
7473 246 227 
7474 227 246 
7475 246 228 
7476 228 227 
7477 228 246 
7478 246 247 
7479 247 228 
7480 228 247 
7481 247 229 
7482 229 228 
7483 229 247 
7484 247 248 
7485 248 229 
7486 229 248 
7487 248 230 
7488 230 229 
7489 230 248 
7490 248 249 
7491 249 230 
7492 230 249 
7493 249 231 
7494 231 230 
7495 231 249 
7496 249 250 
7497 250 231 
7498 231 250 
7499 250 52 
7500 52 231 
7501 52 250 
7502 250 51 
7503 51 52 
7504 13 14 
7505 14 232 
7506 232 13 
7507 232 14 
7508 14 251 
7509 251 232 
7510 232 251 
7511 251 233 
7512 233 232 
7513 233 251 
7514 251 252 
7515 252 233 
7516 233 252 
7517 252 234 
7518 234 233 
7519 234 252 
7520 252 253 
7521 253 234 
7522 234 253 
7523 253 235 
7524 235 234 
7525 235 253 
7526 253 254 
7527 254 235 
7528 235 254 
7529 254 236 
7530 236 235 
7531 236 254 
7532 254 255 
7533 255 236 
7534 236 255 
7535 255 237 
7536 237 236 
7537 237 255 
7538 255 256 
7539 256 237 
7540 237 256 
7541 256 238 
7542 238 237 
7543 238 256 
7544 256 257 
7545 257 238 
7546 238 257 
7547 257 239 
7548 239 238 
7549 239 257 
7550 257 258 
7551 258 239 
7552 239 258 
7553 258 240 
7554 240 239 
7555 240 258 
7556 258 259 
7557 259 240 
7558 240 259 
7559 259 241 
7560 241 240 
7561 241 259 
7562 259 260 
7563 260 241 
7564 241 260 
7565 260 242 
7566 242 241 
7567 242 260 
7568 260 261 
7569 261 242 
7570 242 261 
7571 261 243 
7572 243 242 
7573 243 261 
7574 261 262 
7575 262 243 
7576 243 262 
7577 262 244 
7578 244 243 
7579 244 262 
7580 262 263 
7581 263 244 
7582 244 263 
7583 263 245 
7584 245 244 
7585 245 263 
7586 263 264 
7587 264 245 
7588 245 264 
7589 264 246 
7590 246 245 
7591 246 264 
7592 264 265 
7593 265 246 
7594 246 265 
7595 265 247 
7596 247 246 
7597 247 265 
7598 265 266 
7599 266 247 
7600 247 266 
7601 266 248 
7602 248 247 
7603 248 266 
7604 266 267 
7605 267 248 
7606 248 267 
7607 267 249 
7608 249 248 
7609 249 267 
7610 267 268 
7611 268 249 
7612 249 268 
7613 268 250 
7614 250 249 
7615 250 268 
7616 268 269 
7617 269 250 
7618 250 269 
7619 269 51 
7620 51 250 
7621 51 269 
7622 269 50 
7623 50 51 
7624 14 15 
7625 15 251 
7626 251 14 
7627 251 15 
7628 15 270 
7629 270 251 
7630 251 270 
7631 270 252 
7632 252 251 
7633 252 270 
7634 270 271 
7635 271 252 
7636 252 271 
7637 271 253 
7638 253 252 
7639 253 271 
7640 271 272 
7641 272 253 
7642 253 272 
7643 272 254 
7644 254 253 
7645 254 272 
7646 272 273 
7647 273 254 
7648 254 273 
7649 273 255 
7650 255 254 
7651 255 273 
7652 273 274 
7653 274 255 
7654 255 274 
7655 274 256 
7656 256 255 
7657 256 274 
7658 274 275 
7659 275 256 
7660 256 275 
7661 275 257 
7662 257 256 
7663 257 275 
7664 275 276 
7665 276 257 
7666 257 276 
7667 276 258 
7668 258 257 
7669 258 276 
7670 276 277 
7671 277 258 
7672 258 277 
7673 277 259 
7674 259 258 
7675 259 277 
7676 277 278 
7677 278 259 
7678 259 278 
7679 278 260 
7680 260 259 
7681 260 278 
7682 278 279 
7683 279 260 
7684 260 279 
7685 279 261 
7686 261 260 
7687 261 279 
7688 279 280 
7689 280 261 
7690 261 280 
7691 280 262 
7692 262 261 
7693 262 280 
7694 280 281 
7695 281 262 
7696 262 281 
7697 281 263 
7698 263 262 
7699 263 281 
7700 281 282 
7701 282 263 
7702 263 282 
7703 282 264 
7704 264 263 
7705 264 282 
7706 282 283 
7707 283 264 
7708 264 283 
7709 283 265 
7710 265 264 
7711 265 283 
7712 283 284 
7713 284 265 
7714 265 284 
7715 284 266 
7716 266 265 
7717 266 284 
7718 284 285 
7719 285 266 
7720 266 285 
7721 285 267 
7722 267 266 
7723 267 285 
7724 285 286 
7725 286 267 
7726 267 286 
7727 286 268 
7728 268 267 
7729 268 286 
7730 286 287 
7731 287 268 
7732 268 287 
7733 287 269 
7734 269 268 
7735 269 287 
7736 287 288 
7737 288 269 
7738 269 288 
7739 288 50 
7740 50 269 
7741 50 288 
7742 288 49 
7743 49 50 
7744 15 16 
7745 16 270 
7746 270 15 
7747 270 16 
7748 16 289 
7749 289 270 
7750 270 289 
7751 289 271 
7752 271 270 
7753 271 289 
7754 289 290 
7755 290 271 
7756 271 290 
7757 290 272 
7758 272 271 
7759 272 290 
7760 290 291 
7761 291 272 
7762 272 291 
7763 291 273 
7764 273 272 
7765 273 291 
7766 291 292 
7767 292 273 
7768 273 292 
7769 292 274 
7770 274 273 
7771 274 292 
7772 292 293 
7773 293 274 
7774 274 293 
7775 293 275 
7776 275 274 
7777 275 293 
7778 293 294 
7779 294 275 
7780 275 294 
7781 294 276 
7782 276 275 
7783 276 294 
7784 294 295 
7785 295 276 
7786 276 295 
7787 295 277 
7788 277 276 
7789 277 295 
7790 295 296 
7791 296 277 
7792 277 296 
7793 296 278 
7794 278 277 
7795 278 296 
7796 296 297 
7797 297 278 
7798 278 297 
7799 297 279 
7800 279 278 
7801 279 297 
7802 297 298 
7803 298 279 
7804 279 298 
7805 298 280 
7806 280 279 
7807 280 298 
7808 298 299 
7809 299 280 
7810 280 299 
7811 299 281 
7812 281 280 
7813 281 299 
7814 299 300 
7815 300 281 
7816 281 300 
7817 300 282 
7818 282 281 
7819 282 300 
7820 300 301 
7821 301 282 
7822 282 301 
7823 301 283 
7824 283 282 
7825 283 301 
7826 301 302 
7827 302 283 
7828 283 302 
7829 302 284 
7830 284 283 
7831 284 302 
7832 302 303 
7833 303 284 
7834 284 303 
7835 303 285 
7836 285 284 
7837 285 303 
7838 303 304 
7839 304 285 
7840 285 304 
7841 304 286 
7842 286 285 
7843 286 304 
7844 304 305 
7845 305 286 
7846 286 305 
7847 305 287 
7848 287 286 
7849 287 305 
7850 305 306 
7851 306 287 
7852 287 306 
7853 306 288 
7854 288 287 
7855 288 306 
7856 306 307 
7857 307 288 
7858 288 307 
7859 307 49 
7860 49 288 
7861 49 307 
7862 307 48 
7863 48 49 
7864 16 17 
7865 17 289 
7866 289 16 
7867 289 17 
7868 17 308 
7869 308 289 
7870 289 308 
7871 308 290 
7872 290 289 
7873 290 308 
7874 308 309 
7875 309 290 
7876 290 309 
7877 309 291 
7878 291 290 
7879 291 309 
7880 309 310 
7881 310 291 
7882 291 310 
7883 310 292 
7884 292 291 
7885 292 310 
7886 310 311 
7887 311 292 
7888 292 311 
7889 311 293 
7890 293 292 
7891 293 311 
7892 311 312 
7893 312 293 
7894 293 312 
7895 312 294 
7896 294 293 
7897 294 312 
7898 312 313 
7899 313 294 
7900 294 313 
7901 313 295 
7902 295 294 
7903 295 313 
7904 313 314 
7905 314 295 
7906 295 314 
7907 314 296 
7908 296 295 
7909 296 314 
7910 314 315 
7911 315 296 
7912 296 315 
7913 315 297 
7914 297 296 
7915 297 315 
7916 315 316 
7917 316 297 
7918 297 316 
7919 316 298 
7920 298 297 
7921 298 316 
7922 316 317 
7923 317 298 
7924 298 317 
7925 317 299 
7926 299 298 
7927 299 317 
7928 317 318 
7929 318 299 
7930 299 318 
7931 318 300 
7932 300 299 
7933 300 318 
7934 318 319 
7935 319 300 
7936 300 319 
7937 319 301 
7938 301 300 
7939 301 319 
7940 319 320 
7941 320 301 
7942 301 320 
7943 320 302 
7944 302 301 
7945 302 320 
7946 320 321 
7947 321 302 
7948 302 321 
7949 321 303 
7950 303 302 
7951 303 321 
7952 321 322 
7953 322 303 
7954 303 322 
7955 322 304 
7956 304 303 
7957 304 322 
7958 322 323 
7959 323 304 
7960 304 323 
7961 323 305 
7962 305 304 
7963 305 323 
7964 323 324 
7965 324 305 
7966 305 324 
7967 324 306 
7968 306 305 
7969 306 324 
7970 324 325 
7971 325 306 
7972 306 325 
7973 325 307 
7974 307 306 
7975 307 325 
7976 325 326 
7977 326 307 
7978 307 326 
7979 326 48 
7980 48 307 
7981 48 326 
7982 326 47 
7983 47 48 
7984 17 18 
7985 18 308 
7986 308 17 
7987 308 18 
7988 18 327 
7989 327 308 
7990 308 327 
7991 327 309 
7992 309 308 
7993 309 327 
7994 327 328 
7995 328 309 
7996 309 328 
7997 328 310 
7998 310 309 
7999 310 328 
8000 328 329 
8001 329 310 
8002 310 329 
8003 329 311 
8004 311 310 
8005 311 329 
8006 329 330 
8007 330 311 
8008 311 330 
8009 330 312 
8010 312 311 
8011 312 330 
8012 330 331 
8013 331 312 
8014 312 331 
8015 331 313 
8016 313 312 
8017 313 331 
8018 331 332 
8019 332 313 
8020 313 332 
8021 332 314 
8022 314 313 
8023 314 332 
8024 332 333 
8025 333 314 
8026 314 333 
8027 333 315 
8028 315 314 
8029 315 333 
8030 333 334 
8031 334 315 
8032 315 334 
8033 334 316 
8034 316 315 
8035 316 334 
8036 334 335 
8037 335 316 
8038 316 335 
8039 335 317 
8040 317 316 
8041 317 335 
8042 335 336 
8043 336 317 
8044 317 336 
8045 336 318 
8046 318 317 
8047 318 336 
8048 336 337 
8049 337 318 
8050 318 337 
8051 337 319 
8052 319 318 
8053 319 337 
8054 337 338 
8055 338 319 
8056 319 338 
8057 338 320 
8058 320 319 
8059 320 338 
8060 338 339 
8061 339 320 
8062 320 339 
8063 339 321 
8064 321 320 
8065 321 339 
8066 339 340 
8067 340 321 
8068 321 340 
8069 340 322 
8070 322 321 
8071 322 340 
8072 340 341 
8073 341 322 
8074 322 341 
8075 341 323 
8076 323 322 
8077 323 341 
8078 341 342 
8079 342 323 
8080 323 342 
8081 342 324 
8082 324 323 
8083 324 342 
8084 342 343 
8085 343 324 
8086 324 343 
8087 343 325 
8088 325 324 
8089 325 343 
8090 343 344 
8091 344 325 
8092 325 344 
8093 344 326 
8094 326 325 
8095 326 344 
8096 344 345 
8097 345 326 
8098 326 345 
8099 345 47 
8100 47 326 
8101 47 345 
8102 345 46 
8103 46 47 
8104 18 19 
8105 19 327 
8106 327 18 
8107 327 19 
8108 19 346 
8109 346 327 
8110 327 346 
8111 346 328 
8112 328 327 
8113 328 346 
8114 346 347 
8115 347 328 
8116 328 347 
8117 347 329 
8118 329 328 
8119 329 347 
8120 347 348 
8121 348 329 
8122 329 348 
8123 348 330 
8124 330 329 
8125 330 348 
8126 348 349 
8127 349 330 
8128 330 349 
8129 349 331 
8130 331 330 
8131 331 349 
8132 349 350 
8133 350 331 
8134 331 350 
8135 350 332 
8136 332 331 
8137 332 350 
8138 350 351 
8139 351 332 
8140 332 351 
8141 351 333 
8142 333 332 
8143 333 351 
8144 351 352 
8145 352 333 
8146 333 352 
8147 352 334 
8148 334 333 
8149 334 352 
8150 352 353 
8151 353 334 
8152 334 353 
8153 353 335 
8154 335 334 
8155 335 353 
8156 353 354 
8157 354 335 
8158 335 354 
8159 354 336 
8160 336 335 
8161 336 354 
8162 354 355 
8163 355 336 
8164 336 355 
8165 355 337 
8166 337 336 
8167 337 355 
8168 355 356 
8169 356 337 
8170 337 356 
8171 356 338 
8172 338 337 
8173 338 356 
8174 356 357 
8175 357 338 
8176 338 357 
8177 357 339 
8178 339 338 
8179 339 357 
8180 357 358 
8181 358 339 
8182 339 358 
8183 358 340 
8184 340 339 
8185 340 358 
8186 358 359 
8187 359 340 
8188 340 359 
8189 359 341 
8190 341 340 
8191 341 359 
8192 359 360 
8193 360 341 
8194 341 360 
8195 360 342 
8196 342 341 
8197 342 360 
8198 360 361 
8199 361 342 
8200 342 361 
8201 361 343 
8202 343 342 
8203 343 361 
8204 361 362 
8205 362 343 
8206 343 362 
8207 362 344 
8208 344 343 
8209 344 362 
8210 362 363 
8211 363 344 
8212 344 363 
8213 363 345 
8214 345 344 
8215 345 363 
8216 363 364 
8217 364 345 
8218 345 364 
8219 364 46 
8220 46 345 
8221 46 364 
8222 364 45 
8223 45 46 
8224 19 20 
8225 20 346 
8226 346 19 
8227 346 20 
8228 20 365 
8229 365 346 
8230 346 365 
8231 365 347 
8232 347 346 
8233 347 365 
8234 365 366 
8235 366 347 
8236 347 366 
8237 366 348 
8238 348 347 
8239 348 366 
8240 366 367 
8241 367 348 
8242 348 367 
8243 367 349 
8244 349 348 
8245 349 367 
8246 367 368 
8247 368 349 
8248 349 368 
8249 368 350 
8250 350 349 
8251 350 368 
8252 368 369 
8253 369 350 
8254 350 369 
8255 369 351 
8256 351 350 
8257 351 369 
8258 369 370 
8259 370 351 
8260 351 370 
8261 370 352 
8262 352 351 
8263 352 370 
8264 370 371 
8265 371 352 
8266 352 371 
8267 371 353 
8268 353 352 
8269 353 371 
8270 371 372 
8271 372 353 
8272 353 372 
8273 372 354 
8274 354 353 
8275 354 372 
8276 372 373 
8277 373 354 
8278 354 373 
8279 373 355 
8280 355 354 
8281 355 373 
8282 373 374 
8283 374 355 
8284 355 374 
8285 374 356 
8286 356 355 
8287 356 374 
8288 374 375 
8289 375 356 
8290 356 375 
8291 375 357 
8292 357 356 
8293 357 375 
8294 375 376 
8295 376 357 
8296 357 376 
8297 376 358 
8298 358 357 
8299 358 376 
8300 376 377 
8301 377 358 
8302 358 377 
8303 377 359 
8304 359 358 
8305 359 377 
8306 377 378 
8307 378 359 
8308 359 378 
8309 378 360 
8310 360 359 
8311 360 378 
8312 378 379 
8313 379 360 
8314 360 379 
8315 379 361 
8316 361 360 
8317 361 379 
8318 379 380 
8319 380 361 
8320 361 380 
8321 380 362 
8322 362 361 
8323 362 380 
8324 380 381 
8325 381 362 
8326 362 381 
8327 381 363 
8328 363 362 
8329 363 381 
8330 381 382 
8331 382 363 
8332 363 382 
8333 382 364 
8334 364 363 
8335 364 382 
8336 382 383 
8337 383 364 
8338 364 383 
8339 383 45 
8340 45 364 
8341 45 383 
8342 383 44 
8343 44 45 
8344 20 21 
8345 21 365 
8346 365 20 
8347 365 21 
8348 21 384 
8349 384 365 
8350 365 384 
8351 384 366 
8352 366 365 
8353 366 384 
8354 384 385 
8355 385 366 
8356 366 385 
8357 385 367 
8358 367 366 
8359 367 385 
8360 385 386 
8361 386 367 
8362 367 386 
8363 386 368 
8364 368 367 
8365 368 386 
8366 386 387 
8367 387 368 
8368 368 387 
8369 387 369 
8370 369 368 
8371 369 387 
8372 387 388 
8373 388 369 
8374 369 388 
8375 388 370 
8376 370 369 
8377 370 388 
8378 388 389 
8379 389 370 
8380 370 389 
8381 389 371 
8382 371 370 
8383 371 389 
8384 389 390 
8385 390 371 
8386 371 390 
8387 390 372 
8388 372 371 
8389 372 390 
8390 390 391 
8391 391 372 
8392 372 391 
8393 391 373 
8394 373 372 
8395 373 391 
8396 391 392 
8397 392 373 
8398 373 392 
8399 392 374 
8400 374 373 
8401 374 392 
8402 392 393 
8403 393 374 
8404 374 393 
8405 393 375 
8406 375 374 
8407 375 393 
8408 393 394 
8409 394 375 
8410 375 394 
8411 394 376 
8412 376 375 
8413 376 394 
8414 394 395 
8415 395 376 
8416 376 395 
8417 395 377 
8418 377 376 
8419 377 395 
8420 395 396 
8421 396 377 
8422 377 396 
8423 396 378 
8424 378 377 
8425 378 396 
8426 396 397 
8427 397 378 
8428 378 397 
8429 397 379 
8430 379 378 
8431 379 397 
8432 397 398 
8433 398 379 
8434 379 398 
8435 398 380 
8436 380 379 
8437 380 398 
8438 398 399 
8439 399 380 
8440 380 399 
8441 399 381 
8442 381 380 
8443 381 399 
8444 399 400 
8445 400 381 
8446 381 400 
8447 400 382 
8448 382 381 
8449 382 400 
8450 400 401 
8451 401 382 
8452 382 401 
8453 401 383 
8454 383 382 
8455 383 401 
8456 401 402 
8457 402 383 
8458 383 402 
8459 402 44 
8460 44 383 
8461 44 402 
8462 402 43 
8463 43 44 
8464 21 22 
8465 22 384 
8466 384 21 
8467 384 22 
8468 22 403 
8469 403 384 
8470 384 403 
8471 403 385 
8472 385 384 
8473 385 403 
8474 403 404 
8475 404 385 
8476 385 404 
8477 404 386 
8478 386 385 
8479 386 404 
8480 404 405 
8481 405 386 
8482 386 405 
8483 405 387 
8484 387 386 
8485 387 405 
8486 405 406 
8487 406 387 
8488 387 406 
8489 406 388 
8490 388 387 
8491 388 406 
8492 406 407 
8493 407 388 
8494 388 407 
8495 407 389 
8496 389 388 
8497 389 407 
8498 407 408 
8499 408 389 
8500 389 408 
8501 408 390 
8502 390 389 
8503 390 408 
8504 408 409 
8505 409 390 
8506 390 409 
8507 409 391 
8508 391 390 
8509 391 409 
8510 409 410 
8511 410 391 
8512 391 410 
8513 410 392 
8514 392 391 
8515 392 410 
8516 410 411 
8517 411 392 
8518 392 411 
8519 411 393 
8520 393 392 
8521 393 411 
8522 411 412 
8523 412 393 
8524 393 412 
8525 412 394 
8526 394 393 
8527 394 412 
8528 412 413 
8529 413 394 
8530 394 413 
8531 413 395 
8532 395 394 
8533 395 413 
8534 413 414 
8535 414 395 
8536 395 414 
8537 414 396 
8538 396 395 
8539 396 414 
8540 414 415 
8541 415 396 
8542 396 415 
8543 415 397 
8544 397 396 
8545 397 415 
8546 415 416 
8547 416 397 
8548 397 416 
8549 416 398 
8550 398 397 
8551 398 416 
8552 416 417 
8553 417 398 
8554 398 417 
8555 417 399 
8556 399 398 
8557 399 417 
8558 417 418 
8559 418 399 
8560 399 418 
8561 418 400 
8562 400 399 
8563 400 418 
8564 418 419 
8565 419 400 
8566 400 419 
8567 419 401 
8568 401 400 
8569 401 419 
8570 419 420 
8571 420 401 
8572 401 420 
8573 420 402 
8574 402 401 
8575 402 420 
8576 420 421 
8577 421 402 
8578 402 421 
8579 421 43 
8580 43 402 
8581 43 421 
8582 421 42 
8583 42 43 
8584 22 2 
8585 2 403 
8586 403 22 
8587 403 2 
8588 2 23 
8589 23 403 
8590 403 23 
8591 23 404 
8592 404 403 
8593 404 23 
8594 23 24 
8595 24 404 
8596 404 24 
8597 24 405 
8598 405 404 
8599 405 24 
8600 24 25 
8601 25 405 
8602 405 25 
8603 25 406 
8604 406 405 
8605 406 25 
8606 25 26 
8607 26 406 
8608 406 26 
8609 26 407 
8610 407 406 
8611 407 26 
8612 26 27 
8613 27 407 
8614 407 27 
8615 27 408 
8616 408 407 
8617 408 27 
8618 27 28 
8619 28 408 
8620 408 28 
8621 28 409 
8622 409 408 
8623 409 28 
8624 28 29 
8625 29 409 
8626 409 29 
8627 29 410 
8628 410 409 
8629 410 29 
8630 29 30 
8631 30 410 
8632 410 30 
8633 30 411 
8634 411 410 
8635 411 30 
8636 30 31 
8637 31 411 
8638 411 31 
8639 31 412 
8640 412 411 
8641 412 31 
8642 31 32 
8643 32 412 
8644 412 32 
8645 32 413 
8646 413 412 
8647 413 32 
8648 32 33 
8649 33 413 
8650 413 33 
8651 33 414 
8652 414 413 
8653 414 33 
8654 33 34 
8655 34 414 
8656 414 34 
8657 34 415 
8658 415 414 
8659 415 34 
8660 34 35 
8661 35 415 
8662 415 35 
8663 35 416 
8664 416 415 
8665 416 35 
8666 35 36 
8667 36 416 
8668 416 36 
8669 36 417 
8670 417 416 
8671 417 36 
8672 36 37 
8673 37 417 
8674 417 37 
8675 37 418 
8676 418 417 
8677 418 37 
8678 37 38 
8679 38 418 
8680 418 38 
8681 38 419 
8682 419 418 
8683 419 38 
8684 38 39 
8685 39 419 
8686 419 39 
8687 39 420 
8688 420 419 
8689 420 39 
8690 39 40 
8691 40 420 
8692 420 40 
8693 40 421 
8694 421 420 
8695 421 40 
8696 40 41 
8697 41 421 
8698 421 41 
8699 41 42 
8700 42 421 
8701 42 41 
8702 41 3 
8703 3 42 
2 1 2 780
61 1 4 61 
62 1 61 62 
63 1 62 63 
64 1 63 64 
65 1 64 65 
66 1 65 66 
67 1 66 67 
68 1 67 68 
69 1 68 69 
70 1 69 70 
71 1 70 71 
72 1 71 72 
73 1 72 73 
74 1 73 74 
75 1 74 75 
76 1 75 76 
77 1 76 77 
78 1 77 78 
79 1 78 79 
80 1 79 60 
81 4 5 61 
82 61 5 80 
83 61 80 62 
84 62 80 81 
85 62 81 63 
86 63 81 82 
87 63 82 64 
88 64 82 83 
89 64 83 65 
90 65 83 84 
91 65 84 66 
92 66 84 85 
93 66 85 67 
94 67 85 86 
95 67 86 68 
96 68 86 87 
97 68 87 69 
98 69 87 88 
99 69 88 70 
100 70 88 89 
101 70 89 71 
102 71 89 90 
103 71 90 72 
104 72 90 91 
105 72 91 73 
106 73 91 92 
107 73 92 74 
108 74 92 93 
109 74 93 75 
110 75 93 94 
111 75 94 76 
112 76 94 95 
113 76 95 77 
114 77 95 96 
115 77 96 78 
116 78 96 97 
117 78 97 79 
118 79 97 98 
119 79 98 60 
120 60 98 59 
121 5 6 80 
122 80 6 99 
123 80 99 81 
124 81 99 100 
125 81 100 82 
126 82 100 101 
127 82 101 83 
128 83 101 102 
129 83 102 84 
130 84 102 103 
131 84 103 85 
132 85 103 104 
133 85 104 86 
134 86 104 105 
135 86 105 87 
136 87 105 106 
137 87 106 88 
138 88 106 107 
139 88 107 89 
140 89 107 108 
141 89 108 90 
142 90 108 109 
143 90 109 91 
144 91 109 110 
145 91 110 92 
146 92 110 111 
147 92 111 93 
148 93 111 112 
149 93 112 94 
150 94 112 113 
151 94 113 95 
152 95 113 114 
153 95 114 96 
154 96 114 115 
155 96 115 97 
156 97 115 116 
157 97 116 98 
158 98 116 117 
159 98 117 59 
160 59 117 58 
161 6 7 99 
162 99 7 118 
163 99 118 100 
164 100 118 119 
165 100 119 101 
166 101 119 120 
167 101 120 102 
168 102 120 121 
169 102 121 103 
170 103 121 122 
171 103 122 104 
172 104 122 123 
173 104 123 105 
174 105 123 124 
175 105 124 106 
176 106 124 125 
177 106 125 107 
178 107 125 126 
179 107 126 108 
180 108 126 127 
181 108 127 109 
182 109 127 128 
183 109 128 110 
184 110 128 129 
185 110 129 111 
186 111 129 130 
187 111 130 112 
188 112 130 131 
189 112 131 113 
190 113 131 132 
191 113 132 114 
192 114 132 133 
193 114 133 115 
194 115 133 134 
195 115 134 116 
196 116 134 135 
197 116 135 117 
198 117 135 136 
199 117 136 58 
200 58 136 57 
201 7 8 118 
202 118 8 137 
203 118 137 119 
204 119 137 138 
205 119 138 120 
206 120 138 139 
207 120 139 121 
208 121 139 140 
209 121 140 122 
210 122 140 141 
211 122 141 123 
212 123 141 142 
213 123 142 124 
214 124 142 143 
215 124 143 125 
216 125 143 144 
217 125 144 126 
218 126 144 145 
219 126 145 127 
220 127 145 146 
221 127 146 128 
222 128 146 147 
223 128 147 129 
224 129 147 148 
225 129 148 130 
226 130 148 149 
227 130 149 131 
228 131 149 150 
229 131 150 132 
230 132 150 151 
231 132 151 133 
232 133 151 152 
233 133 152 134 
234 134 152 153 
235 134 153 135 
236 135 153 154 
237 135 154 136 
238 136 154 155 
239 136 155 57 
240 57 155 56 
241 8 9 137 
242 137 9 156 
243 137 156 138 
244 138 156 157 
245 138 157 139 
246 139 157 158 
247 139 158 140 
248 140 158 159 
249 140 159 141 
250 141 159 160 
251 141 160 142 
252 142 160 161 
253 142 161 143 
254 143 161 162 
255 143 162 144 
256 144 162 163 
257 144 163 145 
258 145 163 164 
259 145 164 146 
260 146 164 165 
261 146 165 147 
262 147 165 166 
263 147 166 148 
264 148 166 167 
265 148 167 149 
266 149 167 168 
267 149 168 150 
268 150 168 169 
269 150 169 151 
270 151 169 170 
271 151 170 152 
272 152 170 171 
273 152 171 153 
274 153 171 172 
275 153 172 154 
276 154 172 173 
277 154 173 155 
278 155 173 174 
279 155 174 56 
280 56 174 55 
281 9 10 156 
282 156 10 175 
283 156 175 157 
284 157 175 176 
285 157 176 158 
286 158 176 177 
287 158 177 159 
288 159 177 178 
289 159 178 160 
290 160 178 179 
291 160 179 161 
292 161 179 180 
293 161 180 162 
294 162 180 181 
295 162 181 163 
296 163 181 182 
297 163 182 164 
298 164 182 183 
299 164 183 165 
300 165 183 184 
301 165 184 166 
302 166 184 185 
303 166 185 167 
304 167 185 186 
305 167 186 168 
306 168 186 187 
307 168 187 169 
308 169 187 188 
309 169 188 170 
310 170 188 189 
311 170 189 171 
312 171 189 190 
313 171 190 172 
314 172 190 191 
315 172 191 173 
316 173 191 192 
317 173 192 174 
318 174 192 193 
319 174 193 55 
320 55 193 54 
321 10 11 175 
322 175 11 194 
323 175 194 176 
324 176 194 195 
325 176 195 177 
326 177 195 196 
327 177 196 178 
328 178 196 197 
329 178 197 179 
330 179 197 198 
331 179 198 180 
332 180 198 199 
333 180 199 181 
334 181 199 200 
335 181 200 182 
336 182 200 201 
337 182 201 183 
338 183 201 202 
339 183 202 184 
340 184 202 203 
341 184 203 185 
342 185 203 204 
343 185 204 186 
344 186 204 205 
345 186 205 187 
346 187 205 206 
347 187 206 188 
348 188 206 207 
349 188 207 189 
350 189 207 208 
351 189 208 190 
352 190 208 209 
353 190 209 191 
354 191 209 210 
355 191 210 192 
356 192 210 211 
357 192 211 193 
358 193 211 212 
359 193 212 54 
360 54 212 53 
361 11 12 194 
362 194 12 213 
363 194 213 195 
364 195 213 214 
365 195 214 196 
366 196 214 215 
367 196 215 197 
368 197 215 216 
369 197 216 198 
370 198 216 217 
371 198 217 199 
372 199 217 218 
373 199 218 200 
374 200 218 219 
375 200 219 201 
376 201 219 220 
377 201 220 202 
378 202 220 221 
379 202 221 203 
380 203 221 222 
381 203 222 204 
382 204 222 223 
383 204 223 205 
384 205 223 224 
385 205 224 206 
386 206 224 225 
387 206 225 207 
388 207 225 226 
389 207 226 208 
390 208 226 227 
391 208 227 209 
392 209 227 228 
393 209 228 210 
394 210 228 229 
395 210 229 211 
396 211 229 230 
397 211 230 212 
398 212 230 231 
399 212 231 53 
400 53 231 52 
401 12 13 213 
402 213 13 232 
403 213 232 214 
404 214 232 233 
405 214 233 215 
406 215 233 234 
407 215 234 216 
408 216 234 235 
409 216 235 217 
410 217 235 236 
411 217 236 218 
412 218 236 237 
413 218 237 219 
414 219 237 238 
415 219 238 220 
416 220 238 239 
417 220 239 221 
418 221 239 240 
419 221 240 222 
420 222 240 241 
421 222 241 223 
422 223 241 242 
423 223 242 224 
424 224 242 243 
425 224 243 225 
426 225 243 244 
427 225 244 226 
428 226 244 245 
429 226 245 227 
430 227 245 246 
431 227 246 228 
432 228 246 247 
433 228 247 229 
434 229 247 248 
435 229 248 230 
436 230 248 249 
437 230 249 231 
438 231 249 250 
439 231 250 52 
440 52 250 51 
441 13 14 232 
442 232 14 251 
443 232 251 233 
444 233 251 252 
445 233 252 234 
446 234 252 253 
447 234 253 235 
448 235 253 254 
449 235 254 236 
450 236 254 255 
451 236 255 237 
452 237 255 256 
453 237 256 238 
454 238 256 257 
455 238 257 239 
456 239 257 258 
457 239 258 240 
458 240 258 259 
459 240 259 241 
460 241 259 260 
461 241 260 242 
462 242 260 261 
463 242 261 243 
464 243 261 262 
465 243 262 244 
466 244 262 263 
467 244 263 245 
468 245 263 264 
469 245 264 246 
470 246 264 265 
471 246 265 247 
472 247 265 266 
473 247 266 248 
474 248 266 267 
475 248 267 249 
476 249 267 268 
477 249 268 250 
478 250 268 269 
479 250 269 51 
480 51 269 50 
481 14 15 251 
482 251 15 270 
483 251 270 252 
484 252 270 271 
485 252 271 253 
486 253 271 272 
487 253 272 254 
488 254 272 273 
489 254 273 255 
490 255 273 274 
491 255 274 256 
492 256 274 275 
493 256 275 257 
494 257 275 276 
495 257 276 258 
496 258 276 277 
497 258 277 259 
498 259 277 278 
499 259 278 260 
500 260 278 279 
501 260 279 261 
502 261 279 280 
503 261 280 262 
504 262 280 281 
505 262 281 263 
506 263 281 282 
507 263 282 264 
508 264 282 283 
509 264 283 265 
510 265 283 284 
511 265 284 266 
512 266 284 285 
513 266 285 267 
514 267 285 286 
515 267 286 268 
516 268 286 287 
517 268 287 269 
518 269 287 288 
519 269 288 50 
520 50 288 49 
521 15 16 270 
522 270 16 289 
523 270 289 271 
524 271 289 290 
525 271 290 272 
526 272 290 291 
527 272 291 273 
528 273 291 292 
529 273 292 274 
530 274 292 293 
531 274 293 275 
532 275 293 294 
533 275 294 276 
534 276 294 295 
535 276 295 277 
536 277 295 296 
537 277 296 278 
538 278 296 297 
539 278 297 279 
540 279 297 298 
541 279 298 280 
542 280 298 299 
543 280 299 281 
544 281 299 300 
545 281 300 282 
546 282 300 301 
547 282 301 283 
548 283 301 302 
549 283 302 284 
550 284 302 303 
551 284 303 285 
552 285 303 304 
553 285 304 286 
554 286 304 305 
555 286 305 287 
556 287 305 306 
557 287 306 288 
558 288 306 307 
559 288 307 49 
560 49 307 48 
561 16 17 289 
562 289 17 308 
563 289 308 290 
564 290 308 309 
565 290 309 291 
566 291 309 310 
567 291 310 292 
568 292 310 311 
569 292 311 293 
570 293 311 312 
571 293 312 294 
572 294 312 313 
573 294 313 295 
574 295 313 314 
575 295 314 296 
576 296 314 315 
577 296 315 297 
578 297 315 316 
579 297 316 298 
580 298 316 317 
581 298 317 299 
582 299 317 318 
583 299 318 300 
584 300 318 319 
585 300 319 301 
586 301 319 320 
587 301 320 302 
588 302 320 321 
589 302 321 303 
590 303 321 322 
591 303 322 304 
592 304 322 323 
593 304 323 305 
594 305 323 324 
595 305 324 306 
596 306 324 325 
597 306 325 307 
598 307 325 326 
599 307 326 48 
600 48 326 47 
601 17 18 308 
602 308 18 327 
603 308 327 309 
604 309 327 328 
605 309 328 310 
606 310 328 329 
607 310 329 311 
608 311 329 330 
609 311 330 312 
610 312 330 331 
611 312 331 313 
612 313 331 332 
613 313 332 314 
614 314 332 333 
615 314 333 315 
616 315 333 334 
617 315 334 316 
618 316 334 335 
619 316 335 317 
620 317 335 336 
621 317 336 318 
622 318 336 337 
623 318 337 319 
624 319 337 338 
625 319 338 320 
626 320 338 339 
627 320 339 321 
628 321 339 340 
629 321 340 322 
630 322 340 341 
631 322 341 323 
632 323 341 342 
633 323 342 324 
634 324 342 343 
635 324 343 325 
636 325 343 344 
637 325 344 326 
638 326 344 345 
639 326 345 47 
640 47 345 46 
641 18 19 327 
642 327 19 346 
643 327 346 328 
644 328 346 347 
645 328 347 329 
646 329 347 348 
647 329 348 330 
648 330 348 349 
649 330 349 331 
650 331 349 350 
651 331 350 332 
652 332 350 351 
653 332 351 333 
654 333 351 352 
655 333 352 334 
656 334 352 353 
657 334 353 335 
658 335 353 354 
659 335 354 336 
660 336 354 355 
661 336 355 337 
662 337 355 356 
663 337 356 338 
664 338 356 357 
665 338 357 339 
666 339 357 358 
667 339 358 340 
668 340 358 359 
669 340 359 341 
670 341 359 360 
671 341 360 342 
672 342 360 361 
673 342 361 343 
674 343 361 362 
675 343 362 344 
676 344 362 363 
677 344 363 345 
678 345 363 364 
679 345 364 46 
680 46 364 45 
681 19 20 346 
682 346 20 365 
683 346 365 347 
684 347 365 366 
685 347 366 348 
686 348 366 367 
687 348 367 349 
688 349 367 368 
689 349 368 350 
690 350 368 369 
691 350 369 351 
692 351 369 370 
693 351 370 352 
694 352 370 371 
695 352 371 353 
696 353 371 372 
697 353 372 354 
698 354 372 373 
699 354 373 355 
700 355 373 374 
701 355 374 356 
702 356 374 375 
703 356 375 357 
704 357 375 376 
705 357 376 358 
706 358 376 377 
707 358 377 359 
708 359 377 378 
709 359 378 360 
710 360 378 379 
711 360 379 361 
712 361 379 380 
713 361 380 362 
714 362 380 381 
715 362 381 363 
716 363 381 382 
717 363 382 364 
718 364 382 383 
719 364 383 45 
720 45 383 44 
721 20 21 365 
722 365 21 384 
723 365 384 366 
724 366 384 385 
725 366 385 367 
726 367 385 386 
727 367 386 368 
728 368 386 387 
729 368 387 369 
730 369 387 388 
731 369 388 370 
732 370 388 389 
733 370 389 371 
734 371 389 390 
735 371 390 372 
736 372 390 391 
737 372 391 373 
738 373 391 392 
739 373 392 374 
740 374 392 393 
741 374 393 375 
742 375 393 394 
743 375 394 376 
744 376 394 395 
745 376 395 377 
746 377 395 396 
747 377 396 378 
748 378 396 397 
749 378 397 379 
750 379 397 398 
751 379 398 380 
752 380 398 399 
753 380 399 381 
754 381 399 400 
755 381 400 382 
756 382 400 401 
757 382 401 383 
758 383 401 402 
759 383 402 44 
760 44 402 43 
761 21 22 384 
762 384 22 403 
763 384 403 385 
764 385 403 404 
765 385 404 386 
766 386 404 405 
767 386 405 387 
768 387 405 406 
769 387 406 388 
770 388 406 407 
771 388 407 389 
772 389 407 408 
773 389 408 390 
774 390 408 409 
775 390 409 391 
776 391 409 410 
777 391 410 392 
778 392 410 411 
779 392 411 393 
780 393 411 412 
781 393 412 394 
782 394 412 413 
783 394 413 395 
784 395 413 414 
785 395 414 396 
786 396 414 415 
787 396 415 397 
788 397 415 416 
789 397 416 398 
790 398 416 417 
791 398 417 399 
792 399 417 418 
793 399 418 400 
794 400 418 419 
795 400 419 401 
796 401 419 420 
797 401 420 402 
798 402 420 421 
799 402 421 43 
800 43 421 42 
801 22 2 403 
802 403 2 23 
803 403 23 404 
804 404 23 24 
805 404 24 405 
806 405 24 25 
807 405 25 406 
808 406 25 26 
809 406 26 407 
810 407 26 27 
811 407 27 408 
812 408 27 28 
813 408 28 409 
814 409 28 29 
815 409 29 410 
816 410 29 30 
817 410 30 411 
818 411 30 31 
819 411 31 412 
820 412 31 32 
821 412 32 413 
822 413 32 33 
823 413 33 414 
824 414 33 34 
825 414 34 415 
826 415 34 35 
827 415 35 416 
828 416 35 36 
829 416 36 417 
830 417 36 37 
831 417 37 418 
832 418 37 38 
833 418 38 419 
834 419 38 39 
835 419 39 420 
836 420 39 40 
837 420 40 421 
838 421 40 41 
839 421 41 42 
840 42 41 3 
$EndElements
