$MeshFormat
4.1 0 8
$EndMeshFormat
$PhysicalNames
6
1 1 "Γ¹"
1 2 "Γ²"
1 3 "Γ³"
1 4 "Γ⁴"
1 6 "Γ"
2 5 "Ω"
$EndPhysicalNames
$Entities
4 5 1 0
1 0 0 0 0 
2 1 0 0 0 
3 1.5 0.8660254037844387 0 0 
4 0.4999999999999999 0.8660254037844387 0 0 
1 0 0 0 1 0 0 1 1 2 1 -2 
2 1 0 0 1.5 0.8660254037844387 0 1 2 2 2 -3 
3 0.5 0.8660254037844387 0 1.5 0.8660254037844387 0 1 3 2 3 -4 
4 0 0 0 0.4999999999999999 0.8660254037844387 0 1 4 2 4 -1 
5 0 0 0 1.5 0.8660254037844387 0 1 6 0 
1 0 0 0 1.5 0.8660254037844387 0 1 5 4 1 2 3 4 
$EndEntities
$Nodes
10 484 1 484
0 1 0 1
1
0 0 0
0 2 0 1
2
1 0 0
0 3 0 1
3
1.5 0.8660254037844387 0
0 4 0 1
4
0.4999999999999999 0.8660254037844387 0
1 1 0 20
5
6
7
8
9
10
11
12
13
14
15
16
17
18
19
20
21
22
23
24
0.0476190476189523 0 0
0.09523809523791665 0 0
0.1428571428568666 0 0
0.1904761904757752 0 0
0.2380952380946838 0 0
0.2857142857135925 0 0
0.3333333333325011 0 0
0.3809523809514097 0 0
0.4285714285703183 0 0
0.4761904761892269 0 0
0.5238095238082678 0 0
0.5714285714274412 0 0
0.6190476190466143 0 0
0.6666666666657876 0 0
0.7142857142849608 0 0
0.7619047619041339 0 0
0.8095238095233072 0 0
0.8571428571424804 0 0
0.9047619047616536 0 0
0.9523809523808268 0 0
1 2 0 20
25
26
27
28
29
30
31
32
33
34
35
36
37
38
39
40
41
42
43
44
1.023809523809488 0.04123930494205498 0
1.047619047618979 0.08247860988411354 0
1.071428571428467 0.1237179148261674 0
1.095238095237937 0.1649572197681903 0
1.119047619047407 0.2061965247102132 0
1.142857142856883 0.2474358296522465 0
1.166666666666362 0.2886751345942847 0
1.190476190475841 0.3299144395363246 0
1.214285714285303 0.3711537444783332 0
1.238095238094764 0.4123930494203398 0
1.261904761904282 0.4536323543624456 0
1.285714285713857 0.4948716593046517 0
1.30952380952344 0.5361109642468699 0
1.333333333333015 0.5773502691890742 0
1.357142857142589 0.6185895741312785 0
1.380952380952164 0.6598288790734826 0
1.404761904761739 0.7010681840156869 0
1.428571428571314 0.7423074889578911 0
1.452380952380888 0.7835467939000954 0
1.476190476190463 0.8247860988422997 0
1 3 0 20
45
46
47
48
49
50
51
52
53
54
55
56
57
58
59
60
61
62
63
64
1.452380952381217 0.8660254037844387 0
1.404761904762434 0.8660254037844387 0
1.35714285714365 0.8660254037844387 0
1.309523809524867 0.8660254037844387 0
1.261904761906084 0.8660254037844387 0
1.214285714287301 0.8660254037844387 0
1.166666666668517 0.8660254037844387 0
1.119047619049734 0.8660254037844387 0
1.071428571430951 0.8660254037844387 0
1.023809523812168 0.8660254037844387 0
0.9761904761931204 0.8660254037844387 0
0.9285714285738084 0.8660254037844387 0
0.8809523809544964 0.8660254037844387 0
0.8333333333351843 0.8660254037844387 0
0.7857142857158722 0.8660254037844387 0
0.7380952380965602 0.8660254037844387 0
0.6904761904772482 0.8660254037844387 0
0.6428571428579362 0.8660254037844387 0
0.595238095238624 0.8660254037844387 0
0.547619047619312 0.8660254037844387 0
1 4 0 20
65
66
67
68
69
70
71
72
73
74
75
76
77
78
79
80
81
82
83
84
0.4761904761905324 0.82478609884242 0
0.4523809523810237 0.78354679390033 0
0.428571428571513 0.7423074889582367 0
0.4047619047620468 0.7010681840162203 0
0.3809523809525738 0.6598288790741921 0
0.3571428571431197 0.6185895741321966 0
0.3333333333336498 0.577350269190174 0
0.3095238095241759 0.5361109642481443 0
0.2857142857147383 0.4948716593061775 0
0.2619047619053027 0.4536323543642142 0
0.2380952380957913 0.4123930494221194 0
0.2142857142862082 0.3711537444799007 0
0.1904761904766181 0.3299144395376697 0
0.1666666666670362 0.2886751345954529 0
0.1428571428574542 0.2474358296532361 0
0.1190476190478723 0.2061965247110192 0
0.0952380952382903 0.1649572197688024 0
0.07142857142870834 0.1237179148265856 0
0.04761904761912639 0.08247860988436873 0
0.02380952380954443 0.04123930494215189 0
1 5 0 0
2 1 0 400
85
86
87
88
89
90
91
92
93
94
95
96
97
98
99
100
101
102
103
104
105
106
107
108
109
110
111
112
113
114
115
116
117
118
119
120
121
122
123
124
125
126
127
128
129
130
131
132
133
134
135
136
137
138
139
140
141
142
143
144
145
146
147
148
149
150
151
152
153
154
155
156
157
158
159
160
161
162
163
164
165
166
167
168
169
170
171
172
173
174
175
176
177
178
179
180
181
182
183
184
185
186
187
188
189
190
191
192
193
194
195
196
197
198
199
200
201
202
203
204
205
206
207
208
209
210
211
212
213
214
215
216
217
218
219
220
221
222
223
224
225
226
227
228
229
230
231
232
233
234
235
236
237
238
239
240
241
242
243
244
245
246
247
248
249
250
251
252
253
254
255
256
257
258
259
260
261
262
263
264
265
266
267
268
269
270
271
272
273
274
275
276
277
278
279
280
281
282
283
284
285
286
287
288
289
290
291
292
293
294
295
296
297
298
299
300
301
302
303
304
305
306
307
308
309
310
311
312
313
314
315
316
317
318
319
320
321
322
323
324
325
326
327
328
329
330
331
332
333
334
335
336
337
338
339
340
341
342
343
344
345
346
347
348
349
350
351
352
353
354
355
356
357
358
359
360
361
362
363
364
365
366
367
368
369
370
371
372
373
374
375
376
377
378
379
380
381
382
383
384
385
386
387
388
389
390
391
392
393
394
395
396
397
398
399
400
401
402
403
404
405
406
407
408
409
410
411
412
413
414
415
416
417
418
419
420
421
422
423
424
425
426
427
428
429
430
431
432
433
434
435
436
437
438
439
440
441
442
443
444
445
446
447
448
449
450
451
452
453
454
455
456
457
458
459
460
461
462
463
464
465
466
467
468
469
470
471
472
473
474
475
476
477
478
479
480
481
482
483
484
0.0714285714285112 0.04123930494214728 0
0.09523809523810597 0.08247860988435657 0
0.1190476190477005 0.1237179148265656 0
0.1428571428572943 0.1649572197687732 0
0.166666666666888 0.2061965247109809 0
0.1904761904764821 0.247435829653189 0
0.2142857142860762 0.2886751345953973 0
0.2380952380956705 0.3299144395376056 0
0.2619047619052716 0.3711537444798261 0
0.285714285714866 0.4123930494220346 0
0.3095238095243948 0.45363235436413 0
0.3333333333338543 0.4948716593061048 0
0.357142857143316 0.5361109642480838 0
0.3809523809528118 0.5773502691901217 0
0.4047619047623037 0.6185895741321529 0
0.4285714285717807 0.6598288790741583 0
0.4523809523812757 0.7010681840161948 0
0.4761904761907642 0.7423074889582202 0
0.5000000000002949 0.783546793900319 0
0.5238095238098239 0.8247860988424145 0
0.1190476190474894 0.04123930494214266 0
0.1428571428570964 0.08247860988434441 0
0.166666666666703 0.1237179148265457 0
0.190476190476308 0.1649572197687441 0
0.214285714285913 0.2061965247109425 0
0.2380952380955186 0.2474358296531418 0
0.2619047619051245 0.2886751345953416 0
0.2857142857147303 0.3299144395375416 0
0.3095238095243419 0.3711537444797515 0
0.3333333333339469 0.4123930494219499 0
0.3571428571434927 0.4536323543640456 0
0.3809523809529753 0.4948716593060323 0
0.4047619047624604 0.5361109642480231 0
0.4285714285719775 0.5773502691900693 0
0.4523809523814911 0.6185895741321092 0
0.4761904761909904 0.6598288790741244 0
0.5000000000005067 0.7010681840161695 0
0.5238095238100171 0.7423074889582038 0
0.5476190476195674 0.7835467939003077 0
0.5714285714291163 0.8247860988424087 0
0.166666666666454 0.04123930494213804 0
0.1904761904760738 0.08247860988433227 0
0.2142857142856932 0.1237179148265258 0
0.2380952380953101 0.1649572197687149 0
0.261904761904927 0.206196524710904 0
0.2857142857145448 0.2474358296530947 0
0.3095238095241629 0.288675134595286 0
0.3333333333337812 0.3299144395374776 0
0.357142857143404 0.3711537444796769 0
0.3809523809530204 0.4123930494218651 0
0.4047619047625838 0.4536323543639615 0
0.4285714285720903 0.4948716593059596 0
0.4523809523815995 0.5361109642479621 0
0.4761904761911387 0.5773502691900169 0
0.5000000000006746 0.6185895741320653 0
0.5238095238101969 0.6598288790740906 0
0.5476190476197353 0.7010681840161442 0
0.5714285714292681 0.7423074889581873 0
0.5952380952388387 0.7835467939002964 0
0.6190476190484078 0.8247860988424028 0
0.2142857142853791 0.04123930494213343 0
0.2380952380950138 0.0824786098843201 0
0.261904761904648 0.1237179148265059 0
0.2857142857142788 0.1649572197686859 0
0.3095238095239095 0.2061965247108657 0
0.3333333333335414 0.2474358296530476 0
0.3571428571431739 0.2886751345952304 0
0.3809523809528066 0.3299144395374136 0
0.4047619047624423 0.3711537444796021 0
0.4285714285720721 0.4123930494217805 0
0.452380952381655 0.4536323543638773 0
0.4761904761911874 0.4948716593058868 0
0.500000000000723 0.5361109642479017 0
0.5238095238102861 0.5773502691899645 0
0.5476190476198459 0.6185895741320218 0
0.5714285714293932 0.6598288790740569 0
0.5952380952389559 0.7010681840161187 0
0.6190476190485128 0.7423074889581709 0
0.6428571428581058 0.7835467939002851 0
0.6666666666676974 0.8247860988423972 0
0.2619047619043042 0.04123930494212883 0
0.2857142857139538 0.08247860988430797 0
0.3095238095236027 0.123717914826486 0
0.3333333333332474 0.1649572197686567 0
0.3571428571428921 0.2061965247108273 0
0.3809523809525381 0.2474358296530005 0
0.4047619047621849 0.2886751345951748 0
0.4285714285718318 0.3299144395373494 0
0.4523809523814808 0.3711537444795274 0
0.4761904761911241 0.4123930494216957 0
0.5000000000007263 0.4536323543637931 0
0.5238095238102848 0.4948716593058142 0
0.547619047619846 0.536110964247841 0
0.5714285714294334 0.5773502691899122 0
0.5952380952390176 0.618589574131978 0
0.6190476190485898 0.6598288790740232 0
0.6428571428581762 0.7010681840160933 0
0.6666666666677579 0.7423074889581546 0
0.6904761904773729 0.7835467939002743 0
0.7142857142869868 0.8247860988423914 0
0.3095238095232295 0.0412393049421242 0
0.3333333333328937 0.08247860988429581 0
0.3571428571425576 0.1237179148264661 0
0.3809523809522161 0.1649572197686275 0
0.4047619047618746 0.2061965247107889 0
0.4285714285715348 0.2474358296529533 0
0.4523809523811959 0.2886751345951191 0
0.4761904761908571 0.3299144395372854 0
0.5000000000005191 0.3711537444794528 0
0.5238095238101756 0.4123930494216108 0
0.5476190476197975 0.4536323543637089 0
0.5714285714293817 0.4948716593057415 0
0.5952380952389696 0.5361109642477802 0
0.6190476190485807 0.5773502691898597 0
0.642857142858189 0.6185895741319343 0
0.6666666666677863 0.6598288790739893 0
0.6904761904773968 0.701068184016068 0
0.7142857142870027 0.7423074889581381 0
0.7380952380966399 0.783546793900263 0
0.7619047619062762 0.8247860988423857 0
0.3571428571421547 0.04123930494211958 0
0.3809523809518339 0.08247860988428368 0
0.4047619047615124 0.1237179148264462 0
0.4285714285711847 0.1649572197685984 0
0.4523809523808571 0.2061965247107506 0
0.4761904761905316 0.2474358296529062 0
0.5000000000002069 0.2886751345950635 0
0.5238095238098825 0.3299144395372213 0
0.5476190476195577 0.3711537444793782 0
0.5714285714292276 0.4123930494215262 0
0.5952380952388691 0.4536323543636247 0
0.6190476190484793 0.494871659305669 0
0.6428571428580928 0.5361109642477196 0
0.6666666666677281 0.5773502691898073 0
0.6904761904773608 0.6185895741318908 0
0.7142857142869827 0.6598288790739556 0
0.7380952380966173 0.7010681840160424 0
0.7619047619062476 0.7423074889581216 0
0.7857142857159074 0.7835467939002519 0
0.8095238095255659 0.8247860988423801 0
0.4047619047610798 0.04123930494211497 0
0.428571428570774 0.08247860988427153 0
0.4523809523804671 0.1237179148264263 0
0.4761904761901533 0.1649572197685693 0
0.4999999999998396 0.2061965247107121 0
0.5238095238095282 0.2474358296528591 0
0.5476190476192178 0.2886751345950079 0
0.5714285714289077 0.3299144395371574 0
0.5952380952385961 0.3711537444793036 0
0.6190476190482793 0.4123930494214414 0
0.6428571428579404 0.4536323543635404 0
0.6666666666675763 0.4948716593055963 0
0.6904761904772162 0.5361109642476588 0
0.7142857142868753 0.5773502691897547 0
0.7380952380965321 0.6185895741318468 0
0.7619047619061792 0.6598288790739217 0
0.7857142857158381 0.7010681840160171 0
0.8095238095254925 0.7423074889581052 0
0.8333333333351747 0.7835467939002407 0
0.8571428571448553 0.8247860988423743 0
0.452380952380005 0.04123930494211037 0
0.476190476189714 0.08247860988425937 0
0.4999999999994218 0.1237179148264063 0
0.5238095238091219 0.1649572197685401 0
0.547619047618822 0.2061965247106738 0
0.571428571428525 0.2474358296528119 0
0.5952380952382288 0.2886751345949523 0
0.6190476190479333 0.3299144395370933 0
0.6428571428576344 0.371153744479229 0
0.666666666667331 0.4123930494213568 0
0.6904761904770116 0.4536323543634562 0
0.7142857142866733 0.4948716593055235 0
0.7380952380963395 0.536110964247598 0
0.7619047619060229 0.5773502691897027 0
0.7857142857157038 0.6185895741318033 0
0.8095238095253758 0.6598288790738881 0
0.8333333333350585 0.7010681840159918 0
0.8571428571447375 0.7423074889580887 0
0.8809523809544417 0.7835467939002295 0
0.9047619047641449 0.8247860988423685 0
0.49999999999893 0.04123930494210575 0
0.5238095238086539 0.08247860988424721 0
0.5476190476183765 0.1237179148263864 0
0.5714285714280906 0.1649572197685109 0
0.5952380952378045 0.2061965247106354 0
0.6190476190475215 0.2474358296527649 0
0.6428571428572398 0.2886751345948966 0
0.6666666666669584 0.3299144395370291 0
0.6904761904766727 0.3711537444791543 0
0.7142857142863831 0.412393049421272 0
0.7380952380960828 0.453632354363372 0
0.7619047619057707 0.4948716593054509 0
0.7857142857154629 0.5361109642475377 0
0.80952380952517 0.5773502691896504 0
0.833333333334875 0.6185895741317593 0
0.8571428571445723 0.6598288790738543 0
0.880952380954279 0.7010681840159662 0
0.9047619047639823 0.7423074889580721 0
0.9285714285737087 0.7835467939002182 0
0.9523809523834343 0.8247860988423628 0
0.5476190476179684 0.04123930494210112 0
0.5714285714276883 0.08247860988423505 0
0.5952380952374068 0.1237179148263665 0
0.6190476190471158 0.1649572197684818 0
0.642857142856825 0.206196524710597 0
0.6666666666665373 0.2474358296527177 0
0.6904761904762506 0.288675134594841 0
0.714285714285965 0.3299144395369651 0
0.7380952380956736 0.3711537444790796 0
0.7619047619053783 0.4123930494211872 0
0.7857142857150788 0.4536323543632879 0
0.8095238095247733 0.4948716593053784 0
0.8333333333344728 0.5361109642474768 0
0.857142857144185 0.5773502691895979 0
0.8809523809538954 0.6185895741317158 0
0.9047619047635986 0.6598288790738206 0
0.9285714285733108 0.7010681840159408 0
0.9523809523830195 0.7423074889580557 0
0.9761904761927493 0.7835467939002072 0
1.000000000002479 0.824786098842357 0
0.5952380952371209 0.04123930494209652 0
0.6190476190468178 0.0824786098842229 0
0.6428571428565129 0.1237179148263466 0
0.666666666666198 0.1649572197684526 0
0.6904761904758833 0.2061965247105587 0
0.7142857142855721 0.2474358296526706 0
0.7380952380952617 0.2886751345947854 0
0.7619047619049525 0.3299144395369011 0
0.7857142857146365 0.371153744479005 0
0.8095238095243168 0.4123930494211025 0
0.8333333333339988 0.4536323543632036 0
0.8571428571436819 0.4948716593053057 0
0.8809523809533694 0.5361109642474162 0
0.9047619047630682 0.5773502691895455 0
0.9285714285727649 0.618589574131672 0
0.9523809523824551 0.6598288790737868 0
0.9761904761921532 0.7010681840159155 0
1.000000000001849 0.7423074889580392 0
1.023809523811563 0.7835467939001961 0
1.047619047621277 0.8247860988423512 0
0.6428571428562728 0.0412393049420919 0
0.6666666666659465 0.08247860988421074 0
0.6904761904756189 0.1237179148263267 0
0.7142857142852803 0.1649572197684235 0
0.7380952380949412 0.2061965247105202 0
0.7619047619046062 0.2474358296526235 0
0.7857142857142728 0.2886751345947297 0
0.8095238095239401 0.329914439536837 0
0.8333333333335994 0.3711537444789303 0
0.8571428571432553 0.4123930494210177 0
0.8809523809529193 0.4536323543631193 0
0.9047619047625902 0.4948716593052329 0
0.928571428572266 0.5361109642473555 0
0.952380952381951 0.5773502691894934 0
0.9761904761916342 0.6185895741316283 0
1.000000000001312 0.6598288790737531 0
1.023809523810996 0.7010681840158901 0
1.047619047620678 0.7423074889580228 0
1.071428571430377 0.7835467939001849 0
1.095238095240075 0.8247860988423455 0
0.6904761904754246 0.04123930494208728 0
0.7142857142850758 0.0824786098841986 0
0.7380952380947249 0.1237179148263068 0
0.7619047619043623 0.1649572197683943 0
0.7857142857139991 0.2061965247104818 0
0.8095238095236409 0.2474358296525764 0
0.8333333333332844 0.2886751345946742 0
0.8571428571429278 0.329914439536773 0
0.8809523809525623 0.3711537444788557 0
0.9047619047621939 0.4123930494209329 0
0.9285714285718397 0.4536323543630352 0
0.9523809523814987 0.4948716593051602 0
0.9761904761911628 0.5361109642472947 0
1.000000000000834 0.5773502691894409 0
1.023809523810504 0.6185895741315846 0
1.047619047620168 0.6598288790737191 0
1.071428571429839 0.7010681840158647 0
1.095238095239508 0.7423074889580064 0
1.119047619049191 0.7835467939001736 0
1.142857142858873 0.8247860988423399 0
0.7380952380945764 0.04123930494208267 0
0.761904761904205 0.08247860988418645 0
0.7857142857138307 0.1237179148262869 0
0.809523809523444 0.1649572197683652 0
0.8333333333330578 0.2061965247104435 0
0.8571428571426757 0.2474358296525293 0
0.8809523809522951 0.2886751345946184 0
0.9047619047619154 0.329914439536709 0
0.9285714285715254 0.3711537444787812 0
0.9523809523811325 0.4123930494208483 0
0.97619047619076 0.4536323543629509 0
1.000000000000407 0.4948716593050877 0
1.02380952381006 0.5361109642472339 0
1.047619047619717 0.5773502691893885 0
1.071428571429373 0.6185895741315408 0
1.095238095239025 0.6598288790736854 0
1.119047619048682 0.7010681840158391 0
1.142857142858337 0.7423074889579899 0
1.166666666668005 0.7835467939001625 0
1.190476190477672 0.8247860988423342 0
0.7857142857137286 0.04123930494207806 0
0.8095238095233338 0.0824786098841743 0
0.8333333333329369 0.123717914826267 0
0.8571428571425264 0.164957219768336 0
0.8809523809521158 0.2061965247104051 0
0.9047619047617101 0.2474358296524821 0
0.9285714285713061 0.2886751345945629 0
0.952380952380903 0.3299144395366449 0
0.9761904761904885 0.3711537444787063 0
1.000000000000071 0.4123930494207635 0
1.02380952380968 0.4536323543628666 0
1.047619047619315 0.4948716593050151 0
1.071428571428956 0.5361109642471735 0
1.0952380952386 0.5773502691893361 0
1.119047619048243 0.6185895741314971 0
1.142857142857882 0.6598288790736516 0
1.166666666667525 0.7010681840158137 0
1.190476190477166 0.7423074889579732 0
1.214285714286819 0.7835467939001513 0
1.23809523809647 0.8247860988423285 0
0.8333333333328806 0.04123930494207344 0
0.8571428571424631 0.08247860988416218 0
0.8809523809520429 0.1237179148262471 0
0.9047619047616084 0.1649572197683069 0
0.9285714285711739 0.2061965247103667 0
0.9523809523807447 0.247435829652435 0
0.9761904761903173 0.2886751345945072 0
0.9999999999998908 0.3299144395365807 0
1.023809523809452 0.3711537444786317 0
1.04761904761901 0.4123930494206787 0
1.0714285714286 0.4536323543627825 0
1.095238095238224 0.4948716593049424 0
1.119047619047854 0.5361109642471126 0
1.142857142857483 0.5773502691892837 0
1.166666666667111 0.6185895741314533 0
1.190476190476738 0.6598288790736176 0
1.214285714286368 0.7010681840157885 0
1.238095238095996 0.7423074889579568 0
1.261904761905633 0.78354679390014 0
1.285714285715269 0.8247860988423226 0
0.8809523809520325 0.04123930494206882 0
0.904761904761592 0.08247860988415001 0
0.9285714285711489 0.1237179148262271 0
0.9523809523806903 0.1649572197682778 0
0.976190476190232 0.2061965247103283 0
0.9999999999997795 0.2474358296523879 0
1.023809523809329 0.2886751345944517 0
1.047619047618878 0.3299144395365168 0
1.071428571428414 0.3711537444785571 0
1.095238095237948 0.4123930494205941 0
1.119047619047521 0.4536323543626983 0
1.142857142857132 0.4948716593048696 0
1.16666666666675 0.536110964247052 0
1.190476190476366 0.5773502691892313 0
1.214285714285981 0.6185895741314096 0
1.238095238095594 0.6598288790735839 0
1.26190476190521 0.7010681840157632 0
1.285714285714825 0.7423074889579404 0
1.309523809524447 0.783546793900129 0
1.333333333334068 0.8247860988423168 0
0.9285714285711845 0.04123930494206421 0
0.9523809523807208 0.08247860988413785 0
0.9761904761902549 0.1237179148262072 0
0.9999999999997724 0.1649572197682486 0
1.023809523809291 0.20619652471029 0
1.047619047618814 0.2474358296523408 0
1.071428571428339 0.288675134594396 0
1.095238095237866 0.3299144395364526 0
1.119047619047377 0.3711537444784825 0
1.142857142856887 0.4123930494205093 0
1.166666666666441 0.4536323543626141 0
1.190476190476041 0.494871659304797 0
1.214285714285647 0.5361109642469915 0
1.238095238095249 0.5773502691891789 0
1.26190476190485 0.6185895741313658 0
1.285714285714451 0.6598288790735501 0
1.309523809524054 0.7010681840157379 0
1.333333333333655 0.742307488957924 0
1.35714285714326 0.7835467939001178 0
1.380952380952866 0.824786098842311 0
0.9761904761903363 0.04123930494205961 0
0.9999999999998499 0.08247860988412571 0
1.023809523809361 0.1237179148261873 0
1.047619047618854 0.1649572197682195 0
1.071428571428349 0.2061965247102516 0
1.095238095237848 0.2474358296522936 0
1.11904761904735 0.2886751345943403 0
1.142857142856854 0.3299144395363887 0
1.16666666666634 0.3711537444784079 0
1.190476190475825 0.4123930494204246 0
1.214285714285361 0.4536323543625298 0
1.238095238094949 0.4948716593047244 0
1.261904761904544 0.5361109642469306 0
1.285714285714132 0.5773502691891265 0
1.30952380952372 0.6185895741313224 0
1.333333333333307 0.6598288790735163 0
1.357142857142896 0.7010681840157124 0
1.380952380952484 0.7423074889579075 0
1.404761904762074 0.7835467939001065 0
1.428571428571665 0.8247860988423055 0
$EndNodes
$Elements
6 3612 1 9874
1 1 1 21
1 1 5 
2 5 6 
3 6 7 
4 7 8 
5 8 9 
6 9 10 
7 10 11 
8 11 12 
9 12 13 
10 13 14 
11 14 15 
12 15 16 
13 16 17 
14 17 18 
15 18 19 
16 19 20 
17 20 21 
18 21 22 
19 22 23 
20 23 24 
21 24 2 
1 2 1 21
22 2 25 
23 25 26 
24 26 27 
25 27 28 
26 28 29 
27 29 30 
28 30 31 
29 31 32 
30 32 33 
31 33 34 
32 34 35 
33 35 36 
34 36 37 
35 37 38 
36 38 39 
37 39 40 
38 40 41 
39 41 42 
40 42 43 
41 43 44 
42 44 3 
1 3 1 21
43 3 45 
44 45 46 
45 46 47 
46 47 48 
47 48 49 
48 49 50 
49 50 51 
50 51 52 
51 52 53 
52 53 54 
53 54 55 
54 55 56 
55 56 57 
56 57 58 
57 58 59 
58 59 60 
59 60 61 
60 61 62 
61 62 63 
62 63 64 
63 64 4 
1 4 1 21
64 4 65 
65 65 66 
66 66 67 
67 67 68 
68 68 69 
69 69 70 
70 70 71 
71 71 72 
72 72 73 
73 73 74 
74 74 75 
75 75 76 
76 76 77 
77 77 78 
78 78 79 
79 79 80 
80 80 81 
81 81 82 
82 82 83 
83 83 84 
84 84 1 
1 5 1 2646
7229 1 5 
7230 5 84 
7231 84 1 
7232 84 5 
7233 5 85 
7234 85 84 
7235 84 85 
7236 85 86 
7237 86 84 
7238 86 83 
7239 83 84 
7240 84 86 
7241 83 86 
7242 86 82 
7243 82 83 
7244 82 86 
7245 86 87 
7246 87 82 
7247 82 87 
7248 87 88 
7249 88 82 
7250 88 81 
7251 81 82 
7252 82 88 
7253 81 88 
7254 88 80 
7255 80 81 
7256 80 88 
7257 88 89 
7258 89 80 
7259 80 89 
7260 89 90 
7261 90 80 
7262 90 79 
7263 79 80 
7264 80 90 
7265 79 90 
7266 90 78 
7267 78 79 
7268 78 90 
7269 90 91 
7270 91 78 
7271 78 91 
7272 91 92 
7273 92 78 
7274 92 77 
7275 77 78 
7276 78 92 
7277 77 92 
7278 92 76 
7279 76 77 
7280 76 92 
7281 92 93 
7282 93 76 
7283 76 93 
7284 93 94 
7285 94 76 
7286 94 75 
7287 75 76 
7288 76 94 
7289 75 94 
7290 94 74 
7291 74 75 
7292 74 94 
7293 94 95 
7294 95 74 
7295 74 95 
7296 95 96 
7297 96 74 
7298 96 73 
7299 73 74 
7300 74 96 
7301 73 96 
7302 96 72 
7303 72 73 
7304 72 96 
7305 96 97 
7306 97 72 
7307 72 97 
7308 97 98 
7309 98 72 
7310 98 71 
7311 71 72 
7312 72 98 
7313 71 98 
7314 98 70 
7315 70 71 
7316 70 98 
7317 98 99 
7318 99 70 
7319 70 99 
7320 99 100 
7321 100 70 
7322 100 69 
7323 69 70 
7324 70 100 
7325 69 100 
7326 100 68 
7327 68 69 
7328 68 100 
7329 100 101 
7330 101 68 
7331 68 101 
7332 101 102 
7333 102 68 
7334 102 67 
7335 67 68 
7336 68 102 
7337 67 102 
7338 102 66 
7339 66 67 
7340 66 102 
7341 102 103 
7342 103 66 
7343 66 103 
7344 103 104 
7345 104 66 
7346 104 65 
7347 65 66 
7348 66 104 
7349 65 104 
7350 104 4 
7351 4 65 
7352 4 104 
7353 104 64 
7354 64 4 
7355 5 6 
7356 6 105 
7357 105 5 
7358 105 85 
7359 85 5 
7360 5 105 
7361 85 105 
7362 105 86 
7363 86 85 
7364 86 105 
7365 105 106 
7366 106 86 
7367 86 106 
7368 106 107 
7369 107 86 
7370 107 87 
7371 87 86 
7372 86 107 
7373 87 107 
7374 107 88 
7375 88 87 
7376 88 107 
7377 107 108 
7378 108 88 
7379 88 108 
7380 108 109 
7381 109 88 
7382 109 89 
7383 89 88 
7384 88 109 
7385 89 109 
7386 109 90 
7387 90 89 
7388 90 109 
7389 109 110 
7390 110 90 
7391 90 110 
7392 110 111 
7393 111 90 
7394 111 91 
7395 91 90 
7396 90 111 
7397 91 111 
7398 111 92 
7399 92 91 
7400 92 111 
7401 111 112 
7402 112 92 
7403 92 112 
7404 112 113 
7405 113 92 
7406 113 93 
7407 93 92 
7408 92 113 
7409 93 113 
7410 113 94 
7411 94 93 
7412 94 113 
7413 113 114 
7414 114 94 
7415 94 114 
7416 114 115 
7417 115 94 
7418 115 95 
7419 95 94 
7420 94 115 
7421 95 115 
7422 115 96 
7423 96 95 
7424 96 115 
7425 115 116 
7426 116 96 
7427 96 116 
7428 116 117 
7429 117 96 
7430 117 97 
7431 97 96 
7432 96 117 
7433 97 117 
7434 117 98 
7435 98 97 
7436 98 117 
7437 117 118 
7438 118 98 
7439 98 118 
7440 118 119 
7441 119 98 
7442 119 99 
7443 99 98 
7444 98 119 
7445 99 119 
7446 119 100 
7447 100 99 
7448 100 119 
7449 119 120 
7450 120 100 
7451 100 120 
7452 120 121 
7453 121 100 
7454 121 101 
7455 101 100 
7456 100 121 
7457 101 121 
7458 121 102 
7459 102 101 
7460 102 121 
7461 121 122 
7462 122 102 
7463 102 122 
7464 122 123 
7465 123 102 
7466 123 103 
7467 103 102 
7468 102 123 
7469 103 123 
7470 123 104 
7471 104 103 
7472 104 123 
7473 123 124 
7474 124 104 
7475 104 124 
7476 124 63 
7477 63 104 
7478 63 64 
7479 64 104 
7480 104 63 
7481 6 7 
7482 7 105 
7483 105 6 
7484 105 7 
7485 7 125 
7486 125 105 
7487 105 125 
7488 125 126 
7489 126 105 
7490 126 106 
7491 106 105 
7492 105 126 
7493 106 126 
7494 126 107 
7495 107 106 
7496 107 126 
7497 126 127 
7498 127 107 
7499 107 127 
7500 127 128 
7501 128 107 
7502 128 108 
7503 108 107 
7504 107 128 
7505 108 128 
7506 128 109 
7507 109 108 
7508 109 128 
7509 128 129 
7510 129 109 
7511 109 129 
7512 129 130 
7513 130 109 
7514 130 110 
7515 110 109 
7516 109 130 
7517 110 130 
7518 130 111 
7519 111 110 
7520 111 130 
7521 130 131 
7522 131 111 
7523 111 131 
7524 131 132 
7525 132 111 
7526 132 112 
7527 112 111 
7528 111 132 
7529 112 132 
7530 132 113 
7531 113 112 
7532 113 132 
7533 132 133 
7534 133 113 
7535 113 133 
7536 133 134 
7537 134 113 
7538 134 114 
7539 114 113 
7540 113 134 
7541 114 134 
7542 134 115 
7543 115 114 
7544 115 134 
7545 134 135 
7546 135 115 
7547 115 135 
7548 135 136 
7549 136 115 
7550 136 116 
7551 116 115 
7552 115 136 
7553 116 136 
7554 136 117 
7555 117 116 
7556 117 136 
7557 136 137 
7558 137 117 
7559 117 137 
7560 137 138 
7561 138 117 
7562 138 118 
7563 118 117 
7564 117 138 
7565 118 138 
7566 138 119 
7567 119 118 
7568 119 138 
7569 138 139 
7570 139 119 
7571 119 139 
7572 139 140 
7573 140 119 
7574 140 120 
7575 120 119 
7576 119 140 
7577 120 140 
7578 140 121 
7579 121 120 
7580 121 140 
7581 140 141 
7582 141 121 
7583 121 141 
7584 141 142 
7585 142 121 
7586 142 122 
7587 122 121 
7588 121 142 
7589 122 142 
7590 142 123 
7591 123 122 
7592 123 142 
7593 142 143 
7594 143 123 
7595 123 143 
7596 143 144 
7597 144 123 
7598 144 124 
7599 124 123 
7600 123 144 
7601 124 144 
7602 144 63 
7603 63 124 
7604 63 144 
7605 144 62 
7606 62 63 
7607 7 8 
7608 8 145 
7609 145 7 
7610 145 125 
7611 125 7 
7612 7 145 
7613 125 145 
7614 145 126 
7615 126 125 
7616 126 145 
7617 145 146 
7618 146 126 
7619 126 146 
7620 146 147 
7621 147 126 
7622 147 127 
7623 127 126 
7624 126 147 
7625 127 147 
7626 147 128 
7627 128 127 
7628 128 147 
7629 147 148 
7630 148 128 
7631 128 148 
7632 148 149 
7633 149 128 
7634 149 129 
7635 129 128 
7636 128 149 
7637 129 149 
7638 149 130 
7639 130 129 
7640 130 149 
7641 149 150 
7642 150 130 
7643 130 150 
7644 150 151 
7645 151 130 
7646 151 131 
7647 131 130 
7648 130 151 
7649 131 151 
7650 151 132 
7651 132 131 
7652 132 151 
7653 151 152 
7654 152 132 
7655 132 152 
7656 152 153 
7657 153 132 
7658 153 133 
7659 133 132 
7660 132 153 
7661 133 153 
7662 153 134 
7663 134 133 
7664 134 153 
7665 153 154 
7666 154 134 
7667 134 154 
7668 154 155 
7669 155 134 
7670 155 135 
7671 135 134 
7672 134 155 
7673 135 155 
7674 155 136 
7675 136 135 
7676 136 155 
7677 155 156 
7678 156 136 
7679 136 156 
7680 156 157 
7681 157 136 
7682 157 137 
7683 137 136 
7684 136 157 
7685 137 157 
7686 157 138 
7687 138 137 
7688 138 157 
7689 157 158 
7690 158 138 
7691 138 158 
7692 158 159 
7693 159 138 
7694 159 139 
7695 139 138 
7696 138 159 
7697 139 159 
7698 159 140 
7699 140 139 
7700 140 159 
7701 159 160 
7702 160 140 
7703 140 160 
7704 160 161 
7705 161 140 
7706 161 141 
7707 141 140 
7708 140 161 
7709 141 161 
7710 161 142 
7711 142 141 
7712 142 161 
7713 161 162 
7714 162 142 
7715 142 162 
7716 162 163 
7717 163 142 
7718 163 143 
7719 143 142 
7720 142 163 
7721 143 163 
7722 163 144 
7723 144 143 
7724 144 163 
7725 163 164 
7726 164 144 
7727 144 164 
7728 164 61 
7729 61 144 
7730 61 62 
7731 62 144 
7732 144 61 
7733 8 9 
7734 9 145 
7735 145 8 
7736 145 9 
7737 9 165 
7738 165 145 
7739 145 165 
7740 165 166 
7741 166 145 
7742 166 146 
7743 146 145 
7744 145 166 
7745 146 166 
7746 166 147 
7747 147 146 
7748 147 166 
7749 166 167 
7750 167 147 
7751 147 167 
7752 167 168 
7753 168 147 
7754 168 148 
7755 148 147 
7756 147 168 
7757 148 168 
7758 168 149 
7759 149 148 
7760 149 168 
7761 168 169 
7762 169 149 
7763 149 169 
7764 169 170 
7765 170 149 
7766 170 150 
7767 150 149 
7768 149 170 
7769 150 170 
7770 170 151 
7771 151 150 
7772 151 170 
7773 170 171 
7774 171 151 
7775 151 171 
7776 171 172 
7777 172 151 
7778 172 152 
7779 152 151 
7780 151 172 
7781 152 172 
7782 172 153 
7783 153 152 
7784 153 172 
7785 172 173 
7786 173 153 
7787 153 173 
7788 173 174 
7789 174 153 
7790 174 154 
7791 154 153 
7792 153 174 
7793 154 174 
7794 174 155 
7795 155 154 
7796 155 174 
7797 174 175 
7798 175 155 
7799 155 175 
7800 175 176 
7801 176 155 
7802 176 156 
7803 156 155 
7804 155 176 
7805 156 176 
7806 176 157 
7807 157 156 
7808 157 176 
7809 176 177 
7810 177 157 
7811 157 177 
7812 177 178 
7813 178 157 
7814 178 158 
7815 158 157 
7816 157 178 
7817 158 178 
7818 178 159 
7819 159 158 
7820 159 178 
7821 178 179 
7822 179 159 
7823 159 179 
7824 179 180 
7825 180 159 
7826 180 160 
7827 160 159 
7828 159 180 
7829 160 180 
7830 180 161 
7831 161 160 
7832 161 180 
7833 180 181 
7834 181 161 
7835 161 181 
7836 181 182 
7837 182 161 
7838 182 162 
7839 162 161 
7840 161 182 
7841 162 182 
7842 182 163 
7843 163 162 
7844 163 182 
7845 182 183 
7846 183 163 
7847 163 183 
7848 183 184 
7849 184 163 
7850 184 164 
7851 164 163 
7852 163 184 
7853 164 184 
7854 184 61 
7855 61 164 
7856 61 184 
7857 184 60 
7858 60 61 
7859 9 10 
7860 10 185 
7861 185 9 
7862 185 165 
7863 165 9 
7864 9 185 
7865 165 185 
7866 185 166 
7867 166 165 
7868 166 185 
7869 185 186 
7870 186 166 
7871 166 186 
7872 186 187 
7873 187 166 
7874 187 167 
7875 167 166 
7876 166 187 
7877 167 187 
7878 187 168 
7879 168 167 
7880 168 187 
7881 187 188 
7882 188 168 
7883 168 188 
7884 188 189 
7885 189 168 
7886 189 169 
7887 169 168 
7888 168 189 
7889 169 189 
7890 189 170 
7891 170 169 
7892 170 189 
7893 189 190 
7894 190 170 
7895 170 190 
7896 190 191 
7897 191 170 
7898 191 171 
7899 171 170 
7900 170 191 
7901 171 191 
7902 191 172 
7903 172 171 
7904 172 191 
7905 191 192 
7906 192 172 
7907 172 192 
7908 192 193 
7909 193 172 
7910 193 173 
7911 173 172 
7912 172 193 
7913 173 193 
7914 193 174 
7915 174 173 
7916 174 193 
7917 193 194 
7918 194 174 
7919 174 194 
7920 194 195 
7921 195 174 
7922 195 175 
7923 175 174 
7924 174 195 
7925 175 195 
7926 195 176 
7927 176 175 
7928 176 195 
7929 195 196 
7930 196 176 
7931 176 196 
7932 196 197 
7933 197 176 
7934 197 177 
7935 177 176 
7936 176 197 
7937 177 197 
7938 197 178 
7939 178 177 
7940 178 197 
7941 197 198 
7942 198 178 
7943 178 198 
7944 198 199 
7945 199 178 
7946 199 179 
7947 179 178 
7948 178 199 
7949 179 199 
7950 199 180 
7951 180 179 
7952 180 199 
7953 199 200 
7954 200 180 
7955 180 200 
7956 200 201 
7957 201 180 
7958 201 181 
7959 181 180 
7960 180 201 
7961 181 201 
7962 201 182 
7963 182 181 
7964 182 201 
7965 201 202 
7966 202 182 
7967 182 202 
7968 202 203 
7969 203 182 
7970 203 183 
7971 183 182 
7972 182 203 
7973 183 203 
7974 203 184 
7975 184 183 
7976 184 203 
7977 203 204 
7978 204 184 
7979 184 204 
7980 204 59 
7981 59 184 
7982 59 60 
7983 60 184 
7984 184 59 
7985 10 11 
7986 11 185 
7987 185 10 
7988 185 11 
7989 11 205 
7990 205 185 
7991 185 205 
7992 205 206 
7993 206 185 
7994 206 186 
7995 186 185 
7996 185 206 
7997 186 206 
7998 206 187 
7999 187 186 
8000 187 206 
8001 206 207 
8002 207 187 
8003 187 207 
8004 207 208 
8005 208 187 
8006 208 188 
8007 188 187 
8008 187 208 
8009 188 208 
8010 208 189 
8011 189 188 
8012 189 208 
8013 208 209 
8014 209 189 
8015 189 209 
8016 209 210 
8017 210 189 
8018 210 190 
8019 190 189 
8020 189 210 
8021 190 210 
8022 210 191 
8023 191 190 
8024 191 210 
8025 210 211 
8026 211 191 
8027 191 211 
8028 211 212 
8029 212 191 
8030 212 192 
8031 192 191 
8032 191 212 
8033 192 212 
8034 212 193 
8035 193 192 
8036 193 212 
8037 212 213 
8038 213 193 
8039 193 213 
8040 213 214 
8041 214 193 
8042 214 194 
8043 194 193 
8044 193 214 
8045 194 214 
8046 214 195 
8047 195 194 
8048 195 214 
8049 214 215 
8050 215 195 
8051 195 215 
8052 215 216 
8053 216 195 
8054 216 196 
8055 196 195 
8056 195 216 
8057 196 216 
8058 216 197 
8059 197 196 
8060 197 216 
8061 216 217 
8062 217 197 
8063 197 217 
8064 217 218 
8065 218 197 
8066 218 198 
8067 198 197 
8068 197 218 
8069 198 218 
8070 218 199 
8071 199 198 
8072 199 218 
8073 218 219 
8074 219 199 
8075 199 219 
8076 219 220 
8077 220 199 
8078 220 200 
8079 200 199 
8080 199 220 
8081 200 220 
8082 220 201 
8083 201 200 
8084 201 220 
8085 220 221 
8086 221 201 
8087 201 221 
8088 221 222 
8089 222 201 
8090 222 202 
8091 202 201 
8092 201 222 
8093 202 222 
8094 222 203 
8095 203 202 
8096 203 222 
8097 222 223 
8098 223 203 
8099 203 223 
8100 223 224 
8101 224 203 
8102 224 204 
8103 204 203 
8104 203 224 
8105 204 224 
8106 224 59 
8107 59 204 
8108 59 224 
8109 224 58 
8110 58 59 
8111 11 12 
8112 12 225 
8113 225 11 
8114 225 205 
8115 205 11 
8116 11 225 
8117 205 225 
8118 225 206 
8119 206 205 
8120 206 225 
8121 225 226 
8122 226 206 
8123 206 226 
8124 226 227 
8125 227 206 
8126 227 207 
8127 207 206 
8128 206 227 
8129 207 227 
8130 227 208 
8131 208 207 
8132 208 227 
8133 227 228 
8134 228 208 
8135 208 228 
8136 228 229 
8137 229 208 
8138 229 209 
8139 209 208 
8140 208 229 
8141 209 229 
8142 229 210 
8143 210 209 
8144 210 229 
8145 229 230 
8146 230 210 
8147 210 230 
8148 230 231 
8149 231 210 
8150 231 211 
8151 211 210 
8152 210 231 
8153 211 231 
8154 231 212 
8155 212 211 
8156 212 231 
8157 231 232 
8158 232 212 
8159 212 232 
8160 232 233 
8161 233 212 
8162 233 213 
8163 213 212 
8164 212 233 
8165 213 233 
8166 233 214 
8167 214 213 
8168 214 233 
8169 233 234 
8170 234 214 
8171 214 234 
8172 234 235 
8173 235 214 
8174 235 215 
8175 215 214 
8176 214 235 
8177 215 235 
8178 235 216 
8179 216 215 
8180 216 235 
8181 235 236 
8182 236 216 
8183 216 236 
8184 236 237 
8185 237 216 
8186 237 217 
8187 217 216 
8188 216 237 
8189 217 237 
8190 237 218 
8191 218 217 
8192 218 237 
8193 237 238 
8194 238 218 
8195 218 238 
8196 238 239 
8197 239 218 
8198 239 219 
8199 219 218 
8200 218 239 
8201 219 239 
8202 239 220 
8203 220 219 
8204 220 239 
8205 239 240 
8206 240 220 
8207 220 240 
8208 240 241 
8209 241 220 
8210 241 221 
8211 221 220 
8212 220 241 
8213 221 241 
8214 241 222 
8215 222 221 
8216 222 241 
8217 241 242 
8218 242 222 
8219 222 242 
8220 242 243 
8221 243 222 
8222 243 223 
8223 223 222 
8224 222 243 
8225 223 243 
8226 243 224 
8227 224 223 
8228 224 243 
8229 243 244 
8230 244 224 
8231 224 244 
8232 244 57 
8233 57 224 
8234 57 58 
8235 58 224 
8236 224 57 
8237 12 13 
8238 13 225 
8239 225 12 
8240 225 13 
8241 13 245 
8242 245 225 
8243 225 245 
8244 245 246 
8245 246 225 
8246 246 226 
8247 226 225 
8248 225 246 
8249 226 246 
8250 246 227 
8251 227 226 
8252 227 246 
8253 246 247 
8254 247 227 
8255 227 247 
8256 247 248 
8257 248 227 
8258 248 228 
8259 228 227 
8260 227 248 
8261 228 248 
8262 248 229 
8263 229 228 
8264 229 248 
8265 248 249 
8266 249 229 
8267 229 249 
8268 249 250 
8269 250 229 
8270 250 230 
8271 230 229 
8272 229 250 
8273 230 250 
8274 250 231 
8275 231 230 
8276 231 250 
8277 250 251 
8278 251 231 
8279 231 251 
8280 251 252 
8281 252 231 
8282 252 232 
8283 232 231 
8284 231 252 
8285 232 252 
8286 252 233 
8287 233 232 
8288 233 252 
8289 252 253 
8290 253 233 
8291 233 253 
8292 253 254 
8293 254 233 
8294 254 234 
8295 234 233 
8296 233 254 
8297 234 254 
8298 254 235 
8299 235 234 
8300 235 254 
8301 254 255 
8302 255 235 
8303 235 255 
8304 255 256 
8305 256 235 
8306 256 236 
8307 236 235 
8308 235 256 
8309 236 256 
8310 256 237 
8311 237 236 
8312 237 256 
8313 256 257 
8314 257 237 
8315 237 257 
8316 257 258 
8317 258 237 
8318 258 238 
8319 238 237 
8320 237 258 
8321 238 258 
8322 258 239 
8323 239 238 
8324 239 258 
8325 258 259 
8326 259 239 
8327 239 259 
8328 259 260 
8329 260 239 
8330 260 240 
8331 240 239 
8332 239 260 
8333 240 260 
8334 260 241 
8335 241 240 
8336 241 260 
8337 260 261 
8338 261 241 
8339 241 261 
8340 261 262 
8341 262 241 
8342 262 242 
8343 242 241 
8344 241 262 
8345 242 262 
8346 262 243 
8347 243 242 
8348 243 262 
8349 262 263 
8350 263 243 
8351 243 263 
8352 263 264 
8353 264 243 
8354 264 244 
8355 244 243 
8356 243 264 
8357 244 264 
8358 264 57 
8359 57 244 
8360 57 264 
8361 264 56 
8362 56 57 
8363 13 14 
8364 14 265 
8365 265 13 
8366 265 245 
8367 245 13 
8368 13 265 
8369 245 265 
8370 265 246 
8371 246 245 
8372 246 265 
8373 265 266 
8374 266 246 
8375 246 266 
8376 266 267 
8377 267 246 
8378 267 247 
8379 247 246 
8380 246 267 
8381 247 267 
8382 267 248 
8383 248 247 
8384 248 267 
8385 267 268 
8386 268 248 
8387 248 268 
8388 268 269 
8389 269 248 
8390 269 249 
8391 249 248 
8392 248 269 
8393 249 269 
8394 269 250 
8395 250 249 
8396 250 269 
8397 269 270 
8398 270 250 
8399 250 270 
8400 270 271 
8401 271 250 
8402 271 251 
8403 251 250 
8404 250 271 
8405 251 271 
8406 271 252 
8407 252 251 
8408 252 271 
8409 271 272 
8410 272 252 
8411 252 272 
8412 272 273 
8413 273 252 
8414 273 253 
8415 253 252 
8416 252 273 
8417 253 273 
8418 273 254 
8419 254 253 
8420 254 273 
8421 273 274 
8422 274 254 
8423 254 274 
8424 274 275 
8425 275 254 
8426 275 255 
8427 255 254 
8428 254 275 
8429 255 275 
8430 275 256 
8431 256 255 
8432 256 275 
8433 275 276 
8434 276 256 
8435 256 276 
8436 276 277 
8437 277 256 
8438 277 257 
8439 257 256 
8440 256 277 
8441 257 277 
8442 277 258 
8443 258 257 
8444 258 277 
8445 277 278 
8446 278 258 
8447 258 278 
8448 278 279 
8449 279 258 
8450 279 259 
8451 259 258 
8452 258 279 
8453 259 279 
8454 279 260 
8455 260 259 
8456 260 279 
8457 279 280 
8458 280 260 
8459 260 280 
8460 280 281 
8461 281 260 
8462 281 261 
8463 261 260 
8464 260 281 
8465 261 281 
8466 281 262 
8467 262 261 
8468 262 281 
8469 281 282 
8470 282 262 
8471 262 282 
8472 282 283 
8473 283 262 
8474 283 263 
8475 263 262 
8476 262 283 
8477 263 283 
8478 283 264 
8479 264 263 
8480 264 283 
8481 283 284 
8482 284 264 
8483 264 284 
8484 284 55 
8485 55 264 
8486 55 56 
8487 56 264 
8488 264 55 
8489 14 15 
8490 15 265 
8491 265 14 
8492 265 15 
8493 15 285 
8494 285 265 
8495 265 285 
8496 285 286 
8497 286 265 
8498 286 266 
8499 266 265 
8500 265 286 
8501 266 286 
8502 286 267 
8503 267 266 
8504 267 286 
8505 286 287 
8506 287 267 
8507 267 287 
8508 287 288 
8509 288 267 
8510 288 268 
8511 268 267 
8512 267 288 
8513 268 288 
8514 288 269 
8515 269 268 
8516 269 288 
8517 288 289 
8518 289 269 
8519 269 289 
8520 289 290 
8521 290 269 
8522 290 270 
8523 270 269 
8524 269 290 
8525 270 290 
8526 290 271 
8527 271 270 
8528 271 290 
8529 290 291 
8530 291 271 
8531 271 291 
8532 291 292 
8533 292 271 
8534 292 272 
8535 272 271 
8536 271 292 
8537 272 292 
8538 292 273 
8539 273 272 
8540 273 292 
8541 292 293 
8542 293 273 
8543 273 293 
8544 293 294 
8545 294 273 
8546 294 274 
8547 274 273 
8548 273 294 
8549 274 294 
8550 294 275 
8551 275 274 
8552 275 294 
8553 294 295 
8554 295 275 
8555 275 295 
8556 295 296 
8557 296 275 
8558 296 276 
8559 276 275 
8560 275 296 
8561 276 296 
8562 296 277 
8563 277 276 
8564 277 296 
8565 296 297 
8566 297 277 
8567 277 297 
8568 297 298 
8569 298 277 
8570 298 278 
8571 278 277 
8572 277 298 
8573 278 298 
8574 298 279 
8575 279 278 
8576 279 298 
8577 298 299 
8578 299 279 
8579 279 299 
8580 299 300 
8581 300 279 
8582 300 280 
8583 280 279 
8584 279 300 
8585 280 300 
8586 300 281 
8587 281 280 
8588 281 300 
8589 300 301 
8590 301 281 
8591 281 301 
8592 301 302 
8593 302 281 
8594 302 282 
8595 282 281 
8596 281 302 
8597 282 302 
8598 302 283 
8599 283 282 
8600 283 302 
8601 302 303 
8602 303 283 
8603 283 303 
8604 303 304 
8605 304 283 
8606 304 284 
8607 284 283 
8608 283 304 
8609 284 304 
8610 304 55 
8611 55 284 
8612 55 304 
8613 304 54 
8614 54 55 
8615 15 16 
8616 16 305 
8617 305 15 
8618 305 285 
8619 285 15 
8620 15 305 
8621 285 305 
8622 305 286 
8623 286 285 
8624 286 305 
8625 305 306 
8626 306 286 
8627 286 306 
8628 306 307 
8629 307 286 
8630 307 287 
8631 287 286 
8632 286 307 
8633 287 307 
8634 307 288 
8635 288 287 
8636 288 307 
8637 307 308 
8638 308 288 
8639 288 308 
8640 308 309 
8641 309 288 
8642 309 289 
8643 289 288 
8644 288 309 
8645 289 309 
8646 309 290 
8647 290 289 
8648 290 309 
8649 309 310 
8650 310 290 
8651 290 310 
8652 310 311 
8653 311 290 
8654 311 291 
8655 291 290 
8656 290 311 
8657 291 311 
8658 311 292 
8659 292 291 
8660 292 311 
8661 311 312 
8662 312 292 
8663 292 312 
8664 312 313 
8665 313 292 
8666 313 293 
8667 293 292 
8668 292 313 
8669 293 313 
8670 313 294 
8671 294 293 
8672 294 313 
8673 313 314 
8674 314 294 
8675 294 314 
8676 314 315 
8677 315 294 
8678 315 295 
8679 295 294 
8680 294 315 
8681 295 315 
8682 315 296 
8683 296 295 
8684 296 315 
8685 315 316 
8686 316 296 
8687 296 316 
8688 316 317 
8689 317 296 
8690 317 297 
8691 297 296 
8692 296 317 
8693 297 317 
8694 317 298 
8695 298 297 
8696 298 317 
8697 317 318 
8698 318 298 
8699 298 318 
8700 318 319 
8701 319 298 
8702 319 299 
8703 299 298 
8704 298 319 
8705 299 319 
8706 319 300 
8707 300 299 
8708 300 319 
8709 319 320 
8710 320 300 
8711 300 320 
8712 320 321 
8713 321 300 
8714 321 301 
8715 301 300 
8716 300 321 
8717 301 321 
8718 321 302 
8719 302 301 
8720 302 321 
8721 321 322 
8722 322 302 
8723 302 322 
8724 322 323 
8725 323 302 
8726 323 303 
8727 303 302 
8728 302 323 
8729 303 323 
8730 323 304 
8731 304 303 
8732 304 323 
8733 323 324 
8734 324 304 
8735 304 324 
8736 324 53 
8737 53 304 
8738 53 54 
8739 54 304 
8740 304 53 
8741 16 17 
8742 17 305 
8743 305 16 
8744 305 17 
8745 17 325 
8746 325 305 
8747 305 325 
8748 325 326 
8749 326 305 
8750 326 306 
8751 306 305 
8752 305 326 
8753 306 326 
8754 326 307 
8755 307 306 
8756 307 326 
8757 326 327 
8758 327 307 
8759 307 327 
8760 327 328 
8761 328 307 
8762 328 308 
8763 308 307 
8764 307 328 
8765 308 328 
8766 328 309 
8767 309 308 
8768 309 328 
8769 328 329 
8770 329 309 
8771 309 329 
8772 329 330 
8773 330 309 
8774 330 310 
8775 310 309 
8776 309 330 
8777 310 330 
8778 330 311 
8779 311 310 
8780 311 330 
8781 330 331 
8782 331 311 
8783 311 331 
8784 331 332 
8785 332 311 
8786 332 312 
8787 312 311 
8788 311 332 
8789 312 332 
8790 332 313 
8791 313 312 
8792 313 332 
8793 332 333 
8794 333 313 
8795 313 333 
8796 333 334 
8797 334 313 
8798 334 314 
8799 314 313 
8800 313 334 
8801 314 334 
8802 334 315 
8803 315 314 
8804 315 334 
8805 334 335 
8806 335 315 
8807 315 335 
8808 335 336 
8809 336 315 
8810 336 316 
8811 316 315 
8812 315 336 
8813 316 336 
8814 336 317 
8815 317 316 
8816 317 336 
8817 336 337 
8818 337 317 
8819 317 337 
8820 337 338 
8821 338 317 
8822 338 318 
8823 318 317 
8824 317 338 
8825 318 338 
8826 338 319 
8827 319 318 
8828 319 338 
8829 338 339 
8830 339 319 
8831 319 339 
8832 339 340 
8833 340 319 
8834 340 320 
8835 320 319 
8836 319 340 
8837 320 340 
8838 340 321 
8839 321 320 
8840 321 340 
8841 340 341 
8842 341 321 
8843 321 341 
8844 341 342 
8845 342 321 
8846 342 322 
8847 322 321 
8848 321 342 
8849 322 342 
8850 342 323 
8851 323 322 
8852 323 342 
8853 342 343 
8854 343 323 
8855 323 343 
8856 343 344 
8857 344 323 
8858 344 324 
8859 324 323 
8860 323 344 
8861 324 344 
8862 344 53 
8863 53 324 
8864 53 344 
8865 344 52 
8866 52 53 
8867 17 18 
8868 18 345 
8869 345 17 
8870 345 325 
8871 325 17 
8872 17 345 
8873 325 345 
8874 345 326 
8875 326 325 
8876 326 345 
8877 345 346 
8878 346 326 
8879 326 346 
8880 346 347 
8881 347 326 
8882 347 327 
8883 327 326 
8884 326 347 
8885 327 347 
8886 347 328 
8887 328 327 
8888 328 347 
8889 347 348 
8890 348 328 
8891 328 348 
8892 348 349 
8893 349 328 
8894 349 329 
8895 329 328 
8896 328 349 
8897 329 349 
8898 349 330 
8899 330 329 
8900 330 349 
8901 349 350 
8902 350 330 
8903 330 350 
8904 350 351 
8905 351 330 
8906 351 331 
8907 331 330 
8908 330 351 
8909 331 351 
8910 351 332 
8911 332 331 
8912 332 351 
8913 351 352 
8914 352 332 
8915 332 352 
8916 352 353 
8917 353 332 
8918 353 333 
8919 333 332 
8920 332 353 
8921 333 353 
8922 353 334 
8923 334 333 
8924 334 353 
8925 353 354 
8926 354 334 
8927 334 354 
8928 354 355 
8929 355 334 
8930 355 335 
8931 335 334 
8932 334 355 
8933 335 355 
8934 355 336 
8935 336 335 
8936 336 355 
8937 355 356 
8938 356 336 
8939 336 356 
8940 356 357 
8941 357 336 
8942 357 337 
8943 337 336 
8944 336 357 
8945 337 357 
8946 357 338 
8947 338 337 
8948 338 357 
8949 357 358 
8950 358 338 
8951 338 358 
8952 358 359 
8953 359 338 
8954 359 339 
8955 339 338 
8956 338 359 
8957 339 359 
8958 359 340 
8959 340 339 
8960 340 359 
8961 359 360 
8962 360 340 
8963 340 360 
8964 360 361 
8965 361 340 
8966 361 341 
8967 341 340 
8968 340 361 
8969 341 361 
8970 361 342 
8971 342 341 
8972 342 361 
8973 361 362 
8974 362 342 
8975 342 362 
8976 362 363 
8977 363 342 
8978 363 343 
8979 343 342 
8980 342 363 
8981 343 363 
8982 363 344 
8983 344 343 
8984 344 363 
8985 363 364 
8986 364 344 
8987 344 364 
8988 364 51 
8989 51 344 
8990 51 52 
8991 52 344 
8992 344 51 
8993 18 19 
8994 19 345 
8995 345 18 
8996 345 19 
8997 19 365 
8998 365 345 
8999 345 365 
9000 365 366 
9001 366 345 
9002 366 346 
9003 346 345 
9004 345 366 
9005 346 366 
9006 366 347 
9007 347 346 
9008 347 366 
9009 366 367 
9010 367 347 
9011 347 367 
9012 367 368 
9013 368 347 
9014 368 348 
9015 348 347 
9016 347 368 
9017 348 368 
9018 368 349 
9019 349 348 
9020 349 368 
9021 368 369 
9022 369 349 
9023 349 369 
9024 369 370 
9025 370 349 
9026 370 350 
9027 350 349 
9028 349 370 
9029 350 370 
9030 370 351 
9031 351 350 
9032 351 370 
9033 370 371 
9034 371 351 
9035 351 371 
9036 371 372 
9037 372 351 
9038 372 352 
9039 352 351 
9040 351 372 
9041 352 372 
9042 372 353 
9043 353 352 
9044 353 372 
9045 372 373 
9046 373 353 
9047 353 373 
9048 373 374 
9049 374 353 
9050 374 354 
9051 354 353 
9052 353 374 
9053 354 374 
9054 374 355 
9055 355 354 
9056 355 374 
9057 374 375 
9058 375 355 
9059 355 375 
9060 375 376 
9061 376 355 
9062 376 356 
9063 356 355 
9064 355 376 
9065 356 376 
9066 376 357 
9067 357 356 
9068 357 376 
9069 376 377 
9070 377 357 
9071 357 377 
9072 377 378 
9073 378 357 
9074 378 358 
9075 358 357 
9076 357 378 
9077 358 378 
9078 378 359 
9079 359 358 
9080 359 378 
9081 378 379 
9082 379 359 
9083 359 379 
9084 379 380 
9085 380 359 
9086 380 360 
9087 360 359 
9088 359 380 
9089 360 380 
9090 380 361 
9091 361 360 
9092 361 380 
9093 380 381 
9094 381 361 
9095 361 381 
9096 381 382 
9097 382 361 
9098 382 362 
9099 362 361 
9100 361 382 
9101 362 382 
9102 382 363 
9103 363 362 
9104 363 382 
9105 382 383 
9106 383 363 
9107 363 383 
9108 383 384 
9109 384 363 
9110 384 364 
9111 364 363 
9112 363 384 
9113 364 384 
9114 384 51 
9115 51 364 
9116 51 384 
9117 384 50 
9118 50 51 
9119 19 20 
9120 20 385 
9121 385 19 
9122 385 365 
9123 365 19 
9124 19 385 
9125 365 385 
9126 385 366 
9127 366 365 
9128 366 385 
9129 385 386 
9130 386 366 
9131 366 386 
9132 386 387 
9133 387 366 
9134 387 367 
9135 367 366 
9136 366 387 
9137 367 387 
9138 387 368 
9139 368 367 
9140 368 387 
9141 387 388 
9142 388 368 
9143 368 388 
9144 388 389 
9145 389 368 
9146 389 369 
9147 369 368 
9148 368 389 
9149 369 389 
9150 389 370 
9151 370 369 
9152 370 389 
9153 389 390 
9154 390 370 
9155 370 390 
9156 390 391 
9157 391 370 
9158 391 371 
9159 371 370 
9160 370 391 
9161 371 391 
9162 391 372 
9163 372 371 
9164 372 391 
9165 391 392 
9166 392 372 
9167 372 392 
9168 392 393 
9169 393 372 
9170 393 373 
9171 373 372 
9172 372 393 
9173 373 393 
9174 393 374 
9175 374 373 
9176 374 393 
9177 393 394 
9178 394 374 
9179 374 394 
9180 394 395 
9181 395 374 
9182 395 375 
9183 375 374 
9184 374 395 
9185 375 395 
9186 395 376 
9187 376 375 
9188 376 395 
9189 395 396 
9190 396 376 
9191 376 396 
9192 396 397 
9193 397 376 
9194 397 377 
9195 377 376 
9196 376 397 
9197 377 397 
9198 397 378 
9199 378 377 
9200 378 397 
9201 397 398 
9202 398 378 
9203 378 398 
9204 398 399 
9205 399 378 
9206 399 379 
9207 379 378 
9208 378 399 
9209 379 399 
9210 399 380 
9211 380 379 
9212 380 399 
9213 399 400 
9214 400 380 
9215 380 400 
9216 400 401 
9217 401 380 
9218 401 381 
9219 381 380 
9220 380 401 
9221 381 401 
9222 401 382 
9223 382 381 
9224 382 401 
9225 401 402 
9226 402 382 
9227 382 402 
9228 402 403 
9229 403 382 
9230 403 383 
9231 383 382 
9232 382 403 
9233 383 403 
9234 403 384 
9235 384 383 
9236 384 403 
9237 403 404 
9238 404 384 
9239 384 404 
9240 404 49 
9241 49 384 
9242 49 50 
9243 50 384 
9244 384 49 
9245 20 21 
9246 21 385 
9247 385 20 
9248 385 21 
9249 21 405 
9250 405 385 
9251 385 405 
9252 405 406 
9253 406 385 
9254 406 386 
9255 386 385 
9256 385 406 
9257 386 406 
9258 406 387 
9259 387 386 
9260 387 406 
9261 406 407 
9262 407 387 
9263 387 407 
9264 407 408 
9265 408 387 
9266 408 388 
9267 388 387 
9268 387 408 
9269 388 408 
9270 408 389 
9271 389 388 
9272 389 408 
9273 408 409 
9274 409 389 
9275 389 409 
9276 409 410 
9277 410 389 
9278 410 390 
9279 390 389 
9280 389 410 
9281 390 410 
9282 410 391 
9283 391 390 
9284 391 410 
9285 410 411 
9286 411 391 
9287 391 411 
9288 411 412 
9289 412 391 
9290 412 392 
9291 392 391 
9292 391 412 
9293 392 412 
9294 412 393 
9295 393 392 
9296 393 412 
9297 412 413 
9298 413 393 
9299 393 413 
9300 413 414 
9301 414 393 
9302 414 394 
9303 394 393 
9304 393 414 
9305 394 414 
9306 414 395 
9307 395 394 
9308 395 414 
9309 414 415 
9310 415 395 
9311 395 415 
9312 415 416 
9313 416 395 
9314 416 396 
9315 396 395 
9316 395 416 
9317 396 416 
9318 416 397 
9319 397 396 
9320 397 416 
9321 416 417 
9322 417 397 
9323 397 417 
9324 417 418 
9325 418 397 
9326 418 398 
9327 398 397 
9328 397 418 
9329 398 418 
9330 418 399 
9331 399 398 
9332 399 418 
9333 418 419 
9334 419 399 
9335 399 419 
9336 419 420 
9337 420 399 
9338 420 400 
9339 400 399 
9340 399 420 
9341 400 420 
9342 420 401 
9343 401 400 
9344 401 420 
9345 420 421 
9346 421 401 
9347 401 421 
9348 421 422 
9349 422 401 
9350 422 402 
9351 402 401 
9352 401 422 
9353 402 422 
9354 422 403 
9355 403 402 
9356 403 422 
9357 422 423 
9358 423 403 
9359 403 423 
9360 423 424 
9361 424 403 
9362 424 404 
9363 404 403 
9364 403 424 
9365 404 424 
9366 424 49 
9367 49 404 
9368 49 424 
9369 424 48 
9370 48 49 
9371 21 22 
9372 22 425 
9373 425 21 
9374 425 405 
9375 405 21 
9376 21 425 
9377 405 425 
9378 425 406 
9379 406 405 
9380 406 425 
9381 425 426 
9382 426 406 
9383 406 426 
9384 426 427 
9385 427 406 
9386 427 407 
9387 407 406 
9388 406 427 
9389 407 427 
9390 427 408 
9391 408 407 
9392 408 427 
9393 427 428 
9394 428 408 
9395 408 428 
9396 428 429 
9397 429 408 
9398 429 409 
9399 409 408 
9400 408 429 
9401 409 429 
9402 429 410 
9403 410 409 
9404 410 429 
9405 429 430 
9406 430 410 
9407 410 430 
9408 430 431 
9409 431 410 
9410 431 411 
9411 411 410 
9412 410 431 
9413 411 431 
9414 431 412 
9415 412 411 
9416 412 431 
9417 431 432 
9418 432 412 
9419 412 432 
9420 432 433 
9421 433 412 
9422 433 413 
9423 413 412 
9424 412 433 
9425 413 433 
9426 433 414 
9427 414 413 
9428 414 433 
9429 433 434 
9430 434 414 
9431 414 434 
9432 434 435 
9433 435 414 
9434 435 415 
9435 415 414 
9436 414 435 
9437 415 435 
9438 435 416 
9439 416 415 
9440 416 435 
9441 435 436 
9442 436 416 
9443 416 436 
9444 436 437 
9445 437 416 
9446 437 417 
9447 417 416 
9448 416 437 
9449 417 437 
9450 437 418 
9451 418 417 
9452 418 437 
9453 437 438 
9454 438 418 
9455 418 438 
9456 438 439 
9457 439 418 
9458 439 419 
9459 419 418 
9460 418 439 
9461 419 439 
9462 439 420 
9463 420 419 
9464 420 439 
9465 439 440 
9466 440 420 
9467 420 440 
9468 440 441 
9469 441 420 
9470 441 421 
9471 421 420 
9472 420 441 
9473 421 441 
9474 441 422 
9475 422 421 
9476 422 441 
9477 441 442 
9478 442 422 
9479 422 442 
9480 442 443 
9481 443 422 
9482 443 423 
9483 423 422 
9484 422 443 
9485 423 443 
9486 443 424 
9487 424 423 
9488 424 443 
9489 443 444 
9490 444 424 
9491 424 444 
9492 444 47 
9493 47 424 
9494 47 48 
9495 48 424 
9496 424 47 
9497 22 23 
9498 23 425 
9499 425 22 
9500 425 23 
9501 23 445 
9502 445 425 
9503 425 445 
9504 445 446 
9505 446 425 
9506 446 426 
9507 426 425 
9508 425 446 
9509 426 446 
9510 446 427 
9511 427 426 
9512 427 446 
9513 446 447 
9514 447 427 
9515 427 447 
9516 447 448 
9517 448 427 
9518 448 428 
9519 428 427 
9520 427 448 
9521 428 448 
9522 448 429 
9523 429 428 
9524 429 448 
9525 448 449 
9526 449 429 
9527 429 449 
9528 449 450 
9529 450 429 
9530 450 430 
9531 430 429 
9532 429 450 
9533 430 450 
9534 450 431 
9535 431 430 
9536 431 450 
9537 450 451 
9538 451 431 
9539 431 451 
9540 451 452 
9541 452 431 
9542 452 432 
9543 432 431 
9544 431 452 
9545 432 452 
9546 452 433 
9547 433 432 
9548 433 452 
9549 452 453 
9550 453 433 
9551 433 453 
9552 453 454 
9553 454 433 
9554 454 434 
9555 434 433 
9556 433 454 
9557 434 454 
9558 454 435 
9559 435 434 
9560 435 454 
9561 454 455 
9562 455 435 
9563 435 455 
9564 455 456 
9565 456 435 
9566 456 436 
9567 436 435 
9568 435 456 
9569 436 456 
9570 456 437 
9571 437 436 
9572 437 456 
9573 456 457 
9574 457 437 
9575 437 457 
9576 457 458 
9577 458 437 
9578 458 438 
9579 438 437 
9580 437 458 
9581 438 458 
9582 458 439 
9583 439 438 
9584 439 458 
9585 458 459 
9586 459 439 
9587 439 459 
9588 459 460 
9589 460 439 
9590 460 440 
9591 440 439 
9592 439 460 
9593 440 460 
9594 460 441 
9595 441 440 
9596 441 460 
9597 460 461 
9598 461 441 
9599 441 461 
9600 461 462 
9601 462 441 
9602 462 442 
9603 442 441 
9604 441 462 
9605 442 462 
9606 462 443 
9607 443 442 
9608 443 462 
9609 462 463 
9610 463 443 
9611 443 463 
9612 463 464 
9613 464 443 
9614 464 444 
9615 444 443 
9616 443 464 
9617 444 464 
9618 464 47 
9619 47 444 
9620 47 464 
9621 464 46 
9622 46 47 
9623 23 24 
9624 24 465 
9625 465 23 
9626 465 445 
9627 445 23 
9628 23 465 
9629 445 465 
9630 465 446 
9631 446 445 
9632 446 465 
9633 465 466 
9634 466 446 
9635 446 466 
9636 466 467 
9637 467 446 
9638 467 447 
9639 447 446 
9640 446 467 
9641 447 467 
9642 467 448 
9643 448 447 
9644 448 467 
9645 467 468 
9646 468 448 
9647 448 468 
9648 468 469 
9649 469 448 
9650 469 449 
9651 449 448 
9652 448 469 
9653 449 469 
9654 469 450 
9655 450 449 
9656 450 469 
9657 469 470 
9658 470 450 
9659 450 470 
9660 470 471 
9661 471 450 
9662 471 451 
9663 451 450 
9664 450 471 
9665 451 471 
9666 471 452 
9667 452 451 
9668 452 471 
9669 471 472 
9670 472 452 
9671 452 472 
9672 472 473 
9673 473 452 
9674 473 453 
9675 453 452 
9676 452 473 
9677 453 473 
9678 473 454 
9679 454 453 
9680 454 473 
9681 473 474 
9682 474 454 
9683 454 474 
9684 474 475 
9685 475 454 
9686 475 455 
9687 455 454 
9688 454 475 
9689 455 475 
9690 475 456 
9691 456 455 
9692 456 475 
9693 475 476 
9694 476 456 
9695 456 476 
9696 476 477 
9697 477 456 
9698 477 457 
9699 457 456 
9700 456 477 
9701 457 477 
9702 477 458 
9703 458 457 
9704 458 477 
9705 477 478 
9706 478 458 
9707 458 478 
9708 478 479 
9709 479 458 
9710 479 459 
9711 459 458 
9712 458 479 
9713 459 479 
9714 479 460 
9715 460 459 
9716 460 479 
9717 479 480 
9718 480 460 
9719 460 480 
9720 480 481 
9721 481 460 
9722 481 461 
9723 461 460 
9724 460 481 
9725 461 481 
9726 481 462 
9727 462 461 
9728 462 481 
9729 481 482 
9730 482 462 
9731 462 482 
9732 482 483 
9733 483 462 
9734 483 463 
9735 463 462 
9736 462 483 
9737 463 483 
9738 483 464 
9739 464 463 
9740 464 483 
9741 483 484 
9742 484 464 
9743 464 484 
9744 484 45 
9745 45 464 
9746 45 46 
9747 46 464 
9748 464 45 
9749 24 2 
9750 2 465 
9751 465 24 
9752 465 2 
9753 2 25 
9754 25 465 
9755 465 25 
9756 25 26 
9757 26 465 
9758 26 466 
9759 466 465 
9760 465 26 
9761 466 26 
9762 26 467 
9763 467 466 
9764 467 26 
9765 26 27 
9766 27 467 
9767 467 27 
9768 27 28 
9769 28 467 
9770 28 468 
9771 468 467 
9772 467 28 
9773 468 28 
9774 28 469 
9775 469 468 
9776 469 28 
9777 28 29 
9778 29 469 
9779 469 29 
9780 29 30 
9781 30 469 
9782 30 470 
9783 470 469 
9784 469 30 
9785 470 30 
9786 30 471 
9787 471 470 
9788 471 30 
9789 30 31 
9790 31 471 
9791 471 31 
9792 31 32 
9793 32 471 
9794 32 472 
9795 472 471 
9796 471 32 
9797 472 32 
9798 32 473 
9799 473 472 
9800 473 32 
9801 32 33 
9802 33 473 
9803 473 33 
9804 33 34 
9805 34 473 
9806 34 474 
9807 474 473 
9808 473 34 
9809 474 34 
9810 34 475 
9811 475 474 
9812 475 34 
9813 34 35 
9814 35 475 
9815 475 35 
9816 35 36 
9817 36 475 
9818 36 476 
9819 476 475 
9820 475 36 
9821 476 36 
9822 36 477 
9823 477 476 
9824 477 36 
9825 36 37 
9826 37 477 
9827 477 37 
9828 37 38 
9829 38 477 
9830 38 478 
9831 478 477 
9832 477 38 
9833 478 38 
9834 38 479 
9835 479 478 
9836 479 38 
9837 38 39 
9838 39 479 
9839 479 39 
9840 39 40 
9841 40 479 
9842 40 480 
9843 480 479 
9844 479 40 
9845 480 40 
9846 40 481 
9847 481 480 
9848 481 40 
9849 40 41 
9850 41 481 
9851 481 41 
9852 41 42 
9853 42 481 
9854 42 482 
9855 482 481 
9856 481 42 
9857 482 42 
9858 42 483 
9859 483 482 
9860 483 42 
9861 42 43 
9862 43 483 
9863 483 43 
9864 43 44 
9865 44 483 
9866 44 484 
9867 484 483 
9868 483 44 
9869 484 44 
9870 44 45 
9871 45 484 
9872 45 44 
9873 44 3 
9874 3 45 
2 1 2 882
85 1 5 84 
86 84 5 85 
87 84 85 86 
88 86 83 84 
89 83 86 82 
90 82 86 87 
91 82 87 88 
92 88 81 82 
93 81 88 80 
94 80 88 89 
95 80 89 90 
96 90 79 80 
97 79 90 78 
98 78 90 91 
99 78 91 92 
100 92 77 78 
101 77 92 76 
102 76 92 93 
103 76 93 94 
104 94 75 76 
105 75 94 74 
106 74 94 95 
107 74 95 96 
108 96 73 74 
109 73 96 72 
110 72 96 97 
111 72 97 98 
112 98 71 72 
113 71 98 70 
114 70 98 99 
115 70 99 100 
116 100 69 70 
117 69 100 68 
118 68 100 101 
119 68 101 102 
120 102 67 68 
121 67 102 66 
122 66 102 103 
123 66 103 104 
124 104 65 66 
125 65 104 4 
126 4 104 64 
127 5 6 105 
128 105 85 5 
129 85 105 86 
130 86 105 106 
131 86 106 107 
132 107 87 86 
133 87 107 88 
134 88 107 108 
135 88 108 109 
136 109 89 88 
137 89 109 90 
138 90 109 110 
139 90 110 111 
140 111 91 90 
141 91 111 92 
142 92 111 112 
143 92 112 113 
144 113 93 92 
145 93 113 94 
146 94 113 114 
147 94 114 115 
148 115 95 94 
149 95 115 96 
150 96 115 116 
151 96 116 117 
152 117 97 96 
153 97 117 98 
154 98 117 118 
155 98 118 119 
156 119 99 98 
157 99 119 100 
158 100 119 120 
159 100 120 121 
160 121 101 100 
161 101 121 102 
162 102 121 122 
163 102 122 123 
164 123 103 102 
165 103 123 104 
166 104 123 124 
167 104 124 63 
168 63 64 104 
169 6 7 105 
170 105 7 125 
171 105 125 126 
172 126 106 105 
173 106 126 107 
174 107 126 127 
175 107 127 128 
176 128 108 107 
177 108 128 109 
178 109 128 129 
179 109 129 130 
180 130 110 109 
181 110 130 111 
182 111 130 131 
183 111 131 132 
184 132 112 111 
185 112 132 113 
186 113 132 133 
187 113 133 134 
188 134 114 113 
189 114 134 115 
190 115 134 135 
191 115 135 136 
192 136 116 115 
193 116 136 117 
194 117 136 137 
195 117 137 138 
196 138 118 117 
197 118 138 119 
198 119 138 139 
199 119 139 140 
200 140 120 119 
201 120 140 121 
202 121 140 141 
203 121 141 142 
204 142 122 121 
205 122 142 123 
206 123 142 143 
207 123 143 144 
208 144 124 123 
209 124 144 63 
210 63 144 62 
211 7 8 145 
212 145 125 7 
213 125 145 126 
214 126 145 146 
215 126 146 147 
216 147 127 126 
217 127 147 128 
218 128 147 148 
219 128 148 149 
220 149 129 128 
221 129 149 130 
222 130 149 150 
223 130 150 151 
224 151 131 130 
225 131 151 132 
226 132 151 152 
227 132 152 153 
228 153 133 132 
229 133 153 134 
230 134 153 154 
231 134 154 155 
232 155 135 134 
233 135 155 136 
234 136 155 156 
235 136 156 157 
236 157 137 136 
237 137 157 138 
238 138 157 158 
239 138 158 159 
240 159 139 138 
241 139 159 140 
242 140 159 160 
243 140 160 161 
244 161 141 140 
245 141 161 142 
246 142 161 162 
247 142 162 163 
248 163 143 142 
249 143 163 144 
250 144 163 164 
251 144 164 61 
252 61 62 144 
253 8 9 145 
254 145 9 165 
255 145 165 166 
256 166 146 145 
257 146 166 147 
258 147 166 167 
259 147 167 168 
260 168 148 147 
261 148 168 149 
262 149 168 169 
263 149 169 170 
264 170 150 149 
265 150 170 151 
266 151 170 171 
267 151 171 172 
268 172 152 151 
269 152 172 153 
270 153 172 173 
271 153 173 174 
272 174 154 153 
273 154 174 155 
274 155 174 175 
275 155 175 176 
276 176 156 155 
277 156 176 157 
278 157 176 177 
279 157 177 178 
280 178 158 157 
281 158 178 159 
282 159 178 179 
283 159 179 180 
284 180 160 159 
285 160 180 161 
286 161 180 181 
287 161 181 182 
288 182 162 161 
289 162 182 163 
290 163 182 183 
291 163 183 184 
292 184 164 163 
293 164 184 61 
294 61 184 60 
295 9 10 185 
296 185 165 9 
297 165 185 166 
298 166 185 186 
299 166 186 187 
300 187 167 166 
301 167 187 168 
302 168 187 188 
303 168 188 189 
304 189 169 168 
305 169 189 170 
306 170 189 190 
307 170 190 191 
308 191 171 170 
309 171 191 172 
310 172 191 192 
311 172 192 193 
312 193 173 172 
313 173 193 174 
314 174 193 194 
315 174 194 195 
316 195 175 174 
317 175 195 176 
318 176 195 196 
319 176 196 197 
320 197 177 176 
321 177 197 178 
322 178 197 198 
323 178 198 199 
324 199 179 178 
325 179 199 180 
326 180 199 200 
327 180 200 201 
328 201 181 180 
329 181 201 182 
330 182 201 202 
331 182 202 203 
332 203 183 182 
333 183 203 184 
334 184 203 204 
335 184 204 59 
336 59 60 184 
337 10 11 185 
338 185 11 205 
339 185 205 206 
340 206 186 185 
341 186 206 187 
342 187 206 207 
343 187 207 208 
344 208 188 187 
345 188 208 189 
346 189 208 209 
347 189 209 210 
348 210 190 189 
349 190 210 191 
350 191 210 211 
351 191 211 212 
352 212 192 191 
353 192 212 193 
354 193 212 213 
355 193 213 214 
356 214 194 193 
357 194 214 195 
358 195 214 215 
359 195 215 216 
360 216 196 195 
361 196 216 197 
362 197 216 217 
363 197 217 218 
364 218 198 197 
365 198 218 199 
366 199 218 219 
367 199 219 220 
368 220 200 199 
369 200 220 201 
370 201 220 221 
371 201 221 222 
372 222 202 201 
373 202 222 203 
374 203 222 223 
375 203 223 224 
376 224 204 203 
377 204 224 59 
378 59 224 58 
379 11 12 225 
380 225 205 11 
381 205 225 206 
382 206 225 226 
383 206 226 227 
384 227 207 206 
385 207 227 208 
386 208 227 228 
387 208 228 229 
388 229 209 208 
389 209 229 210 
390 210 229 230 
391 210 230 231 
392 231 211 210 
393 211 231 212 
394 212 231 232 
395 212 232 233 
396 233 213 212 
397 213 233 214 
398 214 233 234 
399 214 234 235 
400 235 215 214 
401 215 235 216 
402 216 235 236 
403 216 236 237 
404 237 217 216 
405 217 237 218 
406 218 237 238 
407 218 238 239 
408 239 219 218 
409 219 239 220 
410 220 239 240 
411 220 240 241 
412 241 221 220 
413 221 241 222 
414 222 241 242 
415 222 242 243 
416 243 223 222 
417 223 243 224 
418 224 243 244 
419 224 244 57 
420 57 58 224 
421 12 13 225 
422 225 13 245 
423 225 245 246 
424 246 226 225 
425 226 246 227 
426 227 246 247 
427 227 247 248 
428 248 228 227 
429 228 248 229 
430 229 248 249 
431 229 249 250 
432 250 230 229 
433 230 250 231 
434 231 250 251 
435 231 251 252 
436 252 232 231 
437 232 252 233 
438 233 252 253 
439 233 253 254 
440 254 234 233 
441 234 254 235 
442 235 254 255 
443 235 255 256 
444 256 236 235 
445 236 256 237 
446 237 256 257 
447 237 257 258 
448 258 238 237 
449 238 258 239 
450 239 258 259 
451 239 259 260 
452 260 240 239 
453 240 260 241 
454 241 260 261 
455 241 261 262 
456 262 242 241 
457 242 262 243 
458 243 262 263 
459 243 263 264 
460 264 244 243 
461 244 264 57 
462 57 264 56 
463 13 14 265 
464 265 245 13 
465 245 265 246 
466 246 265 266 
467 246 266 267 
468 267 247 246 
469 247 267 248 
470 248 267 268 
471 248 268 269 
472 269 249 248 
473 249 269 250 
474 250 269 270 
475 250 270 271 
476 271 251 250 
477 251 271 252 
478 252 271 272 
479 252 272 273 
480 273 253 252 
481 253 273 254 
482 254 273 274 
483 254 274 275 
484 275 255 254 
485 255 275 256 
486 256 275 276 
487 256 276 277 
488 277 257 256 
489 257 277 258 
490 258 277 278 
491 258 278 279 
492 279 259 258 
493 259 279 260 
494 260 279 280 
495 260 280 281 
496 281 261 260 
497 261 281 262 
498 262 281 282 
499 262 282 283 
500 283 263 262 
501 263 283 264 
502 264 283 284 
503 264 284 55 
504 55 56 264 
505 14 15 265 
506 265 15 285 
507 265 285 286 
508 286 266 265 
509 266 286 267 
510 267 286 287 
511 267 287 288 
512 288 268 267 
513 268 288 269 
514 269 288 289 
515 269 289 290 
516 290 270 269 
517 270 290 271 
518 271 290 291 
519 271 291 292 
520 292 272 271 
521 272 292 273 
522 273 292 293 
523 273 293 294 
524 294 274 273 
525 274 294 275 
526 275 294 295 
527 275 295 296 
528 296 276 275 
529 276 296 277 
530 277 296 297 
531 277 297 298 
532 298 278 277 
533 278 298 279 
534 279 298 299 
535 279 299 300 
536 300 280 279 
537 280 300 281 
538 281 300 301 
539 281 301 302 
540 302 282 281 
541 282 302 283 
542 283 302 303 
543 283 303 304 
544 304 284 283 
545 284 304 55 
546 55 304 54 
547 15 16 305 
548 305 285 15 
549 285 305 286 
550 286 305 306 
551 286 306 307 
552 307 287 286 
553 287 307 288 
554 288 307 308 
555 288 308 309 
556 309 289 288 
557 289 309 290 
558 290 309 310 
559 290 310 311 
560 311 291 290 
561 291 311 292 
562 292 311 312 
563 292 312 313 
564 313 293 292 
565 293 313 294 
566 294 313 314 
567 294 314 315 
568 315 295 294 
569 295 315 296 
570 296 315 316 
571 296 316 317 
572 317 297 296 
573 297 317 298 
574 298 317 318 
575 298 318 319 
576 319 299 298 
577 299 319 300 
578 300 319 320 
579 300 320 321 
580 321 301 300 
581 301 321 302 
582 302 321 322 
583 302 322 323 
584 323 303 302 
585 303 323 304 
586 304 323 324 
587 304 324 53 
588 53 54 304 
589 16 17 305 
590 305 17 325 
591 305 325 326 
592 326 306 305 
593 306 326 307 
594 307 326 327 
595 307 327 328 
596 328 308 307 
597 308 328 309 
598 309 328 329 
599 309 329 330 
600 330 310 309 
601 310 330 311 
602 311 330 331 
603 311 331 332 
604 332 312 311 
605 312 332 313 
606 313 332 333 
607 313 333 334 
608 334 314 313 
609 314 334 315 
610 315 334 335 
611 315 335 336 
612 336 316 315 
613 316 336 317 
614 317 336 337 
615 317 337 338 
616 338 318 317 
617 318 338 319 
618 319 338 339 
619 319 339 340 
620 340 320 319 
621 320 340 321 
622 321 340 341 
623 321 341 342 
624 342 322 321 
625 322 342 323 
626 323 342 343 
627 323 343 344 
628 344 324 323 
629 324 344 53 
630 53 344 52 
631 17 18 345 
632 345 325 17 
633 325 345 326 
634 326 345 346 
635 326 346 347 
636 347 327 326 
637 327 347 328 
638 328 347 348 
639 328 348 349 
640 349 329 328 
641 329 349 330 
642 330 349 350 
643 330 350 351 
644 351 331 330 
645 331 351 332 
646 332 351 352 
647 332 352 353 
648 353 333 332 
649 333 353 334 
650 334 353 354 
651 334 354 355 
652 355 335 334 
653 335 355 336 
654 336 355 356 
655 336 356 357 
656 357 337 336 
657 337 357 338 
658 338 357 358 
659 338 358 359 
660 359 339 338 
661 339 359 340 
662 340 359 360 
663 340 360 361 
664 361 341 340 
665 341 361 342 
666 342 361 362 
667 342 362 363 
668 363 343 342 
669 343 363 344 
670 344 363 364 
671 344 364 51 
672 51 52 344 
673 18 19 345 
674 345 19 365 
675 345 365 366 
676 366 346 345 
677 346 366 347 
678 347 366 367 
679 347 367 368 
680 368 348 347 
681 348 368 349 
682 349 368 369 
683 349 369 370 
684 370 350 349 
685 350 370 351 
686 351 370 371 
687 351 371 372 
688 372 352 351 
689 352 372 353 
690 353 372 373 
691 353 373 374 
692 374 354 353 
693 354 374 355 
694 355 374 375 
695 355 375 376 
696 376 356 355 
697 356 376 357 
698 357 376 377 
699 357 377 378 
700 378 358 357 
701 358 378 359 
702 359 378 379 
703 359 379 380 
704 380 360 359 
705 360 380 361 
706 361 380 381 
707 361 381 382 
708 382 362 361 
709 362 382 363 
710 363 382 383 
711 363 383 384 
712 384 364 363 
713 364 384 51 
714 51 384 50 
715 19 20 385 
716 385 365 19 
717 365 385 366 
718 366 385 386 
719 366 386 387 
720 387 367 366 
721 367 387 368 
722 368 387 388 
723 368 388 389 
724 389 369 368 
725 369 389 370 
726 370 389 390 
727 370 390 391 
728 391 371 370 
729 371 391 372 
730 372 391 392 
731 372 392 393 
732 393 373 372 
733 373 393 374 
734 374 393 394 
735 374 394 395 
736 395 375 374 
737 375 395 376 
738 376 395 396 
739 376 396 397 
740 397 377 376 
741 377 397 378 
742 378 397 398 
743 378 398 399 
744 399 379 378 
745 379 399 380 
746 380 399 400 
747 380 400 401 
748 401 381 380 
749 381 401 382 
750 382 401 402 
751 382 402 403 
752 403 383 382 
753 383 403 384 
754 384 403 404 
755 384 404 49 
756 49 50 384 
757 20 21 385 
758 385 21 405 
759 385 405 406 
760 406 386 385 
761 386 406 387 
762 387 406 407 
763 387 407 408 
764 408 388 387 
765 388 408 389 
766 389 408 409 
767 389 409 410 
768 410 390 389 
769 390 410 391 
770 391 410 411 
771 391 411 412 
772 412 392 391 
773 392 412 393 
774 393 412 413 
775 393 413 414 
776 414 394 393 
777 394 414 395 
778 395 414 415 
779 395 415 416 
780 416 396 395 
781 396 416 397 
782 397 416 417 
783 397 417 418 
784 418 398 397 
785 398 418 399 
786 399 418 419 
787 399 419 420 
788 420 400 399 
789 400 420 401 
790 401 420 421 
791 401 421 422 
792 422 402 401 
793 402 422 403 
794 403 422 423 
795 403 423 424 
796 424 404 403 
797 404 424 49 
798 49 424 48 
799 21 22 425 
800 425 405 21 
801 405 425 406 
802 406 425 426 
803 406 426 427 
804 427 407 406 
805 407 427 408 
806 408 427 428 
807 408 428 429 
808 429 409 408 
809 409 429 410 
810 410 429 430 
811 410 430 431 
812 431 411 410 
813 411 431 412 
814 412 431 432 
815 412 432 433 
816 433 413 412 
817 413 433 414 
818 414 433 434 
819 414 434 435 
820 435 415 414 
821 415 435 416 
822 416 435 436 
823 416 436 437 
824 437 417 416 
825 417 437 418 
826 418 437 438 
827 418 438 439 
828 439 419 418 
829 419 439 420 
830 420 439 440 
831 420 440 441 
832 441 421 420 
833 421 441 422 
834 422 441 442 
835 422 442 443 
836 443 423 422 
837 423 443 424 
838 424 443 444 
839 424 444 47 
840 47 48 424 
841 22 23 425 
842 425 23 445 
843 425 445 446 
844 446 426 425 
845 426 446 427 
846 427 446 447 
847 427 447 448 
848 448 428 427 
849 428 448 429 
850 429 448 449 
851 429 449 450 
852 450 430 429 
853 430 450 431 
854 431 450 451 
855 431 451 452 
856 452 432 431 
857 432 452 433 
858 433 452 453 
859 433 453 454 
860 454 434 433 
861 434 454 435 
862 435 454 455 
863 435 455 456 
864 456 436 435 
865 436 456 437 
866 437 456 457 
867 437 457 458 
868 458 438 437 
869 438 458 439 
870 439 458 459 
871 439 459 460 
872 460 440 439 
873 440 460 441 
874 441 460 461 
875 441 461 462 
876 462 442 441 
877 442 462 443 
878 443 462 463 
879 443 463 464 
880 464 444 443 
881 444 464 47 
882 47 464 46 
883 23 24 465 
884 465 445 23 
885 445 465 446 
886 446 465 466 
887 446 466 467 
888 467 447 446 
889 447 467 448 
890 448 467 468 
891 448 468 469 
892 469 449 448 
893 449 469 450 
894 450 469 470 
895 450 470 471 
896 471 451 450 
897 451 471 452 
898 452 471 472 
899 452 472 473 
900 473 453 452 
901 453 473 454 
902 454 473 474 
903 454 474 475 
904 475 455 454 
905 455 475 456 
906 456 475 476 
907 456 476 477 
908 477 457 456 
909 457 477 458 
910 458 477 478 
911 458 478 479 
912 479 459 458 
913 459 479 460 
914 460 479 480 
915 460 480 481 
916 481 461 460 
917 461 481 462 
918 462 481 482 
919 462 482 483 
920 483 463 462 
921 463 483 464 
922 464 483 484 
923 464 484 45 
924 45 46 464 
925 24 2 465 
926 465 2 25 
927 465 25 26 
928 26 466 465 
929 466 26 467 
930 467 26 27 
931 467 27 28 
932 28 468 467 
933 468 28 469 
934 469 28 29 
935 469 29 30 
936 30 470 469 
937 470 30 471 
938 471 30 31 
939 471 31 32 
940 32 472 471 
941 472 32 473 
942 473 32 33 
943 473 33 34 
944 34 474 473 
945 474 34 475 
946 475 34 35 
947 475 35 36 
948 36 476 475 
949 476 36 477 
950 477 36 37 
951 477 37 38 
952 38 478 477 
953 478 38 479 
954 479 38 39 
955 479 39 40 
956 40 480 479 
957 480 40 481 
958 481 40 41 
959 481 41 42 
960 42 482 481 
961 482 42 483 
962 483 42 43 
963 483 43 44 
964 44 484 483 
965 484 44 45 
966 45 44 3 
$EndElements
