$MeshFormat
4.1 0 8
$EndMeshFormat
$PhysicalNames
6
1 1 "Γ¹"
1 2 "Γ²"
1 3 "Γ³"
1 4 "Γ⁴"
1 6 "Γ"
2 5 "Ω"
$EndPhysicalNames
$Entities
4 5 1 0
1 0 0 0 0 
2 1 0 0 0 
3 1.5 0.8660254037844387 0 0 
4 0.4999999999999999 0.8660254037844387 0 0 
1 0 0 0 1 0 0 1 1 2 1 -2 
2 1 0 0 1.5 0.8660254037844387 0 1 2 2 2 -3 
3 0.5 0.8660254037844387 0 1.5 0.8660254037844387 0 1 3 2 3 -4 
4 0 0 0 0.4999999999999999 0.8660254037844387 0 1 4 2 4 -1 
5 0 0 0 1.5 0.8660254037844387 0 1 6 0 
1 0 0 0 1.5 0.8660254037844387 0 1 5 4 1 2 3 4 
$EndEntities
$Nodes
10 576 1 576
0 1 0 1
1
0 0 0
0 2 0 1
2
1 0 0
0 3 0 1
3
1.5 0.8660254037844387 0
0 4 0 1
4
0.4999999999999999 0.8660254037844387 0
1 1 0 22
5
6
7
8
9
10
11
12
13
14
15
16
17
18
19
20
21
22
23
24
25
26
0.04347826086947912 0 0
0.08695652173896454 0 0
0.1304347826084548 0 0
0.1739130434778939 0 0
0.2173913043473322 0 0
0.2608695652167706 0 0
0.3043478260862089 0 0
0.3478260869556472 0 0
0.3913043478250854 0 0
0.4347826086945238 0 0
0.4782608695639621 0 0
0.5217391304335213 0 0
0.5652173913032011 0 0
0.608695652172881 0 0
0.6521739130425609 0 0
0.6956521739122408 0 0
0.7391304347819206 0 0
0.7826086956516005 0 0
0.8260869565212804 0 0
0.8695652173909604 0 0
0.9130434782606403 0 0
0.9565217391303201 0 0
1 2 0 22
27
28
29
30
31
32
33
34
35
36
37
38
39
40
41
42
43
44
45
46
47
48
1.021739130434751 0.03765327842535519 0
1.043478260869502 0.07530655685071141 0
1.065217391304257 0.1129598352760738 0
1.086956521738991 0.1506131137013997 0
1.108695652173724 0.188266392126725 0
1.130434782608462 0.2259196705520583 0
1.152173913043198 0.2635729489773876 0
1.173913043477941 0.3012262274027291 0
1.195652173912684 0.33887950582807 0
1.217391304347408 0.3765327842533797 0
1.239130434782132 0.4141860626786886 0
1.260869565216908 0.4518393411040881 0
1.282608695651737 0.4894926195295781 0
1.304347826086579 0.5271458979550919 0
1.326086956521406 0.5647991763805785 0
1.347826086956232 0.6024524548060651 0
1.369565217391063 0.6401057332315582 0
1.391304347825894 0.6777590116570519 0
1.413043478260724 0.7154122900825455 0
1.434782608695555 0.7530655685080392 0
1.456521739130384 0.7907188469335307 0
1.478260869565207 0.8283721253590102 0
1 3 0 22
49
50
51
52
53
54
55
56
57
58
59
60
61
62
63
64
65
66
67
68
69
70
1.456521739130676 0.8660254037844387 0
1.413043478261352 0.8660254037844387 0
1.369565217392029 0.8660254037844387 0
1.326086956522705 0.8660254037844387 0
1.282608695653381 0.8660254037844387 0
1.239130434784057 0.8660254037844387 0
1.195652173914733 0.8660254037844387 0
1.15217391304541 0.8660254037844387 0
1.108695652176086 0.8660254037844387 0
1.065217391306762 0.8660254037844387 0
1.021739130437438 0.8660254037844387 0
0.9782608695678732 0.8660254037844387 0
0.9347826086980665 0.8660254037844387 0
0.8913043478282598 0.8660254037844387 0
0.8478260869584532 0.8660254037844387 0
0.8043478260886465 0.8660254037844387 0
0.7608695652188399 0.8660254037844387 0
0.7173913043490332 0.8660254037844387 0
0.6739130434792265 0.8660254037844387 0
0.6304347826094199 0.8660254037844387 0
0.5869565217396132 0.8660254037844387 0
0.5434782608698066 0.8660254037844387 0
1 4 0 22
71
72
73
74
75
76
77
78
79
80
81
82
83
84
85
86
87
88
89
90
91
92
0.478260869565267 0.8283721253591144 0
0.4565217391305129 0.7907188469337534 0
0.4347826086957121 0.7530655685083114 0
0.4130434782609939 0.7154122900830127 0
0.3913043478262577 0.6777590116576826 0
0.3695652173915215 0.6401057332323525 0
0.3478260869568135 0.6024524548070714 0
0.3260869565220773 0.5647991763817415 0
0.304347826087342 0.527145897956413 0
0.2826086956526362 0.4894926195311357 0
0.2608695652179355 0.4518393411058672 0
0.2391304347831648 0.4141860626804774 0
0.2173913043483295 0.3765327842549758 0
0.1956521739134804 0.3388795058294503 0
0.1739130434786472 0.3012262274039522 0
0.152173913043814 0.2635729489784542 0
0.130434782608977 0.2259196705529496 0
0.1086956521741397 0.1882663921274446 0
0.08695652173930235 0.1506131137019393 0
0.06521739130446508 0.1129598352764343 0
0.04347826086962892 0.07530655685093113 0
0.0217391304347998 0.0376532784254402 0
1 5 0 0
2 1 0 484
93
94
95
96
97
98
99
100
101
102
103
104
105
106
107
108
109
110
111
112
113
114
115
116
117
118
119
120
121
122
123
124
125
126
127
128
129
130
131
132
133
134
135
136
137
138
139
140
141
142
143
144
145
146
147
148
149
150
151
152
153
154
155
156
157
158
159
160
161
162
163
164
165
166
167
168
169
170
171
172
173
174
175
176
177
178
179
180
181
182
183
184
185
186
187
188
189
190
191
192
193
194
195
196
197
198
199
200
201
202
203
204
205
206
207
208
209
210
211
212
213
214
215
216
217
218
219
220
221
222
223
224
225
226
227
228
229
230
231
232
233
234
235
236
237
238
239
240
241
242
243
244
245
246
247
248
249
250
251
252
253
254
255
256
257
258
259
260
261
262
263
264
265
266
267
268
269
270
271
272
273
274
275
276
277
278
279
280
281
282
283
284
285
286
287
288
289
290
291
292
293
294
295
296
297
298
299
300
301
302
303
304
305
306
307
308
309
310
311
312
313
314
315
316
317
318
319
320
321
322
323
324
325
326
327
328
329
330
331
332
333
334
335
336
337
338
339
340
341
342
343
344
345
346
347
348
349
350
351
352
353
354
355
356
357
358
359
360
361
362
363
364
365
366
367
368
369
370
371
372
373
374
375
376
377
378
379
380
381
382
383
384
385
386
387
388
389
390
391
392
393
394
395
396
397
398
399
400
401
402
403
404
405
406
407
408
409
410
411
412
413
414
415
416
417
418
419
420
421
422
423
424
425
426
427
428
429
430
431
432
433
434
435
436
437
438
439
440
441
442
443
444
445
446
447
448
449
450
451
452
453
454
455
456
457
458
459
460
461
462
463
464
465
466
467
468
469
470
471
472
473
474
475
476
477
478
479
480
481
482
483
484
485
486
487
488
489
490
491
492
493
494
495
496
497
498
499
500
501
502
503
504
505
506
507
508
509
510
511
512
513
514
515
516
517
518
519
520
521
522
523
524
525
526
527
528
529
530
531
532
533
534
535
536
537
538
539
540
541
542
543
544
545
546
547
548
549
550
551
552
553
554
555
556
557
558
559
560
561
562
563
564
565
566
567
568
569
570
571
572
573
574
575
576
0.06521739130429102 0.0376532784254365 0
0.08695652173913099 0.07530655685092155 0
0.1086956521739779 0.1129598352764186 0
0.1304347826088249 0.1506131137019159 0
0.152173913043672 0.1882663921274133 0
0.1739130434785192 0.2259196705529108 0
0.195652173913366 0.2635729489784078 0
0.2173913043482096 0.301226227403899 0
0.239130434783053 0.3388795058293903 0
0.2608695652179109 0.3765327842549064 0
0.2826086956527556 0.4141860626803996 0
0.3043478260875408 0.4518393411057899 0
0.3260869565222615 0.489492619531068 0
0.3478260869569874 0.5271458979563554 0
0.3695652173917409 0.564799176381691 0
0.3913043478264951 0.6024524548070276 0
0.4130434782612228 0.640105733232318 0
0.4347826086959772 0.6777590116576552 0
0.4565217391307318 0.7154122900829922 0
0.4782608695654693 0.7530655685082996 0
0.5000000000002855 0.7907188469337437 0
0.5217391304350568 0.8283721253591099 0
0.1086956521737883 0.03765327842543281 0
0.1304347826086388 0.07530655685091203 0
0.1521739130434961 0.112959835276403 0
0.1739130434783526 0.1506131137018924 0
0.1956521739132092 0.188266392127382 0
0.217391304348066 0.2259196705528721 0
0.2391304347829225 0.2635729489783614 0
0.2608695652177759 0.3012262274038457 0
0.2826086956526295 0.3388795058293302 0
0.304347826087496 0.376532784254837 0
0.3260869565223498 0.4141860626803218 0
0.3478260869571492 0.4518393411057125 0
0.3695652173918893 0.4894926195310003 0
0.3913043478266351 0.5271458979562982 0
0.4130434782614065 0.5647991763816405 0
0.4347826086961788 0.6024524548069841 0
0.4565217391309257 0.6401057332322834 0
0.4782608695656982 0.6777590116576276 0
0.5000000000004707 0.7154122900829721 0
0.521739130435227 0.7530655685082878 0
0.5434782608700586 0.790718846933734 0
0.5652173913048468 0.8283721253591053 0
0.1521739130432901 0.03765327842542911 0
0.1739130434781511 0.07530655685090246 0
0.1956521739130186 0.1129598352763873 0
0.2173913043478844 0.1506131137018689 0
0.2391304347827501 0.1882663921273507 0
0.2608695652176165 0.2259196705528334 0
0.2826086956524823 0.263572948978315 0
0.3043478260873456 0.3012262274037927 0
0.326086956522209 0.3388795058292702 0
0.3478260869570838 0.3765327842547675 0
0.3695652173919466 0.4141860626802441 0
0.3913043478267598 0.4518393411056352 0
0.4130434782615193 0.4894926195309325 0
0.4347826086962847 0.5271458979562406 0
0.456521739131074 0.5647991763815897 0
0.4782608695658639 0.6024524548069403 0
0.5000000000006299 0.6401057332322487 0
0.5217391304354203 0.6777590116576004 0
0.5434782608702107 0.7154122900829519 0
0.5652173913049856 0.7530655685082759 0
0.5869565217398323 0.7907188469337244 0
0.6086956521746372 0.8283721253591007 0
0.1956521739127431 0.03765327842542542 0
0.2173913043476167 0.07530655685089292 0
0.2391304347824966 0.1129598352763716 0
0.2608695652173739 0.1506131137018455 0
0.2826086956522512 0.1882663921273194 0
0.304347826087129 0.2259196705527946 0
0.3260869565220064 0.2635729489782687 0
0.3478260869568818 0.3012262274037395 0
0.3695652173917573 0.3388795058292101 0
0.3913043478266427 0.3765327842546982 0
0.4130434782615166 0.4141860626801664 0
0.4347826086963461 0.4518393411055578 0
0.4565217391311269 0.4894926195308648 0
0.4782608695659145 0.5271458979561832 0
0.5000000000007236 0.5647991763815391 0
0.5217391304355334 0.6024524548068964 0
0.5434782608703208 0.6401057332322144 0
0.5652173913051312 0.677759011657573 0
0.5869565217399417 0.7154122900829315 0
0.6086956521747375 0.7530655685082641 0
0.6304347826096013 0.7907188469337145 0
0.6521739130444251 0.8283721253590961 0
0.2391304347821953 0.03765327842542172 0
0.2608695652170815 0.07530655685088337 0
0.2826086956519739 0.1129598352763559 0
0.3043478260868627 0.1506131137018221 0
0.3260869565217513 0.1882663921272881 0
0.347826086956641 0.2259196705527559 0
0.36956521739153 0.2635729489782223 0
0.3913043478264177 0.3012262274036863 0
0.4130434782613051 0.3388795058291502 0
0.434782608696201 0.3765327842546288 0
0.4565217391310861 0.4141860626800885 0
0.4782608695659319 0.4518393411054804 0
0.5000000000007343 0.489492619530797 0
0.5217391304355439 0.5271458979561258 0
0.543478260870373 0.5647991763814887 0
0.565217391305203 0.6024524548068527 0
0.5869565217400112 0.6401057332321799 0
0.608695652174842 0.6777590116575455 0
0.6304347826096726 0.7154122900829113 0
0.6521739130444892 0.7530655685082521 0
0.6739130434793703 0.7907188469337049 0
0.6956521739142132 0.8283721253590917 0
0.2826086956516474 0.03765327842541802 0
0.3043478260865463 0.07530655685087383 0
0.3260869565214513 0.1129598352763403 0
0.3478260869563515 0.1506131137017985 0
0.3695652173912519 0.1882663921272569 0
0.391304347826153 0.2259196705527171 0
0.4130434782610538 0.2635729489781759 0
0.4347826086959534 0.3012262274036331 0
0.4565217391308528 0.3388795058290902 0
0.4782608695657594 0.3765327842545594 0
0.5000000000006556 0.4141860626800107 0
0.5217391304355178 0.4518393411054031 0
0.5434782608703417 0.4894926195307294 0
0.565217391305173 0.5271458979560684 0
0.5869565217400223 0.5647991763814383 0
0.6086956521748721 0.6024524548068088 0
0.6304347826097019 0.6401057332321454 0
0.6521739130445527 0.6777590116575178 0
0.6739130434794034 0.7154122900828911 0
0.6956521739142412 0.7530655685082402 0
0.7173913043491393 0.7907188469336952 0
0.7391304347840013 0.8283721253590873 0
0.3260869565210997 0.03765327842541431 0
0.3478260869560111 0.07530655685086428 0
0.3695652173909286 0.1129598352763246 0
0.3913043478258404 0.1506131137017751 0
0.4130434782607522 0.1882663921272256 0
0.4347826086956652 0.2259196705526783 0
0.4565217391305773 0.2635729489781295 0
0.4782608695654891 0.30122622740358 0
0.5000000000004006 0.3388795058290301 0
0.5217391304353178 0.3765327842544899 0
0.5434782608702254 0.414186062679933 0
0.5652173913051037 0.4518393411053258 0
0.5869565217399491 0.4894926195306616 0
0.6086956521748026 0.5271458979560107 0
0.6304347826096719 0.5647991763813878 0
0.6521739130445414 0.6024524548067653 0
0.6739130434793925 0.6401057332321106 0
0.6956521739142635 0.6777590116574905 0
0.7173913043491345 0.7154122900828706 0
0.7391304347839929 0.7530655685082286 0
0.7608695652189084 0.7907188469336858 0
0.7826086956537894 0.8283721253590829 0
0.3695652173905519 0.03765327842541062 0
0.391304347825476 0.07530655685085473 0
0.413043478260406 0.1129598352763089 0
0.4347826086953291 0.1506131137017516 0
0.4565217391302525 0.1882663921271943 0
0.4782608695651772 0.2259196705526396 0
0.5000000000001011 0.2635729489780832 0
0.5217391304350248 0.3012262274035267 0
0.5434782608699485 0.3388795058289702 0
0.5652173913048761 0.3765327842544205 0
0.5869565217397946 0.4141860626798552 0
0.6086956521746896 0.4518393411052483 0
0.6304347826095564 0.4894926195305939 0
0.6521739130444318 0.5271458979559536 0
0.673913043479321 0.564799176381337 0
0.6956521739142105 0.6024524548067215 0
0.7173913043490832 0.6401057332320763 0
0.7391304347839742 0.6777590116574632 0
0.7608695652188651 0.7154122900828501 0
0.7826086956537447 0.7530655685082168 0
0.8043478260886774 0.7907188469336759 0
0.8260869565235771 0.8283721253590781 0
0.413043478260004 0.03765327842540693 0
0.4347826086949408 0.07530655685084515 0
0.4565217391298831 0.1129598352762932 0
0.4782608695648179 0.1506131137017282 0
0.4999999999997528 0.188266392127163 0
0.5217391304346892 0.2259196705526008 0
0.5434782608696246 0.2635729489780369 0
0.5652173913045603 0.3012262274034735 0
0.5869565217394961 0.33887950582891 0
0.6086956521744347 0.3765327842543512 0
0.6304347826093643 0.4141860626797774 0
0.6521739130442752 0.4518393411051711 0
0.6739130434791641 0.4894926195305261 0
0.6956521739140613 0.5271458979558959 0
0.7173913043489701 0.5647991763812864 0
0.7391304347838799 0.6024524548066778 0
0.7608695652187738 0.6401057332320416 0
0.782608695653685 0.6777590116574357 0
0.8043478260885962 0.7154122900828299 0
0.8260869565234963 0.7530655685082049 0
0.8478260869584464 0.7907188469336661 0
0.8695652173933652 0.8283721253590735 0
0.4565217391294563 0.03765327842540324 0
0.4782608695644057 0.07530655685083561 0
0.4999999999993606 0.1129598352762776 0
0.5217391304343068 0.1506131137017047 0
0.5434782608692533 0.1882663921271317 0
0.5652173913042013 0.2259196705525621 0
0.5869565217391483 0.2635729489779904 0
0.6086956521740964 0.3012262274034204 0
0.630434782609044 0.3388795058288501 0
0.652173913043993 0.3765327842542818 0
0.6739130434789339 0.4141860626796997 0
0.6956521739138612 0.4518393411050937 0
0.7173913043487716 0.4894926195304584 0
0.7391304347836904 0.5271458979558384 0
0.7608695652186197 0.5647991763812359 0
0.782608695653549 0.6024524548066338 0
0.8043478260884644 0.6401057332320073 0
0.8260869565233958 0.6777590116574082 0
0.847826086958327 0.7154122900828097 0
0.8695652173932482 0.7530655685081931 0
0.8913043478282155 0.7907188469336563 0
0.9130434782631534 0.828372125359069 0
0.4999999999989084 0.03765327842539953 0
0.5217391304338704 0.07530655685082603 0
0.5434782608688379 0.1129598352762619 0
0.5652173913037956 0.1506131137016813 0
0.5869565217387532 0.1882663921271004 0
0.6086956521737134 0.2259196705525233 0
0.630434782608672 0.2635729489779441 0
0.6521739130436318 0.3012262274033672 0
0.673913043478592 0.3388795058287902 0
0.6956521739135513 0.3765327842542124 0
0.7173913043485036 0.4141860626796219 0
0.7391304347834469 0.4518393411050163 0
0.7608695652183787 0.4894926195303907 0
0.78260869565332 0.5271458979557813 0
0.8043478260882688 0.5647991763811853 0
0.8260869565232184 0.6024524548065904 0
0.8478260869581552 0.6401057332319726 0
0.8695652173931064 0.6777590116573808 0
0.8913043478280579 0.7154122900827893 0
0.9130434782630001 0.7530655685081813 0
0.9347826086979846 0.7907188469336466 0
0.9565217391329414 0.8283721253590646 0
0.5434782608684658 0.03765327842539584 0
0.5652173913034246 0.07530655685081648 0
0.5869565217383887 0.1129598352762462 0
0.6086956521733423 0.1506131137016578 0
0.630434782608296 0.1882663921270691 0
0.6521739130432517 0.2259196705524846 0
0.6739130434782065 0.2635729489778977 0
0.6956521739131625 0.3012262274033141 0
0.7173913043481188 0.3388795058287301 0
0.7391304347830732 0.376532784254143 0
0.7608695652180207 0.4141860626795442 0
0.7826086956529643 0.451839341104939 0
0.8043478260879025 0.489492619530323 0
0.8260869565228497 0.5271458979557238 0
0.8478260869578028 0.5647991763811349 0
0.8695652173927566 0.6024524548065463 0
0.8913043478276986 0.640105733231938 0
0.9130434782626546 0.6777590116573535 0
0.9347826086976101 0.7154122900827689 0
0.9565217391325578 0.7530655685081695 0
0.9782608695675438 0.7907188469336374 0
1.000000000002504 0.8283721253590599 0
0.586956521738128 0.03765327842539215 0
0.6086956521730681 0.07530655685080695 0
0.6304347826080131 0.1129598352762306 0
0.6521739130429467 0.1506131137016343 0
0.6739130434778802 0.1882663921270378 0
0.6956521739128162 0.2259196705524458 0
0.7173913043477511 0.2635729489778513 0
0.7391304347826878 0.3012262274032609 0
0.7608695652176244 0.33887950582867 0
0.7826086956525581 0.3765327842540737 0
0.8043478260874855 0.4141860626794663 0
0.826086956522414 0.4518393411048617 0
0.8478260869573415 0.4894926195302553 0
0.8695652173922793 0.5271458979556662 0
0.8913043478272216 0.5647991763810842 0
0.9130434782621635 0.6024524548065028 0
0.9347826086970955 0.6401057332319036 0
0.9565217391320396 0.677759011657326 0
0.9782608695669842 0.7154122900827486 0
1.000000000001921 0.7530655685081575 0
1.021739130436893 0.7907188469336275 0
1.04347826087184 0.8283721253590552 0
0.6304347826077904 0.03765327842538845 0
0.6521739130427117 0.07530655685079739 0
0.6739130434776377 0.1129598352762149 0
0.6956521739125511 0.1506131137016109 0
0.7173913043474647 0.1882663921270066 0
0.7391304347823807 0.2259196705524071 0
0.7608695652172957 0.263572948977805 0
0.7826086956522131 0.3012262274032077 0
0.8043478260871303 0.33887950582861 0
0.8260869565220431 0.3765327842540043 0
0.8478260869569499 0.4141860626793885 0
0.8695652173918634 0.4518393411047843 0
0.8913043478267813 0.4894926195301876 0
0.9130434782617093 0.5271458979556088 0
0.9347826086966396 0.5647991763810338 0
0.9565217391315699 0.6024524548064589 0
0.9782608695664922 0.6401057332318691 0
1.000000000001425 0.6777590116572985 0
1.021739130436358 0.7154122900827282 0
1.043478260871284 0.7530655685081458 0
1.065217391306242 0.7907188469336179 0
1.086956521741177 0.8283721253590508 0
0.6739130434774525 0.03765327842538476 0
0.6956521739123548 0.07530655685078783 0
0.7173913043472619 0.1129598352761992 0
0.7391304347821558 0.1506131137015874 0
0.7608695652170493 0.1882663921269753 0
0.7826086956519456 0.2259196705523683 0
0.8043478260868405 0.2635729489777586 0
0.8260869565217382 0.3012262274031545 0
0.8478260869566363 0.3388795058285501 0
0.8695652173915279 0.3765327842539348 0
0.8913043478264147 0.4141860626793108 0
0.9130434782613129 0.4518393411047069 0
0.9347826086962211 0.4894926195301199 0
0.9565217391311394 0.5271458979555513 0
0.9782608695660582 0.5647991763809831 0
1.000000000000977 0.6024524548064154 0
1.021739130435889 0.6401057332318345 0
1.04347826087081 0.6777590116572713 0
1.065217391305732 0.715412290082708 0
1.086956521740648 0.753065568508134 0
1.108695652175591 0.7907188469336082 0
1.130434782610513 0.8283721253590465 0
0.7173913043471147 0.03765327842538106 0
0.7391304347819982 0.07530655685077829 0
0.7608695652168862 0.1129598352761836 0
0.7826086956517599 0.1506131137015639 0
0.8043478260866331 0.188266392126944 0
0.8260869565215101 0.2259196705523296 0
0.8478260869563851 0.2635729489777123 0
0.8695652173912638 0.3012262274031013 0
0.891304347826142 0.3388795058284899 0
0.9130434782610132 0.3765327842538654 0
0.9347826086958794 0.4141860626792331 0
0.9565217391307622 0.4518393411046295 0
0.9782608695656604 0.4894926195300522 0
1.000000000000569 0.5271458979554939 0
1.021739130435477 0.5647991763809326 0
1.043478260870384 0.6024524548063713 0
1.065217391305286 0.6401057332317999 0
1.086956521740196 0.6777590116572438 0
1.108695652175106 0.7154122900826876 0
1.130434782610011 0.7530655685081219 0
1.15217391304494 0.7907188469335983 0
1.17391304347985 0.8283721253590419 0
0.7608695652167771 0.03765327842537737 0
0.7826086956516416 0.07530655685076874 0
0.8043478260865107 0.1129598352761678 0
0.8260869565213645 0.1506131137015405 0
0.8478260869562179 0.1882663921269127 0
0.8695652173910747 0.2259196705522908 0
0.8913043478259298 0.2635729489776659 0
0.9130434782607891 0.3012262274030482 0
0.9347826086956481 0.33887950582843 0
0.9565217391304983 0.376532784253796 0
0.9782608695653442 0.4141860626791553 0
1.000000000000212 0.4518393411045523 0
1.0217391304351 0.4894926195299844 0
1.043478260869999 0.5271458979554366 0
1.065217391304895 0.5647991763808818 0
1.086956521739791 0.6024524548063276 0
1.108695652174682 0.6401057332317655 0
1.130434782609581 0.6777590116572163 0
1.15217391304448 0.7154122900826674 0
1.173913043479375 0.7530655685081101 0
1.195652173914289 0.7907188469335887 0
1.217391304349187 0.8283721253590373 0
0.8043478260864394 0.03765327842537367 0
0.8260869565212849 0.0753065568507592 0
0.8478260869561349 0.1129598352761522 0
0.8695652173909689 0.1506131137015171 0
0.8913043478258023 0.1882663921268814 0
0.9130434782606394 0.225919670552252 0
0.9347826086954746 0.2635729489776195 0
0.9565217391303144 0.301226227402995 0
0.978260869565154 0.3388795058283701 0
0.9999999999999833 0.3765327842537266 0
1.021739130434808 0.4141860626790775 0
1.043478260869661 0.4518393411044749 0
1.065217391304539 0.4894926195299167 0
1.086956521739429 0.5271458979553791 0
1.108695652174314 0.5647991763808312 0
1.130434782609198 0.6024524548062838 0
1.152173913044079 0.6401057332317308 0
1.173913043478967 0.6777590116571888 0
1.195652173913854 0.7154122900826473 0
1.217391304348738 0.7530655685080985 0
1.239130434783639 0.7907188469335791 0
1.260869565218524 0.8283721253590327 0
0.8478260869561017 0.03765327842536997 0
0.8695652173909285 0.07530655685074962 0
0.8913043478257594 0.1129598352761365 0
0.9130434782605734 0.1506131137014936 0
0.9347826086953867 0.1882663921268501 0
0.9565217391302039 0.2259196705522133 0
0.9782608695650191 0.2635729489775731 0
0.9999999999998395 0.3012262274029418 0
1.02173913043466 0.3388795058283102 0
1.043478260869468 0.3765327842536572 0
1.065217391304274 0.4141860626789997 0
1.086956521739111 0.4518393411043974 0
1.108695652173979 0.4894926195298489 0
1.130434782608859 0.5271458979553216 0
1.152173913043732 0.5647991763807807 0
1.173913043478605 0.6024524548062402 0
1.195652173913476 0.6401057332316963 0
1.217391304348352 0.6777590116571616 0
1.239130434783228 0.7154122900826269 0
1.260869565218101 0.7530655685080865 0
1.282608695652987 0.7907188469335693 0
1.30434782608786 0.8283721253590282 0
0.891304347825764 0.03765327842536628 0
0.9130434782605719 0.07530655685074007 0
0.934782608695384 0.1129598352761208 0
0.9565217391301776 0.1506131137014701 0
0.9782608695649712 0.1882663921268188 0
0.9999999999997686 0.2259196705521745 0
1.021739130434564 0.2635729489775266 0
1.043478260869365 0.3012262274028886 0
1.065217391304166 0.3388795058282499 0
1.086956521738953 0.3765327842535878 0
1.108695652173738 0.4141860626789219 0
1.13043478260856 0.4518393411043202 0
1.152173913043418 0.4894926195297812 0
1.173913043478289 0.5271458979552643 0
1.19565217391315 0.5647991763807302 0
1.217391304348012 0.6024524548061962 0
1.239130434782873 0.6401057332316616 0
1.260869565217737 0.6777590116571343 0
1.282608695652602 0.7154122900826064 0
1.304347826087465 0.7530655685080747 0
1.326086956522337 0.7907188469335596 0
1.347826086957197 0.8283721253590238 0
0.9347826086954262 0.03765327842536258 0
0.9565217391302153 0.07530655685073052 0
0.9782608695650082 0.1129598352761052 0
0.9999999999997822 0.1506131137014466 0
1.021739130434555 0.1882663921267876 0
1.043478260869333 0.2259196705521358 0
1.065217391304109 0.2635729489774803 0
1.08695652173889 0.3012262274028354 0
1.108695652173671 0.3388795058281899 0
1.130434782608438 0.3765327842535184 0
1.152173913043203 0.4141860626788441 0
1.17391304347801 0.4518393411042428 0
1.195652173912858 0.4894926195297135 0
1.217391304347719 0.5271458979552068 0
1.239130434782569 0.5647991763806799 0
1.260869565217418 0.6024524548061526 0
1.28260869565227 0.6401057332316271 0
1.304347826087123 0.6777590116571067 0
1.326086956521976 0.7154122900825862 0
1.347826086956828 0.7530655685080629 0
1.369565217391686 0.7907188469335499 0
1.391304347826534 0.8283721253590192 0
0.9782608695650886 0.03765327842535889 0
0.9999999999998586 0.07530655685072095 0
1.021739130434633 0.1129598352760895 0
1.043478260869387 0.1506131137014232 0
1.06521739130414 0.1882663921267563 0
1.086956521738898 0.2259196705520971 0
1.108695652173654 0.2635729489774339 0
1.130434782608416 0.3012262274027823 0
1.152173913043177 0.33887950582813 0
1.173913043477923 0.376532784253449 0
1.195652173912668 0.4141860626787663 0
1.217391304347459 0.4518393411041655 0
1.239130434782297 0.4894926195296458 0
1.26086956521715 0.5271458979551492 0
1.282608695651987 0.5647991763806292 0
1.304347826086826 0.602452454806109 0
1.326086956521666 0.6401057332315927 0
1.347826086956508 0.6777590116570792 0
1.36956521739135 0.7154122900825659 0
1.391304347826192 0.753065568508051 0
1.413043478261035 0.7907188469335403 0
1.434782608695869 0.8283721253590146 0
$EndNodes
$Elements
6 4324 1 11826
1 1 1 23
1 1 5 
2 5 6 
3 6 7 
4 7 8 
5 8 9 
6 9 10 
7 10 11 
8 11 12 
9 12 13 
10 13 14 
11 14 15 
12 15 16 
13 16 17 
14 17 18 
15 18 19 
16 19 20 
17 20 21 
18 21 22 
19 22 23 
20 23 24 
21 24 25 
22 25 26 
23 26 2 
1 2 1 23
24 2 27 
25 27 28 
26 28 29 
27 29 30 
28 30 31 
29 31 32 
30 32 33 
31 33 34 
32 34 35 
33 35 36 
34 36 37 
35 37 38 
36 38 39 
37 39 40 
38 40 41 
39 41 42 
40 42 43 
41 43 44 
42 44 45 
43 45 46 
44 46 47 
45 47 48 
46 48 3 
1 3 1 23
47 3 49 
48 49 50 
49 50 51 
50 51 52 
51 52 53 
52 53 54 
53 54 55 
54 55 56 
55 56 57 
56 57 58 
57 58 59 
58 59 60 
59 60 61 
60 61 62 
61 62 63 
62 63 64 
63 64 65 
64 65 66 
65 66 67 
66 67 68 
67 68 69 
68 69 70 
69 70 4 
1 4 1 23
70 4 71 
71 71 72 
72 72 73 
73 73 74 
74 74 75 
75 75 76 
76 76 77 
77 77 78 
78 78 79 
79 79 80 
80 80 81 
81 81 82 
82 82 83 
83 83 84 
84 84 85 
85 85 86 
86 86 87 
87 87 88 
88 88 89 
89 89 90 
90 90 91 
91 91 92 
92 92 1 
1 5 1 3174
8653 1 5 
8654 5 92 
8655 92 1 
8656 92 5 
8657 5 93 
8658 93 92 
8659 92 93 
8660 93 94 
8661 94 92 
8662 94 91 
8663 91 92 
8664 92 94 
8665 91 94 
8666 94 90 
8667 90 91 
8668 90 94 
8669 94 95 
8670 95 90 
8671 90 95 
8672 95 96 
8673 96 90 
8674 96 89 
8675 89 90 
8676 90 96 
8677 89 96 
8678 96 88 
8679 88 89 
8680 88 96 
8681 96 97 
8682 97 88 
8683 88 97 
8684 97 98 
8685 98 88 
8686 98 87 
8687 87 88 
8688 88 98 
8689 87 98 
8690 98 86 
8691 86 87 
8692 86 98 
8693 98 99 
8694 99 86 
8695 86 99 
8696 99 100 
8697 100 86 
8698 100 85 
8699 85 86 
8700 86 100 
8701 85 100 
8702 100 84 
8703 84 85 
8704 84 100 
8705 100 101 
8706 101 84 
8707 84 101 
8708 101 102 
8709 102 84 
8710 102 83 
8711 83 84 
8712 84 102 
8713 83 102 
8714 102 82 
8715 82 83 
8716 82 102 
8717 102 103 
8718 103 82 
8719 82 103 
8720 103 104 
8721 104 82 
8722 104 81 
8723 81 82 
8724 82 104 
8725 81 104 
8726 104 80 
8727 80 81 
8728 80 104 
8729 104 105 
8730 105 80 
8731 80 105 
8732 105 106 
8733 106 80 
8734 106 79 
8735 79 80 
8736 80 106 
8737 79 106 
8738 106 78 
8739 78 79 
8740 78 106 
8741 106 107 
8742 107 78 
8743 78 107 
8744 107 108 
8745 108 78 
8746 108 77 
8747 77 78 
8748 78 108 
8749 77 108 
8750 108 76 
8751 76 77 
8752 76 108 
8753 108 109 
8754 109 76 
8755 76 109 
8756 109 110 
8757 110 76 
8758 110 75 
8759 75 76 
8760 76 110 
8761 75 110 
8762 110 74 
8763 74 75 
8764 74 110 
8765 110 111 
8766 111 74 
8767 74 111 
8768 111 112 
8769 112 74 
8770 112 73 
8771 73 74 
8772 74 112 
8773 73 112 
8774 112 72 
8775 72 73 
8776 72 112 
8777 112 113 
8778 113 72 
8779 72 113 
8780 113 114 
8781 114 72 
8782 114 71 
8783 71 72 
8784 72 114 
8785 71 114 
8786 114 4 
8787 4 71 
8788 4 114 
8789 114 70 
8790 70 4 
8791 5 6 
8792 6 115 
8793 115 5 
8794 115 93 
8795 93 5 
8796 5 115 
8797 93 115 
8798 115 94 
8799 94 93 
8800 94 115 
8801 115 116 
8802 116 94 
8803 94 116 
8804 116 117 
8805 117 94 
8806 117 95 
8807 95 94 
8808 94 117 
8809 95 117 
8810 117 96 
8811 96 95 
8812 96 117 
8813 117 118 
8814 118 96 
8815 96 118 
8816 118 119 
8817 119 96 
8818 119 97 
8819 97 96 
8820 96 119 
8821 97 119 
8822 119 98 
8823 98 97 
8824 98 119 
8825 119 120 
8826 120 98 
8827 98 120 
8828 120 121 
8829 121 98 
8830 121 99 
8831 99 98 
8832 98 121 
8833 99 121 
8834 121 100 
8835 100 99 
8836 100 121 
8837 121 122 
8838 122 100 
8839 100 122 
8840 122 123 
8841 123 100 
8842 123 101 
8843 101 100 
8844 100 123 
8845 101 123 
8846 123 102 
8847 102 101 
8848 102 123 
8849 123 124 
8850 124 102 
8851 102 124 
8852 124 125 
8853 125 102 
8854 125 103 
8855 103 102 
8856 102 125 
8857 103 125 
8858 125 104 
8859 104 103 
8860 104 125 
8861 125 126 
8862 126 104 
8863 104 126 
8864 126 127 
8865 127 104 
8866 127 105 
8867 105 104 
8868 104 127 
8869 105 127 
8870 127 106 
8871 106 105 
8872 106 127 
8873 127 128 
8874 128 106 
8875 106 128 
8876 128 129 
8877 129 106 
8878 129 107 
8879 107 106 
8880 106 129 
8881 107 129 
8882 129 108 
8883 108 107 
8884 108 129 
8885 129 130 
8886 130 108 
8887 108 130 
8888 130 131 
8889 131 108 
8890 131 109 
8891 109 108 
8892 108 131 
8893 109 131 
8894 131 110 
8895 110 109 
8896 110 131 
8897 131 132 
8898 132 110 
8899 110 132 
8900 132 133 
8901 133 110 
8902 133 111 
8903 111 110 
8904 110 133 
8905 111 133 
8906 133 112 
8907 112 111 
8908 112 133 
8909 133 134 
8910 134 112 
8911 112 134 
8912 134 135 
8913 135 112 
8914 135 113 
8915 113 112 
8916 112 135 
8917 113 135 
8918 135 114 
8919 114 113 
8920 114 135 
8921 135 136 
8922 136 114 
8923 114 136 
8924 136 69 
8925 69 114 
8926 69 70 
8927 70 114 
8928 114 69 
8929 6 7 
8930 7 115 
8931 115 6 
8932 115 7 
8933 7 137 
8934 137 115 
8935 115 137 
8936 137 138 
8937 138 115 
8938 138 116 
8939 116 115 
8940 115 138 
8941 116 138 
8942 138 117 
8943 117 116 
8944 117 138 
8945 138 139 
8946 139 117 
8947 117 139 
8948 139 140 
8949 140 117 
8950 140 118 
8951 118 117 
8952 117 140 
8953 118 140 
8954 140 119 
8955 119 118 
8956 119 140 
8957 140 141 
8958 141 119 
8959 119 141 
8960 141 142 
8961 142 119 
8962 142 120 
8963 120 119 
8964 119 142 
8965 120 142 
8966 142 121 
8967 121 120 
8968 121 142 
8969 142 143 
8970 143 121 
8971 121 143 
8972 143 144 
8973 144 121 
8974 144 122 
8975 122 121 
8976 121 144 
8977 122 144 
8978 144 123 
8979 123 122 
8980 123 144 
8981 144 145 
8982 145 123 
8983 123 145 
8984 145 146 
8985 146 123 
8986 146 124 
8987 124 123 
8988 123 146 
8989 124 146 
8990 146 125 
8991 125 124 
8992 125 146 
8993 146 147 
8994 147 125 
8995 125 147 
8996 147 148 
8997 148 125 
8998 148 126 
8999 126 125 
9000 125 148 
9001 126 148 
9002 148 127 
9003 127 126 
9004 127 148 
9005 148 149 
9006 149 127 
9007 127 149 
9008 149 150 
9009 150 127 
9010 150 128 
9011 128 127 
9012 127 150 
9013 128 150 
9014 150 129 
9015 129 128 
9016 129 150 
9017 150 151 
9018 151 129 
9019 129 151 
9020 151 152 
9021 152 129 
9022 152 130 
9023 130 129 
9024 129 152 
9025 130 152 
9026 152 131 
9027 131 130 
9028 131 152 
9029 152 153 
9030 153 131 
9031 131 153 
9032 153 154 
9033 154 131 
9034 154 132 
9035 132 131 
9036 131 154 
9037 132 154 
9038 154 133 
9039 133 132 
9040 133 154 
9041 154 155 
9042 155 133 
9043 133 155 
9044 155 156 
9045 156 133 
9046 156 134 
9047 134 133 
9048 133 156 
9049 134 156 
9050 156 135 
9051 135 134 
9052 135 156 
9053 156 157 
9054 157 135 
9055 135 157 
9056 157 158 
9057 158 135 
9058 158 136 
9059 136 135 
9060 135 158 
9061 136 158 
9062 158 69 
9063 69 136 
9064 69 158 
9065 158 68 
9066 68 69 
9067 7 8 
9068 8 159 
9069 159 7 
9070 159 137 
9071 137 7 
9072 7 159 
9073 137 159 
9074 159 138 
9075 138 137 
9076 138 159 
9077 159 160 
9078 160 138 
9079 138 160 
9080 160 161 
9081 161 138 
9082 161 139 
9083 139 138 
9084 138 161 
9085 139 161 
9086 161 140 
9087 140 139 
9088 140 161 
9089 161 162 
9090 162 140 
9091 140 162 
9092 162 163 
9093 163 140 
9094 163 141 
9095 141 140 
9096 140 163 
9097 141 163 
9098 163 142 
9099 142 141 
9100 142 163 
9101 163 164 
9102 164 142 
9103 142 164 
9104 164 165 
9105 165 142 
9106 165 143 
9107 143 142 
9108 142 165 
9109 143 165 
9110 165 144 
9111 144 143 
9112 144 165 
9113 165 166 
9114 166 144 
9115 144 166 
9116 166 167 
9117 167 144 
9118 167 145 
9119 145 144 
9120 144 167 
9121 145 167 
9122 167 146 
9123 146 145 
9124 146 167 
9125 167 168 
9126 168 146 
9127 146 168 
9128 168 169 
9129 169 146 
9130 169 147 
9131 147 146 
9132 146 169 
9133 147 169 
9134 169 148 
9135 148 147 
9136 148 169 
9137 169 170 
9138 170 148 
9139 148 170 
9140 170 171 
9141 171 148 
9142 171 149 
9143 149 148 
9144 148 171 
9145 149 171 
9146 171 150 
9147 150 149 
9148 150 171 
9149 171 172 
9150 172 150 
9151 150 172 
9152 172 173 
9153 173 150 
9154 173 151 
9155 151 150 
9156 150 173 
9157 151 173 
9158 173 152 
9159 152 151 
9160 152 173 
9161 173 174 
9162 174 152 
9163 152 174 
9164 174 175 
9165 175 152 
9166 175 153 
9167 153 152 
9168 152 175 
9169 153 175 
9170 175 154 
9171 154 153 
9172 154 175 
9173 175 176 
9174 176 154 
9175 154 176 
9176 176 177 
9177 177 154 
9178 177 155 
9179 155 154 
9180 154 177 
9181 155 177 
9182 177 156 
9183 156 155 
9184 156 177 
9185 177 178 
9186 178 156 
9187 156 178 
9188 178 179 
9189 179 156 
9190 179 157 
9191 157 156 
9192 156 179 
9193 157 179 
9194 179 158 
9195 158 157 
9196 158 179 
9197 179 180 
9198 180 158 
9199 158 180 
9200 180 67 
9201 67 158 
9202 67 68 
9203 68 158 
9204 158 67 
9205 8 9 
9206 9 159 
9207 159 8 
9208 159 9 
9209 9 181 
9210 181 159 
9211 159 181 
9212 181 182 
9213 182 159 
9214 182 160 
9215 160 159 
9216 159 182 
9217 160 182 
9218 182 161 
9219 161 160 
9220 161 182 
9221 182 183 
9222 183 161 
9223 161 183 
9224 183 184 
9225 184 161 
9226 184 162 
9227 162 161 
9228 161 184 
9229 162 184 
9230 184 163 
9231 163 162 
9232 163 184 
9233 184 185 
9234 185 163 
9235 163 185 
9236 185 186 
9237 186 163 
9238 186 164 
9239 164 163 
9240 163 186 
9241 164 186 
9242 186 165 
9243 165 164 
9244 165 186 
9245 186 187 
9246 187 165 
9247 165 187 
9248 187 188 
9249 188 165 
9250 188 166 
9251 166 165 
9252 165 188 
9253 166 188 
9254 188 167 
9255 167 166 
9256 167 188 
9257 188 189 
9258 189 167 
9259 167 189 
9260 189 190 
9261 190 167 
9262 190 168 
9263 168 167 
9264 167 190 
9265 168 190 
9266 190 169 
9267 169 168 
9268 169 190 
9269 190 191 
9270 191 169 
9271 169 191 
9272 191 192 
9273 192 169 
9274 192 170 
9275 170 169 
9276 169 192 
9277 170 192 
9278 192 171 
9279 171 170 
9280 171 192 
9281 192 193 
9282 193 171 
9283 171 193 
9284 193 194 
9285 194 171 
9286 194 172 
9287 172 171 
9288 171 194 
9289 172 194 
9290 194 173 
9291 173 172 
9292 173 194 
9293 194 195 
9294 195 173 
9295 173 195 
9296 195 196 
9297 196 173 
9298 196 174 
9299 174 173 
9300 173 196 
9301 174 196 
9302 196 175 
9303 175 174 
9304 175 196 
9305 196 197 
9306 197 175 
9307 175 197 
9308 197 198 
9309 198 175 
9310 198 176 
9311 176 175 
9312 175 198 
9313 176 198 
9314 198 177 
9315 177 176 
9316 177 198 
9317 198 199 
9318 199 177 
9319 177 199 
9320 199 200 
9321 200 177 
9322 200 178 
9323 178 177 
9324 177 200 
9325 178 200 
9326 200 179 
9327 179 178 
9328 179 200 
9329 200 201 
9330 201 179 
9331 179 201 
9332 201 202 
9333 202 179 
9334 202 180 
9335 180 179 
9336 179 202 
9337 180 202 
9338 202 67 
9339 67 180 
9340 67 202 
9341 202 66 
9342 66 67 
9343 9 10 
9344 10 203 
9345 203 9 
9346 203 181 
9347 181 9 
9348 9 203 
9349 181 203 
9350 203 182 
9351 182 181 
9352 182 203 
9353 203 204 
9354 204 182 
9355 182 204 
9356 204 205 
9357 205 182 
9358 205 183 
9359 183 182 
9360 182 205 
9361 183 205 
9362 205 184 
9363 184 183 
9364 184 205 
9365 205 206 
9366 206 184 
9367 184 206 
9368 206 207 
9369 207 184 
9370 207 185 
9371 185 184 
9372 184 207 
9373 185 207 
9374 207 186 
9375 186 185 
9376 186 207 
9377 207 208 
9378 208 186 
9379 186 208 
9380 208 209 
9381 209 186 
9382 209 187 
9383 187 186 
9384 186 209 
9385 187 209 
9386 209 188 
9387 188 187 
9388 188 209 
9389 209 210 
9390 210 188 
9391 188 210 
9392 210 211 
9393 211 188 
9394 211 189 
9395 189 188 
9396 188 211 
9397 189 211 
9398 211 190 
9399 190 189 
9400 190 211 
9401 211 212 
9402 212 190 
9403 190 212 
9404 212 213 
9405 213 190 
9406 213 191 
9407 191 190 
9408 190 213 
9409 191 213 
9410 213 192 
9411 192 191 
9412 192 213 
9413 213 214 
9414 214 192 
9415 192 214 
9416 214 215 
9417 215 192 
9418 215 193 
9419 193 192 
9420 192 215 
9421 193 215 
9422 215 194 
9423 194 193 
9424 194 215 
9425 215 216 
9426 216 194 
9427 194 216 
9428 216 217 
9429 217 194 
9430 217 195 
9431 195 194 
9432 194 217 
9433 195 217 
9434 217 196 
9435 196 195 
9436 196 217 
9437 217 218 
9438 218 196 
9439 196 218 
9440 218 219 
9441 219 196 
9442 219 197 
9443 197 196 
9444 196 219 
9445 197 219 
9446 219 198 
9447 198 197 
9448 198 219 
9449 219 220 
9450 220 198 
9451 198 220 
9452 220 221 
9453 221 198 
9454 221 199 
9455 199 198 
9456 198 221 
9457 199 221 
9458 221 200 
9459 200 199 
9460 200 221 
9461 221 222 
9462 222 200 
9463 200 222 
9464 222 223 
9465 223 200 
9466 223 201 
9467 201 200 
9468 200 223 
9469 201 223 
9470 223 202 
9471 202 201 
9472 202 223 
9473 223 224 
9474 224 202 
9475 202 224 
9476 224 65 
9477 65 202 
9478 65 66 
9479 66 202 
9480 202 65 
9481 10 11 
9482 11 203 
9483 203 10 
9484 203 11 
9485 11 225 
9486 225 203 
9487 203 225 
9488 225 226 
9489 226 203 
9490 226 204 
9491 204 203 
9492 203 226 
9493 204 226 
9494 226 205 
9495 205 204 
9496 205 226 
9497 226 227 
9498 227 205 
9499 205 227 
9500 227 228 
9501 228 205 
9502 228 206 
9503 206 205 
9504 205 228 
9505 206 228 
9506 228 207 
9507 207 206 
9508 207 228 
9509 228 229 
9510 229 207 
9511 207 229 
9512 229 230 
9513 230 207 
9514 230 208 
9515 208 207 
9516 207 230 
9517 208 230 
9518 230 209 
9519 209 208 
9520 209 230 
9521 230 231 
9522 231 209 
9523 209 231 
9524 231 232 
9525 232 209 
9526 232 210 
9527 210 209 
9528 209 232 
9529 210 232 
9530 232 211 
9531 211 210 
9532 211 232 
9533 232 233 
9534 233 211 
9535 211 233 
9536 233 234 
9537 234 211 
9538 234 212 
9539 212 211 
9540 211 234 
9541 212 234 
9542 234 213 
9543 213 212 
9544 213 234 
9545 234 235 
9546 235 213 
9547 213 235 
9548 235 236 
9549 236 213 
9550 236 214 
9551 214 213 
9552 213 236 
9553 214 236 
9554 236 215 
9555 215 214 
9556 215 236 
9557 236 237 
9558 237 215 
9559 215 237 
9560 237 238 
9561 238 215 
9562 238 216 
9563 216 215 
9564 215 238 
9565 216 238 
9566 238 217 
9567 217 216 
9568 217 238 
9569 238 239 
9570 239 217 
9571 217 239 
9572 239 240 
9573 240 217 
9574 240 218 
9575 218 217 
9576 217 240 
9577 218 240 
9578 240 219 
9579 219 218 
9580 219 240 
9581 240 241 
9582 241 219 
9583 219 241 
9584 241 242 
9585 242 219 
9586 242 220 
9587 220 219 
9588 219 242 
9589 220 242 
9590 242 221 
9591 221 220 
9592 221 242 
9593 242 243 
9594 243 221 
9595 221 243 
9596 243 244 
9597 244 221 
9598 244 222 
9599 222 221 
9600 221 244 
9601 222 244 
9602 244 223 
9603 223 222 
9604 223 244 
9605 244 245 
9606 245 223 
9607 223 245 
9608 245 246 
9609 246 223 
9610 246 224 
9611 224 223 
9612 223 246 
9613 224 246 
9614 246 65 
9615 65 224 
9616 65 246 
9617 246 64 
9618 64 65 
9619 11 12 
9620 12 247 
9621 247 11 
9622 247 225 
9623 225 11 
9624 11 247 
9625 225 247 
9626 247 226 
9627 226 225 
9628 226 247 
9629 247 248 
9630 248 226 
9631 226 248 
9632 248 249 
9633 249 226 
9634 249 227 
9635 227 226 
9636 226 249 
9637 227 249 
9638 249 228 
9639 228 227 
9640 228 249 
9641 249 250 
9642 250 228 
9643 228 250 
9644 250 251 
9645 251 228 
9646 251 229 
9647 229 228 
9648 228 251 
9649 229 251 
9650 251 230 
9651 230 229 
9652 230 251 
9653 251 252 
9654 252 230 
9655 230 252 
9656 252 253 
9657 253 230 
9658 253 231 
9659 231 230 
9660 230 253 
9661 231 253 
9662 253 232 
9663 232 231 
9664 232 253 
9665 253 254 
9666 254 232 
9667 232 254 
9668 254 255 
9669 255 232 
9670 255 233 
9671 233 232 
9672 232 255 
9673 233 255 
9674 255 234 
9675 234 233 
9676 234 255 
9677 255 256 
9678 256 234 
9679 234 256 
9680 256 257 
9681 257 234 
9682 257 235 
9683 235 234 
9684 234 257 
9685 235 257 
9686 257 236 
9687 236 235 
9688 236 257 
9689 257 258 
9690 258 236 
9691 236 258 
9692 258 259 
9693 259 236 
9694 259 237 
9695 237 236 
9696 236 259 
9697 237 259 
9698 259 238 
9699 238 237 
9700 238 259 
9701 259 260 
9702 260 238 
9703 238 260 
9704 260 261 
9705 261 238 
9706 261 239 
9707 239 238 
9708 238 261 
9709 239 261 
9710 261 240 
9711 240 239 
9712 240 261 
9713 261 262 
9714 262 240 
9715 240 262 
9716 262 263 
9717 263 240 
9718 263 241 
9719 241 240 
9720 240 263 
9721 241 263 
9722 263 242 
9723 242 241 
9724 242 263 
9725 263 264 
9726 264 242 
9727 242 264 
9728 264 265 
9729 265 242 
9730 265 243 
9731 243 242 
9732 242 265 
9733 243 265 
9734 265 244 
9735 244 243 
9736 244 265 
9737 265 266 
9738 266 244 
9739 244 266 
9740 266 267 
9741 267 244 
9742 267 245 
9743 245 244 
9744 244 267 
9745 245 267 
9746 267 246 
9747 246 245 
9748 246 267 
9749 267 268 
9750 268 246 
9751 246 268 
9752 268 63 
9753 63 246 
9754 63 64 
9755 64 246 
9756 246 63 
9757 12 13 
9758 13 247 
9759 247 12 
9760 247 13 
9761 13 269 
9762 269 247 
9763 247 269 
9764 269 270 
9765 270 247 
9766 270 248 
9767 248 247 
9768 247 270 
9769 248 270 
9770 270 249 
9771 249 248 
9772 249 270 
9773 270 271 
9774 271 249 
9775 249 271 
9776 271 272 
9777 272 249 
9778 272 250 
9779 250 249 
9780 249 272 
9781 250 272 
9782 272 251 
9783 251 250 
9784 251 272 
9785 272 273 
9786 273 251 
9787 251 273 
9788 273 274 
9789 274 251 
9790 274 252 
9791 252 251 
9792 251 274 
9793 252 274 
9794 274 253 
9795 253 252 
9796 253 274 
9797 274 275 
9798 275 253 
9799 253 275 
9800 275 276 
9801 276 253 
9802 276 254 
9803 254 253 
9804 253 276 
9805 254 276 
9806 276 255 
9807 255 254 
9808 255 276 
9809 276 277 
9810 277 255 
9811 255 277 
9812 277 278 
9813 278 255 
9814 278 256 
9815 256 255 
9816 255 278 
9817 256 278 
9818 278 257 
9819 257 256 
9820 257 278 
9821 278 279 
9822 279 257 
9823 257 279 
9824 279 280 
9825 280 257 
9826 280 258 
9827 258 257 
9828 257 280 
9829 258 280 
9830 280 259 
9831 259 258 
9832 259 280 
9833 280 281 
9834 281 259 
9835 259 281 
9836 281 282 
9837 282 259 
9838 282 260 
9839 260 259 
9840 259 282 
9841 260 282 
9842 282 261 
9843 261 260 
9844 261 282 
9845 282 283 
9846 283 261 
9847 261 283 
9848 283 284 
9849 284 261 
9850 284 262 
9851 262 261 
9852 261 284 
9853 262 284 
9854 284 263 
9855 263 262 
9856 263 284 
9857 284 285 
9858 285 263 
9859 263 285 
9860 285 286 
9861 286 263 
9862 286 264 
9863 264 263 
9864 263 286 
9865 264 286 
9866 286 265 
9867 265 264 
9868 265 286 
9869 286 287 
9870 287 265 
9871 265 287 
9872 287 288 
9873 288 265 
9874 288 266 
9875 266 265 
9876 265 288 
9877 266 288 
9878 288 267 
9879 267 266 
9880 267 288 
9881 288 289 
9882 289 267 
9883 267 289 
9884 289 290 
9885 290 267 
9886 290 268 
9887 268 267 
9888 267 290 
9889 268 290 
9890 290 63 
9891 63 268 
9892 63 290 
9893 290 62 
9894 62 63 
9895 13 14 
9896 14 291 
9897 291 13 
9898 291 269 
9899 269 13 
9900 13 291 
9901 269 291 
9902 291 270 
9903 270 269 
9904 270 291 
9905 291 292 
9906 292 270 
9907 270 292 
9908 292 293 
9909 293 270 
9910 293 271 
9911 271 270 
9912 270 293 
9913 271 293 
9914 293 272 
9915 272 271 
9916 272 293 
9917 293 294 
9918 294 272 
9919 272 294 
9920 294 295 
9921 295 272 
9922 295 273 
9923 273 272 
9924 272 295 
9925 273 295 
9926 295 274 
9927 274 273 
9928 274 295 
9929 295 296 
9930 296 274 
9931 274 296 
9932 296 297 
9933 297 274 
9934 297 275 
9935 275 274 
9936 274 297 
9937 275 297 
9938 297 276 
9939 276 275 
9940 276 297 
9941 297 298 
9942 298 276 
9943 276 298 
9944 298 299 
9945 299 276 
9946 299 277 
9947 277 276 
9948 276 299 
9949 277 299 
9950 299 278 
9951 278 277 
9952 278 299 
9953 299 300 
9954 300 278 
9955 278 300 
9956 300 301 
9957 301 278 
9958 301 279 
9959 279 278 
9960 278 301 
9961 279 301 
9962 301 280 
9963 280 279 
9964 280 301 
9965 301 302 
9966 302 280 
9967 280 302 
9968 302 303 
9969 303 280 
9970 303 281 
9971 281 280 
9972 280 303 
9973 281 303 
9974 303 282 
9975 282 281 
9976 282 303 
9977 303 304 
9978 304 282 
9979 282 304 
9980 304 305 
9981 305 282 
9982 305 283 
9983 283 282 
9984 282 305 
9985 283 305 
9986 305 284 
9987 284 283 
9988 284 305 
9989 305 306 
9990 306 284 
9991 284 306 
9992 306 307 
9993 307 284 
9994 307 285 
9995 285 284 
9996 284 307 
9997 285 307 
9998 307 286 
9999 286 285 
10000 286 307 
10001 307 308 
10002 308 286 
10003 286 308 
10004 308 309 
10005 309 286 
10006 309 287 
10007 287 286 
10008 286 309 
10009 287 309 
10010 309 288 
10011 288 287 
10012 288 309 
10013 309 310 
10014 310 288 
10015 288 310 
10016 310 311 
10017 311 288 
10018 311 289 
10019 289 288 
10020 288 311 
10021 289 311 
10022 311 290 
10023 290 289 
10024 290 311 
10025 311 312 
10026 312 290 
10027 290 312 
10028 312 61 
10029 61 290 
10030 61 62 
10031 62 290 
10032 290 61 
10033 14 15 
10034 15 291 
10035 291 14 
10036 291 15 
10037 15 313 
10038 313 291 
10039 291 313 
10040 313 314 
10041 314 291 
10042 314 292 
10043 292 291 
10044 291 314 
10045 292 314 
10046 314 293 
10047 293 292 
10048 293 314 
10049 314 315 
10050 315 293 
10051 293 315 
10052 315 316 
10053 316 293 
10054 316 294 
10055 294 293 
10056 293 316 
10057 294 316 
10058 316 295 
10059 295 294 
10060 295 316 
10061 316 317 
10062 317 295 
10063 295 317 
10064 317 318 
10065 318 295 
10066 318 296 
10067 296 295 
10068 295 318 
10069 296 318 
10070 318 297 
10071 297 296 
10072 297 318 
10073 318 319 
10074 319 297 
10075 297 319 
10076 319 320 
10077 320 297 
10078 320 298 
10079 298 297 
10080 297 320 
10081 298 320 
10082 320 299 
10083 299 298 
10084 299 320 
10085 320 321 
10086 321 299 
10087 299 321 
10088 321 322 
10089 322 299 
10090 322 300 
10091 300 299 
10092 299 322 
10093 300 322 
10094 322 301 
10095 301 300 
10096 301 322 
10097 322 323 
10098 323 301 
10099 301 323 
10100 323 324 
10101 324 301 
10102 324 302 
10103 302 301 
10104 301 324 
10105 302 324 
10106 324 303 
10107 303 302 
10108 303 324 
10109 324 325 
10110 325 303 
10111 303 325 
10112 325 326 
10113 326 303 
10114 326 304 
10115 304 303 
10116 303 326 
10117 304 326 
10118 326 305 
10119 305 304 
10120 305 326 
10121 326 327 
10122 327 305 
10123 305 327 
10124 327 328 
10125 328 305 
10126 328 306 
10127 306 305 
10128 305 328 
10129 306 328 
10130 328 307 
10131 307 306 
10132 307 328 
10133 328 329 
10134 329 307 
10135 307 329 
10136 329 330 
10137 330 307 
10138 330 308 
10139 308 307 
10140 307 330 
10141 308 330 
10142 330 309 
10143 309 308 
10144 309 330 
10145 330 331 
10146 331 309 
10147 309 331 
10148 331 332 
10149 332 309 
10150 332 310 
10151 310 309 
10152 309 332 
10153 310 332 
10154 332 311 
10155 311 310 
10156 311 332 
10157 332 333 
10158 333 311 
10159 311 333 
10160 333 334 
10161 334 311 
10162 334 312 
10163 312 311 
10164 311 334 
10165 312 334 
10166 334 61 
10167 61 312 
10168 61 334 
10169 334 60 
10170 60 61 
10171 15 16 
10172 16 335 
10173 335 15 
10174 335 313 
10175 313 15 
10176 15 335 
10177 313 335 
10178 335 314 
10179 314 313 
10180 314 335 
10181 335 336 
10182 336 314 
10183 314 336 
10184 336 337 
10185 337 314 
10186 337 315 
10187 315 314 
10188 314 337 
10189 315 337 
10190 337 316 
10191 316 315 
10192 316 337 
10193 337 338 
10194 338 316 
10195 316 338 
10196 338 339 
10197 339 316 
10198 339 317 
10199 317 316 
10200 316 339 
10201 317 339 
10202 339 318 
10203 318 317 
10204 318 339 
10205 339 340 
10206 340 318 
10207 318 340 
10208 340 341 
10209 341 318 
10210 341 319 
10211 319 318 
10212 318 341 
10213 319 341 
10214 341 320 
10215 320 319 
10216 320 341 
10217 341 342 
10218 342 320 
10219 320 342 
10220 342 343 
10221 343 320 
10222 343 321 
10223 321 320 
10224 320 343 
10225 321 343 
10226 343 322 
10227 322 321 
10228 322 343 
10229 343 344 
10230 344 322 
10231 322 344 
10232 344 345 
10233 345 322 
10234 345 323 
10235 323 322 
10236 322 345 
10237 323 345 
10238 345 324 
10239 324 323 
10240 324 345 
10241 345 346 
10242 346 324 
10243 324 346 
10244 346 347 
10245 347 324 
10246 347 325 
10247 325 324 
10248 324 347 
10249 325 347 
10250 347 326 
10251 326 325 
10252 326 347 
10253 347 348 
10254 348 326 
10255 326 348 
10256 348 349 
10257 349 326 
10258 349 327 
10259 327 326 
10260 326 349 
10261 327 349 
10262 349 328 
10263 328 327 
10264 328 349 
10265 349 350 
10266 350 328 
10267 328 350 
10268 350 351 
10269 351 328 
10270 351 329 
10271 329 328 
10272 328 351 
10273 329 351 
10274 351 330 
10275 330 329 
10276 330 351 
10277 351 352 
10278 352 330 
10279 330 352 
10280 352 353 
10281 353 330 
10282 353 331 
10283 331 330 
10284 330 353 
10285 331 353 
10286 353 332 
10287 332 331 
10288 332 353 
10289 353 354 
10290 354 332 
10291 332 354 
10292 354 355 
10293 355 332 
10294 355 333 
10295 333 332 
10296 332 355 
10297 333 355 
10298 355 334 
10299 334 333 
10300 334 355 
10301 355 356 
10302 356 334 
10303 334 356 
10304 356 59 
10305 59 334 
10306 59 60 
10307 60 334 
10308 334 59 
10309 16 17 
10310 17 335 
10311 335 16 
10312 335 17 
10313 17 357 
10314 357 335 
10315 335 357 
10316 357 358 
10317 358 335 
10318 358 336 
10319 336 335 
10320 335 358 
10321 336 358 
10322 358 337 
10323 337 336 
10324 337 358 
10325 358 359 
10326 359 337 
10327 337 359 
10328 359 360 
10329 360 337 
10330 360 338 
10331 338 337 
10332 337 360 
10333 338 360 
10334 360 339 
10335 339 338 
10336 339 360 
10337 360 361 
10338 361 339 
10339 339 361 
10340 361 362 
10341 362 339 
10342 362 340 
10343 340 339 
10344 339 362 
10345 340 362 
10346 362 341 
10347 341 340 
10348 341 362 
10349 362 363 
10350 363 341 
10351 341 363 
10352 363 364 
10353 364 341 
10354 364 342 
10355 342 341 
10356 341 364 
10357 342 364 
10358 364 343 
10359 343 342 
10360 343 364 
10361 364 365 
10362 365 343 
10363 343 365 
10364 365 366 
10365 366 343 
10366 366 344 
10367 344 343 
10368 343 366 
10369 344 366 
10370 366 345 
10371 345 344 
10372 345 366 
10373 366 367 
10374 367 345 
10375 345 367 
10376 367 368 
10377 368 345 
10378 368 346 
10379 346 345 
10380 345 368 
10381 346 368 
10382 368 347 
10383 347 346 
10384 347 368 
10385 368 369 
10386 369 347 
10387 347 369 
10388 369 370 
10389 370 347 
10390 370 348 
10391 348 347 
10392 347 370 
10393 348 370 
10394 370 349 
10395 349 348 
10396 349 370 
10397 370 371 
10398 371 349 
10399 349 371 
10400 371 372 
10401 372 349 
10402 372 350 
10403 350 349 
10404 349 372 
10405 350 372 
10406 372 351 
10407 351 350 
10408 351 372 
10409 372 373 
10410 373 351 
10411 351 373 
10412 373 374 
10413 374 351 
10414 374 352 
10415 352 351 
10416 351 374 
10417 352 374 
10418 374 353 
10419 353 352 
10420 353 374 
10421 374 375 
10422 375 353 
10423 353 375 
10424 375 376 
10425 376 353 
10426 376 354 
10427 354 353 
10428 353 376 
10429 354 376 
10430 376 355 
10431 355 354 
10432 355 376 
10433 376 377 
10434 377 355 
10435 355 377 
10436 377 378 
10437 378 355 
10438 378 356 
10439 356 355 
10440 355 378 
10441 356 378 
10442 378 59 
10443 59 356 
10444 59 378 
10445 378 58 
10446 58 59 
10447 17 18 
10448 18 379 
10449 379 17 
10450 379 357 
10451 357 17 
10452 17 379 
10453 357 379 
10454 379 358 
10455 358 357 
10456 358 379 
10457 379 380 
10458 380 358 
10459 358 380 
10460 380 381 
10461 381 358 
10462 381 359 
10463 359 358 
10464 358 381 
10465 359 381 
10466 381 360 
10467 360 359 
10468 360 381 
10469 381 382 
10470 382 360 
10471 360 382 
10472 382 383 
10473 383 360 
10474 383 361 
10475 361 360 
10476 360 383 
10477 361 383 
10478 383 362 
10479 362 361 
10480 362 383 
10481 383 384 
10482 384 362 
10483 362 384 
10484 384 385 
10485 385 362 
10486 385 363 
10487 363 362 
10488 362 385 
10489 363 385 
10490 385 364 
10491 364 363 
10492 364 385 
10493 385 386 
10494 386 364 
10495 364 386 
10496 386 387 
10497 387 364 
10498 387 365 
10499 365 364 
10500 364 387 
10501 365 387 
10502 387 366 
10503 366 365 
10504 366 387 
10505 387 388 
10506 388 366 
10507 366 388 
10508 388 389 
10509 389 366 
10510 389 367 
10511 367 366 
10512 366 389 
10513 367 389 
10514 389 368 
10515 368 367 
10516 368 389 
10517 389 390 
10518 390 368 
10519 368 390 
10520 390 391 
10521 391 368 
10522 391 369 
10523 369 368 
10524 368 391 
10525 369 391 
10526 391 370 
10527 370 369 
10528 370 391 
10529 391 392 
10530 392 370 
10531 370 392 
10532 392 393 
10533 393 370 
10534 393 371 
10535 371 370 
10536 370 393 
10537 371 393 
10538 393 372 
10539 372 371 
10540 372 393 
10541 393 394 
10542 394 372 
10543 372 394 
10544 394 395 
10545 395 372 
10546 395 373 
10547 373 372 
10548 372 395 
10549 373 395 
10550 395 374 
10551 374 373 
10552 374 395 
10553 395 396 
10554 396 374 
10555 374 396 
10556 396 397 
10557 397 374 
10558 397 375 
10559 375 374 
10560 374 397 
10561 375 397 
10562 397 376 
10563 376 375 
10564 376 397 
10565 397 398 
10566 398 376 
10567 376 398 
10568 398 399 
10569 399 376 
10570 399 377 
10571 377 376 
10572 376 399 
10573 377 399 
10574 399 378 
10575 378 377 
10576 378 399 
10577 399 400 
10578 400 378 
10579 378 400 
10580 400 57 
10581 57 378 
10582 57 58 
10583 58 378 
10584 378 57 
10585 18 19 
10586 19 379 
10587 379 18 
10588 379 19 
10589 19 401 
10590 401 379 
10591 379 401 
10592 401 402 
10593 402 379 
10594 402 380 
10595 380 379 
10596 379 402 
10597 380 402 
10598 402 381 
10599 381 380 
10600 381 402 
10601 402 403 
10602 403 381 
10603 381 403 
10604 403 404 
10605 404 381 
10606 404 382 
10607 382 381 
10608 381 404 
10609 382 404 
10610 404 383 
10611 383 382 
10612 383 404 
10613 404 405 
10614 405 383 
10615 383 405 
10616 405 406 
10617 406 383 
10618 406 384 
10619 384 383 
10620 383 406 
10621 384 406 
10622 406 385 
10623 385 384 
10624 385 406 
10625 406 407 
10626 407 385 
10627 385 407 
10628 407 408 
10629 408 385 
10630 408 386 
10631 386 385 
10632 385 408 
10633 386 408 
10634 408 387 
10635 387 386 
10636 387 408 
10637 408 409 
10638 409 387 
10639 387 409 
10640 409 410 
10641 410 387 
10642 410 388 
10643 388 387 
10644 387 410 
10645 388 410 
10646 410 389 
10647 389 388 
10648 389 410 
10649 410 411 
10650 411 389 
10651 389 411 
10652 411 412 
10653 412 389 
10654 412 390 
10655 390 389 
10656 389 412 
10657 390 412 
10658 412 391 
10659 391 390 
10660 391 412 
10661 412 413 
10662 413 391 
10663 391 413 
10664 413 414 
10665 414 391 
10666 414 392 
10667 392 391 
10668 391 414 
10669 392 414 
10670 414 393 
10671 393 392 
10672 393 414 
10673 414 415 
10674 415 393 
10675 393 415 
10676 415 416 
10677 416 393 
10678 416 394 
10679 394 393 
10680 393 416 
10681 394 416 
10682 416 395 
10683 395 394 
10684 395 416 
10685 416 417 
10686 417 395 
10687 395 417 
10688 417 418 
10689 418 395 
10690 418 396 
10691 396 395 
10692 395 418 
10693 396 418 
10694 418 397 
10695 397 396 
10696 397 418 
10697 418 419 
10698 419 397 
10699 397 419 
10700 419 420 
10701 420 397 
10702 420 398 
10703 398 397 
10704 397 420 
10705 398 420 
10706 420 399 
10707 399 398 
10708 399 420 
10709 420 421 
10710 421 399 
10711 399 421 
10712 421 422 
10713 422 399 
10714 422 400 
10715 400 399 
10716 399 422 
10717 400 422 
10718 422 57 
10719 57 400 
10720 57 422 
10721 422 56 
10722 56 57 
10723 19 20 
10724 20 423 
10725 423 19 
10726 423 401 
10727 401 19 
10728 19 423 
10729 401 423 
10730 423 402 
10731 402 401 
10732 402 423 
10733 423 424 
10734 424 402 
10735 402 424 
10736 424 425 
10737 425 402 
10738 425 403 
10739 403 402 
10740 402 425 
10741 403 425 
10742 425 404 
10743 404 403 
10744 404 425 
10745 425 426 
10746 426 404 
10747 404 426 
10748 426 427 
10749 427 404 
10750 427 405 
10751 405 404 
10752 404 427 
10753 405 427 
10754 427 406 
10755 406 405 
10756 406 427 
10757 427 428 
10758 428 406 
10759 406 428 
10760 428 429 
10761 429 406 
10762 429 407 
10763 407 406 
10764 406 429 
10765 407 429 
10766 429 408 
10767 408 407 
10768 408 429 
10769 429 430 
10770 430 408 
10771 408 430 
10772 430 431 
10773 431 408 
10774 431 409 
10775 409 408 
10776 408 431 
10777 409 431 
10778 431 410 
10779 410 409 
10780 410 431 
10781 431 432 
10782 432 410 
10783 410 432 
10784 432 433 
10785 433 410 
10786 433 411 
10787 411 410 
10788 410 433 
10789 411 433 
10790 433 412 
10791 412 411 
10792 412 433 
10793 433 434 
10794 434 412 
10795 412 434 
10796 434 435 
10797 435 412 
10798 435 413 
10799 413 412 
10800 412 435 
10801 413 435 
10802 435 414 
10803 414 413 
10804 414 435 
10805 435 436 
10806 436 414 
10807 414 436 
10808 436 437 
10809 437 414 
10810 437 415 
10811 415 414 
10812 414 437 
10813 415 437 
10814 437 416 
10815 416 415 
10816 416 437 
10817 437 438 
10818 438 416 
10819 416 438 
10820 438 439 
10821 439 416 
10822 439 417 
10823 417 416 
10824 416 439 
10825 417 439 
10826 439 418 
10827 418 417 
10828 418 439 
10829 439 440 
10830 440 418 
10831 418 440 
10832 440 441 
10833 441 418 
10834 441 419 
10835 419 418 
10836 418 441 
10837 419 441 
10838 441 420 
10839 420 419 
10840 420 441 
10841 441 442 
10842 442 420 
10843 420 442 
10844 442 443 
10845 443 420 
10846 443 421 
10847 421 420 
10848 420 443 
10849 421 443 
10850 443 422 
10851 422 421 
10852 422 443 
10853 443 444 
10854 444 422 
10855 422 444 
10856 444 55 
10857 55 422 
10858 55 56 
10859 56 422 
10860 422 55 
10861 20 21 
10862 21 423 
10863 423 20 
10864 423 21 
10865 21 445 
10866 445 423 
10867 423 445 
10868 445 446 
10869 446 423 
10870 446 424 
10871 424 423 
10872 423 446 
10873 424 446 
10874 446 425 
10875 425 424 
10876 425 446 
10877 446 447 
10878 447 425 
10879 425 447 
10880 447 448 
10881 448 425 
10882 448 426 
10883 426 425 
10884 425 448 
10885 426 448 
10886 448 427 
10887 427 426 
10888 427 448 
10889 448 449 
10890 449 427 
10891 427 449 
10892 449 450 
10893 450 427 
10894 450 428 
10895 428 427 
10896 427 450 
10897 428 450 
10898 450 429 
10899 429 428 
10900 429 450 
10901 450 451 
10902 451 429 
10903 429 451 
10904 451 452 
10905 452 429 
10906 452 430 
10907 430 429 
10908 429 452 
10909 430 452 
10910 452 431 
10911 431 430 
10912 431 452 
10913 452 453 
10914 453 431 
10915 431 453 
10916 453 454 
10917 454 431 
10918 454 432 
10919 432 431 
10920 431 454 
10921 432 454 
10922 454 433 
10923 433 432 
10924 433 454 
10925 454 455 
10926 455 433 
10927 433 455 
10928 455 456 
10929 456 433 
10930 456 434 
10931 434 433 
10932 433 456 
10933 434 456 
10934 456 435 
10935 435 434 
10936 435 456 
10937 456 457 
10938 457 435 
10939 435 457 
10940 457 458 
10941 458 435 
10942 458 436 
10943 436 435 
10944 435 458 
10945 436 458 
10946 458 437 
10947 437 436 
10948 437 458 
10949 458 459 
10950 459 437 
10951 437 459 
10952 459 460 
10953 460 437 
10954 460 438 
10955 438 437 
10956 437 460 
10957 438 460 
10958 460 439 
10959 439 438 
10960 439 460 
10961 460 461 
10962 461 439 
10963 439 461 
10964 461 462 
10965 462 439 
10966 462 440 
10967 440 439 
10968 439 462 
10969 440 462 
10970 462 441 
10971 441 440 
10972 441 462 
10973 462 463 
10974 463 441 
10975 441 463 
10976 463 464 
10977 464 441 
10978 464 442 
10979 442 441 
10980 441 464 
10981 442 464 
10982 464 443 
10983 443 442 
10984 443 464 
10985 464 465 
10986 465 443 
10987 443 465 
10988 465 466 
10989 466 443 
10990 466 444 
10991 444 443 
10992 443 466 
10993 444 466 
10994 466 55 
10995 55 444 
10996 55 466 
10997 466 54 
10998 54 55 
10999 21 22 
11000 22 467 
11001 467 21 
11002 467 445 
11003 445 21 
11004 21 467 
11005 445 467 
11006 467 446 
11007 446 445 
11008 446 467 
11009 467 468 
11010 468 446 
11011 446 468 
11012 468 469 
11013 469 446 
11014 469 447 
11015 447 446 
11016 446 469 
11017 447 469 
11018 469 448 
11019 448 447 
11020 448 469 
11021 469 470 
11022 470 448 
11023 448 470 
11024 470 471 
11025 471 448 
11026 471 449 
11027 449 448 
11028 448 471 
11029 449 471 
11030 471 450 
11031 450 449 
11032 450 471 
11033 471 472 
11034 472 450 
11035 450 472 
11036 472 473 
11037 473 450 
11038 473 451 
11039 451 450 
11040 450 473 
11041 451 473 
11042 473 452 
11043 452 451 
11044 452 473 
11045 473 474 
11046 474 452 
11047 452 474 
11048 474 475 
11049 475 452 
11050 475 453 
11051 453 452 
11052 452 475 
11053 453 475 
11054 475 454 
11055 454 453 
11056 454 475 
11057 475 476 
11058 476 454 
11059 454 476 
11060 476 477 
11061 477 454 
11062 477 455 
11063 455 454 
11064 454 477 
11065 455 477 
11066 477 456 
11067 456 455 
11068 456 477 
11069 477 478 
11070 478 456 
11071 456 478 
11072 478 479 
11073 479 456 
11074 479 457 
11075 457 456 
11076 456 479 
11077 457 479 
11078 479 458 
11079 458 457 
11080 458 479 
11081 479 480 
11082 480 458 
11083 458 480 
11084 480 481 
11085 481 458 
11086 481 459 
11087 459 458 
11088 458 481 
11089 459 481 
11090 481 460 
11091 460 459 
11092 460 481 
11093 481 482 
11094 482 460 
11095 460 482 
11096 482 483 
11097 483 460 
11098 483 461 
11099 461 460 
11100 460 483 
11101 461 483 
11102 483 462 
11103 462 461 
11104 462 483 
11105 483 484 
11106 484 462 
11107 462 484 
11108 484 485 
11109 485 462 
11110 485 463 
11111 463 462 
11112 462 485 
11113 463 485 
11114 485 464 
11115 464 463 
11116 464 485 
11117 485 486 
11118 486 464 
11119 464 486 
11120 486 487 
11121 487 464 
11122 487 465 
11123 465 464 
11124 464 487 
11125 465 487 
11126 487 466 
11127 466 465 
11128 466 487 
11129 487 488 
11130 488 466 
11131 466 488 
11132 488 53 
11133 53 466 
11134 53 54 
11135 54 466 
11136 466 53 
11137 22 23 
11138 23 467 
11139 467 22 
11140 467 23 
11141 23 489 
11142 489 467 
11143 467 489 
11144 489 490 
11145 490 467 
11146 490 468 
11147 468 467 
11148 467 490 
11149 468 490 
11150 490 469 
11151 469 468 
11152 469 490 
11153 490 491 
11154 491 469 
11155 469 491 
11156 491 492 
11157 492 469 
11158 492 470 
11159 470 469 
11160 469 492 
11161 470 492 
11162 492 471 
11163 471 470 
11164 471 492 
11165 492 493 
11166 493 471 
11167 471 493 
11168 493 494 
11169 494 471 
11170 494 472 
11171 472 471 
11172 471 494 
11173 472 494 
11174 494 473 
11175 473 472 
11176 473 494 
11177 494 495 
11178 495 473 
11179 473 495 
11180 495 496 
11181 496 473 
11182 496 474 
11183 474 473 
11184 473 496 
11185 474 496 
11186 496 475 
11187 475 474 
11188 475 496 
11189 496 497 
11190 497 475 
11191 475 497 
11192 497 498 
11193 498 475 
11194 498 476 
11195 476 475 
11196 475 498 
11197 476 498 
11198 498 477 
11199 477 476 
11200 477 498 
11201 498 499 
11202 499 477 
11203 477 499 
11204 499 500 
11205 500 477 
11206 500 478 
11207 478 477 
11208 477 500 
11209 478 500 
11210 500 479 
11211 479 478 
11212 479 500 
11213 500 501 
11214 501 479 
11215 479 501 
11216 501 502 
11217 502 479 
11218 502 480 
11219 480 479 
11220 479 502 
11221 480 502 
11222 502 481 
11223 481 480 
11224 481 502 
11225 502 503 
11226 503 481 
11227 481 503 
11228 503 504 
11229 504 481 
11230 504 482 
11231 482 481 
11232 481 504 
11233 482 504 
11234 504 483 
11235 483 482 
11236 483 504 
11237 504 505 
11238 505 483 
11239 483 505 
11240 505 506 
11241 506 483 
11242 506 484 
11243 484 483 
11244 483 506 
11245 484 506 
11246 506 485 
11247 485 484 
11248 485 506 
11249 506 507 
11250 507 485 
11251 485 507 
11252 507 508 
11253 508 485 
11254 508 486 
11255 486 485 
11256 485 508 
11257 486 508 
11258 508 487 
11259 487 486 
11260 487 508 
11261 508 509 
11262 509 487 
11263 487 509 
11264 509 510 
11265 510 487 
11266 510 488 
11267 488 487 
11268 487 510 
11269 488 510 
11270 510 53 
11271 53 488 
11272 53 510 
11273 510 52 
11274 52 53 
11275 23 24 
11276 24 511 
11277 511 23 
11278 511 489 
11279 489 23 
11280 23 511 
11281 489 511 
11282 511 490 
11283 490 489 
11284 490 511 
11285 511 512 
11286 512 490 
11287 490 512 
11288 512 513 
11289 513 490 
11290 513 491 
11291 491 490 
11292 490 513 
11293 491 513 
11294 513 492 
11295 492 491 
11296 492 513 
11297 513 514 
11298 514 492 
11299 492 514 
11300 514 515 
11301 515 492 
11302 515 493 
11303 493 492 
11304 492 515 
11305 493 515 
11306 515 494 
11307 494 493 
11308 494 515 
11309 515 516 
11310 516 494 
11311 494 516 
11312 516 517 
11313 517 494 
11314 517 495 
11315 495 494 
11316 494 517 
11317 495 517 
11318 517 496 
11319 496 495 
11320 496 517 
11321 517 518 
11322 518 496 
11323 496 518 
11324 518 519 
11325 519 496 
11326 519 497 
11327 497 496 
11328 496 519 
11329 497 519 
11330 519 498 
11331 498 497 
11332 498 519 
11333 519 520 
11334 520 498 
11335 498 520 
11336 520 521 
11337 521 498 
11338 521 499 
11339 499 498 
11340 498 521 
11341 499 521 
11342 521 500 
11343 500 499 
11344 500 521 
11345 521 522 
11346 522 500 
11347 500 522 
11348 522 523 
11349 523 500 
11350 523 501 
11351 501 500 
11352 500 523 
11353 501 523 
11354 523 502 
11355 502 501 
11356 502 523 
11357 523 524 
11358 524 502 
11359 502 524 
11360 524 525 
11361 525 502 
11362 525 503 
11363 503 502 
11364 502 525 
11365 503 525 
11366 525 504 
11367 504 503 
11368 504 525 
11369 525 526 
11370 526 504 
11371 504 526 
11372 526 527 
11373 527 504 
11374 527 505 
11375 505 504 
11376 504 527 
11377 505 527 
11378 527 506 
11379 506 505 
11380 506 527 
11381 527 528 
11382 528 506 
11383 506 528 
11384 528 529 
11385 529 506 
11386 529 507 
11387 507 506 
11388 506 529 
11389 507 529 
11390 529 508 
11391 508 507 
11392 508 529 
11393 529 530 
11394 530 508 
11395 508 530 
11396 530 531 
11397 531 508 
11398 531 509 
11399 509 508 
11400 508 531 
11401 509 531 
11402 531 510 
11403 510 509 
11404 510 531 
11405 531 532 
11406 532 510 
11407 510 532 
11408 532 51 
11409 51 510 
11410 51 52 
11411 52 510 
11412 510 51 
11413 24 25 
11414 25 511 
11415 511 24 
11416 511 25 
11417 25 533 
11418 533 511 
11419 511 533 
11420 533 534 
11421 534 511 
11422 534 512 
11423 512 511 
11424 511 534 
11425 512 534 
11426 534 513 
11427 513 512 
11428 513 534 
11429 534 535 
11430 535 513 
11431 513 535 
11432 535 536 
11433 536 513 
11434 536 514 
11435 514 513 
11436 513 536 
11437 514 536 
11438 536 515 
11439 515 514 
11440 515 536 
11441 536 537 
11442 537 515 
11443 515 537 
11444 537 538 
11445 538 515 
11446 538 516 
11447 516 515 
11448 515 538 
11449 516 538 
11450 538 517 
11451 517 516 
11452 517 538 
11453 538 539 
11454 539 517 
11455 517 539 
11456 539 540 
11457 540 517 
11458 540 518 
11459 518 517 
11460 517 540 
11461 518 540 
11462 540 519 
11463 519 518 
11464 519 540 
11465 540 541 
11466 541 519 
11467 519 541 
11468 541 542 
11469 542 519 
11470 542 520 
11471 520 519 
11472 519 542 
11473 520 542 
11474 542 521 
11475 521 520 
11476 521 542 
11477 542 543 
11478 543 521 
11479 521 543 
11480 543 544 
11481 544 521 
11482 544 522 
11483 522 521 
11484 521 544 
11485 522 544 
11486 544 523 
11487 523 522 
11488 523 544 
11489 544 545 
11490 545 523 
11491 523 545 
11492 545 546 
11493 546 523 
11494 546 524 
11495 524 523 
11496 523 546 
11497 524 546 
11498 546 525 
11499 525 524 
11500 525 546 
11501 546 547 
11502 547 525 
11503 525 547 
11504 547 548 
11505 548 525 
11506 548 526 
11507 526 525 
11508 525 548 
11509 526 548 
11510 548 527 
11511 527 526 
11512 527 548 
11513 548 549 
11514 549 527 
11515 527 549 
11516 549 550 
11517 550 527 
11518 550 528 
11519 528 527 
11520 527 550 
11521 528 550 
11522 550 529 
11523 529 528 
11524 529 550 
11525 550 551 
11526 551 529 
11527 529 551 
11528 551 552 
11529 552 529 
11530 552 530 
11531 530 529 
11532 529 552 
11533 530 552 
11534 552 531 
11535 531 530 
11536 531 552 
11537 552 553 
11538 553 531 
11539 531 553 
11540 553 554 
11541 554 531 
11542 554 532 
11543 532 531 
11544 531 554 
11545 532 554 
11546 554 51 
11547 51 532 
11548 51 554 
11549 554 50 
11550 50 51 
11551 25 26 
11552 26 555 
11553 555 25 
11554 555 533 
11555 533 25 
11556 25 555 
11557 533 555 
11558 555 534 
11559 534 533 
11560 534 555 
11561 555 556 
11562 556 534 
11563 534 556 
11564 556 557 
11565 557 534 
11566 557 535 
11567 535 534 
11568 534 557 
11569 535 557 
11570 557 536 
11571 536 535 
11572 536 557 
11573 557 558 
11574 558 536 
11575 536 558 
11576 558 559 
11577 559 536 
11578 559 537 
11579 537 536 
11580 536 559 
11581 537 559 
11582 559 538 
11583 538 537 
11584 538 559 
11585 559 560 
11586 560 538 
11587 538 560 
11588 560 561 
11589 561 538 
11590 561 539 
11591 539 538 
11592 538 561 
11593 539 561 
11594 561 540 
11595 540 539 
11596 540 561 
11597 561 562 
11598 562 540 
11599 540 562 
11600 562 563 
11601 563 540 
11602 563 541 
11603 541 540 
11604 540 563 
11605 541 563 
11606 563 542 
11607 542 541 
11608 542 563 
11609 563 564 
11610 564 542 
11611 542 564 
11612 564 565 
11613 565 542 
11614 565 543 
11615 543 542 
11616 542 565 
11617 543 565 
11618 565 544 
11619 544 543 
11620 544 565 
11621 565 566 
11622 566 544 
11623 544 566 
11624 566 567 
11625 567 544 
11626 567 545 
11627 545 544 
11628 544 567 
11629 545 567 
11630 567 546 
11631 546 545 
11632 546 567 
11633 567 568 
11634 568 546 
11635 546 568 
11636 568 569 
11637 569 546 
11638 569 547 
11639 547 546 
11640 546 569 
11641 547 569 
11642 569 548 
11643 548 547 
11644 548 569 
11645 569 570 
11646 570 548 
11647 548 570 
11648 570 571 
11649 571 548 
11650 571 549 
11651 549 548 
11652 548 571 
11653 549 571 
11654 571 550 
11655 550 549 
11656 550 571 
11657 571 572 
11658 572 550 
11659 550 572 
11660 572 573 
11661 573 550 
11662 573 551 
11663 551 550 
11664 550 573 
11665 551 573 
11666 573 552 
11667 552 551 
11668 552 573 
11669 573 574 
11670 574 552 
11671 552 574 
11672 574 575 
11673 575 552 
11674 575 553 
11675 553 552 
11676 552 575 
11677 553 575 
11678 575 554 
11679 554 553 
11680 554 575 
11681 575 576 
11682 576 554 
11683 554 576 
11684 576 49 
11685 49 554 
11686 49 50 
11687 50 554 
11688 554 49 
11689 26 2 
11690 2 555 
11691 555 26 
11692 555 2 
11693 2 27 
11694 27 555 
11695 555 27 
11696 27 28 
11697 28 555 
11698 28 556 
11699 556 555 
11700 555 28 
11701 556 28 
11702 28 557 
11703 557 556 
11704 557 28 
11705 28 29 
11706 29 557 
11707 557 29 
11708 29 30 
11709 30 557 
11710 30 558 
11711 558 557 
11712 557 30 
11713 558 30 
11714 30 559 
11715 559 558 
11716 559 30 
11717 30 31 
11718 31 559 
11719 559 31 
11720 31 32 
11721 32 559 
11722 32 560 
11723 560 559 
11724 559 32 
11725 560 32 
11726 32 561 
11727 561 560 
11728 561 32 
11729 32 33 
11730 33 561 
11731 561 33 
11732 33 34 
11733 34 561 
11734 34 562 
11735 562 561 
11736 561 34 
11737 562 34 
11738 34 563 
11739 563 562 
11740 563 34 
11741 34 35 
11742 35 563 
11743 563 35 
11744 35 36 
11745 36 563 
11746 36 564 
11747 564 563 
11748 563 36 
11749 564 36 
11750 36 565 
11751 565 564 
11752 565 36 
11753 36 37 
11754 37 565 
11755 565 37 
11756 37 38 
11757 38 565 
11758 38 566 
11759 566 565 
11760 565 38 
11761 566 38 
11762 38 567 
11763 567 566 
11764 567 38 
11765 38 39 
11766 39 567 
11767 567 39 
11768 39 40 
11769 40 567 
11770 40 568 
11771 568 567 
11772 567 40 
11773 568 40 
11774 40 569 
11775 569 568 
11776 569 40 
11777 40 41 
11778 41 569 
11779 569 41 
11780 41 42 
11781 42 569 
11782 42 570 
11783 570 569 
11784 569 42 
11785 570 42 
11786 42 571 
11787 571 570 
11788 571 42 
11789 42 43 
11790 43 571 
11791 571 43 
11792 43 44 
11793 44 571 
11794 44 572 
11795 572 571 
11796 571 44 
11797 572 44 
11798 44 573 
11799 573 572 
11800 573 44 
11801 44 45 
11802 45 573 
11803 573 45 
11804 45 46 
11805 46 573 
11806 46 574 
11807 574 573 
11808 573 46 
11809 574 46 
11810 46 575 
11811 575 574 
11812 575 46 
11813 46 47 
11814 47 575 
11815 575 47 
11816 47 48 
11817 48 575 
11818 48 576 
11819 576 575 
11820 575 48 
11821 576 48 
11822 48 49 
11823 49 576 
11824 49 48 
11825 48 3 
11826 3 49 
2 1 2 1058
93 1 5 92 
94 92 5 93 
95 92 93 94 
96 94 91 92 
97 91 94 90 
98 90 94 95 
99 90 95 96 
100 96 89 90 
101 89 96 88 
102 88 96 97 
103 88 97 98 
104 98 87 88 
105 87 98 86 
106 86 98 99 
107 86 99 100 
108 100 85 86 
109 85 100 84 
110 84 100 101 
111 84 101 102 
112 102 83 84 
113 83 102 82 
114 82 102 103 
115 82 103 104 
116 104 81 82 
117 81 104 80 
118 80 104 105 
119 80 105 106 
120 106 79 80 
121 79 106 78 
122 78 106 107 
123 78 107 108 
124 108 77 78 
125 77 108 76 
126 76 108 109 
127 76 109 110 
128 110 75 76 
129 75 110 74 
130 74 110 111 
131 74 111 112 
132 112 73 74 
133 73 112 72 
134 72 112 113 
135 72 113 114 
136 114 71 72 
137 71 114 4 
138 4 114 70 
139 5 6 115 
140 115 93 5 
141 93 115 94 
142 94 115 116 
143 94 116 117 
144 117 95 94 
145 95 117 96 
146 96 117 118 
147 96 118 119 
148 119 97 96 
149 97 119 98 
150 98 119 120 
151 98 120 121 
152 121 99 98 
153 99 121 100 
154 100 121 122 
155 100 122 123 
156 123 101 100 
157 101 123 102 
158 102 123 124 
159 102 124 125 
160 125 103 102 
161 103 125 104 
162 104 125 126 
163 104 126 127 
164 127 105 104 
165 105 127 106 
166 106 127 128 
167 106 128 129 
168 129 107 106 
169 107 129 108 
170 108 129 130 
171 108 130 131 
172 131 109 108 
173 109 131 110 
174 110 131 132 
175 110 132 133 
176 133 111 110 
177 111 133 112 
178 112 133 134 
179 112 134 135 
180 135 113 112 
181 113 135 114 
182 114 135 136 
183 114 136 69 
184 69 70 114 
185 6 7 115 
186 115 7 137 
187 115 137 138 
188 138 116 115 
189 116 138 117 
190 117 138 139 
191 117 139 140 
192 140 118 117 
193 118 140 119 
194 119 140 141 
195 119 141 142 
196 142 120 119 
197 120 142 121 
198 121 142 143 
199 121 143 144 
200 144 122 121 
201 122 144 123 
202 123 144 145 
203 123 145 146 
204 146 124 123 
205 124 146 125 
206 125 146 147 
207 125 147 148 
208 148 126 125 
209 126 148 127 
210 127 148 149 
211 127 149 150 
212 150 128 127 
213 128 150 129 
214 129 150 151 
215 129 151 152 
216 152 130 129 
217 130 152 131 
218 131 152 153 
219 131 153 154 
220 154 132 131 
221 132 154 133 
222 133 154 155 
223 133 155 156 
224 156 134 133 
225 134 156 135 
226 135 156 157 
227 135 157 158 
228 158 136 135 
229 136 158 69 
230 69 158 68 
231 7 8 159 
232 159 137 7 
233 137 159 138 
234 138 159 160 
235 138 160 161 
236 161 139 138 
237 139 161 140 
238 140 161 162 
239 140 162 163 
240 163 141 140 
241 141 163 142 
242 142 163 164 
243 142 164 165 
244 165 143 142 
245 143 165 144 
246 144 165 166 
247 144 166 167 
248 167 145 144 
249 145 167 146 
250 146 167 168 
251 146 168 169 
252 169 147 146 
253 147 169 148 
254 148 169 170 
255 148 170 171 
256 171 149 148 
257 149 171 150 
258 150 171 172 
259 150 172 173 
260 173 151 150 
261 151 173 152 
262 152 173 174 
263 152 174 175 
264 175 153 152 
265 153 175 154 
266 154 175 176 
267 154 176 177 
268 177 155 154 
269 155 177 156 
270 156 177 178 
271 156 178 179 
272 179 157 156 
273 157 179 158 
274 158 179 180 
275 158 180 67 
276 67 68 158 
277 8 9 159 
278 159 9 181 
279 159 181 182 
280 182 160 159 
281 160 182 161 
282 161 182 183 
283 161 183 184 
284 184 162 161 
285 162 184 163 
286 163 184 185 
287 163 185 186 
288 186 164 163 
289 164 186 165 
290 165 186 187 
291 165 187 188 
292 188 166 165 
293 166 188 167 
294 167 188 189 
295 167 189 190 
296 190 168 167 
297 168 190 169 
298 169 190 191 
299 169 191 192 
300 192 170 169 
301 170 192 171 
302 171 192 193 
303 171 193 194 
304 194 172 171 
305 172 194 173 
306 173 194 195 
307 173 195 196 
308 196 174 173 
309 174 196 175 
310 175 196 197 
311 175 197 198 
312 198 176 175 
313 176 198 177 
314 177 198 199 
315 177 199 200 
316 200 178 177 
317 178 200 179 
318 179 200 201 
319 179 201 202 
320 202 180 179 
321 180 202 67 
322 67 202 66 
323 9 10 203 
324 203 181 9 
325 181 203 182 
326 182 203 204 
327 182 204 205 
328 205 183 182 
329 183 205 184 
330 184 205 206 
331 184 206 207 
332 207 185 184 
333 185 207 186 
334 186 207 208 
335 186 208 209 
336 209 187 186 
337 187 209 188 
338 188 209 210 
339 188 210 211 
340 211 189 188 
341 189 211 190 
342 190 211 212 
343 190 212 213 
344 213 191 190 
345 191 213 192 
346 192 213 214 
347 192 214 215 
348 215 193 192 
349 193 215 194 
350 194 215 216 
351 194 216 217 
352 217 195 194 
353 195 217 196 
354 196 217 218 
355 196 218 219 
356 219 197 196 
357 197 219 198 
358 198 219 220 
359 198 220 221 
360 221 199 198 
361 199 221 200 
362 200 221 222 
363 200 222 223 
364 223 201 200 
365 201 223 202 
366 202 223 224 
367 202 224 65 
368 65 66 202 
369 10 11 203 
370 203 11 225 
371 203 225 226 
372 226 204 203 
373 204 226 205 
374 205 226 227 
375 205 227 228 
376 228 206 205 
377 206 228 207 
378 207 228 229 
379 207 229 230 
380 230 208 207 
381 208 230 209 
382 209 230 231 
383 209 231 232 
384 232 210 209 
385 210 232 211 
386 211 232 233 
387 211 233 234 
388 234 212 211 
389 212 234 213 
390 213 234 235 
391 213 235 236 
392 236 214 213 
393 214 236 215 
394 215 236 237 
395 215 237 238 
396 238 216 215 
397 216 238 217 
398 217 238 239 
399 217 239 240 
400 240 218 217 
401 218 240 219 
402 219 240 241 
403 219 241 242 
404 242 220 219 
405 220 242 221 
406 221 242 243 
407 221 243 244 
408 244 222 221 
409 222 244 223 
410 223 244 245 
411 223 245 246 
412 246 224 223 
413 224 246 65 
414 65 246 64 
415 11 12 247 
416 247 225 11 
417 225 247 226 
418 226 247 248 
419 226 248 249 
420 249 227 226 
421 227 249 228 
422 228 249 250 
423 228 250 251 
424 251 229 228 
425 229 251 230 
426 230 251 252 
427 230 252 253 
428 253 231 230 
429 231 253 232 
430 232 253 254 
431 232 254 255 
432 255 233 232 
433 233 255 234 
434 234 255 256 
435 234 256 257 
436 257 235 234 
437 235 257 236 
438 236 257 258 
439 236 258 259 
440 259 237 236 
441 237 259 238 
442 238 259 260 
443 238 260 261 
444 261 239 238 
445 239 261 240 
446 240 261 262 
447 240 262 263 
448 263 241 240 
449 241 263 242 
450 242 263 264 
451 242 264 265 
452 265 243 242 
453 243 265 244 
454 244 265 266 
455 244 266 267 
456 267 245 244 
457 245 267 246 
458 246 267 268 
459 246 268 63 
460 63 64 246 
461 12 13 247 
462 247 13 269 
463 247 269 270 
464 270 248 247 
465 248 270 249 
466 249 270 271 
467 249 271 272 
468 272 250 249 
469 250 272 251 
470 251 272 273 
471 251 273 274 
472 274 252 251 
473 252 274 253 
474 253 274 275 
475 253 275 276 
476 276 254 253 
477 254 276 255 
478 255 276 277 
479 255 277 278 
480 278 256 255 
481 256 278 257 
482 257 278 279 
483 257 279 280 
484 280 258 257 
485 258 280 259 
486 259 280 281 
487 259 281 282 
488 282 260 259 
489 260 282 261 
490 261 282 283 
491 261 283 284 
492 284 262 261 
493 262 284 263 
494 263 284 285 
495 263 285 286 
496 286 264 263 
497 264 286 265 
498 265 286 287 
499 265 287 288 
500 288 266 265 
501 266 288 267 
502 267 288 289 
503 267 289 290 
504 290 268 267 
505 268 290 63 
506 63 290 62 
507 13 14 291 
508 291 269 13 
509 269 291 270 
510 270 291 292 
511 270 292 293 
512 293 271 270 
513 271 293 272 
514 272 293 294 
515 272 294 295 
516 295 273 272 
517 273 295 274 
518 274 295 296 
519 274 296 297 
520 297 275 274 
521 275 297 276 
522 276 297 298 
523 276 298 299 
524 299 277 276 
525 277 299 278 
526 278 299 300 
527 278 300 301 
528 301 279 278 
529 279 301 280 
530 280 301 302 
531 280 302 303 
532 303 281 280 
533 281 303 282 
534 282 303 304 
535 282 304 305 
536 305 283 282 
537 283 305 284 
538 284 305 306 
539 284 306 307 
540 307 285 284 
541 285 307 286 
542 286 307 308 
543 286 308 309 
544 309 287 286 
545 287 309 288 
546 288 309 310 
547 288 310 311 
548 311 289 288 
549 289 311 290 
550 290 311 312 
551 290 312 61 
552 61 62 290 
553 14 15 291 
554 291 15 313 
555 291 313 314 
556 314 292 291 
557 292 314 293 
558 293 314 315 
559 293 315 316 
560 316 294 293 
561 294 316 295 
562 295 316 317 
563 295 317 318 
564 318 296 295 
565 296 318 297 
566 297 318 319 
567 297 319 320 
568 320 298 297 
569 298 320 299 
570 299 320 321 
571 299 321 322 
572 322 300 299 
573 300 322 301 
574 301 322 323 
575 301 323 324 
576 324 302 301 
577 302 324 303 
578 303 324 325 
579 303 325 326 
580 326 304 303 
581 304 326 305 
582 305 326 327 
583 305 327 328 
584 328 306 305 
585 306 328 307 
586 307 328 329 
587 307 329 330 
588 330 308 307 
589 308 330 309 
590 309 330 331 
591 309 331 332 
592 332 310 309 
593 310 332 311 
594 311 332 333 
595 311 333 334 
596 334 312 311 
597 312 334 61 
598 61 334 60 
599 15 16 335 
600 335 313 15 
601 313 335 314 
602 314 335 336 
603 314 336 337 
604 337 315 314 
605 315 337 316 
606 316 337 338 
607 316 338 339 
608 339 317 316 
609 317 339 318 
610 318 339 340 
611 318 340 341 
612 341 319 318 
613 319 341 320 
614 320 341 342 
615 320 342 343 
616 343 321 320 
617 321 343 322 
618 322 343 344 
619 322 344 345 
620 345 323 322 
621 323 345 324 
622 324 345 346 
623 324 346 347 
624 347 325 324 
625 325 347 326 
626 326 347 348 
627 326 348 349 
628 349 327 326 
629 327 349 328 
630 328 349 350 
631 328 350 351 
632 351 329 328 
633 329 351 330 
634 330 351 352 
635 330 352 353 
636 353 331 330 
637 331 353 332 
638 332 353 354 
639 332 354 355 
640 355 333 332 
641 333 355 334 
642 334 355 356 
643 334 356 59 
644 59 60 334 
645 16 17 335 
646 335 17 357 
647 335 357 358 
648 358 336 335 
649 336 358 337 
650 337 358 359 
651 337 359 360 
652 360 338 337 
653 338 360 339 
654 339 360 361 
655 339 361 362 
656 362 340 339 
657 340 362 341 
658 341 362 363 
659 341 363 364 
660 364 342 341 
661 342 364 343 
662 343 364 365 
663 343 365 366 
664 366 344 343 
665 344 366 345 
666 345 366 367 
667 345 367 368 
668 368 346 345 
669 346 368 347 
670 347 368 369 
671 347 369 370 
672 370 348 347 
673 348 370 349 
674 349 370 371 
675 349 371 372 
676 372 350 349 
677 350 372 351 
678 351 372 373 
679 351 373 374 
680 374 352 351 
681 352 374 353 
682 353 374 375 
683 353 375 376 
684 376 354 353 
685 354 376 355 
686 355 376 377 
687 355 377 378 
688 378 356 355 
689 356 378 59 
690 59 378 58 
691 17 18 379 
692 379 357 17 
693 357 379 358 
694 358 379 380 
695 358 380 381 
696 381 359 358 
697 359 381 360 
698 360 381 382 
699 360 382 383 
700 383 361 360 
701 361 383 362 
702 362 383 384 
703 362 384 385 
704 385 363 362 
705 363 385 364 
706 364 385 386 
707 364 386 387 
708 387 365 364 
709 365 387 366 
710 366 387 388 
711 366 388 389 
712 389 367 366 
713 367 389 368 
714 368 389 390 
715 368 390 391 
716 391 369 368 
717 369 391 370 
718 370 391 392 
719 370 392 393 
720 393 371 370 
721 371 393 372 
722 372 393 394 
723 372 394 395 
724 395 373 372 
725 373 395 374 
726 374 395 396 
727 374 396 397 
728 397 375 374 
729 375 397 376 
730 376 397 398 
731 376 398 399 
732 399 377 376 
733 377 399 378 
734 378 399 400 
735 378 400 57 
736 57 58 378 
737 18 19 379 
738 379 19 401 
739 379 401 402 
740 402 380 379 
741 380 402 381 
742 381 402 403 
743 381 403 404 
744 404 382 381 
745 382 404 383 
746 383 404 405 
747 383 405 406 
748 406 384 383 
749 384 406 385 
750 385 406 407 
751 385 407 408 
752 408 386 385 
753 386 408 387 
754 387 408 409 
755 387 409 410 
756 410 388 387 
757 388 410 389 
758 389 410 411 
759 389 411 412 
760 412 390 389 
761 390 412 391 
762 391 412 413 
763 391 413 414 
764 414 392 391 
765 392 414 393 
766 393 414 415 
767 393 415 416 
768 416 394 393 
769 394 416 395 
770 395 416 417 
771 395 417 418 
772 418 396 395 
773 396 418 397 
774 397 418 419 
775 397 419 420 
776 420 398 397 
777 398 420 399 
778 399 420 421 
779 399 421 422 
780 422 400 399 
781 400 422 57 
782 57 422 56 
783 19 20 423 
784 423 401 19 
785 401 423 402 
786 402 423 424 
787 402 424 425 
788 425 403 402 
789 403 425 404 
790 404 425 426 
791 404 426 427 
792 427 405 404 
793 405 427 406 
794 406 427 428 
795 406 428 429 
796 429 407 406 
797 407 429 408 
798 408 429 430 
799 408 430 431 
800 431 409 408 
801 409 431 410 
802 410 431 432 
803 410 432 433 
804 433 411 410 
805 411 433 412 
806 412 433 434 
807 412 434 435 
808 435 413 412 
809 413 435 414 
810 414 435 436 
811 414 436 437 
812 437 415 414 
813 415 437 416 
814 416 437 438 
815 416 438 439 
816 439 417 416 
817 417 439 418 
818 418 439 440 
819 418 440 441 
820 441 419 418 
821 419 441 420 
822 420 441 442 
823 420 442 443 
824 443 421 420 
825 421 443 422 
826 422 443 444 
827 422 444 55 
828 55 56 422 
829 20 21 423 
830 423 21 445 
831 423 445 446 
832 446 424 423 
833 424 446 425 
834 425 446 447 
835 425 447 448 
836 448 426 425 
837 426 448 427 
838 427 448 449 
839 427 449 450 
840 450 428 427 
841 428 450 429 
842 429 450 451 
843 429 451 452 
844 452 430 429 
845 430 452 431 
846 431 452 453 
847 431 453 454 
848 454 432 431 
849 432 454 433 
850 433 454 455 
851 433 455 456 
852 456 434 433 
853 434 456 435 
854 435 456 457 
855 435 457 458 
856 458 436 435 
857 436 458 437 
858 437 458 459 
859 437 459 460 
860 460 438 437 
861 438 460 439 
862 439 460 461 
863 439 461 462 
864 462 440 439 
865 440 462 441 
866 441 462 463 
867 441 463 464 
868 464 442 441 
869 442 464 443 
870 443 464 465 
871 443 465 466 
872 466 444 443 
873 444 466 55 
874 55 466 54 
875 21 22 467 
876 467 445 21 
877 445 467 446 
878 446 467 468 
879 446 468 469 
880 469 447 446 
881 447 469 448 
882 448 469 470 
883 448 470 471 
884 471 449 448 
885 449 471 450 
886 450 471 472 
887 450 472 473 
888 473 451 450 
889 451 473 452 
890 452 473 474 
891 452 474 475 
892 475 453 452 
893 453 475 454 
894 454 475 476 
895 454 476 477 
896 477 455 454 
897 455 477 456 
898 456 477 478 
899 456 478 479 
900 479 457 456 
901 457 479 458 
902 458 479 480 
903 458 480 481 
904 481 459 458 
905 459 481 460 
906 460 481 482 
907 460 482 483 
908 483 461 460 
909 461 483 462 
910 462 483 484 
911 462 484 485 
912 485 463 462 
913 463 485 464 
914 464 485 486 
915 464 486 487 
916 487 465 464 
917 465 487 466 
918 466 487 488 
919 466 488 53 
920 53 54 466 
921 22 23 467 
922 467 23 489 
923 467 489 490 
924 490 468 467 
925 468 490 469 
926 469 490 491 
927 469 491 492 
928 492 470 469 
929 470 492 471 
930 471 492 493 
931 471 493 494 
932 494 472 471 
933 472 494 473 
934 473 494 495 
935 473 495 496 
936 496 474 473 
937 474 496 475 
938 475 496 497 
939 475 497 498 
940 498 476 475 
941 476 498 477 
942 477 498 499 
943 477 499 500 
944 500 478 477 
945 478 500 479 
946 479 500 501 
947 479 501 502 
948 502 480 479 
949 480 502 481 
950 481 502 503 
951 481 503 504 
952 504 482 481 
953 482 504 483 
954 483 504 505 
955 483 505 506 
956 506 484 483 
957 484 506 485 
958 485 506 507 
959 485 507 508 
960 508 486 485 
961 486 508 487 
962 487 508 509 
963 487 509 510 
964 510 488 487 
965 488 510 53 
966 53 510 52 
967 23 24 511 
968 511 489 23 
969 489 511 490 
970 490 511 512 
971 490 512 513 
972 513 491 490 
973 491 513 492 
974 492 513 514 
975 492 514 515 
976 515 493 492 
977 493 515 494 
978 494 515 516 
979 494 516 517 
980 517 495 494 
981 495 517 496 
982 496 517 518 
983 496 518 519 
984 519 497 496 
985 497 519 498 
986 498 519 520 
987 498 520 521 
988 521 499 498 
989 499 521 500 
990 500 521 522 
991 500 522 523 
992 523 501 500 
993 501 523 502 
994 502 523 524 
995 502 524 525 
996 525 503 502 
997 503 525 504 
998 504 525 526 
999 504 526 527 
1000 527 505 504 
1001 505 527 506 
1002 506 527 528 
1003 506 528 529 
1004 529 507 506 
1005 507 529 508 
1006 508 529 530 
1007 508 530 531 
1008 531 509 508 
1009 509 531 510 
1010 510 531 532 
1011 510 532 51 
1012 51 52 510 
1013 24 25 511 
1014 511 25 533 
1015 511 533 534 
1016 534 512 511 
1017 512 534 513 
1018 513 534 535 
1019 513 535 536 
1020 536 514 513 
1021 514 536 515 
1022 515 536 537 
1023 515 537 538 
1024 538 516 515 
1025 516 538 517 
1026 517 538 539 
1027 517 539 540 
1028 540 518 517 
1029 518 540 519 
1030 519 540 541 
1031 519 541 542 
1032 542 520 519 
1033 520 542 521 
1034 521 542 543 
1035 521 543 544 
1036 544 522 521 
1037 522 544 523 
1038 523 544 545 
1039 523 545 546 
1040 546 524 523 
1041 524 546 525 
1042 525 546 547 
1043 525 547 548 
1044 548 526 525 
1045 526 548 527 
1046 527 548 549 
1047 527 549 550 
1048 550 528 527 
1049 528 550 529 
1050 529 550 551 
1051 529 551 552 
1052 552 530 529 
1053 530 552 531 
1054 531 552 553 
1055 531 553 554 
1056 554 532 531 
1057 532 554 51 
1058 51 554 50 
1059 25 26 555 
1060 555 533 25 
1061 533 555 534 
1062 534 555 556 
1063 534 556 557 
1064 557 535 534 
1065 535 557 536 
1066 536 557 558 
1067 536 558 559 
1068 559 537 536 
1069 537 559 538 
1070 538 559 560 
1071 538 560 561 
1072 561 539 538 
1073 539 561 540 
1074 540 561 562 
1075 540 562 563 
1076 563 541 540 
1077 541 563 542 
1078 542 563 564 
1079 542 564 565 
1080 565 543 542 
1081 543 565 544 
1082 544 565 566 
1083 544 566 567 
1084 567 545 544 
1085 545 567 546 
1086 546 567 568 
1087 546 568 569 
1088 569 547 546 
1089 547 569 548 
1090 548 569 570 
1091 548 570 571 
1092 571 549 548 
1093 549 571 550 
1094 550 571 572 
1095 550 572 573 
1096 573 551 550 
1097 551 573 552 
1098 552 573 574 
1099 552 574 575 
1100 575 553 552 
1101 553 575 554 
1102 554 575 576 
1103 554 576 49 
1104 49 50 554 
1105 26 2 555 
1106 555 2 27 
1107 555 27 28 
1108 28 556 555 
1109 556 28 557 
1110 557 28 29 
1111 557 29 30 
1112 30 558 557 
1113 558 30 559 
1114 559 30 31 
1115 559 31 32 
1116 32 560 559 
1117 560 32 561 
1118 561 32 33 
1119 561 33 34 
1120 34 562 561 
1121 562 34 563 
1122 563 34 35 
1123 563 35 36 
1124 36 564 563 
1125 564 36 565 
1126 565 36 37 
1127 565 37 38 
1128 38 566 565 
1129 566 38 567 
1130 567 38 39 
1131 567 39 40 
1132 40 568 567 
1133 568 40 569 
1134 569 40 41 
1135 569 41 42 
1136 42 570 569 
1137 570 42 571 
1138 571 42 43 
1139 571 43 44 
1140 44 572 571 
1141 572 44 573 
1142 573 44 45 
1143 573 45 46 
1144 46 574 573 
1145 574 46 575 
1146 575 46 47 
1147 575 47 48 
1148 48 576 575 
1149 576 48 49 
1150 49 48 3 
$EndElements
