$MeshFormat
4.1 0 8
$EndMeshFormat
$PhysicalNames
5
1 1 "Γ¹"
1 2 "Γ²"
1 3 "Γ³"
1 5 "Γ"
2 4 "Ω"
$EndPhysicalNames
$Entities
3 4 1 0
1 0 0 0 0 
2 1 0 0 0 
3 0.5 0.8660254037844385 0 0 
1 0 0 0 1 0 0 1 1 2 1 -2 
2 0.5 0 0 1 0.8660254037844385 0 1 2 2 2 -3 
3 0 0 0 0.5 0.8660254037844385 0 1 3 2 3 -1 
4 0 0 0 1 0.8660254037844385 0 1 5 0 
1 0 0 0 1 0.8660254037844385 0 1 4 3 1 2 3 
$EndEntities
$Nodes
8 381 1 381
0 1 0 1
1
0 0 0
0 2 0 1
2
1 0 0
0 3 0 1
3
0.5 0.8660254037844385 0
1 1 0 18
4
5
6
7
8
9
10
11
12
13
14
15
16
17
18
19
20
21
0.05263157894726194 0 0
0.1052631578945429 0 0
0.157894736841785 0 0
0.2105263157889998 0 0
0.2631578947362146 0 0
0.3157894736834294 0 0
0.3684210526306442 0 0
0.421052631577859 0 0
0.4736842105250738 0 0
0.5263157894724348 0 0
0.5789473684199421 0 0
0.6315789473674494 0 0
0.6842105263149566 0 0
0.7368421052624637 0 0
0.789473684209971 0 0
0.8421052631574782 0 0
0.8947368421049855 0 0
0.9473684210524927 0 0
1 2 0 18
22
23
24
25
26
27
28
29
30
31
32
33
34
35
36
37
38
39
0.9736842105263548 0.04558028440963974 0
0.9473684210527009 0.09116056881929439 0
0.9210526315790664 0.1367408532289159 0
0.8947368421054411 0.1823211376385208 0
0.8684210526318114 0.227901422048134 0
0.8421052631581952 0.2734817064577233 0
0.8157894736845673 0.3190619908673329 0
0.789473684210943 0.3646422752769367 0
0.7631578947373084 0.4102225596865579 0
0.7368421052636294 0.4558028440962562 0
0.7105263157898913 0.5013831285060568 0
0.6842105263161629 0.5469634129158408 0
0.6578947368424185 0.5925436973256522 0
0.6315789473686757 0.6381239817354609 0
0.6052631578949372 0.6837042661452621 0
0.5789473684212072 0.7292845505550488 0
0.5526315789474683 0.7748648349648508 0
0.5263157894737269 0.8204451193746571 0
1 3 0 18
40
41
42
43
44
45
46
47
48
49
50
51
52
53
54
55
56
57
0.4736842105263255 0.820445119374748 0
0.4473684210526415 0.7748648349650411 0
0.421052631579022 0.7292845505554459 0
0.3947368421054487 0.6837042661459307 0
0.3684210526318817 0.6381239817364265 0
0.3421052631583152 0.5925436973269231 0
0.3157894736847177 0.5469634129173659 0
0.2894736842111271 0.5013831285078207 0
0.2631578947375425 0.4558028440982861 0
0.2368421052638729 0.410222559688604 0
0.2105263157901077 0.3646422752787564 0
0.1842105263163522 0.3190619908689256 0
0.1578947368425808 0.2734817064590673 0
0.1315789473688109 0.2279014220492116 0
0.1052631578950455 0.1823211376393638 0
0.07894736842128841 0.1367408532295302 0
0.05263157894752252 0.09116056881968149 0
0.02631578947375413 0.04558028440982842 0
1 4 0 0
2 1 0 324
58
59
60
61
62
63
64
65
66
67
68
69
70
71
72
73
74
75
76
77
78
79
80
81
82
83
84
85
86
87
88
89
90
91
92
93
94
95
96
97
98
99
100
101
102
103
104
105
106
107
108
109
110
111
112
113
114
115
116
117
118
119
120
121
122
123
124
125
126
127
128
129
130
131
132
133
134
135
136
137
138
139
140
141
142
143
144
145
146
147
148
149
150
151
152
153
154
155
156
157
158
159
160
161
162
163
164
165
166
167
168
169
170
171
172
173
174
175
176
177
178
179
180
181
182
183
184
185
186
187
188
189
190
191
192
193
194
195
196
197
198
199
200
201
202
203
204
205
206
207
208
209
210
211
212
213
214
215
216
217
218
219
220
221
222
223
224
225
226
227
228
229
230
231
232
233
234
235
236
237
238
239
240
241
242
243
244
245
246
247
248
249
250
251
252
253
254
255
256
257
258
259
260
261
262
263
264
265
266
267
268
269
270
271
272
273
274
275
276
277
278
279
280
281
282
283
284
285
286
287
288
289
290
291
292
293
294
295
296
297
298
299
300
301
302
303
304
305
306
307
308
309
310
311
312
313
314
315
316
317
318
319
320
321
322
323
324
325
326
327
328
329
330
331
332
333
334
335
336
337
338
339
340
341
342
343
344
345
346
347
348
349
350
351
352
353
354
355
356
357
358
359
360
361
362
363
364
365
366
367
368
369
370
371
372
373
374
375
376
377
378
379
380
381
0.05124653739602674 0.002398962337355834 0
0.04986149584479108 0.004797924674712455 0
0.04847645429355645 0.007196887012067327 0
0.04709141274232229 0.00959584934942133 0
0.04570637119108791 0.01199481168677577 0
0.04432132963985424 0.01439377402412895 0
0.04293628808861994 0.0167927363614832 0
0.04155124653738584 0.01919169869883713 0
0.0401662049861512 0.02159066103619199 0
0.03878116343491422 0.02398962337355091 0
0.03739612188367414 0.02638858571091521 0
0.03601108033243455 0.02878754804827864 0
0.03462603878119414 0.03118651038564351 0
0.0332409972299538 0.03358547272300823 0
0.03185595567871369 0.03598443506037257 0
0.03047091412747402 0.03838339739773613 0
0.02908587257623389 0.04078235973510052 0
0.02770083102499363 0.04318132207246512 0
0.1024930747920722 0.004797924674712966 0
0.09972299168960067 0.009595849349427504 0
0.09695290858713114 0.01439377402413855 0
0.0941828254846626 0.01919169869884785 0
0.09141274238219355 0.02398962337355802 0
0.088642659279726 0.02878754804826567 0
0.08587257617725717 0.03358547272297548 0
0.0831024930747887 0.03838339739768465 0
0.08033240997231916 0.04318132207239567 0
0.07756232686984496 0.0479792467471148 0
0.07479224376736454 0.0527771714218447 0
0.07202216066488512 0.05757509609657284 0
0.06925207756240404 0.06237302077130388 0
0.0664819944599231 0.06717094544603462 0
0.06371191135744267 0.07196887012076461 0
0.06094182825496304 0.07676679479549302 0
0.05817174515248254 0.08156471947022308 0
0.05540166205000176 0.08636264414495358 0
0.1537396121880809 0.00719688701206987 0
0.1495844875343753 0.01439377402414209 0
0.1454293628806727 0.02159066103620907 0
0.1412742382269718 0.02878754804827346 0
0.13711911357327 0.03598443506033912 0
0.1329639889195704 0.04318132207240104 0
0.1288088642658689 0.05037820908446616 0
0.124653739612168 0.05757509609653033 0
0.1204986149584655 0.06477198310859729 0
0.116343490304756 0.0719688701206764 0
0.1121883656510372 0.07916575713277167 0
0.1080332409973198 0.08636264414486433 0
0.1038781163436 0.09355953115696128 0
0.09972299168988033 0.1007564181690578 0
0.09556786703616144 0.1079533051811532 0
0.09141274238244389 0.1151501921932463 0
0.0872576177287249 0.1223470792053418 0
0.08310249307500549 0.1295439662174379 0
0.2049861495840631 0.009595849349425976 0
0.1994459833791245 0.01919169869885508 0
0.19390581717419 0.02878754804827721 0
0.1883656509692574 0.03838339739769587 0
0.1828254847643239 0.04797924674711624 0
0.1772853185593933 0.05757509609653161 0
0.1717451523544602 0.06717094544595123 0
0.1662049861495279 0.07676679479536962 0
0.1606648199445934 0.08636264414479169 0
0.1551246537396494 0.09595849349423 0
0.1495844875346931 0.1055543428436898 0
0.1440443213297388 0.1151501921931462 0
0.1385041551247812 0.1247460415426083 0
0.1329639889198239 0.1343418908920699 0
0.1274238227148675 0.1439377402415298 0
0.1218836565099129 0.1535335895909868 0
0.1163434903049564 0.1631294389404468 0
0.1108033240999994 0.1727252882899079 0
0.2562326869800457 0.01199481168678283 0
0.2493074792238746 0.02398962337356959 0
0.2423822714677084 0.03598443506034761 0
0.2354570637115448 0.04797924674712129 0
0.22853185595538 0.05997405843389712 0
0.2216066481992188 0.07196887012066668 0
0.2146814404430545 0.0839636818074416 0
0.2077562326868911 0.09595849349421495 0
0.200831024930725 0.1079533051809929 0
0.1939058171745472 0.1199481168677912 0
0.186980609418354 0.1319429285546163 0
0.1800554016621632 0.1439377402414371 0
0.1731301939059682 0.1559325519282651 0
0.1662049861497736 0.1679273636150924 0
0.1592797783935802 0.1799221753019177 0
0.152354570637389 0.1919169869887392 0
0.1454293628811955 0.2039117986755648 0
0.1385041551250012 0.2159066103623915 0
0.3074792243760286 0.0143937740241401 0
0.2991689750686252 0.02878754804828491 0
0.2908587257612277 0.04318132207241923 0
0.2825484764538332 0.05757509609654836 0
0.2742382271464374 0.07196887012068008 0
0.2659279778390458 0.08636264414480424 0
0.2576177285316504 0.1007564181689348 0
0.2493074792242563 0.1151501921930636 0
0.2409972299168589 0.1295439662171978 0
0.2326869806094474 0.1439377402413564 0
0.2243767313020174 0.1583315142655473 0
0.2160664819945903 0.172725288289733 0
0.2077562326871582 0.1871190623139272 0
0.1994459833797266 0.2015128363381208 0
0.1911357340722964 0.2159066103623118 0
0.1828254847648689 0.2303003843864984 0
0.1745152354574384 0.2446941584106897 0
0.1662049861500073 0.2590879324348824 0
0.3587257617720117 0.01679273636149752 0
0.3490304709133757 0.0335854727230005 0
0.3393351800547472 0.05037820908449129 0
0.329639889196122 0.06717094544597596 0
0.3199445983374951 0.08396368180746371 0
0.3102493074788731 0.1007564181689426 0
0.3005540166202471 0.1175491545304291 0
0.2908587257616221 0.1343418908919132 0
0.2811634349029934 0.151134627253404 0
0.2714681440443484 0.167927363614923 0
0.2617728531856816 0.1847200999764798 0
0.2520775623270184 0.2015128363380305 0
0.2423822714683492 0.2183055726995912 0
0.2326869806096807 0.235098309061151 0
0.2229916897510139 0.2518910454227081 0
0.21329639889235 0.2686837817842596 0
0.2036011080336828 0.285476518145817 0
0.1939058171750149 0.3022692545073757 0
0.4099722991679938 0.01919169869885347 0
0.3988919667581249 0.03838339739771321 0
0.3878116343482642 0.05757509609655898 0
0.3767313019384073 0.07676679479539779 0
0.3656509695285485 0.09595849349424009 0
0.3545706371186957 0.1151501921930723 0
0.3434903047088376 0.1343418908919131 0
0.3324099722989813 0.1535335895907514 0
0.3213296398891205 0.1727252882895971 0
0.310249307479241 0.1919169869884752 0
0.2991689750693367 0.2111086856873964 0
0.2880886426594365 0.2303003843863106 0
0.2770083102495294 0.2494920830852363 0
0.2659279778396231 0.2686837817841611 0
0.2548476454297187 0.2878754804830824 0
0.2437673130198178 0.3070671791819978 0
0.2326869806099131 0.3262588778809196 0
0.2216066482000073 0.3454505765798432 0
0.4612188365639765 0.02159066103621031 0
0.448753462602875 0.04318132207242769 0
0.4362880886417827 0.06477198310862936 0
0.4238227146806947 0.08636264414482317 0
0.4113573407196048 0.1079533051810209 0
0.3988919667585212 0.1295439662172073 0
0.386426592797432 0.1511346272534034 0
0.3739612188363445 0.1727252882895967 0
0.3614958448752522 0.1943159493257982 0
0.3490304709141387 0.2159066103620363 0
0.3365650969529974 0.2374972713983228 0
0.3240997229918606 0.2590879324346014 0
0.3116343490307163 0.280678593470893 0
0.2991689750695727 0.3022692545071833 0
0.2867036011084312 0.3238599155434702 0
0.2742382271472937 0.3454505765797501 0
0.2617728531861519 0.3670412376160373 0
0.2493074792250089 0.3886318986523264 0
0.5124653739600926 0.02398962337355844 0
0.4986149584477458 0.04797924674712474 0
0.4847645429354093 0.07196887012067357 0
0.4709141274230775 0.09595849349421372 0
0.4570637119107435 0.1199481168677582 0
0.4432132963984165 0.14393774024129 0
0.4293628808860834 0.1679273636148326 0
0.4155124653737522 0.1919169869883722 0
0.4016620498614156 0.2159066103619209 0
0.3878116343490554 0.2398962337355101 0
0.3739612188366644 0.2638858571091532 0
0.3601108033242784 0.2878754804827877 0
0.346260387811884 0.3118651038564363 0
0.3324099722994903 0.3358547272300837 0
0.318559556787099 0.3598443506037273 0
0.3047091412747122 0.383833973977363 0
0.2908587257623206 0.4078235973510068 0
0.2770083102499277 0.431813220724653 0
0.5637119113563428 0.02638858571089881 0
0.5484764542927384 0.05277717142180628 0
0.5332409972291455 0.07916575713269451 0
0.5180055401655577 0.1055543428435732 0
0.5027700831019674 0.1319429285544566 0
0.487534626038385 0.1583315142653262 0
0.4722991689747957 0.1847200999762076 0
0.4570637119112085 0.2111086856870856 0
0.4418282548476155 0.2374972713979737 0
0.4265927977839965 0.2638858571089063 0
0.4113573407203436 0.2902744428198982 0
0.3961218836566961 0.3166630285308807 0
0.3808864265930395 0.3430516142418789 0
0.3656509695293837 0.3694401999528755 0
0.3504155124657304 0.3958287856638679 0
0.3351800554020821 0.4222173713748518 0
0.3199445983384286 0.4486059570858445 0
0.3047091412747737 0.4749945427968398 0
0.6149584487525931 0.02878754804823975 0
0.5983379501377321 0.05757509609648891 0
0.5817174515228825 0.0863626441447171 0
0.5650969529080393 0.1151501921929349 0
0.5484764542931931 0.1439377402411578 0
0.5318559556783553 0.1727252882893657 0
0.5152354570635104 0.2015128363375865 0
0.4986149584486677 0.2303003843858035 0
0.4819944598338185 0.2590879324340316 0
0.4653739612189409 0.2878754804823083 0
0.4487534626040263 0.3166630285306496 0
0.4321329639891178 0.3454505765789804 0
0.4155124653741992 0.3742381246273285 0
0.3988919667592816 0.4030256726756751 0
0.3822714681443667 0.4318132207240167 0
0.3656509695294572 0.4606007687723495 0
0.3490304709145419 0.4893883168206916 0
0.3324099722996252 0.5181758648690364 0
0.6662049861488443 0.03118651038558131 0
0.6481994459827259 0.06237302077117281 0
0.630193905816621 0.09355953115674162 0
0.6121883656505223 0.1247460415422991 0
0.5941828254844206 0.1559325519278622 0
0.5761772853183281 0.187119062313409 0
0.5581717451522277 0.2183055726989697 0
0.5401662049861297 0.2494920830845264 0
0.5221606648200245 0.2806785934700952 0
0.5041551246538888 0.3118651038557164 0
0.4861495844877132 0.3430516142414077 0
0.4681440443215439 0.3742381246270879 0
0.4501385041553637 0.4054246350127866 0
0.4321329639891847 0.4366111453984836 0
0.4141274238230084 0.4677976557841753 0
0.3961218836568381 0.4989841661698571 0
0.3781163434906616 0.5301706765555494 0
0.3601108033244836 0.5613571869412447 0
0.7174515235450933 0.03358547272292002 0
0.6980609418277169 0.06717094544585106 0
0.6786703601103542 0.1007564181687576 0
0.6592797783929986 0.134341890891652 0
0.6398891966756399 0.1679273636145524 0
0.620498614958291 0.2015128363374353 0
0.6011080332409333 0.2350983090603332 0
0.5817174515235783 0.2686837817832266 0
0.5623268698062159 0.3022692545061331 0
0.5429362880888207 0.3358547272290962 0
0.523545706371382 0.3694401999521348 0
0.5041551246539503 0.4030256726751611 0
0.4847645429365069 0.4366111453982076 0
0.4653739612190647 0.4701966181212522 0
0.4459833795016255 0.5037820908442912 0
0.4265927977841928 0.5373675635673195 0
0.4072022160667534 0.5709530362903591 0
0.3878116343493122 0.6045385090134018 0
0.7686980609413427 0.03598443506025881 0
0.7479224376727075 0.07196887012052937 0
0.7271468144040878 0.1079533051807737 0
0.7063711911354753 0.1439377402410051 0
0.6855955678668593 0.1799221753012429 0
0.6648199445982539 0.2159066103614619 0
0.6440443213296393 0.2518910454216969 0
0.6232686980610274 0.2878754804819273 0
0.6024930747924075 0.3238599155421715 0
0.5817174515237526 0.3598443506024766 0
0.5609418282550509 0.3958287856628623 0
0.5401662049863569 0.4318132207232351 0
0.5193905817176505 0.4677976557836293 0
0.498614958448945 0.5037820908440216 0
0.4778393351802432 0.5397665259044079 0
0.4570637119115479 0.5757509609647825 0
0.4362880886428457 0.6117353960251695 0
0.4155124653741414 0.6477198310855597 0
0.8199445983375924 0.03838339739759816 0
0.7977839335176991 0.07676679479520887 0
0.7756232686978222 0.1151501921927916 0
0.7534626038779529 0.1535335895903605 0
0.7313019390580802 0.1919169869879362 0
0.7091412742382186 0.230300384385492 0
0.6869806094183475 0.2686837817830648 0
0.664819944598479 0.3070671791806326 0
0.642659279778602 0.3454505765782152 0
0.6204986149586877 0.3838339739758626 0
0.5983379501387237 0.4222173713735963 0
0.5761772853187678 0.4606007687713158 0
0.5540166204987983 0.4989841661690585 0
0.5318559556788303 0.537367563566799 0
0.5096952908588659 0.5757509609645333 0
0.4875346260389084 0.6141343583622552 0
0.4653739612189437 0.6525177557599898 0
0.4432132963989768 0.6909011531577282 0
0.8711911357338443 0.04078235973494171 0
0.8476454293626955 0.08156471946989677 0
0.8240997229915639 0.1223470792048221 0
0.8005540166204406 0.1631294389397327 0
0.7770083102493133 0.2039117986746507 0
0.7534626038781982 0.2446941584095473 0
0.7299168975070728 0.2854765181444621 0
0.7063711911359505 0.3262588778793715 0
0.6828254847648189 0.3670412376142967 0
0.6592797783936475 0.4078235973492908 0
0.6357340720224229 0.4486059570843765 0
0.6121883656512075 0.4893883168194473 0
0.5886426592799778 0.5301706765545423 0
0.5650969529087494 0.5709530362896353 0
0.541551246537525 0.6117353960247216 0
0.5180055401663078 0.6525177557597949 0
0.4944598337950828 0.6933001154948818 0
0.4709141274238557 0.7340824752299723 0
0.9224376731300997 0.04318132207229116 0
0.8975069252076988 0.08636264414459642 0
0.8725761772853159 0.1295439662168703 0
0.8476454293629418 0.1727252882891284 0
0.8227146814405636 0.2159066103613944 0
0.7977839335181982 0.2590879324336378 0
0.7728531855958218 0.3022692545059005 0
0.7479224376734485 0.3454505765781575 0
0.7229916897510658 0.3886318986504311 0
0.6980609418286408 0.4318132207227777 0
0.67313019390616 0.4749945427952212 0
0.6481994459836882 0.5181758648676491 0
0.6232686980612012 0.5613571869401029 0
0.5983379501387158 0.604538509012554 0
0.5734072022162349 0.6477198310849982 0
0.5484764542937614 0.6909011531574285 0
0.5235457063712798 0.7340824752298732 0
0.4986149584487958 0.7772637973023225 0
$EndNodes
$Elements
5 2869 1 7850
1 1 1 19
1 1 4 
2 4 5 
3 5 6 
4 6 7 
5 7 8 
6 8 9 
7 9 10 
8 10 11 
9 11 12 
10 12 13 
11 13 14 
12 14 15 
13 15 16 
14 16 17 
15 17 18 
16 18 19 
17 19 20 
18 20 21 
19 21 2 
1 2 1 19
20 2 22 
21 22 23 
22 23 24 
23 24 25 
24 25 26 
25 26 27 
26 27 28 
27 28 29 
28 29 30 
29 30 31 
30 31 32 
31 32 33 
32 33 34 
33 34 35 
34 35 36 
35 36 37 
36 37 38 
37 38 39 
38 39 3 
1 3 1 19
39 3 40 
40 40 41 
41 41 42 
42 42 43 
43 43 44 
44 44 45 
45 45 46 
46 46 47 
47 47 48 
48 48 49 
49 49 50 
50 50 51 
51 51 52 
52 52 53 
53 53 54 
54 54 55 
55 55 56 
56 56 57 
57 57 1 
1 4 1 2109
5742 1 4 
5743 4 58 
5744 58 1 
5745 1 58 
5746 58 59 
5747 59 1 
5748 1 59 
5749 59 60 
5750 60 1 
5751 1 60 
5752 60 61 
5753 61 1 
5754 1 61 
5755 61 62 
5756 62 1 
5757 1 62 
5758 62 63 
5759 63 1 
5760 1 63 
5761 63 64 
5762 64 1 
5763 1 64 
5764 64 65 
5765 65 1 
5766 1 65 
5767 65 66 
5768 66 1 
5769 1 66 
5770 66 67 
5771 67 1 
5772 1 67 
5773 67 68 
5774 68 1 
5775 1 68 
5776 68 69 
5777 69 1 
5778 1 69 
5779 69 70 
5780 70 1 
5781 1 70 
5782 70 71 
5783 71 1 
5784 1 71 
5785 71 72 
5786 72 1 
5787 1 72 
5788 72 73 
5789 73 1 
5790 1 73 
5791 73 74 
5792 74 1 
5793 1 74 
5794 74 75 
5795 75 1 
5796 1 75 
5797 75 57 
5798 57 1 
5799 4 5 
5800 5 58 
5801 58 4 
5802 58 5 
5803 5 76 
5804 76 58 
5805 58 76 
5806 76 59 
5807 59 58 
5808 59 76 
5809 76 77 
5810 77 59 
5811 59 77 
5812 77 60 
5813 60 59 
5814 60 77 
5815 77 78 
5816 78 60 
5817 60 78 
5818 78 61 
5819 61 60 
5820 61 78 
5821 78 79 
5822 79 61 
5823 61 79 
5824 79 62 
5825 62 61 
5826 62 79 
5827 79 80 
5828 80 62 
5829 62 80 
5830 80 63 
5831 63 62 
5832 63 80 
5833 80 81 
5834 81 63 
5835 63 81 
5836 81 64 
5837 64 63 
5838 64 81 
5839 81 82 
5840 82 64 
5841 64 82 
5842 82 65 
5843 65 64 
5844 65 82 
5845 82 83 
5846 83 65 
5847 65 83 
5848 83 66 
5849 66 65 
5850 66 83 
5851 83 84 
5852 84 66 
5853 66 84 
5854 84 67 
5855 67 66 
5856 67 84 
5857 84 85 
5858 85 67 
5859 67 85 
5860 85 68 
5861 68 67 
5862 68 85 
5863 85 86 
5864 86 68 
5865 68 86 
5866 86 69 
5867 69 68 
5868 69 86 
5869 86 87 
5870 87 69 
5871 69 87 
5872 87 70 
5873 70 69 
5874 70 87 
5875 87 88 
5876 88 70 
5877 70 88 
5878 88 71 
5879 71 70 
5880 71 88 
5881 88 89 
5882 89 71 
5883 71 89 
5884 89 72 
5885 72 71 
5886 72 89 
5887 89 90 
5888 90 72 
5889 72 90 
5890 90 73 
5891 73 72 
5892 73 90 
5893 90 91 
5894 91 73 
5895 73 91 
5896 91 74 
5897 74 73 
5898 74 91 
5899 91 92 
5900 92 74 
5901 74 92 
5902 92 75 
5903 75 74 
5904 75 92 
5905 92 93 
5906 93 75 
5907 75 93 
5908 93 57 
5909 57 75 
5910 57 93 
5911 93 56 
5912 56 57 
5913 5 6 
5914 6 76 
5915 76 5 
5916 76 6 
5917 6 94 
5918 94 76 
5919 76 94 
5920 94 77 
5921 77 76 
5922 77 94 
5923 94 95 
5924 95 77 
5925 77 95 
5926 95 78 
5927 78 77 
5928 78 95 
5929 95 96 
5930 96 78 
5931 78 96 
5932 96 79 
5933 79 78 
5934 79 96 
5935 96 97 
5936 97 79 
5937 79 97 
5938 97 80 
5939 80 79 
5940 80 97 
5941 97 98 
5942 98 80 
5943 80 98 
5944 98 81 
5945 81 80 
5946 81 98 
5947 98 99 
5948 99 81 
5949 81 99 
5950 99 82 
5951 82 81 
5952 82 99 
5953 99 100 
5954 100 82 
5955 82 100 
5956 100 83 
5957 83 82 
5958 83 100 
5959 100 101 
5960 101 83 
5961 83 101 
5962 101 84 
5963 84 83 
5964 84 101 
5965 101 102 
5966 102 84 
5967 84 102 
5968 102 85 
5969 85 84 
5970 85 102 
5971 102 103 
5972 103 85 
5973 85 103 
5974 103 86 
5975 86 85 
5976 86 103 
5977 103 104 
5978 104 86 
5979 86 104 
5980 104 87 
5981 87 86 
5982 87 104 
5983 104 105 
5984 105 87 
5985 87 105 
5986 105 88 
5987 88 87 
5988 88 105 
5989 105 106 
5990 106 88 
5991 88 106 
5992 106 89 
5993 89 88 
5994 89 106 
5995 106 107 
5996 107 89 
5997 89 107 
5998 107 90 
5999 90 89 
6000 90 107 
6001 107 108 
6002 108 90 
6003 90 108 
6004 108 91 
6005 91 90 
6006 91 108 
6007 108 109 
6008 109 91 
6009 91 109 
6010 109 92 
6011 92 91 
6012 92 109 
6013 109 110 
6014 110 92 
6015 92 110 
6016 110 93 
6017 93 92 
6018 93 110 
6019 110 111 
6020 111 93 
6021 93 111 
6022 111 56 
6023 56 93 
6024 56 111 
6025 111 55 
6026 55 56 
6027 6 7 
6028 7 94 
6029 94 6 
6030 94 7 
6031 7 112 
6032 112 94 
6033 94 112 
6034 112 95 
6035 95 94 
6036 95 112 
6037 112 113 
6038 113 95 
6039 95 113 
6040 113 96 
6041 96 95 
6042 96 113 
6043 113 114 
6044 114 96 
6045 96 114 
6046 114 97 
6047 97 96 
6048 97 114 
6049 114 115 
6050 115 97 
6051 97 115 
6052 115 98 
6053 98 97 
6054 98 115 
6055 115 116 
6056 116 98 
6057 98 116 
6058 116 99 
6059 99 98 
6060 99 116 
6061 116 117 
6062 117 99 
6063 99 117 
6064 117 100 
6065 100 99 
6066 100 117 
6067 117 118 
6068 118 100 
6069 100 118 
6070 118 101 
6071 101 100 
6072 101 118 
6073 118 119 
6074 119 101 
6075 101 119 
6076 119 102 
6077 102 101 
6078 102 119 
6079 119 120 
6080 120 102 
6081 102 120 
6082 120 103 
6083 103 102 
6084 103 120 
6085 120 121 
6086 121 103 
6087 103 121 
6088 121 104 
6089 104 103 
6090 104 121 
6091 121 122 
6092 122 104 
6093 104 122 
6094 122 105 
6095 105 104 
6096 105 122 
6097 122 123 
6098 123 105 
6099 105 123 
6100 123 106 
6101 106 105 
6102 106 123 
6103 123 124 
6104 124 106 
6105 106 124 
6106 124 107 
6107 107 106 
6108 107 124 
6109 124 125 
6110 125 107 
6111 107 125 
6112 125 108 
6113 108 107 
6114 108 125 
6115 125 126 
6116 126 108 
6117 108 126 
6118 126 109 
6119 109 108 
6120 109 126 
6121 126 127 
6122 127 109 
6123 109 127 
6124 127 110 
6125 110 109 
6126 110 127 
6127 127 128 
6128 128 110 
6129 110 128 
6130 128 111 
6131 111 110 
6132 111 128 
6133 128 129 
6134 129 111 
6135 111 129 
6136 129 55 
6137 55 111 
6138 55 129 
6139 129 54 
6140 54 55 
6141 7 8 
6142 8 112 
6143 112 7 
6144 112 8 
6145 8 130 
6146 130 112 
6147 112 130 
6148 130 113 
6149 113 112 
6150 113 130 
6151 130 131 
6152 131 113 
6153 113 131 
6154 131 114 
6155 114 113 
6156 114 131 
6157 131 132 
6158 132 114 
6159 114 132 
6160 132 115 
6161 115 114 
6162 115 132 
6163 132 133 
6164 133 115 
6165 115 133 
6166 133 116 
6167 116 115 
6168 116 133 
6169 133 134 
6170 134 116 
6171 116 134 
6172 134 117 
6173 117 116 
6174 117 134 
6175 134 135 
6176 135 117 
6177 117 135 
6178 135 118 
6179 118 117 
6180 118 135 
6181 135 136 
6182 136 118 
6183 118 136 
6184 136 119 
6185 119 118 
6186 119 136 
6187 136 137 
6188 137 119 
6189 119 137 
6190 137 120 
6191 120 119 
6192 120 137 
6193 137 138 
6194 138 120 
6195 120 138 
6196 138 121 
6197 121 120 
6198 121 138 
6199 138 139 
6200 139 121 
6201 121 139 
6202 139 122 
6203 122 121 
6204 122 139 
6205 139 140 
6206 140 122 
6207 122 140 
6208 140 123 
6209 123 122 
6210 123 140 
6211 140 141 
6212 141 123 
6213 123 141 
6214 141 124 
6215 124 123 
6216 124 141 
6217 141 142 
6218 142 124 
6219 124 142 
6220 142 125 
6221 125 124 
6222 125 142 
6223 142 143 
6224 143 125 
6225 125 143 
6226 143 126 
6227 126 125 
6228 126 143 
6229 143 144 
6230 144 126 
6231 126 144 
6232 144 127 
6233 127 126 
6234 127 144 
6235 144 145 
6236 145 127 
6237 127 145 
6238 145 128 
6239 128 127 
6240 128 145 
6241 145 146 
6242 146 128 
6243 128 146 
6244 146 129 
6245 129 128 
6246 129 146 
6247 146 147 
6248 147 129 
6249 129 147 
6250 147 54 
6251 54 129 
6252 54 147 
6253 147 53 
6254 53 54 
6255 8 9 
6256 9 130 
6257 130 8 
6258 130 9 
6259 9 148 
6260 148 130 
6261 130 148 
6262 148 131 
6263 131 130 
6264 131 148 
6265 148 149 
6266 149 131 
6267 131 149 
6268 149 132 
6269 132 131 
6270 132 149 
6271 149 150 
6272 150 132 
6273 132 150 
6274 150 133 
6275 133 132 
6276 133 150 
6277 150 151 
6278 151 133 
6279 133 151 
6280 151 134 
6281 134 133 
6282 134 151 
6283 151 152 
6284 152 134 
6285 134 152 
6286 152 135 
6287 135 134 
6288 135 152 
6289 152 153 
6290 153 135 
6291 135 153 
6292 153 136 
6293 136 135 
6294 136 153 
6295 153 154 
6296 154 136 
6297 136 154 
6298 154 137 
6299 137 136 
6300 137 154 
6301 154 155 
6302 155 137 
6303 137 155 
6304 155 138 
6305 138 137 
6306 138 155 
6307 155 156 
6308 156 138 
6309 138 156 
6310 156 139 
6311 139 138 
6312 139 156 
6313 156 157 
6314 157 139 
6315 139 157 
6316 157 140 
6317 140 139 
6318 140 157 
6319 157 158 
6320 158 140 
6321 140 158 
6322 158 141 
6323 141 140 
6324 141 158 
6325 158 159 
6326 159 141 
6327 141 159 
6328 159 142 
6329 142 141 
6330 142 159 
6331 159 160 
6332 160 142 
6333 142 160 
6334 160 143 
6335 143 142 
6336 143 160 
6337 160 161 
6338 161 143 
6339 143 161 
6340 161 144 
6341 144 143 
6342 144 161 
6343 161 162 
6344 162 144 
6345 144 162 
6346 162 145 
6347 145 144 
6348 145 162 
6349 162 163 
6350 163 145 
6351 145 163 
6352 163 146 
6353 146 145 
6354 146 163 
6355 163 164 
6356 164 146 
6357 146 164 
6358 164 147 
6359 147 146 
6360 147 164 
6361 164 165 
6362 165 147 
6363 147 165 
6364 165 53 
6365 53 147 
6366 53 165 
6367 165 52 
6368 52 53 
6369 9 10 
6370 10 148 
6371 148 9 
6372 148 10 
6373 10 166 
6374 166 148 
6375 148 166 
6376 166 149 
6377 149 148 
6378 149 166 
6379 166 167 
6380 167 149 
6381 149 167 
6382 167 150 
6383 150 149 
6384 150 167 
6385 167 168 
6386 168 150 
6387 150 168 
6388 168 151 
6389 151 150 
6390 151 168 
6391 168 169 
6392 169 151 
6393 151 169 
6394 169 152 
6395 152 151 
6396 152 169 
6397 169 170 
6398 170 152 
6399 152 170 
6400 170 153 
6401 153 152 
6402 153 170 
6403 170 171 
6404 171 153 
6405 153 171 
6406 171 154 
6407 154 153 
6408 154 171 
6409 171 172 
6410 172 154 
6411 154 172 
6412 172 155 
6413 155 154 
6414 155 172 
6415 172 173 
6416 173 155 
6417 155 173 
6418 173 156 
6419 156 155 
6420 156 173 
6421 173 174 
6422 174 156 
6423 156 174 
6424 174 157 
6425 157 156 
6426 157 174 
6427 174 175 
6428 175 157 
6429 157 175 
6430 175 158 
6431 158 157 
6432 158 175 
6433 175 176 
6434 176 158 
6435 158 176 
6436 176 159 
6437 159 158 
6438 159 176 
6439 176 177 
6440 177 159 
6441 159 177 
6442 177 160 
6443 160 159 
6444 160 177 
6445 177 178 
6446 178 160 
6447 160 178 
6448 178 161 
6449 161 160 
6450 161 178 
6451 178 179 
6452 179 161 
6453 161 179 
6454 179 162 
6455 162 161 
6456 162 179 
6457 179 180 
6458 180 162 
6459 162 180 
6460 180 163 
6461 163 162 
6462 163 180 
6463 180 181 
6464 181 163 
6465 163 181 
6466 181 164 
6467 164 163 
6468 164 181 
6469 181 182 
6470 182 164 
6471 164 182 
6472 182 165 
6473 165 164 
6474 165 182 
6475 182 183 
6476 183 165 
6477 165 183 
6478 183 52 
6479 52 165 
6480 52 183 
6481 183 51 
6482 51 52 
6483 10 11 
6484 11 166 
6485 166 10 
6486 166 11 
6487 11 184 
6488 184 166 
6489 166 184 
6490 184 167 
6491 167 166 
6492 167 184 
6493 184 185 
6494 185 167 
6495 167 185 
6496 185 168 
6497 168 167 
6498 168 185 
6499 185 186 
6500 186 168 
6501 168 186 
6502 186 169 
6503 169 168 
6504 169 186 
6505 186 187 
6506 187 169 
6507 169 187 
6508 187 170 
6509 170 169 
6510 170 187 
6511 187 188 
6512 188 170 
6513 170 188 
6514 188 171 
6515 171 170 
6516 171 188 
6517 188 189 
6518 189 171 
6519 171 189 
6520 189 172 
6521 172 171 
6522 172 189 
6523 189 190 
6524 190 172 
6525 172 190 
6526 190 173 
6527 173 172 
6528 173 190 
6529 190 191 
6530 191 173 
6531 173 191 
6532 191 174 
6533 174 173 
6534 174 191 
6535 191 192 
6536 192 174 
6537 174 192 
6538 192 175 
6539 175 174 
6540 175 192 
6541 192 193 
6542 193 175 
6543 175 193 
6544 193 176 
6545 176 175 
6546 176 193 
6547 193 194 
6548 194 176 
6549 176 194 
6550 194 177 
6551 177 176 
6552 177 194 
6553 194 195 
6554 195 177 
6555 177 195 
6556 195 178 
6557 178 177 
6558 178 195 
6559 195 196 
6560 196 178 
6561 178 196 
6562 196 179 
6563 179 178 
6564 179 196 
6565 196 197 
6566 197 179 
6567 179 197 
6568 197 180 
6569 180 179 
6570 180 197 
6571 197 198 
6572 198 180 
6573 180 198 
6574 198 181 
6575 181 180 
6576 181 198 
6577 198 199 
6578 199 181 
6579 181 199 
6580 199 182 
6581 182 181 
6582 182 199 
6583 199 200 
6584 200 182 
6585 182 200 
6586 200 183 
6587 183 182 
6588 183 200 
6589 200 201 
6590 201 183 
6591 183 201 
6592 201 51 
6593 51 183 
6594 51 201 
6595 201 50 
6596 50 51 
6597 11 12 
6598 12 184 
6599 184 11 
6600 184 12 
6601 12 202 
6602 202 184 
6603 184 202 
6604 202 185 
6605 185 184 
6606 185 202 
6607 202 203 
6608 203 185 
6609 185 203 
6610 203 186 
6611 186 185 
6612 186 203 
6613 203 204 
6614 204 186 
6615 186 204 
6616 204 187 
6617 187 186 
6618 187 204 
6619 204 205 
6620 205 187 
6621 187 205 
6622 205 188 
6623 188 187 
6624 188 205 
6625 205 206 
6626 206 188 
6627 188 206 
6628 206 189 
6629 189 188 
6630 189 206 
6631 206 207 
6632 207 189 
6633 189 207 
6634 207 190 
6635 190 189 
6636 190 207 
6637 207 208 
6638 208 190 
6639 190 208 
6640 208 191 
6641 191 190 
6642 191 208 
6643 208 209 
6644 209 191 
6645 191 209 
6646 209 192 
6647 192 191 
6648 192 209 
6649 209 210 
6650 210 192 
6651 192 210 
6652 210 193 
6653 193 192 
6654 193 210 
6655 210 211 
6656 211 193 
6657 193 211 
6658 211 194 
6659 194 193 
6660 194 211 
6661 211 212 
6662 212 194 
6663 194 212 
6664 212 195 
6665 195 194 
6666 195 212 
6667 212 213 
6668 213 195 
6669 195 213 
6670 213 196 
6671 196 195 
6672 196 213 
6673 213 214 
6674 214 196 
6675 196 214 
6676 214 197 
6677 197 196 
6678 197 214 
6679 214 215 
6680 215 197 
6681 197 215 
6682 215 198 
6683 198 197 
6684 198 215 
6685 215 216 
6686 216 198 
6687 198 216 
6688 216 199 
6689 199 198 
6690 199 216 
6691 216 217 
6692 217 199 
6693 199 217 
6694 217 200 
6695 200 199 
6696 200 217 
6697 217 218 
6698 218 200 
6699 200 218 
6700 218 201 
6701 201 200 
6702 201 218 
6703 218 219 
6704 219 201 
6705 201 219 
6706 219 50 
6707 50 201 
6708 50 219 
6709 219 49 
6710 49 50 
6711 12 13 
6712 13 202 
6713 202 12 
6714 202 13 
6715 13 220 
6716 220 202 
6717 202 220 
6718 220 203 
6719 203 202 
6720 203 220 
6721 220 221 
6722 221 203 
6723 203 221 
6724 221 204 
6725 204 203 
6726 204 221 
6727 221 222 
6728 222 204 
6729 204 222 
6730 222 205 
6731 205 204 
6732 205 222 
6733 222 223 
6734 223 205 
6735 205 223 
6736 223 206 
6737 206 205 
6738 206 223 
6739 223 224 
6740 224 206 
6741 206 224 
6742 224 207 
6743 207 206 
6744 207 224 
6745 224 225 
6746 225 207 
6747 207 225 
6748 225 208 
6749 208 207 
6750 208 225 
6751 225 226 
6752 226 208 
6753 208 226 
6754 226 209 
6755 209 208 
6756 209 226 
6757 226 227 
6758 227 209 
6759 209 227 
6760 227 210 
6761 210 209 
6762 210 227 
6763 227 228 
6764 228 210 
6765 210 228 
6766 228 211 
6767 211 210 
6768 211 228 
6769 228 229 
6770 229 211 
6771 211 229 
6772 229 212 
6773 212 211 
6774 212 229 
6775 229 230 
6776 230 212 
6777 212 230 
6778 230 213 
6779 213 212 
6780 213 230 
6781 230 231 
6782 231 213 
6783 213 231 
6784 231 214 
6785 214 213 
6786 214 231 
6787 231 232 
6788 232 214 
6789 214 232 
6790 232 215 
6791 215 214 
6792 215 232 
6793 232 233 
6794 233 215 
6795 215 233 
6796 233 216 
6797 216 215 
6798 216 233 
6799 233 234 
6800 234 216 
6801 216 234 
6802 234 217 
6803 217 216 
6804 217 234 
6805 234 235 
6806 235 217 
6807 217 235 
6808 235 218 
6809 218 217 
6810 218 235 
6811 235 236 
6812 236 218 
6813 218 236 
6814 236 219 
6815 219 218 
6816 219 236 
6817 236 237 
6818 237 219 
6819 219 237 
6820 237 49 
6821 49 219 
6822 49 237 
6823 237 48 
6824 48 49 
6825 13 14 
6826 14 220 
6827 220 13 
6828 220 14 
6829 14 238 
6830 238 220 
6831 220 238 
6832 238 221 
6833 221 220 
6834 221 238 
6835 238 239 
6836 239 221 
6837 221 239 
6838 239 222 
6839 222 221 
6840 222 239 
6841 239 240 
6842 240 222 
6843 222 240 
6844 240 223 
6845 223 222 
6846 223 240 
6847 240 241 
6848 241 223 
6849 223 241 
6850 241 224 
6851 224 223 
6852 224 241 
6853 241 242 
6854 242 224 
6855 224 242 
6856 242 225 
6857 225 224 
6858 225 242 
6859 242 243 
6860 243 225 
6861 225 243 
6862 243 226 
6863 226 225 
6864 226 243 
6865 243 244 
6866 244 226 
6867 226 244 
6868 244 227 
6869 227 226 
6870 227 244 
6871 244 245 
6872 245 227 
6873 227 245 
6874 245 228 
6875 228 227 
6876 228 245 
6877 245 246 
6878 246 228 
6879 228 246 
6880 246 229 
6881 229 228 
6882 229 246 
6883 246 247 
6884 247 229 
6885 229 247 
6886 247 230 
6887 230 229 
6888 230 247 
6889 247 248 
6890 248 230 
6891 230 248 
6892 248 231 
6893 231 230 
6894 231 248 
6895 248 249 
6896 249 231 
6897 231 249 
6898 249 232 
6899 232 231 
6900 232 249 
6901 249 250 
6902 250 232 
6903 232 250 
6904 250 233 
6905 233 232 
6906 233 250 
6907 250 251 
6908 251 233 
6909 233 251 
6910 251 234 
6911 234 233 
6912 234 251 
6913 251 252 
6914 252 234 
6915 234 252 
6916 252 235 
6917 235 234 
6918 235 252 
6919 252 253 
6920 253 235 
6921 235 253 
6922 253 236 
6923 236 235 
6924 236 253 
6925 253 254 
6926 254 236 
6927 236 254 
6928 254 237 
6929 237 236 
6930 237 254 
6931 254 255 
6932 255 237 
6933 237 255 
6934 255 48 
6935 48 237 
6936 48 255 
6937 255 47 
6938 47 48 
6939 14 15 
6940 15 238 
6941 238 14 
6942 238 15 
6943 15 256 
6944 256 238 
6945 238 256 
6946 256 239 
6947 239 238 
6948 239 256 
6949 256 257 
6950 257 239 
6951 239 257 
6952 257 240 
6953 240 239 
6954 240 257 
6955 257 258 
6956 258 240 
6957 240 258 
6958 258 241 
6959 241 240 
6960 241 258 
6961 258 259 
6962 259 241 
6963 241 259 
6964 259 242 
6965 242 241 
6966 242 259 
6967 259 260 
6968 260 242 
6969 242 260 
6970 260 243 
6971 243 242 
6972 243 260 
6973 260 261 
6974 261 243 
6975 243 261 
6976 261 244 
6977 244 243 
6978 244 261 
6979 261 262 
6980 262 244 
6981 244 262 
6982 262 245 
6983 245 244 
6984 245 262 
6985 262 263 
6986 263 245 
6987 245 263 
6988 263 246 
6989 246 245 
6990 246 263 
6991 263 264 
6992 264 246 
6993 246 264 
6994 264 247 
6995 247 246 
6996 247 264 
6997 264 265 
6998 265 247 
6999 247 265 
7000 265 248 
7001 248 247 
7002 248 265 
7003 265 266 
7004 266 248 
7005 248 266 
7006 266 249 
7007 249 248 
7008 249 266 
7009 266 267 
7010 267 249 
7011 249 267 
7012 267 250 
7013 250 249 
7014 250 267 
7015 267 268 
7016 268 250 
7017 250 268 
7018 268 251 
7019 251 250 
7020 251 268 
7021 268 269 
7022 269 251 
7023 251 269 
7024 269 252 
7025 252 251 
7026 252 269 
7027 269 270 
7028 270 252 
7029 252 270 
7030 270 253 
7031 253 252 
7032 253 270 
7033 270 271 
7034 271 253 
7035 253 271 
7036 271 254 
7037 254 253 
7038 254 271 
7039 271 272 
7040 272 254 
7041 254 272 
7042 272 255 
7043 255 254 
7044 255 272 
7045 272 273 
7046 273 255 
7047 255 273 
7048 273 47 
7049 47 255 
7050 47 273 
7051 273 46 
7052 46 47 
7053 15 16 
7054 16 256 
7055 256 15 
7056 256 16 
7057 16 274 
7058 274 256 
7059 256 274 
7060 274 257 
7061 257 256 
7062 257 274 
7063 274 275 
7064 275 257 
7065 257 275 
7066 275 258 
7067 258 257 
7068 258 275 
7069 275 276 
7070 276 258 
7071 258 276 
7072 276 259 
7073 259 258 
7074 259 276 
7075 276 277 
7076 277 259 
7077 259 277 
7078 277 260 
7079 260 259 
7080 260 277 
7081 277 278 
7082 278 260 
7083 260 278 
7084 278 261 
7085 261 260 
7086 261 278 
7087 278 279 
7088 279 261 
7089 261 279 
7090 279 262 
7091 262 261 
7092 262 279 
7093 279 280 
7094 280 262 
7095 262 280 
7096 280 263 
7097 263 262 
7098 263 280 
7099 280 281 
7100 281 263 
7101 263 281 
7102 281 264 
7103 264 263 
7104 264 281 
7105 281 282 
7106 282 264 
7107 264 282 
7108 282 265 
7109 265 264 
7110 265 282 
7111 282 283 
7112 283 265 
7113 265 283 
7114 283 266 
7115 266 265 
7116 266 283 
7117 283 284 
7118 284 266 
7119 266 284 
7120 284 267 
7121 267 266 
7122 267 284 
7123 284 285 
7124 285 267 
7125 267 285 
7126 285 268 
7127 268 267 
7128 268 285 
7129 285 286 
7130 286 268 
7131 268 286 
7132 286 269 
7133 269 268 
7134 269 286 
7135 286 287 
7136 287 269 
7137 269 287 
7138 287 270 
7139 270 269 
7140 270 287 
7141 287 288 
7142 288 270 
7143 270 288 
7144 288 271 
7145 271 270 
7146 271 288 
7147 288 289 
7148 289 271 
7149 271 289 
7150 289 272 
7151 272 271 
7152 272 289 
7153 289 290 
7154 290 272 
7155 272 290 
7156 290 273 
7157 273 272 
7158 273 290 
7159 290 291 
7160 291 273 
7161 273 291 
7162 291 46 
7163 46 273 
7164 46 291 
7165 291 45 
7166 45 46 
7167 16 17 
7168 17 274 
7169 274 16 
7170 274 17 
7171 17 292 
7172 292 274 
7173 274 292 
7174 292 275 
7175 275 274 
7176 275 292 
7177 292 293 
7178 293 275 
7179 275 293 
7180 293 276 
7181 276 275 
7182 276 293 
7183 293 294 
7184 294 276 
7185 276 294 
7186 294 277 
7187 277 276 
7188 277 294 
7189 294 295 
7190 295 277 
7191 277 295 
7192 295 278 
7193 278 277 
7194 278 295 
7195 295 296 
7196 296 278 
7197 278 296 
7198 296 279 
7199 279 278 
7200 279 296 
7201 296 297 
7202 297 279 
7203 279 297 
7204 297 280 
7205 280 279 
7206 280 297 
7207 297 298 
7208 298 280 
7209 280 298 
7210 298 281 
7211 281 280 
7212 281 298 
7213 298 299 
7214 299 281 
7215 281 299 
7216 299 282 
7217 282 281 
7218 282 299 
7219 299 300 
7220 300 282 
7221 282 300 
7222 300 283 
7223 283 282 
7224 283 300 
7225 300 301 
7226 301 283 
7227 283 301 
7228 301 284 
7229 284 283 
7230 284 301 
7231 301 302 
7232 302 284 
7233 284 302 
7234 302 285 
7235 285 284 
7236 285 302 
7237 302 303 
7238 303 285 
7239 285 303 
7240 303 286 
7241 286 285 
7242 286 303 
7243 303 304 
7244 304 286 
7245 286 304 
7246 304 287 
7247 287 286 
7248 287 304 
7249 304 305 
7250 305 287 
7251 287 305 
7252 305 288 
7253 288 287 
7254 288 305 
7255 305 306 
7256 306 288 
7257 288 306 
7258 306 289 
7259 289 288 
7260 289 306 
7261 306 307 
7262 307 289 
7263 289 307 
7264 307 290 
7265 290 289 
7266 290 307 
7267 307 308 
7268 308 290 
7269 290 308 
7270 308 291 
7271 291 290 
7272 291 308 
7273 308 309 
7274 309 291 
7275 291 309 
7276 309 45 
7277 45 291 
7278 45 309 
7279 309 44 
7280 44 45 
7281 17 18 
7282 18 292 
7283 292 17 
7284 292 18 
7285 18 310 
7286 310 292 
7287 292 310 
7288 310 293 
7289 293 292 
7290 293 310 
7291 310 311 
7292 311 293 
7293 293 311 
7294 311 294 
7295 294 293 
7296 294 311 
7297 311 312 
7298 312 294 
7299 294 312 
7300 312 295 
7301 295 294 
7302 295 312 
7303 312 313 
7304 313 295 
7305 295 313 
7306 313 296 
7307 296 295 
7308 296 313 
7309 313 314 
7310 314 296 
7311 296 314 
7312 314 297 
7313 297 296 
7314 297 314 
7315 314 315 
7316 315 297 
7317 297 315 
7318 315 298 
7319 298 297 
7320 298 315 
7321 315 316 
7322 316 298 
7323 298 316 
7324 316 299 
7325 299 298 
7326 299 316 
7327 316 317 
7328 317 299 
7329 299 317 
7330 317 300 
7331 300 299 
7332 300 317 
7333 317 318 
7334 318 300 
7335 300 318 
7336 318 301 
7337 301 300 
7338 301 318 
7339 318 319 
7340 319 301 
7341 301 319 
7342 319 302 
7343 302 301 
7344 302 319 
7345 319 320 
7346 320 302 
7347 302 320 
7348 320 303 
7349 303 302 
7350 303 320 
7351 320 321 
7352 321 303 
7353 303 321 
7354 321 304 
7355 304 303 
7356 304 321 
7357 321 322 
7358 322 304 
7359 304 322 
7360 322 305 
7361 305 304 
7362 305 322 
7363 322 323 
7364 323 305 
7365 305 323 
7366 323 306 
7367 306 305 
7368 306 323 
7369 323 324 
7370 324 306 
7371 306 324 
7372 324 307 
7373 307 306 
7374 307 324 
7375 324 325 
7376 325 307 
7377 307 325 
7378 325 308 
7379 308 307 
7380 308 325 
7381 325 326 
7382 326 308 
7383 308 326 
7384 326 309 
7385 309 308 
7386 309 326 
7387 326 327 
7388 327 309 
7389 309 327 
7390 327 44 
7391 44 309 
7392 44 327 
7393 327 43 
7394 43 44 
7395 18 19 
7396 19 310 
7397 310 18 
7398 310 19 
7399 19 328 
7400 328 310 
7401 310 328 
7402 328 311 
7403 311 310 
7404 311 328 
7405 328 329 
7406 329 311 
7407 311 329 
7408 329 312 
7409 312 311 
7410 312 329 
7411 329 330 
7412 330 312 
7413 312 330 
7414 330 313 
7415 313 312 
7416 313 330 
7417 330 331 
7418 331 313 
7419 313 331 
7420 331 314 
7421 314 313 
7422 314 331 
7423 331 332 
7424 332 314 
7425 314 332 
7426 332 315 
7427 315 314 
7428 315 332 
7429 332 333 
7430 333 315 
7431 315 333 
7432 333 316 
7433 316 315 
7434 316 333 
7435 333 334 
7436 334 316 
7437 316 334 
7438 334 317 
7439 317 316 
7440 317 334 
7441 334 335 
7442 335 317 
7443 317 335 
7444 335 318 
7445 318 317 
7446 318 335 
7447 335 336 
7448 336 318 
7449 318 336 
7450 336 319 
7451 319 318 
7452 319 336 
7453 336 337 
7454 337 319 
7455 319 337 
7456 337 320 
7457 320 319 
7458 320 337 
7459 337 338 
7460 338 320 
7461 320 338 
7462 338 321 
7463 321 320 
7464 321 338 
7465 338 339 
7466 339 321 
7467 321 339 
7468 339 322 
7469 322 321 
7470 322 339 
7471 339 340 
7472 340 322 
7473 322 340 
7474 340 323 
7475 323 322 
7476 323 340 
7477 340 341 
7478 341 323 
7479 323 341 
7480 341 324 
7481 324 323 
7482 324 341 
7483 341 342 
7484 342 324 
7485 324 342 
7486 342 325 
7487 325 324 
7488 325 342 
7489 342 343 
7490 343 325 
7491 325 343 
7492 343 326 
7493 326 325 
7494 326 343 
7495 343 344 
7496 344 326 
7497 326 344 
7498 344 327 
7499 327 326 
7500 327 344 
7501 344 345 
7502 345 327 
7503 327 345 
7504 345 43 
7505 43 327 
7506 43 345 
7507 345 42 
7508 42 43 
7509 19 20 
7510 20 328 
7511 328 19 
7512 328 20 
7513 20 346 
7514 346 328 
7515 328 346 
7516 346 329 
7517 329 328 
7518 329 346 
7519 346 347 
7520 347 329 
7521 329 347 
7522 347 330 
7523 330 329 
7524 330 347 
7525 347 348 
7526 348 330 
7527 330 348 
7528 348 331 
7529 331 330 
7530 331 348 
7531 348 349 
7532 349 331 
7533 331 349 
7534 349 332 
7535 332 331 
7536 332 349 
7537 349 350 
7538 350 332 
7539 332 350 
7540 350 333 
7541 333 332 
7542 333 350 
7543 350 351 
7544 351 333 
7545 333 351 
7546 351 334 
7547 334 333 
7548 334 351 
7549 351 352 
7550 352 334 
7551 334 352 
7552 352 335 
7553 335 334 
7554 335 352 
7555 352 353 
7556 353 335 
7557 335 353 
7558 353 336 
7559 336 335 
7560 336 353 
7561 353 354 
7562 354 336 
7563 336 354 
7564 354 337 
7565 337 336 
7566 337 354 
7567 354 355 
7568 355 337 
7569 337 355 
7570 355 338 
7571 338 337 
7572 338 355 
7573 355 356 
7574 356 338 
7575 338 356 
7576 356 339 
7577 339 338 
7578 339 356 
7579 356 357 
7580 357 339 
7581 339 357 
7582 357 340 
7583 340 339 
7584 340 357 
7585 357 358 
7586 358 340 
7587 340 358 
7588 358 341 
7589 341 340 
7590 341 358 
7591 358 359 
7592 359 341 
7593 341 359 
7594 359 342 
7595 342 341 
7596 342 359 
7597 359 360 
7598 360 342 
7599 342 360 
7600 360 343 
7601 343 342 
7602 343 360 
7603 360 361 
7604 361 343 
7605 343 361 
7606 361 344 
7607 344 343 
7608 344 361 
7609 361 362 
7610 362 344 
7611 344 362 
7612 362 345 
7613 345 344 
7614 345 362 
7615 362 363 
7616 363 345 
7617 345 363 
7618 363 42 
7619 42 345 
7620 42 363 
7621 363 41 
7622 41 42 
7623 20 21 
7624 21 346 
7625 346 20 
7626 346 21 
7627 21 364 
7628 364 346 
7629 346 364 
7630 364 347 
7631 347 346 
7632 347 364 
7633 364 365 
7634 365 347 
7635 347 365 
7636 365 348 
7637 348 347 
7638 348 365 
7639 365 366 
7640 366 348 
7641 348 366 
7642 366 349 
7643 349 348 
7644 349 366 
7645 366 367 
7646 367 349 
7647 349 367 
7648 367 350 
7649 350 349 
7650 350 367 
7651 367 368 
7652 368 350 
7653 350 368 
7654 368 351 
7655 351 350 
7656 351 368 
7657 368 369 
7658 369 351 
7659 351 369 
7660 369 352 
7661 352 351 
7662 352 369 
7663 369 370 
7664 370 352 
7665 352 370 
7666 370 353 
7667 353 352 
7668 353 370 
7669 370 371 
7670 371 353 
7671 353 371 
7672 371 354 
7673 354 353 
7674 354 371 
7675 371 372 
7676 372 354 
7677 354 372 
7678 372 355 
7679 355 354 
7680 355 372 
7681 372 373 
7682 373 355 
7683 355 373 
7684 373 356 
7685 356 355 
7686 356 373 
7687 373 374 
7688 374 356 
7689 356 374 
7690 374 357 
7691 357 356 
7692 357 374 
7693 374 375 
7694 375 357 
7695 357 375 
7696 375 358 
7697 358 357 
7698 358 375 
7699 375 376 
7700 376 358 
7701 358 376 
7702 376 359 
7703 359 358 
7704 359 376 
7705 376 377 
7706 377 359 
7707 359 377 
7708 377 360 
7709 360 359 
7710 360 377 
7711 377 378 
7712 378 360 
7713 360 378 
7714 378 361 
7715 361 360 
7716 361 378 
7717 378 379 
7718 379 361 
7719 361 379 
7720 379 362 
7721 362 361 
7722 362 379 
7723 379 380 
7724 380 362 
7725 362 380 
7726 380 363 
7727 363 362 
7728 363 380 
7729 380 381 
7730 381 363 
7731 363 381 
7732 381 41 
7733 41 363 
7734 41 381 
7735 381 40 
7736 40 41 
7737 21 2 
7738 2 364 
7739 364 21 
7740 364 2 
7741 2 22 
7742 22 364 
7743 364 22 
7744 22 365 
7745 365 364 
7746 365 22 
7747 22 23 
7748 23 365 
7749 365 23 
7750 23 366 
7751 366 365 
7752 366 23 
7753 23 24 
7754 24 366 
7755 366 24 
7756 24 367 
7757 367 366 
7758 367 24 
7759 24 25 
7760 25 367 
7761 367 25 
7762 25 368 
7763 368 367 
7764 368 25 
7765 25 26 
7766 26 368 
7767 368 26 
7768 26 369 
7769 369 368 
7770 369 26 
7771 26 27 
7772 27 369 
7773 369 27 
7774 27 370 
7775 370 369 
7776 370 27 
7777 27 28 
7778 28 370 
7779 370 28 
7780 28 371 
7781 371 370 
7782 371 28 
7783 28 29 
7784 29 371 
7785 371 29 
7786 29 372 
7787 372 371 
7788 372 29 
7789 29 30 
7790 30 372 
7791 372 30 
7792 30 373 
7793 373 372 
7794 373 30 
7795 30 31 
7796 31 373 
7797 373 31 
7798 31 374 
7799 374 373 
7800 374 31 
7801 31 32 
7802 32 374 
7803 374 32 
7804 32 375 
7805 375 374 
7806 375 32 
7807 32 33 
7808 33 375 
7809 375 33 
7810 33 376 
7811 376 375 
7812 376 33 
7813 33 34 
7814 34 376 
7815 376 34 
7816 34 377 
7817 377 376 
7818 377 34 
7819 34 35 
7820 35 377 
7821 377 35 
7822 35 378 
7823 378 377 
7824 378 35 
7825 35 36 
7826 36 378 
7827 378 36 
7828 36 379 
7829 379 378 
7830 379 36 
7831 36 37 
7832 37 379 
7833 379 37 
7834 37 380 
7835 380 379 
7836 380 37 
7837 37 38 
7838 38 380 
7839 380 38 
7840 38 381 
7841 381 380 
7842 381 38 
7843 38 39 
7844 39 381 
7845 381 39 
7846 39 40 
7847 40 381 
7848 40 39 
7849 39 3 
7850 3 40 
2 1 2 703
58 1 4 58 
59 1 58 59 
60 1 59 60 
61 1 60 61 
62 1 61 62 
63 1 62 63 
64 1 63 64 
65 1 64 65 
66 1 65 66 
67 1 66 67 
68 1 67 68 
69 1 68 69 
70 1 69 70 
71 1 70 71 
72 1 71 72 
73 1 72 73 
74 1 73 74 
75 1 74 75 
76 1 75 57 
77 4 5 58 
78 58 5 76 
79 58 76 59 
80 59 76 77 
81 59 77 60 
82 60 77 78 
83 60 78 61 
84 61 78 79 
85 61 79 62 
86 62 79 80 
87 62 80 63 
88 63 80 81 
89 63 81 64 
90 64 81 82 
91 64 82 65 
92 65 82 83 
93 65 83 66 
94 66 83 84 
95 66 84 67 
96 67 84 85 
97 67 85 68 
98 68 85 86 
99 68 86 69 
100 69 86 87 
101 69 87 70 
102 70 87 88 
103 70 88 71 
104 71 88 89 
105 71 89 72 
106 72 89 90 
107 72 90 73 
108 73 90 91 
109 73 91 74 
110 74 91 92 
111 74 92 75 
112 75 92 93 
113 75 93 57 
114 57 93 56 
115 5 6 76 
116 76 6 94 
117 76 94 77 
118 77 94 95 
119 77 95 78 
120 78 95 96 
121 78 96 79 
122 79 96 97 
123 79 97 80 
124 80 97 98 
125 80 98 81 
126 81 98 99 
127 81 99 82 
128 82 99 100 
129 82 100 83 
130 83 100 101 
131 83 101 84 
132 84 101 102 
133 84 102 85 
134 85 102 103 
135 85 103 86 
136 86 103 104 
137 86 104 87 
138 87 104 105 
139 87 105 88 
140 88 105 106 
141 88 106 89 
142 89 106 107 
143 89 107 90 
144 90 107 108 
145 90 108 91 
146 91 108 109 
147 91 109 92 
148 92 109 110 
149 92 110 93 
150 93 110 111 
151 93 111 56 
152 56 111 55 
153 6 7 94 
154 94 7 112 
155 94 112 95 
156 95 112 113 
157 95 113 96 
158 96 113 114 
159 96 114 97 
160 97 114 115 
161 97 115 98 
162 98 115 116 
163 98 116 99 
164 99 116 117 
165 99 117 100 
166 100 117 118 
167 100 118 101 
168 101 118 119 
169 101 119 102 
170 102 119 120 
171 102 120 103 
172 103 120 121 
173 103 121 104 
174 104 121 122 
175 104 122 105 
176 105 122 123 
177 105 123 106 
178 106 123 124 
179 106 124 107 
180 107 124 125 
181 107 125 108 
182 108 125 126 
183 108 126 109 
184 109 126 127 
185 109 127 110 
186 110 127 128 
187 110 128 111 
188 111 128 129 
189 111 129 55 
190 55 129 54 
191 7 8 112 
192 112 8 130 
193 112 130 113 
194 113 130 131 
195 113 131 114 
196 114 131 132 
197 114 132 115 
198 115 132 133 
199 115 133 116 
200 116 133 134 
201 116 134 117 
202 117 134 135 
203 117 135 118 
204 118 135 136 
205 118 136 119 
206 119 136 137 
207 119 137 120 
208 120 137 138 
209 120 138 121 
210 121 138 139 
211 121 139 122 
212 122 139 140 
213 122 140 123 
214 123 140 141 
215 123 141 124 
216 124 141 142 
217 124 142 125 
218 125 142 143 
219 125 143 126 
220 126 143 144 
221 126 144 127 
222 127 144 145 
223 127 145 128 
224 128 145 146 
225 128 146 129 
226 129 146 147 
227 129 147 54 
228 54 147 53 
229 8 9 130 
230 130 9 148 
231 130 148 131 
232 131 148 149 
233 131 149 132 
234 132 149 150 
235 132 150 133 
236 133 150 151 
237 133 151 134 
238 134 151 152 
239 134 152 135 
240 135 152 153 
241 135 153 136 
242 136 153 154 
243 136 154 137 
244 137 154 155 
245 137 155 138 
246 138 155 156 
247 138 156 139 
248 139 156 157 
249 139 157 140 
250 140 157 158 
251 140 158 141 
252 141 158 159 
253 141 159 142 
254 142 159 160 
255 142 160 143 
256 143 160 161 
257 143 161 144 
258 144 161 162 
259 144 162 145 
260 145 162 163 
261 145 163 146 
262 146 163 164 
263 146 164 147 
264 147 164 165 
265 147 165 53 
266 53 165 52 
267 9 10 148 
268 148 10 166 
269 148 166 149 
270 149 166 167 
271 149 167 150 
272 150 167 168 
273 150 168 151 
274 151 168 169 
275 151 169 152 
276 152 169 170 
277 152 170 153 
278 153 170 171 
279 153 171 154 
280 154 171 172 
281 154 172 155 
282 155 172 173 
283 155 173 156 
284 156 173 174 
285 156 174 157 
286 157 174 175 
287 157 175 158 
288 158 175 176 
289 158 176 159 
290 159 176 177 
291 159 177 160 
292 160 177 178 
293 160 178 161 
294 161 178 179 
295 161 179 162 
296 162 179 180 
297 162 180 163 
298 163 180 181 
299 163 181 164 
300 164 181 182 
301 164 182 165 
302 165 182 183 
303 165 183 52 
304 52 183 51 
305 10 11 166 
306 166 11 184 
307 166 184 167 
308 167 184 185 
309 167 185 168 
310 168 185 186 
311 168 186 169 
312 169 186 187 
313 169 187 170 
314 170 187 188 
315 170 188 171 
316 171 188 189 
317 171 189 172 
318 172 189 190 
319 172 190 173 
320 173 190 191 
321 173 191 174 
322 174 191 192 
323 174 192 175 
324 175 192 193 
325 175 193 176 
326 176 193 194 
327 176 194 177 
328 177 194 195 
329 177 195 178 
330 178 195 196 
331 178 196 179 
332 179 196 197 
333 179 197 180 
334 180 197 198 
335 180 198 181 
336 181 198 199 
337 181 199 182 
338 182 199 200 
339 182 200 183 
340 183 200 201 
341 183 201 51 
342 51 201 50 
343 11 12 184 
344 184 12 202 
345 184 202 185 
346 185 202 203 
347 185 203 186 
348 186 203 204 
349 186 204 187 
350 187 204 205 
351 187 205 188 
352 188 205 206 
353 188 206 189 
354 189 206 207 
355 189 207 190 
356 190 207 208 
357 190 208 191 
358 191 208 209 
359 191 209 192 
360 192 209 210 
361 192 210 193 
362 193 210 211 
363 193 211 194 
364 194 211 212 
365 194 212 195 
366 195 212 213 
367 195 213 196 
368 196 213 214 
369 196 214 197 
370 197 214 215 
371 197 215 198 
372 198 215 216 
373 198 216 199 
374 199 216 217 
375 199 217 200 
376 200 217 218 
377 200 218 201 
378 201 218 219 
379 201 219 50 
380 50 219 49 
381 12 13 202 
382 202 13 220 
383 202 220 203 
384 203 220 221 
385 203 221 204 
386 204 221 222 
387 204 222 205 
388 205 222 223 
389 205 223 206 
390 206 223 224 
391 206 224 207 
392 207 224 225 
393 207 225 208 
394 208 225 226 
395 208 226 209 
396 209 226 227 
397 209 227 210 
398 210 227 228 
399 210 228 211 
400 211 228 229 
401 211 229 212 
402 212 229 230 
403 212 230 213 
404 213 230 231 
405 213 231 214 
406 214 231 232 
407 214 232 215 
408 215 232 233 
409 215 233 216 
410 216 233 234 
411 216 234 217 
412 217 234 235 
413 217 235 218 
414 218 235 236 
415 218 236 219 
416 219 236 237 
417 219 237 49 
418 49 237 48 
419 13 14 220 
420 220 14 238 
421 220 238 221 
422 221 238 239 
423 221 239 222 
424 222 239 240 
425 222 240 223 
426 223 240 241 
427 223 241 224 
428 224 241 242 
429 224 242 225 
430 225 242 243 
431 225 243 226 
432 226 243 244 
433 226 244 227 
434 227 244 245 
435 227 245 228 
436 228 245 246 
437 228 246 229 
438 229 246 247 
439 229 247 230 
440 230 247 248 
441 230 248 231 
442 231 248 249 
443 231 249 232 
444 232 249 250 
445 232 250 233 
446 233 250 251 
447 233 251 234 
448 234 251 252 
449 234 252 235 
450 235 252 253 
451 235 253 236 
452 236 253 254 
453 236 254 237 
454 237 254 255 
455 237 255 48 
456 48 255 47 
457 14 15 238 
458 238 15 256 
459 238 256 239 
460 239 256 257 
461 239 257 240 
462 240 257 258 
463 240 258 241 
464 241 258 259 
465 241 259 242 
466 242 259 260 
467 242 260 243 
468 243 260 261 
469 243 261 244 
470 244 261 262 
471 244 262 245 
472 245 262 263 
473 245 263 246 
474 246 263 264 
475 246 264 247 
476 247 264 265 
477 247 265 248 
478 248 265 266 
479 248 266 249 
480 249 266 267 
481 249 267 250 
482 250 267 268 
483 250 268 251 
484 251 268 269 
485 251 269 252 
486 252 269 270 
487 252 270 253 
488 253 270 271 
489 253 271 254 
490 254 271 272 
491 254 272 255 
492 255 272 273 
493 255 273 47 
494 47 273 46 
495 15 16 256 
496 256 16 274 
497 256 274 257 
498 257 274 275 
499 257 275 258 
500 258 275 276 
501 258 276 259 
502 259 276 277 
503 259 277 260 
504 260 277 278 
505 260 278 261 
506 261 278 279 
507 261 279 262 
508 262 279 280 
509 262 280 263 
510 263 280 281 
511 263 281 264 
512 264 281 282 
513 264 282 265 
514 265 282 283 
515 265 283 266 
516 266 283 284 
517 266 284 267 
518 267 284 285 
519 267 285 268 
520 268 285 286 
521 268 286 269 
522 269 286 287 
523 269 287 270 
524 270 287 288 
525 270 288 271 
526 271 288 289 
527 271 289 272 
528 272 289 290 
529 272 290 273 
530 273 290 291 
531 273 291 46 
532 46 291 45 
533 16 17 274 
534 274 17 292 
535 274 292 275 
536 275 292 293 
537 275 293 276 
538 276 293 294 
539 276 294 277 
540 277 294 295 
541 277 295 278 
542 278 295 296 
543 278 296 279 
544 279 296 297 
545 279 297 280 
546 280 297 298 
547 280 298 281 
548 281 298 299 
549 281 299 282 
550 282 299 300 
551 282 300 283 
552 283 300 301 
553 283 301 284 
554 284 301 302 
555 284 302 285 
556 285 302 303 
557 285 303 286 
558 286 303 304 
559 286 304 287 
560 287 304 305 
561 287 305 288 
562 288 305 306 
563 288 306 289 
564 289 306 307 
565 289 307 290 
566 290 307 308 
567 290 308 291 
568 291 308 309 
569 291 309 45 
570 45 309 44 
571 17 18 292 
572 292 18 310 
573 292 310 293 
574 293 310 311 
575 293 311 294 
576 294 311 312 
577 294 312 295 
578 295 312 313 
579 295 313 296 
580 296 313 314 
581 296 314 297 
582 297 314 315 
583 297 315 298 
584 298 315 316 
585 298 316 299 
586 299 316 317 
587 299 317 300 
588 300 317 318 
589 300 318 301 
590 301 318 319 
591 301 319 302 
592 302 319 320 
593 302 320 303 
594 303 320 321 
595 303 321 304 
596 304 321 322 
597 304 322 305 
598 305 322 323 
599 305 323 306 
600 306 323 324 
601 306 324 307 
602 307 324 325 
603 307 325 308 
604 308 325 326 
605 308 326 309 
606 309 326 327 
607 309 327 44 
608 44 327 43 
609 18 19 310 
610 310 19 328 
611 310 328 311 
612 311 328 329 
613 311 329 312 
614 312 329 330 
615 312 330 313 
616 313 330 331 
617 313 331 314 
618 314 331 332 
619 314 332 315 
620 315 332 333 
621 315 333 316 
622 316 333 334 
623 316 334 317 
624 317 334 335 
625 317 335 318 
626 318 335 336 
627 318 336 319 
628 319 336 337 
629 319 337 320 
630 320 337 338 
631 320 338 321 
632 321 338 339 
633 321 339 322 
634 322 339 340 
635 322 340 323 
636 323 340 341 
637 323 341 324 
638 324 341 342 
639 324 342 325 
640 325 342 343 
641 325 343 326 
642 326 343 344 
643 326 344 327 
644 327 344 345 
645 327 345 43 
646 43 345 42 
647 19 20 328 
648 328 20 346 
649 328 346 329 
650 329 346 347 
651 329 347 330 
652 330 347 348 
653 330 348 331 
654 331 348 349 
655 331 349 332 
656 332 349 350 
657 332 350 333 
658 333 350 351 
659 333 351 334 
660 334 351 352 
661 334 352 335 
662 335 352 353 
663 335 353 336 
664 336 353 354 
665 336 354 337 
666 337 354 355 
667 337 355 338 
668 338 355 356 
669 338 356 339 
670 339 356 357 
671 339 357 340 
672 340 357 358 
673 340 358 341 
674 341 358 359 
675 341 359 342 
676 342 359 360 
677 342 360 343 
678 343 360 361 
679 343 361 344 
680 344 361 362 
681 344 362 345 
682 345 362 363 
683 345 363 42 
684 42 363 41 
685 20 21 346 
686 346 21 364 
687 346 364 347 
688 347 364 365 
689 347 365 348 
690 348 365 366 
691 348 366 349 
692 349 366 367 
693 349 367 350 
694 350 367 368 
695 350 368 351 
696 351 368 369 
697 351 369 352 
698 352 369 370 
699 352 370 353 
700 353 370 371 
701 353 371 354 
702 354 371 372 
703 354 372 355 
704 355 372 373 
705 355 373 356 
706 356 373 374 
707 356 374 357 
708 357 374 375 
709 357 375 358 
710 358 375 376 
711 358 376 359 
712 359 376 377 
713 359 377 360 
714 360 377 378 
715 360 378 361 
716 361 378 379 
717 361 379 362 
718 362 379 380 
719 362 380 363 
720 363 380 381 
721 363 381 41 
722 41 381 40 
723 21 2 364 
724 364 2 22 
725 364 22 365 
726 365 22 23 
727 365 23 366 
728 366 23 24 
729 366 24 367 
730 367 24 25 
731 367 25 368 
732 368 25 26 
733 368 26 369 
734 369 26 27 
735 369 27 370 
736 370 27 28 
737 370 28 371 
738 371 28 29 
739 371 29 372 
740 372 29 30 
741 372 30 373 
742 373 30 31 
743 373 31 374 
744 374 31 32 
745 374 32 375 
746 375 32 33 
747 375 33 376 
748 376 33 34 
749 376 34 377 
750 377 34 35 
751 377 35 378 
752 378 35 36 
753 378 36 379 
754 379 36 37 
755 379 37 380 
756 380 37 38 
757 380 38 381 
758 381 38 39 
759 381 39 40 
760 40 39 3 
$EndElements
