$MeshFormat
4.1 0 8
$EndMeshFormat
$PhysicalNames
6
1 1 "Γ¹"
1 2 "Γ²"
1 3 "Γ³"
1 4 "Γ⁴"
1 6 "Γ"
2 5 "Ω"
$EndPhysicalNames
$Entities
4 5 1 0
1 0 0 0 0 
2 1 0 0 0 
3 1.5 0.8660254037844387 0 0 
4 0.4999999999999999 0.8660254037844387 0 0 
1 0 0 0 1 0 0 1 1 2 1 -2 
2 1 0 0 1.5 0.8660254037844387 0 1 2 2 2 -3 
3 0.5 0.8660254037844387 0 1.5 0.8660254037844387 0 1 3 2 3 -4 
4 0 0 0 0.4999999999999999 0.8660254037844387 0 1 4 2 4 -1 
5 0 0 0 1.5 0.8660254037844387 0 1 6 0 
1 0 0 0 1.5 0.8660254037844387 0 1 5 4 1 2 3 4 
$EndEntities
$Nodes
10 289 1 289
0 1 0 1
1
0 0 0
0 2 0 1
2
1 0 0
0 3 0 1
3
1.5 0.8660254037844387 0
0 4 0 1
4
0.4999999999999999 0.8660254037844387 0
1 1 0 15
5
6
7
8
9
10
11
12
13
14
15
16
17
18
19
0.06249999999987291 0 0
0.1249999999997731 0 0
0.1874999999995934 0 0
0.2499999999994109 0 0
0.3124999999992285 0 0
0.3749999999990461 0 0
0.4374999999988636 0 0
0.4999999999986921 0 0
0.562499999998846 0 0
0.6249999999990109 0 0
0.6874999999991758 0 0
0.7499999999993406 0 0
0.8124999999995055 0 0
0.8749999999996703 0 0
0.9374999999998351 0 0
1 2 0 15
20
21
22
23
24
25
26
27
28
29
30
31
32
33
34
1.031249999999953 0.05412658773644588 0
1.062499999999915 0.1082531754729068 0
1.093749999999845 0.1623797632093138 0
1.124999999999777 0.216506350945723 0
1.156249999999715 0.2706329386821442 0
1.187499999999654 0.3247595264185655 0
1.218749999999579 0.3788861141549625 0
1.249999999999499 0.4330127018913513 0
1.28124999999956 0.487139289627984 0
1.312499999999635 0.5412658773646413 0
1.343749999999705 0.5953924651012905 0
1.374999999999775 0.6495190528379396 0
1.406249999999836 0.7036456405745726 0
1.437499999999906 0.7577722283112218 0
1.468749999999977 0.811898816047871 0
1 3 0 15
35
36
37
38
39
40
41
42
43
44
45
46
47
48
49
1.437500000000347 0.8660254037844387 0
1.375000000000694 0.8660254037844387 0
1.312500000001041 0.8660254037844387 0
1.250000000001388 0.8660254037844387 0
1.187500000001735 0.8660254037844387 0
1.125000000002082 0.8660254037844387 0
1.062500000002429 0.8660254037844387 0
1.000000000002755 0.8660254037844387 0
0.9375000000024294 0.8660254037844387 0
0.8750000000020823 0.8660254037844387 0
0.8125000000017353 0.8660254037844387 0
0.7500000000013882 0.8660254037844387 0
0.6875000000010412 0.8660254037844387 0
0.6250000000006941 0.8660254037844387 0
0.5625000000003471 0.8660254037844387 0
1 4 0 15
50
51
52
53
54
55
56
57
58
59
60
61
62
63
64
0.4687500000000702 0.811898816048033 0
0.437500000000056 0.7577722283114809 0
0.4062500000001388 0.7036456405750969 0
0.3750000000002055 0.6495190528386851 0
0.3437500000002911 0.5953924651023058 0
0.3125000000003672 0.5412658773659103 0
0.2812500000004668 0.4871392896295554 0
0.2500000000005778 0.4330127018932202 0
0.2187500000005074 0.3788861141565708 0
0.1875000000004227 0.3247595264198967 0
0.1562500000003428 0.2706329386832309 0
0.125000000000263 0.2165063509465652 0
0.09375000000019262 0.1623797632099159 0
0.06250000000011274 0.1082531754732501 0
0.03125000000003286 0.0541265877365843 0
1 5 0 0
2 1 0 225
65
66
67
68
69
70
71
72
73
74
75
76
77
78
79
80
81
82
83
84
85
86
87
88
89
90
91
92
93
94
95
96
97
98
99
100
101
102
103
104
105
106
107
108
109
110
111
112
113
114
115
116
117
118
119
120
121
122
123
124
125
126
127
128
129
130
131
132
133
134
135
136
137
138
139
140
141
142
143
144
145
146
147
148
149
150
151
152
153
154
155
156
157
158
159
160
161
162
163
164
165
166
167
168
169
170
171
172
173
174
175
176
177
178
179
180
181
182
183
184
185
186
187
188
189
190
191
192
193
194
195
196
197
198
199
200
201
202
203
204
205
206
207
208
209
210
211
212
213
214
215
216
217
218
219
220
221
222
223
224
225
226
227
228
229
230
231
232
233
234
235
236
237
238
239
240
241
242
243
244
245
246
247
248
249
250
251
252
253
254
255
256
257
258
259
260
261
262
263
264
265
266
267
268
269
270
271
272
273
274
275
276
277
278
279
280
281
282
283
284
285
286
287
288
289
0.09374999999993042 0.05412658773657565 0
0.1250000000000325 0.1082531754732286 0
0.1562500000001327 0.1623797632098782 0
0.187500000000224 0.2165063509465126 0
0.2187500000003248 0.270632938683163 0
0.2500000000004254 0.3247595264198135 0
0.2812500000005297 0.3788861141564703 0
0.3125000000006202 0.4330127018931033 0
0.3437500000005498 0.4871392896294571 0
0.3750000000004906 0.541265877365831 0
0.4062500000004534 0.5953924651022425 0
0.4375000000004071 0.6495190528386384 0
0.4687500000003781 0.7036456405750642 0
0.5000000000003345 0.7577722283114648 0
0.5312500000003817 0.8118988160480231 0
0.1562499999998536 0.05412658773656698 0
0.1874999999999762 0.1082531754732072 0
0.218750000000095 0.1623797632098406 0
0.2500000000002055 0.2165063509464599 0
0.2812500000003254 0.2706329386830951 0
0.3125000000004451 0.3247595264197303 0
0.3437500000005674 0.3788861141563697 0
0.3750000000006766 0.4330127018929866 0
0.4062500000006447 0.487139289629359 0
0.4375000000006244 0.5412658773657515 0
0.4687500000006241 0.5953924651021789 0
0.5000000000006157 0.6495190528385919 0
0.5312500000006224 0.7036456405750312 0
0.5625000000006163 0.7577722283114486 0
0.593750000000695 0.8118988160480131 0
0.2187499999997018 0.05412658773655835 0
0.2499999999998499 0.1082531754731857 0
0.2812499999999923 0.162379763209803 0
0.3125000000001271 0.2165063509464073 0
0.3437500000002711 0.2706329386830271 0
0.3750000000004149 0.3247595264196471 0
0.4062500000005601 0.3788861141562692 0
0.4375000000006928 0.4330127018928697 0
0.4687500000007045 0.4871392896292607 0
0.5000000000007281 0.5412658773656724 0
0.5312500000007701 0.5953924651021155 0
0.5625000000008042 0.6495190528385454 0
0.5937500000008518 0.7036456405749988 0
0.6250000000008882 0.7577722283114325 0
0.6562500000010035 0.8118988160480028 0
0.2812499999995474 0.0541265877365497 0
0.3124999999997213 0.1082531754731643 0
0.3437499999998874 0.1623797632097654 0
0.3750000000000467 0.2165063509463546 0
0.4062500000002148 0.2706329386829591 0
0.4375000000003831 0.3247595264195639 0
0.4687500000005512 0.3788861141561687 0
0.5000000000007077 0.4330127018927529 0
0.5312500000007632 0.4871392896291625 0
0.5625000000008307 0.541265877365593 0
0.593750000000915 0.5953924651020521 0
0.6250000000009921 0.6495190528384986 0
0.6562500000010807 0.7036456405749658 0
0.6875000000011595 0.7577722283114163 0
0.7187500000013116 0.8118988160479925 0
0.3437499999993932 0.05412658773654104 0
0.3749999999995927 0.1082531754731428 0
0.4062499999997826 0.1623797632097278 0
0.4374999999999662 0.2165063509463021 0
0.4687500000001587 0.2706329386828912 0
0.5000000000003511 0.3247595264194807 0
0.5312500000005425 0.3788861141560682 0
0.5625000000007225 0.4330127018926361 0
0.593750000000822 0.4871392896290644 0
0.6250000000009336 0.5412658773655137 0
0.6562500000010597 0.5953924651019884 0
0.6875000000011797 0.649519052838452 0
0.7187500000013096 0.7036456405749332 0
0.7500000000014313 0.7577722283113999 0
0.7812500000016196 0.8118988160479825 0
0.4062499999992387 0.05412658773653238 0
0.4374999999994641 0.1082531754731213 0
0.4687499999996777 0.1623797632096902 0
0.4999999999998856 0.2165063509462493 0
0.5312500000001024 0.2706329386828234 0
0.5625000000003194 0.3247595264193975 0
0.5937500000005336 0.3788861141559676 0
0.6250000000007374 0.4330127018925193 0
0.6562500000008809 0.4871392896289662 0
0.6875000000010363 0.5412658773654344 0
0.7187500000012048 0.595392465101925 0
0.7500000000013675 0.6495190528384055 0
0.7812500000015383 0.7036456405749003 0
0.8125000000017026 0.7577722283113837 0
0.8437500000019277 0.8118988160479723 0
0.4687499999990843 0.05412658773652373 0
0.4999999999993353 0.1082531754730999 0
0.5312499999995728 0.1623797632096525 0
0.5624999999998053 0.2165063509461967 0
0.5937500000000462 0.2706329386827556 0
0.6250000000002872 0.3247595264193142 0
0.6562500000005249 0.3788861141558671 0
0.6875000000007523 0.4330127018924025 0
0.7187500000009395 0.4871392896288679 0
0.7500000000011386 0.5412658773653551 0
0.7812500000013499 0.5953924651018615 0
0.8125000000015551 0.6495190528383589 0
0.8437500000017673 0.7036456405748674 0
0.8750000000019743 0.7577722283113677 0
0.906250000002236 0.8118988160479622 0
0.531249999998939 0.05412658773651509 0
0.5624999999992135 0.1082531754730784 0
0.5937499999994725 0.1623797632096149 0
0.6249999999997274 0.2165063509461441 0
0.6562499999999908 0.2706329386826876 0
0.6875000000002539 0.3247595264192312 0
0.7187500000005126 0.3788861141557666 0
0.7500000000007616 0.4330127018922857 0
0.7812500000009905 0.4871392896287697 0
0.8125000000012319 0.5412658773652759 0
0.843750000001483 0.595392465101798 0
0.8750000000017292 0.6495190528383122 0
0.9062500000019803 0.7036456405748348 0
0.9375000000022281 0.7577722283113515 0
0.9687500000025243 0.8118988160479521 0
0.5937499999990581 0.05412658773650644 0
0.6249999999992952 0.108253175473057 0
0.6562499999995149 0.1623797632095772 0
0.6874999999997314 0.2165063509460915 0
0.7187499999999559 0.2706329386826197 0
0.7500000000001803 0.324759526419148 0
0.7812500000003987 0.3788861141556661 0
0.8125000000006087 0.4330127018921689 0
0.8437500000008181 0.4871392896286715 0
0.8750000000010406 0.5412658773651964 0
0.9062500000012708 0.5953924651017346 0
0.937500000001497 0.6495190528382655 0
0.9687500000017262 0.7036456405748019 0
1.000000000001953 0.7577722283113352 0
1.031250000002223 0.8118988160479419 0
0.6562499999991858 0.05412658773649778 0
0.6874999999993837 0.1082531754730355 0
0.7187499999995622 0.1623797632095396 0
0.7499999999997378 0.2165063509460388 0
0.7812499999999215 0.2706329386825517 0
0.8125000000001052 0.3247595264190647 0
0.8437500000002818 0.3788861141555656 0
0.8750000000004501 0.433012701892052 0
0.9062500000006384 0.4871392896285733 0
0.9375000000008399 0.5412658773651171 0
0.9687500000010471 0.5953924651016714 0
1.000000000001251 0.649519052838219 0
1.031250000001456 0.7036456405747693 0
1.062500000001661 0.7577722283113193 0
1.093750000001902 0.8118988160479319 0
0.7187499999993135 0.05412658773648914 0
0.7499999999994722 0.1082531754730141 0
0.7812499999996094 0.162379763209502 0
0.8124999999997443 0.2165063509459862 0
0.8437499999998871 0.2706329386824837 0
0.8750000000000296 0.3247595264189816 0
0.9062500000001645 0.378886114155465 0
0.9375000000002915 0.4330127018919353 0
0.9687500000004586 0.487139289628475 0
1.000000000000639 0.5412658773650378 0
1.031250000000824 0.5953924651016079 0
1.062500000001005 0.6495190528381726 0
1.093750000001186 0.7036456405747364 0
1.125000000001368 0.7577722283113028 0
1.156250000001581 0.8118988160479217 0
0.7812499999994417 0.05412658773648048 0
0.8124999999995608 0.1082531754729926 0
0.8437499999996565 0.1623797632094643 0
0.8749999999997509 0.2165063509459335 0
0.9062499999998529 0.2706329386824158 0
0.9374999999999545 0.3247595264188983 0
0.9687500000000473 0.3788861141553646 0
1.000000000000133 0.4330127018918185 0
1.031250000000279 0.4871392896283769 0
1.062500000000438 0.5412658773649586 0
1.0937500000006 0.5953924651015444 0
1.125000000000759 0.6495190528381262 0
1.156250000000916 0.7036456405747037 0
1.187500000001076 0.7577722283112869 0
1.21875000000126 0.8118988160479116 0
0.8437499999995693 0.05412658773647183 0
0.8749999999996493 0.1082531754729711 0
0.9062499999997036 0.1623797632094267 0
0.9374999999997572 0.2165063509458809 0
0.9687499999998184 0.270632938682348 0
0.9999999999998797 0.3247595264188151 0
1.03124999999993 0.3788861141552641 0
1.062499999999974 0.4330127018917017 0
1.093750000000099 0.4871392896282787 0
1.125000000000237 0.5412658773648793 0
1.156250000000376 0.5953924651014809 0
1.187500000000513 0.6495190528380794 0
1.218750000000646 0.7036456405746709 0
1.250000000000784 0.7577722283112702 0
1.281250000000939 0.8118988160479015 0
0.9062499999996972 0.05412658773646319 0
0.9374999999997374 0.1082531754729497 0
0.9687499999997508 0.1623797632093891 0
0.9999999999997635 0.2165063509458282 0
1.031249999999784 0.27063293868228 0
1.062499999999804 0.324759526418732 0
1.093749999999813 0.3788861141551635 0
1.124999999999816 0.4330127018915849 0
1.156249999999919 0.4871392896281804 0
1.187500000000036 0.5412658773647998 0
1.218750000000152 0.5953924651014173 0
1.250000000000267 0.6495190528380328 0
1.281250000000376 0.7036456405746382 0
1.312500000000491 0.7577722283112543 0
1.343750000000618 0.8118988160478913 0
0.968749999999825 0.05412658773645453 0
0.9999999999998261 0.1082531754729282 0
1.031249999999798 0.1623797632093515 0
1.06249999999977 0.2165063509457756 0
1.09374999999975 0.2706329386822121 0
1.124999999999729 0.3247595264186487 0
1.156249999999696 0.3788861141550629 0
1.187499999999658 0.4330127018914681 0
1.21874999999974 0.4871392896280823 0
1.249999999999835 0.5412658773647206 0
1.281249999999929 0.5953924651013539 0
1.312500000000022 0.6495190528379863 0
1.343750000000106 0.7036456405746052 0
1.375000000000199 0.7577722283112378 0
1.406250000000298 0.8118988160478812 0
$EndNodes
$Elements
6 2112 1 5764
1 1 1 16
1 1 5 
2 5 6 
3 6 7 
4 7 8 
5 8 9 
6 9 10 
7 10 11 
8 11 12 
9 12 13 
10 13 14 
11 14 15 
12 15 16 
13 16 17 
14 17 18 
15 18 19 
16 19 2 
1 2 1 16
17 2 20 
18 20 21 
19 21 22 
20 22 23 
21 23 24 
22 24 25 
23 25 26 
24 26 27 
25 27 28 
26 28 29 
27 29 30 
28 30 31 
29 31 32 
30 32 33 
31 33 34 
32 34 3 
1 3 1 16
33 3 35 
34 35 36 
35 36 37 
36 37 38 
37 38 39 
38 39 40 
39 40 41 
40 41 42 
41 42 43 
42 43 44 
43 44 45 
44 45 46 
45 46 47 
46 47 48 
47 48 49 
48 49 4 
1 4 1 16
49 4 50 
50 50 51 
51 51 52 
52 52 53 
53 53 54 
54 54 55 
55 55 56 
56 56 57 
57 57 58 
58 58 59 
59 59 60 
60 60 61 
61 61 62 
62 62 63 
63 63 64 
64 64 1 
1 5 1 1536
4229 1 5 
4230 5 64 
4231 64 1 
4232 64 5 
4233 5 65 
4234 65 64 
4235 64 65 
4236 65 66 
4237 66 64 
4238 66 63 
4239 63 64 
4240 64 66 
4241 63 66 
4242 66 62 
4243 62 63 
4244 62 66 
4245 66 67 
4246 67 62 
4247 62 67 
4248 67 68 
4249 68 62 
4250 68 61 
4251 61 62 
4252 62 68 
4253 61 68 
4254 68 60 
4255 60 61 
4256 60 68 
4257 68 69 
4258 69 60 
4259 60 69 
4260 69 70 
4261 70 60 
4262 70 59 
4263 59 60 
4264 60 70 
4265 59 70 
4266 70 58 
4267 58 59 
4268 58 70 
4269 70 71 
4270 71 58 
4271 58 71 
4272 71 72 
4273 72 58 
4274 72 57 
4275 57 58 
4276 58 72 
4277 57 72 
4278 72 56 
4279 56 57 
4280 56 72 
4281 72 73 
4282 73 56 
4283 56 73 
4284 73 74 
4285 74 56 
4286 74 55 
4287 55 56 
4288 56 74 
4289 55 74 
4290 74 54 
4291 54 55 
4292 54 74 
4293 74 75 
4294 75 54 
4295 54 75 
4296 75 76 
4297 76 54 
4298 76 53 
4299 53 54 
4300 54 76 
4301 53 76 
4302 76 52 
4303 52 53 
4304 52 76 
4305 76 77 
4306 77 52 
4307 52 77 
4308 77 78 
4309 78 52 
4310 78 51 
4311 51 52 
4312 52 78 
4313 51 78 
4314 78 50 
4315 50 51 
4316 50 78 
4317 78 79 
4318 79 50 
4319 50 79 
4320 79 49 
4321 49 50 
4322 49 4 
4323 4 50 
4324 50 49 
4325 5 6 
4326 6 80 
4327 80 5 
4328 80 65 
4329 65 5 
4330 5 80 
4331 65 80 
4332 80 66 
4333 66 65 
4334 66 80 
4335 80 81 
4336 81 66 
4337 66 81 
4338 81 82 
4339 82 66 
4340 82 67 
4341 67 66 
4342 66 82 
4343 67 82 
4344 82 68 
4345 68 67 
4346 68 82 
4347 82 83 
4348 83 68 
4349 68 83 
4350 83 84 
4351 84 68 
4352 84 69 
4353 69 68 
4354 68 84 
4355 69 84 
4356 84 70 
4357 70 69 
4358 70 84 
4359 84 85 
4360 85 70 
4361 70 85 
4362 85 86 
4363 86 70 
4364 86 71 
4365 71 70 
4366 70 86 
4367 71 86 
4368 86 72 
4369 72 71 
4370 72 86 
4371 86 87 
4372 87 72 
4373 72 87 
4374 87 88 
4375 88 72 
4376 88 73 
4377 73 72 
4378 72 88 
4379 73 88 
4380 88 74 
4381 74 73 
4382 74 88 
4383 88 89 
4384 89 74 
4385 74 89 
4386 89 90 
4387 90 74 
4388 90 75 
4389 75 74 
4390 74 90 
4391 75 90 
4392 90 76 
4393 76 75 
4394 76 90 
4395 90 91 
4396 91 76 
4397 76 91 
4398 91 92 
4399 92 76 
4400 92 77 
4401 77 76 
4402 76 92 
4403 77 92 
4404 92 78 
4405 78 77 
4406 78 92 
4407 92 93 
4408 93 78 
4409 78 93 
4410 93 94 
4411 94 78 
4412 94 79 
4413 79 78 
4414 78 94 
4415 79 94 
4416 94 49 
4417 49 79 
4418 49 94 
4419 94 48 
4420 48 49 
4421 6 7 
4422 7 80 
4423 80 6 
4424 80 7 
4425 7 95 
4426 95 80 
4427 80 95 
4428 95 96 
4429 96 80 
4430 96 81 
4431 81 80 
4432 80 96 
4433 81 96 
4434 96 82 
4435 82 81 
4436 82 96 
4437 96 97 
4438 97 82 
4439 82 97 
4440 97 98 
4441 98 82 
4442 98 83 
4443 83 82 
4444 82 98 
4445 83 98 
4446 98 84 
4447 84 83 
4448 84 98 
4449 98 99 
4450 99 84 
4451 84 99 
4452 99 100 
4453 100 84 
4454 100 85 
4455 85 84 
4456 84 100 
4457 85 100 
4458 100 86 
4459 86 85 
4460 86 100 
4461 100 101 
4462 101 86 
4463 86 101 
4464 101 102 
4465 102 86 
4466 102 87 
4467 87 86 
4468 86 102 
4469 87 102 
4470 102 88 
4471 88 87 
4472 88 102 
4473 102 103 
4474 103 88 
4475 88 103 
4476 103 104 
4477 104 88 
4478 104 89 
4479 89 88 
4480 88 104 
4481 89 104 
4482 104 90 
4483 90 89 
4484 90 104 
4485 104 105 
4486 105 90 
4487 90 105 
4488 105 106 
4489 106 90 
4490 106 91 
4491 91 90 
4492 90 106 
4493 91 106 
4494 106 92 
4495 92 91 
4496 92 106 
4497 106 107 
4498 107 92 
4499 92 107 
4500 107 108 
4501 108 92 
4502 108 93 
4503 93 92 
4504 92 108 
4505 93 108 
4506 108 94 
4507 94 93 
4508 94 108 
4509 108 109 
4510 109 94 
4511 94 109 
4512 109 47 
4513 47 94 
4514 47 48 
4515 48 94 
4516 94 47 
4517 7 8 
4518 8 110 
4519 110 7 
4520 110 95 
4521 95 7 
4522 7 110 
4523 95 110 
4524 110 96 
4525 96 95 
4526 96 110 
4527 110 111 
4528 111 96 
4529 96 111 
4530 111 112 
4531 112 96 
4532 112 97 
4533 97 96 
4534 96 112 
4535 97 112 
4536 112 98 
4537 98 97 
4538 98 112 
4539 112 113 
4540 113 98 
4541 98 113 
4542 113 114 
4543 114 98 
4544 114 99 
4545 99 98 
4546 98 114 
4547 99 114 
4548 114 100 
4549 100 99 
4550 100 114 
4551 114 115 
4552 115 100 
4553 100 115 
4554 115 116 
4555 116 100 
4556 116 101 
4557 101 100 
4558 100 116 
4559 101 116 
4560 116 102 
4561 102 101 
4562 102 116 
4563 116 117 
4564 117 102 
4565 102 117 
4566 117 118 
4567 118 102 
4568 118 103 
4569 103 102 
4570 102 118 
4571 103 118 
4572 118 104 
4573 104 103 
4574 104 118 
4575 118 119 
4576 119 104 
4577 104 119 
4578 119 120 
4579 120 104 
4580 120 105 
4581 105 104 
4582 104 120 
4583 105 120 
4584 120 106 
4585 106 105 
4586 106 120 
4587 120 121 
4588 121 106 
4589 106 121 
4590 121 122 
4591 122 106 
4592 122 107 
4593 107 106 
4594 106 122 
4595 107 122 
4596 122 108 
4597 108 107 
4598 108 122 
4599 122 123 
4600 123 108 
4601 108 123 
4602 123 124 
4603 124 108 
4604 124 109 
4605 109 108 
4606 108 124 
4607 109 124 
4608 124 47 
4609 47 109 
4610 47 124 
4611 124 46 
4612 46 47 
4613 8 9 
4614 9 110 
4615 110 8 
4616 110 9 
4617 9 125 
4618 125 110 
4619 110 125 
4620 125 126 
4621 126 110 
4622 126 111 
4623 111 110 
4624 110 126 
4625 111 126 
4626 126 112 
4627 112 111 
4628 112 126 
4629 126 127 
4630 127 112 
4631 112 127 
4632 127 128 
4633 128 112 
4634 128 113 
4635 113 112 
4636 112 128 
4637 113 128 
4638 128 114 
4639 114 113 
4640 114 128 
4641 128 129 
4642 129 114 
4643 114 129 
4644 129 130 
4645 130 114 
4646 130 115 
4647 115 114 
4648 114 130 
4649 115 130 
4650 130 116 
4651 116 115 
4652 116 130 
4653 130 131 
4654 131 116 
4655 116 131 
4656 131 132 
4657 132 116 
4658 132 117 
4659 117 116 
4660 116 132 
4661 117 132 
4662 132 118 
4663 118 117 
4664 118 132 
4665 132 133 
4666 133 118 
4667 118 133 
4668 133 134 
4669 134 118 
4670 134 119 
4671 119 118 
4672 118 134 
4673 119 134 
4674 134 120 
4675 120 119 
4676 120 134 
4677 134 135 
4678 135 120 
4679 120 135 
4680 135 136 
4681 136 120 
4682 136 121 
4683 121 120 
4684 120 136 
4685 121 136 
4686 136 122 
4687 122 121 
4688 122 136 
4689 136 137 
4690 137 122 
4691 122 137 
4692 137 138 
4693 138 122 
4694 138 123 
4695 123 122 
4696 122 138 
4697 123 138 
4698 138 124 
4699 124 123 
4700 124 138 
4701 138 139 
4702 139 124 
4703 124 139 
4704 139 45 
4705 45 124 
4706 45 46 
4707 46 124 
4708 124 45 
4709 9 10 
4710 10 140 
4711 140 9 
4712 140 125 
4713 125 9 
4714 9 140 
4715 125 140 
4716 140 126 
4717 126 125 
4718 126 140 
4719 140 141 
4720 141 126 
4721 126 141 
4722 141 142 
4723 142 126 
4724 142 127 
4725 127 126 
4726 126 142 
4727 127 142 
4728 142 128 
4729 128 127 
4730 128 142 
4731 142 143 
4732 143 128 
4733 128 143 
4734 143 144 
4735 144 128 
4736 144 129 
4737 129 128 
4738 128 144 
4739 129 144 
4740 144 130 
4741 130 129 
4742 130 144 
4743 144 145 
4744 145 130 
4745 130 145 
4746 145 146 
4747 146 130 
4748 146 131 
4749 131 130 
4750 130 146 
4751 131 146 
4752 146 132 
4753 132 131 
4754 132 146 
4755 146 147 
4756 147 132 
4757 132 147 
4758 147 148 
4759 148 132 
4760 148 133 
4761 133 132 
4762 132 148 
4763 133 148 
4764 148 134 
4765 134 133 
4766 134 148 
4767 148 149 
4768 149 134 
4769 134 149 
4770 149 150 
4771 150 134 
4772 150 135 
4773 135 134 
4774 134 150 
4775 135 150 
4776 150 136 
4777 136 135 
4778 136 150 
4779 150 151 
4780 151 136 
4781 136 151 
4782 151 152 
4783 152 136 
4784 152 137 
4785 137 136 
4786 136 152 
4787 137 152 
4788 152 138 
4789 138 137 
4790 138 152 
4791 152 153 
4792 153 138 
4793 138 153 
4794 153 154 
4795 154 138 
4796 154 139 
4797 139 138 
4798 138 154 
4799 139 154 
4800 154 45 
4801 45 139 
4802 45 154 
4803 154 44 
4804 44 45 
4805 10 11 
4806 11 140 
4807 140 10 
4808 140 11 
4809 11 155 
4810 155 140 
4811 140 155 
4812 155 156 
4813 156 140 
4814 156 141 
4815 141 140 
4816 140 156 
4817 141 156 
4818 156 142 
4819 142 141 
4820 142 156 
4821 156 157 
4822 157 142 
4823 142 157 
4824 157 158 
4825 158 142 
4826 158 143 
4827 143 142 
4828 142 158 
4829 143 158 
4830 158 144 
4831 144 143 
4832 144 158 
4833 158 159 
4834 159 144 
4835 144 159 
4836 159 160 
4837 160 144 
4838 160 145 
4839 145 144 
4840 144 160 
4841 145 160 
4842 160 146 
4843 146 145 
4844 146 160 
4845 160 161 
4846 161 146 
4847 146 161 
4848 161 162 
4849 162 146 
4850 162 147 
4851 147 146 
4852 146 162 
4853 147 162 
4854 162 148 
4855 148 147 
4856 148 162 
4857 162 163 
4858 163 148 
4859 148 163 
4860 163 164 
4861 164 148 
4862 164 149 
4863 149 148 
4864 148 164 
4865 149 164 
4866 164 150 
4867 150 149 
4868 150 164 
4869 164 165 
4870 165 150 
4871 150 165 
4872 165 166 
4873 166 150 
4874 166 151 
4875 151 150 
4876 150 166 
4877 151 166 
4878 166 152 
4879 152 151 
4880 152 166 
4881 166 167 
4882 167 152 
4883 152 167 
4884 167 168 
4885 168 152 
4886 168 153 
4887 153 152 
4888 152 168 
4889 153 168 
4890 168 154 
4891 154 153 
4892 154 168 
4893 168 169 
4894 169 154 
4895 154 169 
4896 169 43 
4897 43 154 
4898 43 44 
4899 44 154 
4900 154 43 
4901 11 12 
4902 12 170 
4903 170 11 
4904 170 155 
4905 155 11 
4906 11 170 
4907 155 170 
4908 170 156 
4909 156 155 
4910 156 170 
4911 170 171 
4912 171 156 
4913 156 171 
4914 171 172 
4915 172 156 
4916 172 157 
4917 157 156 
4918 156 172 
4919 157 172 
4920 172 158 
4921 158 157 
4922 158 172 
4923 172 173 
4924 173 158 
4925 158 173 
4926 173 174 
4927 174 158 
4928 174 159 
4929 159 158 
4930 158 174 
4931 159 174 
4932 174 160 
4933 160 159 
4934 160 174 
4935 174 175 
4936 175 160 
4937 160 175 
4938 175 176 
4939 176 160 
4940 176 161 
4941 161 160 
4942 160 176 
4943 161 176 
4944 176 162 
4945 162 161 
4946 162 176 
4947 176 177 
4948 177 162 
4949 162 177 
4950 177 178 
4951 178 162 
4952 178 163 
4953 163 162 
4954 162 178 
4955 163 178 
4956 178 164 
4957 164 163 
4958 164 178 
4959 178 179 
4960 179 164 
4961 164 179 
4962 179 180 
4963 180 164 
4964 180 165 
4965 165 164 
4966 164 180 
4967 165 180 
4968 180 166 
4969 166 165 
4970 166 180 
4971 180 181 
4972 181 166 
4973 166 181 
4974 181 182 
4975 182 166 
4976 182 167 
4977 167 166 
4978 166 182 
4979 167 182 
4980 182 168 
4981 168 167 
4982 168 182 
4983 182 183 
4984 183 168 
4985 168 183 
4986 183 184 
4987 184 168 
4988 184 169 
4989 169 168 
4990 168 184 
4991 169 184 
4992 184 43 
4993 43 169 
4994 43 184 
4995 184 42 
4996 42 43 
4997 12 13 
4998 13 170 
4999 170 12 
5000 170 13 
5001 13 185 
5002 185 170 
5003 170 185 
5004 185 186 
5005 186 170 
5006 186 171 
5007 171 170 
5008 170 186 
5009 171 186 
5010 186 172 
5011 172 171 
5012 172 186 
5013 186 187 
5014 187 172 
5015 172 187 
5016 187 188 
5017 188 172 
5018 188 173 
5019 173 172 
5020 172 188 
5021 173 188 
5022 188 174 
5023 174 173 
5024 174 188 
5025 188 189 
5026 189 174 
5027 174 189 
5028 189 190 
5029 190 174 
5030 190 175 
5031 175 174 
5032 174 190 
5033 175 190 
5034 190 176 
5035 176 175 
5036 176 190 
5037 190 191 
5038 191 176 
5039 176 191 
5040 191 192 
5041 192 176 
5042 192 177 
5043 177 176 
5044 176 192 
5045 177 192 
5046 192 178 
5047 178 177 
5048 178 192 
5049 192 193 
5050 193 178 
5051 178 193 
5052 193 194 
5053 194 178 
5054 194 179 
5055 179 178 
5056 178 194 
5057 179 194 
5058 194 180 
5059 180 179 
5060 180 194 
5061 194 195 
5062 195 180 
5063 180 195 
5064 195 196 
5065 196 180 
5066 196 181 
5067 181 180 
5068 180 196 
5069 181 196 
5070 196 182 
5071 182 181 
5072 182 196 
5073 196 197 
5074 197 182 
5075 182 197 
5076 197 198 
5077 198 182 
5078 198 183 
5079 183 182 
5080 182 198 
5081 183 198 
5082 198 184 
5083 184 183 
5084 184 198 
5085 198 199 
5086 199 184 
5087 184 199 
5088 199 41 
5089 41 184 
5090 41 42 
5091 42 184 
5092 184 41 
5093 13 14 
5094 14 200 
5095 200 13 
5096 200 185 
5097 185 13 
5098 13 200 
5099 185 200 
5100 200 186 
5101 186 185 
5102 186 200 
5103 200 201 
5104 201 186 
5105 186 201 
5106 201 202 
5107 202 186 
5108 202 187 
5109 187 186 
5110 186 202 
5111 187 202 
5112 202 188 
5113 188 187 
5114 188 202 
5115 202 203 
5116 203 188 
5117 188 203 
5118 203 204 
5119 204 188 
5120 204 189 
5121 189 188 
5122 188 204 
5123 189 204 
5124 204 190 
5125 190 189 
5126 190 204 
5127 204 205 
5128 205 190 
5129 190 205 
5130 205 206 
5131 206 190 
5132 206 191 
5133 191 190 
5134 190 206 
5135 191 206 
5136 206 192 
5137 192 191 
5138 192 206 
5139 206 207 
5140 207 192 
5141 192 207 
5142 207 208 
5143 208 192 
5144 208 193 
5145 193 192 
5146 192 208 
5147 193 208 
5148 208 194 
5149 194 193 
5150 194 208 
5151 208 209 
5152 209 194 
5153 194 209 
5154 209 210 
5155 210 194 
5156 210 195 
5157 195 194 
5158 194 210 
5159 195 210 
5160 210 196 
5161 196 195 
5162 196 210 
5163 210 211 
5164 211 196 
5165 196 211 
5166 211 212 
5167 212 196 
5168 212 197 
5169 197 196 
5170 196 212 
5171 197 212 
5172 212 198 
5173 198 197 
5174 198 212 
5175 212 213 
5176 213 198 
5177 198 213 
5178 213 214 
5179 214 198 
5180 214 199 
5181 199 198 
5182 198 214 
5183 199 214 
5184 214 41 
5185 41 199 
5186 41 214 
5187 214 40 
5188 40 41 
5189 14 15 
5190 15 200 
5191 200 14 
5192 200 15 
5193 15 215 
5194 215 200 
5195 200 215 
5196 215 216 
5197 216 200 
5198 216 201 
5199 201 200 
5200 200 216 
5201 201 216 
5202 216 202 
5203 202 201 
5204 202 216 
5205 216 217 
5206 217 202 
5207 202 217 
5208 217 218 
5209 218 202 
5210 218 203 
5211 203 202 
5212 202 218 
5213 203 218 
5214 218 204 
5215 204 203 
5216 204 218 
5217 218 219 
5218 219 204 
5219 204 219 
5220 219 220 
5221 220 204 
5222 220 205 
5223 205 204 
5224 204 220 
5225 205 220 
5226 220 206 
5227 206 205 
5228 206 220 
5229 220 221 
5230 221 206 
5231 206 221 
5232 221 222 
5233 222 206 
5234 222 207 
5235 207 206 
5236 206 222 
5237 207 222 
5238 222 208 
5239 208 207 
5240 208 222 
5241 222 223 
5242 223 208 
5243 208 223 
5244 223 224 
5245 224 208 
5246 224 209 
5247 209 208 
5248 208 224 
5249 209 224 
5250 224 210 
5251 210 209 
5252 210 224 
5253 224 225 
5254 225 210 
5255 210 225 
5256 225 226 
5257 226 210 
5258 226 211 
5259 211 210 
5260 210 226 
5261 211 226 
5262 226 212 
5263 212 211 
5264 212 226 
5265 226 227 
5266 227 212 
5267 212 227 
5268 227 228 
5269 228 212 
5270 228 213 
5271 213 212 
5272 212 228 
5273 213 228 
5274 228 214 
5275 214 213 
5276 214 228 
5277 228 229 
5278 229 214 
5279 214 229 
5280 229 39 
5281 39 214 
5282 39 40 
5283 40 214 
5284 214 39 
5285 15 16 
5286 16 230 
5287 230 15 
5288 230 215 
5289 215 15 
5290 15 230 
5291 215 230 
5292 230 216 
5293 216 215 
5294 216 230 
5295 230 231 
5296 231 216 
5297 216 231 
5298 231 232 
5299 232 216 
5300 232 217 
5301 217 216 
5302 216 232 
5303 217 232 
5304 232 218 
5305 218 217 
5306 218 232 
5307 232 233 
5308 233 218 
5309 218 233 
5310 233 234 
5311 234 218 
5312 234 219 
5313 219 218 
5314 218 234 
5315 219 234 
5316 234 220 
5317 220 219 
5318 220 234 
5319 234 235 
5320 235 220 
5321 220 235 
5322 235 236 
5323 236 220 
5324 236 221 
5325 221 220 
5326 220 236 
5327 221 236 
5328 236 222 
5329 222 221 
5330 222 236 
5331 236 237 
5332 237 222 
5333 222 237 
5334 237 238 
5335 238 222 
5336 238 223 
5337 223 222 
5338 222 238 
5339 223 238 
5340 238 224 
5341 224 223 
5342 224 238 
5343 238 239 
5344 239 224 
5345 224 239 
5346 239 240 
5347 240 224 
5348 240 225 
5349 225 224 
5350 224 240 
5351 225 240 
5352 240 226 
5353 226 225 
5354 226 240 
5355 240 241 
5356 241 226 
5357 226 241 
5358 241 242 
5359 242 226 
5360 242 227 
5361 227 226 
5362 226 242 
5363 227 242 
5364 242 228 
5365 228 227 
5366 228 242 
5367 242 243 
5368 243 228 
5369 228 243 
5370 243 244 
5371 244 228 
5372 244 229 
5373 229 228 
5374 228 244 
5375 229 244 
5376 244 39 
5377 39 229 
5378 39 244 
5379 244 38 
5380 38 39 
5381 16 17 
5382 17 230 
5383 230 16 
5384 230 17 
5385 17 245 
5386 245 230 
5387 230 245 
5388 245 246 
5389 246 230 
5390 246 231 
5391 231 230 
5392 230 246 
5393 231 246 
5394 246 232 
5395 232 231 
5396 232 246 
5397 246 247 
5398 247 232 
5399 232 247 
5400 247 248 
5401 248 232 
5402 248 233 
5403 233 232 
5404 232 248 
5405 233 248 
5406 248 234 
5407 234 233 
5408 234 248 
5409 248 249 
5410 249 234 
5411 234 249 
5412 249 250 
5413 250 234 
5414 250 235 
5415 235 234 
5416 234 250 
5417 235 250 
5418 250 236 
5419 236 235 
5420 236 250 
5421 250 251 
5422 251 236 
5423 236 251 
5424 251 252 
5425 252 236 
5426 252 237 
5427 237 236 
5428 236 252 
5429 237 252 
5430 252 238 
5431 238 237 
5432 238 252 
5433 252 253 
5434 253 238 
5435 238 253 
5436 253 254 
5437 254 238 
5438 254 239 
5439 239 238 
5440 238 254 
5441 239 254 
5442 254 240 
5443 240 239 
5444 240 254 
5445 254 255 
5446 255 240 
5447 240 255 
5448 255 256 
5449 256 240 
5450 256 241 
5451 241 240 
5452 240 256 
5453 241 256 
5454 256 242 
5455 242 241 
5456 242 256 
5457 256 257 
5458 257 242 
5459 242 257 
5460 257 258 
5461 258 242 
5462 258 243 
5463 243 242 
5464 242 258 
5465 243 258 
5466 258 244 
5467 244 243 
5468 244 258 
5469 258 259 
5470 259 244 
5471 244 259 
5472 259 37 
5473 37 244 
5474 37 38 
5475 38 244 
5476 244 37 
5477 17 18 
5478 18 260 
5479 260 17 
5480 260 245 
5481 245 17 
5482 17 260 
5483 245 260 
5484 260 246 
5485 246 245 
5486 246 260 
5487 260 261 
5488 261 246 
5489 246 261 
5490 261 262 
5491 262 246 
5492 262 247 
5493 247 246 
5494 246 262 
5495 247 262 
5496 262 248 
5497 248 247 
5498 248 262 
5499 262 263 
5500 263 248 
5501 248 263 
5502 263 264 
5503 264 248 
5504 264 249 
5505 249 248 
5506 248 264 
5507 249 264 
5508 264 250 
5509 250 249 
5510 250 264 
5511 264 265 
5512 265 250 
5513 250 265 
5514 265 266 
5515 266 250 
5516 266 251 
5517 251 250 
5518 250 266 
5519 251 266 
5520 266 252 
5521 252 251 
5522 252 266 
5523 266 267 
5524 267 252 
5525 252 267 
5526 267 268 
5527 268 252 
5528 268 253 
5529 253 252 
5530 252 268 
5531 253 268 
5532 268 254 
5533 254 253 
5534 254 268 
5535 268 269 
5536 269 254 
5537 254 269 
5538 269 270 
5539 270 254 
5540 270 255 
5541 255 254 
5542 254 270 
5543 255 270 
5544 270 256 
5545 256 255 
5546 256 270 
5547 270 271 
5548 271 256 
5549 256 271 
5550 271 272 
5551 272 256 
5552 272 257 
5553 257 256 
5554 256 272 
5555 257 272 
5556 272 258 
5557 258 257 
5558 258 272 
5559 272 273 
5560 273 258 
5561 258 273 
5562 273 274 
5563 274 258 
5564 274 259 
5565 259 258 
5566 258 274 
5567 259 274 
5568 274 37 
5569 37 259 
5570 37 274 
5571 274 36 
5572 36 37 
5573 18 19 
5574 19 260 
5575 260 18 
5576 260 19 
5577 19 275 
5578 275 260 
5579 260 275 
5580 275 276 
5581 276 260 
5582 276 261 
5583 261 260 
5584 260 276 
5585 261 276 
5586 276 262 
5587 262 261 
5588 262 276 
5589 276 277 
5590 277 262 
5591 262 277 
5592 277 278 
5593 278 262 
5594 278 263 
5595 263 262 
5596 262 278 
5597 263 278 
5598 278 264 
5599 264 263 
5600 264 278 
5601 278 279 
5602 279 264 
5603 264 279 
5604 279 280 
5605 280 264 
5606 280 265 
5607 265 264 
5608 264 280 
5609 265 280 
5610 280 266 
5611 266 265 
5612 266 280 
5613 280 281 
5614 281 266 
5615 266 281 
5616 281 282 
5617 282 266 
5618 282 267 
5619 267 266 
5620 266 282 
5621 267 282 
5622 282 268 
5623 268 267 
5624 268 282 
5625 282 283 
5626 283 268 
5627 268 283 
5628 283 284 
5629 284 268 
5630 284 269 
5631 269 268 
5632 268 284 
5633 269 284 
5634 284 270 
5635 270 269 
5636 270 284 
5637 284 285 
5638 285 270 
5639 270 285 
5640 285 286 
5641 286 270 
5642 286 271 
5643 271 270 
5644 270 286 
5645 271 286 
5646 286 272 
5647 272 271 
5648 272 286 
5649 286 287 
5650 287 272 
5651 272 287 
5652 287 288 
5653 288 272 
5654 288 273 
5655 273 272 
5656 272 288 
5657 273 288 
5658 288 274 
5659 274 273 
5660 274 288 
5661 288 289 
5662 289 274 
5663 274 289 
5664 289 35 
5665 35 274 
5666 35 36 
5667 36 274 
5668 274 35 
5669 19 2 
5670 2 20 
5671 20 19 
5672 20 275 
5673 275 19 
5674 19 20 
5675 275 20 
5676 20 276 
5677 276 275 
5678 276 20 
5679 20 21 
5680 21 276 
5681 276 21 
5682 21 22 
5683 22 276 
5684 22 277 
5685 277 276 
5686 276 22 
5687 277 22 
5688 22 278 
5689 278 277 
5690 278 22 
5691 22 23 
5692 23 278 
5693 278 23 
5694 23 24 
5695 24 278 
5696 24 279 
5697 279 278 
5698 278 24 
5699 279 24 
5700 24 280 
5701 280 279 
5702 280 24 
5703 24 25 
5704 25 280 
5705 280 25 
5706 25 26 
5707 26 280 
5708 26 281 
5709 281 280 
5710 280 26 
5711 281 26 
5712 26 282 
5713 282 281 
5714 282 26 
5715 26 27 
5716 27 282 
5717 282 27 
5718 27 28 
5719 28 282 
5720 28 283 
5721 283 282 
5722 282 28 
5723 283 28 
5724 28 284 
5725 284 283 
5726 284 28 
5727 28 29 
5728 29 284 
5729 284 29 
5730 29 30 
5731 30 284 
5732 30 285 
5733 285 284 
5734 284 30 
5735 285 30 
5736 30 286 
5737 286 285 
5738 286 30 
5739 30 31 
5740 31 286 
5741 286 31 
5742 31 32 
5743 32 286 
5744 32 287 
5745 287 286 
5746 286 32 
5747 287 32 
5748 32 288 
5749 288 287 
5750 288 32 
5751 32 33 
5752 33 288 
5753 288 33 
5754 33 34 
5755 34 288 
5756 34 289 
5757 289 288 
5758 288 34 
5759 289 34 
5760 34 35 
5761 35 289 
5762 35 34 
5763 34 3 
5764 3 35 
2 1 2 512
65 1 5 64 
66 64 5 65 
67 64 65 66 
68 66 63 64 
69 63 66 62 
70 62 66 67 
71 62 67 68 
72 68 61 62 
73 61 68 60 
74 60 68 69 
75 60 69 70 
76 70 59 60 
77 59 70 58 
78 58 70 71 
79 58 71 72 
80 72 57 58 
81 57 72 56 
82 56 72 73 
83 56 73 74 
84 74 55 56 
85 55 74 54 
86 54 74 75 
87 54 75 76 
88 76 53 54 
89 53 76 52 
90 52 76 77 
91 52 77 78 
92 78 51 52 
93 51 78 50 
94 50 78 79 
95 50 79 49 
96 49 4 50 
97 5 6 80 
98 80 65 5 
99 65 80 66 
100 66 80 81 
101 66 81 82 
102 82 67 66 
103 67 82 68 
104 68 82 83 
105 68 83 84 
106 84 69 68 
107 69 84 70 
108 70 84 85 
109 70 85 86 
110 86 71 70 
111 71 86 72 
112 72 86 87 
113 72 87 88 
114 88 73 72 
115 73 88 74 
116 74 88 89 
117 74 89 90 
118 90 75 74 
119 75 90 76 
120 76 90 91 
121 76 91 92 
122 92 77 76 
123 77 92 78 
124 78 92 93 
125 78 93 94 
126 94 79 78 
127 79 94 49 
128 49 94 48 
129 6 7 80 
130 80 7 95 
131 80 95 96 
132 96 81 80 
133 81 96 82 
134 82 96 97 
135 82 97 98 
136 98 83 82 
137 83 98 84 
138 84 98 99 
139 84 99 100 
140 100 85 84 
141 85 100 86 
142 86 100 101 
143 86 101 102 
144 102 87 86 
145 87 102 88 
146 88 102 103 
147 88 103 104 
148 104 89 88 
149 89 104 90 
150 90 104 105 
151 90 105 106 
152 106 91 90 
153 91 106 92 
154 92 106 107 
155 92 107 108 
156 108 93 92 
157 93 108 94 
158 94 108 109 
159 94 109 47 
160 47 48 94 
161 7 8 110 
162 110 95 7 
163 95 110 96 
164 96 110 111 
165 96 111 112 
166 112 97 96 
167 97 112 98 
168 98 112 113 
169 98 113 114 
170 114 99 98 
171 99 114 100 
172 100 114 115 
173 100 115 116 
174 116 101 100 
175 101 116 102 
176 102 116 117 
177 102 117 118 
178 118 103 102 
179 103 118 104 
180 104 118 119 
181 104 119 120 
182 120 105 104 
183 105 120 106 
184 106 120 121 
185 106 121 122 
186 122 107 106 
187 107 122 108 
188 108 122 123 
189 108 123 124 
190 124 109 108 
191 109 124 47 
192 47 124 46 
193 8 9 110 
194 110 9 125 
195 110 125 126 
196 126 111 110 
197 111 126 112 
198 112 126 127 
199 112 127 128 
200 128 113 112 
201 113 128 114 
202 114 128 129 
203 114 129 130 
204 130 115 114 
205 115 130 116 
206 116 130 131 
207 116 131 132 
208 132 117 116 
209 117 132 118 
210 118 132 133 
211 118 133 134 
212 134 119 118 
213 119 134 120 
214 120 134 135 
215 120 135 136 
216 136 121 120 
217 121 136 122 
218 122 136 137 
219 122 137 138 
220 138 123 122 
221 123 138 124 
222 124 138 139 
223 124 139 45 
224 45 46 124 
225 9 10 140 
226 140 125 9 
227 125 140 126 
228 126 140 141 
229 126 141 142 
230 142 127 126 
231 127 142 128 
232 128 142 143 
233 128 143 144 
234 144 129 128 
235 129 144 130 
236 130 144 145 
237 130 145 146 
238 146 131 130 
239 131 146 132 
240 132 146 147 
241 132 147 148 
242 148 133 132 
243 133 148 134 
244 134 148 149 
245 134 149 150 
246 150 135 134 
247 135 150 136 
248 136 150 151 
249 136 151 152 
250 152 137 136 
251 137 152 138 
252 138 152 153 
253 138 153 154 
254 154 139 138 
255 139 154 45 
256 45 154 44 
257 10 11 140 
258 140 11 155 
259 140 155 156 
260 156 141 140 
261 141 156 142 
262 142 156 157 
263 142 157 158 
264 158 143 142 
265 143 158 144 
266 144 158 159 
267 144 159 160 
268 160 145 144 
269 145 160 146 
270 146 160 161 
271 146 161 162 
272 162 147 146 
273 147 162 148 
274 148 162 163 
275 148 163 164 
276 164 149 148 
277 149 164 150 
278 150 164 165 
279 150 165 166 
280 166 151 150 
281 151 166 152 
282 152 166 167 
283 152 167 168 
284 168 153 152 
285 153 168 154 
286 154 168 169 
287 154 169 43 
288 43 44 154 
289 11 12 170 
290 170 155 11 
291 155 170 156 
292 156 170 171 
293 156 171 172 
294 172 157 156 
295 157 172 158 
296 158 172 173 
297 158 173 174 
298 174 159 158 
299 159 174 160 
300 160 174 175 
301 160 175 176 
302 176 161 160 
303 161 176 162 
304 162 176 177 
305 162 177 178 
306 178 163 162 
307 163 178 164 
308 164 178 179 
309 164 179 180 
310 180 165 164 
311 165 180 166 
312 166 180 181 
313 166 181 182 
314 182 167 166 
315 167 182 168 
316 168 182 183 
317 168 183 184 
318 184 169 168 
319 169 184 43 
320 43 184 42 
321 12 13 170 
322 170 13 185 
323 170 185 186 
324 186 171 170 
325 171 186 172 
326 172 186 187 
327 172 187 188 
328 188 173 172 
329 173 188 174 
330 174 188 189 
331 174 189 190 
332 190 175 174 
333 175 190 176 
334 176 190 191 
335 176 191 192 
336 192 177 176 
337 177 192 178 
338 178 192 193 
339 178 193 194 
340 194 179 178 
341 179 194 180 
342 180 194 195 
343 180 195 196 
344 196 181 180 
345 181 196 182 
346 182 196 197 
347 182 197 198 
348 198 183 182 
349 183 198 184 
350 184 198 199 
351 184 199 41 
352 41 42 184 
353 13 14 200 
354 200 185 13 
355 185 200 186 
356 186 200 201 
357 186 201 202 
358 202 187 186 
359 187 202 188 
360 188 202 203 
361 188 203 204 
362 204 189 188 
363 189 204 190 
364 190 204 205 
365 190 205 206 
366 206 191 190 
367 191 206 192 
368 192 206 207 
369 192 207 208 
370 208 193 192 
371 193 208 194 
372 194 208 209 
373 194 209 210 
374 210 195 194 
375 195 210 196 
376 196 210 211 
377 196 211 212 
378 212 197 196 
379 197 212 198 
380 198 212 213 
381 198 213 214 
382 214 199 198 
383 199 214 41 
384 41 214 40 
385 14 15 200 
386 200 15 215 
387 200 215 216 
388 216 201 200 
389 201 216 202 
390 202 216 217 
391 202 217 218 
392 218 203 202 
393 203 218 204 
394 204 218 219 
395 204 219 220 
396 220 205 204 
397 205 220 206 
398 206 220 221 
399 206 221 222 
400 222 207 206 
401 207 222 208 
402 208 222 223 
403 208 223 224 
404 224 209 208 
405 209 224 210 
406 210 224 225 
407 210 225 226 
408 226 211 210 
409 211 226 212 
410 212 226 227 
411 212 227 228 
412 228 213 212 
413 213 228 214 
414 214 228 229 
415 214 229 39 
416 39 40 214 
417 15 16 230 
418 230 215 15 
419 215 230 216 
420 216 230 231 
421 216 231 232 
422 232 217 216 
423 217 232 218 
424 218 232 233 
425 218 233 234 
426 234 219 218 
427 219 234 220 
428 220 234 235 
429 220 235 236 
430 236 221 220 
431 221 236 222 
432 222 236 237 
433 222 237 238 
434 238 223 222 
435 223 238 224 
436 224 238 239 
437 224 239 240 
438 240 225 224 
439 225 240 226 
440 226 240 241 
441 226 241 242 
442 242 227 226 
443 227 242 228 
444 228 242 243 
445 228 243 244 
446 244 229 228 
447 229 244 39 
448 39 244 38 
449 16 17 230 
450 230 17 245 
451 230 245 246 
452 246 231 230 
453 231 246 232 
454 232 246 247 
455 232 247 248 
456 248 233 232 
457 233 248 234 
458 234 248 249 
459 234 249 250 
460 250 235 234 
461 235 250 236 
462 236 250 251 
463 236 251 252 
464 252 237 236 
465 237 252 238 
466 238 252 253 
467 238 253 254 
468 254 239 238 
469 239 254 240 
470 240 254 255 
471 240 255 256 
472 256 241 240 
473 241 256 242 
474 242 256 257 
475 242 257 258 
476 258 243 242 
477 243 258 244 
478 244 258 259 
479 244 259 37 
480 37 38 244 
481 17 18 260 
482 260 245 17 
483 245 260 246 
484 246 260 261 
485 246 261 262 
486 262 247 246 
487 247 262 248 
488 248 262 263 
489 248 263 264 
490 264 249 248 
491 249 264 250 
492 250 264 265 
493 250 265 266 
494 266 251 250 
495 251 266 252 
496 252 266 267 
497 252 267 268 
498 268 253 252 
499 253 268 254 
500 254 268 269 
501 254 269 270 
502 270 255 254 
503 255 270 256 
504 256 270 271 
505 256 271 272 
506 272 257 256 
507 257 272 258 
508 258 272 273 
509 258 273 274 
510 274 259 258 
511 259 274 37 
512 37 274 36 
513 18 19 260 
514 260 19 275 
515 260 275 276 
516 276 261 260 
517 261 276 262 
518 262 276 277 
519 262 277 278 
520 278 263 262 
521 263 278 264 
522 264 278 279 
523 264 279 280 
524 280 265 264 
525 265 280 266 
526 266 280 281 
527 266 281 282 
528 282 267 266 
529 267 282 268 
530 268 282 283 
531 268 283 284 
532 284 269 268 
533 269 284 270 
534 270 284 285 
535 270 285 286 
536 286 271 270 
537 271 286 272 
538 272 286 287 
539 272 287 288 
540 288 273 272 
541 273 288 274 
542 274 288 289 
543 274 289 35 
544 35 36 274 
545 19 2 20 
546 20 275 19 
547 275 20 276 
548 276 20 21 
549 276 21 22 
550 22 277 276 
551 277 22 278 
552 278 22 23 
553 278 23 24 
554 24 279 278 
555 279 24 280 
556 280 24 25 
557 280 25 26 
558 26 281 280 
559 281 26 282 
560 282 26 27 
561 282 27 28 
562 28 283 282 
563 283 28 284 
564 284 28 29 
565 284 29 30 
566 30 285 284 
567 285 30 286 
568 286 30 31 
569 286 31 32 
570 32 287 286 
571 287 32 288 
572 288 32 33 
573 288 33 34 
574 34 289 288 
575 289 34 35 
576 35 34 3 
$EndElements
