$MeshFormat
4.1 0 8
$EndMeshFormat
$PhysicalNames
6
1 1 "Γ¹"
1 2 "Γ²"
1 3 "Γ³"
1 4 "Γ⁴"
1 6 "Γ"
2 5 "Ω"
$EndPhysicalNames
$Entities
4 5 1 0
1 0 0 0 0 
2 1 0 0 0 
3 1.5 0.8660254037844387 0 0 
4 0.4999999999999999 0.8660254037844387 0 0 
1 0 0 0 1 0 0 1 1 2 1 -2 
2 1 0 0 1.5 0.8660254037844387 0 1 2 2 2 -3 
3 0.5 0.8660254037844387 0 1.5 0.8660254037844387 0 1 3 2 3 -4 
4 0 0 0 0.4999999999999999 0.8660254037844387 0 1 4 2 4 -1 
5 0 0 0 1.5 0.8660254037844387 0 1 6 0 
1 0 0 0 1.5 0.8660254037844387 0 1 5 4 1 2 3 4 
$EndEntities
$Nodes
10 144 1 144
0 1 0 1
1
0 0 0
0 2 0 1
2
1 0 0
0 3 0 1
3
1.5 0.8660254037844387 0
0 4 0 1
4
0.4999999999999999 0.8660254037844387 0
1 1 0 10
5
6
7
8
9
10
11
12
13
14
0.09090909090891895 0 0
0.1818181818177918 0 0
0.2727272727266173 0 0
0.3636363636354429 0 0
0.4545454545442684 0 0
0.5454545454533466 0 0
0.6363636363626773 0 0
0.727272727272008 0 0
0.8181818181813386 0 0
0.9090909090906694 0 0
1 2 0 10
15
16
17
18
19
20
21
22
23
24
1.04545454545448 0.07872958216210769 0
1.090909090908942 0.1574591643241861 0
1.13636363636339 0.2361887464862379 0
1.181818181817849 0.31491832864831 0
1.227272727272282 0.3936479108103375 0
1.272727272726815 0.4723774929725379 0
1.31818181818147 0.5511070751349485 0
1.363636363636114 0.6298366572973414 0
1.409090909090756 0.7085662394597299 0
1.454545454545397 0.7872958216221169 0
1 3 0 10
25
26
27
28
29
30
31
32
33
34
1.409090909091414 0.8660254037844387 0
1.318181818182828 0.8660254037844387 0
1.227272727274242 0.8660254037844387 0
1.136363636365656 0.8660254037844387 0
1.045454545457069 0.8660254037844387 0
0.9545454545479787 0.8660254037844387 0
0.8636363636383829 0.8660254037844387 0
0.7727272727287872 0.8660254037844387 0
0.6818181818191915 0.8660254037844387 0
0.5909090909095958 0.8660254037844387 0
1 4 0 10
35
36
37
38
39
40
41
42
43
44
0.4545454545455294 0.7872958216223468 0
0.4090909090910418 0.7085662394602253 0
0.363636363636602 0.6298366572981865 0
0.318181818182169 0.5511070751361595 0
0.2727272727277726 0.4723774929741962 0
0.2272727272732543 0.3936479108120213 0
0.1818181818185857 0.3149183286495864 0
0.1363636363639275 0.2361887464871694 0
0.09090909090927191 0.1574591643247569 0
0.04545454545461719 0.07872958216234593 0
1 5 0 0
2 1 0 100
45
46
47
48
49
50
51
52
53
54
55
56
57
58
59
60
61
62
63
64
65
66
67
68
69
70
71
72
73
74
75
76
77
78
79
80
81
82
83
84
85
86
87
88
89
90
91
92
93
94
95
96
97
98
99
100
101
102
103
104
105
106
107
108
109
110
111
112
113
114
115
116
117
118
119
120
121
122
123
124
125
126
127
128
129
130
131
132
133
134
135
136
137
138
139
140
141
142
143
144
0.1363636363635851 0.07872958216232427 0
0.181818181818284 0.1574591643247051 0
0.2272727272729822 0.2361887464870847 0
0.2727272727276839 0.3149183286494702 0
0.3181818181823924 0.3936479108118681 0
0.3636363636369738 0.4723774929740455 0
0.4090909090914552 0.5511070751360494 0
0.454545454545969 0.6298366572981096 0
0.5000000000004886 0.7085662394601802 0
0.5454545454550517 0.7872958216223259 0
0.2272727272725112 0.07872958216230262 0
0.2727272727272582 0.1574591643246531 0
0.3181818181820034 0.236188746487 0
0.3636363636367524 0.3149183286493543 0
0.4090909090915056 0.3936479108117151 0
0.4545454545461538 0.4723774929738946 0
0.5000000000007243 0.5511070751359395 0
0.5454545454553233 0.6298366572980328 0
0.590909090909927 0.7085662394601353 0
0.6363636363645696 0.787295821622305 0
0.3181818181813942 0.07872958216228099 0
0.3636363636361939 0.1574591643246013 0
0.40909090909099 0.2361887464869153 0
0.4545454545457912 0.3149183286492382 0
0.5000000000005927 0.3936479108115619 0
0.5454545454553126 0.472377492973744 0
0.5909090909099763 0.5511070751358295 0
0.6363636363646643 0.6298366572979559 0
0.6818181818193565 0.7085662394600902 0
0.7272727272740833 0.787295821622284 0
0.4090909090902773 0.07872958216225932 0
0.4545454545451295 0.1574591643245493 0
0.4999999999999767 0.2361887464868307 0
0.5454545454548296 0.3149183286491222 0
0.59090909090968 0.393647910811409 0
0.6363636363644711 0.4723774929735932 0
0.6818181818192286 0.5511070751357192 0
0.7272727272740056 0.6298366572978791 0
0.7727272727287862 0.7085662394600452 0
0.8181818181835968 0.7872958216222631 0
0.4999999999991604 0.07872958216223765 0
0.5454545454540651 0.1574591643244975 0
0.5909090909089634 0.236188746486746 0
0.6363636363638685 0.3149183286490062 0
0.6818181818187672 0.3936479108112559 0
0.7272727272736296 0.4723774929734424 0
0.7727272727284804 0.5511070751356091 0
0.818181818183347 0.6298366572978022 0
0.8636363636382159 0.7085662394599999 0
0.9090909090931104 0.7872958216222421 0
0.5909090909082272 0.07872958216221597 0
0.6363636363631157 0.1574591643244456 0
0.681818181817996 0.2361887464866613 0
0.7272727272728843 0.3149183286488902 0
0.7727272727277628 0.3936479108111027 0
0.8181818181826278 0.4723774929732917 0
0.8636363636375032 0.5511070751354989 0
0.9090909090923902 0.6298366572977254 0
0.9545454545472786 0.7085662394599551 0
1.000000000002188 0.7872958216222213 0
0.6818181818174777 0.07872958216219432 0
0.727272727272281 0.1574591643243937 0
0.772727272727075 0.2361887464865766 0
0.8181818181818774 0.3149183286487742 0
0.8636363636366667 0.3936479108109497 0
0.9090909090914654 0.4723774929731409 0
0.9545454545462965 0.5511070751353888 0
1.000000000001135 0.6298366572976486 0
1.045454545455974 0.7085662394599099 0
1.09090909091083 0.7872958216222005 0
0.7727272727267283 0.07872958216217267 0
0.8181818181814465 0.1574591643243418 0
0.8636363636361535 0.2361887464864919 0
0.9090909090908702 0.314918328648658 0
0.9545454545455706 0.3936479108107966 0
1.000000000000302 0.4723774929729901 0
1.04545454545509 0.5511070751352787 0
1.09090909090988 0.6298366572975718 0
1.136363636364669 0.708566239459865 0
1.181818181819472 0.7872958216221796 0
0.8636363636359788 0.07872958216215102 0
0.9090909090906116 0.1574591643242899 0
0.9545454545452323 0.2361887464864073 0
0.999999999999863 0.3149183286485421 0
1.045454545454474 0.3936479108106435 0
1.09090909090914 0.4723774929728394 0
1.136363636363883 0.5511070751351685 0
1.181818181818624 0.6298366572974949 0
1.227272727273365 0.7085662394598199 0
1.272727272728113 0.7872958216221586 0
0.9545454545452294 0.07872958216212937 0
0.9999999999997771 0.157459164324238 0
1.045454545454311 0.2361887464863226 0
1.090909090908856 0.314918328648426 0
1.136363636363378 0.3936479108104906 0
1.181818181817978 0.4723774929726887 0
1.227272727272676 0.5511070751350586 0
1.27272727272737 0.6298366572974181 0
1.31818181818206 0.7085662394597748 0
1.363636363636755 0.7872958216221378 0
$EndNodes
$Elements
6 1012 1 2754
1 1 1 11
1 1 5 
2 5 6 
3 6 7 
4 7 8 
5 8 9 
6 9 10 
7 10 11 
8 11 12 
9 12 13 
10 13 14 
11 14 2 
1 2 1 11
12 2 15 
13 15 16 
14 16 17 
15 17 18 
16 18 19 
17 19 20 
18 20 21 
19 21 22 
20 22 23 
21 23 24 
22 24 3 
1 3 1 11
23 3 25 
24 25 26 
25 26 27 
26 27 28 
27 28 29 
28 29 30 
29 30 31 
30 31 32 
31 32 33 
32 33 34 
33 34 4 
1 4 1 11
34 4 35 
35 35 36 
36 36 37 
37 37 38 
38 38 39 
39 39 40 
40 40 41 
41 41 42 
42 42 43 
43 43 44 
44 44 1 
1 5 1 726
2029 1 5 
2030 5 44 
2031 44 1 
2032 44 5 
2033 5 45 
2034 45 44 
2035 44 45 
2036 45 46 
2037 46 44 
2038 46 43 
2039 43 44 
2040 44 46 
2041 43 46 
2042 46 42 
2043 42 43 
2044 42 46 
2045 46 47 
2046 47 42 
2047 42 47 
2048 47 48 
2049 48 42 
2050 48 41 
2051 41 42 
2052 42 48 
2053 41 48 
2054 48 40 
2055 40 41 
2056 40 48 
2057 48 49 
2058 49 40 
2059 40 49 
2060 49 50 
2061 50 40 
2062 50 39 
2063 39 40 
2064 40 50 
2065 39 50 
2066 50 38 
2067 38 39 
2068 38 50 
2069 50 51 
2070 51 38 
2071 38 51 
2072 51 52 
2073 52 38 
2074 52 37 
2075 37 38 
2076 38 52 
2077 37 52 
2078 52 36 
2079 36 37 
2080 36 52 
2081 52 53 
2082 53 36 
2083 36 53 
2084 53 54 
2085 54 36 
2086 54 35 
2087 35 36 
2088 36 54 
2089 35 54 
2090 54 4 
2091 4 35 
2092 4 54 
2093 54 34 
2094 34 4 
2095 5 6 
2096 6 55 
2097 55 5 
2098 55 45 
2099 45 5 
2100 5 55 
2101 45 55 
2102 55 46 
2103 46 45 
2104 46 55 
2105 55 56 
2106 56 46 
2107 46 56 
2108 56 57 
2109 57 46 
2110 57 47 
2111 47 46 
2112 46 57 
2113 47 57 
2114 57 48 
2115 48 47 
2116 48 57 
2117 57 58 
2118 58 48 
2119 48 58 
2120 58 59 
2121 59 48 
2122 59 49 
2123 49 48 
2124 48 59 
2125 49 59 
2126 59 50 
2127 50 49 
2128 50 59 
2129 59 60 
2130 60 50 
2131 50 60 
2132 60 61 
2133 61 50 
2134 61 51 
2135 51 50 
2136 50 61 
2137 51 61 
2138 61 52 
2139 52 51 
2140 52 61 
2141 61 62 
2142 62 52 
2143 52 62 
2144 62 63 
2145 63 52 
2146 63 53 
2147 53 52 
2148 52 63 
2149 53 63 
2150 63 54 
2151 54 53 
2152 54 63 
2153 63 64 
2154 64 54 
2155 54 64 
2156 64 33 
2157 33 54 
2158 33 34 
2159 34 54 
2160 54 33 
2161 6 7 
2162 7 55 
2163 55 6 
2164 55 7 
2165 7 65 
2166 65 55 
2167 55 65 
2168 65 66 
2169 66 55 
2170 66 56 
2171 56 55 
2172 55 66 
2173 56 66 
2174 66 57 
2175 57 56 
2176 57 66 
2177 66 67 
2178 67 57 
2179 57 67 
2180 67 68 
2181 68 57 
2182 68 58 
2183 58 57 
2184 57 68 
2185 58 68 
2186 68 59 
2187 59 58 
2188 59 68 
2189 68 69 
2190 69 59 
2191 59 69 
2192 69 70 
2193 70 59 
2194 70 60 
2195 60 59 
2196 59 70 
2197 60 70 
2198 70 61 
2199 61 60 
2200 61 70 
2201 70 71 
2202 71 61 
2203 61 71 
2204 71 72 
2205 72 61 
2206 72 62 
2207 62 61 
2208 61 72 
2209 62 72 
2210 72 63 
2211 63 62 
2212 63 72 
2213 72 73 
2214 73 63 
2215 63 73 
2216 73 74 
2217 74 63 
2218 74 64 
2219 64 63 
2220 63 74 
2221 64 74 
2222 74 33 
2223 33 64 
2224 33 74 
2225 74 32 
2226 32 33 
2227 7 8 
2228 8 75 
2229 75 7 
2230 75 65 
2231 65 7 
2232 7 75 
2233 65 75 
2234 75 66 
2235 66 65 
2236 66 75 
2237 75 76 
2238 76 66 
2239 66 76 
2240 76 77 
2241 77 66 
2242 77 67 
2243 67 66 
2244 66 77 
2245 67 77 
2246 77 68 
2247 68 67 
2248 68 77 
2249 77 78 
2250 78 68 
2251 68 78 
2252 78 79 
2253 79 68 
2254 79 69 
2255 69 68 
2256 68 79 
2257 69 79 
2258 79 70 
2259 70 69 
2260 70 79 
2261 79 80 
2262 80 70 
2263 70 80 
2264 80 81 
2265 81 70 
2266 81 71 
2267 71 70 
2268 70 81 
2269 71 81 
2270 81 72 
2271 72 71 
2272 72 81 
2273 81 82 
2274 82 72 
2275 72 82 
2276 82 83 
2277 83 72 
2278 83 73 
2279 73 72 
2280 72 83 
2281 73 83 
2282 83 74 
2283 74 73 
2284 74 83 
2285 83 84 
2286 84 74 
2287 74 84 
2288 84 31 
2289 31 74 
2290 31 32 
2291 32 74 
2292 74 31 
2293 8 9 
2294 9 75 
2295 75 8 
2296 75 9 
2297 9 85 
2298 85 75 
2299 75 85 
2300 85 86 
2301 86 75 
2302 86 76 
2303 76 75 
2304 75 86 
2305 76 86 
2306 86 77 
2307 77 76 
2308 77 86 
2309 86 87 
2310 87 77 
2311 77 87 
2312 87 88 
2313 88 77 
2314 88 78 
2315 78 77 
2316 77 88 
2317 78 88 
2318 88 79 
2319 79 78 
2320 79 88 
2321 88 89 
2322 89 79 
2323 79 89 
2324 89 90 
2325 90 79 
2326 90 80 
2327 80 79 
2328 79 90 
2329 80 90 
2330 90 81 
2331 81 80 
2332 81 90 
2333 90 91 
2334 91 81 
2335 81 91 
2336 91 92 
2337 92 81 
2338 92 82 
2339 82 81 
2340 81 92 
2341 82 92 
2342 92 83 
2343 83 82 
2344 83 92 
2345 92 93 
2346 93 83 
2347 83 93 
2348 93 94 
2349 94 83 
2350 94 84 
2351 84 83 
2352 83 94 
2353 84 94 
2354 94 31 
2355 31 84 
2356 31 94 
2357 94 30 
2358 30 31 
2359 9 10 
2360 10 95 
2361 95 9 
2362 95 85 
2363 85 9 
2364 9 95 
2365 85 95 
2366 95 86 
2367 86 85 
2368 86 95 
2369 95 96 
2370 96 86 
2371 86 96 
2372 96 97 
2373 97 86 
2374 97 87 
2375 87 86 
2376 86 97 
2377 87 97 
2378 97 88 
2379 88 87 
2380 88 97 
2381 97 98 
2382 98 88 
2383 88 98 
2384 98 99 
2385 99 88 
2386 99 89 
2387 89 88 
2388 88 99 
2389 89 99 
2390 99 90 
2391 90 89 
2392 90 99 
2393 99 100 
2394 100 90 
2395 90 100 
2396 100 101 
2397 101 90 
2398 101 91 
2399 91 90 
2400 90 101 
2401 91 101 
2402 101 92 
2403 92 91 
2404 92 101 
2405 101 102 
2406 102 92 
2407 92 102 
2408 102 103 
2409 103 92 
2410 103 93 
2411 93 92 
2412 92 103 
2413 93 103 
2414 103 94 
2415 94 93 
2416 94 103 
2417 103 104 
2418 104 94 
2419 94 104 
2420 104 29 
2421 29 94 
2422 29 30 
2423 30 94 
2424 94 29 
2425 10 11 
2426 11 95 
2427 95 10 
2428 95 11 
2429 11 105 
2430 105 95 
2431 95 105 
2432 105 106 
2433 106 95 
2434 106 96 
2435 96 95 
2436 95 106 
2437 96 106 
2438 106 97 
2439 97 96 
2440 97 106 
2441 106 107 
2442 107 97 
2443 97 107 
2444 107 108 
2445 108 97 
2446 108 98 
2447 98 97 
2448 97 108 
2449 98 108 
2450 108 99 
2451 99 98 
2452 99 108 
2453 108 109 
2454 109 99 
2455 99 109 
2456 109 110 
2457 110 99 
2458 110 100 
2459 100 99 
2460 99 110 
2461 100 110 
2462 110 101 
2463 101 100 
2464 101 110 
2465 110 111 
2466 111 101 
2467 101 111 
2468 111 112 
2469 112 101 
2470 112 102 
2471 102 101 
2472 101 112 
2473 102 112 
2474 112 103 
2475 103 102 
2476 103 112 
2477 112 113 
2478 113 103 
2479 103 113 
2480 113 114 
2481 114 103 
2482 114 104 
2483 104 103 
2484 103 114 
2485 104 114 
2486 114 29 
2487 29 104 
2488 29 114 
2489 114 28 
2490 28 29 
2491 11 12 
2492 12 115 
2493 115 11 
2494 115 105 
2495 105 11 
2496 11 115 
2497 105 115 
2498 115 106 
2499 106 105 
2500 106 115 
2501 115 116 
2502 116 106 
2503 106 116 
2504 116 117 
2505 117 106 
2506 117 107 
2507 107 106 
2508 106 117 
2509 107 117 
2510 117 108 
2511 108 107 
2512 108 117 
2513 117 118 
2514 118 108 
2515 108 118 
2516 118 119 
2517 119 108 
2518 119 109 
2519 109 108 
2520 108 119 
2521 109 119 
2522 119 110 
2523 110 109 
2524 110 119 
2525 119 120 
2526 120 110 
2527 110 120 
2528 120 121 
2529 121 110 
2530 121 111 
2531 111 110 
2532 110 121 
2533 111 121 
2534 121 112 
2535 112 111 
2536 112 121 
2537 121 122 
2538 122 112 
2539 112 122 
2540 122 123 
2541 123 112 
2542 123 113 
2543 113 112 
2544 112 123 
2545 113 123 
2546 123 114 
2547 114 113 
2548 114 123 
2549 123 124 
2550 124 114 
2551 114 124 
2552 124 27 
2553 27 114 
2554 27 28 
2555 28 114 
2556 114 27 
2557 12 13 
2558 13 115 
2559 115 12 
2560 115 13 
2561 13 125 
2562 125 115 
2563 115 125 
2564 125 126 
2565 126 115 
2566 126 116 
2567 116 115 
2568 115 126 
2569 116 126 
2570 126 117 
2571 117 116 
2572 117 126 
2573 126 127 
2574 127 117 
2575 117 127 
2576 127 128 
2577 128 117 
2578 128 118 
2579 118 117 
2580 117 128 
2581 118 128 
2582 128 119 
2583 119 118 
2584 119 128 
2585 128 129 
2586 129 119 
2587 119 129 
2588 129 130 
2589 130 119 
2590 130 120 
2591 120 119 
2592 119 130 
2593 120 130 
2594 130 121 
2595 121 120 
2596 121 130 
2597 130 131 
2598 131 121 
2599 121 131 
2600 131 132 
2601 132 121 
2602 132 122 
2603 122 121 
2604 121 132 
2605 122 132 
2606 132 123 
2607 123 122 
2608 123 132 
2609 132 133 
2610 133 123 
2611 123 133 
2612 133 134 
2613 134 123 
2614 134 124 
2615 124 123 
2616 123 134 
2617 124 134 
2618 134 27 
2619 27 124 
2620 27 134 
2621 134 26 
2622 26 27 
2623 13 14 
2624 14 135 
2625 135 13 
2626 135 125 
2627 125 13 
2628 13 135 
2629 125 135 
2630 135 126 
2631 126 125 
2632 126 135 
2633 135 136 
2634 136 126 
2635 126 136 
2636 136 137 
2637 137 126 
2638 137 127 
2639 127 126 
2640 126 137 
2641 127 137 
2642 137 128 
2643 128 127 
2644 128 137 
2645 137 138 
2646 138 128 
2647 128 138 
2648 138 139 
2649 139 128 
2650 139 129 
2651 129 128 
2652 128 139 
2653 129 139 
2654 139 130 
2655 130 129 
2656 130 139 
2657 139 140 
2658 140 130 
2659 130 140 
2660 140 141 
2661 141 130 
2662 141 131 
2663 131 130 
2664 130 141 
2665 131 141 
2666 141 132 
2667 132 131 
2668 132 141 
2669 141 142 
2670 142 132 
2671 132 142 
2672 142 143 
2673 143 132 
2674 143 133 
2675 133 132 
2676 132 143 
2677 133 143 
2678 143 134 
2679 134 133 
2680 134 143 
2681 143 144 
2682 144 134 
2683 134 144 
2684 144 25 
2685 25 134 
2686 25 26 
2687 26 134 
2688 134 25 
2689 14 2 
2690 2 135 
2691 135 14 
2692 135 2 
2693 2 15 
2694 15 135 
2695 135 15 
2696 15 16 
2697 16 135 
2698 16 136 
2699 136 135 
2700 135 16 
2701 136 16 
2702 16 137 
2703 137 136 
2704 137 16 
2705 16 17 
2706 17 137 
2707 137 17 
2708 17 18 
2709 18 137 
2710 18 138 
2711 138 137 
2712 137 18 
2713 138 18 
2714 18 139 
2715 139 138 
2716 139 18 
2717 18 19 
2718 19 139 
2719 139 19 
2720 19 20 
2721 20 139 
2722 20 140 
2723 140 139 
2724 139 20 
2725 140 20 
2726 20 141 
2727 141 140 
2728 141 20 
2729 20 21 
2730 21 141 
2731 141 21 
2732 21 22 
2733 22 141 
2734 22 142 
2735 142 141 
2736 141 22 
2737 142 22 
2738 22 143 
2739 143 142 
2740 143 22 
2741 22 23 
2742 23 143 
2743 143 23 
2744 23 24 
2745 24 143 
2746 24 144 
2747 144 143 
2748 143 24 
2749 144 24 
2750 24 25 
2751 25 144 
2752 25 24 
2753 24 3 
2754 3 25 
2 1 2 242
45 1 5 44 
46 44 5 45 
47 44 45 46 
48 46 43 44 
49 43 46 42 
50 42 46 47 
51 42 47 48 
52 48 41 42 
53 41 48 40 
54 40 48 49 
55 40 49 50 
56 50 39 40 
57 39 50 38 
58 38 50 51 
59 38 51 52 
60 52 37 38 
61 37 52 36 
62 36 52 53 
63 36 53 54 
64 54 35 36 
65 35 54 4 
66 4 54 34 
67 5 6 55 
68 55 45 5 
69 45 55 46 
70 46 55 56 
71 46 56 57 
72 57 47 46 
73 47 57 48 
74 48 57 58 
75 48 58 59 
76 59 49 48 
77 49 59 50 
78 50 59 60 
79 50 60 61 
80 61 51 50 
81 51 61 52 
82 52 61 62 
83 52 62 63 
84 63 53 52 
85 53 63 54 
86 54 63 64 
87 54 64 33 
88 33 34 54 
89 6 7 55 
90 55 7 65 
91 55 65 66 
92 66 56 55 
93 56 66 57 
94 57 66 67 
95 57 67 68 
96 68 58 57 
97 58 68 59 
98 59 68 69 
99 59 69 70 
100 70 60 59 
101 60 70 61 
102 61 70 71 
103 61 71 72 
104 72 62 61 
105 62 72 63 
106 63 72 73 
107 63 73 74 
108 74 64 63 
109 64 74 33 
110 33 74 32 
111 7 8 75 
112 75 65 7 
113 65 75 66 
114 66 75 76 
115 66 76 77 
116 77 67 66 
117 67 77 68 
118 68 77 78 
119 68 78 79 
120 79 69 68 
121 69 79 70 
122 70 79 80 
123 70 80 81 
124 81 71 70 
125 71 81 72 
126 72 81 82 
127 72 82 83 
128 83 73 72 
129 73 83 74 
130 74 83 84 
131 74 84 31 
132 31 32 74 
133 8 9 75 
134 75 9 85 
135 75 85 86 
136 86 76 75 
137 76 86 77 
138 77 86 87 
139 77 87 88 
140 88 78 77 
141 78 88 79 
142 79 88 89 
143 79 89 90 
144 90 80 79 
145 80 90 81 
146 81 90 91 
147 81 91 92 
148 92 82 81 
149 82 92 83 
150 83 92 93 
151 83 93 94 
152 94 84 83 
153 84 94 31 
154 31 94 30 
155 9 10 95 
156 95 85 9 
157 85 95 86 
158 86 95 96 
159 86 96 97 
160 97 87 86 
161 87 97 88 
162 88 97 98 
163 88 98 99 
164 99 89 88 
165 89 99 90 
166 90 99 100 
167 90 100 101 
168 101 91 90 
169 91 101 92 
170 92 101 102 
171 92 102 103 
172 103 93 92 
173 93 103 94 
174 94 103 104 
175 94 104 29 
176 29 30 94 
177 10 11 95 
178 95 11 105 
179 95 105 106 
180 106 96 95 
181 96 106 97 
182 97 106 107 
183 97 107 108 
184 108 98 97 
185 98 108 99 
186 99 108 109 
187 99 109 110 
188 110 100 99 
189 100 110 101 
190 101 110 111 
191 101 111 112 
192 112 102 101 
193 102 112 103 
194 103 112 113 
195 103 113 114 
196 114 104 103 
197 104 114 29 
198 29 114 28 
199 11 12 115 
200 115 105 11 
201 105 115 106 
202 106 115 116 
203 106 116 117 
204 117 107 106 
205 107 117 108 
206 108 117 118 
207 108 118 119 
208 119 109 108 
209 109 119 110 
210 110 119 120 
211 110 120 121 
212 121 111 110 
213 111 121 112 
214 112 121 122 
215 112 122 123 
216 123 113 112 
217 113 123 114 
218 114 123 124 
219 114 124 27 
220 27 28 114 
221 12 13 115 
222 115 13 125 
223 115 125 126 
224 126 116 115 
225 116 126 117 
226 117 126 127 
227 117 127 128 
228 128 118 117 
229 118 128 119 
230 119 128 129 
231 119 129 130 
232 130 120 119 
233 120 130 121 
234 121 130 131 
235 121 131 132 
236 132 122 121 
237 122 132 123 
238 123 132 133 
239 123 133 134 
240 134 124 123 
241 124 134 27 
242 27 134 26 
243 13 14 135 
244 135 125 13 
245 125 135 126 
246 126 135 136 
247 126 136 137 
248 137 127 126 
249 127 137 128 
250 128 137 138 
251 128 138 139 
252 139 129 128 
253 129 139 130 
254 130 139 140 
255 130 140 141 
256 141 131 130 
257 131 141 132 
258 132 141 142 
259 132 142 143 
260 143 133 132 
261 133 143 134 
262 134 143 144 
263 134 144 25 
264 25 26 134 
265 14 2 135 
266 135 2 15 
267 135 15 16 
268 16 136 135 
269 136 16 137 
270 137 16 17 
271 137 17 18 
272 18 138 137 
273 138 18 139 
274 139 18 19 
275 139 19 20 
276 20 140 139 
277 140 20 141 
278 141 20 21 
279 141 21 22 
280 22 142 141 
281 142 22 143 
282 143 22 23 
283 143 23 24 
284 24 144 143 
285 144 24 25 
286 25 24 3 
$EndElements
