$MeshFormat
4.1 0 8
$EndMeshFormat
$PhysicalNames
6
1 1 "Γ¹"
1 2 "Γ²"
1 3 "Γ³"
1 4 "Γ⁴"
1 6 "Γ"
2 5 "Ω"
$EndPhysicalNames
$Entities
4 5 1 0
1 0 0 0 0 
2 1 0 0 0 
3 1 1 0 0 
4 0 1 0 0 
1 0 0 0 1 0 0 1 1 2 1 -2 
2 1 0 0 1 1 0 1 2 2 2 -3 
3 0 1 0 1 1 0 1 3 2 3 -4 
4 0 0 0 0 1 0 1 4 2 4 -1 
5 0 0 0 1 1 0 1 6 0 
1 0 0 0 1 1 0 1 5 4 1 2 3 4 
$EndEntities
$Nodes
10 330 1 330
0 1 0 1
1
0 0 0
0 2 0 1
2
1 0 0
0 3 0 1
3
1 1 0
0 4 0 1
4
0 1 0
1 1 0 15
5
6
7
8
9
10
11
12
13
14
15
16
17
18
19
0.06249999999987326 0 0
0.1249999999997738 0 0
0.1874999999995944 0 0
0.2499999999994124 0 0
0.3124999999992301 0 0
0.3749999999990479 0 0
0.4374999999988656 0 0
0.4999999999986942 0 0
0.562499999998848 0 0
0.6249999999990126 0 0
0.6874999999991771 0 0
0.7499999999993417 0 0
0.8124999999995063 0 0
0.8749999999996708 0 0
0.9374999999998355 0 0
1 2 0 15
20
21
22
23
24
25
26
27
28
29
30
31
32
33
34
1 0.06249999999987326 0
1 0.1249999999997738 0
1 0.1874999999995944 0
1 0.2499999999994124 0
1 0.3124999999992301 0
1 0.3749999999990479 0
1 0.4374999999988656 0
1 0.4999999999986942 0
1 0.562499999998848 0
1 0.6249999999990126 0
1 0.6874999999991771 0
1 0.7499999999993417 0
1 0.8124999999995063 0
1 0.8749999999996708 0
1 0.9374999999998355 0
1 3 0 15
35
36
37
38
39
40
41
42
43
44
45
46
47
48
49
0.9374999999997397 1 0
0.8749999999995011 1 0
0.812499999999913 1 0
0.7500000000003465 1 0
0.68750000000078 1 0
0.6250000000012137 1 0
0.5625000000016471 1 0
0.500000000002059 1 0
0.4375000000018207 1 0
0.3750000000015605 1 0
0.3125000000013004 1 0
0.2500000000010404 1 0
0.1875000000007803 1 0
0.1250000000005201 1 0
0.06250000000026013 1 0
1 4 0 15
50
51
52
53
54
55
56
57
58
59
60
61
62
63
64
0 0.9374999999997397 0
0 0.8749999999995011 0
0 0.812499999999913 0
0 0.7500000000003465 0
0 0.68750000000078 0
0 0.6250000000012137 0
0 0.5625000000016471 0
0 0.500000000002059 0
0 0.4375000000018207 0
0 0.3750000000015605 0
0 0.3125000000013004 0
0 0.2500000000010404 0
0 0.1875000000007803 0
0 0.1250000000005201 0
0 0.06250000000026013 0
1 5 0 0
2 1 0 266
65
66
67
68
69
70
71
72
73
74
75
76
77
78
79
80
81
82
83
84
85
86
87
88
89
90
91
92
93
94
95
96
97
98
99
100
101
102
103
104
105
106
107
108
109
110
111
112
113
114
115
116
117
118
119
120
121
122
123
124
125
126
127
128
129
130
131
132
133
134
135
136
137
138
139
140
141
142
143
144
145
146
147
148
149
150
151
152
153
154
155
156
157
158
159
160
161
162
163
164
165
166
167
168
169
170
171
172
173
174
175
176
177
178
179
180
181
182
183
184
185
186
187
188
189
190
191
192
193
194
195
196
197
198
199
200
201
202
203
204
205
206
207
208
209
210
211
212
213
214
215
216
217
218
219
220
221
222
223
224
225
226
227
228
229
230
231
232
233
234
235
236
237
238
239
240
241
242
243
244
245
246
247
248
249
250
251
252
253
254
255
256
257
258
259
260
261
262
263
264
265
266
267
268
269
270
271
272
273
274
275
276
277
278
279
280
281
282
283
284
285
286
287
288
289
290
291
292
293
294
295
296
297
298
299
300
301
302
303
304
305
306
307
308
309
310
311
312
313
314
315
316
317
318
319
320
321
322
323
324
325
326
327
328
329
330
0.9388245765961181 0.9425691566529771 0
0.9350379817192641 0.8844211652720056 0
0.5025054628919026 0.3675531962294138 0
0.4742479664866485 0.4235792924652805 0
0.4153966135512051 0.3990606049817445 0
0.561963175698763 0.4169387095289072 0
0.3500943857366426 0.9411821150371729 0
0.3276957084834263 0.8846571898295483 0
0.384953442369216 0.8772154503987298 0
0.2995790142786752 0.8331316242056201 0
0.9448778468414287 0.6796956276921792 0
0.8920313730142707 0.6855779820448856 0
0.8798454665193788 0.6263909038254893 0
0.8388765100646076 0.7065924467429522 0
0.6498190248567276 0.0597441593107635 0
0.6699792956964228 0.1179219138072187 0
0.6154665861559671 0.1277516143739264 0
0.689728547266897 0.1764961476153038 0
0.8179328043054744 0.896709783626216 0
0.7579234977103617 0.9452996672541091 0
0.7629998872087662 0.8924643049296506 0
0.6995483298532725 0.9394309561017051 0
0.709216061296239 0.8836484561985949 0
0.8915122917708326 0.1911055671380676 0
0.9469375490447191 0.2435359515379802 0
0.8915139486221789 0.244066438249979 0
0.9472014027675055 0.2832063503270322 0
0.9062723071891734 0.2967973401055284 0
0.107933808307917 0.8105067160624522 0
0.05629818964675867 0.7543583389764299 0
0.1140265217182615 0.7595511937011538 0
0.06008834997910599 0.6969556135624416 0
0.1207918296228382 0.704945255328427 0
0.2074563482437975 0.09619334811456552 0
0.2229765867719148 0.05723880814247341 0
0.2501543029257474 0.1259881802584726 0
0.2757208457027366 0.06387381706886673 0
0.3113373416945263 0.1170976072343924 0
0.8773377152824255 0.9459185237057404 0
0.8732619600986528 0.8932381605272043 0
0.8166315423287662 0.9469158940597883 0
0.07747507980546434 0.1842686246760011 0
0.1335644844270938 0.238494225030867 0
0.05898321964474505 0.2526463790972636 0
0.1051450338104332 0.08507113066294655 0
0.1457496414339255 0.1366912913702368 0
0.1675505734794561 0.9436730595787574 0
0.2170751524293477 0.8875310038877682 0
0.229865216827934 0.9430829760509976 0
0.08789636980487525 0.9000837905130502 0
0.1465831206927433 0.8791416520997841 0
0.8323057455637628 0.05642615031640108 0
0.7811571288564597 0.1133484324293403 0
0.7696547455033278 0.05724736243791662 0
0.911975609850873 0.09999239257876542 0
0.8523907916979181 0.1213769722483536 0
0.9218403769833895 0.8150220939273487 0
0.8721662861155901 0.7625831001215806 0
0.9436963216028871 0.7674125956757881 0
0.8551590456024707 0.8423851543148437 0
0.1042638300141814 0.8468420848994863 0
0.06610031929629619 0.8563132026849614 0
0.8951024411353524 0.1537104810896847 0
0.9337140454583385 0.1439380688112925 0
0.1660843741275619 0.07166243344128129 0
0.1347348075049871 0.05559256577191915 0
0.05062162693925153 0.9098510160120155 0
0.05450861581823592 0.9472567069494979 0
0.09040912755529441 0.04880423856631701 0
0.05356896020591303 0.05401516568855919 0
0.9493346012467643 0.09018937408712946 0
0.9454729467005454 0.05275764771680348 0
0.944525317193065 0.191886666148107 0
0.05618168211824229 0.8083670430929595 0
0.05860158664087578 0.1108705173735486 0
0.1094968574641175 0.9476464911118323 0
0.8903913013823141 0.05241883263235306 0
0.6276519800656057 0.4925918467639571 0
0.5684804500924413 0.493717458337493 0
0.630723551672062 0.4288781303828629 0
0.5669847902493814 0.5594182810641934 0
0.3643128015102872 0.5153820239131058 0
0.3755714722379329 0.5778813031394187 0
0.3933769853255975 0.4561951721439246 0
0.4940793593085886 0.6292927580646451 0
0.5050654762394422 0.5515375954261885 0
0.566925158142965 0.6266085959001607 0
0.4390811876694913 0.5834715965898597 0
0.4104812312896555 0.9366172472510793 0
0.4295671790781599 0.8737117206788005 0
0.4767495506079702 0.9240037444522081 0
0.9398723334113632 0.6224527647107598 0
0.8728936111298984 0.5666352555218632 0
0.9352755464747138 0.5594463570008998 0
0.5913822335161825 0.0665266124599273 0
0.5660168575058125 0.1409707944703628 0
0.5381346162404985 0.08325375402402617 0
0.1648482657450965 0.8213744128846331 0
0.377761252253778 0.3162403585209492 0
0.3427240046716513 0.3795102271987844 0
0.3376506949794381 0.2396088377573093 0
0.3962981234965684 0.2567355192571748 0
0.4045910535126622 0.1980582929224711 0
0.3270062836342716 0.6349174741131265 0
0.3840604863191948 0.6293773644845845 0
0.8156731603666439 0.8585519856210504 0
0.2478555857418239 0.6664256575394909 0
0.2629040669766576 0.6130853458116959 0
0.2015164794647574 0.6009181276450017 0
0.6825178677114764 0.3896369879171611 0
0.6489103272783892 0.3745794229205876 0
0.720572607926 0.3564505035803579 0
0.7400709310632113 0.4207051886176473 0
0.8315618268517487 0.1819211443848871 0
0.8135407071678277 0.4125624367539507 0
0.6320775427690954 0.6836450159426262 0
0.6296765924244044 0.6230378526819849 0
0.6464814330528216 0.7412254937150706 0
0.5912647846465307 0.7571255336639138 0
0.6092127651142107 0.8159991172723483 0
0.5375656427387329 0.2933084260698259 0
0.5953606431616654 0.2471636103907913 0
0.1937547515475607 0.1348338803144638 0
0.363562104985613 0.8073366152856934 0
0.5244790488152318 0.2333798398459769 0
0.05473053320697468 0.3085778493926389 0
0.5554419792319495 0.207133674021288 0
0.7415866769317316 0.4799229102091313 0
0.7944048293008067 0.4808679196950165 0
0.782059287733768 0.5212460072543201 0
0.2910058235645348 0.9434216447446251 0
0.7483588911893908 0.680912461073754 0
0.7626925013874309 0.5846977098738381 0
0.810609532664877 0.6340114964712562 0
0.3628975179083989 0.1212334954773128 0
0.3490146679987587 0.1825965988014432 0
0.2968854399334435 0.1580427166861549 0
0.9501783898209456 0.7195032607470553 0
0.7900665246953014 0.3401195698502013 0
0.8492186697908539 0.3175391180687788 0
0.7083350950416684 0.05724365141124334 0
0.1014341050932396 0.2646133860408544 0
0.1800410204813279 0.2052762346828399 0
0.2639198782468131 0.8521603993723936 0
0.2743311711166157 0.8906104660996996 0
0.2232735338831791 0.8374567792149876 0
0.9178207931516204 0.7355860856931972 0
0.8219900693352963 0.792357554226062 0
0.7300403534432063 0.1511436895177412 0
0.7227547137339847 0.1115036415000485 0
0.7703219078903468 0.1660350637970069 0
0.6587781499268632 0.8698506186536018 0
0.6732613735507567 0.8087710794100472 0
0.7166286148953668 0.8426957455776699 0
0.065651851481643 0.6386217041770152 0
0.1824853927274382 0.7124983961632169 0
0.175876327662302 0.7679904234548619 0
0.1290624189763177 0.6488554057266197 0
0.1903330917750134 0.6571925682103298 0
0.644667432143209 0.9219832224068314 0
0.7688024678289036 0.8324148298373126 0
0.1075176671235536 0.3061954838508563 0
0.151152072903727 0.3549552614650789 0
0.1091355790309925 0.3591884003967993 0
0.108636258717782 0.4153922193466005 0
0.9303576983762586 0.3470926674104913 0
0.8165322071297594 0.2520766181895628 0
0.5138938975972263 0.4455853079639449 0
0.5110488641104856 0.4899300182540685 0
0.3363322543208168 0.05611491391351001 0
0.2217708712224624 0.1695867065582938 0
0.05452426911763117 0.366454021786262 0
0.1788620973847587 0.3057219415038255 0
0.2194241877865959 0.2600845358790422 0
0.2503784593318454 0.7812670708768313 0
0.7853288206784387 0.7374636038839015 0
0.7318920650895935 0.222800891261609 0
0.0769210577074176 0.5820265487558813 0
0.7444126044342205 0.5348069619724177 0
0.6898872206555219 0.5500072088189608 0
0.6858861245620718 0.4875922411514755 0
0.4535361222965124 0.4766666670228939 0
0.4415619321266638 0.5338520068778471 0
0.284078131120805 0.4346908015209255 0
0.323224455851648 0.47920188586873 0
0.2798454992861782 0.483699630808 0
0.7011260765684707 0.6244768618430186 0
0.4146553304111295 0.09235386377642565 0
0.4570675788378321 0.06307802570667087 0
0.4432799729139988 0.1398471503372662 0
0.4900014897477075 0.1118743039567814 0
0.3940823275349902 0.6789970022455133 0
0.4416476342117115 0.6680738420120701 0
0.401939439483441 0.7427861646548782 0
0.3363434160166491 0.4411561862124634 0
0.4622264585163569 0.7236910005280512 0
0.2195897466002763 0.3475474354780272 0
0.4403788483149191 0.7896469854555673 0
0.5971076638317505 0.8853378528063864 0
0.9006195559639487 0.4246610631131515 0
0.9327962618819001 0.4833332613819388 0
0.8602442282444074 0.445772481427461 0
0.8528036645660958 0.5023994183889412 0
0.2416263869342916 0.7174941187070187 0
0.2613893666962074 0.3790949759410264 0
0.2933518558162834 0.3992775421815354 0
0.272084824571958 0.2221999321909963 0
0.7743864545123795 0.2947290205954891 0
0.731610546095035 0.7708250409391125 0
0.05384977932575766 0.4252907761878577 0
0.1045851202715253 0.4738454039255053 0
0.1610959575394436 0.474752007636537 0
0.05224530417808554 0.5225297987272483 0
0.05192413653056912 0.4821448456574588 0
0.09305133323288667 0.5286798758443686 0
0.5431736847586662 0.9472832599747936 0
0.5046712739919691 0.8575417568184792 0
0.15062012480589 0.5348070687517417 0
0.3099369791132736 0.7505852221516097 0
0.1743571396227321 0.4021552590923945 0
0.6721826681030685 0.2359799648085361 0
0.6326944544600528 0.1941650086950152 0
0.2563038567331229 0.3049083945944773 0
0.3566113888309432 0.6777932315148172 0
0.5174480132078195 0.7066742691085037 0
0.3416851770907077 0.7118399704677648 0
0.6003997520480877 0.3443277956550566 0
0.2820971486649358 0.7176092665275355 0
0.6989677705368622 0.7165393800027903 0
0.726337018659871 0.2907126134355884 0
0.6539162330039583 0.2902534732894133 0
0.6730668313251839 0.3405130478910046 0
0.2842703740974094 0.276404834118486 0
0.2954078125750392 0.3383098185672032 0
0.8748356559738847 0.373734512421062 0
0.5649437467181373 0.9219422693031356 0
0.9498487984112046 0.3979743660743057 0
0.9629825231867719 0.4374363297476756 0
0.3903145709480294 0.04614374962883409 0
0.429064234968656 0.03475468913777762 0
0.8296941876068105 0.5783922358729757 0
0.5825626972924842 0.1804190809586596 0
0.8060450221572804 0.5488206028557153 0
0.6759398565329704 0.6774126201876061 0
0.2352138564373226 0.4249805424189135 0
0.2873371632119616 0.5474071961995268 0
0.2218275493344698 0.4807564599384094 0
0.4734904821495353 0.203297924672109 0
0.4593962052649467 0.2749389421283913 0
0.5618551022013346 0.8324810975210253 0
0.521782155204368 0.1638329285674245 0
0.4390138824498622 0.3388833716857919 0
0.3219002714476686 0.2925457311900431 0
0.2133253074215747 0.5411150543100208 0
0.5373148727802926 0.7713967185854117 0
0.6226723272508774 0.8566299789924805 0
0.1396574638081118 0.5919368599869443 0
0.4064242649402273 0.1552299602839801 0
0.4833381759697057 0.7834666998316417 0
0.4350827056478446 0.8319021627521233 0
0.5762672209258081 0.6929838397149402 0
0.2973868959269397 0.6844762595336779 0
0.3320214964023835 0.5855417699376728 0
0.4216771239140514 0.6277841186904687 0
0.6292300562543574 0.5573368990581598 0
0.6845562540322313 0.4298376298485349 0
$EndNodes
$Elements
6 1549 1 5865
1 1 1 16
1 1 5 
2 5 6 
3 6 7 
4 7 8 
5 8 9 
6 9 10 
7 10 11 
8 11 12 
9 12 13 
10 13 14 
11 14 15 
12 15 16 
13 16 17 
14 17 18 
15 18 19 
16 19 2 
1 2 1 16
17 2 20 
18 20 21 
19 21 22 
20 22 23 
21 23 24 
22 24 25 
23 25 26 
24 26 27 
25 27 28 
26 28 29 
27 29 30 
28 30 31 
29 31 32 
30 32 33 
31 33 34 
32 34 3 
1 3 1 16
33 3 35 
34 35 36 
35 36 37 
36 37 38 
37 38 39 
38 39 40 
39 40 41 
40 41 42 
41 42 43 
42 43 44 
43 44 45 
44 45 46 
45 46 47 
46 47 48 
47 48 49 
48 49 4 
1 4 1 16
49 4 50 
50 50 51 
51 51 52 
52 52 53 
53 53 54 
54 54 55 
55 55 56 
56 56 57 
57 57 58 
58 58 59 
59 59 60 
60 60 61 
61 61 62 
62 62 63 
63 63 64 
64 64 1 
1 5 1 1188
4678 65 66 
4679 66 33 
4680 33 34 
4681 34 65 
4682 84 86 
4683 86 87 
4684 87 85 
4685 85 84 
4686 89 91 
4687 91 92 
4688 92 90 
4689 90 89 
4690 94 96 
4691 96 97 
4692 97 95 
4693 95 94 
4694 98 99 
4695 99 101 
4696 101 100 
4697 100 98 
4698 104 103 
4699 103 105 
4700 105 83 
4701 83 104 
4702 113 111 
4703 111 115 
4704 115 112 
4705 112 113 
4706 118 116 
4707 116 120 
4708 120 117 
4709 117 118 
4710 65 35 
4711 35 36 
4712 36 103 
4713 103 65 
4714 126 125 
4715 125 115 
4716 115 114 
4717 114 126 
4718 128 127 
4719 127 120 
4720 120 119 
4721 119 128 
4722 130 129 
4723 129 110 
4724 110 109 
4725 109 130 
4726 51 126 
4727 126 114 
4728 114 131 
4729 131 51 
4730 6 130 
4731 130 109 
4732 109 133 
4733 133 6 
4734 21 128 
4735 128 119 
4736 119 135 
4737 135 21 
4738 88 127 
4739 127 128 
4740 128 137 
4741 137 88 
4742 93 125 
4743 125 126 
4744 126 138 
4745 138 93 
4746 139 106 
4747 106 62 
4748 62 63 
4749 63 139 
4750 140 111 
4751 111 47 
4752 47 48 
4753 48 140 
4754 141 116 
4755 116 17 
4756 17 18 
4757 18 141 
4758 66 121 
4759 121 32 
4760 32 33 
4761 33 66 
4762 115 111 
4763 111 140 
4764 140 114 
4765 114 115 
4766 131 114 
4767 114 140 
4768 140 132 
4769 132 131 
4770 120 116 
4771 116 141 
4772 141 119 
4773 119 120 
4774 135 119 
4775 119 141 
4776 141 136 
4777 136 135 
4778 110 106 
4779 106 139 
4780 139 109 
4781 109 110 
4782 133 109 
4783 109 139 
4784 139 134 
4785 134 133 
4786 128 21 
4787 21 22 
4788 22 137 
4789 137 128 
4790 126 51 
4791 51 52 
4792 52 138 
4793 138 126 
4794 130 6 
4795 6 7 
4796 7 129 
4797 129 130 
4798 103 36 
4799 36 37 
4800 37 105 
4801 105 103 
4802 124 121 
4803 121 66 
4804 66 104 
4805 104 124 
4806 104 66 
4807 66 65 
4808 65 103 
4809 103 104 
4810 49 4 
4811 4 50 
4812 50 132 
4813 132 49 
4814 19 2 
4815 2 20 
4816 20 136 
4817 136 19 
4818 64 1 
4819 1 5 
4820 5 134 
4821 134 64 
4822 61 62 
4823 62 106 
4824 106 108 
4825 108 61 
4826 111 113 
4827 113 46 
4828 46 47 
4829 47 111 
4830 134 139 
4831 139 63 
4832 63 64 
4833 64 134 
4834 132 140 
4835 140 48 
4836 48 49 
4837 49 132 
4838 136 141 
4839 141 18 
4840 18 19 
4841 19 136 
4842 121 123 
4843 123 31 
4844 31 32 
4845 32 121 
4846 35 65 
4847 65 34 
4848 34 3 
4849 3 35 
4850 38 84 
4851 84 105 
4852 105 37 
4853 37 38 
4854 85 83 
4855 83 105 
4856 105 84 
4857 84 85 
4858 23 89 
4859 89 137 
4860 137 22 
4861 22 23 
4862 116 118 
4863 118 16 
4864 16 17 
4865 17 116 
4866 90 88 
4867 88 137 
4868 137 89 
4869 89 90 
4870 53 94 
4871 94 138 
4872 138 52 
4873 52 53 
4874 95 93 
4875 93 138 
4876 138 94 
4877 94 95 
4878 7 99 
4879 99 98 
4880 98 129 
4881 129 7 
4882 134 5 
4883 5 6 
4884 6 133 
4885 133 134 
4886 136 20 
4887 20 21 
4888 21 135 
4889 135 136 
4890 132 50 
4891 50 51 
4892 51 131 
4893 131 132 
4894 155 153 
4895 153 73 
4896 73 154 
4897 154 155 
4898 158 156 
4899 156 77 
4900 77 157 
4901 157 158 
4902 94 53 
4903 53 54 
4904 54 96 
4905 96 94 
4906 161 159 
4907 159 81 
4908 81 160 
4909 160 161 
4910 84 38 
4911 38 39 
4912 39 86 
4913 86 84 
4914 89 23 
4915 23 24 
4916 24 91 
4917 91 89 
4918 7 8 
4919 8 101 
4920 101 99 
4921 99 7 
4922 108 190 
4923 190 60 
4924 60 61 
4925 61 108 
4926 93 162 
4927 162 115 
4928 115 125 
4929 125 93 
4930 185 189 
4931 189 191 
4932 191 186 
4933 186 185 
4934 113 195 
4935 195 45 
4936 45 46 
4937 46 113 
4938 104 83 
4939 83 170 
4940 170 124 
4941 124 104 
4942 88 178 
4943 178 120 
4944 120 127 
4945 127 88 
4946 118 205 
4947 205 15 
4948 15 16 
4949 16 118 
4950 98 187 
4951 187 110 
4952 110 129 
4953 129 98 
4954 209 112 
4955 112 210 
4956 210 208 
4957 208 209 
4958 31 123 
4959 123 211 
4960 211 202 
4961 202 31 
4962 214 117 
4963 117 215 
4964 215 213 
4965 213 214 
4966 106 110 
4967 110 207 
4968 207 107 
4969 107 106 
4970 106 107 
4971 107 206 
4972 206 108 
4973 108 106 
4974 96 54 
4975 54 55 
4976 55 219 
4977 219 96 
4978 97 220 
4979 220 221 
4980 221 95 
4981 95 97 
4982 112 115 
4983 115 162 
4984 162 210 
4985 210 112 
4986 195 113 
4987 113 112 
4988 112 209 
4989 209 195 
4990 86 39 
4991 39 40 
4992 40 224 
4993 224 86 
4994 87 218 
4995 218 225 
4996 225 85 
4997 85 87 
4998 121 124 
4999 124 212 
5000 212 122 
5001 122 121 
5002 121 122 
5003 122 211 
5004 211 123 
5005 123 121 
5006 92 204 
5007 204 231 
5008 231 90 
5009 90 92 
5010 24 230 
5011 230 92 
5012 92 91 
5013 91 24 
5014 117 120 
5015 120 178 
5016 178 215 
5017 215 117 
5018 205 118 
5019 118 117 
5020 117 214 
5021 214 205 
5022 67 70 
5023 70 232 
5024 232 68 
5025 68 67 
5026 8 9 
5027 9 234 
5028 234 101 
5029 101 8 
5030 101 102 
5031 102 201 
5032 201 100 
5033 100 101 
5034 108 206 
5035 206 226 
5036 226 190 
5037 190 108 
5038 190 236 
5039 236 59 
5040 59 60 
5041 60 190 
5042 93 95 
5043 95 221 
5044 221 162 
5045 162 93 
5046 195 71 
5047 71 44 
5048 44 45 
5049 45 195 
5050 83 85 
5051 85 225 
5052 225 170 
5053 170 83 
5054 124 170 
5055 170 225 
5056 225 212 
5057 212 124 
5058 31 202 
5059 202 75 
5060 75 30 
5061 30 31 
5062 88 90 
5063 90 231 
5064 231 178 
5065 178 88 
5066 205 79 
5067 79 14 
5068 14 15 
5069 15 205 
5070 98 100 
5071 100 235 
5072 235 187 
5073 187 98 
5074 110 187 
5075 187 235 
5076 235 207 
5077 207 110 
5078 206 107 
5079 107 237 
5080 237 226 
5081 226 206 
5082 209 208 
5083 208 74 
5084 74 72 
5085 72 209 
5086 209 72 
5087 72 71 
5088 71 195 
5089 195 209 
5090 211 122 
5091 122 78 
5092 78 76 
5093 76 211 
5094 211 76 
5095 76 75 
5096 75 202 
5097 202 211 
5098 214 213 
5099 213 82 
5100 82 80 
5101 80 214 
5102 214 80 
5103 80 79 
5104 79 205 
5105 205 214 
5106 237 107 
5107 107 207 
5108 207 238 
5109 238 237 
5110 96 219 
5111 219 222 
5112 222 97 
5113 97 96 
5114 223 220 
5115 220 97 
5116 97 222 
5117 222 223 
5118 219 55 
5119 55 56 
5120 56 242 
5121 242 219 
5122 233 232 
5123 232 70 
5124 70 143 
5125 143 233 
5126 74 208 
5127 208 210 
5128 210 239 
5129 239 74 
5130 162 221 
5131 221 239 
5132 239 210 
5133 210 162 
5134 146 148 
5135 148 246 
5136 246 247 
5137 247 146 
5138 198 196 
5139 196 251 
5140 251 197 
5141 197 198 
5142 86 224 
5143 224 216 
5144 216 87 
5145 87 86 
5146 252 253 
5147 253 255 
5148 255 254 
5149 254 252 
5150 217 218 
5151 218 87 
5152 87 216 
5153 216 217 
5154 149 152 
5155 152 247 
5156 247 150 
5157 150 149 
5158 150 247 
5159 247 246 
5160 246 233 
5161 233 150 
5162 250 248 
5163 248 259 
5164 259 249 
5165 249 250 
5166 256 257 
5167 257 260 
5168 260 258 
5169 258 256 
5170 78 122 
5171 122 212 
5172 212 240 
5173 240 78 
5174 264 265 
5175 265 267 
5176 267 266 
5177 266 264 
5178 228 226 
5179 226 237 
5180 237 227 
5181 227 228 
5182 82 213 
5183 213 215 
5184 215 241 
5185 241 82 
5186 178 231 
5187 231 241 
5188 241 215 
5189 215 178 
5190 101 234 
5191 234 199 
5192 199 102 
5193 102 101 
5194 172 171 
5195 171 223 
5196 223 173 
5197 173 172 
5198 171 268 
5199 268 220 
5200 220 223 
5201 223 171 
5202 200 201 
5203 201 102 
5204 102 199 
5205 199 200 
5206 166 165 
5207 165 200 
5208 200 167 
5209 167 166 
5210 165 271 
5211 271 201 
5212 201 200 
5213 200 165 
5214 177 176 
5215 176 203 
5216 203 179 
5217 179 177 
5218 183 182 
5219 182 217 
5220 217 184 
5221 184 183 
5222 220 268 
5223 268 239 
5224 239 221 
5225 221 220 
5226 190 226 
5227 226 228 
5228 228 236 
5229 236 190 
5230 229 274 
5231 274 236 
5232 236 228 
5233 228 229 
5234 68 232 
5235 232 233 
5236 233 246 
5237 246 68 
5238 217 273 
5239 273 225 
5240 225 218 
5241 218 217 
5242 212 225 
5243 225 273 
5244 273 240 
5245 240 212 
5246 203 272 
5247 272 231 
5248 231 204 
5249 204 203 
5250 280 155 
5251 155 281 
5252 281 300 
5253 300 280 
5254 100 201 
5255 201 271 
5256 271 235 
5257 235 100 
5258 207 235 
5259 235 271 
5260 271 238 
5261 238 207 
5262 79 159 
5263 159 13 
5264 13 14 
5265 14 79 
5266 30 75 
5267 75 156 
5268 156 29 
5269 29 30 
5270 71 153 
5271 153 43 
5272 43 44 
5273 44 71 
5274 236 274 
5275 274 58 
5276 58 59 
5277 59 236 
5278 237 261 
5279 261 284 
5280 284 227 
5281 227 237 
5282 228 227 
5283 227 284 
5284 284 229 
5285 229 228 
5286 282 279 
5287 279 275 
5288 275 276 
5289 276 282 
5290 41 42 
5291 42 155 
5292 155 280 
5293 280 41 
5294 188 74 
5295 74 239 
5296 239 283 
5297 283 188 
5298 198 78 
5299 78 240 
5300 240 196 
5301 196 198 
5302 286 82 
5303 82 241 
5304 241 285 
5305 285 286 
5306 295 285 
5307 285 241 
5308 241 294 
5309 294 295 
5310 175 291 
5311 291 295 
5312 295 296 
5313 296 175 
5314 92 230 
5315 230 299 
5316 299 204 
5317 204 92 
5318 261 237 
5319 237 238 
5320 238 287 
5321 287 261 
5322 12 161 
5323 161 255 
5324 255 253 
5325 253 12 
5326 301 302 
5327 302 265 
5328 265 264 
5329 264 301 
5330 265 302 
5331 302 26 
5332 26 27 
5333 27 265 
5334 176 296 
5335 296 295 
5336 295 294 
5337 294 176 
5338 303 304 
5339 304 253 
5340 253 252 
5341 252 303 
5342 253 304 
5343 304 11 
5344 11 12 
5345 12 253 
5346 157 77 
5347 77 198 
5348 198 305 
5349 305 157 
5350 160 81 
5351 81 286 
5352 286 306 
5353 306 160 
5354 56 277 
5355 277 279 
5356 279 242 
5357 242 56 
5358 150 233 
5359 233 143 
5360 143 145 
5361 145 150 
5362 69 148 
5363 148 259 
5364 259 164 
5365 164 69 
5366 278 277 
5367 277 56 
5368 56 57 
5369 57 278 
5370 286 285 
5371 285 295 
5372 295 186 
5373 186 286 
5374 24 25 
5375 25 301 
5376 301 230 
5377 230 24 
5378 299 230 
5379 230 301 
5380 301 264 
5381 264 299 
5382 302 301 
5383 301 25 
5384 25 26 
5385 26 302 
5386 9 10 
5387 10 303 
5388 303 234 
5389 234 9 
5390 199 234 
5391 234 303 
5392 303 252 
5393 252 199 
5394 304 303 
5395 303 10 
5396 10 11 
5397 11 304 
5398 265 158 
5399 158 157 
5400 157 267 
5401 267 265 
5402 288 256 
5403 256 258 
5404 258 290 
5405 290 288 
5406 188 283 
5407 283 290 
5408 290 258 
5409 258 188 
5410 196 240 
5411 240 273 
5412 273 293 
5413 293 196 
5414 217 182 
5415 182 293 
5416 293 273 
5417 273 217 
5418 261 287 
5419 287 298 
5420 298 269 
5421 269 261 
5422 275 229 
5423 229 284 
5424 284 276 
5425 276 275 
5426 231 272 
5427 272 294 
5428 294 241 
5429 241 231 
5430 203 176 
5431 176 294 
5432 294 272 
5433 272 203 
5434 80 82 
5435 82 286 
5436 286 81 
5437 81 80 
5438 283 239 
5439 239 268 
5440 268 292 
5441 292 283 
5442 76 78 
5443 78 198 
5444 198 77 
5445 77 76 
5446 40 300 
5447 300 263 
5448 263 224 
5449 224 40 
5450 280 300 
5451 300 40 
5452 40 41 
5453 41 280 
5454 72 74 
5455 74 188 
5456 188 73 
5457 73 72 
5458 185 186 
5459 186 295 
5460 295 291 
5461 291 185 
5462 180 181 
5463 181 251 
5464 251 308 
5465 308 180 
5466 284 309 
5467 309 311 
5468 311 276 
5469 276 284 
5470 287 238 
5471 238 271 
5472 271 297 
5473 297 287 
5474 167 312 
5475 312 313 
5476 313 166 
5477 166 167 
5478 265 27 
5479 27 28 
5480 28 158 
5481 158 265 
5482 263 300 
5483 300 281 
5484 281 314 
5485 314 263 
5486 148 146 
5487 146 249 
5488 249 259 
5489 259 148 
5490 192 177 
5491 177 179 
5492 179 193 
5493 193 192 
5494 250 249 
5495 249 146 
5496 146 310 
5497 310 250 
5498 312 315 
5499 315 191 
5500 191 189 
5501 189 312 
5502 193 194 
5503 194 243 
5504 243 192 
5505 192 193 
5506 244 245 
5507 245 192 
5508 192 243 
5509 243 244 
5510 68 69 
5511 69 316 
5512 316 67 
5513 67 68 
5514 185 67 
5515 67 316 
5516 316 313 
5517 313 185 
5518 271 165 
5519 165 317 
5520 317 297 
5521 297 271 
5522 287 297 
5523 297 317 
5524 317 298 
5525 298 287 
5526 142 143 
5527 143 70 
5528 70 144 
5529 144 142 
5530 173 318 
5531 318 310 
5532 310 172 
5533 172 173 
5534 149 150 
5535 150 145 
5536 145 151 
5537 151 149 
5538 146 247 
5539 247 152 
5540 152 147 
5541 147 146 
5542 246 148 
5543 148 69 
5544 69 68 
5545 68 246 
5546 80 81 
5547 81 159 
5548 159 79 
5549 79 80 
5550 12 13 
5551 13 159 
5552 159 161 
5553 161 12 
5554 224 263 
5555 263 320 
5556 320 216 
5557 216 224 
5558 183 184 
5559 184 314 
5560 314 319 
5561 319 183 
5562 184 320 
5563 320 263 
5564 263 314 
5565 314 184 
5566 217 216 
5567 216 320 
5568 320 184 
5569 184 217 
5570 267 193 
5571 193 179 
5572 179 266 
5573 266 267 
5574 248 270 
5575 270 164 
5576 164 259 
5577 259 248 
5578 76 77 
5579 77 156 
5580 156 75 
5581 75 76 
5582 29 156 
5583 156 158 
5584 158 28 
5585 28 29 
5586 179 299 
5587 299 264 
5588 264 266 
5589 266 179 
5590 203 204 
5591 204 299 
5592 299 179 
5593 179 203 
5594 318 173 
5595 173 321 
5596 321 282 
5597 282 318 
5598 219 242 
5599 242 321 
5600 321 222 
5601 222 219 
5602 72 73 
5603 73 153 
5604 153 71 
5605 71 72 
5606 42 43 
5607 43 153 
5608 153 155 
5609 155 42 
5610 279 282 
5611 282 321 
5612 321 242 
5613 242 279 
5614 223 222 
5615 222 321 
5616 321 173 
5617 173 223 
5618 312 167 
5619 167 322 
5620 322 254 
5621 254 312 
5622 269 298 
5623 298 164 
5624 164 270 
5625 270 269 
5626 278 274 
5627 274 229 
5628 229 275 
5629 275 278 
5630 199 252 
5631 252 254 
5632 254 322 
5633 322 199 
5634 200 199 
5635 199 322 
5636 322 167 
5637 167 200 
5638 194 307 
5639 307 197 
5640 197 243 
5641 243 194 
5642 281 324 
5643 324 262 
5644 262 323 
5645 323 281 
5646 284 261 
5647 261 269 
5648 269 309 
5649 309 284 
5650 314 281 
5651 281 323 
5652 323 319 
5653 319 314 
5654 155 154 
5655 154 324 
5656 324 281 
5657 281 155 
5658 73 188 
5659 188 324 
5660 324 154 
5661 154 73 
5662 258 260 
5663 260 323 
5664 323 262 
5665 262 258 
5666 277 278 
5667 278 275 
5668 275 279 
5669 279 277 
5670 324 188 
5671 188 258 
5672 258 262 
5673 262 324 
5674 274 278 
5675 278 57 
5676 57 58 
5677 58 274 
5678 243 197 
5679 197 251 
5680 251 244 
5681 244 243 
5682 191 315 
5683 315 160 
5684 160 306 
5685 306 191 
5686 186 191 
5687 191 306 
5688 306 286 
5689 286 186 
5690 282 276 
5691 276 311 
5692 311 318 
5693 318 282 
5694 311 250 
5695 250 310 
5696 310 318 
5697 318 311 
5698 293 182 
5699 182 180 
5700 180 308 
5701 308 293 
5702 196 293 
5703 293 308 
5704 308 251 
5705 251 196 
5706 319 289 
5707 289 325 
5708 325 183 
5709 183 319 
5710 268 171 
5711 171 326 
5712 326 292 
5713 292 268 
5714 172 168 
5715 168 326 
5716 326 171 
5717 171 172 
5718 283 292 
5719 292 326 
5720 326 290 
5721 290 283 
5722 70 67 
5723 67 185 
5724 185 291 
5725 291 70 
5726 166 163 
5727 163 317 
5728 317 165 
5729 165 166 
5730 163 164 
5731 164 298 
5732 298 317 
5733 317 163 
5734 144 70 
5735 70 291 
5736 291 175 
5737 175 144 
5738 175 296 
5739 296 176 
5740 176 174 
5741 174 175 
5742 146 147 
5743 147 327 
5744 327 310 
5745 310 146 
5746 181 180 
5747 180 325 
5748 325 151 
5749 151 181 
5750 182 183 
5751 183 325 
5752 325 180 
5753 180 182 
5754 149 151 
5755 151 325 
5756 325 289 
5757 289 149 
5758 312 189 
5759 189 185 
5760 185 313 
5761 313 312 
5762 256 169 
5763 169 328 
5764 328 257 
5765 257 256 
5766 152 149 
5767 149 257 
5768 257 328 
5769 328 152 
5770 147 152 
5771 152 328 
5772 328 169 
5773 169 147 
5774 256 288 
5775 288 168 
5776 168 169 
5777 169 256 
5778 168 288 
5779 288 290 
5780 290 326 
5781 326 168 
5782 194 193 
5783 193 267 
5784 267 307 
5785 307 194 
5786 169 168 
5787 168 327 
5788 327 147 
5789 147 169 
5790 168 172 
5791 172 310 
5792 310 327 
5793 327 168 
5794 254 255 
5795 255 315 
5796 315 312 
5797 312 254 
5798 143 142 
5799 142 329 
5800 329 145 
5801 145 143 
5802 251 181 
5803 181 329 
5804 329 244 
5805 244 251 
5806 161 160 
5807 160 315 
5808 315 255 
5809 255 161 
5810 245 244 
5811 244 329 
5812 329 142 
5813 142 245 
5814 151 145 
5815 145 329 
5816 329 181 
5817 181 151 
5818 192 245 
5819 245 330 
5820 330 177 
5821 177 192 
5822 164 163 
5823 163 316 
5824 316 69 
5825 69 164 
5826 163 166 
5827 166 313 
5828 313 316 
5829 316 163 
5830 267 157 
5831 157 305 
5832 305 307 
5833 307 267 
5834 149 289 
5835 289 260 
5836 260 257 
5837 257 149 
5838 197 307 
5839 307 305 
5840 305 198 
5841 198 197 
5842 142 144 
5843 144 330 
5844 330 245 
5845 245 142 
5846 323 260 
5847 260 289 
5848 289 319 
5849 319 323 
5850 311 309 
5851 309 248 
5852 248 250 
5853 250 311 
5854 175 174 
5855 174 330 
5856 330 144 
5857 144 175 
5858 176 177 
5859 177 330 
5860 330 174 
5861 174 176 
5862 270 248 
5863 248 309 
5864 309 269 
5865 269 270 
2 1 3 297
65 65 66 33 34 
66 84 86 87 85 
67 89 91 92 90 
68 94 96 97 95 
69 98 99 101 100 
70 104 103 105 83 
71 113 111 115 112 
72 118 116 120 117 
73 65 35 36 103 
74 126 125 115 114 
75 128 127 120 119 
76 130 129 110 109 
77 51 126 114 131 
78 6 130 109 133 
79 21 128 119 135 
80 88 127 128 137 
81 93 125 126 138 
82 139 106 62 63 
83 140 111 47 48 
84 141 116 17 18 
85 66 121 32 33 
86 115 111 140 114 
87 131 114 140 132 
88 120 116 141 119 
89 135 119 141 136 
90 110 106 139 109 
91 133 109 139 134 
92 128 21 22 137 
93 126 51 52 138 
94 130 6 7 129 
95 103 36 37 105 
96 124 121 66 104 
97 104 66 65 103 
98 49 4 50 132 
99 19 2 20 136 
100 64 1 5 134 
101 61 62 106 108 
102 111 113 46 47 
103 134 139 63 64 
104 132 140 48 49 
105 136 141 18 19 
106 121 123 31 32 
107 35 65 34 3 
108 38 84 105 37 
109 85 83 105 84 
110 23 89 137 22 
111 116 118 16 17 
112 90 88 137 89 
113 53 94 138 52 
114 95 93 138 94 
115 7 99 98 129 
116 134 5 6 133 
117 136 20 21 135 
118 132 50 51 131 
119 155 153 73 154 
120 158 156 77 157 
121 94 53 54 96 
122 161 159 81 160 
123 84 38 39 86 
124 89 23 24 91 
125 7 8 101 99 
126 108 190 60 61 
127 93 162 115 125 
128 185 189 191 186 
129 113 195 45 46 
130 104 83 170 124 
131 88 178 120 127 
132 118 205 15 16 
133 98 187 110 129 
134 209 112 210 208 
135 31 123 211 202 
136 214 117 215 213 
137 106 110 207 107 
138 106 107 206 108 
139 96 54 55 219 
140 97 220 221 95 
141 112 115 162 210 
142 195 113 112 209 
143 86 39 40 224 
144 87 218 225 85 
145 121 124 212 122 
146 121 122 211 123 
147 92 204 231 90 
148 24 230 92 91 
149 117 120 178 215 
150 205 118 117 214 
151 67 70 232 68 
152 8 9 234 101 
153 101 102 201 100 
154 108 206 226 190 
155 190 236 59 60 
156 93 95 221 162 
157 195 71 44 45 
158 83 85 225 170 
159 124 170 225 212 
160 31 202 75 30 
161 88 90 231 178 
162 205 79 14 15 
163 98 100 235 187 
164 110 187 235 207 
165 206 107 237 226 
166 209 208 74 72 
167 209 72 71 195 
168 211 122 78 76 
169 211 76 75 202 
170 214 213 82 80 
171 214 80 79 205 
172 237 107 207 238 
173 96 219 222 97 
174 223 220 97 222 
175 219 55 56 242 
176 233 232 70 143 
177 74 208 210 239 
178 162 221 239 210 
179 146 148 246 247 
180 198 196 251 197 
181 86 224 216 87 
182 252 253 255 254 
183 217 218 87 216 
184 149 152 247 150 
185 150 247 246 233 
186 250 248 259 249 
187 256 257 260 258 
188 78 122 212 240 
189 264 265 267 266 
190 228 226 237 227 
191 82 213 215 241 
192 178 231 241 215 
193 101 234 199 102 
194 172 171 223 173 
195 171 268 220 223 
196 200 201 102 199 
197 166 165 200 167 
198 165 271 201 200 
199 177 176 203 179 
200 183 182 217 184 
201 220 268 239 221 
202 190 226 228 236 
203 229 274 236 228 
204 68 232 233 246 
205 217 273 225 218 
206 212 225 273 240 
207 203 272 231 204 
208 280 155 281 300 
209 100 201 271 235 
210 207 235 271 238 
211 79 159 13 14 
212 30 75 156 29 
213 71 153 43 44 
214 236 274 58 59 
215 237 261 284 227 
216 228 227 284 229 
217 282 279 275 276 
218 41 42 155 280 
219 188 74 239 283 
220 198 78 240 196 
221 286 82 241 285 
222 295 285 241 294 
223 175 291 295 296 
224 92 230 299 204 
225 261 237 238 287 
226 12 161 255 253 
227 301 302 265 264 
228 265 302 26 27 
229 176 296 295 294 
230 303 304 253 252 
231 253 304 11 12 
232 157 77 198 305 
233 160 81 286 306 
234 56 277 279 242 
235 150 233 143 145 
236 69 148 259 164 
237 278 277 56 57 
238 286 285 295 186 
239 24 25 301 230 
240 299 230 301 264 
241 302 301 25 26 
242 9 10 303 234 
243 199 234 303 252 
244 304 303 10 11 
245 265 158 157 267 
246 288 256 258 290 
247 188 283 290 258 
248 196 240 273 293 
249 217 182 293 273 
250 261 287 298 269 
251 275 229 284 276 
252 231 272 294 241 
253 203 176 294 272 
254 80 82 286 81 
255 283 239 268 292 
256 76 78 198 77 
257 40 300 263 224 
258 280 300 40 41 
259 72 74 188 73 
260 185 186 295 291 
261 180 181 251 308 
262 284 309 311 276 
263 287 238 271 297 
264 167 312 313 166 
265 265 27 28 158 
266 263 300 281 314 
267 148 146 249 259 
268 192 177 179 193 
269 250 249 146 310 
270 312 315 191 189 
271 193 194 243 192 
272 244 245 192 243 
273 68 69 316 67 
274 185 67 316 313 
275 271 165 317 297 
276 287 297 317 298 
277 142 143 70 144 
278 173 318 310 172 
279 149 150 145 151 
280 146 247 152 147 
281 246 148 69 68 
282 80 81 159 79 
283 12 13 159 161 
284 224 263 320 216 
285 183 184 314 319 
286 184 320 263 314 
287 217 216 320 184 
288 267 193 179 266 
289 248 270 164 259 
290 76 77 156 75 
291 29 156 158 28 
292 179 299 264 266 
293 203 204 299 179 
294 318 173 321 282 
295 219 242 321 222 
296 72 73 153 71 
297 42 43 153 155 
298 279 282 321 242 
299 223 222 321 173 
300 312 167 322 254 
301 269 298 164 270 
302 278 274 229 275 
303 199 252 254 322 
304 200 199 322 167 
305 194 307 197 243 
306 281 324 262 323 
307 284 261 269 309 
308 314 281 323 319 
309 155 154 324 281 
310 73 188 324 154 
311 258 260 323 262 
312 277 278 275 279 
313 324 188 258 262 
314 274 278 57 58 
315 243 197 251 244 
316 191 315 160 306 
317 186 191 306 286 
318 282 276 311 318 
319 311 250 310 318 
320 293 182 180 308 
321 196 293 308 251 
322 319 289 325 183 
323 268 171 326 292 
324 172 168 326 171 
325 283 292 326 290 
326 70 67 185 291 
327 166 163 317 165 
328 163 164 298 317 
329 144 70 291 175 
330 175 296 176 174 
331 146 147 327 310 
332 181 180 325 151 
333 182 183 325 180 
334 149 151 325 289 
335 312 189 185 313 
336 256 169 328 257 
337 152 149 257 328 
338 147 152 328 169 
339 256 288 168 169 
340 168 288 290 326 
341 194 193 267 307 
342 169 168 327 147 
343 168 172 310 327 
344 254 255 315 312 
345 143 142 329 145 
346 251 181 329 244 
347 161 160 315 255 
348 245 244 329 142 
349 151 145 329 181 
350 192 245 330 177 
351 164 163 316 69 
352 163 166 313 316 
353 267 157 305 307 
354 149 289 260 257 
355 197 307 305 198 
356 142 144 330 245 
357 323 260 289 319 
358 311 309 248 250 
359 175 174 330 144 
360 176 177 330 174 
361 270 248 309 269 
$EndElements
