$MeshFormat
4.1 0 8
$EndMeshFormat
$PhysicalNames
6
1 1 "Γ¹"
1 2 "Γ²"
1 3 "Γ³"
1 4 "Γ⁴"
1 6 "Γ"
2 5 "Ω"
$EndPhysicalNames
$Entities
4 5 1 0
1 0 0 0 0 
2 1 0 0 0 
3 1 1 0 0 
4 0 1 0 0 
1 0 0 0 1 0 0 1 1 2 1 -2 
2 1 0 0 1 1 0 1 2 2 2 -3 
3 0 1 0 1 1 0 1 3 2 3 -4 
4 0 0 0 0 1 0 1 4 2 4 -1 
5 0 0 0 1 1 0 1 6 0 
1 0 0 0 1 1 0 1 5 4 1 2 3 4 
$EndEntities
$Nodes
10 208 1 208
0 1 0 1
1
0 0 0
0 2 0 1
2
1 0 0
0 3 0 1
3
1 1 0
0 4 0 1
4
0 1 0
1 1 0 11
5
6
7
8
9
10
11
12
13
14
15
0.08333333333317347 0 0
0.1666666666663218 0 0
0.2499999999994124 0 0
0.3333333333325029 0 0
0.416666666665593 0 0
0.4999999999986941 0 0
0.583333333332236 0 0
0.6666666666657889 0 0
0.7499999999993415 0 0
0.8333333333328944 0 0
0.9166666666664472 0 0
1 2 0 11
16
17
18
19
20
21
22
23
24
25
26
1 0.08333333333317347 0
1 0.1666666666663218 0
1 0.2499999999994124 0
1 0.3333333333325029 0
1 0.416666666665593 0
1 0.4999999999986941 0
1 0.583333333332236 0
1 0.6666666666657889 0
1 0.7499999999993415 0
1 0.8333333333328944 0
1 0.9166666666664472 0
1 3 0 11
27
28
29
30
31
32
33
34
35
36
37
0.9166666666663197 1 0
0.8333333333331019 1 0
0.7500000000003466 1 0
0.6666666666675916 1 0
0.5833333333348359 1 0
0.5000000000020588 1 0
0.4166666666684004 1 0
0.3333333333347203 1 0
0.2500000000010402 1 0
0.1666666666673602 1 0
0.0833333333336802 1 0
1 4 0 11
38
39
40
41
42
43
44
45
46
47
48
0 0.9166666666663197 0
0 0.8333333333331019 0
0 0.7500000000003466 0
0 0.6666666666675916 0
0 0.5833333333348359 0
0 0.5000000000020588 0
0 0.4166666666684004 0
0 0.3333333333347203 0
0 0.2500000000010402 0
0 0.1666666666673602 0
0 0.0833333333336802 0
1 5 0 0
2 1 0 160
49
50
51
52
53
54
55
56
57
58
59
60
61
62
63
64
65
66
67
68
69
70
71
72
73
74
75
76
77
78
79
80
81
82
83
84
85
86
87
88
89
90
91
92
93
94
95
96
97
98
99
100
101
102
103
104
105
106
107
108
109
110
111
112
113
114
115
116
117
118
119
120
121
122
123
124
125
126
127
128
129
130
131
132
133
134
135
136
137
138
139
140
141
142
143
144
145
146
147
148
149
150
151
152
153
154
155
156
157
158
159
160
161
162
163
164
165
166
167
168
169
170
171
172
173
174
175
176
177
178
179
180
181
182
183
184
185
186
187
188
189
190
191
192
193
194
195
196
197
198
199
200
201
202
203
204
205
206
207
208
0.08010578429784788 0.8402994866595035 0
0.07856122311054638 0.7588474540796639 0
0.152044945892334 0.7607748720648065 0
0.1592728786353941 0.9278993167522784 0
0.1720215915422121 0.842172624382646 0
0.9204279902604111 0.1601730340129064 0
0.924176349872353 0.2428378605274843 0
0.850412285552952 0.2452959410930892 0
0.8407380374219655 0.07242981951272912 0
0.8281142797385143 0.1597406826767817 0
0.1576504668803347 0.07366528839474983 0
0.2407951148418182 0.07336943994853742 0
0.2383880216127626 0.1473584111822397 0
0.07434487382687101 0.1277507633375569 0
0.138863391709344 0.1559259290108097 0
0.9192666678117816 0.8923720042339626 0
0.9067453807497421 0.7830901178283092 0
0.9509497165398273 0.9315212360907 0
0.8857706996316272 0.9350037893888264 0
0.320129678777834 0.1422299167335805 0
0.3250924972246513 0.2097759951312953 0
0.07802247218082493 0.07430827813474845 0
0.07678273654173737 0.1945995938001402 0
0.2486005523012457 0.2190261226739488 0
0.9184134520041721 0.07957811109009878 0
0.7853794149854357 0.06757184092837332 0
0.404530850024289 0.0712045257460048 0
0.3244251752154913 0.07163608297590385 0
0.08166913451527807 0.9206678257578335 0
0.2144819534687785 0.93292497241633 0
0.1541564678492636 0.6917015315749977 0
0.7552049417027744 0.9283306120132054 0
0.7540607362280406 0.8559938062550507 0
0.83233716016111 0.9300240983300936 0
0.6752571688383697 0.8619900223661688 0
0.8571644443544086 0.3221982344389898 0
0.2951721350145021 0.915537882396023 0
0.2404298111652561 0.8850637488469474 0
0.9283845073345196 0.4046548642343415 0
0.9275630167120346 0.3254101501329292 0
0.2236176732206713 0.8008355944670529 0
0.2833695327258073 0.8158095332897379 0
0.9267454171074425 0.7193033405945803 0
0.8604141597923309 0.7517917609862068 0
0.8469148335679352 0.8459193252913333 0
0.8124384501219826 0.7691072816477917 0
0.7948780956895821 0.7045846907035009 0
0.08537218433047607 0.2451832491140055 0
0.07993947952196477 0.5175185775650878 0
0.158933534167597 0.5246117361391321 0
0.08249867476648197 0.5978072936036428 0
0.1673854948842608 0.2323745852008889 0
0.1876480413089393 0.3014405689792582 0
0.177782857875833 0.612371991238492 0
0.7040838884147619 0.08528607172746672 0
0.7590046930214657 0.1160283477362517 0
0.7749192311037401 0.2028803419425161 0
0.7139135069129784 0.1867060661123618 0
0.4435393031680422 0.8571654330596801 0
0.5134319422582504 0.9299309050482207 0
0.4333630658534473 0.9292099363095923 0
0.1481036109121136 0.4503798162692704 0
0.07430842489592436 0.4410823302417601 0
0.07986393995312811 0.6783086114406062 0
0.6734166580870927 0.9305281767297463 0
0.6267959213447589 0.516489283630309 0
0.558962659660886 0.4794926721894018 0
0.620483961475043 0.4632613114591693 0
0.5803284022567788 0.5388482482001672 0
0.5140981237089077 0.3729808515888081 0
0.4773012142751047 0.4405715023827803 0
0.4610724727088596 0.3793582523513852 0
0.4851799497590145 0.07202508575292568 0
0.92769274130944 0.4855070903683186 0
0.5542661994285418 0.1448480877969095 0
0.5654485180196499 0.07203921661013091 0
0.5928681172164374 0.9308738614971277 0
0.5364043312393063 0.4192224677898558 0
0.1046873721552011 0.3139968814594395 0
0.3185167860727166 0.8656315678920931 0
0.373124204561184 0.4812215711800276 0
0.4384692589331842 0.5205499337517121 0
0.3773017935618876 0.5317309679627767 0
0.4178047116007938 0.4616029857085853 0
0.4813939708165315 0.6279293707928709 0
0.5194133988947933 0.5604774537295756 0
0.5350589914105324 0.6224416598059499 0
0.8597345471237151 0.7030493796130689 0
0.4597324001452106 0.5806587343852694 0
0.3050374803490696 0.6185531945303369 0
0.3949224096104699 0.6016827858053556 0
0.6799260408501642 0.1358546920083309 0
0.2405171187176988 0.6728268558189351 0
0.2384464743792666 0.5821999331673756 0
0.3653299972939608 0.3353554177970077 0
0.3926214022014634 0.4013072634838685 0
0.3403805351640471 0.2720408754570288 0
0.3919894836461376 0.257836633191622 0
0.3956064661276769 0.2090843437681721 0
0.6655158397803367 0.3672167677469124 0
0.5978835996098846 0.3938521128196166 0
0.7294733840288605 0.3428976649599554 0
0.742673672973456 0.3938054325307735 0
0.7910073322413026 0.3969783684863848 0
0.6308002393041392 0.6686902188728685 0
0.6049081398711202 0.6002872877783006 0
0.654346721379031 0.7336063309166977 0
0.603122026630439 0.7472101540772202 0
0.5999364108803777 0.795750500881419 0
0.7246307827557457 0.7176453421164383 0
0.7415490980009961 0.7856005548884457 0
0.8543447691051758 0.5560631136959585 0
0.9277910348506528 0.5668999354366726 0
0.2136640561936924 0.7521148029509008 0
0.5976695419462146 0.8618002130305524 0
0.7828896810183122 0.2579878638710112 0
0.6408603168855361 0.07291375468242858 0
0.1300051676071104 0.3815434234985081 0
0.498563215777667 0.5002914919764548 0
0.3695312381537246 0.8601510174055766 0
0.856649601524937 0.6341070823293059 0
0.6286573652376954 0.1415448132803903 0
0.3579890778240417 0.92796457831865 0
0.3988682319562951 0.1419308655121951 0
0.8577308298579831 0.3997417987319043 0
0.928233040317247 0.646574271875231 0
0.6688091304402335 0.7951838601740225 0
0.8554815521574791 0.4781216603121399 0
0.4771074283364458 0.1440692578996667 0
0.7825210205279971 0.6338075280822232 0
0.7059353096353341 0.6454006681569104 0
0.2667931031815874 0.2876125393349011 0
0.2089324059382033 0.3728272136177355 0
0.2890543849517252 0.3584307877069626 0
0.2028101971097513 0.7045470109579004 0
0.7908098025381146 0.3286522426517431 0
0.7170403922541253 0.2722609978380618 0
0.6317284515393755 0.212874653325186 0
0.6440606567543826 0.2905666122583996 0
0.7766916458281332 0.5531970137814429 0
0.2725048418564534 0.734350154012372 0
0.36380865840655 0.7890506428307555 0
0.3443864705748929 0.7098708781150012 0
0.5199398714101043 0.8587096530100806 0
0.5511785155533812 0.2218284705187242 0
0.07314328247410375 0.3897045008570214 0
0.2345549599159792 0.5247013426592116 0
0.3086579950568909 0.5293689909329304 0
0.7821185275272426 0.471520167236889 0
0.444268917559668 0.7801340442560207 0
0.2256995307098894 0.4482217807859197 0
0.5258234051264514 0.785675654052863 0
0.4699021464562837 0.2174892957766877 0
0.7006765866808675 0.4473973901293857 0
0.6818467117023299 0.5537741402944192 0
0.5500051710404502 0.7037211860067307 0
0.4412456388767759 0.6829668641238176 0
0.4453989576440542 0.2993100976920384 0
0.5516273092416084 0.3169158909593219 0
0.3187859380300322 0.4441758175508465 0
$EndNodes
$Elements
6 963 1 3605
1 1 1 12
1 1 5 
2 5 6 
3 6 7 
4 7 8 
5 8 9 
6 9 10 
7 10 11 
8 11 12 
9 12 13 
10 13 14 
11 14 15 
12 15 2 
1 2 1 12
13 2 16 
14 16 17 
15 17 18 
16 18 19 
17 19 20 
18 20 21 
19 21 22 
20 22 23 
21 23 24 
22 24 25 
23 25 26 
24 26 3 
1 3 1 12
25 3 27 
26 27 28 
27 28 29 
28 29 30 
29 30 31 
30 31 32 
31 32 33 
32 33 34 
33 34 35 
34 35 36 
35 36 37 
36 37 4 
1 4 1 12
37 4 38 
38 38 39 
39 39 40 
40 40 41 
41 41 42 
42 42 43 
43 43 44 
44 44 45 
45 45 46 
46 46 47 
47 47 48 
48 48 1 
1 5 1 732
2874 50 51 
2875 51 53 
2876 53 49 
2877 49 50 
2878 55 56 
2879 56 58 
2880 58 54 
2881 54 55 
2882 60 61 
2883 61 63 
2884 63 59 
2885 59 60 
2886 70 62 
2887 62 47 
2888 47 48 
2889 48 70 
2890 68 69 
2891 69 72 
2892 72 61 
2893 61 68 
2894 73 57 
2895 57 14 
2896 14 15 
2897 15 73 
2898 77 52 
2899 52 36 
2900 36 37 
2901 37 77 
2902 76 8 
2903 8 9 
2904 9 75 
2905 75 76 
2906 90 86 
2907 86 53 
2908 53 89 
2909 89 90 
2910 65 93 
2911 93 94 
2912 94 92 
2913 92 65 
2914 88 19 
2915 19 20 
2916 20 87 
2917 87 88 
2918 97 98 
2919 98 102 
2920 102 99 
2921 99 97 
2922 106 104 
2923 104 58 
2924 58 105 
2925 105 106 
2926 25 64 
2927 64 93 
2928 93 65 
2929 65 25 
2930 67 82 
2931 82 93 
2932 93 64 
2933 64 67 
2934 86 85 
2935 85 35 
2936 35 78 
2937 78 86 
2938 80 81 
2939 81 93 
2940 93 82 
2941 82 80 
2942 54 17 
2943 17 18 
2944 18 55 
2945 55 54 
2946 49 39 
2947 39 40 
2948 40 50 
2949 50 49 
2950 59 6 
2951 6 7 
2952 7 60 
2953 60 59 
2954 104 103 
2955 103 13 
2956 13 74 
2957 74 104 
2958 91 24 
2959 24 25 
2960 25 65 
2961 65 91 
2962 27 28 
2963 28 82 
2964 82 67 
2965 67 27 
2966 82 28 
2967 28 29 
2968 29 80 
2969 80 82 
2970 49 77 
2971 77 38 
2972 38 39 
2973 39 49 
2974 59 70 
2975 70 5 
2976 5 6 
2977 6 59 
2978 54 73 
2979 73 16 
2980 16 17 
2981 17 54 
2982 27 67 
2983 67 64 
2984 64 66 
2985 66 27 
2986 53 52 
2987 52 77 
2988 77 49 
2989 49 53 
2990 58 57 
2991 57 73 
2992 73 54 
2993 54 58 
2994 63 62 
2995 62 70 
2996 70 59 
2997 59 63 
2998 41 112 
2999 112 50 
3000 50 40 
3001 40 41 
3002 51 50 
3003 50 112 
3004 112 79 
3005 79 51 
3006 61 60 
3007 60 76 
3008 76 68 
3009 68 61 
3010 38 77 
3011 77 37 
3012 37 4 
3013 4 38 
3014 16 73 
3015 73 15 
3016 15 2 
3017 2 16 
3018 48 1 
3019 1 5 
3020 5 70 
3021 70 48 
3022 60 7 
3023 7 8 
3024 8 76 
3025 76 60 
3026 27 66 
3027 66 26 
3028 26 3 
3029 3 27 
3030 30 113 
3031 113 80 
3032 80 29 
3033 29 30 
3034 81 80 
3035 80 113 
3036 113 83 
3037 83 81 
3038 19 88 
3039 88 55 
3040 55 18 
3041 18 19 
3042 56 55 
3043 55 88 
3044 88 84 
3045 84 56 
3046 64 25 
3047 25 26 
3048 26 66 
3049 66 64 
3050 116 114 
3051 114 117 
3052 117 115 
3053 115 116 
3054 113 30 
3055 30 31 
3056 31 125 
3057 125 113 
3058 120 118 
3059 118 126 
3060 126 119 
3061 119 120 
3062 131 129 
3063 129 132 
3064 132 130 
3065 130 131 
3066 65 92 
3067 92 136 
3068 136 91 
3069 91 65 
3070 135 133 
3071 133 137 
3072 137 134 
3073 134 135 
3074 127 45 
3075 45 46 
3076 46 96 
3077 96 127 
3078 138 141 
3079 141 102 
3080 102 142 
3081 142 138 
3082 57 74 
3083 74 13 
3084 13 14 
3085 14 57 
3086 52 78 
3087 78 35 
3088 35 36 
3089 36 52 
3090 95 94 
3091 94 159 
3092 159 158 
3093 158 95 
3094 100 101 
3095 101 127 
3096 127 96 
3097 96 100 
3098 53 51 
3099 51 162 
3100 162 89 
3101 89 53 
3102 102 79 
3103 79 112 
3104 112 99 
3105 99 102 
3106 41 42 
3107 42 99 
3108 99 112 
3109 112 41 
3110 85 86 
3111 86 90 
3112 90 128 
3113 128 85 
3114 93 81 
3115 81 159 
3116 159 94 
3117 94 93 
3118 94 95 
3119 95 136 
3120 136 92 
3121 92 94 
3122 58 56 
3123 56 164 
3124 164 105 
3125 105 58 
3126 103 104 
3127 104 106 
3128 106 140 
3129 140 103 
3130 13 103 
3131 103 165 
3132 165 12 
3133 12 13 
3134 63 61 
3135 61 72 
3136 72 100 
3137 100 63 
3138 137 130 
3139 130 167 
3140 167 134 
3141 134 137 
3142 117 134 
3143 134 167 
3144 167 115 
3145 115 117 
3146 132 119 
3147 119 167 
3148 167 130 
3149 130 132 
3150 126 115 
3151 115 167 
3152 167 119 
3153 119 126 
3154 35 85 
3155 85 171 
3156 171 34 
3157 34 35 
3158 76 75 
3159 75 172 
3160 172 68 
3161 68 76 
3162 88 87 
3163 87 173 
3164 173 84 
3165 84 88 
3166 24 91 
3167 91 174 
3168 174 23 
3169 23 24 
3170 83 163 
3171 163 157 
3172 157 175 
3173 175 83 
3174 57 58 
3175 58 104 
3176 104 74 
3177 74 57 
3178 87 122 
3179 122 176 
3180 176 173 
3181 173 87 
3182 52 53 
3183 53 86 
3184 86 78 
3185 78 52 
3186 96 46 
3187 46 47 
3188 47 71 
3189 71 96 
3190 99 42 
3191 42 43 
3192 43 97 
3193 97 99 
3194 47 62 
3195 62 63 
3196 63 71 
3197 71 47 
3198 100 96 
3199 96 71 
3200 71 63 
3201 63 100 
3202 87 20 
3203 20 21 
3204 21 122 
3205 122 87 
3206 75 9 
3207 9 10 
3208 10 121 
3209 121 75 
3210 75 121 
3211 121 177 
3212 177 172 
3213 172 75 
3214 95 158 
3215 158 179 
3216 179 178 
3217 178 95 
3218 154 135 
3219 135 134 
3220 134 117 
3221 117 154 
3222 156 155 
3223 155 175 
3224 175 157 
3225 157 156 
3226 81 83 
3227 83 175 
3228 175 159 
3229 159 81 
3230 172 147 
3231 147 69 
3232 69 68 
3233 68 172 
3234 146 145 
3235 145 69 
3236 69 147 
3237 147 146 
3238 101 180 
3239 180 182 
3240 182 181 
3241 181 101 
3242 79 102 
3243 102 141 
3244 141 183 
3245 183 79 
3246 51 79 
3247 79 183 
3248 183 162 
3249 162 51 
3250 149 116 
3251 116 115 
3252 115 126 
3253 126 149 
3254 139 131 
3255 131 130 
3256 130 137 
3257 137 139 
3258 173 152 
3259 152 184 
3260 184 84 
3261 84 173 
3262 151 150 
3263 150 184 
3264 184 152 
3265 152 151 
3266 56 84 
3267 84 184 
3268 184 164 
3269 164 56 
3270 144 120 
3271 120 119 
3272 119 132 
3273 132 144 
3274 106 185 
3275 185 187 
3276 187 186 
3277 186 106 
3278 90 189 
3279 189 191 
3280 191 190 
3281 190 90 
3282 125 108 
3283 108 192 
3284 192 163 
3285 163 125 
3286 195 196 
3287 196 138 
3288 138 142 
3289 142 195 
3290 173 176 
3291 176 197 
3292 197 152 
3293 152 173 
3294 161 160 
3295 160 176 
3296 176 122 
3297 122 161 
3298 127 101 
3299 101 181 
3300 181 166 
3301 166 127 
3302 110 166 
3303 166 181 
3304 181 199 
3305 199 110 
3306 128 90 
3307 90 190 
3308 190 168 
3309 168 128 
3310 107 168 
3311 168 190 
3312 190 198 
3313 198 107 
3314 142 102 
3315 102 98 
3316 98 195 
3317 195 142 
3318 111 110 
3319 110 98 
3320 98 97 
3321 97 111 
3322 109 107 
3323 107 192 
3324 192 108 
3325 108 109 
3326 89 162 
3327 162 189 
3328 189 90 
3329 90 89 
3330 183 141 
3331 141 189 
3332 189 162 
3333 162 183 
3334 175 155 
3335 155 158 
3336 158 159 
3337 159 175 
3338 158 155 
3339 155 153 
3340 153 179 
3341 179 158 
3342 100 72 
3343 72 180 
3344 180 101 
3345 101 100 
3346 69 145 
3347 145 180 
3348 180 72 
3349 72 69 
3350 180 145 
3351 145 143 
3352 143 182 
3353 182 180 
3354 105 164 
3355 164 185 
3356 185 106 
3357 106 105 
3358 184 150 
3359 150 185 
3360 185 164 
3361 164 184 
3362 185 150 
3363 150 148 
3364 148 187 
3365 187 185 
3366 116 202 
3367 202 203 
3368 203 114 
3369 114 116 
3370 189 141 
3371 141 138 
3372 138 191 
3373 191 189 
3374 135 204 
3375 204 205 
3376 205 133 
3377 133 135 
3378 181 182 
3379 182 208 
3380 208 199 
3381 199 181 
3382 120 206 
3383 206 207 
3384 207 118 
3385 118 120 
3386 177 123 
3387 123 193 
3388 193 201 
3389 201 177 
3390 131 196 
3391 196 208 
3392 208 129 
3393 129 131 
3394 207 206 
3395 206 201 
3396 201 193 
3397 193 207 
3398 149 148 
3399 148 202 
3400 202 116 
3401 116 149 
3402 144 143 
3403 143 206 
3404 206 120 
3405 120 144 
3406 190 191 
3407 191 205 
3408 205 198 
3409 198 190 
3410 45 194 
3411 194 111 
3412 111 44 
3413 44 45 
3414 176 160 
3415 160 188 
3416 188 197 
3417 197 176 
3418 45 127 
3419 127 166 
3420 166 194 
3421 194 45 
3422 203 202 
3423 202 197 
3424 197 188 
3425 188 203 
3426 98 110 
3427 110 199 
3428 199 195 
3429 195 98 
3430 139 138 
3431 138 196 
3432 196 131 
3433 131 139 
3434 208 196 
3435 196 195 
3436 195 199 
3437 199 208 
3438 154 153 
3439 153 204 
3440 204 135 
3441 135 154 
3442 192 107 
3443 107 198 
3444 198 200 
3445 200 192 
3446 34 171 
3447 171 109 
3448 109 33 
3449 33 34 
3450 205 204 
3451 204 200 
3452 200 198 
3453 198 205 
3454 129 208 
3455 208 144 
3456 144 132 
3457 132 129 
3458 85 128 
3459 128 168 
3460 168 171 
3461 171 85 
3462 143 144 
3463 144 208 
3464 208 182 
3465 182 143 
3466 118 207 
3467 207 149 
3468 149 126 
3469 126 118 
3470 148 149 
3471 149 207 
3472 207 187 
3473 187 148 
3474 114 203 
3475 203 154 
3476 154 117 
3477 117 114 
3478 172 177 
3479 177 201 
3480 201 147 
3481 147 172 
3482 153 154 
3483 154 203 
3484 203 179 
3485 179 153 
3486 133 205 
3487 205 139 
3488 139 137 
3489 137 133 
3490 124 123 
3491 123 177 
3492 177 121 
3493 121 124 
3494 138 139 
3495 139 205 
3496 205 191 
3497 191 138 
3498 121 10 
3499 10 11 
3500 11 124 
3501 124 121 
3502 163 192 
3503 192 200 
3504 200 157 
3505 157 163 
3506 122 21 
3507 21 22 
3508 22 161 
3509 161 122 
3510 12 165 
3511 165 124 
3512 124 11 
3513 11 12 
3514 103 140 
3515 140 170 
3516 170 165 
3517 165 103 
3518 97 43 
3519 43 44 
3520 44 111 
3521 111 97 
3522 194 166 
3523 166 110 
3524 110 111 
3525 111 194 
3526 123 124 
3527 124 165 
3528 165 170 
3529 170 123 
3530 204 156 
3531 156 157 
3532 157 200 
3533 200 204 
3534 108 32 
3535 32 33 
3536 33 109 
3537 109 108 
3538 171 168 
3539 168 107 
3540 107 109 
3541 109 171 
3542 155 156 
3543 156 204 
3544 204 153 
3545 153 155 
3546 203 188 
3547 188 178 
3548 178 179 
3549 179 203 
3550 150 151 
3551 151 202 
3552 202 148 
3553 148 150 
3554 136 95 
3555 95 178 
3556 178 169 
3557 169 136 
3558 152 197 
3559 197 202 
3560 202 151 
3561 151 152 
3562 145 146 
3563 146 206 
3564 206 143 
3565 143 145 
3566 23 174 
3567 174 161 
3568 161 22 
3569 22 23 
3570 147 201 
3571 201 206 
3572 206 146 
3573 146 147 
3574 91 136 
3575 136 169 
3576 169 174 
3577 174 91 
3578 123 170 
3579 170 186 
3580 186 193 
3581 193 123 
3582 140 106 
3583 106 186 
3584 186 170 
3585 170 140 
3586 207 193 
3587 193 186 
3588 186 187 
3589 187 207 
3590 160 161 
3591 161 174 
3592 174 169 
3593 169 160 
3594 160 169 
3595 169 178 
3596 178 188 
3597 188 160 
3598 32 108 
3599 108 125 
3600 125 31 
3601 31 32 
3602 83 113 
3603 113 125 
3604 125 163 
3605 163 83 
2 1 3 183
49 50 51 53 49 
50 55 56 58 54 
51 60 61 63 59 
52 70 62 47 48 
53 68 69 72 61 
54 73 57 14 15 
55 77 52 36 37 
56 76 8 9 75 
57 90 86 53 89 
58 65 93 94 92 
59 88 19 20 87 
60 97 98 102 99 
61 106 104 58 105 
62 25 64 93 65 
63 67 82 93 64 
64 86 85 35 78 
65 80 81 93 82 
66 54 17 18 55 
67 49 39 40 50 
68 59 6 7 60 
69 104 103 13 74 
70 91 24 25 65 
71 27 28 82 67 
72 82 28 29 80 
73 49 77 38 39 
74 59 70 5 6 
75 54 73 16 17 
76 27 67 64 66 
77 53 52 77 49 
78 58 57 73 54 
79 63 62 70 59 
80 41 112 50 40 
81 51 50 112 79 
82 61 60 76 68 
83 38 77 37 4 
84 16 73 15 2 
85 48 1 5 70 
86 60 7 8 76 
87 27 66 26 3 
88 30 113 80 29 
89 81 80 113 83 
90 19 88 55 18 
91 56 55 88 84 
92 64 25 26 66 
93 116 114 117 115 
94 113 30 31 125 
95 120 118 126 119 
96 131 129 132 130 
97 65 92 136 91 
98 135 133 137 134 
99 127 45 46 96 
100 138 141 102 142 
101 57 74 13 14 
102 52 78 35 36 
103 95 94 159 158 
104 100 101 127 96 
105 53 51 162 89 
106 102 79 112 99 
107 41 42 99 112 
108 85 86 90 128 
109 93 81 159 94 
110 94 95 136 92 
111 58 56 164 105 
112 103 104 106 140 
113 13 103 165 12 
114 63 61 72 100 
115 137 130 167 134 
116 117 134 167 115 
117 132 119 167 130 
118 126 115 167 119 
119 35 85 171 34 
120 76 75 172 68 
121 88 87 173 84 
122 24 91 174 23 
123 83 163 157 175 
124 57 58 104 74 
125 87 122 176 173 
126 52 53 86 78 
127 96 46 47 71 
128 99 42 43 97 
129 47 62 63 71 
130 100 96 71 63 
131 87 20 21 122 
132 75 9 10 121 
133 75 121 177 172 
134 95 158 179 178 
135 154 135 134 117 
136 156 155 175 157 
137 81 83 175 159 
138 172 147 69 68 
139 146 145 69 147 
140 101 180 182 181 
141 79 102 141 183 
142 51 79 183 162 
143 149 116 115 126 
144 139 131 130 137 
145 173 152 184 84 
146 151 150 184 152 
147 56 84 184 164 
148 144 120 119 132 
149 106 185 187 186 
150 90 189 191 190 
151 125 108 192 163 
152 195 196 138 142 
153 173 176 197 152 
154 161 160 176 122 
155 127 101 181 166 
156 110 166 181 199 
157 128 90 190 168 
158 107 168 190 198 
159 142 102 98 195 
160 111 110 98 97 
161 109 107 192 108 
162 89 162 189 90 
163 183 141 189 162 
164 175 155 158 159 
165 158 155 153 179 
166 100 72 180 101 
167 69 145 180 72 
168 180 145 143 182 
169 105 164 185 106 
170 184 150 185 164 
171 185 150 148 187 
172 116 202 203 114 
173 189 141 138 191 
174 135 204 205 133 
175 181 182 208 199 
176 120 206 207 118 
177 177 123 193 201 
178 131 196 208 129 
179 207 206 201 193 
180 149 148 202 116 
181 144 143 206 120 
182 190 191 205 198 
183 45 194 111 44 
184 176 160 188 197 
185 45 127 166 194 
186 203 202 197 188 
187 98 110 199 195 
188 139 138 196 131 
189 208 196 195 199 
190 154 153 204 135 
191 192 107 198 200 
192 34 171 109 33 
193 205 204 200 198 
194 129 208 144 132 
195 85 128 168 171 
196 143 144 208 182 
197 118 207 149 126 
198 148 149 207 187 
199 114 203 154 117 
200 172 177 201 147 
201 153 154 203 179 
202 133 205 139 137 
203 124 123 177 121 
204 138 139 205 191 
205 121 10 11 124 
206 163 192 200 157 
207 122 21 22 161 
208 12 165 124 11 
209 103 140 170 165 
210 97 43 44 111 
211 194 166 110 111 
212 123 124 165 170 
213 204 156 157 200 
214 108 32 33 109 
215 171 168 107 109 
216 155 156 204 153 
217 203 188 178 179 
218 150 151 202 148 
219 136 95 178 169 
220 152 197 202 151 
221 145 146 206 143 
222 23 174 161 22 
223 147 201 206 146 
224 91 136 169 174 
225 123 170 186 193 
226 140 106 186 170 
227 207 193 186 187 
228 160 161 174 169 
229 160 169 178 188 
230 32 108 125 31 
231 83 113 125 163 
$EndElements
