$MeshFormat
4.1 0 8
$EndMeshFormat
$PhysicalNames
6
0 4 "A"
1 1 "Γ¹"
1 2 "Γ²"
1 3 "Γ³"
1 6 "Γ"
2 5 "Ω"
$EndPhysicalNames
$Entities
7 10 3 0
1 0 0 0 1 4 
2 0.5 0 0 0 
3 1 0 0 0 
4 0.7071067811865475 0.7071067811865475 0 0 
5 0 1 0 0 
6 0 0.5 0 0 
7 0.4 0.4 0 0 
1 0 0 0 0.5 0 0 1 2 2 1 -2 
2 0.5 0 0 1 0 0 1 2 2 2 -3 
3 0.7071067811865476 0 0 1 0.7071067811865475 0 1 1 2 3 -4 
4 1.110223024625157e-16 0.7071067811865476 0 0.7071067811865476 1 0 1 1 2 4 -5 
5 0 0.5 0 0 1 0 1 3 2 5 -6 
6 0 0 0 0 0.5 0 1 3 2 6 -1 
7 0.4 0 0 0.5 0.4 0 0 2 7 -2 
8 0 0.4 0 0.4 0.5 0 0 2 7 -6 
9 0.4 0.4 0 0.7071067811865475 0.7071067811865475 0 0 2 7 -4 
10 0 0 0 0.5 0.5 0 1 6 0 
1 0 0 0 0.5 0.5 0 1 5 4 1 -7 8 6 
2 0.4 0 0 1 0.7071067811865475 0 1 5 4 2 3 -9 7 
3 0 0.4 0 0.7071067811865476 1 0 1 5 4 9 4 5 -8 
$EndEntities
$Nodes
20 91 1 91
0 1 0 1
1
0 0 0
0 2 0 1
2
0.5 0 0
0 3 0 1
3
1 0 0
0 4 0 1
4
0.7071067811865475 0.7071067811865475 0
0 5 0 1
5
0 1 0
0 6 0 1
6
0 0.5 0
0 7 0 1
7
0.4 0.4 0
1 1 0 4
8
9
10
11
0.09999999999977845 0 0
0.1999999999994866 0 0
0.2999999999994725 0 0
0.3999999999997362 0 0
1 2 0 4
12
13
14
15
0.6 0 0
0.7 0 0
0.8 0 0
0.9 0 0
1 3 0 4
16
17
18
19
0.9876883405292959 0.1564344654559396 0
0.9510565160208195 0.3090169952192607 0
0.8910065237743308 0.4539905005521403 0
0.8090169941389678 0.5877852526172712 0
1 4 0 4
20
21
22
23
0.5877852519231126 0.8090169946433037 0
0.4539904988195286 0.8910065246571407 0
0.3090169933522966 0.951056516627433 0
0.1564344645215507 0.9876883406772887 0
1 5 0 4
24
25
26
27
0 0.9 0
0 0.8 0
0 0.7 0
0 0.6 0
1 6 0 4
28
29
30
31
0 0.4 0
0 0.3000000000006937 0
0 0.2000000000008325 0
0 0.1000000000004163 0
1 7 0 4
32
33
34
35
0.419999999999944 0.3200000000002239 0
0.4399999999998899 0.2400000000004403 0
0.4599999999998922 0.1600000000004311 0
0.479999999999946 0.08000000000021584 0
1 8 0 4
36
37
38
39
0.3200000000002239 0.419999999999944 0
0.2400000000004403 0.4399999999998899 0
0.1600000000004311 0.4599999999998922 0
0.08000000000021584 0.479999999999946 0
1 9 0 4
40
41
42
43
0.4614213562370818 0.4614213562370818 0
0.5228427124740725 0.5228427124740725 0
0.5842640687110351 0.5842640687110351 0
0.6456854249487913 0.6456854249487913 0
1 10 0 0
2 1 0 16
44
45
46
47
48
49
50
51
52
53
54
55
56
57
58
59
0.09599999999985513 0.09600000000036536 0
0.09199999999993183 0.1920000000007307 0
0.08800000000001885 0.2880000000006107 0
0.08400000000011718 0.3840000000000017 0
0.1919999999996539 0.09200000000031452 0
0.1839999999998213 0.1840000000006288 0
0.1760000000000093 0.2760000000005276 0
0.1680000000002198 0.3680000000000033 0
0.2879999999996337 0.08800000000027397 0
0.275999999999795 0.1760000000005477 0
0.2639999999999871 0.2640000000004756 0
0.2520000000002132 0.3520000000000463 0
0.3839999999997906 0.08400000000024471 0
0.3679999999998451 0.168000000000489 0
0.3519999999999408 0.2520000000004573 0
0.3360000000000815 0.3360000000001344 0
2 2 0 16
60
61
62
63
64
65
66
67
68
69
70
71
72
73
74
75
0.5815376681057542 0.09528689309130986 0
0.5582113032039629 0.1898033990440968 0
0.5302013047546184 0.2827981001106333 0
0.4978033988275515 0.3735570505234434 0
0.683075336211538 0.1105737861823836 0
0.656422606407988 0.2196067980877226 0
0.6204026095092829 0.3255962002207677 0
0.5756067976550804 0.4271141010465872 0
0.7846130043173144 0.1258606792734511 0
0.7546339096119988 0.2494101971313361 0
0.7106039142639281 0.368394300330884 0
0.6534101964825847 0.4806711515697075 0
0.8861506724233051 0.1411475723646954 0
0.8528452128164091 0.2792135961752982 0
0.8008052190191294 0.4111924004415121 0
0.7312135953107762 0.5342282020934892 0
2 3 0 16
76
77
78
79
80
81
82
83
84
85
86
87
88
89
90
91
0.3735570503846118 0.4978033989284188 0
0.2827980997641111 0.5302013049311805 0
0.1898033986707041 0.558211303325286 0
0.09528689290443208 0.5815376681353531 0
0.427114100768924 0.5756067978568149 0
0.3255961995277232 0.620402609862407 0
0.219606797340937 0.6564226066506335 0
0.1105737858086281 0.6830753362707352 0
0.4806711511532125 0.6534101967851864 0
0.368394299291317 0.7106039147936143 0
0.2494101960111577 0.7546339099759672 0
0.1258606787128178 0.7846130044061104 0
0.5342282015381625 0.7312135957142453 0
0.4111923990554229 0.8008052197253773 0
0.2792135946817272 0.8528452133017 0
0.1411475716171843 0.8861506725416997 0
$EndNodes
$Elements
11 331 1 847
0 1 15 1
1 1 
1 1 1 5
2 1 8 
3 8 9 
4 9 10 
5 10 11 
6 11 2 
1 2 1 5
7 2 12 
8 12 13 
9 13 14 
10 14 15 
11 15 3 
1 3 1 5
12 3 16 
13 16 17 
14 17 18 
15 18 19 
16 19 4 
1 4 1 5
17 4 20 
18 20 21 
19 21 22 
20 22 23 
21 23 5 
1 5 1 5
22 5 24 
23 24 25 
24 25 26 
25 26 27 
26 27 6 
1 6 1 5
27 6 28 
28 28 29 
29 29 30 
30 30 31 
31 31 1 
1 10 1 150
698 1 8 
699 8 31 
700 31 1 
701 31 8 
702 8 44 
703 44 31 
704 31 44 
705 44 30 
706 30 31 
707 30 44 
708 44 45 
709 45 30 
710 30 45 
711 45 29 
712 29 30 
713 29 45 
714 45 46 
715 46 29 
716 29 46 
717 46 28 
718 28 29 
719 28 46 
720 46 47 
721 47 28 
722 28 47 
723 47 6 
724 6 28 
725 6 47 
726 47 39 
727 39 6 
728 8 9 
729 9 44 
730 44 8 
731 44 9 
732 9 48 
733 48 44 
734 44 48 
735 48 45 
736 45 44 
737 45 48 
738 48 49 
739 49 45 
740 45 49 
741 49 46 
742 46 45 
743 46 49 
744 49 50 
745 50 46 
746 46 50 
747 50 47 
748 47 46 
749 47 50 
750 50 51 
751 51 47 
752 47 51 
753 51 39 
754 39 47 
755 39 51 
756 51 38 
757 38 39 
758 9 10 
759 10 48 
760 48 9 
761 48 10 
762 10 52 
763 52 48 
764 48 52 
765 52 49 
766 49 48 
767 49 52 
768 52 53 
769 53 49 
770 49 53 
771 53 50 
772 50 49 
773 50 53 
774 53 54 
775 54 50 
776 50 54 
777 54 51 
778 51 50 
779 51 54 
780 54 55 
781 55 51 
782 51 55 
783 55 38 
784 38 51 
785 38 55 
786 55 37 
787 37 38 
788 10 11 
789 11 52 
790 52 10 
791 52 11 
792 11 56 
793 56 52 
794 52 56 
795 56 53 
796 53 52 
797 53 56 
798 56 57 
799 57 53 
800 53 57 
801 57 54 
802 54 53 
803 54 57 
804 57 58 
805 58 54 
806 54 58 
807 58 55 
808 55 54 
809 55 58 
810 58 59 
811 59 55 
812 55 59 
813 59 37 
814 37 55 
815 37 59 
816 59 36 
817 36 37 
818 11 2 
819 2 56 
820 56 11 
821 56 2 
822 2 35 
823 35 56 
824 56 35 
825 35 57 
826 57 56 
827 57 35 
828 35 34 
829 34 57 
830 57 34 
831 34 58 
832 58 57 
833 58 34 
834 34 33 
835 33 58 
836 58 33 
837 33 59 
838 59 58 
839 59 33 
840 33 32 
841 32 59 
842 59 32 
843 32 36 
844 36 59 
845 36 32 
846 32 7 
847 7 36 
2 1 2 50
32 1 8 31 
33 31 8 44 
34 31 44 30 
35 30 44 45 
36 30 45 29 
37 29 45 46 
38 29 46 28 
39 28 46 47 
40 28 47 6 
41 6 47 39 
42 8 9 44 
43 44 9 48 
44 44 48 45 
45 45 48 49 
46 45 49 46 
47 46 49 50 
48 46 50 47 
49 47 50 51 
50 47 51 39 
51 39 51 38 
52 9 10 48 
53 48 10 52 
54 48 52 49 
55 49 52 53 
56 49 53 50 
57 50 53 54 
58 50 54 51 
59 51 54 55 
60 51 55 38 
61 38 55 37 
62 10 11 52 
63 52 11 56 
64 52 56 53 
65 53 56 57 
66 53 57 54 
67 54 57 58 
68 54 58 55 
69 55 58 59 
70 55 59 37 
71 37 59 36 
72 11 2 56 
73 56 2 35 
74 56 35 57 
75 57 35 34 
76 57 34 58 
77 58 34 33 
78 58 33 59 
79 59 33 32 
80 59 32 36 
81 36 32 7 
2 2 2 50
82 2 12 60 
83 60 35 2 
84 35 60 61 
85 61 34 35 
86 34 61 62 
87 62 33 34 
88 33 62 63 
89 63 32 33 
90 32 63 40 
91 40 7 32 
92 12 13 64 
93 64 60 12 
94 60 64 65 
95 65 61 60 
96 61 65 66 
97 66 62 61 
98 62 66 67 
99 67 63 62 
100 63 67 41 
101 41 40 63 
102 13 14 68 
103 68 64 13 
104 64 68 69 
105 69 65 64 
106 65 69 70 
107 70 66 65 
108 66 70 71 
109 71 67 66 
110 67 71 42 
111 42 41 67 
112 14 15 72 
113 72 68 14 
114 68 72 73 
115 73 69 68 
116 69 73 74 
117 74 70 69 
118 70 74 75 
119 75 71 70 
120 71 75 43 
121 43 42 71 
122 15 3 16 
123 16 72 15 
124 72 16 17 
125 17 73 72 
126 73 17 18 
127 18 74 73 
128 74 18 19 
129 19 75 74 
130 75 19 4 
131 4 43 75 
2 3 2 50
132 7 40 36 
133 36 40 76 
134 36 76 37 
135 37 76 77 
136 37 77 38 
137 38 77 78 
138 38 78 39 
139 39 78 79 
140 39 79 6 
141 6 79 27 
142 40 41 76 
143 76 41 80 
144 76 80 77 
145 77 80 81 
146 77 81 78 
147 78 81 82 
148 78 82 79 
149 79 82 83 
150 79 83 27 
151 27 83 26 
152 41 42 80 
153 80 42 84 
154 80 84 81 
155 81 84 85 
156 81 85 82 
157 82 85 86 
158 82 86 83 
159 83 86 87 
160 83 87 26 
161 26 87 25 
162 42 43 84 
163 84 43 88 
164 84 88 85 
165 85 88 89 
166 85 89 86 
167 86 89 90 
168 86 90 87 
169 87 90 91 
170 87 91 25 
171 25 91 24 
172 43 4 88 
173 88 4 20 
174 88 20 89 
175 89 20 21 
176 89 21 90 
177 90 21 22 
178 90 22 91 
179 91 22 23 
180 91 23 24 
181 24 23 5 
$EndElements
