$MeshFormat
4.1 0 8
$EndMeshFormat
$PhysicalNames
6
0 4 "A"
1 1 "Γ¹"
1 2 "Γ²"
1 3 "Γ³"
1 6 "Γ"
2 5 "Ω"
$EndPhysicalNames
$Entities
7 10 3 0
1 0 0 0 1 4 
2 0.5 0 0 0 
3 1 0 0 0 
4 0.7071067811865475 0.7071067811865475 0 0 
5 0 1 0 0 
6 0 0.5 0 0 
7 0.4 0.4 0 0 
1 0 0 0 0.5 0 0 1 2 2 1 -2 
2 0.5 0 0 1 0 0 1 2 2 2 -3 
3 0.7071067811865476 0 0 1 0.7071067811865475 0 1 1 2 3 -4 
4 1.110223024625157e-16 0.7071067811865476 0 0.7071067811865476 1 0 1 1 2 4 -5 
5 0 0.5 0 0 1 0 1 3 2 5 -6 
6 0 0 0 0 0.5 0 1 3 2 6 -1 
7 0.4 0 0 0.5 0.4 0 0 2 7 -2 
8 0 0.4 0 0.4 0.5 0 0 2 7 -6 
9 0.4 0.4 0 0.7071067811865475 0.7071067811865475 0 0 2 7 -4 
10 0 0 0 0.5 0.5 0 1 6 0 
1 0 0 0 0.5 0.5 0 1 5 4 1 -7 8 6 
2 0.4 0 0 1 0.7071067811865475 0 1 5 4 2 3 -9 7 
3 0 0.4 0 0.7071067811865476 1 0 1 5 4 9 4 5 -8 
$EndEntities
$Nodes
20 331 1 331
0 1 0 1
1
0 0 0
0 2 0 1
2
0.5 0 0
0 3 0 1
3
1 0 0
0 4 0 1
4
0.7071067811865475 0.7071067811865475 0
0 5 0 1
5
0 1 0
0 6 0 1
6
0 0.5 0
0 7 0 1
7
0.4 0.4 0
1 1 0 9
8
9
10
11
12
13
14
15
16
0.04999999999990706 0 0
0.09999999999977845 0 0
0.1499999999996325 0 0
0.1999999999994866 0 0
0.2499999999993461 0 0
0.2999999999994725 0 0
0.3499999999996044 0 0
0.3999999999997362 0 0
0.4499999999998681 0 0
1 2 0 9
17
18
19
20
21
22
23
24
25
0.55 0 0
0.6 0 0
0.65 0 0
0.7 0 0
0.75 0 0
0.8 0 0
0.8500000000000001 0 0
0.9 0 0
0.95 0 0
1 3 0 9
26
27
28
29
30
31
32
33
34
0.996917333718443 0.07845909591443487 0
0.9876883405292959 0.1564344654559396 0
0.9723699202445154 0.2334453644938679 0
0.9510565160208195 0.3090169952192607 0
0.9238795320942411 0.382683433371927 0
0.8910065237743308 0.4539905005521403 0
0.8526401640314558 0.5224985652424436 0
0.8090169941389678 0.5877852526172712 0
0.7604059655147655 0.6494480484300167 0
1 4 0 9
35
36
37
38
39
40
41
42
43
0.6494480482286594 0.7604059656867409 0
0.5877852519231126 0.8090169946433037 0
0.5224985640410649 0.8526401647676618 0
0.4539904988195286 0.8910065246571407 0
0.3826834312154865 0.9238795329874681 0
0.3090169933522966 0.951056516627433 0
0.2334453631541051 0.972369920566164 0
0.1564344645215507 0.9876883406772887 0
0.07845909553634145 0.9969173337481997 0
1 5 0 9
44
45
46
47
48
49
50
51
52
0 0.95 0
0 0.9 0
0 0.85 0
0 0.8 0
0 0.75 0
0 0.7 0
0 0.6499999999999999 0
0 0.6 0
0 0.55 0
1 6 0 9
53
54
55
56
57
58
59
60
61
0 0.4499999999997918 0
0 0.4 0
0 0.3500000000003469 0
0 0.3000000000006937 0
0 0.2500000000010297 0
0 0.2000000000008325 0
0 0.1500000000006244 0
0 0.1000000000004163 0
0 0.0500000000002081 0
1 7 0 9
62
63
64
65
66
67
68
69
70
0.4099999999999723 0.3600000000001107 0
0.419999999999944 0.3200000000002239 0
0.4299999999999157 0.2800000000003372 0
0.4399999999998899 0.2400000000004403 0
0.4499999999998661 0.2000000000005357 0
0.4599999999998922 0.1600000000004311 0
0.4699999999999185 0.120000000000326 0
0.479999999999946 0.08000000000021584 0
0.4899999999999726 0.04000000000010973 0
1 8 0 9
71
72
73
74
75
76
77
78
79
0.3600000000001107 0.4099999999999723 0
0.3200000000002239 0.419999999999944 0
0.2800000000003372 0.4299999999999157 0
0.2400000000004403 0.4399999999998899 0
0.2000000000005357 0.4499999999998661 0
0.1600000000004311 0.4599999999998922 0
0.120000000000326 0.4699999999999185 0
0.08000000000021584 0.479999999999946 0
0.04000000000010973 0.4899999999999726 0
1 9 0 9
80
81
82
83
84
85
86
87
88
0.4307106781184812 0.4307106781184812 0
0.4614213562370818 0.4614213562370818 0
0.4921320343556823 0.4921320343556823 0
0.5228427124740725 0.5228427124740725 0
0.5535533905923955 0.5535533905923955 0
0.5842640687110351 0.5842640687110351 0
0.6149747468299132 0.6149747468299132 0
0.6456854249487913 0.6456854249487913 0
0.6763961030676693 0.6763961030676693 0
1 10 0 0
2 1 0 81
89
90
91
92
93
94
95
96
97
98
99
100
101
102
103
104
105
106
107
108
109
110
111
112
113
114
115
116
117
118
119
120
121
122
123
124
125
126
127
128
129
130
131
132
133
134
135
136
137
138
139
140
141
142
143
144
145
146
147
148
149
150
151
152
153
154
155
156
157
158
159
160
161
162
163
164
165
166
167
168
169
0.04899999999992458 0.04900000000019552 0
0.04799999999994221 0.09800000000039071 0
0.0469999999999597 0.1470000000005863 0
0.04599999999997735 0.1960000000007814 0
0.044999999999995 0.2450000000009666 0
0.04400000000001765 0.294000000000652 0
0.04300000000004049 0.3430000000003267 0
0.0420000000000636 0.3920000000000004 0
0.04100000000008669 0.4409999999997991 0
0.09799999999981669 0.04800000000018301 0
0.09599999999985512 0.09600000000036535 0
0.09399999999989334 0.1440000000005485 0
0.09199999999993184 0.1920000000007306 0
0.08999999999997035 0.2400000000009039 0
0.08800000000001888 0.2880000000006107 0
0.08600000000006777 0.3360000000003072 0
0.08400000000011718 0.3840000000000016 0
0.08200000000016656 0.431999999999807 0
0.1469999999996936 0.04700000000017043 0
0.143999999999755 0.09400000000033984 0
0.1409999999998162 0.1410000000005104 0
0.1379999999998776 0.1880000000006795 0
0.1349999999999391 0.2350000000008408 0
0.1320000000000156 0.2820000000005687 0
0.1290000000000927 0.329000000000287 0
0.1260000000001705 0.376000000000002 0
0.1230000000002484 0.4229999999998142 0
0.19599999999957 0.04600000000015798 0
0.1919999999996539 0.09200000000031452 0
0.1879999999997373 0.1380000000004727 0
0.1839999999998213 0.1840000000006289 0
0.1799999999999052 0.2300000000007782 0
0.1760000000000092 0.2760000000005277 0
0.1720000000001141 0.3220000000002676 0
0.1680000000002199 0.3680000000000033 0
0.1640000000003256 0.4139999999998224 0
0.2449999999994513 0.04500000000014551 0
0.239999999999557 0.09000000000028927 0
0.2349999999996622 0.135000000000435 0
0.229999999999768 0.1800000000005783 0
0.2249999999998739 0.2250000000007157 0
0.2200000000000048 0.2700000000004867 0
0.2150000000001367 0.3150000000002484 0
0.2100000000002698 0.3600000000000049 0
0.2050000000004029 0.4049999999998307 0
0.2939999999995528 0.04400000000013807 0
0.2879999999996336 0.08800000000027397 0
0.2819999999997139 0.1320000000004123 0
0.275999999999795 0.1760000000005477 0
0.2699999999998761 0.2200000000006783 0
0.2639999999999871 0.2640000000004756 0
0.2580000000000994 0.3080000000002641 0
0.2520000000002132 0.3520000000000463 0
0.2460000000003269 0.3959999999998841 0
0.3429999999996585 0.04300000000013081 0
0.3359999999997133 0.08600000000025912 0
0.3289999999997672 0.1290000000003902 0
0.3219999999998222 0.1720000000005178 0
0.3149999999998769 0.2150000000006418 0
0.307999999999967 0.2580000000004658 0
0.3010000000000583 0.3010000000002812 0
0.2940000000001515 0.3440000000000892 0
0.2870000000002444 0.3869999999999392 0
0.391999999999763 0.04200000000012379 0
0.3839999999997906 0.08400000000024473 0
0.3759999999998173 0.1260000000003689 0
0.3679999999998451 0.168000000000489 0
0.3599999999998729 0.2100000000006066 0
0.3519999999999408 0.2520000000004574 0
0.3440000000000101 0.2940000000003 0
0.3360000000000816 0.3360000000001344 0
0.3280000000001529 0.3779999999999965 0
0.4409999999998677 0.0410000000001168 0
0.431999999999868 0.08200000000023036 0
0.4229999999998675 0.1230000000003476 0
0.4139999999998681 0.1640000000004602 0
0.4049999999998689 0.2050000000005713 0
0.3959999999999146 0.246000000000449 0
0.3869999999999621 0.2870000000003187 0
0.3780000000000119 0.3280000000001793 0
0.3690000000000615 0.3690000000000539 0
2 2 0 81
170
171
172
173
174
175
176
177
178
179
180
181
182
183
184
185
186
187
188
189
190
191
192
193
194
195
196
197
198
199
200
201
202
203
204
205
206
207
208
209
210
211
212
213
214
215
216
217
218
219
220
221
222
223
224
225
226
227
228
229
230
231
232
233
234
235
236
237
238
239
240
241
242
243
244
245
246
247
248
249
250
0.5406917333717953 0.04384590959152284 0
0.5307688340528341 0.08764344654574954 0
0.5202369920243102 0.1313445364496225 0
0.5091056516018972 0.1749016995222377 0
0.4973879532091982 0.2182683433375804 0
0.4851006523772122 0.2613990500554982 0
0.472264016402933 0.304249856524419 0
0.4589016994136962 0.346778525261784 0
0.4450405965512891 0.3889448048429416 0
0.5913834667436345 0.0476918191829493 0
0.5815376681057544 0.09528689309130982 0
0.5704739840487487 0.1426890728989587 0
0.5582113032039628 0.1898033990440968 0
0.5447759064186029 0.23653668667469 0
0.5302013047546184 0.2827981001106333 0
0.5145280328060444 0.3284997130485894 0
0.4978033988275515 0.3735570505234434 0
0.4800811931027176 0.4178896096858823 0
0.6420752001154741 0.05153772877437576 0
0.6323065021586747 0.1029303396368702 0
0.6207109760731871 0.1540336093482949 0
0.6073169548060283 0.204705098565956 0
0.5921638596280075 0.2548050300117997 0
0.5753019571320243 0.3041971501657683 0
0.5567920492091555 0.3527495695727599 0
0.536705098241407 0.400335575785103 0
0.5151217896541463 0.4468344145288231 0
0.6927669334872842 0.05538363836577872 0
0.6830753362115383 0.1105737861823836 0
0.6709479680975432 0.1653781457975612 0
0.6564226064079878 0.2196067980877227 0
0.6395518128372844 0.2730733733487948 0
0.6204026095092828 0.3255962002207677 0
0.5990560656121015 0.3769994260967743 0
0.5756067976550803 0.4271141010465871 0
0.5501623862053778 0.4757792193715703 0
0.7434586668590848 0.05922954795717415 0
0.7338441702643835 0.1182172327278821 0
0.7211849601218732 0.1767226822468051 0
0.7055282580099137 0.2345084976094597 0
0.6869397660465207 0.2913417166857535 0
0.6655032618864944 0.3469952502757238 0
0.6413200820149941 0.4012492826207388 0
0.6145084970686955 0.4538926263080155 0
0.5852029827565465 0.5047240242142558 0
0.7941504002309298 0.06307545754860497 0
0.7846130043173147 0.1258606792734511 0
0.7714219521463271 0.1880672186961543 0
0.7546339096119987 0.249410197131336 0
0.734327719255949 0.3096100600228842 0
0.7106039142639281 0.368394300330884 0
0.6835840984181364 0.4254991391449384 0
0.6534101964825848 0.4806711515697075 0
0.6202435793080113 0.5336688290572323 0
0.8448421336028079 0.06692136714006243 0
0.8353818383703099 0.1335041258190732 0
0.8216589441708743 0.1994117551455826 0
0.803739561214204 0.2643118966533172 0
0.781715672465522 0.327878403360145 0
0.7557045666415285 0.389793350386198 0
0.7258481148214662 0.4497489956693146 0
0.6923118958966804 0.5074496768315984 0
0.6552841758596998 0.5626136339004283 0
0.8955338669746864 0.0707672767315199 0
0.8861506724233049 0.1411475723646954 0
0.8718959361954209 0.210756291595011 0
0.8528452128164091 0.2792135961752982 0
0.829103625675095 0.3461467466974056 0
0.8008052190191293 0.4111924004415121 0
0.7681121312247962 0.473998852193691 0
0.7312135953107761 0.5342282020934892 0
0.6903247724113882 0.5915584387436243 0
0.9462256003465646 0.07461318632297738 0
0.9369195064763005 0.1487910189103174 0
0.9221329282199682 0.2221008280444394 0
0.9019508644186144 0.2941152956972793 0
0.8764915788846679 0.3644150900346662 0
0.8459058713967297 0.4325914504968261 0
0.8103761476281258 0.498248708718067 0
0.7701152947248716 0.56100672735538 0
0.7253653689630767 0.6205032435868204 0
2 3 0 81
251
252
253
254
255
256
257
258
259
260
261
262
263
264
265
266
267
268
269
270
271
272
273
274
275
276
277
278
279
280
281
282
283
284
285
286
287
288
289
290
291
292
293
294
295
296
297
298
299
300
301
302
303
304
305
306
307
308
309
310
311
312
313
314
315
316
317
318
319
320
321
322
323
324
325
326
327
328
329
330
331
0.388944804822806 0.4450405965684866 0
0.3467785251923682 0.4589016994641297 0
0.3042498564042813 0.4722640164765539 0
0.2613990498822372 0.4851006524654934 0
0.2182683431219364 0.4973879532985211 0
0.1749016993355414 0.5091056516625589 0
0.1313445363156463 0.5202369920564751 0
0.08764344645231067 0.5307688340676333 0
0.04384590955371351 0.5406917333747711 0
0.417889609645611 0.4800811931371129 0
0.3735570503846119 0.497803398928419 0
0.3284997128083139 0.5145280329532858 0
0.2827980997641111 0.5302013049311805 0
0.236536686243402 0.5447759065972483 0
0.1898033986707041 0.5582113033252858 0
0.1426890726310062 0.5704739841130786 0
0.0952868929044321 0.581537668135353 0
0.04769181910733063 0.5913834667495863 0
0.446834414468416 0.5151217897057391 0
0.4003355755768555 0.5367050983927079 0
0.3527495692123465 0.5567920494300176 0
0.3041971496459849 0.5753019573968675 0
0.2548050293648676 0.5921638598959758 0
0.2047050980058668 0.6073169549880126 0
0.1540336089463661 0.6207109761696818 0
0.1029303393565535 0.6323065022030726 0
0.05153772866094775 0.642075200124401 0
0.4757792192910276 0.5501623862741682 0
0.427114100768924 0.5756067978568148 0
0.376999425616223 0.5990560659065839 0
0.3255961995277232 0.6204026098624071 0
0.2730733724862187 0.6395518131945754 0
0.219606797340937 0.6564226066506335 0
0.1653781452616561 0.6709479682262027 0
0.1105737858086281 0.6830753362707355 0
0.05538363821454137 0.6927669334991871 0
0.5047240241135773 0.5852029828425345 0
0.4538926259609363 0.6145084973208639 0
0.4012492820200496 0.6413200823830973 0
0.3469952494094179 0.6655032623278996 0
0.2913417156075332 0.6869397664931345 0
0.2345084966759778 0.7055282583132205 0
0.1767226815769237 0.7211849602826975 0
0.1182172322606877 0.7338441703383805 0
0.05922954776812746 0.7434586668739634 0
0.5336688289364182 0.6202435794111969 0
0.4806711511532126 0.6534101967851865 0
0.4254991384241111 0.68358409885986 0
0.3683942992913169 0.7106039147936141 0
0.30961005872902 0.7343277197918855 0
0.2494101960111577 0.7546339099759672 0
0.1880672178922966 0.7714219523393163 0
0.1258606787128178 0.7846130044061105 0
0.06307545732174895 0.7941504002487839 0
0.5626136337594787 0.655284175980083 0
0.5074496763456875 0.6923118962497158 0
0.4497489948283497 0.7258481153368105 0
0.3897933491733699 0.7557045672594959 0
0.3278784018506367 0.7817156730907814 0
0.2643118953464423 0.8037395616388334 0
0.1994117542077488 0.8216589443960282 0
0.133504125165001 0.8353818384739049 0
0.06692136687539708 0.8448421336236379 0
0.5915584385825391 0.690324772548969 0
0.5342282015381625 0.7312135957142449 0
0.4739988512325881 0.7681121318137609 0
0.4111923990554229 0.8008052197253773 0
0.3461467449722533 0.8291036263896767 0
0.2792135946817272 0.8528452133017 0
0.2107562905232008 0.8718959364527404 0
0.1411475716171842 0.8861506725416998 0
0.07076727642904521 0.8955338669984918 0
0.620503243405599 0.7253653691178549 0
0.5610067267306376 0.7701152951787743 0
0.4982487076368265 0.8103761482907113 0
0.4325914489374757 0.8459058721912589 0
0.3644150880938698 0.8764915796885722 0
0.2941152940170118 0.9019508649645663 0
0.222100826838653 0.9221329285094523 0
0.1487910180693674 0.936919506609494 0
0.07461318598269333 0.9462256003733457 0
$EndNodes
$Elements
11 1261 1 3187
0 1 15 1
1 1 
1 1 1 10
2 1 8 
3 8 9 
4 9 10 
5 10 11 
6 11 12 
7 12 13 
8 13 14 
9 14 15 
10 15 16 
11 16 2 
1 2 1 10
12 2 17 
13 17 18 
14 18 19 
15 19 20 
16 20 21 
17 21 22 
18 22 23 
19 23 24 
20 24 25 
21 25 3 
1 3 1 10
22 3 26 
23 26 27 
24 27 28 
25 28 29 
26 29 30 
27 30 31 
28 31 32 
29 32 33 
30 33 34 
31 34 4 
1 4 1 10
32 4 35 
33 35 36 
34 36 37 
35 37 38 
36 38 39 
37 39 40 
38 40 41 
39 41 42 
40 42 43 
41 43 5 
1 5 1 10
42 5 44 
43 44 45 
44 45 46 
45 46 47 
46 47 48 
47 48 49 
48 49 50 
49 50 51 
50 51 52 
51 52 6 
1 6 1 10
52 6 53 
53 53 54 
54 54 55 
55 55 56 
56 56 57 
57 57 58 
58 58 59 
59 59 60 
60 60 61 
61 61 1 
1 10 1 600
2588 1 8 
2589 8 61 
2590 61 1 
2591 61 8 
2592 8 89 
2593 89 61 
2594 61 89 
2595 89 60 
2596 60 61 
2597 60 89 
2598 89 90 
2599 90 60 
2600 60 90 
2601 90 59 
2602 59 60 
2603 59 90 
2604 90 91 
2605 91 59 
2606 59 91 
2607 91 58 
2608 58 59 
2609 58 91 
2610 91 92 
2611 92 58 
2612 58 92 
2613 92 57 
2614 57 58 
2615 57 92 
2616 92 93 
2617 93 57 
2618 57 93 
2619 93 56 
2620 56 57 
2621 56 93 
2622 93 94 
2623 94 56 
2624 56 94 
2625 94 55 
2626 55 56 
2627 55 94 
2628 94 95 
2629 95 55 
2630 55 95 
2631 95 54 
2632 54 55 
2633 54 95 
2634 95 96 
2635 96 54 
2636 54 96 
2637 96 53 
2638 53 54 
2639 53 96 
2640 96 97 
2641 97 53 
2642 53 97 
2643 97 6 
2644 6 53 
2645 6 97 
2646 97 79 
2647 79 6 
2648 8 9 
2649 9 89 
2650 89 8 
2651 89 9 
2652 9 98 
2653 98 89 
2654 89 98 
2655 98 90 
2656 90 89 
2657 90 98 
2658 98 99 
2659 99 90 
2660 90 99 
2661 99 91 
2662 91 90 
2663 91 99 
2664 99 100 
2665 100 91 
2666 91 100 
2667 100 92 
2668 92 91 
2669 92 100 
2670 100 101 
2671 101 92 
2672 92 101 
2673 101 93 
2674 93 92 
2675 93 101 
2676 101 102 
2677 102 93 
2678 93 102 
2679 102 94 
2680 94 93 
2681 94 102 
2682 102 103 
2683 103 94 
2684 94 103 
2685 103 95 
2686 95 94 
2687 95 103 
2688 103 104 
2689 104 95 
2690 95 104 
2691 104 96 
2692 96 95 
2693 96 104 
2694 104 105 
2695 105 96 
2696 96 105 
2697 105 97 
2698 97 96 
2699 97 105 
2700 105 106 
2701 106 97 
2702 97 106 
2703 106 79 
2704 79 97 
2705 79 106 
2706 106 78 
2707 78 79 
2708 9 10 
2709 10 98 
2710 98 9 
2711 98 10 
2712 10 107 
2713 107 98 
2714 98 107 
2715 107 99 
2716 99 98 
2717 99 107 
2718 107 108 
2719 108 99 
2720 99 108 
2721 108 100 
2722 100 99 
2723 100 108 
2724 108 109 
2725 109 100 
2726 100 109 
2727 109 101 
2728 101 100 
2729 101 109 
2730 109 110 
2731 110 101 
2732 101 110 
2733 110 102 
2734 102 101 
2735 102 110 
2736 110 111 
2737 111 102 
2738 102 111 
2739 111 103 
2740 103 102 
2741 103 111 
2742 111 112 
2743 112 103 
2744 103 112 
2745 112 104 
2746 104 103 
2747 104 112 
2748 112 113 
2749 113 104 
2750 104 113 
2751 113 105 
2752 105 104 
2753 105 113 
2754 113 114 
2755 114 105 
2756 105 114 
2757 114 106 
2758 106 105 
2759 106 114 
2760 114 115 
2761 115 106 
2762 106 115 
2763 115 78 
2764 78 106 
2765 78 115 
2766 115 77 
2767 77 78 
2768 10 11 
2769 11 107 
2770 107 10 
2771 107 11 
2772 11 116 
2773 116 107 
2774 107 116 
2775 116 108 
2776 108 107 
2777 108 116 
2778 116 117 
2779 117 108 
2780 108 117 
2781 117 109 
2782 109 108 
2783 109 117 
2784 117 118 
2785 118 109 
2786 109 118 
2787 118 110 
2788 110 109 
2789 110 118 
2790 118 119 
2791 119 110 
2792 110 119 
2793 119 111 
2794 111 110 
2795 111 119 
2796 119 120 
2797 120 111 
2798 111 120 
2799 120 112 
2800 112 111 
2801 112 120 
2802 120 121 
2803 121 112 
2804 112 121 
2805 121 113 
2806 113 112 
2807 113 121 
2808 121 122 
2809 122 113 
2810 113 122 
2811 122 114 
2812 114 113 
2813 114 122 
2814 122 123 
2815 123 114 
2816 114 123 
2817 123 115 
2818 115 114 
2819 115 123 
2820 123 124 
2821 124 115 
2822 115 124 
2823 124 77 
2824 77 115 
2825 77 124 
2826 124 76 
2827 76 77 
2828 11 12 
2829 12 116 
2830 116 11 
2831 116 12 
2832 12 125 
2833 125 116 
2834 116 125 
2835 125 117 
2836 117 116 
2837 117 125 
2838 125 126 
2839 126 117 
2840 117 126 
2841 126 118 
2842 118 117 
2843 118 126 
2844 126 127 
2845 127 118 
2846 118 127 
2847 127 119 
2848 119 118 
2849 119 127 
2850 127 128 
2851 128 119 
2852 119 128 
2853 128 120 
2854 120 119 
2855 120 128 
2856 128 129 
2857 129 120 
2858 120 129 
2859 129 121 
2860 121 120 
2861 121 129 
2862 129 130 
2863 130 121 
2864 121 130 
2865 130 122 
2866 122 121 
2867 122 130 
2868 130 131 
2869 131 122 
2870 122 131 
2871 131 123 
2872 123 122 
2873 123 131 
2874 131 132 
2875 132 123 
2876 123 132 
2877 132 124 
2878 124 123 
2879 124 132 
2880 132 133 
2881 133 124 
2882 124 133 
2883 133 76 
2884 76 124 
2885 76 133 
2886 133 75 
2887 75 76 
2888 12 13 
2889 13 125 
2890 125 12 
2891 125 13 
2892 13 134 
2893 134 125 
2894 125 134 
2895 134 126 
2896 126 125 
2897 126 134 
2898 134 135 
2899 135 126 
2900 126 135 
2901 135 127 
2902 127 126 
2903 127 135 
2904 135 136 
2905 136 127 
2906 127 136 
2907 136 128 
2908 128 127 
2909 128 136 
2910 136 137 
2911 137 128 
2912 128 137 
2913 137 129 
2914 129 128 
2915 129 137 
2916 137 138 
2917 138 129 
2918 129 138 
2919 138 130 
2920 130 129 
2921 130 138 
2922 138 139 
2923 139 130 
2924 130 139 
2925 139 131 
2926 131 130 
2927 131 139 
2928 139 140 
2929 140 131 
2930 131 140 
2931 140 132 
2932 132 131 
2933 132 140 
2934 140 141 
2935 141 132 
2936 132 141 
2937 141 133 
2938 133 132 
2939 133 141 
2940 141 142 
2941 142 133 
2942 133 142 
2943 142 75 
2944 75 133 
2945 75 142 
2946 142 74 
2947 74 75 
2948 13 14 
2949 14 134 
2950 134 13 
2951 134 14 
2952 14 143 
2953 143 134 
2954 134 143 
2955 143 135 
2956 135 134 
2957 135 143 
2958 143 144 
2959 144 135 
2960 135 144 
2961 144 136 
2962 136 135 
2963 136 144 
2964 144 145 
2965 145 136 
2966 136 145 
2967 145 137 
2968 137 136 
2969 137 145 
2970 145 146 
2971 146 137 
2972 137 146 
2973 146 138 
2974 138 137 
2975 138 146 
2976 146 147 
2977 147 138 
2978 138 147 
2979 147 139 
2980 139 138 
2981 139 147 
2982 147 148 
2983 148 139 
2984 139 148 
2985 148 140 
2986 140 139 
2987 140 148 
2988 148 149 
2989 149 140 
2990 140 149 
2991 149 141 
2992 141 140 
2993 141 149 
2994 149 150 
2995 150 141 
2996 141 150 
2997 150 142 
2998 142 141 
2999 142 150 
3000 150 151 
3001 151 142 
3002 142 151 
3003 151 74 
3004 74 142 
3005 74 151 
3006 151 73 
3007 73 74 
3008 14 15 
3009 15 143 
3010 143 14 
3011 143 15 
3012 15 152 
3013 152 143 
3014 143 152 
3015 152 144 
3016 144 143 
3017 144 152 
3018 152 153 
3019 153 144 
3020 144 153 
3021 153 145 
3022 145 144 
3023 145 153 
3024 153 154 
3025 154 145 
3026 145 154 
3027 154 146 
3028 146 145 
3029 146 154 
3030 154 155 
3031 155 146 
3032 146 155 
3033 155 147 
3034 147 146 
3035 147 155 
3036 155 156 
3037 156 147 
3038 147 156 
3039 156 148 
3040 148 147 
3041 148 156 
3042 156 157 
3043 157 148 
3044 148 157 
3045 157 149 
3046 149 148 
3047 149 157 
3048 157 158 
3049 158 149 
3050 149 158 
3051 158 150 
3052 150 149 
3053 150 158 
3054 158 159 
3055 159 150 
3056 150 159 
3057 159 151 
3058 151 150 
3059 151 159 
3060 159 160 
3061 160 151 
3062 151 160 
3063 160 73 
3064 73 151 
3065 73 160 
3066 160 72 
3067 72 73 
3068 15 16 
3069 16 152 
3070 152 15 
3071 152 16 
3072 16 161 
3073 161 152 
3074 152 161 
3075 161 153 
3076 153 152 
3077 153 161 
3078 161 162 
3079 162 153 
3080 153 162 
3081 162 154 
3082 154 153 
3083 154 162 
3084 162 163 
3085 163 154 
3086 154 163 
3087 163 155 
3088 155 154 
3089 155 163 
3090 163 164 
3091 164 155 
3092 155 164 
3093 164 156 
3094 156 155 
3095 156 164 
3096 164 165 
3097 165 156 
3098 156 165 
3099 165 157 
3100 157 156 
3101 157 165 
3102 165 166 
3103 166 157 
3104 157 166 
3105 166 158 
3106 158 157 
3107 158 166 
3108 166 167 
3109 167 158 
3110 158 167 
3111 167 159 
3112 159 158 
3113 159 167 
3114 167 168 
3115 168 159 
3116 159 168 
3117 168 160 
3118 160 159 
3119 160 168 
3120 168 169 
3121 169 160 
3122 160 169 
3123 169 72 
3124 72 160 
3125 72 169 
3126 169 71 
3127 71 72 
3128 16 2 
3129 2 161 
3130 161 16 
3131 161 2 
3132 2 70 
3133 70 161 
3134 161 70 
3135 70 162 
3136 162 161 
3137 162 70 
3138 70 69 
3139 69 162 
3140 162 69 
3141 69 163 
3142 163 162 
3143 163 69 
3144 69 68 
3145 68 163 
3146 163 68 
3147 68 164 
3148 164 163 
3149 164 68 
3150 68 67 
3151 67 164 
3152 164 67 
3153 67 165 
3154 165 164 
3155 165 67 
3156 67 66 
3157 66 165 
3158 165 66 
3159 66 166 
3160 166 165 
3161 166 66 
3162 66 65 
3163 65 166 
3164 166 65 
3165 65 167 
3166 167 166 
3167 167 65 
3168 65 64 
3169 64 167 
3170 167 64 
3171 64 168 
3172 168 167 
3173 168 64 
3174 64 63 
3175 63 168 
3176 168 63 
3177 63 169 
3178 169 168 
3179 169 63 
3180 63 62 
3181 62 169 
3182 169 62 
3183 62 71 
3184 71 169 
3185 71 62 
3186 62 7 
3187 7 71 
2 1 2 200
62 1 8 61 
63 61 8 89 
64 61 89 60 
65 60 89 90 
66 60 90 59 
67 59 90 91 
68 59 91 58 
69 58 91 92 
70 58 92 57 
71 57 92 93 
72 57 93 56 
73 56 93 94 
74 56 94 55 
75 55 94 95 
76 55 95 54 
77 54 95 96 
78 54 96 53 
79 53 96 97 
80 53 97 6 
81 6 97 79 
82 8 9 89 
83 89 9 98 
84 89 98 90 
85 90 98 99 
86 90 99 91 
87 91 99 100 
88 91 100 92 
89 92 100 101 
90 92 101 93 
91 93 101 102 
92 93 102 94 
93 94 102 103 
94 94 103 95 
95 95 103 104 
96 95 104 96 
97 96 104 105 
98 96 105 97 
99 97 105 106 
100 97 106 79 
101 79 106 78 
102 9 10 98 
103 98 10 107 
104 98 107 99 
105 99 107 108 
106 99 108 100 
107 100 108 109 
108 100 109 101 
109 101 109 110 
110 101 110 102 
111 102 110 111 
112 102 111 103 
113 103 111 112 
114 103 112 104 
115 104 112 113 
116 104 113 105 
117 105 113 114 
118 105 114 106 
119 106 114 115 
120 106 115 78 
121 78 115 77 
122 10 11 107 
123 107 11 116 
124 107 116 108 
125 108 116 117 
126 108 117 109 
127 109 117 118 
128 109 118 110 
129 110 118 119 
130 110 119 111 
131 111 119 120 
132 111 120 112 
133 112 120 121 
134 112 121 113 
135 113 121 122 
136 113 122 114 
137 114 122 123 
138 114 123 115 
139 115 123 124 
140 115 124 77 
141 77 124 76 
142 11 12 116 
143 116 12 125 
144 116 125 117 
145 117 125 126 
146 117 126 118 
147 118 126 127 
148 118 127 119 
149 119 127 128 
150 119 128 120 
151 120 128 129 
152 120 129 121 
153 121 129 130 
154 121 130 122 
155 122 130 131 
156 122 131 123 
157 123 131 132 
158 123 132 124 
159 124 132 133 
160 124 133 76 
161 76 133 75 
162 12 13 125 
163 125 13 134 
164 125 134 126 
165 126 134 135 
166 126 135 127 
167 127 135 136 
168 127 136 128 
169 128 136 137 
170 128 137 129 
171 129 137 138 
172 129 138 130 
173 130 138 139 
174 130 139 131 
175 131 139 140 
176 131 140 132 
177 132 140 141 
178 132 141 133 
179 133 141 142 
180 133 142 75 
181 75 142 74 
182 13 14 134 
183 134 14 143 
184 134 143 135 
185 135 143 144 
186 135 144 136 
187 136 144 145 
188 136 145 137 
189 137 145 146 
190 137 146 138 
191 138 146 147 
192 138 147 139 
193 139 147 148 
194 139 148 140 
195 140 148 149 
196 140 149 141 
197 141 149 150 
198 141 150 142 
199 142 150 151 
200 142 151 74 
201 74 151 73 
202 14 15 143 
203 143 15 152 
204 143 152 144 
205 144 152 153 
206 144 153 145 
207 145 153 154 
208 145 154 146 
209 146 154 155 
210 146 155 147 
211 147 155 156 
212 147 156 148 
213 148 156 157 
214 148 157 149 
215 149 157 158 
216 149 158 150 
217 150 158 159 
218 150 159 151 
219 151 159 160 
220 151 160 73 
221 73 160 72 
222 15 16 152 
223 152 16 161 
224 152 161 153 
225 153 161 162 
226 153 162 154 
227 154 162 163 
228 154 163 155 
229 155 163 164 
230 155 164 156 
231 156 164 165 
232 156 165 157 
233 157 165 166 
234 157 166 158 
235 158 166 167 
236 158 167 159 
237 159 167 168 
238 159 168 160 
239 160 168 169 
240 160 169 72 
241 72 169 71 
242 16 2 161 
243 161 2 70 
244 161 70 162 
245 162 70 69 
246 162 69 163 
247 163 69 68 
248 163 68 164 
249 164 68 67 
250 164 67 165 
251 165 67 66 
252 165 66 166 
253 166 66 65 
254 166 65 167 
255 167 65 64 
256 167 64 168 
257 168 64 63 
258 168 63 169 
259 169 63 62 
260 169 62 71 
261 71 62 7 
2 2 2 200
262 2 17 170 
263 170 70 2 
264 70 170 171 
265 171 69 70 
266 69 171 172 
267 172 68 69 
268 68 172 173 
269 173 67 68 
270 67 173 174 
271 174 66 67 
272 66 174 175 
273 175 65 66 
274 65 175 176 
275 176 64 65 
276 64 176 177 
277 177 63 64 
278 63 177 178 
279 178 62 63 
280 62 178 80 
281 80 7 62 
282 17 18 179 
283 179 170 17 
284 170 179 180 
285 180 171 170 
286 171 180 181 
287 181 172 171 
288 172 181 182 
289 182 173 172 
290 173 182 183 
291 183 174 173 
292 174 183 184 
293 184 175 174 
294 175 184 185 
295 185 176 175 
296 176 185 186 
297 186 177 176 
298 177 186 187 
299 187 178 177 
300 178 187 81 
301 81 80 178 
302 18 19 188 
303 188 179 18 
304 179 188 189 
305 189 180 179 
306 180 189 190 
307 190 181 180 
308 181 190 191 
309 191 182 181 
310 182 191 192 
311 192 183 182 
312 183 192 193 
313 193 184 183 
314 184 193 194 
315 194 185 184 
316 185 194 195 
317 195 186 185 
318 186 195 196 
319 196 187 186 
320 187 196 82 
321 82 81 187 
322 19 20 197 
323 197 188 19 
324 188 197 198 
325 198 189 188 
326 189 198 199 
327 199 190 189 
328 190 199 200 
329 200 191 190 
330 191 200 201 
331 201 192 191 
332 192 201 202 
333 202 193 192 
334 193 202 203 
335 203 194 193 
336 194 203 204 
337 204 195 194 
338 195 204 205 
339 205 196 195 
340 196 205 83 
341 83 82 196 
342 20 21 206 
343 206 197 20 
344 197 206 207 
345 207 198 197 
346 198 207 208 
347 208 199 198 
348 199 208 209 
349 209 200 199 
350 200 209 210 
351 210 201 200 
352 201 210 211 
353 211 202 201 
354 202 211 212 
355 212 203 202 
356 203 212 213 
357 213 204 203 
358 204 213 214 
359 214 205 204 
360 205 214 84 
361 84 83 205 
362 21 22 215 
363 215 206 21 
364 206 215 216 
365 216 207 206 
366 207 216 217 
367 217 208 207 
368 208 217 218 
369 218 209 208 
370 209 218 219 
371 219 210 209 
372 210 219 220 
373 220 211 210 
374 211 220 221 
375 221 212 211 
376 212 221 222 
377 222 213 212 
378 213 222 223 
379 223 214 213 
380 214 223 85 
381 85 84 214 
382 22 23 224 
383 224 215 22 
384 215 224 225 
385 225 216 215 
386 216 225 226 
387 226 217 216 
388 217 226 227 
389 227 218 217 
390 218 227 228 
391 228 219 218 
392 219 228 229 
393 229 220 219 
394 220 229 230 
395 230 221 220 
396 221 230 231 
397 231 222 221 
398 222 231 232 
399 232 223 222 
400 223 232 86 
401 86 85 223 
402 23 24 233 
403 233 224 23 
404 224 233 234 
405 234 225 224 
406 225 234 235 
407 235 226 225 
408 226 235 236 
409 236 227 226 
410 227 236 237 
411 237 228 227 
412 228 237 238 
413 238 229 228 
414 229 238 239 
415 239 230 229 
416 230 239 240 
417 240 231 230 
418 231 240 241 
419 241 232 231 
420 232 241 87 
421 87 86 232 
422 24 25 242 
423 242 233 24 
424 233 242 243 
425 243 234 233 
426 234 243 244 
427 244 235 234 
428 235 244 245 
429 245 236 235 
430 236 245 246 
431 246 237 236 
432 237 246 247 
433 247 238 237 
434 238 247 248 
435 248 239 238 
436 239 248 249 
437 249 240 239 
438 240 249 250 
439 250 241 240 
440 241 250 88 
441 88 87 241 
442 25 3 26 
443 26 242 25 
444 242 26 27 
445 27 243 242 
446 243 27 28 
447 28 244 243 
448 244 28 29 
449 29 245 244 
450 245 29 30 
451 30 246 245 
452 246 30 31 
453 31 247 246 
454 247 31 32 
455 32 248 247 
456 248 32 33 
457 33 249 248 
458 249 33 34 
459 34 250 249 
460 250 34 4 
461 4 88 250 
2 3 2 200
462 7 80 71 
463 71 80 251 
464 71 251 72 
465 72 251 252 
466 72 252 73 
467 73 252 253 
468 73 253 74 
469 74 253 254 
470 74 254 75 
471 75 254 255 
472 75 255 76 
473 76 255 256 
474 76 256 77 
475 77 256 257 
476 77 257 78 
477 78 257 258 
478 78 258 79 
479 79 258 259 
480 79 259 6 
481 6 259 52 
482 80 81 251 
483 251 81 260 
484 251 260 252 
485 252 260 261 
486 252 261 253 
487 253 261 262 
488 253 262 254 
489 254 262 263 
490 254 263 255 
491 255 263 264 
492 255 264 256 
493 256 264 265 
494 256 265 257 
495 257 265 266 
496 257 266 258 
497 258 266 267 
498 258 267 259 
499 259 267 268 
500 259 268 52 
501 52 268 51 
502 81 82 260 
503 260 82 269 
504 260 269 261 
505 261 269 270 
506 261 270 262 
507 262 270 271 
508 262 271 263 
509 263 271 272 
510 263 272 264 
511 264 272 273 
512 264 273 265 
513 265 273 274 
514 265 274 266 
515 266 274 275 
516 266 275 267 
517 267 275 276 
518 267 276 268 
519 268 276 277 
520 268 277 51 
521 51 277 50 
522 82 83 269 
523 269 83 278 
524 269 278 270 
525 270 278 279 
526 270 279 271 
527 271 279 280 
528 271 280 272 
529 272 280 281 
530 272 281 273 
531 273 281 282 
532 273 282 274 
533 274 282 283 
534 274 283 275 
535 275 283 284 
536 275 284 276 
537 276 284 285 
538 276 285 277 
539 277 285 286 
540 277 286 50 
541 50 286 49 
542 83 84 278 
543 278 84 287 
544 278 287 279 
545 279 287 288 
546 279 288 280 
547 280 288 289 
548 280 289 281 
549 281 289 290 
550 281 290 282 
551 282 290 291 
552 282 291 283 
553 283 291 292 
554 283 292 284 
555 284 292 293 
556 284 293 285 
557 285 293 294 
558 285 294 286 
559 286 294 295 
560 286 295 49 
561 49 295 48 
562 84 85 287 
563 287 85 296 
564 287 296 288 
565 288 296 297 
566 288 297 289 
567 289 297 298 
568 289 298 290 
569 290 298 299 
570 290 299 291 
571 291 299 300 
572 291 300 292 
573 292 300 301 
574 292 301 293 
575 293 301 302 
576 293 302 294 
577 294 302 303 
578 294 303 295 
579 295 303 304 
580 295 304 48 
581 48 304 47 
582 85 86 296 
583 296 86 305 
584 296 305 297 
585 297 305 306 
586 297 306 298 
587 298 306 307 
588 298 307 299 
589 299 307 308 
590 299 308 300 
591 300 308 309 
592 300 309 301 
593 301 309 310 
594 301 310 302 
595 302 310 311 
596 302 311 303 
597 303 311 312 
598 303 312 304 
599 304 312 313 
600 304 313 47 
601 47 313 46 
602 86 87 305 
603 305 87 314 
604 305 314 306 
605 306 314 315 
606 306 315 307 
607 307 315 316 
608 307 316 308 
609 308 316 317 
610 308 317 309 
611 309 317 318 
612 309 318 310 
613 310 318 319 
614 310 319 311 
615 311 319 320 
616 311 320 312 
617 312 320 321 
618 312 321 313 
619 313 321 322 
620 313 322 46 
621 46 322 45 
622 87 88 314 
623 314 88 323 
624 314 323 315 
625 315 323 324 
626 315 324 316 
627 316 324 325 
628 316 325 317 
629 317 325 326 
630 317 326 318 
631 318 326 327 
632 318 327 319 
633 319 327 328 
634 319 328 320 
635 320 328 329 
636 320 329 321 
637 321 329 330 
638 321 330 322 
639 322 330 331 
640 322 331 45 
641 45 331 44 
642 88 4 323 
643 323 4 35 
644 323 35 324 
645 324 35 36 
646 324 36 325 
647 325 36 37 
648 325 37 326 
649 326 37 38 
650 326 38 327 
651 327 38 39 
652 327 39 328 
653 328 39 40 
654 328 40 329 
655 329 40 41 
656 329 41 330 
657 330 41 42 
658 330 42 331 
659 331 42 43 
660 331 43 44 
661 44 43 5 
$EndElements
