$MeshFormat
4.1 0 8
$EndMeshFormat
$PhysicalNames
6
1 1 "Γ¹"
1 2 "Γ²"
1 3 "Γ³"
1 4 "Γ⁴"
1 6 "Γ"
2 5 "Ω"
$EndPhysicalNames
$Entities
4 5 1 0
1 0 0 0 0 
2 1 0 0 0 
3 1.5 0.8660254037844387 0 0 
4 0.4999999999999999 0.8660254037844387 0 0 
1 0 0 0 1 0 0 1 1 2 1 -2 
2 1 0 0 1.5 0.8660254037844387 0 1 2 2 2 -3 
3 0.5 0.8660254037844387 0 1.5 0.8660254037844387 0 1 3 2 3 -4 
4 0 0 0 0.4999999999999999 0.8660254037844387 0 1 4 2 4 -1 
5 0 0 0 1.5 0.8660254037844387 0 1 6 0 
1 0 0 0 1.5 0.8660254037844387 0 1 5 4 1 2 3 4 
$EndEntities
$Nodes
10 196 1 196
0 1 0 1
1
0 0 0
0 2 0 1
2
1 0 0
0 3 0 1
3
1.5 0.8660254037844387 0
0 4 0 1
4
0.4999999999999999 0.8660254037844387 0
1 1 0 12
5
6
7
8
9
10
11
12
13
14
15
16
0.07692307692292638 0 0
0.1538461538458454 0 0
0.2307692307686978 0 0
0.3076923076915502 0 0
0.3846153846144026 0 0
0.461538461537255 0 0
0.5384615384603212 0 0
0.6153846153836009 0 0
0.6923076923068806 0 0
0.7692307692301605 0 0
0.8461538461534404 0 0
0.9230769230767202 0 0
1 2 0 12
17
18
19
20
21
22
23
24
25
26
27
28
1.038461538461482 0.06661733875255145 0
1.07692307692296 0.1332346775050957 0
1.115384615384412 0.1998520162575943 0
1.153846153845872 0.266469355010108 0
1.19230769230734 0.333086693762636 0
1.230769230768777 0.3997040325151095 0
1.269230769230303 0.4663213712677369 0
1.307692307691936 0.5329387100205489 0
1.346153846153554 0.5995560487733366 0
1.384615384615177 0.666173387526132 0
1.423076923076801 0.7327907262789284 0
1.461538461538419 0.7994080650317161 0
1 3 0 12
29
30
31
32
33
34
35
36
37
38
39
40
1.42307692307735 0.8660254037844387 0
1.3461538461547 0.8660254037844387 0
1.269230769232051 0.8660254037844387 0
1.192307692309401 0.8660254037844387 0
1.115384615386751 0.8660254037844387 0
1.038461538464101 0.8660254037844387 0
0.9615384615410244 0.8660254037844387 0
0.8846153846175203 0.8660254037844387 0
0.8076923076940162 0.8660254037844387 0
0.7307692307705123 0.8660254037844387 0
0.6538461538470082 0.8660254037844387 0
0.576923076923504 0.8660254037844387 0
1 4 0 12
41
42
43
44
45
46
47
48
49
50
51
52
0.4615384615385372 0.7994080650319206 0
0.423076923077026 0.7327907262793187 0
0.3846153846155696 0.6661733875268118 0
0.3461538461541379 0.5995560487743474 0
0.3076923076926779 0.5329387100218343 0
0.2692307692312812 0.4663213712694307 0
0.2307692307697674 0.3997040325168242 0
0.1923076923081229 0.3330866937639916 0
0.1538461538464928 0.2664693550111835 0
0.1153846153848582 0.1998520162583679 0
0.07692307692322287 0.1332346775055511 0
0.03846153846159261 0.06661733875274289 0
1 5 0 0
2 1 0 144
53
54
55
56
57
58
59
60
61
62
63
64
65
66
67
68
69
70
71
72
73
74
75
76
77
78
79
80
81
82
83
84
85
86
87
88
89
90
91
92
93
94
95
96
97
98
99
100
101
102
103
104
105
106
107
108
109
110
111
112
113
114
115
116
117
118
119
120
121
122
123
124
125
126
127
128
129
130
131
132
133
134
135
136
137
138
139
140
141
142
143
144
145
146
147
148
149
150
151
152
153
154
155
156
157
158
159
160
161
162
163
164
165
166
167
168
169
170
171
172
173
174
175
176
177
178
179
180
181
182
183
184
185
186
187
188
189
190
191
192
193
194
195
196
0.1153846153845549 0.0666173387527282 0
0.1538461538462179 0.133234677505516 0
0.1923076923078835 0.1998520162583084 0
0.230769230769549 0.2664693550111009 0
0.2692307692312113 0.3330866937638873 0
0.3076923076928841 0.3997040325166923 0
0.3461538461544433 0.4663213712693005 0
0.3846153846159028 0.5329387100217354 0
0.4230769230774193 0.5995560487742698 0
0.4615384615389101 0.6661733875267594 0
0.5000000000004238 0.7327907262792888 0
0.5384615384619877 0.7994080650319049 0
0.1923076923075105 0.06661733875271345 0
0.2307692307692067 0.133234677505481 0
0.2692307692309032 0.1998520162582489 0
0.3076923076926004 0.2664693550110181 0
0.3461538461542952 0.3330866937637829 0
0.3846153846159972 0.3997040325165604 0
0.4230769230776024 0.4663213712691701 0
0.4615384615391247 0.5329387100216366 0
0.5000000000006983 0.5995560487741919 0
0.5384615384622493 0.6661733875267072 0
0.5769230769238208 0.7327907262792586 0
0.6153846153854379 0.7994080650318892 0
0.2692307692304045 0.06661733875269871 0
0.3076923076921392 0.133234677505446 0
0.3461538461538717 0.1998520162581894 0
0.3846153846156055 0.2664693550109353 0
0.4230769230773379 0.3330866937636788 0
0.4615384615390742 0.3997040325164285 0
0.5000000000007304 0.4663213712690398 0
0.5384615384623211 0.5329387100215378 0
0.5769230769239572 0.5995560487741141 0
0.6153846153855727 0.6661733875266551 0
0.6538461538472071 0.7327907262792288 0
0.6923076923088828 0.7994080650318736 0
0.3461538461532985 0.06661733875268401 0
0.3846153846150715 0.133234677505411 0
0.4230769230768402 0.1998520162581299 0
0.4615384615386107 0.2664693550108527 0
0.5000000000003808 0.3330866937635745 0
0.5384615384621511 0.3997040325162967 0
0.5769230769238584 0.4663213712689096 0
0.6153846153855175 0.5329387100214388 0
0.6538461538472156 0.5995560487740362 0
0.692307692308896 0.6661733875266025 0
0.7307692307705935 0.7327907262791987 0
0.7692307692323274 0.7994080650318578 0
0.4230769230761925 0.06661733875266926 0
0.4615384615380041 0.1332346775053759 0
0.4999999999998086 0.1998520162580704 0
0.5384615384616158 0.2664693550107699 0
0.5769230769234238 0.3330866937634702 0
0.6153846153852282 0.3997040325161648 0
0.6538461538469865 0.4663213712687793 0
0.6923076923087135 0.53293871002134 0
0.7307692307704745 0.5995560487739585 0
0.7692307692322196 0.6661733875265501 0
0.8076923076939801 0.7327907262791687 0
0.8461538461557722 0.7994080650318421 0
0.4999999999990866 0.06661733875265452 0
0.5384615384609364 0.1332346775053409 0
0.5769230769227769 0.1998520162580109 0
0.6153846153846209 0.2664693550106872 0
0.6538461538464666 0.333086693763366 0
0.6923076923083051 0.3997040325160328 0
0.7307692307701147 0.4663213712686489 0
0.76923076923191 0.5329387100212412 0
0.807692307693733 0.5995560487738807 0
0.8461538461555431 0.666173387526498 0
0.8846153846173664 0.7327907262791387 0
0.9230769230792171 0.7994080650318262 0
0.5769230769221452 0.06661733875263981 0
0.6153846153839843 0.1332346775053059 0
0.6538461538458111 0.1998520162579513 0
0.6923076923076426 0.2664693550106044 0
0.7307692307694768 0.3330866937632616 0
0.7692307692313003 0.399704032515901 0
0.8076923076931113 0.4663213712685186 0
0.8461538461549257 0.5329387100211421 0
0.8846153846167617 0.5995560487738031 0
0.9230769230785874 0.6661733875264458 0
0.9615384615404243 0.7327907262791085 0
1.000000000002284 0.7994080650318106 0
0.6538461538453679 0.0666173387526251 0
0.6923076923071467 0.1332346775052709 0
0.7307692307689113 0.1998520162578918 0
0.7692307692306808 0.2664693550105218 0
0.8076923076924539 0.3330866937631574 0
0.846153846154213 0.3997040325157691 0
0.8846153846159766 0.4663213712683884 0
0.9230769230777607 0.5329387100210433 0
0.9615384615395606 0.5995560487737253 0
1.000000000001352 0.6661733875263933 0
1.038461538463154 0.7327907262790785 0
1.076923076924973 0.7994080650317946 0
0.7307692307685905 0.06661733875261036 0
0.7692307692303093 0.1332346775052358 0
0.8076923076920113 0.1998520162578323 0
0.8461538461537191 0.2664693550104389 0
0.884615384615431 0.3330866937630531 0
0.923076923077126 0.3997040325156371 0
0.9615384615388423 0.4663213712682582 0
1.000000000000596 0.5329387100209445 0
1.038461538462359 0.5995560487736477 0
1.076923076924117 0.666173387526341 0
1.115384615385883 0.7327907262790485 0
1.153846153847662 0.7994080650317791 0
0.8076923076918135 0.06661733875259562 0
0.8461538461534719 0.1332346775052008 0
0.8846153846151114 0.1998520162577728 0
0.9230769230767574 0.2664693550103562 0
0.9615384615384086 0.3330866937629489 0
1.000000000000039 0.3997040325155052 0
1.038461538461707 0.4663213712681279 0
1.076923076923431 0.5329387100208455 0
1.115384615385158 0.5995560487735698 0
1.153846153846882 0.6661733875262889 0
1.192307692308612 0.7327907262790185 0
1.230769230770351 0.7994080650317632 0
0.8846153846150362 0.06661733875258091 0
0.9230769230766347 0.1332346775051658 0
0.9615384615382115 0.1998520162577133 0
0.9999999999997953 0.2664693550102735 0
1.038461538461386 0.3330866937628446 0
1.076923076922952 0.3997040325153734 0
1.115384615384573 0.4663213712679975 0
1.153846153846266 0.5329387100207467 0
1.192307692307957 0.5995560487734921 0
1.230769230769647 0.6661733875262367 0
1.269230769231342 0.7327907262789887 0
1.307692307693041 0.7994080650317476 0
0.9615384615382595 0.06661733875256617 0
0.9999999999997975 0.1332346775051308 0
1.038461538461312 0.1998520162576538 0
1.076923076922833 0.2664693550101907 0
1.115384615384363 0.3330866937627402 0
1.153846153845864 0.3997040325152413 0
1.192307692307438 0.4663213712678673 0
1.2307692307691 0.5329387100206479 0
1.269230769230755 0.5995560487734143 0
1.307692307692412 0.6661733875261843 0
1.346153846154071 0.7327907262789584 0
1.38461538461573 0.799408065031732 0
$EndNodes
$Elements
6 1404 1 3826
1 1 1 13
1 1 5 
2 5 6 
3 6 7 
4 7 8 
5 8 9 
6 9 10 
7 10 11 
8 11 12 
9 12 13 
10 13 14 
11 14 15 
12 15 16 
13 16 2 
1 2 1 13
14 2 17 
15 17 18 
16 18 19 
17 19 20 
18 20 21 
19 21 22 
20 22 23 
21 23 24 
22 24 25 
23 25 26 
24 26 27 
25 27 28 
26 28 3 
1 3 1 13
27 3 29 
28 29 30 
29 30 31 
30 31 32 
31 32 33 
32 33 34 
33 34 35 
34 35 36 
35 36 37 
36 37 38 
37 38 39 
38 39 40 
39 40 4 
1 4 1 13
40 4 41 
41 41 42 
42 42 43 
43 43 44 
44 44 45 
45 45 46 
46 46 47 
47 47 48 
48 48 49 
49 49 50 
50 50 51 
51 51 52 
52 52 1 
1 5 1 1014
2813 1 5 
2814 5 52 
2815 52 1 
2816 52 5 
2817 5 53 
2818 53 52 
2819 52 53 
2820 53 54 
2821 54 52 
2822 54 51 
2823 51 52 
2824 52 54 
2825 51 54 
2826 54 50 
2827 50 51 
2828 50 54 
2829 54 55 
2830 55 50 
2831 50 55 
2832 55 56 
2833 56 50 
2834 56 49 
2835 49 50 
2836 50 56 
2837 49 56 
2838 56 48 
2839 48 49 
2840 48 56 
2841 56 57 
2842 57 48 
2843 48 57 
2844 57 58 
2845 58 48 
2846 58 47 
2847 47 48 
2848 48 58 
2849 47 58 
2850 58 46 
2851 46 47 
2852 46 58 
2853 58 59 
2854 59 46 
2855 46 59 
2856 59 60 
2857 60 46 
2858 60 45 
2859 45 46 
2860 46 60 
2861 45 60 
2862 60 44 
2863 44 45 
2864 44 60 
2865 60 61 
2866 61 44 
2867 44 61 
2868 61 62 
2869 62 44 
2870 62 43 
2871 43 44 
2872 44 62 
2873 43 62 
2874 62 42 
2875 42 43 
2876 42 62 
2877 62 63 
2878 63 42 
2879 42 63 
2880 63 64 
2881 64 42 
2882 64 41 
2883 41 42 
2884 42 64 
2885 41 64 
2886 64 4 
2887 4 41 
2888 4 64 
2889 64 40 
2890 40 4 
2891 5 6 
2892 6 65 
2893 65 5 
2894 65 53 
2895 53 5 
2896 5 65 
2897 53 65 
2898 65 54 
2899 54 53 
2900 54 65 
2901 65 66 
2902 66 54 
2903 54 66 
2904 66 67 
2905 67 54 
2906 67 55 
2907 55 54 
2908 54 67 
2909 55 67 
2910 67 56 
2911 56 55 
2912 56 67 
2913 67 68 
2914 68 56 
2915 56 68 
2916 68 69 
2917 69 56 
2918 69 57 
2919 57 56 
2920 56 69 
2921 57 69 
2922 69 58 
2923 58 57 
2924 58 69 
2925 69 70 
2926 70 58 
2927 58 70 
2928 70 71 
2929 71 58 
2930 71 59 
2931 59 58 
2932 58 71 
2933 59 71 
2934 71 60 
2935 60 59 
2936 60 71 
2937 71 72 
2938 72 60 
2939 60 72 
2940 72 73 
2941 73 60 
2942 73 61 
2943 61 60 
2944 60 73 
2945 61 73 
2946 73 62 
2947 62 61 
2948 62 73 
2949 73 74 
2950 74 62 
2951 62 74 
2952 74 75 
2953 75 62 
2954 75 63 
2955 63 62 
2956 62 75 
2957 63 75 
2958 75 64 
2959 64 63 
2960 64 75 
2961 75 76 
2962 76 64 
2963 64 76 
2964 76 39 
2965 39 64 
2966 39 40 
2967 40 64 
2968 64 39 
2969 6 7 
2970 7 65 
2971 65 6 
2972 65 7 
2973 7 77 
2974 77 65 
2975 65 77 
2976 77 78 
2977 78 65 
2978 78 66 
2979 66 65 
2980 65 78 
2981 66 78 
2982 78 67 
2983 67 66 
2984 67 78 
2985 78 79 
2986 79 67 
2987 67 79 
2988 79 80 
2989 80 67 
2990 80 68 
2991 68 67 
2992 67 80 
2993 68 80 
2994 80 69 
2995 69 68 
2996 69 80 
2997 80 81 
2998 81 69 
2999 69 81 
3000 81 82 
3001 82 69 
3002 82 70 
3003 70 69 
3004 69 82 
3005 70 82 
3006 82 71 
3007 71 70 
3008 71 82 
3009 82 83 
3010 83 71 
3011 71 83 
3012 83 84 
3013 84 71 
3014 84 72 
3015 72 71 
3016 71 84 
3017 72 84 
3018 84 73 
3019 73 72 
3020 73 84 
3021 84 85 
3022 85 73 
3023 73 85 
3024 85 86 
3025 86 73 
3026 86 74 
3027 74 73 
3028 73 86 
3029 74 86 
3030 86 75 
3031 75 74 
3032 75 86 
3033 86 87 
3034 87 75 
3035 75 87 
3036 87 88 
3037 88 75 
3038 88 76 
3039 76 75 
3040 75 88 
3041 76 88 
3042 88 39 
3043 39 76 
3044 39 88 
3045 88 38 
3046 38 39 
3047 7 8 
3048 8 89 
3049 89 7 
3050 89 77 
3051 77 7 
3052 7 89 
3053 77 89 
3054 89 78 
3055 78 77 
3056 78 89 
3057 89 90 
3058 90 78 
3059 78 90 
3060 90 91 
3061 91 78 
3062 91 79 
3063 79 78 
3064 78 91 
3065 79 91 
3066 91 80 
3067 80 79 
3068 80 91 
3069 91 92 
3070 92 80 
3071 80 92 
3072 92 93 
3073 93 80 
3074 93 81 
3075 81 80 
3076 80 93 
3077 81 93 
3078 93 82 
3079 82 81 
3080 82 93 
3081 93 94 
3082 94 82 
3083 82 94 
3084 94 95 
3085 95 82 
3086 95 83 
3087 83 82 
3088 82 95 
3089 83 95 
3090 95 84 
3091 84 83 
3092 84 95 
3093 95 96 
3094 96 84 
3095 84 96 
3096 96 97 
3097 97 84 
3098 97 85 
3099 85 84 
3100 84 97 
3101 85 97 
3102 97 86 
3103 86 85 
3104 86 97 
3105 97 98 
3106 98 86 
3107 86 98 
3108 98 99 
3109 99 86 
3110 99 87 
3111 87 86 
3112 86 99 
3113 87 99 
3114 99 88 
3115 88 87 
3116 88 99 
3117 99 100 
3118 100 88 
3119 88 100 
3120 100 37 
3121 37 88 
3122 37 38 
3123 38 88 
3124 88 37 
3125 8 9 
3126 9 89 
3127 89 8 
3128 89 9 
3129 9 101 
3130 101 89 
3131 89 101 
3132 101 102 
3133 102 89 
3134 102 90 
3135 90 89 
3136 89 102 
3137 90 102 
3138 102 91 
3139 91 90 
3140 91 102 
3141 102 103 
3142 103 91 
3143 91 103 
3144 103 104 
3145 104 91 
3146 104 92 
3147 92 91 
3148 91 104 
3149 92 104 
3150 104 93 
3151 93 92 
3152 93 104 
3153 104 105 
3154 105 93 
3155 93 105 
3156 105 106 
3157 106 93 
3158 106 94 
3159 94 93 
3160 93 106 
3161 94 106 
3162 106 95 
3163 95 94 
3164 95 106 
3165 106 107 
3166 107 95 
3167 95 107 
3168 107 108 
3169 108 95 
3170 108 96 
3171 96 95 
3172 95 108 
3173 96 108 
3174 108 97 
3175 97 96 
3176 97 108 
3177 108 109 
3178 109 97 
3179 97 109 
3180 109 110 
3181 110 97 
3182 110 98 
3183 98 97 
3184 97 110 
3185 98 110 
3186 110 99 
3187 99 98 
3188 99 110 
3189 110 111 
3190 111 99 
3191 99 111 
3192 111 112 
3193 112 99 
3194 112 100 
3195 100 99 
3196 99 112 
3197 100 112 
3198 112 37 
3199 37 100 
3200 37 112 
3201 112 36 
3202 36 37 
3203 9 10 
3204 10 113 
3205 113 9 
3206 113 101 
3207 101 9 
3208 9 113 
3209 101 113 
3210 113 102 
3211 102 101 
3212 102 113 
3213 113 114 
3214 114 102 
3215 102 114 
3216 114 115 
3217 115 102 
3218 115 103 
3219 103 102 
3220 102 115 
3221 103 115 
3222 115 104 
3223 104 103 
3224 104 115 
3225 115 116 
3226 116 104 
3227 104 116 
3228 116 117 
3229 117 104 
3230 117 105 
3231 105 104 
3232 104 117 
3233 105 117 
3234 117 106 
3235 106 105 
3236 106 117 
3237 117 118 
3238 118 106 
3239 106 118 
3240 118 119 
3241 119 106 
3242 119 107 
3243 107 106 
3244 106 119 
3245 107 119 
3246 119 108 
3247 108 107 
3248 108 119 
3249 119 120 
3250 120 108 
3251 108 120 
3252 120 121 
3253 121 108 
3254 121 109 
3255 109 108 
3256 108 121 
3257 109 121 
3258 121 110 
3259 110 109 
3260 110 121 
3261 121 122 
3262 122 110 
3263 110 122 
3264 122 123 
3265 123 110 
3266 123 111 
3267 111 110 
3268 110 123 
3269 111 123 
3270 123 112 
3271 112 111 
3272 112 123 
3273 123 124 
3274 124 112 
3275 112 124 
3276 124 35 
3277 35 112 
3278 35 36 
3279 36 112 
3280 112 35 
3281 10 11 
3282 11 113 
3283 113 10 
3284 113 11 
3285 11 125 
3286 125 113 
3287 113 125 
3288 125 126 
3289 126 113 
3290 126 114 
3291 114 113 
3292 113 126 
3293 114 126 
3294 126 115 
3295 115 114 
3296 115 126 
3297 126 127 
3298 127 115 
3299 115 127 
3300 127 128 
3301 128 115 
3302 128 116 
3303 116 115 
3304 115 128 
3305 116 128 
3306 128 117 
3307 117 116 
3308 117 128 
3309 128 129 
3310 129 117 
3311 117 129 
3312 129 130 
3313 130 117 
3314 130 118 
3315 118 117 
3316 117 130 
3317 118 130 
3318 130 119 
3319 119 118 
3320 119 130 
3321 130 131 
3322 131 119 
3323 119 131 
3324 131 132 
3325 132 119 
3326 132 120 
3327 120 119 
3328 119 132 
3329 120 132 
3330 132 121 
3331 121 120 
3332 121 132 
3333 132 133 
3334 133 121 
3335 121 133 
3336 133 134 
3337 134 121 
3338 134 122 
3339 122 121 
3340 121 134 
3341 122 134 
3342 134 123 
3343 123 122 
3344 123 134 
3345 134 135 
3346 135 123 
3347 123 135 
3348 135 136 
3349 136 123 
3350 136 124 
3351 124 123 
3352 123 136 
3353 124 136 
3354 136 35 
3355 35 124 
3356 35 136 
3357 136 34 
3358 34 35 
3359 11 12 
3360 12 137 
3361 137 11 
3362 137 125 
3363 125 11 
3364 11 137 
3365 125 137 
3366 137 126 
3367 126 125 
3368 126 137 
3369 137 138 
3370 138 126 
3371 126 138 
3372 138 139 
3373 139 126 
3374 139 127 
3375 127 126 
3376 126 139 
3377 127 139 
3378 139 128 
3379 128 127 
3380 128 139 
3381 139 140 
3382 140 128 
3383 128 140 
3384 140 141 
3385 141 128 
3386 141 129 
3387 129 128 
3388 128 141 
3389 129 141 
3390 141 130 
3391 130 129 
3392 130 141 
3393 141 142 
3394 142 130 
3395 130 142 
3396 142 143 
3397 143 130 
3398 143 131 
3399 131 130 
3400 130 143 
3401 131 143 
3402 143 132 
3403 132 131 
3404 132 143 
3405 143 144 
3406 144 132 
3407 132 144 
3408 144 145 
3409 145 132 
3410 145 133 
3411 133 132 
3412 132 145 
3413 133 145 
3414 145 134 
3415 134 133 
3416 134 145 
3417 145 146 
3418 146 134 
3419 134 146 
3420 146 147 
3421 147 134 
3422 147 135 
3423 135 134 
3424 134 147 
3425 135 147 
3426 147 136 
3427 136 135 
3428 136 147 
3429 147 148 
3430 148 136 
3431 136 148 
3432 148 33 
3433 33 136 
3434 33 34 
3435 34 136 
3436 136 33 
3437 12 13 
3438 13 137 
3439 137 12 
3440 137 13 
3441 13 149 
3442 149 137 
3443 137 149 
3444 149 150 
3445 150 137 
3446 150 138 
3447 138 137 
3448 137 150 
3449 138 150 
3450 150 139 
3451 139 138 
3452 139 150 
3453 150 151 
3454 151 139 
3455 139 151 
3456 151 152 
3457 152 139 
3458 152 140 
3459 140 139 
3460 139 152 
3461 140 152 
3462 152 141 
3463 141 140 
3464 141 152 
3465 152 153 
3466 153 141 
3467 141 153 
3468 153 154 
3469 154 141 
3470 154 142 
3471 142 141 
3472 141 154 
3473 142 154 
3474 154 143 
3475 143 142 
3476 143 154 
3477 154 155 
3478 155 143 
3479 143 155 
3480 155 156 
3481 156 143 
3482 156 144 
3483 144 143 
3484 143 156 
3485 144 156 
3486 156 145 
3487 145 144 
3488 145 156 
3489 156 157 
3490 157 145 
3491 145 157 
3492 157 158 
3493 158 145 
3494 158 146 
3495 146 145 
3496 145 158 
3497 146 158 
3498 158 147 
3499 147 146 
3500 147 158 
3501 158 159 
3502 159 147 
3503 147 159 
3504 159 160 
3505 160 147 
3506 160 148 
3507 148 147 
3508 147 160 
3509 148 160 
3510 160 33 
3511 33 148 
3512 33 160 
3513 160 32 
3514 32 33 
3515 13 14 
3516 14 161 
3517 161 13 
3518 161 149 
3519 149 13 
3520 13 161 
3521 149 161 
3522 161 150 
3523 150 149 
3524 150 161 
3525 161 162 
3526 162 150 
3527 150 162 
3528 162 163 
3529 163 150 
3530 163 151 
3531 151 150 
3532 150 163 
3533 151 163 
3534 163 152 
3535 152 151 
3536 152 163 
3537 163 164 
3538 164 152 
3539 152 164 
3540 164 165 
3541 165 152 
3542 165 153 
3543 153 152 
3544 152 165 
3545 153 165 
3546 165 154 
3547 154 153 
3548 154 165 
3549 165 166 
3550 166 154 
3551 154 166 
3552 166 167 
3553 167 154 
3554 167 155 
3555 155 154 
3556 154 167 
3557 155 167 
3558 167 156 
3559 156 155 
3560 156 167 
3561 167 168 
3562 168 156 
3563 156 168 
3564 168 169 
3565 169 156 
3566 169 157 
3567 157 156 
3568 156 169 
3569 157 169 
3570 169 158 
3571 158 157 
3572 158 169 
3573 169 170 
3574 170 158 
3575 158 170 
3576 170 171 
3577 171 158 
3578 171 159 
3579 159 158 
3580 158 171 
3581 159 171 
3582 171 160 
3583 160 159 
3584 160 171 
3585 171 172 
3586 172 160 
3587 160 172 
3588 172 31 
3589 31 160 
3590 31 32 
3591 32 160 
3592 160 31 
3593 14 15 
3594 15 161 
3595 161 14 
3596 161 15 
3597 15 173 
3598 173 161 
3599 161 173 
3600 173 174 
3601 174 161 
3602 174 162 
3603 162 161 
3604 161 174 
3605 162 174 
3606 174 163 
3607 163 162 
3608 163 174 
3609 174 175 
3610 175 163 
3611 163 175 
3612 175 176 
3613 176 163 
3614 176 164 
3615 164 163 
3616 163 176 
3617 164 176 
3618 176 165 
3619 165 164 
3620 165 176 
3621 176 177 
3622 177 165 
3623 165 177 
3624 177 178 
3625 178 165 
3626 178 166 
3627 166 165 
3628 165 178 
3629 166 178 
3630 178 167 
3631 167 166 
3632 167 178 
3633 178 179 
3634 179 167 
3635 167 179 
3636 179 180 
3637 180 167 
3638 180 168 
3639 168 167 
3640 167 180 
3641 168 180 
3642 180 169 
3643 169 168 
3644 169 180 
3645 180 181 
3646 181 169 
3647 169 181 
3648 181 182 
3649 182 169 
3650 182 170 
3651 170 169 
3652 169 182 
3653 170 182 
3654 182 171 
3655 171 170 
3656 171 182 
3657 182 183 
3658 183 171 
3659 171 183 
3660 183 184 
3661 184 171 
3662 184 172 
3663 172 171 
3664 171 184 
3665 172 184 
3666 184 31 
3667 31 172 
3668 31 184 
3669 184 30 
3670 30 31 
3671 15 16 
3672 16 185 
3673 185 15 
3674 185 173 
3675 173 15 
3676 15 185 
3677 173 185 
3678 185 174 
3679 174 173 
3680 174 185 
3681 185 186 
3682 186 174 
3683 174 186 
3684 186 187 
3685 187 174 
3686 187 175 
3687 175 174 
3688 174 187 
3689 175 187 
3690 187 176 
3691 176 175 
3692 176 187 
3693 187 188 
3694 188 176 
3695 176 188 
3696 188 189 
3697 189 176 
3698 189 177 
3699 177 176 
3700 176 189 
3701 177 189 
3702 189 178 
3703 178 177 
3704 178 189 
3705 189 190 
3706 190 178 
3707 178 190 
3708 190 191 
3709 191 178 
3710 191 179 
3711 179 178 
3712 178 191 
3713 179 191 
3714 191 180 
3715 180 179 
3716 180 191 
3717 191 192 
3718 192 180 
3719 180 192 
3720 192 193 
3721 193 180 
3722 193 181 
3723 181 180 
3724 180 193 
3725 181 193 
3726 193 182 
3727 182 181 
3728 182 193 
3729 193 194 
3730 194 182 
3731 182 194 
3732 194 195 
3733 195 182 
3734 195 183 
3735 183 182 
3736 182 195 
3737 183 195 
3738 195 184 
3739 184 183 
3740 184 195 
3741 195 196 
3742 196 184 
3743 184 196 
3744 196 29 
3745 29 184 
3746 29 30 
3747 30 184 
3748 184 29 
3749 16 2 
3750 2 185 
3751 185 16 
3752 185 2 
3753 2 17 
3754 17 185 
3755 185 17 
3756 17 18 
3757 18 185 
3758 18 186 
3759 186 185 
3760 185 18 
3761 186 18 
3762 18 187 
3763 187 186 
3764 187 18 
3765 18 19 
3766 19 187 
3767 187 19 
3768 19 20 
3769 20 187 
3770 20 188 
3771 188 187 
3772 187 20 
3773 188 20 
3774 20 189 
3775 189 188 
3776 189 20 
3777 20 21 
3778 21 189 
3779 189 21 
3780 21 22 
3781 22 189 
3782 22 190 
3783 190 189 
3784 189 22 
3785 190 22 
3786 22 191 
3787 191 190 
3788 191 22 
3789 22 23 
3790 23 191 
3791 191 23 
3792 23 24 
3793 24 191 
3794 24 192 
3795 192 191 
3796 191 24 
3797 192 24 
3798 24 193 
3799 193 192 
3800 193 24 
3801 24 25 
3802 25 193 
3803 193 25 
3804 25 26 
3805 26 193 
3806 26 194 
3807 194 193 
3808 193 26 
3809 194 26 
3810 26 195 
3811 195 194 
3812 195 26 
3813 26 27 
3814 27 195 
3815 195 27 
3816 27 28 
3817 28 195 
3818 28 196 
3819 196 195 
3820 195 28 
3821 196 28 
3822 28 29 
3823 29 196 
3824 29 28 
3825 28 3 
3826 3 29 
2 1 2 338
53 1 5 52 
54 52 5 53 
55 52 53 54 
56 54 51 52 
57 51 54 50 
58 50 54 55 
59 50 55 56 
60 56 49 50 
61 49 56 48 
62 48 56 57 
63 48 57 58 
64 58 47 48 
65 47 58 46 
66 46 58 59 
67 46 59 60 
68 60 45 46 
69 45 60 44 
70 44 60 61 
71 44 61 62 
72 62 43 44 
73 43 62 42 
74 42 62 63 
75 42 63 64 
76 64 41 42 
77 41 64 4 
78 4 64 40 
79 5 6 65 
80 65 53 5 
81 53 65 54 
82 54 65 66 
83 54 66 67 
84 67 55 54 
85 55 67 56 
86 56 67 68 
87 56 68 69 
88 69 57 56 
89 57 69 58 
90 58 69 70 
91 58 70 71 
92 71 59 58 
93 59 71 60 
94 60 71 72 
95 60 72 73 
96 73 61 60 
97 61 73 62 
98 62 73 74 
99 62 74 75 
100 75 63 62 
101 63 75 64 
102 64 75 76 
103 64 76 39 
104 39 40 64 
105 6 7 65 
106 65 7 77 
107 65 77 78 
108 78 66 65 
109 66 78 67 
110 67 78 79 
111 67 79 80 
112 80 68 67 
113 68 80 69 
114 69 80 81 
115 69 81 82 
116 82 70 69 
117 70 82 71 
118 71 82 83 
119 71 83 84 
120 84 72 71 
121 72 84 73 
122 73 84 85 
123 73 85 86 
124 86 74 73 
125 74 86 75 
126 75 86 87 
127 75 87 88 
128 88 76 75 
129 76 88 39 
130 39 88 38 
131 7 8 89 
132 89 77 7 
133 77 89 78 
134 78 89 90 
135 78 90 91 
136 91 79 78 
137 79 91 80 
138 80 91 92 
139 80 92 93 
140 93 81 80 
141 81 93 82 
142 82 93 94 
143 82 94 95 
144 95 83 82 
145 83 95 84 
146 84 95 96 
147 84 96 97 
148 97 85 84 
149 85 97 86 
150 86 97 98 
151 86 98 99 
152 99 87 86 
153 87 99 88 
154 88 99 100 
155 88 100 37 
156 37 38 88 
157 8 9 89 
158 89 9 101 
159 89 101 102 
160 102 90 89 
161 90 102 91 
162 91 102 103 
163 91 103 104 
164 104 92 91 
165 92 104 93 
166 93 104 105 
167 93 105 106 
168 106 94 93 
169 94 106 95 
170 95 106 107 
171 95 107 108 
172 108 96 95 
173 96 108 97 
174 97 108 109 
175 97 109 110 
176 110 98 97 
177 98 110 99 
178 99 110 111 
179 99 111 112 
180 112 100 99 
181 100 112 37 
182 37 112 36 
183 9 10 113 
184 113 101 9 
185 101 113 102 
186 102 113 114 
187 102 114 115 
188 115 103 102 
189 103 115 104 
190 104 115 116 
191 104 116 117 
192 117 105 104 
193 105 117 106 
194 106 117 118 
195 106 118 119 
196 119 107 106 
197 107 119 108 
198 108 119 120 
199 108 120 121 
200 121 109 108 
201 109 121 110 
202 110 121 122 
203 110 122 123 
204 123 111 110 
205 111 123 112 
206 112 123 124 
207 112 124 35 
208 35 36 112 
209 10 11 113 
210 113 11 125 
211 113 125 126 
212 126 114 113 
213 114 126 115 
214 115 126 127 
215 115 127 128 
216 128 116 115 
217 116 128 117 
218 117 128 129 
219 117 129 130 
220 130 118 117 
221 118 130 119 
222 119 130 131 
223 119 131 132 
224 132 120 119 
225 120 132 121 
226 121 132 133 
227 121 133 134 
228 134 122 121 
229 122 134 123 
230 123 134 135 
231 123 135 136 
232 136 124 123 
233 124 136 35 
234 35 136 34 
235 11 12 137 
236 137 125 11 
237 125 137 126 
238 126 137 138 
239 126 138 139 
240 139 127 126 
241 127 139 128 
242 128 139 140 
243 128 140 141 
244 141 129 128 
245 129 141 130 
246 130 141 142 
247 130 142 143 
248 143 131 130 
249 131 143 132 
250 132 143 144 
251 132 144 145 
252 145 133 132 
253 133 145 134 
254 134 145 146 
255 134 146 147 
256 147 135 134 
257 135 147 136 
258 136 147 148 
259 136 148 33 
260 33 34 136 
261 12 13 137 
262 137 13 149 
263 137 149 150 
264 150 138 137 
265 138 150 139 
266 139 150 151 
267 139 151 152 
268 152 140 139 
269 140 152 141 
270 141 152 153 
271 141 153 154 
272 154 142 141 
273 142 154 143 
274 143 154 155 
275 143 155 156 
276 156 144 143 
277 144 156 145 
278 145 156 157 
279 145 157 158 
280 158 146 145 
281 146 158 147 
282 147 158 159 
283 147 159 160 
284 160 148 147 
285 148 160 33 
286 33 160 32 
287 13 14 161 
288 161 149 13 
289 149 161 150 
290 150 161 162 
291 150 162 163 
292 163 151 150 
293 151 163 152 
294 152 163 164 
295 152 164 165 
296 165 153 152 
297 153 165 154 
298 154 165 166 
299 154 166 167 
300 167 155 154 
301 155 167 156 
302 156 167 168 
303 156 168 169 
304 169 157 156 
305 157 169 158 
306 158 169 170 
307 158 170 171 
308 171 159 158 
309 159 171 160 
310 160 171 172 
311 160 172 31 
312 31 32 160 
313 14 15 161 
314 161 15 173 
315 161 173 174 
316 174 162 161 
317 162 174 163 
318 163 174 175 
319 163 175 176 
320 176 164 163 
321 164 176 165 
322 165 176 177 
323 165 177 178 
324 178 166 165 
325 166 178 167 
326 167 178 179 
327 167 179 180 
328 180 168 167 
329 168 180 169 
330 169 180 181 
331 169 181 182 
332 182 170 169 
333 170 182 171 
334 171 182 183 
335 171 183 184 
336 184 172 171 
337 172 184 31 
338 31 184 30 
339 15 16 185 
340 185 173 15 
341 173 185 174 
342 174 185 186 
343 174 186 187 
344 187 175 174 
345 175 187 176 
346 176 187 188 
347 176 188 189 
348 189 177 176 
349 177 189 178 
350 178 189 190 
351 178 190 191 
352 191 179 178 
353 179 191 180 
354 180 191 192 
355 180 192 193 
356 193 181 180 
357 181 193 182 
358 182 193 194 
359 182 194 195 
360 195 183 182 
361 183 195 184 
362 184 195 196 
363 184 196 29 
364 29 30 184 
365 16 2 185 
366 185 2 17 
367 185 17 18 
368 18 186 185 
369 186 18 187 
370 187 18 19 
371 187 19 20 
372 20 188 187 
373 188 20 189 
374 189 20 21 
375 189 21 22 
376 22 190 189 
377 190 22 191 
378 191 22 23 
379 191 23 24 
380 24 192 191 
381 192 24 193 
382 193 24 25 
383 193 25 26 
384 26 194 193 
385 194 26 195 
386 195 26 27 
387 195 27 28 
388 28 196 195 
389 196 28 29 
390 29 28 3 
$EndElements
