$MeshFormat
4.1 0 8
$EndMeshFormat
$PhysicalNames
6
1 1 "Γ¹"
1 2 "Γ²"
1 3 "Γ³"
1 4 "Γ⁴"
1 6 "Γ"
2 5 "Ω"
$EndPhysicalNames
$Entities
4 5 1 0
1 0 0 0 0 
2 1 0 0 0 
3 1 1 0 0 
4 0 1 0 0 
1 0 0 0 1 0 0 1 1 2 1 -2 
2 1 0 0 1 1 0 1 2 2 2 -3 
3 0 1 0 1 1 0 1 3 2 3 -4 
4 0 0 0 0 1 0 1 4 2 4 -1 
5 0 0 0 1 1 0 1 6 0 
1 0 0 0 1 1 0 1 5 4 1 2 3 4 
$EndEntities
$Nodes
10 254 1 254
0 1 0 1
1
0 0 0
0 2 0 1
2
1 0 0
0 3 0 1
3
1 1 0
0 4 0 1
4
0 1 0
1 1 0 13
5
6
7
8
9
10
11
12
13
14
15
16
17
0.07142857142842965 0 0
0.1428571428568672 0 0
0.2142857142852305 0 0
0.2857142857135938 0 0
0.357142857141957 0 0
0.4285714285703204 0 0
0.4999999999986945 0 0
0.5714285714274432 0 0
0.6428571428562027 0 0
0.7142857142849621 0 0
0.7857142857137216 0 0
0.8571428571424811 0 0
0.9285714285712405 0 0
1 2 0 13
18
19
20
21
22
23
24
25
26
27
28
29
30
1 0.07142857142842965 0
1 0.1428571428568672 0
1 0.2142857142852305 0
1 0.2857142857135938 0
1 0.357142857141957 0
1 0.4285714285703204 0
1 0.4999999999986945 0
1 0.5714285714274432 0
1 0.6428571428562027 0
1 0.7142857142849621 0
1 0.7857142857137216 0
1 0.8571428571424811 0
1 0.9285714285712405 0
1 3 0 13
31
32
33
34
35
36
37
38
39
40
41
42
43
0.9285714285711311 1 0
0.8571428571424603 1 0
0.7857142857143843 1 0
0.7142857142863082 1 0
0.6428571428582324 1 0
0.5714285714301566 1 0
0.5000000000020592 1 0
0.4285714285732121 1 0
0.3571428571443435 1 0
0.2857142857154747 1 0
0.214285714286606 1 0
0.1428571428577373 1 0
0.0714285714288686 1 0
1 4 0 13
44
45
46
47
48
49
50
51
52
53
54
55
56
0 0.9285714285711311 0
0 0.8571428571424603 0
0 0.7857142857143843 0
0 0.7142857142863082 0
0 0.6428571428582324 0
0 0.5714285714301566 0
0 0.5000000000020592 0
0 0.4285714285732121 0
0 0.3571428571443435 0
0 0.2857142857154747 0
0 0.214285714286606 0
0 0.1428571428577373 0
0 0.0714285714288686 0
1 5 0 0
2 1 0 198
57
58
59
60
61
62
63
64
65
66
67
68
69
70
71
72
73
74
75
76
77
78
79
80
81
82
83
84
85
86
87
88
89
90
91
92
93
94
95
96
97
98
99
100
101
102
103
104
105
106
107
108
109
110
111
112
113
114
115
116
117
118
119
120
121
122
123
124
125
126
127
128
129
130
131
132
133
134
135
136
137
138
139
140
141
142
143
144
145
146
147
148
149
150
151
152
153
154
155
156
157
158
159
160
161
162
163
164
165
166
167
168
169
170
171
172
173
174
175
176
177
178
179
180
181
182
183
184
185
186
187
188
189
190
191
192
193
194
195
196
197
198
199
200
201
202
203
204
205
206
207
208
209
210
211
212
213
214
215
216
217
218
219
220
221
222
223
224
225
226
227
228
229
230
231
232
233
234
235
236
237
238
239
240
241
242
243
244
245
246
247
248
249
250
251
252
253
254
0.9321565903557063 0.9344905850029084 0
0.9318383467552472 0.8686438664932096 0
0.06691787887798062 0.3300895304553207 0
0.1144522649356603 0.310001345195881 0
0.1518847243568109 0.3385058188080356 0
0.1878329729509696 0.2763691531327191 0
0.3298706405250831 0.9326651921806968 0
0.3095946414884908 0.8848359517802862 0
0.3372292199562039 0.8468899292137021 0
0.275666628379486 0.8109612301807078 0
0.9278901622827002 0.6723036483708672 0
0.8614632055416834 0.6892769966157289 0
0.8593235675651376 0.6422663137012963 0
0.7967189157882372 0.6927701046686319 0
0.6697684843765387 0.0673703060728586 0
0.6892969394725968 0.1150123385698164 0
0.6609149043497539 0.1521734213931181 0
0.7191326266745626 0.1865021001974176 0
0.6507735953245996 0.5031826878817827 0
0.5596065236558035 0.4708589269808411 0
0.6159128571596849 0.4350639607996882 0
0.5893454895200528 0.5330845941762914 0
0.5100477376939903 0.3656669805197358 0
0.471483216294482 0.4395202234553229 0
0.4415890890931312 0.3637615014178341 0
0.5302605586726364 0.4100903930076188 0
0.4872637297510423 0.6350046454995861 0
0.525990045383091 0.5618258392299973 0
0.5521001326797071 0.6365073152394162 0
0.4678634975378915 0.5914419276871422 0
0.3564358042165135 0.512078055659549 0
0.4407105934522586 0.5332948307132387 0
0.3863731479268561 0.5714772435356112 0
0.4096360979156791 0.4736341953492041 0
0.8636629553590496 0.9382276478529857 0
0.8643013738446279 0.8769277913967042 0
0.8007629196883651 0.8837582631190621 0
0.797575404531602 0.9408676491706371 0
0.06501042718450219 0.2653270777324642 0
0.0649122985398442 0.1957580880950147 0
0.1264149651560617 0.2609304588103108 0
0.1171581680588651 0.1045967158910751 0
0.1427202863793753 0.1811354905448163 0
0.2652258902652397 0.9347930707179921 0
0.1957252593301777 0.9350155699013596 0
0.2606252282103801 0.8730915987882756 0
0.1046132416824541 0.8828400017693611 0
0.1811465276122934 0.8571699932419512 0
0.7345436539736664 0.06680765836982802 0
0.8044955905105033 0.06800358362745978 0
0.7368728691838939 0.1288018741271562 0
0.8974556118796566 0.1187984021338183 0
0.8206469032316794 0.1590874580150649 0
0.9296580897217652 0.736171565748767 0
0.9303105930875541 0.8021092594532178 0
0.8617643278913544 0.7506765891081757 0
0.8627514895961569 0.8139521213775004 0
0.1325912518128066 0.7994518884976284 0
0.07664576092487993 0.8269418402247437 0
0.884595476306191 0.1886600504165586 0
0.9265844146734306 0.1703789130825942 0
0.2008555237538945 0.1324799288276723 0
0.1731813787211231 0.0766445238238945 0
0.05873073683481803 0.8956749012151081 0
0.06280051171905159 0.9394557390108725 0
0.1043330770678039 0.05872866813978009 0
0.0605427783839393 0.06280016031016786 0
0.9422725681563151 0.1043956213031582 0
0.9377146861893895 0.06076558392425706 0
0.7548301503414938 0.8909507377918946 0
0.7374911216087912 0.9369484885940202 0
0.6822616689632033 0.9261609873931299 0
0.7246937005764197 0.8398762553343628 0
0.8946969175868662 0.2362002621770686 0
0.9600408653277737 0.2713125489537106 0
0.9276855255233714 0.313464162372066 0
0.8510606360899744 0.3129882599249562 0
0.1051332995861859 0.7449615153594958 0
0.03956880798642979 0.7240441936693345 0
0.0694236808600697 0.6757104773813061 0
0.1594226772851403 0.724325332455628 0
0.2566571610874978 0.1058483295778599 0
0.2761400614158439 0.03968035069715926 0
0.3267978980599255 0.06922675713517255 0
0.2771594807048082 0.1615818186299406 0
0.9477495909625516 0.2253615610477481 0
0.05372332369079061 0.7686247218350232 0
0.2318321797893306 0.05381702467452204 0
0.06067775418617993 0.1275117757037739 0
0.1275094204939683 0.9393029349584923 0
0.8731436341219355 0.06270247831773477 0
0.09145601129592251 0.4063201907855429 0
0.1694834175310243 0.4418405871975635 0
0.073379776444709 0.49356925804984 0
0.5939250292562152 0.09179678301194248 0
0.5637745089778791 0.1707104396942444 0
0.506887444701702 0.0716444244571279 0
0.4053497008154836 0.9079095601850172 0
0.4346902929604086 0.8290916622384296 0
0.4927016009752067 0.9280402188243344 0
0.9066023968605597 0.6149261649416197 0
0.8611858463235509 0.5652020184246602 0
0.9097119408081524 0.5203563912601363 0
0.4174082992429012 0.6294010083725916 0
0.4580677968376693 0.6756370106262253 0
0.2011891573043407 0.5369540892950984 0
0.2561227651938977 0.5724666171947761 0
0.1794082844332316 0.5822651455034096 0
0.1691474733923158 0.7725604031151028 0
0.218025132744345 0.6383452055210825 0
0.6231141995205453 0.5946703192254004 0
0.6875999957255592 0.5681382609231259 0
0.581111922876606 0.3731199571591172 0
0.5394909042811548 0.3251418207469543 0
0.3695244422509527 0.4169316193692632 0
0.3187064568404041 0.4637558098513965 0
0.797771071241666 0.8234020818948684 0
0.2111834435994497 0.2132682279482322 0
0.2749085181176072 0.2240850660992808 0
0.3214295797087943 0.6070102058023771 0
0.2128797719912848 0.7881516966868763 0
0.2214209436912279 0.7222470616917054 0
0.8357872138325287 0.2453148555019443 0
0.2811816710969416 0.6593948954345311 0
0.7965621266373792 0.7583033667758038 0
0.7339466693064969 0.7605481629307073 0
0.3708497484732456 0.3133436121082724 0
0.7651771419850271 0.2041792015705957 0
0.7720790778155376 0.2552282828242042 0
0.2278395469174231 0.1693810804016537 0
0.3284397644178015 0.2814863695788544 0
0.4057069099105937 0.2535123961361712 0
0.3411412062921291 0.2319072043002575 0
0.66983604445198 0.391168621133775 0
0.7264093379912436 0.3465807481238679 0
0.7649400207856835 0.4012856108955631 0
0.8015217071039344 0.3658357124478079 0
0.6040763411947818 0.6748488878454797 0
0.06450313982735034 0.6098887635602016 0
0.141565607065491 0.6573312006565566 0
0.6057495197020779 0.9384153759628333 0
0.6160119161467555 0.8536030978947442 0
0.6592306464387032 0.7987562266747721 0
0.6732923833362894 0.7120409864325278 0
0.6042176129468089 0.7401736243762016 0
0.9327859348206959 0.398966642115672 0
0.86631692486614 0.3789562130260784 0
0.4543931297484018 0.7667821264369243 0
0.3728576467719846 0.786967070773756 0
0.3935005294056655 0.06080046544174859 0
0.3620937596544461 0.1525486488660939 0
0.7525506430633317 0.5442774545548715 0
0.7991416566286293 0.6157021006767021 0
0.230566325938214 0.4775914727844463 0
0.2109441897500953 0.3768574276002358 0
0.543409767339891 0.2341708548939163 0
0.6246875900373765 0.2119813769308914 0
0.4993798819400403 0.5014531516901838 0
0.7876330908584709 0.3203343252606209 0
0.6881690966153953 0.7574580517799161 0
0.9322455376491467 0.4656302810297407 0
0.5427173234528401 0.9391071259605172 0
0.6941780353506654 0.2651524716797281 0
0.6307526915688766 0.3258491838755714 0
0.7326174128186032 0.6972335194143644 0
0.3204852958498791 0.5416781904197083 0
0.265416548979557 0.3039292607832351 0
0.3201160524145304 0.3655482062685988 0
0.4567258007589544 0.06049534115875286 0
0.06524246723451255 0.5444148905203845 0
0.3025496562894088 0.7290537496614328 0
0.367082280128095 0.6746659839967667 0
0.5714124552996321 0.902782381301498 0
0.5625243470315483 0.8068138015874663 0
0.5091605241417223 0.8562593649577493 0
0.1165768410624314 0.5807309826257046 0
0.1407530043393028 0.5091374458431784 0
0.4252144583223904 0.09748244671034399 0
0.4346091738697303 0.1950092323138197 0
0.4895926982408813 0.1435055215859974 0
0.8855549945868189 0.4451176858239169 0
0.8121583282913302 0.4395194353229144 0
0.8568783591698779 0.4777439212781068 0
0.4812300709657919 0.276123656270045 0
0.2832225353987685 0.5150763734099837 0
0.4749708534274687 0.2195110229102785 0
0.7169588573778096 0.6333335437392553 0
0.7083460612982311 0.4755544792568432 0
0.5240949581309439 0.7794362955699774 0
0.5163842719337216 0.7224056208709551 0
0.6517262705541194 0.6550582196981765 0
0.7819553274001254 0.4763249812299699 0
0.8113420037563718 0.5151589127198867 0
0.4998530562368969 0.2036321941473425 0
0.4984539638540609 0.7962574118949843 0
0.4142428301143396 0.7271480208951673 0
0.5834982458258475 0.2727354348622295 0
0.2700938611838616 0.4197482688303337 0
$EndNodes
$Elements
6 1181 1 4417
1 1 1 14
1 1 5 
2 5 6 
3 6 7 
4 7 8 
5 8 9 
6 9 10 
7 10 11 
8 11 12 
9 12 13 
10 13 14 
11 14 15 
12 15 16 
13 16 17 
14 17 2 
1 2 1 14
15 2 18 
16 18 19 
17 19 20 
18 20 21 
19 21 22 
20 22 23 
21 23 24 
22 24 25 
23 25 26 
24 26 27 
25 27 28 
26 28 29 
27 29 30 
28 30 3 
1 3 1 14
29 3 31 
30 31 32 
31 32 33 
32 33 34 
33 34 35 
34 35 36 
35 36 37 
36 37 38 
37 38 39 
38 39 40 
39 40 41 
40 41 42 
41 42 43 
42 43 4 
1 4 1 14
43 4 44 
44 44 45 
45 45 46 
46 46 47 
47 47 48 
48 48 49 
49 49 50 
50 50 51 
51 51 52 
52 52 53 
53 53 54 
54 54 55 
55 55 56 
56 56 1 
1 5 1 900
3518 57 58 
3519 58 29 
3520 29 30 
3521 30 57 
3522 77 75 
3523 75 78 
3524 78 76 
3525 76 77 
3526 81 79 
3527 79 82 
3528 82 80 
3529 80 81 
3530 85 83 
3531 83 86 
3532 86 84 
3533 84 85 
3534 89 87 
3535 87 90 
3536 90 88 
3537 88 89 
3538 92 91 
3539 91 94 
3540 94 93 
3541 93 92 
3542 95 96 
3543 96 99 
3544 99 97 
3545 97 95 
3546 100 101 
3547 101 104 
3548 104 102 
3549 102 100 
3550 105 106 
3551 106 109 
3552 109 107 
3553 107 105 
3554 110 111 
3555 111 113 
3556 113 112 
3557 112 110 
3558 57 31 
3559 31 32 
3560 32 91 
3561 91 57 
3562 115 114 
3563 114 104 
3564 104 103 
3565 103 115 
3566 117 116 
3567 116 109 
3568 109 108 
3569 108 117 
3570 119 118 
3571 118 99 
3572 99 98 
3573 98 119 
3574 45 115 
3575 115 103 
3576 103 120 
3577 120 45 
3578 6 119 
3579 119 98 
3580 98 122 
3581 122 6 
3582 19 117 
3583 117 108 
3584 108 124 
3585 124 19 
3586 127 128 
3587 128 129 
3588 129 126 
3589 126 127 
3590 130 116 
3591 116 117 
3592 117 142 
3593 142 130 
3594 134 114 
3595 114 115 
3596 115 143 
3597 143 134 
3598 138 118 
3599 118 119 
3600 119 144 
3601 144 138 
3602 145 96 
3603 96 54 
3604 54 55 
3605 55 145 
3606 146 101 
3607 101 41 
3608 41 42 
3609 42 146 
3610 147 106 
3611 106 15 
3612 15 16 
3613 16 147 
3614 58 111 
3615 111 28 
3616 28 29 
3617 29 58 
3618 104 101 
3619 101 146 
3620 146 103 
3621 103 104 
3622 120 103 
3623 103 146 
3624 146 121 
3625 121 120 
3626 109 106 
3627 106 147 
3628 147 108 
3629 108 109 
3630 124 108 
3631 108 147 
3632 147 125 
3633 125 124 
3634 99 96 
3635 96 145 
3636 145 98 
3637 98 99 
3638 122 98 
3639 98 145 
3640 145 123 
3641 123 122 
3642 117 19 
3643 19 20 
3644 20 142 
3645 142 117 
3646 115 45 
3647 45 46 
3648 46 143 
3649 143 115 
3650 119 6 
3651 6 7 
3652 7 144 
3653 144 119 
3654 91 32 
3655 32 33 
3656 33 94 
3657 94 91 
3658 113 111 
3659 111 58 
3660 58 92 
3661 92 113 
3662 92 58 
3663 58 57 
3664 57 91 
3665 91 92 
3666 43 4 
3667 4 44 
3668 44 121 
3669 121 43 
3670 17 2 
3671 2 18 
3672 18 125 
3673 125 17 
3674 56 1 
3675 1 5 
3676 5 123 
3677 123 56 
3678 53 54 
3679 54 96 
3680 96 95 
3681 95 53 
3682 40 41 
3683 41 101 
3684 101 100 
3685 100 40 
3686 123 145 
3687 145 55 
3688 55 56 
3689 56 123 
3690 111 110 
3691 110 27 
3692 27 28 
3693 28 111 
3694 121 146 
3695 146 42 
3696 42 43 
3697 43 121 
3698 125 147 
3699 147 16 
3700 16 17 
3701 17 125 
3702 106 105 
3703 105 14 
3704 14 15 
3705 15 106 
3706 31 57 
3707 57 30 
3708 30 3 
3709 3 31 
3710 34 127 
3711 127 94 
3712 94 33 
3713 33 34 
3714 93 94 
3715 94 127 
3716 127 126 
3717 126 93 
3718 21 131 
3719 131 142 
3720 142 20 
3721 20 21 
3722 132 130 
3723 130 142 
3724 142 131 
3725 131 132 
3726 47 135 
3727 135 143 
3728 143 46 
3729 46 47 
3730 136 134 
3731 134 143 
3732 143 135 
3733 135 136 
3734 8 139 
3735 139 144 
3736 144 7 
3737 7 8 
3738 140 138 
3739 138 144 
3740 144 139 
3741 139 140 
3742 161 160 
3743 160 86 
3744 86 83 
3745 83 161 
3746 135 47 
3747 47 48 
3748 48 136 
3749 136 135 
3750 162 163 
3751 163 166 
3752 166 164 
3753 164 162 
3754 168 167 
3755 167 78 
3756 78 75 
3757 75 168 
3758 170 169 
3759 169 82 
3760 82 79 
3761 79 170 
3762 127 34 
3763 34 35 
3764 35 128 
3765 128 127 
3766 172 171 
3767 171 90 
3768 90 87 
3769 87 172 
3770 131 21 
3771 21 22 
3772 22 132 
3773 132 131 
3774 132 133 
3775 133 179 
3776 179 130 
3777 130 132 
3778 123 5 
3779 5 6 
3780 6 122 
3781 122 123 
3782 176 180 
3783 180 166 
3784 166 163 
3785 163 176 
3786 139 8 
3787 8 9 
3788 9 140 
3789 140 139 
3790 125 18 
3791 18 19 
3792 19 124 
3793 124 125 
3794 95 59 
3795 59 52 
3796 52 53 
3797 53 95 
3798 137 165 
3799 165 114 
3800 114 134 
3801 134 137 
3802 183 187 
3803 187 189 
3804 189 188 
3805 188 183 
3806 100 63 
3807 63 39 
3808 39 40 
3809 40 100 
3810 129 173 
3811 173 93 
3812 93 126 
3813 126 129 
3814 92 93 
3815 93 173 
3816 173 113 
3817 113 92 
3818 110 67 
3819 67 26 
3820 26 27 
3821 27 110 
3822 130 179 
3823 179 109 
3824 109 116 
3825 116 130 
3826 121 44 
3827 44 45 
3828 45 120 
3829 120 121 
3830 105 71 
3831 71 13 
3832 13 14 
3833 14 105 
3834 141 186 
3835 186 118 
3836 118 138 
3837 138 141 
3838 61 60 
3839 60 97 
3840 97 62 
3841 62 61 
3842 65 64 
3843 64 102 
3844 102 66 
3845 66 65 
3846 68 112 
3847 112 181 
3848 181 70 
3849 70 68 
3850 73 72 
3851 72 107 
3852 107 74 
3853 74 73 
3854 62 97 
3855 97 99 
3856 99 174 
3857 174 62 
3858 118 186 
3859 186 174 
3860 174 99 
3861 99 118 
3862 59 95 
3863 95 97 
3864 97 60 
3865 60 59 
3866 136 48 
3867 48 49 
3868 49 195 
3869 195 136 
3870 196 166 
3871 166 178 
3872 178 137 
3873 137 196 
3874 66 102 
3875 102 104 
3876 104 177 
3877 177 66 
3878 114 165 
3879 165 177 
3880 177 104 
3881 104 114 
3882 63 100 
3883 100 102 
3884 102 64 
3885 64 63 
3886 128 35 
3887 35 36 
3888 36 197 
3889 197 128 
3890 112 113 
3891 113 173 
3892 173 181 
3893 181 112 
3894 67 110 
3895 110 112 
3896 112 68 
3897 68 67 
3898 132 22 
3899 22 23 
3900 23 202 
3901 202 132 
3902 74 107 
3903 107 109 
3904 109 184 
3905 184 74 
3906 71 105 
3907 105 107 
3908 107 72 
3909 72 71 
3910 154 65 
3911 65 205 
3912 205 155 
3913 155 154 
3914 140 9 
3915 9 10 
3916 10 206 
3917 206 140 
3918 207 189 
3919 189 175 
3920 175 141 
3921 141 207 
3922 137 178 
3923 178 177 
3924 177 165 
3925 165 137 
3926 134 136 
3927 136 196 
3928 196 137 
3929 137 134 
3930 157 69 
3931 69 209 
3932 209 158 
3933 158 157 
3934 129 182 
3935 182 181 
3936 181 173 
3937 173 129 
3938 199 129 
3939 129 128 
3940 128 198 
3941 198 199 
3942 148 61 
3943 61 211 
3944 211 149 
3945 149 148 
3946 109 179 
3947 179 185 
3948 185 184 
3949 184 109 
3950 151 73 
3951 73 213 
3952 213 152 
3953 152 151 
3954 86 88 
3955 88 214 
3956 214 84 
3957 84 86 
3958 202 203 
3959 203 133 
3960 133 132 
3961 132 202 
3962 78 84 
3963 84 214 
3964 214 76 
3965 76 78 
3966 90 80 
3967 80 214 
3968 214 88 
3969 88 90 
3970 82 76 
3971 76 214 
3972 214 80 
3973 80 82 
3974 203 193 
3975 193 215 
3976 215 133 
3977 133 203 
3978 141 175 
3979 175 174 
3980 174 186 
3981 186 141 
3982 138 140 
3983 140 207 
3984 207 141 
3985 141 138 
3986 192 191 
3987 191 215 
3988 215 193 
3989 193 192 
3990 179 133 
3991 133 215 
3992 215 185 
3993 185 179 
3994 201 200 
3995 200 216 
3996 216 199 
3997 199 201 
3998 199 216 
3999 216 182 
4000 182 129 
4001 129 199 
4002 202 23 
4003 23 24 
4004 24 217 
4005 217 202 
4006 67 157 
4007 157 25 
4008 25 26 
4009 26 67 
4010 63 154 
4011 154 38 
4012 38 39 
4013 39 63 
4014 71 151 
4015 151 12 
4016 12 13 
4017 13 71 
4018 59 148 
4019 148 51 
4020 51 52 
4021 52 59 
4022 198 229 
4023 229 231 
4024 231 230 
4025 230 198 
4026 207 234 
4027 234 236 
4028 236 235 
4029 235 207 
4030 203 237 
4031 237 239 
4032 239 238 
4033 238 203 
4034 81 183 
4035 183 188 
4036 188 240 
4037 240 81 
4038 70 221 
4039 221 243 
4040 243 209 
4041 209 70 
4042 198 230 
4043 230 201 
4044 201 199 
4045 199 198 
4046 154 155 
4047 155 231 
4048 231 156 
4049 156 154 
4050 148 149 
4051 149 233 
4052 233 150 
4053 150 148 
4054 240 188 
4055 188 235 
4056 235 242 
4057 242 240 
4058 136 195 
4059 195 232 
4060 232 196 
4061 196 136 
4062 49 226 
4063 226 232 
4064 232 195 
4065 195 49 
4066 87 89 
4067 89 176 
4068 176 222 
4069 222 87 
4070 149 210 
4071 210 162 
4072 162 233 
4073 233 149 
4074 192 193 
4075 193 203 
4076 203 238 
4077 238 192 
4078 241 222 
4079 222 176 
4080 176 163 
4081 163 241 
4082 140 206 
4083 206 234 
4084 234 207 
4085 207 140 
4086 159 158 
4087 158 249 
4088 249 239 
4089 239 159 
4090 10 225 
4091 225 234 
4092 234 206 
4093 206 10 
4094 36 37 
4095 37 156 
4096 156 218 
4097 218 36 
4098 151 152 
4099 152 236 
4100 236 153 
4101 153 151 
4102 234 225 
4103 225 153 
4104 153 236 
4105 236 234 
4106 25 159 
4107 159 217 
4108 217 24 
4109 24 25 
4110 10 11 
4111 11 153 
4112 153 225 
4113 225 10 
4114 81 171 
4115 171 224 
4116 224 183 
4117 183 81 
4118 244 248 
4119 248 249 
4120 249 208 
4121 208 244 
4122 77 169 
4123 169 220 
4124 220 190 
4125 190 77 
4126 156 231 
4127 231 229 
4128 229 218 
4129 218 156 
4130 128 197 
4131 197 229 
4132 229 198 
4133 198 128 
4134 85 167 
4135 167 247 
4136 247 194 
4137 194 85 
4138 36 218 
4139 218 229 
4140 229 197 
4141 197 36 
4142 89 160 
4143 160 228 
4144 228 176 
4145 176 89 
4146 60 61 
4147 61 148 
4148 148 59 
4149 59 60 
4150 210 241 
4151 241 163 
4152 163 162 
4153 162 210 
4154 191 192 
4155 192 244 
4156 244 190 
4157 190 191 
4158 209 208 
4159 208 249 
4160 249 158 
4161 158 209 
4162 159 239 
4163 239 237 
4164 237 217 
4165 217 159 
4166 203 202 
4167 202 217 
4168 217 237 
4169 237 203 
4170 167 85 
4171 85 84 
4172 84 78 
4173 78 167 
4174 148 150 
4175 150 50 
4176 50 51 
4177 51 148 
4178 169 77 
4179 77 76 
4180 76 82 
4181 82 169 
4182 160 89 
4183 89 88 
4184 88 86 
4185 86 160 
4186 171 81 
4187 81 80 
4188 80 90 
4189 90 171 
4190 177 178 
4191 178 227 
4192 227 66 
4193 66 177 
4194 243 221 
4195 221 200 
4196 200 247 
4197 247 243 
4198 181 182 
4199 182 221 
4200 221 70 
4201 70 181 
4202 216 200 
4203 200 221 
4204 221 182 
4205 182 216 
4206 201 194 
4207 194 247 
4208 247 200 
4209 200 201 
4210 174 175 
4211 175 223 
4212 223 62 
4213 62 174 
4214 223 187 
4215 187 183 
4216 183 224 
4217 224 223 
4218 189 187 
4219 187 223 
4220 223 175 
4221 175 189 
4222 190 220 
4223 220 219 
4224 219 191 
4225 191 190 
4226 227 178 
4227 178 166 
4228 166 180 
4229 180 227 
4230 227 180 
4231 180 176 
4232 176 228 
4233 228 227 
4234 184 185 
4235 185 219 
4236 219 74 
4237 74 184 
4238 215 191 
4239 191 219 
4240 219 185 
4241 185 215 
4242 219 213 
4243 213 73 
4244 73 74 
4245 74 219 
4246 238 239 
4247 239 249 
4248 249 248 
4249 248 238 
4250 190 244 
4251 244 75 
4252 75 77 
4253 77 190 
4254 208 168 
4255 168 75 
4256 75 244 
4257 244 208 
4258 68 70 
4259 70 209 
4260 209 69 
4261 69 68 
4262 85 246 
4263 246 161 
4264 161 83 
4265 83 85 
4266 223 211 
4267 211 61 
4268 61 62 
4269 62 223 
4270 240 242 
4271 242 250 
4272 250 212 
4273 212 240 
4274 230 245 
4275 245 246 
4276 246 201 
4277 201 230 
4278 236 152 
4279 152 212 
4280 212 250 
4281 250 236 
4282 227 205 
4283 205 65 
4284 65 66 
4285 66 227 
4286 85 194 
4287 194 201 
4288 201 246 
4289 246 85 
4290 188 189 
4291 189 207 
4292 207 235 
4293 235 188 
4294 250 242 
4295 242 235 
4296 235 236 
4297 236 250 
4298 81 240 
4299 240 170 
4300 170 79 
4301 79 81 
4302 68 69 
4303 69 157 
4304 157 67 
4305 67 68 
4306 158 159 
4307 159 25 
4308 25 157 
4309 157 158 
4310 246 245 
4311 245 251 
4312 251 204 
4313 204 246 
4314 222 241 
4315 241 172 
4316 172 87 
4317 87 222 
4318 232 164 
4319 164 166 
4320 166 196 
4321 196 232 
4322 232 233 
4323 233 162 
4324 162 164 
4325 164 232 
4326 49 50 
4327 50 150 
4328 150 226 
4329 226 49 
4330 232 226 
4331 226 150 
4332 150 233 
4333 233 232 
4334 64 65 
4335 65 154 
4336 154 63 
4337 63 64 
4338 37 38 
4339 38 154 
4340 154 156 
4341 156 37 
4342 238 248 
4343 248 244 
4344 244 192 
4345 192 238 
4346 231 155 
4347 155 204 
4348 204 251 
4349 251 231 
4350 72 73 
4351 73 151 
4352 151 71 
4353 71 72 
4354 11 12 
4355 12 151 
4356 151 153 
4357 153 11 
4358 160 161 
4359 161 252 
4360 252 228 
4361 228 160 
4362 155 205 
4363 205 252 
4364 252 204 
4365 204 155 
4366 246 204 
4367 204 252 
4368 252 161 
4369 161 246 
4370 227 228 
4371 228 252 
4372 252 205 
4373 205 227 
4374 169 170 
4375 170 253 
4376 253 220 
4377 220 169 
4378 152 213 
4379 213 253 
4380 253 212 
4381 212 152 
4382 240 212 
4383 212 253 
4384 253 170 
4385 170 240 
4386 219 220 
4387 220 253 
4388 253 213 
4389 213 219 
4390 167 168 
4391 168 243 
4392 243 247 
4393 247 167 
4394 209 243 
4395 243 168 
4396 168 208 
4397 208 209 
4398 230 231 
4399 231 251 
4400 251 245 
4401 245 230 
4402 171 172 
4403 172 254 
4404 254 224 
4405 224 171 
4406 149 211 
4407 211 254 
4408 254 210 
4409 210 149 
4410 241 210 
4411 210 254 
4412 254 172 
4413 172 241 
4414 223 224 
4415 224 254 
4416 254 211 
4417 211 223 
2 1 3 225
57 57 58 29 30 
58 77 75 78 76 
59 81 79 82 80 
60 85 83 86 84 
61 89 87 90 88 
62 92 91 94 93 
63 95 96 99 97 
64 100 101 104 102 
65 105 106 109 107 
66 110 111 113 112 
67 57 31 32 91 
68 115 114 104 103 
69 117 116 109 108 
70 119 118 99 98 
71 45 115 103 120 
72 6 119 98 122 
73 19 117 108 124 
74 127 128 129 126 
75 130 116 117 142 
76 134 114 115 143 
77 138 118 119 144 
78 145 96 54 55 
79 146 101 41 42 
80 147 106 15 16 
81 58 111 28 29 
82 104 101 146 103 
83 120 103 146 121 
84 109 106 147 108 
85 124 108 147 125 
86 99 96 145 98 
87 122 98 145 123 
88 117 19 20 142 
89 115 45 46 143 
90 119 6 7 144 
91 91 32 33 94 
92 113 111 58 92 
93 92 58 57 91 
94 43 4 44 121 
95 17 2 18 125 
96 56 1 5 123 
97 53 54 96 95 
98 40 41 101 100 
99 123 145 55 56 
100 111 110 27 28 
101 121 146 42 43 
102 125 147 16 17 
103 106 105 14 15 
104 31 57 30 3 
105 34 127 94 33 
106 93 94 127 126 
107 21 131 142 20 
108 132 130 142 131 
109 47 135 143 46 
110 136 134 143 135 
111 8 139 144 7 
112 140 138 144 139 
113 161 160 86 83 
114 135 47 48 136 
115 162 163 166 164 
116 168 167 78 75 
117 170 169 82 79 
118 127 34 35 128 
119 172 171 90 87 
120 131 21 22 132 
121 132 133 179 130 
122 123 5 6 122 
123 176 180 166 163 
124 139 8 9 140 
125 125 18 19 124 
126 95 59 52 53 
127 137 165 114 134 
128 183 187 189 188 
129 100 63 39 40 
130 129 173 93 126 
131 92 93 173 113 
132 110 67 26 27 
133 130 179 109 116 
134 121 44 45 120 
135 105 71 13 14 
136 141 186 118 138 
137 61 60 97 62 
138 65 64 102 66 
139 68 112 181 70 
140 73 72 107 74 
141 62 97 99 174 
142 118 186 174 99 
143 59 95 97 60 
144 136 48 49 195 
145 196 166 178 137 
146 66 102 104 177 
147 114 165 177 104 
148 63 100 102 64 
149 128 35 36 197 
150 112 113 173 181 
151 67 110 112 68 
152 132 22 23 202 
153 74 107 109 184 
154 71 105 107 72 
155 154 65 205 155 
156 140 9 10 206 
157 207 189 175 141 
158 137 178 177 165 
159 134 136 196 137 
160 157 69 209 158 
161 129 182 181 173 
162 199 129 128 198 
163 148 61 211 149 
164 109 179 185 184 
165 151 73 213 152 
166 86 88 214 84 
167 202 203 133 132 
168 78 84 214 76 
169 90 80 214 88 
170 82 76 214 80 
171 203 193 215 133 
172 141 175 174 186 
173 138 140 207 141 
174 192 191 215 193 
175 179 133 215 185 
176 201 200 216 199 
177 199 216 182 129 
178 202 23 24 217 
179 67 157 25 26 
180 63 154 38 39 
181 71 151 12 13 
182 59 148 51 52 
183 198 229 231 230 
184 207 234 236 235 
185 203 237 239 238 
186 81 183 188 240 
187 70 221 243 209 
188 198 230 201 199 
189 154 155 231 156 
190 148 149 233 150 
191 240 188 235 242 
192 136 195 232 196 
193 49 226 232 195 
194 87 89 176 222 
195 149 210 162 233 
196 192 193 203 238 
197 241 222 176 163 
198 140 206 234 207 
199 159 158 249 239 
200 10 225 234 206 
201 36 37 156 218 
202 151 152 236 153 
203 234 225 153 236 
204 25 159 217 24 
205 10 11 153 225 
206 81 171 224 183 
207 244 248 249 208 
208 77 169 220 190 
209 156 231 229 218 
210 128 197 229 198 
211 85 167 247 194 
212 36 218 229 197 
213 89 160 228 176 
214 60 61 148 59 
215 210 241 163 162 
216 191 192 244 190 
217 209 208 249 158 
218 159 239 237 217 
219 203 202 217 237 
220 167 85 84 78 
221 148 150 50 51 
222 169 77 76 82 
223 160 89 88 86 
224 171 81 80 90 
225 177 178 227 66 
226 243 221 200 247 
227 181 182 221 70 
228 216 200 221 182 
229 201 194 247 200 
230 174 175 223 62 
231 223 187 183 224 
232 189 187 223 175 
233 190 220 219 191 
234 227 178 166 180 
235 227 180 176 228 
236 184 185 219 74 
237 215 191 219 185 
238 219 213 73 74 
239 238 239 249 248 
240 190 244 75 77 
241 208 168 75 244 
242 68 70 209 69 
243 85 246 161 83 
244 223 211 61 62 
245 240 242 250 212 
246 230 245 246 201 
247 236 152 212 250 
248 227 205 65 66 
249 85 194 201 246 
250 188 189 207 235 
251 250 242 235 236 
252 81 240 170 79 
253 68 69 157 67 
254 158 159 25 157 
255 246 245 251 204 
256 222 241 172 87 
257 232 164 166 196 
258 232 233 162 164 
259 49 50 150 226 
260 232 226 150 233 
261 64 65 154 63 
262 37 38 154 156 
263 238 248 244 192 
264 231 155 204 251 
265 72 73 151 71 
266 11 12 151 153 
267 160 161 252 228 
268 155 205 252 204 
269 246 204 252 161 
270 227 228 252 205 
271 169 170 253 220 
272 152 213 253 212 
273 240 212 253 170 
274 219 220 253 213 
275 167 168 243 247 
276 209 243 168 208 
277 230 231 251 245 
278 171 172 254 224 
279 149 211 254 210 
280 241 210 254 172 
281 223 224 254 211 
$EndElements
