$MeshFormat
4.1 0 8
$EndMeshFormat
$PhysicalNames
5
1 1 "Γ¹"
1 2 "Γ²"
1 3 "Γ³"
1 5 "Γ"
2 4 "Ω"
$EndPhysicalNames
$Entities
3 4 1 0
1 0 0 0 0 
2 1 0 0 0 
3 0.5 0.8660254037844385 0 0 
1 0 0 0 1 0 0 1 1 2 1 -2 
2 0.5 0 0 1 0.8660254037844385 0 1 2 2 2 -3 
3 0 0 0 0.5 0.8660254037844385 0 1 3 2 3 -1 
4 0 0 0 1 0.8660254037844385 0 1 5 0 
1 0 0 0 1 0.8660254037844385 0 1 4 3 1 2 3 
$EndEntities
$Nodes
8 21 1 21
0 1 0 1
1
0 0 0
0 2 0 1
2
1 0 0
0 3 0 1
3
0.5 0.8660254037844385 0
1 1 0 3
4
5
6
0.2499999999994109 0 0
0.4999999999986921 0 0
0.7499999999993406 0 0
1 2 0 3
7
8
9
0.8750000000002199 0.2165063509457286 0
0.7500000000004958 0.4330127018913604 0
0.6250000000002456 0.6495190528379035 0
1 3 0 3
10
11
12
0.3750000000002781 0.6495190528388105 0
0.2500000000007502 0.4330127018935186 0
0.1250000000003741 0.2165063509467575 0
1 4 0 0
2 1 0 9
13
14
15
16
17
18
19
20
21
0.2187499999997067 0.05412658773659412 0
0.1875000000000165 0.108253175473164 0
0.1562500000001947 0.1623797632099617 0
0.4374999999993165 0.1082531754731891 0
0.374999999999969 0.2165063509463299 0
0.3125000000003585 0.3247595264199261 0
0.6562499999997399 0.1623797632094168 0
0.5625000000001811 0.324759526418761 0
0.4687500000002278 0.4871392896287886 0
$EndNodes
$Elements
5 124 1 335
1 1 1 4
1 1 4 
2 4 5 
3 5 6 
4 6 2 
1 2 1 4
5 2 7 
6 7 8 
7 8 9 
8 9 3 
1 3 1 4
9 3 10 
10 10 11 
11 11 12 
12 12 1 
1 4 1 84
252 1 4 
253 4 13 
254 13 1 
255 1 13 
256 13 14 
257 14 1 
258 1 14 
259 14 15 
260 15 1 
261 1 15 
262 15 12 
263 12 1 
264 4 5 
265 5 13 
266 13 4 
267 13 5 
268 5 16 
269 16 13 
270 13 16 
271 16 14 
272 14 13 
273 14 16 
274 16 17 
275 17 14 
276 14 17 
277 17 15 
278 15 14 
279 15 17 
280 17 18 
281 18 15 
282 15 18 
283 18 12 
284 12 15 
285 12 18 
286 18 11 
287 11 12 
288 5 6 
289 6 16 
290 16 5 
291 16 6 
292 6 19 
293 19 16 
294 16 19 
295 19 17 
296 17 16 
297 17 19 
298 19 20 
299 20 17 
300 17 20 
301 20 18 
302 18 17 
303 18 20 
304 20 21 
305 21 18 
306 18 21 
307 21 11 
308 11 18 
309 11 21 
310 21 10 
311 10 11 
312 6 2 
313 2 19 
314 19 6 
315 19 2 
316 2 7 
317 7 19 
318 19 7 
319 7 20 
320 20 19 
321 20 7 
322 7 8 
323 8 20 
324 20 8 
325 8 21 
326 21 20 
327 21 8 
328 8 9 
329 9 21 
330 21 9 
331 9 10 
332 10 21 
333 10 9 
334 9 3 
335 3 10 
2 1 2 28
13 1 4 13 
14 1 13 14 
15 1 14 15 
16 1 15 12 
17 4 5 13 
18 13 5 16 
19 13 16 14 
20 14 16 17 
21 14 17 15 
22 15 17 18 
23 15 18 12 
24 12 18 11 
25 5 6 16 
26 16 6 19 
27 16 19 17 
28 17 19 20 
29 17 20 18 
30 18 20 21 
31 18 21 11 
32 11 21 10 
33 6 2 19 
34 19 2 7 
35 19 7 20 
36 20 7 8 
37 20 8 21 
38 21 8 9 
39 21 9 10 
40 10 9 3 
$EndElements
