$MeshFormat
4.1 0 8
$EndMeshFormat
$PhysicalNames
5
1 1 "Γ¹"
1 2 "Γ²"
1 3 "Γ³"
1 5 "Γ"
2 4 "Ω"
$EndPhysicalNames
$Entities
3 4 1 0
1 0 0 0 0 
2 1 0 0 0 
3 0.5 0.8660254037844385 0 0 
1 0 0 0 1 0 0 1 1 2 1 -2 
2 0.5 0 0 1 0.8660254037844385 0 1 2 2 2 -3 
3 0 0 0 0.5 0.8660254037844385 0 1 3 2 3 -1 
4 0 0 0 1 0.8660254037844385 0 1 5 0 
1 0 0 0 1 0.8660254037844385 0 1 4 3 1 2 3 
$EndEntities
$Nodes
8 31 1 31
0 1 0 1
1
0 0 0
0 2 0 1
2
1 0 0
0 3 0 1
3
0.5 0.8660254037844385 0
1 1 0 4
4
5
6
7
0.1999999999995569 0 0
0.3999999999989731 0 0
0.599999999998945 0 0
0.7999999999994725 0 0
1 2 0 4
8
9
10
11
0.9000000000001662 0.1732050807565998 0
0.8000000000003893 0.3464101615131012 0
0.7000000000004024 0.5196152422699661 0
0.6000000000002021 0.6928203230272006 0
1 3 0 4
12
13
14
15
0.4000000000001671 0.6928203230278402 0
0.3000000000005564 0.5196152422716267 0
0.200000000000608 0.3464101615148284 0
0.100000000000305 0.1732050807574159 0
1 4 0 0
2 1 0 16
16
17
18
19
20
21
22
23
24
25
26
27
28
29
30
31
0.1799999999997398 0.0346410161514256 0
0.159999999999934 0.06928203230283148 0
0.1400000000000862 0.1039230484543101 0
0.1200000000001957 0.1385640646058626 0
0.3599999999993666 0.06928203230285049 0
0.3199999999997827 0.1385640646056616 0
0.280000000000115 0.2078460969086182 0
0.2400000000003618 0.2771281292117226 0
0.5399999999993672 0.1039230484541526 0
0.4799999999998233 0.207846096908246 0
0.4200000000001534 0.3117691453625577 0
0.3600000000003554 0.4156921938170911 0
0.7199999999997441 0.1385640646053377 0
0.6400000000000619 0.2771281292105965 0
0.5600000000002112 0.4156921938161464 0
0.4800000000001899 0.5542562584219918 0
$EndNodes
$Elements
5 195 1 528
1 1 1 5
1 1 4 
2 4 5 
3 5 6 
4 6 7 
5 7 2 
1 2 1 5
6 2 8 
7 8 9 
8 9 10 
9 10 11 
10 11 3 
1 3 1 5
11 3 12 
12 12 13 
13 13 14 
14 14 15 
15 15 1 
1 4 1 135
394 1 4 
395 4 16 
396 16 1 
397 1 16 
398 16 17 
399 17 1 
400 1 17 
401 17 18 
402 18 1 
403 1 18 
404 18 19 
405 19 1 
406 1 19 
407 19 15 
408 15 1 
409 4 5 
410 5 16 
411 16 4 
412 16 5 
413 5 20 
414 20 16 
415 16 20 
416 20 17 
417 17 16 
418 17 20 
419 20 21 
420 21 17 
421 17 21 
422 21 18 
423 18 17 
424 18 21 
425 21 22 
426 22 18 
427 18 22 
428 22 19 
429 19 18 
430 19 22 
431 22 23 
432 23 19 
433 19 23 
434 23 15 
435 15 19 
436 15 23 
437 23 14 
438 14 15 
439 5 6 
440 6 20 
441 20 5 
442 20 6 
443 6 24 
444 24 20 
445 20 24 
446 24 21 
447 21 20 
448 21 24 
449 24 25 
450 25 21 
451 21 25 
452 25 22 
453 22 21 
454 22 25 
455 25 26 
456 26 22 
457 22 26 
458 26 23 
459 23 22 
460 23 26 
461 26 27 
462 27 23 
463 23 27 
464 27 14 
465 14 23 
466 14 27 
467 27 13 
468 13 14 
469 6 7 
470 7 24 
471 24 6 
472 24 7 
473 7 28 
474 28 24 
475 24 28 
476 28 25 
477 25 24 
478 25 28 
479 28 29 
480 29 25 
481 25 29 
482 29 26 
483 26 25 
484 26 29 
485 29 30 
486 30 26 
487 26 30 
488 30 27 
489 27 26 
490 27 30 
491 30 31 
492 31 27 
493 27 31 
494 31 13 
495 13 27 
496 13 31 
497 31 12 
498 12 13 
499 7 2 
500 2 28 
501 28 7 
502 28 2 
503 2 8 
504 8 28 
505 28 8 
506 8 29 
507 29 28 
508 29 8 
509 8 9 
510 9 29 
511 29 9 
512 9 30 
513 30 29 
514 30 9 
515 9 10 
516 10 30 
517 30 10 
518 10 31 
519 31 30 
520 31 10 
521 10 11 
522 11 31 
523 31 11 
524 11 12 
525 12 31 
526 12 11 
527 11 3 
528 3 12 
2 1 2 45
16 1 4 16 
17 1 16 17 
18 1 17 18 
19 1 18 19 
20 1 19 15 
21 4 5 16 
22 16 5 20 
23 16 20 17 
24 17 20 21 
25 17 21 18 
26 18 21 22 
27 18 22 19 
28 19 22 23 
29 19 23 15 
30 15 23 14 
31 5 6 20 
32 20 6 24 
33 20 24 21 
34 21 24 25 
35 21 25 22 
36 22 25 26 
37 22 26 23 
38 23 26 27 
39 23 27 14 
40 14 27 13 
41 6 7 24 
42 24 7 28 
43 24 28 25 
44 25 28 29 
45 25 29 26 
46 26 29 30 
47 26 30 27 
48 27 30 31 
49 27 31 13 
50 13 31 12 
51 7 2 28 
52 28 2 8 
53 28 8 29 
54 29 8 9 
55 29 9 30 
56 30 9 10 
57 30 10 31 
58 31 10 11 
59 31 11 12 
60 12 11 3 
$EndElements
