$MeshFormat
4.1 0 8
$EndMeshFormat
$PhysicalNames
6
1 1 "Γ¹"
1 2 "Γ²"
1 3 "Γ³"
1 4 "Γ⁴"
1 6 "Γ"
2 5 "Ω"
$EndPhysicalNames
$Entities
4 5 1 0
1 0 0 0 0 
2 1 0 0 0 
3 1.5 0.8660254037844387 0 0 
4 0.4999999999999999 0.8660254037844387 0 0 
1 0 0 0 1 0 0 1 1 2 1 -2 
2 1 0 0 1.5 0.8660254037844387 0 1 2 2 2 -3 
3 0.5 0.8660254037844387 0 1.5 0.8660254037844387 0 1 3 2 3 -4 
4 0 0 0 0.4999999999999999 0.8660254037844387 0 1 4 2 4 -1 
5 0 0 0 1.5 0.8660254037844387 0 1 6 0 
1 0 0 0 1.5 0.8660254037844387 0 1 5 4 1 2 3 4 
$EndEntities
$Nodes
10 169 1 169
0 1 0 1
1
0 0 0
0 2 0 1
2
1 0 0
0 3 0 1
3
1.5 0.8660254037844387 0
0 4 0 1
4
0.4999999999999999 0.8660254037844387 0
1 1 0 11
5
6
7
8
9
10
11
12
13
14
15
0.08333333333317297 0 0
0.1666666666663209 0 0
0.2499999999994109 0 0
0.333333333332501 0 0
0.4166666666655911 0 0
0.499999999998692 0 0
0.5833333333322344 0 0
0.6666666666657874 0 0
0.7499999999993405 0 0
0.8333333333328937 0 0
0.9166666666664468 0 0
1 2 0 11
16
17
18
19
20
21
22
23
24
25
26
1.041666666666606 0.07216878364859815 0
1.083333333333202 0.1443375672971788 0
1.124999999999777 0.2165063509457229 0
1.166666666666362 0.2886751345942846 0
1.208333333332939 0.3608439182428329 0
1.249999999999499 0.4330127018913512 0
1.291666666666261 0.5051814855402192 0
1.333333333333015 0.5773502691890741 0
1.374999999999775 0.6495190528379396 0
1.416666666666526 0.7216878364867889 0
1.458333333333287 0.7938566201356546 0
1 3 0 11
27
28
29
30
31
32
33
34
35
36
37
1.416666666667129 0.8660254037844387 0
1.333333333334259 0.8660254037844387 0
1.250000000001388 0.8660254037844387 0
1.166666666668517 0.8660254037844387 0
1.083333333335647 0.8660254037844387 0
1.000000000002755 0.8660254037844387 0
0.9166666666689803 0.8660254037844387 0
0.8333333333351843 0.8660254037844387 0
0.7500000000013882 0.8660254037844387 0
0.6666666666675921 0.8660254037844387 0
0.5833333333337961 0.8660254037844387 0
1 4 0 11
38
39
40
41
42
43
44
45
46
47
48
0.4583333333334114 0.7938566201358707 0
0.4166666666667833 0.7216878364872342 0
0.3750000000002055 0.6495190528386851 0
0.3333333333336498 0.577350269190174 0
0.2916666666671003 0.5051814855416736 0
0.2500000000005778 0.4330127018932202 0
0.208333333333803 0.3608439182443296 0
0.1666666666670361 0.2886751345954528 0
0.125000000000263 0.2165063509465652 0
0.08333333333349929 0.1443375672976939 0
0.04166666666672614 0.07216878364880619 0
1 5 0 0
2 1 0 121
49
50
51
52
53
54
55
56
57
58
59
60
61
62
63
64
65
66
67
68
69
70
71
72
73
74
75
76
77
78
79
80
81
82
83
84
85
86
87
88
89
90
91
92
93
94
95
96
97
98
99
100
101
102
103
104
105
106
107
108
109
110
111
112
113
114
115
116
117
118
119
120
121
122
123
124
125
126
127
128
129
130
131
132
133
134
135
136
137
138
139
140
141
142
143
144
145
146
147
148
149
150
151
152
153
154
155
156
157
158
159
160
161
162
163
164
165
166
167
168
169
0.124999999999941 0.07216878364878887 0
0.1666666666667513 0.1443375672976509 0
0.2083333333335513 0.216506350946495 0
0.2500000000003606 0.2886751345953554 0
0.2916666666671636 0.3608439182442049 0
0.3333333333339724 0.4330127018930644 0
0.3750000000005669 0.5051814855415524 0
0.4166666666671852 0.5773502691900823 0
0.45833333333381 0.6495190528386227 0
0.5000000000004541 0.721687836487197 0
0.5416666666671452 0.7938566201358528 0
0.2083333333331329 0.07216878364877151 0
0.2499999999999825 0.144337567297608 0
0.2916666666668206 0.2165063509464248 0
0.3333333333336684 0.2886751345952581 0
0.3750000000005096 0.3608439182440802 0
0.4166666666673545 0.4330127018929086 0
0.4583333333340228 0.5051814855414314 0
0.5000000000007124 0.5773502691899907 0
0.541666666667408 0.6495190528385608 0
0.5833333333341206 0.72168783648716 0
0.6250000000008766 0.7938566201358346 0
0.2916666666662719 0.07216878364875419 0
0.3333333333331654 0.1443375672975651 0
0.3750000000000467 0.2165063509463546 0
0.4166666666669376 0.2886751345951607 0
0.4583333333338218 0.3608439182439553 0
0.5000000000007077 0.4330127018927529 0
0.5416666666674547 0.5051814855413101 0
0.5833333333342203 0.577350269189899 0
0.6250000000009919 0.6495190528384986 0
0.6666666666677777 0.7216878364871229 0
0.7083333333346038 0.7938566201358168 0
0.3749999999994107 0.07216878364873686 0
0.4166666666663484 0.1443375672975222 0
0.4583333333332728 0.2165063509462845 0
0.5000000000002067 0.2886751345950634 0
0.5416666666671341 0.3608439182438307 0
0.5833333333340608 0.4330127018925972 0
0.6250000000008866 0.5051814855411889 0
0.6666666666677279 0.5773502691898073 0
0.7083333333345756 0.6495190528384367 0
0.7500000000014349 0.7216878364870858 0
0.7916666666683307 0.7938566201357985 0
0.4583333333325497 0.07216878364871948 0
0.4999999999995312 0.1443375672974792 0
0.5416666666664987 0.2165063509462142 0
0.583333333333476 0.2886751345949661 0
0.6250000000004462 0.360843918243706 0
0.6666666666674139 0.4330127018924415 0
0.7083333333343187 0.5051814855410677 0
0.7500000000012358 0.5773502691897159 0
0.7916666666681593 0.6495190528383745 0
0.8333333333350917 0.7216878364870487 0
0.8750000000020575 0.7938566201357806 0
0.5416666666656966 0.07216878364870218 0
0.5833333333327199 0.1443375672974364 0
0.6249999999997274 0.2165063509461441 0
0.6666666666667452 0.2886751345948687 0
0.7083333333337558 0.3608439182435812 0
0.7500000000007616 0.4330127018922857 0
0.7916666666677425 0.5051814855409464 0
0.8333333333347327 0.5773502691896238 0
0.8750000000017295 0.6495190528383123 0
0.9166666666687324 0.7216878364870116 0
0.9583333333357652 0.7938566201357626 0
0.6249999999991748 0.07216878364868481 0
0.6666666666661289 0.1443375672973934 0
0.7083333333330668 0.2165063509460738 0
0.7500000000000144 0.2886751345947713 0
0.7916666666669551 0.3608439182434566 0
0.8333333333338888 0.4330127018921299 0
0.8750000000008357 0.5051814855408252 0
0.9166666666677888 0.5773502691895325 0
0.9583333333347483 0.6495190528382502 0
1.000000000001711 0.7216878364869745 0
1.041666666668701 0.7938566201357447 0
0.708333333332661 0.07216878364866748 0
0.7499999999995437 0.1443375672973504 0
0.7916666666664087 0.2165063509460037 0
0.8333333333332841 0.288675134594674 0
0.8750000000001519 0.3608439182433318 0
0.916666666667011 0.4330127018919742 0
0.9583333333339205 0.505181485540704 0
1.000000000000834 0.5773502691894407 0
1.041666666667753 0.6495190528381879 0
1.083333333334674 0.7216878364869375 0
1.125000000001618 0.7938566201357267 0
0.791666666666147 0.07216878364865016 0
0.833333333332958 0.1443375672973076 0
0.8749999999997504 0.2165063509459335 0
0.9166666666665532 0.2886751345945767 0
0.9583333333333487 0.3608439182432071 0
1.000000000000133 0.4330127018918184 0
1.041666666667006 0.5051814855405827 0
1.083333333333879 0.577350269189349 0
1.125000000000759 0.6495190528381261 0
1.166666666667637 0.7216878364869002 0
1.208333333334535 0.7938566201357087 0
0.8749999999996335 0.07216878364863283 0
0.9166666666663725 0.1443375672972646 0
0.9583333333330928 0.2165063509458633 0
0.9999999999998228 0.2886751345944793 0
1.041666666666545 0.3608439182430823 0
1.083333333333255 0.4330127018916627 0
1.125000000000091 0.5051814855404615 0
1.166666666666924 0.5773502691892575 0
1.208333333333764 0.6495190528380639 0
1.2500000000006 0.7216878364868633 0
1.291666666667452 0.7938566201356907 0
0.9583333333331197 0.07216878364861545 0
0.9999999999997868 0.1443375672972218 0
1.041666666666434 0.2165063509457931 0
1.083333333333093 0.288675134594382 0
1.124999999999742 0.3608439182429577 0
1.166666666666377 0.433012701891507 0
1.208333333333175 0.5051814855403405 0
1.24999999999997 0.5773502691891655 0
1.29166666666677 0.6495190528380018 0
1.333333333333564 0.721687836486826 0
1.37500000000037 0.7938566201356727 0
$EndNodes
$Elements
6 1200 1 3268
1 1 1 12
1 1 5 
2 5 6 
3 6 7 
4 7 8 
5 8 9 
6 9 10 
7 10 11 
8 11 12 
9 12 13 
10 13 14 
11 14 15 
12 15 2 
1 2 1 12
13 2 16 
14 16 17 
15 17 18 
16 18 19 
17 19 20 
18 20 21 
19 21 22 
20 22 23 
21 23 24 
22 24 25 
23 25 26 
24 26 3 
1 3 1 12
25 3 27 
26 27 28 
27 28 29 
28 29 30 
29 30 31 
30 31 32 
31 32 33 
32 33 34 
33 34 35 
34 35 36 
35 36 37 
36 37 4 
1 4 1 12
37 4 38 
38 38 39 
39 39 40 
40 40 41 
41 41 42 
42 42 43 
43 43 44 
44 44 45 
45 45 46 
46 46 47 
47 47 48 
48 48 1 
1 5 1 864
2405 1 5 
2406 5 48 
2407 48 1 
2408 48 5 
2409 5 49 
2410 49 48 
2411 48 49 
2412 49 50 
2413 50 48 
2414 50 47 
2415 47 48 
2416 48 50 
2417 47 50 
2418 50 46 
2419 46 47 
2420 46 50 
2421 50 51 
2422 51 46 
2423 46 51 
2424 51 52 
2425 52 46 
2426 52 45 
2427 45 46 
2428 46 52 
2429 45 52 
2430 52 44 
2431 44 45 
2432 44 52 
2433 52 53 
2434 53 44 
2435 44 53 
2436 53 54 
2437 54 44 
2438 54 43 
2439 43 44 
2440 44 54 
2441 43 54 
2442 54 42 
2443 42 43 
2444 42 54 
2445 54 55 
2446 55 42 
2447 42 55 
2448 55 56 
2449 56 42 
2450 56 41 
2451 41 42 
2452 42 56 
2453 41 56 
2454 56 40 
2455 40 41 
2456 40 56 
2457 56 57 
2458 57 40 
2459 40 57 
2460 57 58 
2461 58 40 
2462 58 39 
2463 39 40 
2464 40 58 
2465 39 58 
2466 58 38 
2467 38 39 
2468 38 58 
2469 58 59 
2470 59 38 
2471 38 59 
2472 59 37 
2473 37 38 
2474 37 4 
2475 4 38 
2476 38 37 
2477 5 6 
2478 6 60 
2479 60 5 
2480 60 49 
2481 49 5 
2482 5 60 
2483 49 60 
2484 60 50 
2485 50 49 
2486 50 60 
2487 60 61 
2488 61 50 
2489 50 61 
2490 61 62 
2491 62 50 
2492 62 51 
2493 51 50 
2494 50 62 
2495 51 62 
2496 62 52 
2497 52 51 
2498 52 62 
2499 62 63 
2500 63 52 
2501 52 63 
2502 63 64 
2503 64 52 
2504 64 53 
2505 53 52 
2506 52 64 
2507 53 64 
2508 64 54 
2509 54 53 
2510 54 64 
2511 64 65 
2512 65 54 
2513 54 65 
2514 65 66 
2515 66 54 
2516 66 55 
2517 55 54 
2518 54 66 
2519 55 66 
2520 66 56 
2521 56 55 
2522 56 66 
2523 66 67 
2524 67 56 
2525 56 67 
2526 67 68 
2527 68 56 
2528 68 57 
2529 57 56 
2530 56 68 
2531 57 68 
2532 68 58 
2533 58 57 
2534 58 68 
2535 68 69 
2536 69 58 
2537 58 69 
2538 69 70 
2539 70 58 
2540 70 59 
2541 59 58 
2542 58 70 
2543 59 70 
2544 70 37 
2545 37 59 
2546 37 70 
2547 70 36 
2548 36 37 
2549 6 7 
2550 7 60 
2551 60 6 
2552 60 7 
2553 7 71 
2554 71 60 
2555 60 71 
2556 71 72 
2557 72 60 
2558 72 61 
2559 61 60 
2560 60 72 
2561 61 72 
2562 72 62 
2563 62 61 
2564 62 72 
2565 72 73 
2566 73 62 
2567 62 73 
2568 73 74 
2569 74 62 
2570 74 63 
2571 63 62 
2572 62 74 
2573 63 74 
2574 74 64 
2575 64 63 
2576 64 74 
2577 74 75 
2578 75 64 
2579 64 75 
2580 75 76 
2581 76 64 
2582 76 65 
2583 65 64 
2584 64 76 
2585 65 76 
2586 76 66 
2587 66 65 
2588 66 76 
2589 76 77 
2590 77 66 
2591 66 77 
2592 77 78 
2593 78 66 
2594 78 67 
2595 67 66 
2596 66 78 
2597 67 78 
2598 78 68 
2599 68 67 
2600 68 78 
2601 78 79 
2602 79 68 
2603 68 79 
2604 79 80 
2605 80 68 
2606 80 69 
2607 69 68 
2608 68 80 
2609 69 80 
2610 80 70 
2611 70 69 
2612 70 80 
2613 80 81 
2614 81 70 
2615 70 81 
2616 81 35 
2617 35 70 
2618 35 36 
2619 36 70 
2620 70 35 
2621 7 8 
2622 8 82 
2623 82 7 
2624 82 71 
2625 71 7 
2626 7 82 
2627 71 82 
2628 82 72 
2629 72 71 
2630 72 82 
2631 82 83 
2632 83 72 
2633 72 83 
2634 83 84 
2635 84 72 
2636 84 73 
2637 73 72 
2638 72 84 
2639 73 84 
2640 84 74 
2641 74 73 
2642 74 84 
2643 84 85 
2644 85 74 
2645 74 85 
2646 85 86 
2647 86 74 
2648 86 75 
2649 75 74 
2650 74 86 
2651 75 86 
2652 86 76 
2653 76 75 
2654 76 86 
2655 86 87 
2656 87 76 
2657 76 87 
2658 87 88 
2659 88 76 
2660 88 77 
2661 77 76 
2662 76 88 
2663 77 88 
2664 88 78 
2665 78 77 
2666 78 88 
2667 88 89 
2668 89 78 
2669 78 89 
2670 89 90 
2671 90 78 
2672 90 79 
2673 79 78 
2674 78 90 
2675 79 90 
2676 90 80 
2677 80 79 
2678 80 90 
2679 90 91 
2680 91 80 
2681 80 91 
2682 91 92 
2683 92 80 
2684 92 81 
2685 81 80 
2686 80 92 
2687 81 92 
2688 92 35 
2689 35 81 
2690 35 92 
2691 92 34 
2692 34 35 
2693 8 9 
2694 9 82 
2695 82 8 
2696 82 9 
2697 9 93 
2698 93 82 
2699 82 93 
2700 93 94 
2701 94 82 
2702 94 83 
2703 83 82 
2704 82 94 
2705 83 94 
2706 94 84 
2707 84 83 
2708 84 94 
2709 94 95 
2710 95 84 
2711 84 95 
2712 95 96 
2713 96 84 
2714 96 85 
2715 85 84 
2716 84 96 
2717 85 96 
2718 96 86 
2719 86 85 
2720 86 96 
2721 96 97 
2722 97 86 
2723 86 97 
2724 97 98 
2725 98 86 
2726 98 87 
2727 87 86 
2728 86 98 
2729 87 98 
2730 98 88 
2731 88 87 
2732 88 98 
2733 98 99 
2734 99 88 
2735 88 99 
2736 99 100 
2737 100 88 
2738 100 89 
2739 89 88 
2740 88 100 
2741 89 100 
2742 100 90 
2743 90 89 
2744 90 100 
2745 100 101 
2746 101 90 
2747 90 101 
2748 101 102 
2749 102 90 
2750 102 91 
2751 91 90 
2752 90 102 
2753 91 102 
2754 102 92 
2755 92 91 
2756 92 102 
2757 102 103 
2758 103 92 
2759 92 103 
2760 103 33 
2761 33 92 
2762 33 34 
2763 34 92 
2764 92 33 
2765 9 10 
2766 10 104 
2767 104 9 
2768 104 93 
2769 93 9 
2770 9 104 
2771 93 104 
2772 104 94 
2773 94 93 
2774 94 104 
2775 104 105 
2776 105 94 
2777 94 105 
2778 105 106 
2779 106 94 
2780 106 95 
2781 95 94 
2782 94 106 
2783 95 106 
2784 106 96 
2785 96 95 
2786 96 106 
2787 106 107 
2788 107 96 
2789 96 107 
2790 107 108 
2791 108 96 
2792 108 97 
2793 97 96 
2794 96 108 
2795 97 108 
2796 108 98 
2797 98 97 
2798 98 108 
2799 108 109 
2800 109 98 
2801 98 109 
2802 109 110 
2803 110 98 
2804 110 99 
2805 99 98 
2806 98 110 
2807 99 110 
2808 110 100 
2809 100 99 
2810 100 110 
2811 110 111 
2812 111 100 
2813 100 111 
2814 111 112 
2815 112 100 
2816 112 101 
2817 101 100 
2818 100 112 
2819 101 112 
2820 112 102 
2821 102 101 
2822 102 112 
2823 112 113 
2824 113 102 
2825 102 113 
2826 113 114 
2827 114 102 
2828 114 103 
2829 103 102 
2830 102 114 
2831 103 114 
2832 114 33 
2833 33 103 
2834 33 114 
2835 114 32 
2836 32 33 
2837 10 11 
2838 11 104 
2839 104 10 
2840 104 11 
2841 11 115 
2842 115 104 
2843 104 115 
2844 115 116 
2845 116 104 
2846 116 105 
2847 105 104 
2848 104 116 
2849 105 116 
2850 116 106 
2851 106 105 
2852 106 116 
2853 116 117 
2854 117 106 
2855 106 117 
2856 117 118 
2857 118 106 
2858 118 107 
2859 107 106 
2860 106 118 
2861 107 118 
2862 118 108 
2863 108 107 
2864 108 118 
2865 118 119 
2866 119 108 
2867 108 119 
2868 119 120 
2869 120 108 
2870 120 109 
2871 109 108 
2872 108 120 
2873 109 120 
2874 120 110 
2875 110 109 
2876 110 120 
2877 120 121 
2878 121 110 
2879 110 121 
2880 121 122 
2881 122 110 
2882 122 111 
2883 111 110 
2884 110 122 
2885 111 122 
2886 122 112 
2887 112 111 
2888 112 122 
2889 122 123 
2890 123 112 
2891 112 123 
2892 123 124 
2893 124 112 
2894 124 113 
2895 113 112 
2896 112 124 
2897 113 124 
2898 124 114 
2899 114 113 
2900 114 124 
2901 124 125 
2902 125 114 
2903 114 125 
2904 125 31 
2905 31 114 
2906 31 32 
2907 32 114 
2908 114 31 
2909 11 12 
2910 12 126 
2911 126 11 
2912 126 115 
2913 115 11 
2914 11 126 
2915 115 126 
2916 126 116 
2917 116 115 
2918 116 126 
2919 126 127 
2920 127 116 
2921 116 127 
2922 127 128 
2923 128 116 
2924 128 117 
2925 117 116 
2926 116 128 
2927 117 128 
2928 128 118 
2929 118 117 
2930 118 128 
2931 128 129 
2932 129 118 
2933 118 129 
2934 129 130 
2935 130 118 
2936 130 119 
2937 119 118 
2938 118 130 
2939 119 130 
2940 130 120 
2941 120 119 
2942 120 130 
2943 130 131 
2944 131 120 
2945 120 131 
2946 131 132 
2947 132 120 
2948 132 121 
2949 121 120 
2950 120 132 
2951 121 132 
2952 132 122 
2953 122 121 
2954 122 132 
2955 132 133 
2956 133 122 
2957 122 133 
2958 133 134 
2959 134 122 
2960 134 123 
2961 123 122 
2962 122 134 
2963 123 134 
2964 134 124 
2965 124 123 
2966 124 134 
2967 134 135 
2968 135 124 
2969 124 135 
2970 135 136 
2971 136 124 
2972 136 125 
2973 125 124 
2974 124 136 
2975 125 136 
2976 136 31 
2977 31 125 
2978 31 136 
2979 136 30 
2980 30 31 
2981 12 13 
2982 13 126 
2983 126 12 
2984 126 13 
2985 13 137 
2986 137 126 
2987 126 137 
2988 137 138 
2989 138 126 
2990 138 127 
2991 127 126 
2992 126 138 
2993 127 138 
2994 138 128 
2995 128 127 
2996 128 138 
2997 138 139 
2998 139 128 
2999 128 139 
3000 139 140 
3001 140 128 
3002 140 129 
3003 129 128 
3004 128 140 
3005 129 140 
3006 140 130 
3007 130 129 
3008 130 140 
3009 140 141 
3010 141 130 
3011 130 141 
3012 141 142 
3013 142 130 
3014 142 131 
3015 131 130 
3016 130 142 
3017 131 142 
3018 142 132 
3019 132 131 
3020 132 142 
3021 142 143 
3022 143 132 
3023 132 143 
3024 143 144 
3025 144 132 
3026 144 133 
3027 133 132 
3028 132 144 
3029 133 144 
3030 144 134 
3031 134 133 
3032 134 144 
3033 144 145 
3034 145 134 
3035 134 145 
3036 145 146 
3037 146 134 
3038 146 135 
3039 135 134 
3040 134 146 
3041 135 146 
3042 146 136 
3043 136 135 
3044 136 146 
3045 146 147 
3046 147 136 
3047 136 147 
3048 147 29 
3049 29 136 
3050 29 30 
3051 30 136 
3052 136 29 
3053 13 14 
3054 14 148 
3055 148 13 
3056 148 137 
3057 137 13 
3058 13 148 
3059 137 148 
3060 148 138 
3061 138 137 
3062 138 148 
3063 148 149 
3064 149 138 
3065 138 149 
3066 149 150 
3067 150 138 
3068 150 139 
3069 139 138 
3070 138 150 
3071 139 150 
3072 150 140 
3073 140 139 
3074 140 150 
3075 150 151 
3076 151 140 
3077 140 151 
3078 151 152 
3079 152 140 
3080 152 141 
3081 141 140 
3082 140 152 
3083 141 152 
3084 152 142 
3085 142 141 
3086 142 152 
3087 152 153 
3088 153 142 
3089 142 153 
3090 153 154 
3091 154 142 
3092 154 143 
3093 143 142 
3094 142 154 
3095 143 154 
3096 154 144 
3097 144 143 
3098 144 154 
3099 154 155 
3100 155 144 
3101 144 155 
3102 155 156 
3103 156 144 
3104 156 145 
3105 145 144 
3106 144 156 
3107 145 156 
3108 156 146 
3109 146 145 
3110 146 156 
3111 156 157 
3112 157 146 
3113 146 157 
3114 157 158 
3115 158 146 
3116 158 147 
3117 147 146 
3118 146 158 
3119 147 158 
3120 158 29 
3121 29 147 
3122 29 158 
3123 158 28 
3124 28 29 
3125 14 15 
3126 15 148 
3127 148 14 
3128 148 15 
3129 15 159 
3130 159 148 
3131 148 159 
3132 159 160 
3133 160 148 
3134 160 149 
3135 149 148 
3136 148 160 
3137 149 160 
3138 160 150 
3139 150 149 
3140 150 160 
3141 160 161 
3142 161 150 
3143 150 161 
3144 161 162 
3145 162 150 
3146 162 151 
3147 151 150 
3148 150 162 
3149 151 162 
3150 162 152 
3151 152 151 
3152 152 162 
3153 162 163 
3154 163 152 
3155 152 163 
3156 163 164 
3157 164 152 
3158 164 153 
3159 153 152 
3160 152 164 
3161 153 164 
3162 164 154 
3163 154 153 
3164 154 164 
3165 164 165 
3166 165 154 
3167 154 165 
3168 165 166 
3169 166 154 
3170 166 155 
3171 155 154 
3172 154 166 
3173 155 166 
3174 166 156 
3175 156 155 
3176 156 166 
3177 166 167 
3178 167 156 
3179 156 167 
3180 167 168 
3181 168 156 
3182 168 157 
3183 157 156 
3184 156 168 
3185 157 168 
3186 168 158 
3187 158 157 
3188 158 168 
3189 168 169 
3190 169 158 
3191 158 169 
3192 169 27 
3193 27 158 
3194 27 28 
3195 28 158 
3196 158 27 
3197 15 2 
3198 2 16 
3199 16 15 
3200 16 159 
3201 159 15 
3202 15 16 
3203 159 16 
3204 16 160 
3205 160 159 
3206 160 16 
3207 16 17 
3208 17 160 
3209 160 17 
3210 17 18 
3211 18 160 
3212 18 161 
3213 161 160 
3214 160 18 
3215 161 18 
3216 18 162 
3217 162 161 
3218 162 18 
3219 18 19 
3220 19 162 
3221 162 19 
3222 19 20 
3223 20 162 
3224 20 163 
3225 163 162 
3226 162 20 
3227 163 20 
3228 20 164 
3229 164 163 
3230 164 20 
3231 20 21 
3232 21 164 
3233 164 21 
3234 21 22 
3235 22 164 
3236 22 165 
3237 165 164 
3238 164 22 
3239 165 22 
3240 22 166 
3241 166 165 
3242 166 22 
3243 22 23 
3244 23 166 
3245 166 23 
3246 23 24 
3247 24 166 
3248 24 167 
3249 167 166 
3250 166 24 
3251 167 24 
3252 24 168 
3253 168 167 
3254 168 24 
3255 24 25 
3256 25 168 
3257 168 25 
3258 25 26 
3259 26 168 
3260 26 169 
3261 169 168 
3262 168 26 
3263 169 26 
3264 26 27 
3265 27 169 
3266 27 26 
3267 26 3 
3268 3 27 
2 1 2 288
49 1 5 48 
50 48 5 49 
51 48 49 50 
52 50 47 48 
53 47 50 46 
54 46 50 51 
55 46 51 52 
56 52 45 46 
57 45 52 44 
58 44 52 53 
59 44 53 54 
60 54 43 44 
61 43 54 42 
62 42 54 55 
63 42 55 56 
64 56 41 42 
65 41 56 40 
66 40 56 57 
67 40 57 58 
68 58 39 40 
69 39 58 38 
70 38 58 59 
71 38 59 37 
72 37 4 38 
73 5 6 60 
74 60 49 5 
75 49 60 50 
76 50 60 61 
77 50 61 62 
78 62 51 50 
79 51 62 52 
80 52 62 63 
81 52 63 64 
82 64 53 52 
83 53 64 54 
84 54 64 65 
85 54 65 66 
86 66 55 54 
87 55 66 56 
88 56 66 67 
89 56 67 68 
90 68 57 56 
91 57 68 58 
92 58 68 69 
93 58 69 70 
94 70 59 58 
95 59 70 37 
96 37 70 36 
97 6 7 60 
98 60 7 71 
99 60 71 72 
100 72 61 60 
101 61 72 62 
102 62 72 73 
103 62 73 74 
104 74 63 62 
105 63 74 64 
106 64 74 75 
107 64 75 76 
108 76 65 64 
109 65 76 66 
110 66 76 77 
111 66 77 78 
112 78 67 66 
113 67 78 68 
114 68 78 79 
115 68 79 80 
116 80 69 68 
117 69 80 70 
118 70 80 81 
119 70 81 35 
120 35 36 70 
121 7 8 82 
122 82 71 7 
123 71 82 72 
124 72 82 83 
125 72 83 84 
126 84 73 72 
127 73 84 74 
128 74 84 85 
129 74 85 86 
130 86 75 74 
131 75 86 76 
132 76 86 87 
133 76 87 88 
134 88 77 76 
135 77 88 78 
136 78 88 89 
137 78 89 90 
138 90 79 78 
139 79 90 80 
140 80 90 91 
141 80 91 92 
142 92 81 80 
143 81 92 35 
144 35 92 34 
145 8 9 82 
146 82 9 93 
147 82 93 94 
148 94 83 82 
149 83 94 84 
150 84 94 95 
151 84 95 96 
152 96 85 84 
153 85 96 86 
154 86 96 97 
155 86 97 98 
156 98 87 86 
157 87 98 88 
158 88 98 99 
159 88 99 100 
160 100 89 88 
161 89 100 90 
162 90 100 101 
163 90 101 102 
164 102 91 90 
165 91 102 92 
166 92 102 103 
167 92 103 33 
168 33 34 92 
169 9 10 104 
170 104 93 9 
171 93 104 94 
172 94 104 105 
173 94 105 106 
174 106 95 94 
175 95 106 96 
176 96 106 107 
177 96 107 108 
178 108 97 96 
179 97 108 98 
180 98 108 109 
181 98 109 110 
182 110 99 98 
183 99 110 100 
184 100 110 111 
185 100 111 112 
186 112 101 100 
187 101 112 102 
188 102 112 113 
189 102 113 114 
190 114 103 102 
191 103 114 33 
192 33 114 32 
193 10 11 104 
194 104 11 115 
195 104 115 116 
196 116 105 104 
197 105 116 106 
198 106 116 117 
199 106 117 118 
200 118 107 106 
201 107 118 108 
202 108 118 119 
203 108 119 120 
204 120 109 108 
205 109 120 110 
206 110 120 121 
207 110 121 122 
208 122 111 110 
209 111 122 112 
210 112 122 123 
211 112 123 124 
212 124 113 112 
213 113 124 114 
214 114 124 125 
215 114 125 31 
216 31 32 114 
217 11 12 126 
218 126 115 11 
219 115 126 116 
220 116 126 127 
221 116 127 128 
222 128 117 116 
223 117 128 118 
224 118 128 129 
225 118 129 130 
226 130 119 118 
227 119 130 120 
228 120 130 131 
229 120 131 132 
230 132 121 120 
231 121 132 122 
232 122 132 133 
233 122 133 134 
234 134 123 122 
235 123 134 124 
236 124 134 135 
237 124 135 136 
238 136 125 124 
239 125 136 31 
240 31 136 30 
241 12 13 126 
242 126 13 137 
243 126 137 138 
244 138 127 126 
245 127 138 128 
246 128 138 139 
247 128 139 140 
248 140 129 128 
249 129 140 130 
250 130 140 141 
251 130 141 142 
252 142 131 130 
253 131 142 132 
254 132 142 143 
255 132 143 144 
256 144 133 132 
257 133 144 134 
258 134 144 145 
259 134 145 146 
260 146 135 134 
261 135 146 136 
262 136 146 147 
263 136 147 29 
264 29 30 136 
265 13 14 148 
266 148 137 13 
267 137 148 138 
268 138 148 149 
269 138 149 150 
270 150 139 138 
271 139 150 140 
272 140 150 151 
273 140 151 152 
274 152 141 140 
275 141 152 142 
276 142 152 153 
277 142 153 154 
278 154 143 142 
279 143 154 144 
280 144 154 155 
281 144 155 156 
282 156 145 144 
283 145 156 146 
284 146 156 157 
285 146 157 158 
286 158 147 146 
287 147 158 29 
288 29 158 28 
289 14 15 148 
290 148 15 159 
291 148 159 160 
292 160 149 148 
293 149 160 150 
294 150 160 161 
295 150 161 162 
296 162 151 150 
297 151 162 152 
298 152 162 163 
299 152 163 164 
300 164 153 152 
301 153 164 154 
302 154 164 165 
303 154 165 166 
304 166 155 154 
305 155 166 156 
306 156 166 167 
307 156 167 168 
308 168 157 156 
309 157 168 158 
310 158 168 169 
311 158 169 27 
312 27 28 158 
313 15 2 16 
314 16 159 15 
315 159 16 160 
316 160 16 17 
317 160 17 18 
318 18 161 160 
319 161 18 162 
320 162 18 19 
321 162 19 20 
322 20 163 162 
323 163 20 164 
324 164 20 21 
325 164 21 22 
326 22 165 164 
327 165 22 166 
328 166 22 23 
329 166 23 24 
330 24 167 166 
331 167 24 168 
332 168 24 25 
333 168 25 26 
334 26 169 168 
335 169 26 27 
336 27 26 3 
$EndElements
