$MeshFormat
4.1 0 8
$EndMeshFormat
$PhysicalNames
5
1 1 "Γ¹"
1 2 "Γ²"
1 3 "Γ³"
1 5 "Γ"
2 4 "Ω"
$EndPhysicalNames
$Entities
3 4 1 0
1 0 0 0 0 
2 1 0 0 0 
3 0.5 0.8660254037844385 0 0 
1 0 0 0 1 0 0 1 1 2 1 -2 
2 0.5 0 0 1 0.8660254037844385 0 1 2 2 2 -3 
3 0 0 0 0.5 0.8660254037844385 0 1 3 2 3 -1 
4 0 0 0 1 0.8660254037844385 0 1 5 0 
1 0 0 0 1 0.8660254037844385 0 1 4 3 1 2 3 
$EndEntities
$Nodes
8 91 1 91
0 1 0 1
1
0 0 0
0 2 0 1
2
1 0 0
0 3 0 1
3
0.5 0.8660254037844385 0
1 1 0 8
4
5
6
7
8
9
10
11
0.1111111111109082 0 0
0.2222222222217143 0 0
0.333333333332501 0 0
0.4444444444432878 0 0
0.5555555555543833 0 0
0.6666666666657874 0 0
0.7777777777771916 0 0
0.8888888888885959 0 0
1 2 0 8
12
13
14
15
16
17
18
19
0.9444444444445171 0.0962250448648117 0
0.88888888888908 0.1924500897295442 0
0.8333333333336562 0.2886751345942536 0
0.777777777778216 0.3849001794589915 0
0.7222222222226703 0.481125224323912 0
0.6666666666669973 0.5773502691890531 0
0.6111111111113232 0.673575314054196 0
0.5555555555556595 0.769800358919321 0
1 3 0 8
20
21
22
23
24
25
26
27
0.4444444444444544 0.7698003589195181 0
0.3888888888891043 0.6735753140549363 0
0.33333333333379 0.5773502691904167 0
0.2777777777784246 0.4811252243258085 0
0.2222222222228988 0.3849001794609223 0
0.1666666666671686 0.2886751345956823 0
0.1111111111114374 0.1924500897304404 0
0.05555555555571662 0.09622504486521655 0
1 4 0 0
2 1 0 64
28
29
30
31
32
33
34
35
36
37
38
39
40
41
42
43
44
45
46
47
48
49
50
51
52
53
54
55
56
57
58
59
60
61
62
63
64
65
66
67
68
69
70
71
72
73
74
75
76
77
78
79
80
81
82
83
84
85
86
87
88
89
90
91
0.1049382716047839 0.01069167165167674 0
0.09876543209866462 0.02138334330334467 0
0.09259259259254689 0.03207501495501002 0
0.08641975308642731 0.04276668660667856 0
0.08024691358029598 0.05345835825836739 0
0.07407407407415054 0.06415002991008072 0
0.06790123456800501 0.07484170156179426 0
0.06172839506186056 0.08553337321350582 0
0.2098765432094774 0.02138334330335428 0
0.1975308641972508 0.04276668660669095 0
0.1851851851850271 0.06415002991002251 0
0.1728395061727997 0.08553337321336039 0
0.1604938271605489 0.1069167165167389 0
0.1481481481482698 0.1283000598201663 0
0.1358024691359905 0.1496834031235942 0
0.1234567901237135 0.1710667464270181 0
0.314814814814155 0.03207501495503383 0
0.2962962962958242 0.06415002991004125 0
0.2777777777774978 0.09622504486504099 0
0.259259259259166 0.1283000598200502 0
0.2407407407407991 0.1603750747751203 0
0.2222222222223896 0.192450089730264 0
0.2037037037039798 0.2245251046854082 0
0.1851851851855735 0.2566001196405464 0
0.4197530864188325 0.04276668660671317 0
0.3950617283943975 0.08553337321339112 0
0.3703703703699684 0.1283000598200588 0
0.3456790123455319 0.1710667464267392 0
0.3209876543210487 0.2138334330335007 0
0.2962962962965087 0.2566001196403602 0
0.2716049382719684 0.2993668062472207 0
0.2469135802474326 0.342133492854073 0
0.5246913580237617 0.0534583582583532 0
0.4938271604931653 0.1069167165166624 0
0.4629629629625764 0.1603750747749587 0
0.4320987654319784 0.213833433033271 0
0.4012345679013219 0.2672917912916846 0
0.3703703703705945 0.3207501495502207 0
0.3395061728398666 0.374208507808758 0
0.3086419753091444 0.4276668660672852 0
0.6296296296289473 0.06415002990996233 0
0.5925925925921378 0.1283000598198718 0
0.555555555555337 0.192450089729766 0
0.518518518518525 0.256600119639679 0
0.4814814814816432 0.320750149549714 0
0.4444444444446762 0.3849001794598959 0
0.4074074074077086 0.449050209370079 0
0.3703703703707479 0.5132002392802502 0
0.7345679012341272 0.07484170156156164 0
0.6913580246910985 0.1496834031230617 0
0.6481481481480803 0.2245251046845437 0
0.6049382716050491 0.2993668062460479 0
0.5617283950619359 0.3742085078076942 0
0.5185185185187237 0.4490502093695121 0
0.475308641975511 0.5238919109313314 0
0.432098765432306 0.5987336124931365 0
0.8395061728393112 0.08553337321316784 0
0.7901234567900677 0.1710667464262653 0
0.7407407407408356 0.2566001196393421 0
0.6913580246915892 0.3421334928524444 0
0.6419753086422488 0.4276668660657089 0
0.5925925925927953 0.5132002392791697 0
0.543209876543341 0.5987336124926318 0
0.4938271604938959 0.6842669857060784 0
$EndNodes
$Elements
5 639 1 1740
1 1 1 9
1 1 4 
2 4 5 
3 5 6 
4 6 7 
5 7 8 
6 8 9 
7 9 10 
8 10 11 
9 11 2 
1 2 1 9
10 2 12 
11 12 13 
12 13 14 
13 14 15 
14 15 16 
15 16 17 
16 17 18 
17 18 19 
18 19 3 
1 3 1 9
19 3 20 
20 20 21 
21 21 22 
22 22 23 
23 23 24 
24 24 25 
25 25 26 
26 26 27 
27 27 1 
1 4 1 459
1282 1 4 
1283 4 28 
1284 28 1 
1285 1 28 
1286 28 29 
1287 29 1 
1288 1 29 
1289 29 30 
1290 30 1 
1291 1 30 
1292 30 31 
1293 31 1 
1294 1 31 
1295 31 32 
1296 32 1 
1297 1 32 
1298 32 33 
1299 33 1 
1300 1 33 
1301 33 34 
1302 34 1 
1303 1 34 
1304 34 35 
1305 35 1 
1306 1 35 
1307 35 27 
1308 27 1 
1309 4 5 
1310 5 28 
1311 28 4 
1312 28 5 
1313 5 36 
1314 36 28 
1315 28 36 
1316 36 29 
1317 29 28 
1318 29 36 
1319 36 37 
1320 37 29 
1321 29 37 
1322 37 30 
1323 30 29 
1324 30 37 
1325 37 38 
1326 38 30 
1327 30 38 
1328 38 31 
1329 31 30 
1330 31 38 
1331 38 39 
1332 39 31 
1333 31 39 
1334 39 32 
1335 32 31 
1336 32 39 
1337 39 40 
1338 40 32 
1339 32 40 
1340 40 33 
1341 33 32 
1342 33 40 
1343 40 41 
1344 41 33 
1345 33 41 
1346 41 34 
1347 34 33 
1348 34 41 
1349 41 42 
1350 42 34 
1351 34 42 
1352 42 35 
1353 35 34 
1354 35 42 
1355 42 43 
1356 43 35 
1357 35 43 
1358 43 27 
1359 27 35 
1360 27 43 
1361 43 26 
1362 26 27 
1363 5 6 
1364 6 36 
1365 36 5 
1366 36 6 
1367 6 44 
1368 44 36 
1369 36 44 
1370 44 37 
1371 37 36 
1372 37 44 
1373 44 45 
1374 45 37 
1375 37 45 
1376 45 38 
1377 38 37 
1378 38 45 
1379 45 46 
1380 46 38 
1381 38 46 
1382 46 39 
1383 39 38 
1384 39 46 
1385 46 47 
1386 47 39 
1387 39 47 
1388 47 40 
1389 40 39 
1390 40 47 
1391 47 48 
1392 48 40 
1393 40 48 
1394 48 41 
1395 41 40 
1396 41 48 
1397 48 49 
1398 49 41 
1399 41 49 
1400 49 42 
1401 42 41 
1402 42 49 
1403 49 50 
1404 50 42 
1405 42 50 
1406 50 43 
1407 43 42 
1408 43 50 
1409 50 51 
1410 51 43 
1411 43 51 
1412 51 26 
1413 26 43 
1414 26 51 
1415 51 25 
1416 25 26 
1417 6 7 
1418 7 44 
1419 44 6 
1420 44 7 
1421 7 52 
1422 52 44 
1423 44 52 
1424 52 45 
1425 45 44 
1426 45 52 
1427 52 53 
1428 53 45 
1429 45 53 
1430 53 46 
1431 46 45 
1432 46 53 
1433 53 54 
1434 54 46 
1435 46 54 
1436 54 47 
1437 47 46 
1438 47 54 
1439 54 55 
1440 55 47 
1441 47 55 
1442 55 48 
1443 48 47 
1444 48 55 
1445 55 56 
1446 56 48 
1447 48 56 
1448 56 49 
1449 49 48 
1450 49 56 
1451 56 57 
1452 57 49 
1453 49 57 
1454 57 50 
1455 50 49 
1456 50 57 
1457 57 58 
1458 58 50 
1459 50 58 
1460 58 51 
1461 51 50 
1462 51 58 
1463 58 59 
1464 59 51 
1465 51 59 
1466 59 25 
1467 25 51 
1468 25 59 
1469 59 24 
1470 24 25 
1471 7 8 
1472 8 52 
1473 52 7 
1474 52 8 
1475 8 60 
1476 60 52 
1477 52 60 
1478 60 53 
1479 53 52 
1480 53 60 
1481 60 61 
1482 61 53 
1483 53 61 
1484 61 54 
1485 54 53 
1486 54 61 
1487 61 62 
1488 62 54 
1489 54 62 
1490 62 55 
1491 55 54 
1492 55 62 
1493 62 63 
1494 63 55 
1495 55 63 
1496 63 56 
1497 56 55 
1498 56 63 
1499 63 64 
1500 64 56 
1501 56 64 
1502 64 57 
1503 57 56 
1504 57 64 
1505 64 65 
1506 65 57 
1507 57 65 
1508 65 58 
1509 58 57 
1510 58 65 
1511 65 66 
1512 66 58 
1513 58 66 
1514 66 59 
1515 59 58 
1516 59 66 
1517 66 67 
1518 67 59 
1519 59 67 
1520 67 24 
1521 24 59 
1522 24 67 
1523 67 23 
1524 23 24 
1525 8 9 
1526 9 60 
1527 60 8 
1528 60 9 
1529 9 68 
1530 68 60 
1531 60 68 
1532 68 61 
1533 61 60 
1534 61 68 
1535 68 69 
1536 69 61 
1537 61 69 
1538 69 62 
1539 62 61 
1540 62 69 
1541 69 70 
1542 70 62 
1543 62 70 
1544 70 63 
1545 63 62 
1546 63 70 
1547 70 71 
1548 71 63 
1549 63 71 
1550 71 64 
1551 64 63 
1552 64 71 
1553 71 72 
1554 72 64 
1555 64 72 
1556 72 65 
1557 65 64 
1558 65 72 
1559 72 73 
1560 73 65 
1561 65 73 
1562 73 66 
1563 66 65 
1564 66 73 
1565 73 74 
1566 74 66 
1567 66 74 
1568 74 67 
1569 67 66 
1570 67 74 
1571 74 75 
1572 75 67 
1573 67 75 
1574 75 23 
1575 23 67 
1576 23 75 
1577 75 22 
1578 22 23 
1579 9 10 
1580 10 68 
1581 68 9 
1582 68 10 
1583 10 76 
1584 76 68 
1585 68 76 
1586 76 69 
1587 69 68 
1588 69 76 
1589 76 77 
1590 77 69 
1591 69 77 
1592 77 70 
1593 70 69 
1594 70 77 
1595 77 78 
1596 78 70 
1597 70 78 
1598 78 71 
1599 71 70 
1600 71 78 
1601 78 79 
1602 79 71 
1603 71 79 
1604 79 72 
1605 72 71 
1606 72 79 
1607 79 80 
1608 80 72 
1609 72 80 
1610 80 73 
1611 73 72 
1612 73 80 
1613 80 81 
1614 81 73 
1615 73 81 
1616 81 74 
1617 74 73 
1618 74 81 
1619 81 82 
1620 82 74 
1621 74 82 
1622 82 75 
1623 75 74 
1624 75 82 
1625 82 83 
1626 83 75 
1627 75 83 
1628 83 22 
1629 22 75 
1630 22 83 
1631 83 21 
1632 21 22 
1633 10 11 
1634 11 76 
1635 76 10 
1636 76 11 
1637 11 84 
1638 84 76 
1639 76 84 
1640 84 77 
1641 77 76 
1642 77 84 
1643 84 85 
1644 85 77 
1645 77 85 
1646 85 78 
1647 78 77 
1648 78 85 
1649 85 86 
1650 86 78 
1651 78 86 
1652 86 79 
1653 79 78 
1654 79 86 
1655 86 87 
1656 87 79 
1657 79 87 
1658 87 80 
1659 80 79 
1660 80 87 
1661 87 88 
1662 88 80 
1663 80 88 
1664 88 81 
1665 81 80 
1666 81 88 
1667 88 89 
1668 89 81 
1669 81 89 
1670 89 82 
1671 82 81 
1672 82 89 
1673 89 90 
1674 90 82 
1675 82 90 
1676 90 83 
1677 83 82 
1678 83 90 
1679 90 91 
1680 91 83 
1681 83 91 
1682 91 21 
1683 21 83 
1684 21 91 
1685 91 20 
1686 20 21 
1687 11 2 
1688 2 84 
1689 84 11 
1690 84 2 
1691 2 12 
1692 12 84 
1693 84 12 
1694 12 85 
1695 85 84 
1696 85 12 
1697 12 13 
1698 13 85 
1699 85 13 
1700 13 86 
1701 86 85 
1702 86 13 
1703 13 14 
1704 14 86 
1705 86 14 
1706 14 87 
1707 87 86 
1708 87 14 
1709 14 15 
1710 15 87 
1711 87 15 
1712 15 88 
1713 88 87 
1714 88 15 
1715 15 16 
1716 16 88 
1717 88 16 
1718 16 89 
1719 89 88 
1720 89 16 
1721 16 17 
1722 17 89 
1723 89 17 
1724 17 90 
1725 90 89 
1726 90 17 
1727 17 18 
1728 18 90 
1729 90 18 
1730 18 91 
1731 91 90 
1732 91 18 
1733 18 19 
1734 19 91 
1735 91 19 
1736 19 20 
1737 20 91 
1738 20 19 
1739 19 3 
1740 3 20 
2 1 2 153
28 1 4 28 
29 1 28 29 
30 1 29 30 
31 1 30 31 
32 1 31 32 
33 1 32 33 
34 1 33 34 
35 1 34 35 
36 1 35 27 
37 4 5 28 
38 28 5 36 
39 28 36 29 
40 29 36 37 
41 29 37 30 
42 30 37 38 
43 30 38 31 
44 31 38 39 
45 31 39 32 
46 32 39 40 
47 32 40 33 
48 33 40 41 
49 33 41 34 
50 34 41 42 
51 34 42 35 
52 35 42 43 
53 35 43 27 
54 27 43 26 
55 5 6 36 
56 36 6 44 
57 36 44 37 
58 37 44 45 
59 37 45 38 
60 38 45 46 
61 38 46 39 
62 39 46 47 
63 39 47 40 
64 40 47 48 
65 40 48 41 
66 41 48 49 
67 41 49 42 
68 42 49 50 
69 42 50 43 
70 43 50 51 
71 43 51 26 
72 26 51 25 
73 6 7 44 
74 44 7 52 
75 44 52 45 
76 45 52 53 
77 45 53 46 
78 46 53 54 
79 46 54 47 
80 47 54 55 
81 47 55 48 
82 48 55 56 
83 48 56 49 
84 49 56 57 
85 49 57 50 
86 50 57 58 
87 50 58 51 
88 51 58 59 
89 51 59 25 
90 25 59 24 
91 7 8 52 
92 52 8 60 
93 52 60 53 
94 53 60 61 
95 53 61 54 
96 54 61 62 
97 54 62 55 
98 55 62 63 
99 55 63 56 
100 56 63 64 
101 56 64 57 
102 57 64 65 
103 57 65 58 
104 58 65 66 
105 58 66 59 
106 59 66 67 
107 59 67 24 
108 24 67 23 
109 8 9 60 
110 60 9 68 
111 60 68 61 
112 61 68 69 
113 61 69 62 
114 62 69 70 
115 62 70 63 
116 63 70 71 
117 63 71 64 
118 64 71 72 
119 64 72 65 
120 65 72 73 
121 65 73 66 
122 66 73 74 
123 66 74 67 
124 67 74 75 
125 67 75 23 
126 23 75 22 
127 9 10 68 
128 68 10 76 
129 68 76 69 
130 69 76 77 
131 69 77 70 
132 70 77 78 
133 70 78 71 
134 71 78 79 
135 71 79 72 
136 72 79 80 
137 72 80 73 
138 73 80 81 
139 73 81 74 
140 74 81 82 
141 74 82 75 
142 75 82 83 
143 75 83 22 
144 22 83 21 
145 10 11 76 
146 76 11 84 
147 76 84 77 
148 77 84 85 
149 77 85 78 
150 78 85 86 
151 78 86 79 
152 79 86 87 
153 79 87 80 
154 80 87 88 
155 80 88 81 
156 81 88 89 
157 81 89 82 
158 82 89 90 
159 82 90 83 
160 83 90 91 
161 83 91 21 
162 21 91 20 
163 11 2 84 
164 84 2 12 
165 84 12 85 
166 85 12 13 
167 85 13 86 
168 86 13 14 
169 86 14 87 
170 87 14 15 
171 87 15 88 
172 88 15 16 
173 88 16 89 
174 89 16 17 
175 89 17 90 
176 90 17 18 
177 90 18 91 
178 91 18 19 
179 91 19 20 
180 20 19 3 
$EndElements
