$MeshFormat
4.1 0 8
$EndMeshFormat
$PhysicalNames
5
1 1 "Γ¹"
1 2 "Γ²"
1 3 "Γ³"
1 5 "Γ"
2 4 "Ω"
$EndPhysicalNames
$Entities
3 4 1 0
1 0 0 0 0 
2 1 0 0 0 
3 0.5 0.8660254037844385 0 0 
1 0 0 0 1 0 0 1 1 2 1 -2 
2 0.5 0 0 1 0.8660254037844385 0 1 2 2 2 -3 
3 0 0 0 0.5 0.8660254037844385 0 1 3 2 3 -1 
4 0 0 0 1 0.8660254037844385 0 1 5 0 
1 0 0 0 1 0.8660254037844385 0 1 4 3 1 2 3 
$EndEntities
$Nodes
8 111 1 111
0 1 0 1
1
0 0 0
0 2 0 1
2
1 0 0
0 3 0 1
3
0.5 0.8660254037844385 0
1 1 0 9
4
5
6
7
8
9
10
11
12
0.09999999999981413 0 0
0.1999999999995569 0 0
0.299999999999265 0 0
0.3999999999989731 0 0
0.4999999999986921 0 0
0.599999999998945 0 0
0.6999999999992088 0 0
0.7999999999994725 0 0
0.8999999999997362 0 0
1 2 0 9
13
14
15
16
17
18
19
20
21
0.9500000000000667 0.0866025403783284 0
0.9000000000001662 0.1732050807565998 0
0.8500000000002808 0.2598076211348452 0
0.8000000000003893 0.3464101615131012 0
0.7500000000004958 0.4330127018913604 0
0.7000000000004024 0.5196152422699661 0
0.6500000000002986 0.6062177826485899 0
0.6000000000002021 0.6928203230272006 0
0.5500000000000944 0.779422863405831 0
1 3 0 9
22
23
24
25
26
27
28
29
30
0.4500000000000099 0.7794228634060119 0
0.4000000000001671 0.6928203230278402 0
0.3500000000003852 0.6062177826497741 0
0.3000000000005564 0.5196152422716267 0
0.2500000000007502 0.4330127018935186 0
0.200000000000608 0.3464101615148284 0
0.1500000000004527 0.2598076211361156 0
0.100000000000305 0.1732050807574159 0
0.05000000000014593 0.08660254037869664 0
1 4 0 0
2 1 0 81
31
32
33
34
35
36
37
38
39
40
41
42
43
44
45
46
47
48
49
50
51
52
53
54
55
56
57
58
59
60
61
62
63
64
65
66
67
68
69
70
71
72
73
74
75
76
77
78
79
80
81
82
83
84
85
86
87
88
89
90
91
92
93
94
95
96
97
98
99
100
101
102
103
104
105
106
107
108
109
110
111
0.09499999999985395 0.008660254037858113 0
0.08999999999989709 0.01732050807571053 0
0.08499999999994175 0.02598076211356035 0
0.07999999999998578 0.03464101615141121 0
0.07500000000002961 0.04330127018926242 0
0.07000000000005345 0.05196152422714827 0
0.06500000000007625 0.06062177826503592 0
0.06000000000009978 0.06928203230292225 0
0.05500000000012219 0.07794228634081059 0
0.189999999999645 0.01732050807571849 0
0.1799999999997398 0.0346410161514256 0
0.1699999999998374 0.0519615242271275 0
0.159999999999934 0.06928203230283152 0
0.1500000000000301 0.08660254037853617 0
0.1400000000000862 0.1039230484543101 0
0.1300000000001403 0.1212435565300877 0
0.1200000000001958 0.1385640646058626 0
0.110000000000249 0.1558845726816415 0
0.2849999999994037 0.02598076211357691 0
0.2699999999995524 0.05196152422713674 0
0.2549999999997056 0.07794228634068874 0
0.2399999999998568 0.1039230484542439 0
0.2250000000000076 0.1299038105678001 0
0.2100000000000984 0.1558845726814602 0
0.1950000000001859 0.1818653347951257 0
0.1800000000002758 0.2078460969087873 0
0.1650000000003622 0.2338268590224549 0
0.3799999999991633 0.03464101615143664 0
0.3599999999993665 0.06928203230285053 0
0.3399999999995759 0.1039230484542539 0
0.3199999999997827 0.1385640646056616 0
0.2999999999999889 0.1732050807570706 0
0.280000000000115 0.2078460969086182 0
0.2600000000002369 0.242487113060173 0
0.2400000000003619 0.2771281292117226 0
0.2200000000004823 0.31176914536328 0
0.4749999999989312 0.04330127018929412 0
0.4499999999991869 0.08660254037855976 0
0.4249999999994498 0.1299038105678124 0
0.39999999999971 0.1732050807570703 0
0.374999999999969 0.2165063509463299 0
0.3500000000001282 0.2598076211357626 0
0.3250000000002821 0.3031088913252044 0
0.3000000000004397 0.3464101615146398 0
0.2750000000005915 0.3897114317040848 0
0.5699999999991461 0.05196152422709339 0
0.5399999999993672 0.1039230484541526 0
0.509999999999597 0.1558845726811962 0
0.4799999999998232 0.2078460969082461 0
0.4500000000000481 0.259807621135298 0
0.4200000000001534 0.3117691453625576 0
0.3900000000002521 0.3637306695898284 0
0.3600000000003554 0.4156921938170911 0
0.3300000000004519 0.4676537180443658 0
0.6649999999993732 0.06062177826489657 0
0.6299999999995606 0.1212435565297533 0
0.5949999999997585 0.1818653347945917 0
0.5599999999999519 0.2424871130594376 0
0.5250000000001441 0.3031088913242858 0
0.4900000000001963 0.3637306695893763 0
0.4550000000002413 0.4243524478544798 0
0.4200000000002915 0.484974226119574 0
0.3850000000003337 0.5455960043846817 0
0.7599999999995952 0.06928203230269164 0
0.7199999999997441 0.1385640646053377 0
0.6799999999999055 0.2078460969079629 0
0.6400000000000619 0.2771281292105965 0
0.6000000000002165 0.346410161513233 0
0.5600000000002112 0.4156921938161465 0
0.5200000000001975 0.4849742261190744 0
0.4800000000001899 0.5542562584219918 0
0.4400000000001733 0.6235382907249252 0
0.8549999999998238 0.07794228634049728 0
0.8099999999999408 0.1558845726809432 0
0.7650000000000711 0.2338268590213658 0
0.7200000000001959 0.3117691453617979 0
0.6750000000003192 0.3897114317022329 0
0.6300000000002626 0.4676537180429797 0
0.5850000000001965 0.5455960043837427 0
0.5400000000001371 0.6235382907244941 0
0.4950000000000674 0.7014805770652632 0
$EndNodes
$Elements
5 790 1 2153
1 1 1 10
1 1 4 
2 4 5 
3 5 6 
4 6 7 
5 7 8 
6 8 9 
7 9 10 
8 10 11 
9 11 12 
10 12 2 
1 2 1 10
11 2 13 
12 13 14 
13 14 15 
14 15 16 
15 16 17 
16 17 18 
17 18 19 
18 19 20 
19 20 21 
20 21 3 
1 3 1 10
21 3 22 
22 22 23 
23 23 24 
24 24 25 
25 25 26 
26 26 27 
27 27 28 
28 28 29 
29 29 30 
30 30 1 
1 4 1 570
1584 1 4 
1585 4 31 
1586 31 1 
1587 1 31 
1588 31 32 
1589 32 1 
1590 1 32 
1591 32 33 
1592 33 1 
1593 1 33 
1594 33 34 
1595 34 1 
1596 1 34 
1597 34 35 
1598 35 1 
1599 1 35 
1600 35 36 
1601 36 1 
1602 1 36 
1603 36 37 
1604 37 1 
1605 1 37 
1606 37 38 
1607 38 1 
1608 1 38 
1609 38 39 
1610 39 1 
1611 1 39 
1612 39 30 
1613 30 1 
1614 4 5 
1615 5 31 
1616 31 4 
1617 31 5 
1618 5 40 
1619 40 31 
1620 31 40 
1621 40 32 
1622 32 31 
1623 32 40 
1624 40 41 
1625 41 32 
1626 32 41 
1627 41 33 
1628 33 32 
1629 33 41 
1630 41 42 
1631 42 33 
1632 33 42 
1633 42 34 
1634 34 33 
1635 34 42 
1636 42 43 
1637 43 34 
1638 34 43 
1639 43 35 
1640 35 34 
1641 35 43 
1642 43 44 
1643 44 35 
1644 35 44 
1645 44 36 
1646 36 35 
1647 36 44 
1648 44 45 
1649 45 36 
1650 36 45 
1651 45 37 
1652 37 36 
1653 37 45 
1654 45 46 
1655 46 37 
1656 37 46 
1657 46 38 
1658 38 37 
1659 38 46 
1660 46 47 
1661 47 38 
1662 38 47 
1663 47 39 
1664 39 38 
1665 39 47 
1666 47 48 
1667 48 39 
1668 39 48 
1669 48 30 
1670 30 39 
1671 30 48 
1672 48 29 
1673 29 30 
1674 5 6 
1675 6 40 
1676 40 5 
1677 40 6 
1678 6 49 
1679 49 40 
1680 40 49 
1681 49 41 
1682 41 40 
1683 41 49 
1684 49 50 
1685 50 41 
1686 41 50 
1687 50 42 
1688 42 41 
1689 42 50 
1690 50 51 
1691 51 42 
1692 42 51 
1693 51 43 
1694 43 42 
1695 43 51 
1696 51 52 
1697 52 43 
1698 43 52 
1699 52 44 
1700 44 43 
1701 44 52 
1702 52 53 
1703 53 44 
1704 44 53 
1705 53 45 
1706 45 44 
1707 45 53 
1708 53 54 
1709 54 45 
1710 45 54 
1711 54 46 
1712 46 45 
1713 46 54 
1714 54 55 
1715 55 46 
1716 46 55 
1717 55 47 
1718 47 46 
1719 47 55 
1720 55 56 
1721 56 47 
1722 47 56 
1723 56 48 
1724 48 47 
1725 48 56 
1726 56 57 
1727 57 48 
1728 48 57 
1729 57 29 
1730 29 48 
1731 29 57 
1732 57 28 
1733 28 29 
1734 6 7 
1735 7 49 
1736 49 6 
1737 49 7 
1738 7 58 
1739 58 49 
1740 49 58 
1741 58 50 
1742 50 49 
1743 50 58 
1744 58 59 
1745 59 50 
1746 50 59 
1747 59 51 
1748 51 50 
1749 51 59 
1750 59 60 
1751 60 51 
1752 51 60 
1753 60 52 
1754 52 51 
1755 52 60 
1756 60 61 
1757 61 52 
1758 52 61 
1759 61 53 
1760 53 52 
1761 53 61 
1762 61 62 
1763 62 53 
1764 53 62 
1765 62 54 
1766 54 53 
1767 54 62 
1768 62 63 
1769 63 54 
1770 54 63 
1771 63 55 
1772 55 54 
1773 55 63 
1774 63 64 
1775 64 55 
1776 55 64 
1777 64 56 
1778 56 55 
1779 56 64 
1780 64 65 
1781 65 56 
1782 56 65 
1783 65 57 
1784 57 56 
1785 57 65 
1786 65 66 
1787 66 57 
1788 57 66 
1789 66 28 
1790 28 57 
1791 28 66 
1792 66 27 
1793 27 28 
1794 7 8 
1795 8 58 
1796 58 7 
1797 58 8 
1798 8 67 
1799 67 58 
1800 58 67 
1801 67 59 
1802 59 58 
1803 59 67 
1804 67 68 
1805 68 59 
1806 59 68 
1807 68 60 
1808 60 59 
1809 60 68 
1810 68 69 
1811 69 60 
1812 60 69 
1813 69 61 
1814 61 60 
1815 61 69 
1816 69 70 
1817 70 61 
1818 61 70 
1819 70 62 
1820 62 61 
1821 62 70 
1822 70 71 
1823 71 62 
1824 62 71 
1825 71 63 
1826 63 62 
1827 63 71 
1828 71 72 
1829 72 63 
1830 63 72 
1831 72 64 
1832 64 63 
1833 64 72 
1834 72 73 
1835 73 64 
1836 64 73 
1837 73 65 
1838 65 64 
1839 65 73 
1840 73 74 
1841 74 65 
1842 65 74 
1843 74 66 
1844 66 65 
1845 66 74 
1846 74 75 
1847 75 66 
1848 66 75 
1849 75 27 
1850 27 66 
1851 27 75 
1852 75 26 
1853 26 27 
1854 8 9 
1855 9 67 
1856 67 8 
1857 67 9 
1858 9 76 
1859 76 67 
1860 67 76 
1861 76 68 
1862 68 67 
1863 68 76 
1864 76 77 
1865 77 68 
1866 68 77 
1867 77 69 
1868 69 68 
1869 69 77 
1870 77 78 
1871 78 69 
1872 69 78 
1873 78 70 
1874 70 69 
1875 70 78 
1876 78 79 
1877 79 70 
1878 70 79 
1879 79 71 
1880 71 70 
1881 71 79 
1882 79 80 
1883 80 71 
1884 71 80 
1885 80 72 
1886 72 71 
1887 72 80 
1888 80 81 
1889 81 72 
1890 72 81 
1891 81 73 
1892 73 72 
1893 73 81 
1894 81 82 
1895 82 73 
1896 73 82 
1897 82 74 
1898 74 73 
1899 74 82 
1900 82 83 
1901 83 74 
1902 74 83 
1903 83 75 
1904 75 74 
1905 75 83 
1906 83 84 
1907 84 75 
1908 75 84 
1909 84 26 
1910 26 75 
1911 26 84 
1912 84 25 
1913 25 26 
1914 9 10 
1915 10 76 
1916 76 9 
1917 76 10 
1918 10 85 
1919 85 76 
1920 76 85 
1921 85 77 
1922 77 76 
1923 77 85 
1924 85 86 
1925 86 77 
1926 77 86 
1927 86 78 
1928 78 77 
1929 78 86 
1930 86 87 
1931 87 78 
1932 78 87 
1933 87 79 
1934 79 78 
1935 79 87 
1936 87 88 
1937 88 79 
1938 79 88 
1939 88 80 
1940 80 79 
1941 80 88 
1942 88 89 
1943 89 80 
1944 80 89 
1945 89 81 
1946 81 80 
1947 81 89 
1948 89 90 
1949 90 81 
1950 81 90 
1951 90 82 
1952 82 81 
1953 82 90 
1954 90 91 
1955 91 82 
1956 82 91 
1957 91 83 
1958 83 82 
1959 83 91 
1960 91 92 
1961 92 83 
1962 83 92 
1963 92 84 
1964 84 83 
1965 84 92 
1966 92 93 
1967 93 84 
1968 84 93 
1969 93 25 
1970 25 84 
1971 25 93 
1972 93 24 
1973 24 25 
1974 10 11 
1975 11 85 
1976 85 10 
1977 85 11 
1978 11 94 
1979 94 85 
1980 85 94 
1981 94 86 
1982 86 85 
1983 86 94 
1984 94 95 
1985 95 86 
1986 86 95 
1987 95 87 
1988 87 86 
1989 87 95 
1990 95 96 
1991 96 87 
1992 87 96 
1993 96 88 
1994 88 87 
1995 88 96 
1996 96 97 
1997 97 88 
1998 88 97 
1999 97 89 
2000 89 88 
2001 89 97 
2002 97 98 
2003 98 89 
2004 89 98 
2005 98 90 
2006 90 89 
2007 90 98 
2008 98 99 
2009 99 90 
2010 90 99 
2011 99 91 
2012 91 90 
2013 91 99 
2014 99 100 
2015 100 91 
2016 91 100 
2017 100 92 
2018 92 91 
2019 92 100 
2020 100 101 
2021 101 92 
2022 92 101 
2023 101 93 
2024 93 92 
2025 93 101 
2026 101 102 
2027 102 93 
2028 93 102 
2029 102 24 
2030 24 93 
2031 24 102 
2032 102 23 
2033 23 24 
2034 11 12 
2035 12 94 
2036 94 11 
2037 94 12 
2038 12 103 
2039 103 94 
2040 94 103 
2041 103 95 
2042 95 94 
2043 95 103 
2044 103 104 
2045 104 95 
2046 95 104 
2047 104 96 
2048 96 95 
2049 96 104 
2050 104 105 
2051 105 96 
2052 96 105 
2053 105 97 
2054 97 96 
2055 97 105 
2056 105 106 
2057 106 97 
2058 97 106 
2059 106 98 
2060 98 97 
2061 98 106 
2062 106 107 
2063 107 98 
2064 98 107 
2065 107 99 
2066 99 98 
2067 99 107 
2068 107 108 
2069 108 99 
2070 99 108 
2071 108 100 
2072 100 99 
2073 100 108 
2074 108 109 
2075 109 100 
2076 100 109 
2077 109 101 
2078 101 100 
2079 101 109 
2080 109 110 
2081 110 101 
2082 101 110 
2083 110 102 
2084 102 101 
2085 102 110 
2086 110 111 
2087 111 102 
2088 102 111 
2089 111 23 
2090 23 102 
2091 23 111 
2092 111 22 
2093 22 23 
2094 12 2 
2095 2 103 
2096 103 12 
2097 103 2 
2098 2 13 
2099 13 103 
2100 103 13 
2101 13 104 
2102 104 103 
2103 104 13 
2104 13 14 
2105 14 104 
2106 104 14 
2107 14 105 
2108 105 104 
2109 105 14 
2110 14 15 
2111 15 105 
2112 105 15 
2113 15 106 
2114 106 105 
2115 106 15 
2116 15 16 
2117 16 106 
2118 106 16 
2119 16 107 
2120 107 106 
2121 107 16 
2122 16 17 
2123 17 107 
2124 107 17 
2125 17 108 
2126 108 107 
2127 108 17 
2128 17 18 
2129 18 108 
2130 108 18 
2131 18 109 
2132 109 108 
2133 109 18 
2134 18 19 
2135 19 109 
2136 109 19 
2137 19 110 
2138 110 109 
2139 110 19 
2140 19 20 
2141 20 110 
2142 110 20 
2143 20 111 
2144 111 110 
2145 111 20 
2146 20 21 
2147 21 111 
2148 111 21 
2149 21 22 
2150 22 111 
2151 22 21 
2152 21 3 
2153 3 22 
2 1 2 190
31 1 4 31 
32 1 31 32 
33 1 32 33 
34 1 33 34 
35 1 34 35 
36 1 35 36 
37 1 36 37 
38 1 37 38 
39 1 38 39 
40 1 39 30 
41 4 5 31 
42 31 5 40 
43 31 40 32 
44 32 40 41 
45 32 41 33 
46 33 41 42 
47 33 42 34 
48 34 42 43 
49 34 43 35 
50 35 43 44 
51 35 44 36 
52 36 44 45 
53 36 45 37 
54 37 45 46 
55 37 46 38 
56 38 46 47 
57 38 47 39 
58 39 47 48 
59 39 48 30 
60 30 48 29 
61 5 6 40 
62 40 6 49 
63 40 49 41 
64 41 49 50 
65 41 50 42 
66 42 50 51 
67 42 51 43 
68 43 51 52 
69 43 52 44 
70 44 52 53 
71 44 53 45 
72 45 53 54 
73 45 54 46 
74 46 54 55 
75 46 55 47 
76 47 55 56 
77 47 56 48 
78 48 56 57 
79 48 57 29 
80 29 57 28 
81 6 7 49 
82 49 7 58 
83 49 58 50 
84 50 58 59 
85 50 59 51 
86 51 59 60 
87 51 60 52 
88 52 60 61 
89 52 61 53 
90 53 61 62 
91 53 62 54 
92 54 62 63 
93 54 63 55 
94 55 63 64 
95 55 64 56 
96 56 64 65 
97 56 65 57 
98 57 65 66 
99 57 66 28 
100 28 66 27 
101 7 8 58 
102 58 8 67 
103 58 67 59 
104 59 67 68 
105 59 68 60 
106 60 68 69 
107 60 69 61 
108 61 69 70 
109 61 70 62 
110 62 70 71 
111 62 71 63 
112 63 71 72 
113 63 72 64 
114 64 72 73 
115 64 73 65 
116 65 73 74 
117 65 74 66 
118 66 74 75 
119 66 75 27 
120 27 75 26 
121 8 9 67 
122 67 9 76 
123 67 76 68 
124 68 76 77 
125 68 77 69 
126 69 77 78 
127 69 78 70 
128 70 78 79 
129 70 79 71 
130 71 79 80 
131 71 80 72 
132 72 80 81 
133 72 81 73 
134 73 81 82 
135 73 82 74 
136 74 82 83 
137 74 83 75 
138 75 83 84 
139 75 84 26 
140 26 84 25 
141 9 10 76 
142 76 10 85 
143 76 85 77 
144 77 85 86 
145 77 86 78 
146 78 86 87 
147 78 87 79 
148 79 87 88 
149 79 88 80 
150 80 88 89 
151 80 89 81 
152 81 89 90 
153 81 90 82 
154 82 90 91 
155 82 91 83 
156 83 91 92 
157 83 92 84 
158 84 92 93 
159 84 93 25 
160 25 93 24 
161 10 11 85 
162 85 11 94 
163 85 94 86 
164 86 94 95 
165 86 95 87 
166 87 95 96 
167 87 96 88 
168 88 96 97 
169 88 97 89 
170 89 97 98 
171 89 98 90 
172 90 98 99 
173 90 99 91 
174 91 99 100 
175 91 100 92 
176 92 100 101 
177 92 101 93 
178 93 101 102 
179 93 102 24 
180 24 102 23 
181 11 12 94 
182 94 12 103 
183 94 103 95 
184 95 103 104 
185 95 104 96 
186 96 104 105 
187 96 105 97 
188 97 105 106 
189 97 106 98 
190 98 106 107 
191 98 107 99 
192 99 107 108 
193 99 108 100 
194 100 108 109 
195 100 109 101 
196 101 109 110 
197 101 110 102 
198 102 110 111 
199 102 111 23 
200 23 111 22 
201 12 2 103 
202 103 2 13 
203 103 13 104 
204 104 13 14 
205 104 14 105 
206 105 14 15 
207 105 15 106 
208 106 15 16 
209 106 16 107 
210 107 16 17 
211 107 17 108 
212 108 17 18 
213 108 18 109 
214 109 18 19 
215 109 19 110 
216 110 19 20 
217 110 20 111 
218 111 20 21 
219 111 21 22 
220 22 21 3 
$EndElements
