$MeshFormat
4.1 0 8
$EndMeshFormat
$PhysicalNames
6
1 1 "Γ¹"
1 2 "Γ²"
1 3 "Γ³"
1 4 "Γ⁴"
1 6 "Γ"
2 5 "Ω"
$EndPhysicalNames
$Entities
4 5 1 0
1 0 0 0 0 
2 1 0 0 0 
3 1.866025403784439 0.5000000000000001 0 0 
4 0.8660254037844386 0.5000000000000001 0 0 
1 0 0 0 1 0 0 1 1 2 1 -2 
2 1 0 0 1.866025403784439 0.5000000000000001 0 1 2 2 2 -3 
3 0.8660254037844386 0.5000000000000001 0 1.866025403784439 0.5000000000000001 0 1 3 2 3 -4 
4 0 0 0 0.8660254037844386 0.5000000000000001 0 1 4 2 4 -1 
5 0 0 0 1.866025403784439 0.5000000000000001 0 1 6 0 
1 0 0 0 1.866025403784439 0.5000000000000001 0 1 5 4 1 2 3 4 
$EndEntities
$Nodes
10 441 1 441
0 1 0 1
1
0 0 0
0 2 0 1
2
1 0 0
0 3 0 1
3
1.866025403784439 0.5000000000000001 0
0 4 0 1
4
0.8660254037844386 0.5000000000000001 0
1 1 0 19
5
6
7
8
9
10
11
12
13
14
15
16
17
18
19
20
21
22
23
0.04999999999989938 0 0
0.09999999999981413 0 0
0.1499999999997028 0 0
0.1999999999995569 0 0
0.2499999999994109 0 0
0.299999999999265 0 0
0.3499999999991191 0 0
0.3999999999989731 0 0
0.4499999999988272 0 0
0.4999999999986921 0 0
0.5499999999988131 0 0
0.599999999998945 0 0
0.6499999999990769 0 0
0.6999999999992088 0 0
0.7499999999993406 0 0
0.7999999999994725 0 0
0.8499999999996044 0 0
0.8999999999997362 0 0
0.9499999999998682 0 0
1 2 0 19
24
25
26
27
28
29
30
31
32
33
34
35
36
37
38
39
40
41
42
1.043301270189148 0.02499999999995752 0
1.0866025403783 0.04999999999991665 0
1.129903810567453 0.07499999999987693 0
1.173205080756603 0.09999999999983533 0
1.216506350945755 0.1249999999997951 0
1.259807621134829 0.1499999999997098 0
1.303108891323968 0.174999999999662 0
1.346410161513103 0.1999999999996116 0
1.389711431702242 0.2249999999995639 0
1.433012701891253 0.2499999999994424 0
1.476313972080463 0.2749999999994355 0
1.519615242269767 0.2999999999994826 0
1.562916512459116 0.324999999999556 0
1.606217782648458 0.3499999999996256 0
1.649519052837796 0.3749999999996924 0
1.692820323027121 0.3999999999997518 0
1.73612159321645 0.4249999999998139 0
1.779422863405793 0.4499999999998835 0
1.822724133595148 0.4749999999999606 0
1 3 0 19
43
44
45
46
47
48
49
50
51
52
53
54
55
56
57
58
59
60
61
1.816025403784918 0.5000000000000001 0
1.766025403785397 0.5000000000000001 0
1.716025403785876 0.5000000000000001 0
1.666025403786356 0.5000000000000001 0
1.616025403786835 0.5000000000000001 0
1.566025403787314 0.5000000000000001 0
1.516025403787793 0.5000000000000001 0
1.466025403788273 0.5000000000000001 0
1.416025403788752 0.5000000000000001 0
1.366025403789188 0.5000000000000001 0
1.3160254037886 0.5000000000000001 0
1.266025403787969 0.5000000000000001 0
1.216025403787338 0.5000000000000001 0
1.166025403786707 0.5000000000000001 0
1.116025403786076 0.5000000000000001 0
1.066025403785445 0.5000000000000001 0
1.016025403784814 0.5000000000000001 0
0.9660254037845908 0.5000000000000001 0
0.9160254037845147 0.5000000000000001 0
1 4 0 19
62
63
64
65
66
67
68
69
70
71
72
73
74
75
76
77
78
79
80
0.8227241335953394 0.4750000000000709 0
0.7794228634062403 0.4500000000001419 0
0.7361215932171382 0.425000000000211 0
0.6928203230280653 0.4000000000002971 0
0.6495190528389924 0.3750000000003831 0
0.6062177826499259 0.3500000000004728 0
0.5629165124607944 0.3250000000005251 0
0.5196152422716342 0.3000000000005607 0
0.4763139720824655 0.2750000000005914 0
0.4330127018933276 0.2500000000006399 0
0.3897114317039979 0.2250000000005777 0
0.3464101615146535 0.200000000000507 0
0.3031088913253158 0.1750000000004402 0
0.2598076211359813 0.1500000000003752 0
0.2165063509466515 0.1250000000003129 0
0.1732050807573218 0.1000000000002506 0
0.1299038105679873 0.07500000000018564 0
0.08660254037864956 0.05000000000011878 0
0.04330127018930863 0.02500000000005004 0
1 5 0 0
2 1 0 361
81
82
83
84
85
86
87
88
89
90
91
92
93
94
95
96
97
98
99
100
101
102
103
104
105
106
107
108
109
110
111
112
113
114
115
116
117
118
119
120
121
122
123
124
125
126
127
128
129
130
131
132
133
134
135
136
137
138
139
140
141
142
143
144
145
146
147
148
149
150
151
152
153
154
155
156
157
158
159
160
161
162
163
164
165
166
167
168
169
170
171
172
173
174
175
176
177
178
179
180
181
182
183
184
185
186
187
188
189
190
191
192
193
194
195
196
197
198
199
200
201
202
203
204
205
206
207
208
209
210
211
212
213
214
215
216
217
218
219
220
221
222
223
224
225
226
227
228
229
230
231
232
233
234
235
236
237
238
239
240
241
242
243
244
245
246
247
248
249
250
251
252
253
254
255
256
257
258
259
260
261
262
263
264
265
266
267
268
269
270
271
272
273
274
275
276
277
278
279
280
281
282
283
284
285
286
287
288
289
290
291
292
293
294
295
296
297
298
299
300
301
302
303
304
305
306
307
308
309
310
311
312
313
314
315
316
317
318
319
320
321
322
323
324
325
326
327
328
329
330
331
332
333
334
335
336
337
338
339
340
341
342
343
344
345
346
347
348
349
350
351
352
353
354
355
356
357
358
359
360
361
362
363
364
365
366
367
368
369
370
371
372
373
374
375
376
377
378
379
380
381
382
383
384
385
386
387
388
389
390
391
392
393
394
395
396
397
398
399
400
401
402
403
404
405
406
407
408
409
410
411
412
413
414
415
416
417
418
419
420
421
422
423
424
425
426
427
428
429
430
431
432
433
434
435
436
437
438
439
440
441
0.09330127018920883 0.02500000000004541 0
0.1366025403785491 0.05000000000010868 0
0.1799038105678865 0.07500000000017021 0
0.2232050807572206 0.1000000000002298 0
0.2665063509465502 0.125000000000287 0
0.309807621135876 0.1500000000003419 0
0.3531088913252097 0.1750000000004013 0
0.396410161514546 0.2000000000004623 0
0.4397114317038889 0.225000000000527 0
0.4830127018932115 0.2500000000005801 0
0.526313972082362 0.2750000000005337 0
0.5696152422715464 0.3000000000005069 0
0.612916512460725 0.3250000000004767 0
0.6562177826498758 0.3500000000004305 0
0.6995190528389644 0.3750000000003487 0
0.7428203230280589 0.4000000000002698 0
0.7861215932171531 0.4250000000001911 0
0.8294228634062764 0.450000000000129 0
0.8727241335953972 0.4750000000000654 0
0.1433012701891237 0.02500000000004079 0
0.1866025403784625 0.05000000000009859 0
0.2299038105677987 0.07500000000015478 0
0.2732050807571315 0.1000000000002091 0
0.3165063509464605 0.1250000000002611 0
0.3598076211357816 0.1500000000003087 0
0.4031088913251134 0.1750000000003624 0
0.4464101615144477 0.2000000000004176 0
0.4897114317037885 0.2250000000004763 0
0.5330127018931032 0.2500000000005201 0
0.5763139720822654 0.2750000000004758 0
0.6196152422714645 0.3000000000004529 0
0.6629165124606605 0.3250000000004282 0
0.7062177826498299 0.3500000000003881 0
0.7495190528389404 0.3750000000003141 0
0.7928203230280553 0.4000000000002425 0
0.8361215932171707 0.4250000000001713 0
0.879422863406314 0.450000000000116 0
0.9227241335954555 0.4750000000000599 0
0.193301270189021 0.02500000000003617 0
0.2366025403783671 0.05000000000008847 0
0.2799038105677108 0.07500000000013932 0
0.3232050807570512 0.1000000000001883 0
0.3665063509463881 0.1250000000002353 0
0.4098076211357132 0.1500000000002753 0
0.4531088913250519 0.1750000000003234 0
0.4964101615143928 0.2000000000003728 0
0.5397114317037401 0.2250000000004256 0
0.5830127018930557 0.2500000000004603 0
0.626313972082238 0.275000000000418 0
0.6696152422714605 0.3000000000003989 0
0.7129165124606829 0.3250000000003798 0
0.7562177826498795 0.3500000000003456 0
0.7995190528390204 0.3750000000002795 0
0.8428203230281649 0.4000000000002154 0
0.8861215932173097 0.4250000000001515 0
0.9294228634064814 0.4500000000001032 0
0.9727241335956527 0.4750000000000543 0
0.243301270188906 0.02500000000003155 0
0.2866025403782815 0.05000000000007837 0
0.3299038105676547 0.07500000000012388 0
0.3732050807570248 0.1000000000001676 0
0.4165063509463914 0.1250000000002093 0
0.4598076211357428 0.1500000000002421 0
0.5031088913251107 0.1750000000002846 0
0.5464101615144801 0.200000000000328 0
0.5897114317038559 0.225000000000375 0
0.6330127018931946 0.2500000000004004 0
0.6763139720824196 0.2750000000003602 0
0.7196152422716873 0.300000000000345 0
0.7629165124609582 0.3250000000003312 0
0.8062177826502043 0.3500000000003034 0
0.8495190528393973 0.375000000000245 0
0.8928203230285933 0.4000000000001881 0
0.9361215932177896 0.4250000000001317 0
0.9794228634070126 0.4500000000000902 0
1.022724133596235 0.4750000000000487 0
0.2933012701887908 0.02500000000002691 0
0.3366025403781956 0.05000000000006824 0
0.3799038105675986 0.07500000000010845 0
0.4232050807569983 0.1000000000001468 0
0.4665063509463951 0.1250000000001835 0
0.5098076211357719 0.1500000000002088 0
0.5531088913251689 0.1750000000002456 0
0.5964101615145674 0.2000000000002832 0
0.6397114317039717 0.2250000000003243 0
0.6830127018933334 0.2500000000003405 0
0.7263139720826005 0.2750000000003025 0
0.7696152422719144 0.3000000000002913 0
0.812916512461233 0.3250000000002828 0
0.8562177826505285 0.3500000000002611 0
0.8995190528397743 0.3750000000002104 0
0.9428203230290215 0.4000000000001608 0
0.9861215932182699 0.4250000000001117 0
1.029422863407544 0.4500000000000773 0
1.072724133596818 0.4750000000000433 0
0.3433012701886757 0.02500000000002229 0
0.3866025403781098 0.05000000000005814 0
0.4299038105675425 0.07500000000009302 0
0.4732050807569717 0.100000000000126 0
0.5165063509463983 0.1250000000001576 0
0.5598076211358016 0.1500000000001755 0
0.6031088913252277 0.1750000000002068 0
0.6464101615146546 0.2000000000002384 0
0.6897114317040876 0.2250000000002735 0
0.733012701893472 0.2500000000002807 0
0.7763139720827819 0.2750000000002447 0
0.819615242272141 0.3000000000002373 0
0.8629165124615082 0.3250000000002343 0
0.9062177826508531 0.3500000000002187 0
0.9495190528401511 0.3750000000001759 0
0.9928203230294498 0.4000000000001335 0
1.03612159321875 0.425000000000092 0
1.079422863408074 0.4500000000000645 0
1.122724133597401 0.4750000000000378 0
0.3933012701885608 0.02500000000001766 0
0.4366025403780242 0.05000000000004804 0
0.4799038105674863 0.07500000000007757 0
0.5232050807569451 0.1000000000001053 0
0.5665063509464018 0.1250000000001317 0
0.6098076211358312 0.1500000000001423 0
0.6531088913252863 0.1750000000001678 0
0.6964101615147418 0.2000000000001937 0
0.7397114317042036 0.2250000000002229 0
0.7830127018936111 0.2500000000002208 0
0.826313972082963 0.2750000000001868 0
0.8696152422723681 0.3000000000001833 0
0.9129165124617831 0.3250000000001859 0
0.9562177826511775 0.3500000000001763 0
0.9995190528405282 0.3750000000001413 0
1.042820323029878 0.4000000000001064 0
1.08612159321923 0.4250000000000721 0
1.129422863408605 0.4500000000000516 0
1.172724133597983 0.4750000000000324 0
0.4433012701884456 0.02500000000001303 0
0.4866025403779385 0.05000000000003793 0
0.5299038105674302 0.07500000000006216 0
0.5732050807569188 0.1000000000000845 0
0.6165063509464053 0.1250000000001058 0
0.6598076211358607 0.150000000000109 0
0.7031088913253448 0.1750000000001289 0
0.7464101615148293 0.2000000000001489 0
0.7897114317043195 0.2250000000001722 0
0.8330127018937498 0.2500000000001609 0
0.8763139720831445 0.2750000000001291 0
0.9196152422725947 0.3000000000001295 0
0.9629165124620587 0.3250000000001374 0
1.006217782651502 0.3500000000001338 0
1.049519052840905 0.3750000000001069 0
1.092820323030306 0.400000000000079 0
1.13612159321971 0.4250000000000522 0
1.179422863409136 0.4500000000000386 0
1.222724133598566 0.4750000000000267 0
0.4933012701883304 0.02500000000000841 0
0.5366025403778526 0.05000000000002783 0
0.5799038105673742 0.07500000000004672 0
0.6232050807568923 0.1000000000000638 0
0.6665063509464085 0.1250000000000799 0
0.7098076211358902 0.1500000000000757 0
0.7531088913254037 0.17500000000009 0
0.7964101615149164 0.2000000000001042 0
0.8397114317044352 0.2250000000001215 0
0.8830127018938887 0.250000000000101 0
0.9263139720833257 0.2750000000000714 0
0.9696152422728219 0.3000000000000755 0
1.012916512462333 0.325000000000089 0
1.056217782651827 0.3500000000000916 0
1.099519052841281 0.3750000000000723 0
1.142820323030735 0.4000000000000518 0
1.18612159322019 0.4250000000000324 0
1.229422863409667 0.4500000000000257 0
1.272724133599148 0.4750000000000212 0
0.5433012701882234 0.02500000000000378 0
0.5866025403777724 0.05000000000001771 0
0.6299038105673204 0.07500000000003129 0
0.6732050807568656 0.100000000000043 0
0.7165063509464092 0.125000000000054 0
0.759807621135914 0.1500000000000425 0
0.8031088913254542 0.1750000000000511 0
0.8464101615149928 0.2000000000000594 0
0.8897114317045375 0.2250000000000708 0
0.9330127018940111 0.2500000000000412 0
0.9763139720834877 0.2750000000000134 0
1.019615242273027 0.3000000000000217 0
1.062916512462584 0.3250000000000406 0
1.106217782652124 0.3500000000000492 0
1.149519052841629 0.3750000000000377 0
1.192820323031131 0.4000000000000244 0
1.236121593220635 0.4250000000000124 0
1.27942286341016 0.4500000000000127 0
1.32272413359969 0.4750000000000157 0
0.5933012701883086 0.02499999999999915 0
0.6366025403778204 0.05000000000000761 0
0.6799038105673313 0.07500000000001586 0
0.7232050807568393 0.1000000000000222 0
0.7665063509463462 0.1250000000000281 0
0.8098076211358107 0.1500000000000092 0
0.8531088913253126 0.1750000000000122 0
0.8964101615148139 0.2000000000000146 0
0.9397114317043201 0.2250000000000201 0
0.9830127018937499 0.2499999999999812 0
1.026313972083202 0.2749999999999557 0
1.069615242272721 0.2999999999999677 0
1.112916512462259 0.3249999999999921 0
1.156217782651782 0.3500000000000069 0
1.199519052841272 0.3750000000000032 0
1.242820323030759 0.3999999999999972 0
1.286121593220249 0.4249999999999927 0
1.329422863409757 0.4499999999999998 0
1.372724133599273 0.4750000000000101 0
0.6433012701884023 0.02499999999999453 0
0.6866025403778736 0.0499999999999975 0
0.729903810567345 0.07500000000000043 0
0.773205080756813 0.1000000000000015 0
0.8165063509462805 0.1250000000000022 0
0.8598076211357015 0.1499999999999759 0
0.9031088913251636 0.1749999999999733 0
0.9464101615146236 0.1999999999999698 0
0.9897114317040895 0.2249999999999695 0
1.033012701893472 0.2499999999999214 0
1.076313972082898 0.2749999999998979 0
1.119615242272392 0.2999999999999138 0
1.16291651246191 0.3249999999999436 0
1.206217782651413 0.3499999999999645 0
1.249519052840887 0.3749999999999687 0
1.292820323030355 0.39999999999997 0
1.336121593219826 0.4249999999999727 0
1.379422863409317 0.4499999999999869 0
1.422724133598815 0.4750000000000047 0
0.6933012701884953 0.0249999999999899 0
0.7366025403779267 0.04999999999998739 0
0.7799038105673582 0.074999999999985 0
0.8232050807567868 0.09999999999998069 0
0.8665063509462148 0.1249999999999764 0
0.9098076211355925 0.1499999999999427 0
0.9531088913250139 0.1749999999999344 0
0.9964101615144333 0.1999999999999251 0
1.039711431703858 0.2249999999999187 0
1.083012701893195 0.2499999999998615 0
1.126313972082594 0.2749999999998401 0
1.169615242272064 0.2999999999998599 0
1.212916512461561 0.3249999999998952 0
1.256217782651043 0.349999999999922 0
1.2995190528405 0.3749999999999342 0
1.342820323029951 0.3999999999999427 0
1.386121593219404 0.424999999999953 0
1.429422863408876 0.449999999999974 0
1.472724133598356 0.4749999999999993 0
0.7433012701885886 0.02499999999998528 0
0.7866025403779801 0.04999999999997729 0
0.8299038105673719 0.07499999999996954 0
0.8732050807567605 0.09999999999995994 0
0.9165063509461494 0.1249999999999504 0
0.9598076211354833 0.1499999999999094 0
1.003108891324864 0.1749999999998954 0
1.046410161514244 0.1999999999998803 0
1.089711431703627 0.2249999999998681 0
1.133012701892918 0.2499999999998016 0
1.17631397208229 0.2749999999997822 0
1.219615242271736 0.2999999999998061 0
1.262916512461212 0.3249999999998467 0
1.306217782650674 0.3499999999998797 0
1.349519052840114 0.3749999999998996 0
1.392820323029547 0.3999999999999154 0
1.436121593218982 0.4249999999999331 0
1.479422863408436 0.449999999999961 0
1.522724133597898 0.4749999999999937 0
0.793301270188682 0.02499999999998066 0
0.8366025403780332 0.04999999999996718 0
0.8799038105673853 0.0749999999999541 0
0.9232050807567341 0.09999999999993918 0
0.9665063509460835 0.1249999999999246 0
1.009807621135374 0.1499999999998761 0
1.053108891324715 0.1749999999998566 0
1.096410161514053 0.1999999999998355 0
1.139711431703397 0.2249999999998174 0
1.18301270189264 0.2499999999997418 0
1.226313972081985 0.2749999999997245 0
1.269615242271408 0.2999999999997521 0
1.312916512460862 0.3249999999997983 0
1.356217782650305 0.3499999999998373 0
1.399519052839727 0.3749999999998651 0
1.442820323029142 0.3999999999998882 0
1.48612159321856 0.4249999999999132 0
1.529422863407996 0.4499999999999481 0
1.572724133597439 0.4749999999999882 0
0.8433012701887753 0.02499999999997603 0
0.8866025403780866 0.04999999999995708 0
0.9299038105673987 0.07499999999993867 0
0.9732050807567078 0.09999999999991839 0
1.016506350946018 0.1249999999998987 0
1.059807621135265 0.1499999999998428 0
1.103108891324566 0.1749999999998176 0
1.146410161513863 0.1999999999997907 0
1.189711431703166 0.2249999999997667 0
1.233012701892363 0.2499999999996819 0
1.276313972081681 0.2749999999996667 0
1.319615242271079 0.2999999999996982 0
1.362916512460514 0.3249999999997498 0
1.406217782649936 0.349999999999795 0
1.449519052839341 0.3749999999998306 0
1.492820323028738 0.3999999999998609 0
1.536121593218139 0.4249999999998934 0
1.579422863407556 0.4499999999999352 0
1.622724133596982 0.4749999999999826 0
0.8933012701888687 0.0249999999999714 0
0.9366025403781401 0.04999999999994698 0
0.979903810567412 0.07499999999992324 0
1.023205080756681 0.09999999999989764 0
1.066506350945952 0.1249999999998728 0
1.109807621135156 0.1499999999998096 0
1.153108891324417 0.1749999999997788 0
1.196410161513673 0.199999999999746 0
1.239711431702935 0.224999999999716 0
1.283012701892086 0.249999999999622 0
1.326313972081377 0.2749999999996088 0
1.369615242270751 0.2999999999996443 0
1.412916512460164 0.3249999999997013 0
1.456217782649566 0.3499999999997526 0
1.499519052838955 0.3749999999997961 0
1.542820323028333 0.3999999999998337 0
1.586121593217716 0.4249999999998735 0
1.629422863407115 0.4499999999999223 0
1.672724133596523 0.4749999999999771 0
0.9433012701889619 0.02499999999996678 0
0.9866025403781929 0.04999999999993687 0
1.029903810567426 0.07499999999990781 0
1.073205080756655 0.09999999999987688 0
1.116506350945886 0.1249999999998469 0
1.159807621135047 0.1499999999997763 0
1.203108891324267 0.1749999999997399 0
1.246410161513483 0.1999999999997012 0
1.289711431702704 0.2249999999996652 0
1.333012701891808 0.2499999999995621 0
1.376313972081072 0.2749999999995511 0
1.419615242270423 0.2999999999995905 0
1.462916512459815 0.3249999999996529 0
1.506217782649197 0.3499999999997103 0
1.549519052838569 0.3749999999997615 0
1.592820323027929 0.3999999999998064 0
1.636121593217295 0.4249999999998537 0
1.679422863406674 0.4499999999999094 0
1.722724133596065 0.4749999999999716 0
0.9933012701890552 0.02499999999996215 0
1.036602540378246 0.04999999999992676 0
1.079903810567439 0.07499999999989235 0
1.123205080756629 0.09999999999985608 0
1.16650635094582 0.124999999999821 0
1.209807621134938 0.1499999999997431 0
1.253108891324118 0.174999999999701 0
1.296410161513293 0.1999999999996564 0
1.339711431702473 0.2249999999996146 0
1.383012701891531 0.2499999999995023 0
1.426313972080768 0.2749999999994934 0
1.469615242270095 0.2999999999995365 0
1.512916512459465 0.3249999999996045 0
1.556217782648828 0.3499999999996679 0
1.599519052838183 0.3749999999997271 0
1.642820323027525 0.3999999999997791 0
1.686121593216872 0.4249999999998336 0
1.729422863406233 0.4499999999998964 0
1.772724133595607 0.4749999999999662 0
$EndNodes
$Elements
6 3280 1 8964
1 1 1 20
1 1 5 
2 5 6 
3 6 7 
4 7 8 
5 8 9 
6 9 10 
7 10 11 
8 11 12 
9 12 13 
10 13 14 
11 14 15 
12 15 16 
13 16 17 
14 17 18 
15 18 19 
16 19 20 
17 20 21 
18 21 22 
19 22 23 
20 23 2 
1 2 1 20
21 2 24 
22 24 25 
23 25 26 
24 26 27 
25 27 28 
26 28 29 
27 29 30 
28 30 31 
29 31 32 
30 32 33 
31 33 34 
32 34 35 
33 35 36 
34 36 37 
35 37 38 
36 38 39 
37 39 40 
38 40 41 
39 41 42 
40 42 3 
1 3 1 20
41 3 43 
42 43 44 
43 44 45 
44 45 46 
45 46 47 
46 47 48 
47 48 49 
48 49 50 
49 50 51 
50 51 52 
51 52 53 
52 53 54 
53 54 55 
54 55 56 
55 56 57 
56 57 58 
57 58 59 
58 59 60 
59 60 61 
60 61 4 
1 4 1 20
61 4 62 
62 62 63 
63 63 64 
64 64 65 
65 65 66 
66 66 67 
67 67 68 
68 68 69 
69 69 70 
70 70 71 
71 71 72 
72 72 73 
73 73 74 
74 74 75 
75 75 76 
76 76 77 
77 77 78 
78 78 79 
79 79 80 
80 80 1 
1 5 1 2400
6565 1 5 
6566 5 80 
6567 80 1 
6568 80 5 
6569 5 81 
6570 81 80 
6571 80 81 
6572 81 82 
6573 82 80 
6574 82 79 
6575 79 80 
6576 80 82 
6577 79 82 
6578 82 78 
6579 78 79 
6580 78 82 
6581 82 83 
6582 83 78 
6583 78 83 
6584 83 84 
6585 84 78 
6586 84 77 
6587 77 78 
6588 78 84 
6589 77 84 
6590 84 76 
6591 76 77 
6592 76 84 
6593 84 85 
6594 85 76 
6595 76 85 
6596 85 86 
6597 86 76 
6598 86 75 
6599 75 76 
6600 76 86 
6601 75 86 
6602 86 74 
6603 74 75 
6604 74 86 
6605 86 87 
6606 87 74 
6607 74 87 
6608 87 88 
6609 88 74 
6610 88 73 
6611 73 74 
6612 74 88 
6613 73 88 
6614 88 72 
6615 72 73 
6616 72 88 
6617 88 89 
6618 89 72 
6619 72 89 
6620 89 90 
6621 90 72 
6622 90 71 
6623 71 72 
6624 72 90 
6625 71 90 
6626 90 70 
6627 70 71 
6628 70 90 
6629 90 91 
6630 91 70 
6631 70 91 
6632 91 92 
6633 92 70 
6634 92 69 
6635 69 70 
6636 70 92 
6637 69 92 
6638 92 68 
6639 68 69 
6640 68 92 
6641 92 93 
6642 93 68 
6643 68 93 
6644 93 94 
6645 94 68 
6646 94 67 
6647 67 68 
6648 68 94 
6649 67 94 
6650 94 66 
6651 66 67 
6652 66 94 
6653 94 95 
6654 95 66 
6655 66 95 
6656 95 96 
6657 96 66 
6658 96 65 
6659 65 66 
6660 66 96 
6661 65 96 
6662 96 64 
6663 64 65 
6664 64 96 
6665 96 97 
6666 97 64 
6667 64 97 
6668 97 98 
6669 98 64 
6670 98 63 
6671 63 64 
6672 64 98 
6673 63 98 
6674 98 62 
6675 62 63 
6676 62 98 
6677 98 99 
6678 99 62 
6679 62 99 
6680 99 61 
6681 61 62 
6682 61 4 
6683 4 62 
6684 62 61 
6685 5 6 
6686 6 100 
6687 100 5 
6688 100 81 
6689 81 5 
6690 5 100 
6691 81 100 
6692 100 82 
6693 82 81 
6694 82 100 
6695 100 101 
6696 101 82 
6697 82 101 
6698 101 102 
6699 102 82 
6700 102 83 
6701 83 82 
6702 82 102 
6703 83 102 
6704 102 84 
6705 84 83 
6706 84 102 
6707 102 103 
6708 103 84 
6709 84 103 
6710 103 104 
6711 104 84 
6712 104 85 
6713 85 84 
6714 84 104 
6715 85 104 
6716 104 86 
6717 86 85 
6718 86 104 
6719 104 105 
6720 105 86 
6721 86 105 
6722 105 106 
6723 106 86 
6724 106 87 
6725 87 86 
6726 86 106 
6727 87 106 
6728 106 88 
6729 88 87 
6730 88 106 
6731 106 107 
6732 107 88 
6733 88 107 
6734 107 108 
6735 108 88 
6736 108 89 
6737 89 88 
6738 88 108 
6739 89 108 
6740 108 90 
6741 90 89 
6742 90 108 
6743 108 109 
6744 109 90 
6745 90 109 
6746 109 110 
6747 110 90 
6748 110 91 
6749 91 90 
6750 90 110 
6751 91 110 
6752 110 92 
6753 92 91 
6754 92 110 
6755 110 111 
6756 111 92 
6757 92 111 
6758 111 112 
6759 112 92 
6760 112 93 
6761 93 92 
6762 92 112 
6763 93 112 
6764 112 94 
6765 94 93 
6766 94 112 
6767 112 113 
6768 113 94 
6769 94 113 
6770 113 114 
6771 114 94 
6772 114 95 
6773 95 94 
6774 94 114 
6775 95 114 
6776 114 96 
6777 96 95 
6778 96 114 
6779 114 115 
6780 115 96 
6781 96 115 
6782 115 116 
6783 116 96 
6784 116 97 
6785 97 96 
6786 96 116 
6787 97 116 
6788 116 98 
6789 98 97 
6790 98 116 
6791 116 117 
6792 117 98 
6793 98 117 
6794 117 118 
6795 118 98 
6796 118 99 
6797 99 98 
6798 98 118 
6799 99 118 
6800 118 61 
6801 61 99 
6802 61 118 
6803 118 60 
6804 60 61 
6805 6 7 
6806 7 100 
6807 100 6 
6808 100 7 
6809 7 119 
6810 119 100 
6811 100 119 
6812 119 120 
6813 120 100 
6814 120 101 
6815 101 100 
6816 100 120 
6817 101 120 
6818 120 102 
6819 102 101 
6820 102 120 
6821 120 121 
6822 121 102 
6823 102 121 
6824 121 122 
6825 122 102 
6826 122 103 
6827 103 102 
6828 102 122 
6829 103 122 
6830 122 104 
6831 104 103 
6832 104 122 
6833 122 123 
6834 123 104 
6835 104 123 
6836 123 124 
6837 124 104 
6838 124 105 
6839 105 104 
6840 104 124 
6841 105 124 
6842 124 106 
6843 106 105 
6844 106 124 
6845 124 125 
6846 125 106 
6847 106 125 
6848 125 126 
6849 126 106 
6850 126 107 
6851 107 106 
6852 106 126 
6853 107 126 
6854 126 108 
6855 108 107 
6856 108 126 
6857 126 127 
6858 127 108 
6859 108 127 
6860 127 128 
6861 128 108 
6862 128 109 
6863 109 108 
6864 108 128 
6865 109 128 
6866 128 110 
6867 110 109 
6868 110 128 
6869 128 129 
6870 129 110 
6871 110 129 
6872 129 130 
6873 130 110 
6874 130 111 
6875 111 110 
6876 110 130 
6877 111 130 
6878 130 112 
6879 112 111 
6880 112 130 
6881 130 131 
6882 131 112 
6883 112 131 
6884 131 132 
6885 132 112 
6886 132 113 
6887 113 112 
6888 112 132 
6889 113 132 
6890 132 114 
6891 114 113 
6892 114 132 
6893 132 133 
6894 133 114 
6895 114 133 
6896 133 134 
6897 134 114 
6898 134 115 
6899 115 114 
6900 114 134 
6901 115 134 
6902 134 116 
6903 116 115 
6904 116 134 
6905 134 135 
6906 135 116 
6907 116 135 
6908 135 136 
6909 136 116 
6910 136 117 
6911 117 116 
6912 116 136 
6913 117 136 
6914 136 118 
6915 118 117 
6916 118 136 
6917 136 137 
6918 137 118 
6919 118 137 
6920 137 59 
6921 59 118 
6922 59 60 
6923 60 118 
6924 118 59 
6925 7 8 
6926 8 138 
6927 138 7 
6928 138 119 
6929 119 7 
6930 7 138 
6931 119 138 
6932 138 120 
6933 120 119 
6934 120 138 
6935 138 139 
6936 139 120 
6937 120 139 
6938 139 140 
6939 140 120 
6940 140 121 
6941 121 120 
6942 120 140 
6943 121 140 
6944 140 122 
6945 122 121 
6946 122 140 
6947 140 141 
6948 141 122 
6949 122 141 
6950 141 142 
6951 142 122 
6952 142 123 
6953 123 122 
6954 122 142 
6955 123 142 
6956 142 124 
6957 124 123 
6958 124 142 
6959 142 143 
6960 143 124 
6961 124 143 
6962 143 144 
6963 144 124 
6964 144 125 
6965 125 124 
6966 124 144 
6967 125 144 
6968 144 126 
6969 126 125 
6970 126 144 
6971 144 145 
6972 145 126 
6973 126 145 
6974 145 146 
6975 146 126 
6976 146 127 
6977 127 126 
6978 126 146 
6979 127 146 
6980 146 128 
6981 128 127 
6982 128 146 
6983 146 147 
6984 147 128 
6985 128 147 
6986 147 148 
6987 148 128 
6988 148 129 
6989 129 128 
6990 128 148 
6991 129 148 
6992 148 130 
6993 130 129 
6994 130 148 
6995 148 149 
6996 149 130 
6997 130 149 
6998 149 150 
6999 150 130 
7000 150 131 
7001 131 130 
7002 130 150 
7003 131 150 
7004 150 132 
7005 132 131 
7006 132 150 
7007 150 151 
7008 151 132 
7009 132 151 
7010 151 152 
7011 152 132 
7012 152 133 
7013 133 132 
7014 132 152 
7015 133 152 
7016 152 134 
7017 134 133 
7018 134 152 
7019 152 153 
7020 153 134 
7021 134 153 
7022 153 154 
7023 154 134 
7024 154 135 
7025 135 134 
7026 134 154 
7027 135 154 
7028 154 136 
7029 136 135 
7030 136 154 
7031 154 155 
7032 155 136 
7033 136 155 
7034 155 156 
7035 156 136 
7036 156 137 
7037 137 136 
7038 136 156 
7039 137 156 
7040 156 59 
7041 59 137 
7042 59 156 
7043 156 58 
7044 58 59 
7045 8 9 
7046 9 138 
7047 138 8 
7048 138 9 
7049 9 157 
7050 157 138 
7051 138 157 
7052 157 158 
7053 158 138 
7054 158 139 
7055 139 138 
7056 138 158 
7057 139 158 
7058 158 140 
7059 140 139 
7060 140 158 
7061 158 159 
7062 159 140 
7063 140 159 
7064 159 160 
7065 160 140 
7066 160 141 
7067 141 140 
7068 140 160 
7069 141 160 
7070 160 142 
7071 142 141 
7072 142 160 
7073 160 161 
7074 161 142 
7075 142 161 
7076 161 162 
7077 162 142 
7078 162 143 
7079 143 142 
7080 142 162 
7081 143 162 
7082 162 144 
7083 144 143 
7084 144 162 
7085 162 163 
7086 163 144 
7087 144 163 
7088 163 164 
7089 164 144 
7090 164 145 
7091 145 144 
7092 144 164 
7093 145 164 
7094 164 146 
7095 146 145 
7096 146 164 
7097 164 165 
7098 165 146 
7099 146 165 
7100 165 166 
7101 166 146 
7102 166 147 
7103 147 146 
7104 146 166 
7105 147 166 
7106 166 148 
7107 148 147 
7108 148 166 
7109 166 167 
7110 167 148 
7111 148 167 
7112 167 168 
7113 168 148 
7114 168 149 
7115 149 148 
7116 148 168 
7117 149 168 
7118 168 150 
7119 150 149 
7120 150 168 
7121 168 169 
7122 169 150 
7123 150 169 
7124 169 170 
7125 170 150 
7126 170 151 
7127 151 150 
7128 150 170 
7129 151 170 
7130 170 152 
7131 152 151 
7132 152 170 
7133 170 171 
7134 171 152 
7135 152 171 
7136 171 172 
7137 172 152 
7138 172 153 
7139 153 152 
7140 152 172 
7141 153 172 
7142 172 154 
7143 154 153 
7144 154 172 
7145 172 173 
7146 173 154 
7147 154 173 
7148 173 174 
7149 174 154 
7150 174 155 
7151 155 154 
7152 154 174 
7153 155 174 
7154 174 156 
7155 156 155 
7156 156 174 
7157 174 175 
7158 175 156 
7159 156 175 
7160 175 57 
7161 57 156 
7162 57 58 
7163 58 156 
7164 156 57 
7165 9 10 
7166 10 176 
7167 176 9 
7168 176 157 
7169 157 9 
7170 9 176 
7171 157 176 
7172 176 158 
7173 158 157 
7174 158 176 
7175 176 177 
7176 177 158 
7177 158 177 
7178 177 178 
7179 178 158 
7180 178 159 
7181 159 158 
7182 158 178 
7183 159 178 
7184 178 160 
7185 160 159 
7186 160 178 
7187 178 179 
7188 179 160 
7189 160 179 
7190 179 180 
7191 180 160 
7192 180 161 
7193 161 160 
7194 160 180 
7195 161 180 
7196 180 162 
7197 162 161 
7198 162 180 
7199 180 181 
7200 181 162 
7201 162 181 
7202 181 182 
7203 182 162 
7204 182 163 
7205 163 162 
7206 162 182 
7207 163 182 
7208 182 164 
7209 164 163 
7210 164 182 
7211 182 183 
7212 183 164 
7213 164 183 
7214 183 184 
7215 184 164 
7216 184 165 
7217 165 164 
7218 164 184 
7219 165 184 
7220 184 166 
7221 166 165 
7222 166 184 
7223 184 185 
7224 185 166 
7225 166 185 
7226 185 186 
7227 186 166 
7228 186 167 
7229 167 166 
7230 166 186 
7231 167 186 
7232 186 168 
7233 168 167 
7234 168 186 
7235 186 187 
7236 187 168 
7237 168 187 
7238 187 188 
7239 188 168 
7240 188 169 
7241 169 168 
7242 168 188 
7243 169 188 
7244 188 170 
7245 170 169 
7246 170 188 
7247 188 189 
7248 189 170 
7249 170 189 
7250 189 190 
7251 190 170 
7252 190 171 
7253 171 170 
7254 170 190 
7255 171 190 
7256 190 172 
7257 172 171 
7258 172 190 
7259 190 191 
7260 191 172 
7261 172 191 
7262 191 192 
7263 192 172 
7264 192 173 
7265 173 172 
7266 172 192 
7267 173 192 
7268 192 174 
7269 174 173 
7270 174 192 
7271 192 193 
7272 193 174 
7273 174 193 
7274 193 194 
7275 194 174 
7276 194 175 
7277 175 174 
7278 174 194 
7279 175 194 
7280 194 57 
7281 57 175 
7282 57 194 
7283 194 56 
7284 56 57 
7285 10 11 
7286 11 176 
7287 176 10 
7288 176 11 
7289 11 195 
7290 195 176 
7291 176 195 
7292 195 196 
7293 196 176 
7294 196 177 
7295 177 176 
7296 176 196 
7297 177 196 
7298 196 178 
7299 178 177 
7300 178 196 
7301 196 197 
7302 197 178 
7303 178 197 
7304 197 198 
7305 198 178 
7306 198 179 
7307 179 178 
7308 178 198 
7309 179 198 
7310 198 180 
7311 180 179 
7312 180 198 
7313 198 199 
7314 199 180 
7315 180 199 
7316 199 200 
7317 200 180 
7318 200 181 
7319 181 180 
7320 180 200 
7321 181 200 
7322 200 182 
7323 182 181 
7324 182 200 
7325 200 201 
7326 201 182 
7327 182 201 
7328 201 202 
7329 202 182 
7330 202 183 
7331 183 182 
7332 182 202 
7333 183 202 
7334 202 184 
7335 184 183 
7336 184 202 
7337 202 203 
7338 203 184 
7339 184 203 
7340 203 204 
7341 204 184 
7342 204 185 
7343 185 184 
7344 184 204 
7345 185 204 
7346 204 186 
7347 186 185 
7348 186 204 
7349 204 205 
7350 205 186 
7351 186 205 
7352 205 206 
7353 206 186 
7354 206 187 
7355 187 186 
7356 186 206 
7357 187 206 
7358 206 188 
7359 188 187 
7360 188 206 
7361 206 207 
7362 207 188 
7363 188 207 
7364 207 208 
7365 208 188 
7366 208 189 
7367 189 188 
7368 188 208 
7369 189 208 
7370 208 190 
7371 190 189 
7372 190 208 
7373 208 209 
7374 209 190 
7375 190 209 
7376 209 210 
7377 210 190 
7378 210 191 
7379 191 190 
7380 190 210 
7381 191 210 
7382 210 192 
7383 192 191 
7384 192 210 
7385 210 211 
7386 211 192 
7387 192 211 
7388 211 212 
7389 212 192 
7390 212 193 
7391 193 192 
7392 192 212 
7393 193 212 
7394 212 194 
7395 194 193 
7396 194 212 
7397 212 213 
7398 213 194 
7399 194 213 
7400 213 55 
7401 55 194 
7402 55 56 
7403 56 194 
7404 194 55 
7405 11 12 
7406 12 214 
7407 214 11 
7408 214 195 
7409 195 11 
7410 11 214 
7411 195 214 
7412 214 196 
7413 196 195 
7414 196 214 
7415 214 215 
7416 215 196 
7417 196 215 
7418 215 216 
7419 216 196 
7420 216 197 
7421 197 196 
7422 196 216 
7423 197 216 
7424 216 198 
7425 198 197 
7426 198 216 
7427 216 217 
7428 217 198 
7429 198 217 
7430 217 218 
7431 218 198 
7432 218 199 
7433 199 198 
7434 198 218 
7435 199 218 
7436 218 200 
7437 200 199 
7438 200 218 
7439 218 219 
7440 219 200 
7441 200 219 
7442 219 220 
7443 220 200 
7444 220 201 
7445 201 200 
7446 200 220 
7447 201 220 
7448 220 202 
7449 202 201 
7450 202 220 
7451 220 221 
7452 221 202 
7453 202 221 
7454 221 222 
7455 222 202 
7456 222 203 
7457 203 202 
7458 202 222 
7459 203 222 
7460 222 204 
7461 204 203 
7462 204 222 
7463 222 223 
7464 223 204 
7465 204 223 
7466 223 224 
7467 224 204 
7468 224 205 
7469 205 204 
7470 204 224 
7471 205 224 
7472 224 206 
7473 206 205 
7474 206 224 
7475 224 225 
7476 225 206 
7477 206 225 
7478 225 226 
7479 226 206 
7480 226 207 
7481 207 206 
7482 206 226 
7483 207 226 
7484 226 208 
7485 208 207 
7486 208 226 
7487 226 227 
7488 227 208 
7489 208 227 
7490 227 228 
7491 228 208 
7492 228 209 
7493 209 208 
7494 208 228 
7495 209 228 
7496 228 210 
7497 210 209 
7498 210 228 
7499 228 229 
7500 229 210 
7501 210 229 
7502 229 230 
7503 230 210 
7504 230 211 
7505 211 210 
7506 210 230 
7507 211 230 
7508 230 212 
7509 212 211 
7510 212 230 
7511 230 231 
7512 231 212 
7513 212 231 
7514 231 232 
7515 232 212 
7516 232 213 
7517 213 212 
7518 212 232 
7519 213 232 
7520 232 55 
7521 55 213 
7522 55 232 
7523 232 54 
7524 54 55 
7525 12 13 
7526 13 214 
7527 214 12 
7528 214 13 
7529 13 233 
7530 233 214 
7531 214 233 
7532 233 234 
7533 234 214 
7534 234 215 
7535 215 214 
7536 214 234 
7537 215 234 
7538 234 216 
7539 216 215 
7540 216 234 
7541 234 235 
7542 235 216 
7543 216 235 
7544 235 236 
7545 236 216 
7546 236 217 
7547 217 216 
7548 216 236 
7549 217 236 
7550 236 218 
7551 218 217 
7552 218 236 
7553 236 237 
7554 237 218 
7555 218 237 
7556 237 238 
7557 238 218 
7558 238 219 
7559 219 218 
7560 218 238 
7561 219 238 
7562 238 220 
7563 220 219 
7564 220 238 
7565 238 239 
7566 239 220 
7567 220 239 
7568 239 240 
7569 240 220 
7570 240 221 
7571 221 220 
7572 220 240 
7573 221 240 
7574 240 222 
7575 222 221 
7576 222 240 
7577 240 241 
7578 241 222 
7579 222 241 
7580 241 242 
7581 242 222 
7582 242 223 
7583 223 222 
7584 222 242 
7585 223 242 
7586 242 224 
7587 224 223 
7588 224 242 
7589 242 243 
7590 243 224 
7591 224 243 
7592 243 244 
7593 244 224 
7594 244 225 
7595 225 224 
7596 224 244 
7597 225 244 
7598 244 226 
7599 226 225 
7600 226 244 
7601 244 245 
7602 245 226 
7603 226 245 
7604 245 246 
7605 246 226 
7606 246 227 
7607 227 226 
7608 226 246 
7609 227 246 
7610 246 228 
7611 228 227 
7612 228 246 
7613 246 247 
7614 247 228 
7615 228 247 
7616 247 248 
7617 248 228 
7618 248 229 
7619 229 228 
7620 228 248 
7621 229 248 
7622 248 230 
7623 230 229 
7624 230 248 
7625 248 249 
7626 249 230 
7627 230 249 
7628 249 250 
7629 250 230 
7630 250 231 
7631 231 230 
7632 230 250 
7633 231 250 
7634 250 232 
7635 232 231 
7636 232 250 
7637 250 251 
7638 251 232 
7639 232 251 
7640 251 53 
7641 53 232 
7642 53 54 
7643 54 232 
7644 232 53 
7645 13 14 
7646 14 252 
7647 252 13 
7648 252 233 
7649 233 13 
7650 13 252 
7651 233 252 
7652 252 234 
7653 234 233 
7654 234 252 
7655 252 253 
7656 253 234 
7657 234 253 
7658 253 254 
7659 254 234 
7660 254 235 
7661 235 234 
7662 234 254 
7663 235 254 
7664 254 236 
7665 236 235 
7666 236 254 
7667 254 255 
7668 255 236 
7669 236 255 
7670 255 256 
7671 256 236 
7672 256 237 
7673 237 236 
7674 236 256 
7675 237 256 
7676 256 238 
7677 238 237 
7678 238 256 
7679 256 257 
7680 257 238 
7681 238 257 
7682 257 258 
7683 258 238 
7684 258 239 
7685 239 238 
7686 238 258 
7687 239 258 
7688 258 240 
7689 240 239 
7690 240 258 
7691 258 259 
7692 259 240 
7693 240 259 
7694 259 260 
7695 260 240 
7696 260 241 
7697 241 240 
7698 240 260 
7699 241 260 
7700 260 242 
7701 242 241 
7702 242 260 
7703 260 261 
7704 261 242 
7705 242 261 
7706 261 262 
7707 262 242 
7708 262 243 
7709 243 242 
7710 242 262 
7711 243 262 
7712 262 244 
7713 244 243 
7714 244 262 
7715 262 263 
7716 263 244 
7717 244 263 
7718 263 264 
7719 264 244 
7720 264 245 
7721 245 244 
7722 244 264 
7723 245 264 
7724 264 246 
7725 246 245 
7726 246 264 
7727 264 265 
7728 265 246 
7729 246 265 
7730 265 266 
7731 266 246 
7732 266 247 
7733 247 246 
7734 246 266 
7735 247 266 
7736 266 248 
7737 248 247 
7738 248 266 
7739 266 267 
7740 267 248 
7741 248 267 
7742 267 268 
7743 268 248 
7744 268 249 
7745 249 248 
7746 248 268 
7747 249 268 
7748 268 250 
7749 250 249 
7750 250 268 
7751 268 269 
7752 269 250 
7753 250 269 
7754 269 270 
7755 270 250 
7756 270 251 
7757 251 250 
7758 250 270 
7759 251 270 
7760 270 53 
7761 53 251 
7762 53 270 
7763 270 52 
7764 52 53 
7765 14 15 
7766 15 252 
7767 252 14 
7768 252 15 
7769 15 271 
7770 271 252 
7771 252 271 
7772 271 272 
7773 272 252 
7774 272 253 
7775 253 252 
7776 252 272 
7777 253 272 
7778 272 254 
7779 254 253 
7780 254 272 
7781 272 273 
7782 273 254 
7783 254 273 
7784 273 274 
7785 274 254 
7786 274 255 
7787 255 254 
7788 254 274 
7789 255 274 
7790 274 256 
7791 256 255 
7792 256 274 
7793 274 275 
7794 275 256 
7795 256 275 
7796 275 276 
7797 276 256 
7798 276 257 
7799 257 256 
7800 256 276 
7801 257 276 
7802 276 258 
7803 258 257 
7804 258 276 
7805 276 277 
7806 277 258 
7807 258 277 
7808 277 278 
7809 278 258 
7810 278 259 
7811 259 258 
7812 258 278 
7813 259 278 
7814 278 260 
7815 260 259 
7816 260 278 
7817 278 279 
7818 279 260 
7819 260 279 
7820 279 280 
7821 280 260 
7822 280 261 
7823 261 260 
7824 260 280 
7825 261 280 
7826 280 262 
7827 262 261 
7828 262 280 
7829 280 281 
7830 281 262 
7831 262 281 
7832 281 282 
7833 282 262 
7834 282 263 
7835 263 262 
7836 262 282 
7837 263 282 
7838 282 264 
7839 264 263 
7840 264 282 
7841 282 283 
7842 283 264 
7843 264 283 
7844 283 284 
7845 284 264 
7846 284 265 
7847 265 264 
7848 264 284 
7849 265 284 
7850 284 266 
7851 266 265 
7852 266 284 
7853 284 285 
7854 285 266 
7855 266 285 
7856 285 286 
7857 286 266 
7858 286 267 
7859 267 266 
7860 266 286 
7861 267 286 
7862 286 268 
7863 268 267 
7864 268 286 
7865 286 287 
7866 287 268 
7867 268 287 
7868 287 288 
7869 288 268 
7870 288 269 
7871 269 268 
7872 268 288 
7873 269 288 
7874 288 270 
7875 270 269 
7876 270 288 
7877 288 289 
7878 289 270 
7879 270 289 
7880 289 51 
7881 51 270 
7882 51 52 
7883 52 270 
7884 270 51 
7885 15 16 
7886 16 290 
7887 290 15 
7888 290 271 
7889 271 15 
7890 15 290 
7891 271 290 
7892 290 272 
7893 272 271 
7894 272 290 
7895 290 291 
7896 291 272 
7897 272 291 
7898 291 292 
7899 292 272 
7900 292 273 
7901 273 272 
7902 272 292 
7903 273 292 
7904 292 274 
7905 274 273 
7906 274 292 
7907 292 293 
7908 293 274 
7909 274 293 
7910 293 294 
7911 294 274 
7912 294 275 
7913 275 274 
7914 274 294 
7915 275 294 
7916 294 276 
7917 276 275 
7918 276 294 
7919 294 295 
7920 295 276 
7921 276 295 
7922 295 296 
7923 296 276 
7924 296 277 
7925 277 276 
7926 276 296 
7927 277 296 
7928 296 278 
7929 278 277 
7930 278 296 
7931 296 297 
7932 297 278 
7933 278 297 
7934 297 298 
7935 298 278 
7936 298 279 
7937 279 278 
7938 278 298 
7939 279 298 
7940 298 280 
7941 280 279 
7942 280 298 
7943 298 299 
7944 299 280 
7945 280 299 
7946 299 300 
7947 300 280 
7948 300 281 
7949 281 280 
7950 280 300 
7951 281 300 
7952 300 282 
7953 282 281 
7954 282 300 
7955 300 301 
7956 301 282 
7957 282 301 
7958 301 302 
7959 302 282 
7960 302 283 
7961 283 282 
7962 282 302 
7963 283 302 
7964 302 284 
7965 284 283 
7966 284 302 
7967 302 303 
7968 303 284 
7969 284 303 
7970 303 304 
7971 304 284 
7972 304 285 
7973 285 284 
7974 284 304 
7975 285 304 
7976 304 286 
7977 286 285 
7978 286 304 
7979 304 305 
7980 305 286 
7981 286 305 
7982 305 306 
7983 306 286 
7984 306 287 
7985 287 286 
7986 286 306 
7987 287 306 
7988 306 288 
7989 288 287 
7990 288 306 
7991 306 307 
7992 307 288 
7993 288 307 
7994 307 308 
7995 308 288 
7996 308 289 
7997 289 288 
7998 288 308 
7999 289 308 
8000 308 51 
8001 51 289 
8002 51 308 
8003 308 50 
8004 50 51 
8005 16 17 
8006 17 290 
8007 290 16 
8008 290 17 
8009 17 309 
8010 309 290 
8011 290 309 
8012 309 310 
8013 310 290 
8014 310 291 
8015 291 290 
8016 290 310 
8017 291 310 
8018 310 292 
8019 292 291 
8020 292 310 
8021 310 311 
8022 311 292 
8023 292 311 
8024 311 312 
8025 312 292 
8026 312 293 
8027 293 292 
8028 292 312 
8029 293 312 
8030 312 294 
8031 294 293 
8032 294 312 
8033 312 313 
8034 313 294 
8035 294 313 
8036 313 314 
8037 314 294 
8038 314 295 
8039 295 294 
8040 294 314 
8041 295 314 
8042 314 296 
8043 296 295 
8044 296 314 
8045 314 315 
8046 315 296 
8047 296 315 
8048 315 316 
8049 316 296 
8050 316 297 
8051 297 296 
8052 296 316 
8053 297 316 
8054 316 298 
8055 298 297 
8056 298 316 
8057 316 317 
8058 317 298 
8059 298 317 
8060 317 318 
8061 318 298 
8062 318 299 
8063 299 298 
8064 298 318 
8065 299 318 
8066 318 300 
8067 300 299 
8068 300 318 
8069 318 319 
8070 319 300 
8071 300 319 
8072 319 320 
8073 320 300 
8074 320 301 
8075 301 300 
8076 300 320 
8077 301 320 
8078 320 302 
8079 302 301 
8080 302 320 
8081 320 321 
8082 321 302 
8083 302 321 
8084 321 322 
8085 322 302 
8086 322 303 
8087 303 302 
8088 302 322 
8089 303 322 
8090 322 304 
8091 304 303 
8092 304 322 
8093 322 323 
8094 323 304 
8095 304 323 
8096 323 324 
8097 324 304 
8098 324 305 
8099 305 304 
8100 304 324 
8101 305 324 
8102 324 306 
8103 306 305 
8104 306 324 
8105 324 325 
8106 325 306 
8107 306 325 
8108 325 326 
8109 326 306 
8110 326 307 
8111 307 306 
8112 306 326 
8113 307 326 
8114 326 308 
8115 308 307 
8116 308 326 
8117 326 327 
8118 327 308 
8119 308 327 
8120 327 49 
8121 49 308 
8122 49 50 
8123 50 308 
8124 308 49 
8125 17 18 
8126 18 328 
8127 328 17 
8128 328 309 
8129 309 17 
8130 17 328 
8131 309 328 
8132 328 310 
8133 310 309 
8134 310 328 
8135 328 329 
8136 329 310 
8137 310 329 
8138 329 330 
8139 330 310 
8140 330 311 
8141 311 310 
8142 310 330 
8143 311 330 
8144 330 312 
8145 312 311 
8146 312 330 
8147 330 331 
8148 331 312 
8149 312 331 
8150 331 332 
8151 332 312 
8152 332 313 
8153 313 312 
8154 312 332 
8155 313 332 
8156 332 314 
8157 314 313 
8158 314 332 
8159 332 333 
8160 333 314 
8161 314 333 
8162 333 334 
8163 334 314 
8164 334 315 
8165 315 314 
8166 314 334 
8167 315 334 
8168 334 316 
8169 316 315 
8170 316 334 
8171 334 335 
8172 335 316 
8173 316 335 
8174 335 336 
8175 336 316 
8176 336 317 
8177 317 316 
8178 316 336 
8179 317 336 
8180 336 318 
8181 318 317 
8182 318 336 
8183 336 337 
8184 337 318 
8185 318 337 
8186 337 338 
8187 338 318 
8188 338 319 
8189 319 318 
8190 318 338 
8191 319 338 
8192 338 320 
8193 320 319 
8194 320 338 
8195 338 339 
8196 339 320 
8197 320 339 
8198 339 340 
8199 340 320 
8200 340 321 
8201 321 320 
8202 320 340 
8203 321 340 
8204 340 322 
8205 322 321 
8206 322 340 
8207 340 341 
8208 341 322 
8209 322 341 
8210 341 342 
8211 342 322 
8212 342 323 
8213 323 322 
8214 322 342 
8215 323 342 
8216 342 324 
8217 324 323 
8218 324 342 
8219 342 343 
8220 343 324 
8221 324 343 
8222 343 344 
8223 344 324 
8224 344 325 
8225 325 324 
8226 324 344 
8227 325 344 
8228 344 326 
8229 326 325 
8230 326 344 
8231 344 345 
8232 345 326 
8233 326 345 
8234 345 346 
8235 346 326 
8236 346 327 
8237 327 326 
8238 326 346 
8239 327 346 
8240 346 49 
8241 49 327 
8242 49 346 
8243 346 48 
8244 48 49 
8245 18 19 
8246 19 328 
8247 328 18 
8248 328 19 
8249 19 347 
8250 347 328 
8251 328 347 
8252 347 348 
8253 348 328 
8254 348 329 
8255 329 328 
8256 328 348 
8257 329 348 
8258 348 330 
8259 330 329 
8260 330 348 
8261 348 349 
8262 349 330 
8263 330 349 
8264 349 350 
8265 350 330 
8266 350 331 
8267 331 330 
8268 330 350 
8269 331 350 
8270 350 332 
8271 332 331 
8272 332 350 
8273 350 351 
8274 351 332 
8275 332 351 
8276 351 352 
8277 352 332 
8278 352 333 
8279 333 332 
8280 332 352 
8281 333 352 
8282 352 334 
8283 334 333 
8284 334 352 
8285 352 353 
8286 353 334 
8287 334 353 
8288 353 354 
8289 354 334 
8290 354 335 
8291 335 334 
8292 334 354 
8293 335 354 
8294 354 336 
8295 336 335 
8296 336 354 
8297 354 355 
8298 355 336 
8299 336 355 
8300 355 356 
8301 356 336 
8302 356 337 
8303 337 336 
8304 336 356 
8305 337 356 
8306 356 338 
8307 338 337 
8308 338 356 
8309 356 357 
8310 357 338 
8311 338 357 
8312 357 358 
8313 358 338 
8314 358 339 
8315 339 338 
8316 338 358 
8317 339 358 
8318 358 340 
8319 340 339 
8320 340 358 
8321 358 359 
8322 359 340 
8323 340 359 
8324 359 360 
8325 360 340 
8326 360 341 
8327 341 340 
8328 340 360 
8329 341 360 
8330 360 342 
8331 342 341 
8332 342 360 
8333 360 361 
8334 361 342 
8335 342 361 
8336 361 362 
8337 362 342 
8338 362 343 
8339 343 342 
8340 342 362 
8341 343 362 
8342 362 344 
8343 344 343 
8344 344 362 
8345 362 363 
8346 363 344 
8347 344 363 
8348 363 364 
8349 364 344 
8350 364 345 
8351 345 344 
8352 344 364 
8353 345 364 
8354 364 346 
8355 346 345 
8356 346 364 
8357 364 365 
8358 365 346 
8359 346 365 
8360 365 47 
8361 47 346 
8362 47 48 
8363 48 346 
8364 346 47 
8365 19 20 
8366 20 366 
8367 366 19 
8368 366 347 
8369 347 19 
8370 19 366 
8371 347 366 
8372 366 348 
8373 348 347 
8374 348 366 
8375 366 367 
8376 367 348 
8377 348 367 
8378 367 368 
8379 368 348 
8380 368 349 
8381 349 348 
8382 348 368 
8383 349 368 
8384 368 350 
8385 350 349 
8386 350 368 
8387 368 369 
8388 369 350 
8389 350 369 
8390 369 370 
8391 370 350 
8392 370 351 
8393 351 350 
8394 350 370 
8395 351 370 
8396 370 352 
8397 352 351 
8398 352 370 
8399 370 371 
8400 371 352 
8401 352 371 
8402 371 372 
8403 372 352 
8404 372 353 
8405 353 352 
8406 352 372 
8407 353 372 
8408 372 354 
8409 354 353 
8410 354 372 
8411 372 373 
8412 373 354 
8413 354 373 
8414 373 374 
8415 374 354 
8416 374 355 
8417 355 354 
8418 354 374 
8419 355 374 
8420 374 356 
8421 356 355 
8422 356 374 
8423 374 375 
8424 375 356 
8425 356 375 
8426 375 376 
8427 376 356 
8428 376 357 
8429 357 356 
8430 356 376 
8431 357 376 
8432 376 358 
8433 358 357 
8434 358 376 
8435 376 377 
8436 377 358 
8437 358 377 
8438 377 378 
8439 378 358 
8440 378 359 
8441 359 358 
8442 358 378 
8443 359 378 
8444 378 360 
8445 360 359 
8446 360 378 
8447 378 379 
8448 379 360 
8449 360 379 
8450 379 380 
8451 380 360 
8452 380 361 
8453 361 360 
8454 360 380 
8455 361 380 
8456 380 362 
8457 362 361 
8458 362 380 
8459 380 381 
8460 381 362 
8461 362 381 
8462 381 382 
8463 382 362 
8464 382 363 
8465 363 362 
8466 362 382 
8467 363 382 
8468 382 364 
8469 364 363 
8470 364 382 
8471 382 383 
8472 383 364 
8473 364 383 
8474 383 384 
8475 384 364 
8476 384 365 
8477 365 364 
8478 364 384 
8479 365 384 
8480 384 47 
8481 47 365 
8482 47 384 
8483 384 46 
8484 46 47 
8485 20 21 
8486 21 366 
8487 366 20 
8488 366 21 
8489 21 385 
8490 385 366 
8491 366 385 
8492 385 386 
8493 386 366 
8494 386 367 
8495 367 366 
8496 366 386 
8497 367 386 
8498 386 368 
8499 368 367 
8500 368 386 
8501 386 387 
8502 387 368 
8503 368 387 
8504 387 388 
8505 388 368 
8506 388 369 
8507 369 368 
8508 368 388 
8509 369 388 
8510 388 370 
8511 370 369 
8512 370 388 
8513 388 389 
8514 389 370 
8515 370 389 
8516 389 390 
8517 390 370 
8518 390 371 
8519 371 370 
8520 370 390 
8521 371 390 
8522 390 372 
8523 372 371 
8524 372 390 
8525 390 391 
8526 391 372 
8527 372 391 
8528 391 392 
8529 392 372 
8530 392 373 
8531 373 372 
8532 372 392 
8533 373 392 
8534 392 374 
8535 374 373 
8536 374 392 
8537 392 393 
8538 393 374 
8539 374 393 
8540 393 394 
8541 394 374 
8542 394 375 
8543 375 374 
8544 374 394 
8545 375 394 
8546 394 376 
8547 376 375 
8548 376 394 
8549 394 395 
8550 395 376 
8551 376 395 
8552 395 396 
8553 396 376 
8554 396 377 
8555 377 376 
8556 376 396 
8557 377 396 
8558 396 378 
8559 378 377 
8560 378 396 
8561 396 397 
8562 397 378 
8563 378 397 
8564 397 398 
8565 398 378 
8566 398 379 
8567 379 378 
8568 378 398 
8569 379 398 
8570 398 380 
8571 380 379 
8572 380 398 
8573 398 399 
8574 399 380 
8575 380 399 
8576 399 400 
8577 400 380 
8578 400 381 
8579 381 380 
8580 380 400 
8581 381 400 
8582 400 382 
8583 382 381 
8584 382 400 
8585 400 401 
8586 401 382 
8587 382 401 
8588 401 402 
8589 402 382 
8590 402 383 
8591 383 382 
8592 382 402 
8593 383 402 
8594 402 384 
8595 384 383 
8596 384 402 
8597 402 403 
8598 403 384 
8599 384 403 
8600 403 45 
8601 45 384 
8602 45 46 
8603 46 384 
8604 384 45 
8605 21 22 
8606 22 404 
8607 404 21 
8608 404 385 
8609 385 21 
8610 21 404 
8611 385 404 
8612 404 386 
8613 386 385 
8614 386 404 
8615 404 405 
8616 405 386 
8617 386 405 
8618 405 406 
8619 406 386 
8620 406 387 
8621 387 386 
8622 386 406 
8623 387 406 
8624 406 388 
8625 388 387 
8626 388 406 
8627 406 407 
8628 407 388 
8629 388 407 
8630 407 408 
8631 408 388 
8632 408 389 
8633 389 388 
8634 388 408 
8635 389 408 
8636 408 390 
8637 390 389 
8638 390 408 
8639 408 409 
8640 409 390 
8641 390 409 
8642 409 410 
8643 410 390 
8644 410 391 
8645 391 390 
8646 390 410 
8647 391 410 
8648 410 392 
8649 392 391 
8650 392 410 
8651 410 411 
8652 411 392 
8653 392 411 
8654 411 412 
8655 412 392 
8656 412 393 
8657 393 392 
8658 392 412 
8659 393 412 
8660 412 394 
8661 394 393 
8662 394 412 
8663 412 413 
8664 413 394 
8665 394 413 
8666 413 414 
8667 414 394 
8668 414 395 
8669 395 394 
8670 394 414 
8671 395 414 
8672 414 396 
8673 396 395 
8674 396 414 
8675 414 415 
8676 415 396 
8677 396 415 
8678 415 416 
8679 416 396 
8680 416 397 
8681 397 396 
8682 396 416 
8683 397 416 
8684 416 398 
8685 398 397 
8686 398 416 
8687 416 417 
8688 417 398 
8689 398 417 
8690 417 418 
8691 418 398 
8692 418 399 
8693 399 398 
8694 398 418 
8695 399 418 
8696 418 400 
8697 400 399 
8698 400 418 
8699 418 419 
8700 419 400 
8701 400 419 
8702 419 420 
8703 420 400 
8704 420 401 
8705 401 400 
8706 400 420 
8707 401 420 
8708 420 402 
8709 402 401 
8710 402 420 
8711 420 421 
8712 421 402 
8713 402 421 
8714 421 422 
8715 422 402 
8716 422 403 
8717 403 402 
8718 402 422 
8719 403 422 
8720 422 45 
8721 45 403 
8722 45 422 
8723 422 44 
8724 44 45 
8725 22 23 
8726 23 404 
8727 404 22 
8728 404 23 
8729 23 423 
8730 423 404 
8731 404 423 
8732 423 424 
8733 424 404 
8734 424 405 
8735 405 404 
8736 404 424 
8737 405 424 
8738 424 406 
8739 406 405 
8740 406 424 
8741 424 425 
8742 425 406 
8743 406 425 
8744 425 426 
8745 426 406 
8746 426 407 
8747 407 406 
8748 406 426 
8749 407 426 
8750 426 408 
8751 408 407 
8752 408 426 
8753 426 427 
8754 427 408 
8755 408 427 
8756 427 428 
8757 428 408 
8758 428 409 
8759 409 408 
8760 408 428 
8761 409 428 
8762 428 410 
8763 410 409 
8764 410 428 
8765 428 429 
8766 429 410 
8767 410 429 
8768 429 430 
8769 430 410 
8770 430 411 
8771 411 410 
8772 410 430 
8773 411 430 
8774 430 412 
8775 412 411 
8776 412 430 
8777 430 431 
8778 431 412 
8779 412 431 
8780 431 432 
8781 432 412 
8782 432 413 
8783 413 412 
8784 412 432 
8785 413 432 
8786 432 414 
8787 414 413 
8788 414 432 
8789 432 433 
8790 433 414 
8791 414 433 
8792 433 434 
8793 434 414 
8794 434 415 
8795 415 414 
8796 414 434 
8797 415 434 
8798 434 416 
8799 416 415 
8800 416 434 
8801 434 435 
8802 435 416 
8803 416 435 
8804 435 436 
8805 436 416 
8806 436 417 
8807 417 416 
8808 416 436 
8809 417 436 
8810 436 418 
8811 418 417 
8812 418 436 
8813 436 437 
8814 437 418 
8815 418 437 
8816 437 438 
8817 438 418 
8818 438 419 
8819 419 418 
8820 418 438 
8821 419 438 
8822 438 420 
8823 420 419 
8824 420 438 
8825 438 439 
8826 439 420 
8827 420 439 
8828 439 440 
8829 440 420 
8830 440 421 
8831 421 420 
8832 420 440 
8833 421 440 
8834 440 422 
8835 422 421 
8836 422 440 
8837 440 441 
8838 441 422 
8839 422 441 
8840 441 43 
8841 43 422 
8842 43 44 
8843 44 422 
8844 422 43 
8845 23 2 
8846 2 24 
8847 24 23 
8848 24 423 
8849 423 23 
8850 23 24 
8851 423 24 
8852 24 424 
8853 424 423 
8854 424 24 
8855 24 25 
8856 25 424 
8857 424 25 
8858 25 26 
8859 26 424 
8860 26 425 
8861 425 424 
8862 424 26 
8863 425 26 
8864 26 426 
8865 426 425 
8866 426 26 
8867 26 27 
8868 27 426 
8869 426 27 
8870 27 28 
8871 28 426 
8872 28 427 
8873 427 426 
8874 426 28 
8875 427 28 
8876 28 428 
8877 428 427 
8878 428 28 
8879 28 29 
8880 29 428 
8881 428 29 
8882 29 30 
8883 30 428 
8884 30 429 
8885 429 428 
8886 428 30 
8887 429 30 
8888 30 430 
8889 430 429 
8890 430 30 
8891 30 31 
8892 31 430 
8893 430 31 
8894 31 32 
8895 32 430 
8896 32 431 
8897 431 430 
8898 430 32 
8899 431 32 
8900 32 432 
8901 432 431 
8902 432 32 
8903 32 33 
8904 33 432 
8905 432 33 
8906 33 34 
8907 34 432 
8908 34 433 
8909 433 432 
8910 432 34 
8911 433 34 
8912 34 434 
8913 434 433 
8914 434 34 
8915 34 35 
8916 35 434 
8917 434 35 
8918 35 36 
8919 36 434 
8920 36 435 
8921 435 434 
8922 434 36 
8923 435 36 
8924 36 436 
8925 436 435 
8926 436 36 
8927 36 37 
8928 37 436 
8929 436 37 
8930 37 38 
8931 38 436 
8932 38 437 
8933 437 436 
8934 436 38 
8935 437 38 
8936 38 438 
8937 438 437 
8938 438 38 
8939 38 39 
8940 39 438 
8941 438 39 
8942 39 40 
8943 40 438 
8944 40 439 
8945 439 438 
8946 438 40 
8947 439 40 
8948 40 440 
8949 440 439 
8950 440 40 
8951 40 41 
8952 41 440 
8953 440 41 
8954 41 42 
8955 42 440 
8956 42 441 
8957 441 440 
8958 440 42 
8959 441 42 
8960 42 43 
8961 43 441 
8962 43 42 
8963 42 3 
8964 3 43 
2 1 2 800
81 1 5 80 
82 80 5 81 
83 80 81 82 
84 82 79 80 
85 79 82 78 
86 78 82 83 
87 78 83 84 
88 84 77 78 
89 77 84 76 
90 76 84 85 
91 76 85 86 
92 86 75 76 
93 75 86 74 
94 74 86 87 
95 74 87 88 
96 88 73 74 
97 73 88 72 
98 72 88 89 
99 72 89 90 
100 90 71 72 
101 71 90 70 
102 70 90 91 
103 70 91 92 
104 92 69 70 
105 69 92 68 
106 68 92 93 
107 68 93 94 
108 94 67 68 
109 67 94 66 
110 66 94 95 
111 66 95 96 
112 96 65 66 
113 65 96 64 
114 64 96 97 
115 64 97 98 
116 98 63 64 
117 63 98 62 
118 62 98 99 
119 62 99 61 
120 61 4 62 
121 5 6 100 
122 100 81 5 
123 81 100 82 
124 82 100 101 
125 82 101 102 
126 102 83 82 
127 83 102 84 
128 84 102 103 
129 84 103 104 
130 104 85 84 
131 85 104 86 
132 86 104 105 
133 86 105 106 
134 106 87 86 
135 87 106 88 
136 88 106 107 
137 88 107 108 
138 108 89 88 
139 89 108 90 
140 90 108 109 
141 90 109 110 
142 110 91 90 
143 91 110 92 
144 92 110 111 
145 92 111 112 
146 112 93 92 
147 93 112 94 
148 94 112 113 
149 94 113 114 
150 114 95 94 
151 95 114 96 
152 96 114 115 
153 96 115 116 
154 116 97 96 
155 97 116 98 
156 98 116 117 
157 98 117 118 
158 118 99 98 
159 99 118 61 
160 61 118 60 
161 6 7 100 
162 100 7 119 
163 100 119 120 
164 120 101 100 
165 101 120 102 
166 102 120 121 
167 102 121 122 
168 122 103 102 
169 103 122 104 
170 104 122 123 
171 104 123 124 
172 124 105 104 
173 105 124 106 
174 106 124 125 
175 106 125 126 
176 126 107 106 
177 107 126 108 
178 108 126 127 
179 108 127 128 
180 128 109 108 
181 109 128 110 
182 110 128 129 
183 110 129 130 
184 130 111 110 
185 111 130 112 
186 112 130 131 
187 112 131 132 
188 132 113 112 
189 113 132 114 
190 114 132 133 
191 114 133 134 
192 134 115 114 
193 115 134 116 
194 116 134 135 
195 116 135 136 
196 136 117 116 
197 117 136 118 
198 118 136 137 
199 118 137 59 
200 59 60 118 
201 7 8 138 
202 138 119 7 
203 119 138 120 
204 120 138 139 
205 120 139 140 
206 140 121 120 
207 121 140 122 
208 122 140 141 
209 122 141 142 
210 142 123 122 
211 123 142 124 
212 124 142 143 
213 124 143 144 
214 144 125 124 
215 125 144 126 
216 126 144 145 
217 126 145 146 
218 146 127 126 
219 127 146 128 
220 128 146 147 
221 128 147 148 
222 148 129 128 
223 129 148 130 
224 130 148 149 
225 130 149 150 
226 150 131 130 
227 131 150 132 
228 132 150 151 
229 132 151 152 
230 152 133 132 
231 133 152 134 
232 134 152 153 
233 134 153 154 
234 154 135 134 
235 135 154 136 
236 136 154 155 
237 136 155 156 
238 156 137 136 
239 137 156 59 
240 59 156 58 
241 8 9 138 
242 138 9 157 
243 138 157 158 
244 158 139 138 
245 139 158 140 
246 140 158 159 
247 140 159 160 
248 160 141 140 
249 141 160 142 
250 142 160 161 
251 142 161 162 
252 162 143 142 
253 143 162 144 
254 144 162 163 
255 144 163 164 
256 164 145 144 
257 145 164 146 
258 146 164 165 
259 146 165 166 
260 166 147 146 
261 147 166 148 
262 148 166 167 
263 148 167 168 
264 168 149 148 
265 149 168 150 
266 150 168 169 
267 150 169 170 
268 170 151 150 
269 151 170 152 
270 152 170 171 
271 152 171 172 
272 172 153 152 
273 153 172 154 
274 154 172 173 
275 154 173 174 
276 174 155 154 
277 155 174 156 
278 156 174 175 
279 156 175 57 
280 57 58 156 
281 9 10 176 
282 176 157 9 
283 157 176 158 
284 158 176 177 
285 158 177 178 
286 178 159 158 
287 159 178 160 
288 160 178 179 
289 160 179 180 
290 180 161 160 
291 161 180 162 
292 162 180 181 
293 162 181 182 
294 182 163 162 
295 163 182 164 
296 164 182 183 
297 164 183 184 
298 184 165 164 
299 165 184 166 
300 166 184 185 
301 166 185 186 
302 186 167 166 
303 167 186 168 
304 168 186 187 
305 168 187 188 
306 188 169 168 
307 169 188 170 
308 170 188 189 
309 170 189 190 
310 190 171 170 
311 171 190 172 
312 172 190 191 
313 172 191 192 
314 192 173 172 
315 173 192 174 
316 174 192 193 
317 174 193 194 
318 194 175 174 
319 175 194 57 
320 57 194 56 
321 10 11 176 
322 176 11 195 
323 176 195 196 
324 196 177 176 
325 177 196 178 
326 178 196 197 
327 178 197 198 
328 198 179 178 
329 179 198 180 
330 180 198 199 
331 180 199 200 
332 200 181 180 
333 181 200 182 
334 182 200 201 
335 182 201 202 
336 202 183 182 
337 183 202 184 
338 184 202 203 
339 184 203 204 
340 204 185 184 
341 185 204 186 
342 186 204 205 
343 186 205 206 
344 206 187 186 
345 187 206 188 
346 188 206 207 
347 188 207 208 
348 208 189 188 
349 189 208 190 
350 190 208 209 
351 190 209 210 
352 210 191 190 
353 191 210 192 
354 192 210 211 
355 192 211 212 
356 212 193 192 
357 193 212 194 
358 194 212 213 
359 194 213 55 
360 55 56 194 
361 11 12 214 
362 214 195 11 
363 195 214 196 
364 196 214 215 
365 196 215 216 
366 216 197 196 
367 197 216 198 
368 198 216 217 
369 198 217 218 
370 218 199 198 
371 199 218 200 
372 200 218 219 
373 200 219 220 
374 220 201 200 
375 201 220 202 
376 202 220 221 
377 202 221 222 
378 222 203 202 
379 203 222 204 
380 204 222 223 
381 204 223 224 
382 224 205 204 
383 205 224 206 
384 206 224 225 
385 206 225 226 
386 226 207 206 
387 207 226 208 
388 208 226 227 
389 208 227 228 
390 228 209 208 
391 209 228 210 
392 210 228 229 
393 210 229 230 
394 230 211 210 
395 211 230 212 
396 212 230 231 
397 212 231 232 
398 232 213 212 
399 213 232 55 
400 55 232 54 
401 12 13 214 
402 214 13 233 
403 214 233 234 
404 234 215 214 
405 215 234 216 
406 216 234 235 
407 216 235 236 
408 236 217 216 
409 217 236 218 
410 218 236 237 
411 218 237 238 
412 238 219 218 
413 219 238 220 
414 220 238 239 
415 220 239 240 
416 240 221 220 
417 221 240 222 
418 222 240 241 
419 222 241 242 
420 242 223 222 
421 223 242 224 
422 224 242 243 
423 224 243 244 
424 244 225 224 
425 225 244 226 
426 226 244 245 
427 226 245 246 
428 246 227 226 
429 227 246 228 
430 228 246 247 
431 228 247 248 
432 248 229 228 
433 229 248 230 
434 230 248 249 
435 230 249 250 
436 250 231 230 
437 231 250 232 
438 232 250 251 
439 232 251 53 
440 53 54 232 
441 13 14 252 
442 252 233 13 
443 233 252 234 
444 234 252 253 
445 234 253 254 
446 254 235 234 
447 235 254 236 
448 236 254 255 
449 236 255 256 
450 256 237 236 
451 237 256 238 
452 238 256 257 
453 238 257 258 
454 258 239 238 
455 239 258 240 
456 240 258 259 
457 240 259 260 
458 260 241 240 
459 241 260 242 
460 242 260 261 
461 242 261 262 
462 262 243 242 
463 243 262 244 
464 244 262 263 
465 244 263 264 
466 264 245 244 
467 245 264 246 
468 246 264 265 
469 246 265 266 
470 266 247 246 
471 247 266 248 
472 248 266 267 
473 248 267 268 
474 268 249 248 
475 249 268 250 
476 250 268 269 
477 250 269 270 
478 270 251 250 
479 251 270 53 
480 53 270 52 
481 14 15 252 
482 252 15 271 
483 252 271 272 
484 272 253 252 
485 253 272 254 
486 254 272 273 
487 254 273 274 
488 274 255 254 
489 255 274 256 
490 256 274 275 
491 256 275 276 
492 276 257 256 
493 257 276 258 
494 258 276 277 
495 258 277 278 
496 278 259 258 
497 259 278 260 
498 260 278 279 
499 260 279 280 
500 280 261 260 
501 261 280 262 
502 262 280 281 
503 262 281 282 
504 282 263 262 
505 263 282 264 
506 264 282 283 
507 264 283 284 
508 284 265 264 
509 265 284 266 
510 266 284 285 
511 266 285 286 
512 286 267 266 
513 267 286 268 
514 268 286 287 
515 268 287 288 
516 288 269 268 
517 269 288 270 
518 270 288 289 
519 270 289 51 
520 51 52 270 
521 15 16 290 
522 290 271 15 
523 271 290 272 
524 272 290 291 
525 272 291 292 
526 292 273 272 
527 273 292 274 
528 274 292 293 
529 274 293 294 
530 294 275 274 
531 275 294 276 
532 276 294 295 
533 276 295 296 
534 296 277 276 
535 277 296 278 
536 278 296 297 
537 278 297 298 
538 298 279 278 
539 279 298 280 
540 280 298 299 
541 280 299 300 
542 300 281 280 
543 281 300 282 
544 282 300 301 
545 282 301 302 
546 302 283 282 
547 283 302 284 
548 284 302 303 
549 284 303 304 
550 304 285 284 
551 285 304 286 
552 286 304 305 
553 286 305 306 
554 306 287 286 
555 287 306 288 
556 288 306 307 
557 288 307 308 
558 308 289 288 
559 289 308 51 
560 51 308 50 
561 16 17 290 
562 290 17 309 
563 290 309 310 
564 310 291 290 
565 291 310 292 
566 292 310 311 
567 292 311 312 
568 312 293 292 
569 293 312 294 
570 294 312 313 
571 294 313 314 
572 314 295 294 
573 295 314 296 
574 296 314 315 
575 296 315 316 
576 316 297 296 
577 297 316 298 
578 298 316 317 
579 298 317 318 
580 318 299 298 
581 299 318 300 
582 300 318 319 
583 300 319 320 
584 320 301 300 
585 301 320 302 
586 302 320 321 
587 302 321 322 
588 322 303 302 
589 303 322 304 
590 304 322 323 
591 304 323 324 
592 324 305 304 
593 305 324 306 
594 306 324 325 
595 306 325 326 
596 326 307 306 
597 307 326 308 
598 308 326 327 
599 308 327 49 
600 49 50 308 
601 17 18 328 
602 328 309 17 
603 309 328 310 
604 310 328 329 
605 310 329 330 
606 330 311 310 
607 311 330 312 
608 312 330 331 
609 312 331 332 
610 332 313 312 
611 313 332 314 
612 314 332 333 
613 314 333 334 
614 334 315 314 
615 315 334 316 
616 316 334 335 
617 316 335 336 
618 336 317 316 
619 317 336 318 
620 318 336 337 
621 318 337 338 
622 338 319 318 
623 319 338 320 
624 320 338 339 
625 320 339 340 
626 340 321 320 
627 321 340 322 
628 322 340 341 
629 322 341 342 
630 342 323 322 
631 323 342 324 
632 324 342 343 
633 324 343 344 
634 344 325 324 
635 325 344 326 
636 326 344 345 
637 326 345 346 
638 346 327 326 
639 327 346 49 
640 49 346 48 
641 18 19 328 
642 328 19 347 
643 328 347 348 
644 348 329 328 
645 329 348 330 
646 330 348 349 
647 330 349 350 
648 350 331 330 
649 331 350 332 
650 332 350 351 
651 332 351 352 
652 352 333 332 
653 333 352 334 
654 334 352 353 
655 334 353 354 
656 354 335 334 
657 335 354 336 
658 336 354 355 
659 336 355 356 
660 356 337 336 
661 337 356 338 
662 338 356 357 
663 338 357 358 
664 358 339 338 
665 339 358 340 
666 340 358 359 
667 340 359 360 
668 360 341 340 
669 341 360 342 
670 342 360 361 
671 342 361 362 
672 362 343 342 
673 343 362 344 
674 344 362 363 
675 344 363 364 
676 364 345 344 
677 345 364 346 
678 346 364 365 
679 346 365 47 
680 47 48 346 
681 19 20 366 
682 366 347 19 
683 347 366 348 
684 348 366 367 
685 348 367 368 
686 368 349 348 
687 349 368 350 
688 350 368 369 
689 350 369 370 
690 370 351 350 
691 351 370 352 
692 352 370 371 
693 352 371 372 
694 372 353 352 
695 353 372 354 
696 354 372 373 
697 354 373 374 
698 374 355 354 
699 355 374 356 
700 356 374 375 
701 356 375 376 
702 376 357 356 
703 357 376 358 
704 358 376 377 
705 358 377 378 
706 378 359 358 
707 359 378 360 
708 360 378 379 
709 360 379 380 
710 380 361 360 
711 361 380 362 
712 362 380 381 
713 362 381 382 
714 382 363 362 
715 363 382 364 
716 364 382 383 
717 364 383 384 
718 384 365 364 
719 365 384 47 
720 47 384 46 
721 20 21 366 
722 366 21 385 
723 366 385 386 
724 386 367 366 
725 367 386 368 
726 368 386 387 
727 368 387 388 
728 388 369 368 
729 369 388 370 
730 370 388 389 
731 370 389 390 
732 390 371 370 
733 371 390 372 
734 372 390 391 
735 372 391 392 
736 392 373 372 
737 373 392 374 
738 374 392 393 
739 374 393 394 
740 394 375 374 
741 375 394 376 
742 376 394 395 
743 376 395 396 
744 396 377 376 
745 377 396 378 
746 378 396 397 
747 378 397 398 
748 398 379 378 
749 379 398 380 
750 380 398 399 
751 380 399 400 
752 400 381 380 
753 381 400 382 
754 382 400 401 
755 382 401 402 
756 402 383 382 
757 383 402 384 
758 384 402 403 
759 384 403 45 
760 45 46 384 
761 21 22 404 
762 404 385 21 
763 385 404 386 
764 386 404 405 
765 386 405 406 
766 406 387 386 
767 387 406 388 
768 388 406 407 
769 388 407 408 
770 408 389 388 
771 389 408 390 
772 390 408 409 
773 390 409 410 
774 410 391 390 
775 391 410 392 
776 392 410 411 
777 392 411 412 
778 412 393 392 
779 393 412 394 
780 394 412 413 
781 394 413 414 
782 414 395 394 
783 395 414 396 
784 396 414 415 
785 396 415 416 
786 416 397 396 
787 397 416 398 
788 398 416 417 
789 398 417 418 
790 418 399 398 
791 399 418 400 
792 400 418 419 
793 400 419 420 
794 420 401 400 
795 401 420 402 
796 402 420 421 
797 402 421 422 
798 422 403 402 
799 403 422 45 
800 45 422 44 
801 22 23 404 
802 404 23 423 
803 404 423 424 
804 424 405 404 
805 405 424 406 
806 406 424 425 
807 406 425 426 
808 426 407 406 
809 407 426 408 
810 408 426 427 
811 408 427 428 
812 428 409 408 
813 409 428 410 
814 410 428 429 
815 410 429 430 
816 430 411 410 
817 411 430 412 
818 412 430 431 
819 412 431 432 
820 432 413 412 
821 413 432 414 
822 414 432 433 
823 414 433 434 
824 434 415 414 
825 415 434 416 
826 416 434 435 
827 416 435 436 
828 436 417 416 
829 417 436 418 
830 418 436 437 
831 418 437 438 
832 438 419 418 
833 419 438 420 
834 420 438 439 
835 420 439 440 
836 440 421 420 
837 421 440 422 
838 422 440 441 
839 422 441 43 
840 43 44 422 
841 23 2 24 
842 24 423 23 
843 423 24 424 
844 424 24 25 
845 424 25 26 
846 26 425 424 
847 425 26 426 
848 426 26 27 
849 426 27 28 
850 28 427 426 
851 427 28 428 
852 428 28 29 
853 428 29 30 
854 30 429 428 
855 429 30 430 
856 430 30 31 
857 430 31 32 
858 32 431 430 
859 431 32 432 
860 432 32 33 
861 432 33 34 
862 34 433 432 
863 433 34 434 
864 434 34 35 
865 434 35 36 
866 36 435 434 
867 435 36 436 
868 436 36 37 
869 436 37 38 
870 38 437 436 
871 437 38 438 
872 438 38 39 
873 438 39 40 
874 40 439 438 
875 439 40 440 
876 440 40 41 
877 440 41 42 
878 42 441 440 
879 441 42 43 
880 43 42 3 
$EndElements
