$MeshFormat
4.1 0 8
$EndMeshFormat
$PhysicalNames
6
1 1 "Γ¹"
1 2 "Γ²"
1 3 "Γ³"
1 4 "Γ⁴"
1 6 "Γ"
2 5 "Ω"
$EndPhysicalNames
$Entities
4 5 1 0
1 0 0 0 0 
2 1 0 0 0 
3 1.707106781186547 0.7071067811865476 0 0 
4 0.7071067811865475 0.7071067811865476 0 0 
1 0 0 0 1 0 0 1 1 2 1 -2 
2 1 0 0 1.707106781186547 0.7071067811865476 0 1 2 2 2 -3 
3 0.7071067811865475 0.7071067811865476 0 1.707106781186547 0.7071067811865476 0 1 3 2 3 -4 
4 0 0 0 0.7071067811865475 0.7071067811865476 0 1 4 2 4 -1 
5 0 0 0 1.707106781186547 0.7071067811865476 0 1 6 0 
1 0 0 0 1.707106781186547 0.7071067811865476 0 1 5 4 1 2 3 4 
$EndEntities
$Nodes
10 529 1 529
0 1 0 1
1
0 0 0
0 2 0 1
2
1 0 0
0 3 0 1
3
1.707106781186547 0.7071067811865476 0
0 4 0 1
4
0.7071067811865475 0.7071067811865476 0
1 1 0 21
5
6
7
8
9
10
11
12
13
14
15
16
17
18
19
20
21
22
23
24
25
0.04545454545445496 0 0
0.09090909090891895 0 0
0.136363636363379 0 0
0.1818181818177918 0 0
0.2272727272722045 0 0
0.2727272727266173 0 0
0.3181818181810301 0 0
0.3636363636354429 0 0
0.4090909090898557 0 0
0.4545454545442684 0 0
0.4999999999986921 0 0
0.5454545454533466 0 0
0.5909090909080119 0 0
0.6363636363626773 0 0
0.6818181818173427 0 0
0.727272727272008 0 0
0.7727272727266733 0 0
0.8181818181813386 0 0
0.8636363636360039 0 0
0.9090909090906694 0 0
0.9545454545453347 0 0
1 2 0 21
26
27
28
29
30
31
32
33
34
35
36
37
38
39
40
41
42
43
44
45
46
1.032141217326602 0.03214121732660174 0
1.064282434653221 0.06428243465322067 0
1.096423651979843 0.09642365197984325 0
1.128564869306439 0.1285648693064392 0
1.160706086633002 0.1607060866330018 0
1.192847303959549 0.1928473039595494 0
1.224988521286126 0.2249885212861257 0
1.25712973861269 0.2571297386126897 0
1.289270955939337 0.2892709559393369 0
1.321412173265865 0.3214121732658647 0
1.353553390592416 0.3535533905924161 0
1.385694607919157 0.3856946079191573 0
1.41783582524585 0.4178358252458503 0
1.449977042572638 0.4499770425726378 0
1.482118259899343 0.482118259899343 0
1.514259477226127 0.514259477226127 0
1.546400694552856 0.5464006945528559 0
1.57854191187953 0.5785419118795297 0
1.610683129206383 0.6106831292063827 0
1.642824346533033 0.6428243465330327 0
1.674965563859854 0.6749655638598543 0
1 3 0 21
47
48
49
50
51
52
53
54
55
56
57
58
59
60
61
62
63
64
65
66
67
1.66165223573215 0.7071067811865476 0
1.616197690277752 0.7071067811865476 0
1.570743144823354 0.7071067811865476 0
1.525288599368956 0.7071067811865476 0
1.479834053914559 0.7071067811865476 0
1.434379508460161 0.7071067811865476 0
1.388924963005763 0.7071067811865476 0
1.343470417551366 0.7071067811865476 0
1.298015872096968 0.7071067811865476 0
1.252561326642571 0.7071067811865476 0
1.207106781188173 0.7071067811865476 0
1.161652235733775 0.7071067811865476 0
1.116197690279378 0.7071067811865476 0
1.07074314482498 0.7071067811865476 0
1.025288599370582 0.7071067811865476 0
0.9798340539159601 0.7071067811865476 0
0.934379508461058 0.7071067811865476 0
0.888924963006156 0.7071067811865476 0
0.8434704175512538 0.7071067811865476 0
0.7980158720963517 0.7071067811865476 0
0.7525613266414497 0.7071067811865476 0
1 4 0 21
68
69
70
71
72
73
74
75
76
77
78
79
80
81
82
83
84
85
86
87
88
0.6749655638599158 0.6749655638599159 0
0.6428243465333127 0.6428243465333128 0
0.6106831292067115 0.6106831292067116 0
0.5785419118801784 0.5785419118801786 0
0.5464006945536504 0.5464006945536504 0
0.5142594772271143 0.5142594772271143 0
0.4821182599005566 0.4821182599005566 0
0.4499770425739821 0.4499770425739822 0
0.4178358252473958 0.4178358252473959 0
0.3856946079208248 0.3856946079208249 0
0.353553390594239 0.3535533905942391 0
0.3214121732675028 0.3214121732675029 0
0.2892709559407524 0.2892709559407524 0
0.25712973861399 0.2571297386139901 0
0.2249885212872277 0.2249885212872277 0
0.1928473039604821 0.1928473039604822 0
0.160706086633746 0.160706086633746 0
0.1285648693070097 0.1285648693070098 0
0.09642365198025193 0.09642365198025193 0
0.06428243465349004 0.06428243465349004 0
0.03214121732673614 0.03214121732673614 0
1 5 0 0
2 1 0 441
89
90
91
92
93
94
95
96
97
98
99
100
101
102
103
104
105
106
107
108
109
110
111
112
113
114
115
116
117
118
119
120
121
122
123
124
125
126
127
128
129
130
131
132
133
134
135
136
137
138
139
140
141
142
143
144
145
146
147
148
149
150
151
152
153
154
155
156
157
158
159
160
161
162
163
164
165
166
167
168
169
170
171
172
173
174
175
176
177
178
179
180
181
182
183
184
185
186
187
188
189
190
191
192
193
194
195
196
197
198
199
200
201
202
203
204
205
206
207
208
209
210
211
212
213
214
215
216
217
218
219
220
221
222
223
224
225
226
227
228
229
230
231
232
233
234
235
236
237
238
239
240
241
242
243
244
245
246
247
248
249
250
251
252
253
254
255
256
257
258
259
260
261
262
263
264
265
266
267
268
269
270
271
272
273
274
275
276
277
278
279
280
281
282
283
284
285
286
287
288
289
290
291
292
293
294
295
296
297
298
299
300
301
302
303
304
305
306
307
308
309
310
311
312
313
314
315
316
317
318
319
320
321
322
323
324
325
326
327
328
329
330
331
332
333
334
335
336
337
338
339
340
341
342
343
344
345
346
347
348
349
350
351
352
353
354
355
356
357
358
359
360
361
362
363
364
365
366
367
368
369
370
371
372
373
374
375
376
377
378
379
380
381
382
383
384
385
386
387
388
389
390
391
392
393
394
395
396
397
398
399
400
401
402
403
404
405
406
407
408
409
410
411
412
413
414
415
416
417
418
419
420
421
422
423
424
425
426
427
428
429
430
431
432
433
434
435
436
437
438
439
440
441
442
443
444
445
446
447
448
449
450
451
452
453
454
455
456
457
458
459
460
461
462
463
464
465
466
467
468
469
470
471
472
473
474
475
476
477
478
479
480
481
482
483
484
485
486
487
488
489
490
491
492
493
494
495
496
497
498
499
500
501
502
503
504
505
506
507
508
509
510
511
512
513
514
515
516
517
518
519
520
521
522
523
524
525
526
527
528
529
0.07759576278120532 0.03214121732673003 0
0.1097369801079734 0.06428243465347777 0
0.1418781974347493 0.09642365198023337 0
0.1740194147615201 0.1285648693069839 0
0.2061606320882687 0.1607060866337121 0
0.2383018494150166 0.1928473039604399 0
0.2704430667417748 0.2249885212871777 0
0.3025842840685485 0.257129738613931 0
0.334725501395326 0.2892709559406881 0
0.3668667187220866 0.3214121732674284 0
0.3990079360488348 0.3535533905941562 0
0.431149153375448 0.3856946079207491 0
0.4632903707020449 0.4178358252473257 0
0.4954315880286606 0.4499770425739211 0
0.5275728053552613 0.4821182599005013 0
0.5597140226818497 0.5142594772270694 0
0.5918552400084149 0.5464006945536143 0
0.62399645733497 0.5785419118801494 0
0.6561376746615378 0.6106831292066967 0
0.6882788919881614 0.6428243465333001 0
0.7204201093147952 0.6749655638599129 0
0.1230503082356831 0.03214121732672391 0
0.155191525562465 0.06428243465346556 0
0.1873327428892544 0.09642365198021478 0
0.2194739602160378 0.128564869306958 0
0.2516151775427985 0.1607060866336784 0
0.2837563948695577 0.1928473039603974 0
0.3158976121963281 0.2249885212871275 0
0.3480388295231127 0.2571297386138719 0
0.3801800468499048 0.2892709559406237 0
0.4123212641766752 0.321412173267354 0
0.4444624815034349 0.3535533905940735 0
0.476603698830075 0.3856946079206733 0
0.5087449161566973 0.4178358252472554 0
0.5408861334833421 0.4499770425738599 0
0.5730273508099687 0.4821182599004463 0
0.6051685681365873 0.5142594772270243 0
0.6373097854631812 0.5464006945535781 0
0.6694510027897627 0.5785419118801195 0
0.701592220116365 0.6106831292066818 0
0.7337334374430111 0.6428243465332875 0
0.7658746547696743 0.6749655638599102 0
0.1685048536901571 0.03214121732671781 0
0.200646071016953 0.06428243465345328 0
0.2327872883437562 0.09642365198019621 0
0.2649285056705523 0.128564869306932 0
0.2970697229973251 0.1607060866336445 0
0.3292109403240959 0.192847303960355 0
0.3613521576508788 0.2249885212870774 0
0.3934933749776743 0.2571297386138128 0
0.4256345923044814 0.2892709559405594 0
0.4577758096312617 0.3214121732672793 0
0.4899170269580331 0.3535533905939905 0
0.5220582442847005 0.3856946079205976 0
0.5541994616113484 0.4178358252471851 0
0.5863406789380223 0.4499770425737988 0
0.6184818962646751 0.4821182599003911 0
0.6506231135913239 0.5142594772269796 0
0.6827643309179465 0.5464006945535421 0
0.7149055482445551 0.5785419118800902 0
0.7470467655711922 0.6106831292066669 0
0.7791879828978601 0.6428243465332747 0
0.8113292002245532 0.6749655638599076 0
0.2139593991445861 0.0321412173267117 0
0.246100616471398 0.06428243465344108 0
0.2782418337982172 0.09642365198017762 0
0.3103830511250281 0.1285648693069061 0
0.3425242684518154 0.1607060866336107 0
0.3746654857785998 0.1928473039603126 0
0.406806703105397 0.2249885212870273 0
0.438947920432206 0.2571297386137536 0
0.4710891377590299 0.2892709559404951 0
0.5032303550858226 0.321412173267205 0
0.5353715724126077 0.3535533905939076 0
0.5675127897393043 0.3856946079205216 0
0.5996540070659802 0.4178358252471149 0
0.6317952243926855 0.4499770425737378 0
0.6639364417193663 0.482118259900336 0
0.6960776590460477 0.5142594772269345 0
0.7282188763727014 0.5464006945535059 0
0.7603600936993389 0.5785419118800607 0
0.7925013110260124 0.6106831292066518 0
0.824642528352705 0.6428243465332618 0
0.8567837456794305 0.6749655638599049 0
0.259413944599015 0.03214121732670559 0
0.291555161925843 0.06428243465342881 0
0.323696379252678 0.09642365198015906 0
0.3558375965795039 0.1285648693068802 0
0.3879788139063055 0.1607060866335768 0
0.4201200312331034 0.1928473039602702 0
0.4522612485599155 0.2249885212869773 0
0.4844024658867376 0.2571297386136945 0
0.5165436832135786 0.2892709559404307 0
0.5486849005403832 0.3214121732671306 0
0.5808261178671821 0.3535533905938247 0
0.6129673351939083 0.3856946079204459 0
0.6451085525206118 0.4178358252470446 0
0.6772497698473485 0.4499770425736768 0
0.7093909871740578 0.4821182599002808 0
0.7415322045007717 0.5142594772268898 0
0.7736734218274561 0.5464006945534697 0
0.8058146391541221 0.578541911880031 0
0.8379558564808329 0.6106831292066369 0
0.87009707380755 0.6428243465332489 0
0.9022382911343076 0.6749655638599018 0
0.304868490053444 0.03214121732669949 0
0.3370097073802881 0.06428243465341657 0
0.369150924707139 0.09642365198014048 0
0.4012921420339797 0.1285648693068542 0
0.4334333593607956 0.160706086633543 0
0.4655745766876074 0.1928473039602278 0
0.4977157940144338 0.2249885212869272 0
0.5298570113412691 0.2571297386136354 0
0.5619982286681272 0.2892709559403663 0
0.5941394459949439 0.3214121732670561 0
0.6262806633217567 0.3535533905937419 0
0.6584218806485121 0.3856946079203701 0
0.6905630979752434 0.4178358252469744 0
0.7227043153020116 0.4499770425736156 0
0.7548455326287489 0.4821182599002256 0
0.7869867499554954 0.514259477226845 0
0.8191279672822113 0.5464006945534338 0
0.8512691846089059 0.5785419118800017 0
0.8834104019356535 0.610683129206622 0
0.9155516192623948 0.6428243465332365 0
0.9476928365891848 0.6749655638598991 0
0.3503230355078602 0.03214121732669338 0
0.3824642528347077 0.06428243465340433 0
0.4146054701615618 0.09642365198012189 0
0.4467466874884047 0.1285648693068283 0
0.4788879048152223 0.1607060866335092 0
0.5110291221420349 0.1928473039601854 0
0.5431703394688632 0.2249885212868771 0
0.5753115567956989 0.2571297386135764 0
0.607452774122561 0.2892709559403021 0
0.6395939914493776 0.3214121732669816 0
0.6717352087761914 0.3535533905936591 0
0.7038764261029635 0.3856946079202942 0
0.7360176434297097 0.4178358252469041 0
0.7681588607564964 0.4499770425735544 0
0.8003000780832492 0.4821182599001705 0
0.8324412954100155 0.5142594772268 0
0.8645825127367496 0.5464006945533978 0
0.8967237300634604 0.5785419118799719 0
0.9288649473902317 0.6106831292066069 0
0.9610061647169854 0.6428243465332236 0
0.9931473820437942 0.6749655638598965 0
0.395777580962266 0.03214121732668727 0
0.4279187982891067 0.06428243465339209 0
0.4600600156159538 0.09642365198010336 0
0.4922012329427886 0.1285648693068023 0
0.5243424502695978 0.1607060866334754 0
0.5564836675964012 0.192847303960143 0
0.5886248849232212 0.224988521286827 0
0.6207661022500471 0.2571297386135173 0
0.6529073195769035 0.2892709559402376 0
0.6850485369037089 0.3214121732669072 0
0.7171897542305139 0.3535533905935762 0
0.749330971557292 0.3856946079202185 0
0.7814721888840432 0.4178358252468338 0
0.8136134062108386 0.4499770425734934 0
0.8457546235375966 0.4821182599001154 0
0.8778958408643724 0.5142594772267552 0
0.9100370581911146 0.5464006945533614 0
0.9421782755178316 0.5785419118799429 0
0.9743194928446167 0.6106831292065918 0
1.006460710171372 0.6428243465332111 0
1.03860192749819 0.6749655638598934 0
0.4412321264166721 0.03214121732668115 0
0.473373343743506 0.06428243465337985 0
0.505514561070346 0.09642365198008475 0
0.5376557783971727 0.1285648693067764 0
0.5697969957239735 0.1607060866334415 0
0.6019382130507674 0.1928473039601006 0
0.634079430377579 0.2249885212867769 0
0.6662206477043954 0.2571297386134581 0
0.6983618650312458 0.2892709559401734 0
0.7305030823580405 0.3214121732668326 0
0.762644299684836 0.3535533905934933 0
0.7947855170116209 0.3856946079201427 0
0.8269267343383768 0.4178358252467637 0
0.8590679516651809 0.4499770425734323 0
0.8912091689919439 0.4821182599000602 0
0.9233503863187296 0.5142594772267104 0
0.9554916036454795 0.5464006945533254 0
0.9876328209722025 0.578541911879913 0
1.019774038299001 0.6106831292065772 0
1.051915255625758 0.6428243465331983 0
1.084056472952585 0.6749655638598906 0
0.4866866718710779 0.03214121732667505 0
0.518827889197905 0.06428243465336761 0
0.5509691065247382 0.09642365198006617 0
0.5831103238515568 0.1285648693067505 0
0.6152515411783487 0.1607060866334077 0
0.6473927585051338 0.1928473039600582 0
0.6795339758319368 0.2249885212867269 0
0.7116751931587436 0.2571297386133991 0
0.743816410485588 0.289270955940109 0
0.7759576278123719 0.3214121732667582 0
0.8080988451391585 0.3535533905934105 0
0.8402400624659495 0.3856946079200668 0
0.8723812797927104 0.4178358252466934 0
0.9045224971195227 0.4499770425733711 0
0.936663714446291 0.4821182599000049 0
0.968804931773086 0.5142594772266654 0
1.000946149099845 0.5464006945532894 0
1.033087366426573 0.5785419118798836 0
1.065228583753386 0.6106831292065621 0
1.097369801080144 0.6428243465331854 0
1.129511018406981 0.674965563859888 0
0.5321412173254946 0.03214121732666894 0
0.5642824346523141 0.06428243465335537 0
0.5964236519791396 0.09642365198004763 0
0.6285648693059498 0.1285648693067245 0
0.6607060866327327 0.1607060866333739 0
0.6928473039595076 0.1928473039600158 0
0.7249885212863021 0.2249885212866767 0
0.7571297386130987 0.2571297386133399 0
0.7892709559399367 0.2892709559400446 0
0.821412173266709 0.3214121732666838 0
0.8535533905934862 0.3535533905933276 0
0.8856946079202834 0.3856946079199912 0
0.9178358252470484 0.4178358252466231 0
0.9499770425738686 0.4499770425733099 0
0.9821182599006417 0.4821182598999498 0
1.014259477227446 0.5142594772266207 0
1.046400694554212 0.546400694553253 0
1.078541911880946 0.5785419118798542 0
1.110683129207772 0.6106831292065471 0
1.142824346534531 0.6428243465331727 0
1.174965563861377 0.6749655638598848 0
0.5775957627801312 0.03214121732666282 0
0.6097369801069331 0.0642824346533431 0
0.6418781974337405 0.09642365198002903 0
0.6740194147605318 0.1285648693066986 0
0.706160632087295 0.1607060866333401 0
0.7383018494140497 0.1928473039599734 0
0.7704430667408246 0.2249885212866266 0
0.8025842840676004 0.2571297386132808 0
0.8347255013944218 0.2892709559399803 0
0.8668667187211723 0.3214121732666092 0
0.8990079360479297 0.3535533905932448 0
0.9311491533747216 0.3856946079199152 0
0.963290370701481 0.4178358252465528 0
0.9954315880282985 0.4499770425732489 0
1.027572805355066 0.4821182598998947 0
1.059714022681869 0.5142594772265758 0
1.091855240008632 0.546400694553217 0
1.123996457335361 0.5785419118798246 0
1.15613767466219 0.6106831292065324 0
1.18827889198894 0.6428243465331602 0
1.220420109315784 0.6749655638598823 0
0.6230503082347781 0.03214121732665672 0
0.6551915255615617 0.06428243465333086 0
0.6873327428883507 0.09642365198001043 0
0.7194739602151223 0.1285648693066727 0
0.7516151775418656 0.1607060866333062 0
0.7837563948685998 0.192847303959931 0
0.8158976121953547 0.2249885212865765 0
0.8480388295221095 0.2571297386132217 0
0.8801800468489132 0.289270955939916 0
0.9123212641756415 0.3214121732665348 0
0.9444624815023781 0.3535533905931619 0
0.9766036988291651 0.3856946079198394 0
1.008744916155918 0.4178358252464826 0
1.040886133482732 0.4499770425731878 0
1.073027350809493 0.4821182598998395 0
1.105168568136295 0.514259477226531 0
1.137309785463054 0.5464006945531812 0
1.169451002789777 0.5785419118797953 0
1.201592220116609 0.6106831292065173 0
1.233733437443349 0.6428243465331472 0
1.26587465477019 0.6749655638598795 0
0.6685048536894257 0.03214121732665061 0
0.7006460710161905 0.06428243465331862 0
0.7327872883429613 0.09642365197999189 0
0.7649285056697134 0.1285648693066467 0
0.7970697229964363 0.1607060866332725 0
0.8292109403231497 0.1928473039598886 0
0.861352157649885 0.2249885212865265 0
0.8934933749766183 0.2571297386131626 0
0.9256345923034048 0.2892709559398516 0
0.9577758096301109 0.3214121732664603 0
0.9899170269568268 0.353553390593079 0
1.022058244283608 0.3856946079197638 0
1.054199461610355 0.4178358252464123 0
1.086340678937166 0.4499770425731268 0
1.118481896263921 0.4821182598997844 0
1.150623113590721 0.5142594772264861 0
1.182764330917477 0.5464006945531447 0
1.214905548244194 0.5785419118797656 0
1.247046765571028 0.6106831292065021 0
1.279187982897758 0.6428243465331344 0
1.311329200224598 0.6749655638598766 0
0.7139593991440725 0.0321412173266445 0
0.7461006164708193 0.06428243465330638 0
0.7782418337975714 0.09642365197997328 0
0.8103830511243042 0.1285648693066208 0
0.842524268451007 0.1607060866332386 0
0.8746654857776996 0.1928473039598462 0
0.9068067031044148 0.2249885212864764 0
0.9389479204311271 0.2571297386131035 0
0.971089137757896 0.2892709559397872 0
1.00323035508458 0.3214121732663858 0
1.035371572411275 0.3535533905929962 0
1.067512789738053 0.3856946079196878 0
1.099654007064791 0.4178358252463421 0
1.1317952243916 0.4499770425730654 0
1.163936441718349 0.4821182598997291 0
1.196077659045146 0.5142594772264411 0
1.228218876371899 0.5464006945531087 0
1.260360093698612 0.5785419118797362 0
1.292501311025448 0.6106831292064875 0
1.324642528352168 0.6428243465331219 0
1.356783745679004 0.6749655638598737 0
0.7594139445987192 0.0321412173266384 0
0.7915551619254483 0.06428243465329414 0
0.8236963792521816 0.0964236519799547 0
0.8558375965788948 0.1285648693065948 0
0.8879788139055776 0.1607060866332047 0
0.9201200312322497 0.1928473039598038 0
0.9522612485589449 0.2249885212864262 0
0.984402465885636 0.2571297386130443 0
1.016543683212388 0.2892709559397229 0
1.048684900539049 0.3214121732663114 0
1.080826117865724 0.3535533905929133 0
1.112967335192496 0.3856946079196121 0
1.145108552519229 0.4178358252462718 0
1.177249769846034 0.4499770425730044 0
1.209390987172776 0.4821182598996741 0
1.241532204499572 0.5142594772263962 0
1.273673421826321 0.5464006945530727 0
1.305814639153028 0.5785419118797067 0
1.337955856479867 0.6106831292064725 0
1.370097073806577 0.6428243465331092 0
1.402238291133412 0.6749655638598712 0
0.8048684900533664 0.03214121732663229 0
0.837009707380077 0.06428243465328187 0
0.8691509247067917 0.09642365197993616 0
0.9012921420334854 0.1285648693065689 0
0.9334333593601482 0.1607060866331709 0
0.9655745766867995 0.1928473039597614 0
0.9977157940134752 0.2249885212863761 0
1.029857011340145 0.2571297386129853 0
1.061998228666879 0.2892709559396586 0
1.094139445993518 0.321412173266237 0
1.126280663320173 0.3535533905928304 0
1.158421880646939 0.3856946079195363 0
1.190563097973666 0.4178358252462016 0
1.222704315300468 0.4499770425729434 0
1.254845532627205 0.4821182598996188 0
1.286986749953998 0.5142594772263513 0
1.319127967280744 0.5464006945530363 0
1.351269184607445 0.5785419118796772 0
1.383410401934286 0.6106831292064573 0
1.415551619260986 0.6428243465330964 0
1.447692836587819 0.6749655638598683 0
0.8503230355080135 0.03214121732662618 0
0.8824642528347055 0.06428243465326965 0
0.9146054701614019 0.09642365197991756 0
0.9467466874880761 0.128564869306543 0
0.9788879048147192 0.1607060866331371 0
1.01102912214135 0.192847303959719 0
1.043170339468005 0.224988521286326 0
1.075311556794653 0.2571297386129262 0
1.10745277412137 0.2892709559395943 0
1.139593991447988 0.3214121732661624 0
1.171735208774621 0.3535533905927476 0
1.203876426101383 0.3856946079194605 0
1.236017643428102 0.4178358252461313 0
1.268158860754902 0.4499770425728823 0
1.300300078081633 0.4821182598995637 0
1.332441295408423 0.5142594772263064 0
1.364582512735166 0.5464006945530003 0
1.396723730061862 0.5785419118796479 0
1.428864947388705 0.6106831292064426 0
1.461006164715395 0.6428243465330837 0
1.493147382042226 0.6749655638598653 0
0.8957775809626606 0.03214121732662006 0
0.9279187982893342 0.06428243465325739 0
0.9600600156160124 0.09642365197989899 0
0.9922012329426669 0.128564869306517 0
1.024342450269289 0.1607060866331033 0
1.056483667595899 0.1928473039596766 0
1.088624884922535 0.224988521286276 0
1.120766102249163 0.257129738612867 0
1.152907319575862 0.2892709559395299 0
1.185048536902457 0.3214121732660881 0
1.21718975422907 0.3535533905926648 0
1.249330971555827 0.3856946079193848 0
1.281472188882539 0.4178358252460611 0
1.313613406209336 0.4499770425728212 0
1.34575462353606 0.4821182598995085 0
1.377895840862849 0.5142594772262615 0
1.410037058189588 0.5464006945529644 0
1.442178275516279 0.5785419118796181 0
1.474319492843125 0.6106831292064275 0
1.506460710169804 0.6428243465330709 0
1.538601927496633 0.6749655638598626 0
0.9412321264173076 0.03214121732661396 0
0.9733733437439632 0.06428243465324515 0
1.005514561070623 0.09642365197988043 0
1.037655778397258 0.1285648693064911 0
1.069796995723861 0.1607060866330695 0
1.10193821305045 0.1928473039596341 0
1.134079430377066 0.2249885212862259 0
1.166220647703672 0.257129738612808 0
1.198361865030354 0.2892709559394656 0
1.230503082356926 0.3214121732660136 0
1.262644299683519 0.3535533905925818 0
1.29478551701027 0.3856946079193089 0
1.326926734336976 0.4178358252459907 0
1.35906795166377 0.44997704257276 0
1.391209168990488 0.4821182598994533 0
1.423350386317275 0.5142594772262168 0
1.455491603644011 0.5464006945529279 0
1.487632820970696 0.5785419118795888 0
1.519774038297544 0.6106831292064125 0
1.551915255624214 0.642824346533058 0
1.584056472951039 0.6749655638598598 0
0.9866866718719547 0.03214121732660784 0
1.018827889198592 0.06428243465323291 0
1.050969106525233 0.09642365197986183 0
1.083110323851848 0.1285648693064652 0
1.115251541178431 0.1607060866330356 0
1.147392758505 0.1928473039595917 0
1.179533975831595 0.2249885212861757 0
1.21167519315818 0.2571297386127488 0
1.243816410484845 0.2892709559394012 0
1.275957627811395 0.3214121732659391 0
1.308098845137967 0.3535533905924989 0
1.340240062464713 0.3856946079192331 0
1.372381279791414 0.4178358252459206 0
1.404522497118204 0.4499770425726988 0
1.436663714444915 0.4821182598993982 0
1.468804931771701 0.5142594772261716 0
1.500946149098433 0.546400694552892 0
1.533087366425113 0.5785419118795593 0
1.565228583751963 0.6106831292063978 0
1.597369801078624 0.6428243465330453 0
1.629511018405447 0.6749655638598568 0
$EndNodes
$Elements
6 3960 1 10828
1 1 1 22
1 1 5 
2 5 6 
3 6 7 
4 7 8 
5 8 9 
6 9 10 
7 10 11 
8 11 12 
9 12 13 
10 13 14 
11 14 15 
12 15 16 
13 16 17 
14 17 18 
15 18 19 
16 19 20 
17 20 21 
18 21 22 
19 22 23 
20 23 24 
21 24 25 
22 25 2 
1 2 1 22
23 2 26 
24 26 27 
25 27 28 
26 28 29 
27 29 30 
28 30 31 
29 31 32 
30 32 33 
31 33 34 
32 34 35 
33 35 36 
34 36 37 
35 37 38 
36 38 39 
37 39 40 
38 40 41 
39 41 42 
40 42 43 
41 43 44 
42 44 45 
43 45 46 
44 46 3 
1 3 1 22
45 3 47 
46 47 48 
47 48 49 
48 49 50 
49 50 51 
50 51 52 
51 52 53 
52 53 54 
53 54 55 
54 55 56 
55 56 57 
56 57 58 
57 58 59 
58 59 60 
59 60 61 
60 61 62 
61 62 63 
62 63 64 
63 64 65 
64 65 66 
65 66 67 
66 67 4 
1 4 1 22
67 4 68 
68 68 69 
69 69 70 
70 70 71 
71 71 72 
72 72 73 
73 73 74 
74 74 75 
75 75 76 
76 76 77 
77 77 78 
78 78 79 
79 79 80 
80 80 81 
81 81 82 
82 82 83 
83 83 84 
84 84 85 
85 85 86 
86 86 87 
87 87 88 
88 88 1 
1 5 1 2904
7925 1 5 
7926 5 88 
7927 88 1 
7928 88 5 
7929 5 89 
7930 89 88 
7931 88 89 
7932 89 90 
7933 90 88 
7934 90 87 
7935 87 88 
7936 88 90 
7937 87 90 
7938 90 86 
7939 86 87 
7940 86 90 
7941 90 91 
7942 91 86 
7943 86 91 
7944 91 92 
7945 92 86 
7946 92 85 
7947 85 86 
7948 86 92 
7949 85 92 
7950 92 84 
7951 84 85 
7952 84 92 
7953 92 93 
7954 93 84 
7955 84 93 
7956 93 94 
7957 94 84 
7958 94 83 
7959 83 84 
7960 84 94 
7961 83 94 
7962 94 82 
7963 82 83 
7964 82 94 
7965 94 95 
7966 95 82 
7967 82 95 
7968 95 96 
7969 96 82 
7970 96 81 
7971 81 82 
7972 82 96 
7973 81 96 
7974 96 80 
7975 80 81 
7976 80 96 
7977 96 97 
7978 97 80 
7979 80 97 
7980 97 98 
7981 98 80 
7982 98 79 
7983 79 80 
7984 80 98 
7985 79 98 
7986 98 78 
7987 78 79 
7988 78 98 
7989 98 99 
7990 99 78 
7991 78 99 
7992 99 100 
7993 100 78 
7994 100 77 
7995 77 78 
7996 78 100 
7997 77 100 
7998 100 76 
7999 76 77 
8000 76 100 
8001 100 101 
8002 101 76 
8003 76 101 
8004 101 102 
8005 102 76 
8006 102 75 
8007 75 76 
8008 76 102 
8009 75 102 
8010 102 74 
8011 74 75 
8012 74 102 
8013 102 103 
8014 103 74 
8015 74 103 
8016 103 104 
8017 104 74 
8018 104 73 
8019 73 74 
8020 74 104 
8021 73 104 
8022 104 72 
8023 72 73 
8024 72 104 
8025 104 105 
8026 105 72 
8027 72 105 
8028 105 106 
8029 106 72 
8030 106 71 
8031 71 72 
8032 72 106 
8033 71 106 
8034 106 70 
8035 70 71 
8036 70 106 
8037 106 107 
8038 107 70 
8039 70 107 
8040 107 108 
8041 108 70 
8042 108 69 
8043 69 70 
8044 70 108 
8045 69 108 
8046 108 68 
8047 68 69 
8048 68 108 
8049 108 109 
8050 109 68 
8051 68 109 
8052 109 67 
8053 67 68 
8054 67 4 
8055 4 68 
8056 68 67 
8057 5 6 
8058 6 110 
8059 110 5 
8060 110 89 
8061 89 5 
8062 5 110 
8063 89 110 
8064 110 90 
8065 90 89 
8066 90 110 
8067 110 111 
8068 111 90 
8069 90 111 
8070 111 112 
8071 112 90 
8072 112 91 
8073 91 90 
8074 90 112 
8075 91 112 
8076 112 92 
8077 92 91 
8078 92 112 
8079 112 113 
8080 113 92 
8081 92 113 
8082 113 114 
8083 114 92 
8084 114 93 
8085 93 92 
8086 92 114 
8087 93 114 
8088 114 94 
8089 94 93 
8090 94 114 
8091 114 115 
8092 115 94 
8093 94 115 
8094 115 116 
8095 116 94 
8096 116 95 
8097 95 94 
8098 94 116 
8099 95 116 
8100 116 96 
8101 96 95 
8102 96 116 
8103 116 117 
8104 117 96 
8105 96 117 
8106 117 118 
8107 118 96 
8108 118 97 
8109 97 96 
8110 96 118 
8111 97 118 
8112 118 98 
8113 98 97 
8114 98 118 
8115 118 119 
8116 119 98 
8117 98 119 
8118 119 120 
8119 120 98 
8120 120 99 
8121 99 98 
8122 98 120 
8123 99 120 
8124 120 100 
8125 100 99 
8126 100 120 
8127 120 121 
8128 121 100 
8129 100 121 
8130 121 122 
8131 122 100 
8132 122 101 
8133 101 100 
8134 100 122 
8135 101 122 
8136 122 102 
8137 102 101 
8138 102 122 
8139 122 123 
8140 123 102 
8141 102 123 
8142 123 124 
8143 124 102 
8144 124 103 
8145 103 102 
8146 102 124 
8147 103 124 
8148 124 104 
8149 104 103 
8150 104 124 
8151 124 125 
8152 125 104 
8153 104 125 
8154 125 126 
8155 126 104 
8156 126 105 
8157 105 104 
8158 104 126 
8159 105 126 
8160 126 106 
8161 106 105 
8162 106 126 
8163 126 127 
8164 127 106 
8165 106 127 
8166 127 128 
8167 128 106 
8168 128 107 
8169 107 106 
8170 106 128 
8171 107 128 
8172 128 108 
8173 108 107 
8174 108 128 
8175 128 129 
8176 129 108 
8177 108 129 
8178 129 130 
8179 130 108 
8180 130 109 
8181 109 108 
8182 108 130 
8183 109 130 
8184 130 67 
8185 67 109 
8186 67 130 
8187 130 66 
8188 66 67 
8189 6 7 
8190 7 110 
8191 110 6 
8192 110 7 
8193 7 131 
8194 131 110 
8195 110 131 
8196 131 132 
8197 132 110 
8198 132 111 
8199 111 110 
8200 110 132 
8201 111 132 
8202 132 112 
8203 112 111 
8204 112 132 
8205 132 133 
8206 133 112 
8207 112 133 
8208 133 134 
8209 134 112 
8210 134 113 
8211 113 112 
8212 112 134 
8213 113 134 
8214 134 114 
8215 114 113 
8216 114 134 
8217 134 135 
8218 135 114 
8219 114 135 
8220 135 136 
8221 136 114 
8222 136 115 
8223 115 114 
8224 114 136 
8225 115 136 
8226 136 116 
8227 116 115 
8228 116 136 
8229 136 137 
8230 137 116 
8231 116 137 
8232 137 138 
8233 138 116 
8234 138 117 
8235 117 116 
8236 116 138 
8237 117 138 
8238 138 118 
8239 118 117 
8240 118 138 
8241 138 139 
8242 139 118 
8243 118 139 
8244 139 140 
8245 140 118 
8246 140 119 
8247 119 118 
8248 118 140 
8249 119 140 
8250 140 120 
8251 120 119 
8252 120 140 
8253 140 141 
8254 141 120 
8255 120 141 
8256 141 142 
8257 142 120 
8258 142 121 
8259 121 120 
8260 120 142 
8261 121 142 
8262 142 122 
8263 122 121 
8264 122 142 
8265 142 143 
8266 143 122 
8267 122 143 
8268 143 144 
8269 144 122 
8270 144 123 
8271 123 122 
8272 122 144 
8273 123 144 
8274 144 124 
8275 124 123 
8276 124 144 
8277 144 145 
8278 145 124 
8279 124 145 
8280 145 146 
8281 146 124 
8282 146 125 
8283 125 124 
8284 124 146 
8285 125 146 
8286 146 126 
8287 126 125 
8288 126 146 
8289 146 147 
8290 147 126 
8291 126 147 
8292 147 148 
8293 148 126 
8294 148 127 
8295 127 126 
8296 126 148 
8297 127 148 
8298 148 128 
8299 128 127 
8300 128 148 
8301 148 149 
8302 149 128 
8303 128 149 
8304 149 150 
8305 150 128 
8306 150 129 
8307 129 128 
8308 128 150 
8309 129 150 
8310 150 130 
8311 130 129 
8312 130 150 
8313 150 151 
8314 151 130 
8315 130 151 
8316 151 65 
8317 65 130 
8318 65 66 
8319 66 130 
8320 130 65 
8321 7 8 
8322 8 152 
8323 152 7 
8324 152 131 
8325 131 7 
8326 7 152 
8327 131 152 
8328 152 132 
8329 132 131 
8330 132 152 
8331 152 153 
8332 153 132 
8333 132 153 
8334 153 154 
8335 154 132 
8336 154 133 
8337 133 132 
8338 132 154 
8339 133 154 
8340 154 134 
8341 134 133 
8342 134 154 
8343 154 155 
8344 155 134 
8345 134 155 
8346 155 156 
8347 156 134 
8348 156 135 
8349 135 134 
8350 134 156 
8351 135 156 
8352 156 136 
8353 136 135 
8354 136 156 
8355 156 157 
8356 157 136 
8357 136 157 
8358 157 158 
8359 158 136 
8360 158 137 
8361 137 136 
8362 136 158 
8363 137 158 
8364 158 138 
8365 138 137 
8366 138 158 
8367 158 159 
8368 159 138 
8369 138 159 
8370 159 160 
8371 160 138 
8372 160 139 
8373 139 138 
8374 138 160 
8375 139 160 
8376 160 140 
8377 140 139 
8378 140 160 
8379 160 161 
8380 161 140 
8381 140 161 
8382 161 162 
8383 162 140 
8384 162 141 
8385 141 140 
8386 140 162 
8387 141 162 
8388 162 142 
8389 142 141 
8390 142 162 
8391 162 163 
8392 163 142 
8393 142 163 
8394 163 164 
8395 164 142 
8396 164 143 
8397 143 142 
8398 142 164 
8399 143 164 
8400 164 144 
8401 144 143 
8402 144 164 
8403 164 165 
8404 165 144 
8405 144 165 
8406 165 166 
8407 166 144 
8408 166 145 
8409 145 144 
8410 144 166 
8411 145 166 
8412 166 146 
8413 146 145 
8414 146 166 
8415 166 167 
8416 167 146 
8417 146 167 
8418 167 168 
8419 168 146 
8420 168 147 
8421 147 146 
8422 146 168 
8423 147 168 
8424 168 148 
8425 148 147 
8426 148 168 
8427 168 169 
8428 169 148 
8429 148 169 
8430 169 170 
8431 170 148 
8432 170 149 
8433 149 148 
8434 148 170 
8435 149 170 
8436 170 150 
8437 150 149 
8438 150 170 
8439 170 171 
8440 171 150 
8441 150 171 
8442 171 172 
8443 172 150 
8444 172 151 
8445 151 150 
8446 150 172 
8447 151 172 
8448 172 65 
8449 65 151 
8450 65 172 
8451 172 64 
8452 64 65 
8453 8 9 
8454 9 152 
8455 152 8 
8456 152 9 
8457 9 173 
8458 173 152 
8459 152 173 
8460 173 174 
8461 174 152 
8462 174 153 
8463 153 152 
8464 152 174 
8465 153 174 
8466 174 154 
8467 154 153 
8468 154 174 
8469 174 175 
8470 175 154 
8471 154 175 
8472 175 176 
8473 176 154 
8474 176 155 
8475 155 154 
8476 154 176 
8477 155 176 
8478 176 156 
8479 156 155 
8480 156 176 
8481 176 177 
8482 177 156 
8483 156 177 
8484 177 178 
8485 178 156 
8486 178 157 
8487 157 156 
8488 156 178 
8489 157 178 
8490 178 158 
8491 158 157 
8492 158 178 
8493 178 179 
8494 179 158 
8495 158 179 
8496 179 180 
8497 180 158 
8498 180 159 
8499 159 158 
8500 158 180 
8501 159 180 
8502 180 160 
8503 160 159 
8504 160 180 
8505 180 181 
8506 181 160 
8507 160 181 
8508 181 182 
8509 182 160 
8510 182 161 
8511 161 160 
8512 160 182 
8513 161 182 
8514 182 162 
8515 162 161 
8516 162 182 
8517 182 183 
8518 183 162 
8519 162 183 
8520 183 184 
8521 184 162 
8522 184 163 
8523 163 162 
8524 162 184 
8525 163 184 
8526 184 164 
8527 164 163 
8528 164 184 
8529 184 185 
8530 185 164 
8531 164 185 
8532 185 186 
8533 186 164 
8534 186 165 
8535 165 164 
8536 164 186 
8537 165 186 
8538 186 166 
8539 166 165 
8540 166 186 
8541 186 187 
8542 187 166 
8543 166 187 
8544 187 188 
8545 188 166 
8546 188 167 
8547 167 166 
8548 166 188 
8549 167 188 
8550 188 168 
8551 168 167 
8552 168 188 
8553 188 189 
8554 189 168 
8555 168 189 
8556 189 190 
8557 190 168 
8558 190 169 
8559 169 168 
8560 168 190 
8561 169 190 
8562 190 170 
8563 170 169 
8564 170 190 
8565 190 191 
8566 191 170 
8567 170 191 
8568 191 192 
8569 192 170 
8570 192 171 
8571 171 170 
8572 170 192 
8573 171 192 
8574 192 172 
8575 172 171 
8576 172 192 
8577 192 193 
8578 193 172 
8579 172 193 
8580 193 63 
8581 63 172 
8582 63 64 
8583 64 172 
8584 172 63 
8585 9 10 
8586 10 194 
8587 194 9 
8588 194 173 
8589 173 9 
8590 9 194 
8591 173 194 
8592 194 174 
8593 174 173 
8594 174 194 
8595 194 195 
8596 195 174 
8597 174 195 
8598 195 196 
8599 196 174 
8600 196 175 
8601 175 174 
8602 174 196 
8603 175 196 
8604 196 176 
8605 176 175 
8606 176 196 
8607 196 197 
8608 197 176 
8609 176 197 
8610 197 198 
8611 198 176 
8612 198 177 
8613 177 176 
8614 176 198 
8615 177 198 
8616 198 178 
8617 178 177 
8618 178 198 
8619 198 199 
8620 199 178 
8621 178 199 
8622 199 200 
8623 200 178 
8624 200 179 
8625 179 178 
8626 178 200 
8627 179 200 
8628 200 180 
8629 180 179 
8630 180 200 
8631 200 201 
8632 201 180 
8633 180 201 
8634 201 202 
8635 202 180 
8636 202 181 
8637 181 180 
8638 180 202 
8639 181 202 
8640 202 182 
8641 182 181 
8642 182 202 
8643 202 203 
8644 203 182 
8645 182 203 
8646 203 204 
8647 204 182 
8648 204 183 
8649 183 182 
8650 182 204 
8651 183 204 
8652 204 184 
8653 184 183 
8654 184 204 
8655 204 205 
8656 205 184 
8657 184 205 
8658 205 206 
8659 206 184 
8660 206 185 
8661 185 184 
8662 184 206 
8663 185 206 
8664 206 186 
8665 186 185 
8666 186 206 
8667 206 207 
8668 207 186 
8669 186 207 
8670 207 208 
8671 208 186 
8672 208 187 
8673 187 186 
8674 186 208 
8675 187 208 
8676 208 188 
8677 188 187 
8678 188 208 
8679 208 209 
8680 209 188 
8681 188 209 
8682 209 210 
8683 210 188 
8684 210 189 
8685 189 188 
8686 188 210 
8687 189 210 
8688 210 190 
8689 190 189 
8690 190 210 
8691 210 211 
8692 211 190 
8693 190 211 
8694 211 212 
8695 212 190 
8696 212 191 
8697 191 190 
8698 190 212 
8699 191 212 
8700 212 192 
8701 192 191 
8702 192 212 
8703 212 213 
8704 213 192 
8705 192 213 
8706 213 214 
8707 214 192 
8708 214 193 
8709 193 192 
8710 192 214 
8711 193 214 
8712 214 63 
8713 63 193 
8714 63 214 
8715 214 62 
8716 62 63 
8717 10 11 
8718 11 194 
8719 194 10 
8720 194 11 
8721 11 215 
8722 215 194 
8723 194 215 
8724 215 216 
8725 216 194 
8726 216 195 
8727 195 194 
8728 194 216 
8729 195 216 
8730 216 196 
8731 196 195 
8732 196 216 
8733 216 217 
8734 217 196 
8735 196 217 
8736 217 218 
8737 218 196 
8738 218 197 
8739 197 196 
8740 196 218 
8741 197 218 
8742 218 198 
8743 198 197 
8744 198 218 
8745 218 219 
8746 219 198 
8747 198 219 
8748 219 220 
8749 220 198 
8750 220 199 
8751 199 198 
8752 198 220 
8753 199 220 
8754 220 200 
8755 200 199 
8756 200 220 
8757 220 221 
8758 221 200 
8759 200 221 
8760 221 222 
8761 222 200 
8762 222 201 
8763 201 200 
8764 200 222 
8765 201 222 
8766 222 202 
8767 202 201 
8768 202 222 
8769 222 223 
8770 223 202 
8771 202 223 
8772 223 224 
8773 224 202 
8774 224 203 
8775 203 202 
8776 202 224 
8777 203 224 
8778 224 204 
8779 204 203 
8780 204 224 
8781 224 225 
8782 225 204 
8783 204 225 
8784 225 226 
8785 226 204 
8786 226 205 
8787 205 204 
8788 204 226 
8789 205 226 
8790 226 206 
8791 206 205 
8792 206 226 
8793 226 227 
8794 227 206 
8795 206 227 
8796 227 228 
8797 228 206 
8798 228 207 
8799 207 206 
8800 206 228 
8801 207 228 
8802 228 208 
8803 208 207 
8804 208 228 
8805 228 229 
8806 229 208 
8807 208 229 
8808 229 230 
8809 230 208 
8810 230 209 
8811 209 208 
8812 208 230 
8813 209 230 
8814 230 210 
8815 210 209 
8816 210 230 
8817 230 231 
8818 231 210 
8819 210 231 
8820 231 232 
8821 232 210 
8822 232 211 
8823 211 210 
8824 210 232 
8825 211 232 
8826 232 212 
8827 212 211 
8828 212 232 
8829 232 233 
8830 233 212 
8831 212 233 
8832 233 234 
8833 234 212 
8834 234 213 
8835 213 212 
8836 212 234 
8837 213 234 
8838 234 214 
8839 214 213 
8840 214 234 
8841 234 235 
8842 235 214 
8843 214 235 
8844 235 61 
8845 61 214 
8846 61 62 
8847 62 214 
8848 214 61 
8849 11 12 
8850 12 236 
8851 236 11 
8852 236 215 
8853 215 11 
8854 11 236 
8855 215 236 
8856 236 216 
8857 216 215 
8858 216 236 
8859 236 237 
8860 237 216 
8861 216 237 
8862 237 238 
8863 238 216 
8864 238 217 
8865 217 216 
8866 216 238 
8867 217 238 
8868 238 218 
8869 218 217 
8870 218 238 
8871 238 239 
8872 239 218 
8873 218 239 
8874 239 240 
8875 240 218 
8876 240 219 
8877 219 218 
8878 218 240 
8879 219 240 
8880 240 220 
8881 220 219 
8882 220 240 
8883 240 241 
8884 241 220 
8885 220 241 
8886 241 242 
8887 242 220 
8888 242 221 
8889 221 220 
8890 220 242 
8891 221 242 
8892 242 222 
8893 222 221 
8894 222 242 
8895 242 243 
8896 243 222 
8897 222 243 
8898 243 244 
8899 244 222 
8900 244 223 
8901 223 222 
8902 222 244 
8903 223 244 
8904 244 224 
8905 224 223 
8906 224 244 
8907 244 245 
8908 245 224 
8909 224 245 
8910 245 246 
8911 246 224 
8912 246 225 
8913 225 224 
8914 224 246 
8915 225 246 
8916 246 226 
8917 226 225 
8918 226 246 
8919 246 247 
8920 247 226 
8921 226 247 
8922 247 248 
8923 248 226 
8924 248 227 
8925 227 226 
8926 226 248 
8927 227 248 
8928 248 228 
8929 228 227 
8930 228 248 
8931 248 249 
8932 249 228 
8933 228 249 
8934 249 250 
8935 250 228 
8936 250 229 
8937 229 228 
8938 228 250 
8939 229 250 
8940 250 230 
8941 230 229 
8942 230 250 
8943 250 251 
8944 251 230 
8945 230 251 
8946 251 252 
8947 252 230 
8948 252 231 
8949 231 230 
8950 230 252 
8951 231 252 
8952 252 232 
8953 232 231 
8954 232 252 
8955 252 253 
8956 253 232 
8957 232 253 
8958 253 254 
8959 254 232 
8960 254 233 
8961 233 232 
8962 232 254 
8963 233 254 
8964 254 234 
8965 234 233 
8966 234 254 
8967 254 255 
8968 255 234 
8969 234 255 
8970 255 256 
8971 256 234 
8972 256 235 
8973 235 234 
8974 234 256 
8975 235 256 
8976 256 61 
8977 61 235 
8978 61 256 
8979 256 60 
8980 60 61 
8981 12 13 
8982 13 236 
8983 236 12 
8984 236 13 
8985 13 257 
8986 257 236 
8987 236 257 
8988 257 258 
8989 258 236 
8990 258 237 
8991 237 236 
8992 236 258 
8993 237 258 
8994 258 238 
8995 238 237 
8996 238 258 
8997 258 259 
8998 259 238 
8999 238 259 
9000 259 260 
9001 260 238 
9002 260 239 
9003 239 238 
9004 238 260 
9005 239 260 
9006 260 240 
9007 240 239 
9008 240 260 
9009 260 261 
9010 261 240 
9011 240 261 
9012 261 262 
9013 262 240 
9014 262 241 
9015 241 240 
9016 240 262 
9017 241 262 
9018 262 242 
9019 242 241 
9020 242 262 
9021 262 263 
9022 263 242 
9023 242 263 
9024 263 264 
9025 264 242 
9026 264 243 
9027 243 242 
9028 242 264 
9029 243 264 
9030 264 244 
9031 244 243 
9032 244 264 
9033 264 265 
9034 265 244 
9035 244 265 
9036 265 266 
9037 266 244 
9038 266 245 
9039 245 244 
9040 244 266 
9041 245 266 
9042 266 246 
9043 246 245 
9044 246 266 
9045 266 267 
9046 267 246 
9047 246 267 
9048 267 268 
9049 268 246 
9050 268 247 
9051 247 246 
9052 246 268 
9053 247 268 
9054 268 248 
9055 248 247 
9056 248 268 
9057 268 269 
9058 269 248 
9059 248 269 
9060 269 270 
9061 270 248 
9062 270 249 
9063 249 248 
9064 248 270 
9065 249 270 
9066 270 250 
9067 250 249 
9068 250 270 
9069 270 271 
9070 271 250 
9071 250 271 
9072 271 272 
9073 272 250 
9074 272 251 
9075 251 250 
9076 250 272 
9077 251 272 
9078 272 252 
9079 252 251 
9080 252 272 
9081 272 273 
9082 273 252 
9083 252 273 
9084 273 274 
9085 274 252 
9086 274 253 
9087 253 252 
9088 252 274 
9089 253 274 
9090 274 254 
9091 254 253 
9092 254 274 
9093 274 275 
9094 275 254 
9095 254 275 
9096 275 276 
9097 276 254 
9098 276 255 
9099 255 254 
9100 254 276 
9101 255 276 
9102 276 256 
9103 256 255 
9104 256 276 
9105 276 277 
9106 277 256 
9107 256 277 
9108 277 59 
9109 59 256 
9110 59 60 
9111 60 256 
9112 256 59 
9113 13 14 
9114 14 278 
9115 278 13 
9116 278 257 
9117 257 13 
9118 13 278 
9119 257 278 
9120 278 258 
9121 258 257 
9122 258 278 
9123 278 279 
9124 279 258 
9125 258 279 
9126 279 280 
9127 280 258 
9128 280 259 
9129 259 258 
9130 258 280 
9131 259 280 
9132 280 260 
9133 260 259 
9134 260 280 
9135 280 281 
9136 281 260 
9137 260 281 
9138 281 282 
9139 282 260 
9140 282 261 
9141 261 260 
9142 260 282 
9143 261 282 
9144 282 262 
9145 262 261 
9146 262 282 
9147 282 283 
9148 283 262 
9149 262 283 
9150 283 284 
9151 284 262 
9152 284 263 
9153 263 262 
9154 262 284 
9155 263 284 
9156 284 264 
9157 264 263 
9158 264 284 
9159 284 285 
9160 285 264 
9161 264 285 
9162 285 286 
9163 286 264 
9164 286 265 
9165 265 264 
9166 264 286 
9167 265 286 
9168 286 266 
9169 266 265 
9170 266 286 
9171 286 287 
9172 287 266 
9173 266 287 
9174 287 288 
9175 288 266 
9176 288 267 
9177 267 266 
9178 266 288 
9179 267 288 
9180 288 268 
9181 268 267 
9182 268 288 
9183 288 289 
9184 289 268 
9185 268 289 
9186 289 290 
9187 290 268 
9188 290 269 
9189 269 268 
9190 268 290 
9191 269 290 
9192 290 270 
9193 270 269 
9194 270 290 
9195 290 291 
9196 291 270 
9197 270 291 
9198 291 292 
9199 292 270 
9200 292 271 
9201 271 270 
9202 270 292 
9203 271 292 
9204 292 272 
9205 272 271 
9206 272 292 
9207 292 293 
9208 293 272 
9209 272 293 
9210 293 294 
9211 294 272 
9212 294 273 
9213 273 272 
9214 272 294 
9215 273 294 
9216 294 274 
9217 274 273 
9218 274 294 
9219 294 295 
9220 295 274 
9221 274 295 
9222 295 296 
9223 296 274 
9224 296 275 
9225 275 274 
9226 274 296 
9227 275 296 
9228 296 276 
9229 276 275 
9230 276 296 
9231 296 297 
9232 297 276 
9233 276 297 
9234 297 298 
9235 298 276 
9236 298 277 
9237 277 276 
9238 276 298 
9239 277 298 
9240 298 59 
9241 59 277 
9242 59 298 
9243 298 58 
9244 58 59 
9245 14 15 
9246 15 278 
9247 278 14 
9248 278 15 
9249 15 299 
9250 299 278 
9251 278 299 
9252 299 300 
9253 300 278 
9254 300 279 
9255 279 278 
9256 278 300 
9257 279 300 
9258 300 280 
9259 280 279 
9260 280 300 
9261 300 301 
9262 301 280 
9263 280 301 
9264 301 302 
9265 302 280 
9266 302 281 
9267 281 280 
9268 280 302 
9269 281 302 
9270 302 282 
9271 282 281 
9272 282 302 
9273 302 303 
9274 303 282 
9275 282 303 
9276 303 304 
9277 304 282 
9278 304 283 
9279 283 282 
9280 282 304 
9281 283 304 
9282 304 284 
9283 284 283 
9284 284 304 
9285 304 305 
9286 305 284 
9287 284 305 
9288 305 306 
9289 306 284 
9290 306 285 
9291 285 284 
9292 284 306 
9293 285 306 
9294 306 286 
9295 286 285 
9296 286 306 
9297 306 307 
9298 307 286 
9299 286 307 
9300 307 308 
9301 308 286 
9302 308 287 
9303 287 286 
9304 286 308 
9305 287 308 
9306 308 288 
9307 288 287 
9308 288 308 
9309 308 309 
9310 309 288 
9311 288 309 
9312 309 310 
9313 310 288 
9314 310 289 
9315 289 288 
9316 288 310 
9317 289 310 
9318 310 290 
9319 290 289 
9320 290 310 
9321 310 311 
9322 311 290 
9323 290 311 
9324 311 312 
9325 312 290 
9326 312 291 
9327 291 290 
9328 290 312 
9329 291 312 
9330 312 292 
9331 292 291 
9332 292 312 
9333 312 313 
9334 313 292 
9335 292 313 
9336 313 314 
9337 314 292 
9338 314 293 
9339 293 292 
9340 292 314 
9341 293 314 
9342 314 294 
9343 294 293 
9344 294 314 
9345 314 315 
9346 315 294 
9347 294 315 
9348 315 316 
9349 316 294 
9350 316 295 
9351 295 294 
9352 294 316 
9353 295 316 
9354 316 296 
9355 296 295 
9356 296 316 
9357 316 317 
9358 317 296 
9359 296 317 
9360 317 318 
9361 318 296 
9362 318 297 
9363 297 296 
9364 296 318 
9365 297 318 
9366 318 298 
9367 298 297 
9368 298 318 
9369 318 319 
9370 319 298 
9371 298 319 
9372 319 57 
9373 57 298 
9374 57 58 
9375 58 298 
9376 298 57 
9377 15 16 
9378 16 320 
9379 320 15 
9380 320 299 
9381 299 15 
9382 15 320 
9383 299 320 
9384 320 300 
9385 300 299 
9386 300 320 
9387 320 321 
9388 321 300 
9389 300 321 
9390 321 322 
9391 322 300 
9392 322 301 
9393 301 300 
9394 300 322 
9395 301 322 
9396 322 302 
9397 302 301 
9398 302 322 
9399 322 323 
9400 323 302 
9401 302 323 
9402 323 324 
9403 324 302 
9404 324 303 
9405 303 302 
9406 302 324 
9407 303 324 
9408 324 304 
9409 304 303 
9410 304 324 
9411 324 325 
9412 325 304 
9413 304 325 
9414 325 326 
9415 326 304 
9416 326 305 
9417 305 304 
9418 304 326 
9419 305 326 
9420 326 306 
9421 306 305 
9422 306 326 
9423 326 327 
9424 327 306 
9425 306 327 
9426 327 328 
9427 328 306 
9428 328 307 
9429 307 306 
9430 306 328 
9431 307 328 
9432 328 308 
9433 308 307 
9434 308 328 
9435 328 329 
9436 329 308 
9437 308 329 
9438 329 330 
9439 330 308 
9440 330 309 
9441 309 308 
9442 308 330 
9443 309 330 
9444 330 310 
9445 310 309 
9446 310 330 
9447 330 331 
9448 331 310 
9449 310 331 
9450 331 332 
9451 332 310 
9452 332 311 
9453 311 310 
9454 310 332 
9455 311 332 
9456 332 312 
9457 312 311 
9458 312 332 
9459 332 333 
9460 333 312 
9461 312 333 
9462 333 334 
9463 334 312 
9464 334 313 
9465 313 312 
9466 312 334 
9467 313 334 
9468 334 314 
9469 314 313 
9470 314 334 
9471 334 335 
9472 335 314 
9473 314 335 
9474 335 336 
9475 336 314 
9476 336 315 
9477 315 314 
9478 314 336 
9479 315 336 
9480 336 316 
9481 316 315 
9482 316 336 
9483 336 337 
9484 337 316 
9485 316 337 
9486 337 338 
9487 338 316 
9488 338 317 
9489 317 316 
9490 316 338 
9491 317 338 
9492 338 318 
9493 318 317 
9494 318 338 
9495 338 339 
9496 339 318 
9497 318 339 
9498 339 340 
9499 340 318 
9500 340 319 
9501 319 318 
9502 318 340 
9503 319 340 
9504 340 57 
9505 57 319 
9506 57 340 
9507 340 56 
9508 56 57 
9509 16 17 
9510 17 320 
9511 320 16 
9512 320 17 
9513 17 341 
9514 341 320 
9515 320 341 
9516 341 342 
9517 342 320 
9518 342 321 
9519 321 320 
9520 320 342 
9521 321 342 
9522 342 322 
9523 322 321 
9524 322 342 
9525 342 343 
9526 343 322 
9527 322 343 
9528 343 344 
9529 344 322 
9530 344 323 
9531 323 322 
9532 322 344 
9533 323 344 
9534 344 324 
9535 324 323 
9536 324 344 
9537 344 345 
9538 345 324 
9539 324 345 
9540 345 346 
9541 346 324 
9542 346 325 
9543 325 324 
9544 324 346 
9545 325 346 
9546 346 326 
9547 326 325 
9548 326 346 
9549 346 347 
9550 347 326 
9551 326 347 
9552 347 348 
9553 348 326 
9554 348 327 
9555 327 326 
9556 326 348 
9557 327 348 
9558 348 328 
9559 328 327 
9560 328 348 
9561 348 349 
9562 349 328 
9563 328 349 
9564 349 350 
9565 350 328 
9566 350 329 
9567 329 328 
9568 328 350 
9569 329 350 
9570 350 330 
9571 330 329 
9572 330 350 
9573 350 351 
9574 351 330 
9575 330 351 
9576 351 352 
9577 352 330 
9578 352 331 
9579 331 330 
9580 330 352 
9581 331 352 
9582 352 332 
9583 332 331 
9584 332 352 
9585 352 353 
9586 353 332 
9587 332 353 
9588 353 354 
9589 354 332 
9590 354 333 
9591 333 332 
9592 332 354 
9593 333 354 
9594 354 334 
9595 334 333 
9596 334 354 
9597 354 355 
9598 355 334 
9599 334 355 
9600 355 356 
9601 356 334 
9602 356 335 
9603 335 334 
9604 334 356 
9605 335 356 
9606 356 336 
9607 336 335 
9608 336 356 
9609 356 357 
9610 357 336 
9611 336 357 
9612 357 358 
9613 358 336 
9614 358 337 
9615 337 336 
9616 336 358 
9617 337 358 
9618 358 338 
9619 338 337 
9620 338 358 
9621 358 359 
9622 359 338 
9623 338 359 
9624 359 360 
9625 360 338 
9626 360 339 
9627 339 338 
9628 338 360 
9629 339 360 
9630 360 340 
9631 340 339 
9632 340 360 
9633 360 361 
9634 361 340 
9635 340 361 
9636 361 55 
9637 55 340 
9638 55 56 
9639 56 340 
9640 340 55 
9641 17 18 
9642 18 362 
9643 362 17 
9644 362 341 
9645 341 17 
9646 17 362 
9647 341 362 
9648 362 342 
9649 342 341 
9650 342 362 
9651 362 363 
9652 363 342 
9653 342 363 
9654 363 364 
9655 364 342 
9656 364 343 
9657 343 342 
9658 342 364 
9659 343 364 
9660 364 344 
9661 344 343 
9662 344 364 
9663 364 365 
9664 365 344 
9665 344 365 
9666 365 366 
9667 366 344 
9668 366 345 
9669 345 344 
9670 344 366 
9671 345 366 
9672 366 346 
9673 346 345 
9674 346 366 
9675 366 367 
9676 367 346 
9677 346 367 
9678 367 368 
9679 368 346 
9680 368 347 
9681 347 346 
9682 346 368 
9683 347 368 
9684 368 348 
9685 348 347 
9686 348 368 
9687 368 369 
9688 369 348 
9689 348 369 
9690 369 370 
9691 370 348 
9692 370 349 
9693 349 348 
9694 348 370 
9695 349 370 
9696 370 350 
9697 350 349 
9698 350 370 
9699 370 371 
9700 371 350 
9701 350 371 
9702 371 372 
9703 372 350 
9704 372 351 
9705 351 350 
9706 350 372 
9707 351 372 
9708 372 352 
9709 352 351 
9710 352 372 
9711 372 373 
9712 373 352 
9713 352 373 
9714 373 374 
9715 374 352 
9716 374 353 
9717 353 352 
9718 352 374 
9719 353 374 
9720 374 354 
9721 354 353 
9722 354 374 
9723 374 375 
9724 375 354 
9725 354 375 
9726 375 376 
9727 376 354 
9728 376 355 
9729 355 354 
9730 354 376 
9731 355 376 
9732 376 356 
9733 356 355 
9734 356 376 
9735 376 377 
9736 377 356 
9737 356 377 
9738 377 378 
9739 378 356 
9740 378 357 
9741 357 356 
9742 356 378 
9743 357 378 
9744 378 358 
9745 358 357 
9746 358 378 
9747 378 379 
9748 379 358 
9749 358 379 
9750 379 380 
9751 380 358 
9752 380 359 
9753 359 358 
9754 358 380 
9755 359 380 
9756 380 360 
9757 360 359 
9758 360 380 
9759 380 381 
9760 381 360 
9761 360 381 
9762 381 382 
9763 382 360 
9764 382 361 
9765 361 360 
9766 360 382 
9767 361 382 
9768 382 55 
9769 55 361 
9770 55 382 
9771 382 54 
9772 54 55 
9773 18 19 
9774 19 362 
9775 362 18 
9776 362 19 
9777 19 383 
9778 383 362 
9779 362 383 
9780 383 384 
9781 384 362 
9782 384 363 
9783 363 362 
9784 362 384 
9785 363 384 
9786 384 364 
9787 364 363 
9788 364 384 
9789 384 385 
9790 385 364 
9791 364 385 
9792 385 386 
9793 386 364 
9794 386 365 
9795 365 364 
9796 364 386 
9797 365 386 
9798 386 366 
9799 366 365 
9800 366 386 
9801 386 387 
9802 387 366 
9803 366 387 
9804 387 388 
9805 388 366 
9806 388 367 
9807 367 366 
9808 366 388 
9809 367 388 
9810 388 368 
9811 368 367 
9812 368 388 
9813 388 389 
9814 389 368 
9815 368 389 
9816 389 390 
9817 390 368 
9818 390 369 
9819 369 368 
9820 368 390 
9821 369 390 
9822 390 370 
9823 370 369 
9824 370 390 
9825 390 391 
9826 391 370 
9827 370 391 
9828 391 392 
9829 392 370 
9830 392 371 
9831 371 370 
9832 370 392 
9833 371 392 
9834 392 372 
9835 372 371 
9836 372 392 
9837 392 393 
9838 393 372 
9839 372 393 
9840 393 394 
9841 394 372 
9842 394 373 
9843 373 372 
9844 372 394 
9845 373 394 
9846 394 374 
9847 374 373 
9848 374 394 
9849 394 395 
9850 395 374 
9851 374 395 
9852 395 396 
9853 396 374 
9854 396 375 
9855 375 374 
9856 374 396 
9857 375 396 
9858 396 376 
9859 376 375 
9860 376 396 
9861 396 397 
9862 397 376 
9863 376 397 
9864 397 398 
9865 398 376 
9866 398 377 
9867 377 376 
9868 376 398 
9869 377 398 
9870 398 378 
9871 378 377 
9872 378 398 
9873 398 399 
9874 399 378 
9875 378 399 
9876 399 400 
9877 400 378 
9878 400 379 
9879 379 378 
9880 378 400 
9881 379 400 
9882 400 380 
9883 380 379 
9884 380 400 
9885 400 401 
9886 401 380 
9887 380 401 
9888 401 402 
9889 402 380 
9890 402 381 
9891 381 380 
9892 380 402 
9893 381 402 
9894 402 382 
9895 382 381 
9896 382 402 
9897 402 403 
9898 403 382 
9899 382 403 
9900 403 53 
9901 53 382 
9902 53 54 
9903 54 382 
9904 382 53 
9905 19 20 
9906 20 404 
9907 404 19 
9908 404 383 
9909 383 19 
9910 19 404 
9911 383 404 
9912 404 384 
9913 384 383 
9914 384 404 
9915 404 405 
9916 405 384 
9917 384 405 
9918 405 406 
9919 406 384 
9920 406 385 
9921 385 384 
9922 384 406 
9923 385 406 
9924 406 386 
9925 386 385 
9926 386 406 
9927 406 407 
9928 407 386 
9929 386 407 
9930 407 408 
9931 408 386 
9932 408 387 
9933 387 386 
9934 386 408 
9935 387 408 
9936 408 388 
9937 388 387 
9938 388 408 
9939 408 409 
9940 409 388 
9941 388 409 
9942 409 410 
9943 410 388 
9944 410 389 
9945 389 388 
9946 388 410 
9947 389 410 
9948 410 390 
9949 390 389 
9950 390 410 
9951 410 411 
9952 411 390 
9953 390 411 
9954 411 412 
9955 412 390 
9956 412 391 
9957 391 390 
9958 390 412 
9959 391 412 
9960 412 392 
9961 392 391 
9962 392 412 
9963 412 413 
9964 413 392 
9965 392 413 
9966 413 414 
9967 414 392 
9968 414 393 
9969 393 392 
9970 392 414 
9971 393 414 
9972 414 394 
9973 394 393 
9974 394 414 
9975 414 415 
9976 415 394 
9977 394 415 
9978 415 416 
9979 416 394 
9980 416 395 
9981 395 394 
9982 394 416 
9983 395 416 
9984 416 396 
9985 396 395 
9986 396 416 
9987 416 417 
9988 417 396 
9989 396 417 
9990 417 418 
9991 418 396 
9992 418 397 
9993 397 396 
9994 396 418 
9995 397 418 
9996 418 398 
9997 398 397 
9998 398 418 
9999 418 419 
10000 419 398 
10001 398 419 
10002 419 420 
10003 420 398 
10004 420 399 
10005 399 398 
10006 398 420 
10007 399 420 
10008 420 400 
10009 400 399 
10010 400 420 
10011 420 421 
10012 421 400 
10013 400 421 
10014 421 422 
10015 422 400 
10016 422 401 
10017 401 400 
10018 400 422 
10019 401 422 
10020 422 402 
10021 402 401 
10022 402 422 
10023 422 423 
10024 423 402 
10025 402 423 
10026 423 424 
10027 424 402 
10028 424 403 
10029 403 402 
10030 402 424 
10031 403 424 
10032 424 53 
10033 53 403 
10034 53 424 
10035 424 52 
10036 52 53 
10037 20 21 
10038 21 404 
10039 404 20 
10040 404 21 
10041 21 425 
10042 425 404 
10043 404 425 
10044 425 426 
10045 426 404 
10046 426 405 
10047 405 404 
10048 404 426 
10049 405 426 
10050 426 406 
10051 406 405 
10052 406 426 
10053 426 427 
10054 427 406 
10055 406 427 
10056 427 428 
10057 428 406 
10058 428 407 
10059 407 406 
10060 406 428 
10061 407 428 
10062 428 408 
10063 408 407 
10064 408 428 
10065 428 429 
10066 429 408 
10067 408 429 
10068 429 430 
10069 430 408 
10070 430 409 
10071 409 408 
10072 408 430 
10073 409 430 
10074 430 410 
10075 410 409 
10076 410 430 
10077 430 431 
10078 431 410 
10079 410 431 
10080 431 432 
10081 432 410 
10082 432 411 
10083 411 410 
10084 410 432 
10085 411 432 
10086 432 412 
10087 412 411 
10088 412 432 
10089 432 433 
10090 433 412 
10091 412 433 
10092 433 434 
10093 434 412 
10094 434 413 
10095 413 412 
10096 412 434 
10097 413 434 
10098 434 414 
10099 414 413 
10100 414 434 
10101 434 435 
10102 435 414 
10103 414 435 
10104 435 436 
10105 436 414 
10106 436 415 
10107 415 414 
10108 414 436 
10109 415 436 
10110 436 416 
10111 416 415 
10112 416 436 
10113 436 437 
10114 437 416 
10115 416 437 
10116 437 438 
10117 438 416 
10118 438 417 
10119 417 416 
10120 416 438 
10121 417 438 
10122 438 418 
10123 418 417 
10124 418 438 
10125 438 439 
10126 439 418 
10127 418 439 
10128 439 440 
10129 440 418 
10130 440 419 
10131 419 418 
10132 418 440 
10133 419 440 
10134 440 420 
10135 420 419 
10136 420 440 
10137 440 441 
10138 441 420 
10139 420 441 
10140 441 442 
10141 442 420 
10142 442 421 
10143 421 420 
10144 420 442 
10145 421 442 
10146 442 422 
10147 422 421 
10148 422 442 
10149 442 443 
10150 443 422 
10151 422 443 
10152 443 444 
10153 444 422 
10154 444 423 
10155 423 422 
10156 422 444 
10157 423 444 
10158 444 424 
10159 424 423 
10160 424 444 
10161 444 445 
10162 445 424 
10163 424 445 
10164 445 51 
10165 51 424 
10166 51 52 
10167 52 424 
10168 424 51 
10169 21 22 
10170 22 446 
10171 446 21 
10172 446 425 
10173 425 21 
10174 21 446 
10175 425 446 
10176 446 426 
10177 426 425 
10178 426 446 
10179 446 447 
10180 447 426 
10181 426 447 
10182 447 448 
10183 448 426 
10184 448 427 
10185 427 426 
10186 426 448 
10187 427 448 
10188 448 428 
10189 428 427 
10190 428 448 
10191 448 449 
10192 449 428 
10193 428 449 
10194 449 450 
10195 450 428 
10196 450 429 
10197 429 428 
10198 428 450 
10199 429 450 
10200 450 430 
10201 430 429 
10202 430 450 
10203 450 451 
10204 451 430 
10205 430 451 
10206 451 452 
10207 452 430 
10208 452 431 
10209 431 430 
10210 430 452 
10211 431 452 
10212 452 432 
10213 432 431 
10214 432 452 
10215 452 453 
10216 453 432 
10217 432 453 
10218 453 454 
10219 454 432 
10220 454 433 
10221 433 432 
10222 432 454 
10223 433 454 
10224 454 434 
10225 434 433 
10226 434 454 
10227 454 455 
10228 455 434 
10229 434 455 
10230 455 456 
10231 456 434 
10232 456 435 
10233 435 434 
10234 434 456 
10235 435 456 
10236 456 436 
10237 436 435 
10238 436 456 
10239 456 457 
10240 457 436 
10241 436 457 
10242 457 458 
10243 458 436 
10244 458 437 
10245 437 436 
10246 436 458 
10247 437 458 
10248 458 438 
10249 438 437 
10250 438 458 
10251 458 459 
10252 459 438 
10253 438 459 
10254 459 460 
10255 460 438 
10256 460 439 
10257 439 438 
10258 438 460 
10259 439 460 
10260 460 440 
10261 440 439 
10262 440 460 
10263 460 461 
10264 461 440 
10265 440 461 
10266 461 462 
10267 462 440 
10268 462 441 
10269 441 440 
10270 440 462 
10271 441 462 
10272 462 442 
10273 442 441 
10274 442 462 
10275 462 463 
10276 463 442 
10277 442 463 
10278 463 464 
10279 464 442 
10280 464 443 
10281 443 442 
10282 442 464 
10283 443 464 
10284 464 444 
10285 444 443 
10286 444 464 
10287 464 465 
10288 465 444 
10289 444 465 
10290 465 466 
10291 466 444 
10292 466 445 
10293 445 444 
10294 444 466 
10295 445 466 
10296 466 51 
10297 51 445 
10298 51 466 
10299 466 50 
10300 50 51 
10301 22 23 
10302 23 446 
10303 446 22 
10304 446 23 
10305 23 467 
10306 467 446 
10307 446 467 
10308 467 468 
10309 468 446 
10310 468 447 
10311 447 446 
10312 446 468 
10313 447 468 
10314 468 448 
10315 448 447 
10316 448 468 
10317 468 469 
10318 469 448 
10319 448 469 
10320 469 470 
10321 470 448 
10322 470 449 
10323 449 448 
10324 448 470 
10325 449 470 
10326 470 450 
10327 450 449 
10328 450 470 
10329 470 471 
10330 471 450 
10331 450 471 
10332 471 472 
10333 472 450 
10334 472 451 
10335 451 450 
10336 450 472 
10337 451 472 
10338 472 452 
10339 452 451 
10340 452 472 
10341 472 473 
10342 473 452 
10343 452 473 
10344 473 474 
10345 474 452 
10346 474 453 
10347 453 452 
10348 452 474 
10349 453 474 
10350 474 454 
10351 454 453 
10352 454 474 
10353 474 475 
10354 475 454 
10355 454 475 
10356 475 476 
10357 476 454 
10358 476 455 
10359 455 454 
10360 454 476 
10361 455 476 
10362 476 456 
10363 456 455 
10364 456 476 
10365 476 477 
10366 477 456 
10367 456 477 
10368 477 478 
10369 478 456 
10370 478 457 
10371 457 456 
10372 456 478 
10373 457 478 
10374 478 458 
10375 458 457 
10376 458 478 
10377 478 479 
10378 479 458 
10379 458 479 
10380 479 480 
10381 480 458 
10382 480 459 
10383 459 458 
10384 458 480 
10385 459 480 
10386 480 460 
10387 460 459 
10388 460 480 
10389 480 481 
10390 481 460 
10391 460 481 
10392 481 482 
10393 482 460 
10394 482 461 
10395 461 460 
10396 460 482 
10397 461 482 
10398 482 462 
10399 462 461 
10400 462 482 
10401 482 483 
10402 483 462 
10403 462 483 
10404 483 484 
10405 484 462 
10406 484 463 
10407 463 462 
10408 462 484 
10409 463 484 
10410 484 464 
10411 464 463 
10412 464 484 
10413 484 485 
10414 485 464 
10415 464 485 
10416 485 486 
10417 486 464 
10418 486 465 
10419 465 464 
10420 464 486 
10421 465 486 
10422 486 466 
10423 466 465 
10424 466 486 
10425 486 487 
10426 487 466 
10427 466 487 
10428 487 49 
10429 49 466 
10430 49 50 
10431 50 466 
10432 466 49 
10433 23 24 
10434 24 488 
10435 488 23 
10436 488 467 
10437 467 23 
10438 23 488 
10439 467 488 
10440 488 468 
10441 468 467 
10442 468 488 
10443 488 489 
10444 489 468 
10445 468 489 
10446 489 490 
10447 490 468 
10448 490 469 
10449 469 468 
10450 468 490 
10451 469 490 
10452 490 470 
10453 470 469 
10454 470 490 
10455 490 491 
10456 491 470 
10457 470 491 
10458 491 492 
10459 492 470 
10460 492 471 
10461 471 470 
10462 470 492 
10463 471 492 
10464 492 472 
10465 472 471 
10466 472 492 
10467 492 493 
10468 493 472 
10469 472 493 
10470 493 494 
10471 494 472 
10472 494 473 
10473 473 472 
10474 472 494 
10475 473 494 
10476 494 474 
10477 474 473 
10478 474 494 
10479 494 495 
10480 495 474 
10481 474 495 
10482 495 496 
10483 496 474 
10484 496 475 
10485 475 474 
10486 474 496 
10487 475 496 
10488 496 476 
10489 476 475 
10490 476 496 
10491 496 497 
10492 497 476 
10493 476 497 
10494 497 498 
10495 498 476 
10496 498 477 
10497 477 476 
10498 476 498 
10499 477 498 
10500 498 478 
10501 478 477 
10502 478 498 
10503 498 499 
10504 499 478 
10505 478 499 
10506 499 500 
10507 500 478 
10508 500 479 
10509 479 478 
10510 478 500 
10511 479 500 
10512 500 480 
10513 480 479 
10514 480 500 
10515 500 501 
10516 501 480 
10517 480 501 
10518 501 502 
10519 502 480 
10520 502 481 
10521 481 480 
10522 480 502 
10523 481 502 
10524 502 482 
10525 482 481 
10526 482 502 
10527 502 503 
10528 503 482 
10529 482 503 
10530 503 504 
10531 504 482 
10532 504 483 
10533 483 482 
10534 482 504 
10535 483 504 
10536 504 484 
10537 484 483 
10538 484 504 
10539 504 505 
10540 505 484 
10541 484 505 
10542 505 506 
10543 506 484 
10544 506 485 
10545 485 484 
10546 484 506 
10547 485 506 
10548 506 486 
10549 486 485 
10550 486 506 
10551 506 507 
10552 507 486 
10553 486 507 
10554 507 508 
10555 508 486 
10556 508 487 
10557 487 486 
10558 486 508 
10559 487 508 
10560 508 49 
10561 49 487 
10562 49 508 
10563 508 48 
10564 48 49 
10565 24 25 
10566 25 488 
10567 488 24 
10568 488 25 
10569 25 509 
10570 509 488 
10571 488 509 
10572 509 510 
10573 510 488 
10574 510 489 
10575 489 488 
10576 488 510 
10577 489 510 
10578 510 490 
10579 490 489 
10580 490 510 
10581 510 511 
10582 511 490 
10583 490 511 
10584 511 512 
10585 512 490 
10586 512 491 
10587 491 490 
10588 490 512 
10589 491 512 
10590 512 492 
10591 492 491 
10592 492 512 
10593 512 513 
10594 513 492 
10595 492 513 
10596 513 514 
10597 514 492 
10598 514 493 
10599 493 492 
10600 492 514 
10601 493 514 
10602 514 494 
10603 494 493 
10604 494 514 
10605 514 515 
10606 515 494 
10607 494 515 
10608 515 516 
10609 516 494 
10610 516 495 
10611 495 494 
10612 494 516 
10613 495 516 
10614 516 496 
10615 496 495 
10616 496 516 
10617 516 517 
10618 517 496 
10619 496 517 
10620 517 518 
10621 518 496 
10622 518 497 
10623 497 496 
10624 496 518 
10625 497 518 
10626 518 498 
10627 498 497 
10628 498 518 
10629 518 519 
10630 519 498 
10631 498 519 
10632 519 520 
10633 520 498 
10634 520 499 
10635 499 498 
10636 498 520 
10637 499 520 
10638 520 500 
10639 500 499 
10640 500 520 
10641 520 521 
10642 521 500 
10643 500 521 
10644 521 522 
10645 522 500 
10646 522 501 
10647 501 500 
10648 500 522 
10649 501 522 
10650 522 502 
10651 502 501 
10652 502 522 
10653 522 523 
10654 523 502 
10655 502 523 
10656 523 524 
10657 524 502 
10658 524 503 
10659 503 502 
10660 502 524 
10661 503 524 
10662 524 504 
10663 504 503 
10664 504 524 
10665 524 525 
10666 525 504 
10667 504 525 
10668 525 526 
10669 526 504 
10670 526 505 
10671 505 504 
10672 504 526 
10673 505 526 
10674 526 506 
10675 506 505 
10676 506 526 
10677 526 527 
10678 527 506 
10679 506 527 
10680 527 528 
10681 528 506 
10682 528 507 
10683 507 506 
10684 506 528 
10685 507 528 
10686 528 508 
10687 508 507 
10688 508 528 
10689 528 529 
10690 529 508 
10691 508 529 
10692 529 47 
10693 47 508 
10694 47 48 
10695 48 508 
10696 508 47 
10697 25 2 
10698 2 26 
10699 26 25 
10700 26 509 
10701 509 25 
10702 25 26 
10703 509 26 
10704 26 510 
10705 510 509 
10706 510 26 
10707 26 27 
10708 27 510 
10709 510 27 
10710 27 28 
10711 28 510 
10712 28 511 
10713 511 510 
10714 510 28 
10715 511 28 
10716 28 512 
10717 512 511 
10718 512 28 
10719 28 29 
10720 29 512 
10721 512 29 
10722 29 30 
10723 30 512 
10724 30 513 
10725 513 512 
10726 512 30 
10727 513 30 
10728 30 514 
10729 514 513 
10730 514 30 
10731 30 31 
10732 31 514 
10733 514 31 
10734 31 32 
10735 32 514 
10736 32 515 
10737 515 514 
10738 514 32 
10739 515 32 
10740 32 516 
10741 516 515 
10742 516 32 
10743 32 33 
10744 33 516 
10745 516 33 
10746 33 34 
10747 34 516 
10748 34 517 
10749 517 516 
10750 516 34 
10751 517 34 
10752 34 518 
10753 518 517 
10754 518 34 
10755 34 35 
10756 35 518 
10757 518 35 
10758 35 36 
10759 36 518 
10760 36 519 
10761 519 518 
10762 518 36 
10763 519 36 
10764 36 520 
10765 520 519 
10766 520 36 
10767 36 37 
10768 37 520 
10769 520 37 
10770 37 38 
10771 38 520 
10772 38 521 
10773 521 520 
10774 520 38 
10775 521 38 
10776 38 522 
10777 522 521 
10778 522 38 
10779 38 39 
10780 39 522 
10781 522 39 
10782 39 40 
10783 40 522 
10784 40 523 
10785 523 522 
10786 522 40 
10787 523 40 
10788 40 524 
10789 524 523 
10790 524 40 
10791 40 41 
10792 41 524 
10793 524 41 
10794 41 42 
10795 42 524 
10796 42 525 
10797 525 524 
10798 524 42 
10799 525 42 
10800 42 526 
10801 526 525 
10802 526 42 
10803 42 43 
10804 43 526 
10805 526 43 
10806 43 44 
10807 44 526 
10808 44 527 
10809 527 526 
10810 526 44 
10811 527 44 
10812 44 528 
10813 528 527 
10814 528 44 
10815 44 45 
10816 45 528 
10817 528 45 
10818 45 46 
10819 46 528 
10820 46 529 
10821 529 528 
10822 528 46 
10823 529 46 
10824 46 47 
10825 47 529 
10826 47 46 
10827 46 3 
10828 3 47 
2 1 2 968
89 1 5 88 
90 88 5 89 
91 88 89 90 
92 90 87 88 
93 87 90 86 
94 86 90 91 
95 86 91 92 
96 92 85 86 
97 85 92 84 
98 84 92 93 
99 84 93 94 
100 94 83 84 
101 83 94 82 
102 82 94 95 
103 82 95 96 
104 96 81 82 
105 81 96 80 
106 80 96 97 
107 80 97 98 
108 98 79 80 
109 79 98 78 
110 78 98 99 
111 78 99 100 
112 100 77 78 
113 77 100 76 
114 76 100 101 
115 76 101 102 
116 102 75 76 
117 75 102 74 
118 74 102 103 
119 74 103 104 
120 104 73 74 
121 73 104 72 
122 72 104 105 
123 72 105 106 
124 106 71 72 
125 71 106 70 
126 70 106 107 
127 70 107 108 
128 108 69 70 
129 69 108 68 
130 68 108 109 
131 68 109 67 
132 67 4 68 
133 5 6 110 
134 110 89 5 
135 89 110 90 
136 90 110 111 
137 90 111 112 
138 112 91 90 
139 91 112 92 
140 92 112 113 
141 92 113 114 
142 114 93 92 
143 93 114 94 
144 94 114 115 
145 94 115 116 
146 116 95 94 
147 95 116 96 
148 96 116 117 
149 96 117 118 
150 118 97 96 
151 97 118 98 
152 98 118 119 
153 98 119 120 
154 120 99 98 
155 99 120 100 
156 100 120 121 
157 100 121 122 
158 122 101 100 
159 101 122 102 
160 102 122 123 
161 102 123 124 
162 124 103 102 
163 103 124 104 
164 104 124 125 
165 104 125 126 
166 126 105 104 
167 105 126 106 
168 106 126 127 
169 106 127 128 
170 128 107 106 
171 107 128 108 
172 108 128 129 
173 108 129 130 
174 130 109 108 
175 109 130 67 
176 67 130 66 
177 6 7 110 
178 110 7 131 
179 110 131 132 
180 132 111 110 
181 111 132 112 
182 112 132 133 
183 112 133 134 
184 134 113 112 
185 113 134 114 
186 114 134 135 
187 114 135 136 
188 136 115 114 
189 115 136 116 
190 116 136 137 
191 116 137 138 
192 138 117 116 
193 117 138 118 
194 118 138 139 
195 118 139 140 
196 140 119 118 
197 119 140 120 
198 120 140 141 
199 120 141 142 
200 142 121 120 
201 121 142 122 
202 122 142 143 
203 122 143 144 
204 144 123 122 
205 123 144 124 
206 124 144 145 
207 124 145 146 
208 146 125 124 
209 125 146 126 
210 126 146 147 
211 126 147 148 
212 148 127 126 
213 127 148 128 
214 128 148 149 
215 128 149 150 
216 150 129 128 
217 129 150 130 
218 130 150 151 
219 130 151 65 
220 65 66 130 
221 7 8 152 
222 152 131 7 
223 131 152 132 
224 132 152 153 
225 132 153 154 
226 154 133 132 
227 133 154 134 
228 134 154 155 
229 134 155 156 
230 156 135 134 
231 135 156 136 
232 136 156 157 
233 136 157 158 
234 158 137 136 
235 137 158 138 
236 138 158 159 
237 138 159 160 
238 160 139 138 
239 139 160 140 
240 140 160 161 
241 140 161 162 
242 162 141 140 
243 141 162 142 
244 142 162 163 
245 142 163 164 
246 164 143 142 
247 143 164 144 
248 144 164 165 
249 144 165 166 
250 166 145 144 
251 145 166 146 
252 146 166 167 
253 146 167 168 
254 168 147 146 
255 147 168 148 
256 148 168 169 
257 148 169 170 
258 170 149 148 
259 149 170 150 
260 150 170 171 
261 150 171 172 
262 172 151 150 
263 151 172 65 
264 65 172 64 
265 8 9 152 
266 152 9 173 
267 152 173 174 
268 174 153 152 
269 153 174 154 
270 154 174 175 
271 154 175 176 
272 176 155 154 
273 155 176 156 
274 156 176 177 
275 156 177 178 
276 178 157 156 
277 157 178 158 
278 158 178 179 
279 158 179 180 
280 180 159 158 
281 159 180 160 
282 160 180 181 
283 160 181 182 
284 182 161 160 
285 161 182 162 
286 162 182 183 
287 162 183 184 
288 184 163 162 
289 163 184 164 
290 164 184 185 
291 164 185 186 
292 186 165 164 
293 165 186 166 
294 166 186 187 
295 166 187 188 
296 188 167 166 
297 167 188 168 
298 168 188 189 
299 168 189 190 
300 190 169 168 
301 169 190 170 
302 170 190 191 
303 170 191 192 
304 192 171 170 
305 171 192 172 
306 172 192 193 
307 172 193 63 
308 63 64 172 
309 9 10 194 
310 194 173 9 
311 173 194 174 
312 174 194 195 
313 174 195 196 
314 196 175 174 
315 175 196 176 
316 176 196 197 
317 176 197 198 
318 198 177 176 
319 177 198 178 
320 178 198 199 
321 178 199 200 
322 200 179 178 
323 179 200 180 
324 180 200 201 
325 180 201 202 
326 202 181 180 
327 181 202 182 
328 182 202 203 
329 182 203 204 
330 204 183 182 
331 183 204 184 
332 184 204 205 
333 184 205 206 
334 206 185 184 
335 185 206 186 
336 186 206 207 
337 186 207 208 
338 208 187 186 
339 187 208 188 
340 188 208 209 
341 188 209 210 
342 210 189 188 
343 189 210 190 
344 190 210 211 
345 190 211 212 
346 212 191 190 
347 191 212 192 
348 192 212 213 
349 192 213 214 
350 214 193 192 
351 193 214 63 
352 63 214 62 
353 10 11 194 
354 194 11 215 
355 194 215 216 
356 216 195 194 
357 195 216 196 
358 196 216 217 
359 196 217 218 
360 218 197 196 
361 197 218 198 
362 198 218 219 
363 198 219 220 
364 220 199 198 
365 199 220 200 
366 200 220 221 
367 200 221 222 
368 222 201 200 
369 201 222 202 
370 202 222 223 
371 202 223 224 
372 224 203 202 
373 203 224 204 
374 204 224 225 
375 204 225 226 
376 226 205 204 
377 205 226 206 
378 206 226 227 
379 206 227 228 
380 228 207 206 
381 207 228 208 
382 208 228 229 
383 208 229 230 
384 230 209 208 
385 209 230 210 
386 210 230 231 
387 210 231 232 
388 232 211 210 
389 211 232 212 
390 212 232 233 
391 212 233 234 
392 234 213 212 
393 213 234 214 
394 214 234 235 
395 214 235 61 
396 61 62 214 
397 11 12 236 
398 236 215 11 
399 215 236 216 
400 216 236 237 
401 216 237 238 
402 238 217 216 
403 217 238 218 
404 218 238 239 
405 218 239 240 
406 240 219 218 
407 219 240 220 
408 220 240 241 
409 220 241 242 
410 242 221 220 
411 221 242 222 
412 222 242 243 
413 222 243 244 
414 244 223 222 
415 223 244 224 
416 224 244 245 
417 224 245 246 
418 246 225 224 
419 225 246 226 
420 226 246 247 
421 226 247 248 
422 248 227 226 
423 227 248 228 
424 228 248 249 
425 228 249 250 
426 250 229 228 
427 229 250 230 
428 230 250 251 
429 230 251 252 
430 252 231 230 
431 231 252 232 
432 232 252 253 
433 232 253 254 
434 254 233 232 
435 233 254 234 
436 234 254 255 
437 234 255 256 
438 256 235 234 
439 235 256 61 
440 61 256 60 
441 12 13 236 
442 236 13 257 
443 236 257 258 
444 258 237 236 
445 237 258 238 
446 238 258 259 
447 238 259 260 
448 260 239 238 
449 239 260 240 
450 240 260 261 
451 240 261 262 
452 262 241 240 
453 241 262 242 
454 242 262 263 
455 242 263 264 
456 264 243 242 
457 243 264 244 
458 244 264 265 
459 244 265 266 
460 266 245 244 
461 245 266 246 
462 246 266 267 
463 246 267 268 
464 268 247 246 
465 247 268 248 
466 248 268 269 
467 248 269 270 
468 270 249 248 
469 249 270 250 
470 250 270 271 
471 250 271 272 
472 272 251 250 
473 251 272 252 
474 252 272 273 
475 252 273 274 
476 274 253 252 
477 253 274 254 
478 254 274 275 
479 254 275 276 
480 276 255 254 
481 255 276 256 
482 256 276 277 
483 256 277 59 
484 59 60 256 
485 13 14 278 
486 278 257 13 
487 257 278 258 
488 258 278 279 
489 258 279 280 
490 280 259 258 
491 259 280 260 
492 260 280 281 
493 260 281 282 
494 282 261 260 
495 261 282 262 
496 262 282 283 
497 262 283 284 
498 284 263 262 
499 263 284 264 
500 264 284 285 
501 264 285 286 
502 286 265 264 
503 265 286 266 
504 266 286 287 
505 266 287 288 
506 288 267 266 
507 267 288 268 
508 268 288 289 
509 268 289 290 
510 290 269 268 
511 269 290 270 
512 270 290 291 
513 270 291 292 
514 292 271 270 
515 271 292 272 
516 272 292 293 
517 272 293 294 
518 294 273 272 
519 273 294 274 
520 274 294 295 
521 274 295 296 
522 296 275 274 
523 275 296 276 
524 276 296 297 
525 276 297 298 
526 298 277 276 
527 277 298 59 
528 59 298 58 
529 14 15 278 
530 278 15 299 
531 278 299 300 
532 300 279 278 
533 279 300 280 
534 280 300 301 
535 280 301 302 
536 302 281 280 
537 281 302 282 
538 282 302 303 
539 282 303 304 
540 304 283 282 
541 283 304 284 
542 284 304 305 
543 284 305 306 
544 306 285 284 
545 285 306 286 
546 286 306 307 
547 286 307 308 
548 308 287 286 
549 287 308 288 
550 288 308 309 
551 288 309 310 
552 310 289 288 
553 289 310 290 
554 290 310 311 
555 290 311 312 
556 312 291 290 
557 291 312 292 
558 292 312 313 
559 292 313 314 
560 314 293 292 
561 293 314 294 
562 294 314 315 
563 294 315 316 
564 316 295 294 
565 295 316 296 
566 296 316 317 
567 296 317 318 
568 318 297 296 
569 297 318 298 
570 298 318 319 
571 298 319 57 
572 57 58 298 
573 15 16 320 
574 320 299 15 
575 299 320 300 
576 300 320 321 
577 300 321 322 
578 322 301 300 
579 301 322 302 
580 302 322 323 
581 302 323 324 
582 324 303 302 
583 303 324 304 
584 304 324 325 
585 304 325 326 
586 326 305 304 
587 305 326 306 
588 306 326 327 
589 306 327 328 
590 328 307 306 
591 307 328 308 
592 308 328 329 
593 308 329 330 
594 330 309 308 
595 309 330 310 
596 310 330 331 
597 310 331 332 
598 332 311 310 
599 311 332 312 
600 312 332 333 
601 312 333 334 
602 334 313 312 
603 313 334 314 
604 314 334 335 
605 314 335 336 
606 336 315 314 
607 315 336 316 
608 316 336 337 
609 316 337 338 
610 338 317 316 
611 317 338 318 
612 318 338 339 
613 318 339 340 
614 340 319 318 
615 319 340 57 
616 57 340 56 
617 16 17 320 
618 320 17 341 
619 320 341 342 
620 342 321 320 
621 321 342 322 
622 322 342 343 
623 322 343 344 
624 344 323 322 
625 323 344 324 
626 324 344 345 
627 324 345 346 
628 346 325 324 
629 325 346 326 
630 326 346 347 
631 326 347 348 
632 348 327 326 
633 327 348 328 
634 328 348 349 
635 328 349 350 
636 350 329 328 
637 329 350 330 
638 330 350 351 
639 330 351 352 
640 352 331 330 
641 331 352 332 
642 332 352 353 
643 332 353 354 
644 354 333 332 
645 333 354 334 
646 334 354 355 
647 334 355 356 
648 356 335 334 
649 335 356 336 
650 336 356 357 
651 336 357 358 
652 358 337 336 
653 337 358 338 
654 338 358 359 
655 338 359 360 
656 360 339 338 
657 339 360 340 
658 340 360 361 
659 340 361 55 
660 55 56 340 
661 17 18 362 
662 362 341 17 
663 341 362 342 
664 342 362 363 
665 342 363 364 
666 364 343 342 
667 343 364 344 
668 344 364 365 
669 344 365 366 
670 366 345 344 
671 345 366 346 
672 346 366 367 
673 346 367 368 
674 368 347 346 
675 347 368 348 
676 348 368 369 
677 348 369 370 
678 370 349 348 
679 349 370 350 
680 350 370 371 
681 350 371 372 
682 372 351 350 
683 351 372 352 
684 352 372 373 
685 352 373 374 
686 374 353 352 
687 353 374 354 
688 354 374 375 
689 354 375 376 
690 376 355 354 
691 355 376 356 
692 356 376 377 
693 356 377 378 
694 378 357 356 
695 357 378 358 
696 358 378 379 
697 358 379 380 
698 380 359 358 
699 359 380 360 
700 360 380 381 
701 360 381 382 
702 382 361 360 
703 361 382 55 
704 55 382 54 
705 18 19 362 
706 362 19 383 
707 362 383 384 
708 384 363 362 
709 363 384 364 
710 364 384 385 
711 364 385 386 
712 386 365 364 
713 365 386 366 
714 366 386 387 
715 366 387 388 
716 388 367 366 
717 367 388 368 
718 368 388 389 
719 368 389 390 
720 390 369 368 
721 369 390 370 
722 370 390 391 
723 370 391 392 
724 392 371 370 
725 371 392 372 
726 372 392 393 
727 372 393 394 
728 394 373 372 
729 373 394 374 
730 374 394 395 
731 374 395 396 
732 396 375 374 
733 375 396 376 
734 376 396 397 
735 376 397 398 
736 398 377 376 
737 377 398 378 
738 378 398 399 
739 378 399 400 
740 400 379 378 
741 379 400 380 
742 380 400 401 
743 380 401 402 
744 402 381 380 
745 381 402 382 
746 382 402 403 
747 382 403 53 
748 53 54 382 
749 19 20 404 
750 404 383 19 
751 383 404 384 
752 384 404 405 
753 384 405 406 
754 406 385 384 
755 385 406 386 
756 386 406 407 
757 386 407 408 
758 408 387 386 
759 387 408 388 
760 388 408 409 
761 388 409 410 
762 410 389 388 
763 389 410 390 
764 390 410 411 
765 390 411 412 
766 412 391 390 
767 391 412 392 
768 392 412 413 
769 392 413 414 
770 414 393 392 
771 393 414 394 
772 394 414 415 
773 394 415 416 
774 416 395 394 
775 395 416 396 
776 396 416 417 
777 396 417 418 
778 418 397 396 
779 397 418 398 
780 398 418 419 
781 398 419 420 
782 420 399 398 
783 399 420 400 
784 400 420 421 
785 400 421 422 
786 422 401 400 
787 401 422 402 
788 402 422 423 
789 402 423 424 
790 424 403 402 
791 403 424 53 
792 53 424 52 
793 20 21 404 
794 404 21 425 
795 404 425 426 
796 426 405 404 
797 405 426 406 
798 406 426 427 
799 406 427 428 
800 428 407 406 
801 407 428 408 
802 408 428 429 
803 408 429 430 
804 430 409 408 
805 409 430 410 
806 410 430 431 
807 410 431 432 
808 432 411 410 
809 411 432 412 
810 412 432 433 
811 412 433 434 
812 434 413 412 
813 413 434 414 
814 414 434 435 
815 414 435 436 
816 436 415 414 
817 415 436 416 
818 416 436 437 
819 416 437 438 
820 438 417 416 
821 417 438 418 
822 418 438 439 
823 418 439 440 
824 440 419 418 
825 419 440 420 
826 420 440 441 
827 420 441 442 
828 442 421 420 
829 421 442 422 
830 422 442 443 
831 422 443 444 
832 444 423 422 
833 423 444 424 
834 424 444 445 
835 424 445 51 
836 51 52 424 
837 21 22 446 
838 446 425 21 
839 425 446 426 
840 426 446 447 
841 426 447 448 
842 448 427 426 
843 427 448 428 
844 428 448 449 
845 428 449 450 
846 450 429 428 
847 429 450 430 
848 430 450 451 
849 430 451 452 
850 452 431 430 
851 431 452 432 
852 432 452 453 
853 432 453 454 
854 454 433 432 
855 433 454 434 
856 434 454 455 
857 434 455 456 
858 456 435 434 
859 435 456 436 
860 436 456 457 
861 436 457 458 
862 458 437 436 
863 437 458 438 
864 438 458 459 
865 438 459 460 
866 460 439 438 
867 439 460 440 
868 440 460 461 
869 440 461 462 
870 462 441 440 
871 441 462 442 
872 442 462 463 
873 442 463 464 
874 464 443 442 
875 443 464 444 
876 444 464 465 
877 444 465 466 
878 466 445 444 
879 445 466 51 
880 51 466 50 
881 22 23 446 
882 446 23 467 
883 446 467 468 
884 468 447 446 
885 447 468 448 
886 448 468 469 
887 448 469 470 
888 470 449 448 
889 449 470 450 
890 450 470 471 
891 450 471 472 
892 472 451 450 
893 451 472 452 
894 452 472 473 
895 452 473 474 
896 474 453 452 
897 453 474 454 
898 454 474 475 
899 454 475 476 
900 476 455 454 
901 455 476 456 
902 456 476 477 
903 456 477 478 
904 478 457 456 
905 457 478 458 
906 458 478 479 
907 458 479 480 
908 480 459 458 
909 459 480 460 
910 460 480 481 
911 460 481 482 
912 482 461 460 
913 461 482 462 
914 462 482 483 
915 462 483 484 
916 484 463 462 
917 463 484 464 
918 464 484 485 
919 464 485 486 
920 486 465 464 
921 465 486 466 
922 466 486 487 
923 466 487 49 
924 49 50 466 
925 23 24 488 
926 488 467 23 
927 467 488 468 
928 468 488 489 
929 468 489 490 
930 490 469 468 
931 469 490 470 
932 470 490 491 
933 470 491 492 
934 492 471 470 
935 471 492 472 
936 472 492 493 
937 472 493 494 
938 494 473 472 
939 473 494 474 
940 474 494 495 
941 474 495 496 
942 496 475 474 
943 475 496 476 
944 476 496 497 
945 476 497 498 
946 498 477 476 
947 477 498 478 
948 478 498 499 
949 478 499 500 
950 500 479 478 
951 479 500 480 
952 480 500 501 
953 480 501 502 
954 502 481 480 
955 481 502 482 
956 482 502 503 
957 482 503 504 
958 504 483 482 
959 483 504 484 
960 484 504 505 
961 484 505 506 
962 506 485 484 
963 485 506 486 
964 486 506 507 
965 486 507 508 
966 508 487 486 
967 487 508 49 
968 49 508 48 
969 24 25 488 
970 488 25 509 
971 488 509 510 
972 510 489 488 
973 489 510 490 
974 490 510 511 
975 490 511 512 
976 512 491 490 
977 491 512 492 
978 492 512 513 
979 492 513 514 
980 514 493 492 
981 493 514 494 
982 494 514 515 
983 494 515 516 
984 516 495 494 
985 495 516 496 
986 496 516 517 
987 496 517 518 
988 518 497 496 
989 497 518 498 
990 498 518 519 
991 498 519 520 
992 520 499 498 
993 499 520 500 
994 500 520 521 
995 500 521 522 
996 522 501 500 
997 501 522 502 
998 502 522 523 
999 502 523 524 
1000 524 503 502 
1001 503 524 504 
1002 504 524 525 
1003 504 525 526 
1004 526 505 504 
1005 505 526 506 
1006 506 526 527 
1007 506 527 528 
1008 528 507 506 
1009 507 528 508 
1010 508 528 529 
1011 508 529 47 
1012 47 48 508 
1013 25 2 26 
1014 26 509 25 
1015 509 26 510 
1016 510 26 27 
1017 510 27 28 
1018 28 511 510 
1019 511 28 512 
1020 512 28 29 
1021 512 29 30 
1022 30 513 512 
1023 513 30 514 
1024 514 30 31 
1025 514 31 32 
1026 32 515 514 
1027 515 32 516 
1028 516 32 33 
1029 516 33 34 
1030 34 517 516 
1031 517 34 518 
1032 518 34 35 
1033 518 35 36 
1034 36 519 518 
1035 519 36 520 
1036 520 36 37 
1037 520 37 38 
1038 38 521 520 
1039 521 38 522 
1040 522 38 39 
1041 522 39 40 
1042 40 523 522 
1043 523 40 524 
1044 524 40 41 
1045 524 41 42 
1046 42 525 524 
1047 525 42 526 
1048 526 42 43 
1049 526 43 44 
1050 44 527 526 
1051 527 44 528 
1052 528 44 45 
1053 528 45 46 
1054 46 529 528 
1055 529 46 47 
1056 47 46 3 
$EndElements
