$MeshFormat
4.1 0 8
$EndMeshFormat
$PhysicalNames
6
1 1 "Γ¹"
1 2 "Γ²"
1 3 "Γ³"
1 4 "Γ⁴"
1 6 "Γ"
2 5 "Ω"
$EndPhysicalNames
$Entities
4 5 1 0
1 0 0 0 0 
2 1 0 0 0 
3 1.866025403784439 0.5000000000000001 0 0 
4 0.8660254037844386 0.5000000000000001 0 0 
1 0 0 0 1 0 0 1 1 2 1 -2 
2 1 0 0 1.866025403784439 0.5000000000000001 0 1 2 2 2 -3 
3 0.8660254037844386 0.5000000000000001 0 1.866025403784439 0.5000000000000001 0 1 3 2 3 -4 
4 0 0 0 0.8660254037844386 0.5000000000000001 0 1 4 2 4 -1 
5 0 0 0 1.866025403784439 0.5000000000000001 0 1 6 0 
1 0 0 0 1.866025403784439 0.5000000000000001 0 1 5 4 1 2 3 4 
$EndEntities
$Nodes
10 225 1 225
0 1 0 1
1
0 0 0
0 2 0 1
2
1 0 0
0 3 0 1
3
1.866025403784439 0.5000000000000001 0
0 4 0 1
4
0.8660254037844386 0.5000000000000001 0
1 1 0 13
5
6
7
8
9
10
11
12
13
14
15
16
17
0.0714285714284293 0 0
0.1428571428568665 0 0
0.2142857142852295 0 0
0.2857142857135924 0 0
0.3571428571419553 0 0
0.4285714285703183 0 0
0.4999999999986921 0 0
0.5714285714274411 0 0
0.6428571428562009 0 0
0.7142857142849607 0 0
0.7857142857137205 0 0
0.8571428571424804 0 0
0.9285714285712401 0 0
1 2 0 13
18
19
20
21
22
23
24
25
26
27
28
29
30
1.061858957413074 0.03571428571422799 0
1.12371791482615 0.07142857142845679 0
1.185576872239208 0.1071428571426756 0
1.247435829652204 0.1428571428568582 0
1.309294787065264 0.1785714285710784 0
1.37115374447832 0.214285714285296 0
1.433012701891253 0.2499999999994424 0
1.494871659304407 0.2857142857137163 0
1.556730616717758 0.3214285714281041 0
1.618589574131109 0.3571428571424919 0
1.680448531544451 0.3928571428568743 0
1.742307488957802 0.4285714285712621 0
1.804166446371153 0.46428571428565 0
1 3 0 13
31
32
33
34
35
36
37
38
39
40
41
42
43
1.794596832356552 0.5000000000000001 0
1.723168260928665 0.5000000000000001 0
1.651739689500778 0.5000000000000001 0
1.580311118072891 0.5000000000000001 0
1.508882546645005 0.5000000000000001 0
1.437453975217118 0.5000000000000001 0
1.366025403789188 0.5000000000000001 0
1.294596832359758 0.5000000000000001 0
1.223168260930285 0.5000000000000001 0
1.151739689500813 0.5000000000000001 0
1.08031111807134 0.5000000000000001 0
1.008882546641867 0.5000000000000001 0
0.9374539752131186 0.5000000000000001 0
1 4 0 13
44
45
46
47
48
49
50
51
52
53
54
55
56
0.8041664463714328 0.4642857142858116 0
0.742307488958432 0.428571428571626 0
0.6804485315454777 0.3928571428574672 0
0.6185895741325232 0.3571428571433084 0
0.5567306167194922 0.3214285714291053 0
0.4948716593063922 0.2857142857148623 0
0.4330127018933276 0.2500000000006399 0
0.3711537444799958 0.2142857142862633 0
0.3092947870666564 0.1785714285718821 0
0.2474358296533167 0.1428571428575008 0
0.1855768722399865 0.107142857143125 0
0.1237179148266467 0.0714285714287437 0
0.06185895741330727 0.03571428571436253 0
1 5 0 0
2 1 0 169
57
58
59
60
61
62
63
64
65
66
67
68
69
70
71
72
73
74
75
76
77
78
79
80
81
82
83
84
85
86
87
88
89
90
91
92
93
94
95
96
97
98
99
100
101
102
103
104
105
106
107
108
109
110
111
112
113
114
115
116
117
118
119
120
121
122
123
124
125
126
127
128
129
130
131
132
133
134
135
136
137
138
139
140
141
142
143
144
145
146
147
148
149
150
151
152
153
154
155
156
157
158
159
160
161
162
163
164
165
166
167
168
169
170
171
172
173
174
175
176
177
178
179
180
181
182
183
184
185
186
187
188
189
190
191
192
193
194
195
196
197
198
199
200
201
202
203
204
205
206
207
208
209
210
211
212
213
214
215
216
217
218
219
220
221
222
223
224
225
0.1332875288417378 0.03571428571435292 0
0.1951464862550763 0.07142857142872321 0
0.2570054436684139 0.1071428571430929 0
0.3188644010817381 0.142857142857455 0
0.3807233584950756 0.1785714285718246 0
0.4425823159084128 0.2142857142861941 0
0.5044412733217339 0.2500000000005544 0
0.5663002307348228 0.2857142857147805 0
0.6281591881479587 0.3214285714290337 0
0.6900181455610307 0.3571428571432501 0
0.7518771029740304 0.3928571428574248 0
0.8137360603870312 0.4285714285716 0
0.875595017800075 0.4642857142858 0
0.2047161002701806 0.03571428571434331 0
0.2665750576835225 0.07142857142870271 0
0.3284340150968622 0.1071428571430608 0
0.3902929725101847 0.142857142857409 0
0.4521519299235247 0.1785714285717673 0
0.5140108873368636 0.2142857142861251 0
0.5758698447501786 0.2500000000004688 0
0.6377288021632961 0.2857142857146986 0
0.6995877595764719 0.3214285714289623 0
0.7614467169895891 0.3571428571431918 0
0.8233056744026387 0.3928571428573825 0
0.8851646318156901 0.4285714285715741 0
0.9470235892287808 0.4642857142857886 0
0.2761446716986062 0.0357142857143337 0
0.3380036291120087 0.0714285714286822 0
0.3998625865254075 0.1071428571430287 0
0.4617215439387852 0.1428571428573631 0
0.5235805013521845 0.1785714285717099 0
0.5854394587655829 0.214285714286056 0
0.6472984161789485 0.2500000000003832 0
0.7091573735921515 0.2857142857146167 0
0.7710163310054248 0.3214285714288907 0
0.8328752884186437 0.3571428571431334 0
0.8947342458318008 0.3928571428573402 0
0.9565932032449593 0.4285714285715481 0
1.018452160658154 0.464285714285777 0
0.3475732431270317 0.03571428571432408 0
0.4094322005404945 0.07142857142866171 0
0.4712911579539525 0.1071428571429966 0
0.533150115367386 0.1428571428573172 0
0.5950090727808445 0.1785714285716525 0
0.6568680301943015 0.2142857142859869 0
0.718726987607718 0.2500000000002978 0
0.7805859450210069 0.2857142857145348 0
0.8424449024343774 0.3214285714288192 0
0.9043038598476982 0.3571428571430751 0
0.9661628172609619 0.3928571428572978 0
1.028021774674228 0.4285714285715221 0
1.089880732087528 0.4642857142857655 0
0.4190018145554573 0.03571428571431447 0
0.4808607719689806 0.07142857142864124 0
0.5427197293824977 0.1071428571429645 0
0.6045786867959861 0.1428571428572714 0
0.6664376442095042 0.1785714285715951 0
0.7282966016230202 0.2142857142859178 0
0.7901555590364878 0.2500000000002122 0
0.8520145164498623 0.2857142857144531 0
0.9138734738633296 0.3214285714287477 0
0.9757324312767529 0.3571428571430167 0
1.037591388690124 0.3928571428572555 0
1.099450346103497 0.4285714285714961 0
1.161309303516901 0.4642857142857539 0
0.4904303859838829 0.03571428571430487 0
0.5522893433974665 0.07142857142862075 0
0.6141483008110431 0.1071428571429324 0
0.6760072582245872 0.1428571428572254 0
0.7378662156381646 0.1785714285715377 0
0.7997251730517396 0.2142857142858487 0
0.8615841304652575 0.2500000000001267 0
0.9234430878787179 0.2857142857143711 0
0.9853020452922826 0.3214285714286763 0
1.047161002705808 0.3571428571429583 0
1.109019960119285 0.3928571428572132 0
1.170878917532767 0.4285714285714701 0
1.232737874946275 0.4642857142857424 0
0.5618589574123153 0.03571428571429527 0
0.6237179148259556 0.07142857142860025 0
0.6855768722395875 0.1071428571429003 0
0.7474358296531827 0.1428571428571796 0
0.8092947870668156 0.1785714285714803 0
0.8711537444804459 0.2142857142857796 0
0.9330127018940111 0.2500000000000412 0
0.9948716593075531 0.2857142857142893 0
1.056730616721211 0.3214285714286048 0
1.118589574134835 0.3571428571429002 0
1.180448531548415 0.3928571428571708 0
1.242307488962001 0.428571428571444 0
1.304166446375609 0.4642857142857308 0
0.6332875288409892 0.03571428571428564 0
0.6951464862545522 0.07142857142857974 0
0.7570054436681052 0.1071428571428682 0
0.8188644010816184 0.1428571428571336 0
0.8807233584951728 0.1785714285714228 0
0.9425823159087244 0.2142857142857105 0
1.004441273322203 0.2499999999999556 0
1.066300230735692 0.2857142857142075 0
1.12815918814931 0.3214285714285333 0
1.190018145562898 0.3571428571428418 0
1.251877102976447 0.3928571428571284 0
1.313736060390003 0.4285714285714181 0
1.375595017803578 0.4642857142857193 0
0.7047161002696701 0.03571428571427603 0
0.7665750576831515 0.07142857142855925 0
0.8284340150966223 0.1071428571428361 0
0.8902929725100492 0.1428571428570878 0
0.9521519299235216 0.1785714285713654 0
1.01401088733699 0.2142857142856414 0
1.075869844750378 0.2499999999998702 0
1.137728802163811 0.2857142857141255 0
1.199587759577385 0.3214285714284617 0
1.261446716990933 0.3571428571427834 0
1.323305674404448 0.3928571428570861 0
1.38516463181797 0.4285714285713921 0
1.447023589231507 0.4642857142857078 0
0.776144671698351 0.03571428571426642 0
0.8380036291117514 0.07142857142853877 0
0.8998625865251395 0.107142857142804 0
0.9617215439384802 0.1428571428570418 0
1.02358050135187 0.178571428571308 0
1.085439458765256 0.2142857142855724 0
1.147298416178553 0.2499999999997846 0
1.209157373591931 0.2857142857140437 0
1.271016331005459 0.3214285714283902 0
1.332875288418968 0.3571428571427252 0
1.394734245832448 0.3928571428570438 0
1.456593203245936 0.4285714285713661 0
1.518452160659436 0.4642857142856961 0
0.8475732431270318 0.03571428571425683 0
0.9094322005403511 0.07142857142851827 0
0.9712911579536571 0.107142857142772 0
1.033150115366911 0.1428571428569959 0
1.095009072780219 0.1785714285712506 0
1.156868030193523 0.2142857142855033 0
1.218726987606728 0.249999999999699 0
1.28058594502005 0.2857142857139619 0
1.342444902433534 0.3214285714283187 0
1.404303859847003 0.3571428571426669 0
1.466162817260449 0.3928571428570014 0
1.528021774673902 0.4285714285713401 0
1.589880732087365 0.4642857142856847 0
0.9190018145557127 0.03571428571424721 0
0.9808607719689506 0.0714285714284978 0
1.042719729382174 0.1071428571427398 0
1.104578686795342 0.1428571428569501 0
1.166437644208567 0.1785714285711932 0
1.228296601621789 0.2142857142854342 0
1.290155559034903 0.2499999999996135 0
1.352014516448169 0.28571428571388 0
1.413873473861608 0.3214285714282471 0
1.475732431275039 0.3571428571426085 0
1.53759138868845 0.392857142856959 0
1.599450346101869 0.4285714285713141 0
1.661309303515295 0.4642857142856731 0
0.9904303859843933 0.03571428571423759 0
1.05228934339755 0.07142857142847729 0
1.114148300810691 0.1071428571427077 0
1.176007258223772 0.1428571428569041 0
1.237866215636916 0.1785714285711358 0
1.299725173050055 0.2142857142853651 0
1.361584130463078 0.2499999999995279 0
1.423443087876288 0.2857142857137981 0
1.485302045289683 0.3214285714281757 0
1.547161002703074 0.3571428571425502 0
1.60901996011645 0.3928571428569167 0
1.670878917529835 0.4285714285712881 0
1.732737874943224 0.4642857142856616 0
$EndNodes
$Elements
6 1624 1 4428
1 1 1 14
1 1 5 
2 5 6 
3 6 7 
4 7 8 
5 8 9 
6 9 10 
7 10 11 
8 11 12 
9 12 13 
10 13 14 
11 14 15 
12 15 16 
13 16 17 
14 17 2 
1 2 1 14
15 2 18 
16 18 19 
17 19 20 
18 20 21 
19 21 22 
20 22 23 
21 23 24 
22 24 25 
23 25 26 
24 26 27 
25 27 28 
26 28 29 
27 29 30 
28 30 3 
1 3 1 14
29 3 31 
30 31 32 
31 32 33 
32 33 34 
33 34 35 
34 35 36 
35 36 37 
36 37 38 
37 38 39 
38 39 40 
39 40 41 
40 41 42 
41 42 43 
42 43 4 
1 4 1 14
43 4 44 
44 44 45 
45 45 46 
46 46 47 
47 47 48 
48 48 49 
49 49 50 
50 50 51 
51 51 52 
52 52 53 
53 53 54 
54 54 55 
55 55 56 
56 56 1 
1 5 1 1176
3253 1 5 
3254 5 56 
3255 56 1 
3256 56 5 
3257 5 57 
3258 57 56 
3259 56 57 
3260 57 58 
3261 58 56 
3262 58 55 
3263 55 56 
3264 56 58 
3265 55 58 
3266 58 54 
3267 54 55 
3268 54 58 
3269 58 59 
3270 59 54 
3271 54 59 
3272 59 60 
3273 60 54 
3274 60 53 
3275 53 54 
3276 54 60 
3277 53 60 
3278 60 52 
3279 52 53 
3280 52 60 
3281 60 61 
3282 61 52 
3283 52 61 
3284 61 62 
3285 62 52 
3286 62 51 
3287 51 52 
3288 52 62 
3289 51 62 
3290 62 50 
3291 50 51 
3292 50 62 
3293 62 63 
3294 63 50 
3295 50 63 
3296 63 64 
3297 64 50 
3298 64 49 
3299 49 50 
3300 50 64 
3301 49 64 
3302 64 48 
3303 48 49 
3304 48 64 
3305 64 65 
3306 65 48 
3307 48 65 
3308 65 66 
3309 66 48 
3310 66 47 
3311 47 48 
3312 48 66 
3313 47 66 
3314 66 46 
3315 46 47 
3316 46 66 
3317 66 67 
3318 67 46 
3319 46 67 
3320 67 68 
3321 68 46 
3322 68 45 
3323 45 46 
3324 46 68 
3325 45 68 
3326 68 44 
3327 44 45 
3328 44 68 
3329 68 69 
3330 69 44 
3331 44 69 
3332 69 43 
3333 43 44 
3334 43 4 
3335 4 44 
3336 44 43 
3337 5 6 
3338 6 70 
3339 70 5 
3340 70 57 
3341 57 5 
3342 5 70 
3343 57 70 
3344 70 58 
3345 58 57 
3346 58 70 
3347 70 71 
3348 71 58 
3349 58 71 
3350 71 72 
3351 72 58 
3352 72 59 
3353 59 58 
3354 58 72 
3355 59 72 
3356 72 60 
3357 60 59 
3358 60 72 
3359 72 73 
3360 73 60 
3361 60 73 
3362 73 74 
3363 74 60 
3364 74 61 
3365 61 60 
3366 60 74 
3367 61 74 
3368 74 62 
3369 62 61 
3370 62 74 
3371 74 75 
3372 75 62 
3373 62 75 
3374 75 76 
3375 76 62 
3376 76 63 
3377 63 62 
3378 62 76 
3379 63 76 
3380 76 64 
3381 64 63 
3382 64 76 
3383 76 77 
3384 77 64 
3385 64 77 
3386 77 78 
3387 78 64 
3388 78 65 
3389 65 64 
3390 64 78 
3391 65 78 
3392 78 66 
3393 66 65 
3394 66 78 
3395 78 79 
3396 79 66 
3397 66 79 
3398 79 80 
3399 80 66 
3400 80 67 
3401 67 66 
3402 66 80 
3403 67 80 
3404 80 68 
3405 68 67 
3406 68 80 
3407 80 81 
3408 81 68 
3409 68 81 
3410 81 82 
3411 82 68 
3412 82 69 
3413 69 68 
3414 68 82 
3415 69 82 
3416 82 43 
3417 43 69 
3418 43 82 
3419 82 42 
3420 42 43 
3421 6 7 
3422 7 70 
3423 70 6 
3424 70 7 
3425 7 83 
3426 83 70 
3427 70 83 
3428 83 84 
3429 84 70 
3430 84 71 
3431 71 70 
3432 70 84 
3433 71 84 
3434 84 72 
3435 72 71 
3436 72 84 
3437 84 85 
3438 85 72 
3439 72 85 
3440 85 86 
3441 86 72 
3442 86 73 
3443 73 72 
3444 72 86 
3445 73 86 
3446 86 74 
3447 74 73 
3448 74 86 
3449 86 87 
3450 87 74 
3451 74 87 
3452 87 88 
3453 88 74 
3454 88 75 
3455 75 74 
3456 74 88 
3457 75 88 
3458 88 76 
3459 76 75 
3460 76 88 
3461 88 89 
3462 89 76 
3463 76 89 
3464 89 90 
3465 90 76 
3466 90 77 
3467 77 76 
3468 76 90 
3469 77 90 
3470 90 78 
3471 78 77 
3472 78 90 
3473 90 91 
3474 91 78 
3475 78 91 
3476 91 92 
3477 92 78 
3478 92 79 
3479 79 78 
3480 78 92 
3481 79 92 
3482 92 80 
3483 80 79 
3484 80 92 
3485 92 93 
3486 93 80 
3487 80 93 
3488 93 94 
3489 94 80 
3490 94 81 
3491 81 80 
3492 80 94 
3493 81 94 
3494 94 82 
3495 82 81 
3496 82 94 
3497 94 95 
3498 95 82 
3499 82 95 
3500 95 41 
3501 41 82 
3502 41 42 
3503 42 82 
3504 82 41 
3505 7 8 
3506 8 96 
3507 96 7 
3508 96 83 
3509 83 7 
3510 7 96 
3511 83 96 
3512 96 84 
3513 84 83 
3514 84 96 
3515 96 97 
3516 97 84 
3517 84 97 
3518 97 98 
3519 98 84 
3520 98 85 
3521 85 84 
3522 84 98 
3523 85 98 
3524 98 86 
3525 86 85 
3526 86 98 
3527 98 99 
3528 99 86 
3529 86 99 
3530 99 100 
3531 100 86 
3532 100 87 
3533 87 86 
3534 86 100 
3535 87 100 
3536 100 88 
3537 88 87 
3538 88 100 
3539 100 101 
3540 101 88 
3541 88 101 
3542 101 102 
3543 102 88 
3544 102 89 
3545 89 88 
3546 88 102 
3547 89 102 
3548 102 90 
3549 90 89 
3550 90 102 
3551 102 103 
3552 103 90 
3553 90 103 
3554 103 104 
3555 104 90 
3556 104 91 
3557 91 90 
3558 90 104 
3559 91 104 
3560 104 92 
3561 92 91 
3562 92 104 
3563 104 105 
3564 105 92 
3565 92 105 
3566 105 106 
3567 106 92 
3568 106 93 
3569 93 92 
3570 92 106 
3571 93 106 
3572 106 94 
3573 94 93 
3574 94 106 
3575 106 107 
3576 107 94 
3577 94 107 
3578 107 108 
3579 108 94 
3580 108 95 
3581 95 94 
3582 94 108 
3583 95 108 
3584 108 41 
3585 41 95 
3586 41 108 
3587 108 40 
3588 40 41 
3589 8 9 
3590 9 96 
3591 96 8 
3592 96 9 
3593 9 109 
3594 109 96 
3595 96 109 
3596 109 110 
3597 110 96 
3598 110 97 
3599 97 96 
3600 96 110 
3601 97 110 
3602 110 98 
3603 98 97 
3604 98 110 
3605 110 111 
3606 111 98 
3607 98 111 
3608 111 112 
3609 112 98 
3610 112 99 
3611 99 98 
3612 98 112 
3613 99 112 
3614 112 100 
3615 100 99 
3616 100 112 
3617 112 113 
3618 113 100 
3619 100 113 
3620 113 114 
3621 114 100 
3622 114 101 
3623 101 100 
3624 100 114 
3625 101 114 
3626 114 102 
3627 102 101 
3628 102 114 
3629 114 115 
3630 115 102 
3631 102 115 
3632 115 116 
3633 116 102 
3634 116 103 
3635 103 102 
3636 102 116 
3637 103 116 
3638 116 104 
3639 104 103 
3640 104 116 
3641 116 117 
3642 117 104 
3643 104 117 
3644 117 118 
3645 118 104 
3646 118 105 
3647 105 104 
3648 104 118 
3649 105 118 
3650 118 106 
3651 106 105 
3652 106 118 
3653 118 119 
3654 119 106 
3655 106 119 
3656 119 120 
3657 120 106 
3658 120 107 
3659 107 106 
3660 106 120 
3661 107 120 
3662 120 108 
3663 108 107 
3664 108 120 
3665 120 121 
3666 121 108 
3667 108 121 
3668 121 39 
3669 39 108 
3670 39 40 
3671 40 108 
3672 108 39 
3673 9 10 
3674 10 122 
3675 122 9 
3676 122 109 
3677 109 9 
3678 9 122 
3679 109 122 
3680 122 110 
3681 110 109 
3682 110 122 
3683 122 123 
3684 123 110 
3685 110 123 
3686 123 124 
3687 124 110 
3688 124 111 
3689 111 110 
3690 110 124 
3691 111 124 
3692 124 112 
3693 112 111 
3694 112 124 
3695 124 125 
3696 125 112 
3697 112 125 
3698 125 126 
3699 126 112 
3700 126 113 
3701 113 112 
3702 112 126 
3703 113 126 
3704 126 114 
3705 114 113 
3706 114 126 
3707 126 127 
3708 127 114 
3709 114 127 
3710 127 128 
3711 128 114 
3712 128 115 
3713 115 114 
3714 114 128 
3715 115 128 
3716 128 116 
3717 116 115 
3718 116 128 
3719 128 129 
3720 129 116 
3721 116 129 
3722 129 130 
3723 130 116 
3724 130 117 
3725 117 116 
3726 116 130 
3727 117 130 
3728 130 118 
3729 118 117 
3730 118 130 
3731 130 131 
3732 131 118 
3733 118 131 
3734 131 132 
3735 132 118 
3736 132 119 
3737 119 118 
3738 118 132 
3739 119 132 
3740 132 120 
3741 120 119 
3742 120 132 
3743 132 133 
3744 133 120 
3745 120 133 
3746 133 134 
3747 134 120 
3748 134 121 
3749 121 120 
3750 120 134 
3751 121 134 
3752 134 39 
3753 39 121 
3754 39 134 
3755 134 38 
3756 38 39 
3757 10 11 
3758 11 122 
3759 122 10 
3760 122 11 
3761 11 135 
3762 135 122 
3763 122 135 
3764 135 136 
3765 136 122 
3766 136 123 
3767 123 122 
3768 122 136 
3769 123 136 
3770 136 124 
3771 124 123 
3772 124 136 
3773 136 137 
3774 137 124 
3775 124 137 
3776 137 138 
3777 138 124 
3778 138 125 
3779 125 124 
3780 124 138 
3781 125 138 
3782 138 126 
3783 126 125 
3784 126 138 
3785 138 139 
3786 139 126 
3787 126 139 
3788 139 140 
3789 140 126 
3790 140 127 
3791 127 126 
3792 126 140 
3793 127 140 
3794 140 128 
3795 128 127 
3796 128 140 
3797 140 141 
3798 141 128 
3799 128 141 
3800 141 142 
3801 142 128 
3802 142 129 
3803 129 128 
3804 128 142 
3805 129 142 
3806 142 130 
3807 130 129 
3808 130 142 
3809 142 143 
3810 143 130 
3811 130 143 
3812 143 144 
3813 144 130 
3814 144 131 
3815 131 130 
3816 130 144 
3817 131 144 
3818 144 132 
3819 132 131 
3820 132 144 
3821 144 145 
3822 145 132 
3823 132 145 
3824 145 146 
3825 146 132 
3826 146 133 
3827 133 132 
3828 132 146 
3829 133 146 
3830 146 134 
3831 134 133 
3832 134 146 
3833 146 147 
3834 147 134 
3835 134 147 
3836 147 37 
3837 37 134 
3838 37 38 
3839 38 134 
3840 134 37 
3841 11 12 
3842 12 148 
3843 148 11 
3844 148 135 
3845 135 11 
3846 11 148 
3847 135 148 
3848 148 136 
3849 136 135 
3850 136 148 
3851 148 149 
3852 149 136 
3853 136 149 
3854 149 150 
3855 150 136 
3856 150 137 
3857 137 136 
3858 136 150 
3859 137 150 
3860 150 138 
3861 138 137 
3862 138 150 
3863 150 151 
3864 151 138 
3865 138 151 
3866 151 152 
3867 152 138 
3868 152 139 
3869 139 138 
3870 138 152 
3871 139 152 
3872 152 140 
3873 140 139 
3874 140 152 
3875 152 153 
3876 153 140 
3877 140 153 
3878 153 154 
3879 154 140 
3880 154 141 
3881 141 140 
3882 140 154 
3883 141 154 
3884 154 142 
3885 142 141 
3886 142 154 
3887 154 155 
3888 155 142 
3889 142 155 
3890 155 156 
3891 156 142 
3892 156 143 
3893 143 142 
3894 142 156 
3895 143 156 
3896 156 144 
3897 144 143 
3898 144 156 
3899 156 157 
3900 157 144 
3901 144 157 
3902 157 158 
3903 158 144 
3904 158 145 
3905 145 144 
3906 144 158 
3907 145 158 
3908 158 146 
3909 146 145 
3910 146 158 
3911 158 159 
3912 159 146 
3913 146 159 
3914 159 160 
3915 160 146 
3916 160 147 
3917 147 146 
3918 146 160 
3919 147 160 
3920 160 37 
3921 37 147 
3922 37 160 
3923 160 36 
3924 36 37 
3925 12 13 
3926 13 148 
3927 148 12 
3928 148 13 
3929 13 161 
3930 161 148 
3931 148 161 
3932 161 162 
3933 162 148 
3934 162 149 
3935 149 148 
3936 148 162 
3937 149 162 
3938 162 150 
3939 150 149 
3940 150 162 
3941 162 163 
3942 163 150 
3943 150 163 
3944 163 164 
3945 164 150 
3946 164 151 
3947 151 150 
3948 150 164 
3949 151 164 
3950 164 152 
3951 152 151 
3952 152 164 
3953 164 165 
3954 165 152 
3955 152 165 
3956 165 166 
3957 166 152 
3958 166 153 
3959 153 152 
3960 152 166 
3961 153 166 
3962 166 154 
3963 154 153 
3964 154 166 
3965 166 167 
3966 167 154 
3967 154 167 
3968 167 168 
3969 168 154 
3970 168 155 
3971 155 154 
3972 154 168 
3973 155 168 
3974 168 156 
3975 156 155 
3976 156 168 
3977 168 169 
3978 169 156 
3979 156 169 
3980 169 170 
3981 170 156 
3982 170 157 
3983 157 156 
3984 156 170 
3985 157 170 
3986 170 158 
3987 158 157 
3988 158 170 
3989 170 171 
3990 171 158 
3991 158 171 
3992 171 172 
3993 172 158 
3994 172 159 
3995 159 158 
3996 158 172 
3997 159 172 
3998 172 160 
3999 160 159 
4000 160 172 
4001 172 173 
4002 173 160 
4003 160 173 
4004 173 35 
4005 35 160 
4006 35 36 
4007 36 160 
4008 160 35 
4009 13 14 
4010 14 174 
4011 174 13 
4012 174 161 
4013 161 13 
4014 13 174 
4015 161 174 
4016 174 162 
4017 162 161 
4018 162 174 
4019 174 175 
4020 175 162 
4021 162 175 
4022 175 176 
4023 176 162 
4024 176 163 
4025 163 162 
4026 162 176 
4027 163 176 
4028 176 164 
4029 164 163 
4030 164 176 
4031 176 177 
4032 177 164 
4033 164 177 
4034 177 178 
4035 178 164 
4036 178 165 
4037 165 164 
4038 164 178 
4039 165 178 
4040 178 166 
4041 166 165 
4042 166 178 
4043 178 179 
4044 179 166 
4045 166 179 
4046 179 180 
4047 180 166 
4048 180 167 
4049 167 166 
4050 166 180 
4051 167 180 
4052 180 168 
4053 168 167 
4054 168 180 
4055 180 181 
4056 181 168 
4057 168 181 
4058 181 182 
4059 182 168 
4060 182 169 
4061 169 168 
4062 168 182 
4063 169 182 
4064 182 170 
4065 170 169 
4066 170 182 
4067 182 183 
4068 183 170 
4069 170 183 
4070 183 184 
4071 184 170 
4072 184 171 
4073 171 170 
4074 170 184 
4075 171 184 
4076 184 172 
4077 172 171 
4078 172 184 
4079 184 185 
4080 185 172 
4081 172 185 
4082 185 186 
4083 186 172 
4084 186 173 
4085 173 172 
4086 172 186 
4087 173 186 
4088 186 35 
4089 35 173 
4090 35 186 
4091 186 34 
4092 34 35 
4093 14 15 
4094 15 174 
4095 174 14 
4096 174 15 
4097 15 187 
4098 187 174 
4099 174 187 
4100 187 188 
4101 188 174 
4102 188 175 
4103 175 174 
4104 174 188 
4105 175 188 
4106 188 176 
4107 176 175 
4108 176 188 
4109 188 189 
4110 189 176 
4111 176 189 
4112 189 190 
4113 190 176 
4114 190 177 
4115 177 176 
4116 176 190 
4117 177 190 
4118 190 178 
4119 178 177 
4120 178 190 
4121 190 191 
4122 191 178 
4123 178 191 
4124 191 192 
4125 192 178 
4126 192 179 
4127 179 178 
4128 178 192 
4129 179 192 
4130 192 180 
4131 180 179 
4132 180 192 
4133 192 193 
4134 193 180 
4135 180 193 
4136 193 194 
4137 194 180 
4138 194 181 
4139 181 180 
4140 180 194 
4141 181 194 
4142 194 182 
4143 182 181 
4144 182 194 
4145 194 195 
4146 195 182 
4147 182 195 
4148 195 196 
4149 196 182 
4150 196 183 
4151 183 182 
4152 182 196 
4153 183 196 
4154 196 184 
4155 184 183 
4156 184 196 
4157 196 197 
4158 197 184 
4159 184 197 
4160 197 198 
4161 198 184 
4162 198 185 
4163 185 184 
4164 184 198 
4165 185 198 
4166 198 186 
4167 186 185 
4168 186 198 
4169 198 199 
4170 199 186 
4171 186 199 
4172 199 33 
4173 33 186 
4174 33 34 
4175 34 186 
4176 186 33 
4177 15 16 
4178 16 200 
4179 200 15 
4180 200 187 
4181 187 15 
4182 15 200 
4183 187 200 
4184 200 188 
4185 188 187 
4186 188 200 
4187 200 201 
4188 201 188 
4189 188 201 
4190 201 202 
4191 202 188 
4192 202 189 
4193 189 188 
4194 188 202 
4195 189 202 
4196 202 190 
4197 190 189 
4198 190 202 
4199 202 203 
4200 203 190 
4201 190 203 
4202 203 204 
4203 204 190 
4204 204 191 
4205 191 190 
4206 190 204 
4207 191 204 
4208 204 192 
4209 192 191 
4210 192 204 
4211 204 205 
4212 205 192 
4213 192 205 
4214 205 206 
4215 206 192 
4216 206 193 
4217 193 192 
4218 192 206 
4219 193 206 
4220 206 194 
4221 194 193 
4222 194 206 
4223 206 207 
4224 207 194 
4225 194 207 
4226 207 208 
4227 208 194 
4228 208 195 
4229 195 194 
4230 194 208 
4231 195 208 
4232 208 196 
4233 196 195 
4234 196 208 
4235 208 209 
4236 209 196 
4237 196 209 
4238 209 210 
4239 210 196 
4240 210 197 
4241 197 196 
4242 196 210 
4243 197 210 
4244 210 198 
4245 198 197 
4246 198 210 
4247 210 211 
4248 211 198 
4249 198 211 
4250 211 212 
4251 212 198 
4252 212 199 
4253 199 198 
4254 198 212 
4255 199 212 
4256 212 33 
4257 33 199 
4258 33 212 
4259 212 32 
4260 32 33 
4261 16 17 
4262 17 200 
4263 200 16 
4264 200 17 
4265 17 213 
4266 213 200 
4267 200 213 
4268 213 214 
4269 214 200 
4270 214 201 
4271 201 200 
4272 200 214 
4273 201 214 
4274 214 202 
4275 202 201 
4276 202 214 
4277 214 215 
4278 215 202 
4279 202 215 
4280 215 216 
4281 216 202 
4282 216 203 
4283 203 202 
4284 202 216 
4285 203 216 
4286 216 204 
4287 204 203 
4288 204 216 
4289 216 217 
4290 217 204 
4291 204 217 
4292 217 218 
4293 218 204 
4294 218 205 
4295 205 204 
4296 204 218 
4297 205 218 
4298 218 206 
4299 206 205 
4300 206 218 
4301 218 219 
4302 219 206 
4303 206 219 
4304 219 220 
4305 220 206 
4306 220 207 
4307 207 206 
4308 206 220 
4309 207 220 
4310 220 208 
4311 208 207 
4312 208 220 
4313 220 221 
4314 221 208 
4315 208 221 
4316 221 222 
4317 222 208 
4318 222 209 
4319 209 208 
4320 208 222 
4321 209 222 
4322 222 210 
4323 210 209 
4324 210 222 
4325 222 223 
4326 223 210 
4327 210 223 
4328 223 224 
4329 224 210 
4330 224 211 
4331 211 210 
4332 210 224 
4333 211 224 
4334 224 212 
4335 212 211 
4336 212 224 
4337 224 225 
4338 225 212 
4339 212 225 
4340 225 31 
4341 31 212 
4342 31 32 
4343 32 212 
4344 212 31 
4345 17 2 
4346 2 18 
4347 18 17 
4348 18 213 
4349 213 17 
4350 17 18 
4351 213 18 
4352 18 214 
4353 214 213 
4354 214 18 
4355 18 19 
4356 19 214 
4357 214 19 
4358 19 20 
4359 20 214 
4360 20 215 
4361 215 214 
4362 214 20 
4363 215 20 
4364 20 216 
4365 216 215 
4366 216 20 
4367 20 21 
4368 21 216 
4369 216 21 
4370 21 22 
4371 22 216 
4372 22 217 
4373 217 216 
4374 216 22 
4375 217 22 
4376 22 218 
4377 218 217 
4378 218 22 
4379 22 23 
4380 23 218 
4381 218 23 
4382 23 24 
4383 24 218 
4384 24 219 
4385 219 218 
4386 218 24 
4387 219 24 
4388 24 220 
4389 220 219 
4390 220 24 
4391 24 25 
4392 25 220 
4393 220 25 
4394 25 26 
4395 26 220 
4396 26 221 
4397 221 220 
4398 220 26 
4399 221 26 
4400 26 222 
4401 222 221 
4402 222 26 
4403 26 27 
4404 27 222 
4405 222 27 
4406 27 28 
4407 28 222 
4408 28 223 
4409 223 222 
4410 222 28 
4411 223 28 
4412 28 224 
4413 224 223 
4414 224 28 
4415 28 29 
4416 29 224 
4417 224 29 
4418 29 30 
4419 30 224 
4420 30 225 
4421 225 224 
4422 224 30 
4423 225 30 
4424 30 31 
4425 31 225 
4426 31 30 
4427 30 3 
4428 3 31 
2 1 2 392
57 1 5 56 
58 56 5 57 
59 56 57 58 
60 58 55 56 
61 55 58 54 
62 54 58 59 
63 54 59 60 
64 60 53 54 
65 53 60 52 
66 52 60 61 
67 52 61 62 
68 62 51 52 
69 51 62 50 
70 50 62 63 
71 50 63 64 
72 64 49 50 
73 49 64 48 
74 48 64 65 
75 48 65 66 
76 66 47 48 
77 47 66 46 
78 46 66 67 
79 46 67 68 
80 68 45 46 
81 45 68 44 
82 44 68 69 
83 44 69 43 
84 43 4 44 
85 5 6 70 
86 70 57 5 
87 57 70 58 
88 58 70 71 
89 58 71 72 
90 72 59 58 
91 59 72 60 
92 60 72 73 
93 60 73 74 
94 74 61 60 
95 61 74 62 
96 62 74 75 
97 62 75 76 
98 76 63 62 
99 63 76 64 
100 64 76 77 
101 64 77 78 
102 78 65 64 
103 65 78 66 
104 66 78 79 
105 66 79 80 
106 80 67 66 
107 67 80 68 
108 68 80 81 
109 68 81 82 
110 82 69 68 
111 69 82 43 
112 43 82 42 
113 6 7 70 
114 70 7 83 
115 70 83 84 
116 84 71 70 
117 71 84 72 
118 72 84 85 
119 72 85 86 
120 86 73 72 
121 73 86 74 
122 74 86 87 
123 74 87 88 
124 88 75 74 
125 75 88 76 
126 76 88 89 
127 76 89 90 
128 90 77 76 
129 77 90 78 
130 78 90 91 
131 78 91 92 
132 92 79 78 
133 79 92 80 
134 80 92 93 
135 80 93 94 
136 94 81 80 
137 81 94 82 
138 82 94 95 
139 82 95 41 
140 41 42 82 
141 7 8 96 
142 96 83 7 
143 83 96 84 
144 84 96 97 
145 84 97 98 
146 98 85 84 
147 85 98 86 
148 86 98 99 
149 86 99 100 
150 100 87 86 
151 87 100 88 
152 88 100 101 
153 88 101 102 
154 102 89 88 
155 89 102 90 
156 90 102 103 
157 90 103 104 
158 104 91 90 
159 91 104 92 
160 92 104 105 
161 92 105 106 
162 106 93 92 
163 93 106 94 
164 94 106 107 
165 94 107 108 
166 108 95 94 
167 95 108 41 
168 41 108 40 
169 8 9 96 
170 96 9 109 
171 96 109 110 
172 110 97 96 
173 97 110 98 
174 98 110 111 
175 98 111 112 
176 112 99 98 
177 99 112 100 
178 100 112 113 
179 100 113 114 
180 114 101 100 
181 101 114 102 
182 102 114 115 
183 102 115 116 
184 116 103 102 
185 103 116 104 
186 104 116 117 
187 104 117 118 
188 118 105 104 
189 105 118 106 
190 106 118 119 
191 106 119 120 
192 120 107 106 
193 107 120 108 
194 108 120 121 
195 108 121 39 
196 39 40 108 
197 9 10 122 
198 122 109 9 
199 109 122 110 
200 110 122 123 
201 110 123 124 
202 124 111 110 
203 111 124 112 
204 112 124 125 
205 112 125 126 
206 126 113 112 
207 113 126 114 
208 114 126 127 
209 114 127 128 
210 128 115 114 
211 115 128 116 
212 116 128 129 
213 116 129 130 
214 130 117 116 
215 117 130 118 
216 118 130 131 
217 118 131 132 
218 132 119 118 
219 119 132 120 
220 120 132 133 
221 120 133 134 
222 134 121 120 
223 121 134 39 
224 39 134 38 
225 10 11 122 
226 122 11 135 
227 122 135 136 
228 136 123 122 
229 123 136 124 
230 124 136 137 
231 124 137 138 
232 138 125 124 
233 125 138 126 
234 126 138 139 
235 126 139 140 
236 140 127 126 
237 127 140 128 
238 128 140 141 
239 128 141 142 
240 142 129 128 
241 129 142 130 
242 130 142 143 
243 130 143 144 
244 144 131 130 
245 131 144 132 
246 132 144 145 
247 132 145 146 
248 146 133 132 
249 133 146 134 
250 134 146 147 
251 134 147 37 
252 37 38 134 
253 11 12 148 
254 148 135 11 
255 135 148 136 
256 136 148 149 
257 136 149 150 
258 150 137 136 
259 137 150 138 
260 138 150 151 
261 138 151 152 
262 152 139 138 
263 139 152 140 
264 140 152 153 
265 140 153 154 
266 154 141 140 
267 141 154 142 
268 142 154 155 
269 142 155 156 
270 156 143 142 
271 143 156 144 
272 144 156 157 
273 144 157 158 
274 158 145 144 
275 145 158 146 
276 146 158 159 
277 146 159 160 
278 160 147 146 
279 147 160 37 
280 37 160 36 
281 12 13 148 
282 148 13 161 
283 148 161 162 
284 162 149 148 
285 149 162 150 
286 150 162 163 
287 150 163 164 
288 164 151 150 
289 151 164 152 
290 152 164 165 
291 152 165 166 
292 166 153 152 
293 153 166 154 
294 154 166 167 
295 154 167 168 
296 168 155 154 
297 155 168 156 
298 156 168 169 
299 156 169 170 
300 170 157 156 
301 157 170 158 
302 158 170 171 
303 158 171 172 
304 172 159 158 
305 159 172 160 
306 160 172 173 
307 160 173 35 
308 35 36 160 
309 13 14 174 
310 174 161 13 
311 161 174 162 
312 162 174 175 
313 162 175 176 
314 176 163 162 
315 163 176 164 
316 164 176 177 
317 164 177 178 
318 178 165 164 
319 165 178 166 
320 166 178 179 
321 166 179 180 
322 180 167 166 
323 167 180 168 
324 168 180 181 
325 168 181 182 
326 182 169 168 
327 169 182 170 
328 170 182 183 
329 170 183 184 
330 184 171 170 
331 171 184 172 
332 172 184 185 
333 172 185 186 
334 186 173 172 
335 173 186 35 
336 35 186 34 
337 14 15 174 
338 174 15 187 
339 174 187 188 
340 188 175 174 
341 175 188 176 
342 176 188 189 
343 176 189 190 
344 190 177 176 
345 177 190 178 
346 178 190 191 
347 178 191 192 
348 192 179 178 
349 179 192 180 
350 180 192 193 
351 180 193 194 
352 194 181 180 
353 181 194 182 
354 182 194 195 
355 182 195 196 
356 196 183 182 
357 183 196 184 
358 184 196 197 
359 184 197 198 
360 198 185 184 
361 185 198 186 
362 186 198 199 
363 186 199 33 
364 33 34 186 
365 15 16 200 
366 200 187 15 
367 187 200 188 
368 188 200 201 
369 188 201 202 
370 202 189 188 
371 189 202 190 
372 190 202 203 
373 190 203 204 
374 204 191 190 
375 191 204 192 
376 192 204 205 
377 192 205 206 
378 206 193 192 
379 193 206 194 
380 194 206 207 
381 194 207 208 
382 208 195 194 
383 195 208 196 
384 196 208 209 
385 196 209 210 
386 210 197 196 
387 197 210 198 
388 198 210 211 
389 198 211 212 
390 212 199 198 
391 199 212 33 
392 33 212 32 
393 16 17 200 
394 200 17 213 
395 200 213 214 
396 214 201 200 
397 201 214 202 
398 202 214 215 
399 202 215 216 
400 216 203 202 
401 203 216 204 
402 204 216 217 
403 204 217 218 
404 218 205 204 
405 205 218 206 
406 206 218 219 
407 206 219 220 
408 220 207 206 
409 207 220 208 
410 208 220 221 
411 208 221 222 
412 222 209 208 
413 209 222 210 
414 210 222 223 
415 210 223 224 
416 224 211 210 
417 211 224 212 
418 212 224 225 
419 212 225 31 
420 31 32 212 
421 17 2 18 
422 18 213 17 
423 213 18 214 
424 214 18 19 
425 214 19 20 
426 20 215 214 
427 215 20 216 
428 216 20 21 
429 216 21 22 
430 22 217 216 
431 217 22 218 
432 218 22 23 
433 218 23 24 
434 24 219 218 
435 219 24 220 
436 220 24 25 
437 220 25 26 
438 26 221 220 
439 221 26 222 
440 222 26 27 
441 222 27 28 
442 28 223 222 
443 223 28 224 
444 224 28 29 
445 224 29 30 
446 30 225 224 
447 225 30 31 
448 31 30 3 
$EndElements
