$MeshFormat
4.1 0 8
$EndMeshFormat
$PhysicalNames
6
1 1 "Γ¹"
1 2 "Γ²"
1 3 "Γ³"
1 4 "Γ⁴"
1 6 "Γ"
2 5 "Ω"
$EndPhysicalNames
$Entities
4 5 1 0
1 0 0 0 0 
2 1 0 0 0 
3 1.5 0.8660254037844387 0 0 
4 0.4999999999999999 0.8660254037844387 0 0 
1 0 0 0 1 0 0 1 1 2 1 -2 
2 1 0 0 1.5 0.8660254037844387 0 1 2 2 2 -3 
3 0.5 0.8660254037844387 0 1.5 0.8660254037844387 0 1 3 2 3 -4 
4 0 0 0 0.4999999999999999 0.8660254037844387 0 1 4 2 4 -1 
5 0 0 0 1.5 0.8660254037844387 0 1 6 0 
1 0 0 0 1.5 0.8660254037844387 0 1 5 4 1 2 3 4 
$EndEntities
$Nodes
10 361 1 361
0 1 0 1
1
0 0 0
0 2 0 1
2
1 0 0
0 3 0 1
3
1.5 0.8660254037844387 0
0 4 0 1
4
0.4999999999999999 0.8660254037844387 0
1 1 0 17
5
6
7
8
9
10
11
12
13
14
15
16
17
18
19
20
21
0.05555555555544272 0 0
0.1111111111109082 0 0
0.1666666666663209 0 0
0.2222222222217143 0 0
0.2777777777771076 0 0
0.333333333332501 0 0
0.3888888888878944 0 0
0.4444444444432878 0 0
0.4999999999986921 0 0
0.5555555555543833 0 0
0.6111111111100853 0 0
0.6666666666657874 0 0
0.7222222222214896 0 0
0.7777777777771916 0 0
0.8333333333328937 0 0
0.8888888888885959 0 0
0.9444444444442979 0 0
1 2 0 17
22
23
24
25
26
27
28
29
30
31
32
33
34
35
36
37
38
1.027777777777736 0.04811252243239636 0
1.055555555555479 0.09622504486480435 0
1.083333333333202 0.1443375672971788 0
1.111111111110917 0.1924500897295389 0
1.138888888888637 0.240562612161907 0
1.166666666666362 0.2886751345942846 0
1.194444444444088 0.3367876570266637 0
1.222222222221789 0.3849001794590002 0
1.249999999999499 0.4330127018913512 0
1.277777777777333 0.4811252243239173 0
1.305555555555181 0.5292377467565078 0
1.333333333333015 0.5773502691890741 0
1.361111111110853 0.6254627916216474 0
1.388888888888692 0.6735753140542228 0
1.416666666666526 0.7216878364867889 0
1.444444444444367 0.7698003589193678 0
1.472222222222204 0.8179128813519375 0
1 3 0 17
39
40
41
42
43
44
45
46
47
48
49
50
51
52
53
54
55
1.444444444444753 0.8660254037844387 0
1.388888888889506 0.8660254037844387 0
1.333333333334259 0.8660254037844387 0
1.277777777779012 0.8660254037844387 0
1.222222222223765 0.8660254037844387 0
1.166666666668517 0.8660254037844387 0
1.111111111113271 0.8660254037844387 0
1.055555555558023 0.8660254037844387 0
1.000000000002755 0.8660254037844387 0
0.9444444444469124 0.8660254037844387 0
0.8888888888910483 0.8660254037844387 0
0.8333333333351843 0.8660254037844387 0
0.7777777777793202 0.8660254037844387 0
0.7222222222234562 0.8660254037844387 0
0.6666666666675921 0.8660254037844387 0
0.6111111111117281 0.8660254037844387 0
0.555555555555864 0.8660254037844387 0
1 4 0 17
56
57
58
59
60
61
62
63
64
65
66
67
68
69
70
71
72
0.4722222222222899 0.8179128813520872 0
0.444444444444512 0.7698003589196181 0
0.4166666666667833 0.7216878364872342 0
0.3888888888890648 0.6735753140548681 0
0.361111111111361 0.6254627916225274 0
0.3333333333336498 0.577350269190174 0
0.3055555555559355 0.5292377467578151 0
0.2777777777782603 0.4811252243255241 0
0.2500000000005778 0.4330127018932202 0
0.2222222222227353 0.3849001794606392 0
0.1944444444448786 0.3367876570280337 0
0.1666666666670361 0.2886751345954528 0
0.1388888888891895 0.2405626121628648 0
0.1111111111113418 0.1924500897302748 0
0.08333333333349929 0.1443375672976939 0
0.05555555555564951 0.09622504486510031 0
0.02777777777780494 0.04811252243251585 0
1 5 0 0
2 1 0 289
73
74
75
76
77
78
79
80
81
82
83
84
85
86
87
88
89
90
91
92
93
94
95
96
97
98
99
100
101
102
103
104
105
106
107
108
109
110
111
112
113
114
115
116
117
118
119
120
121
122
123
124
125
126
127
128
129
130
131
132
133
134
135
136
137
138
139
140
141
142
143
144
145
146
147
148
149
150
151
152
153
154
155
156
157
158
159
160
161
162
163
164
165
166
167
168
169
170
171
172
173
174
175
176
177
178
179
180
181
182
183
184
185
186
187
188
189
190
191
192
193
194
195
196
197
198
199
200
201
202
203
204
205
206
207
208
209
210
211
212
213
214
215
216
217
218
219
220
221
222
223
224
225
226
227
228
229
230
231
232
233
234
235
236
237
238
239
240
241
242
243
244
245
246
247
248
249
250
251
252
253
254
255
256
257
258
259
260
261
262
263
264
265
266
267
268
269
270
271
272
273
274
275
276
277
278
279
280
281
282
283
284
285
286
287
288
289
290
291
292
293
294
295
296
297
298
299
300
301
302
303
304
305
306
307
308
309
310
311
312
313
314
315
316
317
318
319
320
321
322
323
324
325
326
327
328
329
330
331
332
333
334
335
336
337
338
339
340
341
342
343
344
345
346
347
348
349
350
351
352
353
354
355
356
357
358
359
360
361
0.08333333333326723 0.04811252243250921 0
0.1111111111111295 0.09622504486508388 0
0.1388888888889957 0.1443375672976653 0
0.1666666666668545 0.1924500897302339 0
0.1944444444447186 0.2405626121628116 0
0.2222222222225818 0.2886751345953879 0
0.2500000000004413 0.3367876570279575 0
0.2777777777783127 0.3849001794605481 0
0.3055555555561713 0.4330127018931164 0
0.3333333333338857 0.4811252243254349 0
0.3611111111115938 0.5292377467577425 0
0.388888888889338 0.5773502691901128 0
0.4166666666670797 0.6254627916224786 0
0.4444444444448143 0.6735753140548324 0
0.4722222222225629 0.7216878364872096 0
0.5000000000003213 0.7698003589196042 0
0.5277777777781256 0.8179128813520787 0
0.138888888888751 0.04811252243250257 0
0.1666666666666298 0.09622504486506742 0
0.1944444444445111 0.1443375672976367 0
0.2222222222223849 0.192450089730193 0
0.2500000000002641 0.2405626121627583 0
0.2777777777781427 0.288675134595323 0
0.3055555555560179 0.3367876570278814 0
0.3333333333339028 0.3849001794604571 0
0.361111111111776 0.4330127018930124 0
0.3888888888895209 0.4811252243253455 0
0.4166666666672609 0.5292377467576698 0
0.4444444444450341 0.5773502691900521 0
0.4722222222228049 0.6254627916224296 0
0.5000000000005694 0.6735753140547965 0
0.5277777777783463 0.7216878364871848 0
0.5555555555561331 0.7698003589195903 0
0.583333333333963 0.8179128813520709 0
0.1944444444441849 0.04811252243249594 0
0.2222222222220831 0.09622504486505097 0
0.2499999999999825 0.144337567297608 0
0.2777777777778743 0.1924500897301521 0
0.3055555555557713 0.2405626121627052 0
0.3333333333336684 0.2886751345952582 0
0.361111111111562 0.3367876570278054 0
0.3888888888894635 0.3849001794603661 0
0.4166666666673545 0.4330127018929086 0
0.4444444444451328 0.4811252243252563 0
0.4722222222229075 0.5292377467575973 0
0.5000000000007124 0.5773502691899907 0
0.5277777777785151 0.6254627916223807 0
0.5555555555563122 0.6735753140547605 0
0.5833333333341206 0.72168783648716 0
0.6111111111119388 0.7698003589195762 0
0.638888888889797 0.8179128813520622 0
0.2499999999996007 0.04811252243248929 0
0.2777777777775193 0.09622504486503453 0
0.3055555555554378 0.1443375672975794 0
0.3333333333333487 0.1924500897301113 0
0.3611111111112649 0.2405626121626519 0
0.3888888888891812 0.2886751345951933 0
0.4166666666670945 0.3367876570277293 0
0.4444444444450135 0.384900179460275 0
0.4722222222229233 0.4330127018928048 0
0.5000000000007362 0.4811252243251671 0
0.5277777777785466 0.5292377467575246 0
0.5555555555563843 0.5773502691899295 0
0.5833333333342205 0.6254627916223319 0
0.6111111111120512 0.6735753140547248 0
0.6388888888898923 0.7216878364871353 0
0.6666666666677425 0.7698003589195626 0
0.6944444444456304 0.8179128813520539 0
0.3055555555550162 0.04811252243248265 0
0.3333333333329555 0.09622504486501809 0
0.3611111111108931 0.1443375672975508 0
0.3888888888888232 0.1924500897300704 0
0.4166666666667582 0.2405626121625987 0
0.4444444444446939 0.2886751345951282 0
0.472222222222627 0.3367876570276531 0
0.5000000000005634 0.384900179460184 0
0.527777777778492 0.4330127018927009 0
0.5555555555563395 0.4811252243250778 0
0.5833333333341857 0.5292377467574518 0
0.6111111111120561 0.5773502691898686 0
0.6388888888899255 0.6254627916222828 0
0.6666666666677898 0.673575314054689 0
0.6944444444456633 0.7216878364871107 0
0.7222222222235463 0.7698003589195486 0
0.7500000000014632 0.8179128813520454 0
0.361111111110432 0.048112522432476 0
0.3888888888883917 0.09622504486500166 0
0.4166666666663484 0.1443375672975222 0
0.4444444444442975 0.1924500897300294 0
0.4722222222222515 0.2405626121625455 0
0.5000000000002067 0.2886751345950634 0
0.5277777777781595 0.3367876570275771 0
0.5555555555561136 0.3849001794600929 0
0.5833333333340609 0.4330127018925972 0
0.6111111111119428 0.4811252243249885 0
0.6388888888898248 0.5292377467573794 0
0.6666666666677281 0.5773502691898073 0
0.6944444444456307 0.6254627916222339 0
0.7222222222235286 0.673575314054653 0
0.7500000000014349 0.7216878364870858 0
0.7777777777793502 0.7698003589195345 0
0.8055555555572964 0.8179128813520374 0
0.4166666666658477 0.04811252243246938 0
0.444444444443828 0.0962250448649852 0
0.4722222222218036 0.1443375672974936 0
0.4999999999997718 0.1924500897299886 0
0.5277777777777451 0.2405626121624924 0
0.5555555555557196 0.2886751345949986 0
0.5833333333336921 0.336787657027501 0
0.6111111111116635 0.3849001794600018 0
0.6388888888896296 0.4330127018924933 0
0.6666666666675461 0.4811252243248991 0
0.6944444444454638 0.5292377467573066 0
0.7222222222233999 0.5773502691897463 0
0.7500000000013357 0.6254627916221851 0
0.7777777777792674 0.673575314054617 0
0.805555555557206 0.721687836487061 0
0.833333333335154 0.7698003589195208 0
0.8611111111131297 0.817912881352029 0
0.4722222222212635 0.04811252243246274 0
0.4999999999992641 0.09622504486496877 0
0.5277777777772589 0.1443375672974649 0
0.5555555555552463 0.1924500897299477 0
0.5833333333332386 0.240562612162439 0
0.6111111111112323 0.2886751345949337 0
0.6388888888892243 0.3367876570274249 0
0.6666666666672136 0.3849001794599107 0
0.6944444444451985 0.4330127018923895 0
0.7222222222231497 0.48112522432481 0
0.750000000001103 0.5292377467572342 0
0.777777777779072 0.5773502691896851 0
0.8055555555570409 0.6254627916221362 0
0.8333333333350059 0.6735753140545813 0
0.8611111111129773 0.7216878364870363 0
0.8888888888909573 0.7698003589195069 0
0.9166666666689627 0.8179128813520204 0
0.5277777777766883 0.04811252243245611 0
0.5555555555547076 0.09622504486495231 0
0.5833333333327198 0.1443375672974364 0
0.6111111111107244 0.1924500897299068 0
0.6388888888887336 0.2405626121623859 0
0.6666666666667451 0.2886751345948687 0
0.6944444444447551 0.3367876570273486 0
0.7222222222227599 0.3849001794598197 0
0.7500000000007617 0.4330127018922857 0
0.7777777777787456 0.4811252243247207 0
0.805555555556733 0.5292377467571614 0
0.833333333334733 0.5773502691896238 0
0.8611111111127332 0.6254627916220874 0
0.8888888888907305 0.6735753140545455 0
0.9166666666687322 0.7216878364870116 0
0.9444444444467428 0.7698003589194929 0
0.9722222222247758 0.8179128813520123 0
0.5833333333323519 0.04811252243244946 0
0.6111111111103422 0.09622504486493588 0
0.6388888888883241 0.1443375672974077 0
0.6666666666662979 0.1924500897298659 0
0.6944444444442767 0.2405626121623327 0
0.7222222222222583 0.2886751345948039 0
0.7500000000002381 0.3367876570272726 0
0.7777777777782107 0.3849001794597287 0
0.8055555555561817 0.4330127018921819 0
0.8333333333341507 0.4811252243246315 0
0.8611111111121239 0.5292377467570888 0
0.8888888888901071 0.577350269189563 0
0.9166666666680907 0.6254627916220385 0
0.9444444444460722 0.6735753140545095 0
0.9722222222240572 0.7216878364869868 0
1.000000000002051 0.769800358919479 0
1.027777777780063 0.8179128813520041 0
0.6388888888880251 0.04811252243244281 0
0.6666666666659842 0.09622504486491945 0
0.6944444444439337 0.1443375672973791 0
0.7222222222218753 0.1924500897298251 0
0.7499999999998217 0.2405626121622795 0
0.7777777777777709 0.288675134594739 0
0.8055555555557194 0.3367876570271965 0
0.8333333333336579 0.3849001794596376 0
0.8611111111115965 0.433012701892078 0
0.8888888888895483 0.4811252243245422 0
0.9166666666675064 0.5292377467570162 0
0.9444444444454705 0.5773502691895017 0
0.9722222222234362 0.6254627916219897 0
1.0000000000014 0.6735753140544738 0
1.027777777779366 0.7216878364869621 0
1.05555555555734 0.7698003589194651 0
1.083333333335331 0.8179128813519956 0
0.6944444444436981 0.04811252243243617 0
0.7222222222216262 0.09622504486490299 0
0.7499999999995435 0.1443375672973504 0
0.7777777777774524 0.1924500897297842 0
0.8055555555553665 0.2405626121622262 0
0.8333333333332841 0.2886751345946741 0
0.8611111111112004 0.3367876570271204 0
0.8888888888891054 0.3849001794595466 0
0.9166666666670109 0.4330127018919742 0
0.944444444444946 0.481125224324453 0
0.9722222222228882 0.5292377467569435 0
1.000000000000834 0.5773502691894409 0
1.027777777778781 0.6254627916219409 0
1.055555555556727 0.673575314054438 0
1.083333333334674 0.7216878364869375 0
1.11111111111263 0.7698003589194514 0
1.138888888890598 0.8179128813519871 0
0.7499999999993711 0.04811252243242955 0
0.7777777777772681 0.09622504486488656 0
0.8055555555551535 0.1443375672973219 0
0.8333333333330301 0.1924500897297433 0
0.861111111110912 0.240562612162173 0
0.8888888888887968 0.2886751345946091 0
0.9166666666666816 0.3367876570270442 0
0.9444444444445527 0.3849001794594554 0
0.9722222222224257 0.4330127018918703 0
1.000000000000344 0.4811252243243637 0
1.02777777777827 0.529237746756871 0
1.055555555556198 0.5773502691893797 0
1.083333333334127 0.6254627916218918 0
1.111111111112054 0.6735753140544021 0
1.138888888889983 0.7216878364869126 0
1.166666666667919 0.7698003589194372 0
1.194444444445866 0.8179128813519793 0
0.805555555555044 0.04811252243242291 0
0.8333333333329105 0.0962250448648701 0
0.8611111111107628 0.1443375672972933 0
0.8888888888886074 0.1924500897297024 0
0.9166666666664567 0.2405626121621198 0
0.9444444444443099 0.2886751345945442 0
0.972222222222163 0.3367876570269682 0
1 0.3849001794593644 0
1.027777777777841 0.4330127018917665 0
1.055555555555742 0.4811252243242744 0
1.083333333333652 0.5292377467567984 0
1.111111111111561 0.5773502691893183 0
1.138888888889472 0.6254627916218429 0
1.166666666667382 0.6735753140543661 0
1.194444444445292 0.7216878364868877 0
1.222222222223209 0.7698003589194236 0
1.250000000001134 0.8179128813519708 0
0.861111111110717 0.04811252243241627 0
0.8888888888885524 0.09622504486485367 0
0.9166666666663725 0.1443375672972646 0
0.9444444444441846 0.1924500897296615 0
0.9722222222220016 0.2405626121620666 0
0.9999999999998228 0.2886751345944795 0
1.027777777777644 0.336787657026892 0
1.055555555555447 0.3849001794592734 0
1.083333333333255 0.4330127018916626 0
1.111111111111139 0.4811252243241851 0
1.138888888889035 0.5292377467567257 0
1.166666666666924 0.5773502691892575 0
1.194444444444817 0.6254627916217941 0
1.22222222222271 0.6735753140543304 0
1.2500000000006 0.7216878364868631 0
1.277777777778499 0.7698003589194097 0
1.305555555556401 0.8179128813519625 0
0.91666666666639 0.04811252243240965 0
0.9444444444441947 0.09622504486483724 0
0.9722222222219824 0.144337567297236 0
0.999999999999762 0.1924500897296207 0
1.027777777777547 0.2405626121620134 0
1.055555555555336 0.2886751345944144 0
1.083333333333125 0.336787657026816 0
1.111111111110895 0.3849001794591823 0
1.13888888888867 0.4330127018915589 0
1.166666666666537 0.4811252243240959 0
1.194444444444417 0.5292377467566531 0
1.222222222222288 0.5773502691891962 0
1.250000000000163 0.6254627916217452 0
1.277777777778037 0.6735753140542947 0
1.305555555555909 0.7216878364868383 0
1.333333333333788 0.7698003589193955 0
1.361111111111669 0.8179128813519542 0
0.9722222222220629 0.048112522432403 0
0.9999999999998366 0.09622504486482078 0
1.027777777777592 0.1443375672972075 0
1.05555555555534 0.1924500897295797 0
1.083333333333092 0.2405626121619602 0
1.111111111110848 0.2886751345943496 0
1.138888888888606 0.3367876570267398 0
1.166666666666342 0.3849001794590913 0
1.194444444444084 0.433012701891455 0
1.222222222221935 0.4811252243240066 0
1.249999999999799 0.5292377467565804 0
1.277777777777651 0.5773502691891353 0
1.305555555555508 0.6254627916216962 0
1.333333333333365 0.6735753140542586 0
1.361111111111217 0.7216878364868136 0
1.388888888889078 0.7698003589193817 0
1.416666666666936 0.8179128813519458 0
$EndNodes
$Elements
6 2664 1 7276
1 1 1 18
1 1 5 
2 5 6 
3 6 7 
4 7 8 
5 8 9 
6 9 10 
7 10 11 
8 11 12 
9 12 13 
10 13 14 
11 14 15 
12 15 16 
13 16 17 
14 17 18 
15 18 19 
16 19 20 
17 20 21 
18 21 2 
1 2 1 18
19 2 22 
20 22 23 
21 23 24 
22 24 25 
23 25 26 
24 26 27 
25 27 28 
26 28 29 
27 29 30 
28 30 31 
29 31 32 
30 32 33 
31 33 34 
32 34 35 
33 35 36 
34 36 37 
35 37 38 
36 38 3 
1 3 1 18
37 3 39 
38 39 40 
39 40 41 
40 41 42 
41 42 43 
42 43 44 
43 44 45 
44 45 46 
45 46 47 
46 47 48 
47 48 49 
48 49 50 
49 50 51 
50 51 52 
51 52 53 
52 53 54 
53 54 55 
54 55 4 
1 4 1 18
55 4 56 
56 56 57 
57 57 58 
58 58 59 
59 59 60 
60 60 61 
61 61 62 
62 62 63 
63 63 64 
64 64 65 
65 65 66 
66 66 67 
67 67 68 
68 68 69 
69 69 70 
70 70 71 
71 71 72 
72 72 1 
1 5 1 1944
5333 1 5 
5334 5 72 
5335 72 1 
5336 72 5 
5337 5 73 
5338 73 72 
5339 72 73 
5340 73 74 
5341 74 72 
5342 74 71 
5343 71 72 
5344 72 74 
5345 71 74 
5346 74 70 
5347 70 71 
5348 70 74 
5349 74 75 
5350 75 70 
5351 70 75 
5352 75 76 
5353 76 70 
5354 76 69 
5355 69 70 
5356 70 76 
5357 69 76 
5358 76 68 
5359 68 69 
5360 68 76 
5361 76 77 
5362 77 68 
5363 68 77 
5364 77 78 
5365 78 68 
5366 78 67 
5367 67 68 
5368 68 78 
5369 67 78 
5370 78 66 
5371 66 67 
5372 66 78 
5373 78 79 
5374 79 66 
5375 66 79 
5376 79 80 
5377 80 66 
5378 80 65 
5379 65 66 
5380 66 80 
5381 65 80 
5382 80 64 
5383 64 65 
5384 64 80 
5385 80 81 
5386 81 64 
5387 64 81 
5388 81 82 
5389 82 64 
5390 82 63 
5391 63 64 
5392 64 82 
5393 63 82 
5394 82 62 
5395 62 63 
5396 62 82 
5397 82 83 
5398 83 62 
5399 62 83 
5400 83 84 
5401 84 62 
5402 84 61 
5403 61 62 
5404 62 84 
5405 61 84 
5406 84 60 
5407 60 61 
5408 60 84 
5409 84 85 
5410 85 60 
5411 60 85 
5412 85 86 
5413 86 60 
5414 86 59 
5415 59 60 
5416 60 86 
5417 59 86 
5418 86 58 
5419 58 59 
5420 58 86 
5421 86 87 
5422 87 58 
5423 58 87 
5424 87 88 
5425 88 58 
5426 88 57 
5427 57 58 
5428 58 88 
5429 57 88 
5430 88 56 
5431 56 57 
5432 56 88 
5433 88 89 
5434 89 56 
5435 56 89 
5436 89 55 
5437 55 56 
5438 55 4 
5439 4 56 
5440 56 55 
5441 5 6 
5442 6 90 
5443 90 5 
5444 90 73 
5445 73 5 
5446 5 90 
5447 73 90 
5448 90 74 
5449 74 73 
5450 74 90 
5451 90 91 
5452 91 74 
5453 74 91 
5454 91 92 
5455 92 74 
5456 92 75 
5457 75 74 
5458 74 92 
5459 75 92 
5460 92 76 
5461 76 75 
5462 76 92 
5463 92 93 
5464 93 76 
5465 76 93 
5466 93 94 
5467 94 76 
5468 94 77 
5469 77 76 
5470 76 94 
5471 77 94 
5472 94 78 
5473 78 77 
5474 78 94 
5475 94 95 
5476 95 78 
5477 78 95 
5478 95 96 
5479 96 78 
5480 96 79 
5481 79 78 
5482 78 96 
5483 79 96 
5484 96 80 
5485 80 79 
5486 80 96 
5487 96 97 
5488 97 80 
5489 80 97 
5490 97 98 
5491 98 80 
5492 98 81 
5493 81 80 
5494 80 98 
5495 81 98 
5496 98 82 
5497 82 81 
5498 82 98 
5499 98 99 
5500 99 82 
5501 82 99 
5502 99 100 
5503 100 82 
5504 100 83 
5505 83 82 
5506 82 100 
5507 83 100 
5508 100 84 
5509 84 83 
5510 84 100 
5511 100 101 
5512 101 84 
5513 84 101 
5514 101 102 
5515 102 84 
5516 102 85 
5517 85 84 
5518 84 102 
5519 85 102 
5520 102 86 
5521 86 85 
5522 86 102 
5523 102 103 
5524 103 86 
5525 86 103 
5526 103 104 
5527 104 86 
5528 104 87 
5529 87 86 
5530 86 104 
5531 87 104 
5532 104 88 
5533 88 87 
5534 88 104 
5535 104 105 
5536 105 88 
5537 88 105 
5538 105 106 
5539 106 88 
5540 106 89 
5541 89 88 
5542 88 106 
5543 89 106 
5544 106 55 
5545 55 89 
5546 55 106 
5547 106 54 
5548 54 55 
5549 6 7 
5550 7 90 
5551 90 6 
5552 90 7 
5553 7 107 
5554 107 90 
5555 90 107 
5556 107 108 
5557 108 90 
5558 108 91 
5559 91 90 
5560 90 108 
5561 91 108 
5562 108 92 
5563 92 91 
5564 92 108 
5565 108 109 
5566 109 92 
5567 92 109 
5568 109 110 
5569 110 92 
5570 110 93 
5571 93 92 
5572 92 110 
5573 93 110 
5574 110 94 
5575 94 93 
5576 94 110 
5577 110 111 
5578 111 94 
5579 94 111 
5580 111 112 
5581 112 94 
5582 112 95 
5583 95 94 
5584 94 112 
5585 95 112 
5586 112 96 
5587 96 95 
5588 96 112 
5589 112 113 
5590 113 96 
5591 96 113 
5592 113 114 
5593 114 96 
5594 114 97 
5595 97 96 
5596 96 114 
5597 97 114 
5598 114 98 
5599 98 97 
5600 98 114 
5601 114 115 
5602 115 98 
5603 98 115 
5604 115 116 
5605 116 98 
5606 116 99 
5607 99 98 
5608 98 116 
5609 99 116 
5610 116 100 
5611 100 99 
5612 100 116 
5613 116 117 
5614 117 100 
5615 100 117 
5616 117 118 
5617 118 100 
5618 118 101 
5619 101 100 
5620 100 118 
5621 101 118 
5622 118 102 
5623 102 101 
5624 102 118 
5625 118 119 
5626 119 102 
5627 102 119 
5628 119 120 
5629 120 102 
5630 120 103 
5631 103 102 
5632 102 120 
5633 103 120 
5634 120 104 
5635 104 103 
5636 104 120 
5637 120 121 
5638 121 104 
5639 104 121 
5640 121 122 
5641 122 104 
5642 122 105 
5643 105 104 
5644 104 122 
5645 105 122 
5646 122 106 
5647 106 105 
5648 106 122 
5649 122 123 
5650 123 106 
5651 106 123 
5652 123 53 
5653 53 106 
5654 53 54 
5655 54 106 
5656 106 53 
5657 7 8 
5658 8 124 
5659 124 7 
5660 124 107 
5661 107 7 
5662 7 124 
5663 107 124 
5664 124 108 
5665 108 107 
5666 108 124 
5667 124 125 
5668 125 108 
5669 108 125 
5670 125 126 
5671 126 108 
5672 126 109 
5673 109 108 
5674 108 126 
5675 109 126 
5676 126 110 
5677 110 109 
5678 110 126 
5679 126 127 
5680 127 110 
5681 110 127 
5682 127 128 
5683 128 110 
5684 128 111 
5685 111 110 
5686 110 128 
5687 111 128 
5688 128 112 
5689 112 111 
5690 112 128 
5691 128 129 
5692 129 112 
5693 112 129 
5694 129 130 
5695 130 112 
5696 130 113 
5697 113 112 
5698 112 130 
5699 113 130 
5700 130 114 
5701 114 113 
5702 114 130 
5703 130 131 
5704 131 114 
5705 114 131 
5706 131 132 
5707 132 114 
5708 132 115 
5709 115 114 
5710 114 132 
5711 115 132 
5712 132 116 
5713 116 115 
5714 116 132 
5715 132 133 
5716 133 116 
5717 116 133 
5718 133 134 
5719 134 116 
5720 134 117 
5721 117 116 
5722 116 134 
5723 117 134 
5724 134 118 
5725 118 117 
5726 118 134 
5727 134 135 
5728 135 118 
5729 118 135 
5730 135 136 
5731 136 118 
5732 136 119 
5733 119 118 
5734 118 136 
5735 119 136 
5736 136 120 
5737 120 119 
5738 120 136 
5739 136 137 
5740 137 120 
5741 120 137 
5742 137 138 
5743 138 120 
5744 138 121 
5745 121 120 
5746 120 138 
5747 121 138 
5748 138 122 
5749 122 121 
5750 122 138 
5751 138 139 
5752 139 122 
5753 122 139 
5754 139 140 
5755 140 122 
5756 140 123 
5757 123 122 
5758 122 140 
5759 123 140 
5760 140 53 
5761 53 123 
5762 53 140 
5763 140 52 
5764 52 53 
5765 8 9 
5766 9 124 
5767 124 8 
5768 124 9 
5769 9 141 
5770 141 124 
5771 124 141 
5772 141 142 
5773 142 124 
5774 142 125 
5775 125 124 
5776 124 142 
5777 125 142 
5778 142 126 
5779 126 125 
5780 126 142 
5781 142 143 
5782 143 126 
5783 126 143 
5784 143 144 
5785 144 126 
5786 144 127 
5787 127 126 
5788 126 144 
5789 127 144 
5790 144 128 
5791 128 127 
5792 128 144 
5793 144 145 
5794 145 128 
5795 128 145 
5796 145 146 
5797 146 128 
5798 146 129 
5799 129 128 
5800 128 146 
5801 129 146 
5802 146 130 
5803 130 129 
5804 130 146 
5805 146 147 
5806 147 130 
5807 130 147 
5808 147 148 
5809 148 130 
5810 148 131 
5811 131 130 
5812 130 148 
5813 131 148 
5814 148 132 
5815 132 131 
5816 132 148 
5817 148 149 
5818 149 132 
5819 132 149 
5820 149 150 
5821 150 132 
5822 150 133 
5823 133 132 
5824 132 150 
5825 133 150 
5826 150 134 
5827 134 133 
5828 134 150 
5829 150 151 
5830 151 134 
5831 134 151 
5832 151 152 
5833 152 134 
5834 152 135 
5835 135 134 
5836 134 152 
5837 135 152 
5838 152 136 
5839 136 135 
5840 136 152 
5841 152 153 
5842 153 136 
5843 136 153 
5844 153 154 
5845 154 136 
5846 154 137 
5847 137 136 
5848 136 154 
5849 137 154 
5850 154 138 
5851 138 137 
5852 138 154 
5853 154 155 
5854 155 138 
5855 138 155 
5856 155 156 
5857 156 138 
5858 156 139 
5859 139 138 
5860 138 156 
5861 139 156 
5862 156 140 
5863 140 139 
5864 140 156 
5865 156 157 
5866 157 140 
5867 140 157 
5868 157 51 
5869 51 140 
5870 51 52 
5871 52 140 
5872 140 51 
5873 9 10 
5874 10 158 
5875 158 9 
5876 158 141 
5877 141 9 
5878 9 158 
5879 141 158 
5880 158 142 
5881 142 141 
5882 142 158 
5883 158 159 
5884 159 142 
5885 142 159 
5886 159 160 
5887 160 142 
5888 160 143 
5889 143 142 
5890 142 160 
5891 143 160 
5892 160 144 
5893 144 143 
5894 144 160 
5895 160 161 
5896 161 144 
5897 144 161 
5898 161 162 
5899 162 144 
5900 162 145 
5901 145 144 
5902 144 162 
5903 145 162 
5904 162 146 
5905 146 145 
5906 146 162 
5907 162 163 
5908 163 146 
5909 146 163 
5910 163 164 
5911 164 146 
5912 164 147 
5913 147 146 
5914 146 164 
5915 147 164 
5916 164 148 
5917 148 147 
5918 148 164 
5919 164 165 
5920 165 148 
5921 148 165 
5922 165 166 
5923 166 148 
5924 166 149 
5925 149 148 
5926 148 166 
5927 149 166 
5928 166 150 
5929 150 149 
5930 150 166 
5931 166 167 
5932 167 150 
5933 150 167 
5934 167 168 
5935 168 150 
5936 168 151 
5937 151 150 
5938 150 168 
5939 151 168 
5940 168 152 
5941 152 151 
5942 152 168 
5943 168 169 
5944 169 152 
5945 152 169 
5946 169 170 
5947 170 152 
5948 170 153 
5949 153 152 
5950 152 170 
5951 153 170 
5952 170 154 
5953 154 153 
5954 154 170 
5955 170 171 
5956 171 154 
5957 154 171 
5958 171 172 
5959 172 154 
5960 172 155 
5961 155 154 
5962 154 172 
5963 155 172 
5964 172 156 
5965 156 155 
5966 156 172 
5967 172 173 
5968 173 156 
5969 156 173 
5970 173 174 
5971 174 156 
5972 174 157 
5973 157 156 
5974 156 174 
5975 157 174 
5976 174 51 
5977 51 157 
5978 51 174 
5979 174 50 
5980 50 51 
5981 10 11 
5982 11 158 
5983 158 10 
5984 158 11 
5985 11 175 
5986 175 158 
5987 158 175 
5988 175 176 
5989 176 158 
5990 176 159 
5991 159 158 
5992 158 176 
5993 159 176 
5994 176 160 
5995 160 159 
5996 160 176 
5997 176 177 
5998 177 160 
5999 160 177 
6000 177 178 
6001 178 160 
6002 178 161 
6003 161 160 
6004 160 178 
6005 161 178 
6006 178 162 
6007 162 161 
6008 162 178 
6009 178 179 
6010 179 162 
6011 162 179 
6012 179 180 
6013 180 162 
6014 180 163 
6015 163 162 
6016 162 180 
6017 163 180 
6018 180 164 
6019 164 163 
6020 164 180 
6021 180 181 
6022 181 164 
6023 164 181 
6024 181 182 
6025 182 164 
6026 182 165 
6027 165 164 
6028 164 182 
6029 165 182 
6030 182 166 
6031 166 165 
6032 166 182 
6033 182 183 
6034 183 166 
6035 166 183 
6036 183 184 
6037 184 166 
6038 184 167 
6039 167 166 
6040 166 184 
6041 167 184 
6042 184 168 
6043 168 167 
6044 168 184 
6045 184 185 
6046 185 168 
6047 168 185 
6048 185 186 
6049 186 168 
6050 186 169 
6051 169 168 
6052 168 186 
6053 169 186 
6054 186 170 
6055 170 169 
6056 170 186 
6057 186 187 
6058 187 170 
6059 170 187 
6060 187 188 
6061 188 170 
6062 188 171 
6063 171 170 
6064 170 188 
6065 171 188 
6066 188 172 
6067 172 171 
6068 172 188 
6069 188 189 
6070 189 172 
6071 172 189 
6072 189 190 
6073 190 172 
6074 190 173 
6075 173 172 
6076 172 190 
6077 173 190 
6078 190 174 
6079 174 173 
6080 174 190 
6081 190 191 
6082 191 174 
6083 174 191 
6084 191 49 
6085 49 174 
6086 49 50 
6087 50 174 
6088 174 49 
6089 11 12 
6090 12 192 
6091 192 11 
6092 192 175 
6093 175 11 
6094 11 192 
6095 175 192 
6096 192 176 
6097 176 175 
6098 176 192 
6099 192 193 
6100 193 176 
6101 176 193 
6102 193 194 
6103 194 176 
6104 194 177 
6105 177 176 
6106 176 194 
6107 177 194 
6108 194 178 
6109 178 177 
6110 178 194 
6111 194 195 
6112 195 178 
6113 178 195 
6114 195 196 
6115 196 178 
6116 196 179 
6117 179 178 
6118 178 196 
6119 179 196 
6120 196 180 
6121 180 179 
6122 180 196 
6123 196 197 
6124 197 180 
6125 180 197 
6126 197 198 
6127 198 180 
6128 198 181 
6129 181 180 
6130 180 198 
6131 181 198 
6132 198 182 
6133 182 181 
6134 182 198 
6135 198 199 
6136 199 182 
6137 182 199 
6138 199 200 
6139 200 182 
6140 200 183 
6141 183 182 
6142 182 200 
6143 183 200 
6144 200 184 
6145 184 183 
6146 184 200 
6147 200 201 
6148 201 184 
6149 184 201 
6150 201 202 
6151 202 184 
6152 202 185 
6153 185 184 
6154 184 202 
6155 185 202 
6156 202 186 
6157 186 185 
6158 186 202 
6159 202 203 
6160 203 186 
6161 186 203 
6162 203 204 
6163 204 186 
6164 204 187 
6165 187 186 
6166 186 204 
6167 187 204 
6168 204 188 
6169 188 187 
6170 188 204 
6171 204 205 
6172 205 188 
6173 188 205 
6174 205 206 
6175 206 188 
6176 206 189 
6177 189 188 
6178 188 206 
6179 189 206 
6180 206 190 
6181 190 189 
6182 190 206 
6183 206 207 
6184 207 190 
6185 190 207 
6186 207 208 
6187 208 190 
6188 208 191 
6189 191 190 
6190 190 208 
6191 191 208 
6192 208 49 
6193 49 191 
6194 49 208 
6195 208 48 
6196 48 49 
6197 12 13 
6198 13 192 
6199 192 12 
6200 192 13 
6201 13 209 
6202 209 192 
6203 192 209 
6204 209 210 
6205 210 192 
6206 210 193 
6207 193 192 
6208 192 210 
6209 193 210 
6210 210 194 
6211 194 193 
6212 194 210 
6213 210 211 
6214 211 194 
6215 194 211 
6216 211 212 
6217 212 194 
6218 212 195 
6219 195 194 
6220 194 212 
6221 195 212 
6222 212 196 
6223 196 195 
6224 196 212 
6225 212 213 
6226 213 196 
6227 196 213 
6228 213 214 
6229 214 196 
6230 214 197 
6231 197 196 
6232 196 214 
6233 197 214 
6234 214 198 
6235 198 197 
6236 198 214 
6237 214 215 
6238 215 198 
6239 198 215 
6240 215 216 
6241 216 198 
6242 216 199 
6243 199 198 
6244 198 216 
6245 199 216 
6246 216 200 
6247 200 199 
6248 200 216 
6249 216 217 
6250 217 200 
6251 200 217 
6252 217 218 
6253 218 200 
6254 218 201 
6255 201 200 
6256 200 218 
6257 201 218 
6258 218 202 
6259 202 201 
6260 202 218 
6261 218 219 
6262 219 202 
6263 202 219 
6264 219 220 
6265 220 202 
6266 220 203 
6267 203 202 
6268 202 220 
6269 203 220 
6270 220 204 
6271 204 203 
6272 204 220 
6273 220 221 
6274 221 204 
6275 204 221 
6276 221 222 
6277 222 204 
6278 222 205 
6279 205 204 
6280 204 222 
6281 205 222 
6282 222 206 
6283 206 205 
6284 206 222 
6285 222 223 
6286 223 206 
6287 206 223 
6288 223 224 
6289 224 206 
6290 224 207 
6291 207 206 
6292 206 224 
6293 207 224 
6294 224 208 
6295 208 207 
6296 208 224 
6297 224 225 
6298 225 208 
6299 208 225 
6300 225 47 
6301 47 208 
6302 47 48 
6303 48 208 
6304 208 47 
6305 13 14 
6306 14 226 
6307 226 13 
6308 226 209 
6309 209 13 
6310 13 226 
6311 209 226 
6312 226 210 
6313 210 209 
6314 210 226 
6315 226 227 
6316 227 210 
6317 210 227 
6318 227 228 
6319 228 210 
6320 228 211 
6321 211 210 
6322 210 228 
6323 211 228 
6324 228 212 
6325 212 211 
6326 212 228 
6327 228 229 
6328 229 212 
6329 212 229 
6330 229 230 
6331 230 212 
6332 230 213 
6333 213 212 
6334 212 230 
6335 213 230 
6336 230 214 
6337 214 213 
6338 214 230 
6339 230 231 
6340 231 214 
6341 214 231 
6342 231 232 
6343 232 214 
6344 232 215 
6345 215 214 
6346 214 232 
6347 215 232 
6348 232 216 
6349 216 215 
6350 216 232 
6351 232 233 
6352 233 216 
6353 216 233 
6354 233 234 
6355 234 216 
6356 234 217 
6357 217 216 
6358 216 234 
6359 217 234 
6360 234 218 
6361 218 217 
6362 218 234 
6363 234 235 
6364 235 218 
6365 218 235 
6366 235 236 
6367 236 218 
6368 236 219 
6369 219 218 
6370 218 236 
6371 219 236 
6372 236 220 
6373 220 219 
6374 220 236 
6375 236 237 
6376 237 220 
6377 220 237 
6378 237 238 
6379 238 220 
6380 238 221 
6381 221 220 
6382 220 238 
6383 221 238 
6384 238 222 
6385 222 221 
6386 222 238 
6387 238 239 
6388 239 222 
6389 222 239 
6390 239 240 
6391 240 222 
6392 240 223 
6393 223 222 
6394 222 240 
6395 223 240 
6396 240 224 
6397 224 223 
6398 224 240 
6399 240 241 
6400 241 224 
6401 224 241 
6402 241 242 
6403 242 224 
6404 242 225 
6405 225 224 
6406 224 242 
6407 225 242 
6408 242 47 
6409 47 225 
6410 47 242 
6411 242 46 
6412 46 47 
6413 14 15 
6414 15 226 
6415 226 14 
6416 226 15 
6417 15 243 
6418 243 226 
6419 226 243 
6420 243 244 
6421 244 226 
6422 244 227 
6423 227 226 
6424 226 244 
6425 227 244 
6426 244 228 
6427 228 227 
6428 228 244 
6429 244 245 
6430 245 228 
6431 228 245 
6432 245 246 
6433 246 228 
6434 246 229 
6435 229 228 
6436 228 246 
6437 229 246 
6438 246 230 
6439 230 229 
6440 230 246 
6441 246 247 
6442 247 230 
6443 230 247 
6444 247 248 
6445 248 230 
6446 248 231 
6447 231 230 
6448 230 248 
6449 231 248 
6450 248 232 
6451 232 231 
6452 232 248 
6453 248 249 
6454 249 232 
6455 232 249 
6456 249 250 
6457 250 232 
6458 250 233 
6459 233 232 
6460 232 250 
6461 233 250 
6462 250 234 
6463 234 233 
6464 234 250 
6465 250 251 
6466 251 234 
6467 234 251 
6468 251 252 
6469 252 234 
6470 252 235 
6471 235 234 
6472 234 252 
6473 235 252 
6474 252 236 
6475 236 235 
6476 236 252 
6477 252 253 
6478 253 236 
6479 236 253 
6480 253 254 
6481 254 236 
6482 254 237 
6483 237 236 
6484 236 254 
6485 237 254 
6486 254 238 
6487 238 237 
6488 238 254 
6489 254 255 
6490 255 238 
6491 238 255 
6492 255 256 
6493 256 238 
6494 256 239 
6495 239 238 
6496 238 256 
6497 239 256 
6498 256 240 
6499 240 239 
6500 240 256 
6501 256 257 
6502 257 240 
6503 240 257 
6504 257 258 
6505 258 240 
6506 258 241 
6507 241 240 
6508 240 258 
6509 241 258 
6510 258 242 
6511 242 241 
6512 242 258 
6513 258 259 
6514 259 242 
6515 242 259 
6516 259 45 
6517 45 242 
6518 45 46 
6519 46 242 
6520 242 45 
6521 15 16 
6522 16 260 
6523 260 15 
6524 260 243 
6525 243 15 
6526 15 260 
6527 243 260 
6528 260 244 
6529 244 243 
6530 244 260 
6531 260 261 
6532 261 244 
6533 244 261 
6534 261 262 
6535 262 244 
6536 262 245 
6537 245 244 
6538 244 262 
6539 245 262 
6540 262 246 
6541 246 245 
6542 246 262 
6543 262 263 
6544 263 246 
6545 246 263 
6546 263 264 
6547 264 246 
6548 264 247 
6549 247 246 
6550 246 264 
6551 247 264 
6552 264 248 
6553 248 247 
6554 248 264 
6555 264 265 
6556 265 248 
6557 248 265 
6558 265 266 
6559 266 248 
6560 266 249 
6561 249 248 
6562 248 266 
6563 249 266 
6564 266 250 
6565 250 249 
6566 250 266 
6567 266 267 
6568 267 250 
6569 250 267 
6570 267 268 
6571 268 250 
6572 268 251 
6573 251 250 
6574 250 268 
6575 251 268 
6576 268 252 
6577 252 251 
6578 252 268 
6579 268 269 
6580 269 252 
6581 252 269 
6582 269 270 
6583 270 252 
6584 270 253 
6585 253 252 
6586 252 270 
6587 253 270 
6588 270 254 
6589 254 253 
6590 254 270 
6591 270 271 
6592 271 254 
6593 254 271 
6594 271 272 
6595 272 254 
6596 272 255 
6597 255 254 
6598 254 272 
6599 255 272 
6600 272 256 
6601 256 255 
6602 256 272 
6603 272 273 
6604 273 256 
6605 256 273 
6606 273 274 
6607 274 256 
6608 274 257 
6609 257 256 
6610 256 274 
6611 257 274 
6612 274 258 
6613 258 257 
6614 258 274 
6615 274 275 
6616 275 258 
6617 258 275 
6618 275 276 
6619 276 258 
6620 276 259 
6621 259 258 
6622 258 276 
6623 259 276 
6624 276 45 
6625 45 259 
6626 45 276 
6627 276 44 
6628 44 45 
6629 16 17 
6630 17 260 
6631 260 16 
6632 260 17 
6633 17 277 
6634 277 260 
6635 260 277 
6636 277 278 
6637 278 260 
6638 278 261 
6639 261 260 
6640 260 278 
6641 261 278 
6642 278 262 
6643 262 261 
6644 262 278 
6645 278 279 
6646 279 262 
6647 262 279 
6648 279 280 
6649 280 262 
6650 280 263 
6651 263 262 
6652 262 280 
6653 263 280 
6654 280 264 
6655 264 263 
6656 264 280 
6657 280 281 
6658 281 264 
6659 264 281 
6660 281 282 
6661 282 264 
6662 282 265 
6663 265 264 
6664 264 282 
6665 265 282 
6666 282 266 
6667 266 265 
6668 266 282 
6669 282 283 
6670 283 266 
6671 266 283 
6672 283 284 
6673 284 266 
6674 284 267 
6675 267 266 
6676 266 284 
6677 267 284 
6678 284 268 
6679 268 267 
6680 268 284 
6681 284 285 
6682 285 268 
6683 268 285 
6684 285 286 
6685 286 268 
6686 286 269 
6687 269 268 
6688 268 286 
6689 269 286 
6690 286 270 
6691 270 269 
6692 270 286 
6693 286 287 
6694 287 270 
6695 270 287 
6696 287 288 
6697 288 270 
6698 288 271 
6699 271 270 
6700 270 288 
6701 271 288 
6702 288 272 
6703 272 271 
6704 272 288 
6705 288 289 
6706 289 272 
6707 272 289 
6708 289 290 
6709 290 272 
6710 290 273 
6711 273 272 
6712 272 290 
6713 273 290 
6714 290 274 
6715 274 273 
6716 274 290 
6717 290 291 
6718 291 274 
6719 274 291 
6720 291 292 
6721 292 274 
6722 292 275 
6723 275 274 
6724 274 292 
6725 275 292 
6726 292 276 
6727 276 275 
6728 276 292 
6729 292 293 
6730 293 276 
6731 276 293 
6732 293 43 
6733 43 276 
6734 43 44 
6735 44 276 
6736 276 43 
6737 17 18 
6738 18 294 
6739 294 17 
6740 294 277 
6741 277 17 
6742 17 294 
6743 277 294 
6744 294 278 
6745 278 277 
6746 278 294 
6747 294 295 
6748 295 278 
6749 278 295 
6750 295 296 
6751 296 278 
6752 296 279 
6753 279 278 
6754 278 296 
6755 279 296 
6756 296 280 
6757 280 279 
6758 280 296 
6759 296 297 
6760 297 280 
6761 280 297 
6762 297 298 
6763 298 280 
6764 298 281 
6765 281 280 
6766 280 298 
6767 281 298 
6768 298 282 
6769 282 281 
6770 282 298 
6771 298 299 
6772 299 282 
6773 282 299 
6774 299 300 
6775 300 282 
6776 300 283 
6777 283 282 
6778 282 300 
6779 283 300 
6780 300 284 
6781 284 283 
6782 284 300 
6783 300 301 
6784 301 284 
6785 284 301 
6786 301 302 
6787 302 284 
6788 302 285 
6789 285 284 
6790 284 302 
6791 285 302 
6792 302 286 
6793 286 285 
6794 286 302 
6795 302 303 
6796 303 286 
6797 286 303 
6798 303 304 
6799 304 286 
6800 304 287 
6801 287 286 
6802 286 304 
6803 287 304 
6804 304 288 
6805 288 287 
6806 288 304 
6807 304 305 
6808 305 288 
6809 288 305 
6810 305 306 
6811 306 288 
6812 306 289 
6813 289 288 
6814 288 306 
6815 289 306 
6816 306 290 
6817 290 289 
6818 290 306 
6819 306 307 
6820 307 290 
6821 290 307 
6822 307 308 
6823 308 290 
6824 308 291 
6825 291 290 
6826 290 308 
6827 291 308 
6828 308 292 
6829 292 291 
6830 292 308 
6831 308 309 
6832 309 292 
6833 292 309 
6834 309 310 
6835 310 292 
6836 310 293 
6837 293 292 
6838 292 310 
6839 293 310 
6840 310 43 
6841 43 293 
6842 43 310 
6843 310 42 
6844 42 43 
6845 18 19 
6846 19 294 
6847 294 18 
6848 294 19 
6849 19 311 
6850 311 294 
6851 294 311 
6852 311 312 
6853 312 294 
6854 312 295 
6855 295 294 
6856 294 312 
6857 295 312 
6858 312 296 
6859 296 295 
6860 296 312 
6861 312 313 
6862 313 296 
6863 296 313 
6864 313 314 
6865 314 296 
6866 314 297 
6867 297 296 
6868 296 314 
6869 297 314 
6870 314 298 
6871 298 297 
6872 298 314 
6873 314 315 
6874 315 298 
6875 298 315 
6876 315 316 
6877 316 298 
6878 316 299 
6879 299 298 
6880 298 316 
6881 299 316 
6882 316 300 
6883 300 299 
6884 300 316 
6885 316 317 
6886 317 300 
6887 300 317 
6888 317 318 
6889 318 300 
6890 318 301 
6891 301 300 
6892 300 318 
6893 301 318 
6894 318 302 
6895 302 301 
6896 302 318 
6897 318 319 
6898 319 302 
6899 302 319 
6900 319 320 
6901 320 302 
6902 320 303 
6903 303 302 
6904 302 320 
6905 303 320 
6906 320 304 
6907 304 303 
6908 304 320 
6909 320 321 
6910 321 304 
6911 304 321 
6912 321 322 
6913 322 304 
6914 322 305 
6915 305 304 
6916 304 322 
6917 305 322 
6918 322 306 
6919 306 305 
6920 306 322 
6921 322 323 
6922 323 306 
6923 306 323 
6924 323 324 
6925 324 306 
6926 324 307 
6927 307 306 
6928 306 324 
6929 307 324 
6930 324 308 
6931 308 307 
6932 308 324 
6933 324 325 
6934 325 308 
6935 308 325 
6936 325 326 
6937 326 308 
6938 326 309 
6939 309 308 
6940 308 326 
6941 309 326 
6942 326 310 
6943 310 309 
6944 310 326 
6945 326 327 
6946 327 310 
6947 310 327 
6948 327 41 
6949 41 310 
6950 41 42 
6951 42 310 
6952 310 41 
6953 19 20 
6954 20 328 
6955 328 19 
6956 328 311 
6957 311 19 
6958 19 328 
6959 311 328 
6960 328 312 
6961 312 311 
6962 312 328 
6963 328 329 
6964 329 312 
6965 312 329 
6966 329 330 
6967 330 312 
6968 330 313 
6969 313 312 
6970 312 330 
6971 313 330 
6972 330 314 
6973 314 313 
6974 314 330 
6975 330 331 
6976 331 314 
6977 314 331 
6978 331 332 
6979 332 314 
6980 332 315 
6981 315 314 
6982 314 332 
6983 315 332 
6984 332 316 
6985 316 315 
6986 316 332 
6987 332 333 
6988 333 316 
6989 316 333 
6990 333 334 
6991 334 316 
6992 334 317 
6993 317 316 
6994 316 334 
6995 317 334 
6996 334 318 
6997 318 317 
6998 318 334 
6999 334 335 
7000 335 318 
7001 318 335 
7002 335 336 
7003 336 318 
7004 336 319 
7005 319 318 
7006 318 336 
7007 319 336 
7008 336 320 
7009 320 319 
7010 320 336 
7011 336 337 
7012 337 320 
7013 320 337 
7014 337 338 
7015 338 320 
7016 338 321 
7017 321 320 
7018 320 338 
7019 321 338 
7020 338 322 
7021 322 321 
7022 322 338 
7023 338 339 
7024 339 322 
7025 322 339 
7026 339 340 
7027 340 322 
7028 340 323 
7029 323 322 
7030 322 340 
7031 323 340 
7032 340 324 
7033 324 323 
7034 324 340 
7035 340 341 
7036 341 324 
7037 324 341 
7038 341 342 
7039 342 324 
7040 342 325 
7041 325 324 
7042 324 342 
7043 325 342 
7044 342 326 
7045 326 325 
7046 326 342 
7047 342 343 
7048 343 326 
7049 326 343 
7050 343 344 
7051 344 326 
7052 344 327 
7053 327 326 
7054 326 344 
7055 327 344 
7056 344 41 
7057 41 327 
7058 41 344 
7059 344 40 
7060 40 41 
7061 20 21 
7062 21 328 
7063 328 20 
7064 328 21 
7065 21 345 
7066 345 328 
7067 328 345 
7068 345 346 
7069 346 328 
7070 346 329 
7071 329 328 
7072 328 346 
7073 329 346 
7074 346 330 
7075 330 329 
7076 330 346 
7077 346 347 
7078 347 330 
7079 330 347 
7080 347 348 
7081 348 330 
7082 348 331 
7083 331 330 
7084 330 348 
7085 331 348 
7086 348 332 
7087 332 331 
7088 332 348 
7089 348 349 
7090 349 332 
7091 332 349 
7092 349 350 
7093 350 332 
7094 350 333 
7095 333 332 
7096 332 350 
7097 333 350 
7098 350 334 
7099 334 333 
7100 334 350 
7101 350 351 
7102 351 334 
7103 334 351 
7104 351 352 
7105 352 334 
7106 352 335 
7107 335 334 
7108 334 352 
7109 335 352 
7110 352 336 
7111 336 335 
7112 336 352 
7113 352 353 
7114 353 336 
7115 336 353 
7116 353 354 
7117 354 336 
7118 354 337 
7119 337 336 
7120 336 354 
7121 337 354 
7122 354 338 
7123 338 337 
7124 338 354 
7125 354 355 
7126 355 338 
7127 338 355 
7128 355 356 
7129 356 338 
7130 356 339 
7131 339 338 
7132 338 356 
7133 339 356 
7134 356 340 
7135 340 339 
7136 340 356 
7137 356 357 
7138 357 340 
7139 340 357 
7140 357 358 
7141 358 340 
7142 358 341 
7143 341 340 
7144 340 358 
7145 341 358 
7146 358 342 
7147 342 341 
7148 342 358 
7149 358 359 
7150 359 342 
7151 342 359 
7152 359 360 
7153 360 342 
7154 360 343 
7155 343 342 
7156 342 360 
7157 343 360 
7158 360 344 
7159 344 343 
7160 344 360 
7161 360 361 
7162 361 344 
7163 344 361 
7164 361 39 
7165 39 344 
7166 39 40 
7167 40 344 
7168 344 39 
7169 21 2 
7170 2 22 
7171 22 21 
7172 22 345 
7173 345 21 
7174 21 22 
7175 345 22 
7176 22 346 
7177 346 345 
7178 346 22 
7179 22 23 
7180 23 346 
7181 346 23 
7182 23 24 
7183 24 346 
7184 24 347 
7185 347 346 
7186 346 24 
7187 347 24 
7188 24 348 
7189 348 347 
7190 348 24 
7191 24 25 
7192 25 348 
7193 348 25 
7194 25 26 
7195 26 348 
7196 26 349 
7197 349 348 
7198 348 26 
7199 349 26 
7200 26 350 
7201 350 349 
7202 350 26 
7203 26 27 
7204 27 350 
7205 350 27 
7206 27 28 
7207 28 350 
7208 28 351 
7209 351 350 
7210 350 28 
7211 351 28 
7212 28 352 
7213 352 351 
7214 352 28 
7215 28 29 
7216 29 352 
7217 352 29 
7218 29 30 
7219 30 352 
7220 30 353 
7221 353 352 
7222 352 30 
7223 353 30 
7224 30 354 
7225 354 353 
7226 354 30 
7227 30 31 
7228 31 354 
7229 354 31 
7230 31 32 
7231 32 354 
7232 32 355 
7233 355 354 
7234 354 32 
7235 355 32 
7236 32 356 
7237 356 355 
7238 356 32 
7239 32 33 
7240 33 356 
7241 356 33 
7242 33 34 
7243 34 356 
7244 34 357 
7245 357 356 
7246 356 34 
7247 357 34 
7248 34 358 
7249 358 357 
7250 358 34 
7251 34 35 
7252 35 358 
7253 358 35 
7254 35 36 
7255 36 358 
7256 36 359 
7257 359 358 
7258 358 36 
7259 359 36 
7260 36 360 
7261 360 359 
7262 360 36 
7263 36 37 
7264 37 360 
7265 360 37 
7266 37 38 
7267 38 360 
7268 38 361 
7269 361 360 
7270 360 38 
7271 361 38 
7272 38 39 
7273 39 361 
7274 39 38 
7275 38 3 
7276 3 39 
2 1 2 648
73 1 5 72 
74 72 5 73 
75 72 73 74 
76 74 71 72 
77 71 74 70 
78 70 74 75 
79 70 75 76 
80 76 69 70 
81 69 76 68 
82 68 76 77 
83 68 77 78 
84 78 67 68 
85 67 78 66 
86 66 78 79 
87 66 79 80 
88 80 65 66 
89 65 80 64 
90 64 80 81 
91 64 81 82 
92 82 63 64 
93 63 82 62 
94 62 82 83 
95 62 83 84 
96 84 61 62 
97 61 84 60 
98 60 84 85 
99 60 85 86 
100 86 59 60 
101 59 86 58 
102 58 86 87 
103 58 87 88 
104 88 57 58 
105 57 88 56 
106 56 88 89 
107 56 89 55 
108 55 4 56 
109 5 6 90 
110 90 73 5 
111 73 90 74 
112 74 90 91 
113 74 91 92 
114 92 75 74 
115 75 92 76 
116 76 92 93 
117 76 93 94 
118 94 77 76 
119 77 94 78 
120 78 94 95 
121 78 95 96 
122 96 79 78 
123 79 96 80 
124 80 96 97 
125 80 97 98 
126 98 81 80 
127 81 98 82 
128 82 98 99 
129 82 99 100 
130 100 83 82 
131 83 100 84 
132 84 100 101 
133 84 101 102 
134 102 85 84 
135 85 102 86 
136 86 102 103 
137 86 103 104 
138 104 87 86 
139 87 104 88 
140 88 104 105 
141 88 105 106 
142 106 89 88 
143 89 106 55 
144 55 106 54 
145 6 7 90 
146 90 7 107 
147 90 107 108 
148 108 91 90 
149 91 108 92 
150 92 108 109 
151 92 109 110 
152 110 93 92 
153 93 110 94 
154 94 110 111 
155 94 111 112 
156 112 95 94 
157 95 112 96 
158 96 112 113 
159 96 113 114 
160 114 97 96 
161 97 114 98 
162 98 114 115 
163 98 115 116 
164 116 99 98 
165 99 116 100 
166 100 116 117 
167 100 117 118 
168 118 101 100 
169 101 118 102 
170 102 118 119 
171 102 119 120 
172 120 103 102 
173 103 120 104 
174 104 120 121 
175 104 121 122 
176 122 105 104 
177 105 122 106 
178 106 122 123 
179 106 123 53 
180 53 54 106 
181 7 8 124 
182 124 107 7 
183 107 124 108 
184 108 124 125 
185 108 125 126 
186 126 109 108 
187 109 126 110 
188 110 126 127 
189 110 127 128 
190 128 111 110 
191 111 128 112 
192 112 128 129 
193 112 129 130 
194 130 113 112 
195 113 130 114 
196 114 130 131 
197 114 131 132 
198 132 115 114 
199 115 132 116 
200 116 132 133 
201 116 133 134 
202 134 117 116 
203 117 134 118 
204 118 134 135 
205 118 135 136 
206 136 119 118 
207 119 136 120 
208 120 136 137 
209 120 137 138 
210 138 121 120 
211 121 138 122 
212 122 138 139 
213 122 139 140 
214 140 123 122 
215 123 140 53 
216 53 140 52 
217 8 9 124 
218 124 9 141 
219 124 141 142 
220 142 125 124 
221 125 142 126 
222 126 142 143 
223 126 143 144 
224 144 127 126 
225 127 144 128 
226 128 144 145 
227 128 145 146 
228 146 129 128 
229 129 146 130 
230 130 146 147 
231 130 147 148 
232 148 131 130 
233 131 148 132 
234 132 148 149 
235 132 149 150 
236 150 133 132 
237 133 150 134 
238 134 150 151 
239 134 151 152 
240 152 135 134 
241 135 152 136 
242 136 152 153 
243 136 153 154 
244 154 137 136 
245 137 154 138 
246 138 154 155 
247 138 155 156 
248 156 139 138 
249 139 156 140 
250 140 156 157 
251 140 157 51 
252 51 52 140 
253 9 10 158 
254 158 141 9 
255 141 158 142 
256 142 158 159 
257 142 159 160 
258 160 143 142 
259 143 160 144 
260 144 160 161 
261 144 161 162 
262 162 145 144 
263 145 162 146 
264 146 162 163 
265 146 163 164 
266 164 147 146 
267 147 164 148 
268 148 164 165 
269 148 165 166 
270 166 149 148 
271 149 166 150 
272 150 166 167 
273 150 167 168 
274 168 151 150 
275 151 168 152 
276 152 168 169 
277 152 169 170 
278 170 153 152 
279 153 170 154 
280 154 170 171 
281 154 171 172 
282 172 155 154 
283 155 172 156 
284 156 172 173 
285 156 173 174 
286 174 157 156 
287 157 174 51 
288 51 174 50 
289 10 11 158 
290 158 11 175 
291 158 175 176 
292 176 159 158 
293 159 176 160 
294 160 176 177 
295 160 177 178 
296 178 161 160 
297 161 178 162 
298 162 178 179 
299 162 179 180 
300 180 163 162 
301 163 180 164 
302 164 180 181 
303 164 181 182 
304 182 165 164 
305 165 182 166 
306 166 182 183 
307 166 183 184 
308 184 167 166 
309 167 184 168 
310 168 184 185 
311 168 185 186 
312 186 169 168 
313 169 186 170 
314 170 186 187 
315 170 187 188 
316 188 171 170 
317 171 188 172 
318 172 188 189 
319 172 189 190 
320 190 173 172 
321 173 190 174 
322 174 190 191 
323 174 191 49 
324 49 50 174 
325 11 12 192 
326 192 175 11 
327 175 192 176 
328 176 192 193 
329 176 193 194 
330 194 177 176 
331 177 194 178 
332 178 194 195 
333 178 195 196 
334 196 179 178 
335 179 196 180 
336 180 196 197 
337 180 197 198 
338 198 181 180 
339 181 198 182 
340 182 198 199 
341 182 199 200 
342 200 183 182 
343 183 200 184 
344 184 200 201 
345 184 201 202 
346 202 185 184 
347 185 202 186 
348 186 202 203 
349 186 203 204 
350 204 187 186 
351 187 204 188 
352 188 204 205 
353 188 205 206 
354 206 189 188 
355 189 206 190 
356 190 206 207 
357 190 207 208 
358 208 191 190 
359 191 208 49 
360 49 208 48 
361 12 13 192 
362 192 13 209 
363 192 209 210 
364 210 193 192 
365 193 210 194 
366 194 210 211 
367 194 211 212 
368 212 195 194 
369 195 212 196 
370 196 212 213 
371 196 213 214 
372 214 197 196 
373 197 214 198 
374 198 214 215 
375 198 215 216 
376 216 199 198 
377 199 216 200 
378 200 216 217 
379 200 217 218 
380 218 201 200 
381 201 218 202 
382 202 218 219 
383 202 219 220 
384 220 203 202 
385 203 220 204 
386 204 220 221 
387 204 221 222 
388 222 205 204 
389 205 222 206 
390 206 222 223 
391 206 223 224 
392 224 207 206 
393 207 224 208 
394 208 224 225 
395 208 225 47 
396 47 48 208 
397 13 14 226 
398 226 209 13 
399 209 226 210 
400 210 226 227 
401 210 227 228 
402 228 211 210 
403 211 228 212 
404 212 228 229 
405 212 229 230 
406 230 213 212 
407 213 230 214 
408 214 230 231 
409 214 231 232 
410 232 215 214 
411 215 232 216 
412 216 232 233 
413 216 233 234 
414 234 217 216 
415 217 234 218 
416 218 234 235 
417 218 235 236 
418 236 219 218 
419 219 236 220 
420 220 236 237 
421 220 237 238 
422 238 221 220 
423 221 238 222 
424 222 238 239 
425 222 239 240 
426 240 223 222 
427 223 240 224 
428 224 240 241 
429 224 241 242 
430 242 225 224 
431 225 242 47 
432 47 242 46 
433 14 15 226 
434 226 15 243 
435 226 243 244 
436 244 227 226 
437 227 244 228 
438 228 244 245 
439 228 245 246 
440 246 229 228 
441 229 246 230 
442 230 246 247 
443 230 247 248 
444 248 231 230 
445 231 248 232 
446 232 248 249 
447 232 249 250 
448 250 233 232 
449 233 250 234 
450 234 250 251 
451 234 251 252 
452 252 235 234 
453 235 252 236 
454 236 252 253 
455 236 253 254 
456 254 237 236 
457 237 254 238 
458 238 254 255 
459 238 255 256 
460 256 239 238 
461 239 256 240 
462 240 256 257 
463 240 257 258 
464 258 241 240 
465 241 258 242 
466 242 258 259 
467 242 259 45 
468 45 46 242 
469 15 16 260 
470 260 243 15 
471 243 260 244 
472 244 260 261 
473 244 261 262 
474 262 245 244 
475 245 262 246 
476 246 262 263 
477 246 263 264 
478 264 247 246 
479 247 264 248 
480 248 264 265 
481 248 265 266 
482 266 249 248 
483 249 266 250 
484 250 266 267 
485 250 267 268 
486 268 251 250 
487 251 268 252 
488 252 268 269 
489 252 269 270 
490 270 253 252 
491 253 270 254 
492 254 270 271 
493 254 271 272 
494 272 255 254 
495 255 272 256 
496 256 272 273 
497 256 273 274 
498 274 257 256 
499 257 274 258 
500 258 274 275 
501 258 275 276 
502 276 259 258 
503 259 276 45 
504 45 276 44 
505 16 17 260 
506 260 17 277 
507 260 277 278 
508 278 261 260 
509 261 278 262 
510 262 278 279 
511 262 279 280 
512 280 263 262 
513 263 280 264 
514 264 280 281 
515 264 281 282 
516 282 265 264 
517 265 282 266 
518 266 282 283 
519 266 283 284 
520 284 267 266 
521 267 284 268 
522 268 284 285 
523 268 285 286 
524 286 269 268 
525 269 286 270 
526 270 286 287 
527 270 287 288 
528 288 271 270 
529 271 288 272 
530 272 288 289 
531 272 289 290 
532 290 273 272 
533 273 290 274 
534 274 290 291 
535 274 291 292 
536 292 275 274 
537 275 292 276 
538 276 292 293 
539 276 293 43 
540 43 44 276 
541 17 18 294 
542 294 277 17 
543 277 294 278 
544 278 294 295 
545 278 295 296 
546 296 279 278 
547 279 296 280 
548 280 296 297 
549 280 297 298 
550 298 281 280 
551 281 298 282 
552 282 298 299 
553 282 299 300 
554 300 283 282 
555 283 300 284 
556 284 300 301 
557 284 301 302 
558 302 285 284 
559 285 302 286 
560 286 302 303 
561 286 303 304 
562 304 287 286 
563 287 304 288 
564 288 304 305 
565 288 305 306 
566 306 289 288 
567 289 306 290 
568 290 306 307 
569 290 307 308 
570 308 291 290 
571 291 308 292 
572 292 308 309 
573 292 309 310 
574 310 293 292 
575 293 310 43 
576 43 310 42 
577 18 19 294 
578 294 19 311 
579 294 311 312 
580 312 295 294 
581 295 312 296 
582 296 312 313 
583 296 313 314 
584 314 297 296 
585 297 314 298 
586 298 314 315 
587 298 315 316 
588 316 299 298 
589 299 316 300 
590 300 316 317 
591 300 317 318 
592 318 301 300 
593 301 318 302 
594 302 318 319 
595 302 319 320 
596 320 303 302 
597 303 320 304 
598 304 320 321 
599 304 321 322 
600 322 305 304 
601 305 322 306 
602 306 322 323 
603 306 323 324 
604 324 307 306 
605 307 324 308 
606 308 324 325 
607 308 325 326 
608 326 309 308 
609 309 326 310 
610 310 326 327 
611 310 327 41 
612 41 42 310 
613 19 20 328 
614 328 311 19 
615 311 328 312 
616 312 328 329 
617 312 329 330 
618 330 313 312 
619 313 330 314 
620 314 330 331 
621 314 331 332 
622 332 315 314 
623 315 332 316 
624 316 332 333 
625 316 333 334 
626 334 317 316 
627 317 334 318 
628 318 334 335 
629 318 335 336 
630 336 319 318 
631 319 336 320 
632 320 336 337 
633 320 337 338 
634 338 321 320 
635 321 338 322 
636 322 338 339 
637 322 339 340 
638 340 323 322 
639 323 340 324 
640 324 340 341 
641 324 341 342 
642 342 325 324 
643 325 342 326 
644 326 342 343 
645 326 343 344 
646 344 327 326 
647 327 344 41 
648 41 344 40 
649 20 21 328 
650 328 21 345 
651 328 345 346 
652 346 329 328 
653 329 346 330 
654 330 346 347 
655 330 347 348 
656 348 331 330 
657 331 348 332 
658 332 348 349 
659 332 349 350 
660 350 333 332 
661 333 350 334 
662 334 350 351 
663 334 351 352 
664 352 335 334 
665 335 352 336 
666 336 352 353 
667 336 353 354 
668 354 337 336 
669 337 354 338 
670 338 354 355 
671 338 355 356 
672 356 339 338 
673 339 356 340 
674 340 356 357 
675 340 357 358 
676 358 341 340 
677 341 358 342 
678 342 358 359 
679 342 359 360 
680 360 343 342 
681 343 360 344 
682 344 360 361 
683 344 361 39 
684 39 40 344 
685 21 2 22 
686 22 345 21 
687 345 22 346 
688 346 22 23 
689 346 23 24 
690 24 347 346 
691 347 24 348 
692 348 24 25 
693 348 25 26 
694 26 349 348 
695 349 26 350 
696 350 26 27 
697 350 27 28 
698 28 351 350 
699 351 28 352 
700 352 28 29 
701 352 29 30 
702 30 353 352 
703 353 30 354 
704 354 30 31 
705 354 31 32 
706 32 355 354 
707 355 32 356 
708 356 32 33 
709 356 33 34 
710 34 357 356 
711 357 34 358 
712 358 34 35 
713 358 35 36 
714 36 359 358 
715 359 36 360 
716 360 36 37 
717 360 37 38 
718 38 361 360 
719 361 38 39 
720 39 38 3 
$EndElements
