$MeshFormat
4.1 0 8
$EndMeshFormat
$PhysicalNames
6
1 1 "Γ¹"
1 2 "Γ²"
1 3 "Γ³"
1 4 "Γ⁴"
1 6 "Γ"
2 5 "Ω"
$EndPhysicalNames
$Entities
4 5 1 0
1 0 0 0 0 
2 1 0 0 0 
3 1.707106781186547 0.7071067811865476 0 0 
4 0.7071067811865475 0.7071067811865476 0 0 
1 0 0 0 1 0 0 1 1 2 1 -2 
2 1 0 0 1.707106781186547 0.7071067811865476 0 1 2 2 2 -3 
3 0.7071067811865475 0.7071067811865476 0 1.707106781186547 0.7071067811865476 0 1 3 2 3 -4 
4 0 0 0 0.7071067811865475 0.7071067811865476 0 1 4 2 4 -1 
5 0 0 0 1.707106781186547 0.7071067811865476 0 1 6 0 
1 0 0 0 1.707106781186547 0.7071067811865476 0 1 5 4 1 2 3 4 
$EndEntities
$Nodes
10 256 1 256
0 1 0 1
1
0 0 0
0 2 0 1
2
1 0 0
0 3 0 1
3
1.707106781186547 0.7071067811865476 0
0 4 0 1
4
0.7071067811865475 0.7071067811865476 0
1 1 0 14
5
6
7
8
9
10
11
12
13
14
15
16
17
18
0.06666666666653248 0 0
0.1333333333330848 0 0
0.1999999999995569 0 0
0.266666666666029 0 0
0.3333333333325011 0 0
0.3999999999989731 0 0
0.4666666666654452 0 0
0.5333333333321025 0 0
0.599999999998945 0 0
0.6666666666657876 0 0
0.73333333333263 0 0
0.7999999999994725 0 0
0.8666666666663151 0 0
0.9333333333331575 0 0
1 2 0 14
19
20
21
22
23
24
25
26
27
28
29
30
31
32
1.04714045207904 0.04714045207903991 0
1.094280904158067 0.09428090415806656 0
1.141421356237025 0.1414213562370251 0
1.18856180831603 0.1885618083160296 0
1.235702260395008 0.2357022603950083 0
1.282842712474012 0.2828427124740115 0
1.329983164552933 0.3299831645529335 0
1.377123616631996 0.377123616631996 0
1.424264068711202 0.4242640687112024 0
1.471404520790418 0.4714045207904183 0
1.518544972869657 0.5185449728696572 0
1.56568542494891 0.5656854249489102 0
1.612825877028164 0.6128258770281645 0
1.659966329107398 0.6599663291073986 0
1 3 0 14
33
34
35
36
37
38
39
40
41
42
43
44
45
46
1.640440114520098 0.7071067811865476 0
1.573773447853647 0.7071067811865476 0
1.507106781187197 0.7071067811865476 0
1.440440114520747 0.7071067811865476 0
1.373773447854298 0.7071067811865476 0
1.307106781187848 0.7071067811865476 0
1.240440114521398 0.7071067811865476 0
1.173773447854948 0.7071067811865476 0
1.107106781188498 0.7071067811865476 0
1.040440114522048 0.7071067811865476 0
0.9737734478553064 0.7071067811865476 0
0.9071067811881166 0.7071067811865476 0
0.8404401145209269 0.7071067811865476 0
0.773773447853737 0.7071067811865476 0
1 4 0 14
47
48
49
50
51
52
53
54
55
56
57
58
59
60
0.6599663291074978 0.6599663291074979 0
0.6128258770284813 0.6128258770284815 0
0.5656854249495676 0.5656854249495678 0
0.5185449728706539 0.5185449728706539 0
0.471404520791704 0.4714045207917041 0
0.4242640687127159 0.424264068712716 0
0.3771236166337502 0.3771236166337502 0
0.3299831645546325 0.3299831645546326 0
0.2828427124753944 0.2828427124753945 0
0.2357022603961503 0.2357022603961503 0
0.1885618083169174 0.1885618083169174 0
0.1414213562377044 0.1414213562377044 0
0.09428090415846957 0.09428090415846968 0
0.04714045207921314 0.04714045207921314 0
1 5 0 0
2 1 0 196
61
62
63
64
65
66
67
68
69
70
71
72
73
74
75
76
77
78
79
80
81
82
83
84
85
86
87
88
89
90
91
92
93
94
95
96
97
98
99
100
101
102
103
104
105
106
107
108
109
110
111
112
113
114
115
116
117
118
119
120
121
122
123
124
125
126
127
128
129
130
131
132
133
134
135
136
137
138
139
140
141
142
143
144
145
146
147
148
149
150
151
152
153
154
155
156
157
158
159
160
161
162
163
164
165
166
167
168
169
170
171
172
173
174
175
176
177
178
179
180
181
182
183
184
185
186
187
188
189
190
191
192
193
194
195
196
197
198
199
200
201
202
203
204
205
206
207
208
209
210
211
212
213
214
215
216
217
218
219
220
221
222
223
224
225
226
227
228
229
230
231
232
233
234
235
236
237
238
239
240
241
242
243
244
245
246
247
248
249
250
251
252
253
254
255
256
0.1138071187457779 0.0471404520792016 0
0.1609475708250628 0.09428090415844281 0
0.208088022904323 0.1414213562376591 0
0.2552284749835659 0.1885618083168582 0
0.3023689270628256 0.2357022603960742 0
0.3495093791420975 0.2828427124753023 0
0.3966498312213582 0.3299831645545193 0
0.4437902833005161 0.3771236166336332 0
0.4909307353795416 0.4242640687126151 0
0.538071187458589 0.4714045207916184 0
0.5852116395376018 0.5185449728705874 0
0.6323520916165818 0.5656854249495239 0
0.6794925436955623 0.6128258770284604 0
0.7266329957746369 0.6599663291074914 0
0.1804737854123611 0.04714045207919004 0
0.2276142374916733 0.09428090415841592 0
0.2747546895709576 0.1414213562376138 0
0.3218951416502291 0.188561808316799 0
0.3690355937295144 0.235702260395998 0
0.4161760458088127 0.2828427124752101 0
0.463316497888095 0.329983164554406 0
0.5104569499672915 0.3771236166335164 0
0.5575974020463756 0.4242640687125141 0
0.6047378541254805 0.4714045207915326 0
0.6518783062045552 0.5185449728705209 0
0.6990187582836005 0.5656854249494799 0
0.7461592103626458 0.612825877028439 0
0.7932996624417776 0.6599663291074847 0
0.2471404520788695 0.0471404520791785 0
0.2942809041582142 0.09428090415838904 0
0.3414213562375279 0.1414213562375685 0
0.3885618083168333 0.1885618083167399 0
0.4357022603961496 0.2357022603959219 0
0.4828427124754796 0.2828427124751178 0
0.5299831645547886 0.3299831645542927 0
0.5771236166340297 0.3771236166333994 0
0.6242640687131775 0.4242640687124133 0
0.6714045207923454 0.4714045207914468 0
0.7185449728714872 0.5185449728704546 0
0.7656854249506027 0.5656854249494361 0
0.8128258770297188 0.6128258770284182 0
0.859966329108913 0.659966329107478 0
0.3138071187453779 0.04714045207916694 0
0.3609475708247551 0.09428090415836217 0
0.4080880229040981 0.1414213562375232 0
0.4552284749834375 0.1885618083166806 0
0.5023689270627849 0.2357022603958458 0
0.5495093791421467 0.2828427124750257 0
0.5966498312214823 0.3299831645541795 0
0.6437902833007674 0.3771236166332824 0
0.6909307353799792 0.4242640687123124 0
0.7380711874592101 0.4714045207913612 0
0.785211639538419 0.518544972870388 0
0.8323520916176053 0.5656854249493923 0
0.8794925436967918 0.6128258770283969 0
0.9266329957760482 0.6599663291074713 0
0.3804737854118565 0.0471404520791554 0
0.4276142374912363 0.09428090415833532 0
0.4747546895705789 0.1414213562374779 0
0.5218951416499223 0.1885618083166214 0
0.5690355937292706 0.2357022603957697 0
0.6161760458086344 0.2828427124749335 0
0.663316497887967 0.3299831645540663 0
0.7104569499672662 0.3771236166331654 0
0.7575974020465122 0.4242640687122116 0
0.8047378541257761 0.4714045207912755 0
0.8518783062050225 0.5185449728703216 0
0.8990187582842493 0.5656854249493486 0
0.9461592103634762 0.6128258770283757 0
0.9932996624427655 0.6599663291074647 0
0.4471404520783155 0.04714045207914384 0
0.4942809041576785 0.09428090415830842 0
0.5414213562370011 0.1414213562374327 0
0.5885618083163295 0.1885618083165623 0
0.6357022603956592 0.2357022603956935 0
0.6828427124750054 0.2828427124748414 0
0.7299831645543154 0.329983164553953 0
0.7771236166336095 0.3771236166330486 0
0.8242640687128699 0.4242640687121105 0
0.8714045207921479 0.4714045207911898 0
0.9185449728714119 0.5185449728702551 0
0.9656854249506598 0.5656854249493046 0
1.012825877029908 0.6128258770283546 0
1.05996632910921 0.659966329107458 0
0.5138071187447745 0.0471404520791323 0
0.5609475708241208 0.09428090415828155 0
0.6080880229034236 0.1414213562373874 0
0.6552284749827364 0.1885618083165031 0
0.7023689270620475 0.2357022603956174 0
0.7495093791413762 0.2828427124747491 0
0.796649831220664 0.3299831645538397 0
0.8437902832999526 0.3771236166329315 0
0.8909307353792281 0.4242640687120097 0
0.9380711874585194 0.4714045207911041 0
0.985211639537801 0.5185449728701886 0
1.03235209161707 0.5656854249492609 0
1.07949254369634 0.6128258770283335 0
1.126632995775655 0.6599663291074516 0
0.5804737854114066 0.04714045207912075 0
0.6276142374907235 0.09428090415825469 0
0.6747546895699941 0.1414213562373421 0
0.7218951416492791 0.1885618083164439 0
0.7690355937285596 0.2357022603955412 0
0.8161760458078584 0.2828427124746569 0
0.8633164978871111 0.3299831645537264 0
0.9104569499663825 0.3771236166328147 0
0.9575974020456599 0.4242640687119087 0
1.004737854124953 0.4714045207910184 0
1.05187830620424 0.5185449728701225 0
1.099018758283517 0.5656854249492171 0
1.146159210362796 0.6128258770283124 0
1.193299662442112 0.6599663291074449 0
0.6471404520782111 0.0471404520791092 0
0.6942809041574867 0.09428090415822779 0
0.741421356236713 0.1414213562372968 0
0.7885618083159577 0.1885618083163847 0
0.8357022603951952 0.2357022603954651 0
0.8828427124744518 0.2828427124745647 0
0.9299831645536571 0.3299831645536131 0
0.9771236166328986 0.3771236166326977 0
1.024264068712166 0.4242640687118078 0
1.071404520791448 0.4714045207909326 0
1.118544972870728 0.5185449728700559 0
1.165685424950002 0.5656854249491732 0
1.212825877029277 0.6128258770282911 0
1.259966329108581 0.6599663291074382 0
0.713807118745016 0.04714045207909766 0
0.7609475708242502 0.0942809041582009 0
0.8080880229034315 0.1414213562372515 0
0.8552284749826365 0.1885618083163255 0
0.9023689270618308 0.235702260395389 0
0.9495093791410452 0.2828427124744726 0
0.996649831220203 0.3299831645534998 0
1.043790283299415 0.3771236166325807 0
1.090930735378672 0.424264068711707 0
1.138071187457943 0.4714045207908469 0
1.185211639537216 0.5185449728699895 0
1.232352091616487 0.5656854249491291 0
1.279492543695758 0.6128258770282702 0
1.326632995775051 0.6599663291074318 0
0.7804737854118207 0.04714045207908611 0
0.8276142374910135 0.09428090415817404 0
0.8747546895701501 0.1414213562372063 0
0.9218951416493149 0.1885618083162663 0
0.969035593728466 0.2357022603953128 0
1.016176045807638 0.2828427124743803 0
1.063316497886749 0.3299831645533866 0
1.110456949965931 0.3771236166324637 0
1.157597402045178 0.424264068711606 0
1.204737854124437 0.4714045207907612 0
1.251878306203704 0.518544972869923 0
1.299018758282971 0.5656854249490855 0
1.346159210362239 0.6128258770282489 0
1.39329966244152 0.6599663291074251 0
0.8471404520786258 0.04714045207907456 0
0.8942809041577765 0.09428090415814717 0
0.941421356236869 0.141421356237161 0
0.9885618083159936 0.1885618083162072 0
1.035702260395102 0.2357022603952367 0
1.082842712474231 0.2828427124742882 0
1.129983164553295 0.3299831645532733 0
1.177123616632447 0.3771236166323468 0
1.224264068711684 0.4242640687115052 0
1.271404520790933 0.4714045207906755 0
1.318544972870193 0.5185449728698565 0
1.365685424949456 0.5656854249490417 0
1.41282587702872 0.6128258770282278 0
1.45996632910799 0.6599663291074185 0
0.9138071187454302 0.04714045207906301 0
0.9609475708245399 0.09428090415812031 0
1.008088022903587 0.1414213562371157 0
1.055228474982672 0.188561808316148 0
1.102368927061737 0.2357022603951606 0
1.149509379140825 0.2828427124741959 0
1.196649831219841 0.3299831645531601 0
1.243790283298963 0.3771236166322299 0
1.29093073537819 0.4242640687114041 0
1.338071187457428 0.4714045207905898 0
1.385211639536681 0.5185449728697901 0
1.432352091615941 0.5656854249489978 0
1.479492543695202 0.6128258770282068 0
1.526632995774459 0.6599663291074118 0
0.9804737854122351 0.04714045207905146 0
1.027614237491303 0.09428090415809344 0
1.074754689570306 0.1414213562370704 0
1.121895141649351 0.1885618083160888 0
1.169035593728373 0.2357022603950844 0
1.216176045807418 0.2828427124741038 0
1.263316497886388 0.3299831645530469 0
1.310456949965479 0.3771236166321128 0
1.357597402044696 0.4242640687113033 0
1.404737854123923 0.4714045207905042 0
1.451878306203169 0.5185449728697237 0
1.499018758282425 0.5656854249489539 0
1.546159210361683 0.6128258770281855 0
1.593299662440929 0.659966329107405 0
$EndNodes
$Elements
6 1860 1 5074
1 1 1 15
1 1 5 
2 5 6 
3 6 7 
4 7 8 
5 8 9 
6 9 10 
7 10 11 
8 11 12 
9 12 13 
10 13 14 
11 14 15 
12 15 16 
13 16 17 
14 17 18 
15 18 2 
1 2 1 15
16 2 19 
17 19 20 
18 20 21 
19 21 22 
20 22 23 
21 23 24 
22 24 25 
23 25 26 
24 26 27 
25 27 28 
26 28 29 
27 29 30 
28 30 31 
29 31 32 
30 32 3 
1 3 1 15
31 3 33 
32 33 34 
33 34 35 
34 35 36 
35 36 37 
36 37 38 
37 38 39 
38 39 40 
39 40 41 
40 41 42 
41 42 43 
42 43 44 
43 44 45 
44 45 46 
45 46 4 
1 4 1 15
46 4 47 
47 47 48 
48 48 49 
49 49 50 
50 50 51 
51 51 52 
52 52 53 
53 53 54 
54 54 55 
55 55 56 
56 56 57 
57 57 58 
58 58 59 
59 59 60 
60 60 1 
1 5 1 1350
3725 1 5 
3726 5 60 
3727 60 1 
3728 60 5 
3729 5 61 
3730 61 60 
3731 60 61 
3732 61 62 
3733 62 60 
3734 62 59 
3735 59 60 
3736 60 62 
3737 59 62 
3738 62 58 
3739 58 59 
3740 58 62 
3741 62 63 
3742 63 58 
3743 58 63 
3744 63 64 
3745 64 58 
3746 64 57 
3747 57 58 
3748 58 64 
3749 57 64 
3750 64 56 
3751 56 57 
3752 56 64 
3753 64 65 
3754 65 56 
3755 56 65 
3756 65 66 
3757 66 56 
3758 66 55 
3759 55 56 
3760 56 66 
3761 55 66 
3762 66 54 
3763 54 55 
3764 54 66 
3765 66 67 
3766 67 54 
3767 54 67 
3768 67 68 
3769 68 54 
3770 68 53 
3771 53 54 
3772 54 68 
3773 53 68 
3774 68 52 
3775 52 53 
3776 52 68 
3777 68 69 
3778 69 52 
3779 52 69 
3780 69 70 
3781 70 52 
3782 70 51 
3783 51 52 
3784 52 70 
3785 51 70 
3786 70 50 
3787 50 51 
3788 50 70 
3789 70 71 
3790 71 50 
3791 50 71 
3792 71 72 
3793 72 50 
3794 72 49 
3795 49 50 
3796 50 72 
3797 49 72 
3798 72 48 
3799 48 49 
3800 48 72 
3801 72 73 
3802 73 48 
3803 48 73 
3804 73 74 
3805 74 48 
3806 74 47 
3807 47 48 
3808 48 74 
3809 47 74 
3810 74 4 
3811 4 47 
3812 4 74 
3813 74 46 
3814 46 4 
3815 5 6 
3816 6 75 
3817 75 5 
3818 75 61 
3819 61 5 
3820 5 75 
3821 61 75 
3822 75 62 
3823 62 61 
3824 62 75 
3825 75 76 
3826 76 62 
3827 62 76 
3828 76 77 
3829 77 62 
3830 77 63 
3831 63 62 
3832 62 77 
3833 63 77 
3834 77 64 
3835 64 63 
3836 64 77 
3837 77 78 
3838 78 64 
3839 64 78 
3840 78 79 
3841 79 64 
3842 79 65 
3843 65 64 
3844 64 79 
3845 65 79 
3846 79 66 
3847 66 65 
3848 66 79 
3849 79 80 
3850 80 66 
3851 66 80 
3852 80 81 
3853 81 66 
3854 81 67 
3855 67 66 
3856 66 81 
3857 67 81 
3858 81 68 
3859 68 67 
3860 68 81 
3861 81 82 
3862 82 68 
3863 68 82 
3864 82 83 
3865 83 68 
3866 83 69 
3867 69 68 
3868 68 83 
3869 69 83 
3870 83 70 
3871 70 69 
3872 70 83 
3873 83 84 
3874 84 70 
3875 70 84 
3876 84 85 
3877 85 70 
3878 85 71 
3879 71 70 
3880 70 85 
3881 71 85 
3882 85 72 
3883 72 71 
3884 72 85 
3885 85 86 
3886 86 72 
3887 72 86 
3888 86 87 
3889 87 72 
3890 87 73 
3891 73 72 
3892 72 87 
3893 73 87 
3894 87 74 
3895 74 73 
3896 74 87 
3897 87 88 
3898 88 74 
3899 74 88 
3900 88 45 
3901 45 74 
3902 45 46 
3903 46 74 
3904 74 45 
3905 6 7 
3906 7 75 
3907 75 6 
3908 75 7 
3909 7 89 
3910 89 75 
3911 75 89 
3912 89 90 
3913 90 75 
3914 90 76 
3915 76 75 
3916 75 90 
3917 76 90 
3918 90 77 
3919 77 76 
3920 77 90 
3921 90 91 
3922 91 77 
3923 77 91 
3924 91 92 
3925 92 77 
3926 92 78 
3927 78 77 
3928 77 92 
3929 78 92 
3930 92 79 
3931 79 78 
3932 79 92 
3933 92 93 
3934 93 79 
3935 79 93 
3936 93 94 
3937 94 79 
3938 94 80 
3939 80 79 
3940 79 94 
3941 80 94 
3942 94 81 
3943 81 80 
3944 81 94 
3945 94 95 
3946 95 81 
3947 81 95 
3948 95 96 
3949 96 81 
3950 96 82 
3951 82 81 
3952 81 96 
3953 82 96 
3954 96 83 
3955 83 82 
3956 83 96 
3957 96 97 
3958 97 83 
3959 83 97 
3960 97 98 
3961 98 83 
3962 98 84 
3963 84 83 
3964 83 98 
3965 84 98 
3966 98 85 
3967 85 84 
3968 85 98 
3969 98 99 
3970 99 85 
3971 85 99 
3972 99 100 
3973 100 85 
3974 100 86 
3975 86 85 
3976 85 100 
3977 86 100 
3978 100 87 
3979 87 86 
3980 87 100 
3981 100 101 
3982 101 87 
3983 87 101 
3984 101 102 
3985 102 87 
3986 102 88 
3987 88 87 
3988 87 102 
3989 88 102 
3990 102 45 
3991 45 88 
3992 45 102 
3993 102 44 
3994 44 45 
3995 7 8 
3996 8 103 
3997 103 7 
3998 103 89 
3999 89 7 
4000 7 103 
4001 89 103 
4002 103 90 
4003 90 89 
4004 90 103 
4005 103 104 
4006 104 90 
4007 90 104 
4008 104 105 
4009 105 90 
4010 105 91 
4011 91 90 
4012 90 105 
4013 91 105 
4014 105 92 
4015 92 91 
4016 92 105 
4017 105 106 
4018 106 92 
4019 92 106 
4020 106 107 
4021 107 92 
4022 107 93 
4023 93 92 
4024 92 107 
4025 93 107 
4026 107 94 
4027 94 93 
4028 94 107 
4029 107 108 
4030 108 94 
4031 94 108 
4032 108 109 
4033 109 94 
4034 109 95 
4035 95 94 
4036 94 109 
4037 95 109 
4038 109 96 
4039 96 95 
4040 96 109 
4041 109 110 
4042 110 96 
4043 96 110 
4044 110 111 
4045 111 96 
4046 111 97 
4047 97 96 
4048 96 111 
4049 97 111 
4050 111 98 
4051 98 97 
4052 98 111 
4053 111 112 
4054 112 98 
4055 98 112 
4056 112 113 
4057 113 98 
4058 113 99 
4059 99 98 
4060 98 113 
4061 99 113 
4062 113 100 
4063 100 99 
4064 100 113 
4065 113 114 
4066 114 100 
4067 100 114 
4068 114 115 
4069 115 100 
4070 115 101 
4071 101 100 
4072 100 115 
4073 101 115 
4074 115 102 
4075 102 101 
4076 102 115 
4077 115 116 
4078 116 102 
4079 102 116 
4080 116 43 
4081 43 102 
4082 43 44 
4083 44 102 
4084 102 43 
4085 8 9 
4086 9 103 
4087 103 8 
4088 103 9 
4089 9 117 
4090 117 103 
4091 103 117 
4092 117 118 
4093 118 103 
4094 118 104 
4095 104 103 
4096 103 118 
4097 104 118 
4098 118 105 
4099 105 104 
4100 105 118 
4101 118 119 
4102 119 105 
4103 105 119 
4104 119 120 
4105 120 105 
4106 120 106 
4107 106 105 
4108 105 120 
4109 106 120 
4110 120 107 
4111 107 106 
4112 107 120 
4113 120 121 
4114 121 107 
4115 107 121 
4116 121 122 
4117 122 107 
4118 122 108 
4119 108 107 
4120 107 122 
4121 108 122 
4122 122 109 
4123 109 108 
4124 109 122 
4125 122 123 
4126 123 109 
4127 109 123 
4128 123 124 
4129 124 109 
4130 124 110 
4131 110 109 
4132 109 124 
4133 110 124 
4134 124 111 
4135 111 110 
4136 111 124 
4137 124 125 
4138 125 111 
4139 111 125 
4140 125 126 
4141 126 111 
4142 126 112 
4143 112 111 
4144 111 126 
4145 112 126 
4146 126 113 
4147 113 112 
4148 113 126 
4149 126 127 
4150 127 113 
4151 113 127 
4152 127 128 
4153 128 113 
4154 128 114 
4155 114 113 
4156 113 128 
4157 114 128 
4158 128 115 
4159 115 114 
4160 115 128 
4161 128 129 
4162 129 115 
4163 115 129 
4164 129 130 
4165 130 115 
4166 130 116 
4167 116 115 
4168 115 130 
4169 116 130 
4170 130 43 
4171 43 116 
4172 43 130 
4173 130 42 
4174 42 43 
4175 9 10 
4176 10 131 
4177 131 9 
4178 131 117 
4179 117 9 
4180 9 131 
4181 117 131 
4182 131 118 
4183 118 117 
4184 118 131 
4185 131 132 
4186 132 118 
4187 118 132 
4188 132 133 
4189 133 118 
4190 133 119 
4191 119 118 
4192 118 133 
4193 119 133 
4194 133 120 
4195 120 119 
4196 120 133 
4197 133 134 
4198 134 120 
4199 120 134 
4200 134 135 
4201 135 120 
4202 135 121 
4203 121 120 
4204 120 135 
4205 121 135 
4206 135 122 
4207 122 121 
4208 122 135 
4209 135 136 
4210 136 122 
4211 122 136 
4212 136 137 
4213 137 122 
4214 137 123 
4215 123 122 
4216 122 137 
4217 123 137 
4218 137 124 
4219 124 123 
4220 124 137 
4221 137 138 
4222 138 124 
4223 124 138 
4224 138 139 
4225 139 124 
4226 139 125 
4227 125 124 
4228 124 139 
4229 125 139 
4230 139 126 
4231 126 125 
4232 126 139 
4233 139 140 
4234 140 126 
4235 126 140 
4236 140 141 
4237 141 126 
4238 141 127 
4239 127 126 
4240 126 141 
4241 127 141 
4242 141 128 
4243 128 127 
4244 128 141 
4245 141 142 
4246 142 128 
4247 128 142 
4248 142 143 
4249 143 128 
4250 143 129 
4251 129 128 
4252 128 143 
4253 129 143 
4254 143 130 
4255 130 129 
4256 130 143 
4257 143 144 
4258 144 130 
4259 130 144 
4260 144 41 
4261 41 130 
4262 41 42 
4263 42 130 
4264 130 41 
4265 10 11 
4266 11 131 
4267 131 10 
4268 131 11 
4269 11 145 
4270 145 131 
4271 131 145 
4272 145 146 
4273 146 131 
4274 146 132 
4275 132 131 
4276 131 146 
4277 132 146 
4278 146 133 
4279 133 132 
4280 133 146 
4281 146 147 
4282 147 133 
4283 133 147 
4284 147 148 
4285 148 133 
4286 148 134 
4287 134 133 
4288 133 148 
4289 134 148 
4290 148 135 
4291 135 134 
4292 135 148 
4293 148 149 
4294 149 135 
4295 135 149 
4296 149 150 
4297 150 135 
4298 150 136 
4299 136 135 
4300 135 150 
4301 136 150 
4302 150 137 
4303 137 136 
4304 137 150 
4305 150 151 
4306 151 137 
4307 137 151 
4308 151 152 
4309 152 137 
4310 152 138 
4311 138 137 
4312 137 152 
4313 138 152 
4314 152 139 
4315 139 138 
4316 139 152 
4317 152 153 
4318 153 139 
4319 139 153 
4320 153 154 
4321 154 139 
4322 154 140 
4323 140 139 
4324 139 154 
4325 140 154 
4326 154 141 
4327 141 140 
4328 141 154 
4329 154 155 
4330 155 141 
4331 141 155 
4332 155 156 
4333 156 141 
4334 156 142 
4335 142 141 
4336 141 156 
4337 142 156 
4338 156 143 
4339 143 142 
4340 143 156 
4341 156 157 
4342 157 143 
4343 143 157 
4344 157 158 
4345 158 143 
4346 158 144 
4347 144 143 
4348 143 158 
4349 144 158 
4350 158 41 
4351 41 144 
4352 41 158 
4353 158 40 
4354 40 41 
4355 11 12 
4356 12 159 
4357 159 11 
4358 159 145 
4359 145 11 
4360 11 159 
4361 145 159 
4362 159 146 
4363 146 145 
4364 146 159 
4365 159 160 
4366 160 146 
4367 146 160 
4368 160 161 
4369 161 146 
4370 161 147 
4371 147 146 
4372 146 161 
4373 147 161 
4374 161 148 
4375 148 147 
4376 148 161 
4377 161 162 
4378 162 148 
4379 148 162 
4380 162 163 
4381 163 148 
4382 163 149 
4383 149 148 
4384 148 163 
4385 149 163 
4386 163 150 
4387 150 149 
4388 150 163 
4389 163 164 
4390 164 150 
4391 150 164 
4392 164 165 
4393 165 150 
4394 165 151 
4395 151 150 
4396 150 165 
4397 151 165 
4398 165 152 
4399 152 151 
4400 152 165 
4401 165 166 
4402 166 152 
4403 152 166 
4404 166 167 
4405 167 152 
4406 167 153 
4407 153 152 
4408 152 167 
4409 153 167 
4410 167 154 
4411 154 153 
4412 154 167 
4413 167 168 
4414 168 154 
4415 154 168 
4416 168 169 
4417 169 154 
4418 169 155 
4419 155 154 
4420 154 169 
4421 155 169 
4422 169 156 
4423 156 155 
4424 156 169 
4425 169 170 
4426 170 156 
4427 156 170 
4428 170 171 
4429 171 156 
4430 171 157 
4431 157 156 
4432 156 171 
4433 157 171 
4434 171 158 
4435 158 157 
4436 158 171 
4437 171 172 
4438 172 158 
4439 158 172 
4440 172 39 
4441 39 158 
4442 39 40 
4443 40 158 
4444 158 39 
4445 12 13 
4446 13 159 
4447 159 12 
4448 159 13 
4449 13 173 
4450 173 159 
4451 159 173 
4452 173 174 
4453 174 159 
4454 174 160 
4455 160 159 
4456 159 174 
4457 160 174 
4458 174 161 
4459 161 160 
4460 161 174 
4461 174 175 
4462 175 161 
4463 161 175 
4464 175 176 
4465 176 161 
4466 176 162 
4467 162 161 
4468 161 176 
4469 162 176 
4470 176 163 
4471 163 162 
4472 163 176 
4473 176 177 
4474 177 163 
4475 163 177 
4476 177 178 
4477 178 163 
4478 178 164 
4479 164 163 
4480 163 178 
4481 164 178 
4482 178 165 
4483 165 164 
4484 165 178 
4485 178 179 
4486 179 165 
4487 165 179 
4488 179 180 
4489 180 165 
4490 180 166 
4491 166 165 
4492 165 180 
4493 166 180 
4494 180 167 
4495 167 166 
4496 167 180 
4497 180 181 
4498 181 167 
4499 167 181 
4500 181 182 
4501 182 167 
4502 182 168 
4503 168 167 
4504 167 182 
4505 168 182 
4506 182 169 
4507 169 168 
4508 169 182 
4509 182 183 
4510 183 169 
4511 169 183 
4512 183 184 
4513 184 169 
4514 184 170 
4515 170 169 
4516 169 184 
4517 170 184 
4518 184 171 
4519 171 170 
4520 171 184 
4521 184 185 
4522 185 171 
4523 171 185 
4524 185 186 
4525 186 171 
4526 186 172 
4527 172 171 
4528 171 186 
4529 172 186 
4530 186 39 
4531 39 172 
4532 39 186 
4533 186 38 
4534 38 39 
4535 13 14 
4536 14 187 
4537 187 13 
4538 187 173 
4539 173 13 
4540 13 187 
4541 173 187 
4542 187 174 
4543 174 173 
4544 174 187 
4545 187 188 
4546 188 174 
4547 174 188 
4548 188 189 
4549 189 174 
4550 189 175 
4551 175 174 
4552 174 189 
4553 175 189 
4554 189 176 
4555 176 175 
4556 176 189 
4557 189 190 
4558 190 176 
4559 176 190 
4560 190 191 
4561 191 176 
4562 191 177 
4563 177 176 
4564 176 191 
4565 177 191 
4566 191 178 
4567 178 177 
4568 178 191 
4569 191 192 
4570 192 178 
4571 178 192 
4572 192 193 
4573 193 178 
4574 193 179 
4575 179 178 
4576 178 193 
4577 179 193 
4578 193 180 
4579 180 179 
4580 180 193 
4581 193 194 
4582 194 180 
4583 180 194 
4584 194 195 
4585 195 180 
4586 195 181 
4587 181 180 
4588 180 195 
4589 181 195 
4590 195 182 
4591 182 181 
4592 182 195 
4593 195 196 
4594 196 182 
4595 182 196 
4596 196 197 
4597 197 182 
4598 197 183 
4599 183 182 
4600 182 197 
4601 183 197 
4602 197 184 
4603 184 183 
4604 184 197 
4605 197 198 
4606 198 184 
4607 184 198 
4608 198 199 
4609 199 184 
4610 199 185 
4611 185 184 
4612 184 199 
4613 185 199 
4614 199 186 
4615 186 185 
4616 186 199 
4617 199 200 
4618 200 186 
4619 186 200 
4620 200 37 
4621 37 186 
4622 37 38 
4623 38 186 
4624 186 37 
4625 14 15 
4626 15 187 
4627 187 14 
4628 187 15 
4629 15 201 
4630 201 187 
4631 187 201 
4632 201 202 
4633 202 187 
4634 202 188 
4635 188 187 
4636 187 202 
4637 188 202 
4638 202 189 
4639 189 188 
4640 189 202 
4641 202 203 
4642 203 189 
4643 189 203 
4644 203 204 
4645 204 189 
4646 204 190 
4647 190 189 
4648 189 204 
4649 190 204 
4650 204 191 
4651 191 190 
4652 191 204 
4653 204 205 
4654 205 191 
4655 191 205 
4656 205 206 
4657 206 191 
4658 206 192 
4659 192 191 
4660 191 206 
4661 192 206 
4662 206 193 
4663 193 192 
4664 193 206 
4665 206 207 
4666 207 193 
4667 193 207 
4668 207 208 
4669 208 193 
4670 208 194 
4671 194 193 
4672 193 208 
4673 194 208 
4674 208 195 
4675 195 194 
4676 195 208 
4677 208 209 
4678 209 195 
4679 195 209 
4680 209 210 
4681 210 195 
4682 210 196 
4683 196 195 
4684 195 210 
4685 196 210 
4686 210 197 
4687 197 196 
4688 197 210 
4689 210 211 
4690 211 197 
4691 197 211 
4692 211 212 
4693 212 197 
4694 212 198 
4695 198 197 
4696 197 212 
4697 198 212 
4698 212 199 
4699 199 198 
4700 199 212 
4701 212 213 
4702 213 199 
4703 199 213 
4704 213 214 
4705 214 199 
4706 214 200 
4707 200 199 
4708 199 214 
4709 200 214 
4710 214 37 
4711 37 200 
4712 37 214 
4713 214 36 
4714 36 37 
4715 15 16 
4716 16 215 
4717 215 15 
4718 215 201 
4719 201 15 
4720 15 215 
4721 201 215 
4722 215 202 
4723 202 201 
4724 202 215 
4725 215 216 
4726 216 202 
4727 202 216 
4728 216 217 
4729 217 202 
4730 217 203 
4731 203 202 
4732 202 217 
4733 203 217 
4734 217 204 
4735 204 203 
4736 204 217 
4737 217 218 
4738 218 204 
4739 204 218 
4740 218 219 
4741 219 204 
4742 219 205 
4743 205 204 
4744 204 219 
4745 205 219 
4746 219 206 
4747 206 205 
4748 206 219 
4749 219 220 
4750 220 206 
4751 206 220 
4752 220 221 
4753 221 206 
4754 221 207 
4755 207 206 
4756 206 221 
4757 207 221 
4758 221 208 
4759 208 207 
4760 208 221 
4761 221 222 
4762 222 208 
4763 208 222 
4764 222 223 
4765 223 208 
4766 223 209 
4767 209 208 
4768 208 223 
4769 209 223 
4770 223 210 
4771 210 209 
4772 210 223 
4773 223 224 
4774 224 210 
4775 210 224 
4776 224 225 
4777 225 210 
4778 225 211 
4779 211 210 
4780 210 225 
4781 211 225 
4782 225 212 
4783 212 211 
4784 212 225 
4785 225 226 
4786 226 212 
4787 212 226 
4788 226 227 
4789 227 212 
4790 227 213 
4791 213 212 
4792 212 227 
4793 213 227 
4794 227 214 
4795 214 213 
4796 214 227 
4797 227 228 
4798 228 214 
4799 214 228 
4800 228 35 
4801 35 214 
4802 35 36 
4803 36 214 
4804 214 35 
4805 16 17 
4806 17 215 
4807 215 16 
4808 215 17 
4809 17 229 
4810 229 215 
4811 215 229 
4812 229 230 
4813 230 215 
4814 230 216 
4815 216 215 
4816 215 230 
4817 216 230 
4818 230 217 
4819 217 216 
4820 217 230 
4821 230 231 
4822 231 217 
4823 217 231 
4824 231 232 
4825 232 217 
4826 232 218 
4827 218 217 
4828 217 232 
4829 218 232 
4830 232 219 
4831 219 218 
4832 219 232 
4833 232 233 
4834 233 219 
4835 219 233 
4836 233 234 
4837 234 219 
4838 234 220 
4839 220 219 
4840 219 234 
4841 220 234 
4842 234 221 
4843 221 220 
4844 221 234 
4845 234 235 
4846 235 221 
4847 221 235 
4848 235 236 
4849 236 221 
4850 236 222 
4851 222 221 
4852 221 236 
4853 222 236 
4854 236 223 
4855 223 222 
4856 223 236 
4857 236 237 
4858 237 223 
4859 223 237 
4860 237 238 
4861 238 223 
4862 238 224 
4863 224 223 
4864 223 238 
4865 224 238 
4866 238 225 
4867 225 224 
4868 225 238 
4869 238 239 
4870 239 225 
4871 225 239 
4872 239 240 
4873 240 225 
4874 240 226 
4875 226 225 
4876 225 240 
4877 226 240 
4878 240 227 
4879 227 226 
4880 227 240 
4881 240 241 
4882 241 227 
4883 227 241 
4884 241 242 
4885 242 227 
4886 242 228 
4887 228 227 
4888 227 242 
4889 228 242 
4890 242 35 
4891 35 228 
4892 35 242 
4893 242 34 
4894 34 35 
4895 17 18 
4896 18 243 
4897 243 17 
4898 243 229 
4899 229 17 
4900 17 243 
4901 229 243 
4902 243 230 
4903 230 229 
4904 230 243 
4905 243 244 
4906 244 230 
4907 230 244 
4908 244 245 
4909 245 230 
4910 245 231 
4911 231 230 
4912 230 245 
4913 231 245 
4914 245 232 
4915 232 231 
4916 232 245 
4917 245 246 
4918 246 232 
4919 232 246 
4920 246 247 
4921 247 232 
4922 247 233 
4923 233 232 
4924 232 247 
4925 233 247 
4926 247 234 
4927 234 233 
4928 234 247 
4929 247 248 
4930 248 234 
4931 234 248 
4932 248 249 
4933 249 234 
4934 249 235 
4935 235 234 
4936 234 249 
4937 235 249 
4938 249 236 
4939 236 235 
4940 236 249 
4941 249 250 
4942 250 236 
4943 236 250 
4944 250 251 
4945 251 236 
4946 251 237 
4947 237 236 
4948 236 251 
4949 237 251 
4950 251 238 
4951 238 237 
4952 238 251 
4953 251 252 
4954 252 238 
4955 238 252 
4956 252 253 
4957 253 238 
4958 253 239 
4959 239 238 
4960 238 253 
4961 239 253 
4962 253 240 
4963 240 239 
4964 240 253 
4965 253 254 
4966 254 240 
4967 240 254 
4968 254 255 
4969 255 240 
4970 255 241 
4971 241 240 
4972 240 255 
4973 241 255 
4974 255 242 
4975 242 241 
4976 242 255 
4977 255 256 
4978 256 242 
4979 242 256 
4980 256 33 
4981 33 242 
4982 33 34 
4983 34 242 
4984 242 33 
4985 18 2 
4986 2 243 
4987 243 18 
4988 243 2 
4989 2 19 
4990 19 243 
4991 243 19 
4992 19 20 
4993 20 243 
4994 20 244 
4995 244 243 
4996 243 20 
4997 244 20 
4998 20 245 
4999 245 244 
5000 245 20 
5001 20 21 
5002 21 245 
5003 245 21 
5004 21 22 
5005 22 245 
5006 22 246 
5007 246 245 
5008 245 22 
5009 246 22 
5010 22 247 
5011 247 246 
5012 247 22 
5013 22 23 
5014 23 247 
5015 247 23 
5016 23 24 
5017 24 247 
5018 24 248 
5019 248 247 
5020 247 24 
5021 248 24 
5022 24 249 
5023 249 248 
5024 249 24 
5025 24 25 
5026 25 249 
5027 249 25 
5028 25 26 
5029 26 249 
5030 26 250 
5031 250 249 
5032 249 26 
5033 250 26 
5034 26 251 
5035 251 250 
5036 251 26 
5037 26 27 
5038 27 251 
5039 251 27 
5040 27 28 
5041 28 251 
5042 28 252 
5043 252 251 
5044 251 28 
5045 252 28 
5046 28 253 
5047 253 252 
5048 253 28 
5049 28 29 
5050 29 253 
5051 253 29 
5052 29 30 
5053 30 253 
5054 30 254 
5055 254 253 
5056 253 30 
5057 254 30 
5058 30 255 
5059 255 254 
5060 255 30 
5061 30 31 
5062 31 255 
5063 255 31 
5064 31 32 
5065 32 255 
5066 32 256 
5067 256 255 
5068 255 32 
5069 256 32 
5070 32 33 
5071 33 256 
5072 33 32 
5073 32 3 
5074 3 33 
2 1 2 450
61 1 5 60 
62 60 5 61 
63 60 61 62 
64 62 59 60 
65 59 62 58 
66 58 62 63 
67 58 63 64 
68 64 57 58 
69 57 64 56 
70 56 64 65 
71 56 65 66 
72 66 55 56 
73 55 66 54 
74 54 66 67 
75 54 67 68 
76 68 53 54 
77 53 68 52 
78 52 68 69 
79 52 69 70 
80 70 51 52 
81 51 70 50 
82 50 70 71 
83 50 71 72 
84 72 49 50 
85 49 72 48 
86 48 72 73 
87 48 73 74 
88 74 47 48 
89 47 74 4 
90 4 74 46 
91 5 6 75 
92 75 61 5 
93 61 75 62 
94 62 75 76 
95 62 76 77 
96 77 63 62 
97 63 77 64 
98 64 77 78 
99 64 78 79 
100 79 65 64 
101 65 79 66 
102 66 79 80 
103 66 80 81 
104 81 67 66 
105 67 81 68 
106 68 81 82 
107 68 82 83 
108 83 69 68 
109 69 83 70 
110 70 83 84 
111 70 84 85 
112 85 71 70 
113 71 85 72 
114 72 85 86 
115 72 86 87 
116 87 73 72 
117 73 87 74 
118 74 87 88 
119 74 88 45 
120 45 46 74 
121 6 7 75 
122 75 7 89 
123 75 89 90 
124 90 76 75 
125 76 90 77 
126 77 90 91 
127 77 91 92 
128 92 78 77 
129 78 92 79 
130 79 92 93 
131 79 93 94 
132 94 80 79 
133 80 94 81 
134 81 94 95 
135 81 95 96 
136 96 82 81 
137 82 96 83 
138 83 96 97 
139 83 97 98 
140 98 84 83 
141 84 98 85 
142 85 98 99 
143 85 99 100 
144 100 86 85 
145 86 100 87 
146 87 100 101 
147 87 101 102 
148 102 88 87 
149 88 102 45 
150 45 102 44 
151 7 8 103 
152 103 89 7 
153 89 103 90 
154 90 103 104 
155 90 104 105 
156 105 91 90 
157 91 105 92 
158 92 105 106 
159 92 106 107 
160 107 93 92 
161 93 107 94 
162 94 107 108 
163 94 108 109 
164 109 95 94 
165 95 109 96 
166 96 109 110 
167 96 110 111 
168 111 97 96 
169 97 111 98 
170 98 111 112 
171 98 112 113 
172 113 99 98 
173 99 113 100 
174 100 113 114 
175 100 114 115 
176 115 101 100 
177 101 115 102 
178 102 115 116 
179 102 116 43 
180 43 44 102 
181 8 9 103 
182 103 9 117 
183 103 117 118 
184 118 104 103 
185 104 118 105 
186 105 118 119 
187 105 119 120 
188 120 106 105 
189 106 120 107 
190 107 120 121 
191 107 121 122 
192 122 108 107 
193 108 122 109 
194 109 122 123 
195 109 123 124 
196 124 110 109 
197 110 124 111 
198 111 124 125 
199 111 125 126 
200 126 112 111 
201 112 126 113 
202 113 126 127 
203 113 127 128 
204 128 114 113 
205 114 128 115 
206 115 128 129 
207 115 129 130 
208 130 116 115 
209 116 130 43 
210 43 130 42 
211 9 10 131 
212 131 117 9 
213 117 131 118 
214 118 131 132 
215 118 132 133 
216 133 119 118 
217 119 133 120 
218 120 133 134 
219 120 134 135 
220 135 121 120 
221 121 135 122 
222 122 135 136 
223 122 136 137 
224 137 123 122 
225 123 137 124 
226 124 137 138 
227 124 138 139 
228 139 125 124 
229 125 139 126 
230 126 139 140 
231 126 140 141 
232 141 127 126 
233 127 141 128 
234 128 141 142 
235 128 142 143 
236 143 129 128 
237 129 143 130 
238 130 143 144 
239 130 144 41 
240 41 42 130 
241 10 11 131 
242 131 11 145 
243 131 145 146 
244 146 132 131 
245 132 146 133 
246 133 146 147 
247 133 147 148 
248 148 134 133 
249 134 148 135 
250 135 148 149 
251 135 149 150 
252 150 136 135 
253 136 150 137 
254 137 150 151 
255 137 151 152 
256 152 138 137 
257 138 152 139 
258 139 152 153 
259 139 153 154 
260 154 140 139 
261 140 154 141 
262 141 154 155 
263 141 155 156 
264 156 142 141 
265 142 156 143 
266 143 156 157 
267 143 157 158 
268 158 144 143 
269 144 158 41 
270 41 158 40 
271 11 12 159 
272 159 145 11 
273 145 159 146 
274 146 159 160 
275 146 160 161 
276 161 147 146 
277 147 161 148 
278 148 161 162 
279 148 162 163 
280 163 149 148 
281 149 163 150 
282 150 163 164 
283 150 164 165 
284 165 151 150 
285 151 165 152 
286 152 165 166 
287 152 166 167 
288 167 153 152 
289 153 167 154 
290 154 167 168 
291 154 168 169 
292 169 155 154 
293 155 169 156 
294 156 169 170 
295 156 170 171 
296 171 157 156 
297 157 171 158 
298 158 171 172 
299 158 172 39 
300 39 40 158 
301 12 13 159 
302 159 13 173 
303 159 173 174 
304 174 160 159 
305 160 174 161 
306 161 174 175 
307 161 175 176 
308 176 162 161 
309 162 176 163 
310 163 176 177 
311 163 177 178 
312 178 164 163 
313 164 178 165 
314 165 178 179 
315 165 179 180 
316 180 166 165 
317 166 180 167 
318 167 180 181 
319 167 181 182 
320 182 168 167 
321 168 182 169 
322 169 182 183 
323 169 183 184 
324 184 170 169 
325 170 184 171 
326 171 184 185 
327 171 185 186 
328 186 172 171 
329 172 186 39 
330 39 186 38 
331 13 14 187 
332 187 173 13 
333 173 187 174 
334 174 187 188 
335 174 188 189 
336 189 175 174 
337 175 189 176 
338 176 189 190 
339 176 190 191 
340 191 177 176 
341 177 191 178 
342 178 191 192 
343 178 192 193 
344 193 179 178 
345 179 193 180 
346 180 193 194 
347 180 194 195 
348 195 181 180 
349 181 195 182 
350 182 195 196 
351 182 196 197 
352 197 183 182 
353 183 197 184 
354 184 197 198 
355 184 198 199 
356 199 185 184 
357 185 199 186 
358 186 199 200 
359 186 200 37 
360 37 38 186 
361 14 15 187 
362 187 15 201 
363 187 201 202 
364 202 188 187 
365 188 202 189 
366 189 202 203 
367 189 203 204 
368 204 190 189 
369 190 204 191 
370 191 204 205 
371 191 205 206 
372 206 192 191 
373 192 206 193 
374 193 206 207 
375 193 207 208 
376 208 194 193 
377 194 208 195 
378 195 208 209 
379 195 209 210 
380 210 196 195 
381 196 210 197 
382 197 210 211 
383 197 211 212 
384 212 198 197 
385 198 212 199 
386 199 212 213 
387 199 213 214 
388 214 200 199 
389 200 214 37 
390 37 214 36 
391 15 16 215 
392 215 201 15 
393 201 215 202 
394 202 215 216 
395 202 216 217 
396 217 203 202 
397 203 217 204 
398 204 217 218 
399 204 218 219 
400 219 205 204 
401 205 219 206 
402 206 219 220 
403 206 220 221 
404 221 207 206 
405 207 221 208 
406 208 221 222 
407 208 222 223 
408 223 209 208 
409 209 223 210 
410 210 223 224 
411 210 224 225 
412 225 211 210 
413 211 225 212 
414 212 225 226 
415 212 226 227 
416 227 213 212 
417 213 227 214 
418 214 227 228 
419 214 228 35 
420 35 36 214 
421 16 17 215 
422 215 17 229 
423 215 229 230 
424 230 216 215 
425 216 230 217 
426 217 230 231 
427 217 231 232 
428 232 218 217 
429 218 232 219 
430 219 232 233 
431 219 233 234 
432 234 220 219 
433 220 234 221 
434 221 234 235 
435 221 235 236 
436 236 222 221 
437 222 236 223 
438 223 236 237 
439 223 237 238 
440 238 224 223 
441 224 238 225 
442 225 238 239 
443 225 239 240 
444 240 226 225 
445 226 240 227 
446 227 240 241 
447 227 241 242 
448 242 228 227 
449 228 242 35 
450 35 242 34 
451 17 18 243 
452 243 229 17 
453 229 243 230 
454 230 243 244 
455 230 244 245 
456 245 231 230 
457 231 245 232 
458 232 245 246 
459 232 246 247 
460 247 233 232 
461 233 247 234 
462 234 247 248 
463 234 248 249 
464 249 235 234 
465 235 249 236 
466 236 249 250 
467 236 250 251 
468 251 237 236 
469 237 251 238 
470 238 251 252 
471 238 252 253 
472 253 239 238 
473 239 253 240 
474 240 253 254 
475 240 254 255 
476 255 241 240 
477 241 255 242 
478 242 255 256 
479 242 256 33 
480 33 34 242 
481 18 2 243 
482 243 2 19 
483 243 19 20 
484 20 244 243 
485 244 20 245 
486 245 20 21 
487 245 21 22 
488 22 246 245 
489 246 22 247 
490 247 22 23 
491 247 23 24 
492 24 248 247 
493 248 24 249 
494 249 24 25 
495 249 25 26 
496 26 250 249 
497 250 26 251 
498 251 26 27 
499 251 27 28 
500 28 252 251 
501 252 28 253 
502 253 28 29 
503 253 29 30 
504 30 254 253 
505 254 30 255 
506 255 30 31 
507 255 31 32 
508 32 256 255 
509 256 32 33 
510 33 32 3 
$EndElements
