<svg xmlns="http://www.w3.org/2000/svg" width="720" height="470" viewBox="0 0 720 470">
<rect width="100%" height="100%" fill="white"/>
<style>text{font-family:Arial,Helvetica,sans-serif;font-size:13px;fill:#111}.title{font-size:16px;font-weight:700}.axis{stroke:#111;stroke-width:1.4}.grid{stroke:#ddd;stroke-width:1}</style>
<text class="title" x="76" y="28">Variation of buckling factor under combined loads</text>
<line class="grid" x1="76" y1="402.0" x2="684" y2="402.0"/>
<text x="66" y="406.0" text-anchor="end">0</text>
<line class="grid" x1="76" y1="332.4" x2="684" y2="332.4"/>
<text x="66" y="336.4" text-anchor="end">10.56</text>
<line class="grid" x1="76" y1="262.8" x2="684" y2="262.8"/>
<text x="66" y="266.8" text-anchor="end">21.13</text>
<line class="grid" x1="76" y1="193.2" x2="684" y2="193.2"/>
<text x="66" y="197.2" text-anchor="end">31.69</text>
<line class="grid" x1="76" y1="123.6" x2="684" y2="123.6"/>
<text x="66" y="127.6" text-anchor="end">42.25</text>
<line class="grid" x1="76" y1="54.0" x2="684" y2="54.0"/>
<text x="66" y="58.0" text-anchor="end">52.82</text>
<line class="axis" x1="76" y1="54" x2="76" y2="402"/>
<line class="axis" x1="76" y1="402" x2="684" y2="402"/>
<line class="axis" x1="76.0" y1="402" x2="76.0" y2="408"/>
<text x="76.0" y="426" text-anchor="middle">0</text>
<line class="axis" x1="197.6" y1="402" x2="197.6" y2="408"/>
<text x="197.6" y="426" text-anchor="middle">0.4</text>
<line class="axis" x1="319.2" y1="402" x2="319.2" y2="408"/>
<text x="319.2" y="426" text-anchor="middle">0.8</text>
<line class="axis" x1="440.8" y1="402" x2="440.8" y2="408"/>
<text x="440.8" y="426" text-anchor="middle">1.2</text>
<line class="axis" x1="562.4" y1="402" x2="562.4" y2="408"/>
<text x="562.4" y="426" text-anchor="middle">1.6</text>
<line class="axis" x1="684.0" y1="402" x2="684.0" y2="408"/>
<text x="684.0" y="426" text-anchor="middle">2</text>
<text x="360.0" y="452" text-anchor="middle">Aspect ratio delta = sigma/tau</text>
<text x="18" y="62" transform="rotate(-90 18,62)" text-anchor="end">Combined buckling load factor k</text>
<polyline points="76.0,78.6 228.0,180.5 380.0,237.2 532.0,272.0 684.0,295.0" fill="none" stroke="#111111" stroke-width="2.2"/>
<circle cx="76.0" cy="78.6" r="4" fill="white" stroke="#111111" stroke-width="1.8"/>
<circle cx="228.0" cy="180.5" r="4" fill="white" stroke="#111111" stroke-width="1.8"/>
<circle cx="380.0" cy="237.2" r="4" fill="white" stroke="#111111" stroke-width="1.8"/>
<circle cx="532.0" cy="272.0" r="4" fill="white" stroke="#111111" stroke-width="1.8"/>
<circle cx="684.0" cy="295.0" r="4" fill="white" stroke="#111111" stroke-width="1.8"/>
<line x1="504" y1="64" x2="532" y2="64" stroke="#111111" stroke-width="2.2"/>
<text x="540" y="68">Present</text>
<polyline points="76.0,305.1 228.0,355.3 380.0,372.4 532.0,380.7 684.0,385.5" fill="none" stroke="#666666" stroke-width="2.2" stroke-dasharray="8 6"/>
<rect x="72.0" y="301.1" width="8" height="8" fill="white" stroke="#666666" stroke-width="1.8"/>
<rect x="224.0" y="351.3" width="8" height="8" fill="white" stroke="#666666" stroke-width="1.8"/>
<rect x="376.0" y="368.4" width="8" height="8" fill="white" stroke="#666666" stroke-width="1.8"/>
<rect x="528.0" y="376.7" width="8" height="8" fill="white" stroke="#666666" stroke-width="1.8"/>
<rect x="680.0" y="381.5" width="8" height="8" fill="white" stroke="#666666" stroke-width="1.8"/>
<line x1="504" y1="86" x2="532" y2="86" stroke="#666666" stroke-width="2.2" stroke-dasharray="8 6"/>
<text x="540" y="90">Reference</text>
</svg>