<?xml version="1.0" encoding="utf-8"?>
<VTKFile type="UnstructuredGrid" version="1.0" byte_order="LittleEndian" header_type="UInt64">
  <UnstructuredGrid>
    <Piece NumberOfPoints="121" NumberOfCells="100">
      <Points>
        <DataArray type="Float64" Name="Points" NumberOfComponents="3" format="ascii">
 0.0 0.0 0.0 1.0 0.0 0.0 1.0 1.0 0.0 0.0 1.0 0.0 0.09999999999981413 0.0 0.0 0.1999999999995569 0.0 0.0 0.299999999999265 0.0 0.0 0.3999999999989731 0.0 0.0 0.4999999999986921 0.0 0.0 0.599999999998945 0.0 0.0 0.6999999999992088 0.0 0.0 0.7999999999994725 0.0 0.0 0.8999999999997362 0.0 0.0 1.0 0.09999999999981413 0.0 1.0 0.1999999999995569 0.0 1.0 0.299999999999265 0.0 1.0 0.3999999999989731 0.0 1.0 0.4999999999986921 0.0 1.0 0.599999999998945 0.0 1.0 0.6999999999992088 0.0 1.0 0.7999999999994725 0.0 1.0 0.8999999999997362 0.0 0.8999999999995836 1.0 0.0 0.8 1.0 0.0 0.7000000000006938 1.0 0.0 0.6000000000013874 1.0 0.0 0.5000000000020595 1.0 0.0 0.400000000001665 1.0 0.0 0.3000000000012487 1.0 0.0 0.2000000000008325 1.0 0.0 0.1000000000004162 1.0 0.0 0.0 0.8999999999995836 0.0 0.0 0.8 0.0 0.0 0.7000000000006938 0.0 0.0 0.6000000000013874 0.0 0.0 0.5000000000020595 0.0 0.0 0.400000000001665 0.0 0.0 0.3000000000012487 0.0 0.0 0.2000000000008325 0.0 0.0 0.1000000000004162 0.0 0.09999999999987436 0.100000000000356 0.0 0.09999999999993453 0.2000000000007049 0.0 0.09999999999999473 0.3000000000010504 0.0 0.100000000000055 0.4000000000013959 0.0 0.1000000000001152 0.5000000000017226 0.0 0.1000000000001754 0.6000000000011431 0.0 0.1000000000002356 0.7000000000005454 0.0 0.1000000000002958 0.7999999999999471 0.0 0.100000000000356 0.8999999999995988 0.0 0.1999999999996844 0.1000000000002958 0.0 0.199999999999812 0.2000000000005774 0.0 0.1999999999999396 0.3000000000008519 0.0 0.2000000000000672 0.4000000000011267 0.0 0.2000000000001947 0.500000000001386 0.0 0.2000000000003223 0.6000000000008989 0.0 0.2000000000004498 0.7000000000003967 0.0 0.2000000000005774 0.7999999999998944 0.0 0.2000000000007049 0.8999999999996142 0.0 0.2999999999994634 0.1000000000002356 0.0 0.2999999999996618 0.2000000000004498 0.0 0.29999999999986 0.3000000000006536 0.0 0.3000000000000586 0.4000000000008574 0.0 0.3000000000002568 0.5000000000010494 0.0 0.3000000000004552 0.6000000000006547 0.0 0.3000000000006536 0.7000000000002484 0.0 0.3000000000008519 0.7999999999998417 0.0 0.3000000000010503 0.8999999999996293 0.0 0.3999999999992422 0.1000000000001754 0.0 0.3999999999995115 0.2000000000003223 0.0 0.3999999999997807 0.3000000000004552 0.0 0.4000000000000499 0.4000000000005882 0.0 0.4000000000003192 0.5000000000007125 0.0 0.4000000000005883 0.6000000000004104 0.0 0.4000000000008574 0.7000000000000999 0.0 0.4000000000011266 0.7999999999997891 0.0 0.4000000000013959 0.8999999999996446 0.0 0.4999999999990289 0.1000000000001152 0.0 0.4999999999993656 0.2000000000001947 0.0 0.4999999999997022 0.3000000000002568 0.0 0.5000000000000391 0.4000000000003192 0.0 0.5000000000003757 0.5000000000003757 0.0 0.5000000000007125 0.6000000000001662 0.0 0.5000000000010494 0.6999999999999513 0.0 0.500000000001386 0.7999999999997363 0.0 0.5000000000017226 0.89999999999966 0.0 0.5999999999991893 0.100000000000055 0.0 0.5999999999994334 0.2000000000000671 0.0 0.5999999999996777 0.3000000000000586 0.0 0.5999999999999219 0.4000000000000498 0.0 0.6000000000001662 0.5000000000000391 0.0 0.6000000000004104 0.5999999999999219 0.0 0.6000000000006547 0.6999999999998028 0.0 0.6000000000008989 0.7999999999996834 0.0 0.6000000000011432 0.8999999999996751 0.0 0.699999999999357 0.09999999999999476 0.0 0.6999999999995059 0.1999999999999396 0.0 0.6999999999996542 0.2999999999998602 0.0 0.699999999999803 0.3999999999997807 0.0 0.6999999999999513 0.4999999999997022 0.0 0.7000000000000999 0.5999999999996777 0.0 0.7000000000002484 0.6999999999996542 0.0 0.7000000000003967 0.7999999999996308 0.0 0.7000000000005455 0.8999999999996904 0.0 0.7999999999995252 0.09999999999993453 0.0 0.7999999999995779 0.199999999999812 0.0 0.7999999999996306 0.2999999999996618 0.0 0.7999999999996834 0.3999999999995116 0.0 0.7999999999997363 0.4999999999993656 0.0 0.7999999999997891 0.5999999999994334 0.0 0.799999999999842 0.6999999999995059 0.0 0.7999999999998946 0.7999999999995779 0.0 0.7999999999999472 0.8999999999997057 0.0 0.8999999999997209 0.09999999999987436 0.0 0.8999999999997055 0.1999999999996844 0.0 0.8999999999996904 0.2999999999994635 0.0 0.8999999999996751 0.3999999999992422 0.0 0.89999999999966 0.4999999999990288 0.0 0.8999999999996446 0.5999999999991892 0.0 0.8999999999996293 0.6999999999993571 0.0 0.8999999999996142 0.7999999999995253 0.0 0.8999999999995987 0.899999999999721 0.0
</DataArray>
      </Points>
      <Cells>
        <DataArray type="Int64" Name="connectivity" NumberOfComponents="1" format="ascii">
 0 4 40 39 39 40 41 38 38 41 42 37 37 42 43 36 36 43 44 35 35 44 45 34 34 45 46 33 33 46 47 32 32 47 48 31 31 48 30 3 4 5 49 40 40 49 50 41 41 50 51 42 42 51 52 43 43 52 53 44 44 53 54 45 45 54 55 46 46 55 56 47 47 56 57 48 48 57 29 30 5 6 58 49 49 58 59 50 50 59 60 51 51 60 61 52 52 61 62 53 53 62 63 54 54 63 64 55 55 64 65 56 56 65 66 57 57 66 28 29 6 7 67 58 58 67 68 59 59 68 69 60 60 69 70 61 61 70 71 62 62 71 72 63 63 72 73 64 64 73 74 65 65 74 75 66 66 75 27 28 7 8 76 67 67 76 77 68 68 77 78 69 69 78 79 70 70 79 80 71 71 80 81 72 72 81 82 73 73 82 83 74 74 83 84 75 75 84 26 27 8 9 85 76 76 85 86 77 77 86 87 78 78 87 88 79 79 88 89 80 80 89 90 81 81 90 91 82 82 91 92 83 83 92 93 84 84 93 25 26 9 10 94 85 85 94 95 86 86 95 96 87 87 96 97 88 88 97 98 89 89 98 99 90 90 99 100 91 91 100 101 92 92 101 102 93 93 102 24 25 10 11 103 94 94 103 104 95 95 104 105 96 96 105 106 97 97 106 107 98 98 107 108 99 99 108 109 100 100 109 110 101 101 110 111 102 102 111 23 24 11 12 112 103 103 112 113 104 104 113 114 105 105 114 115 106 106 115 116 107 107 116 117 108 108 117 118 109 109 118 119 110 110 119 120 111 111 120 22 23 12 1 13 112 112 13 14 113 113 14 15 114 114 15 16 115 115 16 17 116 116 17 18 117 117 18 19 118 118 19 20 119 119 20 21 120 120 21 2 22
</DataArray>
        <DataArray type="Int64" Name="offsets" NumberOfComponents="1" format="ascii">
 4 8 12 16 20 24 28 32 36 40 44 48 52 56 60 64 68 72 76 80 84 88 92 96 100 104 108 112 116 120 124 128 132 136 140 144 148 152 156 160 164 168 172 176 180 184 188 192 196 200 204 208 212 216 220 224 228 232 236 240 244 248 252 256 260 264 268 272 276 280 284 288 292 296 300 304 308 312 316 320 324 328 332 336 340 344 348 352 356 360 364 368 372 376 380 384 388 392 396 400
</DataArray>
        <DataArray type="UInt8" Name="types" NumberOfComponents="1" format="ascii">
 9 9 9 9 9 9 9 9 9 9 9 9 9 9 9 9 9 9 9 9 9 9 9 9 9 9 9 9 9 9 9 9 9 9 9 9 9 9 9 9 9 9 9 9 9 9 9 9 9 9 9 9 9 9 9 9 9 9 9 9 9 9 9 9 9 9 9 9 9 9 9 9 9 9 9 9 9 9 9 9 9 9 9 9 9 9 9 9 9 9 9 9 9 9 9 9 9 9 9 9
</DataArray>
      </Cells>
      <PointData>
        <DataArray type="Float64" Name="Mode_1_w" NumberOfComponents="1" format="ascii">
 -0.03631825071714716 -0.023005384983775783 -0.03631920569914064 -0.02300545011476785 0.00412043344611027 -0.00046917553069191945 -0.0008681376323262934 0.00037227990365006574 -0.0007764134868074408 -0.0001815517212062076 0.0002921945762110847 -0.0018942036479961488 0.004413259839405465 0.004413279081569745 -0.0018942333772342561 0.00029221939436892047 -0.00018154010013834111 -0.0007764240209192871 0.0003722633158758463 -0.0008681297416051983 -0.00046921558840656825 0.004120538407799827 0.004120556155311709 -0.00046923523784819137 -0.0008681330642619018 0.00037227932320075256 -0.0007764230573733672 -0.0001815478974559129 0.0002922074128581248 -0.0018942149765806904 0.004413274857531845 0.004413274047023554 -0.001894219251983352 0.00029219964429562194 -0.00018152413065705003 -0.0007764609021430705 0.0003722980465362204 -0.0008681094044241266 -0.00046921661050761685 0.004120456934260974 -7.814095506129281 -12.318945028498298 -17.29606973407368 -19.12929226903602 -20.17917437926027 -18.565531219044548 -15.583546587335254 -11.219819062348689 -4.70728886958425 -12.318907546031918 -22.397877235365243 -31.241713417693877 -36.48496971922483 -38.27406391784567 -36.71887162712642 -30.502762745982594 -23.496011415391447 -11.21982957877948 -17.29607901050752 -31.24164566567319 -42.581683710217774 -49.70937492503298 -51.54065439737711 -49.776855780348214 -41.2043356109499 -30.50282541700726 -15.583596131570905 -19.129277105930978 -36.484948053808424 -49.70922279155584 -59.16752653579929 -61.10395606824644 -58.90287422886277 -49.77697064077642 -36.718939824948635 -18.565631863138417 -20.179095580267948 -38.27397076038307 -51.54061768994099 -61.10387401580467 -63.923627683899454 -61.10412148964539 -51.54099116044035 -38.27436357528852 -20.179308206877895 -18.565507606024198 -36.718721801057015 -49.776733863091536 -58.902823439936455 -61.104162111866515 -59.16799210233742 -49.70980954324995 -36.48548519865333 -19.129554143977774 -15.583536737513963 -30.50271190565369 -41.20424339001735 -49.77691192867321 -51.54090691518662 -49.70984521598262 -42.58226445975394 -31.242279638145764 -17.296408676036005 -11.219790111527246 -23.495985474701122 -30.502747213915555 -36.718972279571005 -38.274331165815475 -36.485428925635816 -31.24217136358356 -22.39835705904284 -12.319231500676171 -4.707274587256399 -11.219823258865418 -15.583555689838665 -18.565588067641716 -20.179299180950707 -19.129561576504038 -17.296381468471058 -12.319190476810274 -7.814301939098989
</DataArray>
        <DataArray type="Float64" Name="Mode_2_w" NumberOfComponents="1" format="ascii">
 9.040408284472934e-8 -0.0630053341868652 2.5897108505697404e-10 0.06300500301667805 0.0006416053235418421 0.00021091753879436866 0.0009885036286123438 -0.0007824840252356655 0.000457643004532596 -0.002884537441348787 0.001942417050062247 -0.007148695447061606 0.012483873018838399 0.012483882673030803 -0.007148711545816298 0.0019424338706101147 -0.002884536977884905 0.0004576144744677813 -0.0007824503411225956 0.000988468911342075 0.000210939688613619 0.0006416063792531875 -0.0006416084758273098 -0.00021092559641895046 -0.0009884852067117923 0.0007824773337517834 -0.00045764283668566093 0.0028845433903087756 -0.0019424507344177344 0.007148696235908628 -0.012483826389797344 -0.012483807556477124 0.007148649678116592 -0.0019424058300475352 0.00288451298556315 -0.000457620419024136 0.0007824940951094093 -0.000988515068734192 -0.00021090133368098453 -0.0006416321564937253 1.908855248114185e-5 2.9990514437840425 9.394874177844565 19.417579394867047 28.860196191396124 35.89395209856339 35.18648219813261 29.645956817832058 12.858392778654398 -2.998988182781815 6.153939355855473e-5 8.703062631649894 26.378969677976205 43.60880111796328 60.8983233512005 61.695677303973156 56.621323692648566 29.645967486420307 -9.394808151464071 -8.702913121430868 0.00011674111896637065 22.84728565508532 43.67093212418811 66.25029295171556 70.13233331594628 61.6955914407353 35.18641169872677 -19.41750235780714 -26.378867998860336 -22.847104517895733 7.416698794175433e-5 26.792699770973712 53.52941173077683 66.25018146629408 60.898224930201124 35.89386513650196 -28.86016032655871 -43.60872321223773 -43.67081826707843 -26.79256142064032 1.2747802344487675e-5 26.792664782155935 43.670730476592254 43.60856984201636 28.86006303595728 -35.89402343357706 -60.898398024661816 -66.25039439761812 -53.52942863502407 -26.792671142004966 -8.856355708714585e-6 22.847180585775114 26.378840011294105 19.417461638725452 -35.18661358902367 -61.695863303222616 -70.13254613329258 -66.25038907256997 -43.67088952367744 -22.84726953329975 -2.7331163862067706e-5 8.702922074255868 9.394819903525283 -29.646102171861354 -56.62161632133832 -61.69591756634053 -60.89851636194473 -43.60878034149641 -26.378956091677566 -8.702975144470598 -7.491631905228059e-7 2.999001301060102 -12.85846081382341 -29.646120613284765 -35.18663057659698 -35.894080432163335 -28.860246798023464 -19.417556317648273 -9.39487525356047 -2.9990127124108428 0.0
</DataArray>
        <DataArray type="Float64" Name="Mode_3_w" NumberOfComponents="1" format="ascii">
 -0.10123796885783215 -4.0482425852696946e-7 0.10123813559594744 -2.1452662563346832e-7 0.011043185583472172 -0.0024723708527103656 -0.002354269525792362 0.000334227271299559 -0.0013206773661844971 0.0007315554088264018 0.00028066024791407096 0.0006428165899548893 0.00014861541930114624 -0.00014845185856296746 -0.0006429169943126842 -0.0002806185925475748 -0.0007316311024300967 0.0013207365729145698 -0.0003342754371679644 0.0023542910090930667 0.002472412073929861 -0.011043226873883516 -0.01104320594622494 0.002472378372736485 0.0023543079821662406 -0.0003342726892452754 0.0013207310492393115 -0.0007316371729887921 -0.00028061149297019055 -0.000642897660953819 -0.000148488582821602 0.00014857775250460564 0.0006428383263916593 0.0002806460478425509 0.000731595957220567 -0.0013207222010052217 0.0003342517297453946 -0.0023542567131509644 -0.002472403673664596 0.011043203087860942 -21.85115879889523 -31.586094471571297 -37.89159013594796 -33.50149416658036 -25.926959425147984 -15.270368080231266 -6.756399098365287 -1.6312008319927125 -4.3586786074768055e-5 -31.586072167664167 -54.35749351787158 -64.12559788694034 -60.29232855601104 -44.87254822522628 -26.522667754501242 -9.381690430830776 -0.00018580255737784328 1.6309979276520687 -37.891626913267714 -64.1255703277288 -72.00085698904614 -64.63665037247087 -43.16440504437704 -19.703470625161152 -0.00027434021704719394 9.381273507291095 6.756168255198387 -33.50155819719908 -60.29240297996072 -64.63662981076028 -53.79839171357546 -27.448308145541958 -0.00016568860463204394 19.702933320247435 26.5222279843814 15.27010621218879 -25.92700695294227 -44.87262530930815 -43.16453876119783 -27.448343713128725 -0.00020469477956667822 27.447989215814225 43.16412024984288 44.87223591955256 25.92676957414263 -15.270484343983155 -26.522797175197354 -19.70360128546274 -0.0003396594883719887 27.447968725666424 53.79812276556015 64.63648924649713 60.292232071270696 33.5014185820817 -6.7565129798009425 -9.381875277358436 -0.00039687527007017037 19.70279883272599 43.16403651566825 64.63645665070537 72.00080235768628 64.12557755776321 37.891632264492635 -1.631290355995744 -0.0003713310105350608 9.381139857578804 26.522112681137372 44.872185562537105 60.29221420988501 64.12564710751487 54.35753837654391 31.586122882409686 -8.243480786704521e-5 1.6309117921801797 6.756079215593732 15.270057822019675 25.926743389406678 33.50139193630246 37.891625286579576 31.586157064236914 21.851194337852426
</DataArray>
        <DataArray type="Float64" Name="Mode_4_w" NumberOfComponents="1" format="ascii">
 -0.12957686382650654 0.09186247211268378 -0.12957613558494524 0.09186267028959975 0.013536489075018634 -0.004543063259832849 -0.002969390043956186 -0.00022817732913659448 -0.0007341555775356941 0.0031920869951717282 -0.0006249386751519452 0.010110538962418656 -0.017042747639802215 -0.017042753442619348 0.010110559786967984 -0.0006249957791270299 0.00319213987176112 -0.0007341954184544264 -0.00022812609739307079 -0.0029694338208021936 -0.004543003937997511 0.013536396015296721 0.013536409223175026 -0.0045430305345842996 -0.0029693999245196797 -0.00022816445855454318 -0.0007341681559627923 0.0031921168849822425 -0.0006249739642032061 0.01011056020129848 -0.01704277588817611 -0.017042778378895142 0.010110552697975162 -0.0006249510973767154 0.0031921113291869716 -0.000734165779622661 -0.00022816116508429145 -0.002969403655015223 -0.004543062675565637 0.01353648709835498 -28.059929616118524 -36.89436508906047 -35.37033024344728 -17.384354917946798 6.274436852739495 29.1604357998964 41.41468957017963 39.97686832471303 18.8976041192789 -36.89437556427215 -61.721910963315636 -60.110618763976966 -38.42425111116637 1.7043553939812757 40.25333328095133 63.84462533481262 69.60765110000732 39.976848897750536 -35.37037056201938 -60.110656948333805 -57.89937120771166 -37.86313967123819 -0.4521167310492411 39.95637370574589 61.69526254532158 63.844612018988485 41.41464548249559 -17.384456408127335 -38.424369532770186 -37.863250117175326 -28.607527846430433 -6.264117125214485 17.2947395967172 39.95635960011954 40.2533186060514 29.160429854130253 6.2743000577263235 1.7041638744753482 -0.45229299516750215 -6.264204329959258 -3.7990925951940557 -6.264023348498307 -0.4519554444106958 1.7044232887987707 6.274480975651177 29.160277245098985 40.253070079558526 39.95614783321777 17.294568584557425 -6.264015946196193 -28.60731282332238 -37.86284716493615 -38.42402016541232 -17.38425122394304 41.41457070720774 63.84441216945464 61.6951007769665 39.956242558420485 -0.4519981184025026 -37.86285073813606 -57.89897026587945 -60.11029275976109 -35.37015666566039 39.97678606796061 69.60750791901667 63.84447413044531 40.253255357678434 1.704415610148046 -38.42398836454222 -60.11025950814944 -61.72153639734122 -36.89416708498617 18.897562172182894 39.97678435864479 41.414568726139294 29.1603941558173 6.274462881879861 -17.3842268615764 -35.3701569269135 -36.894148922186474 -28.05977298473906
</DataArray>
        <DataArray type="Float64" Name="Mode_5_w" NumberOfComponents="1" format="ascii">
 -2.0053746886104406e-7 9.836422087830425e-8 -5.102318714998192e-10 1.9217144973977353e-7 -0.0030198743438347338 6.856993973847467e-5 -0.0013494307526795007 0.004920144311772089 0.001232031049339604 0.003514556370142912 -0.0018893565702544292 -0.0014153169785940274 -0.000706360185815847 0.0007063344273186713 0.0014153386490321888 0.0018893349784896074 -0.0035145194939212874 -0.0012320584860615914 -0.004920143880880208 0.0013494297413794273 -6.856997681549135e-5 0.0030198891096829186 -0.0030198878431347206 6.857237159432681e-5 -0.0013494266453509267 0.0049201422606931725 0.0012320286180095704 0.0035145657172868535 -0.001889405966584937 -0.0014152626067059691 -0.0007063911932142215 0.0007063105516543975 0.0014153632228253526 0.001889319780528316 -0.0035145199729091922 -0.0012320462451644249 -0.004920146199336679 0.0013494331807008518 -6.858808478659669e-5 0.003019913792252553 -4.361807925244198e-5 -12.221541951951492 -31.35891321051228 -50.887191677339864 -53.67966894780372 -42.65120982513264 -20.969020951770688 -5.451021177132172 3.9386987603186e-5 12.221440324221879 -9.536672721269658e-5 -28.641984219509467 -66.10769069029732 -79.16462623364119 -64.91807167584061 -30.75964129265017 3.148820750125276e-5 5.451151044174508 31.358832325968894 28.641847548323543 -7.810101104446229e-5 -37.57292323148562 -53.33254581593734 -32.45807658063556 0.0001389592762475206 30.759747912506054 20.96902580827655 50.88714593111664 66.10762931054693 37.572885978348125 -4.677325081859176e-5 -25.043953976258233 8.190039026608143e-5 32.45804866561692 64.91820728703159 42.65122287278465 53.67967739644807 79.16462342557598 53.33263288243738 25.044067772304146 -3.610352330917452e-5 25.04422979355816 53.332605727523884 79.16457031666913 53.67964394949388 42.65128444809033 64.9181635900465 32.458093578502215 0.00010933245909871613 -25.044091397022772 -3.224091676043912e-6 37.572924737407625 66.10764529831899 50.88713782512234 20.96909112677631 30.759778465311985 -4.977433401120283e-5 -32.45809185199025 -53.33254288858213 -37.57288702829561 -1.9481683072918844e-5 28.64186185890379 31.358853835481312 5.451122563723663 4.6769607909222106e-5 -30.759706339671443 -64.91822504110347 -79.1646885027964 -66.10767243877694 -28.641880329177333 3.755471231715833e-7 12.221476654816174 2.095816650714457e-5 -5.451064801798272 -20.969048220031382 -42.65124715299816 -53.679718743426214 -50.88720881943043 -31.35888611368808 -12.221484469096351 0.0
</DataArray>
        <DataArray type="Float64" Name="Mode_6_w" NumberOfComponents="1" format="ascii">
 -0.1557721491960071 -0.08145580620179937 -0.15577243649639205 -0.08145595510020996 0.015571079176027274 -0.0059717462663929285 -0.0012438065958763963 0.0007613193240104229 0.0026355943140069244 -0.002065108153978359 0.002786879797584071 -0.011277451676915438 0.016134968939526616 0.016134972290625084 -0.011277472992505125 0.0027868967984734246 -0.002065083236861848 0.0026355670226777222 0.0007613326184702057 -0.0012437902779083908 -0.005971776019502066 0.015571110297139248 0.015571112134725685 -0.005971751730883234 -0.001243846735056282 0.0007613854329945656 0.002635536138450974 -0.002065078581003757 0.00278688929981457 -0.011277456619461512 0.016134971682172483 0.016134975244928518 -0.011277445134792272 0.0027868568574491593 -0.00206506100665661 0.0026355361655704254 0.0007613507880992659 -0.0012437820590439827 -0.005971780902382188 0.015571093719113036 -33.82765769749053 -42.01835150466244 -38.88293779283152 -27.086351321293876 -21.924481337029352 -27.458045681675156 -33.961782843109255 -35.871812868932835 -16.633978297412163 -42.018342279542175 -64.7502083791995 -52.11346984401894 -33.19805804357952 -15.311036611661612 -27.641972010221146 -40.56358923302809 -58.894067853755395 -35.87178383644413 -38.882996219909614 -52.113435081026886 -24.015790538056873 7.159268633742239 28.432973908535878 7.751278874431412 -18.26611576421928 -40.563541389284 -33.96171517255892 -27.08639707414847 -33.198131212518255 7.159403192840175 50.42883915970281 78.40838747575624 56.95282417881589 7.75135210482619 -27.641864059663934 -27.45801823791912 -21.924446478669786 -15.310995311906558 28.43295164069982 78.4084359707214 96.44363718007365 78.40837719856752 28.43285536972602 -15.311008304765439 -21.924477759827234 -27.45804860532493 -27.641872334874062 7.751401192699167 56.95285050917044 78.40839386289613 50.428840915743564 7.159228199106962 -33.19821323967521 -27.086397164273492 -33.96176014213134 -40.56353044289363 -18.2659866538666 7.751431477026459 28.432958628794164 7.159235085648998 -24.015920237566004 -52.11364929795384 -38.883083252892334 -35.87178399671869 -58.89404390904728 -40.56342775367337 -27.64178983420898 -15.310886152240373 -33.19809266612188 -52.11351842976086 -64.75035271807806 -42.01843982571512 -16.633944714084443 -35.87176393579832 -33.961664675287345 -27.45793828872042 -21.92439403762369 -27.086350735006 -38.88298785708991 -42.018404482339676 -33.827720540596545
</DataArray>
        <DataArray type="Float64" Name="Mode_7_w" NumberOfComponents="1" format="ascii">
 8.62979649716168e-8 -0.164803867063839 -7.972164185112516e-11 0.16480380463768024 -0.0035819465809682717 0.0006163889412757642 9.671619280701146e-5 0.0064490276082743835 0.0028919593142788308 -0.0019676697554571695 0.002126004330473435 -0.022727267470285507 0.031294996241429215 0.03129499255865524 -0.022727241365105434 0.0021259428156020477 -0.00196758612122879 0.0028918769425790246 0.006449057359863752 9.672251348765474e-5 0.0006163904090277334 -0.0035819470500262148 0.0035819471264304944 -0.0006163896866358734 -9.672076802327467e-5 -0.006449056701780542 -0.0028918975677456158 0.001967625160697078 -0.0021259792248588018 0.0227272541787842 -0.031294988785755415 -0.031294986645552914 0.02272726206985407 -0.0021260101082765884 0.001967664945914062 -0.0028919384882847175 -0.006449040791881042 -9.670995889622406e-5 -0.0006163905773764727 0.0035819361417574187 1.9168262706771068e-5 -13.51730696422959 -30.478312016822606 -38.8767306819903 -19.528411697536125 17.327474791670163 53.416941457044345 68.25532720928562 33.827956246379564 13.517343831572301 2.9046081330189304e-5 -30.364825361193326 -59.72939144574368 -53.55051534387155 3.142704503209234 56.3902337265075 106.7446348533538 68.25534402456454 30.478351966812056 30.364875101191068 3.131990489285972e-5 -27.75802611403672 -53.23373813948491 -16.423706765143443 17.240553319142837 56.39020583505662 53.416972166736564 38.87677155156853 59.72941843222917 27.75803291882376 -4.1271719190419036e-5 -39.83956226582278 -38.34503057280656 -16.423710841606418 3.142669434544168 17.32746898541808 19.52847052784042 53.55056783093016 53.23380765146907 39.83955283573424 -3.819556085336997e-6 -39.83957863370824 -53.2337838119646 -53.550567007020625 -19.528395947584784 -17.32745215777718 -3.142632343725364 16.423708321017887 38.345018111555426 39.83959461147572 -2.156908453834104e-5 -27.757971346447235 -59.729476285179494 -38.876768343440894 -53.41695744803086 -56.390198902094454 -17.240443600323292 16.42368244265128 53.233831604689314 27.757993905585646 -2.3382173523386994e-6 -30.364837442895166 -30.478378556739212 -68.25535088931076 -106.74470130406947 -56.390216042177755 -3.142666704815622 53.550502718366836 59.72948496380947 30.364841641919195 1.8874703072938924e-6 -13.517348222388753 -33.82796946697436 -68.2553691913305 -53.417015292211794 -17.327465414645754 19.528372616027376 38.876743495350446 30.47836970399942 13.51734660286586 0.0
</DataArray>
        <DataArray type="Float64" Name="Mode_8_w" NumberOfComponents="1" format="ascii">
 -0.2720474569389242 3.689724530928374e-8 0.2720473728662039 -3.553154511995644e-8 0.02606282335235869 -0.01417634631692064 -0.000217966315428375 -0.0006238067799624695 0.009815341841584085 -0.001505696836101964 0.005775931687525575 -0.006578880752830279 0.001055604029432921 -0.0010556222577975426 0.006578912014256003 -0.005775961424871016 0.0015057207491243247 -0.009815353318155529 0.0006237943316065739 0.00021796279800323582 0.01417635911012917 -0.026062823385149685 -0.026062813059798032 0.014176350271351897 0.0002179561681553509 0.0006238199611481994 -0.009815378585731442 0.001505719764008893 -0.005775956829352216 0.006578915446897937 -0.0010556197045685572 0.0010556008364270473 -0.006578861044999161 0.005775887847445506 -0.0015056422849538886 0.009815297968440988 -0.0006237773008706207 -0.00021795747218515888 -0.014176361682001168 0.026062825876572174 -59.26253874588856 -65.22669633597306 -37.59692391148537 7.135451029021118 41.550807820473835 41.861526470373626 28.608643570405885 5.609732284204015 -9.025669183774771e-6 -65.22670957415183 -102.29097728303208 -60.41755752515047 -5.324119889190415 58.18061427611043 58.483738981435025 37.43074368678719 -3.545205327488748e-5 -5.60973536555024 -37.5969942185681 -60.41756094912916 -21.766459169174325 13.6264075627672 48.96570610691315 33.2433404830138 -0.0001172420179527022 -37.43088267257304 -28.60871724210543 7.135366899450973 -5.3242195728302315 13.626447081206456 24.361299131674212 27.57864473689617 1.5104921761842464e-5 -33.24356132233655 -58.48389144851296 -41.86157502549477 41.5507682134568 58.18059905052772 48.96569727121739 27.578633999697132 5.914638989867915e-5 -27.578519561836792 -48.965718068144774 -58.180802565738446 -41.550925346959126 41.86147159783956 58.48371672490038 33.24342400145671 4.833199008012547e-5 -27.5785246874642 -24.361237544673095 -13.626372367788706 5.324136857109488 -7.13548951245823 28.60865789587422 37.43076953099602 -2.9250683794784334e-5 -33.2434663712275 -48.96565997068714 -13.626352594395701 21.766435690133797 60.417509651965595 37.59690767166374 5.609743326678234 -2.094556051303125e-5 -37.430813501809666 -58.48380793268057 -58.18070645366964 5.324169115678856 60.41757686321651 102.29095831251698 65.22666631475985 7.493222864470878e-6 -5.609720618319449 -28.6086852195091 -41.86150652570088 -41.55084873592935 -7.1354644455649145 37.596935301145834 65.22669348680014 59.262520358740005
</DataArray>
        <DataArray type="Float64" Name="Mode_9_w" NumberOfComponents="1" format="ascii">
 -0.1520466992934964 -0.17897570343154415 -0.15204676703937203 -0.17897565696742918 0.013852492490639013 -0.011890652661455139 0.004606518861494635 -0.0014865365914961848 0.010897513958764064 0.009283256482874985 -0.005344337850179698 -0.028722785772872232 0.03760559570870233 0.03760560478744325 -0.028722792424768908 -0.005344330638973407 0.009283254325653271 0.01089749659256281 -0.0014865594295074699 0.004606555266049171 -0.011890667819299868 0.013852500150248147 0.0138524795821661 -0.011890641382020034 0.004606544187891269 -0.0014865898501017466 0.010897595818025735 0.009283176785957633 -0.0053443460105421624 -0.028722729222994306 0.03760555696127283 0.03760554289580992 -0.028722714407393185 -0.005344372119970872 0.009283211877646037 0.010897593810573305 -0.0014865820675130101 0.004606541551975603 -0.01189065313830666 0.013852483130476033 -33.25369493154906 -29.33156599759712 3.7985822576305077 36.891930332431805 56.37396523753093 25.306522700063894 -47.12804261765596 -78.69970550981998 -36.19600392157698 -29.331601778039484 -54.50872668394483 -15.867680972309124 29.098041584141637 57.987123291692654 59.53028978423301 17.60504155414003 -119.74106598673308 -78.69973950881234 3.798518876234527 -15.867742121080713 -24.54176161347414 -1.6948137370588583 40.48911483537887 -31.889301184583076 33.58430723844356 17.604967790016545 -47.12811189687515 36.89186132017397 29.09803957164932 -1.6949481486421758 -87.89450890465335 -7.283698270492951 48.91802366122704 -31.88933879985582 59.530122153822454 25.306378418591525 56.37384495833077 57.98713853566025 40.489423665534964 -7.2839793834653825 -168.08549853270753 -7.283540258801844 40.489241030698146 57.98705399163496 56.37383090011195 25.306524639416214 59.53007099652827 -31.889191229743588 48.91847913488389 -7.2838945384940965 -87.89429266245462 -1.6946045615216108 29.098060880224857 36.891840221160706 -47.12802718941084 17.60521501612236 33.584070047319486 -31.88925055758725 40.48947418539225 -1.694808565161289 -24.54159640288636 -15.867600542253925 3.7985479366131245 -78.69977236025709 -119.74105619781052 17.605147730993558 59.5298932633644 57.98695950001819 29.098045128928337 -15.867698621978827 -54.50869580555887 -29.331569355085108 -36.19600839870544 -78.6998004448112 -47.128085340620615 25.30641151383292 56.373692665508045 36.89175398392661 3.7985058357945745 -29.331615357969476 -33.2537102516285
</DataArray>
        <DataArray type="Float64" Name="Mode_10_w" NumberOfComponents="1" format="ascii">
 -2.236182622658404e-7 0.10826419778352274 -5.959393968639194e-10 -0.10826443574179033 -0.007784765157977167 0.003953032250089164 0.004461144793150853 -0.006472039403142261 0.02103345799732666 -0.011202260627199243 -0.025826338436717482 0.04822602142632039 -0.039652880901429786 -0.03965285931613855 0.04822596574366125 -0.02582629190556395 -0.011202225962667622 0.021033369762910835 -0.006471956792454854 0.0044610926024883256 0.0039530449514082995 -0.00778477385775759 0.007784777272451706 -0.003953063014952419 -0.004461072017683608 0.006471936310228672 -0.02103334181632846 0.011202269072075879 0.025826243047679973 -0.04822599720237819 0.039652916731515046 0.03965294122796005 -0.048226052620314326 0.025826290716222746 0.011202314826101614 -0.02103345558216616 0.0064720176483465605 -0.004461112271282608 -0.003953069700893352 0.007784807987211254 -4.878109572864398e-5 -25.12747585544966 -43.264950347506336 -50.80404928127124 -53.27959923659086 -5.33418005186083 -6.4004504789612735 -61.26792168340362 -20.050190985298407 25.127383572600113 -6.953058542022936e-5 -50.93368386014081 -32.226176077949496 -20.60728852946268 -69.13134356951828 60.13631800931733 -27.80730547901891 -61.26790669412036 43.26492689162214 50.93367432075958 1.878401273646444e-5 -70.06516371855523 112.39834563110564 64.42843629272168 -58.32319546784893 60.136274780066024 -6.400522719290832 50.80404358157865 32.22623869211261 70.06534219375679 -6.86556395424703e-5 -85.060787204241 202.3290560299347 64.42832611022489 -69.13111577830969 -5.334177909816287 53.279641060983025 20.60726204029321 -112.39813916632366 85.06095598543152 -0.0002310923963907378 -85.06066973685574 112.3979983634931 -20.607343952814645 -53.27943751347498 5.334214167915224 69.13142370169437 -64.42868109333143 -202.32892288488162 85.06065762065886 -0.00021559059798452422 -70.06499854419478 -32.2262482408493 -50.803975583742265 6.400329504085987 -60.13621653242834 58.32334314151532 -64.4285458974991 -112.39793075099773 70.06493810526077 -5.5706792473758665e-5 -50.93353881166475 -43.264843923393045 61.267781973239465 27.80703407111192 -60.136150858517354 69.13130230136996 20.60741569037214 32.226316174248346 50.93354252603587 -1.4033111642988205e-5 -25.127380107310035 20.050144457180977 61.267777086663436 6.400430324688087 5.334280809612489 53.27960554401575 50.80408298129604 43.26491338938428 25.12739328263087 0.0
</DataArray>
        <DataArray type="Float64" Name="Mode_11_w" NumberOfComponents="1" format="ascii">
 -2.2269477753196126e-6 0.025119487532611846 6.804239827692166e-9 -0.0251215710028757 -0.005129633462019762 0.002303138061410809 -0.003983722586167818 0.028343262904061774 -0.039066731060195835 0.01648468708893963 0.02525881731553319 -0.041099328431861225 0.023870269756600296 0.023870267789317754 -0.041099386720793774 0.02525884089740757 0.016484757871695982 -0.03906670853901307 0.028343292303284553 -0.003983820316040052 0.002303217982847071 -0.005129793248200384 0.0051297678199682135 -0.0023031706233785855 0.003983583657998866 -0.02834311716124429 0.03906738124399838 -0.016486228939910398 -0.02525720405944582 0.04109842297130809 -0.02386988173912632 -0.023869861537565127 0.04109844508686597 -0.02525719471094072 -0.0164863552781874 0.03906743460690041 -0.02834314906239151 0.003983667773294442 -0.002303318086486263 0.005129989529369635 -0.0004895375478193968 -17.834730722359964 -39.63580050718948 -40.482945949669165 6.992809664960503 -35.007239095530885 -38.29240190053223 19.357602516693394 -8.48756454109181 17.833799623711005 -0.0005921085255414018 -16.4297152626665 -77.65219128261197 -32.013261504239466 101.26238705900609 -92.40505267815504 -34.05115122704412 19.357726307020496 39.635406440914394 16.429306007950018 0.00095676169119821 87.54926523855762 -107.26070866563289 29.980509143832908 168.1735724078182 -92.40455535223592 -38.2920091699378 40.483268026394214 77.65173676871729 -87.54954807364918 0.0025628662147120654 200.35197875314972 -118.95949289980005 29.98043920966972 101.26295147069415 -35.006638122073035 -6.9930202779262025 32.015514541433674 107.25906214393727 -200.35399491994337 0.0023929515963504264 200.3514809982786 -107.26107912686874 -32.01301487196728 6.99327323160299 35.00575566440188 -101.26389781411747 -29.976343811818932 118.9567904112537 -200.354618760736 0.001399666470978069 87.54848949342689 -77.65214214245314 -40.4825711620108 38.292853571874055 92.40281299661882 -168.1755847130728 -29.976205964257503 107.25877259442373 -87.55041025111304 0.00041152250941279124 -16.42951658023993 -39.63540798378744 -19.357969762616573 34.05280755603112 92.4033126973486 -101.26317307767414 32.015994361254855 77.65175036465048 16.429279467637038 -8.734847252097224e-6 -17.834170834308978 8.48712159801067 -19.35786946852988 38.2932675203029 35.0064152613474 -6.992395530166328 40.4836978405519 39.63568641211679 17.834212382117848 0.0
</DataArray>
        <DataArray type="Float64" Name="Mode_12_w" NumberOfComponents="1" format="ascii">
 -0.10330077237160823 -0.10262887245299329 -0.10141109157659708 -0.10262819578282796 0.007932339474837284 -0.0034231658953307164 -0.006700648242182855 0.006755141066616916 0.03236319458066762 -0.07285640337635113 0.07504272746455974 -0.04288227598777461 0.019078961810940438 0.019064657052045436 -0.042908750512361746 0.07503759377925096 -0.07276093311810505 0.03235750285730495 0.006759202469167573 -0.006760024805067962 -0.00333460490430177 0.007773029929623307 0.0077729232799950716 -0.003334562108996016 -0.006760102891631358 0.0067598110177327815 0.0323566694545864 -0.07276061830781792 0.07503816683882193 -0.04290964486574277 0.019065169306476722 0.019079456903878994 -0.04288312614738926 0.07504321254040622 -0.0728559713935963 0.03236228046160815 0.006755803251679546 -0.006700758606711103 -0.0034231373539564073 0.007932254658104777 -22.74725720650014 -20.983677257689585 -2.411591026873516 34.62971880306243 16.448150018375912 -40.42643158701616 37.217439564484586 -13.862603247215109 -21.830937811428136 -20.983988864671158 -27.931906891076142 -16.13882260650958 -18.19389326774857 123.77901609331397 -38.03138860211629 -84.4186522850266 72.47012976938049 -13.758007201775166 -2.412365475686382 -16.13902173532441 62.0758285810686 -52.799033067548926 -89.70456445703141 199.36564914018788 -88.63668125784619 -83.97108786424597 37.57317060462047 34.628883536228926 -18.19551227673135 -52.79700711637303 181.13728411037013 -122.64177616900227 -127.50708395513058 199.39336802607812 -37.4376558911182 -39.85792346483668 16.44836474336508 123.77841135385158 -89.70694250560922 -122.63741466357435 222.47767590264127 -123.11960228680276 -89.99633826705062 124.0625058892566 16.927000398871378 -40.427201322918144 -38.02914790140659 199.36627588282997 -127.50981190325867 -123.11543296397805 180.11889851828943 -53.49621630451014 -18.161507800092956 34.958817352100816 37.2166351887395 -84.42062643547183 -88.63308229811717 199.3940453799035 -89.99874189461327 -53.4943330048062 61.55991245137078 -16.06284974749483 -2.1182964441850904 -13.862210006285352 72.46940516572548 -83.97313217486987 -37.435473280606004 124.06180202065465 -18.163213448519492 -16.063186407549132 -27.443540961245894 -20.569946638631368 -21.831150518176337 -13.757604112164492 37.57235483555733 -39.85859817341206 16.927207244226487 34.95796752739516 -2.1191459075112538 -20.570324109776262 -22.33291850238778
</DataArray>
        <DataArray type="Float64" Name="Mode_13_w" NumberOfComponents="1" format="ascii">
 0.19762736422138524 -0.0004889119299015026 -0.19860352935656125 -0.0004894598444388778 -0.016666318670196367 0.009270710533385278 -0.006258535377194963 0.00045888388511064547 -0.0004408717060386476 0.009658525926271158 -0.00017691637674273282 -0.0029822912132149017 -0.0014081509526924045 0.0015901843812272253 0.0025728340311616488 0.0008928746059219477 -0.010352809799632556 0.0007491180336935823 -0.0003941484025748958 0.006194293094064731 -0.009302887991993702 0.01674114053460799 0.01674120616789797 -0.009302905824979425 0.0061942960546615845 -0.00039440621584546084 0.0007494820244855905 -0.010352940862947638 0.0008925836193435487 0.002573269825323144 0.001589953696084232 -0.0014083653445734858 -0.0029818886130956795 -0.00017718193711133853 0.009658395100383107 -0.00044051459748267464 0.0004586120936858219 -0.006258496721829722 0.00927068412900216 -0.01666626151589285 43.33202161870422 43.273181455741806 30.73401454632449 34.67292654849301 50.286835044965656 59.422372360143505 37.47556882629793 10.901753925457944 -0.1041363416991542 43.273375786965275 51.067325967100224 7.877115464939624 3.3031060874160403 30.31273343910842 62.07122429185872 46.52186699354476 0.34550429886414247 -11.033162665820331 30.734437608714646 7.877328444704452 -53.80347549146047 -73.36188856049743 -31.020254409989857 3.8626398623801497 -0.42195365341452373 -47.325944065173516 -37.11929434769965 34.67337302503175 3.303902322540329 -73.36274586023632 -105.92095771556525 -50.69506330555722 -0.6085776698393188 -1.9607106209033833 -62.4302182233689 -59.80567070500446 50.28682420145634 30.313092714076767 -31.019262341649892 -50.69712550876023 1.0610737741356477 49.525285561031076 30.162163099840715 -29.131367120424745 -50.12777954455469 59.42274021130132 62.070220149213576 3.862253254548048 -0.6075904556681644 49.523204808615766 107.64395712494506 72.85598767498958 -3.4774236155065745 -34.341628801904406 37.4759994171949 46.52282748001205 -0.42359720365180337 -1.9611463270128933 30.1632194327632 72.8549675196525 54.393152984112895 -8.030950037927308 -30.756154172274446 10.901629856838177 0.3458854695455737 -47.324895395217325 -62.43122997725993 -29.130920127678948 -3.4765058764215775 -8.03065290618944 -51.33135671560719 -43.47155930415019 -0.10398571687803272 -11.033300642669163 -37.11882157113306 -59.80525832972903 -50.12776088850257 -34.34112626477131 -30.75562996671184 -43.47131604266232 -43.54698640844821
</DataArray>
        <DataArray type="Float64" Name="Mode_14_w" NumberOfComponents="1" format="ascii">
 -4.40529277336093e-9 -2.3921228598866693e-7 -1.971958049919253e-9 2.62588271858237e-7 -0.013074717749042904 0.007854943673906474 0.005186266615169305 0.01695332211790978 -0.013121575722328898 -0.013325535077908925 0.0052426319403532555 -0.003965027119779825 0.006261517481852832 -0.006261449283867536 0.003964999932322055 -0.005242691762041101 0.013325608698811017 0.013121574081622078 -0.016953335953151568 -0.00518626529452849 -0.00785495537313612 0.013074731103057907 -0.0130747218227892 0.007854925588084002 0.005186335608285015 0.016953268538530464 -0.01312159458782464 -0.013325500049692086 0.005242563016875433 -0.003964914073264118 0.006261413277551129 -0.0062615343402035745 0.003965051712486843 -0.005242643652076219 0.013325524581584728 0.01312158691193184 -0.016953328866522916 -0.005186250753428519 -0.007854955728457586 0.013074722327442454 -7.598339712754082e-7 -40.66538961161764 -65.17392960399181 -41.23167814924104 35.187891120862936 68.68764054811828 44.44169962062436 20.128599500520412 5.2664167723241385e-5 40.66539122805789 -1.98919623589732e-5 -67.97295444034948 -84.3262633595045 -11.983839964074253 101.76834417854191 58.119816094331554 0.00014262262841480654 -20.128394060803032 65.17395637229933 67.97293441586729 -4.8477342156392103e-5 4.126812473623407 -40.838217050685934 9.016746674601574 -0.00013877931319566212 -58.11993582642043 -44.441665799549945 41.231697289064606 84.32629392201781 -4.126855077523037 1.643001229447861e-5 25.307433749879156 0.00010014911070558307 -9.016792608664732 -101.76844415587237 -68.68768200307254 -35.18788678567542 11.983845770898192 40.83816027513083 -25.307403062234815 2.1866879584357264e-6 -25.30740943366405 40.83830141554227 11.983623263627196 -35.187980989792514 -68.68766869774834 -101.76834087707273 -9.0167783251902 -7.643849468205297e-5 25.307514405883815 -5.2740708912283124e-5 -4.126605740195315 84.32640222404228 41.23161762860993 -44.44171843307072 -58.11988007509324 0.00014634060436307538 9.016687860482213 -40.83826157822471 4.126705668904015 -0.00012586541895792878 67.9730486799928 65.17401898638664 -20.128581046081894 -0.0001627947332278429 58.1199113258826 101.76851683458386 -11.983833155166275 -84.32630710393583 -67.97302221031529 -2.0612541069094072e-5 40.665430260315304 -5.016303439392944e-5 20.128409530621326 44.44158482053587 68.68772583729299 35.18793938204837 -41.23171663167788 -65.17399637406645 -40.665423930587785 0.0
</DataArray>
        <DataArray type="Float64" Name="Mode_15_w" NumberOfComponents="1" format="ascii">
 0.39792589002552947 -0.152007029198843 0.3979258706959383 -0.15200703324932993 -0.03243519966079103 0.027850834346460473 -0.02295057405917107 0.007154441743759016 -0.007411084127148917 0.0010199570047917477 0.012669096472499551 -0.024418712558573606 0.025562503569119415 0.02556250671386299 -0.024418717817686127 0.012669081912740424 0.0010200227874891698 -0.007411151126454077 0.007154447120785984 -0.022950565743674902 0.027850843604878595 -0.032435208406014944 -0.03243519621675154 0.02785082511821797 -0.02295055291272218 0.007154430918620039 -0.007411116859094507 0.0010199908873217208 0.012669070280255422 -0.02441868434589652 0.02556248678497251 0.025562493386685297 -0.02441870331062326 0.012669096414590691 0.0010199684482689578 -0.007411115735516593 0.0071544610738500415 -0.022950572858038688 0.02785082328155091 -0.03243519152022624 87.48901679812805 71.77893020041795 5.1613302209241665 -16.30392787113721 -24.311767790050318 -17.031950170488017 -23.016074643070834 -50.35715291734653 -31.723812573669914 71.77894637187832 109.22710077548852 -3.293023437879972 -46.963705158674735 -6.3297041271233105 12.007816323596444 -4.379465538151333 -41.15720360557242 -50.357150190833835 5.161335650440152 -3.2929886994070383 -31.473145721786647 -73.81420530248577 -12.973282067279406 97.94237602528646 62.54026982400193 -4.379438157840919 -23.016096818860767 -16.303917321446598 -46.96371843277764 -73.81416662759831 -19.451708380275747 -13.657515150564715 40.421178784694405 97.94225820936946 12.00779265319752 -17.03195691438018 -24.311716213023026 -6.329674353909441 -12.973335359994564 -13.657565709555673 57.458772884193365 -13.657341290984716 -12.97321809222058 -6.329829218950638 -24.311812511507842 -17.031931675112677 12.007854584862306 97.9423456383279 40.421150076669704 -13.657577425535399 -19.45177114599884 -73.81398062244531 -46.96372269142852 -16.30399759475772 -23.016085971253162 -4.379413837453616 62.540250520199876 97.94228751029301 -12.973169591321689 -73.81412051702766 -31.47310722168823 -3.292942856649252 5.1613185557717545 -50.35716817016715 -41.15721599599621 -4.379352771224337 12.007739205340922 -6.329801646789142 -46.963689256134145 -3.2929421579179197 109.22712289879402 71.77893613611529 -31.723809815780562 -50.35716815883042 -23.016055531619433 -17.03189515368353 -24.31181288200386 -16.30399077383408 5.161331346787789 71.77896039276679 87.48901149456493
</DataArray>
        <DataArray type="Float64" Name="Mode_16_w" NumberOfComponents="1" format="ascii">
 -8.146817657509505e-8 -0.23031597530860884 2.727190429112703e-10 0.23031593368333497 0.008980004346488971 -0.008042820142568649 -0.008257999268782582 0.007873916928280456 -0.005724437433165728 0.023555440584276954 0.004242727345120809 -0.0449015120651575 0.047156798991138005 0.047156822863037726 -0.04490155505694011 0.004242696225559705 0.02355568976929809 -0.00572479692379382 0.00787410730936869 -0.0082579924531143 -0.00804284023808781 0.008979994902676999 -0.00897999697285549 0.008042859326014722 0.008257960390255907 -0.007874085682937943 0.0057247311309102 -0.023555602211243514 -0.004242685804694 0.04490147931209013 -0.04715676773090178 -0.047156735653592435 0.04490140677731849 -0.004242591055912231 -0.023555586174274345 0.0057244769196753064 -0.007873808505807434 0.008257888388517685 0.008042849170796361 -0.008979992135997258 -1.7796859308820352e-5 23.263819284710042 18.635326011533564 -18.066330589229544 -45.04106498591886 -53.597874625707405 21.33049346591964 88.74575851502827 46.869474634462755 -23.263889788996153 8.755412280122707e-6 57.072726196433145 12.072042324782025 -40.0661828300696 -66.87090775386002 -62.40332519187959 101.10073509159717 88.74578509154371 -18.635408168310942 -57.072813936316976 0.00021884351946214317 80.56420587741476 27.705287899391735 29.202049730257215 -64.37940253730298 -62.40318024193679 21.330460265990187 18.066469104299163 -12.072213641505321 -80.56434057537568 0.00017682671959939956 58.29627524103042 57.06183716965164 29.20180232694719 -66.87037731146185 -53.5977043286999 45.04112239140857 40.066500298906966 -27.70545421801536 -58.29635048881669 -0.00010588844764894864 58.296823186674196 27.705064759525985 -40.06649196022568 -45.04084036237577 53.59774401217437 66.87083058788147 -29.202058368569155 -57.06172122993156 -58.29673596173662 -0.00014279162518234152 80.56482506428459 12.071693876878703 -18.06660870055062 -21.330506357158896 62.4033365101333 64.37932386191584 -29.20210617536352 -27.704842198602556 -80.56474071932082 3.606974417532846e-5 57.07291389666431 18.635152103235193 -88.74583365928129 -101.1007841399292 62.4034995061154 66.87036834598103 40.06634875347192 -12.071739080583663 -57.07291984168411 2.4569922080472755e-5 23.26380560843091 -46.869477132520046 -88.74584820442965 -21.33038359561798 53.59786753294181 45.040840298991704 18.066552499112873 -18.635222201294354 -23.263824058209497 -0.0
</DataArray>
        <DataArray type="Float64" Name="Mode_17_w" NumberOfComponents="1" format="ascii">
 -0.07220507333002239 3.1179759455161457e-7 0.07220474642884563 -1.2871094522117031e-7 0.004763377815932043 0.00014888241027816035 -0.014803551021745562 0.012161577785993416 0.04808464973338954 -0.08801750698429722 0.057786464367279154 -0.021145560620827956 0.0061579558680100515 -0.006158036108189546 0.02114561197420068 -0.05778643306625185 0.0880174447695155 -0.048084643172267204 -0.012161605658419467 0.01480360916658523 -0.00014889158225398473 -0.004763376736767463 -0.004763361814234298 -0.00014888482084807016 0.014803562251918784 -0.01216161331114367 -0.04808460284389759 0.08801749805812348 -0.05778652922588991 0.021145652575533865 -0.006158018905924583 0.006158025620423997 -0.021145629555098532 0.05778646306442055 -0.08801740154993758 0.048084514303524555 0.01216168664610725 -0.014803578102077084 0.00014885007395221475 0.004763402828297322 -15.976329544589952 -15.106689597670645 2.727236789173171 58.390507952441496 30.6866314267517 -82.09638125796381 -5.6868731174015315 -1.5101115098140574 -2.8815214749295807e-5 -15.106641137148328 -6.972934452619748 -19.126874261076242 -46.3072264287933 155.08591787493089 -9.75563591975402 -90.63965306471876 -2.6095438188870073e-5 1.5100672657742815 2.7272174885631584 -19.126699995076564 111.62583140676556 -87.53252093667237 -146.32320239061224 107.63056804572173 -1.8268096783683253e-6 90.63966040794797 5.686837483097175 58.39040957222034 -46.30734580964725 -87.53207245080709 205.1141709441791 -73.09940277133157 -3.767232455783759e-5 -107.6305564399652 9.75566341371099 82.09644778604667 30.686649102990003 155.08577519175682 -146.32332969084342 -73.09920259002614 -7.30079151538086e-6 73.09932213356218 146.32320471015655 -155.08589824247795 -30.686623463850754 -82.09647584317268 -9.755584552966127 107.63061067622445 7.481814158882265e-6 73.09934421404644 -205.11421082706877 87.53249369968582 46.307311048948264 -58.390444191158 -5.686872942531444 -90.63977211388452 -9.109477795361779e-5 -107.63062924601309 146.32339515905159 87.53227188182967 -111.6259019541938 19.12675280252081 -2.727260127653202 -1.50997494321765 0.00010701622992769976 90.63972256387811 9.755350830572345 -155.0858511639265 46.30744579643863 19.12687941511364 6.972823438845894 15.106589280152651 6.624379968179396e-5 1.5101599780235366 5.686958338357493 82.09637237214697 -30.6867584070672 -58.3904324831007 -2.7271359091198217 15.106656659474858 15.976256885835285
</DataArray>
        <DataArray type="Float64" Name="Mode_18_w" NumberOfComponents="1" format="ascii">
 -4.494594291761503e-7 5.61409663492647e-7 -6.392073414786628e-10 -2.339056339877281e-7 -0.011079851532274055 0.013053882875439675 0.012003873572010649 -0.05127320811974818 0.06481974641518151 -0.019632890406311342 -0.0383740182525948 0.042545343420815826 -0.018389229561208042 0.018388972061108372 -0.04254499449750608 0.03837370469486625 0.019633132853894966 -0.06481997412918442 0.05127321969941955 -0.012003738674408761 -0.013053962438864733 0.011079892011034754 -0.011079889128215942 0.013053951851596243 0.012003754495827957 -0.05127320981237203 0.06481993555165871 -0.01963309141789561 -0.03837381963317689 0.04254517804216038 -0.018389115299633895 0.0183890599453119 -0.04254504776247 0.03837366432190305 0.019633166848335146 -0.06481984941658027 0.05127308341748765 -0.01200364069025846 -0.013054014827577962 0.011079923654620521 -9.919680001547432e-5 -23.604249595374558 -0.7435625519028183 19.062072087194096 -54.18254931184784 19.30799105007065 58.9678488575509 -10.591598910159748 -5.660624382255296e-5 23.60416935505579 -0.00015967917787413139 -85.17952861186919 71.31745143085288 64.1980647211054 -119.91804234440261 50.65910364944665 -1.1286275125743781e-5 10.591602832272576 0.7437431333307059 85.17973237769083 -0.0003241301443282896 -212.1087612263075 151.91017432254162 41.83409040107014 0.00010199224157847487 -50.65934697385695 -58.96791492144133 -19.062171149821705 -71.31692233045844 212.10912166324655 -0.0003587910487067402 -133.78515535171036 -0.0003187546826052765 -41.8339930982429 119.91839379910932 -19.307819178221475 54.182445592774904 -64.19853185215266 -151.90981098041945 133.78523701173384 6.341430803230069e-5 133.7849369779322 -151.91036282408868 -64.19816492820775 54.18277842189087 -19.30789937116634 119.91811484729487 -41.83419909356449 6.141138319505397e-5 -133.78498214568089 4.636828960403957e-6 212.1090643329726 -71.3172548791455 -19.06201839720451 -58.96799979485179 -50.659265647005085 0.0002309150175458409 41.83424493370658 151.91036174898932 -212.10901576267065 -7.511557867021933e-5 85.17966959906612 0.7436598406230713 10.591775347645514 3.346341746289983e-5 50.659091843217574 -119.91832070436938 64.19812612875405 71.31737621228032 -85.17965145659971 -3.3243759482939538e-6 23.604212058138604 0.0001137711942611085 -10.591391078155487 58.96791835726394 19.307764769912833 -54.18285351579858 19.061999090550163 -0.7436381066733941 -23.604208133593062 0.0
</DataArray>
        <DataArray type="Float64" Name="Mode_19_w" NumberOfComponents="1" format="ascii">
 -0.33807984188821366 1.9246367122130723e-6 0.338077101174254 1.8741153709013966e-6 0.02767624084045124 -0.04477348914927375 0.06258545879508555 -0.02366259849401204 -0.0006434328140518717 0.02241213303106964 -0.04539812227417385 0.029861502450570607 -0.0084070695361048 0.008405126047241305 -0.029858490259473954 0.04539524114463899 -0.0224103684516856 0.0006428216727355691 0.023661710090875778 -0.06258382530862405 0.044772594995003676 -0.027675903953996654 -0.027675900772611825 0.04477260259507246 -0.06258385510226536 0.023661743489708106 0.0006428172560011082 -0.02241043035382783 0.04539534982205691 -0.029858563784911397 0.00840515217745656 -0.008407089540779901 0.02986155387461511 -0.04539816666754255 0.02241209427133481 -0.0006433406747768869 -0.023662647799124664 0.06258545028044339 -0.044773462758254404 0.027676226250784978 -74.5162924447113 -35.62074393666839 72.77745845907059 36.67242121675927 8.43617309445094 -14.118484669235308 -59.550034767041886 -7.909455637545258 0.00031724907084782817 -35.62076390814029 -123.60620336573734 38.40768750071441 138.1621536628419 -25.234672768913647 -7.340885393590801 -47.81538358631562 0.0002704176926623153 7.911806522522387 72.77748321786709 38.40764103684598 -152.6705357641123 27.319354161252143 16.244646755339947 -29.825882592725453 0.0014002685276700974 47.81175437121975 59.548943803916565 36.67242947096469 138.1622462252854 27.31911735093687 -115.66913495906317 -17.200139428771273 -0.0011797574692819523 29.827569567859193 7.342063999341186 14.11845993524214 8.436084922805227 -25.23462941209622 16.244854251493905 -17.2002687869532 0.0009511693580684488 17.200211928947088 -16.243446398355825 25.231856751566188 -8.43701258450767 -14.118445605267473 -7.341062980669543 -29.825911480088045 -0.0012015404811685575 17.200485790183873 115.66555534222587 -27.317688648865023 -138.15823904323153 -36.67300624725013 -59.54994523996171 -47.815257888636474 0.0014451329899417234 29.827366408788 -16.243593754125854 -27.317475922187967 152.66406070966 -38.406719614620805 -72.77592829145927 -7.9094564238290195 0.00022244617349655656 47.811769103565545 7.342205137080729 25.231759085177227 -138.15824090726522 -38.40665034384209 123.60423396942215 35.62074970766819 0.0003288239160458017 7.911810636852736 59.54884021335717 14.118473408546004 -8.436985507122728 -36.67301560119189 -72.77589520006235 35.62076902891596 74.51569778163766
</DataArray>
        <DataArray type="Float64" Name="Mode_20_w" NumberOfComponents="1" format="ascii">
 0.09507661695952511 -0.1326043272722757 0.09508674858702959 -0.13260434317564107 -0.010932596030669064 0.028594176736757064 -0.0533235591956488 0.030152605981939477 0.018907910816844235 -0.05814904554002751 0.09725361268328134 -0.10242594241446355 0.0662276321093297 0.06622792213939972 -0.10242692275145962 0.09725504106842503 -0.05814968510683914 0.018907854277477106 0.030153354446450047 -0.05332541676688493 0.02859547097361833 -0.010933395676589408 -0.010933382115571336 0.028595447474253056 -0.053325407926719644 0.03015335164322849 0.018907865446960617 -0.05814960819101429 0.09725488395557576 -0.10242682853835966 0.06622790318365072 0.0662276903965199 -0.10242605753325872 0.09725370676866155 -0.0581490314359047 0.01890784653638338 0.03015265239869028 -0.053323531349341355 0.028594081460750355 -0.010932531764957005 20.687374905343773 0.4129388499067877 -50.135136924590476 21.4845299407759 29.820709626976708 0.5999538942682935 38.03610384774557 -80.38520244437453 -22.734551603695184 0.41306009929800563 65.87832425050125 -32.85937964700435 -132.28177421947728 95.55153351852358 -37.90081329138713 122.73627300658765 -13.241670156707064 -80.38498055394132 -50.13512207295785 -32.85910815240579 214.94519893908281 -57.04032311943702 -46.56181401103524 -56.484997758291044 -100.22195046097947 122.73764571381254 38.037683445039875 21.484478077581667 -132.28186795108414 -57.03970376722887 125.87520360138 -2.6800719560406367 83.01170134751268 -56.48436430194316 -37.9003596152539 0.6003718495406904 29.82071092763598 95.5512920690181 -46.56210735307912 -2.6795377313241326 -63.63336966490086 -2.6791295254092806 -46.56249987079908 95.5520679927781 29.82052017676722 0.5998498889053071 -37.90061380006571 -56.48514578852996 83.01177123130489 -2.6794242667211075 125.87844588930723 -57.040650100928666 -132.28587643836192 21.48346711657436 38.035967627030594 122.73613244902236 -100.22194415236724 -56.4841652951168 -46.562214102147585 -57.040961998377064 214.94960650429115 -32.86038166163429 -50.13726929272214 -80.38515678556816 -13.24158595171696 122.73767682983697 -37.900626335311415 95.55212814306816 -132.2858449521217 -32.86040973514372 65.88199433958745 0.4140595356465559 -22.734550623933448 -80.38494524720866 38.03787441331972 0.6003612431581714 29.8204191389639 21.48340304733384 -50.1372874246555 0.41407947486165947 20.68960847677536
</DataArray>
      </PointData>
    </Piece>
  </UnstructuredGrid>
</VTKFile>
