<?xml version="1.0" encoding="utf-8"?>
<VTKFile type="UnstructuredGrid" version="1.0" byte_order="LittleEndian" header_type="UInt64">
  <UnstructuredGrid>
    <Piece NumberOfPoints="169" NumberOfCells="144">
      <Points>
        <DataArray type="Float64" Name="Points" NumberOfComponents="3" format="ascii">
 0.0 0.0 0.0 1.0 0.0 0.0 1.0 1.0 0.0 0.0 1.0 0.0 0.08333333333317297 0.0 0.0 0.1666666666663209 0.0 0.0 0.2499999999994109 0.0 0.0 0.333333333332501 0.0 0.0 0.4166666666655911 0.0 0.0 0.499999999998692 0.0 0.0 0.5833333333322344 0.0 0.0 0.6666666666657874 0.0 0.0 0.7499999999993405 0.0 0.0 0.8333333333328937 0.0 0.0 0.9166666666664468 0.0 0.0 1.0 0.08333333333317297 0.0 1.0 0.1666666666663209 0.0 1.0 0.2499999999994109 0.0 1.0 0.333333333332501 0.0 1.0 0.4166666666655911 0.0 1.0 0.499999999998692 0.0 1.0 0.5833333333322344 0.0 1.0 0.6666666666657874 0.0 1.0 0.7499999999993405 0.0 1.0 0.8333333333328937 0.0 1.0 0.9166666666664468 0.0 0.9166666666663197 1.0 0.0 0.833333333333102 1.0 0.0 0.7500000000003471 1.0 0.0 0.6666666666675918 1.0 0.0 0.5833333333348364 1.0 0.0 0.5000000000020595 1.0 0.0 0.416666666668401 1.0 0.0 0.3333333333347207 1.0 0.0 0.2500000000010405 1.0 0.0 0.1666666666673604 1.0 0.0 0.0833333333336802 1.0 0.0 0.0 0.9166666666663197 0.0 0.0 0.833333333333102 0.0 0.0 0.7500000000003471 0.0 0.0 0.6666666666675918 0.0 0.0 0.5833333333348364 0.0 0.0 0.5000000000020595 0.0 0.0 0.416666666668401 0.0 0.0 0.3333333333347207 0.0 0.0 0.2500000000010405 0.0 0.0 0.1666666666673604 0.0 0.0 0.0833333333336802 0.0 0.08333333333321523 0.08333333333363795 0.0 0.0833333333332575 0.1666666666672738 0.0 0.08333333333329981 0.2500000000009047 0.0 0.08333333333334206 0.3333333333345357 0.0 0.08333333333338432 0.4166666666681669 0.0 0.08333333333342659 0.5000000000017788 0.0 0.08333333333346886 0.5833333333346196 0.0 0.0833333333335111 0.6666666666674415 0.0 0.0833333333335534 0.7500000000002632 0.0 0.08333333333359565 0.8333333333330848 0.0 0.08333333333363795 0.9166666666663303 0.0 0.1666666666664075 0.08333333333359565 0.0 0.1666666666664941 0.1666666666671872 0.0 0.1666666666665808 0.2500000000007689 0.0 0.1666666666666674 0.3333333333343508 0.0 0.166666666666754 0.4166666666679327 0.0 0.1666666666668406 0.5000000000014984 0.0 0.1666666666669273 0.5833333333344026 0.0 0.1666666666670139 0.6666666666672908 0.0 0.1666666666671005 0.7500000000001792 0.0 0.1666666666671871 0.8333333333330672 0.0 0.1666666666672738 0.9166666666663409 0.0 0.2499999999995467 0.08333333333355342 0.0 0.2499999999996825 0.1666666666671006 0.0 0.2499999999998183 0.2500000000006332 0.0 0.2499999999999541 0.3333333333341658 0.0 0.2500000000000899 0.4166666666676986 0.0 0.2500000000002257 0.5000000000012177 0.0 0.2500000000003615 0.5833333333341859 0.0 0.2500000000004973 0.6666666666671408 0.0 0.250000000000633 0.7500000000000954 0.0 0.2500000000007689 0.8333333333330499 0.0 0.2500000000009047 0.9166666666663514 0.0 0.333333333332686 0.08333333333351112 0.0 0.333333333332871 0.1666666666670139 0.0 0.3333333333330559 0.2500000000004973 0.0 0.3333333333332409 0.3333333333339809 0.0 0.3333333333334259 0.4166666666674644 0.0 0.3333333333336109 0.500000000000937 0.0 0.3333333333337958 0.5833333333339692 0.0 0.3333333333339808 0.6666666666669903 0.0 0.3333333333341658 0.7500000000000113 0.0 0.3333333333343508 0.8333333333330326 0.0 0.3333333333345358 0.9166666666663621 0.0 0.4166666666658253 0.08333333333346886 0.0 0.4166666666660594 0.1666666666669273 0.0 0.4166666666662936 0.2500000000003615 0.0 0.4166666666665277 0.3333333333337958 0.0 0.4166666666667619 0.4166666666672302 0.0 0.416666666666996 0.5000000000006564 0.0 0.4166666666672303 0.5833333333337523 0.0 0.4166666666674643 0.6666666666668399 0.0 0.4166666666676986 0.7499999999999275 0.0 0.4166666666679326 0.8333333333330154 0.0 0.4166666666681669 0.9166666666663728 0.0 0.4999999999989727 0.08333333333342659 0.0 0.4999999999992533 0.1666666666668406 0.0 0.4999999999995339 0.2500000000002257 0.0 0.4999999999998146 0.3333333333336109 0.0 0.5000000000000953 0.416666666666996 0.0 0.5000000000003757 0.5000000000003757 0.0 0.5000000000006564 0.5833333333335353 0.0 0.500000000000937 0.6666666666666896 0.0 0.5000000000012177 0.7499999999998438 0.0 0.5000000000014984 0.8333333333329979 0.0 0.5000000000017788 0.9166666666663832 0.0 0.5833333333324511 0.08333333333338432 0.0 0.5833333333326682 0.166666666666754 0.0 0.583333333332885 0.2500000000000899 0.0 0.5833333333331019 0.3333333333334258 0.0 0.5833333333333186 0.4166666666667619 0.0 0.5833333333335353 0.500000000000095 0.0 0.5833333333337523 0.5833333333333186 0.0 0.583333333333969 0.6666666666665393 0.0 0.5833333333341859 0.7499999999997601 0.0 0.5833333333344026 0.8333333333329805 0.0 0.5833333333346196 0.9166666666663938 0.0 0.6666666666659378 0.08333333333334207 0.0 0.6666666666660882 0.1666666666666674 0.0 0.6666666666662384 0.2499999999999541 0.0 0.666666666666389 0.3333333333332409 0.0 0.6666666666665393 0.4166666666665277 0.0 0.6666666666666896 0.4999999999998144 0.0 0.6666666666668399 0.5833333333331017 0.0 0.6666666666669903 0.666666666666389 0.0 0.6666666666671408 0.7499999999996761 0.0 0.6666666666672909 0.8333333333329629 0.0 0.6666666666674415 0.9166666666664045 0.0 0.7499999999994243 0.08333333333329977 0.0 0.7499999999995082 0.1666666666665808 0.0 0.749999999999592 0.2499999999998183 0.0 0.749999999999676 0.3333333333330559 0.0 0.7499999999997601 0.4166666666662936 0.0 0.7499999999998436 0.4999999999995339 0.0 0.7499999999999277 0.583333333332885 0.0 0.7500000000000114 0.6666666666662384 0.0 0.7500000000000953 0.7499999999995921 0.0 0.7500000000001793 0.8333333333329457 0.0 0.7500000000002632 0.9166666666664152 0.0 0.8333333333329112 0.08333333333325753 0.0 0.8333333333329282 0.1666666666664941 0.0 0.8333333333329456 0.2499999999996825 0.0 0.8333333333329631 0.3333333333328709 0.0 0.8333333333329803 0.4166666666660594 0.0 0.8333333333329979 0.4999999999992533 0.0 0.8333333333330152 0.583333333332668 0.0 0.8333333333330326 0.6666666666660883 0.0 0.83333333333305 0.7499999999995083 0.0 0.8333333333330674 0.8333333333329284 0.0 0.8333333333330847 0.9166666666664256 0.0 0.9166666666664363 0.08333333333321523 0.0 0.9166666666664255 0.1666666666664075 0.0 0.9166666666664152 0.2499999999995467 0.0 0.9166666666664045 0.3333333333326859 0.0 0.9166666666663938 0.4166666666658253 0.0 0.9166666666663832 0.4999999999989727 0.0 0.9166666666663728 0.5833333333324513 0.0 0.9166666666663619 0.6666666666659378 0.0 0.9166666666663514 0.7499999999994243 0.0 0.9166666666663408 0.833333333332911 0.0 0.9166666666663303 0.9166666666664363 0.0
</DataArray>
      </Points>
      <Cells>
        <DataArray type="Int64" Name="connectivity" NumberOfComponents="1" format="ascii">
 0 4 48 47 47 48 49 46 46 49 50 45 45 50 51 44 44 51 52 43 43 52 53 42 42 53 54 41 41 54 55 40 40 55 56 39 39 56 57 38 38 57 58 37 37 58 36 3 4 5 59 48 48 59 60 49 49 60 61 50 50 61 62 51 51 62 63 52 52 63 64 53 53 64 65 54 54 65 66 55 55 66 67 56 56 67 68 57 57 68 69 58 58 69 35 36 5 6 70 59 59 70 71 60 60 71 72 61 61 72 73 62 62 73 74 63 63 74 75 64 64 75 76 65 65 76 77 66 66 77 78 67 67 78 79 68 68 79 80 69 69 80 34 35 6 7 81 70 70 81 82 71 71 82 83 72 72 83 84 73 73 84 85 74 74 85 86 75 75 86 87 76 76 87 88 77 77 88 89 78 78 89 90 79 79 90 91 80 80 91 33 34 7 8 92 81 81 92 93 82 82 93 94 83 83 94 95 84 84 95 96 85 85 96 97 86 86 97 98 87 87 98 99 88 88 99 100 89 89 100 101 90 90 101 102 91 91 102 32 33 8 9 103 92 92 103 104 93 93 104 105 94 94 105 106 95 95 106 107 96 96 107 108 97 97 108 109 98 98 109 110 99 99 110 111 100 100 111 112 101 101 112 113 102 102 113 31 32 9 10 114 103 103 114 115 104 104 115 116 105 105 116 117 106 106 117 118 107 107 118 119 108 108 119 120 109 109 120 121 110 110 121 122 111 111 122 123 112 112 123 124 113 113 124 30 31 10 11 125 114 114 125 126 115 115 126 127 116 116 127 128 117 117 128 129 118 118 129 130 119 119 130 131 120 120 131 132 121 121 132 133 122 122 133 134 123 123 134 135 124 124 135 29 30 11 12 136 125 125 136 137 126 126 137 138 127 127 138 139 128 128 139 140 129 129 140 141 130 130 141 142 131 131 142 143 132 132 143 144 133 133 144 145 134 134 145 146 135 135 146 28 29 12 13 147 136 136 147 148 137 137 148 149 138 138 149 150 139 139 150 151 140 140 151 152 141 141 152 153 142 142 153 154 143 143 154 155 144 144 155 156 145 145 156 157 146 146 157 27 28 13 14 158 147 147 158 159 148 148 159 160 149 149 160 161 150 150 161 162 151 151 162 163 152 152 163 164 153 153 164 165 154 154 165 166 155 155 166 167 156 156 167 168 157 157 168 26 27 14 1 15 158 158 15 16 159 159 16 17 160 160 17 18 161 161 18 19 162 162 19 20 163 163 20 21 164 164 21 22 165 165 22 23 166 166 23 24 167 167 24 25 168 168 25 2 26
</DataArray>
        <DataArray type="Int64" Name="offsets" NumberOfComponents="1" format="ascii">
 4 8 12 16 20 24 28 32 36 40 44 48 52 56 60 64 68 72 76 80 84 88 92 96 100 104 108 112 116 120 124 128 132 136 140 144 148 152 156 160 164 168 172 176 180 184 188 192 196 200 204 208 212 216 220 224 228 232 236 240 244 248 252 256 260 264 268 272 276 280 284 288 292 296 300 304 308 312 316 320 324 328 332 336 340 344 348 352 356 360 364 368 372 376 380 384 388 392 396 400 404 408 412 416 420 424 428 432 436 440 444 448 452 456 460 464 468 472 476 480 484 488 492 496 500 504 508 512 516 520 524 528 532 536 540 544 548 552 556 560 564 568 572 576
</DataArray>
        <DataArray type="UInt8" Name="types" NumberOfComponents="1" format="ascii">
 9 9 9 9 9 9 9 9 9 9 9 9 9 9 9 9 9 9 9 9 9 9 9 9 9 9 9 9 9 9 9 9 9 9 9 9 9 9 9 9 9 9 9 9 9 9 9 9 9 9 9 9 9 9 9 9 9 9 9 9 9 9 9 9 9 9 9 9 9 9 9 9 9 9 9 9 9 9 9 9 9 9 9 9 9 9 9 9 9 9 9 9 9 9 9 9 9 9 9 9 9 9 9 9 9 9 9 9 9 9 9 9 9 9 9 9 9 9 9 9 9 9 9 9 9 9 9 9 9 9 9 9 9 9 9 9 9 9 9 9 9 9 9 9
</DataArray>
      </Cells>
      <PointData>
        <DataArray type="Float64" Name="Mode_1_w" NumberOfComponents="1" format="ascii">
 0.017114102013258227 0.01137550803665482 0.017114095282062553 0.011375437269883808 -0.0007716458105191564 -0.0004840687972610729 0.001038015695198923 -0.0005375949875813632 0.0008880054886793711 -0.00023114473956165746 0.0005391369997118935 0.00018765130923851104 -0.0001950261343754325 0.0011427183693338817 -0.0021769460444967647 -0.0021769483150384304 0.0011427188308511047 -0.00019502618778100063 0.000187663739678207 0.0005391127076878622 -0.0002311144391543044 0.0008879874455348339 -0.0005375930194932611 0.0010380099855186035 -0.00048405888528022347 -0.0007716501181324452 -0.0007716418045731006 -0.0004840698828922697 0.00103801592367783 -0.0005375905838445708 0.0008879839868012438 -0.00023111432850885422 0.0005391115728532151 0.00018766241766297366 -0.00019502617713694674 0.0011427064701386952 -0.0021769326514414077 -0.0021769357955343863 0.001142710837960958 -0.00019502938225235544 0.00018766429749518377 0.0005391203097050299 -0.00023113325654544275 0.0008879985763323655 -0.0005375927553670446 0.0010380169623698278 -0.00048406928502052585 -0.0007716454079190829 5.3734907305669 8.714006990528357 12.644056496992725 14.659657381412185 16.479482218854514 16.53296266867196 15.998706588295901 14.038289168563796 11.27263933926719 7.917654401183612 3.2655284951244288 8.71400904359343 16.016654825470233 23.08430329516847 27.931337841097083 31.359035190508457 32.346848754355086 31.14335562115956 28.24156050882976 22.567469382736093 16.828573770626626 7.917648313477828 12.644062186102836 23.084304266771092 32.663710339424476 39.425265781267946 43.75068238095399 45.36432021666671 43.294921650245236 39.317072166549934 31.340083752328123 22.567458146283816 11.272630312340231 14.65967205814257 27.93135998239422 39.42526514085513 48.4981727221465 53.60974596267792 55.94508158979556 53.463181307979596 48.530354314511975 39.317081957798784 28.24154663940494 14.038271924059263 16.479508483505537 31.359082287591267 43.75073797524838 53.609762511620026 59.328687014755374 61.77437364877571 59.280377770250105 53.46314701660065 43.294885384671886 31.14333881477851 15.998689260970217 16.53299336794956 32.34690720194697 45.36439017681872 55.94514443684942 61.774399823468826 64.3542198912066 61.774350569106865 55.94503781351065 45.364257346915196 32.346814501613125 16.532953960959535 15.99875139982557 31.143442218237745 43.29501522182362 53.46326671929379 59.2804413317678 61.77438209586445 59.32862199640257 53.609667027043656 43.750597369958655 31.35897142949411 16.479451754780335 14.038322791257375 28.241636563636938 39.31718279373235 48.53047340563144 53.463262934541454 55.94511951097843 53.609695961896456 48.49807191009059 39.42517751050766 27.931283544935358 14.659627058650887 11.27267842022452 22.567545020014542 31.340190259787057 39.31720499862751 43.295014647752105 45.364363760017014 43.750669161989286 39.4252009350529 32.66362654260421 23.084253843307998 12.644034187756938 7.917693367797053 16.828651159738733 22.567563685405485 28.241660780124718 31.14345219137254 32.34691017681546 31.359035157810716 27.931318382119496 23.08427525046936 16.01663875758808 8.713994829990629 3.2655490133779486 7.917700250357364 11.272693949775983 14.038337658630036 15.998752401694146 16.533008907619077 16.479493451668798 14.659648940685543 12.644047133361077 8.714009396159094 5.373488546816762
</DataArray>
        <DataArray type="Float64" Name="Mode_2_w" NumberOfComponents="1" format="ascii">
 -6.193572754262468e-8 -0.03155774728476616 6.639542481856924e-8 0.03155770912784327 0.0003884505545300278 0.00022361253550355755 0.0007066393600109558 -0.0001359689240189941 0.0003353393593380841 -0.0011054420384548872 -4.0808013257094607e-5 -0.0022277723485424248 0.0010344756271486245 -0.0044460747838549084 0.006273241237661961 0.006273237245972849 -0.0044460711228202264 0.0010344689982151759 -0.002227781985472832 -4.079088156234839e-5 -0.0011054409483975249 0.00033533905011377157 -0.000135953730653542 0.0007066309663885944 0.00022361579861536677 0.0003884426622235341 -0.0003884491894557752 -0.00022361656058180097 -0.0007066264580264219 0.00013595540943850388 -0.0003353347118647308 0.0011054417627623693 4.079327013080224e-5 0.0022277793673128425 -0.0010344647726514345 0.0044460584368455295 -0.0062732321967484865 -0.006273228165828081 0.00444604577319413 -0.001034449321011221 0.0022277635978276574 4.0815401015134695e-5 0.0011054349792247516 -0.0003353263038894865 0.0001359414586181116 -0.0007066251630394701 -0.00022362196248513187 -0.00038844158850840304 -1.9197455732900317e-5 1.4430131576005638 4.7785123042852495 10.53931185871419 17.28019176529607 24.28087589997722 28.850546101939244 30.695172585534777 27.456223411134346 21.45692321947381 9.03031259740629 -1.4430725262557464 -5.6358311681023647e-5 4.587207013189664 14.53008449451331 26.40372653921108 40.45796818200672 50.01958873725662 56.36152266419545 51.03064723819773 42.96418956699911 21.45692312301831 -4.778583179795388 -4.587335847425451 -8.341973432501095e-5 13.135810021998868 28.465900828006795 47.68134122424012 59.78275457750846 69.41146331225912 63.60383099426396 51.03062138661862 27.45620486507626 -10.53940182668874 -14.530226538717873 -13.135970968609731 -9.030050397179794e-5 16.97606625594503 40.98608424094278 58.08823650178143 70.26761871974658 69.41145098918882 56.36148753936432 30.695151767567452 -17.280250948446383 -26.403854156466036 -28.466008680927924 -16.97615879801105 -1.6596723554197705e-5 23.23922098024858 44.41118786968241 58.08824721185361 59.78274933043028 50.019552331681275 28.850511623803687 -24.280911085816136 -40.45803347815828 -47.681426905525086 -40.986109518523726 -23.23917067581209 7.792738631571458e-5 23.23929608960001 40.98614655389391 47.68139770659177 40.457993288791236 24.28086837468395 -28.850556896616396 -50.01959216467565 -59.782728702470884 -58.0881813734522 -44.411065998734585 -23.23908777481025 0.00013887508627672367 16.97623615545705 28.46599125790439 26.403808448426034 17.280217670363488 -30.695169126811106 -56.361527598070836 -69.41143441864124 -70.26750986787239 -58.088071902124526 -40.985890312606976 -16.975942265446132 0.00016121853581136097 13.136001279153424 14.530213003280387 10.539374949920143 -27.456211779552874 -51.030605633529845 -63.603780168034184 -69.41135337444702 -59.78259721208095 -47.68118096731103 -28.465736667256905 -13.135733967073811 0.0001202509792331157 4.587349163609457 4.7785814739649135 -21.45694421048927 -42.96419001671362 -51.03057063431598 -56.36140101802812 -50.0194170124688 -40.457831741959474 -26.40361815984214 -14.530019502353527 -4.587177564520465 6.168065293447722e-5 1.443073989417989 -9.030323367915097 -21.45693599270911 -27.456192891360626 -30.695113936731506 -28.850447205721277 -24.280782438425344 -17.28011755695971 -10.539273885263771 -4.778491244798309 -1.4430078298300173 2.0814413097758784e-5
</DataArray>
        <DataArray type="Float64" Name="Mode_3_w" NumberOfComponents="1" format="ascii">
 0.04811272618869716 -1.6018063233335936e-8 -0.04811273700066522 8.765262642709554e-8 -0.0018437033898622776 -0.000547900588275218 0.0030498143468611024 -0.0006869768894073939 0.0020014247102399033 -0.0005279509298096391 0.0005364102848779128 -0.0006130992861422067 -0.0003079532989746001 -0.0004296504512032194 -9.93915141764262e-5 9.939630919393744e-5 0.0004296526484064223 0.00030795343565451737 0.0006130889014587835 -0.0005363903700240524 0.0005279210108778237 -0.0020014110319843746 0.0006869704471292261 -0.003049813855449979 0.0005479056637496977 0.0018437040932663999 0.0018437090334958524 0.0005478980149473101 -0.0030498126556703182 0.0006869689107676211 -0.002001416517689136 0.000527929809565643 -0.000536387609858936 0.0006130789122830971 0.00030797136130672703 0.00042965197297640476 9.938411621517936e-5 -9.94079560201754e-5 -0.0004296443474910061 -0.0003079433028043776 -0.0006131044765038471 0.0005364115251008221 -0.000527937203931309 0.002001417680090354 -0.0006869780694128083 0.0030498174174600928 -0.0005479051357973804 -0.0018437041399924003 15.170454913136387 23.160733380181743 30.238990360400447 30.258148697351405 28.00407506437971 21.61061540787052 14.910469725836178 8.169916484090214 3.4085482758005283 0.7862975033342454 2.580440517676467e-5 23.160727420640164 40.960449714555004 52.89017710539845 55.784990272370536 50.932893890830194 40.416313755849 26.907179732738363 14.536572671463727 4.882070483120348 0.00010624496591127204 -0.7861903704422795 30.238966518221545 52.890156596670245 66.1797830310256 68.56794174962133 60.22743002208029 45.57277705117586 27.262839529767653 11.348526898216827 0.00012708468635069347 -4.881866104647312 -3.408411945847651 30.25810895119432 55.784920838402684 68.56788993210422 70.43846925583284 58.64441770589341 40.47325541755166 18.467883825882577 9.580087958941707e-5 -11.348269125083412 -14.536360784038047 -8.169808900907986 28.004011729444187 50.93279102690487 60.22730038031285 58.64437382140223 43.822041958661224 22.95231998553823 4.534884335953317e-5 -18.467741941851457 -27.262688374494594 -26.907009868134804 -14.910365820893443 21.61051788761284 40.41616556627141 45.57259973600585 40.47307548719805 22.95226798378968 -5.927346557148817e-5 -22.952393463515516 -40.47317497779483 -45.57267483296033 -40.41623572618496 -21.610551402446127 14.910367904091936 26.90699415041074 27.262656370361093 18.467696853702094 -0.00013559470137534545 -22.952442052038016 -43.822130751187764 -58.64448023461691 -60.22737722606096 -50.932865746133885 -28.004049711165983 8.169821113163394 14.536388663968456 11.348280761360103 -0.00010390557516746619 -18.467902930392327 -40.47332018283076 -58.644486556474696 -70.43854384562589 -68.56797216986777 -55.78498897421247 -30.258149402707325 3.408453332492082 4.881919868043311 -5.4287968710130724e-5 -11.348493770646908 -27.26283703587447 -45.57279494473576 -60.22745989012912 -68.56797757732868 -66.17983046561916 -52.890198841077776 -30.238996230599952 0.7862283762496468 -3.840453321038931e-5 -4.882007743278187 -14.536508029580157 -26.907154312174526 -40.41632279983773 -50.932921087222006 -55.785014191076165 -52.890191563510356 -40.960465725521736 -23.160743300977803 -4.56793303820045e-6 -0.7862526292216838 -3.408499924538953 -8.169884669550278 -14.910438420921931 -21.610614436510428 -28.004082928261 -30.258162137160237 -30.238996969282258 -23.16073644521131 -15.170457890885476
</DataArray>
        <DataArray type="Float64" Name="Mode_4_w" NumberOfComponents="1" format="ascii">
 0.06355702467176264 -0.04584716227350641 0.0635569095853351 -0.04584717797948761 -0.001991713269081312 0.00028235826815719585 0.004188713676750894 3.0984671704051044e-5 0.0019532502798328116 -0.0008152534430139136 -0.000657156711765785 -0.0029402621471074997 1.524065951057148e-5 -0.006388786081858374 0.008291028514446672 0.008291021667218538 -0.0063887765776752085 1.5223717359298076e-5 -0.0029402377369325138 -0.0006571689697294308 -0.0008152481268148401 0.001953268994146344 3.0963012370892405e-5 0.0041887104211871815 0.00028236104373418214 -0.0019917126035986625 -0.0019917061192601055 0.00028234750541965113 0.0041887231365443384 3.096461317627653e-5 0.00195326335226004 -0.0008152518483860694 -0.0006571590020318008 -0.002940259397332962 1.525101549332138e-5 -0.006388800986495226 0.008291036266477312 0.00829103639944637 -0.006388795555103222 1.5245222289410509e-5 -0.0029402703350514922 -0.0006571508791148902 -0.0008152534254328202 0.0019532583404546617 3.097725737088453e-5 0.004188718041973722 0.0002823572755756847 -0.0019917152341775053 20.126710461286084 28.840828002154495 33.05323780349801 25.69565839364036 13.024953434700668 -4.348932468259841 -20.55298054019401 -31.86951893878887 -34.583296181870374 -29.508634062201313 -13.2617301100322 28.840821360786443 49.631006046186236 56.88380724478723 49.662768094181956 27.540794633908398 -0.8080879563622466 -30.3301772581667 -52.71643006377408 -59.51043691877994 -55.255946531236376 -29.508626993768857 33.05322259577911 56.88378380473861 63.64982284744872 55.81881227549855 31.133629860938623 -1.8024931724832078 -34.24107164236911 -60.166028766567344 -67.17381863374789 -59.51039847237388 -34.58327037804843 25.695637736156662 49.66272841092252 55.81877995947011 51.08842917358171 30.41287114885736 3.010596892492486 -26.53739095065345 -49.17535280184958 -60.16602399839187 -52.71640723435468 -31.869493264322763 13.024917143470802 27.540744884637057 31.13357129073972 30.412846360288402 18.51304739904506 3.704014062548575 -14.66860051394838 -26.537407284661136 -34.24107600251305 -30.33017454089559 -20.552981339014572 -4.34896878770108 -0.8081531876722845 -1.8025453874396096 3.0105362842349113 3.704024678550172 6.890137583125269 3.7040126291847937 3.0105716362146033 -1.8025495048645768 -0.8081261697020227 -4.348950164434143 -20.553004403605765 -30.330232942360627 -34.24111505461142 -26.537423842364518 -14.668640052767717 3.7040230992457137 18.513004436748975 30.41282165623531 31.133565741506825 27.540713181850947 13.024915842473673 -31.8695208636763 -52.716447593411154 -60.16606033375042 -49.17535780467757 -26.537391825631595 3.0105561704733677 30.412844329161967 51.088327438423754 55.818716753848 49.66268014276724 25.695596966925034 -34.58328949555322 -59.51042384394171 -67.17379852028313 -60.1660328858337 -34.24104768720807 -1.8025122663597393 31.1335595474717 55.818740644806965 63.6496786395122 56.88369833670593 33.0531760694167 -29.50862090014803 -55.255933658562064 -59.5103752749806 -52.71637017409974 -30.330153170610185 -0.8080826216093058 27.54073371067086 49.66266973148827 56.88370756037301 49.630899034889154 28.840770234760342 -13.261726645649235 -29.50860735904955 -34.58326443862193 -31.869466608070972 -20.55296057679263 -4.348928015379202 13.024933656878096 25.695595370539124 33.053165724563485 28.840775530982626 20.126674206739064
</DataArray>
        <DataArray type="Float64" Name="Mode_5_w" NumberOfComponents="1" format="ascii">
 -1.2983885013447309e-7 -4.5085834130986125e-8 -8.13210454501128e-8 -1.9481739337576817e-8 0.0017755628256089335 0.00046541989852192083 0.001611696399309777 -0.002445458912805095 -0.0009014165867874155 -0.004104149557190032 -0.00040965573185011093 -0.0015617709127031686 0.0018257868260600236 0.000989666880205689 0.0005075119449718707 -0.0005074890146453253 -0.0009896916813066441 -0.0018257880993341731 0.0015617754685349717 0.0004096519675205475 0.004104169246743897 0.000901407356684415 0.0024454592788156464 -0.0016117103566487452 -0.00046541697508072305 -0.0017755621270784353 0.0017755662411208495 0.0004654166012574306 0.00161169953467455 -0.0024454579237452663 -0.0009014111144834427 -0.004104157157097002 -0.00040965764867619757 -0.0015617687215717952 0.0018257738236844743 0.0009896934649737846 0.0005074956956575147 -0.0005075035142615708 -0.0009896628475190845 -0.00182581671116577 0.0015618094208166556 0.00040961291282872906 0.0041041921401160876 0.0009013943908579152 0.002445462401260367 -0.0016117041218591808 -0.00046542473386838217 -0.0017755574343884173 -4.137895363419944e-5 5.951247845196041 17.256214368764 32.50965081939929 42.92714175507968 46.309281732195224 38.45922462299944 25.777591661961402 11.400214673532023 2.8228642526534307 -6.713557454792339e-6 -5.951357529935868 -9.270819557423402e-5 16.104924113459955 43.38759939672154 64.47222431517062 74.55303687490478 64.23739411002258 42.396557293215785 17.227267537096395 -3.68831601958555e-5 -2.822885644610986 -17.25632993502752 -16.105114468374868 -0.00012115499862490744 31.16334066112143 56.42329788672206 66.47390316863154 54.310934745391414 26.281043147177005 -6.222674048134459e-5 -17.227406461157855 -11.400283530864892 -32.5097532110226 -43.38772935707872 -31.163468628190163 -5.323680878760724e-5 31.339881471453356 42.82909610800515 32.74490109987026 -6.332371617919501e-5 -26.281127728755692 -42.39666986017502 -25.777652672120134 -42.92721910196209 -64.47235779117567 -56.423351782534695 -31.339852126048505 2.7647758221076336e-5 8.310281392077789 4.224379498950729e-5 -32.744947561825846 -54.311056441358694 -64.23750726375991 -38.45931261116146 -46.309316933803 -74.55308195436223 -66.47394878554196 -42.828993086965646 -8.31012533307436 8.451710281369539e-5 -8.310196626949528 -42.82908505612065 -66.47400738651538 -74.55311736764483 -46.309343062254186 -38.45928222114324 -64.23743417928368 -54.31094717148114 -32.74485638876314 9.605035314629124e-5 8.310348396785093 5.352688470768603e-5 -31.339875391650274 -56.423429450883965 -64.47237213665773 -42.92722298501313 -25.777630376327153 -42.39662175687725 -26.281064581522664 8.62912619469077e-5 32.74499814809795 42.82917270405184 31.33991190284417 -9.761098546517277e-7 -31.163451364897746 -43.387748770688034 -32.50974416480077 -11.4002777617765 -17.227348734314607 -1.4773189527457516e-5 26.281108352759517 54.311044245241064 66.474018732417 56.42339052630347 31.163370313151585 -6.032860733623725e-5 -16.105098482744705 -17.256317093630503 -2.8229086193243575 -4.100496341252637e-5 17.227323260938647 42.39661957805435 64.23747784717655 74.55309642803891 64.47231331145245 43.3876420468076 16.10496992604639 -6.0363785033498234e-5 -5.9513449064572495 -1.2509373126206758e-5 2.822847461223185 11.40022941013666 25.77761309628359 38.459284300727674 46.30932272897823 42.927182729784555 32.509680076484656 17.25623543294994 5.9512727320291665 -2.5842369106964612e-5
</DataArray>
        <DataArray type="Float64" Name="Mode_6_w" NumberOfComponents="1" format="ascii">
 -0.07381843753838238 -0.043173659369092086 -0.07381840760275925 -0.043173627816204284 0.0018628988571102194 -0.0007973909843759873 -0.0039520302633300345 0.000896840410358461 -1.8090369693999787e-5 0.0009886494267161308 0.0011899578693756155 -0.0027187875736147896 0.0013232440384932408 -0.007577995361486474 0.008416194337299992 0.00841618611148066 -0.007577971133988289 0.0013232274033600582 -0.0027187725679023896 0.0011899312217277678 0.0009886549943567994 -1.808841483845077e-5 0.0008968173505361374 -0.003952011806582158 -0.0007973915493295949 0.0018629024256668091 0.0018628974961131877 -0.00079738540831143 -0.00395201981990683 0.0008968219304867995 -1.809197700264939e-5 0.0009886609951378158 0.001189931671054838 -0.0027187639470509124 0.0013232275547792312 -0.00757798101802667 0.008416190379087238 0.008416192783545271 -0.007577979971491047 0.0013232317172500907 -0.002718781664758145 0.001189957299274131 0.0009886356491323012 -1.8093773846821754e-5 0.0008968369718330577 -0.003952028466611278 -0.0007973907095973002 0.0018629057009910222 -23.45773463576852 -32.30998934062586 -35.45669627065444 -28.870040472147025 -22.715264271191685 -19.800852084393924 -22.490421112442935 -28.504431695419008 -30.43452000834228 -27.811140829752556 -12.389008687313755 -32.30996952559723 -53.15635610695025 -55.205668060443756 -45.792481820542676 -29.916099191157887 -24.372271049754243 -25.991008938237798 -41.140461259980164 -47.17407425660367 -50.27132368145579 -27.811133085399113 -35.45664542509106 -55.205618849770985 -49.52671773261405 -31.394479917889974 -7.174210871124997 -0.8492281215592896 -5.508767898888465 -28.59697552933468 -42.82298941075079 -47.17404704639985 -30.434495915413734 -28.869953697629118 -45.79235879839416 -31.394378248235803 -4.8928242222105585 29.466830729872417 40.482161896061406 31.872297659171174 1.092778395233826 -28.596924771494287 -41.14040170607969 -28.50439046526733 -22.715149470152934 -29.915921210162686 -7.174045285446642 29.4669043454588 65.70821141816204 79.92090631240389 65.54804608316086 31.872328699690094 -5.508705656425115 -25.990917492923554 -22.490381255056146 -19.800729763284707 -24.372080889245723 -0.8490460226898078 40.48229616562119 79.92091245325332 96.3089437092004 79.92095125702987 40.482246882150456 -0.8491490759003087 -24.372155579515564 -19.800780274634644 -22.490329105769877 -25.990836768790576 -5.508645542385316 31.87238142398124 65.54808330849066 79.92089654760024 65.70819198343457 29.466883216598433 -7.1741496455268585 -29.91602873771294 -22.715207396990046 -28.504375318399457 -41.140367034864404 -28.59688792808303 1.0927544459666805 31.87229580528215 40.48219364276316 29.466841219514464 -4.892861849169037 -31.394430627358954 -45.79241218885237 -28.870009335937624 -30.434489142342443 -47.17405165427253 -42.82298768323719 -28.59697830622976 -5.508824853130807 -0.8492512976062796 -7.174226259334634 -31.39445997616905 -49.52677323913122 -55.20562638353106 -35.456659693375755 -27.811145261216605 -50.27133407794975 -47.1741111910508 -41.140490084336555 -25.99102689672974 -24.37227766420541 -29.916110941755413 -45.79245624382293 -55.20564216168753 -53.15635678365583 -32.30996014340162 -12.389018965848356 -27.811145054236874 -30.434533511784778 -28.504455679831125 -22.49045390886656 -19.800849288789813 -22.71525871862928 -28.870043049370224 -35.4566735499989 -32.30996870957918 -23.45772542553863
</DataArray>
        <DataArray type="Float64" Name="Mode_7_w" NumberOfComponents="1" format="ascii">
 -3.300398704516914e-8 0.08731504843968116 -3.318019701477066e-10 -0.08731507962860369 0.0021616038271971404 0.0002520361239094354 0.0010552823578916216 -0.003926945531075625 -0.002390858007190421 -0.004056458656777655 -0.00018776693237522156 0.0035659369237014 0.000829431357559179 0.015184573884406633 -0.016065049500693623 -0.016065043029495792 0.01518455889384173 0.0008294521441846505 0.003565910729889039 -0.00018773943864517622 -0.004056477125481022 -0.00239084679136259 -0.003926962065303106 0.0010553190355438798 0.0002520021268854534 0.002161617712673644 -0.002161616189638643 -0.000252008508617887 -0.0010553042196109837 0.003926960752152259 0.0023908154630378625 0.004056527996573972 0.00018767897788651166 -0.0035658611794835877 -0.0008294660131791436 -0.015184570861336523 0.016065053401983647 0.0160650460504293 -0.015184560358019615 -0.0008294588959700331 -0.0035659093147110414 0.00018774577228873997 0.004056480505821592 0.0023908470650852044 0.0039269366545179795 -0.001055275899048776 -0.0002520395534044195 -0.0021616015650230405 -1.0430126456834303e-5 6.876498635768433 18.380758035903256 30.59874105057317 31.53627056920166 19.002540645119666 -7.251197607978327 -35.21558835179471 -53.506237770632936 -54.173094204351905 -25.20221549902735 -6.876526751433123 -2.568487321532302e-5 17.533827548892056 42.897968962292616 54.892331730725914 43.148297955595574 6.227224785173035 -45.75536520288895 -76.3286532997452 -94.54456794807409 -54.17310246035651 -18.380790121104138 -17.53387531915126 -3.670390237503986e-5 27.63837246099811 49.36568545559645 43.668305395957596 21.871236930329008 -33.31912867727029 -62.334609370527396 -76.32861651328784 -53.506228855862936 -30.59878593232522 -42.89800029273021 -27.638395753453104 6.22544380333848e-6 37.69002177393189 41.36675082999357 36.6695449803277 2.7898056336304142 -33.31917796337424 -45.75542096976705 -35.215575244045496 -31.536303035902787 -54.892381578360414 -49.365720010789545 -37.689997558001885 -1.7664847089399587e-5 26.045913811337773 37.02988573913651 36.66955047465335 21.871269498709317 6.227176504870449 -7.25124658670357 -19.002543602766128 -43.14828829484751 -43.66832077310485 -41.36665734589256 -26.04584887315236 2.4823985750006482e-5 26.045895013621205 41.366679608320815 43.66824640902616 43.14827043365651 19.002527903833325 7.251191394009912 -6.227208671870162 -21.871266212530188 -36.66955880279187 -37.02985746217229 -26.045858397656808 -5.979836880860233e-6 37.69003175121874 49.365678414128844 54.89228397847008 31.536249259436282 35.21559052338201 45.75540204936693 33.31917210147789 -2.7897581732732193 -36.66952512235459 -41.366662144061486 -37.6900169649802 -5.6189635201846485e-5 27.638364964674082 42.89796586575899 30.598736082989003 53.50621416624433 76.32864230219172 62.334597591013484 33.31914513818676 -21.871242345070392 -43.668294125940115 -49.36564830126405 -27.638363820180786 -4.3125920752380574e-5 17.533830739808447 18.38075446147053 54.17308289885933 94.54455301180022 76.32866124831678 45.755403034058155 -6.227192659468617 -43.1482925705685 -54.89236593415484 -42.897942497054885 -17.53383282299176 -6.113681210292855e-6 6.876525724220479 25.202206274272747 54.17307871896117 53.50622385370369 35.21559323470511 7.251217256316261 -19.002530065937805 -31.536282520890758 -30.59875752104207 -18.38074739759283 -6.876523683438833 0.0
</DataArray>
        <DataArray type="Float64" Name="Mode_8_w" NumberOfComponents="1" format="ascii">
 0.1343494784377606 -2.2989821581579577e-9 -0.13434964846472253 -1.9401872912481244e-8 -0.002462082979175678 0.0038609289710085817 0.006875705223677255 0.00033089964487468653 -0.0028412186198566464 -0.0019953675236883033 -0.006447536219261512 0.0016861873375134757 -0.0026007684530675113 0.0042780603398417435 -0.0006288338054640203 0.0006288356383592743 -0.004278063320249406 0.0026007667247150384 -0.0016861864918619083 0.006447538441733709 0.0019953727914533335 0.0028412294948630735 -0.00033091476254956036 -0.006875698544240135 -0.003860946538624528 0.002462092939446536 0.0024620928181088918 -0.0038609434216649073 -0.006875705843843378 -0.00033090413792883245 0.002841216158431061 0.0019953856042559453 0.006447533747336911 -0.0016861905822882603 0.0026007665890320736 -0.004278061624365037 0.0006288361255036461 -0.0006288285844512896 0.004278048064840423 -0.0026007525627792833 0.0016861739077768962 -0.006447528228712759 -0.001995376988388483 -0.0028412091380564065 0.00033089593498101757 0.006875702761233342 0.0038609384950901273 -0.0024620906206454527 42.87619042077993 54.83841513581327 48.97955232084611 21.53987206749493 -9.362889732390654 -30.5571564152162 -37.88036856576967 -27.8836417468989 -15.592522607415914 -2.7886449754513167 -5.611102806304399e-6 54.83840198635743 89.20186887537903 79.2230990345706 45.24010252195726 -10.02182911605012 -43.807987374110745 -60.6375391011562 -43.30363178533799 -21.989753919778988 -1.4679280633102959e-5 2.7886235419065275 48.979542654921346 79.22307275449266 62.53832359202975 29.694004236481398 -21.950261759072976 -47.17695993717637 -53.53594934808306 -27.174537311340934 -3.1125032597110565e-6 21.98972434907601 15.59251031433451 21.53986364160398 45.24008811511312 29.693989520646184 8.414321025506599 -27.333377108067165 -38.076696305769715 -31.66718428426261 2.1625658388083294e-5 27.174585678837115 43.30363687667494 27.883627947451135 -9.36290089709376 -10.021852283672846 -21.950279663094122 -27.333393140649527 -31.969191167419382 -21.0424668734656 1.4685944184944443e-5 31.66722901680212 53.53599931821602 60.63760346230979 37.880380502798516 -30.55715490721916 -43.80799537168359 -47.17696921720681 -38.0767102178845 -21.042465799270445 -1.5664292470171321e-6 21.04246624965806 38.076738209261215 47.17698073532954 43.80801694073433 30.557183516458814 -37.88036309865521 -60.63754298217685 -53.53596126633086 -31.667200006616916 -7.741757845089268e-6 21.042474550526848 31.96915446227664 27.33336704567886 21.950270856685396 10.021822833505622 9.362896213128916 -27.88363021821202 -43.30362036025708 -27.174532821215738 2.932527936712537e-5 31.667213360402393 38.076713648781165 27.333372101173346 -8.414387417546358 -29.694067392752274 -45.24016224029002 -21.53990659476006 -15.592521990384261 -21.989737869606877 6.449835116589186e-6 27.174582007878527 53.53600608809662 47.17697455674456 21.950255047719587 -29.694046377806142 -62.53840351066059 -79.22318719657716 -48.97961095774787 -2.7886346590581326 2.004109093262239e-6 21.98976081915898 43.30365910116254 60.637604322192175 43.80803139702301 10.021823539478373 -45.24016509016094 -79.22316670485282 -89.20197328816975 -54.83848038163188 -5.346274054994673e-7 2.7886321586182135 15.592527136808883 27.88365004906448 37.8803945329596 30.557185745485473 9.362906246364142 -21.539904502347113 -48.97960520502997 -54.83847836821482 -42.876244196586825
</DataArray>
        <DataArray type="Float64" Name="Mode_9_w" NumberOfComponents="1" format="ascii">
 0.09849617673866268 0.10566065639193326 0.09849660716883585 0.10566068565407945 -0.0006729890911512332 0.005332949083772776 0.0037780743120774374 0.0006090723032380046 -0.00829417566554069 -0.0033266917691052245 -0.010469750184016646 0.00891576687436991 -0.004211008018605325 0.02508353851393523 -0.020934440446408305 -0.020934443032675273 0.02508352450646145 -0.0042110105305569545 0.008915789540187867 -0.010469745406993872 -0.0033266665857356135 -0.00829420717320617 0.000609102004387375 0.003778053569131993 0.005332983674750243 -0.0006730039647864448 -0.00067299338688509 0.005332978161581831 0.0037780493205390926 0.0006090942240736593 -0.008294213869652315 -0.0033266586161791235 -0.010469747315961973 0.00891581394049694 -0.004211030807900108 0.025083531708442245 -0.02093444517348701 -0.020934432960177256 0.0250835315994411 -0.004211001638958299 0.008915765595757916 -0.010469764309724142 -0.003326692024507592 -0.008294181037558418 0.0006090997706111301 0.0037780612469148966 0.005332965852605715 -0.0006730057423702971 31.65388059867535 35.74472286045468 19.71755865961857 -12.058668870166123 -42.02005681144912 -47.65279026024187 -28.031535026245578 15.582519063885034 48.07241756953472 63.35762037555102 30.305585918958247 35.74468747755692 58.75660122428748 39.04960818476399 3.4893146866362277 -50.740933878874394 -69.02280413940731 -62.011266764659595 1.7313656982248185 50.83638568188873 98.10196934029929 63.35766098660715 19.71750219387052 39.049551572215016 26.24465757826957 9.428047489327685 -30.480898218427633 -38.78287308401717 -42.57532503703945 -0.95486846219573 27.782679361052075 50.83657582673624 48.07254758125654 -12.058746556849261 3.4892181947838488 9.42800854356426 26.615151457006334 10.668392824657461 -2.962870488925699 -23.113327612831338 -25.327249252639366 -0.9547059337902262 1.7317547934841846 15.582788488808438 -42.02009772158559 -50.7410233417463 -30.48093694809787 10.668342063062594 52.696356838108485 53.66761038925618 41.004090883521165 -23.113278498887162 -42.57513034721485 -62.010887731258514 -28.03123416361483 -47.65278541333318 -69.02281119421009 -38.782876150705285 -2.9628046013619516 53.667565538021606 52.47913607297352 53.66741478780164 -2.963039508934289 -38.78284224272374 -69.02259004804087 -47.652561278161286 -28.031500141912247 -62.011213534544474 -42.57533088562888 -23.11328681193272 41.00417785136768 53.667394776310324 52.6960291376139 10.668024374616298 -30.481064878714097 -50.74092975655107 -42.019960124713904 15.582544531652854 1.7314246747502477 -0.954813441017768 -25.32727145707045 -23.113277345573877 -2.962989430653192 10.668030796278693 26.61479288680816 9.427866383568126 3.4892989402543586 -12.058621940203098 48.072425017113915 50.83637510316189 27.78267120077408 -0.9546991345128202 -42.5751815061503 -38.78285080973163 -30.481015104783133 9.427890757725452 26.244633558398508 39.049670399624816 19.717625920400756 63.357621074059296 98.10197058479547 50.8365057245721 1.7316715417442108 -62.01091894757549 -69.02261487119826 -50.740872645127496 3.4893535157340443 39.049730617407604 58.75682569462208 35.74484738133599 30.305575924462595 63.357645013060754 48.0725225322338 15.582726754236168 -28.03128682515043 -47.65258343649491 -42.01993921473651 -12.058574791664286 19.717672734857366 35.744874297999004 31.654019182612316
</DataArray>
        <DataArray type="Float64" Name="Mode_10_w" NumberOfComponents="1" format="ascii">
 -5.689541848881104e-8 -0.054475493788928984 -1.840468158490713e-10 0.054475443503791895 0.005151574599265602 -0.0005859311864055809 0.0007804661144800464 -0.008533751745881028 -0.0008892964945265603 -0.003483393483076308 0.004726581387623323 -0.0004644422360440736 0.0019119865797640415 -0.011296203010122121 0.01005071725060138 0.010050712520470904 -0.011296213779907237 0.0019119864389254744 -0.00046442004241578643 0.00472659788088767 -0.0034833586137384665 -0.0008893397374101878 -0.008533754998321758 0.0007804538054594539 -0.0005859366233655737 0.005151594549002132 -0.005151593700840652 0.0005859322216060609 -0.0007804545370071309 0.008533761484873172 0.0008893262263086882 0.003483386822401783 -0.0047266048283785235 0.0004644145110757523 -0.0019119607043363877 0.011296176029989214 -0.010050692717733997 -0.010050697778567756 0.011296168842353342 -0.0019119454304584232 0.00046440840608189557 -0.004726572328282529 0.003483395946922828 0.0008892885892398951 0.008533763385368301 -0.0007804773059169526 0.0005859310537976792 -0.005151573388890529 -1.8222663579033183e-5 15.126557188578849 36.27330239999731 54.25956913435577 51.633777094697116 39.28573101979457 24.38594197865567 22.83162517462149 28.95252905402314 32.61217811115999 15.73683818116371 -15.126604776445399 -2.971244491359596e-5 32.31779517960593 67.09283236706646 68.39294941428906 45.575192034969575 19.289613379112545 15.126133268703812 26.042197775197053 48.277763347232494 32.612154011356914 -36.273351007488095 -32.317851113065046 3.143758861947071e-6 31.883771837660003 31.876322539025686 -1.0813573783522683 -34.594883621707964 -27.161852467692448 -0.8563029479832711 26.042129183403258 28.952462594653884 -54.25960160477128 -67.0928707870886 -31.88374118648718 4.2990577008515634e-5 -1.9190048283802723 -38.77129864676988 -77.7784867428323 -80.12624352543959 -27.161923181682322 15.125981323887364 22.831539417796115 -51.63381236794663 -68.39297175499436 -31.876274409062113 1.919120016300739 3.0075683770635984e-5 -48.894870049275866 -76.64230763037519 -77.77854117447804 -34.59489153959549 19.28951383881086 24.38586030277155 -39.28576453726579 -45.575231069400594 1.0813406168128348 38.771396021739875 48.89495513089246 -1.2391516958326177e-5 -48.894858243501055 -38.77136865698949 -1.0813424011500583 45.575258792145135 39.28574394747775 -24.38598535587625 -19.289636076990845 34.59486210103997 77.77844934097959 76.64235514064174 48.894833804467424 -4.847943031416885e-5 -1.9190043429874577 31.876421271162553 68.39313468177619 51.63390664604912 -22.83167868966186 -15.126219112952343 27.161856234412912 80.12623852656277 77.77852441864242 38.77133839383108 1.9189288380088683 -7.850277031527029e-5 31.883862883787064 67.09305305271 54.25972755881288 -28.952545923949774 -26.042247159150516 0.8562637831479721 27.16194399505619 34.59494276630997 1.0813229523333892 -31.87640142020955 -31.883905494873922 -1.9823775546691717e-5 32.317956243570556 36.273448700572274 -32.61221229799141 -48.277793480527734 -26.042106405013598 -15.125956480322488 -19.289407195836894 -45.57519499716367 -68.39310598834204 -67.09302532228277 -32.3179579397031 -1.0594815618850814e-6 15.12663831752863 -15.736851308329046 -32.61218322144877 -28.952443733761804 -22.831501171334182 -24.385800159224537 -39.2856598215581 -51.63385226888113 -54.25969124148877 -36.27343104309857 -15.126636083948878 0.0
</DataArray>
        <DataArray type="Float64" Name="Mode_11_w" NumberOfComponents="1" format="ascii">
 -0.09542237097056873 -2.0382945569300345e-7 0.09542180237097635 -2.605152461625717e-7 0.00042736297050949485 -0.003078283034582763 -0.001273924297242663 0.00213085767722626 0.002387826874525421 -0.003979443754667414 -0.0028491742732973486 -0.005349546941593325 0.0012966486973039718 0.0025435590980895004 0.0009534363149011508 -0.0009533272257485232 -0.002543713885435568 -0.0012965687606903127 0.005349483930230573 0.0028491900472061875 0.003979493709255532 -0.0023877823326840545 -0.0021308625757626154 0.0012739062264565792 0.0030782535676815203 -0.00042736234515087883 -0.00042734813490520596 0.0030782430805531328 0.001273914129474136 -0.0021308757045045345 -0.0023878041873383114 0.003979521635853767 0.0028491660520898426 0.005349516837351994 -0.0012965933035508103 -0.002543696469489385 -0.0009533406540986841 0.0009534368634265004 0.0025435535393743477 0.0012966659314391305 -0.005349572862033349 -0.002849153525507845 -0.003979470814267252 0.002387834477344909 0.0021308634385769853 -0.0012739348621995045 -0.003078268855564934 0.0004273562773537433 -30.680897447620843 -36.46974574864395 -32.042518243811735 -26.236432062272826 -31.10891241194361 -44.70451476959916 -50.62722611291338 -43.48156317552077 -23.013474860234112 -6.051520226231442 -7.567805297358865e-5 -36.469753023152904 -52.27290840336069 -34.30600191614287 -19.523592384819555 -18.989885376462485 -44.71464482985243 -63.58628245509293 -60.04138256867224 -31.658595091926763 -0.00017399662012558794 6.051236500757961 -32.042509601284095 -34.30601569009342 0.7332425462510906 30.45536472263684 30.951764791049445 0.8110521430694323 -29.29793738319198 -25.066997081186265 -0.00012087945197724722 31.658371441207915 23.013304205105396 -26.23641669294953 -19.52356958402491 30.455403189393785 78.60708093699768 82.49122884323943 47.21407765172855 1.0071772682730262 8.379734638404407e-5 25.067114449639927 60.041280954439884 43.48147877970656 -31.108873953601243 -18.989868135422924 30.951763780118085 82.49121898574363 83.24821952592532 46.565365404750786 1.8591524031773157e-5 -1.0071878881109328 29.29814093363695 63.586591925533 50.627304393812636 -44.70444612181811 -44.71456581728401 0.8110586235712458 47.213993809614344 46.56534425399926 -0.0002171012841520194 -46.565484553939896 -47.213906391583485 -0.8109653934981329 44.71492778287453 44.70472038838909 -50.62717034071117 -63.58622503125633 -29.297926467919496 1.007066383426991 -0.00012748944275680206 -46.56551167773244 -83.24859016387963 -82.49121883437438 -30.9516167281749 18.990034396287598 31.109064856921915 -43.481505180323005 -60.04132611040411 -25.067003304563183 2.8030196282447036e-5 -1.0072988969656094 -47.213992032578446 -82.4911833006926 -78.60725318806384 -30.45543641265664 19.523473836100276 26.236415148293876 -23.01344617449135 -31.658563389500475 -0.00015710883805131401 25.06701079814657 29.298105852205023 -0.8109822877094794 -30.951564933854055 -30.455408955828155 -0.7334366271705115 34.30573874820757 32.0423544829995 -6.051497168999312 -0.00015831720810645025 31.658381116614628 60.04123438307507 63.58655280491688 44.714972202941645 18.9901479391526 19.52359664351468 34.30579202615465 52.272545835298395 36.469524060046496 -5.6651239502210494e-5 6.051239266019258 23.0133055810615 43.481454000110126 50.627303506773366 44.70473517968942 31.10913730847742 26.236502299478182 32.04241233128626 36.4695560640214 30.6807147828329
</DataArray>
        <DataArray type="Float64" Name="Mode_12_w" NumberOfComponents="1" format="ascii">
 -7.64412174840399e-8 -2.6250554228515074e-7 -1.0277035432528519e-7 1.933667620652421e-7 0.00788780977689389 -0.0019300946263970243 -0.0011400741663092043 -0.014107706724054333 -0.0020209197339236874 9.289951164575446e-5 0.01124526945390909 0.006861675417580648 -0.00010602839643000876 -0.002748015281521465 -0.002473918968642764 0.002473967731858178 0.0027478483969386163 0.0001062923590001881 -0.006861967679724114 -0.011245111301857465 -9.287587607454717e-5 0.0020209040913242585 0.014107670800834665 0.0011400825426127862 0.0019300696989645654 -0.007887785554136155 0.007887784564796873 -0.001930078953436365 -0.0011400784596986347 -0.014107686146348986 -0.00202089137609181 9.290745012114077e-5 0.011245087412479371 0.006861922684075812 -0.00010619636015314404 -0.002747942347891141 -0.00247391589753254 0.0024739744923081603 0.0027479166110342588 0.00010611054936502161 -0.006861700038941278 -0.01124530486449092 -9.283931290630201e-5 0.0020209019928793927 0.014107720649983727 0.0011400587409015506 0.0019300930210739595 -0.007887813949010895 -2.499509758808807e-5 21.967812159915322 47.563363970084424 58.52012302488283 29.55827505525607 -16.754131642344497 -55.128055418109625 -57.82380212953816 -34.39990160302706 -10.772098696383413 6.765243328254897e-5 -21.96786312594175 -3.706226346012892e-5 45.42850380258515 83.15942365400687 64.05110955507108 -3.004195529633117 -66.3667423178517 -85.8895982785674 -43.40922687309149 3.82005098119759e-5 10.772173592552189 -47.563391471069515 -45.42854481770099 -3.00655395311403e-5 38.17204382993767 44.864955664999584 -2.292932192653822 -31.847706556411843 -40.48028589640293 -0.0001288275614135195 43.40973694616551 34.40000367348208 -58.52009479802587 -83.15939746926627 -38.1720156237854 -0.00010228558407610412 30.712783701515914 -1.0657258622291699 -18.275683504589168 0.000286850836660574 40.47975930554162 85.88938965165495 57.823990265836855 -29.558198887670518 -64.05106464853695 -44.86483054471161 -30.712720422451092 -0.00016678649716330094 11.358345883485523 -0.00039788452436435455 18.275233414856807 31.848205539757615 66.36660775539004 55.12800160288834 16.754243179783163 3.0043250979349416 2.2928207211688982 1.0658153742669634 -11.358286365023043 -0.0001824363484472989 -11.357553688248625 1.0652585348768835 2.292800997919592 3.004500491358151 16.754189335518078 55.12808613858642 66.36691911654356 31.847824142105164 18.275430671023372 0.00047612570858606513 11.35767545468363 -0.00012500353406346527 -30.712193939178157 -44.86485769791563 -64.05087091047123 -29.558107865159545 57.82381904164662 85.88949970950118 40.4803580901344 -0.0001973619062011753 -18.27550323516222 -1.0650903616521705 30.71236823034871 -4.31956258492158e-5 -38.171821430538685 -83.15920982684916 -58.51995955521067 34.39993617462662 43.4092836068382 -7.370857029141727e-5 -40.479694191056495 -31.84812468957803 -2.292917211986977 44.865025476609716 38.1718948434568 -2.1939472492615225e-5 -45.4284474226101 -47.56329085598051 10.77203671702161 -2.1038146491580596e-5 -43.409717304039816 -85.889559361351 -66.36651106844072 -3.0044326677553155 64.05088971178685 83.15919756769274 45.42838486882936 -6.526895870172236e-5 -21.96781285344574 -8.191617242092075e-5 -10.772230334503517 -34.399980143243454 -57.824026911751766 -55.128036043363444 -16.754148446419727 29.55814496346377 58.51994219039066 47.56324201922322 21.96774148959068 -3.323540615843652e-5
</DataArray>
        <DataArray type="Float64" Name="Mode_13_w" NumberOfComponents="1" format="ascii">
 -0.19198845819397747 0.07402831295011375 -0.1919886111231918 0.07402823679417954 -0.00047141772516461723 -0.010033638077671075 -0.0016146664024968992 0.0016238880524330204 0.009629240758763083 -0.0004257414049179321 -0.003521222218140357 -0.010353521129322488 0.018819077220883194 -0.0015123133942921416 -0.004905444835155292 -0.004905433042155345 -0.00151234461604843 0.018819119321558754 -0.010353552058181528 -0.0035211993667494616 -0.00042575130190756545 0.009629245620154435 0.0016238674639215988 -0.0016146427062559737 -0.010033663239550381 -0.00047140679948841536 -0.00047141794375352185 -0.010033649040894902 -0.0016146618046593338 0.0016239126548853102 0.009629190969370848 -0.000425753682697137 -0.003521006854653202 -0.010353915594113257 0.018819348036682452 -0.0015123201175396873 -0.00490552764191525 -0.00490553176312892 -0.0015123262318716092 0.018819352195631 -0.01035391236271811 -0.003520974682787324 -0.00042577083911362115 0.0096291892681395 0.0016239084754023252 -0.0016146798309739955 -0.01003363488646048 -0.00047141180939782955 -61.99881587694142 -67.11779120081763 -39.51761901769718 -2.7813916096209876 19.70808784293042 13.914856213333517 4.482113002243233 16.679392092023807 47.23558952597963 39.57137056509197 22.57136405456999 -67.11777156780651 -100.88465911299262 -51.90634248289892 -3.5782603904204806 33.32003494645728 20.776526159072002 7.6971067439949845 -25.799175175435856 38.1199429800409 81.16864012251952 39.571351292232436 -39.517575199209745 -51.90629308292164 -2.23557758320561 39.957693675820224 53.21768037069245 -15.05097861957036 -24.476059266745658 -16.324261748800794 -52.474905527333654 38.11985927538515 47.23552760843297 -2.781334943001499 -3.5782262539803473 39.95787334507362 53.64718380450462 67.87603577036734 24.184655738344357 -113.63536776124414 -55.052558947021566 -16.324306006334414 -25.799330974498176 16.679291571185587 19.708158248083787 33.32008294778361 53.21740775681039 67.8766310427712 -14.339934160044132 22.246631108536953 -13.324651674148322 -113.63541535255987 -24.47610911363714 7.697025416006554 4.48201030227108 13.914795724912416 20.776790582806544 -15.051042111231766 24.183853329508956 22.24764004191366 -75.32404667888925 22.246686277126937 24.184709182570415 -15.051028833450175 20.776499533163253 13.914822308396973 4.482010006541789 7.696740089036924 -24.4753933932962 -113.63546632763351 -13.325720477553453 22.24767700875282 -14.339918273663336 67.87614746298128 53.21777702577269 33.32005002361051 19.708099225297556 16.679562543008682 -25.799296210079568 -16.324976122105944 -55.05164944227993 -113.63549556588067 24.183899799615208 67.87669675561554 53.64719187202241 39.95778594157542 -3.57819465582025 -2.781360497009088 47.23542599886492 38.12038988422546 -52.47493932413652 -16.32495963777973 -24.475402096012637 -15.05111862647393 53.21743822609483 39.95788855811984 -2.235573505914975 -51.90632491446595 -39.517598470807684 39.571245864721895 81.1683187962257 38.120404912850326 -25.79930688082181 7.696781921704362 20.776728092754183 33.31999351646496 -3.5782852789791266 -51.906340996946476 -100.88473569783812 -67.11782145638591 22.571407776606986 39.57124174207853 47.23545465568528 16.67956529497686 4.482015145410051 13.914774248518466 19.70811137142444 -2.7813968489206387 -39.5176257221115 -67.11784068310106 -61.998864904992445
</DataArray>
        <DataArray type="Float64" Name="Mode_14_w" NumberOfComponents="1" format="ascii">
 -9.913593522724398e-7 -0.00942716769054211 -9.675238820779652e-7 0.009428814329793514 6.365679823645845e-5 -0.00025311233556648643 -0.00020356741522298868 0.005022458739823817 -0.010505530613661954 -0.004097589982814893 0.048263078699219364 -0.08321320998937438 0.057024872795385394 -0.0005745173181836257 -0.01844227904342367 -0.01844229020031513 -0.0005745229413661761 0.05702486820303086 -0.08321318223130574 0.048263129220725676 -0.004097607831031075 -0.010505551475934847 0.005022439372591693 -0.00020359170265050978 -0.00025309487451409535 6.36691562922822e-5 -6.367338397423007e-5 0.00025298761332853903 0.0002035693064679307 -0.005022417964781573 0.010505917495087 0.004096792457325528 -0.04826235904741333 0.08321339796411446 -0.057026300615209316 0.0005762298157025543 0.01844133586838017 0.018441327540431186 0.0005762208096374006 -0.05702629957031755 0.08321341933520537 -0.04826231942129472 0.004096790551916654 0.01050589628518988 -0.005022444604974779 0.00020355025692800772 0.0002529981347780352 -6.36582634695531e-5 -0.0003198628755127148 -0.09759084335520184 -0.8218453628449329 2.296987682548272 9.43114246610843 -10.812996825688854 -9.971564893386985 47.93766075688231 -28.284615693378328 -26.966048141406485 7.063252910647407 0.09689968361187842 -0.0005100129845006307 0.8808326237195956 -9.368213617137851 -0.689575349377017 55.99387272838953 -65.5314815022901 -7.586232639237928 104.42599342055885 -76.27764203143649 -26.966083847243414 0.8214695591729788 -0.881364940386492 0.00011833048574725495 30.360773803359095 -68.98262133729587 -13.096883869956097 150.06587632101125 -147.27393355560406 -0.8457062594214444 104.42585832614947 -28.284727835417048 -2.2969525112198386 9.368143798129562 -30.360733392963816 0.00132979085771912 126.38918546592443 -174.36514337037238 -12.259731280910959 194.82321072387364 -147.2740805971045 -7.586505337766775 47.93747604607392 -9.431068181966692 0.6905549206666605 68.98210762730102 -126.39008313109137 0.0023069806759516693 213.36712196904824 -227.48358758916413 -12.259773844177497 150.06575807610733 -65.53170425885985 -9.9717353127167 10.812786615849522 -55.9941520813734 13.09963718482556 174.36301779323742 -213.36967291814113 0.0026510787181670548 213.3671390512373 -174.36516554316836 -13.096865200131148 55.99386301917681 -10.813031648553933 9.972281376554385 65.53022148697235 -150.06781146171227 12.26364863742809 227.4804670872955 -213.36972670297362 0.0023487594906179176 126.38921804604804 -68.98249304147338 -0.6893861815691271 9.43125593232868 -47.937516729174156 7.588561780366355 147.2716350958104 -194.8261476989606 12.263761145738368 174.3629595978418 -126.39019498950736 0.001311704800706577 30.360884538386593 -9.367956373444976 2.297171147844942 28.284167549949217 -104.426750527048 0.8488553557601148 147.27174049923389 -150.0676674393417 13.09969971997437 68.98193752497988 -30.360914390145624 8.752325059867244e-5 0.880974503604194 -0.8216932028140155 26.967254754578047 76.27738909572348 -104.42657767042374 7.58887169575471 65.53041415219413 -55.99415052196286 0.690380379325339 9.36787650023138 -0.8815154567402598 -0.000505272202789064 -0.09752744789727999 -7.06286585921523 26.96729621040531 28.2842920842577 -47.93730579406377 9.972469887083305 10.812811462122587 -9.431185062495752 -2.297124446179934 0.821330490300333 0.09685594037157347 -0.00031241866279115797
</DataArray>
        <DataArray type="Float64" Name="Mode_15_w" NumberOfComponents="1" format="ascii">
 0.04714664731527711 -0.059596500498324836 0.04714663045476377 -0.059596490301312116 5.900363885481586e-5 0.0025135205943933553 0.0011746070727116171 -0.0010682436969808803 -0.013791716027048857 0.03633783272291528 -0.035890980466671114 -0.011223730452193709 0.06802094471827162 -0.07694443605153534 0.041789983962301214 0.04179000409218136 -0.07694449014813648 0.06802101590517017 -0.011223775692180128 -0.03589096046683805 0.03633782992366891 -0.013791709492762722 -0.001068258448258291 0.001174597704414665 0.00251352081680586 5.9014818811258096e-5 5.90086581893727e-5 0.0025135329669393742 0.0011745896645916328 -0.0010683480549911306 -0.013791506361775608 0.03633796400470568 -0.03589204223926431 -0.011221927029136478 0.06801973293419833 -0.07694449127826929 0.04179043010328587 0.04179041530302839 -0.07694447232494675 0.06801970310370496 -0.011221902982664086 -0.0358919957794489 0.036337913186140026 -0.013791481418436974 -0.0010683795314228276 0.0011746073684384118 0.0025135260077094415 5.901297360658262e-5 15.214014428325871 16.55408441129118 8.998267817007825 -1.8515569874252238 1.9065951498538445 12.825347301374807 -32.48789443573419 -3.894513537366977 29.416484861230792 -46.46484621405458 -13.025687389926919 16.554118761073983 23.72387087207715 13.740595819861216 3.510175662210413 -36.5781958790364 18.891864476133115 58.869695753616014 -112.2755206591871 40.19612493155203 28.858498320338356 -46.46487188758143 8.998360115609165 13.740642900720282 -10.501975917892679 8.599601129240849 34.59486247062308 -128.92791542520345 82.57215823895582 102.8853830085335 -155.12323643793388 40.19604721338857 29.416437131486813 -1.851521751724795 3.510522870365386 8.599031849714722 -107.94136806085478 56.37705992730709 103.36738775862332 -203.98212166985067 122.34305035767707 102.88536726999631 -112.27570202196257 -3.894629856942344 1.9064144967341377 -36.57807465128085 34.59649185272291 56.37438239984355 -216.47463110127222 120.97162301480338 139.32491845687375 -203.9821956431895 82.57212043731609 58.8696602073158 -32.48800327238086 12.825530468164684 18.890597033682447 -128.92760293918175 103.37128764089614 120.96704447707857 -259.82145992521424 120.97168110519085 103.36748883909497 -128.92801896520163 18.891854845972592 12.82534329033569 -32.48779706654674 58.870990228560586 82.5687986381307 -203.98185677411746 139.3299718454888 120.96709696632699 -216.4747059038656 56.377186208784096 34.59498973270703 -36.57818276023231 1.906615896311004 -3.8956432614648673 -112.27552318948736 102.88853434169783 122.33875106623208 -203.98190777665943 103.37136675542932 56.374460632091996 -107.9414355833382 8.599701968274807 3.5102382276516635 -1.8515154575921628 29.417118961228425 40.19381646725995 -155.12326242477792 102.88858223063397 82.5688406341363 -128.92773167309386 34.59652552650154 8.599012823926845 -10.501986736898928 13.740608853553354 8.998282093587566 -46.46416408469305 28.860311137985814 40.19385460847884 -112.27553347965126 58.87107002229098 18.89056516938392 -36.57818465206845 3.5104373323042664 13.740576566253328 23.723856951254657 16.554087832029772 -13.025783574169239 -46.464170855906126 29.417171955647298 -3.8956357758337172 -32.48778827573464 12.825523918350376 1.9063752480578697 -1.8515987362604602 8.998286643575172 16.554082345408265 15.214009621399144
</DataArray>
        <DataArray type="Float64" Name="Mode_16_w" NumberOfComponents="1" format="ascii">
 -2.2039628531011223e-8 0.15487717119472869 2.914910687268671e-10 -0.15487712450275445 -0.005293720578156175 0.0023219177822647887 0.0027629384108293176 0.008584940446813405 5.800413804386483e-5 -0.0066279387750114134 -0.018468618046036125 0.0055661337855536395 -0.005757263687572506 0.03494377374257942 -0.02395121123689211 -0.02395118531077916 0.03494372902990819 -0.005757192384788593 0.005566041802393481 -0.018468600001738153 -0.0066278821993745116 5.7908605631891956e-5 0.008585020189067608 0.002762929213790765 0.00232191693807486 -0.005293728796157313 0.005293727553556971 -0.0023219141993176995 -0.00276293481510593 -0.008585011514111392 -5.791055274256224e-5 0.006627860572422956 0.0184686224475695 -0.005566014201710099 0.005757120648518786 -0.03494365680029155 0.023951144906737765 0.02395115900734239 -0.034943673407924265 0.005757174901886496 -0.005566144871187279 0.01846871965582563 0.006627825353232959 -5.793712743435179e-5 -0.008584955344593454 -0.002762932796956446 -0.0023219248518005563 0.005293721444320642 -7.0425536152357e-6 -13.558774932463432 -24.346565681958005 -18.427789062823912 14.495064774360689 51.08399776388023 55.35146012148248 8.366870336810592 -45.22870297344748 -81.06550442299326 -45.62158651561033 13.558762093973373 -1.6085155139450178e-5 -28.07030224785682 -39.91931413281453 -11.520947627370434 41.98593330596614 88.07837908036562 49.71149449049802 -33.541116090313935 -105.13618419834359 -81.06547150462349 24.34657098080295 28.070285249888773 2.0046100734589772e-5 -29.88838323369931 -31.564599949530706 -10.189623196339916 18.07844182464855 47.035444797294936 21.293999949145146 -33.540974617799556 -45.22861460921102 18.42781743005028 39.919285323502635 29.888321331494 0.00010234907022823323 -48.02109905248115 -39.356510459019184 -24.74856915181539 -4.281591036746827 47.03546882439395 49.71159823474962 8.367039719530986 -14.495034164278152 11.52107048463173 31.564499225422452 48.02099632463256 0.00015333374425524285 -73.84726415699106 -54.543203362006516 -24.748556685582983 18.07865614643686 88.07840340643507 55.351497513769054 -51.084035251535994 -41.98595664776668 10.189846546515701 39.35638872013629 73.84713123768744 0.00015223884580095685 -73.8471849801959 -39.35666442180679 -10.189646030600928 41.98605566769858 51.08402543423884 -55.35140269163046 -88.07848415020432 -18.0785958458411 24.748820027315677 54.54306507640848 73.84704411594522 0.00014796923104813605 -48.021004994993554 -31.56479450534322 -11.521129071763106 14.495045409738157 -8.366881120291469 -49.71134347575392 -47.03556182429156 4.281408609000893 24.748816969614378 39.35648739150841 48.020929239723785 3.848346422250896e-5 -29.88828431907252 -39.91948834433225 -18.4279075173898 45.228639005852074 33.54103016412462 -21.293799243629675 -47.03560004473567 -18.078703900459693 10.189798231555766 31.564755903962112 29.888268404200144 -5.609650548293247e-6 -28.070324376513184 -24.346655555675618 81.0655488146724 105.13613565599542 33.54097214661485 -49.71147101766018 -88.07845568546729 -41.98608008593446 11.521157009577912 39.91948948412476 28.07031886122969 -1.820450670936424e-6 -13.558796807938837 45.62159484940213 81.06551335661683 45.228596323622554 -8.367007839683025 -55.35145022655157 -51.08402654832305 -14.495052558088208 18.42791243339685 24.34665545490514 13.558797493862212 -0.0
</DataArray>
        <DataArray type="Float64" Name="Mode_17_w" NumberOfComponents="1" format="ascii">
 -0.1944630084885938 -2.809742726066583e-9 0.19446302378595276 3.5538552671230975e-8 -0.002555749420185647 -0.01716278991471128 0.006142164878715116 0.0006171929505856445 0.025891843102991422 -0.0045324785764727 0.0036088533015150343 -0.030767088312258523 0.016973030365292237 -0.005960078951618985 0.004747267154154811 -0.004747241717190074 0.005960043640596473 -0.01697300075439322 0.03076706716770346 -0.0036088429648573972 0.0045324766721049035 -0.025891836965934372 -0.0006171915311040906 -0.006142179106854103 0.0171628019809996 0.002555747438998102 0.0025557528680198423 0.017162793477296948 -0.006142179718474072 -0.0006171846271035568 -0.025891839067632417 0.00453249023397659 -0.0036088717105980084 0.03076709756412578 -0.01697303485775011 0.0059600803690725655 -0.0047472645583565036 0.004747249705525874 -0.005960061475955717 0.016973036371224947 -0.03076710921532719 0.00360886802758325 -0.0045324759385645084 0.025891827491278736 0.0006172027520319188 0.006142163448178484 -0.017162798983422267 -0.002555741333598999 -63.222408293640875 -57.62154191016113 -3.303781732982011 49.0358173325019 72.43198651429763 30.111134378880692 -24.675664890206164 -58.39559528352074 -26.30446786905465 -10.043716140976148 1.0102642520463147e-5 -57.62152684649714 -96.03673829597405 -27.14984322777871 36.64687778481349 90.66323103433706 57.22266389647156 8.332840438060806 -76.04533816044248 -55.69847802101394 2.1557676792300734e-5 10.043758912746293 -3.3037686544476976 -27.149812159393708 -7.677595178399975 8.61665853261904 27.74329661953421 -25.35767025778018 -27.645738545066873 4.381593998465294 -8.582551339845847e-6 55.69846138740524 26.304492369082066 49.03582697563794 36.646865510933935 8.616687301815757 -31.159785377933677 -17.397329225027633 16.986149398682116 -60.081608348537955 -2.72286035400767e-5 -4.381585971268089 76.04532520355055 58.39559437973037 72.43200794233617 90.66321794160697 27.743231029386887 -17.397307032515123 -129.89865266557683 -18.610910030329133 2.016549532470925e-6 60.0815620611719 27.645730420340627 -8.332809336587964 24.675672604565516 30.111138553606775 57.222696419375104 -25.357709833663236 16.986102764904288 -18.61091239758694 -4.418305265737972e-5 18.610900240483236 -16.986129922506606 25.357689473766136 -57.222634860825124 -30.111109689167463 -24.6756728745131 8.332834228184737 -27.64570703158145 -60.08160466719221 2.2039252689993294e-6 18.61091480196245 129.89860626632475 17.39733329700738 -27.743247219056897 -90.6631935556694 -72.4319709297438 -58.39559116494145 -76.04534356998512 4.381598681061352 1.4374510333763345e-5 60.081555499779974 -16.986108223507944 17.397321362803453 31.15976797653284 -8.616673467742453 -36.646882815687576 -49.03580821735079 -26.30448891774268 -55.698472437094445 -1.1337121039459956e-5 -4.381549131868833 27.64574727086165 25.357675177246325 -27.74323288814186 -8.616685487751367 7.677581383052597 27.14979311516017 3.303760214297779 -10.043750776789546 -1.490748966672005e-5 55.69846141890536 76.0453203040498 -8.332779146772523 -57.22266540985659 -90.6632138631893 -36.64688928420694 27.1498015666103 96.03672649883366 57.62152457236444 9.49439371493179e-7 10.043725570353779 26.304486378814573 58.39558156892521 24.67568074442516 -30.11112109771682 -72.43199164551031 -49.035827384071986 3.30375712340525 57.62153275063666 63.22241410801015
</DataArray>
        <DataArray type="Float64" Name="Mode_18_w" NumberOfComponents="1" format="ascii">
 0.06652657632553195 1.294756344480502e-8 -0.06652671081244865 -7.81804683237332e-8 0.001613573288211927 0.0030170101515509928 0.006039253008917552 -0.0076951255395613875 -0.03361576396622075 0.07237964584985729 -0.04926223056849467 -0.021307615836541026 0.06354826867830517 -0.04954482769454084 0.019843396155159357 -0.01984340175007354 0.04954484125491843 -0.06354829500191639 0.021307678137294 0.04926216320980734 -0.07237964254541504 0.03361578120712892 0.0076951219092491 -0.006039254529489663 -0.0030170202565760716 -0.0016135692805232997 -0.0016135767435997241 -0.0030170139334012107 -0.006039247878394998 0.0076951310983451775 0.03361575286365221 -0.07237967394466724 0.04926228078969815 0.02130756336891373 -0.06354824061497612 0.04954481440182707 -0.01984338880142239 0.019843421602647893 -0.049544864416215716 0.06354825427328457 -0.02130754572612358 -0.04926227078077994 0.07237963416541336 -0.0336157463072509 -0.007695126779402136 0.00603925709464446 0.0030170103804279523 0.0016135694115000068 21.73003201824108 20.616681087769443 2.7325276609265323 -26.738469339438506 -10.886509997631526 41.108359351658656 -32.718551257907045 -22.023877163598762 37.7081615496387 -9.474267182052014 -2.2428386340087586e-5 20.616669440311636 26.804503435059512 14.170244997272286 7.653179724635592 -100.92995013117678 13.789324122588734 118.35775270913895 -88.46171377155717 1.0445924572305942 -2.53052677703196e-5 9.474181762977041 2.73250291003493 14.170213418703153 -44.43583256837863 40.717225958856154 104.50618845442875 -194.8148889061612 46.778311259721086 73.11163300197401 -8.969532858604561e-6 -1.0445806196933063 -37.708196392871564 -26.738499587447905 7.653160391788401 40.717194234530524 -191.83612822023625 108.54674595375535 138.797626694964 -109.28690902354357 4.7993282358795815e-5 -73.11144352683515 88.46167739851153 22.023875484649214 -10.886532938527115 -100.9299571490656 104.50628147457435 108.54664482276728 -210.53732535563222 68.03081650499297 7.822808527201068e-5 109.28675180018226 -46.77829408526055 -118.35778593642495 32.718507834546635 41.10837817131807 13.789297657332172 -194.81480366309006 138.79779413360015 68.03073619616386 -0.00017783793186181593 -68.03079477514446 -138.7975218975995 194.81486797744083 -13.789443787473072 -41.10845650770809 -32.718543760206344 118.35779109936693 46.7782223573786 -109.2868559677508 6.620217222916863e-5 -68.03069295750932 210.53720015287982 -108.54676633540102 -104.50613021984944 100.92995523417426 10.886447640070674 -22.02394423918546 -88.46169460895644 73.1116628175761 5.991879330316117e-5 109.28671266824708 -138.79775626057182 -108.5465143948624 191.83626460863331 -40.71720379442866 -7.653159325311553 26.738448250522993 37.708159586350455 1.0445026012376493 -2.710406579519181e-5 -73.11155153414833 -46.77811384767672 194.81480605331566 -104.50632200914339 -40.7170955993434 44.43590692609992 -14.170224129418855 -2.7325389142388 -9.474210554222138 2.2311415800784368e-5 -1.0445093895208588 88.46162836877922 -118.35790415546185 -13.789250603593558 100.9299381753595 -7.65318880323393 -14.170253764698908 -26.804551750177247 -20.616713331476625 3.631584019223933e-6 9.474222658479883 -37.70815497393608 22.023940842239206 32.71844408546834 -41.108453708202106 10.886507012618043 26.738467963929175 -2.732552409111556 -20.616728223769858 -21.730075675257016
</DataArray>
        <DataArray type="Float64" Name="Mode_19_w" NumberOfComponents="1" format="ascii">
 2.7715604237004674e-8 -5.958633655166744e-8 -5.316541348409071e-8 2.073995817549307e-8 0.00023671970530492238 0.0015744095643950861 0.0013712289730238797 -0.021893776072398282 0.033604360369431006 0.007936803557229347 -0.0797195596376993 0.0975005739670674 -0.04974793753018125 0.00785379447963563 0.0018871679124735344 -0.0018871568061758375 -0.0078537706702969 0.04974783262877479 -0.09750045882861302 0.07971947730776784 -0.007936746272762772 -0.03360435976837209 0.021893731611063713 -0.0013712018640090944 -0.001574411017765994 -0.00023672375393783576 0.00023672032837129435 0.0015744033083890643 0.0013712202771756787 -0.021893751514882605 0.03360437078927273 0.007936728478226284 -0.07971946793110324 0.0975004991283793 -0.04974788102540929 0.007853771139721296 0.001887176564434368 -0.0018871164915967174 -0.007853865523718022 0.049747962196860444 -0.09750050920260896 0.07971940627763115 -0.007936620076843244 -0.0336044679225617 0.02189377631825212 -0.001371219622554442 -0.0015744049110583943 -0.0002367180592590937 9.09206230939577e-6 2.5963793445303476 10.99175260341473 5.2943225040557955 -29.219715631966036 15.602186684474226 45.25435083102876 -52.55252430227004 -2.9820787514296847 7.793472530140003 1.1367107177602125e-5 -2.59636564202305 1.8968405705694695e-5 -5.6006667892446576 40.846157340257506 18.501818581234744 -124.42010313697011 76.52446340401268 53.20973605836513 -56.6546847572887 1.5964026365149083e-5 -7.793500088152584 -10.991771908037741 5.600706127133651 -3.1504666874416564e-5 -92.91797534488538 137.3281051746027 47.38190661708946 -175.60224087411933 56.07707550388165 -8.246441966597083e-5 56.65485853459075 2.9821306341628695 -5.294408478662136 -40.84611699035958 92.91813344010657 -0.00016062431124004743 -218.1457897859604 170.96321853719417 25.510987392923422 0.00010792024123837746 -56.07718459177359 -53.20982792058989 52.55253322587764 29.219642840540754 -18.50208152802128 -137.32787747902455 218.14599185078703 -0.00010753859440263733 -128.4661176134419 -9.271652524877378e-5 -25.511036550499547 175.60225185764622 -76.52438754097089 -45.25437523844267 -15.60211291673906 124.42009012717327 -47.38223215190418 -170.9631128551499 128.46613977040334 6.745598548004281e-5 128.4662557193022 -170.9631182932834 -47.382043060412656 124.4199664040303 -15.60216856745198 -45.25440657822211 -76.5242907628847 175.60235302873514 -25.511011153608365 -9.542561949561875e-5 -128.46633770492878 6.005505224452196e-5 218.14583453126892 -137.32784527502153 -18.501948274181338 29.219619290371067 52.5525274970631 -53.20980533425722 -56.0771069710629 9.188239223954759e-6 25.51116070798177 170.9630180275725 -218.1458202506924 2.949770885528529e-5 92.91799264733537 -40.84611089464 -5.29438834006997 2.9820770456569887 56.65478664225421 0.00011753762870096371 56.077048551370765 -175.60228380543364 47.38207570710645 137.32786674125063 -92.91793021852436 3.88726806238646e-6 5.600643074218629 -10.991780315338069 -7.793536278558757 -0.00011961727424937255 -56.65478645734302 53.20990976550528 76.52435967874086 -124.4200092798848 18.501934232311562 40.84611585793065 -5.600640419241282 -2.9279227178446697e-5 -2.5963962694982916 -1.7283053552948355e-5 7.793455674851528 -2.9821864905291027 -52.55250654036597 45.25440606000079 15.602158241008093 -29.21964028565627 5.294359127695416 10.99176596382934 2.596367111804675 -1.7462908200560495e-5
</DataArray>
        <DataArray type="Float64" Name="Mode_20_w" NumberOfComponents="1" format="ascii">
 -0.060953458556912164 -0.08547918419850899 -0.06095336874427436 -0.08547867597216635 -0.0017023100364607 -0.0010808939815370516 0.008101915571993454 -0.00530062471377071 -0.02687271808200851 0.03330614376031335 -0.028929589631574174 0.02362972286122125 0.009091194678613246 -0.04587443798729253 0.03552599797850114 0.03552602758848295 -0.04587451468759958 0.009091274011763633 0.023629720450274335 -0.028929616186347124 0.03330614474699135 -0.026872710670825535 -0.005300630456882269 0.008101926122547681 -0.0010808995903376756 -0.001702306696162223 -0.001702279337026317 -0.0010808950198679885 0.008101910723618648 -0.005300794459605017 -0.026872503483116792 0.033306166875522125 -0.028929842281932728 0.02363006340148135 0.00909076611241705 -0.04587400527858174 0.03552576330079312 0.03552576526676879 -0.04587400213915105 0.009090720350745185 0.023630154273661354 -0.02892988896065989 0.03330614690736597 -0.026872474830022836 -0.005300798658564455 0.008101934220905129 -0.001080921213341834 -0.0017022752198486354 -19.922341681197242 -21.133956530726355 -27.026284265150935 -54.39884927555656 -56.72933268718694 -13.590834067373633 -16.251152206515357 3.622729236124582 -27.23100792905004 -66.4608153940018 -21.168241834048928 -21.13387698394271 -17.983908866095163 6.705055785173662 -1.415921680146899 -99.85701186542529 -52.997616249016154 28.108392429473277 6.956079353653878 59.77531424278612 -101.09127967088743 -66.46081314007587 -27.026146717871978 6.705112947280417 26.856691956762322 92.596503477074 89.48386590991947 -83.60643076780057 49.185305752131526 -10.834851223762797 75.48973372427473 59.77521289292347 -27.23103555203934 -54.39877671206699 -1.4155949161725028 92.59598370802941 -19.915248759011863 82.9087847742103 -18.954777309100614 20.189175617237012 70.41049084051129 -10.834749278851987 6.956096954535854 3.622632525890877 -56.72957519912192 -99.85688448338519 89.48453942774692 82.90807397343546 -6.295139757787715 -44.756753924706665 -98.17103110816984 20.18922334041811 49.185137576844454 28.108512215764815 -16.25115748403823 -13.59088440961311 -52.99831217109761 -83.60634978809155 -18.95431648355173 -44.756635880158285 -6.111450094775901 -44.75689610204035 -18.954420545999927 -83.60639742422138 -52.99767011170748 -13.590821855075065 -16.251034643052442 28.108651036320598 49.185025372266615 20.188961431203392 -98.17122262799676 -44.75642899266568 -6.295312892392594 82.90867653815657 89.48400553147411 -99.85707370026236 -56.72938014849124 3.6225654709726176 6.956008297960386 -10.834581649487935 70.41106157968487 20.18878903859939 -18.95446668498965 82.90827598263692 -19.915332812143557 92.59652493120697 -1.4159813648827253 -54.39890422815785 -27.230988391801965 59.775485376586076 75.48933160114996 -10.83454615346326 49.185271024753334 -83.60655129020975 89.48448914715082 92.5959930645431 26.856720994587253 6.705057958305393 -27.026317050358337 -66.46115287111013 -101.09129444889115 59.775592685650956 6.955901162866379 28.108721132919417 -52.998251691156156 -99.85688055125347 -1.415576687908508 6.705157157329259 -17.983863649540464 -21.133932655051144 -21.168368252608282 -66.46115867853086 -27.230887853019887 3.6226274443879203 -16.251042273393832 -13.590884738143142 -56.72955358048717 -54.39874844344263 -27.026108827907393 -21.133844938682078 -19.92231277275647
</DataArray>
      </PointData>
    </Piece>
  </UnstructuredGrid>
</VTKFile>
