<?xml version="1.0" encoding="utf-8"?>
<VTKFile type="UnstructuredGrid" version="1.0" byte_order="LittleEndian" header_type="UInt64">
  <UnstructuredGrid>
    <Piece NumberOfPoints="100" NumberOfCells="81">
      <Points>
        <DataArray type="Float64" Name="Points" NumberOfComponents="3" format="ascii">
 0.0 0.0 0.0 1.0 0.0 0.0 1.0 1.0 0.0 0.0 1.0 0.0 0.1111111111109082 0.0 0.0 0.2222222222217143 0.0 0.0 0.333333333332501 0.0 0.0 0.4444444444432878 0.0 0.0 0.5555555555543833 0.0 0.0 0.6666666666657874 0.0 0.0 0.7777777777771916 0.0 0.0 0.8888888888885959 0.0 0.0 1.0 0.1111111111109082 0.0 1.0 0.2222222222217143 0.0 1.0 0.333333333332501 0.0 1.0 0.4444444444432878 0.0 1.0 0.5555555555543833 0.0 1.0 0.6666666666657874 0.0 1.0 0.7777777777771916 0.0 1.0 0.8888888888885959 0.0 0.8888888888884262 1.0 0.0 0.777777777777932 1.0 0.0 0.6666666666675918 1.0 0.0 0.5555555555572513 1.0 0.0 0.4444444444462943 1.0 0.0 0.3333333333347207 1.0 0.0 0.2222222222231471 1.0 0.0 0.1111111111115736 1.0 0.0 0.0 0.8888888888884262 0.0 0.0 0.777777777777932 0.0 0.0 0.6666666666675918 0.0 0.0 0.5555555555572513 0.0 0.0 0.4444444444462943 0.0 0.0 0.3333333333347207 0.0 0.0 0.2222222222231471 0.0 0.0 0.1111111111115736 0.0 0.1111111111109822 0.1111111111114997 0.0 0.1111111111110561 0.2222222222229879 0.0 0.11111111111113 0.3333333333344741 0.0 0.1111111111112039 0.4444444444459603 0.0 0.1111111111112779 0.5555555555569326 0.0 0.1111111111113518 0.6666666666673913 0.0 0.1111111111114257 0.7777777777778495 0.0 0.1111111111114996 0.888888888888445 0.0 0.2222222222218735 0.1111111111114257 0.0 0.2222222222220326 0.2222222222228287 0.0 0.2222222222221919 0.3333333333342274 0.0 0.2222222222223511 0.4444444444456261 0.0 0.2222222222225103 0.5555555555566142 0.0 0.2222222222226695 0.6666666666671908 0.0 0.2222222222228287 0.7777777777777675 0.0 0.2222222222229879 0.8888888888884641 0.0 0.3333333333327478 0.1111111111113518 0.0 0.3333333333329944 0.2222222222226695 0.0 0.3333333333332409 0.3333333333339809 0.0 0.3333333333334875 0.4444444444452922 0.0 0.3333333333337342 0.5555555555562953 0.0 0.3333333333339808 0.6666666666669903 0.0 0.3333333333342274 0.7777777777776853 0.0 0.3333333333344741 0.8888888888884827 0.0 0.4444444444436218 0.1111111111112779 0.0 0.4444444444439559 0.2222222222225103 0.0 0.44444444444429 0.3333333333337342 0.0 0.4444444444446241 0.4444444444449581 0.0 0.444444444444958 0.5555555555559767 0.0 0.4444444444452922 0.66666666666679 0.0 0.4444444444456261 0.7777777777776029 0.0 0.4444444444459602 0.8888888888885016 0.0 0.5555555555547019 0.1111111111112039 0.0 0.5555555555550206 0.2222222222223511 0.0 0.5555555555553392 0.3333333333334875 0.0 0.555555555555658 0.4444444444446241 0.0 0.5555555555559767 0.555555555555658 0.0 0.5555555555562953 0.6666666666665892 0.0 0.555555555556614 0.7777777777775206 0.0 0.5555555555569326 0.8888888888885205 0.0 0.666666666665988 0.11111111111113 0.0 0.6666666666661885 0.2222222222221919 0.0 0.666666666666389 0.3333333333332409 0.0 0.6666666666665892 0.44444444444429 0.0 0.66666666666679 0.5555555555553392 0.0 0.6666666666669903 0.666666666666389 0.0 0.666666666667191 0.7777777777774384 0.0 0.6666666666673913 0.8888888888885393 0.0 0.7777777777772737 0.1111111111110561 0.0 0.777777777777356 0.2222222222220327 0.0 0.7777777777774384 0.3333333333329944 0.0 0.7777777777775208 0.4444444444439559 0.0 0.7777777777776029 0.5555555555550208 0.0 0.7777777777776851 0.6666666666661882 0.0 0.7777777777777675 0.7777777777773562 0.0 0.7777777777778496 0.8888888888885582 0.0 0.8888888888885771 0.1111111111109822 0.0 0.8888888888885582 0.2222222222218735 0.0 0.8888888888885391 0.3333333333327477 0.0 0.8888888888885205 0.444444444443622 0.0 0.8888888888885016 0.5555555555547019 0.0 0.8888888888884827 0.666666666665988 0.0 0.8888888888884638 0.7777777777772739 0.0 0.888888888888445 0.8888888888885769 0.0
</DataArray>
      </Points>
      <Cells>
        <DataArray type="Int64" Name="connectivity" NumberOfComponents="1" format="ascii">
 0 4 36 35 35 36 37 34 34 37 38 33 33 38 39 32 32 39 40 31 31 40 41 30 30 41 42 29 29 42 43 28 28 43 27 3 4 5 44 36 36 44 45 37 37 45 46 38 38 46 47 39 39 47 48 40 40 48 49 41 41 49 50 42 42 50 51 43 43 51 26 27 5 6 52 44 44 52 53 45 45 53 54 46 46 54 55 47 47 55 56 48 48 56 57 49 49 57 58 50 50 58 59 51 51 59 25 26 6 7 60 52 52 60 61 53 53 61 62 54 54 62 63 55 55 63 64 56 56 64 65 57 57 65 66 58 58 66 67 59 59 67 24 25 7 8 68 60 60 68 69 61 61 69 70 62 62 70 71 63 63 71 72 64 64 72 73 65 65 73 74 66 66 74 75 67 67 75 23 24 8 9 76 68 68 76 77 69 69 77 78 70 70 78 79 71 71 79 80 72 72 80 81 73 73 81 82 74 74 82 83 75 75 83 22 23 9 10 84 76 76 84 85 77 77 85 86 78 78 86 87 79 79 87 88 80 80 88 89 81 81 89 90 82 82 90 91 83 83 91 21 22 10 11 92 84 84 92 93 85 85 93 94 86 86 94 95 87 87 95 96 88 88 96 97 89 89 97 98 90 90 98 99 91 91 99 20 21 11 1 12 92 92 12 13 93 93 13 14 94 94 14 15 95 95 15 16 96 96 16 17 97 97 17 18 98 98 18 19 99 99 19 2 20
</DataArray>
        <DataArray type="Int64" Name="offsets" NumberOfComponents="1" format="ascii">
 4 8 12 16 20 24 28 32 36 40 44 48 52 56 60 64 68 72 76 80 84 88 92 96 100 104 108 112 116 120 124 128 132 136 140 144 148 152 156 160 164 168 172 176 180 184 188 192 196 200 204 208 212 216 220 224 228 232 236 240 244 248 252 256 260 264 268 272 276 280 284 288 292 296 300 304 308 312 316 320 324
</DataArray>
        <DataArray type="UInt8" Name="types" NumberOfComponents="1" format="ascii">
 9 9 9 9 9 9 9 9 9 9 9 9 9 9 9 9 9 9 9 9 9 9 9 9 9 9 9 9 9 9 9 9 9 9 9 9 9 9 9 9 9 9 9 9 9 9 9 9 9 9 9 9 9 9 9 9 9 9 9 9 9 9 9 9 9 9 9 9 9 9 9 9 9 9 9 9 9 9 9 9 9
</DataArray>
      </Cells>
      <PointData>
        <DataArray type="Float64" Name="Mode_1_w" NumberOfComponents="1" format="ascii">
 0.0001389588437780734 0.00013895930018393895 0.00013895921981837858 0.00013895980611954963 -5.590542288683532e-5 -2.5400019182475748e-5 -5.0078841781377436e-5 -5.3533183726112914e-5 -5.353336943540675e-5 -5.007964889952651e-5 -2.5400199157903403e-5 -5.590557362872809e-5 -5.5905819943446535e-5 -2.5399549189781435e-5 -5.007970186413908e-5 -5.353339587134094e-5 -5.353319070478695e-5 -5.0079202155653734e-5 -2.540009026854515e-5 -5.5905558542636446e-5 -5.5905863179815664e-5 -2.5399914285660993e-5 -5.007910112798634e-5 -5.353202877718191e-5 -5.353264010320347e-5 -5.007953321273504e-5 -2.540075634062708e-5 -5.590672003129783e-5 -5.590647414834612e-5 -2.5400864238324142e-5 -5.007925051072326e-5 -5.3532841449406214e-5 -5.353263755704014e-5 -5.0079219164461007e-5 -2.5400207020390716e-5 -5.5905339570666386e-5 -7.550264300834741 -14.189740055066073 -19.11769337933737 -21.73980327406332 -21.73981451229575 -19.117728251396947 -14.189793787595924 -7.550308998989613 -14.18973703939713 -26.667768098412328 -35.92923879643984 -40.85715508378755 -40.857172165770685 -35.92929238323135 -26.667847427516026 -14.18980020098082 -19.11769155252522 -35.929237023549724 -48.4071370570353 -55.04647553206095 -55.04649725510034 -48.407194174529934 -35.92930682454899 -19.117740052309188 -21.739812144038016 -40.857160055521 -55.04647227721317 -62.59643205491319 -62.59645280004566 -55.04651588435944 -40.857193772626076 -21.73982555888486 -21.73983111882545 -40.857184980359484 -55.04649264146735 -62.59644161713681 -62.59645019017098 -55.04650276437189 -40.857175585152724 -21.73981195585627 -19.11773224116077 -35.92929281067126 -48.407185367484054 -55.04650326743354 -55.04649717393282 -48.407166524346025 -35.929261709770984 -19.117704095200224 -14.189771654116244 -26.667819573954446 -35.929291622815484 -40.857194689834145 -40.857183827556305 -35.92926797388912 -26.66779623021909 -14.189755896593798 -7.550280560066314 -14.189767743373828 -19.117727767316374 -21.739835925729214 -21.73982904375077 -19.11771500740906 -14.189759425403286 -7.550277744896648
</DataArray>
        <DataArray type="Float64" Name="Mode_2_w" NumberOfComponents="1" format="ascii">
 -0.0003251916843625845 -1.5318209197541976e-10 0.00032519180359223346 1.3811070042647426e-10 0.0001652114567031553 0.0002813198217057539 0.0001819797860124271 0.00029133401055637264 5.2648140113457174e-5 0.00012771957223341464 -7.924931224397898e-5 4.1707945898212464e-5 -4.170735168520708e-5 7.924985183252804e-5 -0.0001277193032779324 -5.264847638142321e-5 -0.000291334126934846 -0.00018197996463134876 -0.00028131930049928516 -0.00016521106719762202 -0.00016521150028640262 -0.0002813194191907476 -0.00018198000039165358 -0.0002913342069885851 -5.2648378105362464e-5 -0.00012771942778801304 7.924959651083018e-5 -4.170774816045458e-5 4.1707576264542634e-5 -7.92499858414866e-5 0.00012771914942729282 5.264781416300578e-5 0.00029133484023563164 0.00018197966688341533 0.0002813196796809473 0.00016521111706159123 20.7315049677572 35.330265094724375 40.16831582035239 35.341652244729765 24.350159013356002 12.3239479153977 3.631681882326772 -8.367746536637382e-6 35.33026116084721 59.571569253509125 66.29460076665286 55.96179270548513 35.30565947914432 13.965238458811424 -2.1830901399172226e-5 -3.631710019558993 40.1683046524942 66.2945899586686 70.50181458565012 54.00068194483837 26.17075633539539 -1.1367766991593001e-5 -13.96527638262721 -12.323975564063065 35.34164314756887 55.96178049536431 54.00067594959154 31.646672016068443 1.1905150004984319e-5 -26.17075024008578 -35.305669043009125 -24.350170057197246 24.350167521376857 35.30566964585123 26.17076307509987 1.539581671135992e-5 -31.646639968859365 -54.00065334995531 -55.961771587630146 -35.34164200234596 12.323975931388174 13.965276398260444 1.7251714287037573e-5 -26.170735649153894 -54.00064682115202 -70.50177859234603 -66.29456796537919 -40.16829726800054 3.6317139521723436 2.360190006588253e-5 -13.965236526983773 -35.30564409215256 -55.96175725561808 -66.29455869691041 -59.57153963543896 -35.33024995131473 1.1209778975183934e-5 -3.6316803267726567 -12.323947047112085 -24.350150026179918 -35.34162899363825 -40.16828623875028 -35.330243329979396 -20.731495544835177
</DataArray>
        <DataArray type="Float64" Name="Mode_3_w" NumberOfComponents="1" format="ascii">
 5.280401741299832e-11 0.0003251921528117193 2.016794669356152e-10 -0.000325191627926699 -4.170791010918342e-5 7.924969178883413e-5 -0.00012771953678554932 -5.264802195590295e-5 -0.0002913342564007802 -0.00018197980069910007 -0.00028131977676191085 -0.0001652117368950809 -0.00016521158304724052 -0.00028131967874994214 -0.00018198003256802848 -0.00029133461392220493 -5.2648343534965314e-5 -0.00012771930352627694 7.924969944364088e-5 -4.170768236691796e-5 4.1707565627556375e-5 -7.924919114067252e-5 0.00012771920748999872 5.264880370075747e-5 0.00029133387423242426 0.0001819799500603802 0.000281318827453408 0.00016521162031981736 0.00016521151823682085 0.0002813189805363819 0.00018197953064316973 0.00029133398637462636 5.264831991416958e-5 0.00012771896083603243 -7.924929427390021e-5 4.170777748451137e-5 7.964479018482888e-6 3.6317066267182883 12.323963527174387 24.350150190548902 35.34161558695408 40.168263024771264 35.330217662283836 20.73147855309592 -3.6316822128991033 2.1206697875043364e-5 13.965270724461305 35.30565544128454 55.961744537882915 66.29452757421065 59.57150154153216 35.33022194364398 -12.32393939515005 -13.965221477284896 3.398629928045294e-5 26.170771338108114 54.00066007357921 70.50176856391455 66.29454461098966 40.16827774819381 -24.35013878536762 -35.305622004075744 -26.170710896845694 3.506553191560176e-5 31.64667927627061 54.00067187578633 55.961773834334345 35.341639233332195 -35.34163157235973 -55.96175898838287 -54.00064788185443 -31.646638170083868 2.0049994352728734e-5 26.170770964682905 35.30567811858651 24.350172443259613 -40.16830941781348 -66.29459851947092 -70.5018240494764 -54.000687525505164 -26.17076084839405 4.845967208553755e-6 13.965271227093144 12.323973024418297 -35.33027665883486 -59.57159755167027 -66.29463754432514 -55.96182981884679 -35.30569506914408 -13.965270420295953 1.1976044709957856e-6 3.631701515059646 -20.731519857911167 -35.3302901778479 -40.16834717602363 -35.341686067213196 -24.350191022720008 -12.323975032407684 -3.6317006310355135 0.0
</DataArray>
        <DataArray type="Float64" Name="Mode_4_w" NumberOfComponents="1" format="ascii">
 0.0004177142554802363 -0.0004177135073245062 0.0004177147699861076 -0.00041771499594450115 -0.00031139916092623904 -0.0005628965634088211 -0.0003051862220160185 -0.0002650388815296276 0.0002650389295441112 0.00030518610331316715 0.0005628956752458144 0.0003113994302456032 0.000311399065225135 0.0005628959559134428 0.0003051858766206813 0.00026503934682398566 -0.0002650381525025186 -0.0003051858946421746 -0.0005628969567865201 -0.0003114000542447464 -0.00031139969576673103 -0.0005628977324811629 -0.0003051868919346748 -0.0002650395768760359 0.00026503969842192235 0.00030518651993626043 0.000562898014439677 0.0003114003679106104 0.0003114003577921491 0.0005628977595010359 0.00030518647845828925 0.0002650390302409562 -0.00026503947012553584 -0.00030518637423700753 -0.0005628971140060334 -0.000311399494658752 -28.714342591428608 -43.76559077728514 -38.318627856167765 -15.13743861313343 15.13742398455851 38.318647856287015 43.76563841893538 28.71438144371281 -43.76558793918188 -66.50974339288464 -58.33521091302863 -22.971920382378304 22.971891478928423 58.33522786732153 66.5098004327926 43.76563885027343 -38.31861611196342 -58.33519903275244 -51.07189311869127 -20.17503689542272 20.175000434615033 51.07189124597074 58.33523188943778 38.31865019282097 -15.137427219128961 -22.97190631623988 -20.175027783589933 -7.920754736238604 7.920719733395053 20.175002404511567 22.97189488648733 15.137425969235888 15.137403884189547 22.97186773994645 20.17498970943391 7.920722347460898 -7.920754996249266 -20.175044854734907 -22.9719354471738 -15.137450345630585 38.318573535505806 58.33513259834205 51.07183026924135 20.174994229550318 -20.175025874181486 -51.07191001548668 -58.33524846076268 -38.318660845538176 43.76553049872186 66.50965799712695 58.335134090312586 22.97187611162715 -22.971897921042263 -58.33521128884044 -66.50978151876394 -43.76562792023217 28.714300518086084 43.76552957023217 38.318574623945935 15.13741150731897 -15.137418067609193 -38.31861952633813 -43.765608288022065 -28.71436398390975
</DataArray>
        <DataArray type="Float64" Name="Mode_5_w" NumberOfComponents="1" format="ascii">
 0.0006366379476431221 0.0006366382968977861 0.0006366384152266128 0.0006366388046130632 -0.000609214573753775 -0.0005680194007627974 -0.0005128882249050735 -0.0003265044389269258 -0.00032650504091197237 -0.0005128887091356226 -0.0005680200196946597 -0.0006092145017783536 -0.0006092144428923607 -0.0005680195500938559 -0.0005128891356366975 -0.00032650488066160617 -0.00032650526114044433 -0.0005128888157548256 -0.0005680199552644948 -0.0006092150345340096 -0.0006092149475361565 -0.000568019225346472 -0.0005128888725962747 -0.00032650475131399504 -0.000326505259568914 -0.0005128894703257357 -0.0005680203116309622 -0.0006092151618553385 -0.000609215469175942 -0.0005680205018448786 -0.0005128889102007307 -0.0003265043964791213 -0.0003265046139838991 -0.0005128891441892168 -0.0005680195435152543 -0.0006092149825901011 -29.31993928604038 -42.20980348124767 -37.117003581174274 -27.547755895870274 -27.54775620155221 -37.11701433382305 -42.20983183728381 -29.319966373617977 -42.20979206358468 -55.09933073105966 -37.116487992192546 -14.657282499774334 -14.657282707611017 -37.116504080926155 -55.09937597952266 -42.20983738049942 -37.11697946692488 -37.11646722090088 0.0004914669177913576 37.11719939784124 37.11720028198236 0.0004767962104070361 -37.116513299922936 -37.117027081519375 -27.547733165799247 -14.657254877822911 37.11721518575292 84.41484796659333 84.41484884529409 37.117206142825935 -14.657285366132648 -27.547764912715316 -27.547739126266407 -14.657255521377937 37.11722631678775 84.41486317085172 84.41486059215885 37.11721813989066 -14.657268092936912 -27.547749957437784 -37.11698946534603 -37.116464739733495 0.0005162249453775179 37.11723057470366 37.11722364961385 0.0005017087342062578 -37.11647570207949 -37.11699329073455 -42.20979507012288 -55.09932130103357 -37.11646466925617 -14.657260023337855 -14.65726722037208 -37.116483360080146 -55.09934052880951 -42.20980507999204 -29.319936730560485 -42.20979458523324 -37.11699096522237 -27.547748962106358 -27.547752927928176 -37.11700338795249 -42.20981102511819 -29.319947750633215
</DataArray>
        <DataArray type="Float64" Name="Mode_6_w" NumberOfComponents="1" format="ascii">
 -2.0901962409529408e-10 -2.900354016671949e-10 -2.8229628961139156e-11 -2.55124279853783e-10 -4.320824212359288e-5 0.0001309080757941134 0.0005011814703015942 0.00081110910405942 0.0008111093830335329 0.0005011815837770947 0.00013090869063184157 -4.320781792122763e-5 4.320872067651784e-5 -0.00013090832515871647 -0.0005011815919771744 -0.0008111099074628001 -0.0008111095790322867 -0.0005011815581075657 -0.00013090837047736247 4.3208081920201e-5 -4.320787342385376e-5 0.00013090853189358912 0.0005011816837619899 0.0008111093493970695 0.0008111091563228023 0.0005011812959317156 0.000130908107372989 -4.320804827770423e-5 4.3208181724369904e-5 -0.00013090797207169537 -0.0005011812655590297 -0.0008111096175394617 -0.0008111091471177152 -0.0005011815920184661 -0.0001309076665040975 4.3208082921630036e-5 6.4491302267308335e-6 -12.890205264843802 -37.11721074137575 -56.86752675518168 -56.86753140094887 -37.117224273573896 -12.89022108568946 -2.888242334172285e-6 12.890221427088619 8.452531664669475e-6 -37.11685975436564 -69.75701104696486 -69.75701625364658 -37.11687792818158 -1.7340089084288852e-5 12.890204034395923 37.117217349164086 37.11686331215251 -2.8031757482560494e-6 -37.11666895504174 -37.1166738272858 -2.041610759660313e-5 37.11683607029104 37.117196200148356 56.867526568280844 69.75700646899318 37.116660784682104 -2.7979720077749186e-6 -9.561333158628984e-6 37.11664155617717 69.75697847466238 56.867503507377265 56.867536926907725 69.75702277613215 37.11667663682111 7.493140750907254e-6 -3.149506135654155e-6 37.11664730920446 69.75698586019432 56.867511158668776 37.117240932293406 37.11689989189317 3.1073895576259106e-5 -37.11664645528843 -37.11666014753989 -6.9445518406019255e-6 37.11685389455045 37.117211884460154 12.890243596452084 3.869921302194961e-5 -37.11683428862591 -69.75699378484187 -69.75700382132806 -37.11686431062215 -1.417926343316271e-6 12.89021477532825 1.881629228604858e-5 -12.890194023876806 -37.11720371369277 -56.86752106748775 -56.867524748481465 -37.11721624720378 -12.890215223582302 0.0
</DataArray>
        <DataArray type="Float64" Name="Mode_7_w" NumberOfComponents="1" format="ascii">
 -3.3815571361447107e-10 0.0010608545501256063 2.0245806327167087e-11 -0.0010608542374932022 -0.00019564090955508096 0.0005111767801157489 0.00046709762947737905 0.0011238075891859894 2.1376924846241057e-5 -0.00048684823402541695 -0.001576811339522266 -0.0012292838016355557 -0.0012292834943159348 -0.001576810879403718 -0.00048684853117054815 2.1376840381353346e-5 0.0011238075714622383 0.0004670968708805553 0.000511176144222888 -0.00019564169118777597 0.00019564103983728465 -0.0005111760761691845 -0.00046709758647086783 -0.0011238075664902465 -2.1376820708742448e-5 0.00048684750874361163 0.001576809922110206 0.0012292831645636126 0.0012292833819039335 0.0015768098428948702 0.0004868483273903464 -2.1377304608355922e-5 -0.0011238071269757284 -0.0004670974524644963 -0.0005111754602531338 0.0001956418906699156 2.766118250261665e-5 -14.687210490001034 -38.02350816376 -43.794161032817044 -13.832840766826967 38.02218865271067 72.31354044862807 57.62734470928713 14.68728657073957 5.065696276086561e-5 -38.02270490476955 -58.47943927403294 -28.51991238462711 38.021282363753265 86.99703243465527 72.31353764118136 38.02356186086255 38.02277410692048 2.2187288714090815e-5 -38.022402710727675 -38.02274136688507 -0.0017859319476696335 38.02128484522662 38.02218844286865 43.79417299722013 58.479451695975754 38.022406120812995 -1.458350481356924e-6 -29.960694278342462 -38.02272846235425 -28.51989817404243 -13.832833272263569 13.832816960081823 28.51987450098038 38.022709820543085 29.960688865074744 1.0478848490318959e-5 -38.02238486014675 -58.47942650918152 -43.79415733563553 -38.022236367595895 -38.021354361406146 0.0017281044314881157 38.02271288190741 38.022410007008226 1.839754689402491e-5 -38.02272112431213 -38.02352587654768 -72.31359675679938 -86.9971159686077 -38.02135497215331 28.51986901297734 58.47943448304598 38.02274047600713 5.336784456845698e-6 -14.687245576664342 -57.62738477347074 -72.31359690492663 -38.02223928625581 13.832807930129727 43.79415185829592 38.0235268270519 14.687246963581767 0.0
</DataArray>
        <DataArray type="Float64" Name="Mode_8_w" NumberOfComponents="1" format="ascii">
 -0.001060854172345787 2.5181515066917006e-10 0.0010608542893868712 5.810174258355033e-10 0.0012292831542015008 0.0015768097800540773 0.0004868486165623361 -2.1377312537448672e-5 -0.0011238073791541463 -0.00046709701586002757 -0.0005111758864134419 0.00019564089231585138 -0.00019564194821640555 0.0005111762267071368 0.00046709703654607246 0.0011238076188047187 2.1377480702518056e-5 -0.00048684795015472985 -0.0015768102215299683 -0.0012292834179543743 -0.0012292837647688499 -0.0015768107326929162 -0.0004868482567153689 2.137739360457585e-5 0.0011238077494109353 0.0004670979976949654 0.000511176017423012 -0.00019564180453438 0.00019564076066766887 -0.0005111764442638382 -0.0004670981778716387 -0.0011238071890403091 -2.137658127493784e-5 0.0004868483113919722 0.0015768102198984238 0.0012292828351169684 57.62735491831601 72.31356538853143 38.02222723170501 -13.832807998418673 -43.794161592627766 -38.02354962461995 -14.68727090209825 -1.5712543076279996e-5 72.31355522478556 86.99707149224275 38.021337016239215 -28.5198678493988 -58.47943734500992 -38.02275501046255 -2.4803345646048715e-5 14.687231221918521 38.022205891624964 38.02131750981751 -0.001747671422145353 -38.022711505992525 -38.022397287366545 -3.4687701338315578e-6 38.022732312985454 38.02353078959028 -13.832824962669497 -28.519889629016195 -38.02272696365179 -29.960696827887702 2.3138322637637726e-7 38.02241211807615 58.4794578110411 43.7941770811057 -43.794155919436704 -58.47943901640574 -38.02241629936716 -2.0700942071847244e-5 29.960683501172614 38.02273457319106 28.519910591993163 13.83284216818467 -38.02352327267557 -38.02273530509278 -1.6220507160979002e-5 38.02238156320033 38.02271660834544 0.0017630757275142043 -38.0213089716153 -38.022205844047 -14.68724499653085 -5.628829895417092e-7 38.022729763937164 58.47943562597412 28.519894900456926 -38.021310018866494 -86.9970699437783 -72.31356772924609 -3.5545011039631577e-6 14.687245451389767 38.02353308141152 43.79416787967125 13.832836911866671 -38.02220099069694 -72.31356243621018 -57.62736474234642
</DataArray>
        <DataArray type="Float64" Name="Mode_9_w" NumberOfComponents="1" format="ascii">
 0.0014581517028211708 0.001458152517696359 0.0014581516222466069 0.0014581517457217706 -0.0020953779018377783 -0.0016025745696175004 -2.656299429877194e-5 0.001711073266668275 0.0017110729388171528 -2.6564412418019947e-5 -0.001602576085280019 -0.0020953784253284237 -0.0020953786801631434 -0.0016025746155695836 -2.6562742041727374e-5 0.001711073499675614 0.001711072088126323 -2.6564603657216738e-5 -0.0016025751047379357 -0.002095377639516182 -0.0020953773035150025 -0.0016025737555989252 -2.6561849266530106e-5 0.0017110736973743612 0.0017110734934392671 -2.656393171082484e-5 -0.0016025753305469737 -0.0020953780324437354 -0.0020953780952820303 -0.0016025743830144713 -2.656238481445893e-5 0.0017110740658242889 0.00171107285262134 -2.656391508444961e-5 -0.0016025756844295798 -0.002095377983010337 -56.92450176651561 -56.92018793105212 0.002321374439193163 56.922431932828474 56.92245927070422 0.002374569587763528 -56.92015564899677 -56.924497049634994 -56.92017101138467 -56.91580578258465 0.002310485967509262 56.918134569302566 56.918156651170825 0.002348207602163683 -56.915795167894736 -56.92018378000983 0.0023516568986837894 0.0023369524521874453 1.974894238703678e-5 -0.0022932765143349513 -0.002296098424824386 4.528469318460625e-6 0.0023037263581993997 0.0023204401301100217 56.92244058136464 56.918154509453366 -0.0022709632629770394 -56.92046224387573 -56.92048204074742 -0.0023117009598545672 56.91812533123958 56.922430524904954 56.922419652128056 56.91814185481646 -0.0022648250214428373 -56.92045245767081 -56.92047613646941 -0.0022946854082763818 56.918161381776656 56.922464183460995 0.0023087247943639685 0.0023172730561656554 4.3144122006905696e-5 -0.0022757148838897946 -0.00230589623383038 1.1909701543059165e-5 0.0023638599528743604 0.0023877154274322804 -56.920205238032885 -56.91580728325311 0.002349761911065498 56.9181442479289 56.91810274805366 0.002295026758882175 -56.915782011099324 -56.92013757430297 -56.92451723673871 -56.92017844415577 0.0023554212581799764 56.922433489977756 56.922399396321914 0.002303578899072137 -56.920178080247695 -56.92448382725936
</DataArray>
        <DataArray type="Float64" Name="Mode_10_w" NumberOfComponents="1" format="ascii">
 -0.0006867724902782994 -6.743974725376884e-10 0.0006867725853215781 7.340962476235648e-10 0.0011300842201130434 0.0013555802774806842 0.0006907216294310546 0.0014004144318844345 0.0017171660055150526 0.0020658665084966918 0.0006321651311571943 0.00013730363868410137 -0.00013730139607987045 -0.0006321621549692034 -0.0020658672270938722 -0.0017171671870891121 -0.0014004149156568381 -0.0006907201225348377 -0.0013555803661565436 -0.0011300845519237122 -0.001130084506699187 -0.001355582658160049 -0.0006907253722369667 -0.0014004164177398304 -0.0017171638776169896 -0.0020658627098483085 -0.0006321624439531166 -0.00013730335685115984 0.00013730143782086224 0.0006321608728847697 0.0020658633750913254 0.0017171654678551375 0.0014004175815113594 0.0006907239696362621 0.0013555818878833064 0.0011300843491974422 35.7637577592345 39.78420714405169 29.537815412248502 39.814542987564295 63.14694717921127 61.005894646326944 27.42286226009267 -2.1012436466330202e-5 39.7841639157526 23.227345244688383 -13.919075604804368 -4.130677096169598 39.71594006699401 45.213011896555315 -1.1101158997981628e-5 -27.422893843595904 29.53772703462791 -13.919144834140615 -79.6665146347463 -74.83149156993261 -15.760220846837317 -1.2915085833644162e-6 -45.21300180763435 -61.00588317201066 39.81448027619491 -4.130732347678028 -74.83150410337821 -67.17292786997449 -1.6216224541300093e-5 15.760207077445592 -39.71591787910607 -63.14691506512674 63.14697107148403 39.71596562093278 -15.760206378621763 -7.351789501179364e-6 67.17291209632391 74.83148385183863 4.1306841337343405 -39.814530266485065 61.00598657850384 45.21307789254978 -1.2464172407878545e-5 15.760192993230469 74.8315144342819 79.66652746591961 13.919070288194575 -29.537830412402727 27.422957046395126 1.8864901431934272e-5 -45.21308983679881 -39.715983965549974 4.130748279288408 13.919172389223483 -23.227346099581037 -39.78422699375647 3.222254096023868e-5 -27.42290304321599 -61.0059853979406 -63.14698897812807 -39.81447352637869 -29.53770499117083 -39.78415841999395 -35.76376702024843
</DataArray>
        <DataArray type="Float64" Name="Mode_11_w" NumberOfComponents="1" format="ascii">
 1.984682543497349e-10 -0.0006867717928078746 2.270218494250162e-10 0.0006867725022532705 0.0001373025484666653 0.0006321623704816613 0.002065865439649604 0.0017171661303565684 0.001400415814474855 0.0006907224571909904 0.0013555806461017664 0.0011300832950648374 0.0011300836074898937 0.0013555809556894882 0.0006907237520148857 0.0014004166715377456 0.0017171660896937832 0.0020658649129365364 0.000632162247357641 0.000137302314308686 -0.0001373024213213681 -0.0006321623145243548 -0.002065864924265788 -0.0017171652370682805 -0.00140041585764195 -0.0006907233262607087 -0.0013555818577631901 -0.001130084615671163 -0.0011300843685565273 -0.001355581681907594 -0.0006907227178090237 -0.001400415169749823 -0.0017171655283824028 -0.0020658652914151447 -0.0006321630167506865 -0.0001373026224494743 -1.3175118452769325e-5 -27.422925124990332 -61.00595107106743 -63.14695110896788 -39.8144926559267 -29.537764062009902 -39.784197880874636 -35.76377303846161 27.422892951968716 -1.8254858015163688e-5 -45.21305918129172 -39.71594966026509 4.130724648763222 13.91912372886417 -23.22735468016685 -39.78420338524345 61.0059436017463 45.21305047138177 -2.1786614439638185e-6 15.760202107812287 74.8314997983009 79.66652631593547 13.919115673831667 -29.537774619185395 63.14697350749871 39.71597349303208 -15.760200963018436 -1.3924994019335572e-5 67.17290375318434 74.83149640843554 4.130719793749707 -39.8144987597637 39.814515809268194 -4.130696886028695 -74.83149503571447 -67.17293575221208 -2.3697529750179474e-5 15.760198055249552 -39.7159398904096 -63.14694065912348 29.537756748199918 -13.919124388686331 -79.66651848952795 -74.83149793600533 -15.760219022892304 -1.122922566096611e-5 -45.21303929711939 -61.00592409661883 39.784160416667284 23.22732485210225 -13.919104577062177 -4.130686150468739 39.71595756793469 45.21303510778631 -3.2079670421602922e-6 -27.42289819550173 35.763738315809746 39.784174594756905 29.537784721165597 39.81453395340948 63.14696662529161 61.00593118029318 27.422897946262026 0.0
</DataArray>
        <DataArray type="Float64" Name="Mode_12_w" NumberOfComponents="1" format="ascii">
 1.5969618925288948e-9 5.708822917680025e-10 2.2788717130046542e-10 3.6095961312288436e-10 -0.00013427167479014497 -0.001474010708521582 -0.00278087603967834 -0.0014152389696637444 0.0014152392730494715 0.0027808752777802254 0.0014740078632131564 0.00013426865171531019 -0.0001342700059433383 -0.0014740081970898394 -0.002780874693077092 -0.0014152375252607864 0.0014152406100013907 0.0027808768640533573 0.0014740087692159784 0.00013426899879801917 -0.0001342697070994412 -0.0014740083735452138 -0.0027808761361415918 -0.0014152378632930694 0.0014152405717452112 0.002780878039609314 0.001474008506034482 0.00013426952510202998 -0.00013426996537918876 -0.0014740094979095197 -0.0027808779474934016 -0.0014152396295888112 0.0014152384363502685 0.0027808759527124913 0.0014740065249509967 0.00013426677896305301 -6.751143713015211e-5 40.94842662863818 77.5048490920151 41.31402990275028 -41.314071593885686 -77.50493100628152 -40.94853556051779 -1.21648132280925e-5 -40.94856339260061 -5.3551612618996076e-5 62.49357802789579 40.75711779370322 -40.75710596966079 -62.493617386527774 -2.3608484250690845e-5 40.94850264722177 -77.50489817187191 -62.493559816884265 6.177208324716698e-5 14.09443236052999 -14.094359022756954 -1.11839508130925e-5 62.49359184451554 77.50491736155644 -41.31403543165984 -40.75706201000092 -14.094319664982912 3.164332046331945e-5 -1.126983909038088e-5 14.094358696448028 40.757124745441196 41.3140885047768 41.314027962495054 40.75708103045073 14.094362097787231 -2.770239366996172e-5 -5.282825464717404e-5 -14.094412172845777 -40.75708502800005 -41.31401079327058 77.50484654497072 62.49353277495467 -2.8868827658346632e-5 -14.094398308900885 14.094333773207895 -3.6283846602466386e-5 -62.493584991757054 -77.50487245927924 40.948467615226726 -2.1372310525921113e-5 -62.493558907738226 -40.75705767539765 40.75711860495673 62.493580437241704 -1.1669732118323407e-6 -40.948499006441295 -1.3527570561117435e-5 -40.94849395380722 -77.50484031461231 -41.31398173679958 41.31409092625067 77.50490963389238 40.94850822174206 0.0
</DataArray>
        <DataArray type="Float64" Name="Mode_13_w" NumberOfComponents="1" format="ascii">
 0.001183550128092172 -0.0011835495263832093 0.0011835498606951743 -0.0011835498349760047 -0.002389740053659901 -0.0027886564885269845 -0.0001079148277458449 -0.00038941972916648414 0.00038942048086437774 0.00010791489892570133 0.00278865637802328 0.002389739640082124 0.0023897389606155365 0.0027886568882298053 0.00010791588823079486 0.0003894210588599317 -0.00038942015633361 -0.0001079161787889395 -0.0027886568130285117 -0.0023897401968299907 -0.002389739849204937 -0.0027886563513533627 -0.00010791440982890074 -0.0003894202364828831 0.00038942006977304544 0.00010791451923972135 0.002788656591380736 0.002389740346858182 0.002389739726403491 0.0027886571256887436 0.00010791500855065393 0.00038942035196056494 -0.00038942100474735804 -0.0001079155258473135 -0.002788657526181762 -0.002389740456128286 -70.80990067722573 -65.19479086631458 -15.035262177573145 4.817670999822235 -4.817692465438307 15.035240410348779 65.19477453704765 70.8098924531822 -65.19477681651588 -36.134539053606034 30.85172003008145 28.378164820374202 -28.37816802851019 -30.85173417674431 36.13452246527527 65.19476811865219 -15.03523066186374 30.851742515278293 81.58124644147519 46.13947310807096 -46.13944914596131 -81.58123946069638 -30.851746174230033 15.035228686207985 4.817703016063965 28.378184816761387 46.13946733893686 23.800339449811013 -23.800327416535566 -46.13946087953181 -28.378177705362116 -4.8176943416523885 -4.81767991220648 -28.378170772070742 -46.139472439339045 -23.800345093422525 23.800328784924922 46.13946261426256 28.378177052761412 4.817693372742011 15.035229285025467 -30.851749785260196 -81.58125047615073 -46.13946719350287 46.1394553702605 81.58123929928557 30.851746548389606 -15.035225019962613 65.19475471589539 36.13451518733051 -30.851722859338253 -28.37815309226392 28.378170341850286 30.851724758719417 -36.13452636956034 -65.19476346341995 70.80987983478464 65.19477158313511 15.035261404021506 -4.81766298447185 4.817688955466038 -15.035253948062863 -65.19478133435265 -70.80989063557372
</DataArray>
        <DataArray type="Float64" Name="Mode_14_w" NumberOfComponents="1" format="ascii">
 -0.00220968265284358 8.375886047929995e-11 0.002209682977079207 -2.8524147421685212e-12 0.00478272575800575 0.003594606779022227 -0.00266818207239683 -0.003177185487284668 -0.001528055399821098 0.002708323611798131 0.0009458830730866507 0.0005049728860201305 -0.0005049730498353722 -0.0009458837162289496 -0.0027083235730296445 0.0015280552364990664 0.003177185308936803 0.0026681823095783845 -0.0035946068052714816 -0.004782726373505292 -0.004782726583558749 -0.0035946073934864714 0.00266818225476953 0.0031771846592877273 0.0015280554559500374 -0.0027083235223644107 -0.000945883580976247 -0.0005049733044090183 0.000504972408911596 0.0009458831161738716 0.0027083232719662333 -0.0015280555260784327 -0.003177185249089272 -0.002668182080014165 0.0035946069764768297 0.004782725823166408 98.4441787832963 65.65632410051514 -43.339465981628784 -81.14424129367576 -17.29263109831383 43.33170260260208 32.77435297544676 -5.693607201165449e-6 65.6563215819392 32.874622674366364 -43.32863381998004 -48.360936959313115 15.482626465864541 43.32685172823993 -1.635877638409834e-6 -32.7743619710928 -43.33947069419498 -43.328638270624566 0.005646467523322076 43.3342606397983 43.32891988788211 3.5160659428195315e-6 -43.326849248065216 -43.33170676345127 -81.14424374841528 -48.36094157614854 43.334256252473345 63.84701466897177 -5.5206819105325e-7 -43.328917518961504 -15.48262676567263 17.292626958572395 -17.292626724248613 15.482627043217523 43.32891664072213 -3.44332521656399e-7 -63.847015753514206 -43.33425841878462 48.360937344789484 81.14423851106233 43.33171379692427 43.32685671397634 9.591676402267111e-7 -43.32891456784049 -43.33425149681692 -0.005637234920553656 43.32863913734302 43.33946454241192 32.774364693104964 1.420311349076307e-6 -43.326856332568354 -15.482627418425976 48.360947338192254 43.328648733272864 -32.87461936659915 -65.65632933663393 1.0530341209757424e-6 -32.774362342556586 -43.33171445998396 17.2926237011806 81.14424452809567 43.339475154137446 -65.65632316834643 -98.44418571921625
</DataArray>
        <DataArray type="Float64" Name="Mode_15_w" NumberOfComponents="1" format="ascii">
 6.733025675438667e-10 -0.002209682594230522 -1.0431087950839453e-10 0.0022096834601966356 0.000504972490054581 0.0009458826825587701 0.0027083219360648906 -0.0015280565207025604 -0.0031771866043007802 -0.002668182656221645 0.0035946059340665336 0.004782725141922523 0.004782725083521472 0.0035946068500050457 -0.002668181310370688 -0.003177185853991295 -0.0015280567034522293 0.002708321771186904 0.000945883409942621 0.0005049727672660633 -0.0005049730259969233 -0.0009458838014174365 -0.0027083250466801282 0.0015280537754307198 0.0031771841861108693 0.002668182995911286 -0.0035946069526664186 -0.00478272700576945 -0.004782727003946868 -0.003594607891885458 0.0026681815294628576 0.0031771839072717795 0.0015280533374267963 -0.0027083251238293293 -0.0009458841284276644 -0.0005049737988475859 -9.959001900492183e-6 -32.77437304972954 -43.33173085934685 17.292596371435543 81.14421647562662 43.33945357080613 -65.65633679837879 -98.44419183074541 32.77434674450942 3.79530317481915e-6 -43.32683591795518 -15.48262185489292 48.36093738449052 43.32864601690557 -32.87460958639345 -65.65631833376302 43.331689901538795 43.32687179283582 5.3995529911877196e-5 -43.32888430996798 -43.334250858972986 -0.0056250157986844716 43.328670049629906 43.33948808495653 -17.292651920907186 15.482634478212466 43.32894796652122 -1.3278285547610047e-6 -63.84703975432319 -43.33425884753629 48.360954085570775 81.14424464618023 -81.14426079042876 -48.360942379760026 43.334258213353024 63.846987870993935 -2.651676306152865e-5 -43.32891338791812 -15.482627221939172 17.292607243894384 -43.33947907577441 -43.32863330594929 0.005652760377445498 43.33425093806612 43.328923363227574 3.070574962043299e-5 -43.326843616079756 -43.33172884533571 65.65631376445069 32.874632805992796 -43.32861415445217 -48.360931815934876 15.482631405301147 43.32687157124602 1.0661367480341426e-5 -32.774366694182746 98.44417048523523 65.65633053483246 -43.3394506386103 -81.14424202529709 -17.29264502396457 43.331697791416175 32.774359181458045 0.0
</DataArray>
        <DataArray type="Float64" Name="Mode_16_w" NumberOfComponents="1" format="ascii">
 0.0011731359325453372 0.001173135012712481 0.0011731358136539058 0.001173134619634909 -0.002751043735312695 -0.0021351059401284126 -0.002572201351208541 -0.0046510800448693905 -0.00465108006041047 -0.0025722025507999434 -0.0021351026464847913 -0.0027510394327138333 -0.0027510408225843034 -0.002135111233880376 -0.002572215591717882 -0.004651090511723383 -0.0046510904365461535 -0.0025722147227843902 -0.002135114634859308 -0.0027510445764606086 -0.0027510432260068884 -0.002135102724124257 -0.0025721969130541233 -0.0046510808429080855 -0.004651083445031492 -0.0025722046643014856 -0.002135101814144356 -0.002751039642123113 -0.002751040268048182 -0.0021351113857088007 -0.0025722183303981045 -0.004651093798646725 -0.0046510900826515385 -0.0025722102760699014 -0.002135112019847949 -0.002751044053975091 -39.01602537084305 -29.87817566913951 -32.225275214192344 -68.88495114067224 -68.88502299801372 -32.22538465984646 -29.878174776886027 -39.01595202837333 -29.878094696881508 25.460845920723106 49.38318260014429 -4.421671162503255 -4.421699100450565 49.38314863807616 25.46087463694124 -29.87803499137166 -32.225138906234875 49.383187642180765 86.8484076090357 17.148075310149537 17.148119622845915 86.8484796491832 49.383200380834765 -32.225169916632495 -68.88480963577429 -4.421795046646631 17.147821867193024 -73.3016634839646 -73.30162534456709 17.147866919938053 -4.421833535569259 -68.88488802826919 -68.8848221939333 -4.421794134689824 17.147846336190547 -73.3016513501369 -73.30166151089782 17.147824885795917 -4.421809747969863 -68.88482667006167 -32.225147217277694 49.38318588460076 86.84843482543796 17.148099985662242 17.148076261723876 86.84841219773493 49.38322751097448 -32.225078373594805 -29.878060038570794 25.460837477649427 49.38314639483462 -4.421661070367676 -4.421664578915084 49.383144389301314 25.460847645596832 -29.8780450110722 -39.01597379731846 -29.878184188556112 -32.22534293558853 -68.884960393881 -68.8849507075656 -32.22534265163126 -29.878226453336108 -39.016027327889795
</DataArray>
        <DataArray type="Float64" Name="Mode_17_w" NumberOfComponents="1" format="ascii">
 4.425694415954935e-10 2.9724504043788387e-9 7.606042045793436e-10 2.8187963272207896e-9 -0.0003148404599397314 -0.0029555175566511145 -0.004417651402624054 -0.003269623199436237 -0.0032696198077749403 -0.004417642201209487 -0.002955521863767052 -0.00031484850694854684 0.00031483272332654094 0.0029555108208825106 0.004417643537074101 0.003269609076718866 0.0032696052558545243 0.004417633712390084 0.0029555152519903836 0.0003148397179288266 -0.00031484125549160037 -0.0029555176411158123 -0.004417651427213955 -0.0032696229539827992 -0.003269619552502314 -0.004417641576643667 -0.0029555215222350356 -0.0003148485956375153 0.00031483196619575004 0.0029555108438522396 0.004417643678855489 0.003269608799918976 0.003269605337582527 0.004417633955997723 0.002955514922370647 0.00031484027338166956 2.4731674022051357e-6 43.42893863318646 66.5351560905828 43.418698849357014 43.41878308386664 66.53527280373422 43.42890043050377 -0.00012558082352401732 -43.42899146185067 4.649103579484659e-5 15.0819823400025 -43.42661641551837 -43.426592385589 15.082013325248573 3.112362886052324e-5 -43.42903072472464 -66.53537139437783 -15.081866179258718 0.00018578380707152421 -81.60997572504856 -81.61005456437496 7.55518220640826e-5 -15.081831740846823 -66.53525237346136 -43.418998712700436 43.42657204356517 81.61010556692489 -8.111083881738429e-5 -0.00013842568106831572 81.61002807943953 43.4266015912836 -43.41891040202285 -43.41891262594529 43.42660305891381 81.61003330089186 -0.000137082572878514 -8.432077715715384e-5 81.61010611475481 43.42657688327296 -43.418995686575215 -66.53525542439981 -15.081824719021247 8.447030266803874e-5 -81.61005698498344 -81.60998133343743 0.00018654894914488918 -15.081863503305028 -66.5353711130892 -43.42903340304585 3.3734796589264365e-5 15.082015364050157 -43.4265972969286 -43.42661940620215 15.081985763912973 4.7892607929511644e-5 -43.42899483066138 -0.00012466917336691506 43.42889846556143 66.53526911561647 43.41878095824318 43.418700721668195 66.53516186514463 43.42894183683435 0.0
</DataArray>
        <DataArray type="Float64" Name="Mode_18_w" NumberOfComponents="1" format="ascii">
 0.0015663167593590423 -0.001566317641769207 0.0015663166164889594 -0.0015663172032683382 -0.005178627918995593 -0.002805917748179836 0.006039443932479487 0.0024270830756379807 -0.0024270842255922935 -0.006039448481384598 0.002805914467980558 0.005178629927204152 0.00517863051417548 0.002805919922692589 -0.006039440911864847 -0.002427080304108945 0.002427086867355957 0.0060394496235563035 -0.0028059125089057836 -0.005178627429923474 -0.005178628102362015 -0.002805918919763288 0.0060394415773594315 0.0024270823949898257 -0.002427082938530131 -0.006039446556985939 0.0028059145150719452 0.005178629735837472 0.005178630080793305 0.0028059194895755923 -0.006039440232599955 -0.00242707855630397 0.002427087179409773 0.006039449217184218 -0.0028059135187255505 -0.0051786274870577464 -85.6399795684903 -27.884826651368012 75.3001118208012 55.1899315449324 -55.189804868624655 -75.29998655676164 27.884905893842152 85.64000054409108 -27.884879735145933 -9.011939228569751 24.397844661173373 17.97075039676933 -17.970800677641712 -24.397864149373657 9.011911511604175 27.884838074445796 75.30003019792156 24.39783344216824 -66.05799731346171 -48.523188237628936 48.52305488492414 66.05792335097149 -24.39788827824841 -75.30008506901409 55.18986900437278 17.970814993416077 -48.52306679181941 -35.52051959902629 35.52056455180036 48.523170220231286 -17.97073683009127 -55.18986398804972 -55.18989016353648 -17.970749672988422 48.5231811924705 35.52057192108522 -35.52052396259 -48.52306926604151 17.970813958229883 55.18986498379421 -75.3001070887934 -24.397891628297405 66.05793730049328 48.52305687414302 -48.523187485253494 -66.05798686619985 24.39782327320586 75.30000027396197 27.884842035078268 9.01192487584738 -24.397861146010975 -17.970816088810352 17.97074935951225 24.397867003219673 -9.011934727732177 -27.884900588928723 85.6400138214497 27.884918772866328 -75.29999482790946 -55.189828422180824 55.18992534446016 75.300130450092 -27.884811612897284 -85.63998038741455
</DataArray>
        <DataArray type="Float64" Name="Mode_19_w" NumberOfComponents="1" format="ascii">
 5.0539226021353377e-11 0.0018618053579217877 2.3251909035118443e-10 -0.0018618048983788966 0.0004999769953786719 0.0058189869023672494 0.005274826268425772 0.0007249838583992036 -0.00358338405203084 -0.0014485154076475735 -0.004163645423178187 -0.005385353970697396 -0.005385353916757385 -0.004163645664752834 -0.0014485154308974445 -0.003583384738585144 0.0007249834990807896 0.005274825939169096 0.005818986885580863 0.0004999770925587651 -0.0004999773775391616 -0.005818987139196503 -0.005274828139390274 -0.0007249855892343922 0.003583382873032613 0.0014485150241847443 0.004163644429630668 0.0053853524458570955 0.00538535233967549 0.00416364457289224 0.0014485149027491562 0.0035833822485393124 -0.0007249861598932913 -0.005274828442200726 -0.00581898748824786 -0.0004999771523347395 -1.5404788303076777e-6 -71.26570749388218 -84.65793938775347 5.741919806289282 45.29080551356402 15.903204852976092 44.10892846062085 78.18595597809414 71.26569747278124 5.743799118307088e-6 -33.26558571033112 44.52178410979972 30.785580285933744 -68.19389870135221 -40.0729752509912 44.10892403100307 84.65791053721284 33.26560298861318 2.4678726958520483e-5 50.20838053436342 15.428623110566203 -88.43055690947126 -68.19390397962353 15.9032009171983 -5.7419628128955384 -44.52179054099098 -50.2083662132294 -1.531135561352953e-5 25.814785258596498 15.428617411207325 30.785577979084962 45.29080924292437 -45.290831528079565 -30.785581503049233 -15.428624180123851 -25.81482651438314 -1.404801728293487e-5 50.208376401120354 44.52178495417155 5.741928182388834 -15.903207023215224 68.19392479659565 88.430583695694 -15.428617888087935 -50.208358385458666 2.5992407773763186e-5 -33.26558525691417 -84.65793429128598 -44.10894020986764 40.07298569162559 68.19392432065077 -30.785578302571416 -44.521787435201226 33.26560405302137 7.318693642311296e-6 -71.26570564916764 -78.18598163668828 -44.10894304358146 -15.903210126976127 -45.290833984295176 -5.741967317169345 84.65790833557566 71.26569943578428 0.0
</DataArray>
        <DataArray type="Float64" Name="Mode_20_w" NumberOfComponents="1" format="ascii">
 -0.0018618053937339962 -4.0877586517023724e-11 0.0018618048143880384 -2.363352536068616e-10 0.005385353569396229 0.0041636458616151435 0.0014485153020485195 0.0035833835073904095 -0.0007249847580255893 -0.0052748264370752725 -0.005818987577345797 -0.0004999775314456879 0.0004999772915590359 0.005818987264480292 0.005274827673487405 0.0007249856904581102 -0.003583383010542626 -0.001448515733790513 -0.004163645441359236 -0.0053853532313323125 -0.005385352894002165 -0.004163644424326009 -0.0014485149452871289 -0.0035833840974989588 0.0007249846045816662 0.005274827643258315 0.0058189877032256716 0.0004999779190335792 -0.000499977090220617 -0.005818987315682833 -0.005274826856767494 -0.0007249844884034757 0.003583383561554836 0.0014485147465262613 0.004163644840941797 0.005385354057531014 78.18597595147898 44.108932736153285 15.903199803392477 45.290822688117345 5.7419508875024645 -84.6579231676673 -71.26570336154958 3.5056939174258806e-6 44.10894340068156 -40.07297826477365 -68.19391701813161 30.78558129000268 44.52178857335699 -33.265598648688496 1.286715660105166e-6 71.26571110716712 15.903208163522516 -68.19391403583846 -88.43057190027905 15.428621307353387 50.208367781482686 -5.396260956875401e-6 33.26559573219615 84.65792921869713 45.29081616727103 30.785576095044036 15.428620191363137 25.814808249866722 3.9850813220125335e-6 -50.208367319409774 -44.521787434624294 -5.741947112837139 5.741947216839908 44.52179070689424 50.208370888429776 -4.592856967729822e-7 -25.814799621157054 -15.428612285226704 -30.78557938008071 -45.29082622171685 -84.65791559886796 -33.26558914746155 -1.6769423044033274e-6 -50.20837487007466 -15.428623288745795 88.4305692517418 68.19391320444075 -15.903204297321563 -71.26570224823924 -3.221103446026108e-6 33.265593132785845 -44.52178310453235 -30.785581664903873 68.19390245139913 40.07297780766314 -44.10892568627959 -4.7444236605749555e-6 71.26569685378864 84.65792531052246 -5.741933263574426 -45.29081484553528 -15.90321315641029 -44.10893780937725 -78.18596310391908
</DataArray>
      </PointData>
    </Piece>
  </UnstructuredGrid>
</VTKFile>
