<?xml version="1.0" encoding="utf-8"?>
<VTKFile type="UnstructuredGrid" version="1.0" byte_order="LittleEndian" header_type="UInt64">
  <UnstructuredGrid>
    <Piece NumberOfPoints="196" NumberOfCells="169">
      <Points>
        <DataArray type="Float64" Name="Points" NumberOfComponents="3" format="ascii">
 0.0 0.0 0.0 1.0 0.0 0.0 1.0 1.0 0.0 0.0 1.0 0.0 0.07692307692292638 0.0 0.0 0.1538461538458454 0.0 0.0 0.2307692307686978 0.0 0.0 0.3076923076915502 0.0 0.0 0.3846153846144026 0.0 0.0 0.461538461537255 0.0 0.0 0.5384615384603212 0.0 0.0 0.6153846153836009 0.0 0.0 0.6923076923068806 0.0 0.0 0.7692307692301605 0.0 0.0 0.8461538461534404 0.0 0.0 0.9230769230767202 0.0 0.0 1.0 0.07692307692292638 0.0 1.0 0.1538461538458454 0.0 1.0 0.2307692307686978 0.0 1.0 0.3076923076915502 0.0 1.0 0.3846153846144026 0.0 1.0 0.461538461537255 0.0 1.0 0.5384615384603212 0.0 1.0 0.6153846153836009 0.0 1.0 0.6923076923068806 0.0 1.0 0.7692307692301605 0.0 1.0 0.8461538461534404 0.0 1.0 0.9230769230767202 0.0 0.9230769230766028 1.0 0.0 0.8461538461535258 1.0 0.0 0.7692307692309828 1.0 0.0 0.6923076923084395 1.0 0.0 0.6153846153858962 1.0 0.0 0.5384615384633529 1.0 0.0 0.4615384615403826 1.0 0.0 0.3846153846169855 1.0 0.0 0.3076923076935885 1.0 0.0 0.2307692307701913 1.0 0.0 0.1538461538467942 1.0 0.0 0.07692307692339717 1.0 0.0 0.0 0.9230769230766028 0.0 0.0 0.8461538461535258 0.0 0.0 0.7692307692309828 0.0 0.0 0.6923076923084395 0.0 0.0 0.6153846153858962 0.0 0.0 0.5384615384633529 0.0 0.0 0.4615384615403826 0.0 0.0 0.3846153846169855 0.0 0.0 0.3076923076935885 0.0 0.0 0.2307692307701913 0.0 0.0 0.1538461538467942 0.0 0.0 0.07692307692339717 0.0 0.07692307692296259 0.07692307692336096 0.0 0.07692307692299881 0.1538461538467213 0.0 0.07692307692303504 0.2307692307700764 0.0 0.07692307692307125 0.3076923076934317 0.0 0.07692307692310743 0.3846153846167867 0.0 0.07692307692314368 0.461538461540142 0.0 0.07692307692317989 0.5384615384631196 0.0 0.07692307692321611 0.6153846153857196 0.0 0.0769230769232523 0.6923076923083195 0.0 0.07692307692328852 0.7692307692309195 0.0 0.07692307692332474 0.8461538461535192 0.0 0.07692307692336096 0.9230769230766118 0.0 0.1538461538459185 0.07692307692332474 0.0 0.1538461538459915 0.1538461538466483 0.0 0.1538461538460644 0.2307692307699615 0.0 0.1538461538461374 0.3076923076932749 0.0 0.1538461538462103 0.3846153846165882 0.0 0.1538461538462833 0.4615384615399015 0.0 0.1538461538463563 0.5384615384628865 0.0 0.1538461538464293 0.615384615385543 0.0 0.1538461538465023 0.6923076923081997 0.0 0.1538461538465753 0.7692307692308562 0.0 0.1538461538466483 0.8461538461535127 0.0 0.1538461538467212 0.9230769230766209 0.0 0.2307692307688127 0.07692307692328854 0.0 0.2307692307689276 0.1538461538465753 0.0 0.2307692307690425 0.2307692307698467 0.0 0.2307692307691574 0.3076923076931181 0.0 0.2307692307692722 0.3846153846163896 0.0 0.2307692307693871 0.4615384615396608 0.0 0.230769230769502 0.5384615384626531 0.0 0.2307692307696169 0.6153846153853666 0.0 0.2307692307697318 0.6923076923080796 0.0 0.2307692307698467 0.7692307692307929 0.0 0.2307692307699615 0.8461538461535061 0.0 0.2307692307700764 0.9230769230766298 0.0 0.307692307691707 0.0769230769232523 0.0 0.3076923076918638 0.1538461538465023 0.0 0.3076923076920206 0.2307692307697318 0.0 0.3076923076921773 0.3076923076929613 0.0 0.3076923076923342 0.3846153846161908 0.0 0.3076923076924909 0.4615384615394204 0.0 0.3076923076926478 0.53846153846242 0.0 0.3076923076928045 0.61538461538519 0.0 0.3076923076929613 0.69230769230796 0.0 0.3076923076931181 0.7692307692307299 0.0 0.3076923076932748 0.8461538461534996 0.0 0.3076923076934317 0.9230769230766389 0.0 0.3846153846146013 0.0769230769232161 0.0 0.3846153846148 0.1538461538464293 0.0 0.3846153846149987 0.2307692307696169 0.0 0.3846153846151973 0.3076923076928045 0.0 0.384615384615396 0.384615384615992 0.0 0.3846153846155947 0.4615384615391795 0.0 0.3846153846157933 0.5384615384621868 0.0 0.384615384615992 0.6153846153850134 0.0 0.3846153846161908 0.69230769230784 0.0 0.3846153846163895 0.7692307692306666 0.0 0.3846153846165882 0.846153846153493 0.0 0.3846153846167867 0.923076923076648 0.0 0.4615384615374957 0.07692307692317987 0.0 0.4615384615377362 0.1538461538463563 0.0 0.4615384615379767 0.230769230769502 0.0 0.4615384615382173 0.3076923076926477 0.0 0.4615384615384579 0.3846153846157933 0.0 0.4615384615386985 0.4615384615389392 0.0 0.461538461538939 0.5384615384619537 0.0 0.4615384615391797 0.6153846153848368 0.0 0.4615384615394202 0.6923076923077202 0.0 0.4615384615396609 0.7692307692306033 0.0 0.4615384615399014 0.8461538461534863 0.0 0.4615384615401419 0.9230769230766569 0.0 0.5384615384605543 0.07692307692314367 0.0 0.5384615384607877 0.1538461538462834 0.0 0.5384615384610206 0.2307692307693871 0.0 0.538461538461254 0.307692307692491 0.0 0.5384615384614874 0.3846153846155948 0.0 0.5384615384617203 0.4615384615386984 0.0 0.5384615384619537 0.5384615384617205 0.0 0.5384615384621868 0.6153846153846604 0.0 0.53846153846242 0.6923076923076 0.0 0.5384615384626533 0.76923076923054 0.0 0.5384615384628865 0.8461538461534799 0.0 0.5384615384631196 0.923076923076666 0.0 0.6153846153837776 0.07692307692310747 0.0 0.6153846153839541 0.1538461538462103 0.0 0.6153846153841307 0.2307692307692722 0.0 0.6153846153843073 0.3076923076923341 0.0 0.6153846153844836 0.3846153846153961 0.0 0.6153846153846603 0.461538461538458 0.0 0.6153846153848369 0.5384615384614874 0.0 0.6153846153850134 0.6153846153844836 0.0 0.61538461538519 0.6923076923074803 0.0 0.6153846153853665 0.7692307692304767 0.0 0.6153846153855432 0.8461538461534732 0.0 0.6153846153857195 0.9230769230766749 0.0 0.6923076923070005 0.07692307692307122 0.0 0.6923076923071203 0.1538461538461374 0.0 0.6923076923072403 0.2307692307691573 0.0 0.6923076923073602 0.3076923076921774 0.0 0.69230769230748 0.3846153846151973 0.0 0.6923076923076 0.4615384615382172 0.0 0.6923076923077202 0.538461538461254 0.0 0.6923076923078398 0.6153846153843071 0.0 0.6923076923079597 0.6923076923073604 0.0 0.6923076923080799 0.7692307692304137 0.0 0.6923076923081997 0.8461538461534666 0.0 0.6923076923083197 0.9230769230766842 0.0 0.7692307692302238 0.07692307692303503 0.0 0.7692307692302871 0.1538461538460643 0.0 0.7692307692303504 0.2307692307690425 0.0 0.7692307692304134 0.3076923076920206 0.0 0.7692307692304767 0.3846153846149986 0.0 0.76923076923054 0.4615384615379768 0.0 0.7692307692306033 0.5384615384610206 0.0 0.7692307692306664 0.6153846153841306 0.0 0.7692307692307299 0.6923076923072403 0.0 0.7692307692307929 0.7692307692303502 0.0 0.7692307692308564 0.8461538461534601 0.0 0.7692307692309195 0.9230769230766931 0.0 0.8461538461534468 0.07692307692299881 0.0 0.8461538461534535 0.1538461538459914 0.0 0.8461538461534601 0.2307692307689276 0.0 0.8461538461534668 0.3076923076918637 0.0 0.8461538461534732 0.3846153846147999 0.0 0.8461538461534799 0.461538461537736 0.0 0.8461538461534863 0.5384615384607875 0.0 0.846153846153493 0.6153846153839538 0.0 0.8461538461534996 0.6923076923071205 0.0 0.8461538461535061 0.7692307692302871 0.0 0.8461538461535127 0.8461538461534535 0.0 0.8461538461535192 0.923076923076702 0.0 0.9230769230767111 0.07692307692296259 0.0 0.9230769230767022 0.1538461538459184 0.0 0.9230769230766929 0.2307692307688127 0.0 0.9230769230766842 0.307692307691707 0.0 0.9230769230766751 0.3846153846146014 0.0 0.923076923076666 0.4615384615374956 0.0 0.9230769230766571 0.5384615384605543 0.0 0.923076923076648 0.6153846153837775 0.0 0.9230769230766389 0.6923076923070005 0.0 0.92307692307663 0.7692307692302238 0.0 0.9230769230766209 0.8461538461534468 0.0 0.9230769230766118 0.9230769230767113 0.0
</DataArray>
      </Points>
      <Cells>
        <DataArray type="Int64" Name="connectivity" NumberOfComponents="1" format="ascii">
 0 4 52 51 51 52 53 50 50 53 54 49 49 54 55 48 48 55 56 47 47 56 57 46 46 57 58 45 45 58 59 44 44 59 60 43 43 60 61 42 42 61 62 41 41 62 63 40 40 63 39 3 4 5 64 52 52 64 65 53 53 65 66 54 54 66 67 55 55 67 68 56 56 68 69 57 57 69 70 58 58 70 71 59 59 71 72 60 60 72 73 61 61 73 74 62 62 74 75 63 63 75 38 39 5 6 76 64 64 76 77 65 65 77 78 66 66 78 79 67 67 79 80 68 68 80 81 69 69 81 82 70 70 82 83 71 71 83 84 72 72 84 85 73 73 85 86 74 74 86 87 75 75 87 37 38 6 7 88 76 76 88 89 77 77 89 90 78 78 90 91 79 79 91 92 80 80 92 93 81 81 93 94 82 82 94 95 83 83 95 96 84 84 96 97 85 85 97 98 86 86 98 99 87 87 99 36 37 7 8 100 88 88 100 101 89 89 101 102 90 90 102 103 91 91 103 104 92 92 104 105 93 93 105 106 94 94 106 107 95 95 107 108 96 96 108 109 97 97 109 110 98 98 110 111 99 99 111 35 36 8 9 112 100 100 112 113 101 101 113 114 102 102 114 115 103 103 115 116 104 104 116 117 105 105 117 118 106 106 118 119 107 107 119 120 108 108 120 121 109 109 121 122 110 110 122 123 111 111 123 34 35 9 10 124 112 112 124 125 113 113 125 126 114 114 126 127 115 115 127 128 116 116 128 129 117 117 129 130 118 118 130 131 119 119 131 132 120 120 132 133 121 121 133 134 122 122 134 135 123 123 135 33 34 10 11 136 124 124 136 137 125 125 137 138 126 126 138 139 127 127 139 140 128 128 140 141 129 129 141 142 130 130 142 143 131 131 143 144 132 132 144 145 133 133 145 146 134 134 146 147 135 135 147 32 33 11 12 148 136 136 148 149 137 137 149 150 138 138 150 151 139 139 151 152 140 140 152 153 141 141 153 154 142 142 154 155 143 143 155 156 144 144 156 157 145 145 157 158 146 146 158 159 147 147 159 31 32 12 13 160 148 148 160 161 149 149 161 162 150 150 162 163 151 151 163 164 152 152 164 165 153 153 165 166 154 154 166 167 155 155 167 168 156 156 168 169 157 157 169 170 158 158 170 171 159 159 171 30 31 13 14 172 160 160 172 173 161 161 173 174 162 162 174 175 163 163 175 176 164 164 176 177 165 165 177 178 166 166 178 179 167 167 179 180 168 168 180 181 169 169 181 182 170 170 182 183 171 171 183 29 30 14 15 184 172 172 184 185 173 173 185 186 174 174 186 187 175 175 187 188 176 176 188 189 177 177 189 190 178 178 190 191 179 179 191 192 180 180 192 193 181 181 193 194 182 182 194 195 183 183 195 28 29 15 1 16 184 184 16 17 185 185 17 18 186 186 18 19 187 187 19 20 188 188 20 21 189 189 21 22 190 190 22 23 191 191 23 24 192 192 24 25 193 193 25 26 194 194 26 27 195 195 27 2 28
</DataArray>
        <DataArray type="Int64" Name="offsets" NumberOfComponents="1" format="ascii">
 4 8 12 16 20 24 28 32 36 40 44 48 52 56 60 64 68 72 76 80 84 88 92 96 100 104 108 112 116 120 124 128 132 136 140 144 148 152 156 160 164 168 172 176 180 184 188 192 196 200 204 208 212 216 220 224 228 232 236 240 244 248 252 256 260 264 268 272 276 280 284 288 292 296 300 304 308 312 316 320 324 328 332 336 340 344 348 352 356 360 364 368 372 376 380 384 388 392 396 400 404 408 412 416 420 424 428 432 436 440 444 448 452 456 460 464 468 472 476 480 484 488 492 496 500 504 508 512 516 520 524 528 532 536 540 544 548 552 556 560 564 568 572 576 580 584 588 592 596 600 604 608 612 616 620 624 628 632 636 640 644 648 652 656 660 664 668 672 676
</DataArray>
        <DataArray type="UInt8" Name="types" NumberOfComponents="1" format="ascii">
 9 9 9 9 9 9 9 9 9 9 9 9 9 9 9 9 9 9 9 9 9 9 9 9 9 9 9 9 9 9 9 9 9 9 9 9 9 9 9 9 9 9 9 9 9 9 9 9 9 9 9 9 9 9 9 9 9 9 9 9 9 9 9 9 9 9 9 9 9 9 9 9 9 9 9 9 9 9 9 9 9 9 9 9 9 9 9 9 9 9 9 9 9 9 9 9 9 9 9 9 9 9 9 9 9 9 9 9 9 9 9 9 9 9 9 9 9 9 9 9 9 9 9 9 9 9 9 9 9 9 9 9 9 9 9 9 9 9 9 9 9 9 9 9 9 9 9 9 9 9 9 9 9 9 9 9 9 9 9 9 9 9 9 9 9 9 9 9 9
</DataArray>
      </Cells>
      <PointData>
        <DataArray type="Float64" Name="Mode_1_w" NumberOfComponents="1" format="ascii">
 -0.00019812764815353603 -0.00019812826061913692 -0.0001981276738605487 -0.00019812735921730863 6.553450499676745e-5 1.1306057415725589e-5 3.910269233133174e-5 4.3613329308958436e-5 5.0437466792425987e-5 5.347194102558258e-5 5.3472468979607995e-5 5.043726347475293e-5 4.361398438757382e-5 3.9102943043327117e-5 1.1306333170346431e-5 6.553415052837363e-5 6.553462693559563e-5 1.1306397758412534e-5 3.91027194138007e-5 4.3613887594653847e-5 5.0437614396903245e-5 5.347244693188332e-5 5.347227140476872e-5 5.0437841885139305e-5 4.3613402240445464e-5 3.9102663293145885e-5 1.1305615061942876e-5 6.553429216322752e-5 6.553422062237754e-5 1.1306038531167294e-5 3.9102083785393993e-5 4.361316839841786e-5 5.0437413112016904e-5 5.347189886103641e-5 5.3472282391487465e-5 5.0437682719773203e-5 4.361353548629813e-5 3.910229031221336e-5 1.1305961684092719e-5 6.553402596031132e-5 6.55344622540273e-5 1.1306186023454068e-5 3.910204518628816e-5 4.361334854785361e-5 5.043714638058017e-5 5.347179818754361e-5 5.347172587566455e-5 5.043749151193613e-5 4.3613530899603844e-5 3.9102513577268054e-5 1.1306001563472154e-5 6.553438113620918e-5 3.6578536927432967 7.103013315283292 10.1353020505437 12.578570896834416 14.290821763331357 15.17256519202654 15.172561305354538 14.290812047956418 12.578559064073271 10.135291257168497 7.103005436644982 3.6578495168743994 7.1030156357452485 13.793011092744699 19.681318486337982 24.425791574387574 27.75074633917781 29.462966653989763 29.46296113566512 27.75073190681623 24.42577312504382 19.681300951711908 13.79299760472529 7.1030078861829145 10.135308994310627 19.68132629888472 28.083404747065345 34.8533389805072 39.59774201411523 42.04092627657628 42.040920349147626 39.597726132998254 34.85331836552852 28.08338524119183 19.681311049232495 10.135300153044568 12.578584622944845 24.425813453322508 34.85335754301231 43.25530045507749 49.14342550617381 52.17558125558616 52.17557465754621 49.14340799397277 43.25527842296269 34.85333714567184 24.425798032491063 12.578576319377792 14.290845914416835 27.750789514308607 39.59778998296326 49.14345834717843 55.83311186375902 59.278024773384516 59.27801778598913 55.83309286346212 49.143433284476245 39.597765613720945 27.750770735352 14.290836186697883 15.172603542722193 29.46303607104626 42.04100929637749 52.17565438850226 59.27806743736916 62.93553598884115 62.93552866301075 59.27804652726446 52.175624016888335 42.040976351501044 29.46300864019721 15.172588201616321 15.172613584123281 29.463055096545137 42.04103531632256 52.17568525984623 59.27810180106818 62.93557203339005 62.935563229407414 59.27807662997729 52.17564698277051 42.04099089266381 29.463015481781905 15.172590180637886 14.290873504088548 27.7508412643602 39.597860279359445 49.143541746189634 55.83320460401033 59.27812192506288 59.27811175938207 55.83317505792899 49.1434959524904 39.59780496698999 27.75078963238749 14.29084211798356 12.578622623647494 24.425884430589516 34.853453140813464 43.25541335204793 49.14355073742631 52.175712562863005 52.17570236152523 49.143520296013726 43.25536406609533 34.85339119615138 24.42582467341941 12.57858536776658 10.135347382212023 19.68139863845091 28.083502465478137 34.85345348421519 39.59786839595308 42.041058970754975 42.041049887606405 39.59784039203371 34.85340623798312 28.083441760304346 19.681339882995278 10.135310486774095 7.1030452223940435 13.793068035757342 19.681396324945368 24.42588241371718 27.75084555185356 29.463071413628356 29.463064482887468 27.75082353791291 24.425844466134073 19.681347969202356 13.793022208305617 7.10301708521625 3.657869416294334 7.1030441558439685 10.135344698760557 12.57862032314594 14.290875222612835 15.172622239160194 15.172618552144353 14.290863142254889 12.57859925977195 10.13531815562814 7.103019636186474 3.6578547792576437
</DataArray>
        <DataArray type="Float64" Name="Mode_2_w" NumberOfComponents="1" format="ascii">
 0.0004946685457079978 2.2332996365462622e-10 -0.000494667988326364 -2.73168365389723e-10 -0.0001699818387608677 -0.00020396087530868102 -0.0001604024973152993 -0.00031155085190634084 -0.00015965651858137434 -0.0002628245973070285 -6.670973259881572e-5 -0.0001517793579914675 4.0938024927779804e-5 -6.94875194371622e-5 8.491264154674589e-5 -4.1627625149504306e-5 4.1628001976710674e-5 -8.491283826261801e-5 6.948727947407583e-5 -4.0938348168069936e-5 0.00015177909573213313 6.670908884540079e-5 0.00026282477921092705 0.00015965578017182949 0.00031155057486059376 0.000160401976613051 0.00020396102553201501 0.00016998150397736148 0.00016998149416960894 0.000203961027690349 0.0001604021792698277 0.00031155031432312423 0.00015965623891019105 0.0002628252235344414 6.670971760685838e-5 0.00015177944279226257 -4.0938162612171965e-5 6.948761454755973e-5 -8.491283899771722e-5 4.162786032954841e-5 -4.162769678748441e-5 8.491309884229411e-5 -6.948700637172691e-5 4.0938406707628506e-5 -0.0001517794252693129 -6.671010789207111e-5 -0.00026282514502756673 -0.00015965641531548168 -0.00031155066366998026 -0.00016040239584523802 -0.00020396117325002544 -0.00016998169833888193 -10.20743374009931 -18.94144896461957 -25.027934646312584 -27.8004740483501 -27.20672645745944 -23.7917592115858 -18.546194631816977 -12.670810172389789 -7.299480396963623 -3.25427318422677 -0.8798608212265281 5.821245896198647e-6 -18.941449679798737 -35.07123528228663 -46.16170751136485 -50.95683692419317 -49.392845253560836 -42.54895729462987 -32.363673793298034 -21.16654687511478 -11.148666571993122 -3.881167688679822 1.7468324511251336e-5 0.8798810772055556 -25.027936723313356 -46.16171015894842 -60.32878814935873 -65.83672158565975 -62.6688835130272 -52.42226233096122 -37.88863132996724 -22.393764450087495 -9.034756029752309 2.5649388592058608e-5 3.8812091279407768 3.2542968298180663 -27.80047804766659 -50.956843798761874 -65.83672762017002 -70.49386421402176 -65.03670511801958 -51.533722236930984 -33.497044060791566 -15.05284149083551 2.8151199237610932e-5 9.034808594526778 11.148706770959398 7.299502491370009 -27.206732310475775 -49.39285737872585 -62.668898890722225 -65.03671701802263 -56.78735611209318 -40.39153992278779 -19.89953167902959 1.9061334805140347e-5 15.052889368818576 22.39380916414176 21.166579922380848 12.670827408703238 -23.791767876126755 -42.54897673538288 -52.42229121965277 -51.533752930985465 -40.391561031906875 -21.75621579113253 -4.427822175367107e-6 19.899547204218216 33.49707217399204 37.88866012579094 32.36369504820875 18.546205217005635 -18.546208973879878 -32.36370455584125 -37.88867747494902 -33.49709774538726 -19.899579894626534 -3.360825217956145e-5 21.75617648876131 40.39152534224562 51.533723704525215 52.4222699204359 42.54896382003485 23.791762091585984 -12.67083188449762 -21.166590598209034 -22.39382789469034 -15.052916822537531 -5.513268740083558e-5 19.899488591377686 40.39149378544658 56.787312575913845 65.03667969406223 62.6688684522907 49.39283516100839 27.206720612721394 -7.299507960892377 -11.148719539324096 -9.034830977902947 -6.116995743160937e-5 15.05279806065554 33.49699261344983 51.53366757330348 65.03665296148509 70.49381782161622 65.83668681806463 50.95681112727726 27.800459399052894 -3.254302139300545 -3.8812218458673815 -4.917915060131599e-5 9.034719617087502 22.393716059544122 37.88857465521223 52.42220314343779 62.66882710951359 65.83667018453073 60.32874250118786 46.16167356685157 25.02791576734972 -0.8798844784609281 -2.6361499781597157e-5 3.8811492271488826 11.148635088976176 21.166503104675957 32.3636221868491 42.5489039388607 49.39279444535591 50.95679055176555 46.16166749091933 35.07120478955217 18.941432856878865 -6.824851109207866e-6 0.8798572383160923 3.2542640031824273 7.299462547293224 12.670783585182564 18.546162875752888 23.7917264189138 27.206695403795244 27.800445946737824 25.0279110029245 18.94143187637469 10.207424618660768
</DataArray>
        <DataArray type="Float64" Name="Mode_3_w" NumberOfComponents="1" format="ascii">
 -7.000174127414607e-10 0.0004946687672206051 2.929893400962044e-11 -0.000494668101954052 -4.162757305865048e-5 8.49129728459815e-5 -6.948743401140023e-5 4.093842706373014e-5 -0.00015177939480152293 -6.670940425307032e-5 -0.00026282530245376625 -0.00015965629856027597 -0.00031155129868606484 -0.00016040259408149377 -0.00020396139879280974 -0.00016998221623436188 -0.00016998198109187184 -0.00020396125244556216 -0.00016040242583970573 -0.00031155058132759187 -0.00015965612880129514 -0.0002628250739535175 -6.670965647920617e-5 -0.00015177973151900482 4.093813390832693e-5 -6.9487503264578e-5 8.49130099368793e-5 -4.162798090051692e-5 4.1627907345199917e-5 -8.491285879005013e-5 6.948721168004424e-5 -4.093832029270037e-5 0.00015177909683096303 6.670925479386443e-5 0.0002628247559667481 0.00015965583428153925 0.00031155061954328783 0.0001604024963828567 0.0002039610699221846 0.0001699815310020241 0.00016998165693970761 0.0002039608444612809 0.00016040209351108137 0.00031155031441645767 0.00015965606417355242 0.00026282495435038994 6.670974218725725e-5 0.0001517796226273677 -4.093758445683512e-5 6.948771251093054e-5 -8.491238836511886e-5 4.162791782144485e-5 1.2845022972163083e-5 0.8798954320099939 3.2543177282430213 7.299526108366866 12.670848105922037 18.546218948132566 23.791768427068547 27.206722226050758 27.800460386885007 25.027918396360377 18.94143619042242 10.207426850584984 -0.8798462605973697 4.703198359500786e-5 3.8812513927911554 11.148754534023215 21.166623497506876 32.36372630330878 42.548980434234934 49.39284213735062 50.95681604402585 46.16168063644649 35.07121282308163 18.941437177456216 -3.25425097829088 -3.881122413213792 8.957812892218102e-5 9.034880768180216 22.393877003531927 37.88871279743563 52.42230294438298 62.66888643820724 65.83669994491444 60.32875712949758 46.16168222809556 25.027920673203433 -7.299451760764903 -11.148609100436515 -9.03467553744973 0.00011941020685395093 15.052977631037125 33.49714594589447 51.53377745667867 65.03671600192543 70.49384553259569 65.83669641609586 50.95681399031324 27.800460330665317 -12.670778405070692 -21.166485717315435 -22.393679378340014 -15.052743003377392 0.00011818536186882957 19.899636774823353 40.39160030253937 56.787373183253244 65.03670297424154 62.66886951889432 49.39282754807115 27.206713891083062 -18.546165711193193 -32.36361867020307 -37.88855435949864 -33.49695209156053 -19.899433733743265 9.224288109411996e-5 21.75626799128112 40.39157785754798 51.533741768477945 52.422263947454105 42.54894717992569 23.791748861715153 -23.79173908575703 -42.54891688880915 -52.42220308178153 -51.53364723286253 -40.39145357972215 -21.75612240936874 6.430631216041903e-5 19.899587149677807 33.49708414219118 37.888649770120445 32.363674020904234 18.54618896335212 -27.20671748468564 -49.3928241698162 -62.66884696808081 -65.03665204024011 -56.787288240311106 -40.39148026731426 -19.89948767335498 4.417410037759813e-5 15.052894185219962 22.39379610078493 21.16655823169227 12.670811106633897 -27.8004748567955 -50.95683333936987 -65.83670574585996 -70.49383197643532 -65.03666902783668 -51.53369019679264 -33.49702099515975 -15.05283013321112 2.5866365398008474e-5 9.034794064145759 11.14868662769992 7.299487658392319 -25.027941432713302 -46.16171399732316 -60.32878455154941 -65.83670933734125 -62.66886728322143 -52.422247601631135 -37.888621901234615 -22.393762696490704 -9.034763193272406 1.063128144235554e-5 3.881191016328029 3.254283987952829 -18.941456173304555 -35.07124267283529 -46.16170969224488 -50.95683262504016 -49.39283772970112 -42.54895055308363 -32.36367100605099 -21.16654966422137 -11.148675369442387 -3.881181826003191 2.076094462050903e-6 0.879870966301205 -10.207437534986934 -18.94145337244667 -25.02793613386417 -27.800471889646538 -27.206722358629737 -23.791755939263275 -18.546194207477885 -12.670812948195927 -7.299486725609184 -3.2542825576356997 -0.8798703372129135 0.0
</DataArray>
        <DataArray type="Float64" Name="Mode_4_w" NumberOfComponents="1" format="ascii">
 -0.0006490715344639147 0.0006490714823744414 -0.0006490714955229469 0.000649072062568335 0.0002715278702700997 0.00044900396026061946 0.00034531211589830117 0.0005134769875477402 0.00020964547802973716 0.00018926407863906902 -0.00018926462404527617 -0.00020964587675504877 -0.0005134777290004545 -0.00034531232967376346 -0.0004490042880115385 -0.0002715279555194665 -0.00027152805619343033 -0.0004490042487243451 -0.0003453123348287968 -0.0005134766525696724 -0.00020964486349767182 -0.00018926386969244293 0.00018926438249672423 0.00020964540067261708 0.0005134769304486009 0.0003453120605947536 0.00044900387168162056 0.0002715281225555432 0.0002715280285928481 0.0004490039665447443 0.0003453120736086636 0.0005134765539358967 0.00020964487508121044 0.000189264216061432 -0.00018926489755393398 -0.0002096457907620258 -0.0005134774699986885 -0.0003453125093880048 -0.0004490040472842826 -0.0002715282365835111 -0.00027152835060494324 -0.00044900425327813433 -0.0003453124806497934 -0.0005134770599380344 -0.0002096451788738788 -0.00018926419049743575 0.00018926456987776558 0.00020964547075709179 0.0005134773652920982 0.0003453124961804813 0.00044900431753159035 0.0002715279694835366 14.325948114792752 25.3154442610171 30.47348763657245 28.67695358915079 20.31902078166714 7.334912449217647 -7.334907923484168 -20.319017011840426 -28.676952410065383 -30.473490751829335 -25.315450501123344 -14.325953064522029 25.315441167364234 44.683620039143406 53.81207062893259 50.61933440417108 35.88267295823852 12.940488689067 -12.940483634587837 -35.88267066952127 -50.61933820633512 -53.81208253136138 -44.68363646462815 -25.31545321059105 30.473479348947787 53.81206211682537 64.78009499405435 60.95451781922651 43.193454518797445 15.58889832652822 -15.588896036806233 -43.19345900539879 -60.954534641281164 -64.78012404349194 -53.81209423071479 -30.47350062143971 28.676940894156974 50.61931697900023 60.95450617389334 57.33792804986871 40.64453862030889 14.658013665068516 -14.658014083064492 -40.64455115785657 -57.33796069813746 -60.954555451279354 -50.61936690718206 -28.676972164798492 20.31900532696813 35.88265003835364 43.19343553660197 40.64453079064888 28.798853024669963 10.395735217103073 -10.395731061582628 -28.798866252710276 -40.64457097466793 -43.19349685872486 -35.88271235417987 -20.319044470458604 7.334896062233464 12.940465285308287 15.588880992077513 14.658010673796415 10.395742424149933 3.7448531061841663 -3.744828107441447 -10.395739418256541 -14.658041387984348 -15.58893964722813 -12.940529647251177 -7.334937962632283 -7.3349225227257655 -12.940501080674727 -15.588900984857132 -14.657997353736846 -10.395698329911271 -3.744799969121 3.7448624615560657 10.395734668282769 14.657992347901668 15.588858995003818 12.940445085210019 7.334883454137384 -20.319026330828635 -35.8826755013136 -43.19344270237925 -40.644505020450175 -28.798797994211224 -10.395672157677083 10.395775494464159 28.798872443327994 40.644532637962655 43.19342527684795 35.882634876533054 20.318993978097883 -28.676953722480757 -50.619327711053934 -60.95449551683762 -57.33788566890559 -40.64447056685567 -14.657940046962 14.658069657779134 40.644571532059715 57.33793916998197 60.9545005378414 50.61930314417496 28.676929624490416 -30.473484553165644 -53.812059954725235 -64.78007058190826 -60.95446520248129 -43.193381757155976 -15.58882329728984 15.588954259429766 43.193486673394716 60.95452679446951 64.78008764594205 53.812048341401514 30.47346930006234 -25.315440950256935 -44.68361078396231 -53.812042754846345 -50.619285393669614 -35.88261033386455 -12.940426312637964 12.940531845368554 35.88269520353343 50.61933640126062 53.812060268712244 44.683607842939935 25.315434044223775 -14.325946151376108 -25.315436350987262 -30.47346905719085 -28.67692378360172 -20.318984105352026 -7.334876694233505 7.334935108705509 20.319031174399214 28.676952172505615 30.473479559888933 25.315436570535983 14.325944257548748
</DataArray>
        <DataArray type="Float64" Name="Mode_5_w" NumberOfComponents="1" format="ascii">
 -0.000873694658312741 -0.0008736947218871043 -0.000873694937021842 -0.0008736945758795742 0.0005182647994060732 0.0004217521287275861 0.0005545637537042457 0.0004716124528831205 0.0003556762824162471 0.00026712640384838086 0.0002671261626279889 0.00035567657575621183 0.000471612471539343 0.0005545638529102006 0.0004217523694123778 0.0005182648810577077 0.0005182649681956516 0.00042175225627569273 0.0005545637033942605 0.0004716127061354388 0.0003556764343322725 0.00026712640448445945 0.0002671264499537406 0.0003556767225876832 0.00047161260701998636 0.0005545635552146411 0.0004217521639083434 0.0005182649833702795 0.000518264862158257 0.0004217521939442888 0.00055456389855117 0.00047161255999890223 0.0003556770512301557 0.0002671266748433291 0.00026712648739606265 0.00035567711368054327 0.00047161232207129156 0.0005545638819885958 0.00042175210417868663 0.0005182650668214258 0.0005182651170616927 0.0004217521173992874 0.0005545636221345722 0.0004716120171920378 0.0003556765214030086 0.00026712626326818895 0.0002671267181898629 0.0003556767698810029 0.0004716126281629699 0.0005545636766067136 0.00042175214134223724 0.0005182648187941426 14.904437176504947 25.62588085136502 29.89483221535062 28.312267232689116 23.888062481363715 20.39903636832824 20.399030993470987 23.888049030555557 28.31225156385174 29.894819788384282 25.625873980282247 14.904434593257049 25.625879902166893 43.32284486350567 48.86530598325383 43.57928103740256 33.437866076905124 25.8645287259829 25.864520666882466 33.43784603976242 43.579258083618356 48.865287528245034 43.322833524682515 25.62587495365225 29.89482749430376 48.86530051354662 51.24593868501166 39.24977798747762 21.658229430455304 9.244891283071542 9.244884527715715 21.65821285857356 39.24975981581153 51.245924772279814 48.86529190389833 29.894823429518308 28.312256329811625 43.579266063544154 39.249767694060054 18.49310081174167 -7.45168501978689 -24.975159284146695 -24.975161180308962 -7.451689274695514 18.49309760540739 39.24976800586904 43.57926912992014 28.312259147482038 23.88804720626681 33.437843435211974 21.65820909260047 -7.451696748638196 -40.801932741408535 -62.705547219213344 -62.70554337050289 -40.80192210704902 -7.451681042398419 21.658228031510752 33.43786219071234 23.888059587399 20.399022268283762 25.864505867264523 9.244866448196849 -24.97518093668473 -62.70556109430524 -87.15656904773367 -87.15656079916616 -62.70553858892762 -24.975149314221813 9.244901675281515 25.86453760649781 20.399041429496727 20.399022534072373 25.864504751596122 9.24486253701567 -24.975188081048845 -62.70557081757878 -87.15657883269456 -87.15656743606468 -62.70554074614089 -24.975147163728128 9.244906920049408 25.864543320485595 20.39904487910457 23.888047545840436 33.4378404472594 21.658199097287806 -7.451715330730345 -40.80195759881496 -62.7055714062283 -62.705559260730624 -40.801925628772025 -7.451672816704603 21.658243553591074 33.437878236173965 23.888069504531238 28.312256265599736 43.57926258537503 39.2497556010122 18.49307699965227 -7.451716473820203 -24.97518833634092 -24.975178121837622 -7.451689021267558 18.493113327299838 39.249791776871625 43.57929210002601 28.312273339421004 29.89482741826912 48.865297579791054 51.245927257951806 39.24975441877464 21.65819851470085 9.244864459278935 9.244871871878303 21.658218079098663 39.24977956164562 51.245951463577015 48.865316615295484 29.89483824551978 25.625880345584463 43.32284262813736 48.86529632336106 43.57926148179574 33.43784109793766 25.864508390165796 25.86451320598838 33.4378529728812 43.57927574960169 48.86530996076221 43.32285373147021 25.625886651471337 14.904437774802124 25.62587978905397 29.89482639597029 28.312255631607616 23.88804815024846 20.39902532011361 20.399027715542367 23.888053833056553 28.312262004906728 29.894832298846733 25.625884719662434 14.904440675598975
</DataArray>
        <DataArray type="Float64" Name="Mode_6_w" NumberOfComponents="1" format="ascii">
 -7.424962445959355e-11 1.770241988566948e-10 -3.86093798680876e-11 6.448616930200959e-10 -4.487849671151626e-5 -1.3393077565155516e-5 0.00012882033527724702 0.0003552325056846614 0.0005873539558416173 0.0007338751819823749 0.000733874671999743 0.000587353939492236 0.0003552320512365726 0.00012882033934988552 -1.3393332296976653e-5 -4.487844276693573e-5 4.487879364249452e-5 1.3393254937031482e-5 -0.00012882032772662416 -0.0003552320563128965 -0.0005873537731685156 -0.0007338750299841189 -0.0007338747140656596 -0.0005873538471528782 -0.0003552323419334218 -0.00012882023280919199 1.339325780242096e-5 4.487875080401384e-5 -4.487884818725241e-5 -1.339327717192053e-5 0.00012882008275105517 0.00035523220455963624 0.0005873541194044313 0.0007338750596066305 0.0007338749075258272 0.0005873537056143422 0.0003552319291771664 0.00012881951467350094 -1.3394007198548431e-5 -4.4879340688942764e-5 4.487819927767696e-5 1.3392607602796549e-5 -0.0001288207711202468 -0.0003552327442441867 -0.0005873539922391606 -0.0007338749253819033 -0.000733874666009235 -0.0005873539087988697 -0.00035523182633033116 -0.00012882014864216073 1.3393621967786736e-5 4.487874563460207e-5 7.04944537275034e-6 -3.3140038206892535 -11.397937558849929 -22.933721580024653 -34.33315042798181 -41.41415740874672 -41.41416675152889 -34.33317667945792 -22.93376030642371 -11.397981585712893 -3.3140430094228175 -1.6337025648023222e-5 3.3140287060231044 2.1946664253588267e-5 -12.949847802474657 -33.13577358505256 -53.71910028633298 -66.66961705340206 -66.6696332419985 -53.71914615898666 -33.13584059237003 -12.94992272592615 -4.43719697641856e-5 3.31398897083322 11.397967665732596 12.94990177017797 3.395941427626445e-5 -24.348447942552497 -50.59653970855411 -67.46767547788687 -67.4676944279466 -50.5965930466061 -24.34852503528298 -5.055578306122996e-5 12.949828342663341 11.397923986656203 22.933750130046676 33.13582635300969 24.34851559730613 3.3812192503703666e-5 -28.461921006566357 -47.28165038976712 -47.281667336692884 -28.46196824767804 -3.338203962210398e-5 24.348443468185724 33.13576552922344 22.9337150188917 34.33317108860393 53.719139307050035 50.59659010448734 28.46197117067425 1.8139991788982565e-5 -19.386334183133457 -19.38634482440407 -1.1428523922693166e-5 28.461929715116316 50.596546986416286 53.71910435036516 34.333151616194954 41.41416535237078 66.66963217366124 67.46769531417776 47.28166964500059 19.386345908227952 -6.030885713744086e-7 -2.4904925943645322e-6 19.3863403216929 47.28166190983677 67.46768851327298 66.66962768102645 41.41416273306142 41.41415944384593 66.66962066311955 67.4676791005344 47.28165108770204 19.386328722341574 -1.2324977762215678e-5 -6.1314068373864855e-6 19.38634523441605 47.28167375809028 67.46770341443478 66.66964063055453 41.41417012020541 34.33315536762801 53.7191084400417 50.59654684193551 28.461921707404333 -2.7372218102124802e-5 -19.386364892501764 -19.38635416648612 1.6463437065088887e-6 28.4619610521791 50.59658678907849 53.71913972759576 34.333171928733286 22.933728995911387 33.13578555310551 24.348459023298073 -3.029196555290098e-5 -28.46197911831955 -47.28168892160325 -47.28167851494289 -28.461950393398915 8.906264214323694e-6 24.34849817419563 33.13581549347568 22.933744402529797 11.39794599816497 12.949861372916589 -2.0389474710860703e-5 -24.34850771607214 -50.59659249399508 -67.46770986273955 -67.46770336273069 -50.5965738051726 -24.348480670336098 7.64592007317474e-6 12.94988285385471 11.397956922439155 3.3140110103255287 -1.024748068624204e-5 -12.949888821354318 -33.13581609151223 -53.71913645351206 -66.66963990776564 -66.66963769193744 -53.71912915844341 -33.13580361795123 -12.949873979076873 2.0414190706111576e-6 3.314017437217853 -2.946260960377236e-6 -3.3140219821734 -11.397959392376796 -22.93374263759895 -34.33316761732169 -41.414167768871835 -41.414167622031705 -34.333166413518256 -22.93373920286887 -11.397953888528518 -3.314016536545498 0.0
</DataArray>
        <DataArray type="Float64" Name="Mode_7_w" NumberOfComponents="1" format="ascii">
 -1.7343361700812147e-10 0.0015547282547965138 9.653685713994183e-11 -0.0015547285312095243 -0.0002066120022589197 0.00024195046142517758 2.384751454801417e-5 0.0007779882194713216 0.000539649280031032 0.0009557282887820226 0.0001518615820261628 8.278506734522657e-6 -0.0010531926407143914 -0.001027776314205854 -0.0013069471288638566 -0.000993291760780518 -0.0009932918296314268 -0.0013069472299405912 -0.0010277758472161391 -0.0010531918737181553 8.278093688175625e-6 0.0001518611784646709 0.000955728430412035 0.0005396491654072731 0.0007779875025279464 2.3847373062258884e-5 0.00024195037051468377 -0.0002066119137671427 0.00020661199432094217 -0.00024195023446660214 -2.3847300247008703e-5 -0.0007779874002375864 -0.0005396487672612929 -0.0009557277955593274 -0.00015186049149737332 -8.277715693223375e-6 0.0010531923757353485 0.0010277759105742185 0.0013069469835218677 0.0009932918672891887 0.0009932919981582953 0.0013069470378867414 0.001027776327671926 0.00105319219696819 -8.278376776881341e-6 -0.00015186136819346035 -0.0009557273109727165 -0.0005396490220980959 -0.000777987756562689 -2.3847372338910216e-5 -0.0002419499003084885 0.0002066121240205447 3.8004781370317837e-6 -3.9001607116072 -12.967537504951265 -24.1290634017914 -31.263170526521225 -28.420077566406615 -13.355088403845167 10.499117768278106 34.82015064954902 49.7356340502492 48.253507271948756 29.62823240480783 3.9001733771048865 1.0049444546007154e-5 -14.571961955152444 -34.71250052517413 -49.533107129385726 -48.04201353658308 -25.491637726538375 12.984224513224227 53.53038989439637 79.29294735258405 78.07008561000181 48.25350897131835 12.967551644822041 14.571983441881995 9.773095629159098e-6 -25.264414074983755 -47.88461683253022 -53.55234735942969 -34.85721138494821 3.94137587389643 47.889848429121564 77.81312498726466 79.29295580792065 49.73564041179281 24.129077143786922 34.71251955214575 25.26442576593587 -1.2462719789092027e-6 -28.190420890264985 -44.27543217189796 -38.840084820090645 -13.121044469169798 21.269903579992768 47.889864627583734 53.530411674264876 34.820164994086184 31.263183415982482 49.533122308206224 47.884620977527696 28.190407664677632 -1.298059700619321e-5 -24.163344013244366 -34.720492105489136 -29.26781115935354 -13.12102840694771 3.941405379684762 12.984257094469953 10.499139575089773 28.420088621234434 48.0420254542261 53.55234845780229 44.275417152383234 24.16331602393617 -1.6154805849803606e-5 -21.24052404731659 -34.720482698717895 -38.840061417055125 -34.85717710968438 -25.49160239835416 -13.355065266730524 13.355096274416042 25.491646989671853 34.857213865695044 38.84007604056304 34.72047247110672 21.240496795365807 -1.4770485601369463e-5 -24.16333519065182 -44.27541145071796 -53.55231671624057 -48.041982976412044 -28.420058888263213 -10.499113996840443 -12.984218234376542 -3.941370126712082 13.121046708541753 29.267806969968174 34.7204688814996 24.163312574799647 -1.1635400359687945e-5 -28.19041060066176 -47.88459779103466 -49.53308638867518 -31.263157368174134 -34.82015042336139 -53.53038650938737 -47.88983922797428 -21.269889223499344 13.121042151736305 38.84006661549587 44.275405168862136 28.190397716067704 -5.462282706049669e-6 -25.264411580935608 -34.712493149764974 -24.129056467768432 -49.73563422587445 -79.29294420395058 -77.81311317777109 -47.88984217637655 -3.941377918953641 34.85719973510697 53.55232882251628 47.884600397501444 25.264408626894532 -1.8328102650177133e-6 -14.57196721455785 -12.96753826553764 -48.2535054184499 -78.07008070344193 -79.29294389373801 -53.530389304878405 -12.984227145255455 25.49163198050349 48.04200573313848 49.5330997577862 34.71249774508255 14.571966467516335 -7.506115181465057e-7 -3.900165883566279 -29.62823027303279 -48.253504983842966 -49.73563265218164 -34.82015106999023 -10.499120376827202 13.355086120188966 28.420077053210683 31.26316966634842 24.129062311413975 12.967539584619507 3.900165758798014 0.0
</DataArray>
        <DataArray type="Float64" Name="Mode_8_w" NumberOfComponents="1" format="ascii">
 0.0015547283799212178 -3.882862382815906e-11 -0.0015547285652657906 -1.5149658653368987e-10 -0.0009932917057089087 -0.0013069470393187875 -0.0010277759465232394 -0.001053192635580987 8.278397795703507e-6 0.00015186112799148177 0.0009557280833989785 0.0005396490093712757 0.0007779877701493423 2.3847722887712425e-5 0.00024195022451584927 -0.00020661180345359285 0.00020661200205252393 -0.00024195012741498001 -2.3847720432949497e-5 -0.0007779878219931472 -0.0005396488821785979 -0.0009557276609718668 -0.00015186105628642695 -8.278202260439328e-6 0.0010531925112690552 0.0010277761246398583 0.0013069469294839829 0.0009932919202808883 0.0009932920011061974 0.00130694711349515 0.0010277762271844394 0.0010531919416710122 -8.278096302204944e-6 -0.00015186107484477918 -0.0009557277653217974 -0.000539649453768961 -0.0007779875252870893 -2.384718540186792e-5 -0.00024195009926892546 0.00020661214597375886 -0.00020661180744508341 0.0002419505103794167 2.3847181656198392e-5 0.0007779875659660433 0.0005396490887972689 0.0009557277351131161 0.00015186098151669393 8.278260332860762e-6 -0.0010531924107567837 -0.0010277761689946369 -0.0013069470787449146 -0.0009932918707739452 -29.62823054923771 -48.253506105643105 -49.73563670150845 -34.820157538600014 -10.49912679122384 13.355080164794309 28.420072667512404 31.263169737558236 24.129066459231964 12.967544819968435 3.900170464602876 3.108131267021057e-6 -48.25350371687479 -78.07008037459063 -79.29294827066956 -53.53039795244478 -12.984236821578467 25.491624419714185 48.0420025992589 49.53310240995543 34.712505025441935 14.571975283174513 6.91889441976412e-6 -3.9001614336169887 -49.73563053316751 -79.29294131255523 -77.81311429523603 -47.889847245124905 -3.941384209821643 34.85719669691827 53.552330827106736 47.88460602561255 25.264416471494705 5.904441586751442e-6 -14.57196257883168 -12.967536902283333 -34.82014793540286 -53.530383462129834 -47.889836587771285 -21.269887435337942 13.121044264609846 38.8400716336432 44.27541345434115 28.19040694176185 1.5022218988459e-6 -25.264410369865594 -34.71249813301702 -24.1290623355386 -10.499115672785477 -12.984218651372068 -3.941366839997638 13.12105360517807 29.267816638357395 34.7204815879509 24.163327745164196 2.191617356461908e-6 -28.190404904783122 -47.88460448739786 -49.53310128071834 -31.263169469486602 13.355090134685502 25.491640544483687 34.85721318250745 38.84008316816012 34.720485764865074 21.240514486126326 5.682699029562035e-6 -24.163318411034204 -44.27540753840728 -53.55232856134934 -48.042002967731804 -28.420073708500635 28.42007908451323 48.04201258679711 53.552340618251414 44.275419441286125 24.16332794098948 2.782865494118063e-6 -21.240501615357452 -34.72046509685101 -38.84005821514928 -34.857189922925265 -25.491623023110023 -13.355080564713735 31.263171434974666 49.53310425793218 47.884605834933325 28.1904021286398 -6.951919546747483e-6 -24.163327527085684 -34.72046978488983 -29.267792242629405 -13.121022457534625 3.9413961868855467 12.98424004854389 10.499126436329966 24.129064438329202 34.71249904546326 25.26440541688272 -1.4140723766391463e-5 -28.190421282343383 -44.27541891813203 -38.840062699319624 -13.12102284008711 21.269915144510808 47.88986263770668 53.5304015305984 34.82015640940201 12.967540834199658 14.571964350032685 -1.2243550954558287e-5 -25.26443101123229 -47.88462080679767 -53.552336160180545 -34.85718980400928 3.941399173252156 47.88986454407624 77.8131295061144 79.29295210211886 49.7356360586572 3.9001658555511063 -4.7421693913019974e-6 -14.5719805100857 -34.71251568039273 -49.5331115436995 -48.04200485051101 -25.491619444357106 12.98424535336638 53.530405417023616 79.29295350709093 78.07008509682564 48.25350732696412 -1.0381395152968311e-7 -3.9001690986751583 -12.96754789674841 -24.129071663470754 -31.263173169340146 -28.4200728334986 -13.355077496958769 10.499130392359842 34.82015987473149 49.73563779127802 48.2535074744878 29.62823202816801
</DataArray>
        <DataArray type="Float64" Name="Mode_9_w" NumberOfComponents="1" format="ascii">
 0.0010336738321560027 8.688080459749232e-9 -0.0010336654126096028 -7.964102985519138e-11 -0.0008305996640166227 -0.0010885972376751272 -0.0007852614385331124 -0.0008598385397361075 -0.0005287119194677747 -0.001164809855826356 -0.0012774175466366872 -0.0017736361156818704 -0.001159678167567465 -0.0008662679077004933 1.8374494790543824e-5 -3.426249334767946e-5 3.424842757724525e-5 -1.839077314374223e-5 0.0008662547712797824 0.0011596684882253057 0.0017736348938422236 0.0012774141412452047 0.0011648057526308666 0.0005286998766279925 0.000859827101898106 0.0007852479434422597 0.0010885906777956516 0.0008305923886475175 0.0008305926088959859 0.0010885908204972098 0.0007852553651559377 0.0008598370471208886 0.0005287154680486933 0.00116481715020147 0.001277423834565671 0.0017736390260853097 0.0011596758480038052 0.0008662615357823 -1.83815381044282e-5 3.425534161375699e-5 -3.425563702096393e-5 1.8383685850572204e-5 -0.0008662607287441786 -0.001159669881941885 -0.001773631156708904 -0.0012774070240301443 -0.0011647987399262846 -0.0005286969504387615 -0.0008598289154180248 -0.0007852542395599914 -0.0010885972429913295 -0.0008305994432032294 -19.144942661331672 -29.45280043372389 -29.291496351188417 -25.194913122659656 -25.846966228502772 -34.29424329664004 -45.09901685606166 -48.9327684614119 -40.626473983523326 -23.745894949755858 -7.719696723182407 1.2865929364117298e-5 -29.452865947820694 -42.19496034592877 -35.48693986739887 -22.37652028833763 -20.031947684798993 -34.571295434066094 -55.55073071970266 -64.8535039780405 -52.33923394371134 -24.718470238630882 2.6631698085741295e-5 7.719743028830862 -29.291698154661347 -35.48715015644796 -15.363699081696172 11.84146211260857 21.145602927704843 3.4671089255527723 -26.465776353428545 -42.80770014476297 -30.908903316384702 -4.333726069263216e-5 24.71851780857912 23.745976190754 -25.195258632378717 -22.37696635631284 11.841198168749193 53.05488664863011 69.82124324306129 50.57121812059366 13.422917800574778 -9.54591297176634 -0.0002451291943941529 30.908729152520852 52.339348821669574 40.62664152731742 -25.847384306636073 -20.032502934379163 21.145236021116354 69.82116208915228 90.16966499771533 68.96788733223629 26.763883299095134 -0.0004265499776147091 9.545333887769281 42.80762860131047 64.8538172597718 48.933087041823356 -34.294634108909136 -34.57177702525623 3.4668795227457347 50.571335952363434 68.96812197240175 44.80760334469909 -0.00032469082586754626 -26.764612335874727 -13.423286865927302 26.46598362563328 55.551316958797 45.099505563634665 -45.099321595000504 -55.551039568113076 -26.465750840287225 13.423358939080021 26.76448816005174 6.837393569367315e-5 -44.807859058306974 -68.96824399647149 -50.57125876561509 -3.4666378772614364 34.5720648429852 34.29482562058698 -48.93300395111701 -64.85369064796137 -42.80752089187391 -9.54530003021744 0.00036718536451260864 -26.764007365820184 -68.9680114315569 -90.16972239000049 -69.82111884533617 -21.145108580588605 20.032654567725615 25.84748569290509 -40.62670213564858 -52.339437185922016 -30.90879835287124 0.00022964242594110897 9.545956031086575 -13.422840545228325 -50.57114522423686 -69.82120773123748 -53.054900914224305 -11.84125009148329 22.37690523884568 25.19521877200901 -23.746153276746178 -24.718779338588114 -0.00016688512559933353 30.90885158170355 42.80783121337082 26.46602188442148 -3.46687290744808 -21.145492112413617 -11.841526734431847 15.363495370999155 35.48690970523161 29.29153912923084 -7.719951494870029 -0.00033441300922041315 24.718222531323335 52.33917350849399 64.85366101845939 55.55102456282735 34.57157803173618 20.03207975871155 22.376439803165805 35.48668987725589 42.19466523274725 29.45267056093197 -0.00015093154343650923 7.7194927655518475 23.745730685475422 40.62643424578492 48.932873568266324 45.09921303781309 34.294431800335374 25.847054012711922 25.194858990802096 29.291328526953336 29.45260193861938 19.144811162018303
</DataArray>
        <DataArray type="Float64" Name="Mode_10_w" NumberOfComponents="1" format="ascii">
 9.577914700053862e-9 -0.0010336641878103936 7.412384792156719e-10 0.0010336746880544262 3.424776138599013e-5 -1.8391430597551668e-5 0.0008662540034742081 0.0011596683976390187 0.001773635081699773 0.0012774149976827883 0.001164806518487462 0.0005287005631585661 0.0008598266133389463 0.0007852469161652133 0.0010885901633577548 0.0008305912830503929 0.0008305915755238963 0.0010885898079078474 0.0007852544247068115 0.0008598367862954976 0.0005287157672918271 0.001164817790817671 0.0012774253450088923 0.0017736397350347243 0.0011596757561884092 0.0008662606631795408 -1.8381984824256642e-5 3.425467556907906e-5 -3.4256546540444946e-5 1.8383160779645023e-5 -0.0008662615917134479 -0.0011596701482684383 -0.0017736311545047422 -0.0012774069493215895 -0.0011647982076738908 -0.0005286963270731218 -0.0008598288054408086 -0.0007852548062293273 -0.0010885980713872807 -0.000830600373979052 -0.0008306005286086469 -0.0010885978649509238 -0.000785262238991103 -0.0008598389164921868 -0.0005287117727826378 -0.0011648094834547196 -0.001277416810436149 -0.0017736351595983065 -0.0011596778430220907 -0.0008662682297766515 1.8373639396901495e-5 -3.42635119150509e-5 -0.00016381411966546593 -7.719968826479593 -23.746163728760507 -40.62669791474466 -48.93298566396781 -45.09929852469532 -34.29461763517351 -25.84738099758467 -25.195269230548448 -29.29171845479946 -29.45288744227511 -19.14495621299174 7.71947236824171 -0.00036236655056105793 -24.718797044628417 -52.33943272827748 -64.85366465054436 -55.551005247552155 -34.57175165817181 -20.032497521937238 -22.376982031889575 -35.48717928932776 -42.194990485827255 -29.452819243643273 23.745711988359226 24.718195724753294 -0.00018553648982728041 -30.908797245982925 -42.8075002051951 -26.46572211250717 3.466900225040146 21.145238756194924 11.84118427590161 -15.363721320348033 -35.48696118121046 -29.291509263543457 40.62642534049338 52.3391598997898 30.90884052845817 0.0002272592982947566 -9.545293367927568 13.423368211803023 50.57133947187872 69.82115747182118 53.054879473526874 11.841458284468137 -22.376520319651526 -25.194912065952284 48.93287772274722 64.85366657971832 42.80783379560107 9.545952665583643 0.00035793364216529767 26.76447350278417 68.96810453814211 90.16965244533984 69.82124386018675 21.14561815605465 -20.031926476547742 -25.846951483599717 45.099227943660736 55.55104559469974 26.466036281411142 -13.422842302874832 -26.764027291632264 3.6365852714743395e-5 44.807572153146005 68.96787085415971 50.57122357508136 3.467132950973183 -34.57126584952535 -34.29422384275978 34.294449262797144 34.57160262926888 -3.4668548576422746 -50.57114490000725 -68.96803271860429 -44.80789359660323 -0.0003554373584236458 26.763869820502507 13.422924071699711 -26.465756593693435 -55.550708419411805 -45.09900294135849 25.847063178008003 20.032093215215895 -21.14548151679094 -69.82120833499089 -90.16973695642744 -68.96826486797501 -26.76462746481586 -0.00042957257770313807 -9.545907136045912 -42.807692505296714 -64.85349867071471 -48.93276627753461 25.19485297211742 22.376431425086782 -11.841534432704442 -53.054907536327626 -69.821123003212 -50.571256556444766 -13.423276994947337 9.545346433493373 -0.0002391485443747072 -30.90890949680674 -52.33924764792877 -40.626484666570995 29.29130858632185 35.48665936523501 15.363467181681708 -11.841264761836232 -21.145103632488116 -3.4666144976159052 26.466016077682486 42.80765457041752 30.908734883403728 -6.002330754007153e-5 -24.718497273214897 -23.745914510356158 29.452576739959593 42.194625616562234 35.486872942548395 22.376887283785877 20.032663171538648 34.57209640301337 55.551357223605486 64.85384646947516 52.33935309676047 24.71849839071129 -2.3591909250257983e-6 -7.719717223077874 19.144793487094976 29.452642788431405 29.29151360060573 25.19520635745013 25.84749167462687 34.29484766469435 45.09953333291237 48.93310631698501 40.626643580096626 23.74596328665439 7.719724609984644 0.0
</DataArray>
        <DataArray type="Float64" Name="Mode_11_w" NumberOfComponents="1" format="ascii">
 -0.001926090698476079 -0.001926095513330562 -0.0019260953702771616 -0.0019260901446840446 0.0016169670216068285 0.0015222846111912637 0.0014042689215480113 0.0003924186919864477 -0.0007742837847570144 -0.0015586174883456326 -0.0015586185438533316 -0.0007742898099091782 0.0003924175137556903 0.0014042685649352752 0.001522289618443416 0.0016169708987173522 0.0016169709765648966 0.001522289583677703 0.0014042720211947224 0.0003924222909549664 -0.0007742821021376429 -0.0015586126608593501 -0.0015586127013545135 -0.0007742816229620188 0.00039242264608577355 0.0014042727764627103 0.0015222895131663547 0.0016169707123364725 0.0016169704688600132 0.0015222894286861005 0.0014042679371340182 0.0003924164142260286 -0.0007742912762332804 -0.0015586194691657284 -0.00155861893254245 -0.000774284839357501 0.0003924180576186638 0.0014042683553673295 0.0015222841991489996 0.0016169664374447216 0.0016169664910322926 0.0015222839396756942 0.0014042641595854622 0.0003924126001229264 -0.0007742929140652913 -0.0015586245310527979 -0.0015586246432605832 -0.0007742933447311468 0.00039241267389967773 0.0014042648129737147 0.0015222847817108094 0.001616966802527782 30.361569908227946 45.44742184592019 37.67447047242107 10.95320130089741 -21.277088889918076 -42.80620541890465 -42.806200266534006 -21.27707936566325 10.953203775875195 37.67446125236594 45.44740669779835 30.361558747877986 45.447461980602405 68.02900908433298 56.39410470424178 16.395597069411668 -31.84910985962279 -64.07554768884394 -64.07553676475183 -31.84908799698255 16.39560840897068 56.39409459207124 68.02898566780536 45.44744325833785 37.67459604797504 56.394236622686236 46.74925676559001 13.591599781865494 -26.401993646786682 -53.11683500973378 -53.11681810593536 -26.40195746621297 13.59162482925065 46.749252001819805 56.39420989044837 37.674572439790126 10.953419932862605 16.395880320957072 13.591768604348376 3.951651645818824 -7.675892901951552 -15.442828058281112 -15.442806737461092 -7.6758459482093215 3.9516872966457646 13.591767383378997 16.395849532935472 10.953391059100401 -21.2768214571864 -31.84875398836653 -26.401755332520104 -7.675835599600404 14.910751623755216 29.998142791161772 29.99816543437449 14.910801046605696 -7.675799551442307 -26.40176040767031 -31.84879225812746 -21.276856854556993 -42.805956169129026 -64.07523779894497 -53.11667982226925 -15.442888524075407 29.998006161598877 60.35159353746066 60.35161416717854 29.99804957674685 -15.442861504498046 -53.11669507968474 -64.07528488272042 -42.80599654248212 -42.80600936726529 -64.0753397861693 -53.11682375363008 -15.443065505230612 29.997805774780172 60.35137908815348 60.35139574004482 29.997839859870176 -15.443048595569541 -53.11684686438718 -64.07539117803265 -42.80605099833441 -21.27693550352349 -31.84897283182542 -26.402063301015026 -7.676213310530094 14.910323961593466 29.997684504499645 29.99769878877884 14.910353037515666 -7.676199487540399 -26.402084693364166 -31.849019556074076 -21.276973778473696 10.953342287782416 16.39573139893009 13.591560898473835 3.951399976713453 -7.676176110494882 -15.443132088726498 -15.443117949350125 -7.676146548425867 3.951417899161763 13.591549139468324 16.395696496628574 10.95331188288277 37.67461912639865 56.394282336822904 46.74932586656553 13.591692392923484 -26.4018825420715 -53.116716320027116 -53.116703033446925 -26.40185311498986 13.591715228166011 46.74932565046822 56.39426234977243 37.67459944956135 45.447562173296255 68.02920447702049 56.39438699469509 16.39595502331296 -31.848694537235616 -64.07510253556309 -64.07509211887589 -31.84866984911686 16.395978051894044 56.39439509358976 68.02919783799548 45.44755284372184 30.361658411946912 45.44759454296793 37.67471928284017 10.953515878786376 -21.276724274648547 -42.80581435088695 -42.80580858489356 -21.27670979154616 10.95353131600635 37.67472757963608 45.44759436054171 30.36165550823972
</DataArray>
        <DataArray type="Float64" Name="Mode_12_w" NumberOfComponents="1" format="ascii">
 2.237282061881231e-10 -1.045642962247456e-12 6.745564384523428e-12 -2.0177809394099092e-10 -8.145517576467693e-5 0.000310487026759535 0.001320570952764241 0.0021143217766724253 0.002062194308631571 0.0008290914707254553 -0.0008290915389404139 -0.002062193773988117 -0.0021143215465423805 -0.0013205707628437904 -0.0003104876141398742 8.145487860511284e-5 -8.145507653483584e-5 0.00031048752916174895 0.0013205711788249555 0.002114321741887668 0.0020621944143553775 0.0008290912051286585 -0.0008290916610400257 -0.002062194706144552 -0.002114321835093163 -0.001320570786971977 -0.00031048721049714383 8.145518936431698e-5 -8.145493152290495e-5 0.0003104871368526227 0.0013205707241719597 0.002114321259130406 0.0020621935215046783 0.000829090900952898 -0.0008290917789029104 -0.0020621946159298096 -0.0021143217754857253 -0.001320570752874523 -0.00031048704244595807 8.14551251057668e-5 -8.145461784208137e-5 0.00031048751522791466 0.0013205706683768255 0.0021143216344519673 0.0020621944797394147 0.0008290916479563014 -0.0008290913352426416 -0.00206219438205016 -0.002114321791192664 -0.0013205708776888982 -0.00031048753526868904 8.145476832794919e-5 -2.593590889376112e-6 -11.897196454055377 -34.81714471210172 -53.3013449213591 -49.86417921239152 -20.453825857301855 20.45383653024853 49.864187775296536 53.30135074282848 34.81714752803125 11.897196927948075 2.4129017920488077e-6 11.897190940330296 -2.649022608485066e-6 -36.01593657477525 -69.9552383749589 -70.79550528453655 -29.865668174169844 29.86568140308535 70.79551728611389 69.95524806909086 36.015942528232834 5.16976989222301e-6 -11.897190099530524 34.81714305964181 36.015936492461755 1.7892933804830683e-6 -43.369421985746925 -56.234607214488356 -25.484109036771883 25.484114637262017 56.234614343730065 43.369430345343055 5.59688075941808e-6 -36.01593164336426 -34.8171407278144 53.30134739181655 69.95524351580356 43.3694267575252 -1.549139740520185e-7 -23.97686570755682 -13.535557736636674 13.535553300034653 23.976864776277495 3.061693690342252e-6 -43.36942170652322 -69.95523949051461 -53.30134601965898 49.8641844183852 70.79551270785079 56.23460981905657 23.976858854968132 -6.805926174192683e-6 -3.4618186635447987 3.461811302068246 3.0945962660562165e-6 -23.976859224479014 -56.234608876849684 -70.79551318100658 -49.86418644407005 20.45383326434778 29.865676686930463 25.48411013241769 13.53554897654539 3.46180568284374 -4.279164783791888e-6 2.3172639566056336e-6 -3.4618044548559666 -13.535546353860425 -25.484110667431434 -29.865681780243264 -20.45383877129377 -20.45382688613062 -29.865670352819663 -25.484110520427265 -13.535557157956337 -3.4618166475899628 -6.38795515919024e-7 6.397635072336118e-6 3.461825522349882 13.535566221431138 25.484112591702747 29.865663551499146 20.453819032946853 -49.86417745863612 -70.79550329767677 -56.234604462274426 -23.976860896674854 1.652912816449156e-7 3.4618145592006617 -3.4618056403784556 1.2730979027269602e-5 23.97687496329986 56.23461043756244 70.79549741977071 49.86416883127811 -53.30134215476378 -69.95523432059493 -43.369416871616565 6.015992614578711e-6 23.97686517863002 13.535555047457523 -13.535550601459345 -23.976854023611264 9.866955327210804e-6 43.369426102893414 69.95523103624923 53.30133475890421 -34.817140845729035 -36.015930479805014 8.372389093828836e-6 43.36943151845418 56.234610733623065 25.48410809893418 -25.484112874842182 -56.234605106842864 -43.369416884951015 3.458192989399596e-6 36.015931824771286 34.81713695080298 -11.897190981927444 6.120104510883615e-6 36.01594465657732 69.95524689724267 70.79550945235697 29.86566841910972 -29.86567961020218 -70.7955096557597 -69.95523658829066 -36.015932841758975 -3.989675577564385e-7 11.897191256814168 1.7662855609354279e-6 11.897198053286274 34.81714940523949 53.301349830740406 49.86418164723839 20.453826299691528 -20.4538354149143 -49.864184207559916 -53.30134531926194 -34.817142069846156 -11.897192691669522 0.0
</DataArray>
        <DataArray type="Float64" Name="Mode_13_w" NumberOfComponents="1" format="ascii">
 -0.0019147558036530419 0.0019147560133158782 -0.0019147563305585349 0.0019147565445478355 0.0017390295935024822 0.0025231039933887372 0.0014352990237501198 0.0011124949410304683 -0.0003099499804451405 0.00020363709277979765 -0.00020363672283139596 0.00030995011699375087 -0.0011124952251270093 -0.001435298951024633 -0.0025231042440738457 -0.0017390295836989345 -0.0017390293991272497 -0.0025231041065600967 -0.0014352989612179824 -0.00111249541945411 0.00030994991994921957 -0.00020363698824286706 0.00020363702598780235 -0.00030995006957739194 0.001112495243079311 0.0014352989480290936 0.00252310449254197 0.001739029903999593 0.0017390297415885297 0.0025231046674222836 0.001435298993814092 0.0011124955844937071 -0.0003099499933274363 0.00020363700694872057 -0.00020363723056080477 0.00030995025677876765 -0.001112495009124934 -0.0014352993832712 -0.0025231049505957262 -0.0017390299133353525 -0.001739029981624394 -0.0025231046741169875 -0.0014352992141776569 -0.0011124954111800419 0.0003099503221540323 -0.00020363726338534452 0.0002036374026734793 -0.0003099496620844868 0.0011124953012457497 0.0014352987198033148 0.0025231037925296626 0.0017390294741377633 38.230095665458975 55.23271557577546 45.786100622204145 22.458705226253485 3.781686613031205 -1.0934291894339347 1.093446015251666 -3.7816757644178236 -22.458705176454973 -45.786112014425974 -55.23273198259924 -38.23010704973198 55.23271625733842 75.99606674902127 55.28806842388808 15.819434016034723 -10.023498906651493 -7.960686657352485 7.960710329461043 10.023513412106116 -15.819434114238035 -55.2880832434491 -75.99608887329249 -55.2327323245243 45.786101171685914 55.28806958979507 23.118411491637858 -21.623218973562835 -40.852534091340544 -19.921270443999102 19.92128880854022 40.85254530698955 21.623219548180177 -23.118420784498582 -55.288084072688 -45.78611224566937 22.458704508091127 15.819435732780168 -21.62321609393382 -61.097215180199484 -67.23401056124166 -29.153473933200107 29.15348208838344 67.23401652175065 61.097218228260196 21.623216865532 -15.81943684629549 -22.45870627368114 3.7816845456753607 -10.023498353429574 -40.85253049816195 -67.23400838516223 -64.62559542252653 -26.755968300800408 26.75596859975759 64.62559760748579 67.23401422151511 40.85253918411188 10.023506453123897 -3.7816801276997305 -1.0934322316505967 -7.960689024667832 -19.921270905510315 -29.153475675055283 -26.755971864291958 -10.914679294931148 10.91467512490305 26.755971472676062 29.153481843427073 19.921281927401242 7.9606999427084775 1.093438800245963 1.093442453098583 7.960704625492718 19.92128189079367 29.153472846200405 26.75595761260054 10.914667093669975 -10.914674959520143 -26.755960322482366 -29.153468313569526 -19.92127231263918 -7.960694017798958 -1.0934351817653158 -3.7816792386508777 10.023506342745032 40.852534962465114 67.23400376559681 64.62558339343396 26.75595829521881 -26.755968317683255 -64.62558768327193 -67.23400113586054 -40.8525275774341 -10.023497255016938 3.781685815786067 -22.458706392421217 -15.819438177030051 21.623212137747608 61.0972086459587 67.2340034232084 29.153470702050903 -29.153478552386634 -67.23400813224444 -61.09720827999281 -21.623206944163858 15.819445235630313 22.458711278711412 -45.78610799276868 -55.28807961614623 -23.11842048308254 21.623213269859388 40.85253346166858 19.921275885342187 -19.921279865680532 -40.85253756733892 -21.62321485159062 23.11842387871384 55.288086030083456 45.786112796477504 -55.23272339284778 -75.99607765171737 -55.2880769528798 -15.81943636463845 10.023503534974253 7.960696864678956 -7.960698990144279 -10.023506530608268 15.819434510400159 55.28807991090272 75.99608490365492 55.232729466095606 -38.23009955568551 -55.2327219620193 -45.7861053298155 -22.458705190741252 -3.7816817925967854 1.093436888019519 -1.093438399038226 3.7816800350989306 22.45870422673214 45.78610768510953 55.232727709132675 38.23010454294901
</DataArray>
        <DataArray type="Float64" Name="Mode_14_w" NumberOfComponents="1" format="ascii">
 0.0032327738990538843 -1.8991249898320968e-10 -0.0032327735112391348 -1.973780941892416e-10 -0.0034608501453048533 -0.004130488220388589 -0.0017630911548265477 0.00023203823973977846 0.003351687667498567 0.002374671753255838 0.0016555872691234527 -0.0013531965994901698 -0.0012468935880658278 -0.001843357047847177 8.058263435959756e-5 -0.0002587791418639023 0.0002587790986681317 -8.05818890626513e-5 0.001843357212881234 0.0012468937005785405 0.001353196580920553 -0.0016555871479391265 -0.0023746716801495643 -0.0033516876268257136 -0.00023203830487322682 0.0017630909807991862 0.004130487328670983 0.003460849614186234 0.0034608499053941965 0.0041304877214978575 0.0017630906881538264 -0.00023203862965421871 -0.003351687815982475 -0.002374671262719044 -0.001655586816545343 0.0013531966734505322 0.001246893356982157 0.0018433568224813135 -8.058211006616386e-5 0.00025877912671856673 -0.0002587788005588533 8.058247571103386e-5 -0.001843356903730718 -0.0012468931261906532 -0.001353196819627361 0.001655586479014372 0.0023746713233029544 0.0033516872062789335 0.00023203877019768715 -0.0017630909814972014 -0.004130487974665331 -0.00346085031684441 -55.33405374625287 -72.63528821060217 -42.16354282492091 12.326795199513485 52.62734629566633 54.545749231149905 23.46360178935788 -13.85081314438736 -32.28612683196616 -26.49155603644198 -10.189664849764563 1.6120577850420226e-6 -72.63529187876772 -93.46319568495582 -50.4686990010688 22.127864669055867 71.628567714744 67.2785419141879 20.75317228349893 -27.87103553100318 -44.650068990755265 -27.008615682467564 2.5847849553050297e-6 10.189668890676115 -42.163551830494974 -50.46870865369018 -19.44487005761448 24.84973154750787 46.73238331277422 30.329957813613582 -8.234925702686095 -35.74901172638123 -30.503382941646205 3.5611360246273407e-7 27.008617720138613 26.491557569074168 12.326785811010351 22.127850572420304 24.849721798315723 16.09273009215121 -3.643337833543227 -25.841562448382106 -37.05372110479688 -27.620433732223848 -5.578623815565735e-7 30.503380903368562 44.65006526674221 32.28612369642758 52.62734390779079 71.62856151224995 46.73237530455975 -3.6433427013241158 -46.58361615657918 -57.7497870975335 -35.96775825163967 -1.6156147297472681e-6 27.620431655996242 35.749007161791496 27.87102739028787 13.850806358858732 54.54575627993603 67.27854955687427 30.329960366829763 -25.841564086758343 -57.74978845607341 -43.81988227539023 -3.14350840468649e-6 35.96775404263967 37.053718732314024 8.23492142224696 -20.753179955722807 -23.463608350625428 23.463613849934163 20.75318800046499 -8.234915735755582 -37.05371819835008 -35.96775742860155 -1.7628710460723558e-6 43.81987786286228 57.749785552501955 25.84156352130874 -30.329957521630394 -67.27854444245229 -54.545752582036194 -13.85080351194356 -27.87102252120039 -35.74900317381507 -27.62043107545402 -4.030996372386607e-7 35.96775715635651 57.74978923991891 46.58361990917202 3.6433444232441428 -46.7323770434122 -71.62856535466379 -52.627347071116354 -32.286123511693084 -44.65006412231292 -30.50337989311843 -1.240563378554102e-6 27.62042941685844 37.053719660330714 25.84156887146708 3.6433497761132814 -16.092721724090858 -24.849724766561398 -22.12786263529535 -12.32679647428297 -26.49155604854785 -27.008614911273376 1.3972589626024197e-6 30.503379652609404 35.74900277981544 8.234918029335642 -30.32995497509023 -46.73236925725712 -24.849718348152447 19.44486937978425 50.468695004551314 42.16353885441041 -10.189663740136671 5.2087458614287325e-6 27.008621366678984 44.6500669152247 27.871024628463314 -20.753184767043038 -67.27854527328967 -71.62855901475544 -22.127853705613582 50.46869974361778 93.46318534823995 72.63528142031494 3.4659461376383284e-6 10.189672545917805 26.491562085834875 32.286126427264946 13.850805543570887 -23.463611227094123 -54.54575383136759 -52.62734387301723 -12.32679025957291 42.1635432326118 72.63528232990454 55.33404756254421
</DataArray>
        <DataArray type="Float64" Name="Mode_15_w" NumberOfComponents="1" format="ascii">
 -1.0218668685304918e-11 -0.0032327736748005826 8.228313610492527e-12 0.0032327736484931598 0.0002587788978566213 -8.058206034120304e-5 0.0018433571306082446 0.0012468934936364917 0.0013531969649615663 -0.0016555866742520194 -0.002374671097619854 -0.0033516876227732196 -0.00023203844519393034 0.001763091121978771 0.0041304878250998985 0.0034608496542600357 0.003460849725412409 0.004130487687723494 0.0017630906936304744 -0.00023203854578311047 -0.0033516874554798365 -0.00237467133917888 -0.0016555865171311067 0.0013531966036024758 0.0012468933527378316 0.0018433571967645054 -8.058181093463005e-5 0.0002587789518843532 -0.00025877894543813586 8.058214805799084e-5 -0.001843357137361228 -0.0012468935714162006 -0.0013531966715904225 0.0016555870108006885 0.0023746713436816084 0.0033516874468660232 0.0002320382707954465 -0.001763091114036429 -0.004130487517803038 -0.003460849802815347 -0.0034608498377585984 -0.004130487750616851 -0.0017630907701109981 0.0002320385454477407 0.003351687589842751 0.0023746717397690764 0.001655586848151228 -0.001353196435954026 -0.0012468934579197837 -0.0018433570130341542 8.058184984905848e-5 -0.0002587787798899544 -7.707962614111039e-7 -10.189670127110036 -26.491561215749833 -32.286126362868735 -13.850805885856435 23.4636111027045 54.545755032565495 52.627346959883454 12.32679370230646 -42.16354209661037 -72.63528338292484 -55.33404832469571 10.189667285143905 -2.35704176867265e-6 -27.008620971104325 -44.650067971935286 -27.871026426439197 20.753183234044336 67.27854626778219 71.62856391436814 22.127859582783117 -50.46869785983919 -93.46318756162718 -72.63528378731964 26.491559445728715 27.008618261765424 -7.027540663078724e-7 -30.50338187783367 -35.7490065202875 -8.234920607800428 30.32995613097326 46.73237469179217 24.84972451930096 -19.444867828807148 -50.46869910943075 -42.16354364856216 32.286128108665785 44.65006999467152 30.50338247660528 -7.326871035239738e-7 -27.620433112579594 -37.05372125594864 -25.841566662985826 -3.643344915107078 16.092726318148003 24.849725374607846 22.12785824771024 12.326791408853927 13.850810597643468 27.871031279865328 35.74900712870036 27.62042965709277 -2.3526861982662077e-6 -35.96775805105106 -57.74978761286058 -46.58361702453979 -3.6433421778152812 46.73237752286484 71.6285636819832 52.62734481461318 -23.463605939962914 -20.753179340457212 8.234918553180663 37.0537154194287 35.96775365042383 -4.06997986354103e-7 -43.819878609456374 -57.74978603903392 -25.841563918513785 30.329958341742497 67.2785458424411 54.545752979921716 -54.545751556737 -67.2785456175463 -30.32996167938355 25.841558764604926 57.74978356634729 43.81987962799954 8.270186574661539e-7 -35.96775707748459 -37.053720808030654 -8.234921078359685 20.753181281493095 23.463608985767554 -52.627344929985476 -71.62856475320349 -46.7323806226563 3.643337526648354 46.58361332599184 57.74978589032832 35.96775616205381 -1.450770321615333e-6 -27.620433483779742 -35.749007862380935 -27.871028412308185 -13.850807368925798 -12.326791035858268 -22.127857952071324 -24.84972660721984 -16.09273031774837 3.643339553546469 25.84156266989543 37.05371883140989 27.62043101693765 -3.315619417946977e-7 -30.50338125091953 -44.650067316266096 -32.28612604192062 42.16354531546399 50.468701607112976 19.444868769913572 -24.84972697788284 -46.73237861941688 -30.329958106337763 8.23492094779595 35.74900755579012 30.503382810131978 1.334190321972188e-6 -27.008617897434906 -26.49155929575466 72.63528508210622 93.46318972066923 50.468699077704535 -22.127860443372953 -71.62856449658835 -67.27854404160442 -20.75317933800767 27.87102979495466 44.6500692958825 27.008619908813937 4.993693202183033e-7 -10.189668363122554 55.33404854222879 72.63528387701716 42.163542385380055 -12.326793739140323 -52.627345792419725 -54.54575160204503 -23.463607143931746 13.85080855919764 32.28612725338336 26.491560351301334 10.189668760543078 0.0
</DataArray>
        <DataArray type="Float64" Name="Mode_16_w" NumberOfComponents="1" format="ascii">
 -0.0015586763094089069 -0.0015586766264497635 -0.0015586763949765436 -0.0015586766853998694 0.0017926748063881127 0.001656752118830757 0.0014230849206544746 0.0013992709193524366 0.002300290471497084 0.0032964702345184525 0.003296470493842872 0.0023002908201775044 0.001399271500371813 0.0014230852227721843 0.0016567521202142822 0.0017926745080839171 0.0017926749687279461 0.0016567516269574627 0.001423084164033881 0.0013992693684900638 0.0023002894539972552 0.0032964701496023467 0.0032964704761002206 0.0023002890553967988 0.0013992693578768428 0.001423083665750992 0.0016567520160931013 0.0017926748160585146 0.0017926745828960931 0.001656752208352248 0.0014230852505286535 0.001399271202821018 0.002300290652304833 0.003296470587952784 0.0032964703351770434 0.0023002904950365634 0.001399270513507067 0.0014230848743781866 0.0016567521413818618 0.0017926751170845158 0.0017926749769019313 0.0016567520626187048 0.0014230838423837744 0.0013992690768294778 0.0023002892726528396 0.0032964697467120388 0.0032964703115793484 0.002300290055181254 0.0013992697508161207 0.0014230835548473275 0.0016567514392408316 0.0017926744180684691 22.71025046182016 30.097402377892536 25.80886037294227 26.977866868457347 41.43975232041407 57.076077113634256 57.076073487847225 41.4397440076531 26.977859809284176 25.8088594280951 30.09740659839318 22.710254316759357 30.097410299695774 31.266992480991856 11.348660319016608 4.277204814463571 25.807192165279556 52.792282672601104 52.792280373853245 25.80718644147309 4.277198978549964 11.348658574792092 31.26699523552541 30.09741333044552 25.80887812478231 11.348676604456662 -31.26629636781628 -52.79390583078519 -30.09125430430188 4.282734979096603 4.2827366740470545 -30.091251227970897 -52.793904926731 -31.26629804453881 11.348674931515857 25.80887751914636 26.977886037861424 4.27722683104242 -52.79389621704704 -82.88231409920108 -57.07133890686795 -15.629755796350887 -15.629752057241731 -57.07133160271228 -82.88231067172099 -52.79389884045535 4.277222755055252 26.977884128716354 41.43976433587921 25.807204114217907 -30.091254246926827 -57.0713475954958 -22.699340600943824 26.982078363049464 26.982082019501828 -22.699334544417773 -57.07134709077913 -30.091259402089097 25.807199661639213 41.439763228146745 57.076083389480985 52.79228214297116 4.282716818648507 -15.62978450193655 26.982059597841776 82.87960269456744 82.87960612546247 26.982065321554806 -15.629783717936954 4.282712986754013 52.792279591453685 57.07608352262344 57.07608403690016 52.79228060640954 4.2827120653116975 -15.629789066502457 26.98205819681008 82.87960315796006 82.8796062976256 26.982065145362988 -15.629782786251669 4.282716107519372 52.79228376783405 57.07608640144128 41.439766324000686 25.80720077710869 -30.091264632048482 -57.071356786951654 -22.699342405631317 26.982080391451 26.982082148930008 -22.699336823568117 -57.07134741191879 -30.091253562581368 25.807209550256594 41.439770466626946 26.977888953948415 4.277224296660199 -52.793905579561354 -82.88232156714032 -57.071338370092484 -15.629751338282908 -15.62975182762579 -57.071337573490965 -82.88231565239865 -52.79389524701604 4.277233202544754 26.97789277539339 25.808881514220417 11.348677301024527 -31.2663013266758 -52.79391117879616 -30.09125372054768 4.282739943517392 4.2827375050383685 -30.091258003737767 -52.7939117854995 -31.266297093103592 11.348682212567901 25.808883982348977 30.09741396270355 31.266996843054528 11.348659954825044 4.277199735635903 25.807189041781253 52.79228435497823 52.792281377526805 25.8071825185751 4.277194524360747 11.348658425841942 31.266997995356224 30.097415488623334 22.710253253292592 30.097406908274703 25.808862066965546 26.97786313024477 41.43974752330291 57.0760759436695 57.07607403838881 41.439742968549965 26.977858193115765 25.808858892494495 30.097406357912046 22.710253978256834
</DataArray>
        <DataArray type="Float64" Name="Mode_17_w" NumberOfComponents="1" format="ascii">
 3.8434993818978457e-10 6.102265968410877e-10 8.731672394652556e-11 3.4765806453133506e-10 -0.00010436763081108159 0.0007123577085056414 0.0021340486989608574 0.0029794094156310753 0.0026794429507368306 0.0019907813578294454 0.0019907818838121034 0.002679443517009757 0.002979409670504526 0.0021340487367077854 0.0007123577066460699 -0.00010436757360098515 0.00010436664932751084 -0.0007123586810393716 -0.0021340493987151853 -0.0029794099690921075 -0.0026794439013127225 -0.001990782549692026 -0.001990782829757906 -0.0026794445767239035 -0.0029794105877710545 -0.002134049487536737 -0.0007123580971445966 0.00010436707018158396 -0.00010436692762040356 0.000712358357398334 0.0021340490783177874 0.002979409664396455 0.0026794434147046717 0.0019907819225790636 0.0019907816489414397 0.0026794429372148836 0.002979409068293519 0.0021340482852189122 0.0007123574151168107 -0.00010436742105663038 0.00010436648743229269 -0.0007123586274573035 -0.0021340490100011543 -0.002979409601511415 -0.0026794438863718176 -0.00199078306995073 -0.001990783238274703 -0.0026794440531052698 -0.002979410286419887 -0.002134049398883789 -0.0007123587522006057 0.00010436678917161079 -6.458252837568243e-6 -13.991758524012196 -37.09659493239849 -51.0888650389658 -47.25211938762914 -37.087385457428 -37.08738295877208 -47.25211252958168 -51.08885623643542 -37.09658803070037 -13.991755495021565 -5.722199721810446e-6 13.99174085357664 -9.274726436057644e-6 -33.26245442408375 -51.085912672514574 -37.091140496338376 -13.986449050114082 -13.986446458726844 -37.09113346732093 -51.08590432172322 -33.262449087670745 -8.433000869277173e-6 13.991739616935545 37.09657971801744 33.26244752386869 8.92946070885985e-6 -13.991965964348436 13.991573128941745 51.08494817421721 51.084948607380284 13.991574127019899 -13.99196537947802 7.380001178217376e-6 33.262442910245895 37.09657507202137 51.0888496726235 51.08590989111848 13.99199632346331 2.4342445762211138e-5 37.091398764861694 84.3419280521177 84.34192636117373 37.091394509855576 1.9558857398622855e-5 13.991991777469362 51.08590497998342 51.088845697512276 47.25209673903406 37.09112574493642 -13.99155676132938 -37.091365271015526 8.253296213691456e-6 51.08181500751564 51.081813326604625 4.56511764190094e-6 -37.091368229712124 -13.991557053813802 37.091127028833334 47.252097468860974 37.08735689724649 13.986421092281809 -51.084953479059706 -84.34192229903313 -51.08182689126641 -1.8421436213781027e-5 -1.8554849100766493e-5 -51.08182646288216 -84.34191957252715 -51.08494804651129 13.986427104359947 37.08736059906897 37.08735974086943 13.986422932857444 -51.084955737800776 -84.34192666782735 -51.081829398282956 -1.7959813273408265e-5 -1.721598333016206e-5 -51.08182649069561 -84.34192092479765 -51.0849492873311 13.986427466040924 37.08736209865569 47.25210312608876 37.09112940069745 -13.991562315647233 -37.09137556468812 2.4551484287678006e-6 51.08181656985329 51.08181704337281 4.385947991310109e-6 -37.09137195074684 -13.991559230065494 37.091130132920156 47.252102700913554 51.08885513292693 51.08591245244825 13.991989960667896 1.383676531469437e-5 37.091393584290984 84.34193087903351 84.34193034879607 37.09139267773992 1.3752308147220392e-5 13.991990750109144 51.08591307977125 51.08885532236581 37.09658245067711 33.26244827076248 4.388342580572887e-6 -13.99197190343691 13.991572505289813 51.08495241181728 51.08495002981307 13.991567759109383 -13.99197443114498 6.351357202926061e-6 33.26245355762717 37.096587097526175 13.991741792909659 -9.07397527211103e-6 -33.2624556790872 -51.08591251170036 -37.091135931900226 -13.986443232013652 -13.986447408286942 -37.09114408750421 -51.08591692730454 -33.26245238661989 1.0860363569342618e-7 13.991749946138409 -6.373418252816978e-6 -13.991758156018921 -37.09659414208946 -51.08886255065411 -47.25211419486444 -37.08738050259099 -37.08738397551081 -47.252121256227355 -51.088866678306005 -37.09659184682669 -13.991751063020162 0.0
</DataArray>
        <DataArray type="Float64" Name="Mode_18_w" NumberOfComponents="1" format="ascii">
 0.002779916936830965 3.182356623698384e-10 -0.0027799171291664686 1.0630504794175237e-10 -0.003501805914436418 -0.003887613745350174 -0.0019340040234520123 -0.001646560633988077 -0.0012273977782570294 -0.002548828139593812 -0.00021596048137554138 0.0020287636819636256 0.004994176270417679 0.0034455909530290113 0.0018543228580542137 -0.0003793517904685387 0.00037935106752948785 -0.0018543235757548034 -0.0034455904148959927 -0.004994176213425899 -0.002028762598894071 0.0002159608372961518 0.00254882799066038 0.0012273964660489396 0.0016465602296174841 0.0019340036507100127 0.003887614465347187 0.003501806375151043 0.0035018065144387404 0.00388761550605148 0.00193400606086058 0.0016465622864193271 0.0012273957496225923 0.002548824240360973 0.00021595730749816896 -0.0020287641505961867 -0.004994174094900362 -0.003445588526793058 -0.0018543225568201378 0.0003793508445992635 -0.00037935145930816317 0.0018543216851165524 0.0034455878258401757 0.00499417418314552 0.0020287642435262254 -0.00021595736585910087 -0.0025488243326136006 -0.0012273965407071281 -0.001646561888398114 -0.0019340058095145345 -0.0038876145754585404 -0.003501806100851091 -45.51621118317577 -55.91524370471877 -36.41729578989285 -20.674121586781716 -25.92711693778009 -31.482877167590917 -8.57957233370169 37.57599324120464 68.99790131603126 59.04212757624457 23.636661126381885 -4.673735588285432e-6 -55.91523305584027 -56.41276698854888 -14.077283839285167 10.434143866652537 -12.337620083387852 -43.12970156319082 -26.888685429886923 32.6963132130486 74.02386522796243 53.61826503511781 -4.316715725402533e-6 -23.63667156296078 -36.41727373326921 -14.077262579336494 47.449319343209325 72.95904596046047 27.997683953035292 -36.31867186626327 -47.702040601356224 -3.567188159003066 28.38804650742435 5.506084289115963e-6 -53.61826380497477 -59.042131967414754 -20.674108367626175 10.4341653330339 72.95906364747738 95.20227443764753 45.18410308945137 -27.305017173845396 -51.62066551524597 -22.235371593983302 4.413024055115054e-6 -28.38803367555998 -74.023857191587 -68.99789920747014 -25.927135200021976 -12.337629262026287 27.997699577948875 45.184125013983724 16.25217607024026 -25.016146063005937 -30.877302648142734 -2.8071799125199893e-6 22.235371738462803 3.567194050771397 -32.696306729853234 -37.57598945591006 -31.48292347757212 -43.12974328342585 -36.31866895792545 -27.304983391339324 -25.016122289087033 -20.158150588845743 -1.6536961560212018e-6 30.877298572633233 51.62066259601797 47.702039152949595 26.888685028467048 8.579572387180034 -8.579615467304945 -26.888726204022937 -47.702041205944546 -51.62063612137054 -30.87728103751866 -2.3489295409285227e-6 20.15815111599212 25.016150236020685 27.305018936209365 36.318668381969644 43.12969567829182 31.482873048953373 37.575982774229274 32.696306492326976 -3.5671808667752605 -22.235359376844663 -5.824435984353401e-6 30.877275625962696 25.01612777929099 -16.252164843298747 -45.184095841557884 -27.99768488938616 12.3376146179237 25.927112733002527 68.99792335742329 74.02388915770281 28.388054656473525 -5.2133677579887566e-6 22.23535023217644 51.62063436672299 27.30499005694448 -45.184115604464495 -95.20226832591838 -72.95904369834476 -10.434143562895093 20.674121402048236 59.042156040834946 53.6182871584362 -3.096483296213434e-6 -28.38805939018294 3.5671801875591824 47.702043638000156 36.318670661622356 -27.997701554284443 -72.95906641567481 -47.44931691939669 14.07729112323783 36.41730183017523 23.636674344462854 -5.171278810887492e-6 -53.618291504866576 -74.02388558823081 -32.696298441706894 26.88873117047281 43.12973830031962 12.337615319910268 -10.434177678075718 14.077262298024374 56.41277744956482 55.915253746519966 -4.371345846398737e-6 -23.636683304068676 -59.04215766991184 -68.99791708368929 -37.5759736401421 8.579619739525834 31.482917310267773 25.92712123345678 20.674096413384454 36.417271997648584 55.91524040286627 45.51621870900505
</DataArray>
        <DataArray type="Float64" Name="Mode_19_w" NumberOfComponents="1" format="ascii">
 -1.6432406436732726e-10 -0.002779916462096883 1.1852011182946116e-10 0.002779917604600139 0.00037935139560648046 -0.001854322286054672 -0.00344558945141147 -0.004994175269576332 -0.0020287641841107433 0.00021595885689953937 0.00254882670055835 0.0012273970743853391 0.001646561047882463 0.0019340045471610413 0.0038876137126786056 0.0035018055877260174 0.003501805388581454 0.003887613733213779 0.00193400531549286 0.0016465621337274294 0.0012273973423253888 0.0025488257885373537 0.0002159589275567625 -0.002028764097466804 -0.004994175742870746 -0.0034455895729440934 -0.0018543223370363917 0.00037935130046892426 -0.000379351136207448 0.00185432238936451 0.0034455891245933953 0.004994175097040082 0.002028763057031109 -0.000215959133435525 -0.0025488261199173136 -0.001227396250913951 -0.001646560944837985 -0.0019340051904170065 -0.0038876155834862386 -0.0035018070614986187 -0.0035018071881778652 -0.0038876155918516377 -0.0019340052238840633 -0.0016465606577342167 -0.0012273959903712553 -0.002548826066848249 -0.00021595919860620735 0.002028763197292349 0.004994174650707679 0.0034455892490807953 0.0018543230943583243 -0.0003793509580724903 4.475884102766996e-6 23.636677196399216 59.04214294307875 68.99790394161157 37.57597686044608 -8.579599218067601 -31.482895266092886 -25.92711396613528 -20.67410679514719 -36.41728992312942 -55.915254320688234 -45.516224827059794 -23.636668004480015 4.882444067679879e-6 53.61827660790491 74.023867372602 32.6962966413557 -26.888712545961685 -43.1297166296002 -12.337610325362485 10.434164982592579 -14.077277422040751 -56.41278373868493 -55.91525369056366 -59.04214243179648 -53.61827586294813 6.53148545658267e-8 28.38804705396117 -3.5671888298738548 -47.70204346032516 -36.31866851437464 27.997697782175702 72.9590612834986 47.449321611575854 -14.077277005613062 -36.417289945998185 -68.9979137363321 -74.02387801269859 -28.388048140137375 5.638351418301807e-6 -22.235356422129176 -51.620646650899936 -27.30500410008602 45.18410737561391 95.20227317284737 72.95906129869041 10.43416383499752 -20.674108979309096 -37.575990569936984 -32.696312477504144 3.5671855607685443 22.235371649513567 1.1924486975840904e-5 -30.877283660936335 -25.016140943966416 16.2521619596096 45.18410598526543 27.997695741407025 -12.33761321997229 -25.92711652488106 8.579591431822555 26.88870189965407 47.70203893960586 51.620653934591495 30.877297657318945 3.9864964582142895e-6 -20.15815503646801 -25.016144275733456 -27.305007203657965 -36.31867045775958 -43.12971799965822 -31.48289620724993 31.482899178165955 43.129719041686364 36.31866673989427 27.30499940776616 25.01613478508665 20.15814907504593 -1.7741482694096306e-6 -30.877289798443048 -51.62064841512312 -47.70204082017883 -26.888709720121472 -8.579598674092395 25.927124964624266 12.337622782878674 -27.9976938836719 -45.18411676672387 -16.252180804190974 25.016128604937848 30.877289708110027 7.842262321147875e-6 -22.235354215164094 -3.567182412801561 32.69630188885597 37.575978436947466 20.674111918686826 -10.434156066850745 -72.95905341125729 -95.20227453943322 -45.184119274757215 27.304993197958815 51.62064919574934 22.235372486354976 1.1286083901391894e-5 28.388052929660677 74.02386988676022 68.99790388644882 36.41727893314642 14.077270037931346 -47.44931521286142 -72.95904834677259 -27.997690549286116 36.31866591438547 47.702037273407214 3.567187493140941 -28.38804297407621 2.438679491512695e-6 53.61827308797122 59.04213827834906 55.91523066232026 56.41276165097444 14.077278317333118 -10.434142907616605 12.337632134913138 43.12972124007592 26.888700620931782 -32.69631295518662 -74.02387717845302 -53.618277702154984 -1.8855698429939102e-6 23.636670321497686 45.51620515774012 55.91523395881788 36.41728870328219 20.674124431364586 25.927132360940544 31.48290014979703 8.579590414472731 -37.57599177318752 -68.99791572010375 -59.04214558187374 -23.636672812876988 0.0
</DataArray>
        <DataArray type="Float64" Name="Mode_20_w" NumberOfComponents="1" format="ascii">
 -0.00279680710672739 0.002796806781771564 -0.0027968068020940637 0.002796806379177026 0.003808051839295671 0.004545985838634934 0.000401066827753663 -0.002305933152943923 -0.004902521930711232 -0.0014602618999172699 0.0014602649609759216 0.00490252178012524 0.002305930962997535 -0.000401069370533602 -0.004545986076473589 -0.003808051517359827 -0.0038080513662771803 -0.00454598486386098 -0.00040106631489364425 0.002305933646194213 0.004902522118982572 0.0014602619014694553 -0.0014602650549673424 -0.004902522530829342 -0.0023059310809165944 0.0004010692953931551 0.004545986072844016 0.003808051290390296 0.0038080514486053684 0.004545984761301536 0.00040106617692161326 -0.002305934433287414 -0.00490252289313788 -0.0014602623440138677 0.0014602653984561115 0.004902522967692931 0.002305932233115618 -0.00040106817959237816 -0.004545985541785475 -0.0038080509791363977 -0.0038080510813790565 -0.0045459845734672445 -0.00040106631420076566 0.002305933796088875 0.004902522537172404 0.001460262607130439 -0.0014602651818377945 -0.0049025234904937764 -0.0023059323651837744 0.00040106880627726953 0.004545986593038169 0.0038080520649918545 50.66521459446901 56.98663995817501 14.160540002081829 -40.815954100615215 -60.72213885134517 -28.361415518431237 28.361385190399997 60.72212994800783 40.81597190870259 -14.16050953220978 -56.98661518523056 -50.665202730161425 56.98662966956453 64.00279341587684 15.944033276782617 -45.88925885074596 -68.2048072935231 -31.894541886614963 31.894518076379892 68.20480286477522 45.88927640275992 -15.944009261165474 -64.00277904666713 -56.9866259621399 14.16052059745368 15.944014889497499 3.950489425244499 -11.391558482087204 -16.981675632612266 -7.9154726985604205 7.9154827114642625 16.98168182949815 11.391557182742668 -3.950500231465744 -15.944031418993285 -14.160533102145536 -40.815963434187026 -45.88927581362363 -11.391574194751271 32.86159870507007 48.89701642810977 22.828524262776305 -22.82849432425833 -48.89701040898796 -32.86162070401213 11.391541540264848 45.889252099939476 40.81595364971522 -60.72212052193455 -68.20479807911792 -16.98169106400039 48.8969951251365 72.66915256972335 33.98160844339814 -33.98159093051957 -72.66916075469165 -48.89702411936493 16.981671785139582 68.20480629294666 60.722138472211626 -28.36137629791753 -31.89450741109229 -7.915477008761463 22.828493848253462 33.98158751276801 15.858574343694398 -15.85857734288256 -33.981606726400265 -22.828515556642273 7.91548445687021 31.89455082218588 28.361419387041316 28.361415557658926 31.89454816870136 7.915485283005142 -22.82851385454011 -33.98160692691225 -15.858578728604645 15.858576075118402 33.98159562810252 22.82850411241169 -7.9154732440859386 -31.89451260694192 -28.3613833587658 60.72212581146674 68.20479914228497 16.981681592166115 -48.89700700349646 -72.66915281259999 -33.98159449231132 33.98160582632799 72.66916096306902 48.897008443373565 -16.98168909262961 -68.20481278327256 -60.722137060088265 40.81593549657212 45.889241177525236 11.391555701293877 -32.86159502730593 -48.89699977419046 -22.828504389112616 22.82851246439776 48.89702007408158 32.8616114909564 -11.391573295126173 -45.88929407168144 -40.81598331829885 -14.160551179976029 -15.94404426131556 -3.950489846207653 11.391579662102837 16.981689640768302 7.915468062441909 -7.915488880012005 -16.981672310754583 -11.391542354756739 3.9504952127872976 15.944001844907989 14.160504218838367 -56.9866386752052 -64.00278946667704 -15.944005269240902 45.88928842771811 68.20480486948536 31.894504956918546 -31.894552623001317 -68.20479862769743 -45.88923837659845 15.944044434899576 64.00278763060284 56.98661898434553 -50.66520878706426 -56.98662060108421 -14.160509111801536 40.815975386736355 60.722128393091204 28.361377709924525 -28.361418451528596 -60.72212940367826 -40.81593830757316 14.160549200907184 56.98663783360315 50.665208759101354
</DataArray>
      </PointData>
    </Piece>
  </UnstructuredGrid>
</VTKFile>
