<?xml version="1.0" encoding="utf-8"?>
<VTKFile type="UnstructuredGrid" version="1.0" byte_order="LittleEndian" header_type="UInt64">
  <UnstructuredGrid>
    <Piece NumberOfPoints="144" NumberOfCells="121">
      <Points>
        <DataArray type="Float64" Name="Points" NumberOfComponents="3" format="ascii">
 0.0 0.0 0.0 1.0 0.0 0.0 1.0 1.0 0.0 0.0 1.0 0.0 0.09090909090891895 0.0 0.0 0.1818181818177918 0.0 0.0 0.2727272727266173 0.0 0.0 0.3636363636354429 0.0 0.0 0.4545454545442684 0.0 0.0 0.5454545454533466 0.0 0.0 0.6363636363626773 0.0 0.0 0.727272727272008 0.0 0.0 0.8181818181813386 0.0 0.0 0.9090909090906694 0.0 0.0 1.0 0.09090909090891895 0.0 1.0 0.1818181818177918 0.0 1.0 0.2727272727266173 0.0 1.0 0.3636363636354429 0.0 1.0 0.4545454545442684 0.0 1.0 0.5454545454533466 0.0 1.0 0.6363636363626773 0.0 1.0 0.727272727272008 0.0 1.0 0.8181818181813386 0.0 1.0 0.9090909090906694 0.0 0.9090909090905306 1.0 0.0 0.818181818181692 1.0 0.0 0.7272727272732319 1.0 0.0 0.6363636363647716 1.0 0.0 0.5454545454563112 1.0 0.0 0.4545454545473464 1.0 0.0 0.3636363636378772 1.0 0.0 0.2727272727284078 1.0 0.0 0.1818181818189385 1.0 0.0 0.09090909090946919 1.0 0.0 0.0 0.9090909090905306 0.0 0.0 0.818181818181692 0.0 0.0 0.7272727272732319 0.0 0.0 0.6363636363647716 0.0 0.0 0.5454545454563112 0.0 0.0 0.4545454545473464 0.0 0.0 0.3636363636378772 0.0 0.0 0.2727272727284078 0.0 0.0 0.1818181818189385 0.0 0.0 0.09090909090946919 0.0 0.09090909090896898 0.09090909090941918 0.0 0.090909090909019 0.1818181818188343 0.0 0.09090909090906904 0.272727272728245 0.0 0.09090909090911906 0.3636363636376559 0.0 0.09090909090916907 0.4545454545470666 0.0 0.09090909090921906 0.5454545454560418 0.0 0.0909090909092691 0.6363636363645812 0.0 0.09090909090931915 0.7272727272731205 0.0 0.09090909090936916 0.8181818181816598 0.0 0.09090909090941918 0.9090909090905432 0.0 0.181818181817896 0.09090909090936916 0.0 0.1818181818180003 0.18181818181873 0.0 0.1818181818181045 0.2727272727280822 0.0 0.1818181818182088 0.3636363636374346 0.0 0.181818181818313 0.4545454545467867 0.0 0.1818181818184173 0.5454545454557722 0.0 0.1818181818185215 0.6363636363643909 0.0 0.1818181818186258 0.7272727272730095 0.0 0.18181818181873 0.8181818181816278 0.0 0.1818181818188343 0.9090909090905559 0.0 0.2727272727267802 0.09090909090931915 0.0 0.2727272727269429 0.1818181818186257 0.0 0.2727272727271057 0.2727272727279195 0.0 0.2727272727272684 0.3636363636372133 0.0 0.2727272727274312 0.454545454546507 0.0 0.272727272727594 0.5454545454555026 0.0 0.2727272727277567 0.6363636363642002 0.0 0.2727272727279195 0.7272727272728979 0.0 0.2727272727280822 0.8181818181815956 0.0 0.272727272728245 0.9090909090905686 0.0 0.3636363636356642 0.0909090909092691 0.0 0.3636363636358855 0.1818181818185215 0.0 0.3636363636361069 0.2727272727277567 0.0 0.3636363636363281 0.363636363636992 0.0 0.3636363636365495 0.4545454545462272 0.0 0.3636363636367708 0.5454545454552331 0.0 0.363636363636992 0.63636363636401 0.0 0.3636363636372133 0.7272727272727868 0.0 0.3636363636374346 0.8181818181815634 0.0 0.3636363636376559 0.909090909090581 0.0 0.4545454545445483 0.09090909090921909 0.0 0.4545454545448281 0.1818181818184173 0.0 0.4545454545451079 0.272727272727594 0.0 0.4545454545453876 0.3636363636367707 0.0 0.4545454545456675 0.4545454545459473 0.0 0.4545454545459473 0.5454545454549635 0.0 0.4545454545462271 0.6363636363638198 0.0 0.454545454546507 0.7272727272726756 0.0 0.4545454545467867 0.8181818181815315 0.0 0.4545454545470666 0.9090909090905936 0.0 0.5454545454536162 0.09090909090916907 0.0 0.5454545454538857 0.181818181818313 0.0 0.5454545454541551 0.2727272727274312 0.0 0.5454545454544246 0.3636363636365494 0.0 0.5454545454546942 0.4545454545456675 0.0 0.5454545454549635 0.5454545454546942 0.0 0.5454545454552331 0.6363636363636292 0.0 0.5454545454555026 0.7272727272725643 0.0 0.5454545454557722 0.8181818181814993 0.0 0.5454545454560418 0.9090909090906063 0.0 0.6363636363628676 0.09090909090911903 0.0 0.6363636363630581 0.1818181818182088 0.0 0.6363636363632483 0.2727272727272684 0.0 0.6363636363634387 0.3636363636363281 0.0 0.6363636363636292 0.4545454545453878 0.0 0.6363636363638195 0.5454545454544246 0.0 0.63636363636401 0.6363636363634387 0.0 0.6363636363642003 0.7272727272724531 0.0 0.6363636363643909 0.8181818181814671 0.0 0.6363636363645814 0.909090909090619 0.0 0.7272727272721191 0.09090909090906901 0.0 0.7272727272722306 0.1818181818181045 0.0 0.7272727272723415 0.2727272727271057 0.0 0.7272727272724528 0.3636363636361067 0.0 0.7272727272725643 0.4545454545451079 0.0 0.7272727272726756 0.5454545454541551 0.0 0.7272727272727868 0.6363636363632487 0.0 0.727272727272898 0.7272727272723418 0.0 0.7272727272730095 0.8181818181814351 0.0 0.7272727272731205 0.9090909090906316 0.0 0.8181818181813709 0.090909090909019 0.0 0.8181818181814027 0.1818181818180003 0.0 0.8181818181814349 0.2727272727269429 0.0 0.8181818181814671 0.3636363636358855 0.0 0.818181818181499 0.454545454544828 0.0 0.8181818181815315 0.5454545454538857 0.0 0.8181818181815634 0.6363636363630581 0.0 0.8181818181815954 0.7272727272722306 0.0 0.8181818181816278 0.8181818181814029 0.0 0.8181818181816598 0.909090909090644 0.0 0.9090909090906567 0.09090909090896898 0.0 0.909090909090644 0.181818181817896 0.0 0.9090909090906316 0.2727272727267802 0.0 0.909090909090619 0.3636363636356642 0.0 0.9090909090906063 0.4545454545445482 0.0 0.9090909090905939 0.5454545454536162 0.0 0.9090909090905812 0.6363636363628676 0.0 0.9090909090905683 0.7272727272721191 0.0 0.9090909090905559 0.8181818181813707 0.0 0.9090909090905432 0.9090909090906569 0.0
</DataArray>
      </Points>
      <Cells>
        <DataArray type="Int64" Name="connectivity" NumberOfComponents="1" format="ascii">
 0 4 44 43 43 44 45 42 42 45 46 41 41 46 47 40 40 47 48 39 39 48 49 38 38 49 50 37 37 50 51 36 36 51 52 35 35 52 53 34 34 53 33 3 4 5 54 44 44 54 55 45 45 55 56 46 46 56 57 47 47 57 58 48 48 58 59 49 49 59 60 50 50 60 61 51 51 61 62 52 52 62 63 53 53 63 32 33 5 6 64 54 54 64 65 55 55 65 66 56 56 66 67 57 57 67 68 58 58 68 69 59 59 69 70 60 60 70 71 61 61 71 72 62 62 72 73 63 63 73 31 32 6 7 74 64 64 74 75 65 65 75 76 66 66 76 77 67 67 77 78 68 68 78 79 69 69 79 80 70 70 80 81 71 71 81 82 72 72 82 83 73 73 83 30 31 7 8 84 74 74 84 85 75 75 85 86 76 76 86 87 77 77 87 88 78 78 88 89 79 79 89 90 80 80 90 91 81 81 91 92 82 82 92 93 83 83 93 29 30 8 9 94 84 84 94 95 85 85 95 96 86 86 96 97 87 87 97 98 88 88 98 99 89 89 99 100 90 90 100 101 91 91 101 102 92 92 102 103 93 93 103 28 29 9 10 104 94 94 104 105 95 95 105 106 96 96 106 107 97 97 107 108 98 98 108 109 99 99 109 110 100 100 110 111 101 101 111 112 102 102 112 113 103 103 113 27 28 10 11 114 104 104 114 115 105 105 115 116 106 106 116 117 107 107 117 118 108 108 118 119 109 109 119 120 110 110 120 121 111 111 121 122 112 112 122 123 113 113 123 26 27 11 12 124 114 114 124 125 115 115 125 126 116 116 126 127 117 117 127 128 118 118 128 129 119 119 129 130 120 120 130 131 121 121 131 132 122 122 132 133 123 123 133 25 26 12 13 134 124 124 134 135 125 125 135 136 126 126 136 137 127 127 137 138 128 128 138 139 129 129 139 140 130 130 140 141 131 131 141 142 132 132 142 143 133 133 143 24 25 13 1 14 134 134 14 15 135 135 15 16 136 136 16 17 137 137 17 18 138 138 18 19 139 139 19 20 140 140 20 21 141 141 21 22 142 142 22 23 143 143 23 2 24
</DataArray>
        <DataArray type="Int64" Name="offsets" NumberOfComponents="1" format="ascii">
 4 8 12 16 20 24 28 32 36 40 44 48 52 56 60 64 68 72 76 80 84 88 92 96 100 104 108 112 116 120 124 128 132 136 140 144 148 152 156 160 164 168 172 176 180 184 188 192 196 200 204 208 212 216 220 224 228 232 236 240 244 248 252 256 260 264 268 272 276 280 284 288 292 296 300 304 308 312 316 320 324 328 332 336 340 344 348 352 356 360 364 368 372 376 380 384 388 392 396 400 404 408 412 416 420 424 428 432 436 440 444 448 452 456 460 464 468 472 476 480 484
</DataArray>
        <DataArray type="UInt8" Name="types" NumberOfComponents="1" format="ascii">
 9 9 9 9 9 9 9 9 9 9 9 9 9 9 9 9 9 9 9 9 9 9 9 9 9 9 9 9 9 9 9 9 9 9 9 9 9 9 9 9 9 9 9 9 9 9 9 9 9 9 9 9 9 9 9 9 9 9 9 9 9 9 9 9 9 9 9 9 9 9 9 9 9 9 9 9 9 9 9 9 9 9 9 9 9 9 9 9 9 9 9 9 9 9 9 9 9 9 9 9 9 9 9 9 9 9 9 9 9 9 9 9 9 9 9 9 9 9 9 9 9
</DataArray>
      </Cells>
      <PointData>
        <DataArray type="Float64" Name="Mode_1_w" NumberOfComponents="1" format="ascii">
 -0.00016852982031384522 -0.00016852971883601588 -0.00016852940688881919 -0.0001685294584029796 6.0216225585305746e-5 1.745609391086179e-5 4.403285229354115e-5 4.858752100357277e-5 5.380463204015181e-5 5.380432071978502e-5 4.858772937933568e-5 4.4032694946483336e-5 1.7456599642844585e-5 6.0215784369692575e-5 6.0215740192250034e-5 1.7456100438506304e-5 4.403245594941208e-5 4.858768817801963e-5 5.380408800508988e-5 5.380407414097836e-5 4.858710941033419e-5 4.403237161815035e-5 1.7456230744788735e-5 6.021581807497279e-5 6.021573147276442e-5 1.7456276651706308e-5 4.403258936747423e-5 4.8587316630423934e-5 5.380422090598473e-5 5.380390511306168e-5 4.858746175503479e-5 4.403209269224388e-5 1.745620256943566e-5 6.021559737043756e-5 6.021555215358883e-5 1.7455977352709297e-5 4.4032274563607216e-5 4.858765756716927e-5 5.3803851401264384e-5 5.380431415983781e-5 4.8587228753366524e-5 4.403283561289883e-5 1.7456483662031656e-5 6.0215677136024313e-5 5.088926411638521 9.765461100300175 13.650800902237114 16.430246785723213 17.87862670161721 17.878618568165905 16.430226501100922 13.65077686393078 9.765440772984324 5.088915065298581 9.765461005756132 18.739560734353915 26.19541955520067 31.52907696556884 34.30847454063149 34.3084604885691 31.529040749982165 26.195375008179262 18.73952181392045 9.765438079592068 13.650802748258554 26.195421682961587 36.61773814611155 44.07349580242477 47.958731209054925 47.95871411612055 44.07345028554679 36.61767907513715 26.19536676377974 13.650769227771523 16.430254727963636 31.529087625526415 44.07350373142847 53.04733884084528 57.72365415780392 57.723635597050716 53.047288592389876 44.07343530071107 31.52902122600192 16.430213537434977 17.878646377693915 34.30850230638068 47.958755679447606 57.72366915702723 62.812221111763414 62.81220181155492 57.72361585652058 47.95868083609211 34.30842705310652 17.878598623117643 17.878650431963287 34.30850779130516 47.958759949253654 57.72367093598821 62.81222115407329 62.81220134783806 57.72361569171367 47.95868081348138 34.30842683968806 17.87859802104266 16.430262533233538 31.52909876268047 44.073511752704 53.047340696329094 57.723651503495304 57.723632173721626 53.04728601893655 44.073434381751426 31.529021259400448 16.43021334119421 13.650808666908357 26.195429130829414 36.61774189498357 44.073493288123316 47.95872417290837 47.958705990376785 44.07344370346365 36.61767540135553 26.19536635808243 13.650770006249342 9.765463485249809 18.739562181046228 26.19541749134772 31.529071899883853 34.308467136563884 34.308451606400084 31.52903215723998 26.195368746068258 18.739519249603838 9.765438503478329 5.088926376040862 9.765459807435823 13.650798062561911 16.4302434051018 17.878622993541917 17.878613539265547 16.430220355771418 13.65077160822418 9.765438322758143 5.088914658150035
</DataArray>
        <DataArray type="Float64" Name="Mode_2_w" NumberOfComponents="1" format="ascii">
 7.755432572325466e-11 0.0004099050970438237 5.106871879477681e-11 -0.0004099048102420909 -4.1550328008595546e-5 8.49458202880948e-5 -8.91347445614969e-5 8.707928522399959e-6 -0.00021096672422400072 -0.00012478265148969342 -0.0003147216401696288 -0.00017478942041209162 -0.00023877150914857365 -0.0001635123914910657 -0.00016351241568353782 -0.00023877128307730705 -0.0001747892850574339 -0.0003147219195789416 -0.00012478240907943367 -0.0002109668836863133 8.70890674425686e-6 -8.913464419692019e-5 8.494619290341944e-5 -4.155034216188063e-5 4.1549946967974045e-5 -8.494606476452768e-5 8.913422471231751e-5 -8.707945342838339e-6 0.00021096705590485808 0.00012478240776851653 0.0003147215082994574 0.0001747889894487956 0.00023877079121236198 0.00016351180294187702 0.00016351211598901363 0.00023877116601004066 0.0001747888539188238 0.00031472160788210545 0.00012478262692269752 0.00021096715722968053 -8.707633186584431e-6 8.913450643947151e-5 -8.494601494909452e-5 4.154973212634657e-5 -3.6312526166851268e-6 1.684130282395919 6.038195072859745 12.948453006772398 21.13276316009779 28.470338880146382 32.63641379259217 31.83530840701695 25.410273882620167 14.119338639659633 -1.6841401992194047 -7.351844028527624e-6 7.069211679080644 19.409905519266555 34.63521046171442 48.71595480123647 57.18889070614357 56.5722759505065 45.52783744347168 25.410273037621963 -6.038201525026772 -7.069222259326175 -3.0189190182126486e-6 15.238335399027886 35.47287975968574 55.1552124724288 68.04811744711989 69.19739536343306 56.57227520560065 31.835306989255375 -12.94845262743293 -19.409904135942103 -15.238324774026273 1.7092645770168078e-5 22.737460891352395 46.427447467742056 63.56173074513853 68.04811788563521 57.18888944311194 32.636412130988035 -21.132760342105712 -34.63520069266047 -35.47285141242759 -22.737400927992233 4.5725606441855385e-5 25.778186863953756 46.427452657402036 55.155215566276645 48.715954616767895 28.47033825314635 -28.47034318259668 -48.71595166922217 -55.15518461527307 -46.42738105880306 -25.778084694057334 5.739425329318116e-5 22.73747649863066 35.47289130766386 34.635216018867325 21.13276498435876 -32.63643015479031 -57.18890798694811 -68.04811171195429 -63.56168334093556 -46.42736662902144 -22.737374861908677 4.6664111497712775e-5 15.23835914445262 19.409918706064847 12.948457149032057 -31.83533500468398 -56.57231309927936 -69.19741551012193 -68.0480987759809 -55.155157639552364 -35.47281417197482 -15.238285337655613 2.8592838284513436e-5 7.069229517005544 6.038200931926505 -25.410302193212917 -45.52787896548315 -56.572306231713895 -57.188889749049345 -48.715921787474684 -34.635163697091265 -19.409866046915944 -7.0691918553246 9.411686669615925e-6 1.6841362965342874 -14.119356295143287 -25.41029981787525 -31.835329028932907 -32.636417609327964 -28.47032410689557 -21.132737506910576 -12.948428427341714 -6.0381824855564625 -1.684130311421998 0.0
</DataArray>
        <DataArray type="Float64" Name="Mode_3_w" NumberOfComponents="1" format="ascii">
 0.0004099051325102571 -1.8854396579084483e-10 -0.0004099052493341636 -2.2831644761405297e-10 -0.00016351175123987453 -0.0002387714431764089 -0.0001747890890494106 -0.0003147214275583028 -0.00012478258920407484 -0.00021096677005713716 8.708412819541565e-6 -8.913431328775882e-5 8.494624521782873e-5 -4.155002235053976e-5 4.154988109092121e-5 -8.494561566324793e-5 8.913460923261563e-5 -8.707995416650377e-6 0.0002109670357954894 0.00012478266997385462 0.00031472138758822157 0.00017478913046444983 0.0002387710842732175 0.00016351219834331485 0.00016351198450800065 0.0002387713104055262 0.00017478898032412493 0.0003147214486132386 0.0001247827227110784 0.00021096686282064372 -8.707935233314564e-6 8.913448666254402e-5 -8.494590347079345e-5 4.155048939428952e-5 -4.15499706633133e-5 8.494618334272362e-5 -8.91348420829013e-5 8.708395757120453e-6 -0.000210967272337143 -0.00012478282899530557 -0.0003147216774844438 -0.0001747892123413435 -0.00023877122523812604 -0.00016351209181413075 -14.119347079680253 -25.410287654122587 -31.835320889666985 -32.636420384603106 -28.470338170589617 -21.13275629692493 -12.948445416918156 -6.038191036853279 -1.6841289866927103 4.313847382587995e-6 -25.410285768909528 -45.52785626450953 -56.57229072111307 -57.18889419579669 -48.71594677973195 -34.63519599648808 -19.40989228375547 -7.069204058717039 1.1254077403048012e-5 1.6841423356612653 -31.83531354797082 -56.572281733229886 -69.19739338748641 -68.0481032235194 -55.15518915684301 -35.47285491403372 -15.238315919185629 1.5877176151193113e-5 7.069230459130728 6.038205673291416 -32.63640491716728 -57.188870873682646 -68.04808506414719 -63.561686282404104 -46.42740028269664 -22.73742009340677 1.2771598906350025e-5 15.23834433405074 19.409916502160872 12.948458668928417 -28.470317475141165 -48.71591192676166 -55.15515292779074 -46.427377847276574 -25.778113453889468 1.4822665469576611e-5 22.737443531808474 35.472876052222766 34.635212467953956 21.132765300678905 -21.132734932191095 -34.63515845967507 -35.47281221935739 -22.737385855951544 3.13722029578674e-5 25.778157585005292 46.42743005105683 55.15520861089339 48.71595743577483 28.47034237149856 -12.948425965104649 -19.409859733788693 -15.238280163944497 4.2636849324596455e-5 22.737462221763128 46.42743703147832 63.561726381725315 68.04812765036185 57.188905702631864 32.63642334547137 -6.038175888456056 -7.069180563432898 3.9757412635941094e-5 15.238363544761736 35.472889064098034 55.15521493643237 68.04812833011265 69.19741970160639 56.572303799613394 31.835325157058794 -1.6841199393685062 2.4629547799137615e-5 7.069243974866467 19.409927889828655 34.635220613439934 48.71596140411123 57.18890546005341 56.57230225436437 45.52786652591813 25.41029184676879 7.462425330868895e-6 1.6841473535761942 6.038211548888295 12.948464584202497 21.132769623570198 28.470344137244368 32.63642343066564 31.83532407540367 25.410290763175055 14.119349325371303
</DataArray>
        <DataArray type="Float64" Name="Mode_4_w" NumberOfComponents="1" format="ascii">
 -0.000534130524389952 0.0005341300952828536 -0.0005341303303502046 0.0005341301947784607 0.00028309799349173306 0.0005024365978291658 0.00035327555057401645 0.0004405484706503198 3.829879440832808e-5 -3.829860358108111e-5 -0.0004405487115144661 -0.0003532754421577735 -0.000502436290580061 -0.00028309732640578646 -0.0002830972947028954 -0.0005024358716740826 -0.00035327533972440465 -0.00044054818368164755 -3.8298127632116774e-5 3.8298822228978546e-5 0.00044054887360165464 0.0003532754705214202 0.0005024362255044169 0.00028309736850799517 0.0002830974301899294 0.0005024364659565584 0.0003532753255357209 0.0004405481173881078 3.829850410313783e-5 -3.829867108815665e-5 -0.00044054850649349707 -0.00035327498442298415 -0.0005024362416963377 -0.00028309740628027207 -0.0002830975149297898 -0.0005024367701561056 -0.00035327499239962243 -0.00044054838858761816 -3.829861898494005e-5 3.829849129399564e-5 0.0004405481930973043 0.0003532754351482372 0.0005024365550117662 0.00028309790115670715 19.728679240185063 33.0863822117602 35.898433340938034 27.38491145433878 10.192695389943205 -10.192685650002105 -27.384904019170218 -35.89842552596052 -33.086371838855854 -19.728670756739252 33.08638213363965 55.39181262802797 60.14769251287795 45.844682729881605 17.091784923018192 -17.0917794486514 -45.84467730544336 -60.14768422639862 -55.39180002529312 -33.08637102920552 35.898431928858386 60.14768977923911 65.26447805645032 49.77886878731745 18.53238176875947 -18.53239406521536 -49.778878370335185 -65.26448213957629 -60.14768748461015 -35.8984275419274 27.38490573132515 45.84467399356497 49.77886339804421 37.93719106032684 14.146618157770469 -14.146644783641019 -37.93721634979594 -49.77888555804934 -45.84469029366939 -27.384913814269545 10.192684185191084 17.091771098775087 18.532374937913502 14.146618510355239 5.257222427107252 -5.257246243976315 -14.14664524495958 -18.532405563165646 -17.091799756421292 -10.192701109879842 -10.19269819335549 -17.09179221243805 -18.532395844674785 -14.146636116404613 -5.257235985735899 5.2572343930491945 14.146626009555419 18.53237415976234 17.091766420782537 10.192680895482729 -27.384911022175846 -45.84468205190757 -49.77887021859321 -37.937193250256676 -14.146615116766528 14.146648470770321 37.937212415424895 49.778870664102946 45.844670991966005 27.384900687180597 -35.89842533751597 -60.14767930231094 -65.26446346629771 -49.77884784954163 -18.532355087374572 18.532420179697656 49.77889546216004 65.26448762981865 60.14768598749021 35.89842514053811 -33.086368357565405 -55.39179061426919 -60.1476652176466 -45.844649124175305 -17.09174528390234 17.091818535564467 45.84470663371378 60.14770070588048 55.3918081000004 33.08637502801717 -19.72866790193749 -33.08636439834211 -35.89841275607446 -27.3848872026893 -10.192666666768119 10.192714615648265 27.38492645403912 35.898438918051454 33.086378876235585 19.728674145830386
</DataArray>
        <DataArray type="Float64" Name="Mode_5_w" NumberOfComponents="1" format="ascii">
 -0.0007540110339337216 -0.0007540110669930277 -0.0007540112055703836 -0.0007540109357658053 0.0005466504627914405 0.0004907329967573253 0.0005545852032230288 0.0004057167742133623 0.0002889335321174132 0.00028893309076535927 0.0004057174933683463 0.0005545853579067394 0.0004907338079431253 0.0005466505762302684 0.0005466503696744071 0.0004907334067815461 0.0005545851408063125 0.00040571665055679927 0.00028893250855259646 0.00028893269044158205 0.00040571656356735265 0.0005545854648019577 0.0004907337627795112 0.000546650826125269 0.0005466506970514655 0.0004907337211838085 0.0005545857905233196 0.00040571721869336907 0.0002889335435207797 0.00028893309244223096 0.00040571712617579886 0.0005545855293812949 0.0004907335236654241 0.0005466504218005648 0.0005466501392586184 0.0004907333796928843 0.0005545854335586507 0.00040571749570758234 0.0002889325659390662 0.0002889329254687093 0.00040571650132639774 0.0005545853160105461 0.0004907335535961509 0.000546650363104747 20.384823080907964 32.906587726278254 34.629177647458455 29.10432099972616 23.536752378175898 23.53675817188217 29.10433625832563 34.62919593695429 32.90660227275524 20.38483114793697 32.90658679881835 51.229151378259395 49.795243063183726 35.8035383730987 23.353544827074234 23.353554813787465 35.80356440110102 49.79527585815918 51.2291806593153 32.90660368233224 34.6291785861372 49.79524510244778 39.11260975656079 13.34651166247209 -7.291529862662966 -7.29151845889704 13.346540902873832 39.1126469453497 49.795279686918164 34.629199976424694 29.104328106574965 35.80354766458947 13.346517321323846 -24.532495420844565 -52.95080847055047 -52.95079961469651 -24.53247240673184 13.346546049195696 35.803574562991706 29.104345192003155 23.536767033943267 23.35356224370545 -7.291521406085188 -52.95081050984247 -86.18853727372779 -86.188532357101 -52.950798465346324 -7.291507012277902 23.353575017551673 23.53677498335977 23.53677537474622 23.353572795066622 -7.291517190508249 -52.950817443867265 -86.18855382036074 -86.1885524580942 -52.950813762782396 -7.291512996355506 23.353576453489968 23.536777877976945 29.104347171097686 35.80357182736665 13.34652664935608 -24.53251250374105 -52.95085011982734 -52.95085162858868 -24.53251383589272 13.346529144084974 35.803577305057814 29.104352174695062 34.629198243400175 49.79526856556417 39.11261716310683 13.346490111707901 -7.2915804501469745 -7.291583629473023 13.34648706011923 39.11262303016738 49.79528142228069 34.62920829047719 32.906601126660796 51.2291664278001 49.79524435723635 35.803517166657066 23.35349980333044 23.353497139867226 35.803515600199 49.795252823020434 51.22918139446439 32.90661192805562 20.384830324107917 32.90659412887042 34.629175931406245 29.104306847783242 23.536725607646844 23.536724638675835 29.10430728870102 34.629181890565135 32.906603333935685 20.38483657599986
</DataArray>
        <DataArray type="Float64" Name="Mode_6_w" NumberOfComponents="1" format="ascii">
 -3.008736754642752e-10 -7.609850622732734e-10 -2.2743060679990478e-10 -3.9913951061468713e-10 4.697900737108886e-5 -2.9532831211380014e-5 -0.00026010520276034167 -0.0005553576484448543 -0.0007609140422622863 -0.0007609134909333101 -0.0005553582972024553 -0.0002601050703940919 -2.953325973731675e-5 4.6979263543790014e-5 -4.697865827296764e-5 2.953374329844559e-5 0.00026010634022350916 0.0005553581298216817 0.0007609141149589909 0.0007609133212278634 0.0005553581769914993 0.00026010523051763157 2.9533218603384963e-5 -4.6979045999726874e-5 4.6978926895619045e-5 -2.9533121264440865e-5 -0.0002601054792049686 -0.0005553573622149446 -0.0007609138283215183 -0.0007609134168789724 -0.0005553579239359187 -0.00026010481673765623 -2.9532977892317304e-5 4.6979045328920175e-5 -4.6978368173554527e-5 2.9533664944000828e-5 0.00026010617795989586 0.0005553577727853341 0.0007609136898686483 0.0007609133064336459 0.0005553583956835956 0.0002601054572446604 2.9533722530064875e-5 -4.6978704959450065e-5 8.900429955617068e-6 6.208551471461221 20.046948914726034 36.70356691240646 48.07195126671334 48.071951533535724 36.703570382655464 20.04695600697631 6.20855814962719 1.2262050469995676e-5 -6.208526146229166 1.7861109599520557e-5 21.814269875090023 50.38525777687735 70.43261223396956 70.43261524176994 50.385266015217645 21.81428121519039 2.8816231845914127e-5 -6.2085191373616055 -20.046929869368597 -21.81424665725604 2.4600720519908273e-6 33.72921177639527 58.516885664131195 58.516891548454545 33.7292260636283 1.9711204159412945e-5 -21.814230276779362 -20.046919571289884 -36.703562829494096 -50.38525971156382 -33.72923537284515 -2.507982277449823e-5 26.255812628222046 26.25581977993707 -6.9488703586497335e-6 -33.72921216807609 -50.3852378131006 -36.70354925514998 -48.07195965201463 -70.43263169603536 -58.516923339212376 -26.25587186696478 -3.325338952562103e-5 -2.8145261601496456e-5 -26.25585693454899 -58.516900823378826 -70.43260756481538 -48.07194379364406 -48.0719590680216 -70.43262829362259 -58.51691447691459 -26.255858151949475 -1.9718004404727637e-5 -2.0217471584579895e-5 -26.255856461462262 -58.51690415995241 -70.43261061492542 -48.07194508184984 -36.70355954365095 -50.385247792913376 -33.72920949433995 1.1783058390099934e-5 26.255847221428922 26.25583825526083 -7.3992235715770085e-6 -33.72922428060066 -50.38525049914907 -36.70355594155612 -20.046922737122664 -21.814226100149483 4.0200292985088056e-5 33.72926058772452 58.51692813488539 58.516911877225006 33.729221169811986 -1.744582628412066e-6 -21.814254365059 -20.046934109734373 -6.208517240075337 4.073804968253418e-5 21.81430904089268 50.38530424084493 70.43265074392639 70.43263266745505 50.3852582697954 21.81425564817335 3.20527162581769e-7 -6.208537009700418 1.4841995481742876e-5 6.208566997342105 20.04697472761344 36.70359633212065 48.07197475792639 48.071962739345935 36.70356511905167 20.046937536957618 6.208537589407961 0.0
</DataArray>
        <DataArray type="Float64" Name="Mode_7_w" NumberOfComponents="1" format="ascii">
 2.89953238042691e-10 0.0013084386454303633 -5.1881174893121744e-11 -0.0013084391180373143 -0.00020765307318692603 0.00032994710009646636 0.00019552853424605583 0.0010039082716283702 0.0005344031221436799 0.0005846865168728158 -0.0006503570883837993 -0.0008862140475852636 -0.0014559304948537843 -0.0010727816494298919 -0.0010727815494006143 -0.0014559305931487671 -0.0008862140944547091 -0.0006503571912723012 0.0005846867233270256 0.0005344033908177486 0.0010039080306654513 0.00019552847816668525 0.00032994727202561273 -0.00020765296857854252 0.0002076528862920549 -0.00032994725494763725 -0.0001955287169399185 -0.0010039085713102927 -0.0005344028849040123 -0.0005846860414865226 0.0006503575356266437 0.0008862143075768753 0.0014559305949896815 0.0010727819543146079 0.0010727822676217158 0.0014559306008881888 0.000886214074646676 0.0006503574970967344 -0.0005846864909196059 -0.0005344026418756299 -0.0010039086748965228 -0.00019552840410270398 -0.00032994731689689504 0.00020765281956665275 -3.3543455913198084e-6 -7.220202217290508 -22.023752363093394 -35.30216888378444 -34.63892460188662 -13.949995459327281 20.252466926558508 50.90085492040221 60.092385820605465 40.36971042060539 7.220195749564383 -2.60862380792881e-6 -23.67934336943347 -48.925564663082056 -54.05614197329685 -26.95937258093976 23.831600400241992 71.82901888224819 88.15607902051329 60.09238782849084 22.023751065467497 23.679346275518107 6.36273052884549e-6 -33.46259079031785 -51.285277124294595 -36.4862644118996 6.276505810535133 52.16400119303927 71.82902516346323 50.900861707304244 35.30217167199107 48.92557514487435 33.46261039312603 9.843049676325374e-6 -29.575679276672915 -37.28842598851619 -20.71076762042881 6.276508513935843 23.831610717684956 20.252476952150815 34.63892871966221 54.056152964202326 51.285292284301846 29.575687958082668 -2.937369387137354e-6 -24.901523541387665 -37.28843416495565 -36.48626893695099 -26.959367660366908 -13.949988699839158 13.94999956768536 26.95937926996365 36.48626944480137 37.288422269840154 24.901506694639668 -1.245994431068429e-5 -29.575697293808314 -51.28529327270746 -54.05614884787697 -34.63892517113544 -20.252461763010608 -23.831594736113196 -6.276504151352027 20.710762270418655 37.288419590199034 29.575676718616734 -8.822702866419188e-6 -33.46260984499006 -48.92557753147479 -35.30217416948728 -50.90084650385467 -71.82900791080317 -52.16399093823787 -6.27650052011209 36.486270879234894 51.285288023950606 33.462602006815054 -2.788208651390471e-6 -23.679350637435267 -22.02375602120625 -60.092374685102605 -88.15606183540187 -71.82900387220946 -23.831586922421696 26.95938761486009 54.05615892682301 48.92557816814875 23.679348306873383 -5.15293799979941e-7 -7.220200800117964 -40.369701589126564 -60.09237386039984 -50.90084330594244 -20.25245488528614 13.950009153851003 34.6389370959924 35.30217688503484 22.02375546127082 7.220200695537693 0.0
</DataArray>
        <DataArray type="Float64" Name="Mode_8_w" NumberOfComponents="1" format="ascii">
 0.0013084393854057637 3.2294068367754456e-10 -0.0013084384531247396 3.3055832870413404e-10 -0.0010727821230324692 -0.0014559309175361263 -0.000886214244288462 -0.0006503573714633607 0.0005846863101120256 0.0005344032607331854 0.0010039080158190925 0.00019552801848969072 0.00032994699503805533 -0.00020765322466890745 0.00020765223823824265 -0.0003299470029551865 -0.0001955285780013291 -0.0010039084990247228 -0.0005344021825754416 -0.0005846861440588408 0.0006503572795714525 0.0008862135708010653 0.0014559298763049636 0.0010727818774660027 0.001072781272581247 0.0014559305740103814 0.0008862135358251005 0.0006503573777988138 -0.0005846867994646458 -0.0005344031904822207 -0.0010039083614084517 -0.00019552861471916082 -0.00032994759742982255 0.00020765259796769005 -0.00020765326649565733 0.0003299474296156004 0.00019552827192161526 0.0010039088152308164 0.0005344028716364549 0.0005846866910232864 -0.0006503574599815398 -0.0008862141390039378 -0.0014559304219211532 -0.0010727824724332173 -40.36971340420556 -60.09238905694886 -50.90085407410649 -20.252460875631826 13.95000434939688 34.63893257603601 35.30217224410194 22.02374806187942 7.220190937963305 -6.957136211252118e-6 -60.09239163841508 -88.15608348027439 -71.82901730504784 -23.831589080218556 26.95939015943201 54.056159401295766 48.925572966476786 23.679335432595558 -1.673108300831644e-5 -7.220211735543121 -50.90086388903942 -71.82902846850496 -52.16399940720912 -6.276492644752194 36.486286982861806 51.285299940925924 33.46260142623591 -1.5456246423535697e-5 -23.679367444293476 -22.023767372277742 -20.252476414637723 -23.831611616192326 -6.276508481500333 20.71077619333551 37.28844403957529 29.57569745115402 -1.9439483388392673e-6 -33.462617624434735 -48.92559246255245 -35.30218533214414 13.949989123843338 26.959365558224523 36.486264393109465 37.28843334732919 24.901529681612395 1.051894777157985e-5 -29.575685545139617 -51.28529710494328 -54.056163682571274 -34.63893865700292 34.63891957081461 54.05613883529727 51.285281908952264 29.575689531901883 1.1108510471969202e-5 -24.90150485807023 -37.288422398856454 -36.48627272041078 -26.959385668774278 -13.950006264372087 35.30215940812321 48.92555629569032 33.46259264898174 1.2655181361917282e-6 -29.575675043563034 -37.28841371066302 -20.710758584804783 6.276502379140313 23.831588707143414 20.25245632106285 22.02373658269351 23.679323674472535 -1.587535607717614e-5 -33.46260424879711 -51.28527633469247 -36.4862541383836 6.276511826858899 52.163991250770714 71.82900091953378 50.90084053503399 7.220184487747881 -2.176178769192214e-5 -23.679363752088555 -48.92557652653632 -54.05613923349816 -26.959362025229805 23.831603358788932 71.82900520549624 88.15605425243236 60.09236865911901 -8.800062822278331e-6 -7.220212321448781 -22.023764122599026 -35.30217524572992 -34.63892155574744 -13.949988454447107 20.252467550307657 50.9008436677477 60.09236810685191 40.36969762346663
</DataArray>
        <DataArray type="Float64" Name="Mode_9_w" NumberOfComponents="1" format="ascii">
 -0.0016865029576305932 -0.0016865025373433967 -0.0016865021272880146 -0.0016865023705713417 0.0017886724237867703 0.0016357997115053007 0.0009880835405961645 -0.0005064230298376744 -0.0016106795581757815 -0.001610678946766847 -0.000506422730867974 0.0009880841534277832 0.001635799563157735 0.001788671442029455 0.0017886712174398675 0.0016357992239630996 0.0009880821763864206 -0.0005064243258367421 -0.0016106811793737542 -0.0016106808640270634 -0.000506423609121872 0.000988082867447464 0.0016357983170812549 0.001788671189304362 0.0017886703273766317 0.0016357985091814313 0.0009880832415427236 -0.000506424337930025 -0.0016106809735831006 -0.0016106813715514416 -0.0005064245599925393 0.0009880824707651805 0.0016357989463754406 0.0017886713109098167 0.0017886711421696757 0.0016357992924482872 0.0009880839131070846 -0.0005064224869450009 -0.0016106793982075018 -0.0016106799563973355 -0.0005064233657006761 0.0009880835919526458 0.0016358000457572682 0.0017886718858938933 40.82420901017913 53.4638408500649 29.19962467439339 -15.219376585450085 -49.133328020883795 -49.133312155085044 -15.219345482202169 29.199641358381797 53.46383311996917 40.82419425141552 53.463841870204575 70.0167766948789 38.2402008581973 -19.93153225068297 -64.34564044936839 -64.34561339190961 -19.93147932578252 38.24022871347793 70.01676245291677 53.46381549349077 29.19963059905992 38.2402086187559 20.88516146638221 -10.885827480640737 -35.14296177527535 -35.14292935022867 -10.885765805708296 20.885188342200543 38.240181781805106 29.199592128257823 -15.219363817402167 -19.931513796894027 -10.885816556071722 5.673775365535747 18.317082598637434 18.317117190411317 5.673837629566438 -10.885799720764345 -19.931559551169507 -15.219417303704752 -49.133315087105295 -64.34562186486066 -35.14295110193243 18.31708178769326 59.133917902922846 59.13395263350087 18.317142470121983 -35.14294077303527 -64.34567800339101 -49.13337667653476 -49.13330684476871 -64.34560642080402 -35.1429296502713 18.317106943508364 59.1339426392119 59.133974535591435 18.317163847335515 -35.142917558938095 -64.34565666144185 -49.13336398578573 -15.219346428986519 -19.931483379495845 -10.885775429045442 5.67382350591881 18.317128651763326 18.317155647550276 5.673874152943531 -10.885759017993898 -19.931520418320193 -15.219392842122414 29.199638268148334 38.24021959710811 20.88517574405763 -10.88580977258721 -35.142948579967346 -35.14292659013753 -10.885766068307579 20.885195489483912 38.240196426068984 29.199604344353908 53.46382987352076 70.0167527235955 38.24017012176446 -19.931565181305647 -64.34567973885405 -64.34566264056944 -19.931529498714497 38.24019136872579 70.0167425629661 53.463808410810685 40.824192316541904 53.463809419570474 29.19958487274696 -15.219420175201348 -49.133376930864074 -49.133366918883986 -15.219398406066961 29.199600162612974 53.46380725659734 40.824182234988186
</DataArray>
        <DataArray type="Float64" Name="Mode_10_w" NumberOfComponents="1" format="ascii">
 -7.187171521205782e-12 0.0008645018419160208 2.4064851312495582e-11 -0.0008645019705073655 -5.888127264953836e-5 -0.00018231300854645489 -0.0013379802574175913 -0.0015413413701069962 -0.0017838609753897286 -0.0008857845686094876 -0.0009068775950688674 -0.00071617101461474 -0.001213939579085614 -0.000931878867156364 -0.0009318788393028076 -0.0012139391300569225 -0.0007161706625697531 -0.0009068778515569837 -0.0008857846719727351 -0.0017838608048959942 -0.001541340844809915 -0.0013379798249315703 -0.00018231286160706836 -5.8881663299423986e-5 5.888144828405352e-5 0.00018231300680705863 0.0013379795705703533 0.0015413408873126038 0.001783860813053339 0.0008857845629833757 0.0009068775851473207 0.0007161709782471569 0.0012139395038930538 0.0009318793313481473 0.0009318794837455724 0.0012139395603689852 0.0007161706696536954 0.0009068772997400013 0.0008857845356303788 0.001783860616726084 0.0015413411899092104 0.001337980051555005 0.00018231290839665026 5.888168384605745e-5 2.621613330782458e-6 14.014331222420187 38.5061632288661 55.532816362134746 52.838721204869465 37.55201423165504 27.536027836254416 30.511134109268095 35.36182202742695 25.733151669104934 -14.014324775896528 4.791826762583635e-6 36.29593784381468 61.313874701661675 52.15614297267962 22.826501003876608 7.5945020047282155 20.95707430227153 40.95849435117407 35.3618246752291 -38.506161356990106 -36.2959314764037 4.390503472345416e-6 24.640933819201713 6.458452104958643 -34.53966762011773 -50.447185281728885 -21.441715224849883 20.957081578732357 30.511141453833883 -55.53282115252697 -61.31387660173302 -24.640929321061876 3.8072768810453737e-6 -24.49868483621871 -73.84280242201534 -90.37566699806253 -50.44717694183183 7.594516325067884 27.536038930117208 -52.83873069888045 -52.15615318441348 -6.458454702719577 24.49869097507667 4.599510082466191e-6 -53.693855079860434 -73.84279984978869 -34.53965789049659 22.82651561635294 37.552025148429976 -37.552025030329695 -22.826513540044658 34.53966369086241 73.84280782205664 53.69386214454945 1.1522643636548693e-6 -24.498687503974352 6.45845436583901 52.156149038089026 52.838726109163645 -27.536036622296635 -7.594510488534742 50.44718538513964 90.37567266625005 73.84280297276166 24.498683820274277 -3.851456206175055e-6 24.640928488479755 61.31387134443661 55.53281393307158 -30.51113816312887 -20.95707670705076 21.441716289785493 50.4471788591542 34.53965709858735 -6.458459003783844 -24.640933290861152 -5.178090133389837e-7 36.29593151276806 38.50615781687858 -35.361819836142686 -40.95849170733491 -20.957081686729946 -7.594518802921241 -22.826517857721715 -52.156150510957204 -61.31387128502952 -36.29593012669907 5.90192143118231e-7 14.01432650410472 -25.733147303793583 -35.3618206987864 -30.51114145059185 -27.53604148857977 -37.55202703509409 -52.838725988814666 -55.53281280172938 -38.506156837204244 -14.01432604730915 0.0
</DataArray>
        <DataArray type="Float64" Name="Mode_11_w" NumberOfComponents="1" format="ascii">
 0.0008645011844066267 -1.4678412897963117e-9 -0.0008645028021575555 -1.2157930655268782e-9 -0.0009318781433326921 -0.0012139388952399665 -0.0007161703969747283 -0.000906877471772205 -0.0008857853297762543 -0.0017838617611752661 -0.0015413412590353514 -0.001337979422848978 -0.0001823115416337554 -5.887996018333879e-5 5.888276497027131e-5 0.0001823144116130781 0.0013379807886080865 0.0015413409126339185 0.0017838599444594306 0.0008857833870578321 0.0009068769185537917 0.0007161711990631014 0.0012139401964168918 0.0009318798223582983 0.000931879695746866 0.0012139403940553558 0.0007161712020817224 0.0009068777700928855 0.0008857837582522394 0.0017838596921711909 0.0015413402190981723 0.0013379806810749925 0.00018231403531573936 5.888302639443466e-5 -5.8880188444638703e-5 -0.0001823119046796512 -0.0013379787463272126 -0.001541341300629731 -0.0017838614905417837 -0.0008857854740498371 -0.0009068779144962355 -0.0007161708587537747 -0.001213938806768672 -0.0009318781544765431 -25.733131975033576 -35.36180128586087 -30.51113107515796 -27.536049428956733 -37.55205088050184 -52.838750858886755 -55.53281987887331 -38.50613654512879 -14.01428883991212 2.9039036877466234e-5 -35.36179629611877 -40.95846007262647 -20.957062104446635 -7.594524802607724 -22.82654691346201 -52.15618360524894 -61.313884564785255 -36.29591008992718 4.342558808530139e-5 14.014361650953905 -30.511120315920483 -20.957051972472524 21.441735174718676 50.44718369700359 34.5396480249994 -6.45847446743161 -24.64094409818833 1.9432139732153082e-6 36.29594692776269 38.50617329679699 -27.53603780300069 -7.594510790141419 50.44718938740168 90.37568579039156 73.84282358742772 24.498701215392103 -1.2337190338616994e-6 24.64091444207536 61.313851185935285 55.53280077066351 -37.552046347250496 -22.826541609672535 34.53964671534516 73.84281647276754 53.69389768148188 4.22546309535478e-5 -24.49866974438453 6.458436465303668 52.15611053870622 52.8386963036005 -52.83875601287851 -52.156190497487195 -6.458484391053779 24.49868597805407 2.9312674471851504e-5 -53.69381699556333 -73.8427774950723 -34.539666775699736 22.826485738323292 37.552000557547174 -55.532827861279934 -61.31389203755933 -24.640948797084206 -1.0185543409584286e-5 -24.498685451460435 -73.84279099985226 -90.37565431341878 -50.447172386644404 7.59451296260005 27.536034230786257 -38.506139745041324 -36.295906976804304 1.3760247641172246e-5 24.64092289208873 6.458429162866134 -34.539686349809976 -50.4471876926991 -21.441700733722186 20.957103034561296 30.511156618077685 -14.014286047252419 5.5006448785738506e-5 36.29596919749604 61.313871272169116 52.156111837069986 22.826467596815554 7.5944915282107885 20.957092344718323 40.958525719480974 35.36184752644404 3.269454818752159e-5 14.014371108416936 38.506189408987304 55.53281657376676 52.8386995817091 37.55198935408149 27.5360192683494 30.51114715692795 35.36184449846296 25.733167364346635
</DataArray>
        <DataArray type="Float64" Name="Mode_12_w" NumberOfComponents="1" format="ascii">
 1.0890309474780741e-10 -2.7702388992762015e-10 6.172302969051225e-11 -2.4359119943264354e-10 2.717711096574235e-5 -0.0006916798693385204 -0.0020074929492618493 -0.002330354027914565 -0.0010893693239515312 0.0010893697076168284 0.002330353437401426 0.0020074925808293534 0.0006916803001214373 -2.7177339766663275e-5 2.717773277669895e-5 -0.0006916787261601781 -0.0020074921768954736 -0.0023303533237391517 -0.001089369304486266 0.0010893697421090224 0.0023303534920148523 0.0020074929208068262 0.0006916793376122179 -2.71776268504885e-5 2.7177644562936534e-5 -0.0006916794533880895 -0.002007492680717074 -0.002330353543210623 -0.001089369437177509 0.0010893692707992766 0.00233035383107487 0.0020074928590489978 0.000691679772425984 -2.717739082989333e-5 2.717775010805739e-5 -0.0006916796748892108 -0.0020074928608489113 -0.002330353620001376 -0.001089369327917161 0.0010893694415422327 0.0023303533557534925 0.002007492793802011 0.0006916792310329543 -2.7177885151780916e-5 -5.881523425966089e-6 21.363191637587956 54.06055187539999 62.93135540372741 28.2587444104898 -28.258752400505152 -62.93136300899005 -54.06055924340131 -21.363196886982166 3.7794075258873643e-6 -21.363206874719957 -8.499538782199195e-6 51.34048179406568 75.20362805026149 36.008434139348694 -36.00844142390295 -75.2036345348436 -51.34048770071101 4.462725739503685e-6 21.36320550343811 -54.060563179130604 -51.340488285158585 4.962767573829938e-6 39.07189092012756 23.210984987115612 -23.21098057276799 -39.07188769961352 -3.7643299568007984e-6 51.34048848516264 54.060562901726705 -62.9313611593696 -75.20362595189806 -39.07187176112813 1.4770707779416802e-5 6.595979587736177 -6.595962941715913 -4.409828701330482e-6 39.071875532527166 75.20362677058353 62.93136080136794 -28.25875052626365 -36.00843851129487 -23.210977804369737 -6.595959909514197 9.53832272678048e-6 4.482572595333175e-6 6.595963413593982 23.21097234908542 36.00843215836604 28.25874759309175 28.25874136267171 36.00842333777701 23.21096532325689 6.5959586010895155 -1.759046858598008e-6 -1.4821328990680946e-7 -6.595970345389103 -23.21098401884946 -36.00843837446267 -28.258747931627624 62.9313539341819 75.20361615677781 39.07186481474267 -1.517247941058648e-5 -6.595975457736431 6.595964013059649 -2.4206600921087417e-6 -39.071884338301146 -75.20362887776731 -62.93135810495591 54.060562089403625 51.340487656427065 -3.6465899599258448e-6 -39.07188667357515 -23.210980956657334 23.21097900191375 39.071881191419735 -6.344079432891079e-7 -51.34048537141727 -54.060556735326315 21.363211438000306 1.5159057131741053e-5 -51.34047337672986 -75.20361777456216 -36.008426724536086 36.0084416490239 75.20363093719175 51.3404870612687 7.738294295719903e-7 -21.363198690580386 1.0052689853912467e-5 -21.36318488512881 -54.06054339456091 -62.931346006646415 -28.258737567687053 28.258754613673936 62.93136272792471 54.06055953814098 21.36319966505058 0.0
</DataArray>
        <DataArray type="Float64" Name="Mode_13_w" NumberOfComponents="1" format="ascii">
 -0.0015742365498413154 0.0015742366876186657 -0.001574236618703904 0.001574236789625244 0.001981370431612815 0.002700238674524017 0.0009646712066093907 0.0005745164555930732 -0.0004929054317401401 0.0004929049072369242 -0.0005745168366878818 -0.0009646714132841521 -0.002700238682610404 -0.0019813703615417845 -0.0019813705901314217 -0.002700238427314933 -0.00096467131441677 -0.0005745166050612235 0.0004929054289872151 -0.0004929044149711462 0.0005745166596731787 0.0009646714707019807 0.002700238906504923 0.001981370647704503 0.001981370403812867 0.0027002387038117456 0.0009646713782478587 0.000574516493935293 -0.0004929050432285765 0.0004929054038949133 -0.0005745158845267976 -0.0009646711579370161 -0.002700239032495061 -0.001981370571255287 -0.0019813707338495012 -0.002700239193023122 -0.0009646714596118438 -0.0005745165162559364 0.0004929051179837563 -0.0004929054144191978 0.0005745163850606046 0.0009646713368423041 0.002700238657967623 0.001981370635730385 51.244835992219905 63.7596745281525 37.99706737507932 7.1951100557976275 -2.1735560371470837 2.173550053678951 -7.195121885023374 -37.99708248451046 -63.759687021357365 -51.244842772104555 63.759673494233496 70.27008299479348 24.74839318282605 -17.31442284954898 -14.422882682239472 14.4228773270135 17.31441003898822 -24.74841098137644 -70.2700977385814 -63.759681060044194 37.997064574276564 24.748390810253944 -28.828480961126125 -60.98073778924972 -31.40341244285922 31.40341213178154 60.98073445157358 28.82847623722345 -24.74839357616165 -37.99706501220101 7.195104286012517 -17.31442782380761 -60.98073757415885 -76.22836157172148 -34.945594502105344 34.94559988623921 76.22836984227794 60.980748587001536 17.314437642603515 -7.1950988441664165 -2.1735630167839854 -14.42288679058187 -31.403406193480226 -34.945585029281254 -15.502379862748159 15.502386477697081 34.945596115058954 31.403418881174908 14.422894539826135 2.173565230081895 2.173547467966615 14.422879659743835 31.403425103751125 34.94561635461198 15.50239495787454 -15.502396726966348 -34.94561455112096 -31.403424937950838 -14.42288525849568 -2.1735538714108666 -7.195117422616736 17.314418634875864 60.980744918685566 76.22837730348611 34.9456000279639 -34.94561093170342 -76.22838562689286 -60.980755383715966 -17.31443308566678 7.19510636247875 -37.997074722378684 -24.74840275087924 28.82847492123823 60.98073726465166 31.40341185425593 -31.403416420212437 -60.98074125469248 -28.82848157168404 24.74839260611425 37.99706692244525 -63.759680186213764 -70.27009408952182 -24.748404620997718 17.314416237412715 14.422883895543288 -14.422870628952001 -17.314405068704005 24.748410338574395 70.27009475737667 63.759679286517645 -51.244838653800485 -63.75968039607063 -37.99707504743034 -7.195114733881452 2.1735590912993255 -2.173541015573139 7.195129468021162 37.99708473612384 63.7596857714001 51.24484097314319
</DataArray>
        <DataArray type="Float64" Name="Mode_14_w" NumberOfComponents="1" format="ascii">
 -1.678837372951983e-10 -0.002738950444412649 -2.2867732473106304e-10 0.002738950118178287 0.0003262090224554899 0.000267452319549466 0.0024180476954021733 0.0007712801030816546 -0.00046694929829370775 -0.003797479415521964 -0.002106199737065322 0.00016866310741567346 0.004181689620237861 0.00395028216469052 0.003950282122908842 0.004181689124537139 0.0001686625981288216 -0.002106199926579422 -0.0037974795756359273 -0.00046694915572924106 0.0007712804623346903 0.0024180476981928672 0.00026745180049217383 0.0003262086616421083 -0.0003262083947528744 -0.0002674521936790563 -0.002418047612405394 -0.0007712802812245827 0.0004669500584406665 0.0037974793197306294 0.00210620069370568 -0.00016866281383948474 -0.0041816888088073035 -0.003950281966354893 -0.003950281853022838 -0.004181688284063701 -0.00016866290105191662 0.0021062003020763387 0.0037974790596480195 0.00046694931765600976 -0.0007712805678070634 -0.0024180477283902023 -0.00026745219357070954 -0.0003262086494840205 7.109306243508038e-7 -17.870341088392486 -37.68406285978408 -26.02217814571508 22.40124646226465 65.60706442262675 53.28477931532333 -14.6148695623759 -77.8947749268576 -73.12800827762604 17.870342510398064 8.382398162209757e-7 -36.567214151963626 -40.73950077717571 7.82954247879702 64.40583580758374 63.11707409811349 -6.360280675506423 -78.60020282636712 -77.89477717922007 37.68406251006636 36.5672141984951 1.0205066779800465e-6 -32.659135822164565 -29.33057366949726 1.569107303078601 24.058707884337686 16.498611481542014 -6.360283401341183 -14.614871740844967 26.02217561469381 40.73949933084262 32.659141438878756 7.032654194336911e-6 -39.66847136867994 -55.77603896237708 -29.56594811606886 24.05870257908811 63.11707201749061 53.28478106072407 -22.401249027816487 -7.829543152349553 29.33057980868875 39.66848555510118 7.669725456290815e-6 -51.99519448342638 -55.77604942275566 1.569097262699919 64.40583656255062 65.60707103467563 -65.60706357839173 -64.40583489832751 -1.5691065146019307 55.776041824098165 51.99519904673344 2.1736188246115124e-7 -39.668485646181786 -29.33058307345882 7.8295466716107915 22.401256008420535 -53.284770963444764 -63.11706847814212 -24.058712366603903 29.565937816528965 55.776040974981925 39.668482094362986 2.587567669955058e-7 -32.65913917588796 -40.73949541396444 -26.02217033057397 14.614885621982717 6.360293125445996 -16.49861454765777 -24.058714516028676 -1.5691047249068992 29.33058402332342 32.659143412279626 1.3379282857398135e-6 -36.56721153384604 -37.68405898789095 77.89479159489247 78.60021765829433 6.3602864326047115 -63.11707340060117 -64.40583235392297 -7.829537026141821 40.7395027783283 36.567212699719 -9.959888028602934e-7 -17.870339850628493 73.12801813249746 77.89478754532806 14.614877723769164 -53.28477580885867 -65.60706246747193 -22.401245609074635 26.0221771605539 37.68405972710305 17.870338852286068 0.0
</DataArray>
        <DataArray type="Float64" Name="Mode_15_w" NumberOfComponents="1" format="ascii">
 0.002738950574480231 -1.0634183669751022e-11 -0.0027389503261298766 1.0789504778347734e-10 -0.003950282514836424 -0.004181688636721794 -0.00016866271302935334 0.002106200256094051 0.003797479334396218 0.0004669491832339047 -0.0007712799941083686 -0.002418047559017765 -0.0002674517837594878 -0.0003262086695358821 0.0003262085482922404 0.0002674517544404855 0.0024180476386308964 0.0007712803101321532 -0.00046694976379690954 -0.0037974798171768577 -0.00210620022531236 0.0001686628972796723 0.004181689144592256 0.003950282301899809 0.003950281773220958 0.0041816891401701955 0.0001686633254573229 -0.0021062000292138565 -0.0037974795855771322 -0.0004669495208938741 0.0007712801280687054 0.0024180475475993383 0.0002674520521218845 0.0003262085079229078 -0.0003262088803823625 -0.0002674524386564796 -0.002418047972800619 -0.0007712805069124625 0.00046694924281508643 0.0037974794879590524 0.002106200302912758 -0.00016866321059552154 -0.004181689033242076 -0.003950282661567779 -73.1280144080099 -77.89478453875888 -14.614876874589385 53.28477819590769 65.60706768071401 22.401250349975847 -26.0221763032851 -37.684064102475624 -17.870344929887697 -3.2963173649458406e-6 -77.8947796597167 -78.60020821990585 -6.36028636016775 63.1170718192464 64.40583671191942 7.82954557781581 -40.73949595771941 -36.56721197996121 -2.687606423629172e-6 17.870337419617897 -14.614870405447014 -6.360281093783093 16.498611814019633 24.058705095658702 1.5691024431504466 -29.330576402753824 -32.6591331508281 4.699748990280935e-6 36.56721406845499 37.68406062792253 53.28477992834725 63.11707401246913 24.058707268573986 -29.56594773874284 -55.77604633480482 -39.668481098211814 1.388919901156841e-6 32.65914036555671 40.73950034877219 26.02217669335274 65.60706468077431 64.40583266533284 1.5691024439768118 -55.776042142414965 -51.995196832064906 -3.6394778887940124e-6 39.66847451139847 29.330574173833117 -7.829544619947169 -22.40124894379716 22.40124764194228 7.829539107498144 -29.33058108357978 -39.66847647178494 5.184277600155821e-6 51.99519491825765 55.776035042616705 -1.5691105179035123 -64.4058366637845 -65.60706482045117 -26.0221739856752 -40.739500102707275 -32.6591416733558 2.2686314078534914e-6 39.66848678586773 55.77604522378102 29.5659407139426 -24.0587108595889 -63.11706940174978 -53.2847731125386 -37.68405655601507 -36.567210941030915 -3.0052845610267383e-6 32.659137074516146 29.330580995289466 -1.5691022648284882 -24.05870847199703 -16.49861128742423 6.36029004606362 14.614880742599386 -17.87033639474612 2.555434185255307e-6 36.56721022750512 40.73949405021756 -7.829547595881707 -64.40583950705405 -63.11707485886366 6.360285653960171 78.6002122242141 77.89478525160223 1.8821047455901805e-6 17.870342013743464 37.68405954295162 26.02217103205702 -22.40125565032274 -65.60707276035596 -53.28478215036887 14.614874331800577 77.89478319539829 73.12801400812559
</DataArray>
        <DataArray type="Float64" Name="Mode_16_w" NumberOfComponents="1" format="ascii">
 -0.0013700412913409737 -0.0013700410864490985 -0.0013700411353024015 -0.0013700410396466232 0.00211282277555985 0.00182489357728556 0.0015534902355393765 0.002326240564280467 0.0037293597624630014 0.003729359912376587 0.002326241244841639 0.0015534902562778896 0.0018248933037320854 0.0021128223994880202 0.0021128221671045558 0.0018248936664355966 0.0015534907780221064 0.0023262408916844843 0.0037293590907156865 0.0037293584705792517 0.002326239912306773 0.0015534895894122127 0.0018248932760509971 0.002112822593538227 0.0021128227712018284 0.0018248937305800855 0.001553491046213818 0.0023262409748753053 0.003729359237337173 0.0037293594453060987 0.002326240951400547 0.0015534905702664632 0.0018248932723644268 0.0021128220437602293 0.0021128220301870546 0.001824893553172763 0.0015534901854518026 0.0023262402981583017 0.003729358534017087 0.0037293584748196253 0.0023262399614299187 0.0015534902819261366 0.0018248940433722204 0.0021128229482366007 29.726599301655643 32.74578089392827 26.19906342648492 39.85424643574526 63.54910142306595 63.54910362336745 39.85425063679353 26.199061855112006 32.745770790132255 29.726589976404544 32.74577857578336 16.23133564073395 -14.861607518673427 -1.921665628011961 36.628838458796764 36.628839834872416 -1.921661911506405 -14.86160555763704 16.231332175644614 32.74577354528505 26.199063278601656 -14.861609910242231 -73.25852119327959 -65.85611947151997 -17.539159355968977 -17.53916179532664 -65.85612078423488 -73.25851514587224 -14.861600735875944 26.199069012250263 39.85425498493403 -1.9216664960742713 -65.85612988706455 -52.403923013600625 8.116395420270694 8.116390004014688 -52.403930336251776 -65.85612829537295 -1.9216592099943994 39.85426004329959 63.549119824210315 36.62884307575161 -17.539176928035566 8.116381128752042 79.7123168142049 79.71231272233918 8.116373851716471 -17.539182979773567 36.628835516765804 63.549112562990715 63.54912514490184 36.628848705237665 -17.53917503037192 8.116379561460455 79.71231638053047 79.71231806827626 8.116382505974787 -17.53917804785717 36.62883587623159 63.549111866502805 39.85426463082176 -1.9216558314190804 -65.85612695111683 -52.40392786201885 8.116392222542034 8.116398276838964 -52.40391558618341 -65.8561198224209 -1.9216574739561683 39.85426089046644 26.199066554905624 -14.861604736140139 -73.25851798218643 -65.85612078098906 -17.539161654749734 -17.5391598385929 -65.8561168096209 -73.25851312472017 -14.861597107353084 26.199074677841438 32.74577284061729 16.231332882085635 -14.86160089344772 -1.9216543767511682 36.62884523452521 36.62883843358132 -1.921670048879125 -14.861612594019794 16.23133496107582 32.74578172400538 29.72659222008835 32.74577598190624 26.199070688018498 39.8542614594986 63.54911193605236 63.54910354795165 39.85424147869734 26.199052751002743 32.74577093099473 29.726595429586798
</DataArray>
        <DataArray type="Float64" Name="Mode_17_w" NumberOfComponents="1" format="ascii">
 2.9710107431194085e-10 -5.093512514363431e-10 -1.3259586167991568e-10 -1.7231547487193614e-10 6.525130842228388e-6 -0.0014216804166989165 -0.0031411857799950914 -0.003290298446279993 -0.002388845974181552 -0.002388846522551783 -0.003290298774546698 -0.003141185430500821 -0.0014216793238427973 6.526248161403011e-6 -6.524870691947918e-6 0.0014216804358526316 0.0031411861680258075 0.0032902982200936084 0.0023888467889718584 0.002388847027872224 0.0032902997188489587 0.003141185931188712 0.0014216795212846764 -6.525568146145215e-6 6.525631956707225e-6 -0.0014216796014793961 -0.003141185546512123 -0.003290298041726716 -0.002388846181992119 -0.002388846203940985 -0.003290298715622169 -0.0031411859612227415 -0.0014216798931797512 6.526259926357354e-6 -6.525135585488037e-6 0.0014216807655093864 0.0031411859283653823 0.0032902986916932726 0.002388846797977769 0.002388847343434876 0.003290299647068212 0.003141185916382205 0.001421679585639667 -6.526158958452063e-6 -7.1474676122331725e-6 24.28534494629155 53.51736015373424 56.090559510128564 40.852451933089895 40.852443952801124 56.090546372128756 53.51735849500684 24.285356724852594 5.6382709363310005e-6 -24.285358402494975 -6.524391341305164e-6 37.54926277949047 29.228077511717437 -6.915458554705399 -6.915465324629441 29.22806655258378 37.54926159105461 3.336100722366932e-6 -24.285347727309187 -53.51735644500487 -37.54926065683433 -8.300502175667897e-7 -22.31591113237755 -78.40432266272553 -78.40432211133087 -22.31591009796439 -1.5461065116696114e-6 -37.54926343523456 -53.51735876514743 -56.09053767518877 -29.22805959095832 22.315907426091886 -8.525125679857626e-6 -65.13928318263376 -65.13927704725307 1.2198869791279385e-6 22.31590670244522 -29.228072060950833 -56.09054955873337 -40.852429735131146 6.915475101165047 78.40431764926807 65.13927232429246 3.1858625461476376e-6 7.386687341114445e-6 65.13927899843029 78.40431674665915 6.9154665343093695 -40.852437446650534 -40.852436510695284 6.9154661019366035 78.4043134806502 65.13927759073411 1.310239405339356e-5 1.1035346782933656e-5 65.13927298179318 78.40431091775555 6.915468778570912 -40.852431922682584 -56.090546766637964 -29.228075119310773 22.315896905154208 -1.8020318963585714e-6 -65.13926486265942 -65.13926953782884 -1.0590464711129036e-5 22.31589423202237 -29.228068101748956 -56.09053852924738 -53.51735043666726 -37.54926217184462 -1.180487048860915e-5 -22.31591583666237 -78.40431472813319 -78.40431531428065 -22.31591579585607 -1.0403756297812539e-5 -37.549261773757834 -53.517351072410655 -24.285336159017817 1.1197666939127904e-5 37.54925739497703 29.228060672995692 -6.9154654973123435 -6.915459431730358 29.2280728939869 37.549260748494724 1.4047606226037497e-7 -24.285348417728287 1.3546612412524423e-5 24.2853648944906 53.51735943477203 56.090543251018275 40.85244142009845 40.85244876298014 56.090556614070344 53.51736099360798 24.28535087919216 0.0
</DataArray>
        <DataArray type="Float64" Name="Mode_18_w" NumberOfComponents="1" format="ascii">
 -5.622746158086742e-9 -0.0023627891862034534 2.838800553406272e-10 0.002362794548388542 0.00016913946740316506 -0.0031834080546971426 -0.0047523423431860634 -0.0041840486916148445 0.0008972565106715886 0.0019237932501255488 0.0021569710592139464 0.0014019069506568268 0.004068098614978094 0.0041527067420629804 0.0041527062903137174 0.004068106697181314 0.001401918564860684 0.002156980973209049 0.0019237908708587778 0.0008972519644582297 -0.004184054073500447 -0.004752346201788946 -0.003183418468175424 0.0001691288574285774 -0.00016912900392377543 0.003183417626189004 0.0047523379714347865 0.004184039239969752 -0.0008972640393740702 -0.0019237860202077353 -0.0021569613623332222 -0.0014019025068133248 -0.004068107836937008 -0.004152716949501557 -0.004152716405135874 -0.004068115733402844 -0.0014019138824655128 -0.002156971768378283 -0.001923784157407239 -0.0008972598096200756 0.0041840438815019315 0.004752340900579289 0.0031834277327839836 -0.0001691189072144856 0.00014946725444422437 40.614462597708666 80.41969330988056 56.639890265334586 -7.702935181567587 -37.764784461863634 -24.114980418818195 -25.69330925237871 -57.561668121143924 -59.54988227261854 -40.614197851649756 8.437709017805671e-5 60.21036847533883 38.301392485991826 -33.201824570542016 -41.75723417764174 15.320206402723022 30.01205447455298 -27.938813550580644 -57.561569337619765 -80.41968236818302 -60.21048169323707 -0.00010870064607836752 -8.128053472995884 -54.323079228411835 -26.69618229980577 66.08467222696653 97.5173632462902 30.012201492108456 -25.693112492583992 -56.64000272959228 -38.30156542265586 8.127952076177841 3.9126072250849005e-5 -39.03835965914231 -22.61933827651711 44.10664921932654 66.08465050454019 15.32030135701603 -24.114839145907194 7.702928197237688 33.20184952417095 54.323178249855616 39.038515428641034 5.155535308810447e-5 -22.952835418954592 -22.619441013494562 -26.69632075231023 -41.7573122651476 -37.764797108022826 37.76488291783592 41.757382199225766 26.696291692453666 22.619342028407342 22.952775888961774 -9.114222629623405e-6 -39.03842656812166 -54.32315290826188 -33.20192299374638 -7.703018955669122 24.114999513651647 -15.320170177874955 -66.08469850752697 -44.10681595838944 22.61925032016515 39.03845917320099 0.00013896359726938803 -8.127897635515799 38.301434877565555 56.63984059421622 25.69315839716837 -30.0121652346893 -97.51737582551084 -66.0847146355282 26.69616556670661 54.32311619581784 8.128110888517785 0.0001273673475805774 60.21044614130994 80.41963715873806 57.561444938064376 27.9387096709415 -30.012019358676447 -15.320076239028008 41.75730406843519 33.20174991326993 -38.30152988862069 -60.2104126894668 1.3563953168864492e-5 40.61432179422793 59.54973109559125 57.56154250318293 25.693351715146296 24.115135318646338 37.76486349226463 7.702836353720189 -56.640063629593215 -80.41975070771934 -40.614344922674555 0.0
</DataArray>
        <DataArray type="Float64" Name="Mode_19_w" NumberOfComponents="1" format="ascii">
 0.002362793353621404 -4.237845877072594e-9 -0.0023627904897279717 1.6615768179146598e-9 -0.004152713993699363 -0.0040681135161925045 -0.001401914802017446 -0.0021569736769844207 -0.0019237851908946856 -0.0008972573724374765 0.004184047145751077 0.0047523424144256966 0.003183425189137487 -0.00016912143608205618 0.00016913677691424817 -0.0031834106637430594 -0.004752341782324623 -0.004184045822685462 0.0008972585706015004 0.0019237917844118168 0.0021569680290822253 0.001401905681171674 0.004068100533104569 0.004152709193120562 0.004152708829263114 0.00406810873393484 0.0014019176770353554 0.0021569788940892496 0.001923789581556894 0.0008972544671741362 -0.0041840508404651 -0.004752344504744835 -0.0031834203248282196 0.0001691260384390916 -0.00016913164541535125 0.0031834150975124076 0.004752339393360619 0.004184041806526325 -0.0008972625202733587 -0.001923787729839835 -0.002156963882223522 -0.0014019033641644544 -0.004068105858290474 -0.004152714517053558 -59.5498467431727 -57.56154022024928 -25.69312353857603 -24.11487772608635 -37.76481854874684 -7.702997310756877 56.6398804724215 80.41964799841882 40.61429103373443 -3.614795367285443e-5 -57.56163631000958 -27.938787371333508 30.0121928218804 15.320268993348497 -41.757329465560765 -33.201904796341644 38.3014658219457 60.21045247662719 -1.0360304241878516e-5 -40.61437127413389 -25.69331399015252 30.012049244781856 97.51736339578899 66.0846590396937 -26.696311593675077 -54.323155689749456 -8.127912327263775 0.00011971044108280485 -60.2103993115573 -80.4197307882002 -24.115009628665845 15.320177569926056 66.08467503298287 44.10668389141919 -22.619412233628804 -39.03844066416248 9.567893163284817e-5 8.128093947412259 -38.30149254034752 -56.64001426716342 -37.7647945069582 -41.757249116187744 -26.6961879062208 -22.61932441735506 -22.95281613915384 -1.000380804397459e-5 39.03843628960527 54.32310249900673 33.201768205805834 7.702864969334396 -7.702901627606884 -33.201803145062534 -54.32309662529234 -39.03839237306836 4.275683330638287e-5 22.952796684966643 22.619271413349985 26.696163424894813 41.75728487536353 37.76484702132154 56.63994059374798 38.30143040635584 -8.128072445294645 -1.1694964773568022e-5 39.038491614125654 22.619367255732264 -44.106777418671236 -66.08470835208189 -15.320106864655854 24.11510250521314 80.41971096016583 60.21038141209207 -0.00011607330482877759 8.127934616467815 54.32317101085797 26.696299474938275 -66.0846879532818 -97.51737408936647 -30.01202341678174 25.69334874006746 40.61443246025976 5.7494189771791945e-5 -60.21047652150927 -38.301533914941416 33.201872047391824 41.75736971304829 -15.320202853694093 -30.012176172792934 27.93873801881353 57.561578402191245 0.0001100221601546992 -40.61423282652788 -80.4196746841913 -56.63996142579974 7.702956783595053 37.764866868766134 24.114959454009092 25.693144135782408 57.56147494828741 59.54976940747087
</DataArray>
        <DataArray type="Float64" Name="Mode_20_w" NumberOfComponents="1" format="ascii">
 -0.002275043866872194 0.0022750477609720663 -0.002275046420173845 0.0022750422353883847 0.004387823117797524 0.00421242824199847 -0.002145306295153072 -0.004001349807575203 -0.003327004997181177 0.003326999826669459 0.0040013520538122885 0.0021453106300790255 -0.004212430276765319 -0.00438783039696673 -0.004387830230582204 -0.004212433426046352 0.002145305917659815 0.004001347840149347 0.0033270008037392324 -0.003327003617121783 -0.004001346351861097 -0.0021453034920849217 0.004212433546673448 0.004387828217757063 0.004387828396728573 0.004212425759328772 -0.0021453153884312902 -0.004001356764575997 -0.0033270007839190036 0.0033270054038677284 0.0040013521751708775 0.00214530852711664 -0.0042124244472043675 -0.004387821018240967 -0.004387820819152823 -0.004212420496286001 0.0021453150135491224 0.0040013578010736255 0.003327004249345208 -0.0033270027137400947 -0.004001358351272126 -0.0021453158398147664 0.004212421536048869 0.0043878238564778824 65.86215749869415 53.71353114605026 -20.955188950831275 -71.20886656971777 -38.778119607383296 38.77814042995291 71.20885551751849 20.955173205313624 -53.713511612986764 -65.86212222110584 53.713613007342225 43.688705929713706 -17.009790981233948 -58.030359876196876 -31.532385585153605 31.532421368361067 58.03033769644938 17.009752730065895 -43.688690698669774 -53.71356670910461 -20.955026188845444 -17.009669261556073 6.624966315534445 22.650391112688546 12.276321753424499 -12.276279954734136 -22.65041646783695 -6.625017023279165 17.009670682167553 20.9550642640784 -71.20875283631473 -58.030283843721406 22.650372425687863 76.92298725060671 41.896562234759315 -41.89653113814586 -76.92300378915319 -22.650407261646404 58.03028505579515 71.20877915997025 -38.778139596310524 -31.53245699923233 12.276207259869757 41.8964778856658 22.74851074450043 -22.748508670970004 -41.8964804020673 -12.276207424839106 31.53246515203654 38.778149089592056 38.77805355602777 31.532331608075282 -12.276332275833061 -41.89658038091634 -22.748564220256277 22.74853582199173 41.89659346762656 12.276363151842952 -31.53233220154753 -38.77807797658763 71.20878776590423 58.03036296920805 -22.65026680852893 -76.92290505476943 -41.8965400503297 41.89649697577802 76.92293508334039 22.650315501452486 -58.030386912982614 -71.20885280872412 20.955095962869226 17.009805897015656 -6.624795487062782 -22.650255130100224 -12.276276902028826 12.276227614183806 22.650294460140444 6.624854332380438 -17.009838526130572 -20.955177860542378 -53.713651908457855 -43.688756418559954 17.00975010778914 58.03032888644078 31.53236358402843 -31.532418169866347 -58.03029605977285 -17.00969005063403 43.68874022838224 53.713588573098555 -65.86225723266875 -53.71369061610671 20.955019975190847 71.20873376746779 38.77805975836678 -38.7781009521848 -71.2087169778513 -20.954979251713958 53.71369052513305 65.8622273162574
</DataArray>
      </PointData>
    </Piece>
  </UnstructuredGrid>
</VTKFile>
