<?xml version="1.0" encoding="utf-8"?>
<VTKFile type="UnstructuredGrid" version="1.0" byte_order="LittleEndian" header_type="UInt64">
  <UnstructuredGrid>
    <Piece NumberOfPoints="144" NumberOfCells="121">
      <Points>
        <DataArray type="Float64" Name="Points" NumberOfComponents="3" format="ascii">
 0.0 0.0 0.0 1.0 0.0 0.0 1.0 1.0 0.0 0.0 1.0 0.0 0.09090909090891895 0.0 0.0 0.1818181818177918 0.0 0.0 0.2727272727266173 0.0 0.0 0.3636363636354429 0.0 0.0 0.4545454545442684 0.0 0.0 0.5454545454533466 0.0 0.0 0.6363636363626773 0.0 0.0 0.727272727272008 0.0 0.0 0.8181818181813386 0.0 0.0 0.9090909090906694 0.0 0.0 1.0 0.09090909090891895 0.0 1.0 0.1818181818177918 0.0 1.0 0.2727272727266173 0.0 1.0 0.3636363636354429 0.0 1.0 0.4545454545442684 0.0 1.0 0.5454545454533466 0.0 1.0 0.6363636363626773 0.0 1.0 0.727272727272008 0.0 1.0 0.8181818181813386 0.0 1.0 0.9090909090906694 0.0 0.9090909090905306 1.0 0.0 0.818181818181692 1.0 0.0 0.7272727272732319 1.0 0.0 0.6363636363647716 1.0 0.0 0.5454545454563112 1.0 0.0 0.4545454545473464 1.0 0.0 0.3636363636378772 1.0 0.0 0.2727272727284078 1.0 0.0 0.1818181818189385 1.0 0.0 0.09090909090946919 1.0 0.0 0.0 0.9090909090905306 0.0 0.0 0.818181818181692 0.0 0.0 0.7272727272732319 0.0 0.0 0.6363636363647716 0.0 0.0 0.5454545454563112 0.0 0.0 0.4545454545473464 0.0 0.0 0.3636363636378772 0.0 0.0 0.2727272727284078 0.0 0.0 0.1818181818189385 0.0 0.0 0.09090909090946919 0.0 0.09090909090896898 0.09090909090941918 0.0 0.090909090909019 0.1818181818188343 0.0 0.09090909090906904 0.272727272728245 0.0 0.09090909090911906 0.3636363636376559 0.0 0.09090909090916907 0.4545454545470666 0.0 0.09090909090921906 0.5454545454560418 0.0 0.0909090909092691 0.6363636363645812 0.0 0.09090909090931915 0.7272727272731205 0.0 0.09090909090936916 0.8181818181816598 0.0 0.09090909090941918 0.9090909090905432 0.0 0.181818181817896 0.09090909090936916 0.0 0.1818181818180003 0.18181818181873 0.0 0.1818181818181045 0.2727272727280822 0.0 0.1818181818182088 0.3636363636374346 0.0 0.181818181818313 0.4545454545467867 0.0 0.1818181818184173 0.5454545454557722 0.0 0.1818181818185215 0.6363636363643909 0.0 0.1818181818186258 0.7272727272730095 0.0 0.18181818181873 0.8181818181816278 0.0 0.1818181818188343 0.9090909090905559 0.0 0.2727272727267802 0.09090909090931915 0.0 0.2727272727269429 0.1818181818186257 0.0 0.2727272727271057 0.2727272727279195 0.0 0.2727272727272684 0.3636363636372133 0.0 0.2727272727274312 0.454545454546507 0.0 0.272727272727594 0.5454545454555026 0.0 0.2727272727277567 0.6363636363642002 0.0 0.2727272727279195 0.7272727272728979 0.0 0.2727272727280822 0.8181818181815956 0.0 0.272727272728245 0.9090909090905686 0.0 0.3636363636356642 0.0909090909092691 0.0 0.3636363636358855 0.1818181818185215 0.0 0.3636363636361069 0.2727272727277567 0.0 0.3636363636363281 0.363636363636992 0.0 0.3636363636365495 0.4545454545462272 0.0 0.3636363636367708 0.5454545454552331 0.0 0.363636363636992 0.63636363636401 0.0 0.3636363636372133 0.7272727272727868 0.0 0.3636363636374346 0.8181818181815634 0.0 0.3636363636376559 0.909090909090581 0.0 0.4545454545445483 0.09090909090921909 0.0 0.4545454545448281 0.1818181818184173 0.0 0.4545454545451079 0.272727272727594 0.0 0.4545454545453876 0.3636363636367707 0.0 0.4545454545456675 0.4545454545459473 0.0 0.4545454545459473 0.5454545454549635 0.0 0.4545454545462271 0.6363636363638198 0.0 0.454545454546507 0.7272727272726756 0.0 0.4545454545467867 0.8181818181815315 0.0 0.4545454545470666 0.9090909090905936 0.0 0.5454545454536162 0.09090909090916907 0.0 0.5454545454538857 0.181818181818313 0.0 0.5454545454541551 0.2727272727274312 0.0 0.5454545454544246 0.3636363636365494 0.0 0.5454545454546942 0.4545454545456675 0.0 0.5454545454549635 0.5454545454546942 0.0 0.5454545454552331 0.6363636363636292 0.0 0.5454545454555026 0.7272727272725643 0.0 0.5454545454557722 0.8181818181814993 0.0 0.5454545454560418 0.9090909090906063 0.0 0.6363636363628676 0.09090909090911903 0.0 0.6363636363630581 0.1818181818182088 0.0 0.6363636363632483 0.2727272727272684 0.0 0.6363636363634387 0.3636363636363281 0.0 0.6363636363636292 0.4545454545453878 0.0 0.6363636363638195 0.5454545454544246 0.0 0.63636363636401 0.6363636363634387 0.0 0.6363636363642003 0.7272727272724531 0.0 0.6363636363643909 0.8181818181814671 0.0 0.6363636363645814 0.909090909090619 0.0 0.7272727272721191 0.09090909090906901 0.0 0.7272727272722306 0.1818181818181045 0.0 0.7272727272723415 0.2727272727271057 0.0 0.7272727272724528 0.3636363636361067 0.0 0.7272727272725643 0.4545454545451079 0.0 0.7272727272726756 0.5454545454541551 0.0 0.7272727272727868 0.6363636363632487 0.0 0.727272727272898 0.7272727272723418 0.0 0.7272727272730095 0.8181818181814351 0.0 0.7272727272731205 0.9090909090906316 0.0 0.8181818181813709 0.090909090909019 0.0 0.8181818181814027 0.1818181818180003 0.0 0.8181818181814349 0.2727272727269429 0.0 0.8181818181814671 0.3636363636358855 0.0 0.818181818181499 0.454545454544828 0.0 0.8181818181815315 0.5454545454538857 0.0 0.8181818181815634 0.6363636363630581 0.0 0.8181818181815954 0.7272727272722306 0.0 0.8181818181816278 0.8181818181814029 0.0 0.8181818181816598 0.909090909090644 0.0 0.9090909090906567 0.09090909090896898 0.0 0.909090909090644 0.181818181817896 0.0 0.9090909090906316 0.2727272727267802 0.0 0.909090909090619 0.3636363636356642 0.0 0.9090909090906063 0.4545454545445482 0.0 0.9090909090905939 0.5454545454536162 0.0 0.9090909090905812 0.6363636363628676 0.0 0.9090909090905683 0.7272727272721191 0.0 0.9090909090905559 0.8181818181813707 0.0 0.9090909090905432 0.9090909090906569 0.0
</DataArray>
      </Points>
      <Cells>
        <DataArray type="Int64" Name="connectivity" NumberOfComponents="1" format="ascii">
 0 4 44 43 43 44 45 42 42 45 46 41 41 46 47 40 40 47 48 39 39 48 49 38 38 49 50 37 37 50 51 36 36 51 52 35 35 52 53 34 34 53 33 3 4 5 54 44 44 54 55 45 45 55 56 46 46 56 57 47 47 57 58 48 48 58 59 49 49 59 60 50 50 60 61 51 51 61 62 52 52 62 63 53 53 63 32 33 5 6 64 54 54 64 65 55 55 65 66 56 56 66 67 57 57 67 68 58 58 68 69 59 59 69 70 60 60 70 71 61 61 71 72 62 62 72 73 63 63 73 31 32 6 7 74 64 64 74 75 65 65 75 76 66 66 76 77 67 67 77 78 68 68 78 79 69 69 79 80 70 70 80 81 71 71 81 82 72 72 82 83 73 73 83 30 31 7 8 84 74 74 84 85 75 75 85 86 76 76 86 87 77 77 87 88 78 78 88 89 79 79 89 90 80 80 90 91 81 81 91 92 82 82 92 93 83 83 93 29 30 8 9 94 84 84 94 95 85 85 95 96 86 86 96 97 87 87 97 98 88 88 98 99 89 89 99 100 90 90 100 101 91 91 101 102 92 92 102 103 93 93 103 28 29 9 10 104 94 94 104 105 95 95 105 106 96 96 106 107 97 97 107 108 98 98 108 109 99 99 109 110 100 100 110 111 101 101 111 112 102 102 112 113 103 103 113 27 28 10 11 114 104 104 114 115 105 105 115 116 106 106 116 117 107 107 117 118 108 108 118 119 109 109 119 120 110 110 120 121 111 111 121 122 112 112 122 123 113 113 123 26 27 11 12 124 114 114 124 125 115 115 125 126 116 116 126 127 117 117 127 128 118 118 128 129 119 119 129 130 120 120 130 131 121 121 131 132 122 122 132 133 123 123 133 25 26 12 13 134 124 124 134 135 125 125 135 136 126 126 136 137 127 127 137 138 128 128 138 139 129 129 139 140 130 130 140 141 131 131 141 142 132 132 142 143 133 133 143 24 25 13 1 14 134 134 14 15 135 135 15 16 136 136 16 17 137 137 17 18 138 138 18 19 139 139 19 20 140 140 20 21 141 141 21 22 142 142 22 23 143 143 23 2 24
</DataArray>
        <DataArray type="Int64" Name="offsets" NumberOfComponents="1" format="ascii">
 4 8 12 16 20 24 28 32 36 40 44 48 52 56 60 64 68 72 76 80 84 88 92 96 100 104 108 112 116 120 124 128 132 136 140 144 148 152 156 160 164 168 172 176 180 184 188 192 196 200 204 208 212 216 220 224 228 232 236 240 244 248 252 256 260 264 268 272 276 280 284 288 292 296 300 304 308 312 316 320 324 328 332 336 340 344 348 352 356 360 364 368 372 376 380 384 388 392 396 400 404 408 412 416 420 424 428 432 436 440 444 448 452 456 460 464 468 472 476 480 484
</DataArray>
        <DataArray type="UInt8" Name="types" NumberOfComponents="1" format="ascii">
 9 9 9 9 9 9 9 9 9 9 9 9 9 9 9 9 9 9 9 9 9 9 9 9 9 9 9 9 9 9 9 9 9 9 9 9 9 9 9 9 9 9 9 9 9 9 9 9 9 9 9 9 9 9 9 9 9 9 9 9 9 9 9 9 9 9 9 9 9 9 9 9 9 9 9 9 9 9 9 9 9 9 9 9 9 9 9 9 9 9 9 9 9 9 9 9 9 9 9 9 9 9 9 9 9 9 9 9 9 9 9 9 9 9 9 9 9 9 9 9 9
</DataArray>
      </Cells>
      <PointData>
        <DataArray type="Float64" Name="Mode_1_w" NumberOfComponents="1" format="ascii">
 0.024470700779449534 0.016014966770069566 0.024470405808370514 0.016014922867079204 -0.001972458007113598 -0.00016888809557729118 0.0010246635341815552 -0.0005555846387171491 0.0010273514780675028 -0.00040554611661904456 0.0009988993764369586 -0.0008190544850681932 0.0018291407927802093 -0.0032298169323307295 -0.00322982125814309 0.0018291444969717884 -0.0008190490567866478 0.0009989044007161307 -0.0004055554675165678 0.001027352130634832 -0.0005555785119830561 0.0010246529337252987 -0.00016889916421129611 -0.0019724317285354444 -0.001972433749857205 -0.00016889556610194336 0.001024654295316096 -0.0005555910404250661 0.0010273664955700004 -0.00040556820197859176 0.0009989182030329443 -0.0008190593182157872 0.0018291440034492092 -0.003229816108250522 -0.003229813307038588 0.0018291344904732185 -0.0008190373802745946 0.0009988935450669608 -0.000405567619530063 0.0010273726583982794 -0.0005556011562432241 0.0010246754941698334 -0.00016889283914570157 -0.001972455912015033 6.398556955123244 10.246785157577674 14.670157301667796 16.707719104916578 18.37179115552268 17.770327131006606 16.389870079186018 13.07904007549889 9.525084809759607 3.887787874496851 10.246788967278281 18.752268734892905 26.671853576591555 31.605618396660695 34.74205723945565 34.39501546277328 32.25208017917012 26.101754650152287 19.813322821441087 9.525084006173076 14.670165827564517 26.671877257155817 37.48358112763899 44.30893722423709 48.56143994376042 47.55857627129818 44.424397018532886 36.00774041430674 26.101757335424995 13.079033618218785 16.707749417633508 31.605663293810643 44.30895061960668 52.817031326844095 58.02474871972071 57.727320368865925 53.395645476348 44.424382807695295 32.25208734067719 16.389889592091325 18.37182702215868 34.74212563047489 48.561516604892866 58.02475068282753 62.86307511783909 62.7518663590382 57.72724985824507 47.55853622675384 34.39495596597394 17.77031936143786 17.77039633861513 34.39508127606466 47.55865963599855 57.72739554954734 62.75186513974948 62.86302792644498 58.02460123798502 48.5613139717534 34.741972609126876 18.371739036161948 16.38992200635901 32.25218855625502 44.42444766786633 53.39571070124911 57.72730580006654 58.0246045959504 52.81684560682295 44.308703837822705 31.60543465828036 16.707631074364397 13.079051975217942 26.101817968620654 36.00783579004506 44.42442403560903 47.55857416757479 48.561338098605404 44.308725985115935 37.48335163312079 26.671647740942184 14.670029061339422 9.52509618434535 19.81334210447296 26.101811561826427 32.25213665630393 34.394986253845865 34.74197505627751 31.60545205355308 26.671622957635297 18.752072794780663 10.246672977558559 3.8877992254829468 9.52510649355004 13.07906049835948 16.389902434566448 17.770336062052557 18.371746588551087 16.707648342606063 14.670036765431584 10.246670683855484 6.398479820424909
</DataArray>
        <DataArray type="Float64" Name="Mode_2_w" NumberOfComponents="1" format="ascii">
 1.833241649721667e-7 -0.044254262695659616 -3.367087838355595e-10 0.044253848510501625 0.0005127620675577 0.0002424848888680732 0.0007700516260836603 -0.0002507593240849443 -1.3388865620068522e-5 -0.0007911368697623574 -0.0016192367214338623 0.0005053503365899101 -0.0048516571835049566 0.008273150751392948 0.008273131584883396 -0.004851616983070259 0.0005053374690939635 -0.0016192537159877797 -0.00079112614934525 -1.3401710927455573e-5 -0.0002507721987346126 0.0007700642085255806 0.00024247831730557986 0.0005127790778634031 -0.0005127775317028327 -0.00024248102986644944 -0.0007700486764675495 0.00025076202983028285 1.3416079895267612e-5 0.0007911219831162341 0.0016192266995991883 -0.0005053093772292827 0.004851538880340492 -0.008273039126551859 -0.008273054685741752 0.004851572908541777 -0.0005053691766804331 0.0016192955338704832 0.0007910708375479531 1.3443677339540038e-5 0.00025074802478892316 -0.0007700290087325303 -0.00024249775492779147 -0.0005127787223784732 4.8899996647225205e-5 2.1034692119515355 6.710469753785007 14.220420732159884 22.23261887893322 29.531456727269138 33.04877795946376 31.303220116408944 24.82295518542658 10.834670442446809 -2.1033377669921256 0.00013638885069634446 6.540935450520911 19.737983924290884 35.04922288588001 49.317339522341285 58.71553960627732 56.702419563817564 48.64967276319379 24.822939491481012 -6.7102859803919515 -6.540611043936033 0.00021631669077504362 15.616733811249887 36.182543198303726 55.01896099345649 69.40212048551987 68.01769860693992 56.702383738514044 31.303215089571726 -14.22023440108905 -19.737618401327897 -15.616319831913394 0.0003071535153069977 23.574872884588242 46.31375656804567 64.73963828331233 69.4020709055751 58.715422264945246 33.04870280492641 -22.232472210380276 -35.04892399465848 -36.18225819563902 -23.574521335103242 0.00021953357864841347 26.007784249158835 46.31362176664621 55.01882398046034 49.317245441698034 29.531411907305184 -29.53144461282986 -49.31718624770385 -55.01867930277611 -46.31348809327989 -26.00758625708026 0.00012682489497974647 23.574691327810953 36.18231418617386 35.04901873814096 22.232542651372988 -33.04881184601607 -58.71565509427703 -69.4022632261777 -64.73959621124821 -46.3136377795668 -23.574721744789898 8.9834879595026e-6 15.616556103831398 19.737807395399905 14.220338319812145 -31.303395522654647 -56.70256797087215 -68.01801684541272 -69.40235796921573 -55.018934822911895 -36.1825120690873 -15.616638691133941 -7.600738515153552e-5 6.5408269879711955 6.710386778585667 -24.823188832792844 -48.65006594737437 -56.70269691288945 -58.71582301982962 -49.31742803538388 -35.04919361049583 -19.737858136983018 -6.540860530697398 -1.5622521817677945e-5 2.103416696160093 -10.834769297250832 -24.823174501365127 -31.303459179317155 -33.04894171460507 -29.531592848781706 -22.232645297494177 -14.220394626451844 -6.710397362864725 -2.103417678652349 0.0
</DataArray>
        <DataArray type="Float64" Name="Mode_3_w" NumberOfComponents="1" format="ascii">
 0.06884107554939735 1.206930757963392e-7 -0.06884109019500223 -1.0737037752879537e-7 -0.005165203486403337 0.0005124311869112467 0.0029034471752157776 -0.0005638441256592127 0.001782825538627369 -0.0006140605853858599 0.00011820675597309883 -0.0006001179516423443 -0.0005649555149003431 -3.379825515675548e-5 3.375017076078576e-5 0.0005650055942036541 0.0006000908973290728 -0.00011819569895303585 0.0006140771226469416 -0.0017828551906102477 0.0005638656142230111 -0.002903455591487962 -0.0005124265720772668 0.005165198402118854 0.005165201947848942 -0.0005124319799544926 -0.0029034321287391167 0.0005638215667231516 -0.0017828113799512769 0.0006140515904171966 -0.00011819861125858542 0.0006001033460999077 0.000564973226763762 3.3789738166958315e-5 -3.3755512967834826e-5 -0.0005650043099176433 -0.0006000680729354997 0.00011817178141816506 -0.0006140715947420523 0.0017828487688492504 -0.0005638601261641531 0.0029034540154212157 0.0005124342441316492 -0.005165203145211761 18.06804525809743 26.91622008622257 33.91792125746431 32.235348135646674 27.74660831527026 19.22499928540256 11.231850445652574 4.631312267643276 0.923580544412402 -2.6887206271846756e-5 26.916225638996206 47.04850122177648 58.48481016257125 58.85973699246344 49.62047384737372 35.42801925013359 19.369946031969846 7.511449632768069 -9.050355187157579e-5 -0.9236805588477744 33.91795037032077 58.48485206357481 69.95198922754147 68.43995419566008 53.963475620817555 34.79601885285487 13.657539651282448 -0.00022251094263870956 -7.5117608320207365 -4.631427550399738 32.235410925301224 58.85984093788143 68.43999063032079 65.55128870935982 46.67576796911605 24.3961677430219 -0.00023521227174398568 -13.657913174090789 -19.370300902451977 -11.23202718356807 27.746686127343743 49.62063575887648 53.96365724104189 46.67581669827765 24.00735537840767 -0.00013680015421332846 -24.396614667795713 -34.79643080408837 -35.42828084922474 -19.22516717561533 19.225136522533756 35.428196735997176 34.79624841331424 24.396401471477304 -8.81376878557209e-5 -24.007640206318104 -46.67599922521652 -53.963791170946905 -49.620720908332096 -27.74671497160424 11.232002344740604 19.37023324265034 13.657767022846919 2.8544797762311648e-5 -24.396382327187307 -46.675952955010594 -65.55150726817939 -68.44008488719732 -58.85989326805732 -32.23544773257725 4.631408691779683 7.5116890921868915 9.163169434430341e-5 -13.657689154349406 -34.79620663583884 -53.96360823411179 -68.44005550309707 -69.95208229167527 -58.48484945907375 -33.917956944963144 0.923687531499881 8.248044696794983e-5 -7.511509178729389 -19.37005026297934 -35.42811546326761 -49.62057801284151 -58.85979021907087 -58.48486119241906 -47.04853122687959 -26.91622550842417 2.9533073671187698e-5 -0.9235658819071302 -4.6313063304983215 -11.231895678753803 -19.225049066217814 -27.746648121616147 -32.235366947787675 -33.91792668762298 -26.9162178238956 -18.06804972855552
</DataArray>
        <DataArray type="Float64" Name="Mode_4_w" NumberOfComponents="1" format="ascii">
 0.08980483567174653 -0.06250074427014629 0.08980498213738573 -0.0625009959164448 -0.006219821041288329 0.0018620477693050365 0.003820674602111582 0.0004161172144551461 0.0008177723865386542 -0.0004517256086714491 -0.0036316737462423984 0.001279327034447313 -0.009036393914104464 0.01232137541802916 0.012321383750866206 -0.009036414176566072 0.0012793584717692885 -0.003631704880302314 -0.00045169655026398793 0.0008177402774383738 0.0004161339671407409 0.003820667965927299 0.0018620601912852973 -0.00621983178691446 -0.006219827992843331 0.0018620573569781934 0.0038206788560291335 0.0004161084839085609 0.000817775130191116 -0.00045171864720675037 -0.003631711195507087 0.0012793763645581988 -0.00903645576984178 0.012321430342542662 0.012321426951878649 -0.009036449795990746 0.0012793694476296252 -0.003631705628457932 -0.0004517275551219799 0.0008177930543921833 0.0004160992171107194 0.003820685477206178 0.0018620519167305688 -0.006219823738666628 23.660511305481585 32.64239805618419 34.82770782957186 22.956941547657063 4.9665635919818465 -15.603418800543391 -31.869178974785203 -37.52284228853644 -34.45658982095494 -15.218216245836414 32.642392445144736 55.44471084448104 59.40458646933365 47.076387445554055 15.814625961720923 -16.902392812543695 -51.365673842060254 -61.57055252140893 -63.98896001169792 -34.4565936867575 34.82771708641396 59.40459877560142 60.988617140372334 48.686904494009 14.221598329780981 -16.480732798271582 -53.22486567918173 -64.31560498900582 -61.57055634590851 -37.52284230668773 22.956985029214824 47.076455192712835 48.68691812108164 45.20261952477324 16.25775312781085 -9.104339387624346 -38.05003734896853 -53.224877965566435 -51.36568289473111 -31.869187870473535 4.966617239420365 15.81474867336855 14.22173616294556 16.25779886679873 9.729391837301748 0.24422221393069557 -9.104371320085212 -16.480770806797196 -16.902439507537487 -15.603436892976879 -15.603312865881277 -16.902241290709487 -16.48054326468819 -9.104150114956058 0.24424675972589271 9.729412980322373 16.2577501717384 14.221580779559234 15.814592635770623 4.966532578247958 -31.86903735324489 -51.365402597171716 -53.224653560343285 -38.04979272995676 -9.104180971617541 16.25779300793314 45.20263926308995 48.68691976870015 47.07640433986721 22.95693373225787 -37.522726145228745 -61.57029652073781 -64.31531259627349 -53.22465614001052 -16.480572010809347 14.221734451056818 48.68696890519852 60.988688017992715 59.40464446344453 34.82771871410422 -34.456459500259285 -63.98875377227468 -61.57030117443073 -51.36544289693278 -16.902273361720926 15.814697639769562 47.07649068433642 59.40464796110486 55.44480572955561 32.64243034404508 -15.218154569076258 -34.4564659256407 -37.52271763935841 -31.869057066672973 -15.603324798091899 4.966587584728786 22.956991651764547 34.8277486435498 32.64244092605286 23.66055037017043
</DataArray>
        <DataArray type="Float64" Name="Mode_5_w" NumberOfComponents="1" format="ascii">
 1.049123868401897e-7 1.3305811383570824e-8 7.460665370391791e-11 2.229307764906649e-8 0.002311661389575812 0.0002986973967950817 0.0015846655603011259 -0.0035656292651727235 -0.0011533031505805745 -0.004279119280416474 0.0006723893259728415 -0.0005486360241234225 0.0026725477865406472 6.983471016993743e-5 -6.984173954878355e-5 -0.002672539631418931 0.0005486256255028087 -0.0006723706334457387 0.004279108890003522 0.0011532952991958618 0.0035656330700504944 -0.0015846588739075736 -0.0002987050519672167 -0.00231165939087362 0.0023116591173817074 0.00029870223223768083 0.00158465597465384 -0.003565623891414106 -0.0011533087971364443 -0.004279091974693572 0.0006723721706935647 -0.0005486245155064651 0.0026725380933172475 6.983594132968787e-5 -6.984034082537745e-5 -0.0026725410259059875 0.0005486250420397317 -0.0006723763459972103 0.004279118435672264 0.0011532773629939373 0.003565661930953516 -0.0015846813078849475 -0.00029868796450366976 -0.0023116718414997995 2.796421073007206e-5 8.406013914552771 23.117366516195712 40.88561501255726 49.255087569643436 47.19485480746735 32.536904994080764 16.51167546581553 3.698840769157122 5.785656451569643e-6 -8.405951089034902 5.700301803717083e-5 21.349882965295905 53.911660014282425 73.01166091979381 73.86351604112151 51.09827788424798 22.545986971949688 2.8001301196477825e-5 -3.6988173174356724 -23.117306560613077 -21.349804707036707 3.674834744879694e-5 36.02637321943825 59.01498547324891 58.57456768330581 32.234372834974764 4.23297115237632e-5 -22.545860396583123 -16.51162681142155 -40.885550201919685 -53.91156528712935 -36.02635794242475 1.541943668082177e-5 27.711735868403903 27.734173511916712 3.042903290828331e-5 -32.23436919333238 -51.098165845710646 -32.53682466616136 -49.25507419595344 -73.01159823439801 -59.014978764721896 -27.71180905934012 -9.613387018487444e-6 -8.715250258450533e-5 -27.7341774554856 -58.574479762986506 -73.86339844339327 -47.194752233540314 -47.194844899806085 -73.86351723768765 -58.57453460298741 -27.734234608029354 -3.196439702727239e-5 -6.016414237699522e-6 -27.7118141952813 -59.01493937720085 -73.01153892476158 -49.2550041771241 -32.536880375354706 -51.098262351430556 -32.23438832240396 5.4254997374983495e-6 27.734111551025432 27.711738024847374 3.809467406441665e-6 -36.026332189549386 -53.911544203696714 -40.885515745411986 -16.511662053126695 -22.54593167490547 -1.4915743253616909e-5 32.23439952602554 58.57455303363356 59.01494920389666 36.02633389117657 4.294965875815393e-6 -21.349840593282096 -23.11730820864223 -3.698826541266626 1.5583537317933494e-5 22.54594348983837 51.09824960857114 73.86348968122387 73.01161047952236 53.911595566303475 21.34985589629139 2.1879849222682306e-6 -8.405967472442319 3.1327818749232803e-6 3.698842153577079 16.51167836800316 32.536901965957995 47.19483598516621 49.255058209278886 40.88555769326588 23.117328843534498 8.405971392463904 0.0
</DataArray>
        <DataArray type="Float64" Name="Mode_6_w" NumberOfComponents="1" format="ascii">
 0.10582322228951996 0.05922422616768357 0.10582318006900446 0.05922436411358139 -0.006775228163449619 0.0026955246573294733 0.0031320091732042078 -0.0012060453394638613 -0.0005917534465627885 -0.0011673122045185165 0.0010923175866304014 -0.00040345523431851256 0.00784579140259358 -0.010667750404348086 -0.01066774962455108 0.007845786052372681 -0.0004034409709367372 0.0010923048442442762 -0.0011673094170275974 -0.0005917505141086652 -0.0012060487978544508 0.0031320088178341306 0.002695526295454898 -0.006775228324003974 -0.006775227139709795 0.0026955178978804823 0.0031320187534981643 -0.0012060709140931842 -0.000591715052400173 -0.0011673387927456935 0.0010923325730961071 -0.000403459981279448 0.007845815573002448 -0.010667783433427735 -0.010667786560445319 0.007845824446925881 -0.0004034600525752473 0.001092322347656783 -0.001167323256056423 -0.0005917514472872804 -0.0012060438878269914 0.0031319970317729815 0.0026955361841002026 -0.0067752321065141655 27.96831299583085 36.824442912138245 37.58446178486055 28.494217105432774 22.373422137091342 22.49585279510074 27.893821889541318 32.745507523676004 30.962457425796266 14.568507382412331 36.82444455595853 58.9663002872005 55.368655235386036 40.38327791712106 22.917337214637538 22.30901356919765 34.64144529871527 46.72127044360316 53.29618696384524 30.96245892345273 37.584486182988144 55.368674037705134 41.800521049796814 15.84268971800386 -6.391994517258336 -10.083956431799999 12.637580812345961 34.435238581149484 46.72131281170544 32.745536637064795 28.494241014013223 40.38331743497532 15.842710540684914 -24.17276512764425 -53.03137827637898 -54.82955262113771 -26.726483125600556 12.637627370621866 34.64152244894085 27.89388247709911 22.373439440485026 22.917364197313468 -6.3919769586793445 -53.03142453920932 -87.5575656333886 -87.76800064651134 -54.829479111073915 -10.083831097498843 22.30916984720116 22.495933158767475 22.495858340445487 22.308998285653793 -10.083967124351412 -54.82957988965972 -87.76805962865302 -87.55756164633003 -53.03132388369059 -6.391899837406171 22.917494293456432 22.37352578056894 27.893789038510274 34.64138459715873 12.637457928300341 -26.726604728482958 -54.82957197460082 -53.031404248592104 -24.172707486544567 15.842768113914918 40.38336684588814 28.494274541301333 32.74543699152493 46.72116939683374 34.43513082331004 12.637449905394195 -10.083985402460172 -6.392005602631816 15.842690133166062 41.800535192650834 55.368700573203995 37.58449865755975 30.96237206697504 53.296035570654226 46.72115393964736 34.64135942199422 22.308987399540015 22.91736172546305 40.383301145364605 55.3686525969109 58.96629264000247 36.824439366802956 14.56847475711842 30.962374439516488 32.745442932258 27.89377445736915 22.495844954713416 22.373428476349908 28.494224604431867 37.58447141452961 36.82443353400501 27.96830173314609
</DataArray>
        <DataArray type="Float64" Name="Mode_7_w" NumberOfComponents="1" format="ascii">
 -6.352193598266291e-9 0.12149054766808318 9.465673031134387e-10 -0.12149052254517168 0.0027273613442651014 -7.358242627559337e-5 0.0008647298029962744 -0.005427664973994033 -0.0018869559935554782 -0.005370060136780369 0.0060178406399297325 -0.0019521183667084723 0.019472830313759112 -0.022642245210417723 -0.022642252806871783 0.0194728515283936 -0.001952149587223472 0.006017876406013826 -0.005370093139397051 -0.0018869366275752158 -0.005427674828695014 0.0008647382397087812 -7.358794584911988e-5 0.002727363853824834 -0.002727367289703232 7.359157885725058e-5 -0.0008647380665009434 0.005427674909771285 0.00188692918412185 0.005370112850692273 -0.006017909059762459 0.0019521730089369286 -0.019472852193262256 0.0226422455127319 0.022642239140622005 -0.01947283899320524 0.0019521485615240483 -0.006017880031834858 0.005370102474871623 0.0018869344270043492 0.005427667862815023 -0.0008647274297075348 7.358153793883078e-5 -0.002727362631183204 -1.838551945141192e-6 9.331605068014907 23.3774742090608 35.50417402827109 29.908105606944886 7.046569073596813 -29.384994193692307 -55.07373407823883 -61.990654981457915 -29.79812489489004 -9.33160324217851 -1.3363464744199908e-5 22.07253201391397 50.1289654595667 53.56547339896971 30.423355123376865 -25.396982237116255 -69.58140015275761 -100.39145674588171 -61.99066484271078 -23.37746355434752 -22.07254191953952 -4.4578533464143274e-5 35.0693411415991 48.95765247119328 37.41843976706708 -10.616433818703689 -48.19478977783636 -69.58144341985346 -55.07374818715478 -35.504161211822264 -50.12894371855861 -35.06935830699289 -7.371164945639154e-5 33.62009789415156 47.0546334992867 30.83268495101849 -10.616408877602769 -25.397041962152745 -29.385047021865375 -29.908079566891885 -53.56546386986721 -48.95761148103424 -33.62010558228829 -6.61266991983402e-5 17.76196132544751 47.054610574751685 37.41844295947506 30.423349880558085 7.046531334573732 -7.046506109311343 -30.42329826531276 -37.418454801539696 -47.05461648805151 -17.76195996223661 -4.3853452779211986e-5 33.62019349290871 48.957654154402206 53.565462112321654 29.90808283469896 29.385025632464128 25.39707367093195 10.616507959064139 -30.832696667125873 -47.05460708467188 -33.620160318006974 -3.253270747531746e-5 35.06942387237166 50.128965517775285 35.50416342948788 55.07378366707448 69.58142165966102 48.1948236982009 10.616459065293576 -37.418498037212395 -48.95762550857891 -35.069387635800375 -4.269936318596444e-6 22.07257624916555 23.37746559897199 61.99068000275349 100.3915198300612 69.5814170773467 25.39705577650116 -30.42336078867877 -53.56548984315235 -50.12895946312556 -22.072558070331407 -2.8352749105761493e-6 9.331610393821327 29.798130339288726 61.990684343352925 55.073766824345014 29.385026372174714 -7.046534225452819 -29.908089258831524 -35.50416867409646 -23.377463792412538 -9.331605089455852 0.0
</DataArray>
        <DataArray type="Float64" Name="Mode_8_w" NumberOfComponents="1" format="ascii">
 0.18950235128820558 -1.3225843814982349e-9 -0.18950234754152104 -1.5317948200216058e-8 -0.011081776420843731 0.007831521379427124 0.004626720014050185 0.0002989542745586174 -0.006100609456635063 -0.0011887277278787405 -0.006516902609683408 0.004124243686439791 -0.00047406427798219294 0.0017328691416727978 -0.0017328412750070615 0.00047403914978194113 -0.004124234557135031 0.006516900334374662 0.0011887307480534604 0.006100591028408606 -0.0002989385231773357 -0.004626727652317409 -0.007831523029032748 0.011081782150039032 0.011081779910721273 -0.00783153068311287 -0.004626707059878511 -0.0002989714263905081 0.006100640505479172 0.0011886930845036454 0.006516926305592483 -0.004124253935880163 0.0004740511988435445 -0.0017328493622489009 0.0017328627496908681 -0.00047406203138349924 0.004124249045466095 -0.006516903463157867 -0.0011887385216384214 -0.006100589479133151 0.000298940165458215 0.004626720152785142 0.007831532256842254 -0.01108178425789856 50.27210749440781 60.29609217156789 45.76953467576436 9.68072463557766 -24.95176296971593 -39.12662934793475 -36.536880243197125 -17.606632499392042 -5.791771053376524 -3.2475025422254835e-6 60.29607799105766 96.3062190378733 73.1966647919947 28.20907523877791 -34.51987333873476 -57.90519765420951 -57.35945864651778 -25.199414551697483 -2.2837358457681274e-5 5.79174475191869 45.76953100582996 73.19665069872937 45.676191461610294 8.688416646109294 -38.481379878434524 -48.01667953802903 -31.76707855629669 -4.114048614119177e-5 25.19937662612854 17.60660919640844 9.680726475100757 28.20908891020529 8.68840416347428 -12.676228491823759 -35.197562833876916 -32.74141215918085 6.75112412020681e-6 31.76707259861721 57.35939151741351 36.536865752752774 -24.951781225265645 -34.51987458267754 -38.48137087554039 -35.19759822455838 -16.340776952758816 2.0902919702710298e-5 32.74140123690784 48.016692494850325 57.905214820567615 39.12660452757345 -39.12663407820387 -57.905233696804004 -48.01668692674565 -32.741418698453906 -2.4428187294980032e-5 16.340819713425777 35.19760592771305 38.48136240122032 34.51989946706806 24.951794522889436 -36.53688588912443 -57.35946802791914 -31.76714175345785 -3.415571509644175e-5 32.741378027770125 35.197529416483846 12.676270906419413 -8.688366750728358 -28.209051535875393 -9.680716903489017 -17.606647746684985 -25.19942446867704 -5.062660258573757e-5 31.76699022145111 48.0166440730863 38.48131363650402 -8.688439256136856 -45.67619105134378 -73.1966289712315 -45.76951796431473 -5.791779942863444 -5.1407032523121767e-5 25.199357890159476 57.359340314851124 57.90511396534339 34.51980713191784 -28.20911152747182 -73.19669648847326 -96.30622335319806 -60.29607754147084 1.6435289751977216e-6 5.791736570665229 17.606599683674702 36.53683037642531 39.12656625045472 24.951712393406225 -9.680762145432993 -45.769560471277195 -60.296094543142445 -50.27210633744524
</DataArray>
        <DataArray type="Float64" Name="Mode_9_w" NumberOfComponents="1" format="ascii">
 0.13038221828748126 0.142549649001826 0.13038306072771585 0.14254965286438387 -0.006456255795172461 0.008428425446897845 0.0011346016837182928 -0.0004178361504875768 -0.01235668329830908 -0.0006079228828693918 -0.005676120030090731 0.003640734496635358 0.023553200308656874 -0.02537270102027495 -0.025372702590115932 0.023553162349423024 0.0036407677915457994 -0.005676111237256778 -0.0006078822145435138 -0.012356694685626671 -0.00041784165073226523 0.001134583019937891 0.008428466611509412 -0.006456297971058932 -0.00645629784017184 0.008428459448188888 0.0011346053305886685 -0.00041788323490858534 -0.012356641037503342 -0.0006079094998319524 -0.005676119766435262 0.0036407807603840428 0.023553166630509374 -0.025372712873102644 -0.025372705599724363 0.02355318046771108 0.0036407859089625585 -0.005676152642983982 -0.0006079425603388584 -0.01235663153761683 -0.0004178644429028551 0.001134606253681332 0.008428430819612429 -0.006456262306788751 34.79548927293672 35.49716476050259 10.16604524823409 -27.126913698169897 -52.08149634606725 -37.80570430835663 -2.634998892992002 47.00394945434965 68.5172226038765 35.105882368026045 35.49714887410321 59.79802732697455 30.297091897669354 -13.235744695374178 -72.20878464136638 -69.79294422532871 -21.539651026914335 35.84682675619564 101.87660378141899 68.51726825391063 10.16602537757465 30.297064268946617 20.699923339178138 9.80024674836419 -15.403278546076088 -50.81882456679549 -17.343423629006082 2.6646865557260395 35.84705027813802 47.00411055226317 -27.12694932749729 -13.235747516346319 9.800156428200603 14.38814057420372 33.60521584636905 5.7489958511840635 -21.954044452373196 -17.34335024178421 -21.539273971064983 -2.6347102931659627 -52.081580945694526 -72.20883204761586 -15.403212049720644 33.60508075692545 63.593610322831736 59.714993980147725 5.748892755380117 -50.81883685878001 -69.79263807178785 -37.80540246881949 -37.80572948991104 -69.79308736482528 -50.818829803330445 5.749143121570131 59.714842408302296 63.593206000406106 33.604746067221214 -15.403523527843198 -72.2086678060992 -52.081289764109734 -2.635009830151635 -21.539628645768047 -17.34357341350123 -21.954017160937074 5.749051184873277 33.60464346520584 14.38760104926444 9.7999388210842 -13.235691940788197 -27.126763316350303 47.00387957930421 35.846832046726114 2.664788004395914 -17.343472446498996 -50.81881505394499 -15.40345265384789 9.799863669682528 20.699818305809934 30.297270079877155 10.166234818249803 68.51719377090434 101.87650853354955 35.8471111712051 -21.539228523169545 -69.792716869221 -72.20869104041523 -13.235684021748273 30.297209774597437 59.79837070297889 35.49740790483493 35.105882842216865 68.51724794839745 47.00408867278909 -2.634701100074397 -37.80540450284207 -52.08134110530149 -27.12677073499025 10.166217394219029 35.49739983610432 34.795714289024396
</DataArray>
        <DataArray type="Float64" Name="Mode_10_w" NumberOfComponents="1" format="ascii">
 -6.24735144486037e-8 0.06586966322231454 -4.787554563184667e-10 -0.06586957385319056 -0.006868997013390566 0.0019192328889879766 0.00030085247448670177 0.009729436429484276 0.0002564442507524164 -0.00031868255478341884 -0.005843194879568351 0.0028774844291501985 0.00901775426347062 -0.011823390851945009 -0.011823400482524405 0.009017754557162052 0.0028774821674857087 -0.005843182697472065 -0.000318643960026679 0.00025641559175493094 0.009729427907182456 0.0003008594889723809 0.001919201687417436 -0.0068689685279485135 0.00686897061689423 -0.0019192106519309983 -0.00030084500230840325 -0.00972943187424984 -0.00025641132733249955 0.0003185954917893006 0.005843249502038985 -0.002877489914207848 -0.00901778727841983 0.011823424442793362 0.011823421318536913 -0.00901779049881931 -0.002877494488077742 0.005843281354979948 0.0003185785061111803 -0.0002563978828001899 -0.009729451851491936 -0.00030083553851315107 -0.0019192474935397265 0.006869005458023913 -1.65126425424482e-5 -21.299918631448037 -46.228075338894406 -61.2934131378985 -48.573690734150716 -29.18242015771768 -20.731177368968336 -31.80626208669191 -33.86129274636714 -16.13819746340315 21.299884067954046 -1.9159489604385027e-5 -41.145876872369314 -72.51350367938359 -60.696805420329085 -26.582816941202527 -2.6112972218087336 -14.84556104318061 -57.480494842121104 -33.8613078556126 46.228061505437914 41.14587313521017 3.342372528027189e-5 -22.566275440786146 -3.173839628717072 42.84016413297619 34.25863482231137 39.64008853218519 -14.845635956665753 -31.806313813222935 61.29339218089954 72.51348892661713 22.566294687958603 0.00013633988665405836 3.0652381789251235 90.18836429140059 88.1934447913983 34.2586166040561 -2.6113724300927728 -20.731253070139402 48.57364356485422 60.696831684712016 3.1737670224418792 -3.065310765596818 0.00022662432187841672 37.70681400159539 90.18833158134296 42.84008678827644 -26.582812283274418 -29.182443712089935 29.18232103267933 26.582693310301167 -42.83996622717715 -90.18859222492738 -37.70698550705066 0.00014867138654951694 3.0652481302412147 -3.173857167717794 -60.69678989827142 -48.573668801324395 20.731214029545256 2.611112992964855 -34.258769769759674 -88.19315679822468 -90.18849738277743 -3.065364331956931 5.700790976371352e-5 -22.56622628196996 -72.5134107786 -61.29333790640785 31.806284593116377 14.845724976212782 -39.64026128901731 -34.25872549006995 -42.83992570546444 3.1737953875348737 22.566203728410894 7.695353027825397e-6 -41.14576449534032 -46.22798267491997 33.861276897529706 57.4805389592616 14.845860380700751 2.6113431422220947 26.582781074225387 60.6967995842626 72.51341617740597 41.14577110769987 -1.2945498692440622e-6 -21.29983183903427 16.138225861708563 33.86131042536838 31.80637260118118 20.731356241581924 29.182444679635786 48.57364929174451 61.293339171707935 46.22800082886727 21.299835247578496 0.0
</DataArray>
        <DataArray type="Float64" Name="Mode_11_w" NumberOfComponents="1" format="ascii">
 -0.13512571211708577 -4.1959753448015225e-7 0.1351248881032908 -3.7456898999718424e-7 0.00620740725361357 -0.005429793632438461 0.0016178651949795594 0.0016511198933215501 0.0019609194663221885 -0.007545176784119571 -0.001974228405541055 -0.002602624623360552 0.004522913828271805 0.00047163684694918884 -0.0004714845605226564 -0.004523060290479214 0.0026026302850643435 0.0019742085621210393 0.007545229960601573 -0.001960857801137964 -0.0016511200892352829 -0.0016178892448368853 0.005429748410435849 -0.006207360742877222 -0.006207374606086671 0.005429748521988236 -0.0016178747328336345 -0.0016511097513845767 -0.001960847419504075 0.0075451915949802 0.001974238824104196 0.0026025934000478185 -0.0045230263454014066 -0.00047150243357314294 0.0004716212836500399 0.0045229180033220925 -0.0026026013359718336 -0.0019742448672669553 -0.007545180766632203 0.0019609297309842013 0.001651114353829822 0.0016178781513178425 -0.005429810284018697 0.006207416078000881 -36.09710802125145 -39.84065799376658 -31.84902964677068 -28.94972220577054 -39.312757755652164 -53.86044223547275 -48.42753343241896 -29.349105836865583 -7.525674991926626 -9.34354156265814e-5 -39.84064745713581 -52.9534241666084 -24.271046510335577 -11.692580564725965 -22.53459490526637 -57.8169769702161 -65.60089629916268 -38.7507205259311 -0.00026448900281936667 7.525330615989125 -31.84904077049362 -24.271034837831955 24.23379498208761 52.745553230149504 38.6168660243762 0.12323376531509313 -16.750507916947626 -1.2214828002741372e-5 38.75039977350579 29.34884916251542 -28.94974176550608 -11.692592220308956 52.74556654098067 95.8979805624849 76.64267246885852 16.17670423712702 -3.537997974891753e-5 16.75064818538787 65.60098736891058 48.42750349163958 -39.31278332908644 -22.534626893152048 38.61686798307887 76.64263268443236 68.74372223701586 -0.00011653181173766343 -16.176683026906574 -0.1230240432171411 57.81740309887763 53.86065699478448 -53.86045235192111 -57.81701070543493 0.12323885879975839 16.1767405787165 -0.00017260344409264372 -68.74422656967484 -76.64281924300691 -38.616709917309755 22.535081176827596 39.31310432356115 -48.427548527203555 -65.6008943298033 -16.75055744021195 1.0937473259452617e-5 -16.17669265055991 -76.64282017994384 -95.89807239045702 -52.74559103761556 11.69274606249643 28.949930664460673 -29.349160789727183 -38.750713206344344 3.4382563011099104e-5 16.750696538929947 -0.12301212317790329 -38.616830538987664 -52.745614858690494 -24.23389883406242 24.270908815809456 31.849001326394202 -7.525716920550515 -0.00032250286265163406 38.750435140545115 65.60105164169526 57.817475090407164 22.534962974832656 11.692577242164283 24.270786549517645 52.95306078986047 39.84044340101399 -0.00010317548808630221 7.525310705987039 29.348873309518343 48.427525370971736 53.860693350842915 39.3130747902399 28.94983826714749 31.848904592601222 39.84039686355968 36.09688863132577
</DataArray>
        <DataArray type="Float64" Name="Mode_12_w" NumberOfComponents="1" format="ascii">
 -0.0321934366398523 0.012986768011247924 -0.0321935468591861 0.012986129098047866 0.0016359286105147558 -0.0029594420055458325 0.003831096021809375 -0.0015433367244754813 -0.017979890313120903 0.054031729593627696 -0.058239569894970256 0.008681610870108948 0.03807967691928236 -0.03498559297490019 -0.034985606960109925 0.038079699754572705 0.008681561833579427 -0.0582394854472975 0.05403167012017319 -0.017979833199707362 -0.0015433849085195897 0.0038310923547587943 -0.0029594548370142633 0.0016359522591678154 0.00163595678671929 -0.002959463509346837 0.003831137400046554 -0.0015435401304246398 -0.017979554854157764 0.054031634755326734 -0.05824016548085903 0.00868263476111285 0.03807892216126656 -0.03498527171217207 -0.0349852602061759 0.03807888108717067 0.008682679881545328 -0.058240179474297576 0.05403166063088365 -0.017979550242819744 -0.0015435696887354541 0.0038311282624617486 -0.0029594663826433758 0.0016359708813255757 -8.591551812401496 -8.229961205484239 -3.5480289152120297 -5.675862407690504 10.609836399269781 29.863359716482595 -40.92646066580084 3.397244022250907 45.379377542584486 -1.7265415680736018 -8.229840652768397 -14.59817412665004 -1.0748140206006265 14.581068324730143 -47.68260211613133 36.198075290514524 71.60019299010673 -125.132634407754 42.693787504363684 45.37936461514877 -3.5477776424054186 -1.0747116337795835 -25.52239112359714 39.24160644885967 77.48523532195442 -173.83891719420075 80.1017503109607 87.32140135020828 -125.13276510478462 3.397142179858983 -5.675629609814496 14.5816449905857 39.24083018720442 -132.24570883862125 97.86112501481635 120.12815695735755 -242.68155402486684 80.10170625536897 71.60009434401974 -40.926573008789624 10.60972380797544 -47.68234784120625 77.48653324024998 97.85893507844999 -251.2100070655201 124.01351562370004 120.12814713578405 -173.8390430301863 36.197954009116955 29.863264395910264 29.863651344947023 36.19699052073942 -173.83900065676912 120.13033801069548 124.01038564342664 -251.21002131742256 97.86124446446158 77.48531735871663 -47.6825516626859 10.609827779424176 -40.92621966097424 71.60136148056796 80.09946114589954 -242.68164746414388 120.1304343009386 97.85894036469024 -132.24568749758132 39.241670110905694 14.581191975983181 -5.675776163064716 3.3965464866827784 -125.13255647624437 87.32317597226665 80.09946540958967 -173.838968192731 77.48658586512377 39.2408427569603 -25.522320418497884 -1.0747473775096184 -3.5479438271461783 45.379599288323426 42.69275640866977 -125.13244541953513 71.60151893479551 36.197010723430324 -47.68238459191369 14.581469619485603 -1.0748062817131006 -14.5982071569096 -8.229936245224986 -1.7264033615511307 45.37962513983681 3.3965976903458848 -40.92609608734503 29.863694831012065 10.60972544418993 -5.675740845698883 -3.5479096933944714 -8.229928997776684 -8.59158128481879
</DataArray>
        <DataArray type="Float64" Name="Mode_13_w" NumberOfComponents="1" format="ascii">
 -1.3630051412500923e-7 0.04966501247685826 -2.961296303235989e-10 -0.04966514450690968 -0.0003755823546529596 2.8413804219590672e-5 -0.0025324905175036537 0.013795677457187452 -0.02390376734227731 0.0033284302638914385 0.05302475453690474 -0.08598123196125457 0.06197874349743431 -0.025784202993282844 -0.025784214631365338 0.061978841691228366 -0.08598131420404116 0.0530246954553312 0.003328357277693019 -0.023903734513207566 0.013795749955870762 -0.0025324671251406947 2.847307142599622e-5 -0.00037567625244074986 0.0003756761574265885 -2.8458608225798497e-5 0.002532425710156994 -0.013795737979768501 0.023903967978340514 -0.003329039854051382 -0.05302392922302545 0.08598115644484264 -0.061979279037662295 0.025784629327922595 0.02578462468120022 -0.061979196817773655 0.08598110879108468 -0.05302403436795345 -0.0033290875404587217 0.0239039738542186 -0.013795610967803061 0.0025324186038900268 -2.8390026375382328e-5 0.0003755768391895005 -3.7661953472106015e-5 -1.4889312267992263 -5.6660135668452005 -3.8758111532289954 12.814720966684106 -27.026367502236713 -29.253524678812422 50.33610404426145 -17.70779484394597 -10.800432077122487 1.4888635354995188 -4.794271915677003e-5 3.133427486708572 -25.070343461399727 -11.657277662301636 81.87419495132289 -104.6083354341764 -17.311803027087006 85.744920818999 -17.707700613227903 5.665971116191343 -3.1335378021283997 0.00017568269244092036 66.42824116226495 -102.49515062233738 -6.161396552172537 173.8750884948616 -149.25095698100554 -17.311237350012807 50.336522753667516 3.8759155192997 25.070140616764895 -66.42870972975027 0.0008513162332000684 180.82215788994677 -187.27153425616544 0.9935535466671866 173.8752411928351 -104.60766041911857 -29.252925585180236 -12.814812112746537 11.658042785426941 102.49427978257164 -180.82345559128692 0.0015996056608052155 242.1881453023203 -187.27138435548883 -6.161244258886597 81.87444330532651 -27.0259948221947 27.02603176903555 -81.87467188174979 6.163676247941718 187.26984107062606 -242.1898676091379 0.001564773792506427 180.82189576340815 -102.4953191731849 -11.657686468139072 12.814631248430121 29.254040628572696 104.60739861777819 -173.87614393613705 -0.9904594263091548 187.26981026355782 -180.82306532404309 0.0008440358128965161 66.42797443447422 -25.070977983395828 -3.8762623501610167 -50.33614795548089 17.313328587027314 149.2497637822776 -173.87626671565354 6.163382645656851 102.49454554039185 -66.42836464931956 0.0002263451245342528 3.1329782258166423 -5.6664338642453576 17.70724819783762 -85.74539309691575 17.31278926198821 104.6068399784489 -81.87494994906845 11.658326345062678 25.07077308674067 -3.1330297670096834 2.368849479002891e-5 -1.4891592656423909 10.800459097214649 17.70715927591256 -50.33656311184096 29.25349024069642 27.025667430183827 -12.81474775971487 3.8763033979186985 5.666403389214287 1.4891446207698495 0.0
</DataArray>
        <DataArray type="Float64" Name="Mode_14_w" NumberOfComponents="1" format="ascii">
 -1.3331661282176264e-7 -2.4185544981038853e-7 -5.235678086025477e-10 2.6065560024979243e-7 0.010192806347471129 -0.004227540354517232 -0.0030893990112892122 -0.015467715059296798 0.0018166756486671168 0.006554281991362803 0.010376058673404196 0.005358471699673571 -0.00937330503108491 0.0006634005389216341 -0.0006632100988667365 0.009372809087088919 -0.005357738926611988 -0.010376586239171032 -0.0065541897765217854 -0.001816525007062597 0.015467614429637113 0.0030894141894997284 0.004227541324525309 -0.010192805787978335 0.01019280831957385 -0.00422754972063486 -0.0030893879965207664 -0.015467639681899042 0.0018164619611958578 0.006554356810476203 0.010376418507244004 0.00535781349853734 -0.009372779030783334 0.000663160427698075 -0.0006634606409725976 0.009373382526391335 -0.0053584878367283414 -0.010376112037494542 -0.0065542460198407294 -0.0018166748723581173 0.015467704588772162 0.0030894181485107354 0.004227518702156955 -0.01019279296543659 -3.556329026127464e-5 29.718793876040383 56.67269745969597 55.98373141367086 6.495293110865847 -46.69979643899362 -67.94389061152948 -46.44366328052062 -10.191017367762585 5.327523117222971e-5 -29.718864929790517 -4.739169513399021e-5 56.298563341752015 85.60776401463706 44.22686172346828 -41.35116757797797 -78.62674519494355 -65.9549802820618 -0.00027814820626296724 10.191297285839054 -56.67272728578537 -56.29858998736322 2.882133568867325e-5 26.43562182563456 28.201771809118302 -30.5787613814929 -19.60976388514639 0.0007096181872721867 65.95487524955675 46.44326315467254 -55.98375067943713 -85.60776173519756 -26.435528185855308 -4.372147713725218e-5 33.48736519098321 -13.718781887654767 -0.00017542588377856172 19.60851048760233 78.62761794377313 67.94396421491511 -6.49529488746541 -44.22691066736376 -28.20161612257582 -33.48720053500052 -0.00015504031430733985 -0.0008184145484258638 13.72075257933815 30.57854588844142 41.35040648487248 46.69994072339759 46.69977969656483 41.35113597614923 30.57850514938898 13.718923839659915 0.0009922600873124542 -0.0002498845552178735 -33.48861148335556 -28.20066462220549 -44.226974697434905 -6.495504517345256 67.94379894116268 78.62677743009189 19.60986671365199 -0.00022010271317660787 -13.720532340562157 33.48877616235217 -0.00016521486743792014 -26.43605979065584 -85.60756849571409 -55.98382754073124 46.443637124831014 65.95476277518037 -0.0005679238097307191 -19.608364947785535 -30.578891821225962 28.200821305928756 26.43615903904342 -5.232910297780928e-5 -56.29859478306032 -56.67269841424383 10.191084520686495 0.0003673812006637396 -65.95500746876982 -78.62741384616184 -41.35028308309414 44.226800047999845 85.60761792210212 56.298614466827246 -4.197948916027084e-6 -29.718835274590578 -5.6481645110257826e-5 -10.191213122722166 -46.44320190934336 -67.94400742944326 -46.699818939436156 6.49551011046183 55.983772720833805 56.67269554253277 29.71883635308898 0.0
</DataArray>
        <DataArray type="Float64" Name="Mode_15_w" NumberOfComponents="1" format="ascii">
 -0.2768719570833293 0.11023878463316962 -0.2768719303069193 0.11023890571163293 0.011188143535651564 -0.01620348524228088 0.005135433524429104 0.0005302972450887187 0.018102073055611675 -0.023703152311924585 0.017940654722815776 -0.01616671800844578 0.023714664081693034 -0.019243473885265983 -0.019243474902597986 0.023714658260782433 -0.01616670810377229 0.01794066830830837 -0.02370317163892866 0.01810207001281918 0.0005303111079097887 0.005135420298741427 -0.016203478769822775 0.011188142492478426 0.011188145281536827 -0.01620349593703201 0.005135436418970577 0.0005303259277539966 0.018102044412285925 -0.023703174033897493 0.017940752287931343 -0.016166868869025963 0.023714801895050545 -0.01924355005937511 -0.01924355529931541 0.0237148050524297 -0.016166857528906932 0.017940729905355078 -0.023703152439126515 0.018102034095625663 0.0005303313912376951 0.005135434488749733 -0.016203499705423847 0.011188149585385571 -74.24773397159734 -72.28118803818678 -28.425910694869106 11.975636884597037 24.724269840706196 4.511080802073175 23.311622539537385 30.594162361903834 48.81941989322282 27.338385936255367 -72.28118456581409 -105.55015130774235 -32.69375369469454 12.193143616999548 52.01154707339047 -9.490507314281048 -16.848749248918043 23.525609628193486 61.46033022856446 48.81940730070719 -28.42594364426269 -32.69372701247301 36.15771194077683 50.09020483056542 29.583142108959404 -5.896251121328493 -69.83813872238068 -52.215322392701616 23.52562063398193 30.59415128824046 11.975587350266792 12.193058161278636 50.09033845357418 84.54700286230981 19.067334375997707 -56.997270948577494 -51.29482677001406 -69.83816881457456 -16.848787151034877 23.311625146957002 24.724267169020003 52.011478980221696 29.58296240053553 19.067586573269462 36.586563189172715 -37.65178693808482 -56.997297279804684 -5.896205412539973 -9.490523944139142 4.511062411755741 4.511039599161808 -9.490388287680835 -5.896227515086015 -56.997515753417645 -37.651444607162894 36.586616038201946 19.067303128158766 29.583111163826846 52.01159267568429 24.724264884197193 23.31157334151836 -16.84892882074654 -69.83793499273561 -51.29476810911445 -56.99753901455025 19.067575541574747 84.54711505792658 50.090220462399905 12.193161193284194 11.975639221819996 30.594196510785782 23.52561596377355 -52.21553350657607 -69.83794467958532 -5.896179325195353 29.582909374169862 50.090324607521126 36.1577600280461 -32.69371265889319 -28.425899622229338 48.81932260337775 61.460369084690505 23.52565237403744 -16.84894979374402 -9.490402481023144 52.011503345860305 12.193043266313222 -32.693764316457255 -105.55014749543356 -72.28117391810966 27.33836270853447 48.819334817962435 30.594231656135936 23.31159472504865 4.511017506185122 24.724250527688884 11.975588183642145 -28.425952780851762 -72.28118317081827 -74.24772699861738
</DataArray>
        <DataArray type="Float64" Name="Mode_16_w" NumberOfComponents="1" format="ascii">
 9.471201716516076e-8 -0.1908088709459564 4.884400065225657e-10 0.19080885392338062 0.005970023641450792 -0.003190152921536927 -0.002402793790051735 -0.017456815487706594 0.018186039546210037 0.012305533433483933 -0.0128579368563358 0.035134130243934525 -0.06676319367464291 0.04935619470112305 0.049356210598154426 -0.06676321931994299 0.03513412525560509 -0.012857891109889366 0.012305480286824261 0.018186121578707557 -0.01745689148759813 -0.0024027764302075746 -0.0031901551329279352 0.005970030599448841 -0.005970033649187714 0.00319017212507989 0.002402745503391331 0.01745690873372369 -0.018186106945868093 -0.01230551585889943 0.0128579294725525 -0.03513416737476562 0.0667632452422355 -0.04935621850327485 -0.049356211922194006 0.06676321035890938 -0.035134130326400684 0.01285793189891167 -0.012305519277702825 -0.018186060240324396 0.01745683452427945 0.002402767708687069 0.0031901728907567273 -0.0059700319395554645 2.5388141532250253e-5 16.50651759235668 27.52508022100456 9.501231399080375 -48.461213331399605 -57.52098978951748 -21.79142799256244 22.786573661532465 96.38518050811658 45.06752348845822 -16.506475313139592 4.4138797856860085e-5 28.016134339495373 53.796209923822666 10.966079475517487 -110.1950652735092 -40.7280803488487 -34.78835756111778 97.8566452660159 96.38515956996572 -27.525080170198923 -28.016117917344395 9.900837998927378e-6 -26.47036781710844 89.25237223761017 3.547794434806958 -19.83183701023227 -6.829737073664924 -34.78849683662234 22.786462332116173 -9.501231040850092 -53.79622873611642 26.47034974082111 -3.814397776595428e-5 5.954607278520533 73.99599518519273 -15.523625699117837 -19.831885266849827 -40.728224291425995 -21.791555638150797 48.46120528735213 -10.966107593662054 -89.2523762212553 -5.954619765167946 -1.8534428558086465e-5 83.2304399363342 73.99600097312232 3.547734177790116 -110.19516309428462 -57.52109325047381 57.52100417689916 110.19507177221386 -3.5478276394823447 -73.99601185553612 -83.23040066572676 -9.455284173798091e-6 5.954727527693368 89.25241518648326 10.966170915104355 -48.46125467527661 21.791446914181783 40.728123741509066 19.83191333271734 15.523584010885624 -73.99595588974535 -5.954703044977203 6.952178761235695e-5 -26.470387052347604 53.79632959962565 9.501311425740552 -22.786546948219698 34.78832912391624 6.829769765539777 19.831878058069684 -3.5477359053289277 -89.252490379391 26.470370816854963 4.107934685854655e-5 28.01612044381861 27.52511821433677 -96.3851546916961 -97.85665289817689 34.788441749741764 40.72818818031353 110.19514846281753 -10.96614424793419 -53.796394383359385 -28.016141320918774 1.00925286801905e-5 16.50650831654239 -45.06752977460611 -96.38517209646766 -22.786514478919386 21.791525809808757 57.52104567546872 48.461243209592816 -9.501317259806555 -27.525155690879018 -16.50651766757338 0.0
</DataArray>
        <DataArray type="Float64" Name="Mode_17_w" NumberOfComponents="1" format="ascii">
 -0.1488350485899835 2.148864176698571e-8 0.14883495554000178 7.737073744424081e-8 0.004573301505279732 -0.010221265402585672 -0.0020222403570583146 0.007508907633682893 0.0481120353078357 -0.0805407802860942 0.05141515158766477 -0.011976497142491525 -0.011096724857957182 0.01026474612624781 -0.010264746306305323 0.011096720859500274 0.011976505668817397 -0.05141513757352995 0.08054073371749923 -0.048112015925183334 -0.007508881433586069 0.002022212382154488 0.010221273859175387 -0.004573300477794423 -0.00457330341648642 0.010221267710202046 0.002022244580791455 -0.0075089422475524475 -0.04811194500074949 0.08054067854770315 -0.05141508491012728 0.011976430362796876 0.011096784980006862 -0.010264778727551833 0.010264706354416618 -0.011096669697090613 -0.011976535154032913 0.05141516850017307 -0.08054076210763413 0.048111994779211714 0.007508934190251398 -0.0020222399281840577 -0.010221281573195618 0.004573311890258124 -40.14677328343402 -33.36833997965733 8.81004115397334 59.52443354664126 41.17216401757013 -53.18151997608056 1.0858439001723337 -5.485783698970669 -18.042183213496955 1.6366469462212888e-5 -33.36832368625351 -50.097099186739506 -15.928058557274287 0.3923176817396022 146.40412127518945 -2.6874655229158018 -114.76327205615837 15.309665727235744 3.416760743853102e-5 18.042286297027136 8.810037240028095 -15.928018193377882 58.51682897325718 -58.74532543005171 -114.02557763266421 143.80325865454793 -27.886658237431487 1.3569839668690394e-5 -15.309673193503837 5.48577681273291 59.52442105025111 0.3922981730452258 -58.74526231225861 166.63560796975148 -106.78445549715373 -81.88877026399123 4.84263323488741e-5 27.886581127719516 114.76329424546748 -1.0858361089893083 41.17218336272115 146.4041245409959 -114.02565027051233 -106.7843538199869 87.47360941809056 -0.00011694219286216197 81.88884594184466 -143.8031974177617 2.6873799534383047 53.18147327347901 -53.18154866269438 -2.6874208087148963 143.80326842605845 -81.88888479182124 4.8201252968994075e-5 -87.47358853679907 106.78432471374788 114.025663545216 -146.4040226061429 -41.17214410378226 1.085797835953686 -114.76336207269941 -27.88656425267581 2.4719363683834413e-5 81.8887437322486 106.784399357992 -166.63557024359076 58.74530512669723 -0.39233588861370466 -59.5244123167387 -5.48581467003126 15.309622082150598 -1.7570773768928033e-5 27.88672696513946 -143.80320837278688 114.02560788125903 58.74524144417151 -58.516724083107405 15.928075199706837 -8.810048269238225 -18.04224688577371 2.8871198027881896e-5 -15.309656997937468 114.76330590950396 2.687421560993499 -146.40406268238155 -0.3923451234370696 15.927966579613782 50.097087839168594 33.368308792021935 5.62626751908305e-6 18.042258990526484 5.485827297734133 -1.085822221503725 53.181484099346356 -41.17218221904997 -59.524397590516685 -8.810064502790278 33.36829548686546 40.146748515671334
</DataArray>
        <DataArray type="Float64" Name="Mode_18_w" NumberOfComponents="1" format="ascii">
 -5.67968253882967e-8 6.246706239379569e-8 1.530065399184122e-10 -7.042945565783976e-8 -0.00032315981363522116 -0.002451486822765325 -0.0030405578468358303 0.03454904498112483 -0.04799714113878595 -0.005999083862945471 0.07425902201771964 -0.08122903511890868 0.04696146101327233 -0.01702778580091304 0.017027785932227438 -0.046961484910322045 0.08122911094809145 -0.07425911867352003 0.0059991366579163026 0.04799713301863442 -0.03454904294868756 0.003040564947224297 0.0024514628365744405 0.0003231765789478607 -0.0003231774450243489 -0.002451458432681202 -0.0030405739961751927 0.03454907180582548 -0.04799719503855393 -0.005999062212405788 0.0742590303777369 -0.08122903049661102 0.046961455762039236 -0.017027787064392164 0.017027775753456327 -0.0469614555508297 0.08122906868130321 -0.0742591036690828 0.005999157724281854 0.047997109323262725 -0.034549037951051936 0.0030405683160564254 0.0024514779377607203 0.0003231610603556595 -1.550868625880761e-5 -4.6043663106725825 -20.244283755765164 -12.802709931396809 49.52003011742004 -6.92552653570778 -60.26378969612744 27.903277735530164 -6.7614878522242865 -2.021971939513218e-5 4.604347511837174 -2.3967908755113284e-5 13.304203126068273 -65.70223753608529 -34.646520507893115 156.91258749285666 -66.83613614139945 -42.95710263725647 9.53264174620705e-6 6.761477853407837 20.244296935356637 -13.304197060737229 -2.4466164895012042e-5 146.49283319131928 -160.3145214032923 -47.52845959634587 105.51751371966586 8.461160284313067e-6 42.956978329864896 -27.903276265228882 12.802725522228231 65.7022956353212 -146.49279551345262 -8.061392282265847e-5 209.43917744089603 -103.16373296464214 6.136474186075968e-6 -105.51740651770984 66.83617733007324 60.26375655386839 -49.52001454749273 34.646505253504856 160.31459654419788 -209.43919284414142 -5.3898623832128876e-5 -1.315318459088761e-5 103.16377413966163 47.528455223346604 -156.9126438749798 6.92554753999069 6.925560169791382 -156.91256014885266 47.52840249223026 103.16371814912296 -3.212413663891413e-5 5.149971053634833e-5 -209.43927042634255 160.31467608875533 34.646468344373055 -49.52009134567088 60.263729747024996 66.83612304717167 -105.5174578650653 9.079190150374431e-5 -103.16384882461209 209.43929606946674 -4.0234847176784265e-5 -146.49286325073587 65.70231542155123 12.80269999653694 -27.903288438491536 42.95701805255503 -0.0001102621963705231 105.5175402802505 -47.528423435580834 -160.31458625346528 146.49289874939575 -3.0434323421563016e-5 -13.304156064500264 20.24430829127536 6.761499916105945 7.933465680214526e-5 -42.957019326200985 -66.83622953355766 156.91259587575175 -34.646557168247135 -65.70228027244309 13.304152413631556 7.797481727044012e-7 4.604388300232698 1.6575820690027733e-5 -6.7614554941500105 27.903336967753585 -60.26378724838831 -6.925553804336779 49.52003181006713 -12.802724674321922 -20.244318410924183 -4.604390505192286 0.0
</DataArray>
        <DataArray type="Float64" Name="Mode_19_w" NumberOfComponents="1" format="ascii">
 -0.23969931003891867 -8.069569161602316e-9 0.23969935691592806 2.0081344518512006e-8 0.008198999597384297 -0.02694802897379011 0.030350471458368892 -0.00905083730632979 0.0016169270562494704 0.034776812480509886 -0.03841151486114778 -0.01181352589394744 0.023187117410520833 -0.008146739805977419 0.008146779276014225 -0.023187160472158748 0.011813522187766753 0.03841155805785348 -0.03477685619690663 -0.0016168902657765726 0.00905081298009442 -0.030350465639090954 0.02694803910242574 -0.008199008990469448 -0.008199000886119821 0.026948024849083724 -0.030350452857274633 0.00905079849767209 -0.001616878319344497 -0.03477685338841891 0.038411564647879266 0.01181347568744375 -0.02318709121099882 0.008146731226118704 -0.008146809364201146 0.02318723500070595 -0.011813637266858029 -0.03841145926637194 0.03477681963524969 0.0016168805142166797 -0.009050787654758504 0.030350444826375254 -0.026948028613433293 0.008199005137270975 -64.62614800696099 -46.13608765660867 25.022662428732243 39.195036470723565 48.58141810866794 29.05542242357801 -59.7136383712895 -57.10420499262848 -2.934162379127094 3.83517755742369e-7 -46.13606991362036 -96.3816083524429 7.706243102505751 81.47334958404588 0.567053128777292 15.805903802353846 23.626057687480653 -77.02614645329024 -1.6520111728183262e-5 2.9342268287495257 25.022677344144636 7.706341041018352 -61.60998602682246 44.01522842332014 86.53476345805183 -129.66365617474912 -13.570756337952679 8.907000148605267e-5 77.02601029028821 57.104136773354476 39.19501661299082 81.47330139443474 44.01548288605536 -174.71928819694557 20.98996114588527 36.93364770473348 -5.6831190226857377e-5 13.570769506894077 -23.625868922361576 59.713683700590295 48.58144375571633 0.566952014923875 86.53460117057455 20.990083743647336 -138.51012667235628 8.338264745561222e-6 -36.93357555799756 129.66362079324696 -15.805952895176786 -29.055389017764632 29.055409666351917 15.806012450396977 -129.66363859108353 36.93356980614886 3.6096523235088755e-5 138.5101192815675 -20.99004680437823 -86.53473943412031 -0.5669213884958109 -48.581398174431655 -59.71365938554323 23.625934414200184 -13.570790549658646 -1.5591597709618416e-5 -36.933567678763175 -20.990048901275085 174.71932607529826 -44.015467931967095 -81.47338034513491 -39.19501470428553 -57.104167127304564 -77.02603976542689 4.60889856766385e-5 13.570668859766117 129.66367906052724 -86.53475511459862 -44.01538002473565 61.61002230676015 -7.706303310635044 -25.022662526442787 -2.9342310049938845 -6.510928915930802e-5 77.02613467785086 -23.62593502557847 -15.805977243242408 -0.5669637476751719 -81.47338710114148 -7.706292131560991 96.38162522305875 46.13608654831511 8.503577267383559e-7 2.93417662893245 57.10415277729467 59.7136956777633 -29.055405403731896 -48.58141892505761 -39.195013302499625 -25.022661126384453 46.13609800593859 64.62616046273696
</DataArray>
        <DataArray type="Float64" Name="Mode_20_w" NumberOfComponents="1" format="ascii">
 -0.07223781604429345 -0.1612305660921272 -0.0722375442245008 -0.1612306292765913 0.0038973859855651236 -0.0156904563611976 0.03622275119444645 -0.02206096154016472 -0.04808423039216618 0.1031801001342954 -0.11277485080784884 0.1098549955464858 -0.08353364649030044 0.04084218834693794 0.040842159230659494 -0.08353356775026205 0.10985486940634541 -0.11277472701388319 0.1031800390997942 -0.04808426547043915 -0.022060857138574363 0.03622262769564992 -0.015690391293419686 0.0038973716665862608 0.0038974237300930126 -0.015690461836180475 0.03622260756807835 -0.022060702276140237 -0.048084508300298735 0.10318024635815903 -0.11277475472832367 0.10985469836856408 -0.08353330120741106 0.040841968997202986 0.04084195907035477 -0.08353328643466518 0.10985470009667749 -0.11277480220571381 0.10318033053008249 -0.04808456885209895 -0.022060707713221557 0.03622266219929717 -0.01569050100960648 0.0038974364599662346 -19.320021113840475 -10.89552472675278 5.510311325796645 -54.026934451560805 -38.32852746988813 46.05195201372347 -25.59421918669364 28.905258007916732 -60.052433078774456 -39.17769483132531 -10.8954150657325 -36.81578982564686 27.21538414362728 84.09370306290677 -152.5795336252899 21.17190838927113 -13.514597302737785 10.24267814120107 65.69158118414745 -60.05244545384075 5.510361301850361 27.21579458530387 -120.58191571232669 109.71721733681576 121.8659006811627 -50.870887613259896 108.45129416982401 -154.28416088406604 10.24273904882077 28.905267784337912 -54.02700740318975 84.09343673705693 109.7181881525298 -172.12590430067382 44.02621721748758 -106.76821536993833 114.11928016518102 108.45121606675565 -13.514628142718118 -25.594210102286254 -38.328362649988236 -152.57984181476743 121.86528096852871 44.02645645748439 54.144371378926984 -63.19573836717545 -106.76812225188486 -50.870856453359735 21.17199474691519 46.05190495662489 46.05181011826339 21.172237799403813 -50.87066482733248 -106.76824337254826 -63.19594129882928 54.14424436118233 44.02626108989592 121.8657126676609 -152.57948076943364 -38.32848838025528 -25.594272704518055 -13.515054734570656 108.45098849553958 114.11968479876565 -106.7680197460761 44.026406926475445 -172.12578001424808 109.71729526701199 84.09355385433204 -54.026921039237315 28.905373399977947 10.243206817250895 -154.2842585885973 108.4508862442831 -50.87062344184677 121.86536163675214 109.71792732700433 -120.58174132696091 27.215399719388586 5.510281455223495 -60.052631401166096 65.69136018653 10.243248971176362 -13.514920190617822 21.172126392924966 -152.5796824022816 84.093316272292 27.215693756403795 -36.81565590323529 -10.895472595497514 -39.17764794201675 -60.05262057920809 28.90531238250496 -25.59423035407508 46.05176301377547 -38.32840596813427 -54.02698916586962 5.510281499855699 -10.895382968536012 -19.31994826390235
</DataArray>
      </PointData>
    </Piece>
  </UnstructuredGrid>
</VTKFile>
