<?xml version="1.0" encoding="utf-8"?>
<VTKFile type="UnstructuredGrid" version="1.0" byte_order="LittleEndian" header_type="UInt64">
  <UnstructuredGrid>
    <Piece NumberOfPoints="121" NumberOfCells="200">
      <Points>
        <DataArray type="Float64" Name="Points" NumberOfComponents="3" format="ascii">
 0.0 0.0 0.0 1.0 0.0 0.0 1.0 1.0 0.0 0.0 1.0 0.0 0.09999999999981414 0.0 0.0 0.1999999999995569 0.0 0.0 0.299999999999265 0.0 0.0 0.3999999999989731 0.0 0.0 0.4999999999986921 0.0 0.0 0.599999999998945 0.0 0.0 0.6999999999992088 0.0 0.0 0.7999999999994725 0.0 0.0 0.8999999999997362 0.0 0.0 1.0 0.09999999999981414 0.0 1.0 0.1999999999995569 0.0 1.0 0.299999999999265 0.0 1.0 0.3999999999989731 0.0 1.0 0.4999999999986921 0.0 1.0 0.599999999998945 0.0 1.0 0.6999999999992088 0.0 1.0 0.7999999999994725 0.0 1.0 0.8999999999997362 0.0 0.8999999999995836 1.0 0.0 0.8 1.0 0.0 0.7000000000006938 1.0 0.0 0.6000000000013874 1.0 0.0 0.5000000000020595 1.0 0.0 0.400000000001665 1.0 0.0 0.3000000000012487 1.0 0.0 0.2000000000008325 1.0 0.0 0.1000000000004162 1.0 0.0 0.0 0.8999999999995836 0.0 0.0 0.8 0.0 0.0 0.7000000000006938 0.0 0.0 0.6000000000013874 0.0 0.0 0.5000000000020595 0.0 0.0 0.400000000001665 0.0 0.0 0.3000000000012487 0.0 0.0 0.2000000000008325 0.0 0.0 0.1000000000004162 0.0 0.09999999999987436 0.100000000000356 0.0 0.09999999999993456 0.2000000000007049 0.0 0.09999999999999476 0.3000000000010504 0.0 0.100000000000055 0.4000000000013959 0.0 0.1000000000001152 0.5000000000017226 0.0 0.1000000000001754 0.6000000000011431 0.0 0.1000000000002356 0.7000000000005454 0.0 0.1000000000002958 0.7999999999999471 0.0 0.100000000000356 0.8999999999995988 0.0 0.1999999999996845 0.1000000000002958 0.0 0.199999999999812 0.2000000000005774 0.0 0.1999999999999396 0.3000000000008519 0.0 0.2000000000000671 0.4000000000011267 0.0 0.2000000000001947 0.500000000001386 0.0 0.2000000000003223 0.6000000000008989 0.0 0.2000000000004498 0.7000000000003967 0.0 0.2000000000005774 0.7999999999998945 0.0 0.2000000000007049 0.8999999999996142 0.0 0.2999999999994634 0.1000000000002356 0.0 0.2999999999996618 0.2000000000004498 0.0 0.29999999999986 0.3000000000006536 0.0 0.3000000000000586 0.4000000000008574 0.0 0.3000000000002568 0.5000000000010494 0.0 0.3000000000004552 0.6000000000006547 0.0 0.3000000000006536 0.7000000000002484 0.0 0.3000000000008519 0.7999999999998417 0.0 0.3000000000010503 0.8999999999996293 0.0 0.3999999999992422 0.1000000000001754 0.0 0.3999999999995115 0.2000000000003223 0.0 0.3999999999997807 0.3000000000004552 0.0 0.4000000000000499 0.4000000000005882 0.0 0.4000000000003192 0.5000000000007125 0.0 0.4000000000005883 0.6000000000004104 0.0 0.4000000000008574 0.7000000000000999 0.0 0.4000000000011266 0.7999999999997891 0.0 0.4000000000013959 0.8999999999996446 0.0 0.4999999999990289 0.1000000000001152 0.0 0.4999999999993656 0.2000000000001947 0.0 0.4999999999997022 0.3000000000002568 0.0 0.5000000000000391 0.4000000000003192 0.0 0.5000000000003757 0.5000000000003757 0.0 0.5000000000007125 0.6000000000001662 0.0 0.5000000000010494 0.6999999999999513 0.0 0.500000000001386 0.7999999999997363 0.0 0.5000000000017226 0.89999999999966 0.0 0.5999999999991893 0.100000000000055 0.0 0.5999999999994334 0.2000000000000672 0.0 0.5999999999996777 0.3000000000000586 0.0 0.5999999999999219 0.4000000000000498 0.0 0.6000000000001662 0.5000000000000391 0.0 0.6000000000004104 0.5999999999999219 0.0 0.6000000000006547 0.6999999999998028 0.0 0.6000000000008989 0.7999999999996834 0.0 0.6000000000011432 0.8999999999996751 0.0 0.699999999999357 0.09999999999999476 0.0 0.6999999999995059 0.1999999999999396 0.0 0.6999999999996542 0.2999999999998602 0.0 0.699999999999803 0.3999999999997807 0.0 0.6999999999999513 0.4999999999997022 0.0 0.7000000000000999 0.5999999999996777 0.0 0.7000000000002484 0.6999999999996542 0.0 0.7000000000003967 0.7999999999996308 0.0 0.7000000000005455 0.8999999999996904 0.0 0.7999999999995252 0.09999999999993453 0.0 0.7999999999995778 0.1999999999998121 0.0 0.7999999999996306 0.2999999999996618 0.0 0.7999999999996834 0.3999999999995116 0.0 0.7999999999997363 0.4999999999993656 0.0 0.7999999999997891 0.5999999999994334 0.0 0.799999999999842 0.6999999999995059 0.0 0.7999999999998946 0.7999999999995779 0.0 0.7999999999999472 0.8999999999997057 0.0 0.8999999999997209 0.09999999999987436 0.0 0.8999999999997055 0.1999999999996845 0.0 0.8999999999996904 0.2999999999994635 0.0 0.8999999999996751 0.3999999999992422 0.0 0.89999999999966 0.4999999999990288 0.0 0.8999999999996446 0.5999999999991892 0.0 0.8999999999996293 0.6999999999993571 0.0 0.8999999999996142 0.7999999999995253 0.0 0.8999999999995987 0.899999999999721 0.0
</DataArray>
      </Points>
      <Cells>
        <DataArray type="Int64" Name="connectivity" NumberOfComponents="1" format="ascii">
 0 4 39 39 4 40 39 40 38 38 40 41 38 41 37 37 41 42 37 42 36 36 42 43 36 43 35 35 43 44 35 44 34 34 44 45 34 45 33 33 45 46 33 46 32 32 46 47 32 47 31 31 47 48 31 48 3 3 48 30 4 5 40 40 5 49 40 49 41 41 49 50 41 50 42 42 50 51 42 51 43 43 51 52 43 52 44 44 52 53 44 53 45 45 53 54 45 54 46 46 54 55 46 55 47 47 55 56 47 56 48 48 56 57 48 57 30 30 57 29 5 6 49 49 6 58 49 58 50 50 58 59 50 59 51 51 59 60 51 60 52 52 60 61 52 61 53 53 61 62 53 62 54 54 62 63 54 63 55 55 63 64 55 64 56 56 64 65 56 65 57 57 65 66 57 66 29 29 66 28 6 7 58 58 7 67 58 67 59 59 67 68 59 68 60 60 68 69 60 69 61 61 69 70 61 70 62 62 70 71 62 71 63 63 71 72 63 72 64 64 72 73 64 73 65 65 73 74 65 74 66 66 74 75 66 75 28 28 75 27 7 8 67 67 8 76 67 76 68 68 76 77 68 77 69 69 77 78 69 78 70 70 78 79 70 79 71 71 79 80 71 80 72 72 80 81 72 81 73 73 81 82 73 82 74 74 82 83 74 83 75 75 83 84 75 84 27 27 84 26 8 9 76 76 9 85 76 85 77 77 85 86 77 86 78 78 86 87 78 87 79 79 87 88 79 88 80 80 88 89 80 89 81 81 89 90 81 90 82 82 90 91 82 91 83 83 91 92 83 92 84 84 92 93 84 93 26 26 93 25 9 10 85 85 10 94 85 94 86 86 94 95 86 95 87 87 95 96 87 96 88 88 96 97 88 97 89 89 97 98 89 98 90 90 98 99 90 99 91 91 99 100 91 100 92 92 100 101 92 101 93 93 101 102 93 102 25 25 102 24 10 11 94 94 11 103 94 103 95 95 103 104 95 104 96 96 104 105 96 105 97 97 105 106 97 106 98 98 106 107 98 107 99 99 107 108 99 108 100 100 108 109 100 109 101 101 109 110 101 110 102 102 110 111 102 111 24 24 111 23 11 12 103 103 12 112 103 112 104 104 112 113 104 113 105 105 113 114 105 114 106 106 114 115 106 115 107 107 115 116 107 116 108 108 116 117 108 117 109 109 117 118 109 118 110 110 118 119 110 119 111 111 119 120 111 120 23 23 120 22 12 1 112 112 1 13 112 13 113 113 13 14 113 14 114 114 14 15 114 15 115 115 15 16 115 16 116 116 16 17 116 17 117 117 17 18 117 18 118 118 18 19 118 19 119 119 19 20 119 20 120 120 20 21 120 21 22 22 21 2
</DataArray>
        <DataArray type="Int64" Name="offsets" NumberOfComponents="1" format="ascii">
 3 6 9 12 15 18 21 24 27 30 33 36 39 42 45 48 51 54 57 60 63 66 69 72 75 78 81 84 87 90 93 96 99 102 105 108 111 114 117 120 123 126 129 132 135 138 141 144 147 150 153 156 159 162 165 168 171 174 177 180 183 186 189 192 195 198 201 204 207 210 213 216 219 222 225 228 231 234 237 240 243 246 249 252 255 258 261 264 267 270 273 276 279 282 285 288 291 294 297 300 303 306 309 312 315 318 321 324 327 330 333 336 339 342 345 348 351 354 357 360 363 366 369 372 375 378 381 384 387 390 393 396 399 402 405 408 411 414 417 420 423 426 429 432 435 438 441 444 447 450 453 456 459 462 465 468 471 474 477 480 483 486 489 492 495 498 501 504 507 510 513 516 519 522 525 528 531 534 537 540 543 546 549 552 555 558 561 564 567 570 573 576 579 582 585 588 591 594 597 600
</DataArray>
        <DataArray type="UInt8" Name="types" NumberOfComponents="1" format="ascii">
 6 6 6 6 6 6 6 6 6 6 6 6 6 6 6 6 6 6 6 6 6 6 6 6 6 6 6 6 6 6 6 6 6 6 6 6 6 6 6 6 6 6 6 6 6 6 6 6 6 6 6 6 6 6 6 6 6 6 6 6 6 6 6 6 6 6 6 6 6 6 6 6 6 6 6 6 6 6 6 6 6 6 6 6 6 6 6 6 6 6 6 6 6 6 6 6 6 6 6 6 6 6 6 6 6 6 6 6 6 6 6 6 6 6 6 6 6 6 6 6 6 6 6 6 6 6 6 6 6 6 6 6 6 6 6 6 6 6 6 6 6 6 6 6 6 6 6 6 6 6 6 6 6 6 6 6 6 6 6 6 6 6 6 6 6 6 6 6 6 6 6 6 6 6 6 6 6 6 6 6 6 6 6 6 6 6 6 6 6 6 6 6 6 6 6 6 6 6 6 6
</DataArray>
      </Cells>
      <PointData>
        <DataArray type="Float64" Name="v₁" NumberOfComponents="1" format="ascii">
 -8.354387849436116e-9 -1.5389541125712695e-9 -8.354387157834267e-9 -1.5389541177048785e-9 1.9054665615330218e-8 2.594517287665408e-8 -5.298741009753969e-9 -5.7691173684998095e-8 -9.693619230918088e-8 -9.657329898794778e-8 -5.565754914642373e-8 -3.580569964268068e-9 3.368260001258617e-8 2.742631047803128e-8 2.4671283168744654e-8 2.9073592310536078e-8 3.153807925114356e-8 3.3341838987980834e-8 3.282721664863837e-8 2.9816475271069174e-8 2.3890348083684985e-8 1.4363283591845847e-8 1.9054666123621375e-8 2.594517422037815e-8 -5.298740255189201e-9 -5.769117239336701e-8 -9.693619106547659e-8 -9.65732987319103e-8 -5.565755073917282e-8 -3.5805702642683145e-9 3.3682600196023186e-8 2.7426308941269478e-8 2.467128267301504e-8 2.907359088531344e-8 3.15380777887412e-8 3.334183626146796e-8 3.2827219895667336e-8 2.9816477068089025e-8 2.3890346534529944e-8 1.4363284287416461e-8 0.004346750180945853 0.0050498738564795954 0.0016873618429276381 -0.0036946589292260806 -0.008727097260436707 -0.011374646965162702 -0.010398322041273559 -0.006029794729238967 -0.0008429449398353664 0.0008777358810433807 -0.012258768508216297 -0.03442869254231382 -0.05751344085159164 -0.07378029211442694 -0.07755643663769779 -0.06659950912885443 -0.04342416944458348 -0.016407849404913098 -0.015806215197333662 -0.05836316303236395 -0.11121948243480614 -0.15784000382716745 -0.1847033391850846 -0.18343853066106897 -0.15263248779888225 -0.09920332223478918 -0.039392845387712844 -0.03913495172566588 -0.11435455164520097 -0.19610199481402063 -0.26057705143626186 -0.29083715549698164 -0.27850570454999407 -0.2252003443971474 -0.14324498516977072 -0.05604312385180557 -0.05595659668328587 -0.1495729276708942 -0.24318959245533125 -0.31031016930746724 -0.33454960948466733 -0.31031016831045743 -0.24318959091566772 -0.14957292634789696 -0.0559565960737837 -0.05604312396584198 -0.14324498530040972 -0.22520034407755368 -0.2785057033636128 -0.2908371533669117 -0.2605770485276941 -0.19610199185271227 -0.11435454952326697 -0.03913495086279467 -0.03939284516314766 -0.09920332155446009 -0.1526324863056683 -0.18343852833085852 -0.18470333607568346 -0.15784000018549382 -0.11121947917403047 -0.05836316087818301 -0.015806214393893212 -0.016407849170658646 -0.04342416868303202 -0.06659950773404974 -0.07755643458977834 -0.07378028953727167 -0.057513438129152814 -0.03442869029373759 -0.012258767085465869 0.0008777364182087267 -0.0008429447719692268 -0.006029794376890928 -0.010398321423400669 -0.011374646050024322 -0.008727096153235124 -0.0036946580324285065 0.0016873624353563141 0.005049874304164452 0.004346750388680594
</DataArray>
        <DataArray type="Float64" Name="v₂" NumberOfComponents="1" format="ascii">
 -9.782379820539791e-9 -1.8388420542827507e-8 9.782379708920727e-9 1.8388420798131936e-8 2.138255326486586e-8 -1.6615172317962803e-8 -6.059904872813942e-8 -7.091890437859319e-8 -3.105154603626457e-8 3.187432612582457e-8 7.012310162402204e-8 5.7005627477030776e-8 1.6723162737775453e-9 -8.976488060014455e-9 1.8473801931892659e-9 7.0240257719801705e-9 8.182968047530401e-9 6.195426977755806e-9 2.3332027034521363e-9 -3.0065403876020953e-9 -8.148688890158717e-9 -1.774743118163351e-8 -2.1382552615616803e-8 1.6615172114198413e-8 6.059904907595456e-8 7.091890434310667e-8 3.105154786203554e-8 -3.1874324903182347e-8 -7.012310021144595e-8 -5.70056274088535e-8 -1.672317477457915e-9 8.97648718537996e-9 -1.8473799030067935e-9 -7.024025861895866e-9 -8.182968995732282e-9 -6.1954271085422726e-9 -2.333203275642927e-9 3.006540166899933e-9 8.148687762125445e-9 1.7747431651647373e-8 -0.0010163168734158901 -0.009543769095762428 -0.02069639991876473 -0.0306556637794001 -0.036881136968162684 -0.03782397779431771 -0.03288584941749937 -0.022644735032121825 -0.00963216675736394 -0.014468606133588866 -0.04372519139510406 -0.07494011419189475 -0.09916306696845946 -0.11080785144913637 -0.10731425430970631 -0.08904555176995904 -0.05936330028430773 -0.025276559601617808 -0.029235936260192736 -0.07384988834974401 -0.115340487357444 -0.1428997616020013 -0.1510962669645856 -0.13905456320890597 -0.10981946114491145 -0.0697043906512212 -0.028173962555023874 -0.030349681772989825 -0.06850201814241462 -0.09825388469404588 -0.11237079406449244 -0.10930967451336589 -0.0917372616965282 -0.06511855197403822 -0.03623183272386441 -0.012060832308216916 -0.013160501259861573 -0.02267159205391643 -0.022974402349824365 -0.014208271347363178 1.5967932132683091e-9 0.014208274353537822 0.022974404775436892 0.022671593586962913 0.013160501873355775 0.012060832987968041 0.03623183428077438 0.06511855426045711 0.09173726436966521 0.10930967718255452 0.11237079642245114 0.09825388645397783 0.0685020191640279 0.030349682123574476 0.02817396302940832 0.06970439167474922 0.10981946258568884 0.139054564798647 0.1510962684166301 0.14289976276446734 0.11534048811738572 0.07384988872280017 0.02923593634541191 0.025276559753780403 0.059363300637635195 0.08904555229181062 0.10731425479646968 0.11080785178444698 0.09916306713478487 0.07494011419573694 0.043725191315722216 0.014468606037766632 0.009632166712071266 0.02264473504645299 0.03288584948030615 0.03782397777955286 0.03688113687138251 0.030655663631525276 0.020696399745425437 0.009543768922760813 0.0010163167994654027
</DataArray>
        <DataArray type="Float64" Name="v₃" NumberOfComponents="1" format="ascii">
 2.4053125117016897e-8 -3.619871408232632e-8 2.4053125243320442e-8 -3.6198714538658453e-8 -5.720405629502648e-8 3.782218690587183e-8 1.4175887882138018e-7 9.584009871388785e-8 -3.855608772187326e-8 -6.203231038138648e-8 5.105828920142492e-8 1.1867179162821252e-7 1.5756141878653323e-8 -2.098946670553557e-8 -1.7614875772760277e-8 -2.1948719449050996e-8 -3.0446128649171836e-8 -3.849212579858365e-8 -4.279525555128269e-8 -4.276291610869577e-8 -3.6910407058403224e-8 -3.900944713399122e-8 -5.7204056272781215e-8 3.782218591837817e-8 1.4175887917376945e-7 9.584009931064578e-8 -3.855608809923014e-8 -6.203231189447434e-8 5.1058287750552694e-8 1.1867179010119782e-7 1.5756142626763427e-8 -2.0989465312708927e-8 -1.7614875690668335e-8 -2.1948718266927004e-8 -3.044612752177581e-8 -3.849212293083842e-8 -4.2795258429973515e-8 -4.2762917586350756e-8 -3.691040547129231e-8 -3.900944780167236e-8 -0.0010825474659202318 0.013124416078459142 0.03431547323422625 0.0548216479564413 0.06875639464268962 0.07224775221830304 0.06374992231977764 0.04447213117304099 0.019454601975612155 0.03005933440925666 0.09021552455174257 0.15459235985008715 0.2036443407936724 0.22479110587345139 0.21321279827475495 0.17181806216239365 0.11044265897507481 0.04511759796469487 0.057912810639658016 0.14272028374295737 0.21925031906002035 0.2654792041241454 0.2711145489369668 0.23714919448172164 0.17408464496662032 0.0990909766047514 0.03315509871932602 0.0438039419727 0.10305464915201318 0.15163268549408102 0.17472430284926904 0.16779971903851199 0.13509502690151612 0.08726022299578502 0.03869038923768759 0.005041224253994595 0.009339925445346528 0.03483247462601177 0.06354631273271641 0.0849411426868959 0.0927561051440725 0.08494114196788607 0.06354631162851142 0.03483247374193407 0.009339925123314548 0.005041224767163747 0.03869039047225338 0.08726022449052019 0.13509502807744567 0.16779971958013715 0.17472430258427576 0.15163268474180092 0.10305464851479562 0.043803941776606244 0.03315509930531926 0.09909097776800102 0.17408464615857822 0.23714919533662385 0.27111454912861876 0.26547920347591836 0.2192503180855761 0.1427202829753372 0.05791281037770286 0.04511759832468675 0.11044265949015912 0.17181806254089682 0.21321279825182524 0.22479110531105068 0.20364433981225316 0.15459235882660696 0.09021552375442686 0.03005933401411105 0.01945460196442844 0.04447213115097516 0.06374992216199561 0.0722477518263615 0.06875639407667021 0.0548216475321074 0.03431547294823272 0.013124415717192327 -0.0010825476924056652
</DataArray>
        <DataArray type="Float64" Name="v₄" NumberOfComponents="1" format="ascii">
 -1.7472738677945692e-8 -3.1767416183993095e-8 1.7472738658534992e-8 3.176741617012032e-8 3.7214088645812356e-8 -1.2594323326530343e-7 -1.2639761533370393e-7 6.219589342892647e-8 1.2989579215012854e-7 -1.025792053782947e-8 -7.953400492450015e-8 2.4521622025275617e-8 5.724194433678978e-8 1.1921206549121501e-8 1.6297245539686793e-8 2.4478683533606516e-8 2.4787041267863766e-8 2.0209973378753957e-8 1.1346551713314427e-8 -4.802858214075203e-10 -9.492048945052093e-9 -3.267757153520219e-8 -3.7214088504349006e-8 1.259432331551837e-7 1.263976155256832e-7 -6.219589357253313e-8 -1.298957918808114e-7 1.0257920749984545e-8 7.953400630235657e-8 -2.4521621566110782e-8 -5.7241944909113077e-8 -1.1921206476925699e-8 -1.629724513659356e-8 -2.4478683397637753e-8 -2.4787041616810145e-8 -2.0209974158468627e-8 -1.1346551629687621e-8 4.802849646839951e-10 9.492048126832997e-9 3.267757241839751e-8 -0.010463917374888795 -0.03691574196833666 -0.06366858400400477 -0.08115150264061866 -0.0851441189513888 -0.07616127140352336 -0.05808557716812727 -0.03614958705763102 -0.015241696012092604 -0.04491895625272826 -0.10302851485418005 -0.1460149720679569 -0.16099199675978793 -0.1474046970295389 -0.11368114093758422 -0.07234537324981037 -0.03511718071975121 -0.009735377929244927 -0.03619931585842342 -0.06654764342717083 -0.07597766701786844 -0.06393777755372465 -0.038732671366109805 -0.011660655376444461 0.008058586165670616 0.015920488066287996 0.012015451402039568 0.013231275915830943 0.03497291407666437 0.05572586558957803 0.0668279117035892 0.06353038346604747 0.047527270396823834 0.026099832405380125 0.008220789930170946 -0.00034244393175975627 0.02979247068617997 0.052675648853253716 0.05493253716721807 0.034657645770860494 4.967798239300512e-11 -0.03465764564270486 -0.05493253700940539 -0.0526756487519369 -0.029792470644411515 0.0003424440906324656 -0.008220789562719674 -0.026099831910516885 -0.04752726989224255 -0.0635303830295964 -0.06682791132016584 -0.05572586527810944 -0.034972913884836074 -0.013231275842859002 -0.01201545109456381 -0.01592048744647407 -0.008058585341440544 0.011660656242639941 0.03873267209974854 0.06393777814905707 0.07597766747018407 0.06654764371385319 0.036199315970552697 0.009735378116975233 0.03511718110976462 0.0723453737976306 0.1136811414583901 0.14740469739396128 0.1609919970093692 0.14601497223834128 0.10302851496129548 0.044918956256257185 0.01524169599479759 0.03614958711987477 0.05808557730031841 0.07616127146739599 0.085144118893567 0.08115150255039784 0.06366858393180089 0.036915741864174456 0.010463917300674638
</DataArray>
        <DataArray type="Float64" Name="v₅" NumberOfComponents="1" format="ascii">
 1.5121921416455795e-8 6.933366536489802e-9 1.512192138768864e-8 6.933367721610369e-9 -4.2101913248928316e-8 -3.955555982119363e-8 9.481469280314085e-8 2.0430281895863245e-7 1.2451179090433438e-7 -9.403573508271392e-8 -2.184040194051875e-7 -1.2932852628557724e-7 4.56412434362173e-8 4.337171477802975e-8 4.246003034195201e-8 4.0827666569854306e-8 2.2877248538557312e-8 -2.792197902411486e-9 -2.621996752983404e-8 -3.713978674466615e-8 -3.289849806651006e-8 -1.8386290582847937e-8 -4.210191279234164e-8 -3.9555560470129146e-8 9.481469207024139e-8 2.043028190749532e-7 1.245117923631374e-7 -9.403573284373156e-8 -2.1840401937305966e-7 -1.293285280889996e-7 4.5641241948738945e-8 4.337171418904265e-8 4.2460030477872114e-8 4.082766633425947e-8 2.2877249213627142e-8 -2.7921990087444646e-9 -2.621996764310079e-8 -3.7139786527193986e-8 -3.289849688853586e-8 -1.8386290664399998e-8 -0.009481071667962025 -0.012297442759440912 -0.008068616233557197 -0.0021042013016988412 -0.00013375017041287004 -0.0041902218140643386 -0.010707389474348046 -0.012860645465166048 -0.006989123064107286 0.0032390389166861815 0.023422499993081974 0.03879872759934985 0.03056939100235856 -0.0054812891032213215 -0.05480284799354812 -0.09062784110688471 -0.08959676617247819 -0.049227255158768926 0.04466940767102256 0.1006892245894822 0.11828723120356194 0.07631570513688433 -0.01148133959426891 -0.10428422571099373 -0.15605122236195154 -0.14121637468553305 -0.07161402084507054 0.06945610239666837 0.1301080756326105 0.1338558407283324 0.0772049390382464 -0.008858883924768779 -0.08025321219656738 -0.10529845884491981 -0.08102606906831476 -0.032605277309406426 0.0364979427963753 0.05025795782418523 0.034210972008535484 0.007545270819138811 -0.004994299400086022 0.007545271512329956 0.03421097306317466 0.050257958771904206 0.03649794326632282 -0.032605277899352705 -0.08102607006576501 -0.10529845984220786 -0.08025321290913118 -0.008858884201476317 0.07720493913477733 0.1338558409381032 0.130108075773743 0.06945610241084355 -0.0716140209042397 -0.14121637458849817 -0.15605122204605854 -0.10428422543089386 -0.011481339495270112 0.07631570496534831 0.1182872307663601 0.100689224098655 0.04466940737380607 -0.04922725472676001 -0.08959676517695411 -0.09062783991550603 -0.05480284708871367 -0.0054812887241470955 0.03056939081328499 0.03879872699773883 0.023422499354151412 0.003239038555349809 -0.0069891227140434975 -0.012860644834899132 -0.010707388856012032 -0.0041902214283551405 -0.00013375006751783106 -0.0021042014712812983 -0.008068616591989899 -0.012297443133215269 -0.009481071832513783
</DataArray>
        <DataArray type="Float64" Name="v₆" NumberOfComponents="1" format="ascii">
 -1.1213397238391692e-8 6.089808462095969e-8 1.121339639813925e-8 -6.089808524105598e-8 2.3186060004964837e-8 -7.980348014396333e-8 -1.2887703421895708e-7 -2.381549739879965e-8 1.7482603891240278e-7 2.346022335142508e-7 3.761503761450345e-8 -1.7328466049237664e-7 -1.0114656780196104e-7 -1.562363393581689e-8 -1.45729610900977e-8 -1.3356418937240163e-8 -2.5789584550516423e-9 3.8747880001449446e-9 3.551056072437534e-9 -2.7320237018121627e-9 -8.679265872053982e-9 -2.166796047468495e-8 -2.31860590487255e-8 7.980348105971924e-8 1.2887703306063238e-7 2.381549608408048e-8 -1.748260395017629e-7 -2.3460223276001092e-7 -3.7615037548329907e-8 1.732846607603999e-7 1.0114656830603183e-7 1.56236337146592e-8 1.4572960768993752e-8 1.3356418192959485e-8 2.578958788914689e-9 -3.874787727950869e-9 -3.5510561149678588e-9 2.732023616751514e-9 8.679266171361141e-9 2.166796052465808e-8 -0.0059213426636457464 -0.019114777093127804 -0.024929094168557497 -0.015244508826577583 0.008818386453475737 0.03738908778315281 0.05642692694885486 0.054856213895842415 0.031408530914732585 -0.030537090702526203 -0.05992292074945961 -0.05975150607845761 -0.024223611603527075 0.0316873869944797 0.08159371703287233 0.10220355563130838 0.0854217151916852 0.042137862019190585 -0.03530193782512264 -0.05362590911107796 -0.04189803588765694 -0.01191804180763132 0.014105840624947212 0.019917120238071687 0.006124677266972907 -0.011366457955317861 -0.014592083900556625 0.0055070868141694875 0.03219512097369802 0.051621368371649955 0.0378516285169709 -0.014963044961938806 -0.08565139922888287 -0.13586544750693993 -0.13292568418437778 -0.07370530347166383 0.06396875780185518 0.13434696936119406 0.15325195562754929 0.10124308636062437 6.850612297589033e-12 -0.1012430864432727 -0.1532519558933452 -0.1343469697149177 -0.06396875802988956 0.07370530361740897 0.13292568454354348 0.13586544797313013 0.08565139952137908 0.01496304475999689 -0.037851629303200046 -0.051621369514208114 -0.03219512201998385 -0.005507087348038414 0.01459208417104284 0.011366458544114787 -0.006124676613971939 -0.01991711990481425 -0.014105840895314078 0.011918040971184464 0.041898034811302526 0.05362590822463261 0.035301937422711344 -0.04213786175733442 -0.08542171469422462 -0.10220355509229591 -0.08159371664426973 -0.03168738688809798 0.024223611460969092 0.059751505859114484 0.05992292061346717 0.030537090689972707 -0.031408530845380866 -0.05485621378564765 -0.05642692681704921 -0.037389087575667994 -0.008818386242019827 0.015244508985449151 0.024929094324031596 0.019114777278696978 0.005921342792999985
</DataArray>
        <DataArray type="Float64" Name="v₇" NumberOfComponents="1" format="ascii">
 4.001109242016605e-8 -1.1234713167627478e-8 4.001109270425262e-8 -1.123471377106169e-8 -9.610010566919403e-8 2.220468840359978e-7 1.7347109010741867e-7 -1.2745064715044444e-7 2.952441046266695e-9 1.5644522329907088e-7 -5.744047936380493e-8 -1.0387162704351203e-7 3.5047395531347506e-8 1.1026323505290154e-8 9.30809186809253e-9 7.111553154779133e-9 -6.284135443699084e-9 -2.698312698482889e-8 -4.775277158941195e-8 -6.103178592192018e-8 -5.532506927628377e-8 -6.394563214056112e-8 -9.61001050786169e-8 2.2204688405896777e-7 1.7347109057613443e-7 -1.2745064758060901e-7 2.952439844344008e-9 1.5644522269021685e-7 -5.744047968864666e-8 -1.0387162880052858e-7 3.5047395929366945e-8 1.10263249530886e-8 9.308092383974733e-9 7.111553287910024e-9 -6.284134478500119e-9 -2.6983125853216312e-8 -4.775277295400359e-8 -6.103178675398825e-8 -5.532506832772617e-8 -6.394563258987788e-8 0.0098546419005231 0.04763124869459589 0.08809360649513609 0.11202422095915028 0.11058166405647746 0.0868219005066523 0.05262092269267863 0.022072918818501243 0.00446099056741259 0.07322259203161983 0.1667303269712718 0.22697290031226908 0.22935632170187512 0.17883982665347697 0.10186492807248977 0.031058544446584815 -0.010145386600960468 -0.016249718328858374 0.05503785207348585 0.10623739521908267 0.12242084675303405 0.10097951849575901 0.05876669469203106 0.018041735530812817 -0.006166906049135211 -0.011650108386974027 -0.006149986600274622 -0.0007797155658504706 0.016095982959066512 0.04242827136540732 0.07220504201112658 0.09870563664426692 0.11335506977313826 0.10830368215822758 0.08112483447817716 0.03881368294507119 0.02229183256826863 0.0760910705308526 0.1388293778082926 0.18805536662730282 0.20661489556339302 0.18805536580560844 0.13882937652065722 0.07609106942673623 0.02229183208389141 0.03881368334865835 0.08112483547465595 0.10830368330168615 0.11335507045636792 0.09870563655564192 0.07220504108388903 0.04242826997856268 0.01609598180493561 -0.000779716045455989 -0.006149986089239846 -0.011650107232356679 -0.006166904779308304 0.01804173638852674 0.05876669483037881 0.10097951782184261 0.12242084573017943 0.1062373944321578 0.05503785182068886 -0.016249717889460925 -0.010145385777161038 0.03105854531657825 0.10186492866841271 0.17883982682183577 0.229356321473329 0.22697289991992028 0.16673032666537443 0.07322259185184951 0.004460990577012276 0.02207291888726989 0.05262092274788788 0.08682190051741168 0.11058166406387132 0.11202422105799523 0.0880936065947174 0.0476312485628701 0.00985464174306831
</DataArray>
        <DataArray type="Float64" Name="v₈" NumberOfComponents="1" format="ascii">
 4.097928877289934e-9 -2.7937881954862793e-8 -4.097928397503456e-9 2.7937885295903788e-8 2.393473850408976e-8 3.2647414761950994e-7 -1.1860534182970567e-7 -2.792183466324378e-7 1.1948382340734673e-7 3.365440452541105e-8 -2.1751041548499345e-7 -3.837767959726208e-8 1.014392498867495e-7 4.2564156689919135e-8 3.276031360207756e-8 1.8316418391322003e-8 -1.3254902815972883e-8 -3.899135918163729e-8 -4.627903547684681e-8 -2.9715603354888755e-8 -6.26711557969928e-9 4.032684664463898e-8 -2.3934741951301365e-8 -3.264741455628149e-7 1.1860534963137413e-7 2.7921834705007073e-7 -1.1948382961348312e-7 -3.3654402745056706e-8 2.1751042024766402e-7 3.8377672770417655e-8 -1.0143925471386474e-7 -4.256415653991992e-8 -3.276031242916699e-8 -1.831641600800105e-8 1.3254902915972364e-8 3.899135844830776e-8 4.627903528518114e-8 2.9715603013223864e-8 6.267114213039712e-9 -4.0326848594628854e-8 0.04025550030560398 0.09635861197531868 0.1288253524505383 0.12253962348103689 0.08516720609973683 0.03793109941404303 0.0015635301815752711 -0.014184694232296747 -0.011846246396280657 0.06907786103704802 0.1144957644086406 0.11199349513239099 0.07604866062486956 0.0376682495412384 0.019421390180323114 0.021580277110284676 0.026911704798857117 0.018893205673737104 -0.0299807005330608 -0.07778347398898694 -0.10491780084118763 -0.08414789648007762 -0.017676698397758775 0.06234282972184346 0.11332515222015746 0.10904146797005636 0.05711942910382777 -0.05819669434939993 -0.09214365292205146 -0.07253323374964352 -0.008935529653774732 0.06303506427969505 0.10587306329377985 0.10220284129888946 0.06254885296564998 0.017081096473936665 0.00541381849491946 0.007776865104905991 0.008849554520578352 0.006309997969111527 -6.230001765115777e-10 -0.006309999427085941 -0.008849556341339987 -0.007776866837665823 -0.005413819537225113 -0.017081096089405765 -0.06254885212785308 -0.10220284036229746 -0.10587306276721678 -0.06303506441974156 0.008935529026267774 0.07253323321019096 0.09214365287427803 0.05819669457118455 -0.05711942880013017 -0.10904146817876031 -0.11332515326405944 -0.06234283100608634 0.01767669804926901 0.08414789792665929 0.10491780395581159 0.07778347743399901 0.029980702558208127 -0.018893207690438712 -0.026911709134446432 -0.021580282498020516 -0.019421394573068632 -0.03766825137050818 -0.07604865958167618 -0.11199349232214509 -0.1144957617038017 -0.06907785978590465 0.011846244903068967 0.014184691607167043 -0.0015635328848853543 -0.03793110131135859 -0.08516720684239074 -0.122539623280728 -0.1288253519468464 -0.09635861172368144 -0.0402555004225594
</DataArray>
        <DataArray type="Float64" Name="v₉" NumberOfComponents="1" format="ascii">
 -3.4569434191305365e-8 -1.1633325647708606e-7 -3.45694350786741e-8 -1.1633325414929275e-7 9.29973755004035e-8 -9.713430234849566e-8 -2.847603145841727e-7 -3.8310564298159586e-8 2.2246178546838006e-7 -5.781274201132601e-8 -1.6672828908043605e-7 2.9436479014319125e-7 1.946447272742865e-7 -1.1393513588940592e-8 -4.310311018522956e-8 -5.276143140750865e-8 -4.9951104718092174e-8 -1.9975150790409963e-8 2.0624198844030242e-8 5.045231904380622e-8 5.2006621517862754e-8 4.528139422162372e-8 9.299737342377151e-8 -9.713432882448469e-8 -2.84760306038586e-7 -3.831054202007611e-8 2.2246177547720936e-7 -5.781274395933552e-8 -1.6672827143345817e-7 2.9436479190483544e-7 1.946447196416263e-7 -1.139351726552396e-8 -4.310311335319468e-8 -5.276143242474516e-8 -4.995110380257931e-8 -1.9975145640650155e-8 2.062420192480366e-8 5.0452322444282536e-8 5.2006620907520856e-8 4.528139178752208e-8 0.0048402507323107415 -0.007109863136594984 -0.017049129502192253 -0.006236142590306992 0.031228573520463977 0.08178705646085993 0.11772775709769659 0.1132523797923946 0.06368106126472244 -0.047395217579727776 -0.10191688840617774 -0.10361350468638952 -0.031067871889298892 0.08913100218592977 0.19791284302370532 0.2387633555165435 0.19179857719293517 0.08766016421570186 -0.07833636060834856 -0.13467316986112032 -0.12275593159042954 -0.05244033268567029 0.03039844453643268 0.07859767260536688 0.07359437424592559 0.03337836416783228 -0.002816996585979767 -0.012907625102964568 -0.006348095114687706 0.01438492176855738 0.030694898174053988 0.029627321939634386 0.01357463910494641 -0.004385073342016393 -0.01257364586041091 -0.008806916883278537 0.03894867103590737 0.07072785629898246 0.08487265617914508 0.0858254591524127 0.08434135046792622 0.0858254586530871 0.08487265546431737 0.07072785563970502 0.03894867055462389 -0.008806918444328994 -0.012573651214639266 -0.004385081946583992 0.013574630318162108 0.029627316692659722 0.030694898671119124 0.014384927375381107 -0.006348087874917612 -0.012907620489647099 -0.002817001182896434 0.033378355468943195 0.0735943652463467 0.07859766794902229 0.030398446294330448 -0.052440325848326245 -0.1227559232307841 -0.13467316374607555 -0.07833635827572431 0.08766016290105386 0.19179857521659327 0.23876335396325044 0.19791284161585823 0.08913099903235785 -0.031067878329911945 -0.1036135139272787 -0.10191689776836763 -0.04739522313255697 0.06368106218469241 0.11325238082050902 0.11772775682895235 0.08178705311094783 0.031228566217415838 -0.006236152694888801 -0.017049139778815354 -0.007109870655418732 0.004840247650369233
</DataArray>
        <DataArray type="Float64" Name="v₁₀" NumberOfComponents="1" format="ascii">
 4.795209940252911e-9 8.02576095510523e-8 -4.795209595960171e-9 -8.025760932552355e-8 -2.0296251965763593e-8 -5.3161688916019125e-8 -4.600326266910473e-8 1.6304534036090282e-7 1.2406120493985951e-7 -1.3197948603196634e-7 1.533756740302215e-7 1.5942829793498264e-7 -2.31445881973528e-7 -7.749899725002079e-8 -6.883433981746248e-8 -6.711543418282746e-8 -3.4291317393755625e-8 -1.4268655652203082e-9 1.8975784417178415e-8 2.100416460587342e-8 1.1891897195543141e-8 -1.1153387477588147e-9 2.029625275516383e-8 5.316169029953408e-8 4.600326274073139e-8 -1.6304533947798652e-7 -1.2406120617318223e-7 1.319794855599869e-7 -1.5337567373194117e-7 -1.5942829966756105e-7 2.3144588090110246e-7 7.749899755192148e-8 6.883433968807646e-8 6.711543360777851e-8 3.4291318701991957e-8 1.4268661474573577e-9 -1.8975785409137833e-8 -2.100416482151677e-8 -1.1891896117326381e-8 1.115337863621073e-9 -0.007675224525294127 -0.009060842856774195 0.008117365373642382 0.04398127916042302 0.08544749670283042 0.1129836678229976 0.11235406138568149 0.08329425235445768 0.03919728607061503 -0.01227175105832132 -0.00605659148152612 0.02153048056732297 0.05300416763066636 0.0645001353734498 0.04479045191740819 0.0055603870250722385 -0.025842206296650804 -0.026932527093283764 0.005124561891400331 0.02740957250527063 0.04029744839724849 0.02152727817496543 -0.029248377928327608 -0.08731510747575973 -0.11830907912112898 -0.10210668698035168 -0.04905865925106134 0.051899630347032044 0.10875452074751209 0.12998206847894403 0.10575267270563342 0.05445185143405648 0.006135561386351732 -0.017529266138353563 -0.014537748669971562 -0.0007302751880162833 0.03605720057885905 0.06666186560083823 0.06970784015262978 0.04359044839691958 -6.811743687741693e-10 -0.04359044970406493 -0.06970784124906197 -0.06666186633605209 -0.03605720089219697 0.0007302749307410275 0.014537748120137636 0.017529265439501812 -0.006135562058619665 -0.05445185197830905 -0.10575267307255766 -0.12998206866738257 -0.10875452079409198 -0.05189963030585672 0.049058659047325585 0.10210668643222963 0.11830907831692149 0.0873151066586722 0.029248377412518897 -0.02152727829554519 -0.040297448245961064 -0.027409572280019355 -0.005124561745797576 0.02693252650412274 0.025842204873875785 -0.005560388998941547 -0.04479045375283998 -0.06450013645654186 -0.05300416789708752 -0.021530480299249446 0.006056591895052092 0.012271751352367324 -0.039197286527350154 -0.08329425332320434 -0.11235406253672255 -0.11298366852906881 -0.08544749675226221 -0.04398127885802406 -0.008117364964486782 0.0090608432741255 0.007675224756117318
</DataArray>
        <DataArray type="Float64" Name="v₁₁" NumberOfComponents="1" format="ascii">
 -3.902039021336758e-8 -3.957852443689032e-8 -3.902038975484678e-8 -3.9578524611545486e-8 5.3988454284889e-8 -5.251622112375712e-7 2.6094382373161e-7 -5.899052004615032e-8 -2.623988913258745e-7 2.56626764612169e-7 -8.456034434440012e-8 2.451759856771374e-9 1.1262883857861162e-7 1.8084330049678847e-8 -1.0755476273714043e-9 -8.665098058297362e-9 -1.0639735917038996e-8 9.27162105564821e-9 4.5398440431400705e-8 8.25312892004877e-8 8.607138766820266e-8 1.0209455195947972e-7 5.3988453485084065e-8 -5.251622115274888e-7 2.6094382448242783e-7 -5.8990521686835854e-8 -2.6239888969491077e-7 2.566267667407138e-7 -8.456034509891974e-8 2.4517615314333657e-9 1.1262883867715566e-7 1.808432974928263e-8 -1.0755485345679899e-9 -8.665098190471698e-9 -1.063973627751446e-8 9.271620695172746e-9 4.539844144073201e-8 8.253129126721369e-8 8.607138526503289e-8 1.0209455301687441e-7 -0.04764809944665686 -0.13463832191709488 -0.19828056318467122 -0.20309056707485607 -0.1513218308530962 -0.07388475251223016 -0.008004062316045939 0.02343251795591854 0.020069834906431064 -0.1129178958757908 -0.20692369428312965 -0.22158819451845377 -0.1630934586250973 -0.07654303554255595 -0.00778260487306487 0.022336735523193874 0.02040739316268141 0.006634978512021027 0.008344585709215199 -0.0018939242767078257 -0.029616756703354234 -0.06872373982400477 -0.10182810905047607 -0.10988450072092487 -0.08760132141158986 -0.04852528451885603 -0.0145771298165528 -0.04544715178084575 -0.13540506388644188 -0.21475736603553788 -0.23725661761556036 -0.19026021119115286 -0.1008646702845928 -0.016123038319521835 0.028114230689569766 0.026436825488513935 -0.05079625026953037 -0.08234242482970235 -0.07698034646176502 -0.05265817976302097 -0.03974809208796326 -0.05265817878097323 -0.0769803449798354 -0.08234242359863735 -0.05079624975252506 0.026436824857804485 0.028114229398785103 -0.016123039675801958 -0.10086467107986416 -0.19026021126995216 -0.23725661713647242 -0.2147573653440136 -0.13540506340198147 -0.04544715167827314 -0.014577130123677208 -0.04852528524785773 -0.0876013221211211 -0.10988450101772759 -0.10182810884863472 -0.06872373910585337 -0.029616755764576164 -0.0018939235707017168 0.008344585936575378 0.006634978042822065 0.020407392175566308 0.022336734400203912 -0.007782605691045893 -0.07654303578418292 -0.16309345825124286 -0.2215881937390576 -0.20692369353216292 -0.11291789538473593 0.020069834741504523 0.023432517602103797 -0.008004062711647608 -0.07388475283790918 -0.15132183111008257 -0.2030905672784878 -0.19828056318769197 -0.1346383215370249 -0.04764809911511539
</DataArray>
        <DataArray type="Float64" Name="v₁₂" NumberOfComponents="1" format="ascii">
 -5.834923275398788e-8 1.2952526567024776e-8 5.8349233246993894e-8 -1.2952527973576318e-8 2.5580462060694435e-7 1.1178751190858214e-7 -3.581351493562415e-7 2.0553097804089627e-7 -2.0747346578811306e-7 -1.5632644574199718e-7 1.802673587083563e-7 -1.8839607050653738e-7 1.32921822681783e-8 4.6489259999968094e-8 6.266685388770572e-8 5.5373030430515916e-8 1.2867161368121246e-8 -4.270059891336764e-8 -7.798409985325904e-8 -7.057397085802678e-8 -2.821385752376469e-8 2.240718692804049e-8 -2.558046221711722e-7 -1.1178751145230655e-7 3.5813514845833686e-7 -2.0553097522371792e-7 2.074734640433221e-7 1.5632644522659756e-7 -1.8026735639553358e-7 1.8839606879623648e-7 -1.3292179497566036e-8 -4.648925919873705e-8 -6.266685378755184e-8 -5.5373030472246695e-8 -1.2867162169352289e-8 4.2700598270713573e-8 7.798410035402844e-8 7.05739707745652e-8 2.8213857056379917e-8 -2.2407187833598492e-8 0.0707500274086456 0.13403779498514654 0.14616404756926515 0.10920753079183708 0.0554102191237457 0.017687266702208684 0.006732801327456317 0.009918865820789194 0.008963809581858048 0.010177739957668588 -0.013825093174346662 -0.0451604105500263 -0.0450872082649267 -0.0012179754443231673 0.060886787501326936 0.09932998985358556 0.08973796623424299 0.04332265477701152 -0.057909971411865914 -0.09012702183658806 -0.06548965472112289 -0.0001422225616937095 0.06190344755724896 0.08437787762694075 0.06336879665166378 0.023929935451189748 -0.0029204355939553388 0.005534055357486125 -0.0008048437678443419 -0.008511356315972426 -0.009311937758114076 0.003537327607579619 0.030145802990523687 0.05804623844659872 0.06590352262829072 0.04082633518598237 -0.06370367817722253 -0.13942671519711478 -0.16358579522827027 -0.10978675478791738 6.788378728952092e-10 0.1097867558626291 0.1635857956401372 0.1394267151266661 0.06370367800158055 -0.040826334921747545 -0.06590352145576044 -0.05804623612532697 -0.030145799945668367 -0.0035373245561302192 0.009311940215034776 0.008511358035303191 0.0008048448387559324 -0.005534054887468524 0.0029204360878842387 -0.023929934179894485 -0.06336879486674694 -0.08437787593818932 -0.06190344645179123 0.0001422230432194111 0.06548965489625184 0.09012702187529914 0.05790997139514173 -0.043322654536009565 -0.0897379652142913 -0.09932998821724152 -0.0608867856951597 0.0012179769451954705 0.045087209369221656 0.04516041136806455 0.013825093659035278 -0.010177739799080147 -0.008963808685160127 -0.009918863976754538 -0.006732798963950205 -0.017687264488678252 -0.055410217500722364 -0.10920752967634274 -0.1461640468402954 -0.13403779467679391 -0.0707500273982763
</DataArray>
      </PointData>
    </Piece>
  </UnstructuredGrid>
</VTKFile>
