<?xml version="1.0" encoding="utf-8"?>
<VTKFile type="UnstructuredGrid" version="1.0" byte_order="LittleEndian" header_type="UInt64">
  <UnstructuredGrid>
    <Piece NumberOfPoints="289" NumberOfCells="512">
      <Points>
        <DataArray type="Float64" Name="Points" NumberOfComponents="3" format="ascii">
 0.0 0.0 5.304113922668053e-9 1.0 0.0 4.878404228438387e-9 1.0 1.0 5.3041109959840155e-9 0.0 1.0 4.878408063741141e-9 0.06249999999987291 0.0 -8.391708023573099e-11 0.1249999999997731 0.0 2.5656471643904397e-9 0.1874999999995934 0.0 2.5336786254866145e-9 0.2499999999994109 0.0 2.4152041023570646e-9 0.3124999999992285 0.0 1.5426954962682583e-9 0.3749999999990461 0.0 3.882663055165918e-10 0.4374999999988636 0.0 -7.317826257426312e-10 0.4999999999986921 0.0 -1.4676522582548544e-9 0.562499999998846 0.0 -1.6368523056323897e-9 0.6249999999990109 0.0 -1.2533754332795478e-9 0.6874999999991758 0.0 -5.406451275881185e-10 0.7499999999993406 0.0 2.4122088877505103e-10 0.8124999999995055 0.0 5.927035392500239e-10 0.8749999999996703 0.0 1.0956372979951503e-9 0.9374999999998351 0.0 -1.0295661811490955e-9 1.0 0.06249999999987291 -1.827991242031158e-8 1.0 0.1249999999997731 3.936267734112724e-8 1.0 0.1874999999995934 -4.255220952845108e-8 1.0 0.2499999999994109 1.58434954531687e-8 1.0 0.3124999999992285 5.468126999583114e-9 1.0 0.3749999999990461 -1.2524406815604417e-8 1.0 0.4374999999988636 2.1339890388938824e-8 1.0 0.4999999999986921 -2.5470094133103375e-8 1.0 0.562499999998846 2.0466677432453366e-8 1.0 0.6249999999990109 -8.157192727454492e-9 1.0 0.6874999999991758 -4.906126591674048e-9 1.0 0.7499999999993406 1.7076324247985476e-8 1.0 0.8124999999995055 -2.857540150047167e-8 1.0 0.8749999999996703 3.380490473773776e-8 1.0 0.9374999999998351 -2.7710528187193098e-8 0.9374999999997398 1.0 -8.391635457804125e-11 0.8749999999995012 1.0 2.5656456265566898e-9 0.8124999999999132 1.0 2.5336768813884736e-9 0.7500000000003471 1.0 2.4152016598989893e-9 0.6875000000007805 1.0 1.5426934998653284e-9 0.625000000001214 1.0 3.882650215553394e-10 0.5625000000016476 1.0 -7.31783680984409e-10 0.5000000000020595 1.0 -1.4676527444230814e-9 0.437500000001821 1.0 -1.636851560698495e-9 0.3750000000015609 1.0 -1.2533746054625018e-9 0.3125000000013007 1.0 -5.406430366464221e-10 0.2500000000010405 1.0 2.412223347427974e-10 0.1875000000007804 1.0 5.927052904056678e-10 0.1250000000005203 1.0 1.0956386740801604e-9 0.06250000000026013 1.0 -1.0295661181457918e-9 0.0 0.9374999999997398 -1.827992452401138e-8 0.0 0.8749999999995012 3.936267467297698e-8 0.0 0.8124999999999132 -4.255220011715745e-8 0.0 0.7500000000003471 1.5843506344072927e-8 0.0 0.6875000000007805 5.468118406926495e-9 0.0 0.625000000001214 -1.2524417415437706e-8 0.0 0.5625000000016476 2.1339892668994496e-8 0.0 0.5000000000020595 -2.547008219919496e-8 0.0 0.437500000001821 2.0466681216375547e-8 0.0 0.3750000000015609 -8.157204079221035e-9 0.0 0.3125000000013007 -4.9061309334821914e-9 0.0 0.2500000000010405 1.70763321554126e-8 0.0 0.1875000000007804 -2.857539005168148e-8 0.0 0.1250000000005203 3.3804899110366303e-8 0.0 0.06250000000026013 -2.7710539975566046e-8 0.06249999999989712 0.06250000000023592 0.02234408715998078 0.06249999999992131 0.1250000000004736 -0.02265126823714354 0.06249999999994552 0.1875000000007062 0.02028177056012447 0.06249999999996972 0.2500000000009386 -0.010332391220886144 0.06249999999999392 0.3125000000011712 0.0011132710115263748 0.06250000000001812 0.3750000000014037 0.0058010801975121665 0.06250000000004233 0.4375000000016362 -0.012487954775119442 0.06250000000006653 0.5000000000018491 0.017322407935707898 0.06250000000009073 0.5625000000014725 -0.015662438046529673 0.06250000000011494 0.6250000000010764 0.00609571435967192 0.06250000000013914 0.6875000000006801 -0.007356219126951555 0.06250000000016331 0.750000000000284 -0.0052924317215578085 0.06250000000018752 0.8124999999998876 0.03442951215303434 0.06250000000021172 0.874999999999512 -0.03131541511977304 0.06250000000023592 0.9374999999997459 0.009732092444895694 0.1249999999998198 0.06250000000021172 0.03976206158245882 0.1249999999998665 0.1250000000004269 -0.03718239201570893 0.1249999999999132 0.187500000000632 0.03345574916925297 0.1249999999999599 0.2500000000008368 -0.017785207770187307 0.1250000000000066 0.3125000000010417 0.001867819115116762 0.1250000000000533 0.3750000000012464 0.010970974767086989 0.1250000000001 0.4375000000014513 -0.02140138122991281 0.1250000000001467 0.5000000000016386 0.027950234386385563 0.1250000000001934 0.5625000000012973 -0.026025878967831963 0.1250000000002401 0.6250000000009387 0.009185269139068752 0.1250000000002867 0.6875000000005799 -0.011836598847874745 0.1250000000003335 0.750000000000221 -0.00780701935244813 0.1250000000003802 0.8124999999998621 0.057616814490385165 0.1250000000004269 0.8749999999995223 -0.05163916600239618 0.1250000000004736 0.9374999999997516 0.015022713323646474 0.1874999999996675 0.06250000000018752 0.046964923386957846 0.1874999999997418 0.1250000000003801 -0.03794339905728342 0.187499999999816 0.1875000000005579 0.03499601692898462 0.1874999999998901 0.250000000000735 -0.01960736705036541 0.1874999999999643 0.3125000000009122 0.0024307395978051807 0.1875000000000385 0.3750000000010893 0.013169292607996364 0.1875000000001127 0.4375000000012665 -0.023808420620917155 0.1875000000001869 0.5000000000014281 0.02862510154288726 0.1875000000002611 0.5625000000011223 -0.02795789324581658 0.1875000000003352 0.625000000000801 0.007443787017548432 0.1875000000004095 0.6875000000004798 -0.01280860518623613 0.1875000000004837 0.7500000000001584 -0.005745279647906025 0.1875000000005578 0.8124999999998368 0.0637365155658785 0.187500000000632 0.8749999999995329 -0.05442753823470181 0.1875000000007062 0.9374999999997577 0.012618787465712756 0.2499999999995128 0.06250000000016331 0.04182995338627849 0.2499999999996147 0.1250000000003335 -0.02387610986574382 0.2499999999997164 0.1875000000004836 0.02424449789473715 0.2499999999998184 0.2500000000006332 -0.014981781750965775 0.2499999999999202 0.3125000000007827 0.003105869688569506 0.250000000000022 0.3750000000009321 0.011002875929031824 0.2500000000001238 0.4375000000010816 -0.01890970462054412 0.2500000000002258 0.5000000000012177 0.01926225501414271 0.2500000000003276 0.5625000000009472 -0.02130430204132669 0.2500000000004294 0.6250000000006634 0.0011527262224922201 0.2500000000005313 0.6875000000003794 -0.010613564223298148 0.2500000000006331 0.7500000000000955 0.0008263522476614691 0.2500000000007349 0.8124999999998113 0.052342477588183965 0.2500000000008367 0.8749999999995436 -0.03903009932385665 0.2500000000009386 0.9374999999997636 0.0025125955108730373 0.312499999999358 0.06250000000013914 0.02608587044961801 0.3124999999994875 0.1250000000002867 0.0009379293699851676 0.3124999999996171 0.1875000000004095 0.004820409780241529 0.3124999999997466 0.2500000000005312 -0.005191685813332233 0.3124999999998761 0.3125000000006531 0.004034723218199196 0.3125000000000056 0.375000000000775 0.004581742891578682 0.3125000000001351 0.4375000000008968 -0.008341839361091473 0.3125000000002647 0.5000000000010071 0.0029746911166818385 0.3125000000003941 0.5625000000007719 -0.008787459229116976 0.3125000000005236 0.6250000000005257 -0.007535946572533469 0.3125000000006531 0.687500000000279 -0.006394945108755139 0.3125000000007827 0.7500000000000325 0.010034360981236357 0.3125000000009122 0.8124999999997857 0.02831058296181487 0.3125000000010416 0.8749999999995541 -0.010786294984804441 0.3125000000011713 0.9374999999997697 -0.011993505598503386 0.3749999999992032 0.06250000000011494 0.004718730110076345 0.3749999999993604 0.1250000000002401 0.0284794256107564 0.3749999999995176 0.1875000000003352 -0.016432650621731423 0.3749999999996748 0.2500000000004294 0.006845052915986405 0.3749999999998321 0.3125000000005236 0.005003920450146481 0.374999999999989 0.3750000000006178 -0.004410219412868713 0.3750000000001463 0.437500000000712 0.004301438071020172 0.3750000000003035 0.5000000000007966 -0.014932285508699858 0.3750000000004607 0.562500000000597 0.005038915772033639 0.3750000000006179 0.6250000000003879 -0.015501593791329924 0.375000000000775 0.6875000000001785 -0.0016440022143297433 0.3750000000009321 0.7499999999999697 0.018856376607681708 0.3750000000010893 0.8124999999997604 6.603472275390582e-5 0.3750000000012465 0.8749999999995648 0.02089924280954236 0.3750000000014037 0.9374999999997755 -0.025478919706276526 0.4374999999990484 0.06250000000009073 -0.01570250769285978 0.4374999999992333 0.1250000000001934 0.04939689910590822 0.4374999999994181 0.1875000000002611 -0.03166641229504338 0.437499999999603 0.2500000000003276 0.01755142841627241 0.4374999999997878 0.3125000000003941 0.005456058718700652 0.4374999999999726 0.3750000000004607 -0.013229888179668968 0.4375000000001574 0.4375000000005271 0.014624034709227232 0.4375000000003423 0.5000000000005861 -0.02866467894293478 0.4375000000005272 0.562500000000422 0.015398734545401504 0.4375000000007119 0.6250000000002504 -0.019859735669592527 0.4375000000008968 0.6875000000000783 0.0023154318010107826 0.4375000000010817 0.7499999999999066 0.02417209035750274 0.4375000000012664 0.8124999999997349 -0.023246903789070312 0.4375000000014513 0.874999999999575 0.045780293957845636 0.4375000000016361 0.9374999999997813 -0.032408318322170004 0.4999999999989027 0.06250000000006653 -0.02921385780524716 0.4999999999991129 0.1250000000001467 0.05617262884664712 0.4999999999993235 0.1875000000001869 -0.0346992724183147 0.4999999999995339 0.2500000000002257 0.023856977544472514 0.4999999999997445 0.3125000000002647 0.0047116460507760855 0.4999999999999548 0.3750000000003035 -0.01902127737304145 0.5000000000001653 0.4375000000003423 0.01890313572265685 0.5000000000003758 0.5000000000003758 -0.03379282373315178 0.5000000000005863 0.5625000000002468 0.01890314012814821 0.5000000000007968 0.6250000000001125 -0.019021269697595662 0.5000000000010071 0.6874999999999781 0.004711649533975113 0.5000000000012176 0.7499999999998438 0.02385698236263185 0.5000000000014281 0.8124999999997093 -0.03469927539973422 0.5000000000016386 0.8749999999995857 0.05617262709240819 0.5000000000018491 0.9374999999997876 -0.02921386163471275 0.5624999999990211 0.06250000000004233 -0.03240833041429471 0.5624999999991961 0.1250000000001 0.04578028928830498 0.5624999999993713 0.1875000000001127 -0.02324688706997643 0.5624999999995466 0.250000000000124 0.024172098003191284 0.5624999999997214 0.3125000000001351 0.0023154187221292467 0.5624999999998966 0.3750000000001463 -0.019859757976988364 0.5625000000000718 0.4375000000001574 0.015398733168703427 0.5625000000002468 0.5000000000001653 -0.028664662474848567 0.562500000000422 0.5625000000000716 0.01462404192031526 0.562500000000597 0.6249999999999746 -0.013229895951020535 0.5625000000007722 0.687499999999878 0.005456053616558322 0.5625000000009471 0.749999999999781 0.017551444684817126 0.5625000000011223 0.8124999999996838 -0.03166640067719783 0.5625000000012973 0.8749999999995963 0.04939689075879604 0.5625000000014725 0.9374999999997934 -0.015702527334611784 0.6249999999991486 0.06250000000001812 -0.025478945513814036 0.6249999999992862 0.1250000000000533 0.020899233354466737 0.6249999999994239 0.1875000000000385 6.606256679601647e-5 0.6249999999995616 0.250000000000022 0.0188563954925455 0.6249999999996995 0.3125000000000056 -0.0016440239628425777 0.624999999999837 0.3749999999999891 -0.015501627864779446 0.6249999999999748 0.4374999999999727 0.005038917187164007 0.6250000000001125 0.4999999999999548 -0.01493225487595149 0.6250000000002501 0.5624999999998966 0.004301447700379787 0.6250000000003878 0.6249999999998369 -0.004410241020201319 0.6250000000005255 0.6874999999997776 0.005003908522047314 0.6250000000006634 0.7499999999997179 0.006845078415868974 0.625000000000801 0.8124999999996583 -0.016432626112200414 0.6250000000009387 0.874999999999607 0.028479411416230258 0.6250000000010764 0.9374999999997996 0.004718696997226952 0.6874999999992761 0.06249999999999392 -0.011993541141175844 0.6874999999993766 0.1250000000000066 -0.010786307224347105 0.6874999999994766 0.1874999999999643 0.028310617646085747 0.6874999999995769 0.2499999999999201 0.010034387958204343 0.6874999999996773 0.3124999999998761 -0.00639497278393968 0.6874999999997775 0.374999999999832 -0.007535987830665231 0.687499999999878 0.4374999999997878 -0.008787455486858078 0.6874999999999781 0.4999999999997445 0.002974731088047075 0.6875000000000783 0.5624999999997217 -0.008341828379282058 0.6875000000001786 0.6249999999996992 0.004581711341332941 0.687500000000279 0.6874999999996773 0.004034707029815754 0.6875000000003794 0.7499999999996553 -0.0051916549206306225 0.6875000000004797 0.812499999999633 0.0048204431193837214 0.6875000000005799 0.8749999999996174 0.0009379110539787504 0.6875000000006802 0.9374999999998054 0.026085828844432286 0.7499999999994034 0.06249999999996972 0.0025125560039209044 0.7499999999994665 0.1249999999999599 -0.03903011194231156 0.7499999999995292 0.1874999999998901 0.05234251415024474 0.7499999999995921 0.2499999999998183 0.0008263828689448455 0.7499999999996553 0.3124999999997465 -0.010613594132170102 0.7499999999997179 0.3749999999996749 0.0011526833557721154 0.749999999999781 0.437499999999603 -0.021304297003389414 0.7499999999998438 0.4999999999995339 0.019262298030624403 0.7499999999999069 0.5624999999995463 -0.018909693421916497 0.7499999999999697 0.6249999999995616 0.01100283985994031 0.7500000000000325 0.6874999999995769 0.003105852207764582 0.7500000000000953 0.7499999999995921 -0.014981749905829747 0.7500000000001584 0.8124999999996074 0.02424453469095906 0.7500000000002213 0.8749999999996279 -0.023876129694646867 0.7500000000002841 0.9374999999998112 0.04182990934144005 0.812499999999531 0.06249999999994552 0.012618750769196928 0.8124999999995566 0.1249999999999132 -0.05442754952146874 0.8124999999995821 0.1874999999998159 0.06373654876534933 0.8124999999996072 0.2499999999997165 -0.005745250477966667 0.812499999999633 0.3124999999996171 -0.012808632980667733 0.8124999999996583 0.3749999999995177 0.0074437484336032705 0.812499999999684 0.4374999999994181 -0.027957888016220806 0.8124999999997093 0.4999999999993235 0.028625140983800076 0.8124999999997349 0.5624999999993713 -0.02380841051569632 0.8124999999997602 0.6249999999994239 0.013169258248633787 0.8124999999997857 0.6874999999994765 0.002430723347564896 0.8124999999998113 0.7499999999995294 -0.019607338819099335 0.8124999999998368 0.8124999999995819 0.034996051263476366 0.8124999999998623 0.8749999999996385 -0.03794341757531452 0.8124999999998879 0.9374999999998174 0.04696488331897842 0.8749999999996598 0.06249999999992131 0.015022685500222798 0.8749999999996488 0.1249999999998665 -0.05163917448415849 0.8749999999996384 0.1874999999997418 0.05761683962142825 0.874999999999628 0.2499999999996146 -0.007806996654052156 0.8749999999996174 0.3124999999994875 -0.011836620184439277 0.874999999999607 0.3749999999993605 0.009185239867499697 0.8749999999995963 0.4374999999992333 -0.0260258748540774 0.8749999999995857 0.499999999999113 0.027950264579668437 0.8749999999995752 0.5624999999991963 -0.021401373535909766 0.8749999999995646 0.6249999999992862 0.010970948041072797 0.8749999999995541 0.6874999999993762 0.0018678067547304024 0.8749999999995435 0.7499999999994665 -0.017785186729452614 0.8749999999995328 0.8124999999995566 0.03345577552781934 0.8749999999995222 0.8749999999996492 -0.03718240631839292 0.8749999999995117 0.9374999999998231 0.039762031446146255 0.9374999999998294 0.06249999999989711 0.009732077577212726 0.9374999999998234 0.1249999999998198 -0.03131541969296592 0.9374999999998173 0.1874999999996675 0.03442952572159741 0.9374999999998112 0.2499999999995128 -0.005292419287387472 0.9374999999998053 0.3124999999993581 -0.00735623065903806 0.9374999999997993 0.3749999999992032 0.0060956985322776856 0.9374999999997933 0.4374999999990485 -0.01566243558986869 0.9374999999997874 0.4999999999989025 0.017322424368363672 0.9374999999997816 0.5624999999990211 -0.012487950482304748 0.9374999999997756 0.6249999999991486 0.005801065564876873 0.9374999999997696 0.687499999999276 0.0011132643213187508 0.9374999999997636 0.7499999999994035 -0.010332379973362052 0.9374999999997574 0.8124999999995308 0.02028178491699283 0.9374999999997516 0.8749999999996598 -0.02265127597043332 0.9374999999997459 0.9374999999998294 0.022344070924112207
</DataArray>
      </Points>
      <Cells>
        <DataArray type="Int64" Name="connectivity" NumberOfComponents="1" format="ascii">
 0 4 63 63 4 64 63 64 62 62 64 65 62 65 61 61 65 66 61 66 60 60 66 67 60 67 59 59 67 68 59 68 58 58 68 69 58 69 57 57 69 70 57 70 56 56 70 71 56 71 55 55 71 72 55 72 54 54 72 73 54 73 53 53 73 74 53 74 52 52 74 75 52 75 51 51 75 76 51 76 50 50 76 77 50 77 49 49 77 78 49 78 3 3 78 48 4 5 64 64 5 79 64 79 65 65 79 80 65 80 66 66 80 81 66 81 67 67 81 82 67 82 68 68 82 83 68 83 69 69 83 84 69 84 70 70 84 85 70 85 71 71 85 86 71 86 72 72 86 87 72 87 73 73 87 88 73 88 74 74 88 89 74 89 75 75 89 90 75 90 76 76 90 91 76 91 77 77 91 92 77 92 78 78 92 93 78 93 48 48 93 47 5 6 79 79 6 94 79 94 80 80 94 95 80 95 81 81 95 96 81 96 82 82 96 97 82 97 83 83 97 98 83 98 84 84 98 99 84 99 85 85 99 100 85 100 86 86 100 101 86 101 87 87 101 102 87 102 88 88 102 103 88 103 89 89 103 104 89 104 90 90 104 105 90 105 91 91 105 106 91 106 92 92 106 107 92 107 93 93 107 108 93 108 47 47 108 46 6 7 94 94 7 109 94 109 95 95 109 110 95 110 96 96 110 111 96 111 97 97 111 112 97 112 98 98 112 113 98 113 99 99 113 114 99 114 100 100 114 115 100 115 101 101 115 116 101 116 102 102 116 117 102 117 103 103 117 118 103 118 104 104 118 119 104 119 105 105 119 120 105 120 106 106 120 121 106 121 107 107 121 122 107 122 108 108 122 123 108 123 46 46 123 45 7 8 109 109 8 124 109 124 110 110 124 125 110 125 111 111 125 126 111 126 112 112 126 127 112 127 113 113 127 128 113 128 114 114 128 129 114 129 115 115 129 130 115 130 116 116 130 131 116 131 117 117 131 132 117 132 118 118 132 133 118 133 119 119 133 134 119 134 120 120 134 135 120 135 121 121 135 136 121 136 122 122 136 137 122 137 123 123 137 138 123 138 45 45 138 44 8 9 124 124 9 139 124 139 125 125 139 140 125 140 126 126 140 141 126 141 127 127 141 142 127 142 128 128 142 143 128 143 129 129 143 144 129 144 130 130 144 145 130 145 131 131 145 146 131 146 132 132 146 147 132 147 133 133 147 148 133 148 134 134 148 149 134 149 135 135 149 150 135 150 136 136 150 151 136 151 137 137 151 152 137 152 138 138 152 153 138 153 44 44 153 43 9 10 139 139 10 154 139 154 140 140 154 155 140 155 141 141 155 156 141 156 142 142 156 157 142 157 143 143 157 158 143 158 144 144 158 159 144 159 145 145 159 160 145 160 146 146 160 161 146 161 147 147 161 162 147 162 148 148 162 163 148 163 149 149 163 164 149 164 150 150 164 165 150 165 151 151 165 166 151 166 152 152 166 167 152 167 153 153 167 168 153 168 43 43 168 42 10 11 154 154 11 169 154 169 155 155 169 170 155 170 156 156 170 171 156 171 157 157 171 172 157 172 158 158 172 173 158 173 159 159 173 174 159 174 160 160 174 175 160 175 161 161 175 176 161 176 162 162 176 177 162 177 163 163 177 178 163 178 164 164 178 179 164 179 165 165 179 180 165 180 166 166 180 181 166 181 167 167 181 182 167 182 168 168 182 183 168 183 42 42 183 41 11 12 169 169 12 184 169 184 170 170 184 185 170 185 171 171 185 186 171 186 172 172 186 187 172 187 173 173 187 188 173 188 174 174 188 189 174 189 175 175 189 190 175 190 176 176 190 191 176 191 177 177 191 192 177 192 178 178 192 193 178 193 179 179 193 194 179 194 180 180 194 195 180 195 181 181 195 196 181 196 182 182 196 197 182 197 183 183 197 198 183 198 41 41 198 40 12 13 184 184 13 199 184 199 185 185 199 200 185 200 186 186 200 201 186 201 187 187 201 202 187 202 188 188 202 203 188 203 189 189 203 204 189 204 190 190 204 205 190 205 191 191 205 206 191 206 192 192 206 207 192 207 193 193 207 208 193 208 194 194 208 209 194 209 195 195 209 210 195 210 196 196 210 211 196 211 197 197 211 212 197 212 198 198 212 213 198 213 40 40 213 39 13 14 199 199 14 214 199 214 200 200 214 215 200 215 201 201 215 216 201 216 202 202 216 217 202 217 203 203 217 218 203 218 204 204 218 219 204 219 205 205 219 220 205 220 206 206 220 221 206 221 207 207 221 222 207 222 208 208 222 223 208 223 209 209 223 224 209 224 210 210 224 225 210 225 211 211 225 226 211 226 212 212 226 227 212 227 213 213 227 228 213 228 39 39 228 38 14 15 214 214 15 229 214 229 215 215 229 230 215 230 216 216 230 231 216 231 217 217 231 232 217 232 218 218 232 233 218 233 219 219 233 234 219 234 220 220 234 235 220 235 221 221 235 236 221 236 222 222 236 237 222 237 223 223 237 238 223 238 224 224 238 239 224 239 225 225 239 240 225 240 226 226 240 241 226 241 227 227 241 242 227 242 228 228 242 243 228 243 38 38 243 37 15 16 229 229 16 244 229 244 230 230 244 245 230 245 231 231 245 246 231 246 232 232 246 247 232 247 233 233 247 248 233 248 234 234 248 249 234 249 235 235 249 250 235 250 236 236 250 251 236 251 237 237 251 252 237 252 238 238 252 253 238 253 239 239 253 254 239 254 240 240 254 255 240 255 241 241 255 256 241 256 242 242 256 257 242 257 243 243 257 258 243 258 37 37 258 36 16 17 244 244 17 259 244 259 245 245 259 260 245 260 246 246 260 261 246 261 247 247 261 262 247 262 248 248 262 263 248 263 249 249 263 264 249 264 250 250 264 265 250 265 251 251 265 266 251 266 252 252 266 267 252 267 253 253 267 268 253 268 254 254 268 269 254 269 255 255 269 270 255 270 256 256 270 271 256 271 257 257 271 272 257 272 258 258 272 273 258 273 36 36 273 35 17 18 259 259 18 274 259 274 260 260 274 275 260 275 261 261 275 276 261 276 262 262 276 277 262 277 263 263 277 278 263 278 264 264 278 279 264 279 265 265 279 280 265 280 266 266 280 281 266 281 267 267 281 282 267 282 268 268 282 283 268 283 269 269 283 284 269 284 270 270 284 285 270 285 271 271 285 286 271 286 272 272 286 287 272 287 273 273 287 288 273 288 35 35 288 34 18 1 274 274 1 19 274 19 275 275 19 20 275 20 276 276 20 21 276 21 277 277 21 22 277 22 278 278 22 23 278 23 279 279 23 24 279 24 280 280 24 25 280 25 281 281 25 26 281 26 282 282 26 27 282 27 283 283 27 28 283 28 284 284 28 29 284 29 285 285 29 30 285 30 286 286 30 31 286 31 287 287 31 32 287 32 288 288 32 33 288 33 34 34 33 2
</DataArray>
        <DataArray type="Int64" Name="offsets" NumberOfComponents="1" format="ascii">
 3 6 9 12 15 18 21 24 27 30 33 36 39 42 45 48 51 54 57 60 63 66 69 72 75 78 81 84 87 90 93 96 99 102 105 108 111 114 117 120 123 126 129 132 135 138 141 144 147 150 153 156 159 162 165 168 171 174 177 180 183 186 189 192 195 198 201 204 207 210 213 216 219 222 225 228 231 234 237 240 243 246 249 252 255 258 261 264 267 270 273 276 279 282 285 288 291 294 297 300 303 306 309 312 315 318 321 324 327 330 333 336 339 342 345 348 351 354 357 360 363 366 369 372 375 378 381 384 387 390 393 396 399 402 405 408 411 414 417 420 423 426 429 432 435 438 441 444 447 450 453 456 459 462 465 468 471 474 477 480 483 486 489 492 495 498 501 504 507 510 513 516 519 522 525 528 531 534 537 540 543 546 549 552 555 558 561 564 567 570 573 576 579 582 585 588 591 594 597 600 603 606 609 612 615 618 621 624 627 630 633 636 639 642 645 648 651 654 657 660 663 666 669 672 675 678 681 684 687 690 693 696 699 702 705 708 711 714 717 720 723 726 729 732 735 738 741 744 747 750 753 756 759 762 765 768 771 774 777 780 783 786 789 792 795 798 801 804 807 810 813 816 819 822 825 828 831 834 837 840 843 846 849 852 855 858 861 864 867 870 873 876 879 882 885 888 891 894 897 900 903 906 909 912 915 918 921 924 927 930 933 936 939 942 945 948 951 954 957 960 963 966 969 972 975 978 981 984 987 990 993 996 999 1002 1005 1008 1011 1014 1017 1020 1023 1026 1029 1032 1035 1038 1041 1044 1047 1050 1053 1056 1059 1062 1065 1068 1071 1074 1077 1080 1083 1086 1089 1092 1095 1098 1101 1104 1107 1110 1113 1116 1119 1122 1125 1128 1131 1134 1137 1140 1143 1146 1149 1152 1155 1158 1161 1164 1167 1170 1173 1176 1179 1182 1185 1188 1191 1194 1197 1200 1203 1206 1209 1212 1215 1218 1221 1224 1227 1230 1233 1236 1239 1242 1245 1248 1251 1254 1257 1260 1263 1266 1269 1272 1275 1278 1281 1284 1287 1290 1293 1296 1299 1302 1305 1308 1311 1314 1317 1320 1323 1326 1329 1332 1335 1338 1341 1344 1347 1350 1353 1356 1359 1362 1365 1368 1371 1374 1377 1380 1383 1386 1389 1392 1395 1398 1401 1404 1407 1410 1413 1416 1419 1422 1425 1428 1431 1434 1437 1440 1443 1446 1449 1452 1455 1458 1461 1464 1467 1470 1473 1476 1479 1482 1485 1488 1491 1494 1497 1500 1503 1506 1509 1512 1515 1518 1521 1524 1527 1530 1533 1536
</DataArray>
        <DataArray type="UInt8" Name="types" NumberOfComponents="1" format="ascii">
 5 5 5 5 5 5 5 5 5 5 5 5 5 5 5 5 5 5 5 5 5 5 5 5 5 5 5 5 5 5 5 5 5 5 5 5 5 5 5 5 5 5 5 5 5 5 5 5 5 5 5 5 5 5 5 5 5 5 5 5 5 5 5 5 5 5 5 5 5 5 5 5 5 5 5 5 5 5 5 5 5 5 5 5 5 5 5 5 5 5 5 5 5 5 5 5 5 5 5 5 5 5 5 5 5 5 5 5 5 5 5 5 5 5 5 5 5 5 5 5 5 5 5 5 5 5 5 5 5 5 5 5 5 5 5 5 5 5 5 5 5 5 5 5 5 5 5 5 5 5 5 5 5 5 5 5 5 5 5 5 5 5 5 5 5 5 5 5 5 5 5 5 5 5 5 5 5 5 5 5 5 5 5 5 5 5 5 5 5 5 5 5 5 5 5 5 5 5 5 5 5 5 5 5 5 5 5 5 5 5 5 5 5 5 5 5 5 5 5 5 5 5 5 5 5 5 5 5 5 5 5 5 5 5 5 5 5 5 5 5 5 5 5 5 5 5 5 5 5 5 5 5 5 5 5 5 5 5 5 5 5 5 5 5 5 5 5 5 5 5 5 5 5 5 5 5 5 5 5 5 5 5 5 5 5 5 5 5 5 5 5 5 5 5 5 5 5 5 5 5 5 5 5 5 5 5 5 5 5 5 5 5 5 5 5 5 5 5 5 5 5 5 5 5 5 5 5 5 5 5 5 5 5 5 5 5 5 5 5 5 5 5 5 5 5 5 5 5 5 5 5 5 5 5 5 5 5 5 5 5 5 5 5 5 5 5 5 5 5 5 5 5 5 5 5 5 5 5 5 5 5 5 5 5 5 5 5 5 5 5 5 5 5 5 5 5 5 5 5 5 5 5 5 5 5 5 5 5 5 5 5 5 5 5 5 5 5 5 5 5 5 5 5 5 5 5 5 5 5 5 5 5 5 5 5 5 5 5 5 5 5 5 5 5 5 5 5 5 5 5 5 5 5 5 5 5 5 5 5 5 5 5 5 5 5 5 5 5 5 5 5 5 5 5 5 5 5 5 5 5 5 5 5 5 5 5 5 5 5 5 5 5 5 5 5 5 5 5 5 5 5 5 5 5 5 5 5 5 5 5 5 5
</DataArray>
      </Cells>
      <PointData>
        <DataArray type="Float64" Name="w" NumberOfComponents="1" format="ascii">
 5.304113922668053e-9 4.878404228438387e-9 5.3041109959840155e-9 4.878408063741141e-9 -8.391708023573099e-11 2.5656471643904397e-9 2.5336786254866145e-9 2.4152041023570646e-9 1.5426954962682583e-9 3.882663055165918e-10 -7.317826257426312e-10 -1.4676522582548544e-9 -1.6368523056323897e-9 -1.2533754332795478e-9 -5.406451275881185e-10 2.4122088877505103e-10 5.927035392500239e-10 1.0956372979951503e-9 -1.0295661811490955e-9 -1.827991242031158e-8 3.936267734112724e-8 -4.255220952845108e-8 1.58434954531687e-8 5.468126999583114e-9 -1.2524406815604417e-8 2.1339890388938824e-8 -2.5470094133103375e-8 2.0466677432453366e-8 -8.157192727454492e-9 -4.906126591674048e-9 1.7076324247985476e-8 -2.857540150047167e-8 3.380490473773776e-8 -2.7710528187193098e-8 -8.391635457804125e-11 2.5656456265566898e-9 2.5336768813884736e-9 2.4152016598989893e-9 1.5426934998653284e-9 3.882650215553394e-10 -7.31783680984409e-10 -1.4676527444230814e-9 -1.636851560698495e-9 -1.2533746054625018e-9 -5.406430366464221e-10 2.412223347427974e-10 5.927052904056678e-10 1.0956386740801604e-9 -1.0295661181457918e-9 -1.827992452401138e-8 3.936267467297698e-8 -4.255220011715745e-8 1.5843506344072927e-8 5.468118406926495e-9 -1.2524417415437706e-8 2.1339892668994496e-8 -2.547008219919496e-8 2.0466681216375547e-8 -8.157204079221035e-9 -4.9061309334821914e-9 1.70763321554126e-8 -2.857539005168148e-8 3.3804899110366303e-8 -2.7710539975566046e-8 0.02234408715998078 -0.02265126823714354 0.02028177056012447 -0.010332391220886144 0.0011132710115263748 0.0058010801975121665 -0.012487954775119442 0.017322407935707898 -0.015662438046529673 0.00609571435967192 -0.007356219126951555 -0.0052924317215578085 0.03442951215303434 -0.03131541511977304 0.009732092444895694 0.03976206158245882 -0.03718239201570893 0.03345574916925297 -0.017785207770187307 0.001867819115116762 0.010970974767086989 -0.02140138122991281 0.027950234386385563 -0.026025878967831963 0.009185269139068752 -0.011836598847874745 -0.00780701935244813 0.057616814490385165 -0.05163916600239618 0.015022713323646474 0.046964923386957846 -0.03794339905728342 0.03499601692898462 -0.01960736705036541 0.0024307395978051807 0.013169292607996364 -0.023808420620917155 0.02862510154288726 -0.02795789324581658 0.007443787017548432 -0.01280860518623613 -0.005745279647906025 0.0637365155658785 -0.05442753823470181 0.012618787465712756 0.04182995338627849 -0.02387610986574382 0.02424449789473715 -0.014981781750965775 0.003105869688569506 0.011002875929031824 -0.01890970462054412 0.01926225501414271 -0.02130430204132669 0.0011527262224922201 -0.010613564223298148 0.0008263522476614691 0.052342477588183965 -0.03903009932385665 0.0025125955108730373 0.02608587044961801 0.0009379293699851676 0.004820409780241529 -0.005191685813332233 0.004034723218199196 0.004581742891578682 -0.008341839361091473 0.0029746911166818385 -0.008787459229116976 -0.007535946572533469 -0.006394945108755139 0.010034360981236357 0.02831058296181487 -0.010786294984804441 -0.011993505598503386 0.004718730110076345 0.0284794256107564 -0.016432650621731423 0.006845052915986405 0.005003920450146481 -0.004410219412868713 0.004301438071020172 -0.014932285508699858 0.005038915772033639 -0.015501593791329924 -0.0016440022143297433 0.018856376607681708 6.603472275390582e-5 0.02089924280954236 -0.025478919706276526 -0.01570250769285978 0.04939689910590822 -0.03166641229504338 0.01755142841627241 0.005456058718700652 -0.013229888179668968 0.014624034709227232 -0.02866467894293478 0.015398734545401504 -0.019859735669592527 0.0023154318010107826 0.02417209035750274 -0.023246903789070312 0.045780293957845636 -0.032408318322170004 -0.02921385780524716 0.05617262884664712 -0.0346992724183147 0.023856977544472514 0.0047116460507760855 -0.01902127737304145 0.01890313572265685 -0.03379282373315178 0.01890314012814821 -0.019021269697595662 0.004711649533975113 0.02385698236263185 -0.03469927539973422 0.05617262709240819 -0.02921386163471275 -0.03240833041429471 0.04578028928830498 -0.02324688706997643 0.024172098003191284 0.0023154187221292467 -0.019859757976988364 0.015398733168703427 -0.028664662474848567 0.01462404192031526 -0.013229895951020535 0.005456053616558322 0.017551444684817126 -0.03166640067719783 0.04939689075879604 -0.015702527334611784 -0.025478945513814036 0.020899233354466737 6.606256679601647e-5 0.0188563954925455 -0.0016440239628425777 -0.015501627864779446 0.005038917187164007 -0.01493225487595149 0.004301447700379787 -0.004410241020201319 0.005003908522047314 0.006845078415868974 -0.016432626112200414 0.028479411416230258 0.004718696997226952 -0.011993541141175844 -0.010786307224347105 0.028310617646085747 0.010034387958204343 -0.00639497278393968 -0.007535987830665231 -0.008787455486858078 0.002974731088047075 -0.008341828379282058 0.004581711341332941 0.004034707029815754 -0.0051916549206306225 0.0048204431193837214 0.0009379110539787504 0.026085828844432286 0.0025125560039209044 -0.03903011194231156 0.05234251415024474 0.0008263828689448455 -0.010613594132170102 0.0011526833557721154 -0.021304297003389414 0.019262298030624403 -0.018909693421916497 0.01100283985994031 0.003105852207764582 -0.014981749905829747 0.02424453469095906 -0.023876129694646867 0.04182990934144005 0.012618750769196928 -0.05442754952146874 0.06373654876534933 -0.005745250477966667 -0.012808632980667733 0.0074437484336032705 -0.027957888016220806 0.028625140983800076 -0.02380841051569632 0.013169258248633787 0.002430723347564896 -0.019607338819099335 0.034996051263476366 -0.03794341757531452 0.04696488331897842 0.015022685500222798 -0.05163917448415849 0.05761683962142825 -0.007806996654052156 -0.011836620184439277 0.009185239867499697 -0.0260258748540774 0.027950264579668437 -0.021401373535909766 0.010970948041072797 0.0018678067547304024 -0.017785186729452614 0.03345577552781934 -0.03718240631839292 0.039762031446146255 0.009732077577212726 -0.03131541969296592 0.03442952572159741 -0.005292419287387472 -0.00735623065903806 0.0060956985322776856 -0.01566243558986869 0.017322424368363672 -0.012487950482304748 0.005801065564876873 0.0011132643213187508 -0.010332379973362052 0.02028178491699283 -0.02265127597043332 0.022344070924112207
</DataArray>
        <DataArray type="Float64" Name="phi_1" NumberOfComponents="1" format="ascii">
 0.9999999852674748 0.0485383486012757 -1.0 -0.048538457629500265 0.7321710458549424 0.3815872005305009 0.005426579649128944 -0.32145263175117594 -0.531330624197182 -0.5882220377171344 -0.4992898294019615 -0.3107826917246524 -0.09091248619568061 0.09368307487121498 0.19928593779056727 0.21673365348577575 0.16960394731380157 0.10034842337604068 0.050707563105690225 0.20137259311937578 -0.4845349628461637 -0.05865732574299004 0.7292551088259129 -0.18667005601915035 -0.19831835592725966 -0.1934396559890753 -0.2197782847330715 0.6789328621341719 -0.12120589881340192 -0.5135358589833112 0.2913781037300867 0.07922198100938069 0.3799999322056257 -0.03374758546221524 -0.7321710554174243 -0.38158720711229144 -0.005426587559114367 0.3214526205171396 0.5313306021210782 0.5882220084046484 0.4992898079740489 0.3107826727680644 0.09091246272220053 -0.09368310444107515 -0.19928597675161222 -0.21673369950095928 -0.169604005816478 -0.10034849692755823 -0.05070765756220981 -0.20137268786780047 0.4845348906757238 0.058657237088622714 -0.7292551906154254 0.18666995429517783 0.1983182398146261 0.19343957366437922 0.21977818906476376 -0.6789329609423947 0.12120582763864805 0.5135357882416689 -0.2913781388432772 -0.07922199428878135 -0.37999996932905045 0.0337475725927162 -0.06584964356011824 -0.3715414632061886 -0.10047370051909418 -0.1952284502399712 0.48164747180997963 0.022286640154930155 -0.5893530353731103 0.23500942858961482 0.20077195797830644 0.19350190813608223 0.07482101857566488 -0.6536163064677503 0.12333491874102143 0.416536801785417 -0.1952469542056721 -0.06087520107940852 -0.3024134414563175 -0.15412871139910272 -0.04264674898829657 0.3110086441707777 -0.03867948331918739 -0.35440480180909534 0.12960472533170078 0.21129898717844575 0.1680756910938354 -0.060134735856934705 -0.41424258114676477 0.08760299811551982 0.2663912138073342 -0.09314292062961882 0.012482467321830488 -0.1913028422666719 -0.20880410538809713 0.12228944253638543 0.06612595028582428 -0.06423021700128488 -0.04995167972229798 -0.03620863260835332 0.21439500595752192 0.1237236013971521 -0.18575145438409232 -0.09238205743901429 -0.010607686358581512 0.07461413981781208 0.04929187490457213 0.10852494392213148 -0.06018120796547172 -0.22582651382470903 0.2394770518024704 -0.18992909525837107 -0.0473146545563756 0.24330756067630493 -0.19593058431544122 0.19061045990588177 0.055831631225940356 -0.25273846988556264 0.22487674589365728 -0.13646592802953414 -0.11626148412078167 0.17570773558251498 0.17874226665516657 0.07371230543444945 -0.18103146214780302 0.256509573338624 -0.39000260165714706 0.007431242075666553 0.4545577280786787 -0.2887160471147897 0.11827105086238153 -0.028036137720247156 -0.22447506343883566 0.45311343613329635 -0.2481540923542099 -0.27032805262688664 0.23939758628265648 0.18720564767678186 0.19764353496264025 -0.07529980037682424 0.15377400194218663 -0.4820590394987331 0.0807772806795841 0.5421333609741851 -0.2793556962587034 -0.0116568516666791 -0.10899122501457481 -0.0967425378002031 0.5366097425874384 -0.307002991701143 -0.36608285124015294 0.21896519800423214 0.12317592738384811 0.3008853314750902 0.06580960579080192 -0.04491618365540081 -0.4461911027850075 0.14568822099355175 0.5025741874071451 -0.17019225704465676 -0.1857258288042008 -0.16447202711829043 0.09814719496178453 0.4656196503965978 -0.29068893655194433 -0.3978387795291824 0.12499895973909225 0.005295632053775669 0.371980403315701 0.2014964276872591 -0.2779794889345058 -0.3011851917802675 0.1777857758083583 0.36678122431187393 -5.1842862383332945e-8 -0.36678131606416897 -0.1777858659478441 0.30118510786911895 0.27797940010130767 -0.20149650961935994 -0.37198046547624564 -0.005295662791382528 -0.12499899943579557 0.3978387066473086 0.29068885744035333 -0.4656197440672669 -0.09814728182145131 0.16447194334376225 0.18572572700700116 0.17019215679191044 -0.5025742703321786 -0.14568831457530823 0.44619102042279263 0.04491609863475702 -0.06580968675854777 -0.3008853810207928 -0.12317595455802148 -0.21896524897820419 0.36608277243874754 0.307002914641853 -0.5366098340030688 0.09674245188606245 0.10899114636603585 0.011656743856252297 0.27935560145438443 -0.5421334416060969 -0.08077737725457812 0.48205895900042833 -0.15377408176760893 0.07529972337441868 -0.1976435740432868 -0.1872056755993874 -0.23939764158573143 0.2703279756132577 0.24815402231011746 -0.45311352194210686 0.22447497996526294 0.028036053784144914 -0.11827116620198176 0.2887159500233772 -0.4545578097842176 -0.007431338235518274 0.3900025207324554 -0.2565096469711287 0.1810313928915797 -0.0737123366105808 -0.17874229576755304 -0.17570779808491166 0.11626140993925682 0.1364658538242717 -0.22487683374037584 0.25273837889645145 -0.055831724416076305 -0.19061057684318883 0.19593048982566025 -0.24330764706706304 0.047314563264312624 0.1899290175806038 -0.23947711757779552 0.22582645349121877 0.06018117985054266 -0.1085249672575474 -0.04929194073538114 -0.07461420967981065 0.010607608782716568 0.09238196979194536 0.18575136256653754 -0.12372370156548633 -0.21439511498241742 0.03620854106253454 0.049951586808299635 0.06423012904939743 -0.06612602956211673 -0.12228950264185842 0.20880405916465716 0.1913028151165619 -0.01248248530819228 0.0931428464948841 -0.2663912807861415 -0.08760308371295557 0.4142424950788006 0.060134641395661055 -0.16807579802663203 -0.21129908420364696 -0.12960481847448635 0.3544047031083845 0.038679401613487964 -0.31100872175853705 0.04264669587233983 0.15412867769692684 0.3024134089310127 0.06087518734464889 0.19524686926261214 -0.41653687102254544 -0.12333500686030076 0.6536162226336393 -0.07482111616435626 -0.19350202242872544 -0.20077204705062937 -0.23500952398721586 0.5893529330497858 -0.02228671615917181 -0.4816475474352428 0.19522840295321414 0.10047367814571947 0.37154142524615097 0.0658496316840096
</DataArray>
        <DataArray type="Float64" Name="phi_2" NumberOfComponents="1" format="ascii">
 0.1625154712922639 0.024696707290992277 -0.16251547709413086 -0.024696709930763797 0.23298802324308893 0.2017613694522547 0.1017655892153739 -0.025148875885034675 -0.13914224209969867 -0.2100171219798377 -0.22364443305520365 -0.1841039291832863 -0.11042849782204393 -0.028938359953491893 0.03618101793109983 0.07074635440538282 0.07418073956042837 0.05774295107819095 0.0379794149015595 0.12071991638697546 -0.17324100750103782 -0.09046660639112919 0.2900175713216456 -0.012176337681332604 -0.06164391747878999 -0.08321247823407706 -0.15007522654229621 0.25166454989139525 0.009214050703047174 -0.23300274417557557 0.054293218522582454 -0.0029546350661742776 0.16114981419867816 0.10908461343911892 -0.232988034983656 -0.20176138624398915 -0.10176560702669768 0.025148859607300705 0.13914223429953126 0.21001711994361427 0.22364442551044778 0.1841039213391052 0.11042849425866533 0.02893835711046627 -0.03618102223774991 -0.07074636724773757 -0.07418075557087157 -0.05774296866847432 -0.037979426445810906 -0.12071990140806348 0.17324102762711377 0.09046661270034626 -0.29001757123935146 0.012176334148811132 0.06164391147983095 0.08321248245347784 0.1500752137988782 -0.25166457303960554 -0.009214064878852037 0.23300272552301332 -0.05429324447580437 0.0029546084468908018 -0.1611498522175618 -0.1090846316212368 -0.02312614319426902 -0.13005890665866796 -0.007385657297114186 -0.058025932495484836 0.1909950166950798 0.024903067568134693 -0.21904698903831102 0.0983677856943287 0.07983031121423236 0.0608299845841138 0.02985092268177757 -0.24839695406938198 0.03861850455280591 0.15646954607303118 -0.08538650521984395 0.04525667165433948 -0.08763846755415444 -0.03815122641178106 -0.0183047476352963 0.12469278190566793 0.02275178365212958 -0.13878877645235443 0.03305921129982682 0.08262294020324763 0.06404867842453597 -0.0005154691768164856 -0.16179152245783482 -0.0008791305027000941 0.1057843588615235 -0.03355015571767271 0.09930959282365086 -0.04132720684451221 -0.07206052621951559 0.03590704517523278 0.02861579935648745 0.016105344023792954 -0.026297209862881983 -0.04332769209803712 0.08430085768519005 0.05665336888823352 -0.042300273008933714 -0.0394562723041722 -0.04706686210431595 0.03506021989373341 0.03297912395194452 0.13025867903206984 0.0048002539304684635 -0.09381754572086037 0.07455058515320225 -0.07228277507665049 0.016087756104400663 0.08691206918879822 -0.10945665753239915 0.07332714598871783 0.03864666290723479 -0.06791101765696576 0.0836570943383536 -0.09220486341698207 -0.03716785827741968 0.09557058194640816 0.12943593407874046 0.04773644060497798 -0.09160900362537207 0.07714441622297878 -0.1508652459645609 0.02417669022827646 0.17188685091380923 -0.14341402936898406 0.04177865245670657 0.013471215223170203 -0.06086496546428438 0.17412329498622214 -0.1223125262213817 -0.0959583552717202 0.13462037729369108 0.0945877013440116 0.08575899791445109 -0.06146444440547709 0.03685895266083832 -0.18748479184176367 0.036250005357498255 0.2107192901117515 -0.13257033218977868 -0.012088024740086953 -0.013195525157683609 -0.017812600921198782 0.21040501098726994 -0.12606511366044912 -0.13278428057901245 0.13734839227942028 0.03299406693136858 0.11720137836201323 -0.009499797087983394 -0.037140218507261784 -0.1755923157213402 0.045582161174647 0.20025630539246403 -0.0791562580075198 -0.08142488972953542 -0.03474706921355037 0.050654568023092435 0.18847540973372548 -0.09992624815752532 -0.14597529098186132 0.10222635303676726 -0.039370225830864296 0.13893570673651764 0.05004186681076703 -0.12202980719400928 -0.12336068677688064 0.04604315014827525 0.15089079772476308 -1.0933132076431245e-9 -0.1508908000542853 -0.0460431537924278 0.12336068055962353 0.12202979442618074 -0.050041879813218546 -0.13893571980190925 0.03937021748204385 -0.10222635971335166 0.1459752800775797 0.09992623879579807 -0.1884754221468192 -0.05065457424452339 0.03474706811113999 0.08142488684288185 0.07915625391541302 -0.20025630791222024 -0.04558217127262864 0.1755923095708086 0.03714020818150589 0.009499779110705028 -0.1172013927881023 -0.032994073220223144 -0.1373483972369672 0.13278427048602767 0.1260651078185927 -0.2104050264571734 0.017812590583385683 0.013195524225591301 0.012088018956751654 0.13257032678862818 -0.21071929280971938 -0.03625001908874578 0.18748478472458066 -0.036858961664772136 0.06146442251632061 -0.08575901271626737 -0.0945877075637099 -0.13462038616313216 0.09595834616537714 0.12231251729194186 -0.17412331392201028 0.060864950202024336 -0.01347121194790974 -0.04177865407925922 0.14341403062363253 -0.1718868560027898 -0.024176706444297327 0.1508652392992327 -0.07714442566843233 0.09160897911818687 -0.04773645578984721 -0.1294359436089718 -0.09557059116770382 0.03716785190570512 0.0922048598051442 -0.08365710730621304 0.06791100782427022 -0.038646658529979304 -0.07332714305727257 0.10945665968786407 -0.08691207769242645 -0.016087774126510204 0.07228276507666984 -0.07455059604523386 0.09381752258796999 -0.004800269924037326 -0.1302586952699188 -0.03297913553031883 -0.03506022054225888 0.047066861729994906 0.03945626468521797 0.04230026221873988 -0.0566533689046331 -0.08430085388059148 0.04332769090923924 0.0262971980090563 -0.016105358184235415 -0.028615809975076945 -0.03590705682733788 0.07206050258821727 0.04132718380061723 -0.09930961336080761 0.03355014939084683 -0.10578435257075688 0.0008791355831388218 0.1617915196884235 0.000515460180453132 -0.0640486831662678 -0.08262293622886582 -0.033059215175619355 0.13878876122401226 -0.02275179589857722 -0.12469279630326158 0.018304733157815556 0.03815120499809735 0.0876384390975623 -0.045256693899601734 0.08538650996981835 -0.15646953001336306 -0.03861849851778201 0.24839695413901983 -0.029850929513654628 -0.06082999024067645 -0.07983030470149366 -0.09836779436040612 0.219046971047058 -0.024903079667441 -0.19099503237327414 0.05802591561212198 0.007385635527698038 0.13005887332553773 0.023126122383109307
</DataArray>
      </PointData>
    </Piece>
  </UnstructuredGrid>
</VTKFile>
