<?xml version="1.0" encoding="utf-8"?>
<VTKFile type="UnstructuredGrid" version="1.0" byte_order="LittleEndian" header_type="UInt64">
  <UnstructuredGrid>
    <Piece NumberOfPoints="25" NumberOfCells="16">
      <Points>
        <DataArray type="Float64" Name="Points" NumberOfComponents="3" format="ascii">
 0.0 0.0 0.0 1.0 0.0 0.0 1.0 1.0 0.0 0.0 1.0 0.0 0.24999999999941094 0.0 0.0 0.4999999999986921 0.0 0.0 0.7499999999993406 0.0 0.0 1.0 0.24999999999941094 0.0 1.0 0.4999999999986921 0.0 1.0 0.7499999999993406 0.0 0.7500000000003471 1.0 0.0 0.5000000000020595 1.0 0.0 0.2500000000010405 1.0 0.0 0.0 0.7500000000003471 0.0 0.0 0.5000000000020595 0.0 0.0 0.2500000000010405 0.0 0.24999999999981837 0.25000000000063316 0.0 0.2500000000002257 0.5000000000012177 0.0 0.25000000000063316 0.7500000000000954 0.0 0.49999999999953393 0.2500000000002257 0.0 0.5000000000003757 0.5000000000003757 0.0 0.5000000000012177 0.749999999999844 0.0 0.7499999999995922 0.24999999999981837 0.0 0.749999999999844 0.49999999999953393 0.0 0.7500000000000953 0.7499999999995921 0.0
</DataArray>
      </Points>
      <Cells>
        <DataArray type="Int64" Name="connectivity" NumberOfComponents="1" format="ascii">
 0 4 16 15 15 16 17 14 14 17 18 13 13 18 12 3 4 5 19 16 16 19 20 17 17 20 21 18 18 21 11 12 5 6 22 19 19 22 23 20 20 23 24 21 21 24 10 11 6 1 7 22 22 7 8 23 23 8 9 24 24 9 2 10
</DataArray>
        <DataArray type="Int64" Name="offsets" NumberOfComponents="1" format="ascii">
 4 8 12 16 20 24 28 32 36 40 44 48 52 56 60 64
</DataArray>
        <DataArray type="UInt8" Name="types" NumberOfComponents="1" format="ascii">
 9 9 9 9 9 9 9 9 9 9 9 9 9 9 9 9
</DataArray>
      </Cells>
      <PointData>
        <DataArray type="Float64" Name="w1" NumberOfComponents="1" format="ascii">
 -2.910739551173907e-11 -2.910807219793186e-11 -2.9106979575365345e-11 -2.9105919242790266e-11 3.09292191461514e-11 9.203075148800053e-11 3.092999368115049e-11 3.0929567675028984e-11 9.203156964523573e-11 3.092905428095553e-11 3.092936172795602e-11 9.203147525705928e-11 3.092814518397714e-11 3.092776501243038e-11 9.20317883781996e-11 3.09272885339421e-11 0.5111987926107037 0.7231668265731837 0.5111987770157154 0.7231682296028126 1.0 0.7231666047847937 0.5112003112111336 0.7231677283737143 0.5111983048562353
</DataArray>
        <DataArray type="Float64" Name="w2" NumberOfComponents="1" format="ascii">
 3.3830195153350585e-11 -1.6369480097885059e-16 -3.382998672266502e-11 -2.28804087167045e-16 -2.2502171715826898e-10 -2.765302712775061e-10 -2.086960149921182e-11 2.087090939264304e-11 2.765324293245789e-10 2.2502115402126485e-10 2.2502084454309364e-10 2.7652960432700164e-10 2.0869639355905286e-11 -2.0870182813553277e-11 -2.7653229576661984e-10 -2.2502109724931802e-10 -1.0 -0.6639692205444986 -3.3512101495192584e-6 -0.66396416289194 1.2469172824313264e-7 0.6639642796426599 5.1640739625737314e-6 0.6639699376910255 0.9999981987428949
</DataArray>
        <DataArray type="Float64" Name="w3" NumberOfComponents="1" format="ascii">
 5.169805449771569e-17 3.3829894333413503e-11 -1.2667383024464465e-15 -3.3830308483894336e-11 -2.0870628961411714e-11 -2.765324367565865e-10 -2.250204843490928e-10 -2.2502028045689406e-10 -2.76530187890456e-10 -2.086914656413587e-11 2.0871566972767335e-11 2.7653211368987075e-10 2.2502098734264338e-10 2.250206057639582e-10 2.765293835715873e-10 2.086979247355563e-11 -3.4535010365438837e-6 0.663965098810656 0.9999993313836173 -0.6639695759654924 5.082316590555765e-7 0.6639706645312105 -1.0 -0.6639639569904797 4.741612244053141e-6
</DataArray>
        <DataArray type="Float64" Name="w4" NumberOfComponents="1" format="ascii">
 -1.9367624301514382e-11 1.9367968339528874e-11 -1.9368295778864923e-11 1.9367341009685186e-11 3.8223487086682026e-10 -4.515998388172894e-16 -3.8223430086093316e-10 -3.822349716011248e-10 5.028496626918831e-16 3.822351969278397e-10 3.822354137413992e-10 3.602178310788358e-16 -3.82235376140982e-10 -3.82235602751941e-10 -6.853581940185656e-16 3.822345822676531e-10 0.9999986345723707 -8.792222841174701e-7 -0.9999994020005644 3.915714842583735e-7 2.192866266196916e-7 6.680276882777304e-7 -0.9999989111388049 8.447435404483552e-7 1.0
</DataArray>
        <DataArray type="Float64" Name="w5" NumberOfComponents="1" format="ascii">
 9.328903704562307e-10 9.328892170683337e-10 9.328875787643541e-10 9.328887771511865e-10 -5.657952616980682e-10 9.945982117859803e-10 -5.657983913587863e-10 -5.657935039649533e-10 9.945974810796306e-10 -5.657944697698088e-10 -5.657962534085194e-10 9.945967009823874e-10 -5.657936854516594e-10 -5.657958901435994e-10 9.945993141627021e-10 -5.657945498372278e-10 0.9639031365604865 -0.9999986912205797 0.9639013023069557 -1.0 0.9040699771644725 -0.9999970159468646 0.9638999603458042 -0.9999943374195911 0.963898353021029
</DataArray>
        <DataArray type="Float64" Name="w6" NumberOfComponents="1" format="ascii">
 7.836457959225831e-16 4.512936172991766e-10 3.023777812734334e-16 -4.5129280851594736e-10 -6.590653222037507e-10 1.9482939564357165e-10 2.344912011055063e-10 2.3449064831174503e-10 1.9482825914889644e-10 -6.590662426063324e-10 6.590656378511016e-10 -1.9482777615514522e-10 -2.3449134840354747e-10 -2.3449239939792e-10 -1.9482865627776103e-10 6.590648420417393e-10 8.294898991569738e-7 0.7294828211046657 -0.9999995532946684 -0.7294841901548325 8.016913946332404e-7 0.7294844201507907 1.0 -0.7294848950041005 -0.0
</DataArray>
        <DataArray type="Float64" Name="w7" NumberOfComponents="1" format="ascii">
 -4.512911978272997e-10 1.5823193378166051e-15 4.5129380897375585e-10 1.4112592854305545e-15 -2.344917511421114e-10 -1.9482663321144355e-10 6.590636299940046e-10 -6.590645812874206e-10 1.948304590383632e-10 2.3449021278334074e-10 2.34490322814065e-10 1.9482940343196438e-10 -6.590660104274497e-10 6.590642473961645e-10 -1.9482561123803479e-10 -2.3449038167850246e-10 -0.9999961111815122 0.7294823748871855 1.5717780706640192e-6 0.7294802467705742 4.910563593346921e-7 -0.7294848961645728 2.2294495690557084e-6 -0.7294838888671118 1.0
</DataArray>
        <DataArray type="Float64" Name="w8" NumberOfComponents="1" format="ascii">
 2.8009544036035096e-16 1.0712273427828214e-15 1.4651698487150625e-15 2.0972377893197528e-15 5.285271825617355e-10 6.258977108662707e-10 5.285285598449464e-10 -5.285336926802847e-10 -6.259007226924739e-10 -5.285329795629224e-10 5.285272402323785e-10 6.25898223628432e-10 5.285275386866321e-10 -5.285327346357566e-10 -6.259006929022961e-10 -5.28534291910125e-10 -2.291811893487297e-6 -0.9999997304021159 1.2085037183973022e-7 0.9999958593618397 9.169889701573068e-6 0.9999933764824919 -1.4328913242421063e-6 -1.0 0.0
</DataArray>
        <DataArray type="Float64" Name="w9" NumberOfComponents="1" format="ascii">
 7.196970937107915e-11 7.196997119454836e-11 7.197005139241509e-11 7.196981936217407e-11 -2.9749937239114536e-10 -2.8432237602071993e-10 -2.9749920332332835e-10 -2.974970019315372e-10 -2.8431909443483914e-10 -2.974969997178051e-10 -2.9749924923542034e-10 -2.8432195800040373e-10 -2.9749996081246707e-10 -2.9749662637351616e-10 -2.8431954848798784e-10 -2.97496717125882e-10 -0.21558506315808756 -0.1975718460450954 -0.21558449635786447 -0.19757647593639183 1.0 -0.197577344140726 -0.2155847918894093 -0.19757222695586393 -0.2155842266510441
</DataArray>
        <DataArray type="Float64" Name="w10" NumberOfComponents="1" format="ascii">
 -3.834665815079538e-16 -4.616565218624845e-16 5.589690152156526e-16 -1.417793506712571e-15 -9.096620545906833e-9 1.8179471151183617e-8 -9.096623253911716e-9 9.096619647980229e-9 -1.817947112705425e-8 9.096622062788892e-9 -9.096619408797236e-9 1.8179469755315903e-8 -9.096622842323613e-9 9.096620394480136e-9 -1.817947207141892e-8 9.096622511337287e-9 -7.217873122559322e-7 -0.9999996490821024 -3.3647552514974926e-7 0.9999996169500786 1.21329002670748e-6 0.9999991587997452 -2.1574636500447062e-7 -1.0 0.0
</DataArray>
        <DataArray type="Float64" Name="w11" NumberOfComponents="1" format="ascii">
 2.4111933536595726e-8 -7.457617311978285e-15 -2.41119319518644e-8 9.929249399313323e-15 -1.7102070497089572e-8 1.5686712564849494e-8 -1.8026024337550772e-8 1.802601731163787e-8 -1.5686715688032745e-8 1.7102088084545755e-8 1.71020709989502e-8 -1.568670848419892e-8 1.8026030745225836e-8 -1.802602669776089e-8 1.5686719896256493e-8 -1.7102089939433295e-8 1.0 -0.6504448202648991 -4.4038290151532306e-7 -0.6504458784720847 5.427473454423197e-9 0.6504443302752889 1.1463622306130716e-6 0.6504453119397331 -0.9999987029036922
</DataArray>
        <DataArray type="Float64" Name="w12" NumberOfComponents="1" format="ascii">
 -1.0993109619305784e-15 -2.4111959665562274e-8 -7.665095885051712e-17 2.4111963900064945e-8 1.8026040456068626e-8 -1.5686740113963413e-8 1.7102102396862113e-8 1.7102106314640232e-8 -1.5686736552724734e-8 1.8026049128187896e-8 -1.8026053235202166e-8 1.568673859667718e-8 -1.710210598826781e-8 -1.710209772664694e-8 1.5686728104091485e-8 -1.8026044175797204e-8 3.8224026671742116e-7 -0.6504461890340304 1.0 0.6504452144880143 1.728917637051912e-8 -0.6504451415169284 -0.9999996129952181 0.6504453672369018 0.0
</DataArray>
        <DataArray type="Float64" Name="w13" NumberOfComponents="1" format="ascii">
 4.5762565635342454e-9 4.576256794523246e-9 4.576256436874164e-9 4.576256018127311e-9 -2.6659665788726456e-9 -2.2994133056836157e-9 -2.6659623908297753e-9 -2.6659649408091794e-9 -2.29941481226688e-9 -2.665964053440722e-9 -2.665963026056484e-9 -2.2994155305596403e-9 -2.6659621744603602e-9 -2.6659644728063145e-9 -2.2994159753315967e-9 -2.665961980375055e-9 0.1811235729464112 -0.5643597947988053 0.18112381429562585 -0.5643597631745209 1.0 -0.5643596880063332 0.18112377795809578 -0.5643600211499085 0.1811237862090522
</DataArray>
        <DataArray type="Float64" Name="w14" NumberOfComponents="1" format="ascii">
 -1.2701868582419971e-8 -1.952433562505402e-15 1.2701869692994078e-8 2.5062332975135557e-15 1.7834425253674164e-8 -6.605309643286277e-9 -2.3543128729285536e-9 2.354312996309921e-9 6.605304619928442e-9 -1.783442296929451e-8 -1.783442531362208e-8 6.605298825949603e-9 2.3543132928769063e-9 -2.35431733616305e-9 -6.605301542904116e-9 1.7834419432656453e-8 0.999999921972485 -0.49636762439547333 -1.8846601347577384e-7 -0.496367725797318 2.802951638182426e-7 0.49636779335095726 -2.5080206820962756e-7 0.4963677250568396 -1.0
</DataArray>
        <DataArray type="Float64" Name="w15" NumberOfComponents="1" format="ascii">
 -2.8091574142452844e-17 -1.2701869048406025e-8 3.490468011678482e-16 1.2701868908115161e-8 -2.3543100064433564e-9 -6.605306714400122e-9 1.7834423893844744e-8 1.7834422035188887e-8 -6.6053025180203405e-9 -2.3543118507415096e-9 2.3543120788375607e-9 6.6053040939609136e-9 -1.7834424258190742e-8 -1.783442434248126e-8 6.605304868682174e-9 2.3543119410958434e-9 1.198533834583165e-7 0.4963675416674575 -0.9999998962622969 -0.49636760766868354 6.882565403005519e-8 0.4963675716679144 1.0 -0.4963675680960471 0.0
</DataArray>
        <DataArray type="Float64" Name="w16" NumberOfComponents="1" format="ascii">
 2.594474601967319e-10 2.5835693160850095e-9 -7.798441459037697e-10 2.718192281230216e-9 0.02499376289794264 8.609693709945739e-9 -0.024993754742723178 0.024993739255716782 1.5799449061784392e-8 -0.02499375952799086 0.024993758920841637 -8.134119270324745e-9 -0.024993751362555355 0.024993747460594795 -2.3576279844926524e-8 -0.024993750768730703 1.0 0.04635886754214583 -0.01647304035679561 -0.6322645202022533 0.1909435183675765 0.3917128136474866 0.8410129632153062 0.35857501875758 -0.19645220803619573
</DataArray>
        <DataArray type="Float64" Name="w17" NumberOfComponents="1" format="ascii">
 8.137875395951723e-7 -8.137879405186129e-7 8.137869204814718e-7 -8.137865231658761e-7 -5.69754920679148e-7 -1.36300640443162e-12 5.69756691311329e-7 5.697573077766526e-7 3.3117255787938223e-13 -5.697578710856595e-7 -5.69754460316334e-7 -7.407014257194046e-13 5.697560040592572e-7 5.697562142792652e-7 1.6879282653153069e-12 -5.697584669134913e-7 -1.0 1.1068216938965455e-5 0.9999887942376098 -6.5009532550463205e-6 3.1589699705672087e-6 7.931540454648489e-7 0.9999940702666957 -3.82984201446235e-6 -0.9999861538180682
</DataArray>
        <DataArray type="Float64" Name="w18" NumberOfComponents="1" format="ascii">
 -7.117498426533456e-8 1.3876633529637134e-14 7.117499308977082e-8 -2.5884888803784437e-14 7.64822361135044e-8 -4.082649536687356e-8 1.677805950835922e-8 -1.677805789207727e-8 4.082651455605165e-8 -7.648226788104419e-8 -7.648225233904664e-8 4.082651698173e-8 -1.6778046302681947e-8 1.677807162692393e-8 -4.082651995545055e-8 7.648225510197195e-8 0.9999999792452102 -0.24575954991288804 2.9654113705038594e-7 -0.24575987831311782 2.9135459372820593e-7 0.2457596512533798 2.214814487625043e-8 0.2457600744748367 -1.0
</DataArray>
        <DataArray type="Float64" Name="w19" NumberOfComponents="1" format="ascii">
 -1.0674803394895253e-14 -7.11749860602816e-8 -7.19213878059217e-15 7.117500630991718e-8 1.6778077463627065e-8 -4.08265189123681e-8 7.64822470687041e-8 7.648225910439764e-8 -4.082651220290312e-8 1.677806327858642e-8 -1.6778054295263956e-8 4.08265139425381e-8 -7.648227779537672e-8 -7.648225900989435e-8 4.082651257738722e-8 -1.677806660793406e-8 -1.5128112233098708e-7 0.24575978170935633 -1.0 -0.245759722868299 6.016525987103585e-8 0.24575966830176493 0.9999999363093044 -0.24575964165186154 0.0
</DataArray>
        <DataArray type="Float64" Name="w20" NumberOfComponents="1" format="ascii">
 -2.044767951193238e-7 2.6063485478583657e-7 -1.79025350594958e-7 1.293923526991617e-7 0.056429753023679204 3.787282220179135e-8 -0.056429821339777655 0.056429395665191506 6.68922378410867e-8 -0.0564295015794176 0.05642974285038726 -5.679973973007694e-8 -0.05642966416647707 0.05642955649893255 -4.5505707234755486e-8 -0.05642946362830538 -0.34624018714393984 -0.4005499465501683 1.0 -0.4596606675636584 0.4097017171423344 -0.24008699257571006 -0.9948458055133517 0.39420483087983116 0.0
</DataArray>
        <DataArray type="Float64" Name="w21" NumberOfComponents="1" format="ascii">
 2.313921113583754e-14 -5.914679079765495e-14 6.022595072513496e-14 -5.403875346665969e-14 -6.821131743697728e-8 1.1142136614408169e-7 -6.821128651656858e-8 6.8211351502873e-8 -1.1142137291770954e-7 6.821128693938849e-8 -6.821135581086322e-8 1.1142139800084369e-7 -6.82113038347693e-8 6.821134539165963e-8 -1.1142135804824368e-7 6.821130632379565e-8 -1.2906942513063765e-6 -0.9999983825428285 -1.3692191011949372e-7 1.0 4.702331928152647e-7 0.9999988708679217 -3.8049937672806496e-7 -0.9999992578348705 -0.0
</DataArray>
        <DataArray type="Float64" Name="w22" NumberOfComponents="1" format="ascii">
 -5.00300335760569e-8 -1.9032930549673355e-14 5.0030027498622386e-8 3.0359403452122895e-14 4.726857497223923e-8 -5.893343946152121e-8 5.421911970081011e-8 -5.4219147130386536e-8 5.8933436063949924e-8 -4.726856216372998e-8 -4.7268558956631397e-8 5.893343133745423e-8 -5.42191267869735e-8 5.421913044105141e-8 -5.8933435426221293e-8 4.726857345406454e-8 -0.9999999584203811 0.7318099164192958 -5.182526101226268e-8 0.7318097036511308 7.872599533044387e-8 -0.7318102047271268 -1.7024421999907655e-7 -0.7318098630130859 1.0
</DataArray>
        <DataArray type="Float64" Name="w23" NumberOfComponents="1" format="ascii">
 4.185060649991297e-17 -5.0030030620658636e-8 -1.4731021603389118e-15 5.003003249178183e-8 5.421912948175186e-8 -5.893343726253004e-8 4.7268565604006597e-8 4.726856364429301e-8 -5.893343793316448e-8 5.421913235856321e-8 -5.421913210622507e-8 5.893343909815508e-8 -4.726856306056659e-8 -4.7268566158625725e-8 5.8933437604420985e-8 -5.4219128108716565e-8 1.1685710368615431e-7 -0.7318098611800358 0.9999999590435708 0.7318098788453157 3.348482112436269e-8 -0.7318098124599064 -1.0 0.7318097803665295 0.0
</DataArray>
        <DataArray type="Float64" Name="w24" NumberOfComponents="1" format="ascii">
 1.8132647677620075e-8 -4.039028077306327e-8 4.429817869309482e-8 -3.8216626471381495e-8 -0.12095981987587419 -7.92552299367453e-9 0.12095986344710632 -0.1209598068711959 1.0087323508491244e-8 0.12095978713566426 -0.12095985171434416 3.189363103706705e-8 0.12095983837704694 -0.12095980460170049 1.522882135449563e-10 0.12095980223208601 -0.42784826249550606 0.42016037686188223 -0.24595127342852927 1.0 0.586298019797893 -0.4506831159981691 -0.6091371968103697 -0.16581174390787037 -0.0
</DataArray>
        <DataArray type="Float64" Name="w25" NumberOfComponents="1" format="ascii">
 1.5124547330112159e-7 -1.5124548423844047e-7 1.512454819706464e-7 -1.5124547719119838e-7 -1.3542569894429065e-7 -6.996989929616829e-15 1.354257136757218e-7 1.3542569208209873e-7 1.3297162777729182e-14 -1.3542570232728497e-7 -1.3542570675068322e-7 -4.888919336919583e-15 1.3542570435369864e-7 1.354256949078523e-7 7.007747266435936e-15 -1.354256999285502e-7 -0.9999996022804345 4.1195569281688654e-8 1.0 -8.501323283584088e-8 1.270179998261614e-7 1.4937678721060397e-7 0.999999523512303 -1.4824949114530929e-8 -0.9999994939928056
</DataArray>
        <DataArray type="Float64" Name="w26" NumberOfComponents="1" format="ascii">
 -8.771043927103493e-8 6.70733159677509e-16 8.77104522247308e-8 -7.511590936635032e-15 1.3233695834354352e-7 -1.5610353431475287e-7 9.283720439146743e-8 -9.283727691186949e-8 1.5610354671594936e-7 -1.3233695489246025e-7 -1.3233693464650274e-7 1.561034356693155e-7 -9.283704421097341e-8 9.283713977181786e-8 -1.5610346202383642e-7 1.3233690343644476e-7 -0.6918104090213227 0.9999970940937982 -2.1007467636679073e-7 0.9999993759808009 2.0870544975853198e-8 -0.99999608622157 -3.9282375713762694e-7 -1.0 0.691810551081236
</DataArray>
        <DataArray type="Float64" Name="w27" NumberOfComponents="1" format="ascii">
 8.65616059687524e-15 8.771064299080118e-8 -1.4276981769399077e-14 -8.771064330495732e-8 -9.283739177223397e-8 1.5610386488138608e-7 -1.3233726297811397e-7 -1.323372458329929e-7 1.561038459240915e-7 -9.28373615670472e-8 9.283740581674154e-8 -1.561038772353348e-7 1.3233725264734278e-7 1.32337237826402e-7 -1.561038120077958e-7 9.283735576613178e-8 1.5944788689351242e-7 0.9999998906102748 -0.6918119718385247 -0.9999997227831804 1.545840759157085e-7 1.0 0.6918120432332949 -0.9999997454547903 0.0
</DataArray>
        <DataArray type="Float64" Name="w28" NumberOfComponents="1" format="ascii">
 -5.813731660621315e-14 -1.3518007109839189e-14 8.176338387480496e-15 -2.6882089038902654e-14 1.1496380746282208e-6 -1.643724462927837e-6 1.149637882087227e-6 -1.1496379996779233e-6 1.6437244769665392e-6 -1.1496379016539216e-6 1.149638037815973e-6 -1.6437245101486153e-6 1.149637927169071e-6 -1.149638058529453e-6 1.6437245480536739e-6 -1.1496379344369582e-6 -1.578967493276355e-6 1.0 -1.9363643159252616e-6 -0.999997048928182 3.0122104621116684e-6 -0.9999995070926085 -2.5241850565853823e-6 0.9999990719378371 0.0
</DataArray>
        <DataArray type="Float64" Name="w29" NumberOfComponents="1" format="ascii">
 9.503705802222597e-9 9.503701825741276e-9 9.503708173322404e-9 9.503707165778279e-9 -5.853406829868282e-9 -7.157453020261245e-9 -5.853405932541526e-9 -5.8534046238534705e-9 -7.157459551212831e-9 -5.853402467702635e-9 -5.853415637924261e-9 -7.1574482555313135e-9 -5.853399894729235e-9 -5.85340724440874e-9 -7.1574468765026776e-9 -5.853406804702029e-9 0.02800831141497772 -0.43669275583371336 0.028008384202924494 -0.43669259800901034 1.0 -0.4366925039884941 0.028008321119115952 -0.4366926206492689 0.02800825100176284
</DataArray>
        <DataArray type="Float64" Name="w30" NumberOfComponents="1" format="ascii">
 -2.1572710760097414e-8 4.933807787427288e-9 -1.5113805490284444e-8 2.4626924990141998e-8 -0.14158600170666916 -1.5755883667730834e-8 0.14158600800674548 -0.14158607482948266 6.952271035599112e-10 0.14158604079924716 -0.14158601416330707 -3.3082063446046944e-9 0.14158602218684385 -0.1415860718803872 2.0393138713634688e-8 0.14158605024360882 1.0 -0.6105101103822763 -0.4281688252093438 -0.023041526879187896 0.39324657532693746 0.3573418378705111 -0.9722104694411495 0.032486077467826065 -0.0
</DataArray>
        <DataArray type="Float64" Name="w31" NumberOfComponents="1" format="ascii">
 -4.235339323412812e-8 4.235339487200107e-8 -4.235339927948155e-8 4.235339664537403e-8 4.949972113882188e-8 4.4565225111252655e-15 -4.949971741467116e-8 -4.949973705723116e-8 -1.3616485275124207e-14 4.9499747953313085e-8 4.9499704700390075e-8 1.464223975380878e-14 -4.949971906042616e-8 -4.94997206552381e-8 -8.791533354921084e-15 4.949972174602233e-8 0.9999997417818243 -3.9093893353565694e-7 -0.9999996678229641 4.664877216685773e-7 7.757837116844005e-8 3.849475505048207e-7 -1.0 -6.570994006408993e-7 0.9999999564282267
</DataArray>
        <DataArray type="Float64" Name="w32" NumberOfComponents="1" format="ascii">
 1.3687365910787714e-8 -1.2590920378859062e-15 -1.3687363723699637e-8 -8.309954504761739e-16 -1.6666106957713312e-8 -1.4991131825193083e-8 2.849044367135775e-8 -2.849043981594764e-8 1.4991132263768833e-8 1.666610231744558e-8 1.6666112619261478e-8 1.4991124310311187e-8 -2.849044162954592e-8 2.8490443330537175e-8 -1.4991128974304216e-8 -1.6666112101039365e-8 -1.0 0.5771007884254817 -5.077878798077723e-8 0.577100638626407 4.690368515710786e-8 -0.5771008845180793 2.1165873081346233e-8 -0.5771006368556806 0.999999896527986
</DataArray>
        <DataArray type="Float64" Name="w33" NumberOfComponents="1" format="ascii">
 2.1037129063175317e-15 1.368736366591538e-8 6.244449793991178e-16 -1.3687365958776694e-8 2.8490440287966698e-8 -1.4991130790521285e-8 -1.6666104994557223e-8 -1.6666107214985435e-8 -1.4991129943223762e-8 2.8490442340759774e-8 -2.8490444364517186e-8 1.499113122039521e-8 1.6666108347625008e-8 1.666611086905495e-8 1.499112920872481e-8 -2.849044553583102e-8 -9.926957240864986e-8 -0.5771007019285215 1.0 0.5771007443383656 4.101845957209585e-9 -0.5771007452232167 -0.999999951768192 0.5771006916463326 0.0
</DataArray>
        <DataArray type="Float64" Name="w34" NumberOfComponents="1" format="ascii">
 1.9223616110417276e-9 2.2700395482526327e-15 -1.9223576834855894e-9 1.0435163010387946e-15 -6.3008759563322155e-9 5.775302356819843e-8 -6.596688562585331e-8 6.596688789918896e-8 -5.7753030960207154e-8 6.300879624067264e-9 6.300879384960135e-9 -5.7753030523504184e-8 6.596686875229953e-8 -6.596687471820794e-8 5.7753036053096815e-8 -6.300890634626754e-9 0.9999999576909742 -0.4961600470273558 -7.67538380135941e-9 -0.496160428474166 1.8463978372330248e-7 0.4961597180058728 -8.750056576629202e-9 0.49616057724492924 -1.0
</DataArray>
        <DataArray type="Float64" Name="w35" NumberOfComponents="1" format="ascii">
 1.1594132397002913e-15 -1.9223580371528984e-9 -9.777385576268952e-16 1.9223639241454823e-9 6.596687231616378e-8 -5.7753034235326305e-8 6.300881385296865e-9 6.300880162771383e-9 -5.775302944769548e-8 6.596688106980798e-8 -6.596688408874305e-8 5.7753032830577484e-8 -6.300888821550553e-9 -6.300875214987865e-9 5.7753023614848655e-8 -6.596687457245164e-8 3.3070290286028145e-9 -0.49616014363244315 0.9999999250640846 0.496160066944478 9.175606218680989e-8 -0.496160349537308 -1.0 0.4961603002137897 0.0
</DataArray>
        <DataArray type="Float64" Name="w36" NumberOfComponents="1" format="ascii">
 -3.149153625287627e-16 -1.4330628474850284e-16 -4.980169231537906e-16 6.660193583578889e-16 2.498872141972543e-8 -1.2906137578063047e-8 2.4988718816973286e-8 -2.4988716515388104e-8 1.2906134172973112e-8 -2.4988717422998634e-8 2.4988717625023804e-8 -1.2906136165950821e-8 2.4988720064318087e-8 -2.4988720727875456e-8 1.2906139715577793e-8 -2.4988720808399304e-8 8.617409821341328e-9 -1.0 5.19727622328184e-8 0.9999999559927719 -1.0823710927868552e-8 0.9999999601990759 1.0849480812213826e-8 -0.9999999618629878 0.0
</DataArray>
        <DataArray type="Float64" Name="w37" NumberOfComponents="1" format="ascii">
 4.631696283855602e-9 4.63169486351405e-9 4.631696724504417e-9 4.631698855842641e-9 -4.279543759378844e-9 -1.1642643824667844e-8 -4.279541506738728e-9 -4.279543233788335e-9 -1.164264448483082e-8 -4.279543260411008e-9 -4.27954263031377e-9 -1.164264360314696e-8 -4.2795410211027135e-9 -4.279543508665377e-9 -1.164264403798681e-8 -4.279540591845116e-9 -0.32805882976690953 -0.14442341042326015 -0.32805882914257567 -0.14442339838188498 1.0 -0.14442338181459732 -0.3280588138247253 -0.14442348240048003 -0.32805881692355526
</DataArray>
        <DataArray type="Float64" Name="w38" NumberOfComponents="1" format="ascii">
 1.1332181571823112e-8 -1.1331975026646032e-8 1.133218817937818e-8 -1.1331998968609033e-8 -2.638492891346751e-8 -3.1014630302239717e-13 2.6384714674615307e-8 2.6384645633863604e-8 -2.6695969734887244e-13 -2.6384841697662588e-8 -2.6384971408738285e-8 -2.716493293594574e-13 2.638472244378086e-8 2.6384620882198353e-8 -2.331216964978864e-13 -2.6384898909677226e-8 -0.9999974105727687 -5.333210464382309e-6 0.9999831345428812 -6.1028852956626595e-6 2.737486218509098e-5 -3.6549023686839787e-6 0.9999846533094927 -3.7458917447826425e-6 -1.0
</DataArray>
        <DataArray type="Float64" Name="w39" NumberOfComponents="1" format="ascii">
 1.21446253838155e-8 -2.3391935133789598e-9 -7.785770966266419e-9 -3.3089012878193486e-9 -3.99513572281936e-8 -8.486317616735804e-8 -3.846638250362521e-8 -2.2558051890743443e-8 -2.5350889189063013e-9 -1.8610695621982794e-8 2.7791502660576543e-8 -2.0484416080169293e-8 -2.6197618578935573e-8 1.646495472607527e-8 6.394660791172576e-8 5.0314744660666404e-8 -0.10822129269905378 0.10128185199581698 -0.6921117409137506 -0.1859117106389493 1.0 -0.5127747245749433 -0.612218018597808 0.14044371704902822 -0.0
</DataArray>
        <DataArray type="Float64" Name="w40" NumberOfComponents="1" format="ascii">
 -3.604954971280486e-10 5.145049404828627e-9 6.85415085567244e-9 2.3420188436866505e-9 -2.7782651196557824e-9 -1.1167692085841099e-8 -3.7003526941846357e-9 -7.68415722356998e-9 -8.818596560503835e-9 -4.3300323186023474e-9 -4.130141148895289e-9 -1.0382801409800673e-8 -7.848230545557526e-9 -3.0450970030395732e-9 -1.3354327567557541e-8 1.7428405382813444e-9 -0.3658239623073369 -0.09415052017494194 -0.3646704408245384 -0.10475463550887615 1.0 -0.12931437232420093 -0.3762654314181967 -0.14672039882861695 -0.2848973823957184
</DataArray>
        <DataArray type="Float64" Name="w41" NumberOfComponents="1" format="ascii">
 -1.465649133515764e-15 5.5159081015321585e-15 5.62186710388594e-15 5.117395921251398e-15 -3.849087620391522e-9 -2.0602458945002113e-8 -3.8490945789733805e-9 3.8490891882299765e-9 2.0602463467795697e-8 3.849083102411171e-9 -3.849087999619101e-9 -2.0602473682573934e-8 -3.849081420509088e-9 3.849079185780907e-9 2.0602475879787106e-8 3.849083444902265e-9 3.7249308744710745e-7 0.9999993518710718 1.196649603135348e-7 -1.0 1.323390991637678e-7 -0.9999996623916755 1.4006963956766808e-7 0.9999996558303501 -0.0
</DataArray>
        <DataArray type="Float64" Name="w42" NumberOfComponents="1" format="ascii">
 1.3216046293163957e-8 1.3216045465562539e-8 1.3216044497149503e-8 1.3216044754490649e-8 -1.0092218545358165e-8 2.2726914849542836e-8 -1.0092220755931779e-8 -1.0092217288163558e-8 2.2726905802053524e-8 -1.0092219705597317e-8 -1.009221520724734e-8 2.272691376201147e-8 -1.0092216333469464e-8 -1.0092220499273584e-8 2.272690643503953e-8 -1.0092220294447452e-8 0.9763403922340913 -1.0 0.9763403243539241 -0.9999996449466092 0.920643936290645 -0.9999995100702633 0.9763402745513564 -0.9999997963346156 0.9763403080850708
</DataArray>
        <DataArray type="Float64" Name="w43" NumberOfComponents="1" format="ascii">
 4.2323298287651254e-8 1.4036697150503354e-14 -4.232328651758201e-8 -2.873722759234968e-15 2.1950748183030914e-9 -7.689605469961847e-8 6.359259210436615e-8 -6.3592625993892e-8 7.689604377257146e-8 -2.195087778067044e-9 -2.1952024859504667e-9 7.689595052230055e-8 -6.359253618770613e-8 6.359255436561856e-8 -7.689589734302337e-8 2.195198819034793e-9 -0.9999990467129776 0.9214990851804348 1.2606725767738616e-7 0.9214915405040324 5.080760832018006e-7 -0.9214983399542559 7.064919081149894e-7 -0.9214941799420371 1.0
</DataArray>
        <DataArray type="Float64" Name="w44" NumberOfComponents="1" format="ascii">
 -1.2357308839012133e-15 4.232330540369276e-8 7.473712805318823e-16 -4.23233023223079e-8 6.359259708616179e-8 -7.689601311611372e-8 2.1951403030575267e-9 2.195144228571804e-9 -7.689601070186661e-8 6.359259803904346e-8 -6.359259857811371e-8 7.689600611652448e-8 -2.195145128030605e-9 -2.195141106318563e-9 7.689601025172087e-8 -6.359259763735931e-8 -5.5814410592843784e-8 -0.92149606299143 0.9999999295337655 0.9214961195148185 3.995627961538517e-8 -0.9214963329726239 -1.0 0.9214962850372673 -0.0
</DataArray>
        <DataArray type="Float64" Name="w45" NumberOfComponents="1" format="ascii">
 -2.867838650873186e-8 1.730043949018983e-15 2.867838872209807e-8 5.08872104251903e-16 1.1113720839550623e-8 1.4403384969016294e-8 6.32640701847812e-9 -6.326405451628621e-9 -1.4403380722920097e-8 -1.1113718534223727e-8 -1.1113718254084197e-8 -1.4403384450849582e-8 -6.326411810288577e-9 6.326409642800082e-9 1.4403386447743507e-8 1.1113714409695441e-8 -0.7983617965301929 0.9999998066919514 4.9777542756877385e-8 0.9999998128279152 -1.4102067543808154e-9 -1.0 1.19552553557486e-7 -0.9999999293343198 0.7983620362436198
</DataArray>
        <DataArray type="Float64" Name="w46" NumberOfComponents="1" format="ascii">
 1.3530212773634458e-15 -2.8678390237659865e-8 -2.1400955342583065e-15 2.8678391848783387e-8 6.326407450657031e-9 1.4403383269531715e-8 1.1113722019695262e-8 1.1113716081048817e-8 1.4403388636905098e-8 6.326409939856224e-9 -6.326410393519304e-9 -1.4403384624416794e-8 -1.1113720571240715e-8 -1.1113716543924652e-8 -1.440339041901798e-8 -6.326408255247551e-9 -1.7402966476867942e-8 -0.9999999757416467 0.7983619499414442 0.999999991443239 2.562803512793488e-8 -1.0 -0.7983619879638499 0.9999999942184142 -0.0
</DataArray>
        <DataArray type="Float64" Name="w47" NumberOfComponents="1" format="ascii">
 4.584366630152092e-8 2.4191545641420417e-8 -7.97200809941573e-8 5.8722521961522035e-8 0.6355902079143877 -1.2600411810763338e-7 -0.6355901307802672 0.6355901325525953 6.975607782206433e-8 -0.6355902155705636 0.6355901894066758 7.555857305008814e-8 -0.6355902825348123 0.6355902713368174 -1.3802584359713833e-7 -0.63559020929716 1.0 -0.9926138432639436 -0.09771910786024131 -0.019952697242405462 0.01880528456276999 -0.16313154986487285 -0.6787244479603568 0.8443777584860178 -0.0
</DataArray>
        <DataArray type="Float64" Name="w48" NumberOfComponents="1" format="ascii">
 -2.2131800860336938e-8 -2.2131799304406067e-8 -2.213180007842408e-8 -2.2131801085002557e-8 1.8362980853131944e-9 1.73000993371618e-8 1.8362966272100125e-9 1.8362979113127662e-9 1.7300099372025564e-8 1.8362962125574086e-9 1.8362947278825732e-9 1.7300095668385546e-8 1.836291992859178e-9 1.8362962796424693e-9 1.7300099330289236e-8 1.8362947276684891e-9 -0.41384804227133093 0.14960705193964516 -0.41384807779671035 0.14960703745411055 1.0 0.14960701781631763 -0.4138479600303443 0.14960701579958233 -0.41384804032126066
</DataArray>
        <DataArray type="Float64" Name="w49" NumberOfComponents="1" format="ascii">
 3.820902516391825e-9 -1.2556971261341394e-15 -3.820900301497329e-9 2.0624019658564953e-15 -2.2770254823476855e-9 1.9712834302142806e-8 4.049607381158536e-8 -4.0496072299154624e-8 -1.9712835957545703e-8 2.277024844966897e-9 2.2770220466202086e-9 -1.9712836142966095e-8 -4.049607337647378e-8 4.049607137735947e-8 1.9712835935594007e-8 -2.277024928138727e-9 1.0 -0.07903580912986674 7.762466449443861e-9 -0.07903583381447148 1.8128083577803272e-8 0.079035775032905 2.0071178667705076e-8 0.07903574731810045 -0.99999999093992
</DataArray>
        <DataArray type="Float64" Name="w50" NumberOfComponents="1" format="ascii">
 -4.582918491822287e-15 -3.820900686997685e-9 -4.749107710637871e-15 3.82090531076828e-9 -4.049607234231054e-8 -1.9712833099315055e-8 2.2770276683698645e-9 2.27702704741558e-9 -1.9712834199108997e-8 -4.049607302924108e-8 4.049606695485234e-8 1.9712834344842607e-8 -2.2770218366609262e-9 -2.2770215378632923e-9 1.971283597761555e-8 4.049606875700494e-8 6.116913524805595e-8 -0.07903577338950701 0.9999999506936446 0.07903585349029749 1.22524781086108e-9 -0.07903582153615428 -1.0 0.07903581195065268 0.0
</DataArray>
        <DataArray type="Float64" Name="w51" NumberOfComponents="1" format="ascii">
 -2.3495229078836073e-8 2.3495231080252537e-8 -2.3495230630436958e-8 2.3495231561564805e-8 -5.050048805928906e-9 1.1742741438262585e-15 5.0500496994177516e-9 5.050050574050874e-9 1.9471150700291302e-16 -5.050051333909672e-9 -5.05005152705846e-9 4.913324919565828e-17 5.050050516659985e-9 5.050052494499307e-9 1.8904221697422628e-16 -5.050048896395719e-9 -0.9999998842123801 -1.965162129877066e-8 1.0 4.0488085913423657e-8 -4.577503820017442e-9 -3.3892870354228255e-8 0.9999999662699292 -2.94199901957403e-8 -0.9999999938488493
</DataArray>
        <DataArray type="Float64" Name="w52" NumberOfComponents="1" format="ascii">
 -1.1071460889513496e-8 3.23601142525812e-8 -4.8902018151264456e-8 4.9452867939795655e-8 0.2091176805274707 -2.2748759313078452e-8 -0.20911766316854646 0.2091176988401793 6.2885158003296e-9 -0.2091177253805711 0.2091176637775026 1.7391934567100354e-8 -0.2091176706855118 0.20911771831928308 -9.222133842290976e-9 -0.20911770808217015 1.0 -0.10175150849423227 -0.013965320918843631 -0.13289610411523076 0.061612382512060936 0.005796041397000269 -0.35746222138038886 -0.09834834083076666 -0.0
</DataArray>
        <DataArray type="Float64" Name="w53" NumberOfComponents="1" format="ascii">
 -3.784270172328822e-8 2.3652549416765628e-15 3.784269366402665e-8 3.134673561091384e-15 -2.005782797386943e-8 -7.885037356583979e-9 1.2008384036200624e-8 -1.2008383171488661e-8 7.8850370590842e-9 2.0057827272463693e-8 2.0057810741024255e-8 7.885025792950414e-9 -1.2008395825339523e-8 1.2008400806574873e-8 -7.885031168894097e-9 -2.0057818604827762e-8 -1.0 -0.44071221737643684 9.500303951526391e-8 -0.4407121104254981 5.696347261497144e-9 0.44071230215490775 -9.1014918325996e-8 0.4407120858171704 0.9999998418873712
</DataArray>
        <DataArray type="Float64" Name="w54" NumberOfComponents="1" format="ascii">
 -1.452472667128158e-14 -3.78426880543792e-8 -1.6833887063205568e-14 3.7842713376257105e-8 1.2008382057858822e-8 -7.885029386833757e-9 -2.0057811323225525e-8 -2.0057808424647843e-8 -7.88503780568647e-9 1.2008379193670036e-8 -1.2008404194585839e-8 7.885033140052578e-9 2.0057837812911592e-8 2.00578295444642e-8 7.885039427373225e-9 -1.200840225038026e-8 7.850216630141198e-8 0.44071229473750234 0.9999998946914912 -0.4407121410884031 6.571872550532259e-9 0.440712147813151 -1.0 -0.4407122511744193 0.0
</DataArray>
        <DataArray type="Float64" Name="w55" NumberOfComponents="1" format="ascii">
 2.1105340160593468e-7 -2.1105358861722806e-7 2.110533824721377e-7 -2.1105320148373005e-7 1.6041648835362648e-7 -4.669838930692762e-13 -1.6041761937778648e-7 -1.604162407470004e-7 4.872053186878819e-13 1.6041765689267097e-7 1.604161086539171e-7 -5.691057554750269e-13 -1.604177519361142e-7 -1.6041605085205984e-7 5.540752124218919e-13 1.604173998834946e-7 -0.9999909239431071 -4.4954596842635774e-6 1.0 3.4953667968601144e-6 6.880593099909369e-8 1.0030344418209644e-5 0.9999792610258892 -9.215801593885254e-6 -0.999988603261037
</DataArray>
        <DataArray type="Float64" Name="w56" NumberOfComponents="1" format="ascii">
 -1.3260596128707372e-13 1.601118626733594e-13 -1.9496369567710262e-13 1.675690944851684e-13 -1.2119870831881677e-7 -8.86435776323828e-8 -1.211984855223795e-7 1.2119873530801333e-7 8.864357426645432e-8 1.2119845383662093e-7 -1.211987391022455e-7 -8.864359239972224e-8 -1.2119845745265056e-7 1.2119871032145923e-7 8.864359157457226e-8 1.2119848517627437e-7 1.479622151013839e-6 -0.99999917238998 -6.875049674769529e-7 0.9999998313435836 1.3145272228909132e-7 0.9999991106337546 -9.196268707238162e-7 -1.0 0.0
</DataArray>
        <DataArray type="Float64" Name="w57" NumberOfComponents="1" format="ascii">
 5.2598205273749165e-8 5.259818853447302e-8 5.259819138443088e-8 5.2598201119996775e-8 4.574611906731097e-8 4.813363184275406e-8 4.574612271595829e-8 4.574609951650964e-8 4.8133619830506144e-8 4.5746111268437894e-8 4.5746106568482634e-8 4.8133629395675265e-8 4.574610992628559e-8 4.574613439583847e-8 4.8133648287815476e-8 4.5746126623506834e-8 1.0 0.8569882492636794 0.9999997497705571 0.8569881626300029 0.5831598735836744 0.8569884079730659 0.9999998804694322 0.8569883118559197 0.9999999564512658
</DataArray>
        <DataArray type="Float64" Name="w58" NumberOfComponents="1" format="ascii">
 -0.11763782438093127 0.052747360647467746 0.11763790602882138 -0.05274726631907687 -0.05373151568697241 -0.06083485248140223 -0.09632781251571339 0.20511923202687057 0.15973615053603146 0.1888965825720899 0.05373159380648527 0.06083492929156788 0.09632788760548194 -0.20511914877339035 -0.1597360738864729 -0.18889651548807418 0.9155476712196151 0.867057958383773 1.0 0.7479640242786906 0.5266448726742996 0.6581068069930331 0.7924924492188312 0.5629397838817825 0.5685456991830412
</DataArray>
        <DataArray type="Float64" Name="w59" NumberOfComponents="1" format="ascii">
 0.037826839627464894 0.08436221390106254 -0.03782700753517877 -0.08436202301799378 0.14709788658513198 0.11455220339132816 0.13546421009711765 0.0385328016353618 0.043626762419930555 0.06907989449509198 -0.14709803920830022 -0.11455220935936365 -0.13546407244726788 -0.03853265771333317 -0.043626775973115206 -0.0690800480893627 1.0 0.10177272650797205 -0.37618275148850605 0.011202478516467005 0.22718292381026908 -0.2957552243228747 -0.82176752596077 -0.43201040519353495 -0.0
</DataArray>
        <DataArray type="Float64" Name="w60" NumberOfComponents="1" format="ascii">
 2.746131895618465e-10 -2.744566631761494e-10 2.746117089147087e-10 -2.747667620005688e-10 0.9999992211860571 -5.985424121262027e-5 -0.9991778250460527 -0.9991773457022214 -5.985894747957384e-5 0.9999999997560481 0.9991778252485858 5.985421819253571e-5 -0.9999992210145362 -1.0 5.985897047703746e-5 0.9991773455721583 -0.49979414254858673 -1.4964730413876491e-5 0.499999806113805 1.4963551274936765e-5 -2.0090761951710903e-15 -1.4963571412834508e-5 0.4995887935439868 1.496475056148896e-5 -0.49979445710921716
</DataArray>
        <DataArray type="Float64" Name="w61" NumberOfComponents="1" format="ascii">
 1.2287633039627742e-13 1.4340302429645492e-10 -4.4992155734012166e-14 -1.4321593884603743e-10 0.7053703685481694 0.997070914194847 0.7060748545261466 0.7067804336863444 0.9999999999676636 0.7060748325942359 -0.7060748178425247 -0.9970709141857281 -0.7053704052042854 -0.7060748696011484 -1.0 -0.7067803967101044 0.0003525070367591143 0.24999999812957907 0.3528613210866682 -0.24926772665402433 -1.535130162634357e-12 0.24926772664918362 -0.3532138244387043 -0.24999999811861992 -3.6837994887138264e-9
</DataArray>
        <DataArray type="Float64" Name="w62" NumberOfComponents="1" format="ascii">
 1.433085955483931e-10 -8.461977353615725e-14 -1.4330830945258866e-10 8.376887431812094e-14 0.7066929990028223 1.0 0.7061526056856091 -0.7054536266868887 -0.9970625349645567 -0.7059938049396401 -0.7061526426601172 -0.9999999999939286 -0.7066929619936652 0.7059937682821735 0.997062534999802 0.7054536633683287 -0.35303666797857114 -0.2492656318530886 0.00017479842359138708 -0.24999999812728418 3.166319934924326e-12 0.24999999812753396 -0.00017474474608815727 0.24926563184602796 0.35303661428503336
</DataArray>
        <DataArray type="Float64" Name="w63" NumberOfComponents="1" format="ascii">
 -8.493561515849837e-13 -3.002538079394485e-10 5.395045960560048e-13 3.002994985341825e-10 -0.706154199121981 0.9984825926283294 -0.7065691071123535 -0.7069829477465164 0.9999999999722079 -0.7065690969988818 0.7065690299918302 -0.9984825926147305 0.7061542762148999 0.7065691742494526 -1.0 0.7069828705266943 -0.00020716784875221775 0.25000000524309185 -0.35318086501295637 -0.2496206534090856 -9.601184158629755e-13 0.24962065340774453 0.35338801611167703 -0.25000000523758276 1.6749114987788108e-8
</DataArray>
        <DataArray type="Float64" Name="w64" NumberOfComponents="1" format="ascii">
 3.002766418292132e-10 -6.937653568200227e-13 -3.002764798996095e-10 6.941495959448543e-13 0.7070060435366594 -1.0 0.7065506412365692 -0.7061336697961339 0.9984865989402952 -0.7065886039596649 -0.7065507184545279 0.9999999999833497 -0.7070059662841189 0.706588526864771 -0.9984865989650342 0.7061337469150779 -0.35328495001019694 0.24962165499588868 0.00010435985196006868 0.2500000052449637 -3.1711109570503434e-12 -0.2500000052385207 -0.00010424285792125931 -0.2496216549865191 0.3532848330001207
</DataArray>
        <DataArray type="Float64" Name="w65" NumberOfComponents="1" format="ascii">
 6.501935753961299e-13 5.44849080360597e-13 4.397347889717899e-13 5.444457994896282e-13 0.9992194878982908 0.00015170160964922636 -0.9999999997969903 0.9999998506370338 -0.0001529864409192315 -0.9992193379991255 1.0 -0.00015170164895251593 -0.9992194877195382 0.9992193382433631 0.00015298640175133736 -0.9999998504995764 0.00019509064512519006 -3.8246586523336565e-5 3.736228900114381e-8 -3.79253916591473e-5 -5.813136276849606e-12 3.792543029545343e-5 3.728420418239468e-8 3.824662512520088e-5 -0.0001951655075619502
</DataArray>
        <DataArray type="Float64" Name="w66" NumberOfComponents="1" format="ascii">
 3.8762934678490693e-10 3.876932257570162e-10 3.876306459793185e-10 3.875645557811304e-10 -0.9999992104632858 0.9390370052878859 -0.9996829670243771 -0.9996823584573094 0.9390366229461403 -1.0 -0.9996829668772637 0.9390370052886721 -0.9999992106165434 -0.9999999998115537 0.9390366229081072 -0.9996823585691934 0.5713375908385057 -0.41115320719733284 0.5714283455234613 -0.4111080518725797 0.2682962313270016 -0.41115342921502857 0.5712472355368333 -0.4111080295512871 0.5713379902217794
</DataArray>
        <DataArray type="Float64" Name="w67" NumberOfComponents="1" format="ascii">
 4.771898983272186e-12 2.7059177575393686e-10 -4.270703529091359e-12 -2.704795519662848e-10 0.9712409143974555 0.003589984836661757 -0.9695880233637132 -0.9983018548144224 0.003669787690040997 1.0 -0.9695881247668782 0.0035900751134756255 0.9712408130313585 0.9999999011535579 0.0036698754324631833 -0.9983019536154655 0.007731725549725706 0.13770016106280714 -0.5632116373776401 -0.14364026984344935 0.001037123080372029 0.14183140219494525 0.5622542556522439 -0.13956109486256815 -0.008689107277243459
</DataArray>
        <DataArray type="Float64" Name="w68" NumberOfComponents="1" format="ascii">
 -2.705335341822066e-10 4.521785901644336e-12 2.7053959106281864e-10 -4.5207946986895044e-12 0.9999999011536334 0.0031235848773643717 -0.9982994450182777 0.9695883141300531 -0.003018141583146235 -0.9712383511344588 -0.9982993462173638 0.0031234971349326486 1.0 -0.9712384525005073 -0.0030180513063805467 0.969588212727102 -0.56273946585811 0.1437194383186094 -0.008217585062767077 0.13762015831997598 1.5063508824570329e-5 -0.13964077295773222 0.008203180317510878 -0.1417518753487834 0.5627250611344801
</DataArray>
        <DataArray type="Float64" Name="w69" NumberOfComponents="1" format="ascii">
 3.703039710522017e-13 2.1776235148698732e-13 -8.103962927431044e-13 2.2170745062965584e-13 0.20499623550895005 0.99999999979786 0.20922133272810095 -0.20919838925975828 -0.9999437797394357 -0.20498625322998448 0.20922133244888855 1.0 0.20499623536811534 -0.2049862529422409 -0.999943779900589 -0.20919838911051794 0.0012006153225929022 0.3149834004020083 -2.8521193892093714e-6 -0.3155997709166786 8.03143987805056e-6 -0.3149980372367483 -6.555274583684887e-6 0.3155869856714225 -0.001210022646346322
</DataArray>
        <DataArray type="Float64" Name="w70" NumberOfComponents="1" format="ascii">
 -1.1610356519632802e-11 -1.2293963327927088e-11 -1.1607859105863955e-11 -1.092295716951333e-11 0.284393985077521 0.999936720099904 0.2895223052914403 0.28953560954783275 1.0 0.2844072992547792 0.2895223054816693 0.9999367198795548 0.28439398542001487 0.28440729943408977 0.9999999997380536 0.28953560987940113 -0.16397988550926798 -0.24508657356186228 -0.16251465403888934 -0.24433397587324668 0.28570524683920184 -0.24506659158807498 -0.16544511977355666 -0.24435395646244287 -0.1639798883031766
</DataArray>
        <DataArray type="Float64" Name="w71" NumberOfComponents="1" format="ascii">
 1.2962858991908756e-12 -9.787757998658291e-13 6.622528671535591e-13 -9.792876923258561e-13 0.9996753498157838 -0.828292507596292 0.9999999000818618 -0.9999999998858305 0.828292722006298 -0.9996751040063573 0.9999998999422558 -0.8282925075979772 0.9996753499713172 -0.9996751038254893 0.8282927219736962 -1.0 9.275719106984549e-5 -0.09384429847447529 -7.032198394593362e-8 0.09379785864467755 3.062755188372216e-8 0.09384427236353576 2.8519864663828353e-8 -0.09379793418012145 -9.279884424865273e-5
</DataArray>
        <DataArray type="Float64" Name="w72" NumberOfComponents="1" format="ascii">
 -0.9999999999844035 0.9999999999273348 -0.9999999999429428 1.0 0.25000000005774703 -4.309908401822746e-12 -0.25000000004053646 -0.25000000004201034 -1.0337303983202404e-12 0.2500000000459074 0.2500000000456497 4.209271268797894e-12 -0.2500000000608852 -0.25000000006138307 1.1328104191159793e-12 0.25000000005551704 -0.06249999987153833 -2.6259445183171456e-13 0.06249999987279763 1.0569276089737644e-12 -2.0963483562679016e-16 -1.0827166289577583e-12 0.062499999867442785 2.8894667679490417e-13 -0.06249999986870299
</DataArray>
        <DataArray type="Float64" Name="w73" NumberOfComponents="1" format="ascii">
 7.415468488183724e-11 -0.9999999999992414 -4.0405468445568283e-13 1.0 0.01785714291051532 -0.0714285714615716 0.2678571428685162 0.26785714287046786 -0.0714285714670471 0.017857142930550914 -0.017857142930320927 0.0714285714671336 -0.2678571428701415 -0.2678571428726082 0.07142857147239441 -0.017857142950346568 5.3446920628707675e-12 -0.01785714276194109 0.07142857120414839 0.01785714275905085 3.936087897184378e-13 -0.017857142760669267 -0.07142857120323395 0.017857142760420122 2.9561451626830674e-17
</DataArray>
        <DataArray type="Float64" Name="w74" NumberOfComponents="1" format="ascii">
 -0.9999999999999869 -5.8002990416264e-11 1.0 1.6555716207355388e-11 0.2678571428718395 -0.07142857147129153 0.017857142946022614 -0.017857142914885354 0.0714285714628566 -0.2678571428691509 -0.26785714287143636 0.071428571468203 -0.017857142934888142 0.017857142925964097 -0.07142857146590188 0.26785714286970613 -0.07142857120384659 0.0178571427602934 1.1822056362785818e-12 0.017857142761618577 -2.2670557836837608e-13 -0.017857142760755715 -4.16243019433832e-12 -0.017857142759440055 0.0714285712035889
</DataArray>
        <DataArray type="Float64" Name="w75" NumberOfComponents="1" format="ascii">
 0.9999999999418786 1.0 0.9999999999833138 0.9999999999252018 -0.2857142856126116 0.14285714277614028 -0.285714285626509 -0.28571428562776735 0.14285714277910017 -0.2857142856231922 -0.2857142856227364 0.1428571427738641 -0.28571428560727957 -0.2857142856075824 0.14285714277090453 -0.2857142856105944 0.08163265267364098 -0.0408163261971939 0.08163265267259442 -0.04081632619849456 0.02040816297897413 -0.04081632619797122 0.08163265267779769 -0.04081632619927213 0.08163265267675081
</DataArray>
      </PointData>
    </Piece>
    <FieldData>
      <DataArray type="Float64" Name="omega_sq" NumberOfComponents="1" NumberOfTuples="75" format="ascii">
 3.3625692206921995e7 2.853360443255813e8 2.8533605845472753e8 5.874425050992708e8 1.6762708238376565e9 1.8652309511093805e9 1.865231173469696e9 1.9230654782016153e9 1.979287060481754e9 7.084226876576565e9 7.147827337363513e9 7.147827355525568e9 9.171947443251352e9 1.1636734038432766e10 1.16367340718274e10 1.520745376076557e10 1.8024038159429276e10 1.8076107597903763e10 1.8076107663844444e10 1.8096085788655968e10 1.9226430910693398e10 2.02300774280935e10 2.0230077473903343e10 2.0592781306780212e10 2.1147457950721153e10 2.185490086203541e10 2.185490086292001e10 2.2638703907231472e10 2.3595436069637917e10 2.457862979686191e10 2.4639755942619617e10 2.4967305106904575e10 2.4967305176772522e10 2.7120416736754883e10 2.7120416781522133e10 2.7342816202165424e10 2.7993301808735344e10 2.8091967873696907e10 2.8483516474388103e10 2.848351650052359e10 3.0292101143793148e10 3.05247407552393e10 3.068016548394158e10 3.068016548862011e10 3.1536292690644276e10 3.1536292701088787e10 3.1886239871610207e10 3.2556985592327522e10 3.478773816132297e10 3.478773824209825e10 3.607330234336492e10 3.645984553668563e10 3.701320148735261e10 3.7013201559600914e10 3.714247146099077e10 3.7296423461048e10 3.839148118700327e10 3.8461538416459526e10 3.846153843196699e10 1.3714285734056957e18 1.3714285743085952e18 1.371428574308596e18 1.3714285745750093e18 1.3714285745750093e18 1.3714285753837181e18 1.400000000956805e18 1.400000003185896e18 1.4000000031858967e18 1.4000000032424596e18 1.4000000032485844e18 1.4000000051073577e18 2.7428571459165706e18 2.771428574519378e18 2.771428574519378e18 2.8000000030593905e18
</DataArray>
      <DataArray type="Float64" Name="omega" NumberOfComponents="1" NumberOfTuples="75" format="ascii">
 5798.766438383425 16891.892857983126 16891.893276205825 24237.213228819663 40942.28649987268 43188.31961432837 43188.3221886391 43852.770473501616 44489.17913922164 84167.8494234976 84544.82442683002 84544.82453424082 95770.28476125229 107873.69483999687 107873.69499478268 123318.50534597624 134253.6336917153 134447.41573531178 134447.4159805403 134521.69263228873 138659.40613854292 142232.4766995692 142232.47686060783 143501.85123119567 145421.6557144126 147834.03147460808 147834.03147759993 150461.63599812236 153608.05991105386 156775.73089245002 156970.55756612326 158010.45885290182 158010.45907398828 164682.77607799452 164682.77621391416 165356.63337817875 167311.98943511295 167606.5866059473 168770.6031108146 168770.60318824364 174046.26150478827 174713.3101833953 175157.54475312098 175157.54476647617 177584.60713317548 177584.6071625826 178567.18587582157 180435.54414894956 186514.71298887648 186514.71320541512 189929.73001445804 190944.6137933344 192388.15318868417 192388.1533764512 192723.82172681915 193122.81962794557 195937.4420242422 196116.13502325484 196116.13506279126 1.1710800883823855e9 1.171080088767884e9 1.1710800887678845e9 1.1710800888816311e9 1.1710800888816311e9 1.1710800892269146e9 1.1832159570242472e9 1.18321595796621e9 1.1832159579662104e9 1.1832159579901125e9 1.1832159579927006e9 1.1832159587781758e9 1.6561573433453026e9 1.664760816009128e9 1.664760816009128e9 1.6733200539823189e9
</DataArray>
      <DataArray type="Float64" Name="relative_residual" NumberOfComponents="1" NumberOfTuples="75" format="ascii">
 1.396442946672319e-5 1.5584655601986387e-6 1.8173797337694204e-6 1.1297794305711745e-6 4.722939214783743e-7 2.951590423272122e-7 2.9657541731472163e-7 4.2022523545473305e-7 3.1490676744102716e-7 4.6995181445072985e-7 1.312854801317795e-6 5.377806764407617e-7 4.461451969194382e-7 4.863973071229859e-7 2.0711589500678617e-7 2.593587629236888e-7 3.2688838968364216e-7 4.835418111189891e-7 1.5494648501726952e-7 2.316428505293156e-7 3.8884888548499145e-7 7.954773284880327e-7 1.4656446842511974e-7 2.2795359710975834e-7 2.542353341609354e-7 3.971845720499781e-7 2.471493861059175e-7 3.987844761277018e-7 2.571513233627176e-7 1.502740381574853e-7 1.6603248626096003e-7 1.4664439878401172e-7 3.402092849329081e-8 9.66392639766748e-8 1.0382317901408325e-7 3.471876543704459e-8 5.949901568969204e-8 1.8419675658018541e-7 4.855352155116074e-7 2.9411791865467103e-7 4.2355054285222677e-8 5.4914507609722146e-8 1.5577260016416465e-7 4.1994299836791146e-8 4.055535237931125e-8 2.6289084555456822e-8 2.786339761757724e-7 6.121462998196323e-8 4.368182303460419e-8 4.29733383024651e-8 3.4043012043564684e-8 1.4235993350475983e-7 4.2584278176648094e-8 2.4645826383869755e-8 7.858538252493065e-7 9.087681750782137e-8 5.2964832251042325e-8 3.5479345161879197e-8 2.0022664637578235e-7 1.6508106536188428e-15 8.075494330882414e-16 8.076600822647158e-16 1.0054070908827147e-15 8.468761695862565e-16 1.0967011896213827e-15 1.0285208493666059e-15 7.2925923274862e-16 1.0014240514289691e-15 1.497024209889523e-15 3.120584893607511e-16 1.4107797429328918e-15 8.378953845647533e-16 6.41999285319728e-16 9.449205783143248e-16 6.309308342995733e-16
</DataArray>
      <DataArray type="Float64" Name="rho" NumberOfComponents="1" NumberOfTuples="1" format="ascii">
 1.0
</DataArray>
      <DataArray type="Float64" Name="alpha_boundary_penalty" NumberOfComponents="1" NumberOfTuples="1" format="ascii">
 1.0e16
</DataArray>
      <DataArray type="Float64" Name="color_range_min" NumberOfComponents="1" NumberOfTuples="1" format="ascii">
 -1.0
</DataArray>
      <DataArray type="Float64" Name="color_range_max" NumberOfComponents="1" NumberOfTuples="1" format="ascii">
 1.0
</DataArray>
    </FieldData>
  </UnstructuredGrid>
</VTKFile>
