<?xml version="1.0" encoding="utf-8"?>
<VTKFile type="UnstructuredGrid" version="1.0" byte_order="LittleEndian" header_type="UInt64">
  <UnstructuredGrid>
    <Piece NumberOfPoints="25" NumberOfCells="16">
      <Points>
        <DataArray type="Float64" Name="Points" NumberOfComponents="3" format="ascii">
 0.0 0.0 0.0 1.0 0.0 0.0 1.0 1.0 0.0 0.0 1.0 0.0 0.24999999999941094 0.0 0.0 0.4999999999986921 0.0 0.0 0.7499999999993406 0.0 0.0 1.0 0.24999999999941094 0.0 1.0 0.4999999999986921 0.0 1.0 0.7499999999993406 0.0 0.7500000000003471 1.0 0.0 0.5000000000020595 1.0 0.0 0.2500000000010405 1.0 0.0 0.0 0.7500000000003471 0.0 0.0 0.5000000000020595 0.0 0.0 0.2500000000010405 0.0 0.24999999999981837 0.25000000000063316 0.0 0.2500000000002257 0.5000000000012177 0.0 0.25000000000063316 0.7500000000000954 0.0 0.49999999999953393 0.2500000000002257 0.0 0.5000000000003757 0.5000000000003757 0.0 0.5000000000012177 0.749999999999844 0.0 0.7499999999995922 0.24999999999981837 0.0 0.749999999999844 0.49999999999953393 0.0 0.7500000000000953 0.7499999999995921 0.0
</DataArray>
      </Points>
      <Cells>
        <DataArray type="Int64" Name="connectivity" NumberOfComponents="1" format="ascii">
 0 4 16 15 15 16 17 14 14 17 18 13 13 18 12 3 4 5 19 16 16 19 20 17 17 20 21 18 18 21 11 12 5 6 22 19 19 22 23 20 20 23 24 21 21 24 10 11 6 1 7 22 22 7 8 23 23 8 9 24 24 9 2 10
</DataArray>
        <DataArray type="Int64" Name="offsets" NumberOfComponents="1" format="ascii">
 4 8 12 16 20 24 28 32 36 40 44 48 52 56 60 64
</DataArray>
        <DataArray type="UInt8" Name="types" NumberOfComponents="1" format="ascii">
 9 9 9 9 9 9 9 9 9 9 9 9 9 9 9 9
</DataArray>
      </Cells>
      <PointData>
        <DataArray type="Float64" Name="w1" NumberOfComponents="1" format="ascii">
 -1.1298027928519407e-10 -3.1118498605407794e-10 -1.1297781958164148e-10 -3.111900601595198e-10 3.1361684390607847e-12 2.2963062190886522e-10 3.4220578492498003e-10 4.686332403274654e-11 -5.486104239909533e-11 -1.4280983134970695e-10 3.1377463620945255e-12 2.2963383963426732e-10 3.422019097316471e-10 4.68753286236699e-11 -5.488220513154785e-11 -1.427946709127161e-10 0.3890245413248292 0.6981272305246435 0.6295118392924233 0.695965570759225 1.0 0.695965428613814 0.6295112170942725 0.6981269099454797 0.38902333339100803
</DataArray>
        <DataArray type="Float64" Name="w2" NumberOfComponents="1" format="ascii">
 2.719912100841897e-10 -2.0471049791179703e-10 -2.720098516224722e-10 2.0470902742069175e-10 -3.6988120557559886e-10 -5.638592322498233e-10 7.097929446391344e-10 9.813634870439044e-11 2.5416933273429467e-11 -2.263982810598547e-10 3.6989198917703757e-10 5.638683921839999e-10 -7.097988266035554e-10 -9.812807719192326e-11 -2.5439771838408334e-11 2.2642092049582976e-10 -0.7208051967682585 -0.9999951452222233 -0.72385079244873 -0.28286792237870595 4.2715223726379614e-6 0.28286964984286406 0.7238524897709164 1.0 0.7208066737370588
</DataArray>
        <DataArray type="Float64" Name="w3" NumberOfComponents="1" format="ascii">
 4.723465139620576e-10 -2.340202215261619e-10 4.723325271612901e-10 -2.3401903467535247e-10 -1.0928478015950128e-9 1.7252195200541716e-10 5.4160766021289e-10 -1.6792255783019307e-10 -1.873172105934694e-10 4.956402270432161e-10 -1.092840572594628e-9 1.7251350580860584e-10 5.416096023323963e-10 -1.6792854603200422e-10 -1.872985446671031e-10 4.956243664005811e-10 -1.0 -0.7616818312810629 -0.05789315673780296 0.5107120631113825 0.8785726757418206 0.5107112974693176 -0.05789277460248629 -0.7616818857093954 -0.9999989204368892
</DataArray>
        <DataArray type="Float64" Name="w4" NumberOfComponents="1" format="ascii">
 -5.687957315805113e-10 3.502978627620551e-10 5.687834443028392e-10 -3.503002288932285e-10 1.6145814949802682e-9 -1.035387500485706e-9 1.297101011720415e-10 -2.791392311748507e-10 -5.590200873234853e-10 7.380931286524556e-10 -1.6145732402068513e-9 1.035385270748059e-9 -1.2971109743779875e-10 2.791420895087493e-10 5.590242621514203e-10 -7.380949907205971e-10 1.0 0.0774284559865 -0.5936230949427416 -0.8346638264571796 4.469936791941964e-7 0.8346674647306217 0.5936204073285162 -0.07742963061291394 -0.9999963253641772
</DataArray>
        <DataArray type="Float64" Name="w5" NumberOfComponents="1" format="ascii">
 -3.755616567655074e-10 -3.996259660472262e-12 -3.755411562257343e-10 -3.998238477052673e-12 6.283390921669078e-10 1.2739491334320381e-9 -1.4423035335756607e-9 6.038562217469598e-10 1.94988153284591e-10 -8.792782428311567e-10 6.28322448464326e-10 1.273959423278256e-9 -1.442308767545516e-9 6.038593878534885e-10 1.9497857581234184e-10 -8.792665678133323e-10 0.9220619504601898 0.19513516267322745 -1.0 0.6277433013966682 0.23961967576432577 0.6277479875862814 -0.999997278104626 0.19513455520414524 0.9220572731125863
</DataArray>
        <DataArray type="Float64" Name="w6" NumberOfComponents="1" format="ascii">
 -5.332099800401506e-10 5.525476646420008e-10 -5.332023693796998e-10 5.525492118641804e-10 1.901179277600273e-9 -1.3180309035919527e-9 2.1714594220985763e-10 -1.4077647301713729e-9 1.939292712435086e-9 -1.3511636211467038e-9 1.9011784830807756e-9 -1.3180338307690492e-9 2.1713983695477074e-10 -1.407750805171757e-9 1.9392825927656954e-9 -1.351157505437413e-9 0.7728797164842254 -0.6964485551221979 0.24242264600611477 -0.5825549040406484 1.0 -0.582560325402326 0.24242738473316766 -0.6964495263018824 0.7728772857021474
</DataArray>
        <DataArray type="Float64" Name="w7" NumberOfComponents="1" format="ascii">
 -8.992613937765777e-11 -1.7910105317538805e-10 8.990539770752925e-11 1.7909619250117607e-10 -1.4458041921512654e-10 6.623572028728462e-10 1.2892329924836594e-9 -2.1840250617948056e-9 6.120721034699953e-10 9.367936344347726e-10 1.446019570301691e-10 -6.623661699787199e-10 -1.2892361770633154e-9 2.184025708662548e-9 -6.120751204401957e-10 -9.367870596919875e-10 0.4321706303708153 0.3124432433674532 -0.9716284563355393 1.0 4.535896269913874e-7 -0.99999999398604 0.9716289401558019 -0.3124436565515556 -0.4321693919996621
</DataArray>
        <DataArray type="Float64" Name="w8" NumberOfComponents="1" format="ascii">
 4.3210393343288254e-10 5.26105064706531e-10 -4.320960583346176e-10 -5.261056480471432e-10 -1.4678813161324786e-9 -1.3613978207713278e-9 1.0185913765870055e-9 -1.6400971004470744e-9 3.815445233890174e-9 -3.504755023783572e-9 1.467877816088805e-9 1.3613994041244182e-9 -1.0185942099556936e-9 1.64009848067263e-9 -3.8154461505682786e-9 3.504755607124184e-9 -1.0 0.8767295548669373 -0.13694326611553528 -0.7187455706720848 6.546186606662508e-7 0.7187444025415564 0.136942697367758 -0.8767291992757896 0.9999996989387143
</DataArray>
        <DataArray type="Float64" Name="w9" NumberOfComponents="1" format="ascii">
 2.4345960823109364e-8 3.687949034322791e-8 -2.4350090080979032e-8 -3.6881479953482736e-8 -4.8126262134058126e-8 5.9278213184892425e-8 -5.988001662529048e-8 -1.0568694812508674e-8 7.345082548546489e-10 4.2240297936753116e-9 4.8131617534563635e-8 -5.928296125713685e-8 5.988370941084012e-8 1.0571020750529832e-8 -7.380574639832323e-10 -4.22038869563725e-9 0.2669936817960258 -0.6982216362278136 1.0 0.010763452813441104 0.00030906272467385687 -0.010917882923436059 -0.9998801478292633 0.6986293441801429 -0.26694665320950617
</DataArray>
        <DataArray type="Float64" Name="w10" NumberOfComponents="1" format="ascii">
 -1.6189724496064855e-8 -2.1607991613670752e-8 -1.6189662896768385e-8 -2.1607824315581478e-8 3.0737701742635754e-8 -3.611516650124814e-8 3.4699924239825436e-8 9.179960105056635e-9 -4.357203836081182e-9 3.6524070856123936e-9 3.073776474191623e-8 -3.611483120507758e-8 3.469943809537772e-8 9.180115153285819e-9 -4.357591631652142e-9 3.652801181111402e-9 0.43989535039801264 1.0 0.9286497954285221 -0.26725711042014777 0.15910002962792702 -0.2672390867250361 0.9287483912085993 0.9999040125160924 0.4399098319174538
</DataArray>
        <DataArray type="Float64" Name="w11" NumberOfComponents="1" format="ascii">
 5.7429521928888385e-9 5.5030845686489476e-9 -5.742903024864157e-9 -5.50306757865089e-9 -1.051733600228262e-8 1.0853252976600709e-8 -1.0625080391781168e-8 -3.995378240132957e-10 1.0333811072964069e-9 -3.601372462456817e-10 1.0517154775636674e-8 -1.0853036225413372e-8 1.0624986174519214e-8 3.9955835359428164e-10 -1.0334346515327089e-9 3.601353155640843e-10 -0.7687476796076796 -0.21872946434427712 1.0 -0.18238935543818635 3.5480581299175446e-6 0.18238710450023418 -0.9999986118927094 0.2187357527718838 0.7687430727344179
</DataArray>
        <DataArray type="Float64" Name="w12" NumberOfComponents="1" format="ascii">
 -3.336476470359262e-9 -1.6665297375465415e-9 -3.336681490075233e-9 -1.6666232553117215e-9 5.717129443840222e-9 -6.347906769976851e-9 3.3631829192541037e-9 2.556005976867017e-9 -3.2558675288092204e-9 2.9704821073988375e-9 5.717585118143152e-9 -6.34820216022552e-9 3.3633278710876247e-9 2.556046441284643e-9 -3.25594576001663e-9 2.9704762625385136e-9 0.16076251787598642 -0.09350903955662962 -0.007625944474976157 -0.6833303141935584 1.0 -0.6833221705212652 -0.007629862309102825 -0.09352342173976663 0.16079157823169163
</DataArray>
        <DataArray type="Float64" Name="w13" NumberOfComponents="1" format="ascii">
 5.3634118606124174e-9 -5.820696975895846e-9 -8.959688021485484e-9 4.9477861943908274e-9 -1.7105563549669952e-8 2.4801904557745285e-10 9.335107475240418e-9 3.1002380697181605e-9 1.3641047506759908e-9 -3.332755924947023e-10 6.25473030565639e-9 3.57302437535018e-9 -9.176704686365756e-9 4.960380911549057e-10 -3.0072309276266157e-9 4.030309490633609e-9 -0.39762330602870183 0.804128633193788 -0.6236596486921195 -1.0 0.25117843222123654 0.766412724609023 0.8257491189868857 -0.6245838183293324 0.6705685297494662
</DataArray>
        <DataArray type="Float64" Name="w14" NumberOfComponents="1" format="ascii">
 -1.3745163288152366e-8 7.616795543578661e-9 -1.3746827678217001e-8 7.617619140285921e-9 2.1321814077324825e-8 -1.1662115479301624e-8 -3.4352473538757974e-9 -3.888046513458077e-9 1.5501820443560898e-9 2.2421265722945926e-9 2.1324491630294465e-8 -1.166324592873436e-8 -3.4360079985603184e-9 -3.887963908120921e-9 1.5493986755267751e-9 2.2422196184550327e-9 -0.37843383299306377 -0.4499811769358566 -0.659233037990854 0.9999115101108785 0.18276647352998007 1.0 -0.6591253876580405 -0.44997678354859666 -0.37844200898160973
</DataArray>
        <DataArray type="Float64" Name="w15" NumberOfComponents="1" format="ascii">
 1.5062758582622527e-8 -7.563794311671568e-9 -1.5062577864716512e-8 7.564030000803747e-9 -2.3163332762696693e-8 1.3231345182564092e-8 3.686919314263979e-9 3.2417321249689766e-9 -4.2530138258712236e-10 4.499338859602478e-9 2.3163484620708972e-8 -1.3231632956933063e-8 -3.686948998726108e-9 -3.2417830764242277e-9 4.252268965756698e-10 -4.4995476128338366e-9 0.24104202817775533 -0.14606637131199587 -1.0 -0.5539395927101199 2.806727867726115e-5 0.5539318873692607 0.9999656538649953 0.14608414379328508 -0.24107667561705698
</DataArray>
        <DataArray type="Float64" Name="w16" NumberOfComponents="1" format="ascii">
 1.0305234625897679e-8 -2.815061135569986e-9 1.0305114918559478e-8 -2.815061452815582e-9 -1.5939711833081653e-8 8.76687266171243e-9 5.135571707078976e-12 4.295389468638437e-9 -2.881516579773675e-9 -1.7363016433513716e-9 -1.593961073748508e-8 8.766841042901367e-9 5.229172376447815e-12 4.295264262376572e-9 -2.881433990170198e-9 -1.736379897265037e-9 -0.6369485696432285 -0.2933090652304167 0.4189462370448941 -0.42607957151899284 1.0 -0.4260782189022676 0.41894694178066755 -0.29331330953936147 -0.6369432478811577
</DataArray>
        <DataArray type="Float64" Name="w17" NumberOfComponents="1" format="ascii">
 -9.477679861310863e-9 -1.6676948408587796e-9 9.477690517836088e-9 1.6677297634474666e-9 1.6406888948866772e-8 -1.1664013533339947e-8 4.373097970390727e-9 9.721740930260963e-10 -8.85385682504882e-10 -1.2290291550551559e-9 -1.6406856337331748e-8 1.1664003647165943e-8 -4.373190268096397e-9 -9.720977640592788e-10 8.853082943051355e-10 1.2290488391337517e-9 0.9999941284727526 -0.8986064490376459 0.24367126568977313 -0.08845399922808028 7.195721573570806e-6 0.08844442089407303 -0.24368176073540165 0.8986225191005472 -1.0
</DataArray>
        <DataArray type="Float64" Name="w18" NumberOfComponents="1" format="ascii">
 -5.0365787337280856e-9 -4.716324656794561e-9 -5.036658177919554e-9 -4.716354803027931e-9 1.0868302410035615e-8 -1.4054891122652499e-8 9.963546117585466e-9 3.0716798715545916e-9 -2.8568835255257784e-9 2.761270135793338e-9 1.0868310389920917e-8 -1.4054972694813383e-8 9.96353175379192e-9 3.0717054071875635e-9 -2.8568539112847624e-9 2.761146713567307e-9 0.20146059658396195 -0.18846719135066495 0.19378081948656903 -0.741483266851613 1.0 -0.7414935485144362 0.1937863888429267 -0.18847113212499889 0.20145820574940895
</DataArray>
        <DataArray type="Float64" Name="w19" NumberOfComponents="1" format="ascii">
 -5.4068076280433564e-11 -4.04255327718829e-12 -5.4070003102641826e-11 -4.0431152669990325e-12 -5.780146491298712e-10 -1.4347800177481896e-9 -1.7614773395035574e-9 6.987194348557283e-9 -9.22880441128517e-9 6.073992297245833e-9 -5.780081260338537e-10 -1.4347847545194516e-9 -1.761475412681349e-9 6.9871870426897426e-9 -9.228799654442844e-9 6.073991735256023e-9 -0.47413630248217836 0.7175093524490194 -0.5254907450308364 -0.6954280233654013 1.0 -0.6954280533563838 -0.5254905285465109 0.7175089631510764 -0.47413594061522907
</DataArray>
        <DataArray type="Float64" Name="w20" NumberOfComponents="1" format="ascii">
 -2.0882019014537e-8 -3.2301939831395052e-9 2.0895637184362383e-8 3.229917989310727e-9 8.416477948160772e-9 2.8842706060049194e-8 -1.793737674915128e-8 4.796259895004959e-10 1.5975575500107913e-9 -5.0828292134770784e-9 -8.42330398746209e-9 -2.8861350826526344e-8 1.7948612869549796e-8 -4.730723169696928e-10 -1.605275929995071e-9 5.084884658959866e-9 -0.8103088418533366 -0.47176341195170196 -1.0 0.18881653605487791 0.00034973670010142883 -0.18984000110731397 0.9991293014914079 0.4722196109955846 0.8100556689802085
</DataArray>
        <DataArray type="Float64" Name="w21" NumberOfComponents="1" format="ascii">
 -1.9158099177369745e-8 -2.3738374339054887e-9 -1.9157638535312798e-8 -2.3739094092268866e-9 8.679527833692634e-9 2.554488001458068e-8 -1.5925557441427562e-8 -4.920501016788691e-10 1.4133555599783438e-9 2.3117142930530967e-9 8.679325310029665e-9 2.554464268216314e-8 -1.5925346479278638e-8 -4.920947760162886e-10 1.4132597583436557e-9 2.3118458341577206e-9 -0.2426233157974678 0.08298160416380444 0.9999774866796779 0.7206946470526703 0.31820990854526293 0.720629356488654 1.0 0.08292112179364997 -0.24265982021391416
</DataArray>
        <DataArray type="Float64" Name="w22" NumberOfComponents="1" format="ascii">
 1.2938380591414972e-8 -7.740973060797763e-10 -1.293836303268312e-8 7.740744033860575e-10 -7.175089487277617e-9 -1.457828751372528e-8 1.0774810066320472e-8 1.7725447596479065e-9 -2.943667955217043e-10 2.116617283276045e-9 7.175051697832982e-9 1.4578357748652682e-8 -1.0774875338997573e-8 -1.772524397721772e-9 2.943209901342667e-10 -2.116593951156819e-9 -0.36303322970589363 -0.5679258445535706 0.6094700721326242 -1.0 2.911372567959772e-6 0.9999981591902029 -0.6094702853746847 0.5679298362359569 0.3630294001609755
</DataArray>
        <DataArray type="Float64" Name="w23" NumberOfComponents="1" format="ascii">
 5.9383855396451434e-9 -2.5120516694517513e-9 5.938283574922635e-9 -2.5119833974201586e-9 -5.865121226573635e-9 -4.785747500293897e-9 4.539792186583259e-9 7.035762467658367e-9 -8.011924176878583e-9 3.660945830187421e-9 -5.865027685023857e-9 -4.785738633796288e-9 4.539687561911468e-9 7.035744069675828e-9 -8.01189292247451e-9 3.660878001480709e-9 -0.5170934837559523 0.5837301283092775 -0.29786297334365963 -0.6960192398659983 1.0 -0.6960199440174012 -0.29785952998460535 0.5837267185160252 -0.5170915245696781
</DataArray>
        <DataArray type="Float64" Name="w24" NumberOfComponents="1" format="ascii">
 1.688447318140235e-8 -1.58467681263299e-8 -1.688440993374129e-8 1.5846890541157757e-8 -2.5772646587509968e-8 3.2455292442615526e-9 2.174875762214122e-8 2.5242291146649587e-9 8.48935949860179e-10 2.869962592647869e-9 2.577247656691572e-8 -3.2456366972771143e-9 -2.1748623645912955e-8 -2.524133903132182e-9 -8.490257207339396e-10 -2.8697908718476822e-9 -0.7824344516505712 1.0 -0.8263330143436938 0.05470757277152653 5.252930577403595e-6 -0.0547166016481245 0.8263281626852639 -0.9999946040984717 0.782429801511031
</DataArray>
        <DataArray type="Float64" Name="w25" NumberOfComponents="1" format="ascii">
 4.626349607232097e-8 -1.2626914361313798e-9 4.6264487818552354e-8 -1.2663689238501808e-9 2.6872898230969525e-8 -6.701835813782831e-9 -5.578244381916129e-8 4.784401446851062e-10 5.675476955695047e-9 -1.554800540723288e-8 2.6877575567147216e-8 -6.700400171484638e-9 -5.578616605804343e-8 4.732229293814379e-10 5.696940302110472e-9 -1.5554749734995167e-8 0.7154208489826197 0.3999476446751635 0.6936829449146132 0.9997474213616392 0.5635711247532323 1.0 0.693462971747395 0.4000854514120298 0.7155434702812162
</DataArray>
        <DataArray type="Float64" Name="w26" NumberOfComponents="1" format="ascii">
 -6.267833021358921e-8 -6.925725000840527e-10 6.267745150433238e-8 6.902390816880371e-10 -3.286278767195125e-8 1.0054946632628421e-8 7.354566321905751e-8 -3.1364695346363513e-8 -3.2603968017559875e-8 -4.605521936414096e-8 3.286432839539862e-8 -1.0057763646067361e-8 -7.354421676155166e-8 3.13571275671556e-8 3.2601084968631464e-8 4.606890864443425e-8 -0.8672296241648457 -0.21037999960089285 0.5390043065073918 -0.9999656965002816 0.00018603334120505894 1.0 -0.5389078217308755 0.21063310943817465 0.8671968476671877
</DataArray>
        <DataArray type="Float64" Name="w27" NumberOfComponents="1" format="ascii">
 -4.4542177621658454e-8 -7.347748230742783e-9 -4.4541359272060154e-8 -7.345959480353164e-9 -1.6941739547689012e-8 7.864877153966109e-9 4.80142257116065e-8 -5.4435770550051766e-8 -7.350488227326551e-9 7.47391888800943e-8 -1.69430931886218e-8 7.86439432473915e-9 4.801405413532119e-8 -5.443302770065565e-8 -7.3582394666650645e-9 7.474276163853612e-8 -0.49917050337437313 0.7030612254318719 0.12891199272688622 -0.26455449635430817 1.0 -0.26462594418991336 0.1289810687492528 0.7030174248852986 -0.4992015254964147
</DataArray>
        <DataArray type="Float64" Name="w28" NumberOfComponents="1" format="ascii">
 -7.670130978659449e-8 -3.809660497607518e-8 7.670066047468531e-8 3.809675787855702e-8 4.888080270737338e-9 2.001785119080594e-8 6.637689016727786e-8 -9.293994818140246e-8 1.4764480502564446e-7 -1.2083636191736106e-7 -4.888255166041908e-9 -2.0017705270172586e-8 -6.637634244126414e-8 9.293918681082509e-8 -1.476448692586505e-7 1.2083703426937024e-7 0.05541693539707373 0.6755970953670705 -0.9999997653945882 0.7491362053154788 3.548786552962851e-6 -0.7491386438988252 1.0 -0.6755911128224064 -0.05542233916121707
</DataArray>
        <DataArray type="Float64" Name="w29" NumberOfComponents="1" format="ascii">
 3.98539094765759e-8 3.873630392959235e-8 3.985446389001086e-8 3.8736440443453225e-8 -2.7569121164214157e-8 -1.4634385484751371e-8 -2.3643511168530343e-8 -4.940687364659762e-9 -4.232884239272863e-9 -3.570130339723692e-9 -2.7569050817785855e-8 -1.4634483691151286e-8 -2.3643864990169746e-8 -4.9402541421012844e-9 -4.233450319070938e-9 -3.5694947841214237e-9 -0.5775396547142625 0.7058096110816301 -0.5733172624880819 -0.8148057257604983 1.0 -0.8148066341884935 -0.5733151090409367 0.7058075874059428 -0.5775384711342753
</DataArray>
        <DataArray type="Float64" Name="w30" NumberOfComponents="1" format="ascii">
 0.440391914194613 0.4403919139406801 -0.4403919141992217 -0.44039191394244154 -0.8486435988486192 0.9999999999904703 -0.8486435983032828 -0.11009797860189151 -1.2923875695150748e-10 0.11009797865808511 0.8486435988580173 -1.0 0.8486435983076137 0.11009797860273239 1.2888019655371448e-10 -0.11009797865688599 0.21216090031295365 -1.7721171593184806e-10 -0.21216089997568657 -0.2500000010544119 -7.063287303304973e-13 0.2500000010576774 0.21216089997426413 1.7786559681712237e-10 -0.21216090031550502
</DataArray>
        <DataArray type="Float64" Name="w31" NumberOfComponents="1" format="ascii">
 0.44572644190937266 0.44572644167071734 0.4457264419065779 0.4457264416650401 -0.8502136330351412 1.0 -0.8502136324263928 -0.12735041233069844 0.06367520640530165 -0.12735041219272977 -0.8502136330303458 0.9999999999928326 -0.8502136324165142 -0.12735041232953068 0.06367520640522173 -0.12735041219344662 0.24291818154372843 -0.12145909096767224 0.24291818132116325 -0.2857142871612745 0.14285714404630132 -0.28571428715993047 0.24291818132359172 -0.12145909096806151 0.24291818154264638
</DataArray>
        <DataArray type="Float64" Name="w32" NumberOfComponents="1" format="ascii">
 -0.8143265820683866 0.8143265823014885 -0.8143265820111005 0.814326582246386 0.99999999948505 8.263198153357202e-11 -1.0 -0.20358164548507449 -5.058969654370953e-10 0.20358164618247923 0.9999999994159522 8.629477381356202e-11 -0.9999999999339322 -0.2035816454699843 -5.139742161604111e-10 0.20358164619879393 -0.25000000123358135 -5.322620476367693e-11 0.25000000083257673 -4.215469487867641e-10 4.0738338547698705e-11 -4.227317771751176e-10 0.2500000008513907 -6.322658467910625e-11 -0.25000000121392646
</DataArray>
        <DataArray type="Float64" Name="w33" NumberOfComponents="1" format="ascii">
 -0.8216731648315007 0.8216731652496798 0.8216731648855035 -0.8216731653059072 0.9999999994652276 -2.431392057033622e-14 -0.9999999999299696 -0.23476376205912047 0.11738188158501144 -0.2347637622448808 -0.9999999995322143 -3.6319685046915688e-12 1.0 0.23476376207389363 -0.11738188158541657 0.23476376223145023 -0.2857142871701164 0.14285714361663449 -0.2857142865639655 -5.175798300957577e-10 -4.585081001670757e-13 5.189529664219172e-10 0.28571428654626935 -0.14285714361650617 0.2857142871869106
</DataArray>
        <DataArray type="Float64" Name="w34" NumberOfComponents="1" format="ascii">
 0.9057658745321532 0.9057658747206137 -0.9057658744956588 -0.9057658746825838 -0.21706465079166093 -1.0 -0.21706465044836687 -0.22644146865712617 -1.9233987372735213e-9 0.2264414691499656 0.21706465078448675 0.999999999958416 0.21706465044071593 0.22644146864834003 1.928915038298079e-9 -0.22644146916201136 0.05426616300434424 8.809819356976544e-10 -0.054266163298477686 0.2500000010853867 -3.1142670608896847e-12 -0.25000000107363984 0.05426616330134937 -8.822134192514887e-10 -0.054266163002767
</DataArray>
        <DataArray type="Float64" Name="w35" NumberOfComponents="1" format="ascii">
 -0.9085363581721921 -0.9085363585900088 -0.9085363582103323 -0.9085363586266005 0.2138499958540731 0.9999999999592694 0.2138499954843565 0.2595818184783853 -0.1297909092599386 0.25958181625395577 0.21384999586459957 1.0 0.21384999549440498 0.2595818184900739 -0.12979090926242168 0.25958181624647736 -0.06109999964908157 0.030549999506605682 -0.06109999874550568 -0.28571428698656987 0.1428571437412701 -0.2857142869969045 -0.06109999874388426 0.03054999950763277 -0.06109999965245858
</DataArray>
        <DataArray type="Float64" Name="w36" NumberOfComponents="1" format="ascii">
 -6.825941189894942e-11 1.342249663586174e-9 6.809722755489881e-11 -1.3426647305293854e-9 -5.198922460936203e-10 -5.729633663296636e-10 3.069838442339261e-10 0.7278959280221601 1.0 0.727964663104706 5.19939658783292e-10 5.732227126678621e-10 -3.069278370989967e-10 -0.727964662337538 -0.9999999999999243 -0.7278959287904245 -0.3639479644914649 -0.5000000000589228 -0.36398233115290574 -1.619958615993213e-10 7.517140497198715e-13 1.6303753969847011e-10 0.36394796399566104 0.5000000000590725 0.3639823316485988
</DataArray>
        <DataArray type="Float64" Name="w37" NumberOfComponents="1" format="ascii">
 -7.784704730210681e-10 2.093634283297367e-9 -7.774482101191816e-10 2.094838991675972e-9 -9.192014502317296e-10 -5.911164539360217e-10 6.931461721513417e-10 0.9999999986175324 4.443230444648951e-5 -0.9999923516974595 -9.193118309814461e-10 -5.920919706370563e-10 6.928632689956861e-10 0.9999923503144726 -4.443052236420493e-5 -1.0 -0.5000000003013322 -2.2215071153577876e-5 0.49999617550238484 -1.4144827276175344e-10 5.322311278012413e-10 -1.426908280098972e-10 0.4999999996541266 2.2216342228160648e-5 -0.4999961761497371
</DataArray>
        <DataArray type="Float64" Name="w38" NumberOfComponents="1" format="ascii">
 -2.311877730361685e-9 1.372612207050855e-9 2.3106286843036154e-9 -1.3739229928303757e-9 -8.837403183290077e-10 4.0788359980032434e-10 1.0027278193997679e-9 0.6973855794931257 -0.9999999999993155 0.6973605340101063 8.838492535683626e-10 -4.0674294934419595e-10 -1.0023860273655757e-9 -0.6973605346811753 1.0 -0.6973855788205351 -0.34869279028353095 0.5000000011128035 -0.34868026803407814 -5.855952764412909e-11 -6.643879302645674e-13 5.927242117589814e-11 0.3486927904399525 -0.5000000011126867 0.34868026787790624
</DataArray>
        <DataArray type="Float64" Name="w39" NumberOfComponents="1" format="ascii">
 -1.0 0.9999999997146848 -0.9999999999731102 0.9999999996873918 -0.6446752106312446 -1.9738669289368253e-11 0.6446752105212381 -0.25000000004191963 -7.33753139079465e-10 0.25000000118014737 -0.644675210612996 -2.1341187600993978e-11 0.6446752105031778 -0.2500000000357707 -7.378339670337002e-10 0.2500000011890213 0.16116880360243627 -6.560412728621316e-10 -0.161168802515006 5.334868648421848e-10 -6.254468497246928e-10 5.33143038653605e-10 -0.16116880251902876 -6.53353333500285e-10 0.1611688035964761
</DataArray>
        <DataArray type="Float64" Name="w40" NumberOfComponents="1" format="ascii">
 -0.9999999999722646 0.9999999998028606 1.0 -0.9999999998301926 -0.6456003436461072 -1.0285744906071318e-11 0.6456003435868307 -0.28571428649704694 0.1428571438614153 -0.2857142869444793 0.6456003436631159 1.188750390752261e-11 -0.6456003436040318 0.2857142865057861 -0.14285714386319745 0.28571428693899 0.18445724194896077 -0.09222862117624667 0.1844572414571184 2.6402444439062657e-10 -4.5196578067861927e-13 -2.635425113874876e-10 -0.18445724145147255 0.09222862117490342 -0.18445724195222934
</DataArray>
      </PointData>
    </Piece>
    <FieldData>
      <DataArray type="Float64" Name="lambda" NumberOfComponents="1" NumberOfTuples="40" format="ascii">
 9.458912253472652e6 1.3990114366895234e7 2.42401163067175e7 3.2067765211217396e7 3.2861071794967663e7 5.2223507500621125e7 6.274204795580246e7 9.05314756574576e7 1.3459270372325113e8 1.368173906490636e8 1.459907360042147e8 1.6248539971081424e8 1.7433601027647492e8 1.899894129244401e8 1.9276385038458037e8 2.0617653411959827e8 2.3107528279035506e8 2.478211924840012e8 3.0461485446590924e8 4.452460254330187e8 4.542660547317715e8 4.9104379280942875e8 5.572048030546284e8 5.869707735134584e8 1.9004417640448182e9 1.9370372696754506e9 2.0736664062565057e9 2.335944688218106e9 2.542946549077055e9 8.897306485669344e15 9.062584801516046e15 1.6170696286175978e16 1.6426636654120014e16 4.045334298843946e16 4.106762366299018e16 5.000000002038908e16 5.000000010260463e16 5.000000031386845e16 1.7668644682546157e17 1.794066969774398e17
</DataArray>
      <DataArray type="Float64" Name="k_num" NumberOfComponents="1" NumberOfTuples="40" format="ascii">
 104.65598985560207 154.7904482064486 268.19927052004084 354.80651693379195 363.5838777503985 577.8151572557841 694.1951630824636 1001.6649847387193 1489.1704519541615 1513.7849960053807 1615.2813956657294 1797.7828621441486 1928.9012556663158 2102.094779914271 2132.7919140986846 2281.1935120089606 2556.680070978491 2741.9613917115003 3370.3419869600625 4926.323690534051 5026.123759452223 5433.042703198021 6165.066199294619 6494.405030113964 21027.006980217786 21431.909654374005 22943.61175592981 25845.53033607528 28135.855488652043 9.844223017974797e10 1.0027091462919438e11 1.7891700241354272e11 1.8174879658113913e11 4.475868408514941e11 4.54383410089217e11 5.532136629127545e11 5.532136638224099e11 5.532136661598905e11 1.9549071279098894e12 1.9850047189099133e12
</DataArray>
      <DataArray type="Float64" Name="k_ref_first_mode" NumberOfComponents="1" NumberOfTuples="40" format="ascii">
 4.0 4.0 4.0 4.0 4.0 4.0 4.0 4.0 4.0 4.0 4.0 4.0 4.0 4.0 4.0 4.0 4.0 4.0 4.0 4.0 4.0 4.0 4.0 4.0 4.0 4.0 4.0 4.0 4.0 4.0 4.0 4.0 4.0 4.0 4.0 4.0 4.0 4.0 4.0 4.0
</DataArray>
      <DataArray type="Float64" Name="full_relative_residual" NumberOfComponents="1" NumberOfTuples="40" format="ascii">
 9.00882643707632e-6 2.538700646559018e-6 9.27174692936829e-7 7.32681880762964e-7 8.445470054774464e-7 4.1691606633567177e-7 1.40758106463079e-6 5.306383643469058e-7 9.097252138931129e-6 4.938023024853108e-6 2.945991321533277e-6 5.495834313934037e-6 1.7127558102340686e-5 4.109118767665636e-6 3.784546123797808e-6 1.5892275339023211e-6 1.1303414610516736e-6 2.255712484949586e-6 2.8375589343992083e-7 3.2155252568401407e-6 2.310430273500464e-6 9.316321833427667e-7 6.676919266313393e-7 1.9506675212413845e-6 7.104662040223843e-6 5.9126141665585054e-6 1.525950020432934e-6 1.3961420625437939e-6 1.9574588444303936e-6 2.1200020438676605e-15 1.8926067392516025e-15 2.249765237825715e-15 1.971278480014715e-15 3.1195267281229724e-15 2.8331682231257554e-15 3.612841772227347e-15 3.4347930203288696e-15 6.415485354427581e-15 4.5525282189622245e-15 4.7492472297552994e-15
</DataArray>
      <DataArray type="Float64" Name="alpha_boundary_penalty" NumberOfComponents="1" NumberOfTuples="1" format="ascii">
 1.0e16
</DataArray>
      <DataArray type="Float64" Name="color_range_min" NumberOfComponents="1" NumberOfTuples="1" format="ascii">
 -1.0
</DataArray>
      <DataArray type="Float64" Name="color_range_max" NumberOfComponents="1" NumberOfTuples="1" format="ascii">
 1.0
</DataArray>
    </FieldData>
  </UnstructuredGrid>
</VTKFile>
