<?xml version="1.0" encoding="utf-8"?>
<VTKFile type="UnstructuredGrid" version="1.0" byte_order="LittleEndian" header_type="UInt64">
  <UnstructuredGrid>
    <Piece NumberOfPoints="289" NumberOfCells="256">
      <Points>
        <DataArray type="Float64" Name="Points" NumberOfComponents="3" format="ascii">
 0.0 0.0 -2.6572128041165684e-9 1.0 0.0 2.978519050117336e-10 1.0 1.0 2.657213971592742e-9 0.0 1.0 -2.978516773615706e-10 0.06249999999987293 0.0 -9.620215108501953e-9 0.1249999999997731 0.0 -1.3381014225586033e-8 0.1874999999995934 0.0 -1.0861601162994775e-8 0.2499999999994109 0.0 -5.9360847685429995e-9 0.3124999999992285 0.0 -1.2727021592690758e-9 0.3749999999990461 0.0 3.0421374017213455e-9 0.4374999999988636 0.0 8.290121947071142e-9 0.4999999999986921 0.0 1.3589552005267495e-8 0.562499999998846 0.0 1.5359415142350046e-8 0.6249999999990109 0.0 1.0876410266009922e-8 0.6874999999991758 0.0 1.762312494928343e-9 0.7499999999993406 0.0 -6.906537950673785e-9 0.8124999999995055 0.0 -1.0827844807672932e-8 0.8749999999996703 0.0 -9.442354071961373e-9 0.9374999999998351 0.0 -4.834550278030535e-9 1.0 0.06249999999987293 1.9416779881805354e-8 1.0 0.1249999999997731 1.3987888646062716e-8 1.0 0.1874999999995934 -2.4566485030790824e-8 1.0 0.2499999999994109 -3.3360746436253575e-8 1.0 0.3124999999992285 1.712049055552935e-9 1.0 0.3749999999990461 1.9206009430841584e-8 1.0 0.4374999999988636 2.122841998935814e-8 1.0 0.4999999999986921 4.3965262276182545e-9 1.0 0.562499999998846 -2.6947722027679285e-8 1.0 0.6249999999990109 -1.8090794800617375e-8 1.0 0.6874999999991758 2.062181193341571e-8 1.0 0.7499999999993406 2.4489020405615946e-8 1.0 0.8124999999995055 7.571228346175695e-9 1.0 0.8749999999996703 -1.6518528568693738e-8 1.0 0.9374999999998351 -2.669664464486715e-8 0.9374999999997398 1.0 9.620214614747206e-9 0.8749999999995012 1.0 1.3381013616852574e-8 0.8124999999999132 1.0 1.086160060694387e-8 0.7500000000003471 1.0 5.9360847193213425e-9 0.6875000000007805 1.0 1.2727018685536648e-9 0.625000000001214 1.0 -3.042137764731065e-9 0.5625000000016476 1.0 -8.290121753260868e-9 0.5000000000020595 1.0 -1.3589552172159676e-8 0.437500000001821 1.0 -1.5359415019295906e-8 0.3750000000015609 1.0 -1.0876411182763281e-8 0.3125000000013007 1.0 -1.7623122549727658e-9 0.2500000000010405 1.0 6.906537656112932e-9 0.1875000000007804 1.0 1.0827844376983434e-8 0.1250000000005203 1.0 9.442353635119169e-9 0.06250000000026013 1.0 4.834549925788053e-9 0.0 0.9374999999997398 -1.9416779414199614e-8 0.0 0.8749999999995012 -1.3987889581274196e-8 0.0 0.8124999999999132 2.4566484833904196e-8 0.0 0.7500000000003471 3.336074592231026e-8 0.0 0.6875000000007805 -1.7120477511790285e-9 0.0 0.625000000001214 -1.9206009326245562e-8 0.0 0.5625000000016476 -2.1228420727682995e-8 0.0 0.5000000000020595 -4.396526172243891e-9 0.0 0.437500000001821 2.6947721560073542e-8 0.0 0.3750000000015609 1.8090794222262908e-8 0.0 0.3125000000013007 -2.0621812007248194e-8 0.0 0.2500000000010405 -2.4489020577891747e-8 0.0 0.1875000000007804 -7.571228004700451e-9 0.0 0.1250000000005203 1.6518528913245336e-8 0.0 0.06250000000026013 2.6696644780226707e-8 0.06249999999989714 0.06250000000023594 -0.05956852318469639 0.06249999999992133 0.1250000000004735 -0.0320735831455539 0.06249999999994553 0.1875000000007062 0.018131415911355545 0.06249999999996972 0.2500000000009386 0.05276998450975661 0.06249999999999394 0.3125000000011712 0.04364516405272251 0.06250000000001812 0.3750000000014037 -0.033489596827212496 0.06250000000004231 0.4375000000016362 -0.052088243720940425 0.06250000000006652 0.5000000000018491 0.011325662567431742 0.06250000000009072 0.5625000000014727 0.046636901499154844 0.06250000000011492 0.6250000000010764 0.03462756250034961 0.06250000000013912 0.6875000000006801 -0.008652300748836087 0.06250000000016333 0.750000000000284 -0.07094573227170521 0.06250000000018753 0.8124999999998879 -0.04736523454458482 0.06250000000021173 0.874999999999512 0.029178550764555763 0.06250000000023594 0.9374999999997459 0.04228044866257738 0.1249999999998198 0.06250000000021173 -0.088837093357508 0.1249999999998665 0.1250000000004269 -0.060194730126258 0.1249999999999132 0.187500000000632 0.03272879375395844 0.1249999999999599 0.2500000000008367 0.09810440880786957 0.1250000000000066 0.3125000000010417 0.06488963673262259 0.1250000000000533 0.3750000000012465 -0.05002365065015187 0.1250000000001 0.4375000000014513 -0.08082397781195973 0.1250000000001467 0.5000000000016386 0.011983485201771771 0.1250000000001934 0.5625000000012973 0.07969403683860347 0.1250000000002401 0.6250000000009387 0.059621372679789425 0.1250000000002868 0.6875000000005799 -0.025980747894645176 0.1250000000003335 0.7500000000002214 -0.11296036547739244 0.1250000000003802 0.8124999999998621 -0.07858785832497407 0.1250000000004269 0.8749999999995222 0.038488960178958996 0.1250000000004735 0.9374999999997516 0.07236949398132204 0.1874999999996675 0.06250000000018753 -0.08200634129457893 0.1874999999997418 0.1250000000003802 -0.07322816481925562 0.187499999999816 0.1875000000005578 0.041166880801730574 0.1874999999998902 0.250000000000735 0.12053090488313839 0.1874999999999643 0.3125000000009122 0.06138084899062432 0.1875000000000385 0.3750000000010892 -0.04359801878114108 0.1875000000001127 0.4375000000012665 -0.07474940612103892 0.1875000000001869 0.5000000000014281 0.0019581291783390834 0.1875000000002611 0.5625000000011223 0.08794708784870323 0.1875000000003353 0.6250000000008009 0.06748784145140745 0.1875000000004095 0.6875000000004797 -0.04519060437753626 0.1875000000004836 0.7500000000001584 -0.11971519134343563 0.1875000000005578 0.8124999999998368 -0.08591484799070119 0.187500000000632 0.8749999999995328 0.023667955584679407 0.1875000000007062 0.9374999999997576 0.07565311164204214 0.2499999999995128 0.06250000000016334 -0.05166332483439656 0.2499999999996146 0.1250000000003335 -0.05637253131627796 0.2499999999997165 0.1875000000004836 0.041345932505626626 0.2499999999998184 0.2500000000006332 0.10530188328595355 0.2499999999999202 0.3125000000007827 0.04790784359956353 0.250000000000022 0.3750000000009321 -0.01874339061115517 0.2500000000001238 0.4375000000010816 -0.040192373684232875 0.2500000000002258 0.5000000000012177 -0.007000391367951438 0.2500000000003276 0.5625000000009472 0.06484114852470654 0.2500000000004294 0.6250000000006634 0.05079178771578464 0.2500000000005313 0.6875000000003794 -0.05053965210463337 0.2500000000006331 0.7500000000000955 -0.09938119533105799 0.2500000000007349 0.8124999999998113 -0.07249701061913624 0.2500000000008367 0.8749999999995436 -0.004766159757671896 0.2500000000009386 0.9374999999997636 0.04323773536193595 0.312499999999358 0.06250000000013912 -0.012856568899210868 0.3124999999994875 0.1250000000002868 -0.007997494782048156 0.3124999999996171 0.1875000000004095 0.0329687667740578 0.3124999999997466 0.2500000000005312 0.055073319844394376 0.3124999999998761 0.3125000000006531 0.036551664730285 0.3125000000000056 0.375000000000775 0.017306142069382077 0.3125000000001351 0.4375000000008968 0.005667641865819449 0.3125000000002647 0.5000000000010071 -0.004792164863082435 0.3125000000003941 0.5625000000007719 0.015122052024533006 0.3125000000005236 0.6250000000005257 0.011280951216913882 0.3125000000006531 0.687500000000279 -0.03624502941132679 0.3125000000007827 0.7500000000000325 -0.06212529672624508 0.3125000000009122 0.8124999999997857 -0.04965701578949557 0.3125000000010416 0.8749999999995541 -0.03458906424350933 0.3125000000011713 0.9374999999997697 -0.016582603533553016 0.3749999999992032 0.06250000000011491 0.028564735192395885 0.3749999999993605 0.12500000000024 0.05185699909577506 0.3749999999995176 0.1875000000003353 0.019929463099661607 0.3749999999996748 0.2500000000004294 -0.00648305154491487 0.3749999999998321 0.3125000000005236 0.026834045519580584 0.374999999999989 0.3750000000006178 0.056475821701024435 0.3750000000001463 0.437500000000712 0.04822659265547943 0.3750000000003035 0.5000000000007966 0.004456371390493637 0.3750000000004607 0.562500000000597 -0.04238546233818977 0.3750000000006179 0.6250000000003879 -0.03784521690658911 0.375000000000775 0.6875000000001785 -0.013669821392205257 0.3750000000009321 0.7499999999999697 -0.01560452629163843 0.3750000000010893 0.8124999999997604 -0.02831861716975327 0.3750000000012465 0.8749999999995648 -0.062219153627224424 0.3750000000014037 0.9374999999997755 -0.07733350519660703 0.4374999999990484 0.06250000000009072 0.07094484286036236 0.4374999999992333 0.1250000000001934 0.09421389007775094 0.4374999999994181 0.1875000000002611 0.009410105688879029 0.437499999999603 0.2500000000003276 -0.049475133306638476 0.4374999999997878 0.3125000000003941 0.014289921897843809 0.4374999999999726 0.3750000000004607 0.08715241582864007 0.4375000000001574 0.4375000000005271 0.08032489781849823 0.4375000000003423 0.5000000000005861 0.007525333697469601 0.4375000000005272 0.562500000000422 -0.08367333781033805 0.4375000000007119 0.6250000000002504 -0.07858134484530704 0.4375000000008968 0.6875000000000783 0.0002072826643112926 0.4375000000010817 0.7499999999999066 0.029492020881026752 0.4375000000012664 0.8124999999997349 -0.01359333384029339 0.4375000000014513 0.874999999999575 -0.08795128615631385 0.4375000000016361 0.9374999999997813 -0.11024722240850537 0.4999999999989027 0.06250000000006652 0.10436879409324532 0.499999999999113 0.1250000000001467 0.10389446552612823 0.4999999999993235 0.1875000000001869 0.006943286991394802 0.4999999999995339 0.2500000000002257 -0.05639739980924905 0.4999999999997445 0.3125000000002647 0.0019543605130537506 0.4999999999999548 0.3750000000003035 0.09661368795120066 0.5000000000001653 0.4375000000003423 0.09533365419794772 0.5000000000003758 0.5000000000003758 -2.0189942309790459e-10 0.5000000000005863 0.5625000000002468 -0.09533365430316469 0.5000000000007968 0.6250000000001125 -0.0966136854017169 0.5000000000010071 0.6874999999999781 -0.0019543597597489627 0.5000000000012176 0.7499999999998438 0.056397399499474275 0.5000000000014281 0.8124999999997093 -0.006943285351958008 0.5000000000016386 0.8749999999995857 -0.10389446658435865 0.5000000000018491 0.9374999999997876 -0.10436879423583043 0.5624999999990211 0.06250000000004231 0.11024722301575621 0.5624999999991961 0.1250000000001 0.08795128603218261 0.5624999999993713 0.1875000000001127 0.013593334591065324 0.5624999999995466 0.250000000000124 -0.029492020628851714 0.5624999999997214 0.3125000000001351 -0.00020728240729681738 0.5624999999998966 0.3750000000001463 0.07858134567104917 0.5625000000000718 0.4375000000001574 0.08367333683653812 0.5625000000002468 0.5000000000001653 -0.0075253340269222715 0.562500000000422 0.5625000000000716 -0.08032489650872397 0.562500000000597 0.6249999999999746 -0.0871524130093648 0.5625000000007722 0.687499999999878 -0.01428992057130346 0.5625000000009471 0.749999999999781 0.049475133567317496 0.5625000000011223 0.8124999999996838 -0.009410105228390028 0.5625000000012973 0.8749999999995963 -0.09421389042562844 0.5625000000014725 0.9374999999997934 -0.07094484423312035 0.6249999999991486 0.06250000000001811 0.07733350661790708 0.6249999999992862 0.1250000000000533 0.062219154861505345 0.6249999999994238 0.1875000000000385 0.028318616617565597 0.6249999999995616 0.250000000000022 0.0156045269079984 0.6249999999996995 0.3125000000000056 0.013669821374737951 0.624999999999837 0.3749999999999891 0.03784521529194824 0.6249999999999748 0.4374999999999727 0.04238546118611021 0.6250000000001125 0.4999999999999548 -0.004456371336532894 0.6250000000002501 0.5624999999998966 -0.0482265899293643 0.6250000000003878 0.6249999999998369 -0.05647581957029693 0.6250000000005255 0.6874999999997776 -0.02683404345449605 0.6250000000006634 0.7499999999997179 0.006483052987200716 0.625000000000801 0.8124999999996583 -0.019929464305704907 0.6250000000009387 0.874999999999607 -0.051856998283797584 0.6250000000010764 0.9374999999997996 -0.02856473756344855 0.6874999999992761 0.06249999999999394 0.016582605709825816 0.6874999999993764 0.1250000000000066 0.034589065970534676 0.6874999999994765 0.1874999999999644 0.04965701533538143 0.6874999999995769 0.2499999999999201 0.062125297017094384 0.6874999999996773 0.3124999999998761 0.036245028819454614 0.6874999999997775 0.374999999999832 -0.011280954875501849 0.687499999999878 0.4374999999997878 -0.015122053342753482 0.6874999999999781 0.4999999999997445 0.004792166044393857 0.6875000000000783 0.5624999999997217 -0.005667638732671598 0.6875000000001786 0.6249999999996992 -0.01730614045922597 0.687500000000279 0.6874999999996773 -0.03655166213897002 0.6875000000003794 0.7499999999996553 -0.05507331839035929 0.6875000000004797 0.812499999999633 -0.032968767714809055 0.6875000000005799 0.8749999999996174 0.007997494523326503 0.6875000000006802 0.9374999999998054 0.012856567146596866 0.7499999999994034 0.06249999999996973 -0.04323773355014012 0.7499999999994664 0.1249999999999599 0.004766161240427593 0.7499999999995294 0.1874999999998901 0.07249701152950144 0.7499999999995921 0.2499999999998183 0.09938119458305672 0.7499999999996553 0.3124999999997465 0.050539650199589566 0.7499999999997179 0.3749999999996749 -0.050791791370173665 0.749999999999781 0.437499999999603 -0.0648411502422821 0.7499999999998438 0.4999999999995339 0.007000393576107407 0.7499999999999069 0.5624999999995463 0.04019237627717138 0.7499999999999697 0.6249999999995616 0.01874339244192814 0.7500000000000325 0.6874999999995769 -0.04790784136495897 0.7500000000000953 0.7499999999995921 -0.10530188223439423 0.7500000000001584 0.8124999999996074 -0.04134593213407747 0.7500000000002213 0.8749999999996279 0.05637252866287629 0.7500000000002841 0.9374999999998112 0.05166332446671585 0.812499999999531 0.06249999999994553 -0.07565311101429677 0.8124999999995566 0.1249999999999132 -0.023667954124907978 0.8124999999995821 0.1874999999998159 0.08591484989075653 0.8124999999996072 0.2499999999997165 0.11971518997517641 0.812499999999633 0.3124999999996171 0.04519060113283712 0.8124999999996583 0.3749999999995177 -0.0674878442036344 0.812499999999684 0.4374999999994181 -0.087947088917124 0.8124999999997093 0.4999999999993235 -0.001958127228332038 0.8124999999997349 0.5624999999993713 0.07474940778690273 0.8124999999997602 0.6249999999994239 0.043598021195644196 0.8124999999997857 0.6874999999994765 -0.06138084738355813 0.8124999999998113 0.7499999999995294 -0.12053090422163124 0.8124999999998368 0.8124999999995819 -0.041166879882578986 0.8124999999998623 0.8749999999996385 0.07322816231241248 0.8124999999998879 0.9374999999998174 0.08200634040878829 0.8749999999996598 0.06249999999992133 -0.07236949429603745 0.874999999999649 0.1249999999998665 -0.038488958625919716 0.8749999999996385 0.1874999999997418 0.07858786006605603 0.874999999999628 0.2499999999996146 0.11296036463856113 0.8749999999996174 0.3124999999994875 0.025980743969180226 0.874999999999607 0.3749999999993605 -0.05962137442908629 0.8749999999995963 0.4374999999992333 -0.07969403630443583 0.8749999999995857 0.499999999999113 -0.011983485171231123 0.8749999999995752 0.5624999999991963 0.08082397943365761 0.8749999999995646 0.6249999999992862 0.05002365281502609 0.8749999999995541 0.6874999999993762 -0.06488963576889971 0.8749999999995435 0.7499999999994665 -0.09810440804321666 0.8749999999995328 0.8124999999995566 -0.03272879357453828 0.8749999999995222 0.8749999999996492 0.060194729863409034 0.8749999999995117 0.9374999999998231 0.0888370915683588 0.9374999999998294 0.06249999999989712 -0.0422804492663062 0.9374999999998231 0.1249999999998198 -0.0291785494076551 0.9374999999998174 0.1874999999996676 0.047365235362055114 0.9374999999998112 0.2499999999995128 0.07094573211221585 0.9374999999998053 0.3124999999993581 0.008652297793309475 0.9374999999997993 0.3749999999992032 -0.03462756334860757 0.9374999999997933 0.4374999999990485 -0.04663690062703645 0.9374999999997874 0.4999999999989025 -0.011325663589676618 0.9374999999997816 0.5624999999990211 0.05208824519311704 0.9374999999997756 0.6249999999991486 0.03348959786792025 0.9374999999997696 0.687499999999276 -0.043645163716197595 0.9374999999997636 0.7499999999994035 -0.05276998391494692 0.9374999999997574 0.8124999999995308 -0.018131416340835992 0.9374999999997516 0.8749999999996598 0.03207358407026267 0.9374999999997459 0.9374999999998294 0.05956852160940738
</DataArray>
      </Points>
      <Cells>
        <DataArray type="Int64" Name="connectivity" NumberOfComponents="1" format="ascii">
 0 4 64 63 63 64 65 62 62 65 66 61 61 66 67 60 60 67 68 59 59 68 69 58 58 69 70 57 57 70 71 56 56 71 72 55 55 72 73 54 54 73 74 53 53 74 75 52 52 75 76 51 51 76 77 50 50 77 78 49 49 78 48 3 4 5 79 64 64 79 80 65 65 80 81 66 66 81 82 67 67 82 83 68 68 83 84 69 69 84 85 70 70 85 86 71 71 86 87 72 72 87 88 73 73 88 89 74 74 89 90 75 75 90 91 76 76 91 92 77 77 92 93 78 78 93 47 48 5 6 94 79 79 94 95 80 80 95 96 81 81 96 97 82 82 97 98 83 83 98 99 84 84 99 100 85 85 100 101 86 86 101 102 87 87 102 103 88 88 103 104 89 89 104 105 90 90 105 106 91 91 106 107 92 92 107 108 93 93 108 46 47 6 7 109 94 94 109 110 95 95 110 111 96 96 111 112 97 97 112 113 98 98 113 114 99 99 114 115 100 100 115 116 101 101 116 117 102 102 117 118 103 103 118 119 104 104 119 120 105 105 120 121 106 106 121 122 107 107 122 123 108 108 123 45 46 7 8 124 109 109 124 125 110 110 125 126 111 111 126 127 112 112 127 128 113 113 128 129 114 114 129 130 115 115 130 131 116 116 131 132 117 117 132 133 118 118 133 134 119 119 134 135 120 120 135 136 121 121 136 137 122 122 137 138 123 123 138 44 45 8 9 139 124 124 139 140 125 125 140 141 126 126 141 142 127 127 142 143 128 128 143 144 129 129 144 145 130 130 145 146 131 131 146 147 132 132 147 148 133 133 148 149 134 134 149 150 135 135 150 151 136 136 151 152 137 137 152 153 138 138 153 43 44 9 10 154 139 139 154 155 140 140 155 156 141 141 156 157 142 142 157 158 143 143 158 159 144 144 159 160 145 145 160 161 146 146 161 162 147 147 162 163 148 148 163 164 149 149 164 165 150 150 165 166 151 151 166 167 152 152 167 168 153 153 168 42 43 10 11 169 154 154 169 170 155 155 170 171 156 156 171 172 157 157 172 173 158 158 173 174 159 159 174 175 160 160 175 176 161 161 176 177 162 162 177 178 163 163 178 179 164 164 179 180 165 165 180 181 166 166 181 182 167 167 182 183 168 168 183 41 42 11 12 184 169 169 184 185 170 170 185 186 171 171 186 187 172 172 187 188 173 173 188 189 174 174 189 190 175 175 190 191 176 176 191 192 177 177 192 193 178 178 193 194 179 179 194 195 180 180 195 196 181 181 196 197 182 182 197 198 183 183 198 40 41 12 13 199 184 184 199 200 185 185 200 201 186 186 201 202 187 187 202 203 188 188 203 204 189 189 204 205 190 190 205 206 191 191 206 207 192 192 207 208 193 193 208 209 194 194 209 210 195 195 210 211 196 196 211 212 197 197 212 213 198 198 213 39 40 13 14 214 199 199 214 215 200 200 215 216 201 201 216 217 202 202 217 218 203 203 218 219 204 204 219 220 205 205 220 221 206 206 221 222 207 207 222 223 208 208 223 224 209 209 224 225 210 210 225 226 211 211 226 227 212 212 227 228 213 213 228 38 39 14 15 229 214 214 229 230 215 215 230 231 216 216 231 232 217 217 232 233 218 218 233 234 219 219 234 235 220 220 235 236 221 221 236 237 222 222 237 238 223 223 238 239 224 224 239 240 225 225 240 241 226 226 241 242 227 227 242 243 228 228 243 37 38 15 16 244 229 229 244 245 230 230 245 246 231 231 246 247 232 232 247 248 233 233 248 249 234 234 249 250 235 235 250 251 236 236 251 252 237 237 252 253 238 238 253 254 239 239 254 255 240 240 255 256 241 241 256 257 242 242 257 258 243 243 258 36 37 16 17 259 244 244 259 260 245 245 260 261 246 246 261 262 247 247 262 263 248 248 263 264 249 249 264 265 250 250 265 266 251 251 266 267 252 252 267 268 253 253 268 269 254 254 269 270 255 255 270 271 256 256 271 272 257 257 272 273 258 258 273 35 36 17 18 274 259 259 274 275 260 260 275 276 261 261 276 277 262 262 277 278 263 263 278 279 264 264 279 280 265 265 280 281 266 266 281 282 267 267 282 283 268 268 283 284 269 269 284 285 270 270 285 286 271 271 286 287 272 272 287 288 273 273 288 34 35 18 1 19 274 274 19 20 275 275 20 21 276 276 21 22 277 277 22 23 278 278 23 24 279 279 24 25 280 280 25 26 281 281 26 27 282 282 27 28 283 283 28 29 284 284 29 30 285 285 30 31 286 286 31 32 287 287 32 33 288 288 33 2 34
</DataArray>
        <DataArray type="Int64" Name="offsets" NumberOfComponents="1" format="ascii">
 4 8 12 16 20 24 28 32 36 40 44 48 52 56 60 64 68 72 76 80 84 88 92 96 100 104 108 112 116 120 124 128 132 136 140 144 148 152 156 160 164 168 172 176 180 184 188 192 196 200 204 208 212 216 220 224 228 232 236 240 244 248 252 256 260 264 268 272 276 280 284 288 292 296 300 304 308 312 316 320 324 328 332 336 340 344 348 352 356 360 364 368 372 376 380 384 388 392 396 400 404 408 412 416 420 424 428 432 436 440 444 448 452 456 460 464 468 472 476 480 484 488 492 496 500 504 508 512 516 520 524 528 532 536 540 544 548 552 556 560 564 568 572 576 580 584 588 592 596 600 604 608 612 616 620 624 628 632 636 640 644 648 652 656 660 664 668 672 676 680 684 688 692 696 700 704 708 712 716 720 724 728 732 736 740 744 748 752 756 760 764 768 772 776 780 784 788 792 796 800 804 808 812 816 820 824 828 832 836 840 844 848 852 856 860 864 868 872 876 880 884 888 892 896 900 904 908 912 916 920 924 928 932 936 940 944 948 952 956 960 964 968 972 976 980 984 988 992 996 1000 1004 1008 1012 1016 1020 1024
</DataArray>
        <DataArray type="UInt8" Name="types" NumberOfComponents="1" format="ascii">
 9 9 9 9 9 9 9 9 9 9 9 9 9 9 9 9 9 9 9 9 9 9 9 9 9 9 9 9 9 9 9 9 9 9 9 9 9 9 9 9 9 9 9 9 9 9 9 9 9 9 9 9 9 9 9 9 9 9 9 9 9 9 9 9 9 9 9 9 9 9 9 9 9 9 9 9 9 9 9 9 9 9 9 9 9 9 9 9 9 9 9 9 9 9 9 9 9 9 9 9 9 9 9 9 9 9 9 9 9 9 9 9 9 9 9 9 9 9 9 9 9 9 9 9 9 9 9 9 9 9 9 9 9 9 9 9 9 9 9 9 9 9 9 9 9 9 9 9 9 9 9 9 9 9 9 9 9 9 9 9 9 9 9 9 9 9 9 9 9 9 9 9 9 9 9 9 9 9 9 9 9 9 9 9 9 9 9 9 9 9 9 9 9 9 9 9 9 9 9 9 9 9 9 9 9 9 9 9 9 9 9 9 9 9 9 9 9 9 9 9 9 9 9 9 9 9 9 9 9 9 9 9 9 9 9 9 9 9 9 9 9 9 9 9 9 9 9 9 9 9 9 9 9 9 9 9
</DataArray>
      </Cells>
      <PointData>
        <DataArray type="Float64" Name="w" NumberOfComponents="1" format="ascii">
 -2.6572128041165684e-9 2.978519050117336e-10 2.657213971592742e-9 -2.978516773615706e-10 -9.620215108501953e-9 -1.3381014225586033e-8 -1.0861601162994775e-8 -5.9360847685429995e-9 -1.2727021592690758e-9 3.0421374017213455e-9 8.290121947071142e-9 1.3589552005267495e-8 1.5359415142350046e-8 1.0876410266009922e-8 1.762312494928343e-9 -6.906537950673785e-9 -1.0827844807672932e-8 -9.442354071961373e-9 -4.834550278030535e-9 1.9416779881805354e-8 1.3987888646062716e-8 -2.4566485030790824e-8 -3.3360746436253575e-8 1.712049055552935e-9 1.9206009430841584e-8 2.122841998935814e-8 4.3965262276182545e-9 -2.6947722027679285e-8 -1.8090794800617375e-8 2.062181193341571e-8 2.4489020405615946e-8 7.571228346175695e-9 -1.6518528568693738e-8 -2.669664464486715e-8 9.620214614747206e-9 1.3381013616852574e-8 1.086160060694387e-8 5.9360847193213425e-9 1.2727018685536648e-9 -3.042137764731065e-9 -8.290121753260868e-9 -1.3589552172159676e-8 -1.5359415019295906e-8 -1.0876411182763281e-8 -1.7623122549727658e-9 6.906537656112932e-9 1.0827844376983434e-8 9.442353635119169e-9 4.834549925788053e-9 -1.9416779414199614e-8 -1.3987889581274196e-8 2.4566484833904196e-8 3.336074592231026e-8 -1.7120477511790285e-9 -1.9206009326245562e-8 -2.1228420727682995e-8 -4.396526172243891e-9 2.6947721560073542e-8 1.8090794222262908e-8 -2.0621812007248194e-8 -2.4489020577891747e-8 -7.571228004700451e-9 1.6518528913245336e-8 2.6696644780226707e-8 -0.05956852318469639 -0.0320735831455539 0.018131415911355545 0.05276998450975661 0.04364516405272251 -0.033489596827212496 -0.052088243720940425 0.011325662567431742 0.046636901499154844 0.03462756250034961 -0.008652300748836087 -0.07094573227170521 -0.04736523454458482 0.029178550764555763 0.04228044866257738 -0.088837093357508 -0.060194730126258 0.03272879375395844 0.09810440880786957 0.06488963673262259 -0.05002365065015187 -0.08082397781195973 0.011983485201771771 0.07969403683860347 0.059621372679789425 -0.025980747894645176 -0.11296036547739244 -0.07858785832497407 0.038488960178958996 0.07236949398132204 -0.08200634129457893 -0.07322816481925562 0.041166880801730574 0.12053090488313839 0.06138084899062432 -0.04359801878114108 -0.07474940612103892 0.0019581291783390834 0.08794708784870323 0.06748784145140745 -0.04519060437753626 -0.11971519134343563 -0.08591484799070119 0.023667955584679407 0.07565311164204214 -0.05166332483439656 -0.05637253131627796 0.041345932505626626 0.10530188328595355 0.04790784359956353 -0.01874339061115517 -0.040192373684232875 -0.007000391367951438 0.06484114852470654 0.05079178771578464 -0.05053965210463337 -0.09938119533105799 -0.07249701061913624 -0.004766159757671896 0.04323773536193595 -0.012856568899210868 -0.007997494782048156 0.0329687667740578 0.055073319844394376 0.036551664730285 0.017306142069382077 0.005667641865819449 -0.004792164863082435 0.015122052024533006 0.011280951216913882 -0.03624502941132679 -0.06212529672624508 -0.04965701578949557 -0.03458906424350933 -0.016582603533553016 0.028564735192395885 0.05185699909577506 0.019929463099661607 -0.00648305154491487 0.026834045519580584 0.056475821701024435 0.04822659265547943 0.004456371390493637 -0.04238546233818977 -0.03784521690658911 -0.013669821392205257 -0.01560452629163843 -0.02831861716975327 -0.062219153627224424 -0.07733350519660703 0.07094484286036236 0.09421389007775094 0.009410105688879029 -0.049475133306638476 0.014289921897843809 0.08715241582864007 0.08032489781849823 0.007525333697469601 -0.08367333781033805 -0.07858134484530704 0.0002072826643112926 0.029492020881026752 -0.01359333384029339 -0.08795128615631385 -0.11024722240850537 0.10436879409324532 0.10389446552612823 0.006943286991394802 -0.05639739980924905 0.0019543605130537506 0.09661368795120066 0.09533365419794772 -2.0189942309790459e-10 -0.09533365430316469 -0.0966136854017169 -0.0019543597597489627 0.056397399499474275 -0.006943285351958008 -0.10389446658435865 -0.10436879423583043 0.11024722301575621 0.08795128603218261 0.013593334591065324 -0.029492020628851714 -0.00020728240729681738 0.07858134567104917 0.08367333683653812 -0.0075253340269222715 -0.08032489650872397 -0.0871524130093648 -0.01428992057130346 0.049475133567317496 -0.009410105228390028 -0.09421389042562844 -0.07094484423312035 0.07733350661790708 0.062219154861505345 0.028318616617565597 0.0156045269079984 0.013669821374737951 0.03784521529194824 0.04238546118611021 -0.004456371336532894 -0.0482265899293643 -0.05647581957029693 -0.02683404345449605 0.006483052987200716 -0.019929464305704907 -0.051856998283797584 -0.02856473756344855 0.016582605709825816 0.034589065970534676 0.04965701533538143 0.062125297017094384 0.036245028819454614 -0.011280954875501849 -0.015122053342753482 0.004792166044393857 -0.005667638732671598 -0.01730614045922597 -0.03655166213897002 -0.05507331839035929 -0.032968767714809055 0.007997494523326503 0.012856567146596866 -0.04323773355014012 0.004766161240427593 0.07249701152950144 0.09938119458305672 0.050539650199589566 -0.050791791370173665 -0.0648411502422821 0.007000393576107407 0.04019237627717138 0.01874339244192814 -0.04790784136495897 -0.10530188223439423 -0.04134593213407747 0.05637252866287629 0.05166332446671585 -0.07565311101429677 -0.023667954124907978 0.08591484989075653 0.11971518997517641 0.04519060113283712 -0.0674878442036344 -0.087947088917124 -0.001958127228332038 0.07474940778690273 0.043598021195644196 -0.06138084738355813 -0.12053090422163124 -0.041166879882578986 0.07322816231241248 0.08200634040878829 -0.07236949429603745 -0.038488958625919716 0.07858786006605603 0.11296036463856113 0.025980743969180226 -0.05962137442908629 -0.07969403630443583 -0.011983485171231123 0.08082397943365761 0.05002365281502609 -0.06488963576889971 -0.09810440804321666 -0.03272879357453828 0.060194729863409034 0.0888370915683588 -0.0422804492663062 -0.0291785494076551 0.047365235362055114 0.07094573211221585 0.008652297793309475 -0.03462756334860757 -0.04663690062703645 -0.011325663589676618 0.05208824519311704 0.03348959786792025 -0.043645163716197595 -0.05276998391494692 -0.018131416340835992 0.03207358407026267 0.05956852160940738
</DataArray>
        <DataArray type="Float64" Name="phi_1" NumberOfComponents="1" format="ascii">
 0.9999999157336026 -0.1948310852563731 1.0 -0.19483108927373435 0.8461681394121416 0.6001548377281766 0.31435487559056857 0.04971827334517929 -0.14643654713172444 -0.25849493347800684 -0.2993894937049343 -0.2927559112496433 -0.25822652803755874 -0.21002408315594553 -0.16328319087336948 -0.1353295427476697 -0.13708004873028068 -0.16294253398461708 -0.19122281845005296 -0.12475298322704169 -0.19426419024389815 -0.1334559881648126 0.485789089794463 0.8677957878357515 0.14373941955742908 -0.3344742690273374 -0.208967072736025 -0.15134336145379004 -0.21010075059324843 -0.20135965981459808 -0.15172963240829113 -0.22606350646109835 -0.06359630500690491 0.5183757366885173 0.846168196674681 0.6001548601839237 0.31435486489312814 0.049718266664063315 -0.14643653106522872 -0.2584949006961387 -0.29938947488153617 -0.2927559272679276 -0.2582265590624855 -0.21002410058822363 -0.16328316773545695 -0.1353294767786508 -0.13707997796969384 -0.16294249341359981 -0.1912228183924794 -0.12475293762196024 -0.1942642127232585 -0.13345597317975333 0.48578910067967246 0.8677957962963055 0.1437394423570397 -0.3344742621736079 -0.20896706525063008 -0.15134340411476863 -0.21010074436877116 -0.2013597407556238 -0.1517296458966603 -0.226063528951286 -0.06359639063788797 0.5183757152303445 0.42083527378124025 -0.10620616867885166 -0.22238771043957306 -0.1608909101197723 -0.19834610308249653 -0.20129034266933848 -0.16247104271923643 -0.23839748818375647 -0.26509580837862584 0.27170089981181017 0.8176035248307505 0.3939138187110084 -0.15369384772850053 -0.1923018432295698 -0.13806284511763187 0.3573662272179941 -0.07411805205568188 -0.2065048667799194 -0.190415870544752 -0.17924848137782393 -0.18508769275598627 -0.19031118576094336 -0.2515954938699862 -0.11181794802030827 0.35693555072090355 0.6034053065837635 0.339570311737714 -0.08363247487010846 -0.19805191053930069 -0.17242031477126674 0.3081934929462671 0.013346476426556652 -0.17776192583315298 -0.2163548085650675 -0.16061990168072626 -0.1719147592835387 -0.22733313685154824 -0.22485029997411785 0.08606666987732538 0.3704647504649504 0.3180590557061221 0.2973064912485984 0.03816044677040192 -0.19721745601621904 -0.20501214442355592 0.247480399382448 0.13334460640269677 -0.1337360703973631 -0.22647289083538868 -0.15494713591244258 -0.1685031362789574 -0.2599740602113168 -0.13593032260919027 0.2765633660570105 0.29305538934720643 0.04876560226709594 0.2455451479935498 0.17370028792121428 -0.17238749647896273 -0.2226187074622623 0.1609371347226641 0.2515617982466715 -0.06856948100756788 -0.21796684785977194 -0.1656352376402564 -0.18075534373485302 -0.26186319471019154 0.0153796594942794 0.3966307385997148 0.14336045707386744 -0.14330543044850716 0.1725593755064218 0.2827749246892782 -0.10648701705576506 -0.22311805859031897 0.05504709407782032 0.3288070923226896 0.02162209338682223 -0.19274226070987366 -0.18902836199442571 -0.20729073715280041 -0.20356096604155996 0.1943510636132645 0.4018071299453103 -0.026157649190958563 -0.24147412233792023 0.08217337170922681 0.3338957139928847 0.004396213695498628 -0.20969781125970688 -0.04859620282481376 0.33528753449566845 0.13067458607265978 -0.15119651257546676 -0.2193777118980801 -0.2321874178819095 -0.07224377653960586 0.3408573936959751 0.29155826658415024 -0.1591847842319695 -0.2658307989245176 -0.01062371614145013 0.3153289556540912 0.14116346824945034 -0.1811709953441963 -0.12954540038017168 0.26513172933484114 0.23847545398443565 -0.09075376468452262 -0.24965300140934724 -0.2258029213897349 0.11116108661722729 0.3975595195720531 0.11116109636721969 -0.2258029424075637 -0.2496529966127574 -0.09075374781083607 0.23847546933031272 0.2651317697392929 -0.12954538778135213 -0.18117104635000977 0.14116344554027271 0.3153289393414586 -0.0106237283212161 -0.2658307916000912 -0.15918478606795927 0.2915582813233918 0.3408573676304898 -0.07224374429501103 -0.232187449383047 -0.21937769697086895 -0.15119649774883037 0.1306746026672105 0.33528757776072565 -0.04859622555513042 -0.20969787243894414 0.00439620425365009 0.3338956983446147 0.08217336993659098 -0.24147411119543097 -0.02615766171801428 0.40180715674629536 0.19435103123553235 -0.20356093818200346 -0.20729075609205067 -0.1890283532702564 -0.1927422494767482 0.02162212092998389 0.32880712014772673 0.055047072169500076 -0.22311809307658337 -0.1064870264301783 0.2827749178514878 0.17255938150249017 -0.14330542499627566 0.14336044329714573 0.3966307532110417 0.015379642204058443 -0.2618631939057377 -0.18075533599746757 -0.1656352415057562 -0.21796683402619246 -0.06856944430336265 0.2515617998528366 0.16093713371554755 -0.222618706090377 -0.17238751956828832 0.17370029072624096 0.2455451567178465 0.04876559740063859 0.293055384059435 0.27656336065452586 -0.13593031608779801 -0.25997408872383193 -0.16850309719002388 -0.1549471547929503 -0.2264728655407595 -0.1337360288319106 0.13334458388163759 0.24748042699340378 -0.20501212654968218 -0.1972174833752823 0.03816046027476802 0.2973064973418943 0.31805904617030295 0.37046474701270193 0.08606665192067978 -0.22485027913455782 -0.2273331641576796 -0.17191471449475892 -0.16061991079643467 -0.21635477481806248 -0.1777618971645638 0.013346465716750903 0.30819353724685905 -0.1724203142160153 -0.1980519220308463 -0.08363246526097329 0.33957030991335907 0.6034052965399338 0.3569355425586241 -0.11181796577662882 -0.2515954800868566 -0.1903111907900373 -0.18508766418888148 -0.17924845735387426 -0.19041583913470522 -0.20650484525844845 -0.0741180269534808 0.3573662682003898 -0.13806287600866868 -0.19230182796636816 -0.1536938520273882 0.39391381176219736 0.8176035142184205 0.2717008833766291 -0.26509581989407055 -0.23839749327880594 -0.1624710132050914 -0.20129034597277182 -0.19834604001822564 -0.16089088738690752 -0.22238769286488091 -0.10620610643897727 0.4208353039583568
</DataArray>
        <DataArray type="Float64" Name="phi_2" NumberOfComponents="1" format="ascii">
 0.26653799446748566 -0.09620234205955887 0.2665379837982042 -0.0962023751072154 0.2877635158760741 0.24185830491821503 0.1493778545978344 0.04623430559390525 -0.03726789191621247 -0.0858986907058348 -0.09954070481212868 -0.08768902410643006 -0.0631655379358292 -0.038116725466781284 -0.022230930916739697 -0.021475086090992614 -0.03640382936298774 -0.06097442170284138 -0.08395793139721759 -0.05061084904380912 -0.06558707438150292 -0.08448150818300144 0.13513452075241206 0.3682904583372223 0.1377256246112179 -0.09115345970539206 -0.08237078445448329 -0.07963125184144573 -0.1284662682903625 -0.13519516839687012 -0.09399370856393756 -0.11532446027594742 -0.08939926328639453 0.1032678921116624 0.28776350604930234 0.2418582892916118 0.14937784961128903 0.04623431085096625 -0.03726787187634391 -0.0858986679104219 -0.09954068980943405 -0.0876890294420456 -0.06316557303378441 -0.03811677024617102 -0.022230962466429836 -0.02147510172994818 -0.03640383223556871 -0.06097442930825112 -0.08395794830225708 -0.05061084705317953 -0.0655871106991616 -0.08448153087086835 0.135134499498654 0.36829044789407617 0.13772562810372807 -0.09115345184553919 -0.0823707646853453 -0.07963125026306812 -0.12846622836609323 -0.13519516804207282 -0.0939936834844024 -0.11532443787873191 -0.08939924876209533 0.10326792689699783 0.15241018545514085 -0.046230923841055885 -0.10305293838174841 -0.0991120969746842 -0.1306558588314844 -0.12615981020172945 -0.07879887189614639 -0.07537770503720113 -0.0855133063659549 0.09921038055254736 0.3143609521336275 0.1671939528843159 -0.04011187230691349 -0.06149603762791158 -0.05414744312836199 0.17627908321624805 -0.0029519389962014268 -0.08182031353805361 -0.10378656356279298 -0.12332059248024241 -0.12336620602918925 -0.08700556323298783 -0.08055825784804074 -0.050102421851632134 0.0953276812495467 0.22217656393178742 0.17468981748361243 0.011655914891354284 -0.052331091454447635 -0.05753512147481363 0.17754311412214957 0.04791773696033631 -0.060252459266800944 -0.10947943734910892 -0.11344336022701218 -0.11703406287297737 -0.10475873071544854 -0.08081614036703913 0.011562484298255897 0.08816975636159692 0.10679784398399293 0.16917436760814236 0.07310541051579654 -0.04285979587843993 -0.06030129032928125 0.15588981815136882 0.10219051690220664 -0.0399995336371632 -0.11100394997047325 -0.10353814717347384 -0.1089661649666809 -0.12374315879090617 -0.0637397666241823 0.07360999099158781 0.0602922337684587 0.0034377504661723957 0.14797199684881376 0.1317142981994558 -0.028692419203188005 -0.060070973234148686 0.11440475313756923 0.14960484453741812 -0.016182572768494205 -0.10501934459718446 -0.09570087994901666 -0.1026402034846384 -0.13174897780777656 -0.027419278597603767 0.1097217543212557 0.014151359912917643 -0.06519382876804557 0.10968550522458133 0.17248895959260885 -0.0025669422618383978 -0.05698372968820249 0.06304022987134808 0.1770084371095218 0.018116501865896945 -0.09075530460669687 -0.09118870979951492 -0.10063739100160413 -0.11671212547327507 0.018895939574047456 0.10436337418133414 -0.03594954144624999 -0.0961978600980997 0.0599982166966425 0.18385478654395407 0.03931870623628302 -0.05145528629290369 0.014934676928309687 0.17473725447314173 0.06525764852260436 -0.067801100065242 -0.09119981164751596 -0.10079260734131276 -0.07314968168442629 0.058030030288161324 0.05925650317759423 -0.07477749445639931 -0.10124360661475545 0.008992809264125014 0.1631028763156288 0.09226173206418069 -0.041053714205613205 -0.020374464224727162 0.1428524578313218 0.11844679524249885 -0.034762859365077 -0.09591566389847016 -0.09525376944427386 -0.008020048256904734 0.07336041413430547 -0.008020041294373826 -0.0952537760630171 -0.09591566337928152 -0.03476286171601531 0.11844678036178578 0.142852453046403 -0.020374472098937082 -0.041053708525806906 0.09226174780855562 0.163102885840932 0.008992811248570966 -0.10124360510589424 -0.07477749577322663 0.05925650733188536 0.058030015329962256 -0.07314967028515407 -0.10079262180819415 -0.09119981054735155 -0.06780110385436029 0.0652576400229083 0.17473726046288132 0.014934668110584519 -0.05145527812459411 0.03931872613952327 0.1838547898764537 0.05999821935816103 -0.09619785923517743 -0.035949550157261895 0.10436337970921658 0.018895921036907803 -0.1167121175117556 -0.1006374029501123 -0.09118870923723736 -0.09075530610682889 0.01811650204651172 0.17700844374986222 0.06304022257718776 -0.05698371076677381 -0.0025669302814206514 0.17248896204595057 0.10968550888646506 -0.06519383017441797 0.014151352184776304 0.10972175619109738 -0.027419289504424953 -0.13174898210623406 -0.10264019975510623 -0.09570088801698044 -0.10501934200868232 -0.016182562317442965 0.14960484581054695 0.1144047617186526 -0.06007094135289389 -0.02869241449357911 0.13171430955828736 0.14797200183637443 0.003437749448044869 0.06029222817885256 0.07360998397062242 -0.06373976785406625 -0.12374317548287675 -0.10896615259773915 -0.10353815913452077 -0.11100394624292617 -0.03999952442968903 0.10219051853490099 0.15588984130824915 -0.060301255767837805 -0.04285979145728917 0.0731054254992378 0.16917437550389242 0.10679784312882168 0.08816975539767069 0.011562469911440918 -0.08081614030586318 -0.10475875644125597 -0.11703405168459745 -0.11344337318056172 -0.1094794387263249 -0.06025245104560697 0.04791773562102043 0.177543133680529 -0.05753509952659487 -0.05233107573281593 0.011655933670304333 0.17468983073093372 0.22217656705372021 0.09532767936399855 -0.05010243490768222 -0.08055826405667658 -0.08700557909821305 -0.12336621277614246 -0.12332060260893492 -0.10378657108393181 -0.08182031958127191 -0.002951942363874415 0.17627908332936057 -0.05414743678925694 -0.06149600994534272 -0.04011185028564332 0.16719397040149203 0.3143609620846227 0.09921037626054659 -0.08551331486149395 -0.07537771752159042 -0.07879887863504118 -0.12615983238097064 -0.13065586330915754 -0.09911211616347096 -0.10305295482538049 -0.04623092787548266 0.1524101600934108
</DataArray>
      </PointData>
    </Piece>
  </UnstructuredGrid>
</VTKFile>
