<?xml version="1.0" encoding="utf-8"?>
<VTKFile type="UnstructuredGrid" version="1.0" byte_order="LittleEndian" header_type="UInt64">
  <UnstructuredGrid>
    <Piece NumberOfPoints="9" NumberOfCells="4">
      <Points>
        <DataArray type="Float64" Name="Points" NumberOfComponents="3" format="ascii">
 0.0 0.0 0.0 1.0 0.0 0.0 1.0 1.0 0.0 0.0 1.0 0.0 0.4999999999986921 0.0 0.0 1.0 0.4999999999986921 0.0 0.5000000000020595 1.0 0.0 0.0 0.5000000000020595 0.0 0.5000000000003758 0.5000000000003758 0.0
</DataArray>
      </Points>
      <Cells>
        <DataArray type="Int64" Name="connectivity" NumberOfComponents="1" format="ascii">
 0 4 8 7 7 8 6 3 4 1 5 8 8 5 2 6
</DataArray>
        <DataArray type="Int64" Name="offsets" NumberOfComponents="1" format="ascii">
 4 8 12 16
</DataArray>
        <DataArray type="UInt8" Name="types" NumberOfComponents="1" format="ascii">
 9 9 9 9
</DataArray>
      </Cells>
      <PointData>
        <DataArray type="Float64" Name="w1" NumberOfComponents="1" format="ascii">
 7.640179062007017e-10 7.642885315914375e-10 7.640172625323136e-10 7.64288419266073e-10 -1.2883206407742178e-9 -2.399852766871885e-10 -1.2883200901596855e-9 -2.3998571552697066e-10 -0.01692012082177837
</DataArray>
        <DataArray type="Float64" Name="phi_1_1" NumberOfComponents="1" format="ascii">
 -1.0 0.7819721725328157 0.999999631466003 -0.781972133189872 0.10634130607309866 -0.886869668033328 -0.10634096977709516 0.8868698767699073 -1.2698136105438328e-7
</DataArray>
        <DataArray type="Float64" Name="phi_2_1" NumberOfComponents="1" format="ascii">
 -0.5475542494002349 0.48882737161055484 0.5475537945714721 -0.4888273624618593 0.020792804552906004 -0.5253177535560434 -0.02079252529867137 0.5253180003685645 -1.1895311447963655e-7
</DataArray>
        <DataArray type="Float64" Name="w2" NumberOfComponents="1" format="ascii">
 2.4975003068656365e-9 6.964601502718886e-11 -2.4975005883088644e-9 -6.964616497644969e-11 -2.139288889172347e-9 2.023211966769195e-9 2.1392888799447e-9 -2.0232118929480204e-9 1.5257381417155804e-9
</DataArray>
        <DataArray type="Float64" Name="phi_1_2" NumberOfComponents="1" format="ascii">
 -0.7408739735263052 0.9999999818840016 -0.7408738685586527 1.0 0.21072105855012294 -0.210721033315497 0.21072107913826973 -0.21072101687792755 -0.12956313531127162
</DataArray>
        <DataArray type="Float64" Name="phi_2_2" NumberOfComponents="1" format="ascii">
 -0.9931688567076593 0.9351079230726491 -0.9931688781900964 0.9351079509293838 0.14297858784116838 -0.14297850329423265 0.14297857543667816 -0.14297849579747518 0.02903039633633898
</DataArray>
        <DataArray type="Float64" Name="w3" NumberOfComponents="1" format="ascii">
 -1.7621335787476323e-16 -4.2584894819734446e-16 -1.1747557191650882e-16 1.4684446489563604e-16 -1.1380446029411792e-16 4.478756179316899e-16 -3.9280894359582637e-16 -4.552178411764717e-16 -4.718001978133504e-9
</DataArray>
        <DataArray type="Float64" Name="phi_1_3" NumberOfComponents="1" format="ascii">
 -0.9999997096237401 -0.9999996502828269 -0.9999997631829869 -0.9999998878720504 0.9999999862465118 0.9999998269380743 0.9999998690245803 0.9999999096365622 -0.9999998598748423
</DataArray>
        <DataArray type="Float64" Name="phi_2_3" NumberOfComponents="1" format="ascii">
 -1.0 -0.9999997822581227 -0.9999998975074618 -0.9999998940942801 0.999999885094812 0.9999998716831557 0.9999998672432721 0.9999998309355834 -0.9999998638766084
</DataArray>
        <DataArray type="Float64" Name="w4" NumberOfComponents="1" format="ascii">
 -6.808290196153269e-10 3.997646426926195e-10 -6.808292679918372e-10 3.997645599004494e-10 -3.744906493278335e-9 4.025971476049995e-9 -3.744906270774378e-9 4.025970939194517e-9 -0.5042004245843422
</DataArray>
        <DataArray type="Float64" Name="phi_1_4" NumberOfComponents="1" format="ascii">
 0.03269140580233873 -0.5453622399468974 -0.03269179281050013 0.5453619591541792 -0.25960748747934614 -0.19964949174526347 0.25960797343554987 0.19964988289710664 -2.1860228275855684e-7
</DataArray>
        <DataArray type="Float64" Name="phi_2_4" NumberOfComponents="1" format="ascii">
 0.48897295191681406 -1.0 -0.48897354154095635 0.9999996767419613 -0.11571487426849268 -0.6313612151612048 0.11571532057850355 0.6313616127710431 -2.0913763940848184e-7
</DataArray>
        <DataArray type="Float64" Name="w5" NumberOfComponents="1" format="ascii">
 1.604240674438151e-9 -1.252685284471857e-10 1.6042406305532653e-9 -1.2526831999397876e-10 -6.802186067328706e-9 5.323213701913312e-9 -6.8021859795589344e-9 5.323213965222626e-9 -0.6241382213323716
</DataArray>
        <DataArray type="Float64" Name="phi_1_5" NumberOfComponents="1" format="ascii">
 -0.22844535188866705 0.7084422322271966 0.2284453571863323 -0.7084421279343175 0.36904495334322757 0.674911387449165 -0.3690451737623339 -0.6749115365891531 7.932106334335653e-8
</DataArray>
        <DataArray type="Float64" Name="phi_2_5" NumberOfComponents="1" format="ascii">
 -0.9999997783063094 0.45393609251436356 1.0 -0.4539359662602055 0.14474905865699236 0.8971478539648845 -0.14474928586048386 -0.8971480941054003 8.355822284624871e-8
</DataArray>
        <DataArray type="Float64" Name="w6" NumberOfComponents="1" format="ascii">
 2.2973142265728761e-10 4.030481507512394e-10 2.2973126806005494e-10 4.0304819957141815e-10 6.517599313186921e-10 -1.2845390775506552e-9 6.517601591461929e-10 -1.2845397569648094e-9 0.12870281868311897
</DataArray>
        <DataArray type="Float64" Name="phi_1_6" NumberOfComponents="1" format="ascii">
 -0.06303058169761694 -0.9170820240897205 0.06303035979892348 0.917081864213845 0.43904206395886286 0.29575003653610216 -0.4390417184521049 -0.2957498128231134 -1.4278442568773649e-7
</DataArray>
        <DataArray type="Float64" Name="phi_2_6" NumberOfComponents="1" format="ascii">
 -0.638864237761049 -1.0 0.6388636941273929 0.999999817885034 0.8656840374995345 0.04452992944717736 -0.8656836781331397 -0.04452970490153867 -1.1226886543310286e-7
</DataArray>
        <DataArray type="Float64" Name="w7" NumberOfComponents="1" format="ascii">
 6.676811961481279e-10 -1.7272596421820275e-10 -6.676812037228062e-10 1.7272590362077661e-10 -4.1246274377279274e-10 7.003392453888582e-10 4.1246328914962805e-10 -7.003390276168579e-10 -6.335251673270743e-9
</DataArray>
        <DataArray type="Float64" Name="phi_1_7" NumberOfComponents="1" format="ascii">
 -0.18859323301408165 0.8390643870753796 -0.18859319024636934 0.8390643248275106 -0.2259022360905024 0.22590217054720443 -0.22590218121494693 0.2259021954671232 -0.3252355198505198
</DataArray>
        <DataArray type="Float64" Name="phi_2_7" NumberOfComponents="1" format="ascii">
 0.43711110231293065 1.0 0.4371110091766689 0.9999999151041574 -0.6512906636012117 0.6512906544976141 -0.6512905767379993 0.6512906266301837 -0.7185554715616831
</DataArray>
        <DataArray type="Float64" Name="w8" NumberOfComponents="1" format="ascii">
 -0.6000000005369545 -0.600000001001507 0.6000000005350166 0.6000000009980295 1.0 5.094978332317073e-10 -0.9999999999954873 -5.07693229440077e-10 -1.504680914821681e-12
</DataArray>
        <DataArray type="Float64" Name="phi_1_8" NumberOfComponents="1" format="ascii">
 0.3829444423300801 -0.10610207177106998 0.38294438520372936 -0.10610207227040723 -0.05211894506259103 0.05211889707717807 -0.052118993158393606 0.052118921833654436 -0.1384212091115137
</DataArray>
        <DataArray type="Float64" Name="phi_2_8" NumberOfComponents="1" format="ascii">
 -0.5557985432932411 -0.06675195969682543 -0.5557985256390087 -0.06675199866960381 -0.12073511855654157 -0.27926491374914403 -0.12073510993285456 -0.2792649385056183 -0.0887248049640479
</DataArray>
        <DataArray type="Float64" Name="w9" NumberOfComponents="1" format="ascii">
 -0.6666666691443641 -0.6666666694957951 -0.6666666691483024 -0.6666666694978775 0.9999999999954855 0.33333333864565845 1.0 0.33333333864519576 -0.500000007715376
</DataArray>
        <DataArray type="Float64" Name="phi_1_9" NumberOfComponents="1" format="ascii">
 0.23975684153992083 0.11272554304526788 -0.2397572000816664 -0.11272565480359681 -0.04546485612175386 -0.28522185545759615 0.04546474090787727 0.28522170499000354 -6.646414610812481e-8
</DataArray>
        <DataArray type="Float64" Name="phi_2_9" NumberOfComponents="1" format="ascii">
 -0.34556487538867503 -0.2185335285177492 0.3455649935036224 0.21853339984926465 -0.06034314432648719 0.28522174070533485 0.06034301911355825 -0.2852217944188371 -3.562640205569472e-8
</DataArray>
        <DataArray type="Float64" Name="w10" NumberOfComponents="1" format="ascii">
 -1.0376886377247204e-8 1.0560415838434984e-8 1.0376889593065504e-8 -1.056041843782622e-8 -1.5406386280753864e-10 1.0 1.5406326958295613e-10 -0.9999999999999983 7.51874352937882e-13
</DataArray>
        <DataArray type="Float64" Name="phi_1_10" NumberOfComponents="1" format="ascii">
 0.6840122460170415 0.395468361837967 0.6840125095657744 0.39546848554827985 0.5111788296628094 0.48882094086167094 0.5111790242007448 0.4888209808430158 0.46025951942136845
</DataArray>
        <DataArray type="Float64" Name="phi_2_10" NumberOfComponents="1" format="ascii">
 -0.23163228401483898 0.056911581838227004 -0.2316323253641969 0.05691168032728481 -0.058798877067259454 0.058798943378550884 -0.05879884940582084 0.058798903397206045 0.08736036457520954
</DataArray>
        <DataArray type="Float64" Name="w11" NumberOfComponents="1" format="ascii">
 1.0 -0.999999999485004 0.9999999999953123 -0.9999999994806785 1.2157982894991239e-10 -6.357942230624435e-10 1.2338418469535845e-10 -6.38798605087791e-10 -5.198654823919929e-10
</DataArray>
        <DataArray type="Float64" Name="phi_1_11" NumberOfComponents="1" format="ascii">
 -0.3770843185764341 -0.5104158469321171 0.37708529993984163 0.5104156866921012 -0.4437502982481691 -0.06666557809887161 0.4437503631625914 0.06666540458122468 -1.5397277035718997e-7
</DataArray>
        <DataArray type="Float64" Name="phi_2_11" NumberOfComponents="1" format="ascii">
 -0.17140241997548242 -0.038070896454224665 0.171401792623812 0.03807141070596774 -0.1047364427209585 0.06666548351434927 0.1047367318182709 -0.06666549432763252 6.18073031332003e-8
</DataArray>
        <DataArray type="Float64" Name="w12" NumberOfComponents="1" format="ascii">
 0.999999999995716 -0.9999999999168088 -1.0 0.9999999999215388 -6.480400636679486e-11 0.5000000078311128 6.296647097841047e-11 -0.500000007831221 4.605573790051816e-13
</DataArray>
        <DataArray type="Float64" Name="phi_1_12" NumberOfComponents="1" format="ascii">
 0.026018654651194996 -0.40679737807869787 0.026018991904019326 -0.4067970820145838 -0.2332315039907264 -0.26676856030154117 -0.23323116079245804 -0.2667684196218215 -0.309610734532703
</DataArray>
        <DataArray type="Float64" Name="phi_2_12" NumberOfComponents="1" format="ascii">
 -0.34744878325558387 0.08536723769302786 -0.3474487992571472 0.08536726288017071 -0.08819863066093334 0.08819827091727045 -0.08819865260794106 0.08819813023755 0.13104044499180204
</DataArray>
      </PointData>
    </Piece>
  </UnstructuredGrid>
</VTKFile>
