<?xml version="1.0" encoding="utf-8"?>
<VTKFile type="UnstructuredGrid" version="1.0" byte_order="LittleEndian" header_type="UInt64">
  <UnstructuredGrid>
    <Piece NumberOfPoints="9" NumberOfCells="4">
      <Points>
        <DataArray type="Float64" Name="Points" NumberOfComponents="3" format="ascii">
 0.0 0.0 0.9236395803409583 1.0 0.0 -0.8443930753110657 1.0 1.0 0.9236395366434339 0.0 1.0 -0.8443931891441919 0.4999999999986921 0.0 0.0009794213057034568 1.0 0.4999999999986921 -0.08022581634327683 0.5000000000020595 1.0 0.000979384292213492 0.0 0.5000000000020595 -0.08022588370162524 0.5000000000003758 0.5000000000003758 -0.09391509777704711
</DataArray>
      </Points>
      <Cells>
        <DataArray type="Int64" Name="connectivity" NumberOfComponents="1" format="ascii">
 0 4 8 7 7 8 6 3 4 1 5 8 8 5 2 6
</DataArray>
        <DataArray type="Int64" Name="offsets" NumberOfComponents="1" format="ascii">
 4 8 12 16
</DataArray>
        <DataArray type="UInt8" Name="types" NumberOfComponents="1" format="ascii">
 9 9 9 9
</DataArray>
      </Cells>
      <PointData>
        <DataArray type="Float64" Name="w" NumberOfComponents="1" format="ascii">
 0.9236395803409583 -0.8443930753110657 0.9236395366434339 -0.8443931891441919 0.0009794213057034568 -0.08022581634327683 0.000979384292213492 -0.08022588370162524 -0.09391509777704711
</DataArray>
        <DataArray type="Float64" Name="phi_1" NumberOfComponents="1" format="ascii">
 -0.6551096502076311 -0.4010899007923393 0.6551097409162301 0.4010901205900657 -0.5216794877506757 0.12700969194020395 0.5216796219864563 -0.1270097200846406 4.26300837675939e-8
</DataArray>
        <DataArray type="Float64" Name="phi_2" NumberOfComponents="1" format="ascii">
 -1.0 0.270877803838788 0.9999998879961626 -0.2708776500623161 -0.36456127655909965 0.6228072840390945 0.3645611467060443 -0.6228072696819755 -4.1164024460263607e-8
</DataArray>
      </PointData>
    </Piece>
  </UnstructuredGrid>
</VTKFile>
