<?xml version="1.0" encoding="utf-8"?>
<VTKFile type="UnstructuredGrid" version="1.0" byte_order="LittleEndian" header_type="UInt64">
  <UnstructuredGrid>
    <Piece NumberOfPoints="9" NumberOfCells="4">
      <Points>
        <DataArray type="Float64" Name="Points" NumberOfComponents="3" format="ascii">
 0.0 0.0 0.12771112907863005 1.0 0.0 1.0 1.0 1.0 0.2172358200849559 0.0 1.0 -0.6550530325262107 0.4999999999986921 0.0 0.5638555608822542 1.0 0.4999999999986921 0.6086179820441425 0.5000000000020595 1.0 -0.2189086447420421 0.0 0.5000000000020595 -0.26367098376550413 0.5000000000003758 0.5000000000003758 0.1724734858352513
</DataArray>
      </Points>
      <Cells>
        <DataArray type="Int64" Name="connectivity" NumberOfComponents="1" format="ascii">
 0 4 8 7 7 8 6 3 4 1 5 8 8 5 2 6
</DataArray>
        <DataArray type="Int64" Name="offsets" NumberOfComponents="1" format="ascii">
 4 8 12 16
</DataArray>
        <DataArray type="UInt8" Name="types" NumberOfComponents="1" format="ascii">
 9 9 9 9
</DataArray>
      </Cells>
      <PointData>
        <DataArray type="Float64" Name="w" NumberOfComponents="1" format="ascii">
 0.12771112907863005 1.0 0.2172358200849559 -0.6550530325262107 0.5638555608822542 0.6086179820441425 -0.2189086447420421 -0.26367098376550413 0.1724734858352513
</DataArray>
        <DataArray type="Float64" Name="phi_1" NumberOfComponents="1" format="ascii">
 0.8722889703897917 0.8722889018496859 0.8722890692641031 0.8722889016330151 0.8722888706111857 0.8722889674992161 0.8722889511045128 0.8722888649302136 0.8722889352449125
</DataArray>
        <DataArray type="Float64" Name="phi_2" NumberOfComponents="1" format="ascii">
 -0.7827642446470819 -0.7827642901566818 -0.7827644353657451 -0.7827643748664187 -0.7827641043809196 -0.7827642803950691 -0.7827642296308431 -0.7827642641714353 -0.7827641840669832
</DataArray>
      </PointData>
    </Piece>
  </UnstructuredGrid>
</VTKFile>
