<?xml version="1.0" encoding="utf-8"?>
<VTKFile type="UnstructuredGrid" version="1.0" byte_order="LittleEndian" header_type="UInt64">
  <UnstructuredGrid>
    <Piece NumberOfPoints="25" NumberOfCells="32">
      <Points>
        <DataArray type="Float64" Name="Points" NumberOfComponents="3" format="ascii">
 0.0 0.0 0.0 1.0 0.0 0.0 1.0 1.0 0.0 0.0 1.0 0.0 0.2499999999994109 0.0 0.0 0.4999999999986921 0.0 0.0 0.7499999999993406 0.0 0.0 1.0 0.2499999999994109 0.0 1.0 0.4999999999986921 0.0 1.0 0.7499999999993406 0.0 0.7500000000003471 1.0 0.0 0.5000000000020595 1.0 0.0 0.2500000000010405 1.0 0.0 0.0 0.7500000000003471 0.0 0.0 0.5000000000020595 0.0 0.0 0.2500000000010405 0.0 0.2499999999998184 0.2500000000006332 0.0 0.2500000000002257 0.5000000000012177 0.0 0.2500000000006332 0.7500000000000954 0.0 0.4999999999995339 0.2500000000002257 0.0 0.5000000000003757 0.5000000000003757 0.0 0.5000000000012177 0.749999999999844 0.0 0.7499999999995922 0.2499999999998184 0.0 0.749999999999844 0.4999999999995339 0.0 0.7500000000000953 0.7499999999995921 0.0
</DataArray>
      </Points>
      <Cells>
        <DataArray type="Int64" Name="connectivity" NumberOfComponents="1" format="ascii">
 0 4 15 15 4 16 15 16 14 14 16 17 14 17 13 13 17 18 13 18 3 3 18 12 4 5 16 16 5 19 16 19 17 17 19 20 17 20 18 18 20 21 18 21 12 12 21 11 5 6 19 19 6 22 19 22 20 20 22 23 20 23 21 21 23 24 21 24 11 11 24 10 6 1 22 22 1 7 22 7 23 23 7 8 23 8 24 24 8 9 24 9 10 10 9 2
</DataArray>
        <DataArray type="Int64" Name="offsets" NumberOfComponents="1" format="ascii">
 3 6 9 12 15 18 21 24 27 30 33 36 39 42 45 48 51 54 57 60 63 66 69 72 75 78 81 84 87 90 93 96
</DataArray>
        <DataArray type="UInt8" Name="types" NumberOfComponents="1" format="ascii">
 5 5 5 5 5 5 5 5 5 5 5 5 5 5 5 5 5 5 5 5 5 5 5 5 5 5 5 5 5 5 5 5
</DataArray>
      </Cells>
      <PointData>
        <DataArray type="Float64" Name="w1" NumberOfComponents="1" format="ascii">
 3.893180091184103e-39 -8.379886923580366e-40 -3.4738529412072627e-41 -4.28430493069914e-40 -3.215200368376171e-39 -9.208965270057489e-39 -4.5782954400138515e-40 -2.220223250551358e-40 6.475073842578244e-41 4.857973774639019e-40 -4.351546442430792e-40 -1.3164273559965089e-40 3.2415202789835505e-40 7.994443931851808e-40 8.991492827518406e-40 -2.034548007203955e-38 -1.0725268918795013e-22 -1.0346282638710093e-22 -7.325018717929096e-23 7.503208775511744e-23 -1.082235896172099e-22 -1.7456433884531218e-22 9.13141201958692e-24 -7.029441885530318e-23 -8.633222448336382e-23
</DataArray>
        <DataArray type="Float64" Name="w2" NumberOfComponents="1" format="ascii">
 -5.8133518977820434e-39 -2.573088313695317e-39 -9.18347805395667e-41 -1.2746048771065543e-39 7.679651946812543e-39 -3.07179902290552e-38 -2.2493937566629056e-40 -5.431308600009911e-40 1.6510999774708718e-40 1.3434640835658738e-39 -1.2031057803535085e-39 -3.798351323799641e-40 9.209073326364335e-40 2.5787257066603327e-39 1.4160814117775916e-39 -5.271878163387026e-38 -3.0046620953125003e-22 -3.0956866304387976e-22 -2.1631601508704146e-22 2.0977536161011188e-22 -2.9729147464260633e-22 -4.91513280300277e-22 2.7968888163299967e-23 -1.7934755988385643e-22 -2.4702852810799574e-22
</DataArray>
        <DataArray type="Float64" Name="w3" NumberOfComponents="1" format="ascii">
 1.574574754436278e-37 -4.928424264139336e-38 -3.863905567177146e-39 -1.8993383200734207e-38 -1.4523079912857768e-37 -2.0681879686687342e-37 9.503088175839102e-39 -6.031027139964067e-39 -9.81387109443024e-41 2.712083233161993e-38 -2.2049236605639583e-38 -2.2571109494001877e-39 1.4456911730978554e-38 2.637920512345927e-38 2.7301925103791393e-39 -5.883520558683275e-37 -3.398910552414578e-21 3.0818838304401383e-21 1.1445793232159405e-21 2.428085447430147e-21 -6.168320528320989e-21 -5.7582429153393024e-21 -4.173634419941268e-22 -8.86463286698223e-21 -1.5126302449494428e-21
</DataArray>
        <DataArray type="Float64" Name="w4" NumberOfComponents="1" format="ascii">
 3.0812923143140954e-37 -6.732271396908997e-38 -1.1897392792196328e-38 -3.200551434950631e-38 -3.8513759056618845e-37 -8.124505683993276e-38 -4.345334986699902e-39 -4.4455537749479946e-39 -6.237207404511657e-39 6.222284701482788e-38 -4.801620913352321e-38 5.993896810475414e-39 2.335267776026766e-38 4.051374179090138e-38 -5.250104752925712e-38 -2.5567079014648554e-37 -2.1898896249562904e-21 2.016624139096381e-20 1.0526089711235416e-20 1.5390890403231062e-21 -1.4156184047966482e-20 -7.619413448758393e-21 -2.1323195951232606e-21 -2.838396887074664e-20 9.437860607700892e-22
</DataArray>
        <DataArray type="Float64" Name="w5" NumberOfComponents="1" format="ascii">
 -6.681638773027777e-37 1.6818453716249799e-37 2.9641611191659384e-38 7.212615233859637e-38 8.006734559913018e-37 4.764533001303211e-37 4.470245383986388e-38 5.8042560903309646e-39 1.177597544886088e-38 -1.3581619165145854e-37 1.0333774715972804e-37 -1.5295095897918423e-38 -5.245933843893352e-38 -1.0218611268971005e-37 1.0399096027481293e-37 9.20033432186576e-37 7.54280342938738e-21 -3.7813585830811934e-20 -2.1846646188216826e-20 -5.5524303197133576e-21 2.781961120281402e-20 2.050930004461797e-20 4.263054125777961e-21 6.377276854495783e-20 1.6702871308152275e-21
</DataArray>
        <DataArray type="Float64" Name="w6" NumberOfComponents="1" format="ascii">
 8.502053676915345e-37 -2.2903957545184905e-37 -2.1747618620238918e-38 -6.922497701262681e-38 -7.38709539168063e-37 -1.0006258023077929e-36 -5.6268813781601336e-39 -1.2691453367741972e-38 1.4722114682636166e-39 9.825778660760636e-38 -7.580440942680856e-38 -2.3467639491110866e-39 5.388949212050924e-38 9.928654940638223e-38 2.384294407010817e-38 -2.6553569316875477e-36 -1.6452691073726398e-20 5.284990071957037e-21 5.127440337112765e-21 1.2269343263984695e-20 -1.7042136546892475e-20 -2.556891696691972e-20 -1.3387764127569803e-21 -3.828741627241179e-20 -1.0213762709106627e-20
</DataArray>
        <DataArray type="Float64" Name="w7" NumberOfComponents="1" format="ascii">
 -4.790497435424e-36 2.135021095505306e-37 9.511386890483183e-38 -1.5179079806125425e-37 3.668154729274327e-36 7.045437844564749e-37 1.0768015008126643e-36 -2.442374692958702e-37 -1.6109613839891572e-38 1.895273948118211e-37 -2.126622218863187e-37 -1.5783468757530057e-37 1.1997416022345253e-37 1.386558459723686e-37 1.0765335329852016e-37 -8.011696336774637e-37 1.411079663598795e-20 8.68136049895593e-20 -4.0933486688908246e-20 -1.6235566425326182e-20 -1.538079657061947e-19 5.6110073412343375e-21 2.890442985947472e-21 4.4990676232398316e-20 4.461606531571061e-20
</DataArray>
        <DataArray type="Float64" Name="w8" NumberOfComponents="1" format="ascii">
 -5.816453632961444e-36 -1.0734256619897577e-36 -2.9367643970467596e-37 -8.191963123352103e-37 -7.0281711537976765e-37 -3.71439794859624e-36 2.6817562755584135e-36 -1.863109170225202e-37 -1.5999489532897366e-37 7.210831277560547e-37 -3.946803085735119e-37 1.1835199569040196e-37 1.885507609479885e-37 1.8403898402897753e-36 -2.086707429280958e-36 1.2503985461463906e-35 2.9481189597409003e-20 6.125334371651188e-19 9.311277231929237e-20 -2.557400076065777e-20 -4.716621106598095e-19 -3.9632436776173983e-20 -1.1383750623883699e-19 -4.965092781424271e-19 9.16063468054592e-20
</DataArray>
        <DataArray type="Float64" Name="w9" NumberOfComponents="1" format="ascii">
 -5.832016168670645e-36 4.515887542358331e-37 1.941429931683172e-37 1.197853068578064e-37 3.2761856017709226e-36 3.210962922878526e-37 2.1575554644255047e-36 -1.7940704668646118e-37 9.083839298924098e-38 -4.623745772357122e-37 2.6673721241189453e-37 -2.9037129370408007e-37 -1.066157377475666e-37 -3.3568938433546373e-37 1.2157041731595782e-36 3.061163256576499e-36 2.4623676688110808e-20 -5.596209006993917e-20 -1.9981636287800591e-19 -3.7233967643217996e-20 -1.046159627076831e-19 2.3505403996704637e-20 2.8130010469364125e-20 2.738855039833771e-19 4.824243334634506e-20
</DataArray>
        <DataArray type="Float64" Name="w10" NumberOfComponents="1" format="ascii">
 -4.844936458149455e-36 7.381295351463464e-37 7.612875792957331e-37 7.825422120820195e-37 1.5477209004937347e-35 -9.93039628777486e-36 8.744545810278672e-37 -8.792363114519747e-38 5.290936467149098e-37 -3.074614755675074e-36 2.29021834935687e-36 -7.82224932835594e-37 -4.848734711308323e-37 -6.3879069410361665e-37 4.223748717097625e-36 -3.6582839058817903e-35 -1.3643770791135936e-19 -1.6336164634560045e-18 -8.168466181225718e-19 6.650232237006695e-20 7.805424871004514e-19 1.1453244508347528e-19 1.4759122025291343e-19 1.6989793016101033e-18 -1.6581953555949714e-19
</DataArray>
        <DataArray type="Float64" Name="w11" NumberOfComponents="1" format="ascii">
 -1.3584294511318384e-35 -2.907318443042934e-36 1.25721770887219e-37 -7.55472380848436e-37 2.6590530456539376e-35 2.5089592277047246e-36 7.26165687496749e-36 -1.2512190857907612e-37 1.1664250544971839e-36 -2.4449353565957598e-36 1.7798075319397667e-36 -2.798544621716319e-37 -3.7203380623948624e-37 2.4554446660497195e-36 -5.3246503404680445e-36 -1.329159408529014e-35 -4.9644974363479505e-20 -1.2760028320160086e-18 -5.97249370248535e-19 -4.215050267636296e-20 6.280768515776562e-19 3.6233829622188634e-19 -5.3562374687311176e-20 1.8235277887863554e-18 1.2768178842427505e-19
</DataArray>
        <DataArray type="Float64" Name="w12" NumberOfComponents="1" format="ascii">
 -3.0088020199561468e-36 -3.927431502391789e-38 4.500135630221109e-37 1.0606467544902696e-37 1.087005204759084e-35 1.3232849008863528e-37 -5.844216198821229e-37 -6.467277323205691e-37 3.351128970248086e-37 8.653054748062884e-37 -1.3700726672229116e-36 -1.546967168756118e-37 3.548341700060548e-37 7.599407590489142e-37 -4.606597506799681e-36 2.4263963428433854e-35 7.067979937440815e-20 -7.614795480288291e-19 -1.3616695666333638e-19 -4.8219257215790105e-20 5.935982933024581e-19 2.0035570238481848e-19 -1.2441505628878165e-20 1.2434077608624655e-18 -1.117710346850102e-19
</DataArray>
        <DataArray type="Float64" Name="w13" NumberOfComponents="1" format="ascii">
 -4.5347085182650984e-36 1.7402688269224276e-36 -3.105191604739687e-36 4.604446735001672e-36 -1.8685464258936522e-35 -6.499510111828571e-36 2.8149728500415066e-36 3.6563863925477905e-36 -2.0890518809983353e-37 -5.1222140668364766e-36 5.8986123335121356e-36 2.9850010464000993e-36 -5.495900553312584e-36 -2.9535169504237412e-36 1.1256739436479638e-35 1.9235603814258848e-35 3.602672522278597e-20 1.256713788358466e-19 -4.671103764136833e-19 -5.454241018776868e-21 4.0825195428471384e-19 3.7852717882360925e-19 -3.259805324383896e-20 -9.570384979355376e-19 -7.172718296061762e-20
</DataArray>
        <DataArray type="Float64" Name="w14" NumberOfComponents="1" format="ascii">
 -1.3598911313497933e-35 -4.737118508923533e-36 1.3613735049932454e-36 -2.7217881845183312e-36 2.8416886522903663e-35 1.7067147107150594e-35 6.717313590661017e-36 -2.028735513106143e-36 1.1593952967156406e-36 1.746126278156582e-36 -2.6364890535574624e-36 -1.2168188701224512e-36 2.5514546528226684e-36 3.689536303428197e-36 -1.8546868684352822e-35 9.241146849261618e-35 2.6761169670735227e-19 -1.60076391836874e-19 4.578872409466996e-19 -2.0843726608347313e-19 4.864112941494704e-19 4.510667197588159e-19 -2.391161176217022e-19 1.7329312392186771e-18 9.068609771770296e-20
</DataArray>
        <DataArray type="Float64" Name="w15" NumberOfComponents="1" format="ascii">
 -1.013737234536232e-35 3.770376989341916e-36 -6.633470943925001e-37 1.7690061318572058e-36 3.173656982950998e-35 6.692542408976892e-35 -2.6343840270355206e-36 2.9588867885925146e-36 1.2813024509004067e-36 4.540416841936411e-36 -5.183316846676386e-36 9.717048160064525e-37 4.8558722483563035e-37 -4.907901110727841e-36 -2.6751026427282963e-35 2.4393055440827543e-34 9.179754969212202e-19 1.654887987499081e-18 2.3277633675717576e-18 -4.053290150673193e-19 1.3776581725650412e-18 1.2825952557402492e-18 -3.919097507215693e-19 4.291728573138109e-19 -7.214045034332907e-20
</DataArray>
        <DataArray type="Float64" Name="w16" NumberOfComponents="1" format="ascii">
 -3.167907188686615e-35 1.6024008625426898e-36 1.3867759107146434e-36 -2.969237968163775e-36 2.501307287943706e-35 -1.1786246417205404e-35 8.470978498553403e-36 -1.1388239826446642e-36 -9.320560336044759e-37 1.3083073071131289e-36 -9.625303785305336e-37 -1.1540497395516156e-36 2.446100492702526e-36 3.927975216023825e-36 -5.4329834253503196e-36 2.012186042540818e-35 9.880021974324361e-20 5.29506430026173e-19 -4.395905616827715e-19 -6.870280144086013e-20 -1.155382785012609e-18 -1.762665436238373e-20 -2.172919239529513e-19 1.063113093945675e-18 2.2805947324571797e-19
</DataArray>
        <DataArray type="Float64" Name="w17" NumberOfComponents="1" format="ascii">
 -2.236942619875329e-35 -1.0764934640608479e-35 -3.17857019846941e-36 -4.388372194098993e-36 2.573025048927295e-35 1.515896766094032e-35 2.7190985815996254e-35 5.1877263310008246e-36 -1.1457683545918637e-36 -1.3198253216055527e-35 1.1599529946869405e-35 1.7957390905572413e-36 -5.1986988077279076e-36 1.0070174271979321e-35 -3.969747123966087e-35 2.575597467870335e-34 4.205530247455497e-19 -5.790590307440055e-19 5.056993420682993e-19 -4.14842892058922e-19 3.3090693800874115e-18 1.7877234391024197e-18 -8.704801347657417e-19 4.875217927408704e-19 -2.434786131035139e-20
</DataArray>
        <DataArray type="Float64" Name="w18" NumberOfComponents="1" format="ascii">
 -1.5458781836479334e-35 2.965141638531679e-36 -1.1172763903298855e-36 -2.2487593957918308e-36 4.275848656821451e-35 -1.7656826505072055e-35 -3.5769084030872704e-36 -5.877398081144234e-36 -6.902026749818546e-37 -1.1784997375720045e-36 -1.7692524383921217e-37 -1.7370435704769825e-36 3.752248703971204e-36 7.318011583342347e-36 -2.5362920161944007e-36 -1.2420639537809992e-34 -1.4494335597122703e-19 9.671876821672514e-19 -2.3801405556944193e-19 1.4718059954103333e-19 -2.4640824234304572e-18 -7.633178496971107e-19 -7.710099893417452e-20 7.947744398158771e-20 3.4967497997236557e-19
</DataArray>
        <DataArray type="Float64" Name="w19" NumberOfComponents="1" format="ascii">
 -3.357659851020463e-35 4.017332087486486e-37 -1.066631221865309e-36 -4.543049704572163e-36 6.330341942899109e-35 -3.721064865742128e-35 1.532826109348674e-35 1.4114453110269862e-36 2.578491829506952e-36 -8.551284604789668e-36 7.777434667433944e-36 -1.0688130615186606e-36 -3.8440367830505646e-37 1.0766069899717889e-35 -1.3427540548122106e-35 -1.6448440877196516e-35 -8.663802852936683e-20 -2.288440541800214e-18 -1.2211892663469586e-18 -7.34140678701849e-21 9.699965272946366e-19 8.41239126429511e-19 -5.573836055276628e-19 3.745546778576866e-18 -3.88816424515106e-20
</DataArray>
        <DataArray type="Float64" Name="w20" NumberOfComponents="1" format="ascii">
 1.0556413121738969e-34 6.8495068344814e-37 -1.6579653911035643e-36 3.801519752169315e-36 -6.411040489969883e-35 -6.859544071561474e-35 -3.129206590589869e-35 -8.876170766695724e-36 -3.1072624722004194e-36 9.66128758354502e-36 -1.232066985464957e-35 7.087460269147583e-37 -3.278394847481531e-36 -8.989469060855025e-36 5.596533435632571e-35 -5.30247828316194e-34 -1.6971029206624704e-18 -4.543340738676291e-18 -2.0401725193550695e-18 9.665402426975616e-19 2.1832370429995866e-19 -2.559983006420613e-18 1.4545444666117733e-18 -1.6202418727138147e-18 -5.871475826314421e-19
</DataArray>
        <DataArray type="Float64" Name="w21" NumberOfComponents="1" format="ascii">
 -1.6721753984127695e-34 -1.0663674728883355e-35 1.4503761312532356e-35 -1.5278856318965586e-35 1.2020226433395938e-34 -1.1641957086995424e-34 6.620296075282279e-35 3.102692006001206e-35 2.609978809532594e-35 6.484571537320878e-36 1.489091859369267e-35 -6.297285515605577e-36 9.188081547712228e-36 4.784694632016192e-36 -3.93725854074847e-35 4.931608598145762e-35 -5.30256219299959e-19 -4.499807820401727e-18 -4.859953625441263e-18 -3.6124214765630557e-19 9.951556885320033e-19 6.795772526233656e-19 -4.994604407730296e-19 6.655384551216211e-18 9.471092589631709e-20
</DataArray>
        <DataArray type="Float64" Name="w22" NumberOfComponents="1" format="ascii">
 1.2892861087134061e-16 -1.7190481449512082e-16 3.8678583261402184e-16 -2.5785722174268123e-16 8.595240724756041e-17 -8.595240724756041e-17 1.1818455996539558e-16 -8.595240724756041e-17 -1.5041671268323073e-16 -1.2892861087134061e-16 -1.0744050905945052e-16 6.446430543567031e-17 -2.1488101811890103e-17 1.7190481449512082e-16 -1.2892861087134061e-16 2.1488101811890103e-17 0.00024097557518170176 6.67967156749942e-5 -1.1852662421085305e-5 0.00021212053989722263 0.00011299915471948032 2.238646960036425e-5 0.00011552588585557556 7.97532855392859e-5 2.526655613176721e-5
</DataArray>
        <DataArray type="Float64" Name="w23" NumberOfComponents="1" format="ascii">
 -8.623365904160143e-17 -1.0779207380200178e-16 2.5870097712480426e-16 -2.3175295867430384e-16 -2.910385992654048e-16 4.311682952080071e-16 0.0 0.0 -2.5870097712480426e-16 6.737004612625111e-17 -4.918013367216331e-17 -1.5090890332280248e-16 2.0480494022380338e-16 4.3116829520800714e-17 1.940257328436032e-16 8.623365904160143e-17 -0.003375275555536062 0.01624449743211067 0.007922002725964035 -0.0028980772924564815 -0.01465551787864998 -0.005058683378395367 -0.001346843035235137 -0.022370679242688516 0.001152804348794401
</DataArray>
        <DataArray type="Float64" Name="w24" NumberOfComponents="1" format="ascii">
 2.717274293731643e-16 -2.0379557202987325e-17 -3.8721158685675916e-16 2.071921648970378e-16 2.445546864358479e-16 -3.260729152477972e-16 3.260729152477972e-16 2.1738194349853147e-16 -2.1738194349853147e-16 -8.15182288119493e-17 8.15182288119493e-17 2.9890017231048076e-16 -1.630364576238986e-16 0.0 -3.8041840112243007e-16 -3.8041840112243007e-16 -0.054568285697130875 -0.025236698850745226 -0.004407529018092437 -0.048437827676446575 -0.01951354032665575 -0.0005954862821884562 -0.02524205035116949 -0.004237725699544951 -0.009985918752019662
</DataArray>
        <DataArray type="Float64" Name="w25" NumberOfComponents="1" format="ascii">
 1.4825548429514271e-16 -3.928770333821282e-16 -3.9534795812038056e-17 -2.866272696372759e-16 -1.5813918324815222e-16 1.5813918324815222e-16 1.976739790601903e-16 9.883698953009514e-18 -5.930219371805708e-17 -3.9534795812038056e-17 3.9534795812038056e-17 1.5813918324815222e-16 3.9534795812038056e-17 1.0516873417186687e-16 -1.9767397906019028e-17 -5.930219371805708e-17 -0.08362579155643962 0.05406476535792177 0.051752558557937534 -0.083173504962125 -0.10059315433069278 -0.031775869989009914 -0.04443574178111789 -0.09822669416845327 -0.011673415640026245
</DataArray>
        <DataArray type="Float64" Name="w26" NumberOfComponents="1" format="ascii">
 2.518844252394136e-16 2.0990368769951135e-17 3.3584590031921816e-16 1.4693258138965794e-16 -5.877303255586318e-16 4.198073753990227e-16 -2.938651627793159e-16 -4.198073753990227e-17 -1.0495184384975567e-16 1.6267535796712128e-16 -1.6792295015960908e-16 -3.9881700662907156e-16 1.8891331892956021e-16 -2.623796096243892e-17 -4.198073753990227e-17 3.14855531549267e-16 0.06207723259360919 0.018319146085051023 -0.02967550560287722 0.04538154737485362 0.041217644518634744 0.01703417957678795 0.017707136194459204 0.02517786437087346 0.02261999233831349
</DataArray>
        <DataArray type="Float64" Name="w27" NumberOfComponents="1" format="ascii">
 1.693897564228401e-16 9.67941465273372e-17 -1.935882930546744e-16 1.451912197910058e-16 -9.67941465273372e-17 3.2264715509112403e-16 -2.0972065080923062e-16 -3.871765861093488e-16 6.45294310182248e-17 -2.0165447193195252e-17 3.2264715509112403e-16 -1.6132357754556202e-16 0.0 1.935882930546744e-16 2.903824395820116e-16 -5.646325214094671e-16 0.007032403522070509 -0.09694305178795465 -0.06378009053345726 0.005810444233064625 0.08268851772694268 0.045060862993845485 0.0009383683807329883 0.1087971292352978 -0.011088297668065142
</DataArray>
        <DataArray type="Float64" Name="w28" NumberOfComponents="1" format="ascii">
 1.4676478470048526e-16 5.274359450173688e-16 6.522879320021567e-17 3.139135672760379e-16 3.261439660010783e-17 0.0 -3.2614396600107833e-16 -3.91372759201294e-16 -1.1822718767539089e-16 -1.2230398725040437e-17 9.78431898003235e-17 0.0 -1.6307198300053916e-16 6.522879320021567e-17 0.0 -3.669119617512131e-16 0.20968657499002272 0.22023171324651677 -0.04819946183013494 0.16749858699791603 0.00422998272921277 -0.006704836908265602 0.06535667853603493 -0.11270943403801582 0.10334099567422697
</DataArray>
        <DataArray type="Float64" Name="w29" NumberOfComponents="1" format="ascii">
 1.0653920473166152e-16 -3.5513068243887174e-17 7.102613648777435e-17 1.2429573885360512e-16 1.7756534121943587e-16 -2.1307840946332303e-16 3.5513068243887174e-17 -1.7756534121943587e-17 -1.7756534121943587e-17 -7.990440354874614e-17 -7.102613648777435e-17 2.4859147770721023e-16 -1.3983270621030575e-16 -1.0653920473166152e-16 3.107393471340128e-17 -1.3920845305758117e-16 0.029125112728312055 -0.12772018478659505 0.0768580997657433 0.05601058887296968 0.06979981070871355 0.02329802367818625 0.04137717073927505 0.177532354145159 -0.07209784494643146
</DataArray>
        <DataArray type="Float64" Name="w30" NumberOfComponents="1" format="ascii">
 -1.1697403581352081e-16 1.9008280819697134e-16 -8.773052686014062e-17 6.945333376427798e-17 7.31087723834505e-17 -7.31087723834505e-17 -2.9243508953380204e-17 -1.7546105372028125e-16 4.0209824810897775e-17 -1.0235228133683072e-16 4.386526343007031e-17 1.46217544766901e-16 -8.773052686014062e-17 2.1932631715035153e-16 -1.4621754476690102e-17 -2.1201543991200649e-16 -0.05765129527278321 -0.04532454682032891 0.017610959497972634 -0.05769723218684976 0.0013346747832182488 0.012641546006678104 -0.022042224301010042 0.03715570213070539 -0.02911033732786785
</DataArray>
        <DataArray type="Float64" Name="w31" NumberOfComponents="1" format="ascii">
 -8.700848813469517e-17 -2.1752122033673793e-16 2.3927334237041173e-16 -3.6978607457245445e-16 1.0876061016836897e-16 -2.1752122033673793e-16 3.9153819660612828e-16 1.9576909830306414e-16 -2.1752122033673793e-17 1.0332257965995051e-16 -4.3504244067347587e-16 2.827775864377593e-16 -1.7401697626939034e-16 -8.700848813469517e-17 -8.700848813469517e-17 4.785466847408235e-16 -0.9243957563918008 -0.42218819686830505 0.17763690799754714 -0.7990615905946087 -0.43058453910638017 -0.12766172078044036 -0.3759286093129415 -0.059711587725370455 -0.2987483799426414
</DataArray>
        <DataArray type="Float64" Name="w32" NumberOfComponents="1" format="ascii">
 4.799956748537056e-17 2.5199772929819543e-16 2.399978374268528e-17 1.3199881058476902e-16 -3.599967561402792e-17 -2.99997296783566e-18 2.399978374268528e-17 -2.8799740491222337e-16 5.3999513421041875e-17 -9.599913497074111e-17 7.199935122805584e-17 -1.1999891871342639e-16 -1.3199881058476902e-16 9.599913497074111e-17 -1.799983780701396e-17 -8.399924309939848e-17 0.22234271315367843 -0.027183783784642566 -0.0769762435260344 0.19021459736403867 0.2158562123358163 0.0877850111926633 0.07577566618841008 0.18149376727652106 0.07058368136119106
</DataArray>
        <DataArray type="Float64" Name="w33" NumberOfComponents="1" format="ascii">
 -1.9484639228987507e-16 -3.8969278457975015e-16 -1.2177899518117192e-17 -3.8969278457975015e-16 9.742319614493754e-17 9.742319614493754e-17 1.461347942174063e-16 2.922695884348126e-16 -2.0702429180799226e-16 -1.2177899518117192e-17 1.522237439764649e-17 1.826684927717579e-16 1.2177899518117193e-16 1.0960109566305473e-16 4.871159807246877e-17 -2.4355799036234384e-17 -1.0 -0.5043470034487177 0.0880864233443575 -0.899399877435138 -0.366565636287747 -0.026502895071400422 -0.39701382265661966 -0.026670853679845476 -0.4100016403297258
</DataArray>
        <DataArray type="Float64" Name="w34" NumberOfComponents="1" format="ascii">
 -1.0632464612454094e-16 5.316232306227047e-17 5.316232306227047e-17 -1.275895753494491e-16 -2.8176031223003347e-16 2.1264929224908188e-16 -2.764440799238064e-16 -4.2529858449816373e-17 1.0632464612454093e-17 6.844649094267323e-17 -2.6581161531135235e-17 0.0 1.701194337992655e-16 0.0 0.0 3.189739383736228e-16 -0.05570701309582548 -0.8738362417025805 -1.0 0.2757781523531272 0.4143680359466837 0.1951332264137903 0.14575572082659807 0.42730373268602795 0.09446961513569199
</DataArray>
        <DataArray type="Float64" Name="w35" NumberOfComponents="1" format="ascii">
 1.8040522375955904e-17 -5.412156712786771e-17 7.216208950382362e-17 -1.4432417900764723e-16 -7.216208950382362e-17 -4.820202072325718e-17 -3.608104475191181e-17 9.020261187977952e-18 0.0 1.871704196505425e-16 -1.9844574613551494e-16 -3.608104475191181e-17 -9.020261187977953e-17 0.0 8.118235069180157e-17 8.343741598879605e-17 -0.22802197657465156 -0.03576605867370805 -0.6600805692941227 0.14231720044024113 -0.3924206622990538 -0.37458679029151604 0.2969405179237648 -1.0 -0.023757620183974894
</DataArray>
        <DataArray type="Float64" Name="w36" NumberOfComponents="1" format="ascii">
 1.0120394749262923e-16 -6.072236849557754e-17 6.072236849557754e-17 6.072236849557754e-17 -4.5541776371683154e-17 -6.578256587020899e-17 -2.0240789498525846e-17 8.096315799410338e-17 -5.819226980826181e-17 1.2144473699115508e-16 -1.2144473699115508e-16 8.096315799410338e-17 -1.3283018108407588e-16 -1.0626414486726069e-16 2.0240789498525846e-17 -1.0911050589049089e-16 -0.1552671384189574 -0.3650745695462193 0.1497710356465584 0.3098170021451782 -0.5985443381095371 -0.6030178768240916 -0.45808561598666403 0.26583828013732913 1.0
</DataArray>
        <DataArray type="Float64" Name="w37" NumberOfComponents="1" format="ascii">
 -5.944333677133011e-17 -2.282624132019076e-16 7.608747106730254e-17 -5.70656033004769e-17 -1.141312066009538e-16 -1.7119680990143073e-16 3.804373553365127e-17 1.521749421346051e-16 2.1994034605392142e-17 2.9008348344409097e-16 -2.306401466727608e-16 -3.804373553365127e-17 -1.521749421346051e-16 -1.3315307436777945e-16 1.9021867766825637e-16 4.18481090870164e-16 0.4708369986520981 0.14856260782831607 -0.4713171062509347 -0.3352600306351241 0.23276130460503494 -0.6225345779155722 -1.0 -0.1261851728886475 -0.30152354577035717
</DataArray>
        <DataArray type="Float64" Name="w38" NumberOfComponents="1" format="ascii">
 -7.586931874596623e-17 3.915835806243418e-17 0.0 -3.426356330462991e-17 -3.915835806243418e-17 -1.2236986894510683e-16 -8.810630564047692e-17 -1.957917903121709e-17 -4.527685150968953e-17 1.1747507418730254e-16 -6.852712660925982e-17 3.915835806243418e-17 -4.894794757804273e-18 4.8947947578042735e-17 3.915835806243418e-17 -3.915835806243418e-17 0.3203153584598642 -0.050936156849850485 -0.23467313362926898 0.40243705714616773 -1.0 0.4911408296506337 -0.3320370036033751 0.20029713001685315 -0.5825153333226527
</DataArray>
        <DataArray type="Float64" Name="w39" NumberOfComponents="1" format="ascii">
 1.034323365100594e-16 -1.6331421554219903e-16 -2.381665643323736e-18 5.988187903213965e-17 -4.3550457477919744e-17 -1.3065137243375924e-16 1.6331421554219903e-16 5.988187903213965e-17 -1.4153898680323916e-16 4.3550457477919744e-17 7.621330058635955e-17 -1.0887614369479936e-17 6.532568621687962e-17 -1.1431995087953932e-16 -2.1775228738959872e-17 -1.3065137243375924e-16 -0.9372361759119381 0.45095783814161644 0.06408941181784963 1.0 0.41402775072466474 -0.015564431581894633 -0.4995507813934897 0.08785703563231594 -0.31918344785709873
</DataArray>
        <DataArray type="Float64" Name="w40" NumberOfComponents="1" format="ascii">
 -0.49987672972635777 -0.7326156502329971 0.2673840050782314 0.5001230447453486 -0.558061487276008 -0.6162462337960669 -0.6744309431901461 -0.48261571436654854 -0.23261580821457498 0.017384091688859533 0.32556876466051937 0.3837535358085046 0.4419382776450152 0.25012310361775963 0.00012315265678593273 -0.24987678117773615 -0.3080615341278516 -0.05806159106452339 0.19193834425346554 -0.3662462761781254 -0.11624633460499684 0.13375359768576126 -0.4244309996545826 -0.17443107289829102 0.07556884560652664
</DataArray>
        <DataArray type="Float64" Name="w41" NumberOfComponents="1" format="ascii">
 0.008127129896223393 -0.24590038758277152 -1.0 -0.7459723495205772 -0.055379750702836024 -0.11888665751076301 -0.18239353049646007 -0.4344253047887957 -0.6229502174016744 -0.8114751169477838 -0.936493141187885 -0.8729862504860932 -0.8094792851972508 -0.55744748260604 -0.3689226382969758 -0.18039776894803208 -0.24390465212813692 -0.43242953868108996 -0.6209544104764331 -0.30741154696803014 -0.49593644806801396 -0.6844613383091086 -0.3709184319243414 -0.5594433363965273 -0.7479682369208215
</DataArray>
        <DataArray type="Float64" Name="w42" NumberOfComponents="1" format="ascii">
 -0.7990520993668221 0.20094759258738185 0.6200936603336141 -0.3799061032206613 -0.5490521481518803 -0.29905223462366526 -0.04905234451572968 0.3057341180884655 0.41052064708370606 0.5153071589452313 0.37009372209145247 0.12009377877954758 -0.1299061644119348 -0.4846925889555971 -0.5894790817711293 -0.6942655880984636 -0.44426564904507265 -0.33947914932549345 -0.23469265478583082 -0.19426572796975816 -0.08947922393640448 0.015307273999943341 0.05573418686586836 0.1605207002601764 0.2653072125307172
</DataArray>
        <DataArray type="Float64" Name="w43" NumberOfComponents="1" format="ascii">
 -0.9970972519778697 1.0 -0.9970972861162144 0.9884905929304033 -0.5361719782280394 -0.002799496465058814 0.5341075528777104 0.5341075779997562 -0.0027994287023252254 -0.5361719400993835 -0.5309522269067899 0.003401124754406989 0.5352668960791163 0.5352669596209594 0.0034011729496716686 -0.5309521646459502 -0.25755134291698695 0.010810874812005893 0.274670362349333 0.0076382777304299584 0.011616558370312169 0.010810865483329544 0.2701477277081759 0.007638307881286038 -0.2575513387127866
</DataArray>
        <DataArray type="Float64" Name="w44" NumberOfComponents="1" format="ascii">
 0.027993006737127162 4.8129192848365014e-8 -0.02799304101830794 -3.58313578969353e-8 -0.4257724929329636 -0.6752592570625547 -0.4626918316377252 0.4626918594499982 0.6752593020679422 0.4257725408417785 -0.4312532166834497 -0.637503779645666 -0.41911998166150455 0.4191199619218284 0.6375037564106005 0.4312531709418996 -0.0043609355493707536 0.1638208543998514 4.31012859991198e-9 -0.17885739942658002 1.3089403717576283e-8 -0.16382084184291743 1.8643418104291906e-8 0.17885743580134628 0.0043609554096203694
</DataArray>
        <DataArray type="Float64" Name="w45" NumberOfComponents="1" format="ascii">
 0.046197452979221204 0.7880980811639773 0.04619750424781728 -0.7017132245789367 -0.5050270028362706 -0.5585394037838535 0.05406087577996306 0.05406077075584187 -0.5585394681393762 -0.5050269981277892 0.4982524455616933 0.49244510063034597 -0.07058181777004693 -0.07058181243643886 0.49244513846791926 0.4982524558646572 -0.01874469306377646 0.12138806358175068 0.029421543039212888 -0.17890386023365754 -0.03150517194387917 0.12138805296958259 -0.0718507359409371 -0.1789038815527983 -0.018744708699944202
</DataArray>
        <DataArray type="Float64" Name="w46" NumberOfComponents="1" format="ascii">
 -0.7610641742182268 4.841279325618137e-7 0.76106421768501 -3.8933184000132895e-7 -0.07740532794060155 0.5098112066172086 0.4978201958902781 -0.4978201567996625 -0.5098119561320624 0.07740466142859866 0.04315280755206019 -0.5578484697825958 -0.5191005449754624 0.5191005137516173 0.5578490877570935 -0.0431521893118467 0.06842709293372075 0.1686977780598639 3.2474048441058234e-8 0.15712257920170555 -4.3765792149285e-8 -0.16869763210388916 -6.465176517698053e-8 -0.15712284172925065 -0.06842713262046182
</DataArray>
        <DataArray type="Float64" Name="w47" NumberOfComponents="1" format="ascii">
 0.9446648233087378 0.9010455534580566 0.9446648371343948 1.0 -0.0772235650232047 -0.6825383509214481 -0.1214625422849282 -0.12146257133476239 -0.6825383215294492 -0.07722347310438671 -0.14838076569287378 -0.7570236406000268 -0.1085587638854011 -0.10855877229243902 -0.7570236310259467 -0.14838071530073424 -0.3524017784700217 -0.5383493962789704 -0.3490116384767031 -0.5190167524173055 -0.5632282253774914 -0.5383494003961817 -0.3470183485332805 -0.5190167521250568 -0.35240176526384354
</DataArray>
        <DataArray type="Float64" Name="w48" NumberOfComponents="1" format="ascii">
 -0.011153515593116014 9.407735294497755e-8 0.011153528524706257 -5.218463511372118e-8 0.5167789200322056 0.007586986762720528 -0.5103259807190396 0.5103258825999141 -0.007587060095735374 -0.5167788325743063 0.5066595628991838 -0.0040105107547948 -0.49766918278518796 0.49766925033331416 0.004010578995100965 -0.5066596729541711 0.006175318565149145 0.006274784957444403 2.4102142497187265e-8 0.0006142229621469191 -6.298613534219324e-9 -0.006274759256127848 -4.187285775723355e-8 -0.0006142689114289133 -0.006175323150478385
</DataArray>
        <DataArray type="Float64" Name="w49" NumberOfComponents="1" format="ascii">
 -0.8696098702016309 -4.80646889392012e-6 0.8696100327647242 4.698532243608976e-6 0.5418093570288737 0.37097147664645597 -0.7927550804188866 0.7927612492274968 -0.3709674513620864 -0.5418182280909086 -0.5685457923311501 -0.3602764894375094 0.8122485753726413 -0.8122544807786973 0.36027238812019047 0.5685544459555474 0.39832200658359873 0.1956462516535368 -2.1002754635689415e-6 0.19694718295759822 -2.5691678788856077e-8 -0.1956484653771386 2.1509088673476093e-6 -0.19694508618075132 -0.3983221458801444
</DataArray>
        <DataArray type="Float64" Name="w50" NumberOfComponents="1" format="ascii">
 -0.012181434712430227 0.8642826892588976 -0.012182771492009116 -0.843324689396743 0.7959270600947527 -0.3607716506185739 -0.5525283273293721 -0.5525296297083562 -0.3607710482252805 0.7959279808689111 -0.7769509878931553 0.36371939766927147 0.5323075819279219 0.5323087633135373 0.3637188790298379 -0.7769518277118731 0.010674644378478832 0.19679739848221678 0.37731805594284057 -0.18846252869474248 0.004349269241824698 0.19679768583815016 -0.385532816722039 -0.18846221065675367 0.010675269201268928
</DataArray>
        <DataArray type="Float64" Name="w51" NumberOfComponents="1" format="ascii">
 -0.9955288282567206 0.9771748616093632 -0.9955288633985554 1.0 0.7885452259017659 0.009396621685835395 -0.7930805867059778 -0.7930806141030292 0.00939665675006265 0.7885452452072659 0.8150303327111403 -0.010070821334799153 -0.8028793849006632 -0.8028793711079764 -0.010070770198516632 0.8150302772223122 0.4196274052193864 -0.014724154006240942 -0.4269503279566383 -0.009177049223359313 -0.02586050751770367 -0.014724163977842092 -0.42263388736315466 -0.009177035701785265 0.41962741798873493
</DataArray>
        <DataArray type="Float64" Name="w52" NumberOfComponents="1" format="ascii">
 -0.008040196455871278 6.475944173379446e-9 0.008040206422842316 4.8182599839589476e-8 0.731871188670355 -0.9999999780418766 0.7273328713243619 -0.7273328915370454 1.0 -0.7318711907421385 0.7141135970576106 -0.988871436979968 0.7288677941734721 -0.7288678681294483 0.9888714827067988 -0.7141136308874001 0.007422932070628858 0.2499523513099243 -1.4790452747506762e-8 -0.24942903058661545 2.0503347438568296e-9 -0.24995233616162404 -4.393456798617326e-9 0.24942901613243415 -0.007422945621086362
</DataArray>
        <DataArray type="Float64" Name="w53" NumberOfComponents="1" format="ascii">
 0.006984847603765731 0.9131576748355397 0.006988348061893491 -0.913579262796792 -0.5817188548921611 0.9526909039984887 -0.9999978303135036 -1.0 0.9526944876810843 -0.5817225967280587 0.5664920336172422 -0.9389182627254176 0.9946761691465269 0.9946784566579785 -0.9389220435896118 0.566495945683313 -0.006270799096461401 -0.11603900135355977 0.465466210623984 0.1140474612698534 -0.002234251080957456 -0.11603848216056682 -0.47301689177972683 0.11404793955974159 -0.006272539240971403
</DataArray>
        <DataArray type="Float64" Name="w54" NumberOfComponents="1" format="ascii">
 0.9083719172901016 2.1414378986597836e-6 -0.908371925601272 -2.1756500896782996e-6 -0.9897429234566102 0.9404995040341934 -0.5682606905525707 0.5682559972931924 -0.9404950427955413 0.989740213818343 1.0 -0.9529343306988804 0.5800791904365155 -0.5800744123956392 0.9529298236644685 -0.9999972724890411 -0.454207927653145 0.12784779564115703 1.1143363214765518e-6 0.1260934519977587 -2.4634516694711e-9 -0.12784834881366566 -1.1059746629082123e-6 -0.1260929144021055 0.4542079328532293
</DataArray>
        <DataArray type="Float64" Name="w55" NumberOfComponents="1" format="ascii">
 0.7530350819569734 0.7504761391291374 0.7530350072677529 0.7651211282630623 -0.8699522575791917 0.9891736883228598 -0.8695460108335863 -0.86954592233519 0.9891735555976227 -0.8699521192564169 -0.8772177125125745 1.0 -0.8832914394516926 -0.8832914198238154 0.9999999923787665 -0.8772177279463024 -0.44207362362526004 0.02373504481719824 -0.45192505434762936 0.024244688903641155 0.008697645579645821 0.023735058008381854 -0.44778948507636784 0.02424466533487221 -0.44207360049394817
</DataArray>
        <DataArray type="Float64" Name="w56" NumberOfComponents="1" format="ascii">
 5.9242586350802773e-36 2.0176704334017633e-36 1.5516136821727517e-37 4.551937336612074e-37 -2.1445676486163398e-36 -2.6191569358160492e-36 -4.4029789908012736e-36 -8.944440410793789e-37 -4.852557919709564e-37 4.706393467334675e-37 -8.04221125989392e-37 -1.0595622082923868e-37 3.1618048694056423e-37 -1.0003211223647884e-36 4.788539062018237e-36 -3.8768240332453214e-35 -6.998185420031857e-20 -6.488057399219491e-20 -7.443644639202937e-20 7.083159972364689e-20 -2.6358799290638384e-19 -2.1879137807037974e-19 1.0723969435085638e-19 -9.203337264241095e-20 -1.6434790680254368e-20
</DataArray>
        <DataArray type="Float64" Name="w57" NumberOfComponents="1" format="ascii">
 1.1842289171040682e-36 7.73787058778087e-38 -1.274901097505681e-37 -2.314928379718312e-38 -2.127244013019518e-36 6.592292749658647e-37 -9.357988371049363e-37 1.4450012407334185e-37 -7.234311766437341e-38 2.284343009902365e-37 -1.2642802421308322e-37 1.929423132028811e-37 -1.3727009809362908e-38 1.4729291993821414e-37 -8.095215659150353e-37 7.746866481956007e-36 2.663305824897472e-20 1.4625815411709343e-19 1.2049027882853946e-19 -1.719527124843619e-20 -6.1711772351933485e-21 -7.368168318377456e-21 -1.9947266837942857e-20 -2.1986899810545294e-19 1.0322519647086913e-20
</DataArray>
        <DataArray type="Float64" Name="w58" NumberOfComponents="1" format="ascii">
 -4.55780356154791e-36 5.138844530150166e-37 2.9934412929996893e-37 4.26361355305584e-37 7.480703876774859e-36 -1.5264091158148785e-36 1.1331527733181537e-36 -8.759734296563748e-38 1.9885414755825204e-37 -1.1477559648682164e-36 8.321543133845195e-37 -3.1667641376034625e-37 -2.842274987073604e-37 -6.213718613430119e-37 1.767962296564081e-36 -9.641593816007868e-36 -2.7987119951201534e-20 -5.179201840612101e-19 -3.068926683770992e-19 1.924805166179458e-20 2.3564596631212255e-19 9.003562056560496e-20 5.360029543182317e-20 6.682946434571623e-19 -5.144958880752958e-20
</DataArray>
        <DataArray type="Float64" Name="w59" NumberOfComponents="1" format="ascii">
 9.087212903921028e-36 7.196405155373875e-37 -9.084529181339058e-38 5.282957777767218e-37 1.4257309125280162e-36 2.5492348679102042e-36 -3.617333192209543e-36 1.670782874210369e-37 1.316326888768644e-37 2.143226265313126e-36 -2.3355537419750435e-36 3.3493541253118445e-37 -3.1704028016839665e-37 -9.799385469149304e-37 6.289243520893011e-37 -8.162476566563655e-36 -9.519686182818478e-21 -4.112423763036706e-19 1.3104997291372287e-19 3.431148974259041e-20 4.404650419635895e-19 6.917080680872794e-20 4.4009124551802064e-20 3.314029399960716e-19 -1.4094230655055834e-19
</DataArray>
        <DataArray type="Float64" Name="w60" NumberOfComponents="1" format="ascii">
 1.3508934177003684e-35 3.159674910382254e-36 1.4454284293047976e-36 -1.020031493301906e-36 -8.63098374319804e-36 -1.7113327431997495e-35 -6.995661300281248e-36 -1.4706500423337457e-36 -5.931496861850772e-37 -8.78510717230167e-37 4.1280284403810735e-37 -1.0699787789576061e-36 1.1055882281142745e-36 -4.944763840100516e-37 8.370256636245334e-36 -6.437018595428811e-35 -2.437393737339765e-19 -1.2671230173369574e-18 -4.776513738200132e-19 1.3770105237185794e-19 2.5484272032546354e-19 -4.2216792281209043e-19 2.7087098799313344e-19 8.56168946798208e-19 -2.7192829843784574e-19
</DataArray>
        <DataArray type="Float64" Name="w61" NumberOfComponents="1" format="ascii">
 1.3058784280955047e-35 2.6746816734582016e-36 1.1117268207362585e-36 1.5569877327876082e-36 -8.355531728613077e-36 -1.1693569586439661e-35 -5.0491214902390636e-36 -2.212217846863298e-37 1.3601952727299159e-37 -2.7016386237502757e-36 1.8456062627748593e-36 -3.627937741107937e-37 -7.777354114019759e-37 -2.089543869792872e-36 6.514301159424755e-36 -1.4843566843194306e-36 -6.846952742643372e-20 -1.9147700546042924e-18 -7.227191792542521e-19 4.728108734920999e-20 1.294074202665626e-18 1.094966105464423e-19 1.9597896275644447e-19 1.8667029750811685e-18 -3.9778305157851235e-19
</DataArray>
        <DataArray type="Float64" Name="w62" NumberOfComponents="1" format="ascii">
 1.0124675532891391e-35 -7.015640241858507e-36 -3.769798872381954e-36 -1.7050262676870532e-36 -6.651535635894723e-35 5.391366071443334e-35 -1.0887202334662797e-36 3.574069884719171e-36 -2.7404195700964938e-36 1.6613648417285324e-35 -9.827002678822304e-36 4.788419042213704e-36 1.848255378598358e-36 -6.373819516659706e-36 -1.01396414836067e-35 1.2475936538272993e-34 3.1282158204466834e-19 6.142966208181599e-18 3.73139429180524e-18 -2.409229381080125e-19 -2.7266671366070667e-18 -8.344713961168266e-19 -7.436807106294685e-20 -7.381464382667085e-18 4.1209481803321602e-19
</DataArray>
        <DataArray type="Float64" Name="w63" NumberOfComponents="1" format="ascii">
 2.837660668503147e-35 -9.767722105707045e-36 1.7429402419060872e-36 -2.8700704397197494e-35 -1.0221666831396788e-34 -3.334711215405315e-35 -7.196123698823478e-36 -2.645642283457556e-35 -5.2968338769069554e-36 4.693339645183586e-36 -3.694125368150326e-36 -1.0538149472401634e-35 2.0711550713830945e-35 1.0572077876333639e-35 2.915866110969941e-36 -2.9873416147449207e-34 -9.902515567792517e-19 1.1784353187425278e-17 4.9559575209058066e-18 2.3696229772380404e-19 -1.2628218119745128e-17 -6.293697954512547e-18 5.069653514701624e-19 -1.5174061085413895e-17 1.523856812633845e-18
</DataArray>
        <DataArray type="Float64" Name="w64" NumberOfComponents="1" format="ascii">
 5.453234531032119e-35 -4.4989507927120036e-36 -3.8938689499451255e-36 -5.7364186974066196e-36 -8.99974009353872e-35 3.921277904470644e-36 -1.700919612639219e-35 -1.1954004888109306e-35 2.620583469588688e-36 7.2267124900335e-36 -8.23478848896224e-36 -6.605370408887193e-36 5.8544805134034784e-36 4.911480443246609e-36 7.530362613573754e-37 -9.742471075780046e-35 -3.409862169571531e-19 5.8141408857122916e-18 3.0174396073104008e-18 1.8596104054045635e-19 -4.6233590784190336e-18 -2.5806651886878662e-18 2.0589078484102972e-19 -8.770426000380224e-18 5.585319872134231e-19
</DataArray>
        <DataArray type="Float64" Name="w65" NumberOfComponents="1" format="ascii">
 -5.471806608686309e-18 -1.8351165838561114e-18 -1.679560382136623e-19 -6.583075721827141e-19 3.8869015602408836e-18 -1.0918044310085388e-18 2.768036617133022e-18 9.13966867577189e-20 1.9585756063425907e-19 8.147225122924535e-20 1.3556081759793256e-19 -3.4228597291960705e-19 1.1855617145077986e-18 -3.9025188511733834e-20 -2.310523538563154e-18 4.851053653903158e-18 -0.023622697630146492 -0.006548043783642942 0.0011619097092072806 -0.020794055046271076 -0.011077242423376358 -0.00219453279435301 -0.011324936429608076 -0.007818168907309424 -0.0024768660276302474
</DataArray>
        <DataArray type="Float64" Name="w66" NumberOfComponents="1" format="ascii">
 -3.581967321297559e-16 5.4369146841123665e-17 2.518570772787346e-16 8.954918303243898e-17 4.477459151621949e-16 -2.046838469312891e-16 0.0 -4.605386555954005e-16 0.0 8.635099792413759e-17 -3.709894725629615e-16 3.709894725629615e-16 5.1170961732822275e-17 -3.0702577039693366e-16 -4.093676938625782e-16 4.477459151621949e-16 0.0404815587872668 -0.00517264211702362 -0.0066059288773954545 0.034909399061269254 0.03416768212778023 0.009497335448490027 0.018739059902965788 0.03351454803644806 0.0026241536720069468
</DataArray>
        <DataArray type="Float64" Name="w67" NumberOfComponents="1" format="ascii">
 -4.982546725941219e-16 1.370200349633835e-16 2.4912733629706093e-16 -1.2106031498185303e-16 4.982546725941219e-16 -4.639996638532759e-16 -4.982546725941218e-17 2.2421460266735483e-16 -1.681609520005161e-16 -4.982546725941218e-17 -3.7369100444559135e-16 1.8684550222279567e-16 -9.965093451882436e-17 9.965093451882436e-17 -1.2456366814853047e-16 4.624426180014193e-16 -0.0035182404637290835 -0.014398106712636373 -0.003250290124769895 -0.0064889608725191275 0.015008416213654653 0.006724302304478791 -0.0034653170589203533 0.01786996887332486 -0.0007965551216872281
</DataArray>
        <DataArray type="Float64" Name="w68" NumberOfComponents="1" format="ascii">
 4.655651603345488e-16 -2.90978225209093e-17 -2.327825801672744e-16 2.90978225209093e-17 1.5155115896306927e-16 1.0669201591000077e-16 -5.940805431352315e-17 -3.491738702509116e-16 1.8428620929909223e-16 -1.9398548347272868e-16 5.431593537236403e-16 -6.637940762582434e-17 0.0 -7.759419338909147e-17 -3.8797096694545734e-17 -6.886484663281868e-16 0.050449388281685166 0.03584313065986843 0.012608812923579894 0.05824554155803347 -0.0187896438842621 -0.008197503247389189 0.028603693710277437 -0.011616982418900934 -0.0007801782093257799
</DataArray>
        <DataArray type="Float64" Name="w69" NumberOfComponents="1" format="ascii">
 -9.272942565757014e-17 6.181961710504676e-17 -1.8545885131514028e-16 2.74324550903645e-16 4.0182751118280396e-16 -6.181961710504677e-16 -2.4727846842018704e-16 2.1636865986766365e-16 1.545490427626169e-17 -7.727452138130846e-17 2.3665322173025714e-17 6.181961710504677e-16 -6.49105979602991e-16 -1.2363923421009352e-16 6.181961710504676e-17 5.1466038654348014e-18 -0.020473743168434384 -2.7355838444152756e-6 -0.006316096285096965 -0.020760428195699922 -0.011117618325940524 0.011154098029428076 -0.01689377916641216 -0.008135256570318126 -0.001179690961600491
</DataArray>
        <DataArray type="Float64" Name="w70" NumberOfComponents="1" format="ascii">
 -6.145283989001662e-17 1.062622023098204e-16 1.6387423970671097e-16 2.048427996333887e-17 1.741163796883804e-16 1.433899597433721e-16 0.0 -4.506541591934552e-16 2.464514933089208e-16 -2.560534995417359e-17 0.0 2.048427996333887e-17 -2.867799194867442e-16 8.193711985335549e-17 4.096855992667774e-17 -1.689953096975457e-16 -0.14421235609642072 -0.11938780912626311 0.0616027341866595 -0.10702854023069218 -0.04408701144391818 -0.029914815279815078 -0.051680302926920225 0.03286666456483426 -0.06504651916314329
</DataArray>
        <DataArray type="Float64" Name="w71" NumberOfComponents="1" format="ascii">
 1.220863387145471e-16 5.0869307797727964e-18 -2.645204005481854e-16 -8.139089247636474e-17 2.441726774290942e-16 -8.139089247636474e-17 2.441726774290942e-16 -2.0347723119091186e-16 1.8821643885159346e-16 -4.069544623818237e-17 2.848681236672766e-16 -4.5782377017955166e-17 -2.0347723119091186e-16 1.424340618336383e-16 -3.052158467863678e-17 -3.6880248153352775e-16 -0.5074227952568624 -0.24330363877109276 0.01819498910559724 -0.45677579226574344 -0.18710136972824787 -0.03241288059374509 -0.21362897580463022 -0.03145835522605883 -0.15784244816119797
</DataArray>
        <DataArray type="Float64" Name="w72" NumberOfComponents="1" format="ascii">
 2.0115677246403543e-16 2.0115677246403543e-16 -1.6092541797122835e-16 1.4080974072482481e-16 -3.6208219043526378e-16 2.8161948144964962e-16 -8.046270898561418e-17 -2.740761024822483e-16 1.0057838623201771e-16 1.6092541797122835e-16 -6.034703173921064e-17 -7.54337896740133e-18 -1.6092541797122835e-16 -1.6092541797122835e-16 2.2630136902203986e-17 8.046270898561418e-17 0.7027376945049442 0.35937855343885095 0.12203585346292113 0.6436897112551078 0.20551180694753585 -0.023225721277181612 0.3008622079509656 0.05234681518097206 0.22650277213707903
</DataArray>
        <DataArray type="Float64" Name="w73" NumberOfComponents="1" format="ascii">
 2.51239549113885e-16 -1.256197745569425e-16 -8.374651637129501e-17 -2.617078636602969e-17 -2.0413213365503159e-16 -3.140494363923563e-17 -8.374651637129501e-17 2.0936629092823753e-16 1.6749303274259002e-16 -4.41632019926751e-18 -7.851235909808908e-17 -1.5702471819617814e-17 1.7796134728900189e-16 -6.280988727847125e-17 -2.303029200210613e-16 1.4132224637656032e-16 0.006549003995959003 0.5858425114009517 0.5492465744171983 -0.09012709499124778 -0.392908451578711 -0.2472787217491386 6.240750521448689e-5 -0.5046369901765175 0.008202847315895892
</DataArray>
        <DataArray type="Float64" Name="w74" NumberOfComponents="1" format="ascii">
 -7.326509749241395e-19 1.0550174038907609e-16 2.3444831197572465e-17 4.688966239514493e-17 -7.619570139211051e-17 1.8755864958057972e-16 1.406689871854348e-16 2.5789314317329713e-16 2.3444831197572465e-17 1.406689871854348e-16 -2.3444831197572467e-16 9.377932479028986e-17 -2.5789314317329713e-16 -1.3480777938604168e-16 -2.1100348077815218e-16 4.04423338158125e-16 -0.23952451599971983 0.7089729046055531 -0.567115258187803 -0.44564553574533583 -0.011463714377039361 1.0 -0.4967999461377996 -0.10353542626980144 0.9129990012195591
</DataArray>
        <DataArray type="Float64" Name="w75" NumberOfComponents="1" format="ascii">
 -1.1056204577817984e-16 -9.827737402504875e-17 1.3513138928444203e-16 -3.6854015259393275e-17 1.620041087444163e-16 -7.370803051878655e-17 4.9138687012524375e-17 -7.370803051878655e-17 4.422481831127194e-16 -2.211240915563597e-16 9.21350381484832e-17 -1.965547480500975e-16 1.7198540454383531e-16 1.3513138928444203e-16 -4.9138687012524375e-17 -1.8427007629696638e-17 -0.24375368669380296 0.8814867479558446 -0.6443021064154296 -0.25193509562430555 -0.32955811905292065 -0.6749228640882197 0.7331085344967638 1.0 -0.1405680051785358
</DataArray>
      </PointData>
    </Piece>
    <FieldData>
      <DataArray type="Float64" Name="lambda_real" NumberOfComponents="1" NumberOfTuples="75" format="ascii">
 -Inf -Inf -Inf -Inf -Inf -Inf -Inf -Inf -Inf -Inf -Inf -Inf -Inf -Inf -Inf -Inf -Inf -Inf -Inf -Inf -Inf -Inf -Inf -Inf -Inf -Inf -Inf -Inf -Inf -Inf -Inf -Inf -Inf -Inf -Inf -Inf -Inf -Inf -Inf 0.9999999999999992 0.9999999999999992 0.9999999999999993 1.00000000678904 1.0000000155086273 1.0000000244862743 1.000000024908274 1.0000000308128056 1.0000000509736946 1.0000000684856458 1.0000000685744486 1.000000089588816 1.0000001176049207 1.0000001382714565 1.0000001384984514 1.0000001513295156 1.995344417871018e11 Inf Inf Inf Inf Inf Inf Inf Inf Inf Inf Inf Inf Inf Inf Inf Inf Inf Inf Inf
</DataArray>
      <DataArray type="Float64" Name="lambda_imag" NumberOfComponents="1" NumberOfTuples="75" format="ascii">
 0.0 0.0 0.0 0.0 0.0 0.0 0.0 0.0 0.0 0.0 0.0 0.0 0.0 0.0 0.0 0.0 0.0 0.0 0.0 0.0 0.0 0.0 0.0 0.0 0.0 0.0 0.0 0.0 0.0 0.0 0.0 0.0 0.0 0.0 0.0 0.0 0.0 0.0 0.0 0.0 0.0 0.0 0.0 0.0 0.0 0.0 0.0 0.0 0.0 0.0 0.0 0.0 0.0 0.0 0.0 0.0 0.0 0.0 0.0 0.0 0.0 0.0 0.0 0.0 0.0 0.0 0.0 0.0 0.0 0.0 0.0 0.0 0.0 0.0 0.0
</DataArray>
      <DataArray type="Float64" Name="lambda_isfinite" NumberOfComponents="1" NumberOfTuples="75" format="ascii">
 0.0 0.0 0.0 0.0 0.0 0.0 0.0 0.0 0.0 0.0 0.0 0.0 0.0 0.0 0.0 0.0 0.0 0.0 0.0 0.0 0.0 0.0 0.0 0.0 0.0 0.0 0.0 0.0 0.0 0.0 0.0 0.0 0.0 0.0 0.0 0.0 0.0 0.0 0.0 1.0 1.0 1.0 1.0 1.0 1.0 1.0 1.0 1.0 1.0 1.0 1.0 1.0 1.0 1.0 1.0 1.0 0.0 0.0 0.0 0.0 0.0 0.0 0.0 0.0 0.0 0.0 0.0 0.0 0.0 0.0 0.0 0.0 0.0 0.0 0.0
</DataArray>
      <DataArray type="Float64" Name="lambda_isinf" NumberOfComponents="1" NumberOfTuples="75" format="ascii">
 1.0 1.0 1.0 1.0 1.0 1.0 1.0 1.0 1.0 1.0 1.0 1.0 1.0 1.0 1.0 1.0 1.0 1.0 1.0 1.0 1.0 1.0 1.0 1.0 1.0 1.0 1.0 1.0 1.0 1.0 1.0 1.0 1.0 1.0 1.0 1.0 1.0 1.0 1.0 0.0 0.0 0.0 0.0 0.0 0.0 0.0 0.0 0.0 0.0 0.0 0.0 0.0 0.0 0.0 0.0 0.0 1.0 1.0 1.0 1.0 1.0 1.0 1.0 1.0 1.0 1.0 1.0 1.0 1.0 1.0 1.0 1.0 1.0 1.0 1.0
</DataArray>
      <DataArray type="Float64" Name="lambda_isnan" NumberOfComponents="1" NumberOfTuples="75" format="ascii">
 0.0 0.0 0.0 0.0 0.0 0.0 0.0 0.0 0.0 0.0 0.0 0.0 0.0 0.0 0.0 0.0 0.0 0.0 0.0 0.0 0.0 0.0 0.0 0.0 0.0 0.0 0.0 0.0 0.0 0.0 0.0 0.0 0.0 0.0 0.0 0.0 0.0 0.0 0.0 0.0 0.0 0.0 0.0 0.0 0.0 0.0 0.0 0.0 0.0 0.0 0.0 0.0 0.0 0.0 0.0 0.0 0.0 0.0 0.0 0.0 0.0 0.0 0.0 0.0 0.0 0.0 0.0 0.0 0.0 0.0 0.0 0.0 0.0 0.0 0.0
</DataArray>
    </FieldData>
  </UnstructuredGrid>
</VTKFile>
