<?xml version="1.0" encoding="utf-8"?>
<VTKFile type="UnstructuredGrid" version="1.0" byte_order="LittleEndian" header_type="UInt64">
  <UnstructuredGrid>
    <Piece NumberOfPoints="25" NumberOfCells="16">
      <Points>
        <DataArray type="Float64" Name="Points" NumberOfComponents="3" format="ascii">
 0.0 0.0 0.0 1.0 0.0 0.0 1.0 1.0 0.0 0.0 1.0 0.0 0.24999999999941094 0.0 0.0 0.4999999999986921 0.0 0.0 0.7499999999993406 0.0 0.0 1.0 0.24999999999941094 0.0 1.0 0.4999999999986921 0.0 1.0 0.7499999999993406 0.0 0.7500000000003471 1.0 0.0 0.5000000000020595 1.0 0.0 0.2500000000010405 1.0 0.0 0.0 0.7500000000003471 0.0 0.0 0.5000000000020595 0.0 0.0 0.2500000000010405 0.0 0.24999999999981837 0.25000000000063316 0.0 0.2500000000002257 0.5000000000012177 0.0 0.25000000000063316 0.7500000000000954 0.0 0.49999999999953393 0.2500000000002257 0.0 0.5000000000003757 0.5000000000003757 0.0 0.5000000000012177 0.749999999999844 0.0 0.7499999999995922 0.24999999999981837 0.0 0.749999999999844 0.49999999999953393 0.0 0.7500000000000953 0.7499999999995921 0.0
</DataArray>
      </Points>
      <Cells>
        <DataArray type="Int64" Name="connectivity" NumberOfComponents="1" format="ascii">
 0 4 16 15 15 16 17 14 14 17 18 13 13 18 12 3 4 5 19 16 16 19 20 17 17 20 21 18 18 21 11 12 5 6 22 19 19 22 23 20 20 23 24 21 21 24 10 11 6 1 7 22 22 7 8 23 23 8 9 24 24 9 2 10
</DataArray>
        <DataArray type="Int64" Name="offsets" NumberOfComponents="1" format="ascii">
 4 8 12 16 20 24 28 32 36 40 44 48 52 56 60 64
</DataArray>
        <DataArray type="UInt8" Name="types" NumberOfComponents="1" format="ascii">
 9 9 9 9 9 9 9 9 9 9 9 9 9 9 9 9
</DataArray>
      </Cells>
      <PointData>
        <DataArray type="Float64" Name="w1" NumberOfComponents="1" format="ascii">
 -2.910739551173907e-11 -2.910807219793186e-11 -2.9106979575365345e-11 -2.9105919242790266e-11 3.09292191461514e-11 9.203075148800053e-11 3.092999368115049e-11 3.0929567675028984e-11 9.203156964523573e-11 3.092905428095553e-11 3.092936172795602e-11 9.203147525705928e-11 3.092814518397714e-11 3.092776501243038e-11 9.20317883781996e-11 3.09272885339421e-11 0.5111987926107037 0.7231668265731837 0.5111987770157154 0.7231682296028126 1.0 0.7231666047847937 0.5112003112111336 0.7231677283737143 0.5111983048562353
</DataArray>
        <DataArray type="Float64" Name="φx1" NumberOfComponents="1" format="ascii">
 0.6142890353281322 -0.6142918840651114 -0.6142895968017005 0.6142901648108727 0.5867751648840408 1.4547135367310917e-6 -0.5867747882580329 -1.8253781091679777 -3.657234396431643 -1.8253693985689166 -0.5867737544774267 -8.251952798783964e-7 0.5867739749367379 1.825371100725293 3.6572282382350605 1.825369834474289 1.191563169522732 2.5030813137361116 1.1915607256301117 3.937088053523619e-6 3.080816323827998e-6 -9.657541024339185e-7 -1.1915632772150309 -2.503081468050586 -1.1915602452927174
</DataArray>
        <DataArray type="Float64" Name="φy1" NumberOfComponents="1" format="ascii">
 0.6142897960529655 0.6142922970297896 -0.6142889683156578 -0.614290418889041 1.8253724832937899 3.6572380434578777 1.8253782576942303 0.586774535426369 -2.16844222171641e-6 -0.586774628024474 -1.8253679485229202 -3.6572266747285687 -1.8253716697032003 -0.5867730813713894 -1.7139701169636394e-8 0.5867733853352007 1.1915607591475113 -3.4820276728004337e-7 -1.1915606284155975 2.503080499431219 -5.655774279589382e-6 -2.5030809433102132 1.1915626051827626 -4.983358883075601e-6 -1.1915621655644293
</DataArray>
        <DataArray type="Float64" Name="w2" NumberOfComponents="1" format="ascii">
 3.3830195153350585e-11 -1.6369480097885059e-16 -3.382998672266502e-11 -2.28804087167045e-16 -2.2502171715826898e-10 -2.765302712775061e-10 -2.086960149921182e-11 2.087090939264304e-11 2.765324293245789e-10 2.2502115402126485e-10 2.2502084454309364e-10 2.7652960432700164e-10 2.0869639355905286e-11 -2.0870182813553277e-11 -2.7653229576661984e-10 -2.2502109724931802e-10 -1.0 -0.6639692205444986 -3.3512101495192584e-6 -0.66396416289194 1.2469172824313264e-7 0.6639642796426599 5.1640739625737314e-6 0.6639699376910255 0.9999981987428949
</DataArray>
        <DataArray type="Float64" Name="φx2" NumberOfComponents="1" format="ascii">
 -1.6229453980911572 -0.3443722963171002 -1.6229407205338313 -0.34436977138804964 -0.42985446865375265 1.0985778132509507 0.529720195260942 -0.8813966176086374 -4.864136747007057 -4.472120976061015 -0.42985486844593357 1.0985734797244644 0.5297199988987195 -0.8813867540084416 -4.864133246007566 -4.472128313005657 -1.067740986762426 0.008888133813775368 0.9603157679715344 2.6179413269729164 4.964067086670567 2.6179328127347983 0.960315277428208 0.00888857002146976 -1.0677407623905804
</DataArray>
        <DataArray type="Float64" Name="φy2" NumberOfComponents="1" format="ascii">
 -1.622942435157807 -0.34435529103858753 -1.6229380112080214 -0.34435765219685155 -4.472123247376466 -4.864095206671408 -0.8813499669555982 0.5297240772101219 1.098563831862868 -0.429859126674795 -4.472113429094062 -4.864094366665855 -0.8813572312480633 0.5297223411687463 1.098568143114547 -0.42985762085407614 -1.0677476073212875 2.6179195196838965 0.9603227459813429 0.00888942631577271 4.964026107565956 0.008887258557512238 0.9603249401351444 2.6179107551472227 -1.0677489401773634
</DataArray>
        <DataArray type="Float64" Name="w3" NumberOfComponents="1" format="ascii">
 5.169805449771569e-17 3.3829894333413503e-11 -1.2667383024464465e-15 -3.3830308483894336e-11 -2.0870628961411714e-11 -2.765324367565865e-10 -2.250204843490928e-10 -2.2502028045689406e-10 -2.76530187890456e-10 -2.086914656413587e-11 2.0871566972767335e-11 2.7653211368987075e-10 2.2502098734264338e-10 2.250206057639582e-10 2.765293835715873e-10 2.086979247355563e-11 -3.4535010365438837e-6 0.663965098810656 0.9999993313836173 -0.6639695759654924 5.082316590555765e-7 0.6639706645312105 -1.0 -0.6639639569904797 4.741612244053141e-6
</DataArray>
        <DataArray type="Float64" Name="φx3" NumberOfComponents="1" format="ascii">
 0.3443579710765911 1.6229432986400667 0.3443574530805281 1.6229392961899725 -0.5297228458930953 -1.0985684301361271 0.42985876839699505 4.472121206774294 4.864096350431682 0.881351205594482 -0.5297244142090234 -1.098565939514357 0.429860161195682 4.472118168453039 4.864100375723981 0.881357604479545 -0.9603239013897703 -0.008886989321732154 1.067750222145104 -2.617919032102664 -4.964028776676979 -2.6179142951892556 1.067748135323708 -0.008889722797549175 -0.9603263288810007
</DataArray>
        <DataArray type="Float64" Name="φy3" NumberOfComponents="1" format="ascii">
 -0.34437012692375646 -1.622945134100569 -0.34437099896356066 -1.6229414297404061 -0.8813884759073185 -4.864136138322434 -4.472129992682074 -0.42985356475874753 1.0985771333602394 0.5297192592757647 -0.8813940800510078 -4.864140136656413 -4.472126503939355 -0.4298554164162149 1.0985747880089116 0.5297209935764922 0.960316747514388 2.617935926823641 -1.0677422062983197 0.00889014810526928 4.964070481692435 0.008887049657296983 -1.0677401205708628 2.617940680708767 0.9603143861281389
</DataArray>
        <DataArray type="Float64" Name="w4" NumberOfComponents="1" format="ascii">
 -1.9367624301514382e-11 1.9367968339528874e-11 -1.9368295778864923e-11 1.9367341009685186e-11 3.8223487086682026e-10 -4.515998388172894e-16 -3.8223430086093316e-10 -3.822349716011248e-10 5.028496626918831e-16 3.822351969278397e-10 3.822354137413992e-10 3.602178310788358e-16 -3.82235376140982e-10 -3.82235602751941e-10 -6.853581940185656e-16 3.822345822676531e-10 0.9999986345723707 -8.792222841174701e-7 -0.9999994020005644 3.915714842583735e-7 2.192866266196916e-7 6.680276882777304e-7 -0.9999989111388049 8.447435404483552e-7 1.0
</DataArray>
        <DataArray type="Float64" Name="φx4" NumberOfComponents="1" format="ascii">
 2.1456869751155305 2.1456876944486245 -2.1456893492433706 -2.145687946457919 -0.031213051928888493 -2.5056477465979383 -0.03121591887085673 4.773721364419941 -4.761199803778389e-6 -4.77372538366268 0.031213342542885627 2.5056490293053977 0.031215501920864253 -4.773725360674442 -6.249175524334419e-6 4.773717112282406 0.19195872094332422 2.056426048626648e-6 -0.19195664639543406 -4.827662403703501 5.311626257740188e-6 4.827668699792976 0.19195673245236594 -2.1578427096657985e-6 -0.1919585429269094
</DataArray>
        <DataArray type="Float64" Name="φy4" NumberOfComponents="1" format="ascii">
 2.145687001987177 -2.145688199352512 -2.145688615239787 2.1456877942644677 4.773721589302002 1.6010461182023558e-6 -4.7737205718863995 0.03121504303739804 2.5056490130226625 0.031213349477051507 -4.773725793742986 -4.552702714368696e-6 4.773720968949976 -0.03121347564072686 -2.505647707258428 -0.031215375567637486 0.19195566512058682 -4.827664553162023 0.19195972930293595 -3.350993003547628e-7 1.1859324703504395e-6 4.733237996888916e-7 -0.19195655841499185 4.827666708190687 -0.19195884367712263
</DataArray>
        <DataArray type="Float64" Name="w5" NumberOfComponents="1" format="ascii">
 9.328903704562307e-10 9.328892170683337e-10 9.328875787643541e-10 9.328887771511865e-10 -5.657952616980682e-10 9.945982117859803e-10 -5.657983913587863e-10 -5.657935039649533e-10 9.945974810796306e-10 -5.657944697698088e-10 -5.657962534085194e-10 9.945967009823874e-10 -5.657936854516594e-10 -5.657958901435994e-10 9.945993141627021e-10 -5.657945498372278e-10 0.9639031365604865 -0.9999986912205797 0.9639013023069557 -1.0 0.9040699771644725 -0.9999970159468646 0.9638999603458042 -0.9999943374195911 0.963898353021029
</DataArray>
        <DataArray type="Float64" Name="φx5" NumberOfComponents="1" format="ascii">
 6.67885652222485 -6.6788425154907 -6.678832725417122 6.678847331729514 -5.076177620455774 -1.0224810122433256e-5 5.076177700219962 -3.423301959588757 2.009625608314379 -3.4232848586013196 5.076169201011605 -9.960408677660235e-6 -5.076169363804288 3.4232861278478937 -2.0096332122314133 3.4233041035093934 -1.3223688604349229 0.000825417438283529 -1.322356739572999 2.266071866893668e-7 2.957333078553166e-6 8.138292496325668e-7 1.322370795132853 -0.0008279618815804772 1.322358654800202
</DataArray>
        <DataArray type="Float64" Name="φy5" NumberOfComponents="1" format="ascii">
 6.6788580419400425 6.67884229168183 -6.678833767876063 -6.67884950631164 3.423299342327629 -2.0096468689706795 3.423269335304943 -5.076161521030833 -5.9097996343896765e-6 5.076161403106546 -3.423270452386913 2.0096404176771343 -3.4232988682453875 5.076174877272768 -6.205471724512819e-6 -5.076174828201055 -1.322367637598776 4.79282120068284e-7 1.3223687736898284 0.0008360482723497174 2.7253501831434387e-6 -0.000837606756165626 -1.3223488532190275 1.21608984436403e-6 1.322349732405012
</DataArray>
        <DataArray type="Float64" Name="w6" NumberOfComponents="1" format="ascii">
 7.836457959225831e-16 4.512936172991766e-10 3.023777812734334e-16 -4.5129280851594736e-10 -6.590653222037507e-10 1.9482939564357165e-10 2.344912011055063e-10 2.3449064831174503e-10 1.9482825914889644e-10 -6.590662426063324e-10 6.590656378511016e-10 -1.9482777615514522e-10 -2.3449134840354747e-10 -2.3449239939792e-10 -1.9482865627776103e-10 6.590648420417393e-10 8.294898991569738e-7 0.7294828211046657 -0.9999995532946684 -0.7294841901548325 8.016913946332404e-7 0.7294844201507907 1.0 -0.7294848950041005 -0.0
</DataArray>
        <DataArray type="Float64" Name="φx6" NumberOfComponents="1" format="ascii">
 0.08699574312730718 -4.9664022175305655 0.08698969418442103 -4.96639697610564 -2.268540008121607 3.327542914081291 2.1647899716678807 -4.990516481119845 1.2195845596878483 4.784916637860798 -2.268537858517752 3.3275434699514173 2.1647875151498277 -4.990521528699049 1.2195714728489846 4.784913614135434 -3.4323508802707887 0.3705105896093654 2.9058436412050432 -0.21582982366105316 -1.0543962153483 -0.21582887609335913 2.905840152141355 0.37050223869734067 -3.43235449222735
</DataArray>
        <DataArray type="Float64" Name="φy6" NumberOfComponents="1" format="ascii">
 -0.08698686878700043 4.966401078702859 -0.08699162444756656 4.966397005837647 -4.784906591247908 -1.2195768730823817 4.990518856056767 -2.16479121558373 -3.327545660709161 2.2685411234381765 -4.784915013991156 -1.219580091278015 4.9905127687194515 -2.1647834087887263 -3.3275461791473737 2.2685333579201603 3.43234962103715 0.21582901180161448 -2.9058378869909793 -0.37050848209810083 1.0543960940006791 -0.3705052701626788 -2.90584059363896 0.21582991836526041 3.4323520655845137
</DataArray>
        <DataArray type="Float64" Name="w7" NumberOfComponents="1" format="ascii">
 -4.512911978272997e-10 1.5823193378166051e-15 4.5129380897375585e-10 1.4112592854305545e-15 -2.344917511421114e-10 -1.9482663321144355e-10 6.590636299940046e-10 -6.590645812874206e-10 1.948304590383632e-10 2.3449021278334074e-10 2.34490322814065e-10 1.9482940343196438e-10 -6.590660104274497e-10 6.590642473961645e-10 -1.9482561123803479e-10 -2.3449038167850246e-10 -0.9999961111815122 0.7294823748871855 1.5717780706640192e-6 0.7294802467705742 4.910563593346921e-7 -0.7294848961645728 2.2294495690557084e-6 -0.7294838888671118 1.0
</DataArray>
        <DataArray type="Float64" Name="φx7" NumberOfComponents="1" format="ascii">
 -4.9663787688181875 0.08697798279753413 -4.966402339986798 0.08700078081962345 2.164774109935559 3.327540285066457 -2.268523788330461 4.784891638870106 1.2195703825184185 -4.990519291290108 2.1647930683820484 3.3275403510669133 -2.2685426553553807 4.784914408825671 1.2195834533281606 -4.9904956328437935 2.9058280038977244 0.3704993961711098 -3.432351268464839 -0.21582973101018119 -1.0543947214553835 -0.2158292864591792 -3.4323389491649707 0.37051356273611874 2.9058401165411807
</DataArray>
        <DataArray type="Float64" Name="φy7" NumberOfComponents="1" format="ascii">
 -4.9663788142081176 0.08700491261883188 -4.966402975950724 0.08698093625916309 -4.990506110693594 1.2195710150568997 4.78491096101904 -2.268541301967084 3.3275379229145905 2.164791632737248 -4.990514950886883 1.2195800693764358 4.784902182916167 -2.2685288358021367 3.3275378890124556 2.1647790756007916 2.9058350980836867 -0.21582916365292198 -3.432345400370769 0.3705063911914882 -1.0543936109647987 0.3705058030662336 -3.4323488300715352 -0.21582901008076036 2.9058386606663533
</DataArray>
        <DataArray type="Float64" Name="w8" NumberOfComponents="1" format="ascii">
 2.8009544036035096e-16 1.0712273427828214e-15 1.4651698487150625e-15 2.0972377893197528e-15 5.285271825617355e-10 6.258977108662707e-10 5.285285598449464e-10 -5.285336926802847e-10 -6.259007226924739e-10 -5.285329795629224e-10 5.285272402323785e-10 6.25898223628432e-10 5.285275386866321e-10 -5.285327346357566e-10 -6.259006929022961e-10 -5.28534291910125e-10 -2.291811893487297e-6 -0.9999997304021159 1.2085037183973022e-7 0.9999958593618397 9.169889701573068e-6 0.9999933764824919 -1.4328913242421063e-6 -1.0 0.0
</DataArray>
        <DataArray type="Float64" Name="φx8" NumberOfComponents="1" format="ascii">
 0.5899883420458112 -0.5899913089203181 -0.59000026409074 0.5899998508900348 2.5013775589808716 2.655375750205361e-6 -2.5013763344746396 4.927175306928749 7.03647285322067 4.927158772887994 -2.5013689217429427 -7.478258232361198e-8 2.5013682638421395 -4.927158610348727 -7.036472962189961 -4.927178162833243 2.583094271660132 5.035637486980275 2.5830825324655415 1.2317354337655152e-6 1.831856358654093e-7 -1.353976651481822e-6 -2.583093625980393 -5.035636705838565 -2.5830833646302986
</DataArray>
        <DataArray type="Float64" Name="φy8" NumberOfComponents="1" format="ascii">
 -0.5899933341230729 -0.589989870493327 0.5899816732705359 0.58998268440464 4.927142245465014 7.036398295343395 4.92714700299824 -2.501401816895491 4.807253510712404e-6 2.5014010036799106 -4.9271466314905625 -7.0363950657278025 -4.927145354764266 2.501400848927361 7.677812575707087e-6 -2.5013995207788176 -2.5830636994073854 1.0336076910113e-6 2.583063510442937 -5.035586096737154 -1.403764438557074e-6 5.0355879281241 -2.5830659709379047 -1.4132884489095557e-6 2.583064133740927
</DataArray>
        <DataArray type="Float64" Name="w9" NumberOfComponents="1" format="ascii">
 7.196970937107915e-11 7.196997119454836e-11 7.197005139241509e-11 7.196981936217407e-11 -2.9749937239114536e-10 -2.8432237602071993e-10 -2.9749920332332835e-10 -2.974970019315372e-10 -2.8431909443483914e-10 -2.974969997178051e-10 -2.9749924923542034e-10 -2.8432195800040373e-10 -2.9749996081246707e-10 -2.9749662637351616e-10 -2.8431954848798784e-10 -2.97496717125882e-10 -0.21558506315808756 -0.1975718460450954 -0.21558449635786447 -0.19757647593639183 1.0 -0.197577344140726 -0.2155847918894093 -0.19757222695586393 -0.2155842266510441
</DataArray>
        <DataArray type="Float64" Name="φx9" NumberOfComponents="1" format="ascii">
 -0.2159405874223625 0.21593974137392893 0.2159363773581028 -0.2159376351763701 -1.0783151348411808 7.998134117812931e-7 1.078315233960413 1.7286097432918142 4.312612280795788 1.7286041642635153 1.0783175528387248 7.98602653499078e-7 -1.0783176130299967 -1.7286047002351155 -4.312611346368268 -1.7286100626359036 1.5671769654952652 3.0214280507880393 1.5671732735292057 -5.1071954039907277e-8 -3.408192197710629e-7 9.630975014607286e-8 -1.5671771846365867 -3.021427863377863 -1.5671735605819923
</DataArray>
        <DataArray type="Float64" Name="φy9" NumberOfComponents="1" format="ascii">
 -0.2159386227845526 -0.21593684816907702 0.21593460763530556 0.21593614200940048 -1.7286317892319756 -4.312645617367414 -1.7286291976162718 -1.0783056127524853 1.811665899622692e-6 1.0783056568609728 1.728629244434597 4.3126475590173525 1.728631442340242 1.078304341153958 1.862213814000428e-6 -1.0783042825839968 1.5671890157756305 3.236308056303882e-8 -1.5671893390494733 3.021452209869418 -7.325787793431138e-7 -3.0214516854955638 1.5671872882720062 -8.46397693278895e-8 -1.5671875546020047
</DataArray>
        <DataArray type="Float64" Name="w10" NumberOfComponents="1" format="ascii">
 -3.834665815079538e-16 -4.616565218624845e-16 5.589690152156526e-16 -1.417793506712571e-15 -9.096620545906833e-9 1.8179471151183617e-8 -9.096623253911716e-9 9.096619647980229e-9 -1.817947112705425e-8 9.096622062788892e-9 -9.096619408797236e-9 1.8179469755315903e-8 -9.096622842323613e-9 9.096620394480136e-9 -1.817947207141892e-8 9.096622511337287e-9 -7.217873122559322e-7 -0.9999996490821024 -3.3647552514974926e-7 0.9999996169500786 1.21329002670748e-6 0.9999991587997452 -2.1574636500447062e-7 -1.0 0.0
</DataArray>
        <DataArray type="Float64" Name="φx10" NumberOfComponents="1" format="ascii">
 -559.3871489116312 559.3871001585752 559.3870558567315 -559.3871129057906 -201.71491467188505 -2.594141650556922e-5 201.7148603478125 -462.95053780157076 399.5466005253482 -462.9505131070453 201.71487513266334 -1.1732183533467098e-5 -201.7149160783667 462.9505822592302 -399.5466556464058 462.95058400586714 242.7736158089784 -258.3836592690515 242.77362205536159 1.9651613539054796e-5 -1.5661481001852638e-5 2.057499061249232e-5 -242.77357993519703 258.38360975934154 -242.77356855141886
</DataArray>
        <DataArray type="Float64" Name="φy10" NumberOfComponents="1" format="ascii">
 559.3871904593708 559.3871505318173 -559.3870380515483 -559.3870641776027 -462.95062511781634 399.5466677847331 -462.9505979680948 201.71494537428146 5.6125281453556264e-5 -201.7148414252686 462.9505038107237 -399.5465613239845 462.95051040783386 -201.71484449316907 4.188220456305906e-5 201.71492959024835 -242.7736502889921 -4.5071096959950264e-5 242.77353725452917 258.3836913638376 4.785949890324666e-5 -258.38359201604965 -242.77364653388474 -4.497343859769226e-5 242.77355008160507
</DataArray>
        <DataArray type="Float64" Name="w11" NumberOfComponents="1" format="ascii">
 2.4111933536595726e-8 -7.457617311978285e-15 -2.41119319518644e-8 9.929249399313323e-15 -1.7102070497089572e-8 1.5686712564849494e-8 -1.8026024337550772e-8 1.802601731163787e-8 -1.5686715688032745e-8 1.7102088084545755e-8 1.71020709989502e-8 -1.568670848419892e-8 1.8026030745225836e-8 -1.802602669776089e-8 1.5686719896256493e-8 -1.7102089939433295e-8 1.0 -0.6504448202648991 -4.4038290151532306e-7 -0.6504458784720847 5.427473454423197e-9 0.6504443302752889 1.1463622306130716e-6 0.6504453119397331 -0.9999987029036922
</DataArray>
        <DataArray type="Float64" Name="φx11" NumberOfComponents="1" format="ascii">
 411.1335428047629 1039.9365871781122 411.1334226096946 1039.9367201987457 645.422727977477 553.8830070722487 534.4134748520765 -811.8667181218724 667.131635722327 -540.8745848634464 645.4226927103025 553.8830132574334 534.4135057049391 -811.8668159177846 667.1317371397773 -540.8746778986964 -630.9534332338121 617.8912991403613 -612.5173923691647 -531.4386799079052 540.3917707060644 -531.4386746595227 -612.517331982785 617.891254392827 -630.9533775772671
</DataArray>
        <DataArray type="Float64" Name="φy11" NumberOfComponents="1" format="ascii">
 411.1332462993901 1039.936522355478 411.13336418728096 1039.9366607175346 -540.8744499256574 667.131534749665 -811.8666182921891 534.4133607677891 553.8829062736834 645.4226465445329 -540.8745575282821 667.1316269220578 -811.8667173978163 534.4134039985557 553.8829023038364 645.4225978069499 -630.9532700955991 -531.43858593301 -612.5172828211263 617.891140500047 540.3916719440981 617.891197042915 -612.5172337757651 -531.4385853860715 -630.9533226639845
</DataArray>
        <DataArray type="Float64" Name="w12" NumberOfComponents="1" format="ascii">
 -1.0993109619305784e-15 -2.4111959665562274e-8 -7.665095885051712e-17 2.4111963900064945e-8 1.8026040456068626e-8 -1.5686740113963413e-8 1.7102102396862113e-8 1.7102106314640232e-8 -1.5686736552724734e-8 1.8026049128187896e-8 -1.8026053235202166e-8 1.568673859667718e-8 -1.710210598826781e-8 -1.710209772664694e-8 1.5686728104091485e-8 -1.8026044175797204e-8 3.8224026671742116e-7 -0.6504461890340304 1.0 0.6504452144880143 1.728917637051912e-8 -0.6504451415169284 -0.9999996129952181 0.6504453672369018 0.0
</DataArray>
        <DataArray type="Float64" Name="φx12" NumberOfComponents="1" format="ascii">
 1039.937792906336 411.13402020829864 1039.9381341547507 411.13367213423413 534.41401780744 553.8836582206397 645.4235454000236 -540.8753612193957 667.1325816605049 -811.8678854899441 534.4141335457482 553.8836312800814 645.4233995359069 -540.8750770470353 667.1323429865805 -811.867601356029 -612.5179875703124 617.8919091715746 -630.9540584010379 -531.4392851927956 540.3923798869524 -531.4392779959438 -630.9542026080487 617.8920704884054 -612.518144758817
</DataArray>
        <DataArray type="Float64" Name="φy12" NumberOfComponents="1" format="ascii">
 -1039.9378666624325 -411.1338609230412 -1039.938218788773 -411.1341827776609 811.8676947675116 -667.1324548597559 540.8752115218205 -645.4235137703644 -553.8837408083219 -534.4142639294334 811.8679809149539 -667.1327001050366 540.8754960798077 -645.4236184438829 -553.8837258885047 -534.4141292438752 612.5181036663154 531.4393737910526 630.9543101816707 -617.8920092072287 -540.3924764425418 -617.8921684404494 630.9541585546509 531.4393700384945 612.5182491427637
</DataArray>
        <DataArray type="Float64" Name="w13" NumberOfComponents="1" format="ascii">
 4.5762565635342454e-9 4.576256794523246e-9 4.576256436874164e-9 4.576256018127311e-9 -2.6659665788726456e-9 -2.2994133056836157e-9 -2.6659623908297753e-9 -2.6659649408091794e-9 -2.29941481226688e-9 -2.665964053440722e-9 -2.665963026056484e-9 -2.2994155305596403e-9 -2.6659621744603602e-9 -2.6659644728063145e-9 -2.2994159753315967e-9 -2.665961980375055e-9 0.1811235729464112 -0.5643597947988053 0.18112381429562585 -0.5643597631745209 1.0 -0.5643596880063332 0.18112377795809578 -0.5643600211499085 0.1811237862090522
</DataArray>
        <DataArray type="Float64" Name="φx13" NumberOfComponents="1" format="ascii">
 116.53675048632881 -116.53675147211709 -116.53675435572383 116.53675169211677 147.77143528012323 1.8920604642026651e-6 -147.77143608405257 145.8077773888332 -177.77850231977615 145.80777872788732 -147.77143474635582 1.3934988966971878e-6 147.77143628699542 -145.80777740078466 177.77850303451487 -145.80777734626653 -142.59570796174106 133.85530854856083 -142.59570749997042 8.634705258351264e-8 -1.847817649894453e-7 -3.0908784216605454e-6 142.59570746990457 -133.85530815501056 142.59570918470376
</DataArray>
        <DataArray type="Float64" Name="φy13" NumberOfComponents="1" format="ascii">
 116.53675038699119 116.53675249176051 -116.53675066901228 -116.53675078983608 -145.8077771563371 177.77850359626734 -145.8077761348195 147.77143412997253 5.004189197828086e-7 -147.7714356850082 145.807775384098 -177.77850191936753 145.807775112174 -147.77143590998588 3.9550774850086404e-7 147.77143515667532 -142.5957074842213 1.1007421444768328e-6 142.59570746280602 133.85530624922018 -1.4916463875222893e-7 -133.8553073617446 -142.59570841161803 4.6556569238198544e-7 142.59570848595646
</DataArray>
        <DataArray type="Float64" Name="w14" NumberOfComponents="1" format="ascii">
 -1.2701868582419971e-8 -1.952433562505402e-15 1.2701869692994078e-8 2.5062332975135557e-15 1.7834425253674164e-8 -6.605309643286277e-9 -2.3543128729285536e-9 2.354312996309921e-9 6.605304619928442e-9 -1.783442296929451e-8 -1.783442531362208e-8 6.605298825949603e-9 2.3543132928769063e-9 -2.35431733616305e-9 -6.605301542904116e-9 1.7834419432656453e-8 0.999999921972485 -0.49636762439547333 -1.8846601347577384e-7 -0.496367725797318 2.802951638182426e-7 0.49636779335095726 -2.5080206820962756e-7 0.4963677250568396 -1.0
</DataArray>
        <DataArray type="Float64" Name="φx14" NumberOfComponents="1" format="ascii">
 -158.11298151994987 -618.3126889091712 -158.11297872393158 -618.3126877241658 30.0328866739274 386.6334790414195 61.84418396984404 520.4179397420789 -344.8650777141498 183.1202864587996 30.032882011440897 386.6334845576994 61.844181149602825 520.4179374298913 -344.86507346701853 183.1202795258124 -5.466668366231341 23.25352780463265 -25.24434824105756 -420.9611678959674 407.8664545431389 -420.9611645503488 -25.2443461793628 23.25352147331677 -5.466669097546241
</DataArray>
        <DataArray type="Float64" Name="φy14" NumberOfComponents="1" format="ascii">
 -158.11298601918958 -618.3126983882855 -158.1129747148634 -618.3126860750385 183.12028271915418 -344.86507562316405 520.4179378456798 61.84418687770265 386.63347373489387 30.03288980090422 183.12027544608395 -344.865072403123 520.4179378303573 61.84418354289281 386.6334799321964 30.03288366243393 -5.466665074229299 -420.96116679192966 -25.24434850808825 23.253525071586388 407.8664545848753 23.253523156230386 -25.244348141243584 -420.96116108604406 -5.466669804816007
</DataArray>
        <DataArray type="Float64" Name="w15" NumberOfComponents="1" format="ascii">
 -2.8091574142452844e-17 -1.2701869048406025e-8 3.490468011678482e-16 1.2701868908115161e-8 -2.3543100064433564e-9 -6.605306714400122e-9 1.7834423893844744e-8 1.7834422035188887e-8 -6.6053025180203405e-9 -2.3543118507415096e-9 2.3543120788375607e-9 6.6053040939609136e-9 -1.7834424258190742e-8 -1.783442434248126e-8 6.605304868682174e-9 2.3543119410958434e-9 1.198533834583165e-7 0.4963675416674575 -0.9999998962622969 -0.49636760766868354 6.882565403005519e-8 0.4963675716679144 1.0 -0.4963675680960471 0.0
</DataArray>
        <DataArray type="Float64" Name="φx15" NumberOfComponents="1" format="ascii">
 618.3126801172591 158.11297667513546 618.3126714721365 158.11297749150248 -61.8441811343443 -386.6334724530649 -30.03288699843551 -183.1202766684687 344.8650613973106 -520.4179205645768 -61.84418250585292 -386.63347182817193 -30.03288497316526 -183.12027675324623 344.8650623258108 -520.417922911134 25.244343474836423 -23.2535208367465 5.466667982201705 420.9611578617073 -407.8664442133564 420.9611549500399 5.466666389784852 -23.253524727426434 25.244349386509402
</DataArray>
        <DataArray type="Float64" Name="φy15" NumberOfComponents="1" format="ascii">
 -618.3126694225873 -158.11297758637278 -618.312672585445 -158.1129833793853 520.417920171399 -344.8650617698278 183.12027920502507 30.032883633921344 386.63347343498225 61.84418115158271 520.4179217820579 -344.8650652076643 183.12027867426133 30.032885932315445 386.63347787403853 61.84418374713946 -25.24435054550647 -420.96116006506793 -5.466668792969306 23.253527067260684 407.86644320698434 23.25352593743133 -5.46666688230211 -420.96115627846336 -25.244346464428734
</DataArray>
        <DataArray type="Float64" Name="w16" NumberOfComponents="1" format="ascii">
 2.594474601967319e-10 2.5835693160850095e-9 -7.798441459037697e-10 2.718192281230216e-9 0.02499376289794264 8.609693709945739e-9 -0.024993754742723178 0.024993739255716782 1.5799449061784392e-8 -0.02499375952799086 0.024993758920841637 -8.134119270324745e-9 -0.024993751362555355 0.024993747460594795 -2.3576279844926524e-8 -0.024993750768730703 1.0 0.04635886754214583 -0.01647304035679561 -0.6322645202022533 0.1909435183675765 0.3917128136474866 0.8410129632153062 0.35857501875758 -0.19645220803619573
</DataArray>
        <DataArray type="Float64" Name="φx16" NumberOfComponents="1" format="ascii">
 -9.18348679796564e9 -9.183486829845661e9 9.183486807087797e9 9.18348684968401e9 -1.3468382782194326e9 2.1310168516576996e9 -1.346838247436521e9 4.774884477174432e9 -46.938269999634194 -4.774884394880134e9 1.3468382143955867e9 -2.131016846387737e9 1.346838207436614e9 -4.774884422552339e9 -10.738985469982474 4.77488444533016e9 2.484914271044409e9 -18.127598032337566 -2.4849142632227087e9 -2.9662430372016745e9 2.068490650836073 2.9662430497411575e9 2.4849142501532054e9 2.3229294804955614 -2.484914261011632e9
</DataArray>
        <DataArray type="Float64" Name="φy16" NumberOfComponents="1" format="ascii">
 9.183486802098433e9 -9.18348686747639e9 -9.183486831213894e9 9.183486880838928e9 -4.774884394774283e9 -41.571479736122185 4.7748845040813465e9 -1.3468381985816228e9 2.1310168275664182e9 -1.3468383015625362e9 4.774884443313541e9 -23.7467785825367 -4.774884427933403e9 1.3468382525160048e9 -2.1310168215963383e9 1.3468382363545728e9 -2.4849142782348313e9 2.966242999396766e9 -2.4849142805910907e9 36.96070148213916 30.251675849859268 -10.070212075686667 2.4849141979245424e9 -2.966243032850711e9 2.48491431667636e9
</DataArray>
        <DataArray type="Float64" Name="w17" NumberOfComponents="1" format="ascii">
 8.137875395951723e-7 -8.137879405186129e-7 8.137869204814718e-7 -8.137865231658761e-7 -5.69754920679148e-7 -1.36300640443162e-12 5.69756691311329e-7 5.697573077766526e-7 3.3117255787938223e-13 -5.697578710856595e-7 -5.69754460316334e-7 -7.407014257194046e-13 5.697560040592572e-7 5.697562142792652e-7 1.6879282653153069e-12 -5.697584669134913e-7 -1.0 1.1068216938965455e-5 0.9999887942376098 -6.5009532550463205e-6 3.1589699705672087e-6 7.931540454648489e-7 0.9999940702666957 -3.82984201446235e-6 -0.9999861538180682
</DataArray>
        <DataArray type="Float64" Name="φx17" NumberOfComponents="1" format="ascii">
 -11042.201834595491 -11042.174430412244 11042.216255622963 11042.16280919848 -24553.864609901753 -52378.97896859296 -24553.912333243345 5349.205422100782 0.02436179013907734 -5349.246714351255 24553.877835883213 52378.97945985847 24553.89935845151 -5349.185439372718 -0.036470067836559567 5349.252680391996 25822.655478521963 0.017229574382026457 -25822.701662209525 25908.688869223904 0.012713077320192352 -25908.69203639587 25822.70861989685 -0.029963750081393993 -25822.667171003555
</DataArray>
        <DataArray type="Float64" Name="φy17" NumberOfComponents="1" format="ascii">
 -11042.240133088464 11042.28152666179 11042.207768659415 -11042.24836392016 5349.190878767666 0.03362484392353645 -5349.251713262552 24553.720415865944 52378.81932293564 24553.72000315236 -5349.177923210666 -0.02708502989418973 5349.226714225602 -24553.686255058543 -52378.81802962594 -24553.756878692908 25822.67526327665 25908.49433502513 25822.60472326002 -0.022346858481456896 -0.004087635841979159 0.024942504134509037 -25822.628321784086 -25908.495210910263 -25822.64600477677
</DataArray>
        <DataArray type="Float64" Name="w18" NumberOfComponents="1" format="ascii">
 -7.117498426533456e-8 1.3876633529637134e-14 7.117499308977082e-8 -2.5884888803784437e-14 7.64822361135044e-8 -4.082649536687356e-8 1.677805950835922e-8 -1.677805789207727e-8 4.082651455605165e-8 -7.648226788104419e-8 -7.648225233904664e-8 4.082651698173e-8 -1.6778046302681947e-8 1.677807162692393e-8 -4.082651995545055e-8 7.648225510197195e-8 0.9999999792452102 -0.24575954991288804 2.9654113705038594e-7 -0.24575987831311782 2.9135459372820593e-7 0.2457596512533798 2.214814487625043e-8 0.2457600744748367 -1.0
</DataArray>
        <DataArray type="Float64" Name="φx18" NumberOfComponents="1" format="ascii">
 1105.250043996112 -1077.0057798812234 1105.2501550345253 -1077.005553565335 1202.1025994385013 6.289833981080309 -1296.770431309966 168.8559745444835 422.88543981319515 -1154.7514014471633 1202.1027736504946 6.290193629945914 -1296.7703232337026 168.85579815051418 422.8855085775108 -1154.7514160551443 -854.9255539201155 427.1391524463926 1046.3203914750593 113.14247359291319 -826.0872434503764 113.14239857231748 1046.3205462313447 427.1392116168379 -854.9258695692466
</DataArray>
        <DataArray type="Float64" Name="φy18" NumberOfComponents="1" format="ascii">
 1105.2501045134134 -1077.0056601757894 1105.2502681998567 -1077.0057049728407 -1154.7513454840685 422.8853837127369 168.8559310675805 -1296.7701951132883 6.290390170559744 1202.1028105909256 -1154.7514825045546 422.8855143720375 168.85589393179177 -1296.770641069879 6.289671728746076 1202.102509732899 -854.9256069136783 113.14267223969823 1046.3206736288466 427.13923902403343 -826.0872332152323 427.1391288538271 1046.3202944077148 113.14221846023588 -854.9258461532411
</DataArray>
        <DataArray type="Float64" Name="w19" NumberOfComponents="1" format="ascii">
 -1.0674803394895253e-14 -7.11749860602816e-8 -7.19213878059217e-15 7.117500630991718e-8 1.6778077463627065e-8 -4.08265189123681e-8 7.64822470687041e-8 7.648225910439764e-8 -4.082651220290312e-8 1.677806327858642e-8 -1.6778054295263956e-8 4.08265139425381e-8 -7.648227779537672e-8 -7.648225900989435e-8 4.082651257738722e-8 -1.677806660793406e-8 -1.5128112233098708e-7 0.24575978170935633 -1.0 -0.245759722868299 6.016525987103585e-8 0.24575966830176493 0.9999999363093044 -0.24575964165186154 0.0
</DataArray>
        <DataArray type="Float64" Name="φx19" NumberOfComponents="1" format="ascii">
 1077.0061068762961 -1105.2499804614934 1077.0055383926779 -1105.250502677388 1296.7702903731074 -6.289885778739496 -1202.1029423129728 1154.7514785781934 -422.8855135934723 -168.85587524886014 1296.7706427777714 -6.290129703605936 -1202.102626428459 1154.7515423412883 -422.8855030046872 -168.85597015719145 -1046.3207366477875 -427.1391974797764 854.9259604098829 -113.14218659007564 826.0872849307815 -113.14268786698749 854.9256253689687 -427.139189762372 -1046.3204127168922
</DataArray>
        <DataArray type="Float64" Name="φy19" NumberOfComponents="1" format="ascii">
 -1077.0058285087 1105.2501801578546 -1077.005756215644 1105.2501702246873 168.85578617440945 422.88552080507617 -1154.7514172627216 1202.1020874748308 6.288904532569166 -1296.7711688996253 168.8559501985879 422.8855198379056 -1154.751599646524 1202.1035246676174 6.291036589046661 -1296.7697000751805 1046.3201583889202 113.14159092417741 -854.9261815671111 427.1391994451676 -826.0872964755815 427.1391932576356 -854.9253591224156 113.14327879403109 1046.3209986109175
</DataArray>
        <DataArray type="Float64" Name="w20" NumberOfComponents="1" format="ascii">
 -2.044767951193238e-7 2.6063485478583657e-7 -1.79025350594958e-7 1.293923526991617e-7 0.056429753023679204 3.787282220179135e-8 -0.056429821339777655 0.056429395665191506 6.68922378410867e-8 -0.0564295015794176 0.05642974285038726 -5.679973973007694e-8 -0.05642966416647707 0.05642955649893255 -4.5505707234755486e-8 -0.05642946362830538 -0.34624018714393984 -0.4005499465501683 1.0 -0.4596606675636584 0.4097017171423344 -0.24008699257571006 -0.9948458055133517 0.39420483087983116 0.0
</DataArray>
        <DataArray type="Float64" Name="φx20" NumberOfComponents="1" format="ascii">
 1.3971220910948489e9 1.3971241453056471e9 -1.397124042511575e9 -1.3971220399529757e9 -4.104434404079388e9 -4.017271716379546e9 -4.1044320122541213e9 2.702439214278978e8 561.2313476601897 -2.702451974605139e8 4.104431866873049e9 4.017271829205613e9 4.1044341783347635e9 -2.7024639402108055e8 509.47201021463746 2.702451758276325e8 1.1177040787640939e9 573.7114029258969 -1.1177038578196123e9 4.814248930646173e9 -1032.58936766641 -4.81424865151915e9 1.117702276607001e9 553.6672376192229 -1.1177020587900827e9
</DataArray>
        <DataArray type="Float64" Name="φy20" NumberOfComponents="1" format="ascii">
 -1.397116489968553e9 1.3971165232689729e9 1.3971193662302558e9 -1.3971192497715087e9 -2.7024822003071e8 -421.6326289598233 2.7024908985318875e8 -4.104446237666885e9 -4.01729615898395e9 -4.104442994108844e9 2.702473568700676e8 -371.1453225758022 -2.7024645067571527e8 4.104442995681382e9 4.0172961644028425e9 4.1044462763936224e9 -1.1177163330677125e9 -4.814261051066071e9 -1.1177139029710474e9 -396.5696262110088 772.2441217933749 -415.5531897742021 1.117716186280609e9 4.814260847659311e9 1.1177137275929585e9
</DataArray>
        <DataArray type="Float64" Name="w21" NumberOfComponents="1" format="ascii">
 2.313921113583754e-14 -5.914679079765495e-14 6.022595072513496e-14 -5.403875346665969e-14 -6.821131743697728e-8 1.1142136614408169e-7 -6.821128651656858e-8 6.8211351502873e-8 -1.1142137291770954e-7 6.821128693938849e-8 -6.821135581086322e-8 1.1142139800084369e-7 -6.82113038347693e-8 6.821134539165963e-8 -1.1142135804824368e-7 6.821130632379565e-8 -1.2906942513063765e-6 -0.9999983825428285 -1.3692191011949372e-7 1.0 4.702331928152647e-7 0.9999988708679217 -3.8049937672806496e-7 -0.9999992578348705 -0.0
</DataArray>
        <DataArray type="Float64" Name="φx21" NumberOfComponents="1" format="ascii">
 1846.7375719277343 -1846.7383290285225 -1846.737184001997 1846.737874949095 -1636.170048326668 -0.001357773003725051 1636.1685070811845 2495.4704311160904 -2876.417397504866 2495.4694195804595 1636.1699563347374 0.0011219209094242438 -1636.1680121964575 -2495.470093117769 2876.41788838135 -2495.469478025844 2010.451965512887 -2189.066802008545 2010.4508113738098 0.0009365449736348304 0.00023752649445639868 -0.0007276679500482936 -2010.4511303241673 2189.0662753347565 -2010.4520211785025
</DataArray>
        <DataArray type="Float64" Name="φy21" NumberOfComponents="1" format="ascii">
 -1846.737914823533 -1846.737539426419 1846.738136923048 1846.737096916554 2495.4702888089546 -2876.417454445947 2495.469561286073 1636.1703006846133 0.0010321964111639523 -1636.1681966656656 -2495.4703461693293 2876.4180270090787 -2495.4692986016416 -1636.1698091158971 -0.0013386627684652602 1636.1682905781502 -2010.4510356975006 0.0009147787530194651 2010.4518693296072 2189.066263860997 0.000266385074268691 -2189.0668492157374 -2010.452122228895 -0.0007286914490946837 2010.4509569408272
</DataArray>
        <DataArray type="Float64" Name="w22" NumberOfComponents="1" format="ascii">
 -5.00300335760569e-8 -1.9032930549673355e-14 5.0030027498622386e-8 3.0359403452122895e-14 4.726857497223923e-8 -5.893343946152121e-8 5.421911970081011e-8 -5.4219147130386536e-8 5.8933436063949924e-8 -4.726856216372998e-8 -4.7268558956631397e-8 5.893343133745423e-8 -5.42191267869735e-8 5.421913044105141e-8 -5.8933435426221293e-8 4.726857345406454e-8 -0.9999999584203811 0.7318099164192958 -5.182526101226268e-8 0.7318097036511308 7.872599533044387e-8 -0.7318102047271268 -1.7024421999907655e-7 -0.7318098630130859 1.0
</DataArray>
        <DataArray type="Float64" Name="φx22" NumberOfComponents="1" format="ascii">
 198.49062065209083 -1506.1576366884835 198.49066104205068 -1506.157732154377 268.52074311759895 -952.6597787030224 1493.333318444882 -223.40752880755562 211.51032446956137 -901.0415132592825 268.5206248667488 -952.6596589829805 1493.333293648776 -223.40738256103964 211.51030618270772 -901.0415910942062 628.1101076312791 -43.49557694411846 86.82497596419203 -275.2069310519886 -34.887312144705234 -275.2069008444126 86.82506017293144 -43.49558733966879 628.1100929795177
</DataArray>
        <DataArray type="Float64" Name="φy22" NumberOfComponents="1" format="ascii">
 198.49071450982217 -1506.157680514159 198.49059690796173 -1506.157694373141 -901.041626946137 211.51036779729472 -223.4074119766955 1493.3332073391846 -952.6596726770634 268.52070931747176 -901.0414716636781 211.51030397726677 -223.40746339157675 1493.3333443489103 -952.6597337901596 268.52068925035286 628.1101258729966 -275.20693939200487 86.82503291803242 -43.49562617725788 -34.88728548378695 -43.495583111437995 86.82502599024738 -275.20689669533164 628.1100648817717
</DataArray>
        <DataArray type="Float64" Name="w23" NumberOfComponents="1" format="ascii">
 4.185060649991297e-17 -5.0030030620658636e-8 -1.4731021603389118e-15 5.003003249178183e-8 5.421912948175186e-8 -5.893343726253004e-8 4.7268565604006597e-8 4.726856364429301e-8 -5.893343793316448e-8 5.421913235856321e-8 -5.421913210622507e-8 5.893343909815508e-8 -4.726856306056659e-8 -4.7268566158625725e-8 5.8933437604420985e-8 -5.4219128108716565e-8 1.1685710368615431e-7 -0.7318098611800358 0.9999999590435708 0.7318098788453157 3.348482112436269e-8 -0.7318098124599064 -1.0 0.7318097803665295 0.0
</DataArray>
        <DataArray type="Float64" Name="φx23" NumberOfComponents="1" format="ascii">
 1506.1577177763604 -198.49062854874407 1506.1577269862887 -198.49066096249905 -1493.3333391450194 952.6597600539138 -268.520697620819 901.0415519575547 -211.51030976413335 223.4074400243653 -1493.3333730374563 952.6597351349565 -268.5206906961428 901.0415686242463 -211.51032968615453 223.40745676205765 -86.8250203697634 43.495603759357 -628.1101228404059 275.20691704539684 34.887283468517374 275.2069280321024 -628.1101158473487 43.495587351093896 -86.82499009829378
</DataArray>
        <DataArray type="Float64" Name="φy23" NumberOfComponents="1" format="ascii">
 -1506.157723932632 198.49065761586192 -1506.157741568624 198.490644633173 -223.40747306033097 211.51032402311128 -901.0415897198072 268.5206567996309 -952.6597464960971 1493.3333660977398 -223.4074439315127 211.51028450168266 -901.0415717165272 268.52069378949096 -952.6597509857689 1493.3333709640585 86.8250125851584 -275.20693182697966 628.1101343241493 -43.49558495550074 -34.88731629162317 -43.49555991862064 628.110156846776 -275.2069303120265 86.82500087403905
</DataArray>
        <DataArray type="Float64" Name="w24" NumberOfComponents="1" format="ascii">
 1.8132647677620075e-8 -4.039028077306327e-8 4.429817869309482e-8 -3.8216626471381495e-8 -0.12095981987587419 -7.92552299367453e-9 0.12095986344710632 -0.1209598068711959 1.0087323508491244e-8 0.12095978713566426 -0.12095985171434416 3.189363103706705e-8 0.12095983837704694 -0.12095980460170049 1.522882135449563e-10 0.12095980223208601 -0.42784826249550606 0.42016037686188223 -0.24595127342852927 1.0 0.586298019797893 -0.4506831159981691 -0.6091371968103697 -0.16581174390787037 -0.0
</DataArray>
        <DataArray type="Float64" Name="φx24" NumberOfComponents="1" format="ascii">
 -4.542311952749719e9 -4.542312351789397e9 4.542312405691958e9 4.542311993587262e9 5.303746204293513e9 -7.7711310573680315e9 5.303746265871396e9 -2.6266443111987367e9 438.54942954526496 2.6266443077114973e9 -5.303746298567641e9 7.771130974271989e9 -5.303746109388173e9 2.6266445890799356e9 215.70416744913254 -2.6266443723920665e9 1.4047951923116615e9 -163.2215752748649 -1.404795528610858e9 9.326820769495896e8 143.54402561081602 -9.326817623489813e8 1.4047953174863265e9 -302.7167927632278 -1.4047954319640176e9
</DataArray>
        <DataArray type="Float64" Name="φy24" NumberOfComponents="1" format="ascii">
 4.54231221388481e9 -4.542312215722668e9 -4.542311837522057e9 4.542311789864178e9 2.6266453307197576e9 404.46017388533886 -2.626645255546397e9 5.303746989689665e9 -7.771131619571549e9 5.303747031666673e9 -2.6266454024818435e9 337.57479124688916 2.626645596244598e9 -5.30374697195681e9 7.771131451413634e9 -5.303746847325724e9 -1.4047960460726168e9 -9.326811797698264e8 -1.4047959533570564e9 -354.7230453046561 234.77114094422762 -245.2128087315729 1.404795851706709e9 9.32681476043503e8 1.4047956939401352e9
</DataArray>
        <DataArray type="Float64" Name="w25" NumberOfComponents="1" format="ascii">
 1.5124547330112159e-7 -1.5124548423844047e-7 1.512454819706464e-7 -1.5124547719119838e-7 -1.3542569894429065e-7 -6.996989929616829e-15 1.354257136757218e-7 1.3542569208209873e-7 1.3297162777729182e-14 -1.3542570232728497e-7 -1.3542570675068322e-7 -4.888919336919583e-15 1.3542570435369864e-7 1.354256949078523e-7 7.007747266435936e-15 -1.354256999285502e-7 -0.9999996022804345 4.1195569281688654e-8 1.0 -8.501323283584088e-8 1.270179998261614e-7 1.4937678721060397e-7 0.999999523512303 -1.4824949114530929e-8 -0.9999994939928056
</DataArray>
        <DataArray type="Float64" Name="φx25" NumberOfComponents="1" format="ascii">
 -665.0422444151883 -665.041897166219 665.0423318818307 665.0417089391099 -1249.6176675360705 1607.5202600911562 -1249.6179589278931 2111.239386498939 0.00025820954796416175 -2111.2401136543945 1249.6176611088897 -1607.5204042044293 1249.6181675822143 -2111.23953222317 -0.0003169482170788169 2111.2399173405965 -917.8992362679434 0.0002483335343272802 917.8989284458763 844.3361500796265 1.7319618493225285e-5 -844.3362691014268 -917.8988798048437 -0.0002203779054922058 917.8994428779748
</DataArray>
        <DataArray type="Float64" Name="φy25" NumberOfComponents="1" format="ascii">
 -665.0420348826675 665.0425408772452 665.042074817748 -665.0426034055847 2111.239158190344 0.0002442330938186596 -2111.2399274875193 1249.6173395368235 -1607.5198222211923 1249.617632852937 -2111.2394187850978 -0.000273571058827578 2111.2398048845293 -1249.6172120079793 1607.5197768035073 -1249.6176705321893 -917.8986578720139 844.3361165003001 -917.8991885658886 -0.00018931221251736543 -5.004821045183891e-5 0.00025958429714931377 917.8993222763017 -844.3363027302107 917.8989084881894
</DataArray>
      </PointData>
    </Piece>
    <FieldData>
      <DataArray type="Float64" Name="omega_sq" NumberOfComponents="1" NumberOfTuples="25" format="ascii">
 3.3625692206921995e7 2.853360443255813e8 2.8533605845472753e8 5.874425050992708e8 1.6762708238376565e9 1.8652309511093805e9 1.865231173469696e9 1.9230654782016153e9 1.979287060481754e9 7.084226876576565e9 7.147827337363513e9 7.147827355525568e9 9.171947443251352e9 1.1636734038432766e10 1.16367340718274e10 1.520745376076557e10 1.8024038159429276e10 1.8076107597903763e10 1.8076107663844444e10 1.8096085788655968e10 1.9226430910693398e10 2.02300774280935e10 2.0230077473903343e10 2.0592781306780212e10 2.1147457950721153e10
</DataArray>
      <DataArray type="Float64" Name="omega" NumberOfComponents="1" NumberOfTuples="25" format="ascii">
 5798.766438383425 16891.892857983126 16891.893276205825 24237.213228819663 40942.28649987268 43188.31961432837 43188.3221886391 43852.770473501616 44489.17913922164 84167.8494234976 84544.82442683002 84544.82453424082 95770.28476125229 107873.69483999687 107873.69499478268 123318.50534597624 134253.6336917153 134447.41573531178 134447.4159805403 134521.69263228873 138659.40613854292 142232.4766995692 142232.47686060783 143501.85123119567 145421.6557144126
</DataArray>
      <DataArray type="Float64" Name="Omega_dimensionless" NumberOfComponents="1" NumberOfTuples="25" format="ascii">
 19.16226914797901 55.819974955524195 55.819976337558806 80.09289703640415 135.2955187591489 142.71763025679215 142.7176387637109 144.91333624605306 147.0163756200674 278.1362211079601 279.38195096321016 279.3819513181537 316.4769597937657 356.4731907166173 356.4731912281136 407.5112207873055 443.646815271977 444.2871762375199 444.28717704788795 444.5326273876003 458.20587681169246 470.01323972286247 470.0132402550214 474.2079415931791 480.5520167701671
</DataArray>
      <DataArray type="Float64" Name="relative_residual" NumberOfComponents="1" NumberOfTuples="25" format="ascii">
 1.396442946672319e-5 1.5584655601986387e-6 1.8173797337694204e-6 1.1297794305711745e-6 4.722939214783743e-7 2.951590423272122e-7 2.9657541731472163e-7 4.2022523545473305e-7 3.1490676744102716e-7 4.6995181445072985e-7 1.312854801317795e-6 5.377806764407617e-7 4.461451969194382e-7 4.863973071229859e-7 2.0711589500678617e-7 2.593587629236888e-7 3.2688838968364216e-7 4.835418111189891e-7 1.5494648501726952e-7 2.316428505293156e-7 3.8884888548499145e-7 7.954773284880327e-7 1.4656446842511974e-7 2.2795359710975834e-7 2.542353341609354e-7
</DataArray>
      <DataArray type="Float64" Name="rho" NumberOfComponents="1" NumberOfTuples="1" format="ascii">
 1.0
</DataArray>
      <DataArray type="Float64" Name="alpha_boundary_penalty" NumberOfComponents="1" NumberOfTuples="1" format="ascii">
 1.0e16
</DataArray>
      <DataArray type="Float64" Name="color_range_min" NumberOfComponents="1" NumberOfTuples="1" format="ascii">
 -1.0
</DataArray>
      <DataArray type="Float64" Name="color_range_max" NumberOfComponents="1" NumberOfTuples="1" format="ascii">
 1.0
</DataArray>
    </FieldData>
  </UnstructuredGrid>
</VTKFile>
