<?xml version="1.0" encoding="utf-8"?>
<VTKFile type="UnstructuredGrid" version="1.0" byte_order="LittleEndian" header_type="UInt64">
  <UnstructuredGrid>
    <Piece NumberOfPoints="25" NumberOfCells="32">
      <Points>
        <DataArray type="Float64" Name="Points" NumberOfComponents="3" format="ascii">
 0.0 0.0 0.0 1.0 0.0 0.0 1.0 1.0 0.0 0.0 1.0 0.0 0.2499999999994109 0.0 0.0 0.4999999999986921 0.0 0.0 0.7499999999993406 0.0 0.0 1.0 0.2499999999994109 0.0 1.0 0.4999999999986921 0.0 1.0 0.7499999999993406 0.0 0.7500000000003471 1.0 0.0 0.5000000000020595 1.0 0.0 0.2500000000010405 1.0 0.0 0.0 0.7500000000003471 0.0 0.0 0.5000000000020595 0.0 0.0 0.2500000000010405 0.0 0.2499999999998184 0.2500000000006332 0.0 0.2500000000002257 0.5000000000012177 0.0 0.2500000000006332 0.7500000000000954 0.0 0.4999999999995339 0.2500000000002257 0.0 0.5000000000003757 0.5000000000003757 0.0 0.5000000000012177 0.749999999999844 0.0 0.7499999999995922 0.2499999999998184 0.0 0.749999999999844 0.4999999999995339 0.0 0.7500000000000953 0.7499999999995921 0.0
</DataArray>
      </Points>
      <Cells>
        <DataArray type="Int64" Name="connectivity" NumberOfComponents="1" format="ascii">
 0 4 15 15 4 16 15 16 14 14 16 17 14 17 13 13 17 18 13 18 3 3 18 12 4 5 16 16 5 19 16 19 17 17 19 20 17 20 18 18 20 21 18 21 12 12 21 11 5 6 19 19 6 22 19 22 20 20 22 23 20 23 21 21 23 24 21 24 11 11 24 10 6 1 22 22 1 7 22 7 23 23 7 8 23 8 24 24 8 9 24 9 10 10 9 2
</DataArray>
        <DataArray type="Int64" Name="offsets" NumberOfComponents="1" format="ascii">
 3 6 9 12 15 18 21 24 27 30 33 36 39 42 45 48 51 54 57 60 63 66 69 72 75 78 81 84 87 90 93 96
</DataArray>
        <DataArray type="UInt8" Name="types" NumberOfComponents="1" format="ascii">
 5 5 5 5 5 5 5 5 5 5 5 5 5 5 5 5 5 5 5 5 5 5 5 5 5 5 5 5 5 5 5 5
</DataArray>
      </Cells>
      <PointData>
        <DataArray type="Float64" Name="w1" NumberOfComponents="1" format="ascii">
 5.889553811261569e-22 5.889553811261547e-22 -8.507296681598717e-21 -8.507296681598718e-21 5.889553811261546e-22 5.889553811261546e-22 5.889553811261549e-22 -6.59277923143983e-23 -4.091239299982132e-21 -1.2578851353826555e-21 -8.507296681598711e-21 -8.507296681598715e-21 -8.507296681598715e-21 -1.2578851353915436e-21 -4.091239299990157e-21 -6.592779232965198e-23 -6.592779232583992e-23 -4.0912392999881494e-21 -1.2578851353893197e-21 -6.592779232202492e-23 -4.091239299986147e-21 -1.257885135387102e-21 -6.592779231821383e-23 -4.091239299984144e-21 -1.2578851353848763e-21
</DataArray>
        <DataArray type="Float64" Name="w2" NumberOfComponents="1" format="ascii">
 0.00022433296380119957 0.00022433296380119954 0.0021964371870420063 0.002196437187042007 0.00022433296380119897 0.00022433296380119908 0.00022433296380119935 0.0005755528435263897 0.004799886788016856 0.00022178073233899734 0.0021964371870420037 0.0021964371870420046 0.0021964371870420037 0.0002217807323337561 0.004799886788014469 0.0005755528435413027 0.0005755528435375747 0.00479988678801507 0.000221780732335068 0.000575552843533848 0.004799886788015669 0.00022178073233637745 0.0005755528435301171 0.004799886788016267 0.0002217807323376905
</DataArray>
        <DataArray type="Float64" Name="w3" NumberOfComponents="1" format="ascii">
 0.022727325316697747 0.022727325316697796 0.002224942595569682 0.002224942595569678 0.022727325316697765 0.022727325316697775 0.02272732531669779 0.015593484968013388 0.009797627412644274 -0.0007012334680493504 0.002224942595569673 0.00222494259556968 0.0022249425955696758 -0.0007012334680645972 0.009797627412534541 0.015593484967971246 0.015593484967981764 0.00979762741256197 -0.0007012334680607828 0.015593484967992333 0.009797627412589417 -0.0007012334680569736 0.015593484968002846 0.00979762741261686 -0.0007012334680531558
</DataArray>
        <DataArray type="Float64" Name="w4" NumberOfComponents="1" format="ascii">
 -0.010250569890774056 -0.010250569890774061 -0.012749269310682949 -0.012749269310682968 -0.010250569890774042 -0.010250569890774061 -0.010250569890774048 0.05479793349602098 0.024910845826332313 -0.01592549454189978 -0.012749269310682964 -0.012749269310682945 -0.012749269310682968 -0.015925494541975605 0.024910845825856016 0.054797933496135605 0.05479793349610695 0.024910845825975074 -0.01592549454195664 0.05479793349607834 0.02491084582609418 -0.0159254945419377 0.054797933496049694 0.024910845826213276 -0.015925494541918724
</DataArray>
        <DataArray type="Float64" Name="w5" NumberOfComponents="1" format="ascii">
 -0.08320637979232998 -0.0832063797923301 0.01807994718595322 0.018079947185953203 -0.08320637979233 -0.08320637979233003 -0.08320637979233009 -0.046288050432753296 0.008983353437866617 -0.009173791884355536 0.018079947185953214 0.01807994718595323 0.01807994718595322 -0.009173791884337243 0.00898335343811654 -0.04628805043245279 -0.04628805043252787 0.008983353438054061 -0.009173791884341828 -0.04628805043260309 0.008983353437991592 -0.00917379188434639 -0.046288050432678154 0.00898335343792911 -0.00917379188435098
</DataArray>
        <DataArray type="Float64" Name="w6" NumberOfComponents="1" format="ascii">
 -0.11246437626983376 -0.11246437626983384 0.03689975398648437 0.03689975398648424 -0.11246437626983374 -0.11246437626983377 -0.11246437626983379 0.07763224637104564 -0.0510952208408361 -0.04422431302752639 0.036899753986484346 0.03689975398648437 0.036899753986484304 -0.04422431302734924 -0.051095220841656644 0.0776322463712459 0.07763224637119587 -0.05109522084145155 -0.04422431302739357 0.07763224637114581 -0.051095220841246416 -0.04422431302743772 0.07763224637109584 -0.05109522084104118 -0.0442243130274822
</DataArray>
        <DataArray type="Float64" Name="w7" NumberOfComponents="1" format="ascii">
 -0.15920704212545017 -0.15920704212545048 -0.1693478422935153 -0.16934784229351516 -0.1592070421254503 -0.15920704212545037 -0.15920704212545037 0.10361094691606325 -0.08417507164604686 0.0015486728098079814 -0.16934784229351518 -0.1693478422935152 -0.1693478422935152 0.0015486728096364992 -0.08417507164673427 0.10361094691630776 0.10361094691624675 -0.08417507164656247 0.0015486728096794338 0.10361094691618546 -0.08417507164639064 0.0015486728097221416 0.10361094691612448 -0.08417507164621882 0.0015486728097651753
</DataArray>
        <DataArray type="Float64" Name="w8" NumberOfComponents="1" format="ascii">
 0.34556292214677364 0.345562922146773 -0.10952336514821474 -0.10952336514821538 0.3455629221467731 0.34556292214677325 0.3455629221467731 0.08468413129248827 -0.2170825532036869 0.004424649190753627 -0.10952336514821501 -0.10952336514821502 -0.10952336514821528 0.004424649190970246 -0.21708255320422748 0.08468413129065314 0.08468413129111232 -0.21708255320409245 0.004424649190915971 0.08468413129157147 -0.2170825532039574 0.004424649190861774 0.0846841312920299 -0.21708255320382228 0.004424649190807551
</DataArray>
        <DataArray type="Float64" Name="w9" NumberOfComponents="1" format="ascii">
 0.42101832958769253 0.4210183295876939 0.23586735926675184 0.23586735926675292 0.42101832958769325 0.4210183295876932 0.4210183295876932 -0.05463775005354661 0.34529696864314247 -0.03028528135839657 0.2358673592667522 0.23586735926675256 0.23586735926675242 -0.030285281358615655 0.345296968643305 -0.05463775005379482 -0.05463775005373301 0.34529696864326465 -0.03028528135856097 -0.054637750053671 0.3452969686432242 -0.03028528135850621 -0.054637750053609095 0.3452969686431833 -0.030285281358451672
</DataArray>
        <DataArray type="Float64" Name="w10" NumberOfComponents="1" format="ascii">
 -0.2881327992382831 -0.2881327992382814 0.21540223327576175 0.21540223327576302 -0.28813279923828256 -0.2881327992382818 -0.2881327992382818 0.33288349471504336 -0.31032033219556476 0.22559246559502097 0.215402233275762 0.21540223327576197 0.21540223327576263 0.22559246559607768 -0.3103203321962869 0.33288349471497314 0.3328834947149906 -0.3103203321961069 0.22559246559581347 0.33288349471500883 -0.31032033219592625 0.22559246559554985 0.33288349471502626 -0.31032033219574545 0.22559246559528515
</DataArray>
        <DataArray type="Float64" Name="w11" NumberOfComponents="1" format="ascii">
 -0.0294032616855265 -0.02940326168552672 0.04463006816430036 0.0446300681642994 -0.0294032616855267 -0.029403261685527007 -0.029403261685526687 -0.014769187930404637 0.31063073390636764 -0.03347743678158963 0.04463006816430014 0.04463006816430002 0.04463006816429955 -0.03347743678212463 0.31063073390624124 -0.014769187929296728 -0.01476918792957376 0.31063073390627327 -0.03347743678199069 -0.014769187929850883 0.31063073390630513 -0.0334774367818568 -0.014769187930127697 0.31063073390633666 -0.0334774367817227
</DataArray>
        <DataArray type="Float64" Name="w12" NumberOfComponents="1" format="ascii">
 -0.02372351870403175 -0.02372351870403256 -0.1739491611769836 -0.17394916117698248 -0.023723518704031176 -0.023723518704031818 -0.02372351870403203 0.36911143153825116 0.12241991093388131 -0.1006928802453035 -0.1739491611769829 -0.1739491611769837 -0.17394916117698278 -0.10069288024590047 0.1224199109307169 0.3691114315387272 0.36911143153860815 0.12241991093150782 -0.10069288024575122 0.3691114315384895 0.12241991093229926 -0.10069288024560194 0.36911143153837034 0.12241991093309042 -0.10069288024545232
</DataArray>
        <DataArray type="Float64" Name="w13" NumberOfComponents="1" format="ascii">
 -0.19285326456784233 -0.19285326456784163 -0.0002854704607610364 -0.0002854704607600683 -0.19285326456784213 -0.19285326456784171 -0.1928532645678416 -0.12683911219029984 -0.04076076499641435 -0.3858475163165904 -0.00028547046076054654 -0.000285470460760051 -0.0002854704607598954 -0.38584751631650877 -0.04076076499815874 -0.12683911218980404 -0.12683911218992752 -0.04076076499772275 -0.3858475163165294 -0.12683911219005187 -0.04076076499728685 -0.38584751631654995 -0.12683911219017557 -0.040760764996850864 -0.3858475163165705
</DataArray>
        <DataArray type="Float64" Name="w14" NumberOfComponents="1" format="ascii">
 0.39804494569959753 0.3980449456995998 -0.19176090020389974 -0.19176090020389974 0.39804494569959814 0.3980449456995986 0.39804494569959914 0.3911276221951821 -0.039045612000854435 0.1375107337324715 -0.19176090020389921 -0.19176090020389935 -0.19176090020389935 0.1375107337321635 -0.03904561200256316 0.39112762219375646 0.39112762219411246 -0.039045612002136174 0.13751073373224051 0.39112762219446967 -0.03904561200170911 0.13751073373231743 0.3911276221948255 -0.03904561200128196 0.13751073373239445
</DataArray>
        <DataArray type="Float64" Name="w15" NumberOfComponents="1" format="ascii">
 0.11675824075852541 0.11675824075852764 -0.12272195022251751 -0.12272195022251843 0.11675824075852613 0.11675824075852663 0.11675824075852725 0.4825702520964143 -0.2299519700360346 -0.14571594951931563 -0.12272195022251768 -0.12272195022251825 -0.12272195022251858 -0.14571594951909897 -0.22995197004026594 0.48257025209528515 0.48257025209556725 -0.2299519700392085 -0.14571594951915304 0.4825702520958499 -0.22995197003815074 -0.14571594951920736 0.48257025209613214 -0.2299519700370927 -0.14571594951926153
</DataArray>
        <DataArray type="Float64" Name="w16" NumberOfComponents="1" format="ascii">
 0.15478558331721892 0.15478558331721914 0.08280615857828624 0.08280615857828537 0.15478558331721862 0.1547855833172191 0.15478558331721953 0.281985979765081 -0.02885650389223291 0.12027044990164076 0.08280615857828597 0.0828061585782854 0.08280615857828492 0.12027044990186497 -0.02885650389332316 0.28198597976448253 0.281985979764632 -0.028856503893050518 0.12027044990180898 0.2819859797647819 -0.028856503892777836 0.12027044990175312 0.2819859797649313 -0.028856503892505356 0.12027044990169697
</DataArray>
        <DataArray type="Float64" Name="w17" NumberOfComponents="1" format="ascii">
 2.4572856720213083e-10 7.095154578636898e-12 6.189646019072254e-11 -3.2527216159457004e-10 -4.666026639985582e-10 3.166513057092207e-10 4.26005057119898e-11 8.022496023549942e-11 -2.7916678588841687e-11 -1.690958787823166e-10 -4.202064012651691e-12 6.2692935795854e-10 -1.319815595368939e-9 1.6001829627528276e-9 1.0657314085765536e-10 -7.749775031119283e-10 -0.0013840099859847104 -0.009543758283103339 -0.013938045410820353 0.003962343633277358 -0.0006746409514102352 -0.005173637539243788 0.0011436605757389568 -0.0006620744515822093 -0.002055989741662128
</DataArray>
        <DataArray type="Float64" Name="w18" NumberOfComponents="1" format="ascii">
 6.890420485847706e-11 -5.35369578056843e-10 1.8457708980320585e-9 1.4917000464928218e-10 -2.8451874640914535e-10 1.4161818373974574e-9 -2.3572570685406534e-9 2.2972438876657195e-9 3.2299317499028473e-10 -1.0466587670788457e-9 -3.34546912051663e-9 1.6767868215132941e-9 -1.47100014697242e-10 -1.4218486750303295e-11 -2.054147504716276e-11 -2.591664610243775e-11 -0.0002674543329572917 0.0010143203635569564 0.0023194847772622772 -0.0007907221851505595 0.007005670666302842 0.012388548083290391 -0.03767622248788713 -0.036878560471512736 -0.02184840731398833
</DataArray>
        <DataArray type="Float64" Name="w19" NumberOfComponents="1" format="ascii">
 1.593647903955182e-9 -6.254823431459781e-10 -1.7198461116890524e-9 8.169454300320011e-10 -1.556534433406189e-9 -3.0381590418863573e-9 4.692781618316781e-9 -1.2127948552973244e-9 -6.398762539806336e-10 7.180352481773455e-10 7.686767209967708e-10 5.160672091958163e-9 -5.945668993025566e-9 1.00499124064131e-9 7.058937630471678e-10 -7.232830502457742e-10 -0.03840374045010017 -0.05712123293203848 -0.04904954994289082 0.02136685930324009 0.012784082920731235 -0.0007013966491429604 0.041142661931487835 0.0496797911631681 0.03415431905720301
</DataArray>
        <DataArray type="Float64" Name="w20" NumberOfComponents="1" format="ascii">
 -3.519142079618556e-10 -2.269287740489896e-10 -7.69872657130125e-10 -2.7449685388484233e-10 1.6665630850456062e-10 -3.6009689268461047e-10 8.970060719779398e-10 -9.298136543677481e-11 -2.707534028860615e-10 1.7451539539512804e-10 1.0845689479811426e-10 1.0524703037934043e-9 1.1456045742807239e-10 1.0422958279502427e-10 -9.329542132571276e-10 6.621032405842309e-10 -0.021822601531548136 -0.029464115318654747 -0.026409494023595128 0.007948800026160061 0.014734966976586338 0.010813731744898133 0.004993315372593152 0.010258413090950973 0.009775191074460177
</DataArray>
        <DataArray type="Float64" Name="w21" NumberOfComponents="1" format="ascii">
 -3.971962136506709e-10 -4.599451512187157e-10 -2.3990726191166226e-9 -2.5566692654000553e-10 -6.855232057804616e-10 3.0818982737232237e-9 -2.2732380250148004e-9 1.672067025521648e-9 -5.125373777505963e-10 8.897851298435358e-10 1.7437772944695363e-9 -1.6642577284178376e-9 2.3097469645126676e-9 -7.057297580664065e-10 -9.275689581707656e-11 -2.513504483511256e-10 0.02687781662726744 0.0378222518296952 0.03143064980300082 0.026621037802335826 0.02658280429398082 0.009050462788787917 -0.05173240108160921 -0.04374039123413117 -0.017287707399847106
</DataArray>
        <DataArray type="Float64" Name="w22" NumberOfComponents="1" format="ascii">
 -3.019222104122886e-9 -3.256505555418364e-10 -3.4864318971176107e-9 -2.4301222427664137e-10 2.174409982132352e-9 9.627705356760073e-10 1.856386197599303e-9 -4.2474312271424286e-10 -1.034431969684886e-9 3.393149455152929e-10 1.1376596725233905e-9 2.218967851218891e-9 2.1161070131854644e-9 -9.675298727830294e-10 -1.354408704681937e-9 4.981474824776119e-11 0.07071431013472468 0.07526458554369889 0.03696074083957215 -0.012241722311751687 -0.009670974029783607 -0.0030074962706564752 0.043645566349248224 0.08071133406566465 0.073686175729829
</DataArray>
        <DataArray type="Float64" Name="w23" NumberOfComponents="1" format="ascii">
 1.60324947602083e-9 8.530991876338381e-10 1.9119480694161855e-9 7.209669191437049e-10 2.429013370456089e-9 -4.903963202372481e-9 -7.563535968971939e-9 4.1177179846991144e-9 2.2755077860515803e-9 1.2480484978929513e-9 1.754895627818704e-9 -4.8765083769008474e-9 -6.993967768477463e-9 4.124202208932885e-9 1.8752776950532852e-9 1.424049307764591e-9 -0.07203171694192265 -0.11781692930385486 -0.1025620856458585 -0.22127064088811563 -0.30273773894813544 -0.2214987094486081 -0.13197833671434855 -0.15853265446502518 -0.10110931583416816
</DataArray>
        <DataArray type="Float64" Name="w24" NumberOfComponents="1" format="ascii">
 3.78153605843957e-9 8.50526076812342e-9 5.98182906917285e-9 5.996070854566665e-9 -1.7703931718358417e-8 2.8323055245497113e-8 -2.8100269117882144e-8 -6.241014940643074e-10 5.28353037120461e-9 2.5068065798575984e-9 -2.5748331910334035e-8 3.005954048748107e-8 -2.3343842526607606e-8 1.4675543029291513e-9 2.6861220440087404e-9 9.291727811578254e-10 -0.39722797409584115 -0.579999174744882 -0.4194010420475442 0.4732652492511774 0.6846719219560893 0.4739898956117688 -0.6233596125343237 -0.9052229270963164 -0.6419413252717492
</DataArray>
        <DataArray type="Float64" Name="w25" NumberOfComponents="1" format="ascii">
 -4.99301163791569e-9 3.0222519294315637e-9 4.075425208562969e-9 -3.937627509605819e-9 1.232205076279524e-8 -4.968847917221166e-10 -6.085640126320141e-9 -2.682814311153364e-9 2.0148331767172256e-9 9.395091668532069e-10 -9.410727827667947e-9 -1.6671946569061625e-9 1.1689774027711399e-8 8.599485820310341e-10 -3.74250198564111e-9 -1.9073904647769283e-9 0.4204491136964613 0.5893631876959973 0.4096855219897224 0.040652196325154245 -0.0014311211602855572 -0.038994731073077556 -0.3002861408725831 -0.44528447958785566 -0.32515497338778077
</DataArray>
        <DataArray type="Float64" Name="w26" NumberOfComponents="1" format="ascii">
 2.3343139281299526e-9 4.835924464244206e-11 -4.570346384859191e-10 -3.535781393131432e-10 -1.0240659405708725e-8 1.18783601281377e-8 -5.4074062942129374e-9 2.38251122329031e-9 -7.545384603151626e-10 -3.4960200847590406e-9 8.452882633915621e-9 -9.555886325763278e-9 5.16793858206713e-9 -1.3965415540269606e-9 -1.1425504787340352e-9 2.539850417730435e-9 -0.20731020825840152 -0.046473059876816054 0.1334907903411897 0.24115888878492694 0.03177070406928896 -0.18535447637483143 -0.08900810441630654 0.08551661746665988 0.19720722584599001
</DataArray>
        <DataArray type="Float64" Name="w27" NumberOfComponents="1" format="ascii">
 6.305719595326662e-10 1.5315456690434993e-9 9.687671037688961e-10 1.0947263275070931e-9 -3.833644160693786e-9 7.284715856615055e-9 -1.1531039707874318e-8 5.9532895369021005e-9 1.8163387418817072e-9 -2.952785907759286e-9 -1.1458616021652926e-9 2.414475472112219e-9 -6.673485131180669e-9 2.938627110848986e-9 2.3018245759250737e-9 -7.980652411388797e-10 -0.03670134812283714 -0.13860846142168423 -0.2107348086857191 6.155324251728076e-5 -0.1133093889208216 -0.087002690898184 -0.28086391654369197 -0.1491674869460513 0.014954264030040222
</DataArray>
        <DataArray type="Float64" Name="w28" NumberOfComponents="1" format="ascii">
 4.7309135882203244e-9 2.4701881679130246e-9 -5.572759138756811e-9 -2.264602996946792e-9 -1.2643851158427217e-8 1.2947722916206591e-8 -1.0723595189188917e-8 2.452425240728579e-9 2.2266733040605808e-9 -1.6862399237726362e-9 1.2316761008452077e-8 -1.5525036414540694e-8 1.2529685222355076e-8 -4.098240616542297e-9 -8.34888849836054e-10 3.6748442622325663e-9 -0.2493811617113726 0.011032159650545235 0.22316968915254679 0.2994146453814894 -0.02514012226117915 -0.34796355975503673 -0.22060704269516138 -0.03777109359307627 0.23067868024798593
</DataArray>
        <DataArray type="Float64" Name="w29" NumberOfComponents="1" format="ascii">
 -1.599029224226453e-9 -1.0496713924625584e-9 1.5560322351844114e-9 -1.6121958227812253e-9 3.3746016637649757e-9 9.350167388383669e-9 -3.9589112436589845e-10 -1.6540741805406596e-9 -5.651788629602747e-9 -4.733554496860772e-9 6.530161736100055e-9 2.5364082132876976e-9 1.2012543176462094e-9 -7.572234733050808e-10 -3.889372512503926e-9 -3.205825463576072e-9 0.15355670776110486 0.25072864460348 0.21006837917037247 0.34668547740245914 0.3987344813209498 0.2228594546829407 0.1546948960099167 0.2949455307470335 0.2315571064615978
</DataArray>
        <DataArray type="Float64" Name="w30" NumberOfComponents="1" format="ascii">
 2.1245973604543663e-9 -1.684825753441722e-9 -2.4731085511564336e-9 -4.975098697649443e-10 5.264800445901361e-9 -1.0577708383233981e-10 1.6420556068417248e-9 -4.99537172293082e-10 -2.1280120563917216e-9 -1.3023230566503028e-9 1.6439013353619003e-9 8.938332309717086e-9 -1.4007268873940975e-9 -1.2183648801560273e-9 -4.790828324324476e-9 -3.5126743809078242e-9 0.20198928690462484 0.22891012501882466 0.08117674551425604 0.13905386765685862 0.30387700403955964 0.29453372366203434 0.18372619892613354 0.1882169720669081 0.10562891325674169
</DataArray>
        <DataArray type="Float64" Name="w31" NumberOfComponents="1" format="ascii">
 -1.867575467224716e-9 -7.853575091366169e-10 -5.909423848919241e-10 -4.6005670335742575e-10 -3.82817176040492e-9 -1.6045892779511324e-8 2.5340529707182117e-8 -2.3347462590378985e-8 1.350230350959426e-8 6.2573784388321205e-9 -3.9890364663579965e-9 -1.6501179336282712e-8 2.4882716504134615e-8 -2.301951209675348e-8 1.3077980787160178e-8 7.374278699633512e-9 -0.3382606140021942 -0.3497048174318865 0.6880851363355427 -0.33932487930567445 0.3959228521352843 -0.34913501373157946 0.7116177870958887 -0.3414551972921031 -0.33873198187553627
</DataArray>
        <DataArray type="Float64" Name="w32" NumberOfComponents="1" format="ascii">
 -2.6179353290669372e-9 9.70923701133425e-10 -2.376554801037489e-9 6.264973988975099e-10 2.42152363266708e-8 -9.990321698233804e-9 -8.379858651914051e-9 7.386198096911165e-9 9.269208966222706e-9 -2.0959533204411163e-8 2.3627156669371612e-8 -9.502665912267463e-9 -8.034493685961362e-9 7.40236282216439e-9 9.006183853965972e-9 -2.06424042936177e-8 0.6867129007378049 -0.16573587751386834 -0.40411263682428394 -0.16368901701259786 0.23271471941296598 -0.1538234038545941 -0.4284275551247417 -0.16765338029596935 0.6873892762991379
</DataArray>
        <DataArray type="Float64" Name="w33" NumberOfComponents="1" format="ascii">
 1.3744088011593927e-9 -5.900858802258741e-10 6.413414863999564e-10 -3.0769607964390913e-10 6.266256872078178e-9 -7.466821006809769e-9 5.517828217912443e-9 -5.566029753630142e-9 8.166690890023486e-9 -7.27057444321633e-9 6.495299782544508e-9 -7.026472499378528e-9 4.986329997141003e-9 -5.623088344497681e-9 8.28069912128023e-9 -7.878088830999366e-9 0.173615063139653 -0.18228806835385378 0.19164674531416842 -0.1903454098293616 0.3945057049429897 -0.1816563834850007 0.2062593023197948 -0.19522280716262524 0.17694603070684994
</DataArray>
        <DataArray type="Float64" Name="w34" NumberOfComponents="1" format="ascii">
 -3.277529721130543e-9 4.597306262086683e-11 3.276036359789429e-9 1.931297870815244e-10 -3.1310577126149165e-9 6.873678200639916e-9 1.6145119335584803e-9 -2.2539220710970023e-9 -5.399696055559162e-9 2.5998928082485502e-9 2.499515002200449e-9 -6.619614271487651e-9 -1.7245543017652112e-9 2.8693255399559527e-9 4.830085498862849e-9 -2.3957739822066414e-9 -0.011707819778356545 -0.11838870967947518 -0.05114569904330062 0.06834434183101704 -0.016664616602031352 -0.1258517087014415 0.02332677833610085 0.0632028248581094 0.00716903124930744
</DataArray>
        <DataArray type="Float64" Name="w35" NumberOfComponents="1" format="ascii">
 7.705925908630404e-10 -2.3020977294310821e-10 -6.94952091342394e-10 3.464104144388949e-10 -4.884150889271735e-9 2.3014148628902596e-9 9.1013461618194e-9 -1.013289302432789e-8 8.510463868137558e-10 3.107351178624905e-9 5.421639249668909e-9 -3.417605885506436e-9 -8.394160248476995e-9 1.0140319334287734e-8 -2.1954227212475995e-10 -4.0666068564350265e-9 -0.007406070088645791 -0.020867486966495683 -0.20203956016439722 0.027574281772210718 -0.020265746424782943 -0.07110105455055511 0.15114917922043558 -0.01620942920319229 0.018911889816117723
</DataArray>
        <DataArray type="Float64" Name="w36" NumberOfComponents="1" format="ascii">
 2.263704692505252e-9 1.5052196537367235e-11 -2.1297446207866054e-9 -2.0198813167875117e-10 1.334878275099894e-9 2.083128457573416e-10 -8.613403016644482e-9 9.789746508480964e-9 -2.942883927115181e-9 1.1370153945340292e-11 -1.4089355471798755e-9 7.231791916787179e-11 8.50064776967875e-9 -1.0108082308326388e-8 3.0795445955894896e-9 1.294624967285922e-10 0.011840714324189738 0.007061736024896125 0.15778537224354783 -0.032163480959986765 0.02513976122927947 0.052845017881133036 -0.11161438863051072 0.011042029343729385 -0.00970823805207051
</DataArray>
        <DataArray type="Float64" Name="w37" NumberOfComponents="1" format="ascii">
 -1.472073499823017e-9 1.1626110126240047e-10 -2.736117731999236e-9 4.931739828878174e-10 -3.786625357649885e-9 6.06125959435015e-9 -4.038347698440025e-9 4.002604014264117e-9 -7.3184344077819184e-9 7.4301102577171515e-9 -2.7089837954479385e-9 4.513024034956134e-9 -3.3711333080744623e-9 2.2605066429140858e-9 -3.900070899048074e-9 4.4548466320582175e-9 -0.05971462440851259 0.02485488862797077 -0.011498451578246995 0.06696439118826596 -0.09086877687262825 0.0580838755500928 -0.030336418184380452 0.07753284001245905 -0.09549813320546709
</DataArray>
        <DataArray type="Float64" Name="w38" NumberOfComponents="1" format="ascii">
 -3.286296351862336e-9 4.817495925367075e-9 3.8818910759276475e-9 -5.2335896095568955e-9 -9.033819720587538e-9 -6.137199421287772e-10 5.3452606359008425e-9 -2.3560724191575503e-8 3.7542987612804945e-8 -2.7739540082184954e-8 5.879509614130212e-9 1.78483835966767e-9 -3.881288523585456e-9 2.1958528850178024e-8 -3.652661066292245e-8 2.866507700371264e-8 -0.3661078736430867 0.4891978689215772 -0.25750871491093225 -0.028566984017096505 -0.00012532213290632034 0.01941965177206618 0.3118593776885782 -0.5078522405423262 0.31818573931532124
</DataArray>
        <DataArray type="Float64" Name="w39" NumberOfComponents="1" format="ascii">
 -3.913981482676194e-9 1.3913259521057582e-9 -1.278385834218684e-9 -5.097102002942655e-10 4.031050154817504e-9 9.767792049555034e-10 -4.205758807212812e-9 6.207061159942683e-10 1.5005385666907437e-9 -3.926929305881938e-9 6.054595299817024e-9 2.910748595365201e-10 -4.586186700700577e-9 7.56805931673106e-9 -1.0295119901991241e-8 6.281942459225147e-9 -0.013225353863535275 0.1511264341154302 -0.1018231135865 0.03953793856410497 0.02215897553898596 0.059187290980155974 -0.010962242513797094 -0.025491663350931035 0.13004980867003654
</DataArray>
        <DataArray type="Float64" Name="w40" NumberOfComponents="1" format="ascii">
 -1.3630901340008078e-9 1.913177036723247e-9 3.830899009076504e-9 -1.8999760810890865e-9 -7.78346110095819e-9 2.7403416717208395e-9 7.352673516393769e-9 -1.8613295501208328e-8 2.188590485469029e-8 -1.505066525602118e-8 6.0068153167188566e-9 -3.3909125297615417e-9 -5.3567565525758054e-9 1.5748679032304567e-8 -1.776235992117557e-8 1.1742027104269126e-8 -0.14068772136058014 0.1990159096013077 -0.18049923908843044 0.03593443265859313 -0.010288210642979832 -0.0359821733684409 0.19890887210161695 -0.2286206053925297 0.1480380553126931
</DataArray>
        <DataArray type="Float64" Name="w41" NumberOfComponents="1" format="ascii">
 -2.144607159472195e-9 9.587836577290057e-10 -4.439171840360267e-9 -5.943083135687771e-10 1.505628298732827e-9 4.430707041891488e-9 4.410316779851488e-9 -1.3937313798308973e-8 4.86825192664399e-9 5.764750539973806e-9 -1.0107468249358196e-10 7.865710043832123e-10 2.1473077274895177e-9 -4.511572659425928e-9 7.746972576329907e-9 -6.891241025393797e-9 0.06279081993765649 -0.0027613821041578748 0.02981098562836282 0.12915415768158642 0.011252502490416741 -0.010226294817046287 0.12089390613803336 0.013967635548521602 -0.04385602630672674
</DataArray>
        <DataArray type="Float64" Name="w42" NumberOfComponents="1" format="ascii">
 1.3152175829770944e-8 9.625849819773569e-9 -1.0581708390213848e-8 -1.0055349223907269e-8 8.350169226602524e-9 1.4607559256677742e-8 2.8753484188968794e-9 -4.16036819375912e-8 -4.588795035192804e-9 5.165700757906154e-8 -8.279621224139258e-9 -1.686440207476843e-8 -6.333796468160757e-9 5.003213971197183e-8 -1.069610898317962e-9 -5.092328315577634e-8 0.496487282593288 0.001187177995481225 -0.5004938881030334 0.6724121053669815 0.00167206944734423 -0.7123509072949423 0.44706459188844627 0.003214946428586288 -0.500976778003321
</DataArray>
        <DataArray type="Float64" Name="w43" NumberOfComponents="1" format="ascii">
 -8.861054060298378e-10 1.4389288554626412e-9 7.098116418038492e-10 -2.7842325855961587e-10 2.059268506069912e-9 2.8785221449542698e-9 1.729315259197334e-9 -1.100650154725095e-8 6.7316307460492755e-9 1.6815258572454967e-9 -2.2787450183640443e-9 -1.7331616953731863e-9 -3.710735597765226e-10 3.933333152275282e-9 1.093118256257086e-9 -5.701444879570376e-9 0.0538089961661237 -0.0045331763148721725 -0.0469958730994217 0.08898610037773762 -0.018892385718846882 -0.061818067303101965 0.07147804347664415 -0.0224025669836283 -0.039675517128654504
</DataArray>
        <DataArray type="Float64" Name="w44" NumberOfComponents="1" format="ascii">
 -6.558713252547862e-9 -4.426397998794948e-9 -3.819113262678508e-9 -4.664528040014163e-9 1.4857494135108447e-9 -1.1968782526126187e-9 1.1583046575750174e-9 1.2936853284120685e-8 -1.935900707657576e-8 1.5132624680085152e-8 5.432421593137618e-10 -2.485813307181977e-9 -5.885591609420671e-10 1.8404474735707056e-8 -2.379190017567037e-8 1.7229661210717082e-8 -0.05376743324024122 0.09354796250516871 -0.06803594961190183 -0.0668515277233181 0.12549832278901193 -0.09247200522119364 -0.040766439021228514 0.08339624342021423 -0.06248874283892194
</DataArray>
        <DataArray type="Float64" Name="w45" NumberOfComponents="1" format="ascii">
 3.4256933850032895e-8 3.546115044025158e-8 3.6712686887848916e-8 3.5498749377387134e-8 2.8897042370807013e-9 2.0999484578336964e-8 3.81007507816416e-10 -1.4523825830905188e-7 1.9728188951681027e-7 -1.476750777161688e-7 2.411176972755656e-9 2.0745509404506214e-8 -5.227841317123203e-10 -1.429014409964531e-7 1.9373896906804626e-7 -1.44039702100951e-7 0.49705635491498323 -0.703812394457839 0.4914607454099041 0.7035810382866872 -1.0 0.7023981565641837 0.4968765351404225 -0.7086570751662428 0.5009129864996749
</DataArray>
        <DataArray type="Float64" Name="w46" NumberOfComponents="1" format="ascii">
 -0.44572643816651353 -0.4457264382653154 -0.44572635399070554 -0.44572635370729397 0.850213638340622 -1.0 0.850213636030453 0.1273503860630031 -0.06367516480013395 0.12735036319779336 0.8502134761002538 -0.999999808551917 0.8502134734915576 0.1273503646264293 -0.0636751648140697 0.12735038444557042 0.1273503936511264 -0.06367522092182112 0.1273503741348912 0.1273504585899715 -0.06367523944350742 0.12735043780052885 0.12735039488559746 -0.06367522073926904 0.12735037325687906
</DataArray>
        <DataArray type="Float64" Name="w47" NumberOfComponents="1" format="ascii">
 0.4403918315923088 0.4403918320098945 -0.44039191660614146 -0.44039191661323945 -0.8486434439331009 0.9999998095556828 -0.8486434419667463 -0.11009794847015479 -5.5936923183686405e-9 0.11009797062985227 0.848643606164979 -1.0 0.8486436038941348 0.11009797238207068 -6.496098948589743e-9 -0.11009794655023492 -0.11009794095543765 -6.465406131964406e-9 0.11009796676396955 -0.11009800064982392 -5.8366601024211134e-9 0.1100980253079636 -0.11009794204050864 -5.301320345455783e-9 0.11009796593916188
</DataArray>
        <DataArray type="Float64" Name="w48" NumberOfComponents="1" format="ascii">
 -0.857664608407433 0.8576646098977135 0.857664585179014 -0.8576645863840534 0.9999999991404742 -1.5443115163064966e-10 -1.0 -0.38793964133013253 0.26750917254547707 -0.3879396319659594 -0.9999999713932063 -4.0927567044655087e-10 0.9999999722279506 0.3879396331180306 -0.2675091725072465 0.3879396404410478 0.19396980396555144 -0.13375460489693136 0.1939698039209702 -3.268542252985587e-9 -1.0195453304393286e-10 2.518160453656576e-9 -0.19396980817886453 0.13375460466797767 -0.19396980038427952
</DataArray>
        <DataArray type="Float64" Name="w49" NumberOfComponents="1" format="ascii">
 -0.83453951681264 0.8345395181560062 -0.834539539837145 0.8345395407672002 0.9999999721906552 3.34059105205773e-10 -0.9999999731211482 -0.2894436119807373 -3.816716476436485e-9 0.28944362161700465 0.9999999990092024 8.787959615015947e-10 -1.0 -0.28944362220598646 3.2320595478699106e-9 0.28944361159896065 0.14472178291210844 -1.9483933907952603e-10 -0.14472179333585197 -4.1023728480163405e-9 -2.4238877027691266e-9 -3.5989432106000964e-9 -0.1447217881644626 -3.6592542393740576e-9 0.14472178843980218
</DataArray>
        <DataArray type="Float64" Name="w50" NumberOfComponents="1" format="ascii">
 -0.05607722333861803 0.05607723045629238 0.05607722425528393 -0.05607722935590668 -0.1819067634081119 -4.0795241436364215e-9 0.18190676229436786 -0.7266626561969641 1.0 -0.7266626538272543 0.18190676307064524 3.0999859961990155e-9 -0.18190676228395705 0.7266626554383866 -0.9999999996792115 0.7266626535539725 0.36333134333106915 -0.5000000199391109 0.3633313440510444 -3.284938350841908e-10 3.1194750961632976e-10 -9.197081433898212e-11 -0.36333134463011096 0.5000000204363633 -0.3633313435729257
</DataArray>
        <DataArray type="Float64" Name="w51" NumberOfComponents="1" format="ascii">
 0.9085363450003126 0.908536348931371 0.9085362902367995 0.9085362941626929 -0.21385000287264172 -1.0 -0.21384999924507175 -0.25958176736672584 0.1297908316761687 -0.259581744563863 -0.2138499898596709 -0.9999999396267462 -0.21384998613883757 -0.25958175460632943 0.129790833891223 -0.259581759622786 -0.25958176628304874 0.12979085894403256 -0.25958175608541234 -0.2595817634435103 0.12979086710686683 -0.2595817496685567 -0.25958176917081716 0.12979085780180447 -0.2595817517734213
</DataArray>
        <DataArray type="Float64" Name="w52" NumberOfComponents="1" format="ascii">
 -0.9057658099367791 -0.9057658122505375 0.9057658647873089 0.9057658666997348 0.2170646401818509 0.999999939597527 0.21706463937194345 0.22644143133473582 1.2578065124780557e-8 -0.22644145225973808 -0.21706465276491863 -1.0 -0.2170646528345728 -0.22644144590922108 -4.670447080013074e-9 0.22644143607224435 0.22644143314973747 -2.366565781390246e-11 -0.22644144491421736 0.2264414250225957 3.882096114770505e-9 -0.22644144059769328 0.22644142962094096 7.85486442772809e-9 -0.22644144893203066
</DataArray>
        <DataArray type="Float64" Name="w53" NumberOfComponents="1" format="ascii">
 0.11632606973771753 -0.11632606566345265 0.11632606930230677 -0.11632606576419575 0.15266125074100423 -1.92680964047298e-9 -0.15266125185480428 0.7577281588094761 1.6705214977843579e-9 -0.7577281610821676 0.15266125071563588 -1.4988821073628924e-9 -0.15266125152848245 0.7577281584142109 9.446136848642234e-10 -0.7577281610044316 -0.3788640884300819 7.042594709675079e-10 0.37886408519651893 -1.6493797437185303e-9 7.241308442787695e-10 -1.7645175319571815e-9 0.37886408540787975 1.123482964435043e-9 -0.3788640884915106
</DataArray>
        <DataArray type="Float64" Name="w54" NumberOfComponents="1" format="ascii">
 -0.09444527970438302 0.0944452776674091 0.09444527952631232 -0.0944452775906858 -0.089998261079063 7.986335159638186e-10 0.08999826141483978 -0.44415736961636043 -0.6771286008116181 -0.44415737182255816 0.08999826111079905 -6.135732502986786e-10 -0.08999826124886529 0.44415736998589467 0.6771286006915603 0.44415737129291666 0.22207868737272982 0.3385643015987586 0.2220786853937607 1.2186408733271574e-9 -2.1589889896120304e-11 -1.2060791217359775e-9 -0.2220786851565977 -0.33856430166379936 -0.22207868763243344
</DataArray>
        <DataArray type="Float64" Name="w55" NumberOfComponents="1" format="ascii">
 -0.878904473028965 0.8789044718411736 -0.878904032791316 0.878904031616054 -0.5589035148373837 7.071865645280134e-11 0.5589035145694622 0.0972586494522474 5.1355081125901985e-9 -0.09725859749039738 -0.5589032349719081 -1.4225239588768799e-11 0.55890323459732 0.09725859957936552 -6.01555189287107e-9 -0.09725864771832785 -0.04862932216931566 -3.006828734931474e-9 0.04862929947086474 1.2001890022610009e-9 -1.0872990012795814e-10 1.331423781731806e-9 0.048629324360368265 2.563146659222041e-9 -0.048629296996436776
</DataArray>
        <DataArray type="Float64" Name="w56" NumberOfComponents="1" format="ascii">
 0.7929059217091283 -0.7929059209281107 -0.7929063196048725 0.7929063187195698 0.5041669490868407 -1.392554295867612e-10 -0.5041669490507755 -0.08989220508593652 -0.019883646354270063 -0.08989224738965007 -0.5041672021738228 1.4467864893665337e-11 0.5041672019404602 0.08989224918476542 0.01988364645761091 0.08989220361115062 0.04494610034204324 0.009941823103457304 0.04494612419921345 -9.505291193034422e-10 2.8897505833025544e-11 1.061541109508519e-9 -0.04494610211609222 -0.009941823031603547 -0.04494612217814314
</DataArray>
        <DataArray type="Float64" Name="w57" NumberOfComponents="1" format="ascii">
 1.3125081775749295e-7 1.3125081775749247e-7 -1.8958815593109183e-6 -1.8958815593109187e-6 1.3125081775749247e-7 1.3125081775749247e-7 1.312508177574925e-7 -1.4692244833017805e-8 -9.117473428929107e-7 -2.803242111782504e-7 -1.8958815593109168e-6 -1.895881559310918e-6 -1.895881559310918e-6 -2.803242111802311e-7 -9.117473428946992e-7 -1.4692244836417138e-8 -1.469224483556761e-8 -9.117473428942514e-7 -2.8032421117973546e-7 -1.469224483471742e-8 -9.117473428938054e-7 -2.803242111792413e-7 -1.4692244833868108e-8 -9.117473428933591e-7 -2.803242111787453e-7
</DataArray>
        <DataArray type="Float64" Name="w58" NumberOfComponents="1" format="ascii">
 4.7819839938405785e-5 4.781983993840544e-5 -0.0006118332195811266 -0.0006118332195811265 4.781983993840544e-5 4.781983993840544e-5 4.781983993840546e-5 -7.909070892811539e-6 -0.000482877082842761 -2.5308372975623892e-5 -0.0006118332195811261 -0.0006118332195811264 -0.0006118332195811263 -2.5308372975883426e-5 -0.0004828770828428778 -7.909070894541184e-6 -7.909070894108912e-6 -0.0004828770828428483 -2.530837297581849e-5 -7.909070893676377e-6 -0.0004828770828428196 -2.530837297575389e-5 -7.909070893244127e-6 -0.00048287708284279067 -2.5308372975688795e-5
</DataArray>
        <DataArray type="Float64" Name="w59" NumberOfComponents="1" format="ascii">
 0.0025770105354761784 0.002577010535476183 0.0024790076818497573 0.002479007681849758 0.0025770105354761793 0.002577010535476181 0.002577010535476182 -0.0010557098059245003 0.002739954094336116 0.0006858780657634096 0.002479007681849755 0.002479007681849756 0.002479007681849756 0.0006858780657628843 0.0027399540943478444 -0.001055709805923971 -0.0010557098059241037 0.0027399540943449127 0.0006858780657630159 -0.0010557098059242361 0.0027399540943419828 0.0006858780657631474 -0.0010557098059243708 0.0027399540943390515 0.0006858780657632802
</DataArray>
        <DataArray type="Float64" Name="w60" NumberOfComponents="1" format="ascii">
 0.025908866492973793 0.02590886649297387 -0.007842751868460245 -0.007842751868460288 0.025908866492973828 0.025908866492973852 0.02590886649297386 0.0734520367060141 0.07004155469511966 -0.02647864651866667 -0.007842751868460283 -0.007842751868460252 -0.007842751868460295 -0.026478646518823475 0.0700415546944466 0.07345203670615796 0.07345203670612196 0.07004155469461489 -0.026478646518784246 0.07345203670608612 0.0700415546947832 -0.026478646518745083 0.0734520367060501 0.07004155469495149 -0.026478646518705823
</DataArray>
        <DataArray type="Float64" Name="w61" NumberOfComponents="1" format="ascii">
 0.09292498844337807 0.09292498844337821 -0.004115522319472242 -0.004115522319472217 0.09292498844337807 0.09292498844337813 0.09292498844337817 0.04447256972447725 -0.018340825206599107 0.014689751293151228 -0.004115522319472233 -0.004115522319472237 -0.004115522319472227 0.014689751293179877 -0.01834082520679964 0.04447256972411458 0.044472569724205206 -0.01834082520674952 0.0146897512931727 0.04447256972429596 -0.01834082520669938 0.014689751293165553 0.04447256972438656 -0.018340825206649244 0.014689751293158396
</DataArray>
        <DataArray type="Float64" Name="w62" NumberOfComponents="1" format="ascii">
 0.036796207788155955 0.03679620778815601 0.028804943713356155 0.02880494371335622 0.036796207788155996 0.03679620778815601 0.036796207788156024 0.1343980196988072 -0.024403956353598252 0.03854268836047691 0.028804943713356165 0.02880494371335614 0.028804943713356193 0.03854268836058405 -0.02440395635424377 0.13439801969860782 0.13439801969865758 -0.024403956354082414 0.038542688360557235 0.13439801969870763 -0.024403956353921015 0.038542688360530486 0.13439801969875742 -0.024403956353759644 0.03854268836050367
</DataArray>
        <DataArray type="Float64" Name="w63" NumberOfComponents="1" format="ascii">
 -0.032200625903058895 -0.03220062590305898 -0.028096291373616147 -0.028096291373616123 -0.03220062590305898 -0.03220062590305899 -0.032200625903059006 -0.164752315574236 -0.0768454543493009 0.017657780785191004 -0.02809629137361613 -0.028096291373616133 -0.028096291373616133 0.017657780785289186 -0.07684545434807234 -0.16475231557438164 -0.16475231557434522 -0.07684545434837951 0.01765778078526463 -0.16475231557430906 -0.07684545434868668 0.017657780785240086 -0.1647523155742726 -0.07684545434899386 0.01765778078521554
</DataArray>
        <DataArray type="Float64" Name="w64" NumberOfComponents="1" format="ascii">
 0.008514453592053705 0.008514453592053705 0.0010063524192501798 0.0010063524192501251 0.00851445359205378 0.008514453592053767 0.0085144535920537 0.0002621313262482013 0.04630066767392636 -0.04330759797083909 0.0010063524192501943 0.001006352419250173 0.0010063524192501887 -0.04330759797093026 0.04630066767363285 0.0002621313263714401 0.00026213132634054376 0.046300667673706206 -0.04330759797090743 0.0002621313263099047 0.046300667673779654 -0.043307597970884605 0.0002621313262790738 0.04630066767385297 -0.04330759797086188
</DataArray>
        <DataArray type="Float64" Name="w65" NumberOfComponents="1" format="ascii">
 -0.003934415504706271 -0.003934415504706173 -0.2059993029886084 -0.2059993029886085 -0.003934415504706244 -0.00393441550470606 -0.003934415504706206 -0.1117598059497788 0.05424005042744837 -0.07352429028435326 -0.20599930298860844 -0.2059993029886084 -0.20599930298860847 -0.07352429028487718 0.054240050427705834 -0.11175980594958929 -0.11175980594963655 0.054240050427641566 -0.07352429028474611 -0.11175980594968411 0.05424005042757709 -0.07352429028461534 -0.1117598059497315 0.05424005042751274 -0.07352429028448405
</DataArray>
        <DataArray type="Float64" Name="w66" NumberOfComponents="1" format="ascii">
 -0.6064486142786405 -0.6064486142786417 0.14982262521483622 0.14982262521483614 -0.6064486142786409 -0.6064486142786415 -0.6064486142786417 0.012019840130298555 0.5892321570895931 -0.0687244739237012 0.1498226252148361 0.14982262521483614 0.1498226252148362 -0.06872447392458583 0.5892321570890487 0.012019840134195851 0.012019840133221958 0.5892321570891851 -0.06872447392436444 0.012019840132247168 0.5892321570893214 -0.06872447392414335 0.012019840131273381 0.5892321570894576 -0.06872447392392213
</DataArray>
        <DataArray type="Float64" Name="w67" NumberOfComponents="1" format="ascii">
 -0.15830106493507784 -0.15830106493507803 -0.013431045546435658 -0.013431045546435667 -0.15830106493507784 -0.158301064935078 -0.15830106493507792 0.30028354545728225 -0.0026998585740374446 -0.0422849645796397 -0.013431045546435627 -0.013431045546435646 -0.013431045546435698 -0.042284964579661286 -0.0026998585763445 0.3002835454577895 0.30028354545766256 -0.0026998585757678543 -0.04228496457965587 0.30028354545753605 -0.0026998585751909668 -0.04228496457965047 0.30028354545740926 -0.0026998585746140988 -0.04228496457964511
</DataArray>
        <DataArray type="Float64" Name="w68" NumberOfComponents="1" format="ascii">
 -0.09255142869858729 -0.0925514286985873 -0.35727402339610936 -0.357274023396107 -0.09255142869858748 -0.09255142869858772 -0.0925514286985876 -0.3252381419654521 -0.46744203045561183 0.10380803122897397 -0.3572740233961088 -0.3572740233961082 -0.35727402339610825 0.10380803122919538 -0.46744203045272115 -0.3252381419666751 -0.325238141966369 -0.46744203045344446 0.10380803122913977 -0.32523814196606343 -0.46744203045416777 0.10380803122908377 -0.3252381419657576 -0.46744203045489024 0.10380803122902857
</DataArray>
        <DataArray type="Float64" Name="w69" NumberOfComponents="1" format="ascii">
 -0.5246990210806192 -0.5246990210806192 -0.34221238606882 -0.34221238606881865 -0.5246990210806192 -0.5246990210806189 -0.5246990210806194 0.925477085952306 -0.1470798832665336 0.29095038098787984 -0.3422123860688189 -0.3422123860688198 -0.34221238606882 0.2909503809874868 -0.14707988327080504 0.9254770859535388 0.9254770859532305 -0.1470798832697373 0.29095038098758474 0.925477085952923 -0.14707988326866955 0.29095038098768305 0.9254770859526145 -0.14707988326760135 0.2909503809877815
</DataArray>
        <DataArray type="Float64" Name="w70" NumberOfComponents="1" format="ascii">
 -0.17161129463928582 -0.1716112946392844 -0.0746341287373908 -0.07463412873738999 -0.17161129463928537 -0.17161129463928507 -0.17161129463928496 0.10860697525840311 -0.45724758835896445 0.021189393454581675 -0.07463412873739013 -0.07463412873739028 -0.07463412873739005 0.021189393455351552 -0.45724758835955365 0.10860697525747326 0.10860697525770538 -0.45724758835940604 0.021189393455158922 0.1086069752579375 -0.4572475883592592 0.021189393454966524 0.1086069752581706 -0.4572475883591119 0.0211893934547739
</DataArray>
        <DataArray type="Float64" Name="w71" NumberOfComponents="1" format="ascii">
 -0.0625446957410593 -0.0625446957410584 0.3258283529528853 0.3258283529528868 -0.0625446957410588 -0.06254469574105899 -0.06254469574105886 0.16312005925473988 -0.3569679896500783 -0.2159851666283643 0.3258283529528857 0.3258283529528865 0.32582835295288676 -0.21598516662698933 -0.35696798965262944 0.16312005925378067 0.16312005925402073 -0.35696798965199206 -0.21598516662733364 0.16312005925426065 -0.3569679896513545 -0.21598516662767717 0.16312005925450038 -0.35696798965071663 -0.21598516662802134
</DataArray>
        <DataArray type="Float64" Name="w72" NumberOfComponents="1" format="ascii">
 0.11414443596632175 0.11414443596632376 -0.10984883528411102 -0.10984883528411023 0.11414443596632211 0.11414443596632265 0.11414443596632333 -0.2837566065723104 0.0011865106010595175 0.08429065827312332 -0.10984883528411098 -0.10984883528411062 -0.10984883528411035 0.08429065827289946 0.0011865106035377634 -0.2837566065726776 -0.2837566065725859 0.001186510602918298 0.08429065827295551 -0.28375660657249424 0.0011865106022986357 0.08429065827301126 -0.28375660657240237 0.00118651060167917 0.08429065827306749
</DataArray>
        <DataArray type="Float64" Name="w73" NumberOfComponents="1" format="ascii">
 -0.031060172580174194 -0.031060172580173875 -0.3435430770399216 -0.34354307703992076 -0.031060172580173937 -0.031060172580173503 -0.031060172580173545 0.08170129322966461 0.6210364662488173 0.40693020550394476 -0.34354307703992126 -0.34354307703992143 -0.3435430770399209 0.40693020550200293 0.6210364662510075 0.0817012932317907 0.08170129323125903 0.6210364662504602 0.40693020550248926 0.08170129323072763 0.6210364662499134 0.4069302055029741 0.08170129323019582 0.6210364662493656 0.4069302055034602
</DataArray>
        <DataArray type="Float64" Name="w74" NumberOfComponents="1" format="ascii">
 0.05097127949718755 0.05097127949718678 -0.15957319734586733 -0.1595731973458675 0.050971279497187744 0.05097127949718753 0.050971279497187 -0.25468025708631387 -0.25855663742394086 -0.42388011316003543 -0.15957319734586778 -0.15957319734586708 -0.1595731973458669 -0.4238801131598371 -0.25855663742508106 -0.25468025708732417 -0.25468025708707154 -0.25855663742479645 -0.423880113159887 -0.25468025708681913 -0.2585566374245115 -0.42388011315993684 -0.25468025708656616 -0.25855663742422647 -0.42388011315998636
</DataArray>
        <DataArray type="Float64" Name="w75" NumberOfComponents="1" format="ascii">
 0.13961045337242148 0.13961045337242217 -0.19525652913819683 -0.1952565291381973 0.13961045337242198 0.13961045337242192 0.13961045337242212 0.25202797317222453 0.21737203326321805 -0.9999999999991686 -0.19525652913819636 -0.19525652913819594 -0.19525652913819602 -1.0 0.21737203325478652 0.2520279731724791 0.25202797317241526 0.21737203325689397 -0.9999999999997929 0.2520279731723519 0.21737203325900234 -0.999999999999584 0.25202797317228826 0.21737203326111 -0.9999999999993767
</DataArray>
      </PointData>
    </Piece>
    <FieldData>
      <DataArray type="Float64" Name="lambda_real" NumberOfComponents="1" NumberOfTuples="75" format="ascii">
 -Inf -Inf -Inf -Inf -Inf -Inf -Inf -Inf -Inf -Inf -Inf -Inf -Inf -Inf -Inf -Inf 5.239605689428351e10 5.871979647206494e10 6.36419247731434e10 7.96080882226092e10 8.31761595681293e10 9.264845646142416e10 1.016154009417811e11 1.1873498888603758e11 1.2009098142986394e11 1.4020833055383203e11 1.5030993008566638e11 1.5785175183623108e11 1.7400191990956085e11 1.766366189032268e11 1.938866257006486e11 1.9591074652442084e11 2.0629395225789453e11 2.1237818494885706e11 2.2331400957902728e11 2.2618017080505627e11 2.3884125364665497e11 2.6497752200644577e11 2.6873197377058243e11 3.0497024583694824e11 3.9293125862200006e11 4.1977269005103827e11 5.459664629208823e11 5.855683680171068e11 6.961425695663271e11 1.0357241271011807e18 1.0380192376682296e18 1.832694456828628e18 1.8612433530693834e18 4.244458437189055e18 4.693442921318183e18 4.71955687568147e18 6.410801188359062e18 8.853141521714459e18 2.172795636236254e19 2.1736373493615915e19 Inf Inf Inf Inf Inf Inf Inf Inf Inf Inf Inf Inf Inf Inf Inf Inf Inf Inf Inf
</DataArray>
      <DataArray type="Float64" Name="lambda_imag" NumberOfComponents="1" NumberOfTuples="75" format="ascii">
 0.0 0.0 0.0 0.0 0.0 0.0 0.0 0.0 0.0 0.0 0.0 0.0 0.0 0.0 0.0 0.0 0.0 0.0 0.0 0.0 0.0 0.0 0.0 0.0 0.0 0.0 0.0 0.0 0.0 0.0 0.0 0.0 0.0 0.0 0.0 0.0 0.0 0.0 0.0 0.0 0.0 0.0 0.0 0.0 0.0 0.0 0.0 0.0 0.0 0.0 0.0 0.0 0.0 0.0 0.0 0.0 0.0 0.0 0.0 0.0 0.0 0.0 0.0 0.0 0.0 0.0 0.0 0.0 0.0 0.0 0.0 0.0 0.0 0.0 0.0
</DataArray>
      <DataArray type="Float64" Name="lambda_isfinite" NumberOfComponents="1" NumberOfTuples="75" format="ascii">
 0.0 0.0 0.0 0.0 0.0 0.0 0.0 0.0 0.0 0.0 0.0 0.0 0.0 0.0 0.0 0.0 1.0 1.0 1.0 1.0 1.0 1.0 1.0 1.0 1.0 1.0 1.0 1.0 1.0 1.0 1.0 1.0 1.0 1.0 1.0 1.0 1.0 1.0 1.0 1.0 1.0 1.0 1.0 1.0 1.0 1.0 1.0 1.0 1.0 1.0 1.0 1.0 1.0 1.0 1.0 1.0 0.0 0.0 0.0 0.0 0.0 0.0 0.0 0.0 0.0 0.0 0.0 0.0 0.0 0.0 0.0 0.0 0.0 0.0 0.0
</DataArray>
      <DataArray type="Float64" Name="lambda_isinf" NumberOfComponents="1" NumberOfTuples="75" format="ascii">
 1.0 1.0 1.0 1.0 1.0 1.0 1.0 1.0 1.0 1.0 1.0 1.0 1.0 1.0 1.0 1.0 0.0 0.0 0.0 0.0 0.0 0.0 0.0 0.0 0.0 0.0 0.0 0.0 0.0 0.0 0.0 0.0 0.0 0.0 0.0 0.0 0.0 0.0 0.0 0.0 0.0 0.0 0.0 0.0 0.0 0.0 0.0 0.0 0.0 0.0 0.0 0.0 0.0 0.0 0.0 0.0 1.0 1.0 1.0 1.0 1.0 1.0 1.0 1.0 1.0 1.0 1.0 1.0 1.0 1.0 1.0 1.0 1.0 1.0 1.0
</DataArray>
      <DataArray type="Float64" Name="lambda_isnan" NumberOfComponents="1" NumberOfTuples="75" format="ascii">
 0.0 0.0 0.0 0.0 0.0 0.0 0.0 0.0 0.0 0.0 0.0 0.0 0.0 0.0 0.0 0.0 0.0 0.0 0.0 0.0 0.0 0.0 0.0 0.0 0.0 0.0 0.0 0.0 0.0 0.0 0.0 0.0 0.0 0.0 0.0 0.0 0.0 0.0 0.0 0.0 0.0 0.0 0.0 0.0 0.0 0.0 0.0 0.0 0.0 0.0 0.0 0.0 0.0 0.0 0.0 0.0 0.0 0.0 0.0 0.0 0.0 0.0 0.0 0.0 0.0 0.0 0.0 0.0 0.0 0.0 0.0 0.0 0.0 0.0 0.0
</DataArray>
    </FieldData>
  </UnstructuredGrid>
</VTKFile>
