<?xml version="1.0" encoding="utf-8"?>
<VTKFile type="UnstructuredGrid" version="1.0" byte_order="LittleEndian" header_type="UInt64">
  <UnstructuredGrid>
    <Piece NumberOfPoints="25" NumberOfCells="16">
      <Points>
        <DataArray type="Float64" Name="Points" NumberOfComponents="3" format="ascii">
 0.0 0.0 0.0 1.0 0.0 0.0 1.0 1.0 0.0 0.0 1.0 0.0 0.2499999999994109 0.0 0.0 0.4999999999986921 0.0 0.0 0.7499999999993406 0.0 0.0 1.0 0.2499999999994109 0.0 1.0 0.4999999999986921 0.0 1.0 0.7499999999993406 0.0 0.7500000000003471 1.0 0.0 0.5000000000020595 1.0 0.0 0.2500000000010405 1.0 0.0 0.0 0.7500000000003471 0.0 0.0 0.5000000000020595 0.0 0.0 0.2500000000010405 0.0 0.2499999999998184 0.2500000000006332 0.0 0.2500000000002257 0.5000000000012177 0.0 0.2500000000006332 0.7500000000000954 0.0 0.4999999999995339 0.2500000000002257 0.0 0.5000000000003757 0.5000000000003757 0.0 0.5000000000012177 0.749999999999844 0.0 0.7499999999995922 0.2499999999998184 0.0 0.749999999999844 0.4999999999995339 0.0 0.7500000000000953 0.7499999999995921 0.0
</DataArray>
      </Points>
      <Cells>
        <DataArray type="Int64" Name="connectivity" NumberOfComponents="1" format="ascii">
 0 4 16 15 15 16 17 14 14 17 18 13 13 18 12 3 4 5 19 16 16 19 20 17 17 20 21 18 18 21 11 12 5 6 22 19 19 22 23 20 20 23 24 21 21 24 10 11 6 1 7 22 22 7 8 23 23 8 9 24 24 9 2 10
</DataArray>
        <DataArray type="Int64" Name="offsets" NumberOfComponents="1" format="ascii">
 4 8 12 16 20 24 28 32 36 40 44 48 52 56 60 64
</DataArray>
        <DataArray type="UInt8" Name="types" NumberOfComponents="1" format="ascii">
 9 9 9 9 9 9 9 9 9 9 9 9 9 9 9 9
</DataArray>
      </Cells>
      <PointData>
        <DataArray type="Float64" Name="w1" NumberOfComponents="1" format="ascii">
 0.0009173188249328978 0.0009173188249382952 0.0017309622689604875 0.001730962268967547 0.0009173188249342514 0.0009173188249355979 0.0009173188249369482 -0.0003214600510986505 0.00021512599694213988 -0.0012951334732839257 0.0017309622689622496 0.0017309622689640142 0.0017309622689657808 -0.0012951334732858772 0.00021512599693474695 -0.0003214600510959358 -0.0003214600510966153 0.00021512599693659587 -0.0012951334732853883 -0.00032146005109729326 0.0002151259969384431 -0.0012951334732849 -0.0003214600510979732 0.000215125996940292 -0.001295133473284413
</DataArray>
        <DataArray type="Float64" Name="w2" NumberOfComponents="1" format="ascii">
 -0.014027857344741232 -0.014027857344700467 -0.0017750554464090176 -0.0017750554463951806 -0.014027857344731035 -0.014027857344720847 -0.014027857344710657 -0.003068830490668343 0.017792035575998563 0.013397463578323119 -0.0017750554464055403 -0.0017750554464020837 -0.0017750554463986231 0.013397463578234379 0.017792035576123015 -0.0030688304905152944 -0.0030688304905535585 0.01779203557609189 0.013397463578256564 -0.003068830490591827 0.017792035576060808 0.013397463578278729 -0.003068830490630077 0.017792035576029687 0.013397463578300942
</DataArray>
        <DataArray type="Float64" Name="w3" NumberOfComponents="1" format="ascii">
 -0.014627533682645903 -0.014627533682603711 -0.00467357105470176 -0.004673571054679868 -0.014627533682635356 -0.014627533682624802 -0.01462753368261426 -0.0012407253503906469 0.0200893768798433 0.011387866228028927 -0.004673571054696267 -0.004673571054690799 -0.004673571054685325 0.011387866227920502 0.020089376879938625 -0.0012407253502189366 -0.0012407253502618636 0.020089376879914776 0.011387866227947607 -0.0012407253503047987 0.020089376879890982 0.011387866227974698 -0.0012407253503477157 0.02008937687986715 0.011387866228001831
</DataArray>
        <DataArray type="Float64" Name="w4" NumberOfComponents="1" format="ascii">
 -0.0035505583910451573 -0.0035505583909697614 0.0038841107024385727 0.003884110702455702 -0.0035505583910263035 -0.003550558391007451 -0.003550558390988607 -0.010886965388146335 0.012412172789521213 0.012298521302786362 0.003884110702442857 0.0038841107024471418 0.0038841107024514387 0.012298521302718204 0.012412172789706554 -0.01088696538804332 -0.010886965388069087 0.012412172789660215 0.012298521302735238 -0.010886965388094841 0.012412172789613913 0.01229852130275227 -0.010886965388120583 0.012412172789567561 0.01229852130276931
</DataArray>
        <DataArray type="Float64" Name="w5" NumberOfComponents="1" format="ascii">
 0.00423136074251355 0.004231360742595866 0.011888510114826388 0.01188851011478379 0.004231360742534171 0.004231360742554739 0.004231360742575301 -0.023069880806196597 0.0003553045945455117 0.027125818569057058 0.011888510114815743 0.011888510114805104 0.011888510114794477 0.027125818569080903 0.00035530459494602845 -0.02306988080620987 -0.02306988080620658 0.0003553045948459006 0.027125818569074946 -0.023069880806203258 0.0003553045947458002 0.02712581856906894 -0.023069880806199913 0.0003553045946456566 0.027125818569063005
</DataArray>
        <DataArray type="Float64" Name="w6" NumberOfComponents="1" format="ascii">
 -0.008586314900017962 -0.008586314900024606 0.03772418195552637 0.037724181955657625 -0.008586314900019668 -0.00858631490002129 -0.008586314900022925 -0.007394019270750392 -0.021498352943339502 -0.04809501243059712 0.03772418195555909 0.03772418195559188 0.037724181955624735 -0.0480950124305145 -0.021498352943682707 -0.0073940192707558465 -0.0073940192707544795 -0.021498352943596928 -0.04809501243053514 -0.007394019270753131 -0.021498352943511174 -0.04809501243055575 -0.007394019270751771 -0.02149835294342529 -0.04809501243057644
</DataArray>
        <DataArray type="Float64" Name="w7" NumberOfComponents="1" format="ascii">
 -0.07711711633711167 -0.07711711633665484 -0.03186194345047118 -0.03186194345005506 -0.07711711633699753 -0.07711711633688334 -0.07711711633676907 0.0250151692403637 0.20177489931250112 0.0448430783662065 -0.03186194345036704 -0.031861943450263046 -0.031861943450159025 0.04484307836506528 0.20177489931265583 0.025015169241943476 0.02501516924154857 0.20177489931261722 0.04484307836535057 0.02501516924115361 0.20177489931257866 0.044843078365635856 0.025015169240758677 0.20177489931253995 0.044843078365921246
</DataArray>
        <DataArray type="Float64" Name="w8" NumberOfComponents="1" format="ascii">
 0.08750889207653881 0.08750889207670104 -0.06698644844652944 -0.06698644844641222 0.08750889207657948 0.08750889207661995 0.08750889207666053 0.008273884937810743 -0.006149246109114362 -0.06677794458802042 -0.0669864484465002 -0.06698644844647085 -0.06698644844644173 -0.0667779445882556 -0.0061492461095975365 0.00827388493761813 0.008273884937666339 -0.006149246109476676 -0.06677794458819676 0.008273884937714474 -0.006149246109356012 -0.0667779445881379 0.008273884937762571 -0.006149246109235166 -0.06677794458807917
</DataArray>
        <DataArray type="Float64" Name="w9" NumberOfComponents="1" format="ascii">
 0.09666250813185469 0.09666250813246756 0.02600009533460685 0.026000095334834453 0.09666250813200788 0.09666250813216107 0.09666250813231436 -0.08066144015234304 0.019055098312345257 -0.0104722250686554 0.02600009533466361 0.02600009533472059 0.02600009533477746 -0.010472225068964018 0.019055098313010624 -0.0806614401522733 -0.08066144015229075 0.019055098312844212 -0.01047222506888694 -0.08066144015230821 0.019055098312677914 -0.010472225068809675 -0.08066144015232567 0.0190550983125116 -0.010472225068732492
</DataArray>
        <DataArray type="Float64" Name="w10" NumberOfComponents="1" format="ascii">
 -0.004368209099095109 -0.0043682090992068325 0.05458895871143271 0.05458895871141859 -0.00436820909912294 -0.004368209099151064 -0.004368209099178925 0.08520939461920467 0.09903485841006475 0.08957788040964904 0.0545889587114293 0.05458895871142577 0.05458895871142221 0.0895778804095361 0.09903485841004564 0.08520939461956502 0.08520939461947499 0.09903485841005046 0.08957788040956433 0.08520939461938493 0.09903485841005535 0.08957788040959248 0.08520939461929486 0.09903485841006004 0.0895778804096208
</DataArray>
        <DataArray type="Float64" Name="w11" NumberOfComponents="1" format="ascii">
 0.07420357125477064 0.07420357125486743 -0.01575963114034047 -0.01575963114041945 0.0742035712547948 0.0742035712548191 0.07420357125484327 -0.10326082401922455 -0.16041090872221042 -0.09815765723418224 -0.015759631140360303 -0.015759631140380048 -0.01575963114039981 -0.09815765723369231 -0.1604109087220887 -0.10326082402018798 -0.10326082401994717 -0.16041090872211913 -0.0981576572338147 -0.10326082401970642 -0.16041090872214975 -0.09815765723393718 -0.10326082401946554 -0.16041090872218006 -0.0981576572340598
</DataArray>
        <DataArray type="Float64" Name="w12" NumberOfComponents="1" format="ascii">
 0.13900839528209621 0.139008395283606 -0.1438388389267415 -0.1438388389262711 0.13900839528247352 0.13900839528285108 0.13900839528322864 -0.19629577902933792 0.10253918262327365 -0.017543286911571587 -0.14383883892662397 -0.14383883892650628 -0.14383883892638877 -0.01754328691302034 0.1025391826249976 -0.19629577902850398 -0.1962957790287127 0.10253918262456677 -0.017543286912658183 -0.19629577902892112 0.10253918262413567 -0.017543286912295914 -0.19629577902912973 0.10253918262370465 -0.01754328691193369
</DataArray>
        <DataArray type="Float64" Name="w13" NumberOfComponents="1" format="ascii">
 0.020390407138415424 0.02039040713851068 -0.046698835964401386 -0.04669883596405864 0.020390407138439436 0.020390407138462893 0.02039040713848684 0.15938438326334148 0.21554128184304033 0.029360457871195123 -0.04669883596431596 -0.04669883596422975 -0.04669883596414378 0.02936045787020443 0.21554128184204346 0.15938438326443874 0.1593843832641637 0.21554128184229251 0.02936045787045241 0.1593843832638897 0.21554128184254204 0.02936045787070007 0.1593843832636156 0.21554128184279142 0.029360457870947463
</DataArray>
        <DataArray type="Float64" Name="w14" NumberOfComponents="1" format="ascii">
 -0.004488103734682723 -0.004488103733375954 0.06810947246117388 0.06810947246302526 -0.0044881037343556494 -0.004488103734029095 -0.004488103733702219 0.03266398198693685 0.3077624328564781 -0.2753935031137719 0.06810947246163634 0.06810947246209885 0.06810947246256176 -0.2753935031160945 0.30776243285413235 0.03266398198979415 0.03266398198908005 0.30776243285471905 -0.2753935031155139 0.032663981988365516 0.30776243285530575 -0.2753935031149329 0.032663981987651095 0.30776243285589205 -0.2753935031143522
</DataArray>
        <DataArray type="Float64" Name="w15" NumberOfComponents="1" format="ascii">
 -0.18480482224041586 -0.18480482224406217 0.02369180894594845 0.023691808944517254 -0.18480482224132735 -0.18480482224223993 -0.18480482224315145 0.9474117089482729 0.37944496861701377 0.4763029538859284 0.02369180894559079 0.023691808945233456 0.023691808944876148 0.4763029538869669 0.37944496861273286 0.9474117089483572 0.947411708948336 0.37944496861380195 0.47630295388670857 0.9474117089483155 0.3794449686148727 0.47630295388644883 0.9474117089482947 0.3794449686159432 0.47630295388618893
</DataArray>
        <DataArray type="Float64" Name="w16" NumberOfComponents="1" format="ascii">
 -0.12147893353627179 -0.12147893353636119 -0.32799579631422143 -0.3279957963145927 -0.12147893353629406 -0.12147893353631636 -0.1214789335363389 -0.13276929032703624 -0.14701297115927772 -0.09455416915051063 -0.32799579631431336 -0.3279957963144066 -0.32799579631449977 -0.09455416915070482 -0.14701297115888023 -0.13276929032728857 -0.13276929032722568 -0.14701297115897954 -0.09455416915065631 -0.13276929032716256 -0.14701297115907888 -0.09455416915060784 -0.13276929032709958 -0.14701297115917847 -0.09455416915055924
</DataArray>
        <DataArray type="Float64" Name="w17" NumberOfComponents="1" format="ascii">
 0.051531236139491066 0.05153123614026832 0.5378570570582019 0.5378570570598032 0.05153123613968517 0.05153123613987992 0.05153123614007448 -0.3194688566714233 -0.379100746854805 -0.5828251202657186 0.5378570570586005 0.537857057059001 0.537857057059403 -0.5828251202644135 -0.3791007468569919 -0.31946885667228675 -0.319468856672071 -0.3791007468564457 -0.5828251202647388 -0.31946885667185554 -0.3791007468558994 -0.5828251202650645 -0.31946885667163955 -0.3791007468553521 -0.5828251202653919
</DataArray>
        <DataArray type="Float64" Name="w18" NumberOfComponents="1" format="ascii">
 -0.09661957689816118 -0.09661957690199169 -0.19264466009366105 -0.19264466009951534 -0.09661957689911865 -0.09661957690007619 -0.0966195769010343 -0.15996129241567505 -0.8697694518959341 0.9999999999930838 -0.19264466009512296 -0.19264466009658565 -0.1926446600980499 1.0 -0.869769451887112 -0.15996129242374837 -0.1599612924217304 -0.8697694518893166 0.9999999999982697 -0.15996129241971166 -0.8697694518915237 0.9999999999965394 -0.1599612924176929 -0.8697694518937282 0.999999999994812
</DataArray>
        <DataArray type="Float64" Name="w19" NumberOfComponents="1" format="ascii">
 0.23622418886625124 0.23622418886438762 -0.17837014410232044 -0.17837014410397914 0.23622418886578583 0.23622418886532 0.23622418886485427 0.18240943422527198 -0.3787651016140809 0.0305743272480354 -0.17837014410273477 -0.17837014410314964 -0.17837014410356442 0.030574327250512734 -0.3787651016152044 0.1824094342211931 0.18240943422221284 -0.3787651016149236 0.030574327249893823 0.18240943422323252 -0.3787651016146433 0.030574327249274363 0.18240943422425226 -0.37876510161436205 0.03057432724865485
</DataArray>
        <DataArray type="Float64" Name="w20" NumberOfComponents="1" format="ascii">
 -0.23068907840056882 -0.23068907840463856 -0.3045962575668797 -0.3045962575671113 -0.2306890784015856 -0.23068907840260314 -0.23068907840362143 0.5755467757103379 -0.5196288421324231 -0.7791635082221473 -0.304596257566938 -0.30459625756699715 -0.30459625756705533 -0.7791635082197704 -0.519628842143469 0.5755467757074529 0.5755467757081746 -0.5196288421407074 -0.7791635082203625 0.5755467757088953 -0.5196288421379465 -0.7791635082209569 0.575546775709617 -0.5196288421351842 -0.7791635082215517
</DataArray>
        <DataArray type="Float64" Name="w21" NumberOfComponents="1" format="ascii">
 -7.207880237418624e-11 -1.2507329936856538e-10 -7.207877518876639e-11 -1.2507378798401006e-10 9.463942229164207e-11 6.869378943196e-10 -1.35441978716578e-9 1.4132422719980808e-9 -2.799087110489476e-10 -3.633392150129412e-10 9.463906752191297e-11 6.869389708622263e-10 -1.3544208147746505e-9 1.4132437943815928e-9 -2.7990894379423834e-10 -3.6333935094004047e-10 -0.004963537332801034 -0.013809438336371844 -0.02211918187587173 -0.005689623409659411 -0.006002669190200743 -0.0056896327476355394 -0.022119159734674453 -0.013809427736779427 -0.0049635349413431895
</DataArray>
        <DataArray type="Float64" Name="w22" NumberOfComponents="1" format="ascii">
 6.752091134679139e-11 -1.519676484050998e-10 -6.752145884759342e-11 1.5196747270283668e-10 1.311333760512009e-11 6.798849185660597e-10 -1.453720483735897e-9 1.3962336086065717e-9 -1.815885328747603e-10 -2.800301505021956e-10 -1.3113412906089997e-11 -6.798848832687301e-10 1.4537211300692219e-9 -1.3962342988654626e-9 1.8158881446901233e-10 2.800302195280847e-10 0.004596226167046077 0.015080005798317522 0.025398044281200807 -0.010383151850901771 8.649438947746661e-9 0.010383170256933938 -0.025398023320296323 -0.015079987658840376 -0.004596214279021946
</DataArray>
        <DataArray type="Float64" Name="w23" NumberOfComponents="1" format="ascii">
 -3.7258695593287086e-10 1.2831455099144046e-10 3.7258654957257824e-10 -1.2831445772842246e-10 1.1827741534637817e-9 -4.67474393633016e-11 -1.207516832134329e-9 1.5359051648099932e-10 1.0196186662394042e-9 -4.372230504245533e-10 -1.1827746686309288e-9 4.674778576879696e-11 1.2075169831315962e-9 -1.5359009457687033e-10 -1.0196188527654402e-9 4.372231880985322e-10 0.04426619784928451 0.06464995294725033 0.03781140128601284 -0.02080562571890109 -1.991775916749019e-8 0.020805600223743757 -0.03781141145455801 -0.0646499621281251 -0.044266207360400864
</DataArray>
        <DataArray type="Float64" Name="w24" NumberOfComponents="1" format="ascii">
 -3.0387011070838794e-10 -1.4190803962734343e-10 -3.038706169161635e-10 -1.4190820712256326e-10 2.0465143632039268e-10 2.0012474942773695e-10 6.954753342019896e-10 -1.0315721281897321e-10 -9.41524851836038e-10 3.9020823891784433e-10 2.0465186808584825e-10 2.0012426385516898e-10 6.954753993390195e-10 -1.0315688155064953e-10 -9.41524732728326e-10 3.902082724168883e-10 0.02735323918548738 0.038275471002795165 0.01950096304245665 -0.012013291193964633 -0.013635034901640523 -0.012013308364932402 0.019500962156069904 0.03827548809673208 0.02735325744163089
</DataArray>
        <DataArray type="Float64" Name="w25" NumberOfComponents="1" format="ascii">
 5.472134265313555e-10 1.5604503141127655e-10 -5.472128383872533e-10 -1.5604430944141662e-10 -4.958018230004449e-10 -2.2495881816987097e-9 2.6595259029599564e-9 -1.290650118871975e-9 2.446299653061626e-10 -1.730718508441912e-10 4.95801843677386e-10 2.2495885768580282e-9 -2.659526362447536e-9 1.2906505370056726e-9 -2.4463015829094616e-10 1.7307140054636289e-10 -0.06951659739780848 -0.10082270946029043 -0.09072816298187049 -0.0049162126028480585 -8.265954642740495e-9 0.0049162044209839 0.09072814693120876 0.10082269645655009 0.06951657932750276
</DataArray>
        <DataArray type="Float64" Name="w26" NumberOfComponents="1" format="ascii">
 -1.3268963379324044e-9 6.847953024806589e-11 -1.3268963491006716e-9 6.847922684347891e-11 1.7806969108928448e-9 -4.2156159821701967e-10 9.02369482924768e-10 -9.325972947595949e-11 -6.8807573148893e-10 -2.2175277637599483e-10 1.7806973650690365e-9 -4.2156208962076793e-10 9.023695462116144e-10 -9.325921015154373e-11 -6.880757901223319e-10 -2.2175262525538193e-10 0.1314745864814833 0.15087433635174569 0.08860943822862904 -0.13656182199232944 -0.18090969117696712 -0.13656182222540272 0.08860943942881719 0.15087434976281938 0.1314745994933482
</DataArray>
        <DataArray type="Float64" Name="w27" NumberOfComponents="1" format="ascii">
 -1.162057248096581e-9 1.057323078841997e-10 -1.1620578369422672e-9 1.0573225033221071e-10 -1.5786052265287184e-9 3.800253976507861e-9 -7.890025178810171e-10 -5.17791405955482e-10 -1.3339046971081848e-10 2.7486092001549897e-10 -1.5786045590801482e-9 3.800253407940561e-9 -7.890028423351832e-10 -5.177910405582902e-10 -1.3339065665821895e-10 2.7486083542566277e-10 -0.08845193621719737 -0.14461086152742286 -0.10719685863813991 0.2092318732934246 0.304444573232888 0.20923186939541832 -0.10719684844364932 -0.14461083333538835 -0.08845190664977406
</DataArray>
        <DataArray type="Float64" Name="w28" NumberOfComponents="1" format="ascii">
 -7.913508158260713e-10 5.038017871269367e-10 7.913525537310701e-10 -5.038014160309434e-10 8.571882111259223e-9 1.1721761378333786e-10 -7.256537168570278e-9 4.950205757033429e-10 3.3989926859434557e-9 2.8329702109469815e-9 -8.571881273537575e-9 -1.172178709785808e-10 7.2565388587104454e-9 -4.950214281218624e-10 -3.3989936706338144e-9 -2.8329721729792634e-9 0.6859339419462238 0.9759885346868061 0.6933630178715552 0.057730749563932524 3.5793769480256563e-9 -0.057730739743587785 -0.69336291502037 -0.9759883751670013 -0.6859338305546856
</DataArray>
        <DataArray type="Float64" Name="w29" NumberOfComponents="1" format="ascii">
 -1.184152560238563e-9 7.675886296727499e-12 -1.1841532557197075e-9 7.67589466341796e-12 -4.665549060724401e-10 2.718661207020042e-9 5.435824176137461e-9 -3.467200284978764e-9 -2.090198086546511e-9 -9.540533200744474e-10 -4.665549730059638e-10 2.718659584927929e-9 5.435824184504151e-9 -3.4672003853790495e-9 -2.0901982371469396e-9 -9.540535543417804e-10 0.15943043326090117 0.22824094468812675 0.16388780540403158 0.18823071832897195 0.2476026167449487 0.18823069213226992 0.16388775900683858 0.22824090663091573 0.1594304177103144
</DataArray>
        <DataArray type="Float64" Name="w30" NumberOfComponents="1" format="ascii">
 4.876284993725376e-10 4.255819803408663e-10 -4.876321695228317e-10 -4.255812460272279e-10 1.1477186919973033e-9 -1.4617492941995128e-9 -8.582150387435885e-11 -4.994302104593735e-10 7.980027345099354e-10 3.750690633167572e-10 -1.14771904489637e-9 1.4617571386416249e-9 8.583672894838097e-11 4.9941991084804e-10 -7.980092965420461e-10 -3.7507189659212156e-10 0.08179133867225079 0.04245822706271809 -0.032020157458843075 -0.08474974112418049 3.8435579806149474e-7 0.08475031336968937 0.0320206135210116 -0.042457606230911916 -0.08179090723750682
</DataArray>
        <DataArray type="Float64" Name="w31" NumberOfComponents="1" format="ascii">
 -7.985954278177256e-10 -4.141128781179366e-11 7.98594814015195e-10 4.141109748542759e-11 1.407322463525285e-8 -1.8552095055689634e-8 1.3014738238624112e-8 -7.440427951231477e-9 -8.157075020006569e-10 8.091293698125098e-9 -1.407322460480063e-8 1.8552096212873942e-8 -1.301473720324868e-8 7.440426936791946e-9 8.157072831253358e-10 -8.091293420248603e-9 0.7380088521073437 0.019227392247239808 -0.6816357434804466 -0.9999999424226251 4.515493984941071e-8 1.0 0.6816358239671961 -0.019227316220250774 -0.7380087932797489
</DataArray>
        <DataArray type="Float64" Name="w32" NumberOfComponents="1" format="ascii">
 3.839186372517704e-10 -6.693509264914488e-11 3.839191140955569e-10 -6.693510660554838e-11 -1.4864170557310382e-9 1.3926803230473807e-9 -4.499677820584741e-9 3.2633259040136417e-9 4.007401043124544e-10 6.123641862161383e-10 -1.486415599612939e-9 1.3926768292943698e-9 -4.4996762388590095e-9 3.263324452547677e-9 4.0074098821800984e-10 6.123653771625708e-10 -0.06421405570056267 -0.16601476305891366 -0.2236044269920463 -0.0979906024901939 -0.1778301685280886 -0.09799071893653094 -0.22360449845896593 -0.16601475691940007 -0.06421397625616111
</DataArray>
        <DataArray type="Float64" Name="w33" NumberOfComponents="1" format="ascii">
 2.520311776495053e-10 -8.710425741679285e-10 2.520313292395874e-10 -8.710428605047501e-10 5.1704797944477214e-9 5.925540779973829e-9 1.0262988876468028e-9 -1.9011127788283858e-9 -5.137302654337219e-9 -4.464893045046215e-9 5.170479727074352e-9 5.925541933742787e-9 1.0262988792251316e-9 -1.901113486248769e-9 -5.137302393265411e-9 -4.464892809239421e-9 0.3206013882391699 0.4361512247312444 0.2991163109547802 0.4495809005837918 0.6449327660747137 0.44958090857043753 0.2991162999817175 0.43615122585634075 0.32060140445984203
</DataArray>
        <DataArray type="Float64" Name="w34" NumberOfComponents="1" format="ascii">
 2.715146213426559e-10 4.339906285631489e-10 2.7151468933766773e-10 4.339908212156823e-10 -8.355593089749113e-11 -4.660476962159653e-9 3.3028623784891763e-9 -3.490544238576301e-9 4.83562995654694e-9 -6.094211020942126e-10 -8.35551262898515e-11 -4.660477528784752e-9 3.30286276733565e-9 -3.490543479298669e-9 4.835630154865724e-9 -6.094214647342756e-10 -0.04936932004408496 -0.2142469461039224 0.09515229136398458 -0.21837937220428494 0.034598799175094876 -0.2183793856249046 0.09515228622014413 -0.21424695778994948 -0.049369318287904744
</DataArray>
        <DataArray type="Float64" Name="w35" NumberOfComponents="1" format="ascii">
 -4.269792184109429e-10 4.2309531366156426e-10 -4.2697945209871654e-10 4.230959972854991e-10 1.9298750864047943e-8 -2.058123436041551e-9 -1.6553322973530673e-8 1.6118901308759423e-8 2.2775167500466683e-9 -1.9079837822016117e-8 1.929875103146605e-8 -2.058122954714495e-9 -1.6553323615300082e-8 1.6118901057632263e-8 2.277516668081554e-9 -1.907983913345795e-8 1.0 -0.04437801058639865 -0.9352194582961556 -0.04434255961256397 0.03693687355809038 -0.044342554631850904 -0.9352194523662553 -0.04437801746740356 0.9999999783019676
</DataArray>
        <DataArray type="Float64" Name="w36" NumberOfComponents="1" format="ascii">
 2.637769874025532e-10 9.436664932299069e-11 2.637794563588732e-10 9.436763195700208e-11 -1.4091517247767708e-8 1.8895174652849794e-8 -1.412854640369427e-8 1.4333283906666903e-8 -1.894824739357488e-8 1.3581706423137813e-8 -1.4091516851886379e-8 1.889517425696847e-8 -1.4128546912684548e-8 1.4333284488117605e-8 -1.8948245668663377e-8 1.358170621426181e-8 -0.4748063613616188 0.6291252339226903 -0.5120178343134099 0.6243713268493689 -1.0 0.6243713036286037 -0.5120178553160106 0.6291252434837008 -0.4748063491818155
</DataArray>
        <DataArray type="Float64" Name="w37" NumberOfComponents="1" format="ascii">
 -1.7250827053349438e-9 4.146852267481227e-11 1.7250829511164698e-9 -4.146846568199463e-11 3.86097177036597e-10 8.719410320376663e-10 1.004812298946977e-10 -1.6918109716210978e-10 -7.685797128478613e-10 -5.387710009486478e-10 -3.8609271734861624e-10 -8.719464534794449e-10 -1.0047808104152278e-10 1.6917816381302658e-10 7.685849846834934e-10 5.387668921227006e-10 -0.006848138405805497 -0.009808996339332555 0.01426638095030751 0.010499250638486427 1.292865659524049e-7 -0.010499426482914196 -0.014266282585654686 0.009808820716123783 0.006848288644020015
</DataArray>
        <DataArray type="Float64" Name="w38" NumberOfComponents="1" format="ascii">
 -2.0094767181627356e-16 2.24588574382894e-16 1.5366586668303274e-16 6.73765723148682e-16 -7.32867979565233e-16 -1.572120020680258e-15 1.1584042257644006e-15 -1.2160289257705378e-15 9.456361026648167e-16 -1.8912722053296336e-16 5.792021128822003e-16 -3.7529932824509917e-16 1.4568706206679834e-15 -1.6495301244945922e-15 1.0845264052437118e-15 5.407856462114421e-16 -2.9682344635464827e-8 -3.151927727469876e-8 3.821660253833947e-8 -6.166097470032684e-8 2.282907899617447e-10 -2.7775387645783683e-8 1.6176899738741083e-8 -4.71899389026754e-8 -1.4979573633360176e-8
</DataArray>
        <DataArray type="Float64" Name="w39" NumberOfComponents="1" format="ascii">
 1.4307548375637636e-9 -1.7104458743291932e-10 -1.4307547667829263e-9 1.7104438464582068e-10 1.0765948466490899e-9 -3.3654276453676563e-9 3.525880702628899e-10 1.183648801817764e-10 3.1566089435102424e-9 -1.4446566271739762e-9 -1.076594348351996e-9 3.365428228601755e-9 -3.5258818351222943e-10 -1.1836516330512532e-10 -3.1566098948046948e-9 1.444655868403401e-9 -0.008072911236676781 0.06494703704565416 -0.027455145779426534 -0.0429333284794982 3.6762685996604743e-8 0.042933374517748216 0.027455179966869577 -0.06494699200890486 0.008072947507545046
</DataArray>
        <DataArray type="Float64" Name="w40" NumberOfComponents="1" format="ascii">
 1.2996447238358716e-9 2.348476129519805e-10 -1.2996459601923585e-9 -2.348476505421611e-10 1.1370476542154015e-9 -1.1042798550887274e-9 -4.8596704164154424e-9 5.903436766689172e-9 -9.918813222833506e-10 -9.371314158384963e-10 -1.1370472958213512e-9 1.104279126457145e-9 4.859670729495303e-9 -5.9034369973795955e-9 9.918825581249037e-10 9.371318936972302e-10 -0.010084719657810421 -0.002240585776765782 0.1030058067051595 -0.06298814854396742 -6.74976779548811e-9 0.0629881411758582 -0.1030058063830998 0.0022405700145876365 0.01008471590926725
</DataArray>
        <DataArray type="Float64" Name="w41" NumberOfComponents="1" format="ascii">
 -6.044946092052299e-10 -3.6800036337752746e-10 -6.045019887691737e-10 -3.6800185722958765e-10 1.6808064419851443e-9 -1.972407159989781e-9 1.277348243597924e-9 -2.3441648189719125e-10 4.715895318178739e-10 -2.504230382269593e-10 1.6807999088286453e-9 -1.9724009725719683e-9 1.2773751971494454e-9 -2.3444951951185915e-10 4.715946004774844e-10 -2.504182859508638e-10 0.023059394912236884 -0.019983546908656794 0.01152610594773686 -0.024909864099144086 0.033384953061020434 -0.02490951109252066 0.01152553621549089 -0.019983537013485965 0.023059452819212376
</DataArray>
        <DataArray type="Float64" Name="w42" NumberOfComponents="1" format="ascii">
 2.355893867292613e-10 2.1507562129718285e-10 -2.355907298650408e-10 -2.150764640490445e-10 -2.08919739533767e-8 8.627872172487916e-11 1.943388297490805e-8 -3.412455239335033e-8 5.002238487193824e-8 -3.604195635708161e-8 2.089197326864081e-8 -8.627813574897537e-11 -1.943388226383617e-8 3.412455152426247e-8 -5.002238423987435e-8 3.60419569891455e-8 -0.7141288505697649 1.0 -0.679049119699706 -0.01761543043150241 -2.0823264224147867e-9 0.01761543589206477 0.679049124195271 -0.9999999983099309 0.7141288467004284
</DataArray>
        <DataArray type="Float64" Name="w43" NumberOfComponents="1" format="ascii">
 1.6937414434235287e-9 -4.4950208732850653e-10 1.6937412406152186e-9 -4.495024807449393e-10 -1.0706103654037677e-9 -8.073735979768051e-10 1.4196133551182279e-9 -5.926449911532499e-10 1.5457372066600141e-9 -1.7389610140415188e-9 -1.0706099800679785e-9 -8.073728298403306e-10 1.4196145060553877e-9 -5.926463423636159e-10 1.5457364638745783e-9 -1.7389597566299962e-9 -0.003333712176586826 -0.026585683371631922 0.015423819784444279 -0.0114895371426652 -0.009837556511706128 -0.011489511809007723 0.015423797467285949 -0.026585694391403167 -0.003333694115219778
</DataArray>
        <DataArray type="Float64" Name="w44" NumberOfComponents="1" format="ascii">
 -4.238229896507426e-10 7.0752978176802e-10 4.238238230495623e-10 -7.075292766132366e-10 -1.3096869929155317e-8 -1.8861433269224216e-8 -1.2254260091531797e-8 4.3467508509224413e-8 -4.883983941739712e-10 -4.4437490380146514e-8 1.3096871335915473e-8 1.8861432979346367e-8 1.2254259498987367e-8 -4.346750670175076e-8 4.883959600526102e-10 4.443748980891663e-8 -0.6975695596735331 -0.018130975345247054 0.7112206033655744 -1.0 1.4364407917865456e-10 0.9999999881575315 -0.7112206239183717 0.018130972439416478 0.6975695650379968
</DataArray>
        <DataArray type="Float64" Name="w45" NumberOfComponents="1" format="ascii">
 6.339671691050172e-10 -4.858812304887709e-10 -6.339678398629161e-10 4.858818833796447e-10 -4.660982260697437e-9 -3.734808736547125e-9 -1.0585936149985235e-9 8.3546035186599e-9 1.1534055522138152e-9 -1.0282675077931322e-8 4.660982013536924e-9 3.734808758880907e-9 1.0585943505243884e-9 -8.354604352454404e-9 -1.1534051114938638e-9 1.0282674872460534e-8 -0.17161250138006529 0.024454614179376735 0.1281616030574393 -0.2133131162887643 3.2109603175348135e-10 0.21331312458716226 -0.12816159539873645 -0.0244546132201989 0.17161250468419859
</DataArray>
        <DataArray type="Float64" Name="w46" NumberOfComponents="1" format="ascii">
 2.1427496032406647e-9 7.679303483722092e-10 2.1427488553829646e-9 7.67929977233873e-10 6.278617971341227e-11 -1.1408634062173242e-9 -2.7385397712740773e-9 4.732056513631855e-9 -3.861000573309282e-9 3.4881355593527946e-11 6.278678385965112e-11 -1.1408632834347168e-9 -2.7385398996377126e-9 4.732056410382844e-9 -3.861000838408094e-9 3.488228727632468e-11 -0.004729266523897313 0.007732679242973108 -0.043262275324354206 -0.03281305198663482 0.008485386276605717 -0.0328130354932762 -0.043262282401554684 0.0077326736608851684 -0.004729250447189937
</DataArray>
        <DataArray type="Float64" Name="w47" NumberOfComponents="1" format="ascii">
 -7.436427393901988e-11 -8.697320956774777e-11 -7.436660668824979e-11 -8.697408260263919e-11 -1.495923515549877e-8 -2.0862551380664973e-8 -1.4346354529813416e-8 8.556952602541188e-8 -1.2116841571743057e-7 8.59283697244615e-8 -1.4959235164774762e-8 -2.0862550877796875e-8 -1.4346351980551533e-8 8.556952367520195e-8 -1.2116841116629967e-7 8.59283652405543e-8 -0.49862928206353985 0.7066804416243745 -0.4970052947277796 -0.7044068544897045 1.0 -0.7044068426034514 -0.4970053176868978 0.7066804600099211 -0.4986292877185742
</DataArray>
        <DataArray type="Float64" Name="w48" NumberOfComponents="1" format="ascii">
 1.113919400363691e-9 4.665361764179534e-10 -1.1139186820436762e-9 -4.665361251093808e-10 -4.232953168349254e-10 -2.053242296047258e-10 -8.51202163986965e-10 1.2358538017240731e-9 -1.6021695570658046e-9 1.1736967477653802e-9 4.2329978495644625e-10 2.0533003174913134e-10 8.51204869178003e-10 -1.2358756014538091e-9 1.6022030957693544e-9 -1.1737218205544695e-9 -0.0010404265358242646 -0.005321600261875711 0.009368927434728452 -0.007285553481024234 -1.4167004945813502e-7 0.007285745156256272 -0.009368798734772086 0.005321400351114376 0.0010405681527432128
</DataArray>
        <DataArray type="Float64" Name="w49" NumberOfComponents="1" format="ascii">
 -5.534283766146564e-10 -3.6284590887745994e-10 -5.534284773636293e-10 -3.628456213899449e-10 7.678072396629177e-10 2.619306449881429e-10 4.199349819619369e-10 -1.0687806733676396e-9 1.6762410097091725e-9 -1.140859807518627e-9 7.678073218022077e-10 2.619310120480951e-10 4.199352360803653e-10 -1.0687808966838344e-9 1.6762411970894279e-9 -1.140860032118248e-9 0.007014633018443539 -0.00975205807273147 0.00771712286781974 0.010328150922022373 -0.01371723804676157 0.010328150524996749 0.007717122607549322 -0.00975205768071994 0.00701463230400118
</DataArray>
        <DataArray type="Float64" Name="w50" NumberOfComponents="1" format="ascii">
 0.44039191912448034 0.44039191883888956 -0.44039191912903314 -0.4403919188405961 -0.8486436013503607 0.9999999999905956 -0.8486436002929068 -0.11009798329543734 -5.7413973169811925e-11 0.11009798300018422 0.8486436013596509 -1.0 0.8486436002971331 0.11009798329626151 5.7062756217830986e-11 -0.11009798299899824 0.21216090788254854 -1.8930605659453776e-10 -0.21216090737745305 -0.25000000810632805 -6.981511198256482e-13 0.25000000810955897 0.2121609073760576 1.899454832400632e-10 -0.2121609078850695
</DataArray>
        <DataArray type="Float64" Name="w51" NumberOfComponents="1" format="ascii">
 -0.44572644751725726 -0.445726447166281 -0.4457264475144934 -0.44572644716063736 0.8502136353232587 -1.0 0.8502136341383683 0.1273504187532474 -0.06367521183716937 0.12735041830541396 0.8502136353185237 -0.9999999999929094 0.8502136341285553 0.12735041875208566 -0.06367521183708832 0.12735041830612 -0.24291819218090765 0.12145909981937332 -0.24291819165913264 0.2857142975177269 -0.142857153488253 0.2857142975164034 -0.24291819166154519 0.12145909981976057 -0.24291819217983956
</DataArray>
        <DataArray type="Float64" Name="w52" NumberOfComponents="1" format="ascii">
 -0.8143265886183456 0.8143265887417274 -0.8143265885609029 0.8143265886864646 0.9999999995103016 6.460516546625594e-10 -1.0 -0.20358165233677905 -1.72059286884982e-10 0.2035816522213711 0.9999999994410131 6.497063044720731e-10 -0.9999999999337413 -0.20358165232164796 -1.8015334006614843e-10 0.20358165223771998 -0.2500000101290423 -3.9124679485982216e-10 0.25000000842601655 -1.387971068428658e-9 -3.861942766727856e-10 -1.3891520947658223e-9 0.25000000844488407 -4.01274972706886e-10 -0.25000001010932765
</DataArray>
        <DataArray type="Float64" Name="w53" NumberOfComponents="1" format="ascii">
 0.8216731723607996 -0.8216731725320988 -0.8216731724148311 0.8216731725883557 -0.9999999994187967 -4.4481232005752626e-10 0.9999999999299313 0.2347637715435438 -0.11738189127190012 0.23476377138504764 0.9999999994858217 4.484656307969609e-10 -1.0 -0.23476377155832678 0.11738189127230783 -0.234763771371607 0.28571429946698984 -0.14285715318436143 0.28571429809488336 1.1240314711378757e-9 4.594613693150804e-13 -1.1254053756252403e-9 -0.2857142980771806 0.14285715318423498 -0.2857142994837947
</DataArray>
        <DataArray type="Float64" Name="w54" NumberOfComponents="1" format="ascii">
 0.9057658753341373 0.905765876271833 -0.9057658752975686 -0.9057658762337285 -0.21706464837510156 -1.0 -0.21706464789468327 -0.2264414768979575 -2.0651570394534664e-9 0.2264414751637976 0.21706464836791156 0.9999999999583357 0.21706464788701765 0.22644147688915459 2.0706875969275663e-9 -0.22644147517587213 0.05426616471661724 9.373348484772269e-10 -0.05426616400581259 0.2500000089050888 -3.119107050685505e-12 -0.25000000889331664 0.05426616400869326 -9.385660126894367e-10 -0.05426616471503709
</DataArray>
        <DataArray type="Float64" Name="w55" NumberOfComponents="1" format="ascii">
 0.9085363600178387 0.9085363611314832 0.9085363600559831 0.9085363611680843 -0.21384999280339925 -0.9999999999592548 -0.21384999233926477 -0.25958182923915724 0.12979091908014595 -0.2595818258962773 -0.21384999281393405 -1.0 -0.21384999234931792 -0.25958182925086426 0.12979091908264578 -0.25958182588882067 0.06110000190308949 -0.030550000614950626 0.061100000457195616 0.2857142985223145 -0.14285715297131946 0.2857142985326551 0.06110000045557898 -0.030550000615985663 0.061100001906482855
</DataArray>
        <DataArray type="Float64" Name="w56" NumberOfComponents="1" format="ascii">
 6.506903771697767e-9 -8.287934426940475e-9 -6.506805826373109e-9 8.288196879677154e-9 4.566747790766646e-9 8.19656404093145e-10 -4.227170968300242e-9 -0.5060958856250359 -0.6792497758092789 -0.5060993136647781 -4.566771027322874e-9 -8.198160107673358e-10 4.227132514576962e-9 0.5060993127158481 0.6792497758091842 0.5060958865747696 0.2530479438200302 0.3396248884639151 0.25304965672681945 2.0835835201007638e-10 -5.221050517413078e-13 -2.0907288190008357e-10 -0.25304794318171825 -0.3396248884640451 -0.2530496573650273
</DataArray>
        <DataArray type="Float64" Name="w57" NumberOfComponents="1" format="ascii">
 -1.614687308441155e-8 1.783313356838697e-8 -1.614591512295526e-8 1.7834262776144813e-8 -9.271280396786828e-9 -7.726582678338819e-10 8.87821411842511e-9 0.9040775488790423 3.419870186430397e-6 -0.9040776202560238 -9.271382979369831e-9 -7.735724518398156e-10 8.877958114929656e-9 0.9040776192268258 -3.4188420166172072e-6 -0.9040775499077213 -0.45203877915221113 -1.7094519670704742e-6 0.4520388136506323 -2.1266191005418588e-10 1.0387560315606995e-10 -2.137893947798952e-10 0.4520387784769303 1.70990411862186e-6 -0.4520388143260719
</DataArray>
        <DataArray type="Float64" Name="w58" NumberOfComponents="1" format="ascii">
 -2.0825929148611545e-8 2.0359970564016497e-8 2.0824666472275656e-8 -2.036127346940743e-8 -1.0565263467790193e-8 2.1938427421927906e-10 1.058137631687963e-8 0.6896629251183677 -0.9999999999993326 0.6896604792895583 1.0565371022641736e-8 -2.1824258077541216e-10 -1.0581034644223956e-8 -0.6896604796756223 1.0 -0.6896629247307542 -0.3448314711930608 0.5000000124517298 -0.34483024848256827 -9.640842257456609e-11 -6.68424359928231e-13 9.711623061851945e-11 0.3448314712038424 -0.5000000124516226 0.3448302484720511
</DataArray>
        <DataArray type="Float64" Name="w59" NumberOfComponents="1" format="ascii">
 -1.0 0.999999999353006 -0.9999999999730382 0.9999999993256327 -0.644675211414045 -6.517192399763438e-11 0.6446752111427634 -0.25000000767894237 -2.6797220344644966e-10 0.25000000891976676 -0.6446752113957509 -6.677581772578794e-11 0.644675211124651 -0.25000000767277014 -2.720648835687455e-10 0.2500000089286621 0.16116880886164553 -1.685226307217607e-10 -0.16116880753855317 6.81122010183919e-10 -1.2151408155006937e-10 6.80778984076027e-10 -0.16116880754259158 -1.6582602434755957e-10 0.16116880885567042
</DataArray>
        <DataArray type="Float64" Name="w60" NumberOfComponents="1" format="ascii">
 -0.9999999999723729 0.9999999995290244 1.0 -0.999999999556251 -0.6456003445204884 -2.5267959479632957e-12 0.6456003444008681 -0.28571429741327015 0.14285715347436678 -0.28571429846805135 0.6456003445374271 4.128778407629715e-12 -0.6456003444179985 0.285714297421969 -0.1428571534761274 0.28571429846258434 0.18445724973545832 -0.09222862754333447 0.1844572485987743 5.954699958159222e-10 -4.414644492731989e-13 -5.949965878778366e-10 -0.1844572485931572 0.09222862754201169 -0.18445724973871544
</DataArray>
        <DataArray type="Float64" Name="w61" NumberOfComponents="1" format="ascii">
 1.1449013642828456e-6 1.144901364287255e-6 3.1876050675161703e-7 3.187605067547901e-7 1.1449013642839446e-6 1.1449013642850479e-6 1.1449013642861507e-6 -2.7255512706745866e-7 1.2601599635329564e-7 -6.351508920075166e-7 3.187605067524092e-7 3.187605067532028e-7 3.1876050675399555e-7 -6.351508920100277e-7 1.2601599635147007e-7 -2.725551270678786e-7 -2.7255512706777333e-7 1.2601599635192662e-7 -6.351508920094012e-7 -2.725551270676687e-7 1.2601599635238232e-7 -6.351508920087716e-7 -2.7255512706756385e-7 1.2601599635283988e-7 -6.351508920081456e-7
</DataArray>
        <DataArray type="Float64" Name="w62" NumberOfComponents="1" format="ascii">
 -0.00012599536980802088 -0.00012599536980850546 -3.553496726167823e-5 -3.553496726201838e-5 -0.00012599536980814152 -0.0001259953698082628 -0.00012599536980838409 3.142955074247534e-5 -1.276665843482492e-5 6.739450467244693e-5 -3.553496726176316e-5 -3.5534967261848236e-5 -3.5534967261933224e-5 6.739450467271342e-5 -1.2766658434654812e-5 3.142955074253183e-5 3.142955074251767e-5 -1.276665843469735e-5 6.739450467264696e-5 3.142955074250359e-5 -1.27666584347398e-5 6.739450467258015e-5 3.1429550742489476e-5 -1.276665843478246e-5 6.73945046725137e-5
</DataArray>
        <DataArray type="Float64" Name="w63" NumberOfComponents="1" format="ascii">
 0.0011716389861889788 0.001171638986199441 0.00425997287030134 0.004259972870316717 0.0011716389861915965 0.0011716389861942088 0.0011716389861968258 -0.0007254004163055725 0.0005322362199716373 -0.0026100957736852975 0.004259972870305178 0.004259972870309022 0.004259972870312869 -0.002610095773688428 0.0005322362199564768 -0.0007254004162970171 -0.0007254004162991567 0.0005322362199602684 -0.002610095773687648 -0.0007254004163012947 0.0005322362199640558 -0.002610095773686861 -0.0007254004163034352 0.0005322362199678485 -0.0026100957736860833
</DataArray>
        <DataArray type="Float64" Name="w64" NumberOfComponents="1" format="ascii">
 -0.013433113129484524 -0.01343311312942665 -0.0014033811615218566 -0.0014033811614625516 -0.01343311312947007 -0.013433113129455597 -0.01343311312944112 0.0005929446140159956 0.023423263335963132 0.0031874200603934514 -0.0014033811615070228 -0.001403381161492204 -0.0014033811614773725 0.003187420060256322 0.02342326333598 0.0005929446142232604 0.0005929446141714485 0.023423263335975775 0.0031874200602906052 0.0005929446141196254 0.023423263335971587 0.003187420060324885 0.0005929446140678144 0.023423263335967365 0.003187420060359178
</DataArray>
        <DataArray type="Float64" Name="w65" NumberOfComponents="1" format="ascii">
 0.02419250617882985 0.02419250617835312 0.014018807659292327 0.0140188076590753 0.024192506178710643 0.02419250617859152 0.024192506178472302 0.007811220203544775 -0.1537499457895925 -0.08139867553979335 0.014018807659237955 0.01401880765918372 0.014018807659129473 -0.0813986755389751 -0.15374994579032364 0.007811220202484368 0.007811220202749483 -0.15374994579014098 -0.08139867553917964 0.007811220203014576 -0.15374994578995824 -0.08139867553938417 0.007811220203279669 -0.15374994578977536 -0.08139867553958884
</DataArray>
        <DataArray type="Float64" Name="w66" NumberOfComponents="1" format="ascii">
 0.012851607623829756 0.012851607623728011 0.03896064242914327 0.03896064242912586 0.012851607623804284 0.012851607623778918 0.012851607623753479 -0.025456365759546195 -0.07889492523062366 -0.049634233785304974 0.038960642429138805 0.03896064242913445 0.038960642429130186 -0.04963423378491361 -0.07889492523082889 -0.025456365759999284 -0.02545636575988604 -0.07889492523077764 -0.04963423378501143 -0.02545636575977278 -0.07889492523072635 -0.04963423378510924 -0.025456365759659497 -0.078894925230675 -0.04963423378520714
</DataArray>
        <DataArray type="Float64" Name="w67" NumberOfComponents="1" format="ascii">
 0.05294926405048503 0.052949264050655025 0.008636508912686074 0.008636508912777105 0.05294926405052799 0.05294926405056985 0.05294926405061235 0.006399260469700821 0.028512335341067178 0.0012714192961042175 0.008636508912708486 0.008636508912731846 0.008636508912754809 0.0012714192959503014 0.02851233534107076 0.00639926046973564 0.006399260469726473 0.028512335341070043 0.0012714192959892149 0.006399260469718066 0.028512335341069162 0.0012714192960274864 0.006399260469709398 0.02851233534106825 0.0012714192960656615
</DataArray>
        <DataArray type="Float64" Name="w68" NumberOfComponents="1" format="ascii">
 -0.15516641162561826 -0.15516641162811975 0.30063863881275404 0.3006386388118596 -0.15516641162624314 -0.15516641162686834 -0.15516641162749428 0.24048811525848962 -0.32522249762306316 -0.03230938922042705 0.30063863881253006 0.30063863881230624 0.3006386388120828 -0.03230938921729733 -0.32522249762570515 0.24048811525606595 0.24048811525667207 -0.3252224976250448 -0.03230938921807946 0.2404881152572779 -0.325222497624385 -0.032309389218861805 0.24048811525788408 -0.325222497623724 -0.03230938921964433
</DataArray>
        <DataArray type="Float64" Name="w69" NumberOfComponents="1" format="ascii">
 0.18246965943365645 0.182469659434553 -0.02040460200305676 -0.020404602001921283 0.18246965943388066 0.18246965943410476 0.1824696594343288 -0.001558511661002253 0.06415164513616652 -0.29912417003521674 -0.02040460200277262 -0.020404602002488764 -0.020404602002205053 -0.29912417003636277 0.06415164513404217 -0.0015585116604116603 -0.0015585116605594943 0.0641516451345732 -0.29912417003607605 -0.001558511660707455 0.06415164513510443 -0.29912417003578945 -0.0015585116608550532 0.06415164513563566 -0.2991241700355032
</DataArray>
        <DataArray type="Float64" Name="w70" NumberOfComponents="1" format="ascii">
 -0.05883520758014903 -0.058835207575051625 -0.4534993354805525 -0.45349933547922805 -0.05883520757887542 -0.05883520757760026 -0.058835207576326466 -1.0 0.21227376618702376 0.012608067958055986 -0.45349933548022126 -0.45349933547989 -0.453499335479559 0.012608067953535924 0.21227376619573318 -0.9999999999959367 -0.9999999999969525 0.21227376619355612 0.012608067954664796 -0.9999999999979686 0.21227376619137928 0.012608067955794682 -0.9999999999989839 0.2122737661892007 0.01260806795692571
</DataArray>
        <DataArray type="Float64" Name="w71" NumberOfComponents="1" format="ascii">
 -0.9358476162296774 -0.9358476162301375 0.07599285802054538 0.07599285802058614 -0.9358476162297927 -0.9358476162299073 -0.9358476162300225 -0.15373033102525904 0.20064500814901542 0.23821159681758017 0.07599285802055601 0.07599285802056588 0.0759928580205763 0.23821159681684684 0.20064500815140918 -0.15373033102107359 -0.15373033102211983 0.20064500815081088 0.23821159681702983 -0.15373033102316674 0.20064500815021286 0.23821159681721277 -0.15373033102421232 0.20064500814961428 0.23821159681739634
</DataArray>
        <DataArray type="Float64" Name="w72" NumberOfComponents="1" format="ascii">
 -0.3327760095698717 -0.33277600956858944 -0.2672071138445694 -0.26720711384318013 -0.3327760095695515 -0.33277600956923054 -0.33277600956890957 -0.17613191768850836 0.21512543914369192 -0.26783134980282186 -0.2672071138442224 -0.2672071138438751 -0.2672071138435282 -0.2678313498055983 0.21512543914302396 -0.1761319176849177 -0.176131917685815 0.2151254391431907 -0.267831349804904 -0.17613191768671307 0.21512543914335797 -0.26783134980420975 -0.17613191768761058 0.21512543914352497 -0.26783134980351603
</DataArray>
        <DataArray type="Float64" Name="w73" NumberOfComponents="1" format="ascii">
 0.3449318875296868 0.34493188753039017 -0.15291123858151243 -0.1529112385813241 0.344931887529863 0.34493188753003773 0.3449318875302138 0.31423191826077784 0.480264939945152 0.25944188381999084 -0.15291123858146463 -0.15291123858141784 -0.15291123858137076 0.2594418838179542 0.48026493994504144 0.3142319182619822 0.31423191826168145 0.4802649399450687 0.259441883818463 0.31423191826138025 0.4802649399450971 0.2594418838189721 0.3142319182610788 0.4802649399451244 0.25944188381948163
</DataArray>
        <DataArray type="Float64" Name="w74" NumberOfComponents="1" format="ascii">
 -0.01396648323528087 -0.013966483233594385 0.02876292132960422 0.02876292133158691 -0.013966483234858615 -0.013966483234437105 -0.013966483234015715 -0.1122900202502259 0.21390696830360845 -0.3700019634210468 0.028762921330099177 0.028762921330594746 0.028762921331090045 -0.3700019634234099 0.21390696830172465 -0.1122900202474923 -0.11229002024817632 0.21390696830219583 -0.37000196342281877 -0.11229002024885947 0.21390696830266687 -0.3700019634222276 -0.11229002024954254 0.2139069683031376 -0.3700019634216371
</DataArray>
        <DataArray type="Float64" Name="w75" NumberOfComponents="1" format="ascii">
 0.05738881648314082 0.05738881648281667 0.1934269184109145 0.19342691840971266 0.057388816483060004 0.05738881648297974 0.057388816482898314 -0.20035173708350865 -0.2816506317584782 0.2501752865349615 0.19342691841061432 0.19342691841031348 0.1934269184100124 0.2501752865371398 -0.281650631755004 -0.2003517370858346 -0.20035173708525345 -0.2816506317558721 0.2501752865365951 -0.2003517370846717 -0.2816506317567408 0.25017528653604987 -0.20035173708408996 -0.28165063175761007 0.2501752865355058
</DataArray>
      </PointData>
    </Piece>
    <FieldData>
      <DataArray type="Float64" Name="lambda_real" NumberOfComponents="1" NumberOfTuples="75" format="ascii">
 -Inf -Inf -Inf -Inf -Inf -Inf -Inf -Inf -Inf -Inf -Inf -Inf -Inf -Inf -Inf -Inf -Inf -Inf -Inf -Inf 4.702894558417575e10 4.7658649448635796e10 5.287611755171847e10 5.661509919086921e10 6.1125384348014084e10 6.6268958530922134e10 6.96948743320647e10 7.415462321619818e10 7.680054995482872e10 8.009658551957118e10 8.747519132227274e10 9.482949631300006e10 1.1597931104614134e11 1.197334114846281e11 1.2538823490736995e11 1.2825150794979086e11 1.2985818119121776e11 1.503548536053882e11 1.560922915762259e11 1.905395637966596e11 1.9099566578560406e11 2.322015984497727e11 2.6664334383534357e11 3.479374471814938e11 3.554812100424843e11 4.249274719428479e11 8.401489602853699e11 8.517230550961578e11 1.2129753203484077e12 1.7794613850307133e18 1.8125170529421665e18 3.2341393599651743e18 3.2853274408539044e18 8.090668763371663e18 8.213524916263574e18 1.0000000062441732e19 1.0000000293179884e19 1.0000000731134163e19 3.533728989364037e19 3.5881339995423605e19 Inf Inf Inf Inf Inf Inf Inf Inf Inf Inf Inf Inf Inf Inf Inf
</DataArray>
      <DataArray type="Float64" Name="lambda_imag" NumberOfComponents="1" NumberOfTuples="75" format="ascii">
 0.0 0.0 0.0 0.0 0.0 0.0 0.0 0.0 0.0 0.0 0.0 0.0 0.0 0.0 0.0 0.0 0.0 0.0 0.0 0.0 0.0 0.0 0.0 0.0 0.0 0.0 0.0 0.0 0.0 0.0 0.0 0.0 0.0 0.0 0.0 0.0 0.0 0.0 0.0 0.0 0.0 0.0 0.0 0.0 0.0 0.0 0.0 0.0 0.0 0.0 0.0 0.0 0.0 0.0 0.0 0.0 0.0 0.0 0.0 0.0 0.0 0.0 0.0 0.0 0.0 0.0 0.0 0.0 0.0 0.0 0.0 0.0 0.0 0.0 0.0
</DataArray>
      <DataArray type="Float64" Name="lambda_isfinite" NumberOfComponents="1" NumberOfTuples="75" format="ascii">
 0.0 0.0 0.0 0.0 0.0 0.0 0.0 0.0 0.0 0.0 0.0 0.0 0.0 0.0 0.0 0.0 0.0 0.0 0.0 0.0 1.0 1.0 1.0 1.0 1.0 1.0 1.0 1.0 1.0 1.0 1.0 1.0 1.0 1.0 1.0 1.0 1.0 1.0 1.0 1.0 1.0 1.0 1.0 1.0 1.0 1.0 1.0 1.0 1.0 1.0 1.0 1.0 1.0 1.0 1.0 1.0 1.0 1.0 1.0 1.0 0.0 0.0 0.0 0.0 0.0 0.0 0.0 0.0 0.0 0.0 0.0 0.0 0.0 0.0 0.0
</DataArray>
      <DataArray type="Float64" Name="lambda_isinf" NumberOfComponents="1" NumberOfTuples="75" format="ascii">
 1.0 1.0 1.0 1.0 1.0 1.0 1.0 1.0 1.0 1.0 1.0 1.0 1.0 1.0 1.0 1.0 1.0 1.0 1.0 1.0 0.0 0.0 0.0 0.0 0.0 0.0 0.0 0.0 0.0 0.0 0.0 0.0 0.0 0.0 0.0 0.0 0.0 0.0 0.0 0.0 0.0 0.0 0.0 0.0 0.0 0.0 0.0 0.0 0.0 0.0 0.0 0.0 0.0 0.0 0.0 0.0 0.0 0.0 0.0 0.0 1.0 1.0 1.0 1.0 1.0 1.0 1.0 1.0 1.0 1.0 1.0 1.0 1.0 1.0 1.0
</DataArray>
      <DataArray type="Float64" Name="lambda_isnan" NumberOfComponents="1" NumberOfTuples="75" format="ascii">
 0.0 0.0 0.0 0.0 0.0 0.0 0.0 0.0 0.0 0.0 0.0 0.0 0.0 0.0 0.0 0.0 0.0 0.0 0.0 0.0 0.0 0.0 0.0 0.0 0.0 0.0 0.0 0.0 0.0 0.0 0.0 0.0 0.0 0.0 0.0 0.0 0.0 0.0 0.0 0.0 0.0 0.0 0.0 0.0 0.0 0.0 0.0 0.0 0.0 0.0 0.0 0.0 0.0 0.0 0.0 0.0 0.0 0.0 0.0 0.0 0.0 0.0 0.0 0.0 0.0 0.0 0.0 0.0 0.0 0.0 0.0 0.0 0.0 0.0 0.0
</DataArray>
    </FieldData>
  </UnstructuredGrid>
</VTKFile>
