<?xml version="1.0" encoding="utf-8"?>
<VTKFile type="UnstructuredGrid" version="1.0" byte_order="LittleEndian" header_type="UInt64">
  <UnstructuredGrid>
    <Piece NumberOfPoints="169" NumberOfCells="144">
      <Points>
        <DataArray type="Float64" Name="Points" NumberOfComponents="3" format="ascii">
 0.0 0.0 0.0 1.0 0.0 0.0 1.0 1.0 0.0 0.0 1.0 0.0 0.08333333333317297 0.0 0.0 0.1666666666663209 0.0 0.0 0.2499999999994109 0.0 0.0 0.333333333332501 0.0 0.0 0.4166666666655911 0.0 0.0 0.499999999998692 0.0 0.0 0.5833333333322344 0.0 0.0 0.6666666666657874 0.0 0.0 0.7499999999993405 0.0 0.0 0.8333333333328937 0.0 0.0 0.9166666666664468 0.0 0.0 1.0 0.08333333333317297 0.0 1.0 0.1666666666663209 0.0 1.0 0.2499999999994109 0.0 1.0 0.333333333332501 0.0 1.0 0.4166666666655911 0.0 1.0 0.499999999998692 0.0 1.0 0.5833333333322344 0.0 1.0 0.6666666666657874 0.0 1.0 0.7499999999993405 0.0 1.0 0.8333333333328937 0.0 1.0 0.9166666666664468 0.0 0.9166666666663197 1.0 0.0 0.833333333333102 1.0 0.0 0.7500000000003471 1.0 0.0 0.6666666666675918 1.0 0.0 0.5833333333348364 1.0 0.0 0.5000000000020595 1.0 0.0 0.416666666668401 1.0 0.0 0.3333333333347207 1.0 0.0 0.2500000000010405 1.0 0.0 0.1666666666673604 1.0 0.0 0.0833333333336802 1.0 0.0 0.0 0.9166666666663197 0.0 0.0 0.833333333333102 0.0 0.0 0.7500000000003471 0.0 0.0 0.6666666666675918 0.0 0.0 0.5833333333348364 0.0 0.0 0.5000000000020595 0.0 0.0 0.416666666668401 0.0 0.0 0.3333333333347207 0.0 0.0 0.2500000000010405 0.0 0.0 0.1666666666673604 0.0 0.0 0.0833333333336802 0.0 0.08333333333321523 0.08333333333363795 0.0 0.0833333333332575 0.1666666666672738 0.0 0.08333333333329981 0.2500000000009047 0.0 0.08333333333334206 0.3333333333345357 0.0 0.08333333333338432 0.4166666666681669 0.0 0.08333333333342659 0.5000000000017788 0.0 0.08333333333346886 0.5833333333346196 0.0 0.0833333333335111 0.6666666666674415 0.0 0.0833333333335534 0.7500000000002632 0.0 0.08333333333359565 0.8333333333330848 0.0 0.08333333333363795 0.9166666666663303 0.0 0.1666666666664075 0.08333333333359565 0.0 0.1666666666664941 0.1666666666671872 0.0 0.1666666666665808 0.2500000000007689 0.0 0.1666666666666674 0.3333333333343508 0.0 0.166666666666754 0.4166666666679327 0.0 0.1666666666668406 0.5000000000014984 0.0 0.1666666666669273 0.5833333333344026 0.0 0.1666666666670139 0.6666666666672908 0.0 0.1666666666671005 0.7500000000001792 0.0 0.1666666666671871 0.8333333333330672 0.0 0.1666666666672738 0.9166666666663409 0.0 0.2499999999995467 0.08333333333355342 0.0 0.2499999999996825 0.1666666666671006 0.0 0.2499999999998183 0.2500000000006332 0.0 0.2499999999999541 0.3333333333341658 0.0 0.2500000000000899 0.4166666666676986 0.0 0.2500000000002257 0.5000000000012177 0.0 0.2500000000003615 0.5833333333341859 0.0 0.2500000000004973 0.6666666666671408 0.0 0.250000000000633 0.7500000000000954 0.0 0.2500000000007689 0.8333333333330499 0.0 0.2500000000009047 0.9166666666663514 0.0 0.333333333332686 0.08333333333351112 0.0 0.333333333332871 0.1666666666670139 0.0 0.3333333333330559 0.2500000000004973 0.0 0.3333333333332409 0.3333333333339809 0.0 0.3333333333334259 0.4166666666674644 0.0 0.3333333333336109 0.500000000000937 0.0 0.3333333333337958 0.5833333333339692 0.0 0.3333333333339808 0.6666666666669903 0.0 0.3333333333341658 0.7500000000000113 0.0 0.3333333333343508 0.8333333333330326 0.0 0.3333333333345358 0.9166666666663621 0.0 0.4166666666658253 0.08333333333346886 0.0 0.4166666666660594 0.1666666666669273 0.0 0.4166666666662936 0.2500000000003615 0.0 0.4166666666665277 0.3333333333337958 0.0 0.4166666666667619 0.4166666666672302 0.0 0.416666666666996 0.5000000000006564 0.0 0.4166666666672303 0.5833333333337523 0.0 0.4166666666674643 0.6666666666668399 0.0 0.4166666666676986 0.7499999999999275 0.0 0.4166666666679326 0.8333333333330154 0.0 0.4166666666681669 0.9166666666663728 0.0 0.4999999999989727 0.08333333333342659 0.0 0.4999999999992533 0.1666666666668406 0.0 0.4999999999995339 0.2500000000002257 0.0 0.4999999999998146 0.3333333333336109 0.0 0.5000000000000953 0.416666666666996 0.0 0.5000000000003757 0.5000000000003757 0.0 0.5000000000006564 0.5833333333335353 0.0 0.500000000000937 0.6666666666666896 0.0 0.5000000000012177 0.7499999999998438 0.0 0.5000000000014984 0.8333333333329979 0.0 0.5000000000017788 0.9166666666663832 0.0 0.5833333333324511 0.08333333333338432 0.0 0.5833333333326682 0.166666666666754 0.0 0.583333333332885 0.2500000000000899 0.0 0.5833333333331019 0.3333333333334258 0.0 0.5833333333333186 0.4166666666667619 0.0 0.5833333333335353 0.500000000000095 0.0 0.5833333333337523 0.5833333333333186 0.0 0.583333333333969 0.6666666666665393 0.0 0.5833333333341859 0.7499999999997601 0.0 0.5833333333344026 0.8333333333329805 0.0 0.5833333333346196 0.9166666666663938 0.0 0.6666666666659378 0.08333333333334207 0.0 0.6666666666660882 0.1666666666666674 0.0 0.6666666666662384 0.2499999999999541 0.0 0.666666666666389 0.3333333333332409 0.0 0.6666666666665393 0.4166666666665277 0.0 0.6666666666666896 0.4999999999998144 0.0 0.6666666666668399 0.5833333333331017 0.0 0.6666666666669903 0.666666666666389 0.0 0.6666666666671408 0.7499999999996761 0.0 0.6666666666672909 0.8333333333329629 0.0 0.6666666666674415 0.9166666666664045 0.0 0.7499999999994243 0.08333333333329977 0.0 0.7499999999995082 0.1666666666665808 0.0 0.749999999999592 0.2499999999998183 0.0 0.749999999999676 0.3333333333330559 0.0 0.7499999999997601 0.4166666666662936 0.0 0.7499999999998436 0.4999999999995339 0.0 0.7499999999999277 0.583333333332885 0.0 0.7500000000000114 0.6666666666662384 0.0 0.7500000000000953 0.7499999999995921 0.0 0.7500000000001793 0.8333333333329457 0.0 0.7500000000002632 0.9166666666664152 0.0 0.8333333333329112 0.08333333333325753 0.0 0.8333333333329282 0.1666666666664941 0.0 0.8333333333329456 0.2499999999996825 0.0 0.8333333333329631 0.3333333333328709 0.0 0.8333333333329803 0.4166666666660594 0.0 0.8333333333329979 0.4999999999992533 0.0 0.8333333333330152 0.583333333332668 0.0 0.8333333333330326 0.6666666666660883 0.0 0.83333333333305 0.7499999999995083 0.0 0.8333333333330674 0.8333333333329284 0.0 0.8333333333330847 0.9166666666664256 0.0 0.9166666666664363 0.08333333333321523 0.0 0.9166666666664255 0.1666666666664075 0.0 0.9166666666664152 0.2499999999995467 0.0 0.9166666666664045 0.3333333333326859 0.0 0.9166666666663938 0.4166666666658253 0.0 0.9166666666663832 0.4999999999989727 0.0 0.9166666666663728 0.5833333333324513 0.0 0.9166666666663619 0.6666666666659378 0.0 0.9166666666663514 0.7499999999994243 0.0 0.9166666666663408 0.833333333332911 0.0 0.9166666666663303 0.9166666666664363 0.0
</DataArray>
      </Points>
      <Cells>
        <DataArray type="Int64" Name="connectivity" NumberOfComponents="1" format="ascii">
 0 4 48 47 47 48 49 46 46 49 50 45 45 50 51 44 44 51 52 43 43 52 53 42 42 53 54 41 41 54 55 40 40 55 56 39 39 56 57 38 38 57 58 37 37 58 36 3 4 5 59 48 48 59 60 49 49 60 61 50 50 61 62 51 51 62 63 52 52 63 64 53 53 64 65 54 54 65 66 55 55 66 67 56 56 67 68 57 57 68 69 58 58 69 35 36 5 6 70 59 59 70 71 60 60 71 72 61 61 72 73 62 62 73 74 63 63 74 75 64 64 75 76 65 65 76 77 66 66 77 78 67 67 78 79 68 68 79 80 69 69 80 34 35 6 7 81 70 70 81 82 71 71 82 83 72 72 83 84 73 73 84 85 74 74 85 86 75 75 86 87 76 76 87 88 77 77 88 89 78 78 89 90 79 79 90 91 80 80 91 33 34 7 8 92 81 81 92 93 82 82 93 94 83 83 94 95 84 84 95 96 85 85 96 97 86 86 97 98 87 87 98 99 88 88 99 100 89 89 100 101 90 90 101 102 91 91 102 32 33 8 9 103 92 92 103 104 93 93 104 105 94 94 105 106 95 95 106 107 96 96 107 108 97 97 108 109 98 98 109 110 99 99 110 111 100 100 111 112 101 101 112 113 102 102 113 31 32 9 10 114 103 103 114 115 104 104 115 116 105 105 116 117 106 106 117 118 107 107 118 119 108 108 119 120 109 109 120 121 110 110 121 122 111 111 122 123 112 112 123 124 113 113 124 30 31 10 11 125 114 114 125 126 115 115 126 127 116 116 127 128 117 117 128 129 118 118 129 130 119 119 130 131 120 120 131 132 121 121 132 133 122 122 133 134 123 123 134 135 124 124 135 29 30 11 12 136 125 125 136 137 126 126 137 138 127 127 138 139 128 128 139 140 129 129 140 141 130 130 141 142 131 131 142 143 132 132 143 144 133 133 144 145 134 134 145 146 135 135 146 28 29 12 13 147 136 136 147 148 137 137 148 149 138 138 149 150 139 139 150 151 140 140 151 152 141 141 152 153 142 142 153 154 143 143 154 155 144 144 155 156 145 145 156 157 146 146 157 27 28 13 14 158 147 147 158 159 148 148 159 160 149 149 160 161 150 150 161 162 151 151 162 163 152 152 163 164 153 153 164 165 154 154 165 166 155 155 166 167 156 156 167 168 157 157 168 26 27 14 1 15 158 158 15 16 159 159 16 17 160 160 17 18 161 161 18 19 162 162 19 20 163 163 20 21 164 164 21 22 165 165 22 23 166 166 23 24 167 167 24 25 168 168 25 2 26
</DataArray>
        <DataArray type="Int64" Name="offsets" NumberOfComponents="1" format="ascii">
 4 8 12 16 20 24 28 32 36 40 44 48 52 56 60 64 68 72 76 80 84 88 92 96 100 104 108 112 116 120 124 128 132 136 140 144 148 152 156 160 164 168 172 176 180 184 188 192 196 200 204 208 212 216 220 224 228 232 236 240 244 248 252 256 260 264 268 272 276 280 284 288 292 296 300 304 308 312 316 320 324 328 332 336 340 344 348 352 356 360 364 368 372 376 380 384 388 392 396 400 404 408 412 416 420 424 428 432 436 440 444 448 452 456 460 464 468 472 476 480 484 488 492 496 500 504 508 512 516 520 524 528 532 536 540 544 548 552 556 560 564 568 572 576
</DataArray>
        <DataArray type="UInt8" Name="types" NumberOfComponents="1" format="ascii">
 9 9 9 9 9 9 9 9 9 9 9 9 9 9 9 9 9 9 9 9 9 9 9 9 9 9 9 9 9 9 9 9 9 9 9 9 9 9 9 9 9 9 9 9 9 9 9 9 9 9 9 9 9 9 9 9 9 9 9 9 9 9 9 9 9 9 9 9 9 9 9 9 9 9 9 9 9 9 9 9 9 9 9 9 9 9 9 9 9 9 9 9 9 9 9 9 9 9 9 9 9 9 9 9 9 9 9 9 9 9 9 9 9 9 9 9 9 9 9 9 9 9 9 9 9 9 9 9 9 9 9 9 9 9 9 9 9 9 9 9 9 9 9 9
</DataArray>
      </Cells>
      <PointData>
        <DataArray type="Float64" Name="Mode_1_w" NumberOfComponents="1" format="ascii">
 -0.00014334129789227536 -0.00014334091464921977 -0.0001433408334227277 -0.00014334117843895473 2.605291926592445e-5 4.4627039068136684e-5 1.6195100228007856e-5 6.668615372443767e-5 3.3090181048923544e-5 7.141729349439079e-5 3.3089990839651356e-5 6.668568425496104e-5 1.6194792652368592e-5 4.462678258351322e-5 2.605267127287931e-5 2.605274000941431e-5 4.462703245538885e-5 1.6195177137329388e-5 6.668561809865687e-5 3.309006390487076e-5 7.141777411045717e-5 3.309000225362997e-5 6.6685677007603e-5 1.6195008559060985e-5 4.462660491095928e-5 2.6052717425076175e-5 2.6052975483538107e-5 4.4626868602275056e-5 1.619487755077752e-5 6.668570998451184e-5 3.308952271366965e-5 7.141754150422168e-5 3.3089975750422756e-5 6.668555845284454e-5 1.6195160152036855e-5 4.4626673789016486e-5 2.60530202481698e-5 2.6052829309994684e-5 4.462700677623499e-5 1.6195097214014582e-5 6.668622076397117e-5 3.3089912914466015e-5 7.141801752053853e-5 3.308985202327247e-5 6.668606346208818e-5 1.619511271539682e-5 4.4627220425335724e-5 2.605313624140355e-5 4.302233202688424 8.31026738186992 11.740465750380968 14.37454644708439 16.025454865605738 16.591532826792868 16.025452103723648 14.374540236479254 11.740457244191736 8.310259589915466 4.3022286077839125 8.310264751987983 16.03079297781501 22.65766034746424 27.731898866807565 30.924821785194172 32.00965480594533 30.92481639978306 27.731887643276526 22.657645745817078 16.030779782844885 8.310256997109704 11.740458672117546 22.657652897611285 32.01248758792198 39.18986028586666 43.6940444573558 45.2340907485473 43.69403692927402 39.18984584100163 32.01246961487201 22.65763628977389 11.740448529921762 14.374534964753606 27.731881661200728 39.18984674983997 47.96796122355874 53.48825001400227 55.36640839816578 53.488239866486076 47.96794337422511 39.1898254759779 27.731862552015077 14.374523229904622 16.02543785495128 30.924793368020712 43.69401488975797 53.48823130230942 59.63658864448162 61.73736846803441 59.63657490951932 53.48820775829 43.69398905585746 30.924772516081788 16.025426421586836 16.591509967091753 32.00961643298018 45.23404833242027 55.36637468250956 61.73735205943216 63.905578243734176 61.73733530323904 55.366346600616914 45.2340192883136 32.00959515628989 16.591499445707782 16.025426915342877 30.924773717486698 43.69398946164218 53.48820103919101 59.63655277355823 61.737328785155846 59.63653637102125 53.488174599588056 43.6939632978074 30.924754663439845 16.025416913427076 14.374516783837741 27.731847975249153 39.18980204985192 47.96790834828748 53.48818924204465 55.366343326607264 53.48817792998529 47.96789072456259 39.189784653565006 27.7318341897231 14.374508781739403 11.740438308106077 22.657615079944478 32.01243635034427 39.18979946080828 43.69397735077124 45.234021401918646 43.693971908027045 39.18979076182933 32.012426415291756 22.657606163709627 11.740433098358638 8.3102475450814 16.030760935107295 22.657616644704863 27.73184797099407 30.924767464586502 32.00959965330417 30.92476434562613 27.731842346991577 22.657609384072842 16.030754326695387 8.310243960774413 4.3022233838619615 8.310248789014235 11.740440689389049 14.374518240488056 16.025425478713213 16.591503005937117 16.02542336362626 14.374514156416225 11.740435671435986 8.310244742331491 4.302221385415577
</DataArray>
        <DataArray type="Float64" Name="Mode_2_w" NumberOfComponents="1" format="ascii">
 7.566884661783124e-11 0.0004567076630846809 9.406918869623215e-12 -0.0004567077308152212 6.569286848633787e-5 -5.640328729274622e-5 6.635728716792452e-5 -0.00012095839084995272 -3.268053672286082e-5 -0.0002405708446162001 -0.00014620040005731017 -0.0003140061924828009 -0.00016817849488073695 -0.00021925930300573497 -0.00016920004345895813 -0.00016919980551329837 -0.00021925962437888353 -0.00016817840277739613 -0.00031400646548984684 -0.0001462005917019549 -0.00024057063033240618 -3.268044334963686e-5 -0.00012095846566466773 6.635743608204428e-5 -5.6403405735437715e-5 6.569280479126058e-5 -6.569278512933535e-5 5.640316709057738e-5 -6.635746822279821e-5 0.00012095832327093352 3.2680621660363715e-5 0.00024057078848922458 0.00014620040632438777 0.00031400626232380203 0.00016817816122768626 0.0002192596984204291 0.00016920006998733905 0.0001692000475741188 0.00021925953829327583 0.00016817824797006142 0.00031400633326261924 0.00014620036680413777 0.00024057032028656394 3.268055163310288e-5 0.00012095829788180877 -6.635712912319943e-5 5.640305045124088e-5 -6.569293570643632e-5 -1.3400384937480108e-6 1.1517520403001902 4.2859963925677 9.525470222530963 16.19881795003999 22.977359943716326 28.200611990679857 30.313381491136095 28.289701923949206 21.94001479844292 12.00196356749966 -1.151755126397057 -1.584988963970391e-6 5.1201027534657575 14.503447158036606 26.90530632700305 39.797245818334204 49.996313260155574 54.49815713210669 51.30247458216426 39.99507697761734 21.940015287139055 -4.2859974430783065 -5.120102912120477 9.78679756947066e-7 11.627081117626341 28.11119637075202 45.953780095335304 60.68619292804732 68.04894602407923 65.1503633826189 51.30247604030066 28.289702976306295 -9.525470221872101 -14.503446174072174 -11.627079389502471 -3.112034176222377e-7 18.531489291165876 39.79686650661572 58.36922857544871 69.0009518488665 68.0489482157758 54.49816122893008 30.31338432317302 -16.19882159128248 -26.90531082233068 -28.11120095005609 -18.531496166195634 -5.666490136655828e-6 22.97673296936405 44.398441420033265 58.36922770666864 60.68619550294362 49.99631986800353 28.200618057841076 -22.977369419446394 -39.79726051951489 -45.95379698722633 -39.79688471281805 -22.976752862875855 -1.2233559719491914e-5 22.976728529770618 39.79686284860785 45.953781774517985 39.79725340351256 22.977367793737056 -28.200624325194607 -49.99633539504033 -60.68622184470173 -58.36926122861606 -44.39847446790945 -22.976760224257045 -1.4962485335889995e-5 18.531483351812096 28.111196856658577 26.905312447897504 16.198824167565018 -30.313392362401 -54.49817899284581 -68.04897876515558 -69.00099304705374 -58.36927011310246 -39.796898762557944 -18.53150958039092 -8.037153611929447e-6 11.627080585842851 14.503450785057886 9.525473363333715 -28.28970821396048 -51.30248970402527 -65.15039045144788 -68.0489858112657 -60.68623501761345 -45.95381333542975 -28.111216317123155 -11.627088129014382 2.3663087069075614e-7 5.120105506662322 4.285998318185755 -21.940015730831785 -39.995083665813965 -51.302493233439066 -54.498187178406745 -49.996346821349086 -39.79727382746496 -26.905323645700353 -14.503453614792168 -5.120103494280698 1.0544521176818398e-6 1.1517540829073316 -12.001962143196796 -21.9400164580471 -28.289710881659023 -30.313397328005852 -28.20063072240241 -22.97737663524627 -16.198828561591636 -9.525474373664988 -4.285997793920617 -1.1517536583361934 0.0
</DataArray>
        <DataArray type="Float64" Name="Mode_3_w" NumberOfComponents="1" format="ascii">
 0.0004567079544659678 -1.9930517425721466e-10 -0.000456707606492696 -4.714340074282744e-10 -0.0001692001718301607 -0.00021925952647738347 -0.00016817852109787433 -0.0003140064341496016 -0.00014620051145390543 -0.000240570583190552 -3.2680742095969526e-5 -0.00012095789603359735 6.635745347989467e-5 -5.64036127869525e-5 6.56929767796325e-5 -6.569276604154069e-5 5.6403508462115404e-5 -6.635722298045692e-5 0.00012095847776154876 3.268053175271401e-5 0.0002405705075799826 0.00014620033081380417 0.0003140064007571253 0.0001681784326476064 0.00021925935984670934 0.00016919999217854668 0.00016920001844084558 0.00021925969519509832 0.00016817809480291045 0.00031400620098799716 0.00014619998076774684 0.0002405709617327976 3.2680714791326516e-5 0.00012095850820818516 -6.635749872753905e-5 5.640365756714297e-5 -6.569263443003544e-5 6.569325867771366e-5 -5.6403041636733824e-5 6.635739617159613e-5 -0.00012095820219687166 -3.2680722960294914e-5 -0.00024057081803182382 -0.00014620023143620327 -0.0003140063360057377 -0.00016817828008925106 -0.0002192595521369637 -0.0001692002444628562 -12.00196557879708 -21.94001866462514 -28.289706414230018 -30.313385342271516 -28.20061430073781 -22.97735926090172 -16.19881175669507 -9.52545773580505 -4.285980525839533 -1.1517369971503792 1.0832591274215337e-5 -21.9400207528004 -39.99508589995889 -51.30248411942695 -54.49816437998846 -49.99631530462503 -39.79724073063263 -26.90529220245217 -14.503423814404442 -5.120074374172593 2.782313252968509e-5 1.1517713401237715 -28.289712299768492 -51.30248995065858 -65.15037656803526 -68.0489543392829 -60.68619253411273 -45.953768712301205 -28.111174103427437 -11.627048946054906 3.668622066455654e-5 5.120136334237785 4.286016717033502 -30.313391668657932 -54.49817292602813 -68.04895976830902 -69.00095821567822 -58.36922425450568 -39.79684927214546 -18.531461563696922 3.668588887127656e-5 11.627120926748121 14.503482561169005 9.525490841657538 -28.20061801298748 -49.996321493915744 -60.686198259713066 -58.369227545804705 -44.39843195654277 -22.97671241057186 3.282516335454613e-5 18.531527818326538 28.111236130883 26.905342227182825 16.1988398494232 -22.977361239555062 -39.79724324931325 -45.95377055985507 -39.796851060154175 -22.976714061144065 3.028258800754818e-5 22.97677159091861 39.79690304008873 45.95381603102815 39.7972777266687 22.97737954399631 -16.198812549402955 -26.905291886036984 -28.111172175512618 -18.531460617959414 3.2231150078111e-5 22.97677155419342 44.39848010951453 58.36926389792592 60.68622482087844 49.99633841817085 28.200625976865876 -9.525458432877395 -14.503423525246447 -11.62704803524727 3.529706715193166e-5 18.531525238212723 39.79690258282101 58.36926444866661 69.0009843539262 68.04897317180976 54.49817623308471 30.313390697728863 -4.285983863919471 -5.120077759915534 3.2607750426522756e-5 11.627113545061224 28.111227328616113 45.953810489614966 60.68622262943715 68.04897193096392 65.15038263764953 51.30248762673335 28.289707677644977 -1.151743210000732 2.0756097289380297e-5 5.120129378607895 14.50347304828356 26.905330461211907 39.79726776014971 49.99633265402398 54.49817369650269 51.302487245408344 39.99508418278084 21.94001758252338 5.724602214925338e-6 1.1517650426376012 4.286011699078224 9.525485018521879 16.198831943747532 22.977372072298422 28.20062120127889 30.313389025945746 28.2897081728223 21.94001825790625 12.001964481204048
</DataArray>
        <DataArray type="Float64" Name="Mode_4_w" NumberOfComponents="1" format="ascii">
 -0.0007591466477555414 0.0007591467716806476 -0.000759146580089417 0.0007591466577471634 0.00043154210013536965 0.00034451897620377297 0.00047228777638414594 0.00039443070548264266 0.00023000663086443593 4.635032150480195e-10 -0.0002300059818139598 -0.0003944304747232289 -0.00047228749763226607 -0.0003445189673507487 -0.00043154207257876183 -0.0004315419775800614 -0.00034451915227635987 -0.00047228760404947347 -0.0003944306661117433 -0.00023000649275999746 -5.6189733191750615e-11 0.00023000655145004312 0.00039443015095701065 0.0004722874324598012 0.00034451867023729783 0.00043154206237270974 0.00043154201440220033 0.000344518787177067 0.0004722875638778843 0.000394430595192108 0.0002300067121658924 4.234714092138789e-10 -0.0002300059323388223 -0.0003944301912344746 -0.00047228731412451145 -0.0003445190112344428 -0.0004315420445554163 -0.0004315421721665598 -0.00034451897080407486 -0.00047228770036476076 -0.00039443096327976214 -0.00023000684234435295 -5.578011667943329e-10 0.00023000583388302725 0.0003944304807302806 0.00047228757010282004 0.00034451911211787987 0.000431542130448445 16.55235272877508 28.668329996296492 33.102514052348035 28.66724318946913 16.55090372844264 -3.371492205624974e-5 -16.550964560719123 -28.66728742572623 -33.10253922416616 -28.66834090571295 -16.55235635445497 28.66833446851317 49.65294603736878 57.332979400434816 49.65114417722113 28.665878915709136 -5.327413169791222e-5 -28.66597428018885 -49.65121128268925 -57.33301395194628 -49.65295624444728 -28.668334250253665 33.10252985160875 57.332997536900145 66.20097552045672 57.33097151518806 33.09979546001728 -5.3260537294091185e-5 -33.09988841689453 -57.33102993302572 -66.20099433728666 -57.332989544922484 -33.10251724398503 28.66727448626435 49.6511892512498 57.33100422498612 49.64945967544929 28.664911945865967 -3.847730419105008e-5 -28.664974182993067 -49.64948454357366 -57.33098875415955 -49.65115292919597 -28.667246122140217 16.55094978075779 28.665948939662304 33.09985922499919 28.66494565015427 16.549587402407106 -1.9723893920421776e-5 -16.5496111816979 -28.664931840191976 -33.09980958651476 -28.66588764634851 -16.550908089117307 1.901535254385626e-5 2.843059972082463e-5 2.4633925286791e-5 1.0740542494734699e-5 -3.2301508650454822e-6 -5.351361371741323e-6 7.2588133555736684e-6 2.7012350672582208e-5 4.2561635528022286e-5 4.351866544054291e-5 2.704967129044333e-5 -16.550916744003047 -28.66590026053378 -33.09981947522711 -28.664933902860234 -16.549602293237985 1.0905089739483106e-6 16.5496154246877 28.664972794400747 33.099881133144336 28.66596362292513 16.550956234348572 -28.667252788019148 -49.651159647606775 -57.33098804975464 -49.64947203863538 -28.66494803551849 -6.678670492966051e-7 28.66495293416537 49.649493503052696 57.33102591979748 49.651199635299605 28.667277612045385 -33.1025203047375 -57.332989098574124 -66.2009847692481 -57.33100781121536 -33.099852133165 -7.104908053587757e-6 33.099840755714645 57.33100533565545 66.200993218839 57.333001745352746 33.10252844745589 -28.66833388736065 -49.65295218914018 -57.33300197185556 -49.65118805038857 -28.665939174128784 -1.1182418403229925e-5 28.66591765725605 49.65117027921149 57.332990357791 49.652946203913245 28.668331640350992 -16.552354826488475 -28.668337689397184 -33.10253143568667 -28.66727254833022 -16.550942827751744 -8.086227620505615e-6 16.550926447731065 28.667256879281094 33.10251844818742 28.668329110978533 16.55235117887883
</DataArray>
        <DataArray type="Float64" Name="Mode_5_w" NumberOfComponents="1" format="ascii">
 -2.2432974080312798e-10 -7.181851144040389e-10 1.2292295624848278e-10 -9.500262081373472e-10 -3.320940834470125e-5 2.5149815386476742e-6 0.00019215150398722971 0.00043866903739475676 0.0006769755504213095 0.0007567098005748167 0.0006769757330847876 0.0004386692283781216 0.00019215179839718235 2.515129707863347e-6 -3.320898870694087e-5 3.320969949625059e-5 -2.5142900501548257e-6 -0.0001921503358647255 -0.00043866812829479457 -0.0006769747389151507 -0.0007567093317617796 -0.000676975163675065 -0.00043866855030564916 -0.0001921512674547459 -2.5147441899364952e-6 3.320923320063179e-5 -3.3209301752685156e-5 2.5146571259824994e-6 0.00019215119252993898 0.00043866872319764844 0.0006769753457566853 0.0007567097781815675 0.0006769758523060428 0.0004386691205239447 0.0001921519860551413 2.515139360950883e-6 -3.320858310245079e-5 3.321010789260163e-5 -2.5140283526024686e-6 -0.00019215068535639906 -0.00043866853352576976 -0.000676975354030481 -0.0007567091636834025 -0.000676975417304038 -0.0004386687293820826 -0.00019215097298134177 -2.5143845891803387e-6 3.320917933492141e-5 7.241951705476662e-6 -4.431609635564688 -14.960036413519703 -29.01066300990063 -41.09555877013678 -45.85794957320542 -41.095548603466675 -29.010643292646208 -14.960011050021086 -4.431585827937329 2.1661443823436334e-5 4.431633556266812 1.8867225333808586e-5 -16.713178677330127 -40.99165038409739 -62.490389256412946 -71.05130609179714 -62.49037007142088 -40.991614258844514 -16.713133594515597 5.988822004028713e-5 4.431657706996287 14.960062689134155 16.71321711279549 1.5701840838953766e-5 -28.970520902488094 -55.97075176757352 -66.9104810025425 -55.97072683693989 -28.970476561753305 6.881848649391817e-5 16.713264054834287 14.960089882496414 29.01068733976484 40.99168068468371 28.970531989393805 -1.2453459151445205e-5 -28.956657389510696 -40.94868807605539 -28.95663303440628 2.886050232474776e-5 28.970579704901986 40.991722047824304 29.01071088748417 41.09558271140266 62.49041408412158 55.97074644239765 28.9566035552989 -4.680725781439316e-5 -12.234055261488884 -3.0547171960178536e-5 28.956630246409514 55.97077582053203 62.49043847981017 41.095596166165436 45.85798060306298 71.05134209355671 66.91048612316146 40.94863895205969 12.233957202884781 -5.792103271934606e-5 12.23395907074278 40.94864084474049 66.9104852321676 71.05133895039747 45.857978489819985 41.09559617122829 62.49043854130141 55.970775132050456 28.95662910875773 -2.9435447766974457e-5 -12.234051194779306 -4.340552039738259e-5 28.956602353287412 55.970739762793634 62.49040466791395 41.09557600759083 29.010711684505775 40.991723201576185 28.970581319651437 3.213838726798332e-5 -28.956625731804266 -40.948678087229105 -28.956651960373392 -1.705993618392805e-5 28.970518890441028 40.991665131261804 29.010676784187826 14.960091432369142 16.713267463536987 7.463071724869076e-5 -28.97046663446717 -55.97071124216726 -66.91046384800761 -55.970742941013924 -28.970525876560018 2.9826330840983614e-8 16.71319851727555 14.960050414443252 4.43165835979283 6.349909298319675e-5 -16.713124660100153 -40.99159898151354 -62.49034917026286 -71.05128525424486 -62.49037765971513 -40.991652725412195 -16.71319248398856 1.4705188342353958e-6 4.431621957439826 2.1444946877209483e-5 -4.4315834618690735 -14.960004033851188 -29.010630912663498 -41.09553281373289 -45.857935001423286 -41.09554993733035 -29.010663043582852 -14.960044652734883 -4.431620592353894 0.0
</DataArray>
        <DataArray type="Float64" Name="Mode_6_w" NumberOfComponents="1" format="ascii">
 -0.0006333622773104593 -0.0006333623849594097 -0.0006333625167793448 -0.0006333622346551919 0.0003611809911988494 0.0005993141077989111 0.0004292787348561772 0.0005495437068608059 0.0002188335826007137 0.0003577425572952782 0.00021883320425141289 0.0005495438057766044 0.0004292788534811621 0.0005993140069731735 0.0003611810273158729 0.0003611809952441862 0.0005993142654527508 0.00042927939320617646 0.000549544428480058 0.00021883423872627033 0.0003577431824694083 0.00021883398592517867 0.0005495444283142063 0.0004292792913682081 0.0005993142341016355 0.00036118105856801884 0.0003611812801923665 0.000599314173521685 0.00042927916383011047 0.0005495438718808124 0.00021883335636204343 0.000357742333393734 0.00021883314357144237 0.0005495436512128359 0.00042927864585955866 0.0005993138652981004 0.0003611807563330332 0.0003611808347762385 0.0005993136060238981 0.0004292791573077471 0.0005495446165893061 0.00021883457912680538 0.0003577429642821414 0.00021883459434017872 0.0005495444370601959 0.00042927913498320053 0.0005993136247398267 0.0003611810194691635 17.551901774090442 29.25625251244904 32.48858631660273 28.996328487520525 23.526668655032164 21.032921903302963 23.526668362113345 28.996326470553562 32.488582712974896 29.256248285389795 17.551898651663034 29.256245788473063 47.57845282262393 50.33750038629575 40.94802860137457 28.8217948665215 23.440212761896206 28.821793020513816 40.94802422946019 50.33749371957465 47.57844550343139 29.2562408548566 32.48856283151293 50.33747393773105 47.35430818504306 28.924272366441716 8.522818776949475 -0.14965911284224 8.52281591173335 28.92426650712483 47.35429986062003 50.337465368697366 32.48855725205531 28.996282358312683 40.947963138918404 28.924225598424957 -0.07189678568777075 -29.023355137354336 -41.03135476387562 -29.023355685498192 -0.07190021472212768 28.924218995284495 40.94795585386924 28.99627761502859 23.52660438671073 28.821695808094738 8.52272839584843 -29.023402811628955 -64.6174416103123 -79.09708603638715 -64.61743786153019 -29.023400262000663 8.52272662183396 28.821691153816595 23.526600846766378 21.032851091413608 23.440101853239526 -0.14976533830408625 -41.03142181218443 -79.09710826006638 -94.53736607627592 -79.09710260268034 -41.03141547717474 -0.14976325764774984 23.440099698179502 21.03284856787438 23.526605247907852 28.821698231500893 8.52273126904042 -29.023401585592634 -64.61744341377273 -79.09709016428013 -64.61744036572674 -29.023397750243365 8.522733100037764 28.821698078124978 23.52660499629783 28.996285121707636 40.94796812951432 28.924229986903505 -0.07189703100798665 -29.023361627394802 -41.03136501700122 -29.023363549238596 -0.0718997944643979 28.92422804407063 40.94796862260242 28.996286866052692 32.488568508765916 50.33748261782704 47.354314388447285 28.924270591825948 8.52280714212221 -0.14967619665106718 8.522801513186694 28.92426169893846 47.35430777716574 50.33748160046404 32.488570418371026 29.25625297043793 47.57846388059135 50.3375083620649 40.94802704838267 28.821782259145635 23.44019359192166 28.82177553474074 40.94801632349477 50.33749980743151 47.578461572873216 29.256254424509905 17.55190665571733 29.256260365485147 32.488592296745345 28.996327676571305 23.526660516061582 21.032909312295743 23.526656038329854 28.99632050328155 32.48858651817967 29.256258851488447 17.55190767929221
</DataArray>
        <DataArray type="Float64" Name="Mode_7_w" NumberOfComponents="1" format="ascii">
 -1.3334923931946366e-10 0.0014143280636829797 -7.770122232638937e-11 -0.0014143281405515793 0.00011890081068555539 -0.00018537143412382216 0.0005606696336239786 0.0004138761878754539 0.0010474856141930848 0.00037178080131248094 0.0002927091495484297 -0.0008826533142922188 -0.0009720570423749677 -0.0013886522760686308 -0.0010117758765666948 -0.0010117762740082482 -0.0013886520490066893 -0.0009720571201034512 -0.0008826535012338179 0.0002927092055953869 0.00037178033860176544 0.0010474851771060966 0.00041387564917366666 0.0005606696329570357 -0.0001853712322015665 0.00011890081906431047 -0.0001189005245484284 0.00018537143935304064 -0.0005606695171258108 -0.0004138765924549911 -0.0010474854218780103 -0.000371781083216532 -0.0002927089544405639 0.0008826530992370494 0.0009720572317979242 0.0013886521223160984 0.0010117763868662867 0.001011776472523609 0.001388651921134836 0.0009720571167723362 0.0008826535253448633 -0.00029270876090079813 -0.00037178098712047097 -0.0010474848159908675 -0.00041387602811863864 -0.0005606689305090334 0.00018537153424098282 -0.00011890042597619899 4.076918905080341e-6 -5.51637335054104 -17.19971143143877 -29.648361102597715 -34.137932485101736 -24.08953452128821 0.027130815714476543 29.52843620207659 51.13263745171808 53.66460318486449 34.17008491935944 5.516387041733847 1.0868589044710972e-5 -18.756607911867096 -41.7952785621501 -53.60757266365969 -41.7215844033004 -5.467608602613838 41.585982302140145 77.52682888016204 83.3863709552326 53.66460432198085 17.19972580021739 18.756629214182425 9.010981778040196e-6 -29.5032973282845 -51.070222231419265 -48.17338816608448 -17.14236145734913 29.262795254951687 67.85793786574317 77.52683154442722 51.13263980011054 29.64837159005463 41.79529148844828 29.50330389502425 -3.4905513138012847e-6 -29.47571895234971 -41.71884673768376 -29.59607798155859 -0.2090716126132118 29.262800027805167 41.585987402010375 29.528438944692976 34.13793694334647 53.607574717318926 51.0702148827562 29.475698548313467 -1.5050239767526185e-5 -24.08594577411032 -34.10509614150129 -29.59607109182523 -17.142353319845437 -5.467604239152729 0.027131580820671217 24.089535215290127 41.721580717743166 48.173375505233466 41.718824292790124 24.085918359245774 -1.1421231934223515e-5 -24.085937385000687 -41.71883569873776 -48.17338140122558 -41.72158471821301 -24.089537824454624 -0.027129128068392322 5.467608669923316 17.14235676871392 29.596068126775638 34.10508376452056 24.08592736821354 -2.035569002948904e-6 -29.475709607735297 -51.07022156544434 -53.60757934269635 -34.137939754450116 -29.52843148003756 -41.58597424193012 -29.262786206478548 0.2090794396207593 29.59607655598401 41.71883832175822 29.47571031934768 -5.380705739497053e-7 -29.50330416469846 -41.795291131201125 -29.648371575603477 -51.13263182224367 -77.52681690211811 -67.85792068483676 -29.262781428950742 17.142367811199758 48.173388362155514 51.070221680884366 29.503300865928225 -2.2675378412434303e-6 -18.75662333633097 -17.19972303064234 -53.6645984409582 -83.38636052834691 -77.52681563530744 -41.585969808645395 5.467616432223488 41.72158726812387 53.607575316624846 41.795285487478125 18.75661843227052 -1.7598309252574818e-6 -5.51638225645803 -34.17008191119297 -53.664597965264 -51.132630960455124 -29.528429544903187 -0.027126155373936575 24.0895362850056 34.13793429479792 29.648366330014174 17.199719360489567 5.516380833789775 0.0
</DataArray>
        <DataArray type="Float64" Name="Mode_8_w" NumberOfComponents="1" format="ascii">
 0.0014143279727160992 2.156972715308455e-11 -0.0014143281794016728 -2.382968853759545e-10 -0.0010117758635779701 -0.0013886521297420404 -0.0009720569230779572 -0.0008826532384914874 0.0002927091138948956 0.0003717812221304186 0.001047485198991055 0.00041387616077960993 0.0005606693146093673 -0.00018537148018917636 0.0001189007084168038 -0.00011890017284662042 0.00018537127581839163 -0.0005606697184925611 -0.00041387624695681836 -0.0010474855077050628 -0.00037178102031091485 -0.00029270937928097055 0.0008826532516736141 0.0009720570281023141 0.001388652426764409 0.0010117762793654512 0.0010117762989470867 0.0013886522345108552 0.0009720569984124844 0.0008826532862888316 -0.0002927088771639711 -0.0003717805770360426 -0.0010474852146127988 -0.00041387613272629543 -0.00056066936883187 0.00018537195881506251 -0.00011890041475681448 0.00011890105390645915 -0.00018537119625455426 0.0005606693665785214 0.0004138762555597177 0.0010474854185579924 0.00037178052195903344 0.00029270921587101214 -0.0008826530779667723 -0.0009720573847646489 -0.0013886519300292239 -0.0010117762038347672 -34.17008113117232 -53.66459781348143 -51.13263276465383 -29.528433784356434 -0.02713151735718062 24.089533164398777 34.137934876869124 29.64836899832038 17.19972397226516 5.5163878711277565 6.147475266269347e-6 -53.66459692733923 -83.38635947811541 -77.52681833416577 -41.585978237134064 5.46760446351841 41.72157700481001 53.60756956088195 41.79528412718147 18.756622378207773 7.24869901695389e-6 -5.51637430396757 -51.132629657262314 -77.52681480144516 -67.85792228421359 -29.26279013390296 17.142352727078855 48.17337155894737 51.07020722362937 29.503290601234756 -6.0891866834339605e-6 -18.756620313638116 -17.199718357717174 -29.528427016520897 -41.58596754423345 -29.26278149647148 0.20907796942789936 29.596067616205552 41.71882450035875 29.47569469971673 -1.5626292172971952e-5 -29.50331566542827 -41.79529613077292 -29.64837170959354 -0.02711986651843318 5.46762376401332 17.142371826067592 29.596079095941008 34.105089052380904 24.085927056979386 -7.312810721741001e-6 -29.47571925317127 -51.070232189580096 -53.60758566778381 -34.13794062475031 24.089546261247357 41.72159902807103 48.1733957807002 41.71884380943277 24.0859367942506 4.663292749238441e-6 -24.085926780058163 -41.71883324082426 -48.1733850628203 -41.721587575132375 -24.089537401807274 34.137942117002424 53.60758432459227 51.07022703589052 29.475713448318533 5.188510060001469e-6 -24.085921692497088 -34.10507503710633 -29.596060041096724 -17.1423526936556 -5.467607596239334 0.027129534486047494 29.648367389544678 41.79528532972786 29.503297498957448 -5.905415482773439e-6 -29.475711196647534 -41.71882916700988 -29.596059466704688 -0.20906185186105472 29.262797966075787 41.585979218690575 29.528432732116638 17.19971569362921 18.75661065529975 -1.3892367994647392e-5 -29.50331768040351 -51.07023199732541 -48.17338622545619 -17.142355934254834 29.262795138067805 67.85793007360044 77.52682120536068 51.13263318106678 5.516376452623505 -1.0215368163250111e-5 -18.756635449927025 -41.79530515425438 -53.60759208019111 -41.7215952454534 -5.467616055476341 41.585973088369435 77.52681888527808 83.38636381194947 53.66460096036674 -2.6037020673735806e-6 -5.516387147801652 -17.199729708731912 -29.648379534610815 -34.13794762876849 -24.089546002842173 0.027121083394570925 29.528427287896275 51.13263106731323 53.66460059656425 34.170084545624555
</DataArray>
        <DataArray type="Float64" Name="Mode_9_w" NumberOfComponents="1" format="ascii">
 -0.001383590725143717 -0.0013835906968351001 -0.0013835911525321358 -0.0013835906879827533 0.0012918388545119475 0.001906778485150451 0.0009028903866404137 0.0002624285340323243 -0.0014453510018766261 -0.001429017751361336 -0.001445351291347974 0.00026242916593963525 0.000902889925829509 0.001906778316090793 0.001291838637817164 0.0012918382850460074 0.0019067784272101538 0.0009028904034699091 0.00026242889018815197 -0.0014453508224421736 -0.0014290176209493708 -0.0014453509944629404 0.0002624288515085697 0.0009028903612222642 0.0019067787012608864 0.0012918391725686624 0.0012918390037744447 0.001906779124913185 0.000902890587687934 0.0002624293730944285 -0.0014453505740161562 -0.0014290169583540044 -0.0014453505931003746 0.00026242920530949684 0.0009028905195170176 0.0019067786116041862 0.0012918387877680869 0.0012918387552316001 0.0019067785467276762 0.000902890489690358 0.0002624294489226229 -0.0014453507834821125 -0.0014290173371823804 -0.0014453502150496003 0.0002624297540250077 0.0009028910059182733 0.001906778735529482 0.0012918388585637488 35.48116567012155 49.86208648193887 35.03545738426656 -0.19422358530263056 -35.350481969348735 -49.86753407295748 -35.350493114854785 -0.1942386664872454 35.035446107086884 49.86208213976953 35.48116566951754 49.862080084283 69.9623046168834 49.21097452871779 -0.2993126612465205 -49.59603543558739 -70.02660920712282 -49.59605408140871 -0.2993361998250872 49.210960341746926 69.96230324888641 49.86208412662041 35.035439822745886 49.21095772467198 34.57161653417453 -0.18664068028471065 -34.88564752715377 -49.20440483912318 -34.88566932718204 -0.18666549981860853 34.57160656267702 49.21096406960462 35.035449689965546 -0.19424909326464698 -0.299342704567686 -0.1866556217156397 -0.010271393346795606 0.2186555269646641 0.27529169572390144 0.21863318904564552 -0.010294439774915488 -0.1866602728756196 -0.29932943082721997 -0.19423431643574907 -35.350506033188246 -49.59606397208708 -34.885660275278305 0.2186593170012817 35.152199531451934 49.64263789915546 35.15217753264433 0.21863769281592263 -34.885661506531186 -49.59604611218495 -35.350487934016996 -49.86755120017976 -70.02662552321787 -49.20440050224117 0.2753164556684777 49.64266034245215 70.02880736512441 49.6426380137071 0.2752940105468149 -49.20440051934543 -70.02660423416889 -49.867530614460264 -35.350505519179116 -49.596060426876434 -34.88565015016344 0.21867511177581758 35.15221805122432 49.64265685845877 35.15219381679097 0.21865011457731864 -34.88565147294347 -49.5960381949234 -35.35048373695736 -0.19424969562563166 -0.29934114469344764 -0.18664784149397678 -0.01025700756222345 0.21867370786071916 0.2753105134820336 0.21864953844316043 -0.0102821610458122 -0.18665072726214144 -0.2993209456336864 -0.194228631495062 35.03543601691274 49.210951394762795 34.57160981324508 -0.18664536774791984 -34.88564852916669 -49.20440272729568 -34.88566712252664 -0.18666506139094702 34.5716083018617 49.210969963774225 35.03545568160977 49.86207351491405 69.96229136547115 49.21095492711175 -0.29933546459826454 -49.59605512409068 -70.02662297942321 -49.59606542529936 -0.2993460641938989 49.21095697987968 69.96230823401265 49.862090439197026 35.481159955905966 49.86207494796057 35.03543993816308 -0.1942445977141057 -35.35050112696931 -49.8675486256597 -35.35050516029561 -0.1942480560934974 35.03544326142488 49.86208596613257 35.48117041797797
</DataArray>
        <DataArray type="Float64" Name="Mode_10_w" NumberOfComponents="1" format="ascii">
 0.0009807458115221102 -8.211406936608785e-11 -0.0009807458118677166 9.267329454132045e-11 -0.0009010749297708279 -0.0011359084126463272 -0.0007673531215446249 -0.0008571660476326569 -0.0006672480373097153 -0.001440728552379684 -0.0014845571536100978 -0.001680445068517207 -0.0007490317587303486 -0.0003869163111988471 0.00017902621755711023 -0.00017902589982078998 0.000386916391076604 0.0007490317416041633 0.0016804450257420244 0.0014845573718758555 0.0014407288116382645 0.0006672484398483052 0.0008571660489053046 0.0007673531233082533 0.0011359085624831405 0.0009010747859246331 0.0009010745621375677 0.001135908162912836 0.0007673533248824124 0.0008571668537135206 0.0006672489670677497 0.0014407285218261188 0.0014845566554052578 0.0016804444658097648 0.0007490312232140457 0.00038691626074096935 -0.0001790260756580158 0.00017902599027937754 -0.00038691629409010796 -0.0007490314832789696 -0.001680444629466624 -0.001484556539525544 -0.0014407288199104174 -0.0006672491962133573 -0.0008571670527752382 -0.0007673541586243354 -0.001135908835022979 -0.0009010747389653677 -22.483383023776828 -32.71221702250265 -30.217746825699848 -25.681203668213477 -29.893427765322233 -42.57179141210696 -52.3767976498798 -48.16458176047807 -30.218316453996472 -10.228805609772833 -3.742830602346753e-7 -32.712208716578445 -42.93938826304926 -30.21733518057824 -15.451478206458164 -19.664419337254206 -42.570551900234065 -62.604402408809335 -58.392045961890965 -30.21783881308662 -1.2632051412873777e-6 10.228804281804969 -30.2177248494571 -30.217313724348923 0.0012514560005467603 30.218368584832355 30.218499368427597 0.0005317745194457173 -30.21699994875835 -30.217405081711195 -1.3725586128691892e-6 30.217835646821783 30.218314430539003 -25.681173420163216 -15.451440292903863 30.21838998778985 73.84517958132581 78.05699227898171 42.571394735747546 4.212646722589435 5.319849979734999e-7 30.217403971462186 58.392042661316445 48.16457885867576 -29.893402315997374 -19.664385577217242 30.218521966836313 78.05699856506011 82.26922838171576 42.570948203256314 -1.3708488080872974e-6 -4.212645560948699 30.216999975865512 62.60439866509968 52.37679343242504 -42.57178199203497 -42.57054163588602 0.0005349298527648909 42.57139019452679 42.570942160416266 -8.782276442549917e-6 -42.570954484084304 -42.57139306631444 -0.0005324344207758198 42.57054509904663 42.571784414675776 -52.37680480917354 -62.60441634904613 -30.21701744545979 4.212630211841533 -1.384601534824963e-5 -42.570961270015935 -82.26923169954513 -78.05698835089561 -30.21850255374092 19.664406792306025 29.893416357765332 -48.164595667349786 -58.39206696485338 -30.217424064940122 -1.0894386162556279e-5 -4.212650921277008 -42.571397927392226 -78.05699325770462 -73.84517291315277 -30.21837351349824 15.45146120185451 25.68118821440471 -30.218325660163796 -30.217848978367872 -2.7827629463736304e-6 30.2174142999946 30.217013982204723 -0.0005265522303181202 -30.218506745439598 -30.218379278987904 -0.0012547406551174775 30.217319102616603 30.217731465813415 -10.228806536152087 2.7456815897555753e-6 30.217851489998342 58.39207028535333 62.60442670078309 42.57055962661248 19.664405251613765 15.451452822447616 30.21731381587661 42.939378550299715 32.71220712337775 1.9131916096962786e-6 10.228811698810917 30.21833035248252 48.164601828668665 52.37681551932404 42.57179634638805 29.893415652987446 25.68118156256788 30.217726500524524 32.71220556959535 22.483379298275892
</DataArray>
        <DataArray type="Float64" Name="Mode_11_w" NumberOfComponents="1" format="ascii">
 -1.9189288085188827e-11 0.0009807466367303052 3.1403891303118675e-11 -0.000980745000133165 0.00017902613473081566 -0.0003869163918070612 -0.000749031699275671 -0.001680444638994692 -0.001484557086915826 -0.0014407288362547272 -0.0006672485977265773 -0.0008571669138942063 -0.0007673538484419985 -0.0011359091593683966 -0.0009010755336128444 -0.0009010754844603255 -0.001135909127137179 -0.0007673538867073981 -0.0008571665151778455 -0.000667248244373187 -0.0014407283147058513 -0.0014845566873665473 -0.0016804444815045148 -0.0007490312218153038 -0.00038691628312093913 0.00017902615766817077 -0.0001790257401870888 0.0003869159649755124 0.0007490315297538723 0.0016804445244041775 0.001484557267166646 0.0014407294583658884 0.0006672493613796968 0.000857166820876371 0.0007673530744957813 0.001135907677197518 0.0009010738397999793 0.0009010739587138494 0.0011359076381046035 0.0007673531736424913 0.0008571662088982851 0.0006672490269707163 0.0014407289913236706 0.0014845572234855474 0.0016804447075157648 0.0007490316828239496 0.0003869159823731538 -0.00017902597851888877 -1.467984824292798e-6 10.228805611470111 30.218322143096554 48.16459418882027 52.37681243404275 42.57179886745904 29.893418414719193 25.681176196890824 30.217710157106822 32.71218395257584 22.483363776210997 -10.228809411185589 -3.0149078621381905e-6 30.217843523637764 58.39206293077846 62.60442543366341 42.570565827558625 19.664409923162836 15.451444659195399 30.217290493932254 42.93934922205172 32.712186727373606 -30.218323832920557 -30.21784737086864 -1.997300611459457e-6 30.217415730747813 30.2170197013946 -0.00051618241697072 -30.218498969206635 -30.21838268771255 -0.0012702726612182952 30.217299524435166 30.217718487462086 -48.1645895760086 -58.39205788008252 -30.217414034167632 -6.290258657726539e-7 -4.21264054129032 -42.571386750007385 -78.05698287862919 -73.84516622069238 -30.21837033346228 15.451463157422078 25.68118971105414 -52.37679957009204 -62.604407059175216 -30.21700628506401 4.212640265237075 -6.910085038414075e-6 -42.5709560676464 -82.269224345842 -78.05697528625711 -30.21848188966476 19.66443071219154 29.89343297231317 -42.57178380554613 -42.57054085629947 0.0005394084620171866 42.57139413370136 42.57094098850166 -1.4827082494726923e-5 -42.57095802933823 -42.57138406824353 -0.000507130240984859 42.57057879421274 42.571808920514506 -29.893414088511523 -19.664397162378407 30.21851988894865 78.05700144537063 82.26922454732333 42.57093265952368 -2.0007192341443672e-5 -4.212651460788533 30.217014835545694 62.604426019124475 52.37681460491218 -25.68119320656036 -15.451460838194272 30.218386595269248 73.8451906413162 78.05699766843351 42.57138036813198 4.2126192350176925 -2.0623670073882508e-5 30.217402359880957 58.39205601658389 48.1645915360539 -30.21774792512373 -30.21733668009956 0.0012515926833966975 30.218391249729315 30.218520804098077 0.0005309815645251637 -30.217021251612813 -30.217428830868382 -1.206698459776092e-5 30.217838631171887 30.21832048271196 -32.7122288660126 -42.93940698205507 -30.217331045352054 -15.451450628949665 -19.664388410452165 -42.570537755872735 -62.60440780273432 -58.392059088193356 -30.217847147916277 -1.720513978704448e-6 10.228806382280629 -22.48339454120569 -32.712226802698176 -30.21774261995127 -25.681184500965262 -29.89340459962643 -42.571776456522706 -52.376793738472564 -48.164583985660535 -30.218319001390725 -10.228806237620118 0.0
</DataArray>
        <DataArray type="Float64" Name="Mode_12_w" NumberOfComponents="1" format="ascii">
 -0.0022885211791378894 0.0022885212162221356 -0.0022885214559376934 0.0022885214997618647 0.002357185377029302 0.0021869237069689577 0.0016720277512916333 0.0004727881331699184 -0.00011453112152649193 1.7184316565850267e-10 0.00011453157134472037 -0.0004727876085150905 -0.0016720273881770129 -0.0021869236831898405 -0.0023571853436723683 -0.002357185276987953 -0.002186923757456477 -0.001672028271116122 -0.00047278854028915204 0.00011453126645196599 1.4310334663523706e-10 -0.00011453087270486649 0.00047278866567166555 0.001672028492478828 0.0021869238040059516 0.0023571856896718517 0.0023571856191310424 0.0021869236989412277 0.0016720276311214533 0.0004727875774184937 -0.00011453163746205457 -3.929646735824432e-10 0.00011453167794029705 -0.0004727878673014523 -0.0016720276573540648 -0.0021869238189917853 -0.0023571860493964802 -0.0023571856177770183 -0.002186924032304605 -0.0016720284909329062 -0.00047278895473693803 0.0001145309245132228 -1.2248740419147585e-10 -0.00011453119897998575 0.000472788030396602 0.001672027859496005 0.002186923758631096 0.002357185564685567 43.41579234851692 59.300133699104094 43.40527652105694 15.882089506002371 -0.005077603937593544 -5.992969963560464e-6 0.005062734531988018 -15.882109774912339 -43.40529740606436 -59.300148860885905 -43.4158001318515 59.30013193342733 75.18257990285872 43.402191277300304 -0.005433111166661714 -15.891329241479657 -3.0775802086468775e-6 15.891318226995882 0.005413011558873643 -43.40221488156434 -75.18259845133838 -59.300141349556235 43.405273422244655 43.40218750176819 -0.00380918450559442 -43.407476025791055 -43.40583255165618 6.860069364377126e-6 43.405841705443216 43.407475697330135 0.0038021446942325984 -43.40219418752704 -43.40527607179397 15.88208646583115 -0.005439296604363625 -43.4074818167944 -75.17859392383578 -59.290298996824376 1.4102970123728666e-5 59.2903241048405 75.1786119024402 43.407493242869144 0.00544719818031695 -15.882081442115064 -0.0050760802456103465 -15.891331396711225 -43.405840571431604 -59.290308648103306 -43.40270806792932 9.828566641810569e-6 43.4027267736833 59.290325453198925 43.40585506828207 15.89134237002072 0.005082235017971938 6.624261352681637e-6 7.405116618978845e-6 1.7860018365208287e-6 -6.1129646051775805e-6 -9.182675050500595e-6 -4.331973185791636e-6 3.241156022003005e-6 5.859055858441831e-6 1.726805353119857e-6 -3.909858532593714e-6 -4.7330141590473555e-6 0.0050880697338036825 15.891343998282489 43.405842318017015 59.29029693000352 43.402692462365366 -1.5473471764118787e-5 -43.4027182595899 -59.290312148030615 -43.40584951507306 -15.89134755140897 -0.0050899326507387885 -15.88207845836763 0.005445316848756284 43.407478341722395 75.17858237322264 59.29028816082035 -1.4291649817483677e-5 -59.290312364645224 -75.17859742241647 -43.407486030814866 -0.005449456344921671 15.882076359577134 -43.40527124186071 -43.402190059641676 0.003799156786427742 43.40746316297617 43.40582465159778 -4.241580783655234e-6 -43.40583127185349 -43.40746572926136 -0.0037988000071152313 43.402191047971286 43.40527191010228 -59.30013366528514 -75.18258699308593 -43.40220422834594 0.005420069587088129 15.891322990471904 4.6654274431941924e-6 -15.89131407363198 -0.00541156308783704 43.40221242800438 75.18259385172398 59.30013773180037 -43.41579390864801 -59.30013857976912 -43.405285428923065 -15.882098213220443 0.005073464081760132 5.570821653886287e-6 -0.00506324438985174 15.882106960420444 43.405293433275986 59.30014543182497 43.41579792976754
</DataArray>
        <DataArray type="Float64" Name="Mode_13_w" NumberOfComponents="1" format="ascii">
 6.542057952760528e-10 -7.097725465970172e-10 -8.815630797246167e-12 -1.1169617467365195e-10 0.00011591357657229627 -0.0004820835037596108 -0.0016321448269280535 -0.002346047349757809 -0.0017481812948800712 9.495278926000893e-10 0.0017481830523145068 0.0023460463443073965 0.0016321435876440256 0.0004820830048912915 -0.0001159126776740294 0.00011591391321728872 -0.00048208202272602874 -0.0016321439285600582 -0.0023460475245907627 -0.0017481821231360736 7.239831914115399e-10 0.001748181866693352 0.002346046259725101 0.0016321430500013494 0.0004820825033908788 -0.00011591235618595895 0.0001159125093403771 -0.0004820825701285914 -0.001632143383601559 -0.0023460464503689367 -0.0017481822562708386 6.004327850800373e-11 0.0017481833603797657 0.0023460483162273137 0.0016321452900359328 0.00048208283632702293 -0.00011591407793463256 0.00011591319439921104 -0.00048208274007062696 -0.001632143437033758 -0.0023460472569845838 -0.001748183091708883 -1.5488866771234535e-9 0.0017481819820875405 0.002346047285826935 0.001632144367678177 0.00048208170536876674 -0.00011591532633425314 -1.6248756776358408e-5 15.886758817413797 43.40723463187611 59.29730374903471 43.409195223513485 -1.3020028050072513e-6 -43.409200163162005 -59.29731388020803 -43.407250247198874 -15.886777619285247 1.877865429744954e-6 -15.88680033122564 -2.590532825659824e-5 43.40549791179906 75.18061343321882 59.29305184398635 -1.3097648603637857e-9 -59.29305393957763 -75.18062157031304 -43.40551303945165 8.050229638056083e-6 15.886787716957448 -43.40726139517389 -43.405525922304314 -9.672107367329982e-7 43.40424393935013 43.40400400206079 4.04040476630291e-6 -43.403996595826406 -43.40423913285159 2.8344225447872464e-6 43.40552707432646 43.40726244384891 -59.29730944292245 -75.18060923282013 -43.404216384096216 2.3010963276412183e-5 15.886699550733061 7.177134885809161e-6 -15.886685809705556 -9.162982860336912e-6 43.404233235702534 75.18062826165682 59.29732308005198 -43.40919136697883 -59.29303696538959 -43.40397319229584 -15.886659294692372 1.605337384215218e-5 4.841597564479878e-6 -8.029472250402008e-6 15.886666782134139 43.40398581225243 59.293055303456505 43.409206021477026 -1.4558336427253456e-6 -1.0363220482706284e-6 9.96494593471625e-7 2.780471024917221e-6 2.4413401660421564e-6 -1.6806859552879942e-6 -7.938697425857289e-6 -1.1042212885462366e-5 -6.7547820185006624e-6 1.8775364557667603e-6 5.360256342828001e-6 43.40918637109245 59.29303271068942 43.403974427670505 15.886665490732737 -9.696525445735443e-6 -5.723024956932678e-6 -4.493658057554323e-6 -15.886684282901637 -43.40399394683038 -59.2930475989782 -43.40919402776078 59.29730119416979 75.18060138987843 43.4042163173066 -1.5065871268779898e-5 -15.886689707189607 -4.01547529908537e-6 15.886678705420636 -6.32921914229843e-7 -43.40423240568314 -75.18061449847463 -59.297309432231955 43.40725253578246 43.405517572161 2.103626308725329e-6 -43.404232381821245 -43.40399095292905 6.351248361098386e-7 43.40399094468169 43.40423158406471 -3.1342607972449024e-7 -43.40551353577749 -43.40724987595653 15.886792769230487 2.006021885065708e-5 -43.40549335185925 -75.18059925506205 -59.29303761690258 4.585503920036897e-6 59.29304702323231 75.18061145888538 43.40551064198038 -1.2580507490037132e-6 -15.886780113634632 1.1097700047808566e-5 -15.886761580511822 -43.407229971641804 -59.29729361044446 -43.40918496472704 4.92315763209754e-6 43.409194484529266 59.29730482770586 43.407245550507525 15.886778495529885 0.0
</DataArray>
        <DataArray type="Float64" Name="Mode_14_w" NumberOfComponents="1" format="ascii">
 5.2897072853216706e-11 0.003027212454096193 -7.865983743657084e-11 -0.0030272125378185298 0.00038247601145320354 -0.0011075997372076653 -0.0010655609852028539 -0.0021577701741657216 0.000485736772994222 0.0017359834128333673 0.0037707850704096872 0.0011451724869558485 -0.001121232361415018 -0.004182283731004121 -0.0037131796321161793 -0.003713179702151558 -0.004182283694576605 -0.0011212327030323407 0.001145172363481928 0.0037707847131645874 0.0017359831706587855 0.00048573627696000247 -0.002157770265245312 -0.001065560631769722 -0.0011075999486284968 0.00038247578206276477 -0.00038247583549395555 0.001107600043063111 0.0010655607102973128 0.0021577703213424503 -0.0004857366352775557 -0.001735983030752964 -0.0037707846524563846 -0.0011451723027236186 0.001121232656091828 0.004182284031793341 0.003713179595323 0.0037131794956790053 0.004182283710774291 0.0011212323335397494 -0.0011451728303332406 -0.003770785333064645 -0.0017359832448106197 -0.00048573684207292025 0.0021577703639868166 0.0010655606908172633 0.001107600132194045 -0.0003824754895697315 1.9631802537594366e-6 12.68656553470526 31.286013912645384 31.6772338257297 0.28698744348552957 -44.61853120336847 -63.56506719685341 -32.176894550204516 31.28008875764582 76.53667128391672 63.85537962037737 -12.686561248267637 1.9201884617213e-6 31.283817476615006 44.35952243891048 12.973281695729444 -44.61437257872376 -76.24264761437864 -44.8608726030825 31.2770613495959 89.21135703364044 76.5366745082314 -31.286011776877757 -31.283815629860452 1.902399131849713e-7 31.282836834085995 31.2838318232625 0.004158527768059597 -31.279252084534058 -31.2821561552854 -0.0061035843336141185 31.277066182287488 31.28009471802943 -31.677232351313332 -44.359520713388925 -31.282836253426996 3.057192062635355e-8 31.387859508635927 44.61759414868329 31.88840650819126 0.4997708488795968 -31.282154403811603 -44.86086577429857 -32.1768870586576 -0.28698523123308384 -12.973279183560209 -31.283830323541334 -31.387858904181087 3.0039728643677213e-7 44.61609491711295 63.27286001507115 31.888402440134815 -31.279253998750107 -76.24264277050136 -63.56505979533261 44.61853306993977 44.6143746763713 -0.004158037520503047 -44.617594646856126 -44.61609432969654 1.2646748816705987e-6 44.61609244010177 44.61758688549482 0.004151947431346976 -44.61437330602127 -44.61852780973173 63.56506728036132 76.2426477579292 31.279250123614712 -31.888410073961282 -63.27286107024065 -44.616089270323116 2.7299653920451595e-6 31.387855845086992 31.28382501662669 12.973276072412869 0.2869853432557362 32.17689371194916 44.86087165650843 31.28215362783981 -0.49977506882696787 -31.888405218887964 -44.617586152693185 -31.387852387496824 1.836044109861211e-6 31.282833355928872 44.359515432117405 31.67722851721386 -31.280088868873477 -31.277060834072223 0.006104149168362041 31.282154169172834 31.279252818707842 -0.004154104696268226 -31.2838265467313 -31.28283289125771 3.85916481554488e-7 31.283812499231196 31.28600853559258 -76.53667047906059 -89.21135421858547 -31.27706243250966 44.86086943458296 76.2426452110447 44.61437219634187 -12.973280026346377 -44.359518586153875 -31.283813315919488 6.380489740040599e-8 12.6865617038269 -63.85537853944645 -76.53667148846696 -31.280091346749366 32.17689031418303 63.565063014134445 44.61852876436429 -0.28698758607494357 -31.677231554983482 -31.286009948556412 -12.686561859447727 0.0
</DataArray>
        <DataArray type="Float64" Name="Mode_15_w" NumberOfComponents="1" format="ascii">
 0.003027212509931402 2.881367869513031e-10 -0.003027212636799769 -2.50268762100947e-11 -0.003713179668518949 -0.00418228394524894 -0.0011212324725933917 0.0011451725604962304 0.0037707847798898516 0.0017359829478115136 0.0004857364301771442 -0.002157770254845882 -0.0010655606201075492 -0.0011076005197337374 0.00038247540578208736 -0.0003824758254725597 0.0011075999066659059 0.001065560370432679 0.002157770434044512 -0.0004857364272091852 -0.0017359829213253585 -0.003770784985120338 -0.0011451724572143 0.0011212328123244818 0.00418228395631769 0.0037131797753627996 0.003713179790866672 0.004182283425877701 0.0011212322859230216 -0.001145172464733097 -0.0037707854264406827 -0.0017359831645926828 -0.00048573706693132184 0.0021577697434635463 0.0010655605345557609 0.0011076000507166893 -0.0003824757851412493 0.00038247582624521885 -0.0011076000269229463 -0.001065560371250957 -0.00215776979792402 0.000485737115407701 0.0017359832215186357 0.0037707846132795848 0.0011451718871542153 -0.0011212332674387726 -0.004182283972894837 -0.0037131798626080918 -63.8553799240864 -76.53667527918878 -31.280099402600687 32.17688197674568 63.56506095669008 44.61853324452254 -0.28698100678669336 -31.677227518504 -31.28601054578114 -12.686564189314426 -9.521155174641732e-7 -76.536670342637 -89.2113562354502 -31.277069206645095 44.860861591995175 76.24264356643624 44.614377886404625 -12.97327325567719 -44.359517659273635 -31.283818136627705 -4.472380915698615e-6 12.686560241462557 -31.280087511874527 -31.277058335533102 0.006107047451386261 31.282155956355037 31.279253215019125 -0.004152781865061762 -31.28382531603997 -31.2828357092336 -4.760813903092063e-6 31.28380859929579 31.28600615721116 32.17689508700547 44.86087711044504 31.282164355093016 -0.4997650101794535 -31.888402923910984 -44.61758915065368 -31.38785523430548 -5.092907631619605e-8 31.282832608194898 44.35951397525576 31.67722538963597 63.565065719886164 76.24264997081215 31.279258539704482 -31.88840064846161 -63.272857576566174 -44.61609117035241 1.954811785837249e-6 31.38785943458585 31.283829807702585 12.973276576843155 0.28698215796716897 44.61852682626354 44.6143700046731 -0.004156824501575264 -44.61759002236663 -44.61609138156583 1.1900756027450657e-6 44.616095155857636 44.61759660645435 0.004162135441921488 -44.61437154205172 -44.618531921048515 -0.2869911899356971 -12.973285425205727 -31.283831959294883 -31.38785719365871 4.431450937391481e-7 44.61609309766848 63.272862084500304 31.88841126182239 -31.27924443318983 -76.24264080428851 -63.56506391665586 -31.67723470807444 -44.35952323557076 -31.282835733460022 1.0449402400436637e-6 31.387856291780388 44.61758912746894 31.88840475083232 0.49977264117926223 -31.28215207916383 -44.86086671546498 -32.17689042518773 -31.28601470694979 -31.283816761748692 2.87808314883691e-6 31.28283841187602 31.283828028594858 0.004152147052972918 -31.279257155680696 -31.282159484028455 -0.006107437897239605 31.277060071501808 31.280089136675187 -12.686567341768777 -2.0883292447364856e-6 31.283818508866744 44.35952447484733 12.973281145137559 -44.61437563700663 -76.24265080689271 -44.860874997401254 31.277057408508117 89.21135046999355 76.53666888772926 -3.240685491330346e-6 12.686560614480475 31.286012451700778 31.67723503943916 0.2869894588551008 -44.61853000437096 -63.5650663139784 -32.17689366486444 31.2800880027987 76.5366691617141 63.85537821073319
</DataArray>
        <DataArray type="Float64" Name="Mode_16_w" NumberOfComponents="1" format="ascii">
 9.511350516492528e-11 1.7826975355111712e-10 -1.410319626679885e-10 -7.822908348269545e-11 -3.557814146042239e-6 -0.0009893928294712239 -0.002611758631128501 -0.003132485561480127 -0.002545811577833093 -0.0019851789095697643 -0.0025458110182195156 -0.003132484515551569 -0.0026117581874016073 -0.000989392530443776 -3.557450568138752e-6 3.55724219136325e-6 0.0009893916660001793 0.0026117578646928253 0.0031324841449951258 0.0025458106356166404 0.001985178336276949 0.002545811392927584 0.0031324845647245315 0.0026117582353209143 0.0009893920273433296 3.5573975523529278e-6 -3.557460653976415e-6 -0.0009893922941027326 -0.002611757981679661 -0.003132484782495764 -0.0025458113996735874 -0.0019851792419239823 -0.0025458119756703625 -0.0031324853862428085 -0.002611758946252834 -0.000989392551911177 -3.5574755246806265e-6 3.5570213954738503e-6 0.0009893920709593013 0.0026117585761756498 0.0031324846055717373 0.002545811092911833 0.001985177782769852 0.002545810613383585 0.0031324844961146603 0.00261175824605005 0.0009893916190069896 3.5569539598035267e-6 -5.66073735622175e-6 18.362414742613552 45.17389028738249 55.204021933536275 44.705278619535456 36.22046947371419 44.70528121760949 55.20402465785823 45.17389233709653 18.362417005548537 -3.6213927310864314e-6 -18.362428225048937 -4.951194167149617e-6 36.79204325895213 44.981172720415884 18.176116543835192 -0.29153030480797176 18.17611681791008 44.981172005502536 36.79204187371011 -5.352011931915361e-6 -18.362427574918883 -45.17390142489722 -36.79204188795862 1.2373177000488015e-5 0.049765601136465984 -44.86080300391422 -73.29504740578078 -44.86080596227452 0.049760400043565946 6.735714732145426e-6 -36.792045887326914 -45.17390309457026 -55.20403493437261 -44.98117226057178 -0.04973817824266359 1.6351829329733834e-5 -54.87098280265629 -89.60948392836467 -54.87098339557453 1.503398558203541e-5 -0.04974027883786225 -44.98117515688151 -55.20403716273264 -44.70529688564866 -18.17612937377278 44.86080933728046 54.87099300942343 -3.5274376701761265e-6 -36.5654664179733 1.2942140071280666e-6 54.87100066431694 44.860815917924164 -18.176127676880448 -44.70529853761889 -36.220486051562006 0.29151300354580445 73.29503960846421 89.60947686607359 36.5654479234024 -1.2296349638547199e-5 36.56545387531924 89.60948642262593 73.29504758427373 0.29151444558373757 -36.2204889410384 -44.70528659825009 -18.176120032574254 44.86080895984076 54.870987006383224 -5.7894167738820685e-6 -36.5654657709269 -4.021437849645847e-6 54.870989097549945 44.86080853666909 -18.17612522134835 -44.70529264328905 -55.20402110232073 -44.98116146262199 -0.04974226611980271 6.070889105847568e-6 -54.87098396836657 -89.60947821473425 -54.870986030787 1.6534808203945937e-6 -0.04974913535339995 -44.98116991496292 -55.20402750934746 -45.17389081122072 -36.79203666660569 3.5629667628740397e-6 0.04975452777321187 -44.860801027844374 -73.29503552574263 -44.860801039397955 0.04975278592149632 3.1313033213474657e-7 -36.79203993592773 -45.17389277188743 -18.362423466071874 -6.005887524862926e-6 36.792033219312735 44.981164271776116 18.176120965980058 -0.2915161407891578 18.176126111947674 44.98117004437413 36.79203823238582 -9.638134405644679e-7 -18.36241980106915 -4.893965197806085e-6 18.36241193058588 45.17388381273005 55.20401763435047 44.70528256436158 36.22047946269701 44.705288116704004 55.20402480180956 45.173890861072785 18.362419106208385 0.0
</DataArray>
        <DataArray type="Float64" Name="Mode_17_w" NumberOfComponents="1" format="ascii">
 -0.0010987925150704946 -0.001098792377160663 -0.0010987928122500603 -0.001098792269209717 0.0015853162243839064 0.002056534938095751 0.0011601995375814364 0.0020119922082470062 0.002686459038573529 0.003895530563250256 0.0026864591868316695 0.002011992482886059 0.0011601998354422748 0.0020565349924984854 0.0015853159941924767 0.0015853161425490624 0.0020565350140804846 0.0011601999752540505 0.0020119933333547324 0.0026864596739394385 0.0038955306702107627 0.002686459360919952 0.0020119931162245765 0.0011602002243111889 0.0020565353295888523 0.001585316537333582 0.0015853166952409887 0.0020565354093088667 0.0011601998652817534 0.0020119926375817047 0.002686458748747559 0.00389553037920499 0.0026864590872498423 0.0020119924322834007 0.0011601993054457934 0.0020565346283646893 0.0015853155480307181 0.001585315806621235 0.0020565350101614667 0.0011602002146148948 0.0020119935496398407 0.0026864599799384745 0.0038955301559718304 0.002686459388874716 0.002011992990607746 0.0011602006146486559 0.002056535238268316 0.0015853163271067154 26.484632015330266 32.06546099475239 25.746819688439622 31.453237697889204 51.809597509180506 63.6741755704431 51.80960404098516 31.45324357402327 25.74681965219423 32.06545565373416 26.484626828658268 32.065453381678545 26.040659689024277 -0.12641336464646383 -0.21406004457783423 31.705490935840608 51.89086006571794 31.70549773526036 -0.2140547338180476 -0.12641496877412117 26.040653162040826 32.06544803555852 25.746802791831946 -0.1264269588584935 -51.95644100573336 -63.50478403601865 -25.85646521026202 0.12642456759569226 -25.85646383616116 -63.50478442091431 -51.95644357770921 -0.1264291766837811 25.746802282092197 31.45322104632784 -0.21407282573478884 -63.504783092043894 -77.66716269778216 -31.630160372214917 0.06957131291223166 -31.63016443406434 -77.6671681364176 -63.50478525510256 -0.21406970052080604 31.453225476308695 51.80959063037611 31.70549313837885 -25.856447742210428 -31.63014371035803 25.876046958131838 63.36836522058674 25.87604327165709 -31.630148332409032 -25.85644892168057 31.705496466578442 51.80959448380445 63.674173023487334 51.890868498881716 0.1264491039629158 0.06959661257749383 63.36837556548719 103.40611750666805 63.36837679014581 0.06959754426791025 0.12644879057636982 51.89086750982959 63.67417232320039 51.809594248795236 31.705494211086016 -25.856453518854174 -31.630151412473083 25.876046032377108 63.368371640111754 25.876050111520936 -31.630146985911722 -25.856453992530003 31.705489271742834 51.80959004080963 31.453227222551764 -0.214070784105258 -63.50479099682367 -77.66717170700097 -31.630158090982544 0.06958313795756609 -31.63015582904281 -77.6671693992643 -63.504792246822916 -0.21407542375735533 31.4532235123021 25.746807594481982 -0.12642689805920782 -51.95644882010751 -63.50478876870538 -25.85645752183226 0.1264375548663702 -25.856459633271676 -63.50479107891647 -51.95644922059682 -0.12642520497624501 25.746809743833364 32.065454775127684 26.040656108177252 -0.1264205099668471 -0.21406047320462204 31.70550110304127 51.890870208687645 31.705495703291586 -0.21406560859155568 -0.12641820543407076 26.040665592455536 32.06546326827237 26.484631378459657 32.0654569447656 25.746815066533543 31.45323857458708 51.80960474458757 63.67418134606219 51.80960024523265 31.45323449490939 25.746818223424064 32.06546655754664 26.48463930289756
</DataArray>
        <DataArray type="Float64" Name="Mode_18_w" NumberOfComponents="1" format="ascii">
 0.00248124664902982 7.057379813705411e-10 -0.0024812473855504082 5.744356275233623e-10 -0.003685051781255985 -0.004024565480242092 -0.0015838460922057724 -0.0017678992688547831 -0.0016314337108330275 -0.0022771518186459998 0.0016619076126823467 0.003919266116199014 0.005043317292474558 0.001500391929768966 0.00026811749693939177 -0.00026811960776604787 -0.0015003935059341304 -0.0050433165906297065 -0.003919263960255364 -0.0016619053455282067 0.002277151326512367 0.001631431355973442 0.0017678966924433214 0.0015838454621269022 0.004024566062114018 0.0036850536221962518 0.003685053470534468 0.004024566444349878 0.001583846536277256 0.001767898627007562 0.00163143278948088 0.0022771519713052565 -0.0016619059116201877 -0.0039192649011426835 -0.005043316487834368 -0.0015003935425176346 -0.00026811900005331785 0.0002681178127356568 0.0015003915846982536 0.005043315792268786 0.003919264339026763 0.0016619061218441544 -0.0022771520037586776 -0.0016314330351017922 -0.0017678988775660584 -0.0015838456948082677 -0.004024565238947814 -0.0036850518071885534 -50.97726741320425 -57.24358710332885 -32.26030264105459 -21.313877421421164 -32.32695966762355 -26.375812034215546 18.63027586394441 66.94952903399677 69.66069989100657 31.032527574887933 -1.0968450906808239e-5 -57.24358980974785 -45.383954604443126 6.178566447336626 16.82392981026552 -24.959923914793816 -45.67108873146735 1.2395468833396623 62.20247005778798 58.58110692258452 -1.3999484016290947e-5 -31.032555095002202 -32.2603110244657 6.178559730632832 74.77345909256626 77.99602224567568 4.999450105182133 -52.73269831350804 -32.38436291398395 13.24496405744816 1.0985200528682895e-5 -58.58111214192499 -69.6607165033552 -21.313888776559832 16.823920342026646 77.99602154522292 79.01483666059123 10.950527894711772 -45.66492721011618 -34.6669095867765 1.1944534169488411e-5 -13.244933863278609 -62.20245814686931 -66.94953227412404 -32.32696569228174 -24.95992822869897 4.999452756176039 10.950533101992317 -13.691590931709845 -26.364386314593855 -9.873104139912588e-6 34.66690693553154 32.384372835298294 -1.2395403460183294 -18.63027600552338 -26.37580466147369 -45.671083206982246 -52.732698962039116 -45.66492720284991 -26.36438162219093 -3.3203695251130593e-6 26.364371905138015 45.66491318107629 52.732687389690156 45.67108005893988 26.375806951124222 18.63029731695879 1.2395599581270564 -32.384375431856334 -34.66692746508778 -6.813535825517238e-6 26.364388114005166 13.691605685306342 -10.950523097652633 -4.999459045467024 24.959911229869846 32.32695256119506 66.94955613100282 62.202484640137975 13.244942968712351 -1.790964276655113e-5 34.666907238802345 45.6649422090203 -10.950499566355619 -79.01481340368476 -77.99601760486998 -16.823932164669472 21.313876762536303 69.66072071403799 58.581117613425256 -5.323440956448963e-6 -13.244955757750398 32.38437456527438 52.73271140188161 -4.999438350253479 -77.99601431320556 -74.7734546549301 -6.178556183771036 32.26031364249189 31.03253562806016 -1.0018914504625618e-5 -58.58111667219417 -62.20246139840489 -1.2395351785361963 45.67108602131794 24.959905330011466 -16.823949422812294 -6.1785698135815705 45.383969431591936 57.24360633249207 -1.1014033228250304e-5 -31.032555322247138 -69.66071446865212 -66.94952625482888 -18.630270964029336 26.375801884328137 32.32693381697498 21.313852359198645 32.260296004080125 57.24360007707563 50.97728285862954
</DataArray>
        <DataArray type="Float64" Name="Mode_19_w" NumberOfComponents="1" format="ascii">
 5.497426394967275e-10 0.00248124681455537 1.5871423202162509e-10 -0.0024812471632543686 0.0002681179720474628 0.0015003914400373419 0.005043316124260344 0.0039192650359051295 0.0016619065956518216 -0.0022771516959070605 -0.001631432266491762 -0.0017678980490817152 -0.0015838452630278874 -0.004024565256398551 -0.00368505258706878 -0.0036850524663970285 -0.004024565390384775 -0.0015838468856085256 -0.001767899263734177 -0.0016314327497512027 -0.0022771510734539394 0.0016619067574576692 0.003919265434316425 0.005043316558986287 0.0015003928092769086 0.00026811884478064146 -0.0002681188398405196 -0.0015003925307772465 -0.005043316470261965 -0.003919264284190701 -0.0016619056594833388 0.002277152168922351 0.0016314321692407039 0.0017678978582395407 0.0015838457395044776 0.004024565990867243 0.0036850528284965655 0.0036850531171909976 0.0040245662327327274 0.0015838468184786278 0.001767898770820813 0.001631432637657511 0.0022771515006710175 -0.0016619066550009262 -0.003919264639440307 -0.005043315954979678 -0.001500393390190183 -0.0002681198241429934 -1.0275689597519783e-5 -31.032552342441935 -69.66071388408699 -66.94953326432194 -18.6302801030635 26.375803590583388 32.326952531719385 21.3138792299698 32.26031494384412 57.24360339324761 50.97727850946382 31.03253400423349 -5.500957858490412e-6 -58.58110939020789 -62.20246313286736 -1.2395476476829856 45.67107650481979 24.959912733329706 -16.82392913561083 -6.178555949272293 45.38396595314124 57.24359606980197 69.66071125187872 58.58111729894511 9.67055429454218e-6 -13.24494310272496 32.38436722159339 52.73268894922602 -4.999456202813812 -77.99601906891091 -74.77345864297273 -6.17857090901697 32.260297905703936 66.94953757353211 62.20247419035625 13.244956696871887 2.763871733787033e-6 34.666908891073454 45.66492290697573 -10.950520326766963 -79.01482215843629 -77.99602243747454 -16.823945224392844 21.313861952275946 18.630279342683696 1.2395450838638897 -32.38437185743303 -34.66691467530616 -1.6840404350823057e-6 26.364385323653647 13.691608065389932 -10.950510471002197 -4.999446471097721 24.959912579472878 32.32694665629682 -26.375808175855127 -45.67108824779254 -52.73270345743404 -45.664930438008 -26.364381361644213 5.465988656470443e-6 26.364390925138455 45.664936550004015 52.73270577230924 45.67108869657915 26.375808716159952 -32.32695054957082 -24.959916362638094 4.999448634898174 10.950520395767878 -13.69159662137479 -26.364380512123006 -2.3373595364396982e-6 34.66690792980482 32.38437020348632 -1.2395405561059498 -18.630273918389605 -21.313864672737775 16.823940610351052 77.99602022256299 79.01482448444659 10.950521871875129 -45.66492862709538 -34.666921858616256 -1.525065193434954e-5 -13.24496006716834 -62.202468590685825 -66.94953124875946 -32.260293566613875 6.178572416939521 74.77345480249804 77.99601241155804 4.999448651844617 -52.73269582704484 -32.384371650391955 13.244941528516396 -9.17275954879128e-6 -58.58111655111687 -69.66071154297441 -57.24358606444014 -45.383956277850565 6.178555696604959 16.823920347828068 -24.959920013752477 -45.67107405784412 1.2395597107154872 62.20247659797908 58.58111422771104 -1.1708764958400947e-6 -31.032543642689635 -50.97727024297781 -57.24359380811522 -32.26031288028997 -21.313884174364023 -32.32695457063437 -26.375795987140588 18.63029515496542 66.94954744686312 69.66071813272256 31.032544584760714 0.0
</DataArray>
        <DataArray type="Float64" Name="Mode_20_w" NumberOfComponents="1" format="ascii">
 -0.0034486594273922607 0.0034486590550251188 -0.003448658877833882 0.003448659634970851 0.0049593206183579765 0.0038037028058905452 5.820953039053903e-5 -0.004055277249500095 -0.004040662372844954 5.062189682213951e-10 0.004040662198616171 0.004055276726114139 -5.8210778947377845e-5 -0.003803702469014387 -0.004959320175711973 -0.004959319966063763 -0.003803701896695555 -5.820918524107285e-5 0.004055277673833816 0.004040662385515158 -7.352940504410926e-10 -0.004040663055750408 -0.00405527779487069 5.820929009346189e-5 0.00380370154928672 0.004959319295987782 0.004959319558388258 0.003803701441343947 5.8208946710926845e-5 -0.004055278838238064 -0.0040406635710975415 -5.077949903720888e-10 0.0040406638416000005 0.004055279264349077 -5.820838390630969e-5 -0.0038037024866409835 -0.004959320738729718 -0.00495932076946659 -0.0038037028520237397 -5.820946930566469e-5 0.00405527813035142 0.0040406630022094625 -4.37732497586338e-10 -0.004040663109539484 -0.004055278304830659 5.820990710591018e-5 0.003803702777914281 0.004959320670654247 56.93101311948033 56.91944795381448 -0.008237692666383235 -56.92741250502838 -56.92333053676561 -2.376229257994227e-6 56.92332637192602 56.92740940381966 0.008236211187485274 -56.9194474878914 -56.93101211936159 56.919448121744026 56.90769275801962 -0.008238629407102153 -56.91595681189612 -56.911789730822946 1.8616872523822086e-6 56.91178914460139 56.91594943416347 0.008232894136318449 -56.907689025691695 -56.91944062359462 -0.0082342511049044 -0.008236851261864516 -0.0001500133067305057 0.008060376470789625 0.00814404149120911 1.045454123827449e-5 -0.008135888415386112 -0.008072875357935626 0.00013844251804317402 0.008246602976880436 0.00825288908972144 -56.92740298407984 -56.915952039328026 0.008056239303292053 56.92407895080987 56.920077586799344 1.3676907042247115e-5 -56.92006653733018 -56.92409469901955 -0.008071327183217706 56.91596437016691 56.92742711002855 -56.92331823084751 -56.911783441026714 0.0081348717231116 56.92006524512731 56.91602239125953 6.958512236348818e-6 -56.91601829279782 -56.92007735079705 -0.008146342659490064 56.91179024100007 56.92333382907898 3.1087895622994306e-6 4.509336498676751e-6 3.54945045036417e-6 1.0428379483004605e-7 -3.4757856634818457e-6 -3.710712695545602e-6 -1.0598992637300331e-6 -2.9648785405283747e-7 -3.7918447859554087e-6 -7.043680490314856e-6 -5.423241742434862e-6 56.923317644737885 56.91178402122155 -0.008132712112178263 -56.920064200414714 -56.91602475665925 -1.0067322240568544e-5 56.916019062760064 56.92008064021653 0.008146743890615081 -56.91179342794589 -56.923336693982094 56.92739224977309 56.91594021521145 -0.008060266660658504 -56.92407547280115 -56.920073427939386 -1.1274908112329332e-5 56.92007151387009 56.92410464509456 0.008083554030431183 -56.915953330483326 -56.927420254070775 0.00822516569604633 0.008227886006018502 0.00014932327844658787 -0.008055467541110767 -0.008142096325384452 -1.179127383425291e-5 0.008139127196112591 0.008082760977208723 -0.00012859640240226995 -0.00824182527167372 -0.008251882368893702 -56.919445819180396 -56.90768683071844 0.008246210979492671 56.915959120906244 56.91178209627072 -1.2819272370770576e-5 -56.91179203842393 -56.91594583583139 -0.008235543567021731 56.90767598101259 56.919427622806516 -56.93100557317357 -56.91943619420295 0.008246496299500606 56.927411719614724 56.92331988218844 -9.911462000906336e-6 -56.92333105527849 -56.92740957979853 -0.008243382324989779 56.91943067779574 56.93099697448061
</DataArray>
      </PointData>
    </Piece>
  </UnstructuredGrid>
</VTKFile>
