<?xml version="1.0" encoding="utf-8"?>
<VTKFile type="UnstructuredGrid" version="1.0" byte_order="LittleEndian" header_type="UInt64">
  <UnstructuredGrid>
    <Piece NumberOfPoints="121" NumberOfCells="100">
      <Points>
        <DataArray type="Float64" Name="Points" NumberOfComponents="3" format="ascii">
 0.0 0.0 0.0 1.0 0.0 0.0 1.0 1.0 0.0 0.0 1.0 0.0 0.09999999999981413 0.0 0.0 0.1999999999995569 0.0 0.0 0.299999999999265 0.0 0.0 0.3999999999989731 0.0 0.0 0.4999999999986921 0.0 0.0 0.599999999998945 0.0 0.0 0.6999999999992088 0.0 0.0 0.7999999999994725 0.0 0.0 0.8999999999997362 0.0 0.0 1.0 0.09999999999981413 0.0 1.0 0.1999999999995569 0.0 1.0 0.299999999999265 0.0 1.0 0.3999999999989731 0.0 1.0 0.4999999999986921 0.0 1.0 0.599999999998945 0.0 1.0 0.6999999999992088 0.0 1.0 0.7999999999994725 0.0 1.0 0.8999999999997362 0.0 0.8999999999995836 1.0 0.0 0.8 1.0 0.0 0.7000000000006938 1.0 0.0 0.6000000000013874 1.0 0.0 0.5000000000020595 1.0 0.0 0.400000000001665 1.0 0.0 0.3000000000012487 1.0 0.0 0.2000000000008325 1.0 0.0 0.1000000000004162 1.0 0.0 0.0 0.8999999999995836 0.0 0.0 0.8 0.0 0.0 0.7000000000006938 0.0 0.0 0.6000000000013874 0.0 0.0 0.5000000000020595 0.0 0.0 0.400000000001665 0.0 0.0 0.3000000000012487 0.0 0.0 0.2000000000008325 0.0 0.0 0.1000000000004162 0.0 0.09999999999987436 0.100000000000356 0.0 0.09999999999993453 0.2000000000007049 0.0 0.09999999999999473 0.3000000000010504 0.0 0.100000000000055 0.4000000000013959 0.0 0.1000000000001152 0.5000000000017226 0.0 0.1000000000001754 0.6000000000011431 0.0 0.1000000000002356 0.7000000000005454 0.0 0.1000000000002958 0.7999999999999471 0.0 0.100000000000356 0.8999999999995988 0.0 0.1999999999996844 0.1000000000002958 0.0 0.199999999999812 0.2000000000005774 0.0 0.1999999999999396 0.3000000000008519 0.0 0.2000000000000672 0.4000000000011267 0.0 0.2000000000001947 0.500000000001386 0.0 0.2000000000003223 0.6000000000008989 0.0 0.2000000000004498 0.7000000000003967 0.0 0.2000000000005774 0.7999999999998944 0.0 0.2000000000007049 0.8999999999996142 0.0 0.2999999999994634 0.1000000000002356 0.0 0.2999999999996618 0.2000000000004498 0.0 0.29999999999986 0.3000000000006536 0.0 0.3000000000000586 0.4000000000008574 0.0 0.3000000000002568 0.5000000000010494 0.0 0.3000000000004552 0.6000000000006547 0.0 0.3000000000006536 0.7000000000002484 0.0 0.3000000000008519 0.7999999999998417 0.0 0.3000000000010503 0.8999999999996293 0.0 0.3999999999992422 0.1000000000001754 0.0 0.3999999999995115 0.2000000000003223 0.0 0.3999999999997807 0.3000000000004552 0.0 0.4000000000000499 0.4000000000005882 0.0 0.4000000000003192 0.5000000000007125 0.0 0.4000000000005883 0.6000000000004104 0.0 0.4000000000008574 0.7000000000000999 0.0 0.4000000000011266 0.7999999999997891 0.0 0.4000000000013959 0.8999999999996446 0.0 0.4999999999990289 0.1000000000001152 0.0 0.4999999999993656 0.2000000000001947 0.0 0.4999999999997022 0.3000000000002568 0.0 0.5000000000000391 0.4000000000003192 0.0 0.5000000000003757 0.5000000000003757 0.0 0.5000000000007125 0.6000000000001662 0.0 0.5000000000010494 0.6999999999999513 0.0 0.500000000001386 0.7999999999997363 0.0 0.5000000000017226 0.89999999999966 0.0 0.5999999999991893 0.100000000000055 0.0 0.5999999999994334 0.2000000000000671 0.0 0.5999999999996777 0.3000000000000586 0.0 0.5999999999999219 0.4000000000000498 0.0 0.6000000000001662 0.5000000000000391 0.0 0.6000000000004104 0.5999999999999219 0.0 0.6000000000006547 0.6999999999998028 0.0 0.6000000000008989 0.7999999999996834 0.0 0.6000000000011432 0.8999999999996751 0.0 0.699999999999357 0.09999999999999476 0.0 0.6999999999995059 0.1999999999999396 0.0 0.6999999999996542 0.2999999999998602 0.0 0.699999999999803 0.3999999999997807 0.0 0.6999999999999513 0.4999999999997022 0.0 0.7000000000000999 0.5999999999996777 0.0 0.7000000000002484 0.6999999999996542 0.0 0.7000000000003967 0.7999999999996308 0.0 0.7000000000005455 0.8999999999996904 0.0 0.7999999999995252 0.09999999999993453 0.0 0.7999999999995779 0.199999999999812 0.0 0.7999999999996306 0.2999999999996618 0.0 0.7999999999996834 0.3999999999995116 0.0 0.7999999999997363 0.4999999999993656 0.0 0.7999999999997891 0.5999999999994334 0.0 0.799999999999842 0.6999999999995059 0.0 0.7999999999998946 0.7999999999995779 0.0 0.7999999999999472 0.8999999999997057 0.0 0.8999999999997209 0.09999999999987436 0.0 0.8999999999997055 0.1999999999996844 0.0 0.8999999999996904 0.2999999999994635 0.0 0.8999999999996751 0.3999999999992422 0.0 0.89999999999966 0.4999999999990288 0.0 0.8999999999996446 0.5999999999991892 0.0 0.8999999999996293 0.6999999999993571 0.0 0.8999999999996142 0.7999999999995253 0.0 0.8999999999995987 0.899999999999721 0.0
</DataArray>
      </Points>
      <Cells>
        <DataArray type="Int64" Name="connectivity" NumberOfComponents="1" format="ascii">
 0 4 40 39 39 40 41 38 38 41 42 37 37 42 43 36 36 43 44 35 35 44 45 34 34 45 46 33 33 46 47 32 32 47 48 31 31 48 30 3 4 5 49 40 40 49 50 41 41 50 51 42 42 51 52 43 43 52 53 44 44 53 54 45 45 54 55 46 46 55 56 47 47 56 57 48 48 57 29 30 5 6 58 49 49 58 59 50 50 59 60 51 51 60 61 52 52 61 62 53 53 62 63 54 54 63 64 55 55 64 65 56 56 65 66 57 57 66 28 29 6 7 67 58 58 67 68 59 59 68 69 60 60 69 70 61 61 70 71 62 62 71 72 63 63 72 73 64 64 73 74 65 65 74 75 66 66 75 27 28 7 8 76 67 67 76 77 68 68 77 78 69 69 78 79 70 70 79 80 71 71 80 81 72 72 81 82 73 73 82 83 74 74 83 84 75 75 84 26 27 8 9 85 76 76 85 86 77 77 86 87 78 78 87 88 79 79 88 89 80 80 89 90 81 81 90 91 82 82 91 92 83 83 92 93 84 84 93 25 26 9 10 94 85 85 94 95 86 86 95 96 87 87 96 97 88 88 97 98 89 89 98 99 90 90 99 100 91 91 100 101 92 92 101 102 93 93 102 24 25 10 11 103 94 94 103 104 95 95 104 105 96 96 105 106 97 97 106 107 98 98 107 108 99 99 108 109 100 100 109 110 101 101 110 111 102 102 111 23 24 11 12 112 103 103 112 113 104 104 113 114 105 105 114 115 106 106 115 116 107 107 116 117 108 108 117 118 109 109 118 119 110 110 119 120 111 111 120 22 23 12 1 13 112 112 13 14 113 113 14 15 114 114 15 16 115 115 16 17 116 116 17 18 117 117 18 19 118 118 19 20 119 119 20 21 120 120 21 2 22
</DataArray>
        <DataArray type="Int64" Name="offsets" NumberOfComponents="1" format="ascii">
 4 8 12 16 20 24 28 32 36 40 44 48 52 56 60 64 68 72 76 80 84 88 92 96 100 104 108 112 116 120 124 128 132 136 140 144 148 152 156 160 164 168 172 176 180 184 188 192 196 200 204 208 212 216 220 224 228 232 236 240 244 248 252 256 260 264 268 272 276 280 284 288 292 296 300 304 308 312 316 320 324 328 332 336 340 344 348 352 356 360 364 368 372 376 380 384 388 392 396 400
</DataArray>
        <DataArray type="UInt8" Name="types" NumberOfComponents="1" format="ascii">
 9 9 9 9 9 9 9 9 9 9 9 9 9 9 9 9 9 9 9 9 9 9 9 9 9 9 9 9 9 9 9 9 9 9 9 9 9 9 9 9 9 9 9 9 9 9 9 9 9 9 9 9 9 9 9 9 9 9 9 9 9 9 9 9 9 9 9 9 9 9 9 9 9 9 9 9 9 9 9 9 9 9 9 9 9 9 9 9 9 9 9 9 9 9 9 9 9 9 9 9
</DataArray>
      </Cells>
      <PointData>
        <DataArray type="Float64" Name="Mode_1_w" NumberOfComponents="1" format="ascii">
 -0.00011472325194031382 -0.00011472319013754238 -0.00011472328465201824 -0.00011472372768675983 2.247265687611964e-5 4.977458836596843e-5 2.297162852785188e-5 7.054105238907413e-5 3.497808012876832e-5 7.054121485725775e-5 2.2971671422257515e-5 4.9774597514242635e-5 2.2472168508564267e-5 2.2472402727931754e-5 4.977468052964003e-5 2.2971296665660276e-5 7.054092321814816e-5 3.4977826431067264e-5 7.0540810101154e-5 2.2971501872716722e-5 4.977458082684998e-5 2.2472645960286838e-5 2.2472440912296112e-5 4.9774832377637345e-5 2.2971611915691838e-5 7.054157098740841e-5 3.497815934020509e-5 7.054115308962006e-5 2.2971423057207854e-5 4.977468432469582e-5 2.2472672781288024e-5 2.2472638046022403e-5 4.9774899421460285e-5 2.297180377326563e-5 7.054162810353299e-5 3.497775028147157e-5 7.054090109930967e-5 2.2971322750306987e-5 4.9774731579793085e-5 2.2472546574066617e-5 6.1699684607279295 11.732779994889887 16.123999927475907 18.94975050911675 19.915113545586998 18.949767173920105 16.1240231048453 11.732800060004895 6.169979104391407 11.732780596311308 22.26529068224508 30.621201529118693 35.966752494050084 37.817431593098185 35.966776401071655 30.621235564581678 22.265321121964327 11.732798029453363 16.124000398274944 30.621200624562817 42.087733074844316 49.45381915337716 51.98032320820633 49.453840020035756 42.08776421311296 30.621230064087616 16.124018026751695 18.949747913593697 35.96674397983121 49.453807147993146 58.09000939091859 61.0746554328329 58.09002178424835 49.45382868852031 35.96676716218106 18.94976252289773 19.91510039443935 37.817402022897944 51.98028171664325 61.074621444009985 64.19622115762989 61.07462692568539 51.98029479913967 37.81741919916401 19.91511264767006 18.949736807591982 35.96671709151693 49.45376046181468 58.08994336728922 61.074577655187376 58.08994699765158 49.45377030838356 35.96673147543374 18.9497482098346 16.123980904600085 30.621156881659388 42.08766039386426 49.453718684014895 51.980205368388795 49.45372370899205 42.087670750290535 30.621171277560347 16.12399195282572 11.732759873139093 22.26524758396358 30.62113318768626 35.96666078521831 37.81732375898866 35.96666655768958 30.621143839441142 22.26526100397335 11.73276982076171 6.169954798004793 11.732753811392163 16.12396049502401 18.949698873072293 19.915052076495545 18.949702605565324 16.12396769290988 11.732762644936868 6.169961261947671
</DataArray>
        <DataArray type="Float64" Name="Mode_2_w" NumberOfComponents="1" format="ascii">
 0.0003728427837355244 -2.1779676061923708e-10 -0.0003728425634148725 -5.3990995754131354e-11 -0.00016713996491069403 -0.0002567549441849823 -0.00018065597581036602 -0.00030623168268797133 -9.600732806242433e-5 -0.00017285951595734367 4.516137996126827e-5 -6.47201280770417e-5 6.77505282605052e-5 -6.775057456668982e-5 6.472042081687573e-5 -4.5161675069488506e-5 0.00017286041001393564 9.600721200812102e-5 0.0003062319894874388 0.00018065575744650753 0.00025675531308986643 0.00016713968178634915 0.00016713973325657583 0.0002567551100161836 0.00018065614356204323 0.00030623220606167063 9.60064547884731e-5 0.0001728602353004954 -4.5161552483592936e-5 6.472023964079659e-5 -6.775030663017776e-5 6.775047682726808e-5 -6.471999247912227e-5 4.516165980993078e-5 -0.00017286025736883495 -9.600698082242125e-5 -0.00030623191085044543 -0.0001806561667439954 -0.00025675486837221673 -0.00016713996931692587 -17.097825630925946 -29.990805179763942 -35.996025390922306 -34.55936326466728 -27.33452807281267 -17.461594062762476 -8.331360429839515 -2.325732963311511 3.277400239991398e-6 -29.9908027091324 -52.288279535185744 -62.00566486054859 -58.24310053881282 -44.228005323171516 -25.927352494655732 -9.717334969933596 7.306384710201027e-6 2.325742772806376 -35.99602213748961 -62.00566200866111 -71.7223637824657 -64.24862984585243 -44.22764763759611 -19.92172736699902 1.3230350025115316e-5 9.717353393049201 8.33137081369101 -34.55935957268489 -58.24309491611496 -64.24862496001808 -52.01987752572043 -27.33418721681631 1.8212129863071557e-5 19.92175823232628 25.927374183138852 17.461605190415963 -27.334519536868424 -44.22799224013133 -44.227634856579414 -27.334179388407264 2.305054312906777e-5 27.334224410265545 44.22767715103704 44.22802799957318 27.33454116174398 -17.461579362541414 -25.927329779690613 -19.92170535833011 3.406145562192649e-5 27.33423211070783 52.01991406615823 64.2486566243274 58.24312274351815 34.559377403351874 -8.331344255555388 -9.717306140027263 4.3567810173782525e-5 19.921780975189105 44.227690378074335 64.24866128312179 71.72238860656225 62.005683841759065 35.99603723398446 -2.325719945841071 3.382103006096726e-5 9.717383766421754 25.927398481143097 44.228043193076694 58.24312843448446 62.005683783458544 52.28829410483585 29.990812740070368 1.0700619227226894e-5 2.3257573706199497 8.331388369212005 17.461621127544618 27.33455228797652 34.55938148312731 35.9960364635055 29.990811871749038 17.097829714508546
</DataArray>
        <DataArray type="Float64" Name="Mode_3_w" NumberOfComponents="1" format="ascii">
 4.253502345625984e-12 -0.0003728425387127271 2.1177143490321817e-12 0.00037284216348817733 -6.775046832347265e-5 6.472012175304369e-5 -4.516179282385182e-5 0.00017286063835152745 9.60074331866518e-5 0.0003062321059097965 0.00018065589391085484 0.0002567548659365594 0.00016713953527837128 0.00016713959863065586 0.00025675488226418547 0.00018065615354656648 0.0003062319665360087 9.600701499520601e-5 0.00017285984260587616 -4.5161612437446436e-5 6.472003551593061e-5 -6.775042118177715e-5 6.775058322690778e-5 -6.472031722926372e-5 4.516183523235355e-5 -0.00017285974204329634 -9.600706719068691e-5 -0.0003062318799719869 -0.0001806558359838827 -0.0002567547502689306 -0.00016713951173595563 -0.000167139403228713 -0.00025675503349800244 -0.0001806557765686745 -0.00030623189657127324 -9.600721218587699e-5 -0.0001728598376199462 4.516150526107159e-5 -6.472059493498961e-5 6.775024179024738e-5 1.8995671329512637e-7 -2.3257381428498016 -8.331363337465335 -17.46159230657715 -27.33452271127553 -34.559354344136814 -35.99601240384828 -29.990790565337726 -17.097815713463554 2.3257445077084977 9.80834720216599e-6 -9.717332412417719 -25.92734686858314 -44.22799455635317 -58.243084738080775 -62.00564416551875 -52.28825798539346 -29.990788420662692 8.331384140222276 9.717373952615159 3.220355456405603e-5 -19.921711041382466 -44.22762912826069 -64.2486071087314 -71.72233850115353 -62.00563894350917 -35.99600855000452 17.461630597841708 25.927413607395895 19.921797539521716 4.954021511126752e-5 -27.334161677070096 -52.01985353003053 -64.24860253455613 -58.24307775550763 -34.55935088925804 27.334570901470038 44.22807666089147 44.22772807634217 27.334264091158758 4.7745238298008094e-5 -27.334166025211722 -44.22762859394368 -44.22799036570809 -27.334520069712735 34.55939977629696 58.2431627025188 64.2487009321784 52.019946578391014 27.33424472432341 2.8295125547828392e-5 -19.921721517091253 -25.92734670073464 -17.46158964194551 35.9960457997911 62.00570326657495 71.72241174763217 64.24867391386243 44.22768350434887 19.92175609977326 8.910217974574059e-6 -9.717337261780267 -8.331360776443727 29.990810918833745 52.288296630013235 62.005687728001895 58.243123249667256 44.228022973091356 25.92736530623318 9.717344780653066 7.27598707995177e-7 -2.3257369303951103 17.097825672697937 29.990808692762535 35.99603374817125 34.55937302498566 27.334535255273515 17.46159798904082 8.331363452980717 2.32573701173792 0.0
</DataArray>
        <DataArray type="Float64" Name="Mode_4_w" NumberOfComponents="1" format="ascii">
 -0.000646058663883053 0.0006460590385977096 -0.0006460591600050692 0.0006460592186089509 0.0004519513162688808 0.0004065462569488435 0.00046405492659371797 0.0002766485365712971 -6.374062484476844e-10 -0.0002766483942371254 -0.0004640552839598911 -0.00040654587990062303 -0.00045195163862435606 -0.0004519520285967328 -0.0004065460646283481 -0.0004640547071139531 -0.00027664848727041336 -3.795944236266061e-11 0.00027664884586362816 0.0004640550538396062 0.0004065466383091347 0.0004519518634029234 0.000451952032832041 0.0004065466181960309 0.0004640548739701958 0.00027664881149766464 -3.5926523717955325e-10 -0.00027664897439273 -0.0004640552490147015 -0.00040654675116872643 -0.0004519519143933417 -0.00045195205870116403 -0.00040654673532767704 -0.0004640556028792543 -0.0002766482249672512 4.4735142285209407e-10 0.0002766488480117117 0.0004640551855995341 0.00040654631783180583 0.0004519517259460286 23.338025827548936 37.760516622244815 37.759882065881754 23.33672838657872 2.0424023440869373e-5 -23.33670034212498 -37.75988076891708 -37.760533698108055 -23.33804133511094 37.76050953229252 61.09583740806016 61.09488570082789 37.75843989568038 2.933637988098083e-5 -37.75840207983667 -61.09489087900969 -61.09587162322667 -37.76054010159029 37.75986047046765 61.094862585548064 61.093937143413946 37.75785880238927 2.4528353951809868e-5 -37.75783172877817 -61.09395489071167 -61.09490976646198 -37.759899580184616 23.336692698236874 37.75839217550125 37.75782845571984 23.3354579051983 1.1205542378207065e-5 -23.335451647550464 -37.75785663055038 -37.75844208383515 -23.336731107249122 -1.6411814485659828e-5 -2.1677674040015832e-5 -1.469635739798918e-5 -4.538081156360558e-6 8.982015559722186e-7 -1.5196022412559016e-6 -9.646127637481283e-6 -1.5146789816403348e-5 -1.1244168340175029e-5 -23.336718020621557 -37.75842372703138 -37.7578453502858 -23.335453834090362 3.476975110949857e-6 23.335459502231256 37.757845698065864 37.75841718066801 23.336710717739116 -37.75986914599427 -61.094868739398045 -61.09392697892447 -37.75782763627079 1.585648089680175e-5 37.75786065817101 61.09396099270235 61.09489690932445 37.75988459039831 -37.76050555355251 -61.09582485901751 -61.09485701375803 -37.75839308413551 2.3766862480852517e-5 37.75844270161594 61.094908239589365 61.095869231613186 37.7605317371677 -23.338020180958765 -37.76050387703154 -37.7598583351531 -23.336693931828037 1.747921853376147e-5 23.33673050101628 37.759895382361265 37.76053531608033 23.338038815661715
</DataArray>
        <DataArray type="Float64" Name="Mode_5_w" NumberOfComponents="1" format="ascii">
 -6.780858040593293e-10 -1.35980215695901e-10 -1.4605661273473599e-10 -8.479383134517499e-11 2.742549918573965e-5 -6.633509471376504e-5 -0.00036949164429143705 -0.0006645451330812703 -0.0008141744865439324 -0.0006645445086906582 -0.00036949168920957293 -6.633647986924952e-5 2.7423738744570682e-5 -2.742467523344417e-5 6.633651914804015e-5 0.00036949272863787185 0.0006645454907615783 0.0008141745823306276 0.0006645439016882363 0.000369490380709421 6.633620757134183e-5 -2.7424314483378216e-5 2.7424585034084152e-5 -6.633693277478056e-5 -0.0003694916154623382 -0.0006645464517193556 -0.0008141755316831153 -0.0006645445979841793 -0.0003694905587888081 -6.633596563347e-5 2.7424229726406955e-5 -2.742448375823514e-5 6.633622799034462e-5 0.0003694913204707159 0.0006645454507857427 0.0008141745264607449 0.0006645447342422104 0.00036949114540686786 6.633688451566797e-5 -2.7423365733661575e-5 1.813541199403002e-5 8.727582975579823 27.109909100473804 46.28179449000987 54.457508448492625 46.28182106712406 27.109933786462317 8.727586072183751 9.578147487911878e-6 -8.72755119178546 1.133466650150689e-5 28.50151818474878 60.661790220982674 74.69516785214243 60.66182801594341 28.501561557692778 3.426843914635054e-5 -8.727546205389755 -27.109905668745746 -28.501523548886805 -7.686331732010435e-6 37.29242093545646 54.18564679364134 37.29244322380944 2.4422222274516766e-5 -28.501492030319852 -27.10988476978352 -46.28179894452368 -60.66179698654589 -37.292430707318935 -7.2809703147092105e-6 17.59359690588058 -9.03321330593832e-6 -37.292433991732096 -60.66179673179194 -46.281795218784005 -54.457490240142405 -74.69514207950417 -54.18563499297869 -17.593610411817224 -1.0988688514780195e-5 -17.593617498229676 -54.18566074455218 -74.69518495953152 -54.45752461611375 -46.28177854961448 -60.66176660104944 -37.29240353596787 8.863699369028498e-6 17.593609849450154 9.838646106479216e-6 -37.29242673565899 -60.66182129688288 -46.28182854514137 -27.109886714886773 -28.501481526941358 4.460527661895061e-5 37.29245736355292 54.1856625320232 37.29245296038423 2.0541422408625858e-5 -28.501526967764264 -27.10992588560968 -8.727548505731637 4.57975086189586e-5 28.501581403686817 60.6618407668951 74.69517927748956 60.66181202698647 28.501537046363794 4.168801474141073e-6 -8.727572763964718 1.1441083546215669e-5 8.727600480852967 27.109953970214168 46.28183386839345 54.45751432060067 46.28179820718922 27.109907726811276 8.727569115952502 0.0
</DataArray>
        <DataArray type="Float64" Name="Mode_6_w" NumberOfComponents="1" format="ascii">
 -0.0005096554078518096 -0.0005096557319943345 -0.0005096560076407313 -0.0005096556398890877 0.0003998114974121201 0.0006731737817321575 0.0004061662974551865 0.00047749567999373616 0.00017288892997316974 0.0004774953349517247 0.00040616653035002265 0.0006731740999535624 0.0003998116324806718 0.00039981154892041376 0.0006731737819956182 0.0004061656240565774 0.00047749504013230924 0.00017288772101869458 0.000477495374546589 0.000406166106333442 0.0006731740766834522 0.0003998121759476415 0.00039981202345948955 0.0006731743704457775 0.0004061663291234796 0.0004774952576747199 0.00017288758806367326 0.0004774949481229105 0.00040616593729214635 0.0006731737365470254 0.00039981166185066767 0.00039981132630413315 0.000673174113563632 0.000406166176414447 0.0004774955836394149 0.00017288753236904169 0.00047749456081097916 0.0004061655034293604 0.0006731737071213425 0.0003998115240776162 24.673169492407837 37.735532641326245 36.48909088795736 28.340023351443737 23.927934553182656 28.34004688675903 36.489124421375266 37.73556107628365 24.673184516080966 37.73553957774444 54.4984849282196 46.17422777860177 26.891602350998287 17.332692106147768 26.891629075698958 46.17426522243382 54.49851619932896 37.7355553102136 36.489116704603454 46.174254086257115 24.162698340689953 -8.918070748210607 -24.403876275578032 -8.918061186426222 24.162706916949286 46.17425421607816 36.4891122829763 28.340068051880095 26.891656679758118 -8.918040692765208 -54.236710282776606 -74.55180340392195 -54.23672061564342 -8.918066386882353 26.89161813708394 28.340036958999754 23.92797889048722 17.33274873600907 -24.403838935261813 -74.55179290872539 -96.85691741494261 -74.55181071666357 -24.403876657203604 17.332698365229145 23.927940278532667 28.34007166814356 26.891660528943437 -8.918043196255825 -54.236722721806245 -74.5518206447386 -54.236733268616796 -8.918066697106903 26.891629811296333 28.34004916336331 36.489128200318966 46.17426695676868 24.162699842618483 -8.91808477415092 -24.403899140667008 -8.918080271829762 24.162703599887056 46.174267935893525 36.48912830599629 37.735554681275055 54.49850375450627 46.17423697835127 26.891597516614695 17.33267676470844 26.891612569126348 46.17425939636326 54.49852540655334 37.73556857766296 24.673179125718296 37.73554578645339 36.489100682843365 28.340025958335776 23.927929795462084 28.34003836078061 36.489119683084176 37.7355648636281 24.67319158086095
</DataArray>
        <DataArray type="Float64" Name="Mode_7_w" NumberOfComponents="1" format="ascii">
 -4.717863068155892e-10 -0.00116437020752173 4.383436140066388e-11 0.0011643701101726979 -0.0001313319932175223 9.804465608125218e-5 -0.0008203938488851773 -0.0005901275788803116 -0.0009063670988650874 0.00034362920331849363 0.0007214781050302451 0.0015348347508046323 0.0011193522486938464 0.0011193523224817456 0.0015348356496550843 0.0007214796487064573 0.000343629368330165 -0.0009063673807814375 -0.0005901283198380492 -0.0008203945475035245 9.804373641122534e-5 -0.00013133285027522272 0.0001313329919625891 -9.804365560627578e-5 0.0008203937718307927 0.0005901268471311112 0.0009063661071082225 -0.000343628811126611 -0.0007214781035421978 -0.0015348352141436865 -0.001119352532098599 -0.0011193527833652788 -0.0015348354015441376 -0.0007214787145765225 -0.00034362858833161537 0.0009063667319508997 0.0005901269136308582 0.0008203937726252955 -9.804292596623107e-5 0.00013133430199928922 1.7564014738401912e-5 10.672511575169057 29.50437503420713 40.993156286359564 29.256098124758655 -6.499096075433966 -47.340199173788164 -66.17530737738059 -47.49684817771794 -10.672481931355316 9.964249690207886e-6 30.468690352840788 55.652963975214966 47.33339216397766 0.15730533460549967 -59.327209612840285 -89.79761732463847 -66.17530362084247 -29.50437701167689 -30.46870278033045 -1.0955413160748694e-5 36.821086012690316 47.33250712527947 18.986519568750147 -28.856600303765905 -59.32721274388828 -47.34019874562881 -40.99317238367465 -55.65298560736052 -36.82110279873979 -5.2073253760038996e-6 29.252454720697266 34.49100874927423 18.98650737408854 0.15728669781946591 -6.499109266867057 -29.256099330197507 -47.33339155243582 -47.33250865901971 -29.252465010175005 -7.921380443285659e-6 29.25245143036035 47.33249419611219 47.33336922301109 29.256078401358284 6.4991124317677675 -0.15728126577475995 -18.98650736477952 -34.49101832446487 -29.252464479719656 1.2061504692618306e-6 36.82109150575351 55.65295722518433 40.99314469009952 47.34021688804703 59.32724368240314 28.856629408071957 -18.986505843682732 -47.33250786655958 -36.8210912912045 4.0130695899677464e-6 30.468692561396683 29.504368341487382 66.17531937962657 89.7976551386926 59.327259857224846 -0.1572714973805518 -47.333393160708376 -55.65298607741697 -30.4687039023985 -1.976252213933627e-6 10.672496530514401 47.49685582025893 66.1753324323018 47.34023889005903 6.499124481150691 -29.256102694487804 -40.993182195943874 -29.504390573552385 -10.672502004412815 0.0
</DataArray>
        <DataArray type="Float64" Name="Mode_8_w" NumberOfComponents="1" format="ascii">
 0.0011643702699484135 -5.879966423579526e-11 -0.0011643698449684073 2.055734484526308e-11 -0.0011193525735444646 -0.0015348354653817536 -0.0007214790405390407 -0.00034362899409245826 0.00090636662915162 0.0005901269226225079 0.0008203942946754627 -9.804327924045656e-5 0.0001313331462234526 -0.00013133289068815662 9.804380079941408e-5 -0.0008203942820657613 -0.000590127213052974 -0.0009063672231223817 0.00034362875790886117 0.0007214785115090193 0.001534835092143215 0.0011193526437539621 0.0011193523473646695 0.0015348355812185971 0.0007214787010283507 0.0003436286846914345 -0.0009063667062106856 -0.000590127223899046 -0.0008203939158937914 9.804356211019766e-5 -0.00013133323937097307 0.00013133316516642044 -9.804400652901008e-5 0.0008203939459031693 0.000590127179043817 0.0009063665133757507 -0.0003436293573120248 -0.0007214785385697207 -0.0015348354026708843 -0.0011193525096460603 -47.496858007992465 -66.17532343890794 -47.34022275661277 -6.499121017580735 29.256086968765857 40.99315975347585 29.504374937691793 10.67249463243235 -3.559334088134238e-6 -66.17532462731393 -89.79764868029912 -59.32724357523715 0.15727660883889133 47.33338159533164 55.65297143779767 30.468695338428393 -4.746072022889145e-6 -10.672503205096953 -47.340226070304155 -59.327247849100225 -28.856623988226072 18.98651214622907 47.33251302682948 36.82109934740029 -1.6013921912141367e-6 -30.468704500850727 -29.50438316812453 -6.499124799172712 0.15726898263530176 18.98650477691431 34.491027131493574 29.252481957043397 1.5203670516291768e-5 -36.82109416551916 -55.65298365071206 -40.99317122104663 29.25608212102324 47.33337253105112 47.3325029616615 29.252476171355628 2.616857028697579e-5 -29.252442623490435 -47.33250713837877 -47.33340049458941 -29.25610585084077 40.993153287101556 55.65296236248088 36.82109181739798 1.0929629602126292e-5 -29.252444458489975 -34.491009562139396 -18.986522265604112 -0.15730686392849125 6.499094910046978 29.504370838635552 30.468688546261934 -6.621026013229337e-6 -36.82109731371696 -47.33251107013207 -18.986524874966058 28.856590099449342 59.327204217092415 47.34019608533988 10.672495309299302 -6.7492938849744675e-6 -30.468707953970984 -55.65298942363214 -47.33340903579286 -0.15731236424748898 59.3272031914843 89.79761128007242 66.17530209091639 -7.697720788624201e-7 -10.672501892673559 -29.50438503737357 -40.993176704343014 -29.256113369869897 6.499090176255708 47.34019448057043 66.17530151733602 47.49684538632747
</DataArray>
        <DataArray type="Float64" Name="Mode_9_w" NumberOfComponents="1" format="ascii">
 -0.00111026894118921 -0.0011102690392331199 -0.0011102688849297737 -0.0011102686615396353 0.0014745769193938005 0.0019781671850656137 0.00022582669783876598 -0.0007485940564871432 -0.002107472328230559 -0.0007485940612059171 0.00022582643722398886 0.001978167620994401 0.0014745771552303463 0.0014745771532392597 0.001978167364950872 0.0002258259506422435 -0.000748594483238131 -0.0021074726090934462 -0.0007485940797575921 0.00022582711111404278 0.0019781672677608155 0.0014745772265886688 0.0014745764784487951 0.0019781672649032598 0.00022582667468716084 -0.0007485937862437554 -0.002107470786464994 -0.0007485928028645975 0.00022582804013467178 0.0019781667987436077 0.001474576547463601 0.0014745762250483313 0.0019781666313263275 0.00022582653310456154 -0.0007485936259455512 -0.0021074712573888 -0.0007485932308636126 0.00022582705181798478 0.001978167280967482 0.001474576968419942 48.675814337676684 56.624945699160705 18.020592326565534 -35.26805399847801 -59.764819677016824 -35.268068081285016 18.02057510491341 56.62493274077321 48.67580732347559 56.62493823148246 65.69343343519648 20.987540082708907 -41.01057896048292 -69.34666059383252 -41.010598719805145 20.987523780122896 65.69343323951985 56.62494454442602 18.020574527481596 20.98752656322048 6.651175643400319 -13.030186383582981 -22.143423632119482 -13.030210873328404 6.651166516463886 20.987551952622155 18.020606152617745 -35.26807788168176 -41.01059259304852 -13.030175970411728 25.52272119700066 43.28591858485449 25.522685531470465 -13.0301919046122 -41.01055796352527 -35.26803201171087 -59.764840360176585 -69.34665979374346 -22.14338089974642 43.2859655623066 73.18707201603152 43.285920496832894 -22.143412080134386 -69.34663944453794 -59.76480226234897 -35.268078429987185 -41.010588563240475 -13.030158767904357 25.522757250446467 43.285965222308704 25.522719383003597 -13.030191974240712 -41.010587263071656 -35.26806063450515 18.020573241183378 20.987524638698616 6.651179986939577 -13.030162425282047 -22.143380895339206 -13.030175929516492 6.651167052905726 20.987522072981346 18.02057682256396 56.62493477135737 65.69341866499649 20.987514665099475 -41.010599298614366 -69.3466621730029 -41.0105885177887 20.987527856369386 65.69342599943685 56.62493583246285 48.67581042036103 56.624929626668745 18.020561514325273 -35.26808993451016 -59.7648446002532 -35.26807434335248 18.02058075665503 56.62494044589105 48.675811816909444
</DataArray>
        <DataArray type="Float64" Name="Mode_10_w" NumberOfComponents="1" format="ascii">
 5.490186156061673e-10 0.0008158109477021276 -1.4351614691705477e-10 -0.0008158102199181733 0.00014410949155074687 -0.0007163615010374268 -0.0012981260494123494 -0.0020385322443408657 -0.0012650765574046864 -0.0010578445661903846 -0.0007095577146838097 -0.001262196146740017 -0.001050748120933073 -0.0010507481906457967 -0.001262195184601926 -0.0007095549346679849 -0.0010578424249384239 -0.0012650754659315948 -0.0020385318934104087 -0.0012981253901002917 -0.0007163612211087097 0.00014411008021631973 -0.00014410990481771935 0.0007163608954841322 0.0012981256714909635 0.002038532279999131 0.0012650770518318117 0.0010578450621543053 0.0007095569871625146 0.0012621952781424462 0.0010507470539714199 0.001050746897599043 0.0012621943178633137 0.0007095554590724884 0.0010578437206140614 0.0012650763427296363 0.0020385313978940004 0.0012981247624885982 0.0007163598461456303 -0.00014411033606184177 -1.9161459626892236e-5 19.344938593898707 49.098394045681964 61.82669225796464 48.707290472406896 30.890462690294132 29.978292619026757 38.46444946769001 30.936289030049107 -19.344990309095405 -2.777351253415721e-5 42.29965016609913 57.5547242344244 30.10214968871164 -0.2541393100054769 6.571453766693897 35.72688368622209 38.46446865643401 -49.09842984885585 -42.29966444261641 2.343665337802551e-5 10.886918023912724 -30.103010307845807 -68.1893128107796 -48.872689811466486 6.571486918532171 29.978334721381714 -61.8267044454381 -57.55470004515192 -10.886841250448441 3.715749690630081e-5 -48.706886413075495 -92.71629372617737 -68.18931258044178 -0.25410238195415397 30.890508165939146 -48.70729984841039 -30.102133960034298 30.10305135593964 48.706899480868586 -2.4723148124347945e-5 -48.70693006882639 -30.103043886242826 30.102164367524477 48.70732424511746 -30.890493694330715 0.25411408240088423 68.18930121562833 92.71626111261824 48.706857440709534 -3.888217118294888e-5 10.886865112639438 57.55472678057915 61.82671867265657 -29.978341831842158 -6.571497983492738 48.87267999765047 68.1893125397901 30.103024731328638 -10.886895792596388 -8.254235788491214e-6 42.299664415453385 49.09842303798497 -38.46449201893266 -35.72690556390073 -6.571447922049072 0.2541756606884448 -30.102106519714724 -57.55470235932413 -42.29965981828301 3.1208282418535966e-7 19.34496849380808 -30.93631013145992 -38.46446601415482 -29.978280709109683 -30.890425143248667 -48.707255051256624 -61.82668336293439 -49.098412815691375 -19.344967416150578 0.0
</DataArray>
        <DataArray type="Float64" Name="Mode_11_w" NumberOfComponents="1" format="ascii">
 0.0008158105683215112 5.378674826094856e-10 -0.0008158106761027052 -3.9384469134944075e-10 -0.0010507477253253019 -0.0012621955990536062 -0.0007095564296343292 -0.0010578431673674508 -0.001265075281659759 -0.002038530650108904 -0.0012981250227679382 -0.0007163619212336022 0.00014410880706747396 -0.00014411128502948386 0.0007163607050548165 0.0012981265547025497 0.002038533780806396 0.0012650778471262826 0.0010578437976316833 0.0007095564402288172 0.0012621950022416928 0.0010507473194792767 0.0010507475060611716 0.001262195372947416 0.0007095564026825187 0.001057843271556178 0.0012650743630902143 0.0020385306126157153 0.00129812480807227 0.0007163615826829697 -0.0001441092016310074 0.00014411065422973124 -0.0007163601779792655 -0.001298125921939298 -0.002038533228666321 -0.0012650778054297208 -0.0010578442453564913 -0.0007095566890151018 -0.0012621952884657656 -0.0010507475569162608 -30.936303435263547 -38.46447437141393 -29.97831867135167 -30.890486237990903 -48.707319568957914 -61.826729559307026 -49.09842932737535 -19.344960733548238 1.1762649997998532e-5 -38.46447321700272 -35.72689995297836 -6.571475158287606 0.2541278842266836 -30.10215000295792 -57.55472840647959 -42.299669625588834 -2.1974885018446731e-7 19.344969812397437 -29.97830780091703 -6.571469073033075 48.87268518925193 68.18931995726041 30.103060990422527 -10.886847525396965 1.1559759702162199e-5 42.29964344777294 49.09839312976409 -30.890450779219243 0.2541466374788275 68.18930077661504 92.71627357285277 48.706927934269444 5.709847777615156e-5 10.886905677403334 57.55468434117593 61.82665703231842 -48.707257576666294 -30.102118674739593 30.10300420293642 48.70684717542892 -8.112463585627908e-6 -48.706860386250135 -30.103012822231687 30.10211052348142 48.707250537274746 -61.82666795097314 -57.55469657297649 -10.886915175990904 -6.676670097788959e-5 -48.70693802951485 -92.71627999271507 -68.1893034613521 -0.25414915643195835 30.890447741354105 -49.09840357830912 -42.299652937473375 -1.3175641420892469e-5 10.886850870613594 -30.10305648897736 -68.18931654026056 -48.872684670036136 6.5714657388539965 29.978304001892703 -19.344977104982718 -1.601507860062072e-6 42.29967912569282 57.55474502165724 30.102165532319358 -0.2541198557364129 6.571473536025162 35.72689155272925 38.46446550012871 -1.522110289378702e-5 19.344962957854623 49.098441617833664 61.82674621490487 48.70733278385477 30.890491610261847 29.978315681861776 38.4644661736959 30.93629647819441
</DataArray>
        <DataArray type="Float64" Name="Mode_12_w" NumberOfComponents="1" format="ascii">
 -0.0019926087313667145 0.001992608621537405 -0.001992609065171749 0.001992609235548423 0.002736241099474951 0.002298414368383139 0.0010803106301520676 -6.049731411214587e-5 -9.113026321083908e-10 6.04972007088986e-5 -0.00108031114529672 -0.0022984138348983887 -0.0027362408258300953 -0.0027362411611989747 -0.002298413623736511 -0.0010803109868392166 6.049732332632636e-5 -3.657077805597481e-10 -6.0497919010968095e-5 0.0010803101761026686 0.0022984139464309176 0.002736241509063683 0.0027362411564557858 0.0022984141781998363 0.0010803108086974537 -6.049699192786669e-5 4.92664151748962e-10 6.049812508545515e-5 -0.0010803104079513872 -0.0022984149145026836 -0.0027362415489916012 -0.002736241834097415 -0.0022984141349127215 -0.001080310429019981 6.049820351276193e-5 8.43153330082272e-10 -6.049780817130159e-5 0.001080310081745238 0.002298414084273059 0.002736241369175831 58.90626402346108 65.85171473722781 29.443945510181486 -0.005566682920297074 1.2569220480612111e-5 0.005582091614456762 -29.44394733750729 -65.85172433072545 -58.90627078705958 65.85172248297218 58.89470086469631 -0.0039148054533236845 -29.45085986061211 9.196651196511244e-6 29.45087146198692 0.003914245912973987 -58.89470763520247 -65.85172799072578 29.443960469455874 -0.0038993205984006866 -58.896667294983565 -65.84632887335259 -5.296383413007729e-6 65.8463240567064 58.89667160196001 0.0039062166651786046 -29.443956425258524 -0.005565244988578974 -29.450849316900413 -65.84631394889634 -58.8931911363878 -1.226012589977672e-5 58.89317794712296 65.84631918801131 29.450860562340228 0.005572124708738371 -1.3296307179084977e-5 -7.357904027727053e-6 8.304921906263911e-6 9.931410489257576e-6 -4.834460931023009e-6 -1.5578704972296098e-5 -8.905096316491482e-6 6.051123220764478e-6 1.0627373846776896e-5 0.005546800660802443 29.450839929978457 65.84632631106216 58.893205300761466 5.880727020984956e-6 -58.893198589244236 -65.846330047197 -29.45085133326977 -0.005556934803751236 -29.4439630269945 0.0038984020414669336 58.89666860866629 65.84633095192473 7.407746047266535e-6 -65.84632223874719 -58.89667108746532 -0.0039061380504400002 29.443957956783986 -65.85171377633041 -58.89469769530841 0.003905185523375428 29.450851903458123 -8.001662722658871e-7 -29.450855636360508 -0.003909745650155874 58.894698707889056 65.85171871100366 -58.90625409460983 -65.85171143514451 -29.44395628306427 0.005557541904795233 -6.018098687181555e-6 -0.005569369428566607 29.443949875154225 65.85171562719535 58.906261696932766
</DataArray>
        <DataArray type="Float64" Name="Mode_13_w" NumberOfComponents="1" format="ascii">
 5.133422714711959e-10 -7.94650609742429e-10 1.7661471074237337e-10 -6.586700460747794e-10 -5.190657830180572e-5 0.0010445545866469683 0.0024385320362037342 0.0022045931297209314 -1.3379354783675378e-10 -0.002204591531742749 -0.0024385312902112746 -0.0010445535233843104 5.190695831553777e-5 -5.190338902784851e-5 0.0010445555774336915 0.0024385301471883496 0.002204590707496052 -7.2432984211654e-11 -0.0022045898436393145 -0.0024385308304540475 -0.001044554725005075 5.1905181799542636e-5 -5.1905182704273137e-5 0.001044554971951432 0.0024385319238181373 0.0022045929181600476 7.989368612966355e-11 -0.0022045922693276986 -0.00243853276427179 -0.0010445546772635858 5.1906061787586394e-5 -5.1904331433091214e-5 0.0010445562546058853 0.0024385322559845077 0.0022045916055410354 -6.379798032607917e-11 -0.0022045914837113927 -0.002438531755585426 -0.0010445553312119393 5.1904237937460556e-5 -1.4764081393176832e-5 -29.447888737139795 -65.8508233986485 -58.89971290160559 -1.1222807574577235e-5 58.89970327486353 65.85083600581713 29.447905735802664 2.0745884861131387e-5 29.447871128423625 -6.75781373200281e-7 -58.89570819824479 -65.84720955519151 -1.880749985161839e-5 65.84719090449327 58.89571999676505 1.669795190902342e-5 -29.447867876894573 65.85083580086459 58.89572921853126 6.236597633551265e-6 -29.447023451549782 -1.3129484379038382e-5 29.447010242628302 -1.304252321275997e-6 -58.89572537603979 -65.85083938337935 58.89972514993478 65.8472146758061 29.447012434776777 -4.661576011655378e-6 5.791733784733149e-6 1.4118329712172432e-5 -29.44701087189502 -65.84722094822662 -58.89973101576096 -7.564175025935164e-7 -9.367755321797453e-6 -1.0763678859090818e-5 4.658305681835448e-6 1.9681149123058953e-5 1.6543572045828232e-5 3.5317165896435345e-6 -3.1560023412554955e-6 -2.4051380163146303e-6 -58.899715852514746 -65.84721793175675 -29.447026662514602 6.337192412906212e-6 1.5500037381010766e-5 2.542735004369669e-7 29.44700277795803 65.84720293453582 58.899719512526474 -65.85081328689151 -58.8957135204091 -1.2384776047286566e-5 29.44701005585091 4.231631991050237e-6 -29.44702205239478 -1.866761255891822e-5 58.89570575593236 65.8508292285111 -29.447851655146486 1.1266348827072376e-5 58.89569461404814 65.84718521939077 7.996554942776982e-7 -65.84719822378261 -58.89571659682394 -4.581442856045712e-6 29.447879140447515 2.42423409801983e-5 29.447887925607002 65.85080500367228 58.89969117985645 2.175723095093668e-6 -58.89969545911381 -65.85081349569897 -29.447876533043665 0.0
</DataArray>
        <DataArray type="Float64" Name="Mode_14_w" NumberOfComponents="1" format="ascii">
 0.002531351838564984 1.137280781079724e-10 -0.002531351813467307 -4.796047928963365e-13 -0.004362101601924103 -0.004005089328477304 0.0010163366718690314 0.00290711417821781 0.003140443450342562 -0.0010898110651378391 -0.0014003058901696018 -0.0017212079846188214 0.0002992465583855703 -0.00029924715598470404 0.0017212076042689543 0.0014003061792880935 0.0010898115231603514 -0.0031404427533503346 -0.0029071146361410744 -0.0010163369528200445 0.004005088730644658 0.004362101716740999 0.004362101041941818 0.004005089407577355 -0.001016336559505164 -0.002907114315625175 -0.0031404430063315617 0.0010898110495597415 0.0014003060822621897 0.0017212078680435667 -0.00029924691977908674 0.00029924696522653783 -0.0017212081932719198 -0.00140030610551405 -0.0010898115857067188 0.0031404422841793773 0.0029071141547612825 0.0010163369250144978 -0.004005089341742831 -0.004362101173959545 -85.59200732538135 -75.7365191393141 10.871670385736879 73.63767345651493 52.09895258824391 -11.951816161687137 -42.02996111366211 -22.84329258644678 1.0453291659712419e-6 -75.73652237805423 -60.91685130330883 20.835825399300045 68.34804467932173 32.19436095765248 -30.22786725139799 -40.09129621194627 2.4142385633282586e-6 22.84329465796028 10.87166664251491 20.835820506503982 19.258566740533375 -3.484305923072505 -32.199772432882746 -34.64192351439975 3.959128553171243e-6 40.09129940815162 42.02996027760429 73.63767716693162 68.34804182831684 -3.484314111999922 -61.68398951604865 -52.09702728439268 5.437825017011858e-6 34.641932637830415 30.227865283431154 11.951808789044566 52.09896467721884 32.19436530269247 -32.19978307967033 -52.09703811124436 -4.064334138366395e-6 52.09703239748392 32.19978226247135 -32.19436301566085 -52.09896257073508 -11.95180513491181 -30.2278601103066 -34.64192835577227 -3.6792771800077147e-6 52.097027782775854 61.68399140538496 3.484317298114086 -68.34803940927362 -73.63767623562994 -42.02996066717856 -40.09129602930716 4.12896446408115e-6 34.64193346056061 32.19978213455657 3.4843152936355035 -19.258558713588144 -20.835815948389488 -10.87166524511813 -22.843302636341562 -7.030787390971207e-6 40.09129910227232 30.22787172193278 -32.19435975503742 -68.34804468471111 -20.835823210465655 60.916854598216744 75.73652375453115 -9.36076442641208e-6 22.843285048251175 42.0299592871577 11.951813629633536 -52.0989606420675 -73.63768300990212 -10.871675416648843 75.73651907987016 85.59200791646771
</DataArray>
        <DataArray type="Float64" Name="Mode_15_w" NumberOfComponents="1" format="ascii">
 -1.1038695081688046e-9 0.0025313521233320865 -6.901260355240078e-11 -0.0025313513850100814 0.0002992489188478809 -0.001721205852948029 -0.0014003063922747362 -0.0010898114476568814 0.003140442797757837 0.0029071152773951993 0.0010163369143483625 -0.004005089380379309 -0.00436210192179249 -0.004362101677629633 -0.004005089654767077 0.0010163363647660206 0.002907114078582615 0.0031404418285274354 -0.0010898125347229301 -0.0014003065971908788 -0.0017212081686814283 0.0002992471174689137 -0.0002992463174764706 0.001721207426611388 0.001400305735091321 0.001089810636329006 -0.003140443692057045 -0.002907114456339528 -0.0010163369006263466 0.004005088719967528 0.00436210061721337 0.004362100096971495 0.004005089013929737 -0.0010163368280445304 -0.0029071133058883813 -0.003140443525344346 0.0010898113863472493 0.0014003059026865767 0.001721209737511359 -0.0002992450863463763 4.1457025064142445e-5 22.843334626890673 42.02997250267057 11.951806896468359 -52.098954728099486 -73.63765948172876 -10.871656175687498 75.7365186427083 85.59199879216963 -22.843251981132518 3.444577998301487e-5 40.091295145225224 30.227849099005056 -32.194359547934816 -68.34801933585031 -20.835803021247436 60.91685166366198 75.73651170640468 -42.029948769448964 -40.091300700067315 -2.787748452036688e-5 34.64190074210299 32.199775719468384 3.484327035112011 -19.258554687179632 -20.835828271143008 -10.87167993633192 -11.951816669572755 -30.227885302720882 -34.64196002113333 -2.33840313749913e-5 52.0970276126795 61.68399511554811 3.4843065753079983 -68.34806344070536 -73.63769647767157 52.09896547985572 32.19436270115738 -32.19978765800961 -52.09703617620419 7.919328688834219e-6 52.09704385167937 32.19977734182267 -32.19438642941579 -52.09898529801411 73.63769577654045 68.34806410136059 -3.4843004874501053 -61.683982836311934 -52.0970148903306 2.7367421872563597e-5 34.64194749881624 30.227858293710725 11.951792667076496 10.871682275199188 20.835837274402795 19.258571300347423 -3.484313600869367 -32.199776462490064 -34.64191027975097 2.3621275951195718e-5 40.09130508164044 42.029954389877595 -75.73652199282441 -60.91685715879483 20.835810883079443 68.34802329136365 32.19433882283259 -30.22787934339875 -40.0912963142738 4.11243340723694e-6 22.843293320243074 -85.59201364012117 -75.73653307354722 10.871653150192161 73.63765558845263 52.09893101922511 -11.951838197307147 -42.02997480986096 -22.8432972717896 0.0
</DataArray>
        <DataArray type="Float64" Name="Mode_16_w" NumberOfComponents="1" format="ascii">
 6.000721971340999e-10 -1.38918102759113e-10 2.531815593422906e-11 -2.7835463231718216e-10 -0.00022195924754013705 -0.0019937192871745187 -0.0037528947134754733 -0.003226424782662818 -0.002529899557539582 -0.003226425247199268 -0.003752894479467915 -0.00199371807724531 -0.00022195823624132505 0.00022195786281600118 0.001993717525704742 0.003752893955840144 0.003226423531465245 0.0025298983404675713 0.003226424406139015 0.003752894554972874 0.001993717988328746 0.00022195798960909072 -0.00022195778391394857 -0.0019937180574100366 -0.003752894429461387 -0.0032264249873857815 -0.0025298996822353246 -0.0032264259018907 -0.0037528956776250993 -0.00199371825722185 -0.00022195752949810625 0.00022195856406744333 0.00199371831987591 0.003752894581491177 0.003226423951871572 0.002529898439392433 0.0032264242180717615 0.003752894657009421 0.0019937172915101263 0.0002219565311233069 -1.8306709919360616e-5 32.69080917743622 62.2751334942894 52.33313482286837 37.36838596788774 52.33312956582321 62.27513495341679 32.690827739122845 4.073665816977268e-6 -32.69083677589005 -3.105412565808486e-6 32.61941998875529 -0.07452753838352846 -32.736138389147136 -0.07453528970690142 32.61941470096696 3.4516965873694575e-6 -32.69082505318716 -62.27513767787998 -32.61939717808349 1.926092077557883e-5 -52.363665535342214 -99.65539596499701 -52.36366427296526 1.427220034397812e-5 -32.619411784212645 -62.27515080490203 -52.3331443919589 0.07453498639228781 52.363677776591096 -7.50440844618648e-6 -52.324910788872934 8.175476999970618e-6 52.36368776723808 0.07452468679155609 -52.333160663432764 -37.368412718728706 32.736119959439584 99.65538819422467 52.32488726029817 -1.5739957705098575e-5 52.32490017360472 99.65540253654086 32.73612645902647 -37.36841226353915 -52.333149929976635 0.07452805399779668 52.36367891126135 3.547047715042017e-6 -52.324904446673315 -2.6745098302083716e-6 52.363675112650995 0.07453343937243463 -52.333141840993726 -62.275134528453066 -32.61940203995462 1.3500636410925533e-5 -52.36365834146871 -99.65538550238229 -52.36367166624404 -5.20492317078749e-7 -32.61940625070912 -62.2751329371908 -32.6908207825537 -1.4268927828771633e-7 32.61940513842188 -0.0745341173110872 -32.73612948055189 -0.07453167603250099 32.619407050259845 -1.7211370959524733e-7 -32.690821140097654 -2.9865373892404164e-6 32.690814452822714 62.27512048138047 52.3331239152691 37.36839009739629 52.33313737663524 62.2751344415583 32.69082162080316 0.0
</DataArray>
        <DataArray type="Float64" Name="Mode_17_w" NumberOfComponents="1" format="ascii">
 -0.0008383607391210337 -0.0008383606849658394 -0.0008383611151900408 -0.0008383606548040137 0.001960917147779194 0.002343792398691316 0.001494802740729442 0.0036232698341802953 0.004000891080041025 0.0036232703773496234 0.0014948035189676547 0.0023437926469045208 0.001960917065747386 0.0019609171902910194 0.002343792976533818 0.0014948045776449427 0.003623271269500973 0.004000891773928117 0.0036232709974690015 0.001494804406871793 0.002343793685372568 0.0019609178887220846 0.001960917507286434 0.002343793267346032 0.001494803397735712 0.0036232690871427385 0.004000890838113078 0.0036232704236806757 0.0014948032301315525 0.0023437926067591997 0.0019609170791759414 0.0019609167962915566 0.00234379289495006 0.0014948042184392512 0.0036232711654613776 0.004000891610355716 0.003623271023627217 0.0014948050028617361 0.002343793165874835 0.0019609171438195344 35.17286035401546 32.66063015864998 27.038303428609016 52.3685108295397 72.58598521022073 52.36850291186652 27.038290540087768 32.66061923243597 35.17285568310342 32.660610882023285 -0.09078196843484808 -32.68729678113833 -0.07054887808017599 32.6081942434511 -0.0705621280427243 -32.687310418372824 -0.09078461753352095 32.66061500266683 27.038265520976488 -32.687325044922396 -89.3406834303478 -52.31870056302736 -10.36723796360323 -52.31871454113352 -89.34068880892214 -32.68731160509634 27.03828199651301 52.368479119419355 -0.07057182547574085 -52.31870071402212 0.02127094445208937 52.39863369701264 0.021265480980039338 -52.31869761565941 -0.07055645171950717 52.36849349754652 72.58597102466999 32.608194085261204 -10.367221515537674 52.39864145323046 109.99453157495978 52.39864878752775 -10.367214051435727 32.6081953572066 72.58596791100497 52.36849452067408 -0.07055703078037119 -52.31869943735248 0.02126263303238261 52.398631336757965 0.02127339040477399 -52.3186950910914 -0.07056943753713273 52.36847771242728 27.03828045729065 -32.6873123693781 -89.34068522380339 -52.318711511207525 -10.367242839782614 -52.318709198314444 -89.34068711446695 -32.68732179285529 27.038270786980064 32.66061277184213 -0.09078422254654792 -32.68730400366948 -0.07055615291860853 32.608189987284916 -0.07056251899107245 -32.687307145345336 -0.09077835997252513 32.66062132417187 35.172855061965514 32.66062130365132 27.03829625940292 52.36850819951122 72.585984145767 52.368501584662305 27.038294865849785 32.66063257671648 35.17286864108277
</DataArray>
        <DataArray type="Float64" Name="Mode_18_w" NumberOfComponents="1" format="ascii">
 -0.003071918933169317 0.0030719176128032985 -0.0030719179632912826 0.0030719187344295383 0.005925108211500873 0.002939704812804713 -0.0031010926067860916 -0.0051188248278538385 4.673501872303718e-10 0.005118824332489881 0.003101088855979828 -0.00293970408758844 -0.005925105329999568 -0.005925105095295294 -0.0029397018018812665 0.0031010940945803756 0.005118826073908417 -2.0963972467559983e-10 -0.00511882617700084 -0.0031010929269215553 0.0029397020823256985 0.005925106137933859 0.005925106373298997 0.0029397035782051605 -0.0031010906424987837 -0.005118825662813039 -6.55318569241038e-10 0.0051188238279324255 0.0031010924155036542 -0.002939705156133586 -0.005925108461221576 -0.005925108932335649 -0.0029397066960527444 0.0031010906145485405 0.005118823838197441 -4.1436755876523383e-13 -0.005118824639379039 -0.0031010896949922387 0.0029397060083000814 0.005925109001489271 74.33135874062208 45.927885674671934 -45.94205115138081 -74.32541014281045 -9.874936294347323e-6 74.32539713492758 45.94204674050467 -45.92789018153849 -74.33136447056421 45.92787024824954 28.377790386360864 -28.38671414307946 -45.92423758846102 -1.4916030045321683e-5 45.924219906659765 28.386714393062004 -28.377788719261897 -45.92787332914176 -45.94206484831936 -28.386708873848335 28.39532626141755 45.938362745338715 -1.5130090722516645e-5 -45.938375830813726 -28.395313151975106 28.386724940768733 45.94206944619512 -74.32539295914728 -45.92418648739957 45.93841489043726 74.31968615765294 -1.1870360974200475e-5 -74.31969045087709 -45.938389730726165 45.924211657036224 74.32540053067054 1.7530881801353727e-5 4.0289437045798694e-5 4.6634475047058054e-5 2.284736952989792e-5 -7.899611950317055e-6 -2.005625485208884e-5 -1.9925138470715654e-5 -2.1693583049841487e-5 -1.795459269308246e-5 74.32539010290967 45.92420197579225 -45.93838907725195 -74.31968319759396 -5.8444503379815344e-6 74.31968658975593 45.93840553797277 -45.92420326112716 -74.3254061735332 45.94202517633632 28.38665434123349 -28.39538082296925 -45.9384131026747 -6.4890768070188165e-6 45.93841137441037 28.395385865874307 -28.38666744028261 -45.94204827690201 -45.92786768243917 -28.37779123361046 28.386699718821585 45.92420903246769 -6.7715712710506705e-6 -45.924214611899664 -28.38669671407987 28.377787678983484 45.92785839515247 -74.3313155319474 -45.927826495135314 45.94209501227849 74.32542319890074 -4.237504680552104e-6 -74.32542681313917 -45.942090806816985 45.927833672386996 74.3313205454792
</DataArray>
        <DataArray type="Float64" Name="Mode_19_w" NumberOfComponents="1" format="ascii">
 1.5646772035862795e-9 -0.0020193767878436985 2.2558618729476614e-10 0.00201937503989567 -0.0006588068475506662 -0.0032228696052688946 -0.006408635342074192 -0.0017386397609007367 0.00150490377827061 0.002892817006051465 0.0011369255624998967 0.004143834984609508 0.00452183011082264 0.004521829504903857 0.004143832765533255 0.0011369206073931556 0.0028928156278165587 0.0015049051967544488 -0.0017386374691046721 -0.006408634663571689 -0.0032228666304289456 -0.0006588039771191722 0.0006588034832924353 0.0032228676448989796 0.006408637517963819 0.001738642631866968 -0.001504903940818575 -0.002892819522034393 -0.0011369268538109192 -0.004143833707257161 -0.004521827071014559 -0.004521826200496815 -0.004143831370214754 -0.0011369224603494143 -0.002892818804210513 -0.0015049044127426756 0.0017386402125644112 0.0064086366549551315 0.003222864682596343 0.0006588005869337564 -4.4350145904057696e-5 53.975909358067774 87.10249853234824 33.21140579969425 -33.280727960173024 -33.31316225492904 -20.538874405461208 -53.67532628456785 -66.54693886936796 -53.97597386782093 -9.144521370642532e-6 53.59211668440288 -0.2316955813136399 -53.83733550462363 0.07040561743264707 54.07945002891345 0.4896439437631661 -53.675363036903164 -87.10249001489639 -53.592065353276894 3.082673811563957e-5 -33.35055754926737 -53.83214080378475 33.18706612780717 107.66564029633734 54.079415479809796 -20.53893234603442 -33.21138914241132 0.23172065015288373 33.35055879237892 -1.7830183158715842e-5 -33.26943536799741 -0.09995600980414185 33.187091923603354 0.07040791186713417 -33.313184880220966 33.280706450977625 53.83729711370752 53.83210110550269 33.26941354289553 1.917873118895957e-6 -33.269410905027925 -53.83210181063812 -53.837299610610565 -33.280707938077384 33.31314657366663 -0.07043134493799527 -33.18706853594192 0.0999926359054935 33.269435126735765 -1.8496960453698887e-5 -33.35058090072565 -0.23169579075480018 33.21142899083108 20.538909588184143 -54.07942720611861 -107.66562482820574 -33.18704697103227 53.832136182620914 33.35053431214748 -4.282622803740967e-5 53.59208222260466 87.1025156525921 53.67538478613515 -0.48963134736099395 -54.0794667561251 -0.07043187368707064 53.8373353306742 0.23172174206323493 -53.59210136622056 -8.657271502373188e-6 53.97594658944871 66.54697384039169 53.67534496851409 20.5388461149944 33.31312338362772 33.28073271226104 -33.21136352290696 -87.10247620371176 -53.97593859895865 0.0
</DataArray>
        <DataArray type="Float64" Name="Mode_20_w" NumberOfComponents="1" format="ascii">
 0.0020193748557928125 1.7909360460711028e-9 -0.0020193765061823545 2.604958033280977e-10 -0.004521825817882361 -0.0041438313658255345 -0.001136922661554394 -0.002892818914353197 -0.0015049049390168448 0.001738641119219128 0.006408637427291091 0.0032228653187166174 0.0006588006415408601 -0.0006588070969361985 -0.0032228705202330087 -0.006408636143862938 -0.0017386399594103673 0.0015049042782390274 0.002892817071148093 0.0011369248804621703 0.004143834770320937 0.004521829933355548 0.004521829215479924 0.004143833175142026 0.0011369211344906475 0.0028928157462424085 0.0015049049593809955 -0.0017386375036331748 -0.006408633981817456 -0.0032228662262132617 -0.0006588037517138022 0.0006588036820244734 0.003222867478444397 0.006408636545351325 0.0017386414845168925 -0.0015049038371687075 -0.0028928195938997523 -0.0011369269448540783 -0.004143833785496827 -0.004521826241099292 -66.54693526571671 -53.675357980180145 -20.538923013295463 -33.31317089223326 -33.28070310293102 33.21141416607438 87.10249678882847 53.97594213706234 5.07956173608232e-6 -53.67532655828818 0.48964543044501013 54.07942769725378 0.07043221840609287 -53.837284825584135 -0.23170686503406854 53.59206424055214 -8.565404231234037e-6 -53.975927292494084 -20.538885898668536 54.07943744320778 107.66564275488865 33.187112620551176 -53.83208280033286 -33.350581203327124 -5.167842825633817e-5 -53.59209869574714 -87.10246572084979 -33.31318037784985 0.0703819525575785 33.18705322629472 -0.09995187573580509 -33.26940132844389 -1.8292641679930156e-5 33.350527259119474 0.23171812590208174 -33.21136271336883 -33.28073583198511 -53.837351712821956 -53.832157591899346 -33.269443341687186 1.1130410278840039e-6 33.269432017091376 53.832127696496514 53.837326165333174 33.28072695951347 33.21141750353808 -0.23168944355812315 -33.35056171651367 -2.205629612779436e-5 33.269413840562855 0.09999241886248493 -33.18705140870066 -0.07043681877679198 33.3131219795096 87.10251662385001 53.59213293269386 3.626090482562993e-5 33.350562868567316 53.83210831522702 -33.187063788725105 -107.66562451724762 -54.0794645761604 20.53885191182291 53.97591659778666 -6.918344882334259e-6 -53.59206823588654 0.23172412257215372 53.83730702780769 -0.0704262388843472 -54.07942955363241 -0.48963116345799307 53.67535015769202 -4.6317650287416455e-5 -53.97598311539989 -87.10250039708228 -33.21138970083731 33.28071332360668 33.31314851890041 20.538903892398285 53.675380575302434 66.54697431445125
</DataArray>
      </PointData>
    </Piece>
  </UnstructuredGrid>
</VTKFile>
