<?xml version="1.0" encoding="utf-8"?>
<VTKFile type="UnstructuredGrid" version="1.0" byte_order="LittleEndian" header_type="UInt64">
  <UnstructuredGrid>
    <Piece NumberOfPoints="196" NumberOfCells="169">
      <Points>
        <DataArray type="Float64" Name="Points" NumberOfComponents="3" format="ascii">
 0.0 0.0 0.0 1.0 0.0 0.0 1.0 1.0 0.0 0.0 1.0 0.0 0.07692307692292638 0.0 0.0 0.1538461538458454 0.0 0.0 0.2307692307686978 0.0 0.0 0.3076923076915502 0.0 0.0 0.3846153846144026 0.0 0.0 0.461538461537255 0.0 0.0 0.5384615384603212 0.0 0.0 0.6153846153836009 0.0 0.0 0.6923076923068806 0.0 0.0 0.7692307692301605 0.0 0.0 0.8461538461534404 0.0 0.0 0.9230769230767202 0.0 0.0 1.0 0.07692307692292638 0.0 1.0 0.1538461538458454 0.0 1.0 0.2307692307686978 0.0 1.0 0.3076923076915502 0.0 1.0 0.3846153846144026 0.0 1.0 0.461538461537255 0.0 1.0 0.5384615384603212 0.0 1.0 0.6153846153836009 0.0 1.0 0.6923076923068806 0.0 1.0 0.7692307692301605 0.0 1.0 0.8461538461534404 0.0 1.0 0.9230769230767202 0.0 0.9230769230766028 1.0 0.0 0.8461538461535258 1.0 0.0 0.7692307692309828 1.0 0.0 0.6923076923084395 1.0 0.0 0.6153846153858962 1.0 0.0 0.5384615384633529 1.0 0.0 0.4615384615403826 1.0 0.0 0.3846153846169855 1.0 0.0 0.3076923076935885 1.0 0.0 0.2307692307701913 1.0 0.0 0.1538461538467942 1.0 0.0 0.07692307692339717 1.0 0.0 0.0 0.9230769230766028 0.0 0.0 0.8461538461535258 0.0 0.0 0.7692307692309828 0.0 0.0 0.6923076923084395 0.0 0.0 0.6153846153858962 0.0 0.0 0.5384615384633529 0.0 0.0 0.4615384615403826 0.0 0.0 0.3846153846169855 0.0 0.0 0.3076923076935885 0.0 0.0 0.2307692307701913 0.0 0.0 0.1538461538467942 0.0 0.0 0.07692307692339717 0.0 0.07692307692296259 0.07692307692336096 0.0 0.07692307692299881 0.1538461538467213 0.0 0.07692307692303504 0.2307692307700764 0.0 0.07692307692307125 0.3076923076934317 0.0 0.07692307692310743 0.3846153846167867 0.0 0.07692307692314368 0.461538461540142 0.0 0.07692307692317989 0.5384615384631196 0.0 0.07692307692321611 0.6153846153857196 0.0 0.0769230769232523 0.6923076923083195 0.0 0.07692307692328852 0.7692307692309195 0.0 0.07692307692332474 0.8461538461535192 0.0 0.07692307692336096 0.9230769230766118 0.0 0.1538461538459185 0.07692307692332474 0.0 0.1538461538459915 0.1538461538466483 0.0 0.1538461538460644 0.2307692307699615 0.0 0.1538461538461374 0.3076923076932749 0.0 0.1538461538462103 0.3846153846165882 0.0 0.1538461538462833 0.4615384615399015 0.0 0.1538461538463563 0.5384615384628865 0.0 0.1538461538464293 0.615384615385543 0.0 0.1538461538465023 0.6923076923081997 0.0 0.1538461538465753 0.7692307692308562 0.0 0.1538461538466483 0.8461538461535127 0.0 0.1538461538467212 0.9230769230766209 0.0 0.2307692307688127 0.07692307692328854 0.0 0.2307692307689276 0.1538461538465753 0.0 0.2307692307690425 0.2307692307698467 0.0 0.2307692307691574 0.3076923076931181 0.0 0.2307692307692722 0.3846153846163896 0.0 0.2307692307693871 0.4615384615396608 0.0 0.230769230769502 0.5384615384626531 0.0 0.2307692307696169 0.6153846153853666 0.0 0.2307692307697318 0.6923076923080796 0.0 0.2307692307698467 0.7692307692307929 0.0 0.2307692307699615 0.8461538461535061 0.0 0.2307692307700764 0.9230769230766298 0.0 0.307692307691707 0.0769230769232523 0.0 0.3076923076918638 0.1538461538465023 0.0 0.3076923076920206 0.2307692307697318 0.0 0.3076923076921773 0.3076923076929613 0.0 0.3076923076923342 0.3846153846161908 0.0 0.3076923076924909 0.4615384615394204 0.0 0.3076923076926478 0.53846153846242 0.0 0.3076923076928045 0.61538461538519 0.0 0.3076923076929613 0.69230769230796 0.0 0.3076923076931181 0.7692307692307299 0.0 0.3076923076932748 0.8461538461534996 0.0 0.3076923076934317 0.9230769230766389 0.0 0.3846153846146013 0.0769230769232161 0.0 0.3846153846148 0.1538461538464293 0.0 0.3846153846149987 0.2307692307696169 0.0 0.3846153846151973 0.3076923076928045 0.0 0.384615384615396 0.384615384615992 0.0 0.3846153846155947 0.4615384615391795 0.0 0.3846153846157933 0.5384615384621868 0.0 0.384615384615992 0.6153846153850134 0.0 0.3846153846161908 0.69230769230784 0.0 0.3846153846163895 0.7692307692306666 0.0 0.3846153846165882 0.846153846153493 0.0 0.3846153846167867 0.923076923076648 0.0 0.4615384615374957 0.07692307692317987 0.0 0.4615384615377362 0.1538461538463563 0.0 0.4615384615379767 0.230769230769502 0.0 0.4615384615382173 0.3076923076926477 0.0 0.4615384615384579 0.3846153846157933 0.0 0.4615384615386985 0.4615384615389392 0.0 0.461538461538939 0.5384615384619537 0.0 0.4615384615391797 0.6153846153848368 0.0 0.4615384615394202 0.6923076923077202 0.0 0.4615384615396609 0.7692307692306033 0.0 0.4615384615399014 0.8461538461534863 0.0 0.4615384615401419 0.9230769230766569 0.0 0.5384615384605543 0.07692307692314367 0.0 0.5384615384607877 0.1538461538462834 0.0 0.5384615384610206 0.2307692307693871 0.0 0.538461538461254 0.307692307692491 0.0 0.5384615384614874 0.3846153846155948 0.0 0.5384615384617203 0.4615384615386984 0.0 0.5384615384619537 0.5384615384617205 0.0 0.5384615384621868 0.6153846153846604 0.0 0.53846153846242 0.6923076923076 0.0 0.5384615384626533 0.76923076923054 0.0 0.5384615384628865 0.8461538461534799 0.0 0.5384615384631196 0.923076923076666 0.0 0.6153846153837776 0.07692307692310747 0.0 0.6153846153839541 0.1538461538462103 0.0 0.6153846153841307 0.2307692307692722 0.0 0.6153846153843073 0.3076923076923341 0.0 0.6153846153844836 0.3846153846153961 0.0 0.6153846153846603 0.461538461538458 0.0 0.6153846153848369 0.5384615384614874 0.0 0.6153846153850134 0.6153846153844836 0.0 0.61538461538519 0.6923076923074803 0.0 0.6153846153853665 0.7692307692304767 0.0 0.6153846153855432 0.8461538461534732 0.0 0.6153846153857195 0.9230769230766749 0.0 0.6923076923070005 0.07692307692307122 0.0 0.6923076923071203 0.1538461538461374 0.0 0.6923076923072403 0.2307692307691573 0.0 0.6923076923073602 0.3076923076921774 0.0 0.69230769230748 0.3846153846151973 0.0 0.6923076923076 0.4615384615382172 0.0 0.6923076923077202 0.538461538461254 0.0 0.6923076923078398 0.6153846153843071 0.0 0.6923076923079597 0.6923076923073604 0.0 0.6923076923080799 0.7692307692304137 0.0 0.6923076923081997 0.8461538461534666 0.0 0.6923076923083197 0.9230769230766842 0.0 0.7692307692302238 0.07692307692303503 0.0 0.7692307692302871 0.1538461538460643 0.0 0.7692307692303504 0.2307692307690425 0.0 0.7692307692304134 0.3076923076920206 0.0 0.7692307692304767 0.3846153846149986 0.0 0.76923076923054 0.4615384615379768 0.0 0.7692307692306033 0.5384615384610206 0.0 0.7692307692306664 0.6153846153841306 0.0 0.7692307692307299 0.6923076923072403 0.0 0.7692307692307929 0.7692307692303502 0.0 0.7692307692308564 0.8461538461534601 0.0 0.7692307692309195 0.9230769230766931 0.0 0.8461538461534468 0.07692307692299881 0.0 0.8461538461534535 0.1538461538459914 0.0 0.8461538461534601 0.2307692307689276 0.0 0.8461538461534668 0.3076923076918637 0.0 0.8461538461534732 0.3846153846147999 0.0 0.8461538461534799 0.461538461537736 0.0 0.8461538461534863 0.5384615384607875 0.0 0.846153846153493 0.6153846153839538 0.0 0.8461538461534996 0.6923076923071205 0.0 0.8461538461535061 0.7692307692302871 0.0 0.8461538461535127 0.8461538461534535 0.0 0.8461538461535192 0.923076923076702 0.0 0.9230769230767111 0.07692307692296259 0.0 0.9230769230767022 0.1538461538459184 0.0 0.9230769230766929 0.2307692307688127 0.0 0.9230769230766842 0.307692307691707 0.0 0.9230769230766751 0.3846153846146014 0.0 0.923076923076666 0.4615384615374956 0.0 0.9230769230766571 0.5384615384605543 0.0 0.923076923076648 0.6153846153837775 0.0 0.9230769230766389 0.6923076923070005 0.0 0.92307692307663 0.7692307692302238 0.0 0.9230769230766209 0.8461538461534468 0.0 0.9230769230766118 0.9230769230767113 0.0
</DataArray>
      </Points>
      <Cells>
        <DataArray type="Int64" Name="connectivity" NumberOfComponents="1" format="ascii">
 0 4 52 51 51 52 53 50 50 53 54 49 49 54 55 48 48 55 56 47 47 56 57 46 46 57 58 45 45 58 59 44 44 59 60 43 43 60 61 42 42 61 62 41 41 62 63 40 40 63 39 3 4 5 64 52 52 64 65 53 53 65 66 54 54 66 67 55 55 67 68 56 56 68 69 57 57 69 70 58 58 70 71 59 59 71 72 60 60 72 73 61 61 73 74 62 62 74 75 63 63 75 38 39 5 6 76 64 64 76 77 65 65 77 78 66 66 78 79 67 67 79 80 68 68 80 81 69 69 81 82 70 70 82 83 71 71 83 84 72 72 84 85 73 73 85 86 74 74 86 87 75 75 87 37 38 6 7 88 76 76 88 89 77 77 89 90 78 78 90 91 79 79 91 92 80 80 92 93 81 81 93 94 82 82 94 95 83 83 95 96 84 84 96 97 85 85 97 98 86 86 98 99 87 87 99 36 37 7 8 100 88 88 100 101 89 89 101 102 90 90 102 103 91 91 103 104 92 92 104 105 93 93 105 106 94 94 106 107 95 95 107 108 96 96 108 109 97 97 109 110 98 98 110 111 99 99 111 35 36 8 9 112 100 100 112 113 101 101 113 114 102 102 114 115 103 103 115 116 104 104 116 117 105 105 117 118 106 106 118 119 107 107 119 120 108 108 120 121 109 109 121 122 110 110 122 123 111 111 123 34 35 9 10 124 112 112 124 125 113 113 125 126 114 114 126 127 115 115 127 128 116 116 128 129 117 117 129 130 118 118 130 131 119 119 131 132 120 120 132 133 121 121 133 134 122 122 134 135 123 123 135 33 34 10 11 136 124 124 136 137 125 125 137 138 126 126 138 139 127 127 139 140 128 128 140 141 129 129 141 142 130 130 142 143 131 131 143 144 132 132 144 145 133 133 145 146 134 134 146 147 135 135 147 32 33 11 12 148 136 136 148 149 137 137 149 150 138 138 150 151 139 139 151 152 140 140 152 153 141 141 153 154 142 142 154 155 143 143 155 156 144 144 156 157 145 145 157 158 146 146 158 159 147 147 159 31 32 12 13 160 148 148 160 161 149 149 161 162 150 150 162 163 151 151 163 164 152 152 164 165 153 153 165 166 154 154 166 167 155 155 167 168 156 156 168 169 157 157 169 170 158 158 170 171 159 159 171 30 31 13 14 172 160 160 172 173 161 161 173 174 162 162 174 175 163 163 175 176 164 164 176 177 165 165 177 178 166 166 178 179 167 167 179 180 168 168 180 181 169 169 181 182 170 170 182 183 171 171 183 29 30 14 15 184 172 172 184 185 173 173 185 186 174 174 186 187 175 175 187 188 176 176 188 189 177 177 189 190 178 178 190 191 179 179 191 192 180 180 192 193 181 181 193 194 182 182 194 195 183 183 195 28 29 15 1 16 184 184 16 17 185 185 17 18 186 186 18 19 187 187 19 20 188 188 20 21 189 189 21 22 190 190 22 23 191 191 23 24 192 192 24 25 193 193 25 26 194 194 26 27 195 195 27 2 28
</DataArray>
        <DataArray type="Int64" Name="offsets" NumberOfComponents="1" format="ascii">
 4 8 12 16 20 24 28 32 36 40 44 48 52 56 60 64 68 72 76 80 84 88 92 96 100 104 108 112 116 120 124 128 132 136 140 144 148 152 156 160 164 168 172 176 180 184 188 192 196 200 204 208 212 216 220 224 228 232 236 240 244 248 252 256 260 264 268 272 276 280 284 288 292 296 300 304 308 312 316 320 324 328 332 336 340 344 348 352 356 360 364 368 372 376 380 384 388 392 396 400 404 408 412 416 420 424 428 432 436 440 444 448 452 456 460 464 468 472 476 480 484 488 492 496 500 504 508 512 516 520 524 528 532 536 540 544 548 552 556 560 564 568 572 576 580 584 588 592 596 600 604 608 612 616 620 624 628 632 636 640 644 648 652 656 660 664 668 672 676
</DataArray>
        <DataArray type="UInt8" Name="types" NumberOfComponents="1" format="ascii">
 9 9 9 9 9 9 9 9 9 9 9 9 9 9 9 9 9 9 9 9 9 9 9 9 9 9 9 9 9 9 9 9 9 9 9 9 9 9 9 9 9 9 9 9 9 9 9 9 9 9 9 9 9 9 9 9 9 9 9 9 9 9 9 9 9 9 9 9 9 9 9 9 9 9 9 9 9 9 9 9 9 9 9 9 9 9 9 9 9 9 9 9 9 9 9 9 9 9 9 9 9 9 9 9 9 9 9 9 9 9 9 9 9 9 9 9 9 9 9 9 9 9 9 9 9 9 9 9 9 9 9 9 9 9 9 9 9 9 9 9 9 9 9 9 9 9 9 9 9 9 9 9 9 9 9 9 9 9 9 9 9 9 9 9 9 9 9 9 9
</DataArray>
      </Cells>
      <PointData>
        <DataArray type="Float64" Name="Mode_1_w" NumberOfComponents="1" format="ascii">
 0.012142595536881238 0.008346116396273274 0.012142667306964476 0.00834617416896967 -7.639473498174494e-5 -0.0006321851212904514 0.0009939387510737852 -0.000542288589852018 0.0008423960740990681 -0.0002907436834322787 0.0006942397113182499 -0.0002333675745759479 0.0006840363412558584 -0.0005286437003853144 0.0011692814654649197 -0.00174280550056128 -0.001742809729589392 0.0011692853547897477 -0.0005286425325761791 0.0006840306889894667 -0.00023337224568688924 0.0006942474657508723 -0.00029074245180350317 0.0008424013228423937 -0.0005422902690501288 0.000993943824714295 -0.0006321891908616451 -7.639463332237396e-5 -7.639597973591668e-5 -0.0006321895781424398 0.0009939463473194973 -0.0005422994555739414 0.0008424159945786907 -0.00029075417922712327 0.0006942502565540575 -0.00023336565126100815 0.0006840283008861243 -0.000528642041095163 0.001169290746235325 -0.0017428168397390018 -0.0017428152690710313 0.001169289352589123 -0.000528639467159634 0.0006840301786218897 -0.00023335518221534845 0.000694225345662648 -0.0002907289814127587 0.0008423860133192767 -0.0005422804984630943 0.0009939324336153668 -0.0006321883499496132 -7.639163004502926e-5 4.53856002971796 7.446654222043473 10.919853192114932 12.869695390442216 14.78168877959145 15.269320542508943 15.338868313719107 14.114883670615344 12.45118121764457 9.69840075698645 6.870401503441024 2.7671749829286387 7.446660650326309 13.74257296266673 20.03299598037861 24.488950563148926 28.064572688050703 29.539887887458477 29.83683659588949 27.853411498900805 24.95062138255644 19.616408943286896 14.571416880090478 6.8704033461774685 10.919856173281152 20.033004935292023 28.76990786720893 35.11772944029769 40.11673239390721 42.03513297198262 42.332241445060724 39.22955052113929 35.12110916563253 27.54826909741037 19.616415690016577 9.69840425415313 12.869682471381655 24.488938886747114 35.11771015000307 43.1714009014958 49.33452727146392 52.021485362610626 52.5533489037951 49.07585238250761 43.63340396353773 35.12113636406121 24.95065613902354 12.451193919454122 14.781667302573027 28.06454340098399 40.116705266924086 49.33449945138002 56.18619348417497 59.142021346177934 59.27528136979325 55.702742693240616 49.07590828863581 39.229631710073974 27.853491880018126 14.114920630526973 15.26928262474917 29.53982975639502 42.0350842616489 52.021441624174756 59.142006355300964 62.947792576254386 62.89181872914 59.27532801065086 52.55344718228524 42.33235511389363 29.83695180658935 15.338938600088326 15.338829795141619 29.83677304139767 42.33216171817677 52.55326380581055 59.27522047086539 62.89176836785469 62.94784566026409 59.142139454165296 52.02162989164918 42.0353006777743 29.540017602550712 15.269391136691532 14.114829636148393 27.853314306357824 39.2294632223835 49.075743787106454 55.702646202686296 59.27527281049611 59.142076088686835 56.186321599544065 49.334682764462464 40.116903504072354 28.064724483103777 14.781780763332764 12.451127337416505 24.950511854625177 35.12097601329034 43.63328315288976 49.07577012214916 52.55336351109078 52.02156901419004 49.334656772836034 43.171562606151184 35.11789107925673 24.489082093076647 12.86977073814766 9.69834579613104 19.616318811712308 27.54813275326375 35.1210256561106 39.22951410719657 42.332258167965875 42.03520629572957 40.11685382034923 35.11785389116823 28.77005021940321 20.03312324642524 10.919925670138081 6.870356710166309 14.571338967580308 19.616311704176265 24.950543952250072 27.853395827661792 29.836879831716608 29.539954236393047 28.064678100990573 24.48905825890575 20.033106102932877 13.742648397889338 7.446705990899344 2.767155177852862 6.870364566074316 9.6983555332482 12.451139624122122 14.114861490143188 15.338890738837428 15.269357075352266 14.781744776143794 12.869752215813708 10.919914921467775 7.44670129717953 4.538586545600546
</DataArray>
        <DataArray type="Float64" Name="Mode_2_w" NumberOfComponents="1" format="ascii">
 2.0534512703858166e-8 0.023316896273764914 3.011665664257917e-10 -0.023316917135242015 -0.0003113773378024405 -0.0002025460123647539 -0.0005947360684093947 2.4563374505327444e-5 -0.0002926294496485504 0.0005680845974719477 0.0003611997880041085 0.0008996738326376638 0.0013123611210804232 -0.00028677422211662983 0.003237435589045402 -0.004447434601136856 -0.004447431715768064 0.0032374297667386 -0.00028676721231687616 0.001312349621660955 0.00089968277532557 0.00036120813543382834 0.0005680690148890731 -0.00029263046187973926 2.4580704168795653e-5 -0.0005947465419433567 -0.00020254678320867265 -0.0003113758094735489 0.00031137463989066227 0.00020254881679282512 0.0005947398218384015 -2.457520871324651e-5 0.0002926420345605397 -0.0005681010806161632 -0.00036118397016665757 -0.0008996778859619527 -0.0013123669405061017 0.0002867935493785165 -0.003237455274104378 0.00444743966642073 0.004447432940843295 -0.003237437798046619 0.00028677339091176 -0.001312352862701707 -0.0008996859978139142 -0.0003611925136234054 -0.0005680869593538974 0.00029263936328626086 -2.4581321818987797e-5 0.0005947500085054561 0.0002025453173691072 0.00031137528082894177 7.506744057456737e-6 -1.0615443327947371 -3.5663357809613925 -7.996620662230366 -13.417001565680403 -19.478044302267065 -24.45709820722802 -27.744671400866405 -27.832210094347758 -24.41398345217462 -18.423262549985317 -7.8059460214446865 1.061571513816503 1.87705563663577e-5 -3.4851341955935125 -11.167783703793841 -21.064838201069673 -32.743453111500685 -42.944767581887845 -49.797864998598335 -52.258243307942585 -46.194417526554645 -37.28175927248936 -18.423265185018522 3.566366607120521 3.4851935695100593 3.234790702161149e-5 -9.56404683693562 -22.63531025206891 -38.18238380238416 -53.231405190363134 -62.27599190765975 -66.67118265368963 -59.3818523307861 -46.19440066630861 -24.413967734483624 7.996635691485664 11.167818424965132 9.564122095618327 1.6846325666819024e-5 -15.367597539002073 -33.283500367571314 -52.211311067644026 -65.12198866435111 -71.41703128039761 -66.67116280153938 -52.258242681470314 -27.832200641358625 13.417026250903694 21.06486709436687 22.63540221387296 15.367706537603961 5.259393288243097e-5 -19.892162813022065 -40.49678842631274 -56.73907098267539 -65.12200633512366 -62.275969503179766 -49.79782450514182 -27.744654392401376 19.478070859445378 32.74349263896496 38.18243246037079 33.28361199528154 19.892293611902446 7.89935926801426e-5 -22.010476693140653 -40.49677905709944 -52.211302471501405 -53.23143431431246 -42.94478071856986 -24.457088974872953 24.457118846979988 42.94483170504098 53.2314840527944 52.21142718777121 40.49692046218744 22.010614629075985 7.002463200105196e-5 -19.89218173089333 -33.28351209950222 -38.182354554021536 -32.743463731609204 -19.47805757547443 27.744677970714882 49.797889797288086 62.27604444301749 65.12206472112797 56.739194846205834 40.496932425509094 19.892290760906462 7.809605405787145e-5 -15.367629608550969 -22.635348735983154 -21.064833405482297 -13.41701205257262 27.83222018815726 52.258267735163884 66.67123138453547 71.41711167505937 65.12205430844989 52.21143394091981 33.28359501267105 15.367684000396968 4.3774053791249075e-5 -9.564073046707163 -11.167801868563501 -7.996629777029205 24.41398733891751 46.194431405137905 59.381866279671335 66.67125616735674 62.27605087367576 53.231488322793076 38.18246547424702 22.635385312008157 9.564087427468827 1.6106244353269604e-5 -3.485146575516322 -3.56635432857447 18.423257114618092 37.28177308626385 46.19442509151565 52.25827573481536 49.79791306536553 42.944815344122 32.74348444414992 21.064887315873396 11.167809218525866 3.4851517251753945 1.0406081368361872e-6 -1.0615569569665848 7.805938598216799 18.423253962506696 24.413987471118986 27.83222005057569 27.744692243869846 24.4571270928388 19.478058382353726 13.417025462101021 7.996646921265446 3.5663580181661763 1.0615580925801154 0.0
</DataArray>
        <DataArray type="Float64" Name="Mode_3_w" NumberOfComponents="1" format="ascii">
 0.03432561532791567 2.566428539664586e-8 -0.03432555781244633 5.2523877176199984e-8 7.059465192068975e-5 -0.0011226387850142646 0.002991063988550503 -0.0007464500763601237 0.002063172207451716 -0.0004330867766124891 0.0008167492037922794 -0.0005038813979025105 -0.00010992739565519371 -0.0004313558633309714 -0.0003814315966001227 -2.0632424214037743e-5 2.0624342836613453e-5 0.00038143612337414757 0.0004313572921750235 0.00010993007208880544 0.00050387505843894 -0.000816737628683814 0.00043308198231702306 -0.002063169882987577 0.0007464461368260123 -0.0029910587992331727 0.0011226356995772953 -7.059091904275692e-5 -7.059191228919829e-5 0.001122638494655593 -0.002991058782590864 0.0007464378720659999 -0.002063155840003552 0.00043306513695102447 -0.0008167260038221593 0.0005038636105159047 0.00010994443139948145 0.0004313478421445934 0.0003814453532360921 2.0617256382171748e-5 -2.063857945058102e-5 -0.0003814246453746449 -0.0004313571352627782 -0.00010992729990752888 -0.000503869768626186 0.0008167318356881142 -0.00043307086208014184 0.0020631539531634512 -0.0007464366868204474 0.0029910550658241147 -0.0011226400278164462 7.059970884910304e-5 12.892156324286475 20.083084031909323 26.94500566122043 28.050399398122238 27.391707599775284 22.817477997096194 17.50769308112079 11.276246452577276 6.1802304675686015 2.4374505167043323 0.46923817223423553 1.7382232349020426e-5 20.083095697720736 35.83703486986495 47.632857791449176 52.05963744554333 50.38448686436263 43.18711011194398 32.59686064630425 21.335578335020816 11.000043160832817 4.033831687188915 8.424956669952013e-5 -0.4691572307959044 26.94502543148708 47.63288540031808 61.57146224762542 66.44661737368679 62.46717168545936 51.972050839362446 36.75716988186236 21.701218874532618 8.073139317398091 0.00010503819543092411 -4.033649587630963 -2.437352498315624 28.050415302431286 52.05966298439698 66.44662890241595 71.7825228860308 65.41343309705331 52.55543036857355 33.55360538767061 15.88890785230008 0.00011495267091738428 -8.072918057282477 -10.999847602310103 -6.180122825367342 27.391732688327288 50.38452472226319 62.46720066879526 65.41344757801654 55.83898580516144 40.259298075679645 18.675906071206153 6.184822030472884e-5 -15.88874490102041 -21.70104478211062 -21.335433054241754 -11.276158672715201 22.817490214548933 43.1871404967083 51.97209163145146 52.55545388626567 40.259314978059216 22.959049152440976 4.72565304360555e-5 -18.675781145545887 -33.55348160074853 -36.75703253651238 -32.59674317858706 -17.507626835753637 17.507703914531124 32.59688115151966 36.75719026058075 33.553628574754875 18.67591759301831 4.75600306712969e-5 -22.958973915937207 -40.25922976734231 -52.555365983637806 -51.97197502979668 -43.18704805131551 -22.817438054958302 11.276233235269755 21.335567113910518 21.701226907025234 15.888906120035305 7.274015539509454e-5 -18.67578682021759 -40.259223949742214 -55.838901530286854 -65.41337896980971 -62.467109893989594 -50.38444288296378 -27.39168263457688 6.180208826155857 11.000003992984228 8.07311280147781 9.527123179728925e-5 -15.888746629113449 -33.55348310595595 -52.555360792394495 -65.4133764437349 -71.78246967078258 -66.44656913620304 -52.05959879665582 -28.050381099439473 2.4374280009222598 4.033792947972346 5.943710200299284e-5 -8.072951963408705 -21.70106766037413 -36.75702905186559 -51.97196993249646 -62.46710978875902 -66.4465642318034 -61.57140831812762 -47.632824319423385 -26.944991965268226 0.46921700209797623 4.656404972254508e-5 -4.033694665067985 -10.999888495591657 -21.335451141259032 -32.59675534621178 -43.18703650781451 -50.38444324571574 -52.059591071559105 -47.63283165777322 -35.8369898689002 -20.083065301960687 8.652704379490529e-6 -0.46917828801929734 -2.4373743829556958 -6.180149272687032 -11.276170237029355 -17.50763214153499 -22.81743013674076 -27.391682383445023 -28.050373116813617 -26.944986224821346 -20.083065573483 -12.892133565326569
</DataArray>
        <DataArray type="Float64" Name="Mode_4_w" NumberOfComponents="1" format="ascii">
 0.04583366653394354 -0.03309565062987891 0.045833557690896844 -0.03309547822583679 0.00048371389975806876 -0.0006685290806389409 0.004215587087435133 -6.489819706102528e-5 0.0022663782016652412 -0.0002889242697496464 -0.0006256574249574768 -0.0007703765460417781 -0.003180489654739252 0.0006174057829235786 -0.005965828452111134 0.006637969919674395 0.00663797165076085 -0.005965834713006239 0.0006174179178217922 -0.003180503431027549 -0.0007703588634266058 -0.0006256718838452622 -0.00028891346747438344 0.0022663740330517226 -6.490221422610221e-5 0.004215587067105803 -0.0006685351357751476 0.0004837134338811632 0.00048371649802155794 -0.0006685303140032868 0.004215586653307582 -6.490586202131116e-5 0.00226636514800952 -0.0002889264554206325 -0.0006256672140867992 -0.0007703727122751139 -0.0031804698142605388 0.000617402254545922 -0.005965797022007106 0.006637942057761089 0.006637942987988225 -0.005965798519499924 0.0006174074528603766 -0.0031804753308013597 -0.0007703766203939719 -0.0006256669631451103 -0.0002889171294410467 0.0022663519498937654 -6.488759851506313e-5 0.004215579879322212 -0.0006685294788602237 0.0004837225456469394 17.298422386797682 25.541804293828505 30.860687391875214 26.554191541463524 17.67185105590199 3.529474656316182 -11.06803097344629 -23.413283020572948 -31.078604167439142 -31.026427905995146 -25.75756669276353 -11.01923851295158 25.541827000101677 44.42124769554019 53.526151837387744 50.74595928770251 35.33548905538168 13.035609913267189 -14.887942480386208 -36.95194136596821 -54.74073308298268 -55.110420484972686 -50.3646410473187 -25.757565841212568 30.860735980584057 53.52620712789688 62.57479669232445 59.2486436874385 39.59041782623016 14.468269446914741 -18.748586916469186 -42.757549159328974 -64.28486502591498 -64.19078612858434 -55.11041394158306 -31.026425582276936 26.55425880431563 50.746054505803976 59.24871352943746 59.85465473579874 40.895465297673795 18.60178971138282 -15.28227107235176 -38.93214746641576 -59.670381236173974 -64.2848580394617 -54.74072059491668 -31.078594367638004 17.671938783360464 35.33561786712997 39.59052875610754 40.89554005038953 27.506694255241083 13.691884524518201 -8.130136895429926 -26.49670843241527 -38.93215397949667 -42.757545593580055 -36.95194260121636 -23.413278651161388 3.529533366180862 13.035739181689637 14.468413427226341 18.60189846279214 13.691958008423192 8.162645558884508 0.14108860985413033 -8.130138507380305 -15.28228850335845 -18.74860827819161 -14.887956474803062 -11.068045591258745 -11.068011906152634 -14.887884832986092 -18.748494941856062 -15.282153219524577 -8.130036830072756 0.1411608861452564 8.162631814047737 13.69186161960819 18.601766901999547 14.468234537513718 13.035565610475087 3.529442406332989 -23.413324152659925 -36.95197162270866 -42.75755988581215 -38.932106294187314 -26.49660892342631 -8.130045301550322 13.691936924476767 27.50665632985124 40.895402943318814 39.5903664381577 35.33541718972652 17.671811924634394 -31.078704842991176 -54.74087723211385 -64.28497209974367 -59.67043860899333 -38.93210575094184 -15.282168819440715 18.601871521622126 40.895507634748284 59.854577854492746 59.248551239267634 50.745881005812095 26.554132695322632 -31.026556282408844 -55.11062596427728 -64.19099399503197 -64.28498475801648 -42.75757952659464 -18.748505355424737 14.468369739478199 39.59047224116676 59.24863207930812 62.57469185584242 53.526066334081484 30.86063527565809 -25.75768804390275 -50.364849571457675 -55.11063204966712 -54.7408844357661 -36.95198930708216 -14.887915767305161 13.035709527043592 35.33555355061375 50.74596904868801 53.52611114908083 44.42115052229496 25.54175574210825 -11.019297354627927 -25.757688476124663 -31.02655253975914 -31.078710396150786 -23.41332629279298 -11.068031034649593 3.5295104698335704 17.671898456096752 26.554203774514093 30.860675908247572 25.541768050498032 17.298380902502096
</DataArray>
        <DataArray type="Float64" Name="Mode_5_w" NumberOfComponents="1" format="ascii">
 -1.434406293543728e-8 3.9856298830540116e-8 1.6647053230615047e-10 -2.5319394526545147e-8 -0.0013737099702198436 -0.0005170370554459137 -0.0015241518779928228 0.00162127832294851 0.0005444567982917591 0.0035808470518885675 0.0008983474270907887 0.0024175855596677404 -0.0010767355173276656 1.5056990976498827e-5 -0.0018721077194485496 -1.4336940355545321e-5 1.4332381393874793e-5 0.0018721127860843714 -1.5053563582417466e-5 0.0010767451661365453 -0.0024175846568148694 -0.0008983533398880549 -0.003580857371482058 -0.0005444352113634107 -0.0016213148551005975 0.001524160696788662 0.0005170482991559001 0.001373707189249909 -0.001373707874407814 -0.0005170468188638903 -0.0015241587701797445 0.001621307758962853 0.0005444330754763748 0.0035808781751850397 0.0008983450775745486 0.00241756316809917 -0.0010767328696834287 1.5044115720227487e-5 -0.0018720971714788713 -1.433864952432767e-5 1.4338020778200108e-5 0.0018721100302286759 -1.5054680475905831e-5 0.0010767218788438847 -0.0024175681214720223 -0.0008983555707418275 -0.0035808516647356974 -0.0005444510655830125 -0.00162127614897241 0.001524147205895597 0.000517034079857893 0.0013737146005149332 -4.955925245811055e-6 -4.312732850274573 -13.026490671937216 -25.735293455247643 -36.36067133449376 -42.79133608884835 -40.43653106899666 -32.43522483839032 -19.82988628878525 -9.217502372257385 -1.9073611703579452 -9.357886344306442e-6 4.31271131235435 -2.0920564062487585e-5 -12.283506152887645 -34.69045115227633 -54.92180223136047 -69.33252598419583 -67.8429363209195 -55.01831343773898 -32.99219204377703 -13.231182202564964 -5.221941289891297e-5 1.9073247085007226 13.0264666721297 12.283449895945893 -2.7743758738772865e-5 -26.598632217450458 -51.519471201992474 -68.78094431385504 -66.86885689100414 -49.91368018963856 -22.86497866017102 -5.0444527652055756e-5 13.231031758641468 9.217427360693174 25.73527975650316 34.690407056315564 26.59856463519162 -2.384710535211537e-6 -28.84437359177129 -48.7187608860164 -48.16653340561881 -29.5789534929172 -3.3027130547259974e-5 22.864869758692848 32.992081015486875 19.8297968264487 36.360661734138155 54.92179920841189 51.5194077925758 28.844336088454543 -1.5235410301484082e-5 -19.388288719668072 -18.976760946802177 3.1989340918405426e-5 29.57900863368283 49.91363080199028 55.01823533028082 32.43515859237897 42.791317553320475 69.33251721845188 68.78093675123506 48.718766023563525 19.388308556085597 9.987744687484059e-6 5.176649118510459e-5 18.976808493962814 48.16661335432058 66.86888911863164 67.84295234855362 40.43651211429464 40.43651617244259 67.84291011876626 66.86884250673828 48.166521421289694 18.976777390483655 -1.7276787207276e-5 7.966099040596675e-6 19.388330757748093 48.718842062836714 68.78101893490258 69.33258655917831 42.79137167871052 32.435224739903425 55.0183047905935 49.91369640143848 29.579013298872045 -3.425447853605067e-6 -18.976777638536966 -19.388314845650157 -2.7214643536929325e-6 28.844415841092605 51.51956433273703 54.92190274781619 36.36071789321537 19.829874609239095 32.99218618193159 22.864926299493128 3.4155506747387725e-5 -29.57898263177218 -48.166605321660576 -48.718841180762354 -28.844402616721897 -2.693602275227619e-5 26.598631782468015 34.69051968655125 25.735350733823577 9.217496658141732 13.231177235116403 4.3451990840118606e-5 -22.864924319494992 -49.913638407608126 -66.86887614908413 -68.78105431673731 -51.5195351018095 -26.598616760673632 -3.161580466011074e-6 12.283489038276361 13.026505040497705 1.9073641455118866 3.868266864896764e-5 -13.231070488547445 -32.99214456078971 -55.018323479039246 -67.8429513222173 -69.33259734554926 -54.921924004126026 -34.6905212204306 -12.283484416354302 4.2543549611940057e-8 4.312719786563903 1.4436923797506514e-5 -1.9073149251322454 -9.217438634121182 -19.829827787201932 -32.43521523952952 -40.43654687543311 -42.791367097132714 -36.360718637384146 -25.735361814587623 -13.026509879142086 -4.312719594732318 0.0
</DataArray>
        <DataArray type="Float64" Name="Mode_6_w" NumberOfComponents="1" format="ascii">
 -0.05261391201838891 -0.03229681500808217 -0.05261393539571104 -0.03229715313304106 -0.0009100149661761837 0.0003084607937504604 -0.004257693802646473 0.0008167492474018282 -0.0008788240229301429 0.0012655771806318896 0.00040942648619331077 8.013716777419682e-5 -0.0016556015305770376 -0.00023681695456749597 -0.005389396734928719 0.005800517530750488 0.005800523269310952 -0.00538941049062311 -0.00023679554436302407 -0.0016556241374748998 8.015121721483606e-5 0.0004094153286578903 0.0012655930885954322 -0.0008788338539644234 0.000816756311504502 -0.004257698512081149 0.000308462030073775 -0.0009100173445469888 -0.0009100253483343133 0.00030846060683929863 -0.0042577040482804545 0.0008167697297107878 -0.0008788274214517323 0.0012656138892258308 0.00040942338177035845 8.015013588833247e-5 -0.0016556418485774017 -0.0002368082833484124 -0.005389472706969661 0.005800585748540186 0.005800588374007429 -0.0053894827064279996 -0.00023679413644911099 -0.0016556510203726907 8.014441319085193e-5 0.00040943463507332083 0.0012656063588106334 -0.0008788168144647054 0.0008167649886404241 -0.004257695551665327 0.0003084532759944457 -0.0009100231736120002 -19.930319180428356 -28.450076705672352 -32.93963705120248 -28.59758640978258 -23.567478206865214 -19.337845277446988 -19.52874645738042 -23.205438601735803 -27.48944093667036 -28.498705587387537 -24.280914503901176 -10.881865663469592 -28.45010614258042 -47.79386539148813 -53.288226581452875 -47.54141280374757 -34.72938425023414 -26.164630304523396 -24.57962493959403 -32.062235491281925 -42.829355283950875 -46.84353292467275 -45.24210389756734 -24.28091506518817 -32.9397286449676 -53.28831190617496 -54.19802588781382 -42.02078913069091 -22.67124521196826 -9.313366464978465 -8.666912890949275 -18.975511031332 -38.650035710793176 -47.44230909166893 -46.843533098762784 -28.49871662805291 -28.597745607542358 -47.54162086428748 -42.020950965805994 -21.325867122287075 6.531979056591142 25.673418503155585 25.119477427019675 9.777995599511708 -16.959194057338436 -38.65005878718883 -42.82935490746528 -27.489443382007245 -23.567669334659126 -34.729676872017 -22.671525935568305 6.531830345441345 39.536698989389244 63.56883989735142 63.77011102873023 41.819219324039906 9.777991401696077 -18.975543706720483 -32.062280450206565 -23.205449861473763 -19.338020624029312 -26.164935486854343 -9.313685876151663 25.673105529699598 63.568761245784856 87.15665534530136 88.45099938159721 63.77007228885672 25.119398022661162 -8.666947208726283 -24.5796750717044 -19.52877988773227 -19.528823604325076 -24.57981239934546 -8.667085819787793 25.119197931715803 63.76990365319937 88.4508031566846 87.15662286198105 63.56882377282776 25.67333341330972 -9.313443487238999 -26.164702598840364 -19.337884864197434 -23.20536757837855 -32.062228279295205 -18.97552856193716 9.777872888775924 41.81908414187005 63.76991223784746 63.568696620011174 39.53664300519169 6.5318974114271695 -22.671309191210916 -34.72946020751568 -23.567526517741843 -27.48923048180269 -42.8290709956382 -38.64978702205763 -16.95912858088706 9.777848503116585 25.119188149090363 25.67309148535151 6.531791625419438 -21.325935250977977 -42.02087090299894 -47.54146411246181 -28.597628208197257 -28.49845123419214 -46.8431347130318 -47.4419543303919 -38.64978658610758 -18.975526894683316 -8.66708691223099 -9.313711760958427 -22.671546865466777 -42.0209749335404 -54.1980740946972 -53.28827443446212 -32.93967062433513 -24.280660150337987 -45.24165272377944 -46.84315249530724 -42.82909279441914 -32.06222428746661 -24.579805212258044 -26.16491647412667 -34.729687512310285 -47.541634560548665 -53.28833607811011 -47.79387991087833 -28.450092676041674 -10.88175273700584 -24.280664454057163 -28.498447761873848 -27.489243125324975 -23.205367166308797 -19.528817563083642 -19.338003629403055 -23.567663610152987 -28.597744099957772 -32.93973581896105 -28.450116104189906 -19.93032837591436
</DataArray>
        <DataArray type="Float64" Name="Mode_7_w" NumberOfComponents="1" format="ascii">
 -2.1892731892612941e-7 -0.0662391154231084 -1.7613892037668337e-7 0.0662390370701786 -0.0016574795425532774 -0.00040465213650965045 -0.0012039124492977062 0.0027788770969101794 0.0016420074776603835 0.004793769878310124 0.0004512194573272063 0.0014417329756019077 -0.006311603989638352 0.0006217121586259156 -0.013886657709883092 0.012497548439448338 0.01249755954771033 -0.013886670443216306 0.0006217212798380078 -0.006311625212996609 0.0014417688419343926 0.0004511846515909833 0.004793785494232646 0.0016419879608516007 0.0027788923236079267 -0.0012039175966834874 -0.000404648481230793 -0.0016574754391381345 0.0016574694688552916 0.0004046532115406002 0.001203885109871008 -0.0027788829745505196 -0.0016419999979736407 -0.004793774775077011 -0.000451201032417676 -0.0014417497075955633 0.006311621180571423 -0.0006217248512108795 0.013886657146969442 -0.012497548167853926 -0.012497549762281736 0.013886657660952583 -0.0006217158529706985 0.006311618326588889 -0.0014417504376620257 -0.0004512027421570388 -0.0047937717234366765 -0.001642003160189398 -0.002778902046687151 0.0012039008097616823 0.0004046529180216772 0.0016574668096383037 -8.344396474293176e-5 -4.985725744341202 -14.122313613860165 -25.43089739955176 -30.419402974834284 -26.024501764967376 -8.194624231284816 15.979550289129307 40.036480043507474 50.94297834502932 48.86970175207747 22.229038141005233 4.985499025886615 -0.00019829802290926695 -13.367038333174198 -35.00938532972576 -48.610407046697084 -48.88192508650714 -25.249661783424045 11.157859198988186 56.897664694623195 78.42612328444245 86.3944786445501 48.869697463309144 14.122051000924197 13.366610622505648 -0.0002348962231550397 -26.527384095608028 -46.693391465449764 -53.263868690803854 -30.287933944866698 3.1297979216904204 51.13979650976957 75.74944867272204 78.42614336458371 50.942975539164806 25.43064066831529 35.008954753177655 26.526985277686947 -0.00017557768345218726 -27.46810636892898 -48.98562230351844 -43.04173628298535 -18.173194386579752 17.538439942552944 51.139816246423706 56.897702166082986 40.036496352651135 30.41920983088544 48.61007088039691 46.69315310416406 27.468005776916087 7.442821810568489e-5 -21.62973382442765 -37.11193677848351 -28.86454592855594 -18.173147695948913 3.12987977394707 11.157921634977154 15.97958382650982 26.0243755614705 48.88170105686685 53.26374208326371 48.98566205570958 21.630011055601592 0.00022989937074596584 -28.158294241826866 -37.11188372905947 -43.04167282774694 -30.287831490393753 -25.24956777012752 -8.19457817061106 8.194544428596808 25.24956280722935 30.287921863851373 43.04193273909141 37.112276929343096 28.158764426567036 0.0002032078136242101 -21.6296770094379 -48.985494646014764 -53.263742933776705 -48.881800950914176 -26.02444362739383 -15.979618091154139 -11.157943709203664 -3.129820813080578 18.173314085880108 28.86481932973853 37.11225657279418 21.630008168422577 5.5972969054426945e-5 -27.468003625262543 -46.69328485159123 -48.6102640147643 -30.41932897335783 -40.036523513848756 -56.89772312671491 -51.13980649710181 -17.538388479006564 18.173272139274538 43.04179616912594 48.98561846276635 27.467973686492222 -0.00011110778731462417 -26.527306637452654 -35.00928716198662 -25.430826457944836 -50.94301789272569 -78.42621555689519 -75.74951122416505 -51.13985453543421 -3.129865225212357 30.287816812428918 53.26364047800785 46.6930783823459 26.52697066386939 -0.00020036128345767728 -13.366985297249085 -14.12228051041721 -48.86973881611991 -86.39455644746664 -78.42623201526831 -56.89777008334153 -11.158004671910465 25.249462909120748 48.88163371571201 48.610010278069666 35.00893918011657 13.36660807620291 -0.0001647124685916057 -4.985705366370735 -22.22906631561612 -48.8697575296118 -50.943042638699374 -40.0365548123322 -15.979640788629808 8.194484509806912 26.024322810336788 30.41916637844625 25.43062906795435 14.122052947560961 4.985512964525966 -6.670454663229195e-5
</DataArray>
        <DataArray type="Float64" Name="Mode_8_w" NumberOfComponents="1" format="ascii">
 -0.09712593479359255 6.098052337616929e-9 0.09712593554839799 -1.4700151197876116e-8 -0.0025095474018640524 -0.0013688778120987469 -0.007904418129670337 -0.0003706819489139244 0.00040293255824959406 0.002046779745817848 0.005375133016662924 0.00028776947283342297 0.0034065415512169422 -0.003122402886298647 0.0001239415757309206 -0.001098732383466009 0.0010987124880426134 -0.00012391517325788544 0.003122382952781648 -0.003406528779192123 -0.0002877741209456518 -0.005375131035488293 -0.0020467853570975123 -0.0004029236612427381 0.00037067613834058667 0.007904420591272714 0.0013688791774284512 0.0025095441082897386 0.0025095492035990836 0.0013688690308708703 0.007904430197254448 0.00037067329694997423 -0.00040292664086036766 -0.002046780696419036 -0.005375133349847941 -0.0002877782649661179 -0.0034065282810879093 0.003122383903317925 -0.00012392097836033154 0.00109871942581692 -0.0010987203920423177 0.0001239214830798983 -0.0031223868976191075 0.0034065353373288663 0.00028776319136561743 0.005375141006898371 0.0020467744099018147 0.00040293752656721406 -0.00037068510731902047 -0.007904413028788724 -0.0013688773482777774 -0.002509550776780468 -36.97144938584263 -49.65302743657215 -49.3180955836541 -29.041914728295108 -3.1561180844530012 19.920012179123024 33.104406991968595 31.6200027989219 23.38992344091546 10.162150822738115 3.1049626662765113 -5.430415456925069e-6 -49.65303701918887 -82.14510011996957 -81.04648400229878 -56.48261176115943 -10.101565997557678 27.317641233580506 54.466438660522705 52.2566042654398 38.55800641710522 14.811184009168269 -1.1612943913890106e-5 -3.104977066733492 -49.31811281104599 -81.0465055020797 -73.79820181516381 -47.4238974074203 0.7808503157660758 34.69939158817833 55.718319343395834 46.66600234665397 24.87137950309201 -1.41986277629412e-5 -14.811206486986116 -10.162168278543817 -29.041930047155596 -56.482624810969305 -47.42391369686464 -27.59717487353372 11.909855886430684 36.69046632589513 45.87111754275841 30.341212973860536 -1.813155827132408e-5 -24.871424173744153 -38.55804537131393 -23.389943842269016 -3.156132822270897 -10.101579189055368 0.7808376472708211 11.909861750420458 26.463195438960582 31.30130040406834 20.26278759812096 1.5783722843803354e-6 -30.34124895305851 -46.66602860798282 -52.256642639727275 -31.62003071723337 19.920002832647633 27.317629558541842 34.69937932991348 36.6904362253931 31.301329464676144 22.281591746852186 3.2778158806683765e-7 -20.262773500890713 -45.871114733174494 -55.71834807068655 -54.466441408064206 -33.10441860406553 33.10440002258069 54.466423495296276 55.71832957113989 45.8711036665089 20.262759382732327 9.79283730834226e-6 -22.281558845224033 -31.301295568803656 -36.69043095001772 -34.6993802680385 -27.317642351173163 -19.920010887919236 31.620009826501217 52.256593980762595 46.6659814701494 30.341225871826865 1.3601030945310718e-6 -20.262783096034454 -31.301283739906676 -26.46316387319872 -11.909826816783536 -0.7808061543250335 10.101595400242356 3.1561340168689562 23.38993238169123 38.55803365984349 24.871393191418765 -2.0605554448743147e-5 -30.341239635084577 -45.871111432997026 -36.69043545393931 -11.909806191586638 27.59722282061036 47.42394226791887 56.48264650053941 29.041931989376415 10.16215483908924 14.811196424770579 1.8423439895983063e-5 -24.871389839092856 -46.666015162565714 -55.71832301744824 -34.699376825149265 -0.7808064474002026 47.423958814361285 73.79824200397313 81.04651699749911 49.31812147449211 3.1049815919528894 1.6371418979554406e-5 -14.811180609329737 -38.558001170441116 -52.25661288704319 -54.466420868783906 -27.317622249896957 10.101610583450011 56.48264824207327 81.04652739524735 82.14510715307948 49.65303618730553 5.121665364477533e-7 -3.104958843065035 -10.16214626908904 -23.389918644923032 -31.62000215909961 -33.104395916036296 -19.919997438703806 3.156146414730962 29.041938377070718 49.318120612660096 49.653042042983586 36.97144909838383
</DataArray>
        <DataArray type="Float64" Name="Mode_9_w" NumberOfComponents="1" format="ascii">
 -0.07594487816315164 -0.07763824103010009 -0.0759470543708055 -0.07763898194936078 -0.003034525600874775 -0.0032815181286407085 -0.005458892372286044 -0.000735857789255328 0.005049482207156291 0.00386782842379029 0.0084097043624565 -0.0002894709798140554 -0.00027523273984369676 -0.00546505547757131 -0.015270213474616441 0.012759655244106887 0.012759666658028454 -0.015270108527334769 -0.005465066117222944 -0.0002752806079464164 -0.0002896338296500813 0.008409625296666135 0.003867783093247047 0.005049550137513495 -0.0007358125799785766 -0.005458971338696649 -0.003281564468848793 -0.003034621139790595 -0.003034543010765957 -0.003281565339745738 -0.005458939937486035 -0.0007359460904700834 0.0050495125800708385 0.003867684308862076 0.008409699284645685 -0.00028964499460276254 -0.00027525217261066266 -0.005465077024393702 -0.01527027163659527 0.012759805148093412 0.012759795392201847 -0.015270381597885779 -0.005465056269503092 -0.00027521123554208804 -0.00028948178902381944 0.008409774996835338 0.003867733110084461 0.005049441155733759 -0.0007359843105408714 -0.005458866468229795 -0.003281509780671052 -0.003034454124131357 -29.138696241979684 -35.34129305967717 -25.51230477765275 0.7952678775470519 29.379009946463455 43.93782067700029 39.25746525067078 11.782108838436699 -21.352131446111205 -49.889010110852354 -54.30800302296641 -26.344228209278604 -35.34108799419632 -58.01232722006015 -45.79026479704562 -15.243103948333788 34.90801012712251 64.37023920721131 69.62339423219741 32.50977625240497 -20.016081474973475 -62.94203696465814 -91.6713710511277 -54.30814366008544 -25.511760312681968 -45.78977700347971 -36.046152334914574 -17.102625469467576 20.06675435649985 45.17386207808243 53.34886593832348 37.02398448985054 -16.104284296695386 -42.58621442753387 -62.94286803315074 -49.8896084274528 0.7961709496088673 -15.24196697815878 -17.10198851412197 -18.38621764471115 -4.901551392096724 14.513043249361669 16.254592634927057 27.66776453875803 11.578350486854347 -16.105136544284786 -20.017778683163513 -21.353261306332755 29.37999792131149 34.90939731681842 20.06758542945982 -4.901194626980044 -37.68834009076176 -34.10884057860456 -24.259176829793287 -7.228532378563199 27.66732195467356 37.02268771566722 32.50760255267691 11.780611797759589 43.93867707373878 64.37145470528657 45.17434429402607 14.512755193169985 -34.10939473551455 -68.57159359907965 -55.404049752018864 -24.258099432840158 16.255008972973524 53.34811684752886 69.62155904762317 39.25600794647611 39.2580393588423 69.62409062133752 53.34885776575389 16.253716635644103 -24.260512783117836 -55.40486751670692 -68.57027158014822 -34.10649313005459 14.514673763173192 45.17397736057001 64.36905535642137 43.93665749143809 11.782561268883144 32.510130436746515 37.02345955464419 27.666372443770268 -7.230305802076424 -24.259440649838638 -34.10704334685316 -37.68526193045193 -4.899193365784604 20.067468433533044 34.90733348940452 29.378151716353866 -21.351689550450832 -20.015626139805548 -16.10447648778207 11.577335225827088 27.665931463597612 16.254106788697143 14.514397650177655 -4.8988372576597055 -18.384488607396385 -17.10225355712884 -15.24395282292508 0.7944382599829385 -49.88848178688998 -62.94142058808901 -42.58602941866922 -16.10534652087366 37.0221685834265 53.34809137397569 45.17446667006468 20.068322136143863 -17.101602217232315 -36.04667213116439 -45.791524075023155 -25.51330528494259 -54.30746579789261 -91.67046098992994 -62.94224601995571 -20.017339266454087 32.50793904812345 69.6222352620292 64.37027282266249 34.90873806387694 -15.24278900405864 -45.79102274104185 -58.01391838777212 -35.342344461904666 -26.343980071785204 -54.307606064914374 -49.88907521092601 -21.352825033403576 11.781055483887107 39.25657556756059 43.93751546256558 29.379147686815802 0.7953568573471589 -25.5127475822137 -35.342127326952294 -29.13953183037968
</DataArray>
        <DataArray type="Float64" Name="Mode_10_w" NumberOfComponents="1" format="ascii">
 1.5138807336494165e-6 0.039874823935559904 7.981214821317926e-11 -0.0398733222616305 -0.003940191780426364 -0.00011904067732856945 -0.0013155933673431775 0.006661306634233343 0.001973740231391833 0.004561768969600342 -0.0030079318614178994 -0.00047644118807443014 -0.0004465673608020017 -0.0001804821724125549 0.009052295798763065 -0.007416324384235279 -0.0074163179260768744 0.009052371574083586 -0.00018050765280335407 -0.00044657249077890266 -0.00047657383891262366 -0.003007963735715931 0.00456173531225164 0.001973769800284958 0.006661344265412331 -0.0013156616683755041 -0.00011907491941844556 -0.003940246471176172 0.003940244268240762 0.0001191096031435411 0.001315701741749978 -0.006661294337575811 -0.001973813029020834 -0.0045618585172496956 0.003007763074222663 0.00047644450253809845 0.00044658845314304315 0.00018056108322749527 -0.009051982046190255 0.0074160745470750146 0.007416076444006756 -0.009052078234898705 0.00018059555263487994 0.00044660114540109457 0.0004765671136239663 0.003007822296112399 -0.004561823671370973 -0.00197387089511698 -0.006661343933437975 0.0013157738065603158 0.0001191363192135805 0.003940315060087947 0.0005808854323125118 -11.063176545244296 -28.52505159953719 -46.574332571136665 -50.27393300691033 -43.28398714790156 -29.04201757269745 -22.5254624410543 -23.182068496180644 -28.09660682535564 -28.736767881692703 -13.372497589291985 11.064614663348939 0.0011293363963695154 -25.793201881147837 -59.21722878049584 -70.95391331836238 -60.59284677528528 -35.079853189337946 -17.327686862154223 -23.3943589437885 -33.09907403080781 -48.20659792886637 -28.736858092092966 28.526265122098746 25.79499876351824 0.0005291911740154553 -32.63418259070662 -43.69529473198658 -23.73270713299698 1.9625677812861524 26.23316021997471 9.79942082062655 -10.432551948380453 -33.09966457525997 -28.097031108668922 46.57488577958524 59.21811372106765 32.634259733899505 -0.00043254296711807926 -17.5304474433459 14.136903667995806 46.54315748390031 72.0555286283694 51.41335992793806 9.798806075804512 -23.395549031100455 -23.182855612723678 50.27395112643499 70.95367779955542 43.69438711666558 17.52891259038071 -0.000702259540828778 29.483015938051203 68.26806019025031 91.30878513874744 72.05520969767613 26.23223356258365 -17.329232896635887 -22.52651337601959 43.2839224926165 60.59240658107528 23.73172626589801 -14.138319052665416 -29.483945909763147 0.00019772740268702524 43.60518600642607 68.26878246635887 46.54341821330596 1.9620513538025535 -35.081108717381206 -29.04303218027411 29.042254807978356 35.0797486493451 -1.963065489082957 -46.5437759982309 -68.2682914409623 -43.604065581148355 0.0011067682834948872 29.48462287505752 14.138033108877499 -23.732611206670946 -60.59360177330872 -43.284762874219595 22.52626904153164 17.328543649196252 -26.232989085691276 -72.0557314718455 -91.30867372432802 -68.2675354563004 -29.482318230927163 0.001418835634911689 -17.52877629645171 -43.69473301989358 -70.95427585619035 -50.27446011245402 23.18325513945315 23.39591943561202 -9.798535637561136 -51.41355781992789 -72.05600777432794 -46.5434792595608 -14.137187192960413 17.530494654422963 0.0007652490655569397 -32.633880305410074 -59.21774041719791 -46.57483800361015 28.097968145559157 33.100863270860536 10.433395277620011 -9.799103694999713 -26.23381833515034 -1.9635788147423021 23.73179119285049 43.69484210438532 32.63445941823341 0.0001841357592391161 -25.794045277820874 -28.525716966210688 28.737904990703807 48.20834601341791 33.100325511347094 23.394792337223464 17.32709121794179 35.078506838725744 60.59153148184627 70.95314323829756 59.217444969070435 25.7940707333053 2.504303002145651e-5 -11.06389086084358 13.373007729935697 28.737809703361584 28.097567442009833 23.182507729864117 22.52525531917778 29.041268336401846 43.283103275071184 50.27330575787734 46.574260899003704 28.525521124553798 11.063862219247289 0.0
</DataArray>
        <DataArray type="Float64" Name="Mode_11_w" NumberOfComponents="1" format="ascii">
 0.06810766296719077 7.943741900864153e-7 -0.06810517636082428 1.6756167455386187e-6 0.002802576781282268 0.001482551651137668 0.0029901483493150554 -0.0019310074682226648 -0.001982303483931804 0.0016221429040806446 0.0019261106903288813 0.005708429765703839 0.0008727555647735966 0.0006587658203650538 -0.0033478359178461085 -0.00034010323057221916 0.0003398773244458424 0.0033480973516749907 -0.000658577504596023 -0.0008727111273181905 -0.005708454103170214 -0.0019262687376237718 -0.0016224076255720614 0.0019821221482103804 0.0019308720939722908 -0.0029899385373234675 -0.0014824434434030755 -0.002802389562825133 -0.002802489240899381 -0.001482434878351502 -0.002989973147370811 0.0019310352381619838 0.001982157753525107 -0.0016222917614662007 -0.0019263523411045397 -0.005708464686140262 -0.0008727169078454458 -0.0006586033142740782 0.003348323126746351 0.00033970115037596996 -0.0003402753268739346 -0.0033476337097119386 0.000658770564944689 0.0008727207764629918 0.0057084652709705 0.0019260173571185974 0.0016222616942008022 -0.001982279872509304 -0.0019308531541391229 0.0029901057473941074 0.0014825567652891637 0.0028024912135791095 26.131232947048776 32.94788502118442 31.473633539452376 25.2990041705485 26.401349596637466 36.00886111173768 45.13190221561924 46.783195239384575 34.89432339266635 18.375257061438443 4.3465394882447255 0.0005663781052120684 32.94765109680988 49.6298062035935 39.72389965825693 26.35147217596138 20.011049744351617 36.726544484208446 56.86464126215446 67.63419540951159 53.081306645912676 25.334696385677898 0.0019989577853229213 -4.344171527695332 31.473035949046558 39.72335960631199 15.669628686156695 -11.21738443947839 -22.4401990840558 -4.264377106566371 23.714596315435976 39.49966067612068 26.767785660503435 0.0008093612618858631 -25.331939766179428 -18.373040083265565 25.29800990354598 26.350223642714397 -11.218096482889425 -54.2280950330788 -72.77334946858477 -51.090670001475665 -12.52792442049828 13.642052944583357 -0.0007313506039258606 -26.767488309772382 -53.08012900292672 -34.89312027163204 26.400269710379785 20.009530179004894 -22.44110446189529 -72.7737580080741 -95.20761971110312 -72.73924612602397 -33.46729629762545 -0.0008762095871672719 -13.64447143321475 -39.50142310611886 -67.63487131860391 -46.78307071510421 36.00790348805867 36.72519848103711 -4.2648886770448 -51.090298132999884 -72.73864517291588 -40.787464835678804 0.00045282679156495814 33.466576912982994 12.52639133885706 -23.716329123712047 -56.8661205686649 -45.13252660885593 45.13123656901925 56.863844884971414 23.714574164740156 -12.526903345733077 -33.465734027314895 0.0013802078673869737 40.789636410583185 72.73974697382504 51.08984203997356 4.263450470651564 -36.72728926879994 -36.00932890628138 46.782632274163085 67.63374460930703 39.500230803101736 13.643596055936365 0.0011507612889960306 33.46813201466432 72.74035887543351 95.20880162570664 72.77389129812838 22.440479735348084 -20.010591444099276 -26.401185548055974 34.893776380285765 53.08070575071792 26.767971003622286 0.00044923987088705554 -13.642887276206428 12.527448232224371 51.09016098328199 72.77347199956931 54.228663971354315 11.218645834642919 -26.34968128667685 -25.297986311906108 18.3746117188694 25.333957954529772 0.0005554519647619015 -26.767227638990114 -39.500768905791546 -23.716281147092904 4.26292617909656 22.43946873877451 11.21790858669691 -15.668454799366001 -39.721827260229055 -31.472166432271887 4.345891936608961 0.0009304469852000066 -25.332620525881353 -53.08060376826976 -67.63517296871456 -56.86686358829255 -36.72864563525915 -20.012218794723864 -26.35106287705947 -39.72243567907713 -49.627910704426114 -32.946473195245034 0.00027285287030812914 -4.344808253300312 -18.37362867012253 -34.89359372583116 -46.78352757509457 -45.13313465815602 -36.010289843601115 -26.402323124140267 -25.299061844560132 -31.47283484402005 -32.94674219522903 -26.130279769135523
</DataArray>
        <DataArray type="Float64" Name="Mode_12_w" NumberOfComponents="1" format="ascii">
 -7.724587395464644e-8 1.3152511217095615e-7 -1.4454645308245602e-7 4.0629814846403144e-9 0.006020507529335172 -0.0005482526900889354 0.00025723044910644133 -0.011535109805191115 -0.003910255439804191 -0.004562094927622399 0.0077402246434674395 0.0071536024096603545 0.005886634261158448 0.0010088318511991758 -0.005802014627776962 -5.287323624831217e-5 5.27912306675252e-5 0.0058021317393701435 -0.0010088578514253386 -0.005886650449290377 -0.007153595204452665 -0.007740245279580122 0.00456211247395513 0.003910261843352038 0.011535122410609758 -0.0002572410564401862 0.0005482391871837843 -0.006020519115194198 0.006020505777612994 -0.0005482536727447449 0.0002572337602545131 -0.011535121273185041 -0.003910244031850883 -0.0045621197236103955 0.007740258325933782 0.007153565441504531 0.005886655612541886 0.0010088601877847156 -0.005802094669397961 -5.281926198459544e-5 5.283664797324727e-5 0.005802056605139073 -0.0010088312902326467 -0.005886633794132953 -0.007153606612560299 -0.007740231102994908 0.004562111291778562 0.003910253665780226 0.011535119361462596 -0.0002572509068555434 0.0005482529226723233 -0.006020517099949466 -2.9936114021262358e-5 16.182424509940194 38.56113205400565 54.91624124220355 42.02286383439442 8.125357551685697 -33.99520824139205 -55.86270405476895 -51.37118362861602 -28.603362937798806 -6.273672341973303 2.942320280892793e-6 -16.182496491099297 -4.9459145166978754e-5 36.18683173372379 75.5438786647008 74.49884551729731 30.97031968397076 -32.45727636793965 -77.76282534992872 -73.53531363589376 -42.167908040849184 3.111845634103869e-5 6.27367437811069 -38.56119295145971 -36.18690325981722 -5.727625045585819e-6 40.8610609217752 54.59852279311935 18.71572155882341 -23.35785054235961 -58.18465553040761 -33.64831157402753 -2.030285001473412e-5 42.16799835624142 28.603415159243546 -54.91625165451441 -75.54389543665248 -40.861021271241476 2.0266789487527516e-5 38.28897620945607 17.509313316841755 -2.386319630743241 -31.67284392561274 2.8493237702207513e-5 33.648397167461816 73.5352879679703 51.37122834521541 -42.022833136939525 -74.4988032216187 -54.59843281253761 -38.28890965110791 2.838305653120416e-5 -3.8783964053729076 5.400512704933996 2.234886117360272e-7 31.67263683410799 58.18471655347731 77.76285987955593 55.86270074231244 -8.125301145176637 -30.970255279388024 -18.715681369252525 -17.509319646278175 3.8783428074638535 2.1101689764353324e-5 -0.00011989074344903395 -5.4004513133807475 2.386313238856692 23.357776535171666 32.45730980517296 33.99522181623244 33.99525724045041 32.45734860407602 23.357857380512982 2.3863169832764908 -5.40064042577301 5.005259092858687e-5 3.591871528677859e-5 3.878303535583339 -17.509232624369275 -18.715715359397915 -30.97034116852604 -8.125358033687949 55.862755084092406 77.762874215457 58.18459285630726 31.67271388439071 -6.45365834009547e-5 5.400404544959054 -3.878221528004464 9.22095450831328e-5 -38.28893491090609 -54.598471236566624 -74.49887476861389 -42.02288909296841 51.37125705768825 73.53540365693212 33.64835946975982 -0.0001579772714663306 -31.672797951701458 -2.3863427717751478 17.509325918273376 38.28910171673572 6.656197207364761e-5 -40.861076780593145 -75.54397189944666 -54.91630999613809 28.603468699005678 42.16799248550069 4.747053284298718e-5 -33.64841586167291 -58.18481644898041 -23.357829544603533 18.71576233654936 54.598575125890264 40.86110495907628 -2.9292517758430178e-5 -36.186960250166344 -38.56123947739181 6.273783941274175 0.00013846020056595867 -42.1679392294014 -73.53531337872931 -77.7629226415084 -32.45733642353001 30.9703467519816 74.49890768257816 75.54391672496341 36.18681738234567 -0.00010352993273443302 -16.18253276981525 4.110581305844579e-5 -6.27357969189533 -28.603343094835537 -51.37121382922182 -55.862732356059894 -33.99523790458844 8.125354545510081 42.02288975756295 54.91627090526562 38.56114295009694 16.18240179998676 -5.563622157253876e-5
</DataArray>
        <DataArray type="Float64" Name="Mode_13_w" NumberOfComponents="1" format="ascii">
 0.14087318337854468 -0.06693394356245866 0.140873169781844 -0.06693394420309093 0.0069926342376682256 0.0060905969706380545 0.006048237685676774 -0.0014222372136989626 -0.008628403192383578 0.002648812009255265 -0.005388519627019648 0.010004377333481597 -0.00453389091006987 0.0024314917923055138 -0.018998384414110753 0.014011408538077445 0.01401141016458521 -0.01899838252002616 0.0024315094570311444 -0.00453392179201413 0.010004368316346345 -0.005388521351752712 0.002648809292850637 -0.008628379466157103 -0.0014222220725375217 0.0060482367269124445 0.006090597970455272 0.006992618375802807 0.0069926299653374005 0.006090595072372018 0.0060482386246693155 -0.001422241084239473 -0.008628390217911553 0.0026488040738521608 -0.005388512505598859 0.010004389015166338 -0.004533904615797294 0.002431490925389393 -0.01899837882767545 0.014011404031825393 0.014011404489016735 -0.018998371048808717 0.002431493276529021 -0.004533915954862103 0.01000438393272936 -0.005388544543657079 0.0026488295089930505 -0.008628402640774949 -0.0014222071378928798 0.006048225098723537 0.006090604798830509 0.0069926209900684055 54.312517951624 63.69013907979354 46.844726854128496 14.042952572015421 -10.384918443581267 -13.163242587380658 -11.366110770351808 -7.662156605280279 -23.44522678759065 -40.57426462872353 -48.32360405788146 -22.167177450826145 63.69010960366969 97.80087524537024 66.35250769306758 23.183289643413115 -23.951659211385934 -19.944064519247593 -9.79501533904673 4.7116781693468015 -14.467327953220488 -37.24799962371304 -76.83193774179014 -48.32359376715371 46.84466152717902 66.35244313674218 24.455296306340077 -16.988047450974715 -49.56622535460516 -28.314212288488832 9.90922170158166 44.98668683181809 14.318674715446091 -6.828932662000163 -37.24793454904545 -40.57421898537769 14.042844073239007 23.183146247308418 -16.988133577768583 -50.59363450331284 -65.56719265966966 -24.8404122098964 16.594987839461293 75.36795977021579 72.68157576307797 14.318745996849543 -14.467196389248947 -23.44513674001741 -10.385008890945377 -23.95181264751564 -49.56632845120473 -65.56726927872084 -65.71552382076375 -16.531817463156827 39.09962164819814 52.4075927210714 75.36799711828024 44.9867756090837 4.711840965166717 -7.662047317961912 -13.163279842563147 -19.944148820195167 -28.314259622280368 -24.840419095019488 -16.53181951085006 -18.054543605812732 25.49068543870312 39.09958347674271 16.594976238969707 9.909254220693203 -9.794939528826978 -11.366022953740758 -11.366071679883266 -9.794978242892943 9.909241303096398 16.595002015502537 39.09967189975114 25.490663086513297 -18.05456022588367 -16.53186698230959 -24.84049624883412 -28.314246057256973 -19.944098214252534 -13.163236670666691 -7.662085070194288 4.71178536242755 44.98679607465275 75.36800232152328 52.40762784802599 39.09965238551323 -16.531885693600387 -65.71554498620401 -65.56728763634203 -49.56631903246333 -23.951756651166193 -10.384962103743087 -23.44514248101596 -14.46723340111187 14.318724370762444 72.68159929859358 75.36792457234738 16.59498918621556 -24.840431792141256 -65.56724293512754 -50.59361522008358 -16.988105536166096 23.183185091481267 14.042874631472134 -40.57421881293524 -37.247923171662485 -6.828965174267012 14.318683923232157 44.98669263710852 9.90919069284313 -28.314203783132164 -49.56622077676206 -16.9880372750628 24.45533732893433 66.35246824584618 46.84467575616683 -48.323597501722716 -76.83193285171505 -37.24800259671267 -14.467361669264102 4.711693911116975 -9.795009007441845 -19.94405295014198 -23.951631433117928 23.183315339040306 66.3525298346747 97.80088424630009 63.69011026751785 -22.167176457372584 -48.32360512813704 -40.57425701646437 -23.445234374588324 -7.662164305286287 -11.366092478086202 -13.163227403196055 -10.38488883145351 14.042968661224394 46.844740905747905 63.690139139551135 54.31251224626936
</DataArray>
        <DataArray type="Float64" Name="Mode_14_w" NumberOfComponents="1" format="ascii">
 -7.89188127378603e-8 0.02444947138280717 -1.2023334088321815e-7 -0.024448607231998074 -0.00031119905578345843 0.0003691260411626329 -0.0003610234760575906 -0.0008753537185261498 0.004713812368448829 0.0027037340665566015 -0.03364332871112853 0.059044379617953065 -0.034256877165653433 -0.02997071850793777 0.06381859415222484 -0.04279669330141824 -0.04279670047591421 0.06381860842917375 -0.029970732109515473 -0.034256889225161846 0.0590444280904615 -0.03364337459043209 0.0027037643671098174 0.004713799807810076 -0.0008753604259458821 -0.00036101359022767536 0.0003691078717915674 -0.00031118868903055126 0.00031117087573017034 -0.00036911389293919867 0.0003610218897566391 0.0008753372417328697 -0.004713902184331812 -0.002703295340875314 0.03364287083641827 -0.059045067979382755 0.03425912282102167 0.029968288749728497 -0.06381743688976979 0.04279659345605651 0.04279658534337355 -0.06381742560008173 0.029968284095474775 0.03425910961254577 -0.05904503942300437 0.033642864548106416 -0.002703302703234348 -0.004713893040921499 0.000875322043638372 0.00036103387923065055 -0.0003691281295045529 0.00031118539604954197 -3.099908304853883e-5 -0.5269725577968057 -0.7955966051125669 -2.474229880629941 -2.598337460951108 10.355828799706606 7.888866359360684 -30.989869247490063 22.932251039682473 18.317262413096792 -39.94793129685818 -1.3370311930062255 0.5269073052086729 -5.498553904955273e-5 -1.2448408781790414 1.5113562666907767 -4.271222101649803 -27.31721553854029 47.83688800584951 16.433972692398086 -96.92991584647116 87.40152767811765 1.6400478037872703 -39.94794311510498 0.7955344446576348 1.2448152412153939 -1.8796626045483463e-6 -11.469699322287513 36.13479811906414 7.309329085508541 -115.9831710876859 133.01465579640617 6.1991257815370275 -130.0680258343285 87.40152039902495 18.317252211458765 2.4741719900728265 -1.5114151228687034 11.470020061816244 -0.0005726675133933259 -87.99906802577782 128.38306527444792 6.544526978304856 -189.64267115957722 177.7428024727833 6.199091210823785 -96.92999185466218 22.93222705085783 2.5984101445176484 4.270876859549956 -36.13414683133636 88.0005068040191 -0.0021345895283903403 -188.546741595045 209.26070704618775 1.6291988814676552 -189.64270604044273 133.0146563094578 16.433918864419404 -30.98992021480032 -10.355746011918763 27.317519747114194 -7.311682009454589 -128.3808401130228 188.54972543252657 -0.00355271672829403 -232.71454249217362 209.2607538370247 6.54451454409466 -115.98322792024331 47.836879324989994 7.888841702189044 -7.889428913568066 -47.835946625975254 115.98455791843541 -6.5500165692322145 -209.25725907011366 232.71826070370977 -0.003574341715994677 -188.546768890629 128.38316291940077 7.309356597512148 -27.3172251804425 10.355829229594029 30.989968706469185 -16.436379596313014 -133.01226151103393 189.6453751576938 -1.6362242249878578 -209.2572660829991 188.54979818760052 -0.002147340935738952 -87.99906524685326 36.13489467911791 -4.27117246725357 -2.5983289345483924 -22.931162047063026 96.93124581928919 -6.203728345243668 -177.73981009893512 189.6454119464018 -6.550046967327471 -128.38087759370566 88.00055137575212 -0.0005670774501142339 -11.469678575284124 1.5114083227169897 -2.474209885652219 -18.3183135707378 -87.39974998809872 130.07018682785178 -6.203709239288193 -133.01225386862012 115.98463320783854 -7.311711073342739 -36.134208309885295 11.470010661680073 -2.2691303472324175e-5 -1.2448316202751197 -0.7955886793854215 39.9479869497615 -1.642128786544308 -87.39974685491187 96.93131000625038 -16.436371518450237 -47.835962929833414 27.31753620552042 4.270808176577167 -1.5114644347693356 1.2447679871568185 -8.12244935747012e-5 -0.5269707066177493 1.337381334964052 39.9479934852104 -18.3183157438896 -22.931141738171934 30.990012435921756 -7.889434487770462 -10.355748069208191 2.598382896919201 2.4741316114340752 0.7954982578151978 0.5268682156940717 -4.693253127762119e-5
</DataArray>
        <DataArray type="Float64" Name="Mode_15_w" NumberOfComponents="1" format="ascii">
 -0.00776561332311512 0.03143978014672855 -0.007765538031750956 0.03143989481460773 -0.000622508337066678 -0.00013970083278833952 0.0001363389186675095 -0.0006732817828778128 -0.003653133202027145 0.016752848171006758 -0.01746812545185109 -0.02382748691451253 0.08086330200789027 -0.08818403674604192 0.04258643997846959 -0.004213993976432098 -0.004213989094322011 0.04258643176200991 -0.08818402727209897 0.08086328547911056 -0.023827476357999342 -0.01746810793001879 0.01675282225630611 -0.0036531330252485322 -0.0006732736869148512 0.00013633096145469767 -0.00013968787061384864 -0.0006225078039354201 -0.0006224966707135219 -0.00013968275112276446 0.0001363152182327364 -0.0006733415017458652 -0.003653008960199081 0.0167529056798903 -0.017468981113503857 -0.02382578845025331 0.08086231326591516 -0.08818484184407892 0.042588030422836765 -0.004215066853984195 -0.004215078608222984 0.04258805711479031 -0.08818486962468126 0.08086231931528062 -0.023825765267631544 -0.017469026504990024 0.0167529382084921 -0.003653013347696103 -0.0006733354076523353 0.0001363116118114327 -0.00013968364292015 -0.0006225054242920326 -3.040571611592036 -3.263750546761475 -2.8092227034417596 -2.0563749576916233 2.8372567610107318 3.9521715642962563 -20.32615338794926 3.461725818422663 39.476479808276814 -37.79976719879954 2.3628627245190197 12.660462481077642 -3.2637279743243393 -5.222078818427771 -1.9335169440273188 -1.859677437019174 -12.429995671559078 11.653899843855296 34.65436332677873 -87.70640993272164 47.63782492511001 63.46548299847687 -74.08362263363674 2.362854755054498 -2.8091537753248983 -1.9334589886541471 -1.4893101820874806 11.658417421342584 24.882014023786883 -85.10438908305292 50.144095065284205 85.46601181545257 -166.00768024390865 77.26160364532537 63.465501756645295 -37.79975058510195 -2.056356971309112 -1.8594687714662015 11.6581803728555 -42.62888673316439 52.68926594315363 81.01689442624635 -197.9114654317854 96.18442703738502 106.09478439453942 -166.0076738317268 47.63780147247536 39.47648106514168 2.8371714519608338 -12.430014786940843 24.88319805494699 52.68699365754119 -154.50736950800342 107.94108793730736 123.76394798599291 -251.8011224363001 96.18443154824983 85.4660374286974 -87.70634233695706 3.461724654983486 3.9523002870084234 11.653011308081254 -85.10415677242986 81.02069164504584 107.93603838001165 -254.6891921659803 133.54493313792173 123.76393511893536 -197.91139839410098 50.14403491208748 34.65436106704835 -20.326131599509857 -20.32619541348239 34.6553867890562 50.140781008544494 -197.91114572192723 123.77019724215914 133.53851007477223 -254.68912411292987 107.94103051874728 81.01692807946493 -85.10434959042726 11.653846034215757 3.9521470737264774 3.4606491232125327 -87.70635051297103 85.46952573237706 96.17902986733165 -251.80071874060653 123.7701282853249 107.93606499504048 -154.50730871231656 52.689205682578084 24.881983754124416 -12.43002548327424 2.8372265588552295 39.47714917907515 47.63497718938308 -166.00757407190304 106.09959270760247 96.17908231164908 -197.91109890240833 81.02063011143953 52.68701369962895 -42.62884587852423 11.658386389960295 -1.8597144360857012 -2.05639271618378 -37.79898368478212 63.46811546828772 77.25797516434105 -166.00757358192666 85.46950532045611 50.14080205023118 -85.10412734300422 24.883151035535626 11.658173313092236 -1.4892879643814585 -1.933508238317851 -2.8092174521832805 2.3621369924951323 -74.08299472251835 63.468122479539616 47.635010427544664 -87.7063134670294 34.655361153276885 11.652989620209095 -12.430006614265109 -1.859471910261941 -1.9334333863546895 -5.222033148727001 -3.2637267309252262 12.660614438363758 2.3621308787646753 -37.79898729575956 39.47714440456107 3.460665841697908 -20.326186636474056 3.9522714073219998 2.837154470356468 -2.0563493165276565 -2.8091346036947304 -3.2636915402929807 -3.0405423967318197
</DataArray>
        <DataArray type="Float64" Name="Mode_16_w" NumberOfComponents="1" format="ascii">
 -7.024602267722782e-9 -0.11275413791233185 -1.7090541663456843e-10 0.11275431241849351 0.004179972001177754 -0.0011152000472769502 -0.001377427902475572 -0.0084407354979069 -0.0023560312429278035 0.0025547290116802496 0.011869433277760048 0.010196019533785499 -0.0030758831995955464 0.0006526352876157027 -0.033156020908107556 0.022177258641295668 0.022177252787809555 -0.033156005861462785 0.0006526189130190294 -0.003075865891305928 0.010196007712854635 0.011869406841269924 0.002554769428760986 -0.0023560566995615762 -0.008440716914246358 -0.0013774348840815145 -0.001115199632681281 0.004179971697993234 -0.004179970944453647 0.0011151967663282265 0.0013774411077103323 0.008440713353889882 0.002356024847496251 -0.0025546515755932595 -0.011869530358865177 -0.010196120215610983 0.003076287488789421 -0.0006530841480697074 0.03315624014768742 -0.02217728314715582 -0.022177281935792187 0.033156229222106245 -0.0006530432289972133 0.0030762360281373627 -0.010196107825822467 -0.011869522248260947 -0.002554655985550574 0.002356015875480122 0.008440737607296338 0.0013774219906197982 0.0011152046001566625 -0.004179975592434081 -2.9696778663185573e-6 10.508428405909399 21.890110460253066 23.40950326238466 0.9565749953141514 -33.38600195941236 -56.156979213103654 -41.29291832376517 5.470564003856216 53.82862896435688 77.75408095728179 37.59089118878245 -10.508433592604556 -1.1858341800540255e-7 22.703854311139292 40.353365034032336 27.584589862143247 -18.393203308013 -67.28853929477442 -85.29570539723728 -23.25675117325004 39.59028317703288 120.37852443111191 77.75407699178737 -21.890119648014885 -22.703848431470995 1.0134048076263558e-5 20.98192873823056 31.245327588144885 2.636399045214594 -6.5167495995095726 -48.34864951345589 -12.243224693256147 -4.996067025396245 39.59032894529608 53.82862868697001 -23.40950736655345 -40.3533703501081 -20.981872312573035 -8.683239804635878e-5 51.75946684423947 30.174621971416336 28.3378079721258 -22.950976415508645 -30.26646088508322 -12.243256790806539 -23.25669412332941 5.470618506868362 -0.9565634854131637 -27.584641440847307 -31.245238725161023 -51.759248248599626 -0.0003545931517798669 46.606755825626664 77.66852798330687 72.18920218202955 -22.95092226926141 -48.34860087675794 -85.29573388152347 -41.29289290363404 33.38600695908976 18.393258288084 -2.636773102458331 -30.174273618514913 -46.60626257770695 -0.0005938541937683588 9.713572019314437 77.6685041466839 28.33769971684697 -6.516698306786449 -67.2885102673312 -56.156981278903594 56.15687559152539 67.28866284075278 6.516988672326982 -28.33871091929471 -77.66794143711512 -9.712908706074113 -0.0006240371027199645 46.606838738187214 30.174610148889304 2.636305750716834 -18.393212938172983 -33.38600439574326 41.292935518044054 85.2952918324993 48.34902043684154 22.951459012875507 -72.19039837225755 -77.66788149316609 -46.60626881395125 -0.0004415789925723461 51.75949082842442 31.24528327114888 27.584523786935986 0.956562211782395 -5.470401476389838 23.256973272700506 12.242431147573473 30.266946321197263 22.951440513006425 -28.338733394028903 -30.17414321913908 -51.75920657204073 -0.0001368134427320501 20.98189754042782 40.353318781459556 23.409474981565673 -53.82881161801396 -39.590011606962484 4.996457620510948 12.242398273129279 48.34904151377999 6.516962967759387 -2.6368128721726176 -31.245152063726042 -20.981831766071334 -1.1831590019742838e-5 22.7038517828939 21.890106759855975 -77.754056995765 -120.37888555331863 -39.59002580954891 23.25692746583197 85.29524302257101 67.28870776633867 18.393287692553372 -27.584622321655473 -40.35330860289098 -22.703845133402734 5.018967983446711e-7 10.50842778242562 -37.59082269485921 -77.75405314183298 -53.82882376152411 -5.470417400321962 41.292896926825726 56.15685006196328 33.38603362612524 -0.9565451086769133 -23.409480403744638 -21.890104768018368 -10.508427395596222 0.0
</DataArray>
        <DataArray type="Float64" Name="Mode_17_w" NumberOfComponents="1" format="ascii">
 0.15814569427564704 4.1444990277262215e-9 -0.15814573687860783 -6.53336186200979e-9 0.010207841520592224 0.012561656255275628 0.0019532946398009322 -0.001172893979772641 -0.023051891333320102 0.001826249497360759 -0.010937461402229289 0.02341251589378274 -0.00745300556977764 0.012871689639992712 -0.00933107369782107 0.0003571577468920937 -0.0003571642809769823 0.009331091245882307 -0.012871722381747223 0.007453046089084935 -0.023412539486167328 0.010937464655331646 -0.0018262425843971236 0.023051884518466084 0.0011728920159557634 -0.0019532865734243755 -0.012561663642418841 -0.010207842490642298 -0.010207845729284189 -0.012561655068189142 -0.001953293320452275 0.0011728917160272465 0.023051885884909164 -0.0018262467982904569 0.010937467343621457 -0.023412544352691137 0.007453055943547287 -0.012871742507952387 0.009331106959333521 -0.0003571708651787728 0.00035715453834506995 -0.00933107724756866 0.012871701773497553 -0.007453021175936456 0.02341253492493229 -0.010937472581459644 0.0018262475088624654 -0.023051880796308676 -0.0011728941433428207 0.001953289768181249 0.01256165775071089 0.010207840761387702 61.483447638913546 63.105467217605856 22.20132279829956 -31.97887273304167 -67.32812785298589 -48.35331119909126 -9.358067643640473 35.70485047413688 37.09109441937332 30.293499995723383 7.529675824050696 -3.5926985974503782e-6 63.10546707921949 100.82862933696802 46.87348000499716 -16.51284823108462 -88.23443459529278 -74.70906922643051 -32.24645567782213 45.736243963843606 57.4200632796434 32.054556876397946 -7.090377170696852e-6 -7.529672506058831 22.201321954111755 46.873475064024575 14.78901067676437 -9.249489801117043 -42.380826114242666 -20.44658371059775 3.0220001965390835 25.4257967212864 37.154508430595314 5.8739922436096875e-6 -32.05454638175274 -30.29351438899198 -31.978886459919508 -16.51285091055161 -9.249500577807309 7.33472949796083 7.374094674006097 5.924927433819492 38.83011745882051 19.52188097333371 9.656772780631555e-6 -37.15456900566869 -57.4200453058452 -37.0910770876389 -67.32815223326254 -88.23445242830962 -42.38080386305782 7.374084223218791 75.41310248526234 47.68166465439603 27.411315847239464 -6.020019804411426e-5 -19.52186042471145 -25.42579212771599 -45.73629109016275 -35.70484783202084 -48.353324110368426 -74.70909636570502 -20.446576948171057 5.924964189803634 47.6816807418199 45.33117854998547 1.1749174145587786e-5 -27.41129770056733 -38.83018154971195 -3.021955007748223 32.24646121667507 9.35805808384969 -9.358075459647917 -32.24645287645078 3.021999799953642 38.83011396080353 27.411335512381587 -3.214159629470883e-6 -45.33128944518952 -47.68163456555629 -5.924915196669263 20.44657196492734 74.70909315681988 48.35330907707289 35.70483087405651 45.736227269175394 25.425819178183207 19.521883635521505 -6.739805910208132e-5 -27.41129758028089 -47.68165878363152 -75.41312125273797 -7.374047557388648 42.380835454488384 88.23443940495856 67.32812856341175 37.09108726778404 57.42004178225979 37.15449381996114 1.9828216097182284e-5 -19.521882332029538 -38.83020397196223 -5.924924803579123 -7.37406745845749 -7.334719360510939 9.249500229447113 16.51283047097103 31.978863224597603 30.293489653449928 32.05456671061994 8.046112389146803e-6 -37.154564350064774 -25.425778212970677 -3.021979056423548 20.446565631390783 42.38083037855079 9.249498450774858 -14.789026314161463 -46.873497252284686 -22.20133943142469 7.529675022755474 -2.5036659754683637e-6 -32.05451337854831 -57.420031184196674 -45.73626065980969 32.24647320877733 74.70910199761299 88.23444617223842 16.512845068168225 -46.87350286381627 -100.82865415092387 -63.105483801532536 1.4125924837619915e-6 -7.52966718879588 -30.293489066305494 -37.091059149196546 -35.704830331893234 9.35807464344235 48.3533262793753 67.32814265000124 31.97887624723311 -22.20132973083044 -63.10548595585696 -61.483464162595624
</DataArray>
        <DataArray type="Float64" Name="Mode_18_w" NumberOfComponents="1" format="ascii">
 8.631161181782069e-8 8.722026334866408e-8 -3.2057822450730615e-10 6.73619963157649e-8 -0.008363373563921628 0.0034148497667545238 0.0020264711727300024 0.0069135277477577715 0.006883846239395002 9.466382417845725e-5 -0.031188892541393776 0.041308460025710356 -0.0021487594892964216 -0.017985859581475798 0.01767280069885573 -0.010899943579976819 0.010899863114224582 -0.01767263730143352 0.017985698245149808 0.002148894567394429 -0.041308567852007934 0.031188915508264643 -9.461589982238825e-5 -0.006883876307232011 -0.006913522916903721 -0.0020264531788300177 -0.0034148590275935612 0.008363379689847752 -0.008363378254993987 0.003414853033575514 0.00202644432117029 0.006913531630479711 0.00688392511879392 9.451850927936094e-5 -0.031188838971495454 0.0413086967428541 -0.0021491848997925705 -0.01798551980084697 0.017672633602472766 -0.01089988829786223 0.010899858851041316 -0.017672587194144468 0.017985519157936867 0.0021491338258985892 -0.04130862259696904 0.03118876495691724 -9.446461260586161e-5 -0.006883904352719069 -0.006913559040701338 -0.002026446766226581 -0.0034148479992936794 0.008363385029544907 3.353051532352831e-5 -20.04669200084111 -40.07647431820789 -51.252389175792516 -42.865234069448405 -17.07552429313322 -14.723711297462746 -63.94870473192294 -43.33043179128224 -10.881342418678162 -13.265539780557884 2.2158653100330514e-5 20.046770441440806 4.1486224964872444e-5 -37.61876567537812 -50.092516596205776 -39.230539041573756 -43.458350788121585 24.011891361228603 -1.9350106367394295 -100.94602335338858 -23.48792195880332 4.493952095447635e-5 13.265630770763993 40.076534061144756 37.61882247988798 -6.723123409576517e-5 -28.82416711098481 50.67614783094769 65.30119791910485 -48.25201416707482 63.04938488437582 8.524226767670037 3.505166829744771e-6 23.487894738929363 10.881394354948304 51.25240382660607 50.09254715573919 28.824185748757095 -0.0003472227448083934 -55.9148638195095 165.3089857870007 96.55003981751038 -28.575205967053474 -0.00011823746793509902 -8.52426707552332 100.94605379364087 43.33045612838055 42.86531801046204 39.230375491699675 -50.67592118385002 55.91512860549979 -0.0005162964776461107 -61.90737902085114 99.79805557501153 4.945741409923458e-6 28.57509494469918 -63.04944825531868 1.935050196576266 63.94877983713158 17.07570307900376 43.45849830431083 -65.30188706869761 -165.308433016732 61.90782647177903 -0.00017532301229456108 2.7698272210533504e-5 -99.79802271739247 -96.55009023124923 48.25205498414613 -24.011771633099684 14.72376580593076 14.723642373582456 -24.01143739788324 48.252215571979185 -96.55077575251984 -99.79774779866146 9.690832788020113e-5 0.0002774080225496677 61.90742561398816 -165.3089472470715 -65.30127399732984 43.45854432201089 17.07564877477445 63.94866853052125 1.9345974495563072 -63.04900018042533 28.575321815318812 2.1711015819863048e-5 99.79773943177673 -61.90773257350888 0.0002977417158938431 55.91488504305051 -50.67621218971219 39.23052616119918 42.86534171649212 43.330663900594956 100.94608673358336 -8.524562905750637 -7.508771504490825e-5 -28.575191489854888 96.55068378034538 165.30850045630604 -55.91522576796679 9.751137217317927e-5 28.824203470096595 50.092481596370455 51.25241968894689 10.881330319171518 23.488056225333306 4.191589033861391e-5 8.524409339701679 63.048979105378756 -48.252169461966844 65.30174360706809 50.676017675634355 -28.82433701293511 -2.924376714342332e-6 37.61877773056829 40.07649093494762 13.265650767506484 2.857537549317512e-5 -23.488099811961387 -100.94605689467916 -1.9347303122968136 24.011605294684255 -43.45847827929693 -39.230317696930555 -50.092457839074925 -37.61878860595362 1.4782620220313656e-7 20.0467246658023 2.589471611166826e-5 -13.265520000451856 -10.88133206752533 -43.330627594779045 -63.94870858068553 -14.72361036438287 -17.07560713837853 -42.86525960395351 -51.25234152754808 -40.07646270476553 -20.04672238429064 0.0
</DataArray>
        <DataArray type="Float64" Name="Mode_19_w" NumberOfComponents="1" format="ascii">
 0.07733626694961097 0.05821031866283506 0.07733626074438582 0.05821032603635354 0.0060504210708335945 0.0023119698947518625 -0.001802249170972391 -0.0019954546447670477 -0.0003651368122922227 0.01598306043416426 -0.0013376505770706759 -0.004646966967553263 0.005187874498214062 -0.014059896924429887 0.025077614760468825 -0.014169394897192971 -0.014169313607656038 0.025077369610622437 -0.014059494688414659 0.005187551564667159 -0.004646982017328729 -0.0013373821216256189 0.015982896494615966 -0.00036514367895630314 -0.0019953670133591984 -0.001802267818315959 0.0023119839778819825 0.006050390703717258 0.006050420277150658 0.002311971563912984 -0.0018022663071049151 -0.001995433681087002 -0.0003650842613053125 0.015982883895064706 -0.0013374957114804665 -0.00464684296225505 0.0051875178307157245 -0.014059605545158714 0.025077472146165403 -0.01416933867061783 -0.01416933191588864 0.02507747895665376 -0.014059800492715978 0.005187964613602749 -0.004647168261593349 -0.0013374990638495845 0.015983086012874823 -0.0003652294207890979 -0.001995372354176483 -0.0018022581882757404 0.00231197905351926 0.0060503965512764815 30.230980892517316 32.72340093164635 27.785772582389598 32.02090828005401 49.28889618510288 62.878390373895435 44.27650136178442 25.216068695429556 20.533222998848196 22.858223347897084 40.10233692307335 19.07510922895813 32.72334037142888 38.830111287241934 12.796547516834107 9.866918834611235 26.31969996691269 63.40960892139749 66.50700166770818 9.264863775328681 5.5943793840235045 2.828862894058004 43.33144418137058 40.10233690927281 27.785638069882744 12.796470971057555 -37.34222553385275 -54.01337171679381 -20.76276727243064 -17.157244250929644 9.970394059983521 -32.48257577333053 -52.80515689935331 -20.3062503134352 2.8285281590123654 22.858092627876577 32.02073515650167 9.866679218793541 -54.013275972395725 -112.60690266356197 -54.22883129441158 -2.32027427967892 -18.829690233698155 -41.59334958495682 -93.25998723859348 -52.80502386053675 5.594410865095282 20.5328405807136 49.28879061410884 26.319573772918467 -20.7629901989649 -54.228177641566525 -57.255096592284715 28.717403084126317 23.29674724193389 -6.832868637121728 -41.59302579067308 -32.48324152232625 9.264996119702543 25.216085175219135 62.87818455534081 63.4097653803955 -17.15717048377971 -2.320556116898934 28.718225890818424 86.87302238772403 82.91382622174817 23.296320796339593 -18.828735007198667 9.970887542660341 66.50638376432862 44.276427525891854 44.27627393578711 66.5067023946248 9.971142187848681 -18.829520277795975 23.296592988395496 82.91379477265006 86.87357900960163 28.717778078337265 -2.3210096806884524 -17.15644152629134 63.409701078183595 62.87811721334374 25.216041205540826 9.26454277709663 -32.4828179907946 -41.59290783336813 -6.832787398131114 23.29639012304668 28.717068715840988 -57.254142075257036 -54.228623134943156 -20.763238267671287 26.31977971926772 49.288780736413635 20.533078039254672 5.594485625624512 -52.805216343483224 -93.26003762154383 -41.593445668277475 -18.828880203630884 -2.320911001623605 -54.22912795416792 -112.60641513633665 -54.013412565439914 9.866668929026572 32.02077179626005 22.8580672020919 2.828670745663648 -20.306271774069437 -52.80482015984349 -32.483089621115205 9.970294820985234 -17.15657461556813 -20.76311390599112 -54.01349602559536 -37.34219796171267 12.79644592726701 27.78564172791885 40.10235706507966 43.33149220726679 2.8285985858707043 5.5943202787210184 9.265266433419441 66.50662404025924 63.4096038216126 26.319923725590094 9.866910911953799 12.79654679849575 38.83009822882175 32.72333573203455 19.07510219443422 40.102344281315915 22.85825508143801 20.53295300350444 25.216116596790435 44.276616711774224 62.878299042420096 49.288911427384285 32.02096172463099 27.785792992161763 32.72340747335346 30.230977902948855
</DataArray>
        <DataArray type="Float64" Name="Mode_20_w" NumberOfComponents="1" format="ascii">
 -0.017407508786464777 1.4040964792569265e-7 0.017407851065460923 5.2588374592099635e-8 -0.0015531859884362926 -5.215764184238863e-5 -0.004626923413039307 0.005487847214805896 0.01679834494059827 -0.04811663369542405 0.03490943465277759 0.04032024982837861 -0.0958214249638817 0.07543571967615985 -0.03153787930773083 0.008388552560965006 -0.008388625107504934 0.031538007724533364 -0.07543579708863997 0.095821452033505 -0.040320251474223155 -0.03490946259604819 0.048116728933809125 -0.016798370202566113 -0.005487863583883922 0.004626919520335214 5.2161414466962464e-5 0.001553222361076722 0.0015531095931763128 5.220440932015376e-5 0.004626923076719186 -0.005487573799214184 -0.016798679460289217 0.04811665907248983 -0.03490857018582152 -0.040321390532238634 0.09582198910809213 -0.07543544628421273 0.03153747561118147 -0.0083884032503751 0.00838834526100105 -0.03153736499369697 0.07543533513029088 -0.09582192942578424 0.04032137783136286 0.034908552131028885 -0.048116584300364564 0.016798668725367394 0.00548756748623499 -0.004626926305078885 -5.218622771361233e-5 -0.0015530920368008912 -6.840415962210686 -7.181069260450324 -2.2895124639945115 9.340793396069234 -2.430404652545168 -23.016787767527788 36.11262796646185 18.63927544879224 -55.93703328104722 12.839478404771834 0.8586524282311743 1.470866241809113e-5 -7.180831768859525 -8.512388491462108 -7.427072021843534 -4.9449564140816795 53.02053502851705 -18.857303604629408 -91.90407133110851 112.3892061376774 -5.333596924812169 -46.73151569479999 1.6193980963805793e-5 -0.8585658971678877 -2.2889966106377195 -7.426730569413687 19.11944718492998 -26.112700921474794 -67.20777129471274 172.54608818746155 -48.43381627963457 -122.78306042362058 73.01680973963241 7.1590904705277135e-6 46.73147366513882 -12.839469693365194 9.341387980032838 -4.944056011198117 -26.11329221450742 132.25684886521935 -89.12048581050233 -146.24473359536356 197.55895113767855 -32.28062278841126 -0.0001825988579099151 -73.01702057767135 5.333695022249113 55.93711473255673 -2.430111677583886 53.02105013821724 -67.2066529402355 -89.12336638598705 247.5196234971938 -105.4140610529907 -83.42299534081656 -5.298933552544674e-5 32.280554640707024 122.78293846369614 -112.38916681148638 -18.639154481252074 -23.01610036224509 -18.858210845766205 172.54595288369265 -146.24325468751383 -105.41738586762577 135.9731535549648 0.00018699611497882194 83.42303867074214 -197.55909693163707 48.43388226304611 91.90436570284307 -36.112445794109966 36.113505545738406 -91.90282508667948 -48.43691061379001 197.5584541535328 -83.42221568222777 0.00016520216725667087 -135.9728428700307 105.41416984388401 146.24470016419465 -172.5462655417359 18.85752897021263 23.017045627144892 18.63912258535303 112.39041635517742 -122.78187318525347 -32.282530462017185 -1.9769874243802246e-5 83.42235398005315 105.4175701791183 -247.51988224997544 89.12028036439679 67.2077183126176 -53.02046591920518 2.430602787291564 -55.93649444121782 -5.334340916715247 73.01729406450512 -0.00021241145675481515 32.2823493760648 -197.55855689420287 146.24329906146178 89.12322725632905 -132.25735644714558 26.112504880208732 4.945024710630239 -9.340651634556496 12.840180967559377 -46.73084695181974 -2.9378906481127298e-5 -73.01753012183109 122.78173982713524 48.43698901401283 -172.54605631921962 67.20663024064753 26.113106385882165 -19.11959466716053 7.427171734148749 2.2896537711503635 0.8586386256393523 0.00010194686705729956 46.73086037747044 5.334409782645796 -112.39038648022614 91.90312431640021 18.858441956478387 -53.02102121599293 4.944067379330331 7.426759825306854 8.512567297049118 7.181231106061795 4.5630533972906326e-5 -0.858443492334884 -12.840071568610151 55.936605925414526 -18.63898914671047 -36.11331858404179 23.016357514034127 2.4302682378401546 -9.341309525310999 2.2890806120825573 7.180956514175409 6.840549832909237
</DataArray>
      </PointData>
    </Piece>
  </UnstructuredGrid>
</VTKFile>
