<?xml version="1.0" encoding="utf-8"?>
<VTKFile type="UnstructuredGrid" version="1.0" byte_order="LittleEndian" header_type="UInt64">
  <UnstructuredGrid>
    <Piece NumberOfPoints="100" NumberOfCells="81">
      <Points>
        <DataArray type="Float64" Name="Points" NumberOfComponents="3" format="ascii">
 0.0 0.0 0.0 1.0 0.0 0.0 1.0 1.0 0.0 0.0 1.0 0.0 0.1111111111109082 0.0 0.0 0.2222222222217143 0.0 0.0 0.333333333332501 0.0 0.0 0.4444444444432878 0.0 0.0 0.5555555555543833 0.0 0.0 0.6666666666657874 0.0 0.0 0.7777777777771916 0.0 0.0 0.8888888888885959 0.0 0.0 1.0 0.1111111111109082 0.0 1.0 0.2222222222217143 0.0 1.0 0.333333333332501 0.0 1.0 0.4444444444432878 0.0 1.0 0.5555555555543833 0.0 1.0 0.6666666666657874 0.0 1.0 0.7777777777771916 0.0 1.0 0.8888888888885959 0.0 0.8888888888884262 1.0 0.0 0.777777777777932 1.0 0.0 0.6666666666675918 1.0 0.0 0.5555555555572513 1.0 0.0 0.4444444444462943 1.0 0.0 0.3333333333347207 1.0 0.0 0.2222222222231471 1.0 0.0 0.1111111111115736 1.0 0.0 0.0 0.8888888888884262 0.0 0.0 0.777777777777932 0.0 0.0 0.6666666666675918 0.0 0.0 0.5555555555572513 0.0 0.0 0.4444444444462943 0.0 0.0 0.3333333333347207 0.0 0.0 0.2222222222231471 0.0 0.0 0.1111111111115736 0.0 0.1111111111109822 0.1111111111114997 0.0 0.1111111111110561 0.2222222222229879 0.0 0.11111111111113 0.3333333333344741 0.0 0.1111111111112039 0.4444444444459603 0.0 0.1111111111112779 0.5555555555569326 0.0 0.1111111111113518 0.6666666666673913 0.0 0.1111111111114257 0.7777777777778495 0.0 0.1111111111114996 0.888888888888445 0.0 0.2222222222218735 0.1111111111114257 0.0 0.2222222222220326 0.2222222222228287 0.0 0.2222222222221919 0.3333333333342274 0.0 0.2222222222223511 0.4444444444456261 0.0 0.2222222222225103 0.5555555555566142 0.0 0.2222222222226695 0.6666666666671908 0.0 0.2222222222228287 0.7777777777777675 0.0 0.2222222222229879 0.8888888888884641 0.0 0.3333333333327478 0.1111111111113518 0.0 0.3333333333329944 0.2222222222226695 0.0 0.3333333333332409 0.3333333333339809 0.0 0.3333333333334875 0.4444444444452922 0.0 0.3333333333337342 0.5555555555562953 0.0 0.3333333333339808 0.6666666666669903 0.0 0.3333333333342274 0.7777777777776853 0.0 0.3333333333344741 0.8888888888884827 0.0 0.4444444444436218 0.1111111111112779 0.0 0.4444444444439559 0.2222222222225103 0.0 0.44444444444429 0.3333333333337342 0.0 0.4444444444446241 0.4444444444449581 0.0 0.444444444444958 0.5555555555559767 0.0 0.4444444444452922 0.66666666666679 0.0 0.4444444444456261 0.7777777777776029 0.0 0.4444444444459602 0.8888888888885016 0.0 0.5555555555547019 0.1111111111112039 0.0 0.5555555555550206 0.2222222222223511 0.0 0.5555555555553392 0.3333333333334875 0.0 0.555555555555658 0.4444444444446241 0.0 0.5555555555559767 0.555555555555658 0.0 0.5555555555562953 0.6666666666665892 0.0 0.555555555556614 0.7777777777775206 0.0 0.5555555555569326 0.8888888888885205 0.0 0.666666666665988 0.11111111111113 0.0 0.6666666666661885 0.2222222222221919 0.0 0.666666666666389 0.3333333333332409 0.0 0.6666666666665892 0.44444444444429 0.0 0.66666666666679 0.5555555555553392 0.0 0.6666666666669903 0.666666666666389 0.0 0.666666666667191 0.7777777777774384 0.0 0.6666666666673913 0.8888888888885393 0.0 0.7777777777772737 0.1111111111110561 0.0 0.777777777777356 0.2222222222220327 0.0 0.7777777777774384 0.3333333333329944 0.0 0.7777777777775208 0.4444444444439559 0.0 0.7777777777776029 0.5555555555550208 0.0 0.7777777777776851 0.6666666666661882 0.0 0.7777777777777675 0.7777777777773562 0.0 0.7777777777778496 0.8888888888885582 0.0 0.8888888888885771 0.1111111111109822 0.0 0.8888888888885582 0.2222222222218735 0.0 0.8888888888885391 0.3333333333327477 0.0 0.8888888888885205 0.444444444443622 0.0 0.8888888888885016 0.5555555555547019 0.0 0.8888888888884827 0.666666666665988 0.0 0.8888888888884638 0.7777777777772739 0.0 0.888888888888445 0.8888888888885769 0.0
</DataArray>
      </Points>
      <Cells>
        <DataArray type="Int64" Name="connectivity" NumberOfComponents="1" format="ascii">
 0 4 36 35 35 36 37 34 34 37 38 33 33 38 39 32 32 39 40 31 31 40 41 30 30 41 42 29 29 42 43 28 28 43 27 3 4 5 44 36 36 44 45 37 37 45 46 38 38 46 47 39 39 47 48 40 40 48 49 41 41 49 50 42 42 50 51 43 43 51 26 27 5 6 52 44 44 52 53 45 45 53 54 46 46 54 55 47 47 55 56 48 48 56 57 49 49 57 58 50 50 58 59 51 51 59 25 26 6 7 60 52 52 60 61 53 53 61 62 54 54 62 63 55 55 63 64 56 56 64 65 57 57 65 66 58 58 66 67 59 59 67 24 25 7 8 68 60 60 68 69 61 61 69 70 62 62 70 71 63 63 71 72 64 64 72 73 65 65 73 74 66 66 74 75 67 67 75 23 24 8 9 76 68 68 76 77 69 69 77 78 70 70 78 79 71 71 79 80 72 72 80 81 73 73 81 82 74 74 82 83 75 75 83 22 23 9 10 84 76 76 84 85 77 77 85 86 78 78 86 87 79 79 87 88 80 80 88 89 81 81 89 90 82 82 90 91 83 83 91 21 22 10 11 92 84 84 92 93 85 85 93 94 86 86 94 95 87 87 95 96 88 88 96 97 89 89 97 98 90 90 98 99 91 91 99 20 21 11 1 12 92 92 12 13 93 93 13 14 94 94 14 15 95 95 15 16 96 96 16 17 97 97 17 18 98 98 18 19 99 99 19 2 20
</DataArray>
        <DataArray type="Int64" Name="offsets" NumberOfComponents="1" format="ascii">
 4 8 12 16 20 24 28 32 36 40 44 48 52 56 60 64 68 72 76 80 84 88 92 96 100 104 108 112 116 120 124 128 132 136 140 144 148 152 156 160 164 168 172 176 180 184 188 192 196 200 204 208 212 216 220 224 228 232 236 240 244 248 252 256 260 264 268 272 276 280 284 288 292 296 300 304 308 312 316 320 324
</DataArray>
        <DataArray type="UInt8" Name="types" NumberOfComponents="1" format="ascii">
 9 9 9 9 9 9 9 9 9 9 9 9 9 9 9 9 9 9 9 9 9 9 9 9 9 9 9 9 9 9 9 9 9 9 9 9 9 9 9 9 9 9 9 9 9 9 9 9 9 9 9 9 9 9 9 9 9 9 9 9 9 9 9 9 9 9 9 9 9 9 9 9 9 9 9 9 9 9 9 9 9
</DataArray>
      </Cells>
      <PointData>
        <DataArray type="Float64" Name="Mode_1_w" NumberOfComponents="1" format="ascii">
 0.05483754564230251 0.03461680153276013 0.05483675501247641 0.034616960901816256 -0.007925222980192966 0.0016510509412041182 0.0005865154994318971 -0.0004924398776098769 0.0014590603520679988 -0.0014309863287668542 0.0032859996869232322 -0.007098158844836078 -0.007098145149276357 0.003285978086984289 -0.0014309432001783189 0.0014590151084397066 -0.0004924264600995123 0.0005865142237199947 0.0016510040019379626 -0.007925092761094519 -0.0079250928096587 0.001651000156911803 0.0005865404470398536 -0.0004924815425858586 0.001459072777872249 -0.001430976033069887 0.00328598774472271 -0.007098158579567974 -0.0070981551077599955 0.0032859566362396344 -0.0014309311711176364 0.0014590222872029764 -0.0004924263617950488 0.0005865154108633168 0.0016510564842071877 -0.007925228719349874 9.54937864088986 14.883612816472636 20.43679005891008 21.872598111310367 22.095056103522975 18.386862174210734 14.005812120235012 5.799516670789042 14.883590044241052 26.77646004754455 36.6120746796656 40.89581763833283 41.826565881592934 35.90074320489106 28.251404815871442 14.005778916143615 20.436759572139987 36.612086037473865 49.59346050025004 55.05485561431027 55.60976726854024 47.72309118827367 35.90063503002727 18.386723306604942 21.872581727033154 40.89576196815412 55.05488039491133 62.60522397044896 63.00601453294577 55.60953143090426 41.8262486863036 22.094874676326928 22.095048444195296 41.82656957587154 55.60971406936983 63.00597466446784 62.60499406824512 55.05454178573233 40.895308140602495 21.87229050527605 18.38679560524148 35.9006730040647 47.72298803925099 55.60958913959284 55.054358599310255 49.593012722467144 36.611612663658704 20.43648510423171 14.005807384559624 28.251398164923522 35.900501229227245 41.82628443930603 40.89536584291399 36.61158603492941 26.776083902786603 14.883361428952886 5.799487125233228 14.005768183228977 18.386710640234483 22.09482154303608 21.87232325811684 20.43648628570035 14.883353642474539 9.549242906478568
</DataArray>
        <DataArray type="Float64" Name="Mode_2_w" NumberOfComponents="1" format="ascii">
 2.489191391743008e-7 0.09395283072865077 4.1531675007567427e-10 -0.09395332645636409 -0.0008066590515894666 -0.0002683535919884672 -0.0006305338039773525 0.0003136794364362505 0.0017738998476820402 -0.0015066965507822946 0.008614872805434055 -0.018443139869308588 -0.018443141236350945 0.008614875591112108 -0.0015067023808965853 0.0017739261516386087 0.0003136427827131326 -0.0006305041229891019 -0.00026839449361596785 -0.0008066040475340246 0.0008066017580509178 0.0002684063869132105 0.0006304936950829522 -0.0003136508890695255 -0.001773923848890129 0.0015067333333940093 -0.008614937142389116 0.018443229510222026 0.018443217934396357 -0.008614921737009435 0.0015067244546323618 -0.0017739291400882837 -0.0003136240415937208 0.0006304735470938185 0.0002684084448754971 0.0008065804767792656 4.3157362993438984e-5 -4.684609947146157 -13.800233191819041 -26.47482771433477 -36.59948856723172 -40.15331010966584 -35.022885603403886 -15.82602347539655 4.684707880999259 0.00011786049198062227 -13.623948188540066 -36.37129423134796 -58.232039603986294 -66.5278029520052 -64.5261774018403 -35.022916111407014 13.800274820077645 13.624067542936274 0.00014666741763562393 -25.527358351752866 -56.19108496489879 -69.6827056008948 -66.5278793764543 -40.15333948135633 26.47491824428666 36.37135054811714 25.527492191756995 9.679349903801953e-5 -32.36152306413094 -56.19111593978265 -58.232167982935955 -36.59954244629559 36.59951680785714 58.23211359866495 56.19113949527285 32.36164135275153 4.7353950743029184e-5 -25.527364561420267 -36.37132605690591 -26.474899324575393 40.15327885256897 66.52778215261883 69.68259254675188 56.191123701319206 25.527415762762804 2.4324680675751643e-5 -13.623904075159635 -13.800245831217131 35.02278164906744 64.52611683129983 66.52778354015301 58.23204740616369 36.37126358271337 13.623907998038607 1.247163830901797e-5 -4.684618279114734 15.825938168797649 35.022784131658725 40.1532790088811 36.599497197215285 26.47482394286302 13.800184066450905 4.684606433556698 0.0
</DataArray>
        <DataArray type="Float64" Name="Mode_3_w" NumberOfComponents="1" format="ascii">
 0.1531261454884732 -6.538685109975991e-7 -0.1531256937715818 -4.2227838466241127e-7 -0.021652932765208084 0.006113968723300944 0.0009695461795944957 0.00014922411051730813 0.0004889193741769586 -0.0006406342301077137 -0.0008287456843471392 -3.131563721058573e-5 3.1537192983311616e-5 0.0008286515212246289 0.0006406610315389925 -0.0004889770971577991 -0.00014917594098394922 -0.000969571563207727 -0.0061139386576483535 0.02165288227318303 0.02165288455562277 -0.006113949817257692 -0.0009695496868884571 -0.00014920759983563388 -0.0004889416814226212 0.0006406448117476383 0.0008286585151799181 3.1509278665049125e-5 -3.132915451875981e-5 -0.0008287786312553409 -0.0006405746170222719 0.0004888746403933959 0.00014923348901104547 0.0009695615013242467 0.006113953070885691 -0.021652926264414996 26.732644836557498 37.32657778569523 41.820416615143245 33.40672700065511 21.900490521180163 9.728153371603973 2.0308458240470433 -7.051426696363257e-5 37.326577713609844 62.79621366404669 68.83588339289295 58.75037269522144 35.82335798362136 15.326310569077178 -0.00025044310819817263 -2.031157284420513 41.82037337850289 68.83590952457308 69.74103464140121 54.129975588024045 23.4860988105346 -0.0002042093024724639 -15.326770252400365 -9.728432012452918 33.406698010893614 58.75031142373338 54.129987897323716 34.9693395690728 -0.00020955458434047085 -23.486508727914998 -35.823762379969246 -21.900765929701805 21.90047598385192 35.8233492345858 23.486045835187376 -0.00025686920631792564 -34.96960244228939 -54.1301953963163 -58.750487133098275 -33.40684244588023 9.728058497181603 15.326210995246566 -0.0003107302959385429 -23.48652891312404 -54.13033364992675 -69.74115597956903 -68.83594257542605 -41.82040417754171 2.0308083678830786 -0.0003529015331530339 -15.326925268938181 -35.82381456673483 -58.75051769812891 -68.83595063729148 -62.79610510843734 -37.32653153969955 -0.0001119776252327804 -2.031202529284968 -9.728494634970039 -21.900850003811055 -33.406866435977605 -41.820431086278866 -37.32653612289866 -26.73256393632411
</DataArray>
        <DataArray type="Float64" Name="Mode_4_w" NumberOfComponents="1" format="ascii">
 -0.19156777306711975 0.13100888632071356 -0.19156863453550588 0.13100882908423736 0.026471341468684215 -0.00939960328459844 -0.000444141180586214 -0.0019477878023056105 0.004273850041481836 -0.0034853747044551603 0.015045530101582908 -0.026624262652742432 -0.026624251644550227 0.015045509120401685 -0.0034853360111742546 0.004273813315238832 -0.0019477587946792332 -0.00044416389232768957 -0.009399636165995812 0.026471465073154583 0.02647146883713339 -0.009399637938936252 -0.0004441704754118911 -0.001947739545333736 0.0042737881954698345 -0.003485330711951459 0.015045518129845094 -0.02662425263441692 -0.02662427386878767 0.015045556898832706 -0.003485380253779986 0.004273826446823172 -0.0019477600518807033 -0.0004441615570675344 -0.00939960615645774 0.026471352695408797 -33.52979852575479 -41.42276422149429 -33.33183090543498 -6.501768695424177 24.20098217268571 42.86678191642509 47.48763581666971 21.988031950791093 -41.42271827084468 -68.30930319424698 -57.62016630989312 -28.08259834181758 28.37725555086509 59.05581763722003 80.80870048959467 47.487597019843825 -33.3317610091602 -57.620064265276646 -44.26726107653827 -24.498902770372634 21.499395654924125 46.407439510270244 59.055776759384045 42.86676033135195 -6.501726541480049 -28.08251846917299 -24.498790121468012 -21.008448358545333 2.1383669932351355 21.499277038418498 28.37708033046682 24.20086805585911 24.20105737778328 28.377331269561086 21.499432532532143 2.1384975769040877 -21.00855505661928 -24.49909069042879 -28.082814463347166 -6.501911902996458 42.866821972773714 59.05595936601308 46.4075081570907 21.499310883877836 -24.499055564452387 -44.26759076756293 -57.620470337431065 -33.33202230804831 47.48761835575268 80.80877229872937 59.05588726091139 28.377167393667293 -28.082788153195498 -57.62043768632917 -68.30963598414878 -41.42295291166962 21.988043226135595 47.48759694375788 42.866794963112724 24.200938320259226 -6.501883132541655 -33.33199891146528 -41.42293721985349 -33.529949155856535
</DataArray>
        <DataArray type="Float64" Name="Mode_5_w" NumberOfComponents="1" format="ascii">
 1.061748010729309e-8 2.0872777527963942e-7 8.418913585487028e-10 -1.7497085818151387e-7 0.003930954800347249 -0.0008203831446132591 0.0008129355844597123 -0.0062782043164272446 -0.0003126365534169218 -0.0019837246024161635 0.003539050291801298 0.00016952367278642033 -0.00016963812587658732 -0.003538947489176625 0.0019836739314405345 0.0003126474023127017 0.006278203985503086 -0.0008129365782623939 0.0008203561740454229 -0.003930930778826541 0.003930926845921309 -0.0008203391915447627 0.0008128907451385195 -0.006278154912332005 -0.0003126459270530932 -0.001983712636383246 0.003538981495534156 0.0001696182694284038 -0.000169542390004109 -0.0035390258686121404 0.0019836991892794075 0.00031265131659248855 0.006278217140110777 -0.000812953495047363 0.0008203890861468732 -0.003930957786968997 1.8640145228970926e-6 18.356944807272495 42.71814571604371 61.21590733947886 52.85047111937657 31.36821709804338 7.904984702773423 -2.910215359830765e-5 -18.356946569677252 5.919212011353009e-6 38.59396225905762 77.48618565536358 74.16689357865535 39.32603694160235 -0.00010684678300966511 -7.905121284808184 -42.718147128083984 -38.593968493154 4.102280670992121e-5 37.13013641905209 36.837772332978034 2.4859018653364142e-5 -39.32600291200496 -31.368296625997793 -61.21585565807768 -77.486222187415 -37.1301833911919 1.4352816582351181e-6 2.5384518615196435e-5 -36.83795108374563 -74.16672255185274 -52.85037680623675 -52.85041590627619 -74.16678056769457 -36.837807736205235 -0.0001284273756034332 -4.9773294542044095e-6 -37.13015181021275 -77.48618212822443 -61.21573469849334 -31.36820336260687 -39.32602476487033 4.845626535924811e-5 36.83789115338809 37.130022769432784 5.991981861806409e-5 -38.593921028508554 -42.718083463511206 -7.904956472235795 0.00010320627269872923 39.32596829759499 74.16685151316102 77.48609654081324 38.593878212888946 1.5667907319442025e-5 -18.35687743447049 3.35655887065553e-5 7.905137239905495 31.368265913919345 52.85041604665211 61.21581962559536 42.71806755404805 18.35686818718447 0.0
</DataArray>
        <DataArray type="Float64" Name="Mode_6_w" NumberOfComponents="1" format="ascii">
 0.2364417504491039 0.11746612794476055 0.23644106145179744 0.11746616038880822 -0.031646817903964855 0.011629516600603804 -0.0018384818547674004 -0.0013898787672146755 -0.0003449269015399456 -0.0020947207790438342 0.011880548713740226 -0.022217611896367312 -0.022217603596369838 0.011880516958668581 -0.0020946676250048805 -0.0003449616882888242 -0.00138984905263241 -0.001838507016899522 0.011629500521740431 -0.03164673309870579 -0.03164673454076768 0.011629496731814551 -0.0018384796015138267 -0.0013899002684200116 -0.0003449037889988184 -0.002094711100802403 0.011880539002337476 -0.022217613406561882 -0.02221761123982735 0.011880532388261675 -0.0020946728460133415 -0.00034498665662007004 -0.0013898367699442967 -0.0018385126088201632 0.011629536811094035 -0.03164682340424818 41.49691381924203 47.83635770990761 38.52605498787092 25.785409765052044 25.74284146099307 35.17101355082142 38.97385465026918 19.88771867041579 47.836360904187906 69.55537693869536 42.901149170562206 17.686708001383007 11.713598485380142 33.72656501462396 58.14546733935149 38.97386193813165 38.52609467603814 42.901255196871844 2.159372749200346 -37.535954248133415 -37.02427408591701 -7.929449777640006 33.726683312963885 35.17105826869781 25.78544462454662 17.68674473401874 -37.53586001495398 -89.42180101430215 -86.6957189483746 -37.02429282447682 11.71363311746614 25.742952787952806 25.7429202932703 11.713719994879574 -37.024271669164335 -86.69567713788015 -89.42172626237804 -37.53571682817674 17.686665666600963 25.785371385679237 35.171003205694525 33.72661950672405 -7.929429502181829 -37.024203931271884 -37.53594404621286 2.159348366461244 42.901137901676066 38.52597356597114 38.973845301639344 58.14552380518167 33.72664118618579 11.713737006164136 17.686732147793474 42.90108085280028 69.55519122927477 47.83623725220405 19.88771286775718 38.97385662228877 35.171076689114045 25.742925712594435 25.785408624116368 38.52596821466406 47.83622459086415 41.49679230692632
</DataArray>
        <DataArray type="Float64" Name="Mode_7_w" NumberOfComponents="1" format="ascii">
 3.8196357238395787e-8 -0.24180360818409022 1.4006178388256887e-9 0.24180345221159305 -0.004509492849233406 0.0018798659929867257 0.00022397095427722027 0.008695601201601372 -0.002571644633114253 0.00656264384681677 -0.030714449706276993 0.04834025350559192 0.04834025038466103 -0.030714441383304047 0.006562619645712223 -0.002571636580433401 0.0086956324023532 0.00022396273029165733 0.0018798537514169297 -0.004509485614247701 0.004509480439790403 -0.001879845438361841 -0.00022398464036422903 -0.008695597665875634 0.002571635209653069 -0.006562647800794481 0.030714451896050574 -0.04834023382647818 -0.04834023704435055 0.030714452368511246 -0.006562653932759166 0.002571649369156822 -0.008695586639068761 -0.0002240082214523864 -0.0018798348768889913 0.004509473500830157 6.311152522935728e-6 -19.01046855686265 -37.51780995083729 -38.30229074380261 -0.8673198025046955 49.170969798598655 79.77473483883028 40.69919011942048 19.01047460744214 3.540045915492253e-5 -37.88537895949326 -62.91569389954875 -30.293769750094924 26.00738682350453 106.31771610687606 79.77471629913528 37.51774989924985 37.88536336168553 4.5490455956535786e-5 -44.47266806765693 -31.932337845079868 -4.367739017706527 26.00732779819203 49.170916163411874 38.30226054018145 62.915602371651154 44.472646240319875 -2.049218208183334e-5 -57.42185249367023 -31.932427415819873 -30.293923713734447 -0.8674122539152727 0.867302300116589 30.29380237744545 31.932387012929993 57.42186548831256 -3.852769199223417e-6 -44.472640123005974 -62.91574952606832 -38.302351163016326 -49.17100612523221 -26.007438888150208 4.367764749903316 31.932436851550744 44.47261729290324 1.9589332169740527e-5 -37.88537105208068 -37.51780430841246 -79.7747620348862 -106.31778558195694 -26.007392988167854 30.294000077659216 62.91574487767279 37.885375505837494 -1.2215618303717877e-6 -19.010469535541425 -40.69921780847005 -79.7747608648817 -49.17099367373225 0.8674107848108068 38.30242117686571 37.51782677393887 19.010478036195313 0.0
</DataArray>
        <DataArray type="Float64" Name="Mode_8_w" NumberOfComponents="1" format="ascii">
 0.3984820410109726 7.270953140344419e-8 -0.3984824368086505 1.3696181368926574e-7 -0.05231655235712823 0.024656866516956675 -0.007663079237698902 0.0018124123399369718 -0.01308752387963006 0.0059302509748564375 -0.001895655777002758 0.002831281851259712 -0.0028313154238014246 0.0018956733348737013 -0.005930224745143668 0.013087468559226 -0.0018123747788599195 0.007663066387261245 -0.02465688118132354 0.05231660028079782 0.05231659257417005 -0.0246568695276999 0.007663079924744517 -0.0018124252614013805 0.01308752229627083 -0.00593025160472949 0.001895669256067708 -0.002831307415296073 0.0028312969410474323 -0.001895689506228211 0.005930291566033589 -0.013087577093729898 0.0018124670763218721 -0.007663120560341591 0.02465690022275787 -0.05231657031060857 70.09760730513231 68.33324764427326 20.59528617290799 -29.52336977683358 -54.48672247469573 -30.978826243761993 -11.763520900102804 2.5239414584990748e-5 68.33321686053561 106.50298593795586 38.405915998388885 -23.69902741999195 -76.63573541862007 -44.504030761297244 -5.597204403238064e-6 11.763524105337249 20.595283855282627 38.40595635755644 -3.813532998395802 -26.942911077538344 -27.570964957323923 -3.11366950037069e-5 44.5040178315324 30.978809848618454 -29.523396978964275 -23.69905624161809 -26.94290953311338 -35.29846047681926 0.00014994256684428486 27.57098282510284 76.63557154677267 54.48662005760898 -54.48668322697212 -76.63571095772633 -27.57093489213403 6.161384986214853e-5 35.29862883029197 26.943187609234457 23.698983514892372 29.52329906280103 -30.978818123947743 -44.50406424248537 -7.642421292537712e-5 27.57111895598548 26.942943730464734 3.813653503300667 -38.40591275971378 -20.59536872507132 -11.763494260134118 8.34779548097241e-5 44.503898999371 76.63566863150719 23.69908321325254 -38.405953882355135 -106.50298533381093 -68.3332802211868 1.175791944475723e-5 11.763554395732813 30.978834954584404 54.48659644144269 29.52335364421659 -20.59535298486683 -68.3333008200043 -70.09767855805771
</DataArray>
        <DataArray type="Float64" Name="Mode_9_w" NumberOfComponents="1" format="ascii">
 -0.12269738498145136 -0.08355554863679937 -0.12269804640212335 -0.08355557834176965 0.014233169129711397 -0.0042552433730004835 -0.009178532109383724 0.014058909273612974 0.020554662184500427 -0.044337218492930985 0.028780457472490553 -0.0028454735376613246 -0.0028454722307249144 0.0287804605884528 -0.04433722882624107 0.020554663461213915 0.014058933165311044 -0.009178559170468626 -0.004255245804646446 0.014233237391584615 0.014233241731974289 -0.004255256013215175 -0.00917856814731224 0.014058981943980626 0.02055461547632581 -0.044337187114762124 0.02878041906616599 -0.0028454449651836413 -0.002845458469012128 0.02878044118928596 -0.04433721224103984 0.020554674431808136 0.01405890133716735 -0.00917855271939991 -0.0042552056507967635 0.014233146552640524 -21.770859779504587 -17.965678425841013 7.259627399270588 56.6805084858263 24.64368256175389 -54.951832077418295 -12.063287359754696 -15.76712592052728 -17.965721721371512 -24.677309565494756 -17.398172967006584 -10.015695580981996 146.36466320535112 -26.830502493558452 -106.6493798394049 -12.063316176588666 7.259642566125854 -17.398249441246996 57.99450683900708 -75.0949557769825 -91.76088480592622 187.63636135765682 -26.830507466473712 -54.951850581035245 56.6805366060609 -10.01560997588884 -75.09505452578965 148.83176092718185 -125.87825915278053 -91.76076407190726 146.36476828761556 24.6436862160886 24.643671229181095 146.3647359712173 -91.76077538436215 -125.8781775561486 148.83178796177765 -75.09494079503014 -10.015562410316154 56.68062979836598 -54.951838272456406 -26.83048129738243 187.63634805319757 -91.76076058036027 -75.09494852922482 57.9946105996314 -17.398252720137535 7.2596135263778985 -12.063266124463835 -106.64930992262542 -26.830536128371868 146.36474977264913 -10.015668123955159 -17.39823618922044 -24.677402453209986 -17.96581513550445 -15.767122415636841 -12.063280075681634 -54.95186735800308 24.643662881287593 56.68052049354134 7.2595484090667926 -17.965819732872806 -21.770976562865332
</DataArray>
        <DataArray type="Float64" Name="Mode_10_w" NumberOfComponents="1" format="ascii">
 -5.980859270352956e-7 -0.011079584604923021 -1.090712857934987e-9 0.011079102898827818 -0.00046828584702625847 -0.001143083903257014 -0.0067164989194863625 0.03830958651089587 -0.059176088261331604 0.0333755866854112 0.00713568817258882 -0.01480392517554806 -0.014803898028277508 0.0071356443619111235 0.03337562900865357 -0.059176140055219116 0.03830962398625555 -0.006716525040397051 -0.001143029213465277 -0.0004683799216377807 0.0004683852032726603 0.0011430091914293985 0.0067165421525372275 -0.0383096125998952 0.05917610828960256 -0.03337552646430824 -0.007135779185298035 0.014804018893499471 0.014804040363589918 -0.007135802133221822 -0.033375504458263136 0.059176058321671096 -0.038309578444125574 0.006716535659365644 0.0011430077521685793 0.0004684398475582382 -0.00010539210803214405 -5.86216804849437 -26.929488818485538 -21.23366210847156 54.39561377034385 -26.186688439336308 -41.11527375660593 3.9174706397500665 5.861974595633644 -0.0001202993700497002 23.032909935719314 -87.09747322339457 -16.884548683559075 147.88974693884688 -86.74698866423854 -41.11520597175928 26.92943358154015 -23.03295706761496 1.8061094327927212e-5 152.02322541411164 -175.10158611398822 -1.9085645135313742 147.88984839992426 -26.186580931435 21.233669462188118 87.09755609184462 -152.0230691260371 -0.00011483838942767706 223.88467630844252 -175.10157630364716 -16.884443118665953 54.39575780839199 -54.39560026982047 16.88448372575651 175.1017648654981 -223.88461701249213 -0.00024322062371508974 152.02307743997056 -87.09745430248323 -21.23361061463176 26.18669712661414 -147.8897309270851 1.908306750161229 175.10170185180326 -152.02312801205673 -0.0001422495447503935 23.032865864013502 -26.929453027488535 41.11512165128039 86.74698439451507 -147.88974116972864 16.884380229515994 87.09759235796275 -23.032880818780452 -2.229080666864443e-5 -5.862114368532444 -3.9175501573997766 41.11506549351924 26.18666964719209 -54.395645183974445 21.23372218682235 26.929541939324178 5.862128484309029 0.0
</DataArray>
        <DataArray type="Float64" Name="Mode_11_w" NumberOfComponents="1" format="ascii">
 0.18738853778994563 0.27862883723552245 0.18738867936390674 0.27862920073657094 -0.02566431142237777 0.02301160863404108 -0.026788075545511214 0.014245940371624471 0.004785334522443822 -0.047699933485697794 0.07450370074437913 -0.07266618429050045 -0.07266620108599423 0.07450373912047063 -0.047699980294642626 0.004785379899667572 0.01424591241443501 -0.026788094294262675 0.0230116326502268 -0.025664329533110326 -0.02566434946666263 0.02301165126432069 -0.02678807246702472 0.014245847075515393 0.004785463148200793 -0.047700046729730695 0.07450375798342568 -0.07266622757492029 -0.07266623514813189 0.07450376537977477 -0.04770006475273432 0.004785492943673045 0.014245852798151016 -0.02678807929936339 0.023011635215770584 -0.0256643240352596 32.94640221951771 18.856402448030757 -30.782001283988333 -17.26607090169899 -30.7254082626751 -14.35809501782435 97.03799000680898 45.439197103904114 18.8563878071672 64.84899597718365 -13.444928020833663 -92.62650487595435 40.87763161589975 -61.37053793221336 31.433020105352682 97.03796310759242 -30.781939799533365 -13.445053110122785 128.45305608420287 -45.62671894348099 -83.25769093017875 97.14419978249518 -61.370635995861576 -14.358163688615456 -17.26604047061455 -92.62630443371242 -45.62703145913236 210.0958443347009 -45.698538618173934 -83.25767290677763 40.87749844585492 -30.725547022317198 -30.7255647746925 40.8776234653163 -83.25732143509181 -45.69882056993873 210.0959159327003 -45.6265899975094 -92.62649825637392 -17.266168909118772 -14.358067498737622 -61.37080281582345 97.14414283870194 -83.25729577973297 -45.62693404640027 128.45314961395707 -13.444855505526734 -30.782005183052313 97.03795746853002 31.433185651820143 -61.37084287541841 40.877539303535315 -92.62638772292625 -13.445048931852646 64.8490261160388 18.85644164122092 45.439131568185246 97.03797158219021 -14.358115615121017 -30.7255988402599 -17.26614866145596 -30.78203930330896 18.856381874713904 32.94642688776608
</DataArray>
        <DataArray type="Float64" Name="Mode_12_w" NumberOfComponents="1" format="ascii">
 -9.940702589982938e-8 0.12301999337627595 1.5528968312298495e-9 -0.12301988776169216 -0.013534635795865214 0.010514098453730896 0.005081388685166089 -0.00442421136368393 0.010816522935332525 -0.01682176129260165 0.017913780805141305 -0.022540080309585212 -0.02254009362429535 0.017913789981592685 -0.016821782879554034 0.010816588501796948 -0.004424231004357823 0.005081366553213617 0.010514079056461153 -0.013534616389967762 0.013534609080235242 -0.0105140512307906 -0.005081413447801521 0.004424250305317988 -0.010816554154232664 0.016821702715675648 -0.017913701493201893 0.022540033387283945 0.022540040856006666 -0.017913725409073013 0.01682169570397847 -0.01081647644496264 0.004424185248560148 -0.005081357352425753 -0.010514122938548002 0.013534661337289979 -1.7598665400128412e-5 -47.08838340427444 -64.39313033417486 -52.41439775928251 -40.252673224218725 -17.794257813910765 -31.69626691403347 -20.98307242170415 47.08837082554284 -3.6028876127952164e-5 -78.00702987386356 -29.895348062588926 -1.3973709097599172 -9.93249023320813 -26.745042113135415 -31.69628137493695 64.39317785227138 78.00706806318307 -3.153676560659762e-5 -2.8508091909906375 110.21348399663697 99.81622024286708 -9.93270303181008 -17.7943960615373 52.414440863361385 29.895389951531985 2.8508171615825946 2.6809465585800287e-5 6.726734440410527 110.21354863856634 -1.3974109045449656 -40.2528894666479 40.25271067052148 1.3974022369200017 -110.21358086150435 -6.726787758895676 0.00015245231449373796 -2.8508742432784624 -29.895368539117708 -52.41446010836694 17.794224996559784 9.932408887475184 -99.81615924489029 -110.21371573270636 2.850830199111569 0.00016646113326530484 -78.00694414146031 -64.39313271350957 31.696304419139622 26.74503080209011 9.932612945495965 1.3975514217827976 29.89517822786225 78.0069255065076 3.0214395897806267e-5 -47.088293101633234 20.983087565172877 31.696356873986282 17.79435265826243 40.25289802988731 52.41445922170523 64.39305648166123 47.0882765392711 0.0
</DataArray>
        <DataArray type="Float64" Name="Mode_13_w" NumberOfComponents="1" format="ascii">
 -0.29816366531792604 3.511228158296382e-7 0.29816340656160306 2.849745902220729e-7 0.03620422617755582 -0.016329557594478628 0.014614643335987982 -0.007106164337985085 -0.0033282590678323154 -0.0038274981772234576 0.0042622877204115455 0.0006480223226167491 -0.0006481629817933208 -0.004262129776402486 0.0038273117740329405 0.0033283889941842218 0.007106133723489683 -0.014614654812123493 0.016329551062082052 -0.03620419621552242 -0.036204254650582156 0.016329627250977863 -0.014614608365536312 0.007105929554032423 0.0033286002435994498 0.0038271841156702854 -0.004262052379313552 -0.0006481991399431779 0.0006480300686833479 0.004262210920505838 -0.00382722530374922 -0.0033286954993963338 -0.0071058345338458175 0.014614568892428225 -0.016329612765099078 0.03620426959675995 -52.751136747757585 -45.78193586557251 -28.14727282420609 -48.36852327345288 -59.269174868456005 -42.184552398634644 -12.110484934801839 4.5353032720079404e-5 -45.78184116347315 -45.75459108652988 18.056637337803704 5.00214508506761 -55.525307608562954 -57.21787227607414 5.35030669503611e-5 12.110740289984971 -28.147368694287856 18.05715055786703 79.2158054187022 92.60610726155906 44.603025045754144 0.00012594990734816555 57.217563966315865 42.18455193232354 -48.368727166324206 5.0016173765509935 92.60692237889414 42.95155276497838 -0.00025605973944681926 -44.602936629372294 55.5253722232086 59.2690197688216 -59.268787916683124 -55.52541678630403 44.602459186356064 2.4179974789047133e-5 -42.95123441352694 -92.606294501875 -5.002045797773623 48.368560119032864 -42.18459281354976 -57.21739772680263 0.00013561003406670585 -44.60293607281586 -92.60686427969014 -79.21561598138867 -18.056641311099835 28.14728645146882 -12.110540021008108 -4.450360342988212e-5 57.21750891133932 55.52564637261627 -5.001770903403712 -18.057094050966658 45.75460620542543 45.78192677975422 5.9664982127850024e-5 12.110682948791307 42.18452428969866 59.26890855321906 48.36878427032803 28.147319651855252 45.7817853632408 52.75109013725757
</DataArray>
        <DataArray type="Float64" Name="Mode_14_w" NumberOfComponents="1" format="ascii">
 -1.5523038686002682e-7 -2.8734161324737005e-7 -7.541848306729481e-10 2.076099852727491e-7 -0.016198875687789785 0.013444337975854845 0.006864803884022825 0.008654686939870176 -0.015747336698465966 -0.015068055879320173 0.017236129559338325 -0.004252851893126484 0.004253015449062759 -0.017236331372684856 0.01506827645642399 0.01574715337446857 -0.0086545818594917 -0.006864788555636982 -0.013444448429448015 0.016198970472218358 -0.016198968373728487 0.013444454494783119 0.006864763969302896 0.008654600792300909 -0.015747150875862016 -0.015068266939780712 0.01723630302741384 -0.004252985422867013 0.004252923568355146 -0.017236231225058615 0.015068129774321247 0.015747337763190143 -0.008654767905473924 -0.006864703634707745 -0.013444394781812004 0.01619892053644453 -2.722746546518383e-5 -54.499406403699965 -64.86183193548192 -8.770473418800018 73.93933649022382 75.8708541301429 12.895630467038883 3.643839817847809e-5 54.49939120381407 -5.5587321967765086e-5 -84.19485984087106 -60.90497915664534 15.286862167253082 102.96387745276229 -2.6260451768665655e-5 -12.895582002076265 64.8619058092961 84.19495549363384 -0.00012473321678211995 38.2884940075741 -32.056869438703416 -6.921593340642443e-5 -102.96366967168026 -75.87087261112164 8.770392965533997 60.90518746103643 -38.28833054552071 -2.7194975678659333e-5 0.00012745775002599933 32.05657903404582 -15.286918164075237 -73.93920043868795 -73.9393718425222 -15.28705323536144 32.05686072406859 -9.745869158825898e-5 -8.876897201110133e-6 -38.288143613047545 60.90498383769954 8.77041069575608 -75.87083813836215 -102.96374882123735 9.27384708568619e-6 -32.0566228229572 38.28810676138883 3.402080954635551e-5 84.19532440108654 64.86194402439241 -12.895739114139555 -3.627092301572654e-5 102.9637626357279 15.286972229933738 -60.90499135621029 -84.19534908592941 1.956567685322191e-5 54.49958064163013 -4.636834743960928e-5 12.895543973421212 75.8708823594562 73.93925361115173 -8.770371205857483 -64.86196838363165 -54.499596994957294 -0.0
</DataArray>
        <DataArray type="Float64" Name="Mode_15_w" NumberOfComponents="1" format="ascii">
 0.5811821925685304 -0.1826348412258665 0.5811814870090858 -0.18263905818504153 -0.0693715030218715 0.04244933954665835 -0.04063647888877704 0.019337105144364045 -0.02005269327216306 0.03446996903851128 -0.04344971472083133 0.044223574878917496 0.04422362915143979 -0.04344975140693623 0.03446976238453786 -0.02005213292298671 0.01933646052196927 -0.040636134856228315 0.0424493558369399 -0.06937152766669842 -0.0693711928594279 0.042448955912903534 -0.04063643181423476 0.019337497066873353 -0.020053203388918056 0.03447083519839369 -0.043450796546149896 0.04422459665805713 0.04422454083520229 -0.04345061490042814 0.03447042276352327 -0.020052627524596786 0.019337150140349226 -0.040636554448970796 0.04244925461753234 -0.06937141876813467 103.06568092601819 66.15449140604093 -28.982593175504917 -28.940487618211165 -21.941280240149148 -9.594539914417775 -61.080241679445265 -30.06855195464604 66.15473747081457 109.69440191870363 -41.106201636288 -37.096201762950095 -5.0809930009961475 58.27606242342152 -37.49660544895835 -61.080241920300395 -28.982486889492304 -41.10558564393399 -65.89969166549093 -36.550526160849614 43.91437068298924 83.99441632674282 58.27565705977886 -9.594448963495822 -28.94096758162449 -37.096000231177 -36.55038899930241 -9.81086506395006 33.22777524442952 43.915092651992914 -5.0807394388674 -21.941736747747182 -21.94215545759668 -5.081287045354214 43.915503917678286 33.22851949580333 -9.811253111596685 -36.55192945739432 -37.09491591724504 -28.940099375283843 -9.594736532053401 58.274554069088786 83.9945378221412 43.91495463075063 -36.548760239889475 -65.90053727547415 -41.107076813937915 -28.982241821382367 -61.07893449603279 -37.49610774493331 58.27515982788453 -5.082054518973018 -37.09626159507716 -41.104371413216576 109.6940056658216 66.15418601645158 -30.067850999342408 -61.079075274560076 -9.59465510817841 -21.94175084760027 -28.941405308021526 -28.982264086714107 66.15503555834047 103.06555679179598
</DataArray>
        <DataArray type="Float64" Name="Mode_16_w" NumberOfComponents="1" format="ascii">
 -4.480973223331643e-6 0.2860685616723578 -3.568758574273934e-6 -0.28606609807997263 -0.014422243719653002 0.016921288521739256 0.012629108004364039 -0.037940633597639946 0.03553535027830707 -0.05232214207330268 0.0654569271749271 -0.0648907478843759 -0.06489092743123193 0.06545719525418582 -0.05232208086847594 0.03553459577045216 -0.03793952139704203 0.012628467617857925 0.016921229747391124 -0.014422139106693918 0.014422958957445612 -0.01692156427891502 -0.012628388096917834 0.037939555226219154 -0.03553411159245668 0.052321112809114 -0.06545619438044496 0.06489014082840282 0.06489028773859305 -0.0654566911597974 0.05232214759838066 -0.03553532903634808 0.03794021101729036 -0.012628205586739482 -0.01692208808462158 0.014423350258127503 -0.000793240915724606 -37.17462651851357 -1.0831755751328398 63.00227610474755 30.057672912172123 14.894204055182225 -82.23249312937412 -47.62693394803493 37.173689369169644 -0.0010191942304043089 -114.78954470763668 42.361463105760286 56.06681644835682 65.78615089840946 -29.71417637938326 -82.2325503100809 1.0839477434445326 114.79039760967578 -0.0003476679252820908 -120.26911531232813 -33.00976845133202 -14.478499272196393 65.7869929819107 14.893696532959762 -63.00207482697665 -42.35985686517581 120.27020957152793 -0.0005395243841365627 -57.138273115897654 -33.01162123452495 56.066844912590426 30.058624146948805 -30.05758707770092 -56.06775014702159 33.009852990042354 57.13777521950053 0.0006866865087516063 -120.26684282975953 42.359022708533374 63.00185421350368 -14.893639962828246 -65.78698585929632 14.477154847747912 33.0103211684865 120.26671369330475 0.0015457142265597724 -114.78785191555284 -1.083583423949211 82.23323797784089 29.71482925852327 -65.78786438039516 -56.065656226856454 -42.35971236865874 114.78805600469798 -0.0004054321730284933 -37.174008308811956 47.627336654555286 82.23355436906293 -14.89394262507459 -30.05800259464788 -63.001099350263274 1.083474965476273 37.17303251222194 -0.0006338004025272936
</DataArray>
        <DataArray type="Float64" Name="Mode_17_w" NumberOfComponents="1" format="ascii">
 0.1571514283201036 1.4716086677781404e-6 -0.15715308775353282 -1.1043246350487786e-6 -0.022090516260240674 0.031589235011521395 -0.05375210073803281 0.02838508573202149 0.02520375688449262 -0.05318743359381326 0.04168315886732384 -0.017745439349992474 0.01774476441103669 -0.04168245134610171 0.05318677942027068 -0.025203233753659824 -0.028385563736478388 0.05375233489118289 -0.031589179841398446 0.02209056793029304 0.02209108301843209 -0.03158979792483538 0.05375182494704786 -0.028383617649052097 -0.025205364823907544 0.05318820411857782 -0.04168321362225149 0.01774531416953594 -0.01774479490794797 0.041682630521019524 -0.05318766558891117 0.025204976312343964 0.028383972469203905 -0.053751840701777645 0.03158948836984601 -0.022090720256001676 27.680326925154997 -0.2993206355146916 -63.00209147275145 23.462965741934482 28.63209912265094 -44.33600446446548 13.888689844456596 -0.00018342222499743123 -0.2998077195735852 82.23190190901978 -42.140551266416274 -141.72052591273024 118.01524788057652 2.8568338783939553 -7.49535175369965e-6 -13.889282408409263 -63.001876931208805 -42.14252936725805 232.33206787907108 -60.80652864258276 -79.7438963357159 -0.00035599126148723025 -2.856369995079404 44.33632055279022 23.46371572927932 -141.71874144883827 -60.810345970915655 155.0167734788324 -0.00017889339120314882 79.74357846112242 -118.01494788635473 -28.63179198276588 28.63065394769767 118.01665720755906 -79.7418960005087 0.0001135460469202048 -155.01662235714878 60.80567962003407 141.72116629628823 -23.462316817218216 -44.33630296624328 2.8546403133817826 -1.3531009314556521e-5 79.74161322232358 60.81155945424741 -232.33182578901 42.13951394333785 63.0021020411319 13.88967666205161 0.00011063457297029253 -2.855148842664135 -118.01703783563335 141.718326486675 42.143808963531924 -82.23218012772904 0.29870320876101136 0.00024487826423051385 -13.88883845510788 44.336182770583214 -28.630654971964155 -23.464165939429627 63.00197177672357 0.2999958793036191 -27.680620222052283
</DataArray>
        <DataArray type="Float64" Name="Mode_18_w" NumberOfComponents="1" format="ascii">
 4.0209413798906596e-6 -2.804338068366894e-6 -1.278171040051726e-8 8.46538106327511e-7 -0.01678826371334006 0.020654678168121523 0.015307615210690871 -0.06458838711923966 0.07143690645055203 -0.03621721468933663 0.005646899970764002 0.001829035819946677 -0.001827745240419542 -0.00564820176925681 0.036218283251380594 -0.07143765675311738 0.06458921660511587 -0.01530822621889121 -0.02065457316201749 0.01678799249377996 -0.016787917471889575 0.020654181302398964 0.015309078705416326 -0.06458965549476962 0.07143682141995736 -0.03621666351883102 0.005646798236801725 0.0018286013479591418 -0.0018290308002963428 -0.005646301128523077 0.036216234169506034 -0.0714364813020688 0.06458929721438997 -0.015309250470499202 -0.02065360906072835 0.016787225777235036 0.0007109257964993078 -41.31644548070384 5.692604970004996 54.60469739327068 -54.057262529893904 -1.2952544708216676 11.956678896932813 0.0001390197215339923 41.31692490176487 0.0013860892356714408 -138.00636259298474 100.13730130303848 76.00852857850339 -70.74290167675322 6.325344033069388e-5 -11.95618498129004 -5.694246327166878 138.00494213496867 0.0024644955475617604 -208.26294065620715 86.36341379100074 0.0003519132983164714 70.74249638338881 1.2949174542964015 -54.604090376535396 -100.14092062535103 208.26084165705012 0.0017322834814704694 0.0006219542280679301 -86.36263023728463 -76.00920933589451 54.05669224969112 54.05795812666046 -76.00547637817091 -86.36516031434664 -0.00045255927453847225 -0.0018266667722221048 208.2642178698057 -100.13826404392246 -54.605805501330586 1.2941485768807952 70.74355015736808 0.00019455087335542624 86.36507681197928 -208.26271427281216 -0.0026526414219537183 138.00770637015376 -5.692898527647189 -11.956926799364332 -0.0003708881980805998 -70.74228440747774 76.00616630581956 100.14116920108115 -138.0070293440743 -0.0004986901224699555 41.31740464250073 -0.0004658486990688623 11.955264879822407 -1.2939878354721643 -54.05770591695549 54.604824941872515 5.693828572706675 -41.31709017048783 0.0
</DataArray>
        <DataArray type="Float64" Name="Mode_19_w" NumberOfComponents="1" format="ascii">
 -0.07563244029446572 -0.08652902002842984 -0.07563240645092148 -0.08652899945466304 0.010585164367828324 -0.014793351782242798 0.03506273589284393 -0.04738860910093121 0.021018094091151848 0.037777211555000856 -0.06706071862900341 0.05172391083886678 0.051723913367106085 -0.067060710316573 0.03777716978789957 0.021018150846418792 -0.04738862827393321 0.035062715324349215 -0.014793327228218509 0.010585149407580345 0.01058512252628604 -0.014793283699059839 0.03506271611018136 -0.04738872398377972 0.02101828089758189 0.03777707111359686 -0.06706063860784925 0.05172386936986286 0.05172386256972819 -0.06706061014219258 0.037777022956275004 0.021018312870344856 -0.04738876752440852 0.03506278388767859 -0.014793315168584013 0.01058512699354137 -13.314949942218533 -2.0715976269817373 10.026260786608677 -39.245625520862525 35.151629794651626 31.6822188281344 -71.46095096195808 -11.110404427321708 -2.071704360409156 -29.70986461095101 34.184706685612475 20.251191990993018 -85.83606999004404 171.70317946240442 -55.79931858796768 -71.4609319200068 10.02622096358042 34.18440984887259 -76.21217528774966 68.57074578678227 -144.60325648513094 -33.93484634926355 171.70332829742674 31.682304517488973 -39.245565342115746 20.251419065212872 68.57062144948006 74.44649500158384 44.721183329936665 -144.6034175202199 -85.83604293117422 35.1516554314931 35.15148435595923 -85.83612458249671 -144.60312588819764 44.72173248419823 74.44669706512808 68.57071964820567 20.25104064377784 -39.24565991692334 31.682303385621008 171.7031876934938 -33.93539261916235 -144.60330265500278 68.57058219546015 -76.2119757774903 34.18462580162888 10.026125762291072 -71.46097309788227 -55.79911622994929 171.70323608397666 -85.83607652456921 20.251285105967806 34.18444441622223 -29.709781511716276 -2.071644260834462 -11.110404539424982 -71.46099603135956 31.68228411426444 35.15155420093955 -39.24556435275385 10.026187210970434 -2.0716897590597867 -13.314944323116435
</DataArray>
        <DataArray type="Float64" Name="Mode_20_w" NumberOfComponents="1" format="ascii">
 1.0389230188025069e-7 0.07649911170817575 -2.6333556524930735e-9 -0.07649796718939694 -0.018503240034342706 0.027140796576976572 0.0026825424157093545 -0.060421839335103325 0.10405487068353542 -0.10789982764123211 0.07495608776801527 -0.04096487170389497 -0.0409648904091118 0.07495611257707857 -0.1078998070702086 0.1040547663770989 -0.06042169512975439 0.002682458801264812 0.027140788179460584 -0.01850320721960909 0.01850322041862975 -0.02714084301410745 -0.0026823477883051523 0.0604216004096234 -0.10405469905830747 0.10789970985228653 -0.07495603477155698 0.04096477266514018 0.040964836592999265 -0.07495619055992048 0.1078999175320235 -0.10405481297223473 0.060421561334647184 -0.0026822480696059516 -0.027140923355360114 0.01850325013932133 1.970704950166082e-5 -39.17626213928959 15.767627898409144 34.70294102490265 -54.91268976933413 59.73098796819005 -31.058188586387864 -10.841134377412303 39.17637023660556 -0.0001573393166832985 -124.34320530453672 119.26264784271494 -72.23035188753826 17.269987638457025 100.38111250757851 -31.0581523232566 -15.767358770766084 124.34338773702751 -0.0005871359678405525 -35.972538184793606 62.86647815266175 -228.74764775880647 17.269801819278147 59.730791036447386 -34.70320261009214 -119.26212362418265 35.97283873138197 0.00016049965621771226 174.44764668499505 62.86638996156436 -72.23004457756085 -54.91261475843351 54.91259121488769 72.22988256983257 -62.866888120122084 -174.447596264847 0.00034963207402234934 -35.97281351425709 119.26233202993129 34.70304035148642 -59.730880121379094 -17.269532977708387 228.7479415410404 -62.86694793479237 35.97280966959362 -0.00013754802346696023 -124.3431106225179 15.767565346820787 31.058204375547128 -100.38144420053378 -17.26955551503822 72.23002095911275 -119.26220794610171 124.3431551796895 -5.3815887925242114e-5 -39.17622871342444 10.841343551308723 31.05824492568875 -59.73089981644251 54.912540646417305 -34.70308782605216 -15.767437749266325 39.17626283925583 0.0
</DataArray>
      </PointData>
    </Piece>
  </UnstructuredGrid>
</VTKFile>
