$MeshFormat
4.1 0 8
$EndMeshFormat
$PhysicalNames
6
1 1 "Γ¹"
1 2 "Γ²"
1 3 "Γ³"
1 4 "Γ⁴"
1 6 "Γ"
2 5 "Ω"
$EndPhysicalNames
$Entities
4 5 1 0
1 0 0 0 0 
2 1 0 0 0 
3 1 1 0 0 
4 0 1 0 0 
1 0 0 0 1 0 0 1 1 2 1 -2 
2 1 0 0 1 1 0 1 2 2 2 -3 
3 0 1 0 1 1 0 1 3 2 3 -4 
4 0 0 0 0 1 0 1 4 2 4 -1 
5 0 0 0 1 1 0 1 6 0 
1 0 0 0 1 1 0 1 5 4 1 2 3 4 
$EndEntities
$Nodes
10 254 1 254
0 1 0 1
1
0 0 0
0 2 0 1
2
1 0 0
0 3 0 1
3
1 1 0
0 4 0 1
4
0 1 0
1 1 0 13
5
6
7
8
9
10
11
12
13
14
15
16
17
0.07142857142842965 0 0
0.1428571428568672 0 0
0.2142857142852305 0 0
0.2857142857135938 0 0
0.357142857141957 0 0
0.4285714285703204 0 0
0.4999999999986945 0 0
0.5714285714274432 0 0
0.6428571428562027 0 0
0.7142857142849621 0 0
0.7857142857137216 0 0
0.8571428571424811 0 0
0.9285714285712405 0 0
1 2 0 13
18
19
20
21
22
23
24
25
26
27
28
29
30
1 0.07142857142842965 0
1 0.1428571428568672 0
1 0.2142857142852305 0
1 0.2857142857135938 0
1 0.357142857141957 0
1 0.4285714285703204 0
1 0.4999999999986945 0
1 0.5714285714274432 0
1 0.6428571428562027 0
1 0.7142857142849621 0
1 0.7857142857137216 0
1 0.8571428571424811 0
1 0.9285714285712405 0
1 3 0 13
31
32
33
34
35
36
37
38
39
40
41
42
43
0.9285714285711311 1 0
0.8571428571424603 1 0
0.7857142857143843 1 0
0.7142857142863082 1 0
0.6428571428582324 1 0
0.5714285714301566 1 0
0.5000000000020592 1 0
0.4285714285732121 1 0
0.3571428571443435 1 0
0.2857142857154747 1 0
0.214285714286606 1 0
0.1428571428577373 1 0
0.0714285714288686 1 0
1 4 0 13
44
45
46
47
48
49
50
51
52
53
54
55
56
0 0.9285714285711311 0
0 0.8571428571424603 0
0 0.7857142857143843 0
0 0.7142857142863082 0
0 0.6428571428582324 0
0 0.5714285714301566 0
0 0.5000000000020592 0
0 0.4285714285732121 0
0 0.3571428571443435 0
0 0.2857142857154747 0
0 0.214285714286606 0
0 0.1428571428577373 0
0 0.0714285714288686 0
1 5 0 0
2 1 0 198
57
58
59
60
61
62
63
64
65
66
67
68
69
70
71
72
73
74
75
76
77
78
79
80
81
82
83
84
85
86
87
88
89
90
91
92
93
94
95
96
97
98
99
100
101
102
103
104
105
106
107
108
109
110
111
112
113
114
115
116
117
118
119
120
121
122
123
124
125
126
127
128
129
130
131
132
133
134
135
136
137
138
139
140
141
142
143
144
145
146
147
148
149
150
151
152
153
154
155
156
157
158
159
160
161
162
163
164
165
166
167
168
169
170
171
172
173
174
175
176
177
178
179
180
181
182
183
184
185
186
187
188
189
190
191
192
193
194
195
196
197
198
199
200
201
202
203
204
205
206
207
208
209
210
211
212
213
214
215
216
217
218
219
220
221
222
223
224
225
226
227
228
229
230
231
232
233
234
235
236
237
238
239
240
241
242
243
244
245
246
247
248
249
250
251
252
253
254
0.9473689023803752 0.9490609564619866 0
0.9377984184052405 0.8925643783534766 0
0.05932259156100368 0.3306298870034369 0
0.1176375461582567 0.2934408126404855 0
0.1338223238189306 0.3543944394992248 0
0.1980959534169208 0.2927211680431978 0
0.330530246425759 0.9404742089282857 0
0.2932728065823988 0.8821496964160094 0
0.3536491482207514 0.8636936482978093 0
0.2922307287455444 0.8016021333311092 0
0.9402301668245697 0.6694540147849136 0
0.8816371060664601 0.7068177778980633 0
0.8656490792482794 0.6471199079804203 0
0.8016107859731161 0.7080510749393264 0
0.6693860233620335 0.05950864833429624 0
0.7065759834550329 0.1179893364716872 0
0.6456328884788124 0.1357239183507443 0
0.7075599533457571 0.1979615826391291 0
0.6313273791019092 0.5206633999561684 0
0.5598460660831839 0.4912570963793605 0
0.6200217642207227 0.4436676580130203 0
0.585222013078362 0.5577459850622443 0
0.5183519228203821 0.36833492855293 0
0.4890313177337399 0.4443852523406321 0
0.4410006538566726 0.3798996748199034 0
0.5555306651055331 0.4143646731640216 0
0.4791864514160293 0.6336085874579187 0
0.5084256196703236 0.5578149937698943 0
0.5559624157171976 0.6220981619814289 0
0.442065405367066 0.5878725752264234 0
0.355923009842435 0.4916209627678393 0
0.4378493019925562 0.5109960013948025 0
0.3833117627449454 0.5661063077691658 0
0.4117929302399811 0.4447178431863249 0
0.8808498960476315 0.9322318601688317 0
0.8782113306764691 0.8692935057216793 0
0.8196907423919274 0.8772143684932411 0
0.8063896172068925 0.9394815085019782 0
0.0676453797437906 0.2531258028711634 0
0.0735645078551516 0.1811067992841815 0
0.136518012062456 0.2339319604170216 0
0.1101069934078804 0.1114206389871217 0
0.1578134880221309 0.1765683856777388 0
0.2531313697294103 0.9323157559393245 0
0.1811091343882174 0.9264212175613525 0
0.233878121844799 0.8634311943819406 0
0.1114206389871286 0.8898930065919929 0
0.1765651629995811 0.8421819962018852 0
0.7468806184305549 0.06769491081439934 0
0.8188950697988915 0.07359864036752088 0
0.766073558819261 0.1366681006372701 0
0.8885793610130486 0.1101069934078804 0
0.8234242468896605 0.1578975704478346 0
0.9321483458395541 0.7467187763212343 0
0.9203603813269666 0.8190856620546398 0
0.8618476491097283 0.7630282317612099 0
0.8419495656804855 0.8231576421584851 0
0.1218863242196184 0.8152081016589472 0
0.06726739420940978 0.8515761874038852 0
0.8781012297195754 0.1848863702857971 0
0.9326758578023352 0.1484642548422113 0
0.1847866299356516 0.1218900840108002 0
0.1484218984348407 0.06726996433844683 0
0.04652289197510124 0.8942895720390656 0
0.05705365788680674 0.9441665453383198 0
0.1057102172243819 0.04652304236674668 0
0.05583294371936742 0.05705360511527837 0
0.9534765480048801 0.1057147451851677 0
0.9429463888108088 0.05583483703614111 0
0.7540359150818327 0.8927823928677162 0
0.7485374489092886 0.9516849820899258 0
0.6822617122570256 0.9261610090799348 0
0.7002093806541921 0.8336055490247757 0
0.8942286449362137 0.2484206210597081 0
0.9543271675264346 0.253622031299667 0
0.9270282695229094 0.3207995050876164 0
0.8343537638898338 0.3017110987770688 0
0.1042844754067656 0.75184017720685 0
0.04560450151482313 0.7466027884209951 0
0.07120333066020806 0.6804438891050627 0
0.1568093201109899 0.7007185540088199 0
0.2481458388296647 0.1043176759277606 0
0.2533938273802555 0.04561861847294325 0
0.3195538012797762 0.07137864894355482 0
0.2992562040475019 0.1571988793834778 0
0.9432221502741717 0.1987560224753442 0
0.05650711589176947 0.8013473995912538 0
0.1986485086204184 0.0565160571249918 0
0.04775188025551262 0.1129493779089333 0
0.112949844929742 0.9522452648277291 0
0.8870509952756838 0.04775871219536894 0
0.07252519356678576 0.398464040848884 0
0.1395143391806097 0.4371769415924671 0
0.06944279528634757 0.4656988580526216 0
0.6015224818262196 0.07286850486125525 0
0.5645237639639554 0.1512632535741594 0
0.5340435933162019 0.06981916013393112 0
0.3983215975941882 0.9268602277062125 0
0.4345752912378675 0.8485961980092162 0
0.4657638205536127 0.9298626051043922 0
0.9264823325390182 0.6016975920369602 0
0.8506855263651744 0.56598271301366 0
0.9294557273872784 0.5344602503234378 0
0.4067901737895447 0.6325645191169541 0
0.4383265619684211 0.6953252744090076 0
0.2211948308518299 0.531794088504983 0
0.261678154694997 0.5893934199889064 0
0.1856537991947991 0.5771464576783363 0
0.1716966305607181 0.7734160192155635 0
0.2101337342870419 0.6483229414953157 0
0.6298792429885866 0.5932666172999673 0
0.6906895933538767 0.5613586702104453 0
0.5913150271398191 0.3696206885342484 0
0.559370883786327 0.3062659358886511 0
0.3664853514080542 0.409399822996823 0
0.2986691552826574 0.4411006816935435 0
0.7729035129733651 0.8282521803726505 0
0.2066202902284472 0.2256615428048379 0
0.2684184633977036 0.2345429580337939 0
0.3347570452441195 0.6193508069361495 0
0.2256615428048324 0.7933797097718032 0
0.2341424010023878 0.7317091197219904 0
0.8282398287733663 0.2270613806824372 0
0.2829852417620034 0.6702986605067937 0
0.7933797097717872 0.77433845719551 0
0.7369906101598644 0.7581875037682223 0
0.3875162125988945 0.3345952138997262 0
0.7743384571955043 0.2066202902284631 0
0.7607097543979952 0.2620882283434696 0
0.2265568861282371 0.1717159666296754 0
0.3319868054829129 0.2846351136281663 0
0.403285694830094 0.2706058865059903 0
0.3504434099327773 0.2093388534607022 0
0.6663905355963621 0.3895080259442794 0
0.7203422598776896 0.3296127645121073 0
0.7310767954171813 0.4078500248055795 0
0.7908635323195382 0.3597957435986535 0
0.6069035069786165 0.6680601957244954 0
0.06318971673986283 0.6005877991881627 0
0.1325315813117926 0.6282758641606573 0
0.6039206116441397 0.9372258398625412 0
0.6287742702093523 0.8654090630169976 0
0.6415409009328424 0.7906858053053586 0
0.6673456663000087 0.719148198867725 0
0.5925671475736892 0.7326684415697026 0
0.9356800912568395 0.4010229872052207 0
0.8663169469011681 0.3789561874027938 0
0.4543931112452578 0.7667821155603082 0
0.3724580254595078 0.7807628898479502 0
0.3996127121666229 0.0634801497099957 0
0.3743057460315136 0.1315525598076399 0
0.765372102554753 0.5490342295080316 0
0.7932485577213376 0.6307162752095984 0
0.2234976044863435 0.4594463914615362 0
0.2159766771908889 0.3741963304861274 0
0.5434097850814843 0.2341708678144783 0
0.6249420138488538 0.2182814562344428 0
0.4988476840378701 0.5011265488870815 0
0.7730893701451074 0.3148560248280025 0
0.6849587429756595 0.7737608887954068 0
0.935868231224967 0.4655106763745963 0
0.5369008562490596 0.9373425603593205 0
0.6906472870871447 0.2596619444310632 0
0.6347284939364444 0.3049817152674497 0
0.7360887279999658 0.6751546485575513 0
0.3224856402339509 0.5542329811728264 0
0.2659696945471283 0.3005291822864992 0
0.3040101465883542 0.3644645617138723 0
0.4644718339662607 0.06364932795569972 0
0.06450581035408635 0.5346695793229483 0
0.2994796087455848 0.7342258197245276 0
0.3629693547828645 0.6975394938707957 0
0.5710535573777589 0.8850141499419207 0
0.5753901979517727 0.8195226907436335 0
0.5133003861411548 0.8594816082588462 0
0.118416734164199 0.5697092808253097 0
0.1470294098849349 0.5101843458201839 0
0.4374014084166198 0.1087282966625109 0
0.4207897990661866 0.1792092736934887 0
0.4872018613291049 0.1398683612277606 0
0.8902030648879607 0.4395494085469667 0
0.8200020575193264 0.4257883609304139 0
0.8598705042985221 0.489459979540963 0
0.4783286234272793 0.2985662237336021 0
0.2824811689788104 0.5121698849627284 0
0.4742638831650432 0.2183323095921244 0
0.7329434276246277 0.6096732797735059 0
0.7008588728193926 0.4813153041973157 0
0.5232341956571928 0.7823923301462887 0
0.5183446046478813 0.7028811292155376 0
0.6773219646443359 0.6382986254126116 0
0.7817738215396094 0.4777972011071507 0
0.8111051011653387 0.517131246490516 0
0.5149137238670116 0.1881105063965033 0
0.4841409494224773 0.8127302911625887 0
0.4082756759142888 0.7385758011676044 0
0.5900914497682327 0.2619211904635482 0
0.2596176500346732 0.4095024671707195 0
$EndNodes
$Elements
6 1856 1 5120
1 1 1 14
1 1 5 
2 5 6 
3 6 7 
4 7 8 
5 8 9 
6 9 10 
7 10 11 
8 11 12 
9 12 13 
10 13 14 
11 14 15 
12 15 16 
13 16 17 
14 17 2 
1 2 1 14
15 2 18 
16 18 19 
17 19 20 
18 20 21 
19 21 22 
20 22 23 
21 23 24 
22 24 25 
23 25 26 
24 26 27 
25 27 28 
26 28 29 
27 29 30 
28 30 3 
1 3 1 14
29 3 31 
30 31 32 
31 32 33 
32 33 34 
33 34 35 
34 35 36 
35 36 37 
36 37 38 
37 38 39 
38 39 40 
39 40 41 
40 41 42 
41 42 43 
42 43 4 
1 4 1 14
43 4 44 
44 44 45 
45 45 46 
46 46 47 
47 47 48 
48 48 49 
49 49 50 
50 50 51 
51 51 52 
52 52 53 
53 53 54 
54 54 55 
55 55 56 
56 56 1 
1 5 1 1350
3771 57 58 
3772 58 30 
3773 30 57 
3774 58 29 
3775 29 30 
3776 30 58 
3777 59 60 
3778 60 61 
3779 61 59 
3780 60 62 
3781 62 61 
3782 61 60 
3783 63 64 
3784 64 65 
3785 65 63 
3786 64 66 
3787 66 65 
3788 65 64 
3789 67 68 
3790 68 69 
3791 69 67 
3792 68 70 
3793 70 69 
3794 69 68 
3795 71 72 
3796 72 73 
3797 73 71 
3798 72 74 
3799 74 73 
3800 73 72 
3801 75 76 
3802 76 77 
3803 77 75 
3804 75 78 
3805 78 76 
3806 76 75 
3807 79 80 
3808 80 81 
3809 81 79 
3810 79 82 
3811 82 80 
3812 80 79 
3813 83 84 
3814 84 85 
3815 85 83 
3816 83 86 
3817 86 84 
3818 84 83 
3819 87 88 
3820 88 89 
3821 89 87 
3822 87 90 
3823 90 88 
3824 88 87 
3825 58 91 
3826 91 92 
3827 92 58 
3828 93 92 
3829 92 91 
3830 91 93 
3831 94 93 
3832 93 91 
3833 91 94 
3834 91 32 
3835 32 94 
3836 94 91 
3837 95 96 
3838 96 97 
3839 97 95 
3840 98 99 
3841 99 96 
3842 96 98 
3843 96 99 
3844 99 97 
3845 97 96 
3846 100 101 
3847 101 102 
3848 102 100 
3849 103 104 
3850 104 101 
3851 101 103 
3852 101 104 
3853 104 102 
3854 102 101 
3855 105 106 
3856 106 107 
3857 107 105 
3858 108 109 
3859 109 106 
3860 106 108 
3861 106 109 
3862 109 107 
3863 107 106 
3864 110 111 
3865 111 112 
3866 112 110 
3867 111 113 
3868 113 112 
3869 112 111 
3870 92 113 
3871 113 111 
3872 111 92 
3873 31 91 
3874 91 57 
3875 57 31 
3876 91 31 
3877 31 32 
3878 32 91 
3879 114 103 
3880 103 115 
3881 115 114 
3882 103 114 
3883 114 104 
3884 104 103 
3885 116 108 
3886 108 117 
3887 117 116 
3888 108 116 
3889 116 109 
3890 109 108 
3891 118 98 
3892 98 119 
3893 119 118 
3894 98 118 
3895 118 99 
3896 99 98 
3897 58 111 
3898 111 29 
3899 29 58 
3900 45 115 
3901 115 120 
3902 120 45 
3903 103 121 
3904 121 120 
3905 120 103 
3906 115 103 
3907 103 120 
3908 120 115 
3909 6 119 
3910 119 122 
3911 122 6 
3912 98 123 
3913 123 122 
3914 122 98 
3915 119 98 
3916 98 122 
3917 122 119 
3918 19 117 
3919 117 124 
3920 124 19 
3921 108 125 
3922 125 124 
3923 124 108 
3924 117 108 
3925 108 124 
3926 124 117 
3927 126 127 
3928 127 128 
3929 128 126 
3930 129 126 
3931 126 128 
3932 128 129 
3933 130 131 
3934 131 132 
3935 132 130 
3936 133 130 
3937 130 132 
3938 132 133 
3939 134 135 
3940 135 136 
3941 136 134 
3942 137 134 
3943 134 136 
3944 136 137 
3945 138 139 
3946 139 140 
3947 140 138 
3948 141 138 
3949 138 140 
3950 140 141 
3951 126 93 
3952 93 94 
3953 94 126 
3954 130 116 
3955 116 142 
3956 142 130 
3957 142 116 
3958 116 117 
3959 117 142 
3960 134 114 
3961 114 143 
3962 143 134 
3963 143 114 
3964 114 115 
3965 115 143 
3966 138 118 
3967 118 144 
3968 144 138 
3969 144 118 
3970 118 119 
3971 119 144 
3972 145 96 
3973 96 55 
3974 55 145 
3975 54 55 
3976 55 96 
3977 96 54 
3978 146 101 
3979 101 42 
3980 42 146 
3981 41 42 
3982 42 101 
3983 101 41 
3984 147 106 
3985 106 16 
3986 16 147 
3987 46 47 
3988 47 135 
3989 135 46 
3990 15 16 
3991 16 106 
3992 106 15 
3993 28 29 
3994 29 111 
3995 111 28 
3996 103 101 
3997 101 146 
3998 146 103 
3999 121 103 
4000 103 146 
4001 146 121 
4002 108 106 
4003 106 147 
4004 147 108 
4005 125 108 
4006 108 147 
4007 147 125 
4008 33 34 
4009 34 127 
4010 127 33 
4011 98 96 
4012 96 145 
4013 145 98 
4014 123 98 
4015 98 145 
4016 145 123 
4017 117 19 
4018 19 142 
4019 142 117 
4020 19 20 
4021 20 142 
4022 142 19 
4023 115 45 
4024 45 143 
4025 143 115 
4026 45 46 
4027 46 143 
4028 143 45 
4029 20 21 
4030 21 131 
4031 131 20 
4032 119 6 
4033 6 144 
4034 144 119 
4035 6 7 
4036 7 144 
4037 144 6 
4038 32 33 
4039 33 94 
4040 94 32 
4041 58 92 
4042 92 111 
4043 111 58 
4044 58 57 
4045 57 91 
4046 91 58 
4047 111 110 
4048 110 28 
4049 28 111 
4050 7 8 
4051 8 139 
4052 139 7 
4053 43 4 
4054 4 121 
4055 121 43 
4056 121 4 
4057 4 44 
4058 44 121 
4059 44 120 
4060 120 121 
4061 121 44 
4062 17 2 
4063 2 125 
4064 125 17 
4065 95 53 
4066 53 54 
4067 54 95 
4068 125 2 
4069 2 18 
4070 18 125 
4071 18 124 
4072 124 125 
4073 125 18 
4074 56 1 
4075 1 123 
4076 123 56 
4077 123 1 
4078 1 5 
4079 5 123 
4080 5 122 
4081 122 123 
4082 123 5 
4083 100 40 
4084 40 41 
4085 41 100 
4086 96 95 
4087 95 54 
4088 54 96 
4089 101 100 
4090 100 41 
4091 41 101 
4092 106 105 
4093 105 15 
4094 15 106 
4095 145 56 
4096 56 123 
4097 123 145 
4098 55 56 
4099 56 145 
4100 145 55 
4101 110 27 
4102 27 28 
4103 28 110 
4104 146 43 
4105 43 121 
4106 121 146 
4107 42 43 
4108 43 146 
4109 146 42 
4110 147 17 
4111 17 125 
4112 125 147 
4113 16 17 
4114 17 147 
4115 147 16 
4116 57 3 
4117 3 31 
4118 31 57 
4119 105 14 
4120 14 15 
4121 15 105 
4122 30 3 
4123 3 57 
4124 57 30 
4125 33 127 
4126 127 94 
4127 94 33 
4128 126 94 
4129 94 127 
4130 127 126 
4131 20 131 
4132 131 142 
4133 142 20 
4134 130 142 
4135 142 131 
4136 131 130 
4137 46 135 
4138 135 143 
4139 143 46 
4140 134 143 
4141 143 135 
4142 135 134 
4143 7 139 
4144 139 144 
4145 144 7 
4146 138 144 
4147 144 139 
4148 139 138 
4149 148 149 
4150 149 150 
4151 150 148 
4152 148 61 
4153 61 149 
4154 149 148 
4155 151 152 
4156 152 153 
4157 153 151 
4158 151 73 
4159 73 152 
4160 152 151 
4161 154 155 
4162 155 156 
4163 156 154 
4164 154 65 
4165 65 155 
4166 155 154 
4167 157 158 
4168 158 159 
4169 159 157 
4170 157 69 
4171 69 158 
4172 158 157 
4173 160 83 
4174 83 161 
4175 161 160 
4176 160 86 
4177 86 83 
4178 83 160 
4179 47 136 
4180 136 135 
4181 135 47 
4182 47 48 
4183 48 136 
4184 136 47 
4185 162 163 
4186 163 164 
4187 164 162 
4188 137 165 
4189 165 134 
4190 134 137 
4191 163 166 
4192 166 164 
4193 164 163 
4194 167 75 
4195 75 168 
4196 168 167 
4197 167 78 
4198 78 75 
4199 75 167 
4200 169 79 
4201 79 170 
4202 170 169 
4203 169 82 
4204 82 79 
4205 79 169 
4206 34 128 
4207 128 127 
4208 127 34 
4209 34 35 
4210 35 128 
4211 128 34 
4212 171 87 
4213 87 172 
4214 172 171 
4215 129 173 
4216 173 126 
4217 126 129 
4218 62 174 
4219 174 175 
4220 175 62 
4221 171 90 
4222 90 87 
4223 87 171 
4224 92 93 
4225 93 113 
4226 113 92 
4227 176 89 
4228 89 160 
4229 160 176 
4230 66 177 
4231 177 178 
4232 178 66 
4233 21 132 
4234 132 131 
4235 131 21 
4236 21 22 
4237 22 132 
4238 132 21 
4239 89 86 
4240 86 160 
4241 160 89 
4242 133 179 
4243 179 130 
4244 130 133 
4245 5 6 
4246 6 122 
4247 122 5 
4248 180 163 
4249 163 176 
4250 176 180 
4251 70 181 
4252 181 182 
4253 182 70 
4254 180 166 
4255 166 163 
4256 163 180 
4257 183 81 
4258 81 171 
4259 171 183 
4260 8 140 
4261 140 139 
4262 139 8 
4263 8 9 
4264 9 140 
4265 140 8 
4266 74 184 
4267 184 185 
4268 185 74 
4269 141 186 
4270 186 138 
4271 138 141 
4272 18 19 
4273 19 124 
4274 124 18 
4275 81 90 
4276 90 171 
4277 171 81 
4278 95 59 
4279 59 53 
4280 53 95 
4281 59 52 
4282 52 53 
4283 53 59 
4284 134 165 
4285 165 114 
4286 114 134 
4287 165 104 
4288 104 114 
4289 114 165 
4290 187 188 
4291 188 183 
4292 183 187 
4293 187 189 
4294 189 188 
4295 188 187 
4296 100 63 
4297 63 40 
4298 40 100 
4299 63 39 
4300 39 40 
4301 40 63 
4302 126 173 
4303 173 93 
4304 93 126 
4305 173 113 
4306 113 93 
4307 93 173 
4308 190 77 
4309 77 169 
4310 169 190 
4311 77 82 
4312 82 169 
4313 169 77 
4314 110 67 
4315 67 27 
4316 27 110 
4317 67 26 
4318 26 27 
4319 27 67 
4320 130 179 
4321 179 116 
4322 116 130 
4323 179 109 
4324 109 116 
4325 116 179 
4326 44 45 
4327 45 120 
4328 120 44 
4329 191 192 
4330 192 190 
4331 190 191 
4332 105 71 
4333 71 14 
4334 14 105 
4335 71 13 
4336 13 14 
4337 14 71 
4338 138 186 
4339 186 118 
4340 118 138 
4341 186 99 
4342 99 118 
4343 118 186 
4344 191 193 
4345 193 192 
4346 192 191 
4347 97 62 
4348 62 60 
4349 60 97 
4350 97 174 
4351 174 62 
4352 62 97 
4353 59 95 
4354 95 60 
4355 60 59 
4356 102 66 
4357 66 64 
4358 64 102 
4359 102 177 
4360 177 66 
4361 66 102 
4362 63 100 
4363 100 64 
4364 64 63 
4365 112 70 
4366 70 68 
4367 68 112 
4368 112 181 
4369 181 70 
4370 70 112 
4371 67 110 
4372 110 68 
4373 68 67 
4374 107 74 
4375 74 72 
4376 72 107 
4377 107 184 
4378 184 74 
4379 74 107 
4380 71 105 
4381 105 72 
4382 72 71 
4383 99 174 
4384 174 97 
4385 97 99 
4386 99 186 
4387 186 174 
4388 174 99 
4389 60 95 
4390 95 97 
4391 97 60 
4392 194 85 
4393 85 167 
4394 167 194 
4395 48 195 
4396 195 136 
4397 136 48 
4398 48 49 
4399 49 195 
4400 195 48 
4401 196 166 
4402 166 137 
4403 137 196 
4404 166 178 
4405 178 137 
4406 137 166 
4407 196 136 
4408 136 195 
4409 195 196 
4410 104 177 
4411 177 102 
4412 102 104 
4413 104 165 
4414 165 177 
4415 177 104 
4416 64 100 
4417 100 102 
4418 102 64 
4419 85 78 
4420 78 167 
4421 167 85 
4422 35 197 
4423 197 128 
4424 128 35 
4425 35 36 
4426 36 197 
4427 197 35 
4428 198 199 
4429 199 129 
4430 129 198 
4431 200 201 
4432 201 194 
4433 194 200 
4434 198 128 
4435 128 197 
4436 197 198 
4437 113 181 
4438 181 112 
4439 112 113 
4440 113 173 
4441 173 181 
4442 181 113 
4443 68 110 
4444 110 112 
4445 112 68 
4446 200 199 
4447 199 201 
4448 201 200 
4449 22 202 
4450 202 132 
4451 132 22 
4452 22 23 
4453 23 202 
4454 202 22 
4455 203 193 
4456 193 133 
4457 133 203 
4458 204 155 
4459 155 205 
4460 205 204 
4461 203 132 
4462 132 202 
4463 202 203 
4464 109 184 
4465 184 107 
4466 107 109 
4467 109 179 
4468 179 184 
4469 184 109 
4470 72 105 
4471 105 107 
4472 107 72 
4473 155 65 
4474 65 205 
4475 205 155 
4476 9 206 
4477 206 140 
4478 140 9 
4479 9 10 
4480 10 206 
4481 206 9 
4482 207 189 
4483 189 141 
4484 141 207 
4485 189 175 
4486 175 141 
4487 141 189 
4488 207 140 
4489 140 206 
4490 206 207 
4491 208 158 
4492 158 209 
4493 209 208 
4494 137 178 
4495 178 165 
4496 165 137 
4497 178 177 
4498 177 165 
4499 165 178 
4500 137 136 
4501 136 196 
4502 196 137 
4503 158 69 
4504 69 209 
4505 209 158 
4506 129 182 
4507 182 173 
4508 173 129 
4509 182 181 
4510 181 173 
4511 173 182 
4512 129 128 
4513 128 198 
4514 198 129 
4515 210 149 
4516 149 211 
4517 211 210 
4518 133 185 
4519 185 179 
4520 179 133 
4521 149 61 
4522 61 211 
4523 211 149 
4524 185 184 
4525 184 179 
4526 179 185 
4527 212 152 
4528 152 213 
4529 213 212 
4530 152 73 
4531 73 213 
4532 213 152 
4533 88 84 
4534 84 86 
4535 86 88 
4536 88 214 
4537 214 84 
4538 84 88 
4539 78 84 
4540 84 76 
4541 76 78 
4542 133 132 
4543 132 203 
4544 203 133 
4545 84 214 
4546 214 76 
4547 76 84 
4548 80 88 
4549 88 90 
4550 90 80 
4551 80 214 
4552 214 88 
4553 88 80 
4554 82 76 
4555 76 80 
4556 80 82 
4557 76 214 
4558 214 80 
4559 80 76 
4560 215 191 
4561 191 185 
4562 185 215 
4563 215 133 
4564 133 193 
4565 193 215 
4566 141 175 
4567 175 186 
4568 186 141 
4569 175 174 
4570 174 186 
4571 186 175 
4572 141 140 
4573 140 207 
4574 207 141 
4575 193 191 
4576 191 215 
4577 215 193 
4578 185 133 
4579 133 215 
4580 215 185 
4581 216 200 
4582 200 182 
4583 182 216 
4584 216 129 
4585 129 199 
4586 199 216 
4587 199 200 
4588 200 216 
4589 216 199 
4590 182 129 
4591 129 216 
4592 216 182 
4593 23 217 
4594 217 202 
4595 202 23 
4596 24 217 
4597 217 23 
4598 23 24 
4599 36 218 
4600 218 197 
4601 197 36 
4602 37 218 
4603 218 36 
4604 36 37 
4605 219 213 
4606 213 74 
4607 74 219 
4608 220 213 
4609 213 219 
4610 219 220 
4611 221 209 
4612 209 70 
4613 70 221 
4614 89 222 
4615 222 87 
4616 87 89 
4617 223 211 
4618 211 62 
4619 62 223 
4620 224 211 
4621 211 223 
4622 223 224 
4623 10 225 
4624 225 206 
4625 206 10 
4626 11 225 
4627 225 10 
4628 10 11 
4629 49 226 
4630 226 195 
4631 195 49 
4632 50 226 
4633 226 49 
4634 49 50 
4635 227 205 
4636 205 66 
4637 66 227 
4638 228 205 
4639 205 227 
4640 227 228 
4641 67 157 
4642 157 26 
4643 26 67 
4644 26 157 
4645 157 25 
4646 25 26 
4647 63 154 
4648 154 39 
4649 39 63 
4650 39 154 
4651 154 38 
4652 38 39 
4653 71 151 
4654 151 13 
4655 13 71 
4656 13 151 
4657 151 12 
4658 12 13 
4659 59 148 
4660 148 52 
4661 52 59 
4662 52 148 
4663 148 51 
4664 51 52 
4665 229 230 
4666 230 198 
4667 198 229 
4668 231 230 
4669 230 229 
4670 229 231 
4671 232 164 
4672 164 196 
4673 196 232 
4674 233 164 
4675 164 232 
4676 232 233 
4677 234 235 
4678 235 207 
4679 207 234 
4680 236 235 
4681 235 234 
4682 234 236 
4683 237 238 
4684 238 203 
4685 203 237 
4686 239 238 
4687 238 237 
4688 237 239 
4689 81 183 
4690 183 240 
4691 240 81 
4692 240 183 
4693 183 188 
4694 188 240 
4695 222 241 
4696 241 87 
4697 87 222 
4698 188 242 
4699 242 240 
4700 240 188 
4701 221 243 
4702 243 209 
4703 209 221 
4704 77 190 
4705 190 244 
4706 244 77 
4707 231 245 
4708 245 230 
4709 230 231 
4710 199 198 
4711 198 230 
4712 230 199 
4713 85 194 
4714 194 246 
4715 246 85 
4716 221 247 
4717 247 243 
4718 243 221 
4719 239 159 
4720 159 158 
4721 158 239 
4722 245 201 
4723 201 230 
4724 230 245 
4725 201 199 
4726 199 230 
4727 230 201 
4728 241 210 
4729 210 172 
4730 172 241 
4731 231 156 
4732 156 155 
4733 155 231 
4734 248 192 
4735 192 238 
4736 238 248 
4737 149 210 
4738 210 233 
4739 233 149 
4740 240 212 
4741 212 170 
4742 170 240 
4743 233 150 
4744 150 149 
4745 149 233 
4746 192 193 
4747 193 238 
4748 238 192 
4749 232 226 
4750 226 233 
4751 233 232 
4752 242 188 
4753 188 235 
4754 235 242 
4755 232 196 
4756 196 195 
4757 195 232 
4758 242 212 
4759 212 240 
4760 240 242 
4761 195 226 
4762 226 232 
4763 232 195 
4764 244 208 
4765 208 168 
4766 168 244 
4767 188 189 
4768 189 235 
4769 235 188 
4770 222 163 
4771 163 241 
4772 241 222 
4773 222 89 
4774 89 176 
4775 176 222 
4776 233 210 
4777 210 162 
4778 162 233 
4779 239 248 
4780 248 238 
4781 238 239 
4782 162 210 
4783 210 241 
4784 241 162 
4785 193 203 
4786 203 238 
4787 238 193 
4788 246 204 
4789 204 161 
4790 161 246 
4791 234 225 
4792 225 236 
4793 236 234 
4794 176 163 
4795 163 222 
4796 222 176 
4797 234 207 
4798 207 206 
4799 206 234 
4800 239 158 
4801 158 249 
4802 249 239 
4803 206 225 
4804 225 234 
4805 234 206 
4806 248 208 
4807 208 244 
4808 244 248 
4809 159 24 
4810 24 25 
4811 25 159 
4812 37 156 
4813 156 218 
4814 218 37 
4815 236 153 
4816 153 152 
4817 152 236 
4818 218 156 
4819 156 231 
4820 231 218 
4821 156 37 
4822 37 38 
4823 38 156 
4824 225 153 
4825 153 236 
4826 236 225 
4827 24 159 
4828 159 217 
4829 217 24 
4830 11 153 
4831 153 225 
4832 225 11 
4833 224 183 
4834 183 171 
4835 171 224 
4836 217 159 
4837 159 239 
4838 239 217 
4839 208 248 
4840 248 249 
4841 249 208 
4842 171 172 
4843 172 224 
4844 224 171 
4845 220 190 
4846 190 169 
4847 169 220 
4848 229 218 
4849 218 231 
4850 231 229 
4851 229 198 
4852 198 197 
4853 197 229 
4854 169 170 
4855 170 220 
4856 220 169 
4857 247 194 
4858 194 167 
4859 167 247 
4860 197 218 
4861 218 229 
4862 229 197 
4863 148 150 
4864 150 51 
4865 51 148 
4866 167 168 
4867 168 247 
4868 247 167 
4869 228 176 
4870 176 160 
4871 160 228 
4872 148 59 
4873 59 61 
4874 61 148 
4875 163 162 
4876 162 241 
4877 241 163 
4878 160 161 
4879 161 228 
4880 228 160 
4881 244 190 
4882 190 192 
4883 192 244 
4884 249 158 
4885 158 208 
4886 208 249 
4887 237 217 
4888 217 239 
4889 239 237 
4890 245 204 
4891 204 246 
4892 246 245 
4893 153 11 
4894 11 12 
4895 12 153 
4896 237 203 
4897 203 202 
4898 202 237 
4899 202 217 
4900 217 237 
4901 237 202 
4902 78 85 
4903 85 84 
4904 84 78 
4905 150 50 
4906 50 51 
4907 51 150 
4908 82 77 
4909 77 76 
4910 76 82 
4911 86 89 
4912 89 88 
4913 88 86 
4914 90 81 
4915 81 80 
4916 80 90 
4917 227 180 
4918 180 228 
4919 228 227 
4920 227 66 
4921 66 178 
4922 178 227 
4923 178 180 
4924 180 227 
4925 227 178 
4926 191 190 
4927 190 220 
4928 220 191 
4929 221 200 
4930 200 247 
4931 247 221 
4932 221 70 
4933 70 182 
4934 182 221 
4935 182 200 
4936 200 221 
4937 221 182 
4938 200 194 
4939 194 247 
4940 247 200 
4941 223 187 
4942 187 224 
4943 224 223 
4944 223 62 
4945 62 175 
4946 175 223 
4947 187 175 
4948 175 189 
4949 189 187 
4950 187 183 
4951 183 224 
4952 224 187 
4953 175 187 
4954 187 223 
4955 223 175 
4956 219 191 
4957 191 220 
4958 220 219 
4959 180 178 
4960 178 166 
4961 166 180 
4962 180 176 
4963 176 228 
4964 228 180 
4965 219 74 
4966 74 185 
4967 185 219 
4968 185 191 
4969 191 219 
4970 219 185 
4971 73 74 
4972 74 213 
4973 213 73 
4974 249 248 
4975 248 239 
4976 239 249 
4977 75 77 
4978 77 244 
4979 244 75 
4980 244 168 
4981 168 75 
4982 75 244 
4983 69 70 
4984 70 209 
4985 209 69 
4986 236 152 
4987 152 250 
4988 250 236 
4989 83 85 
4990 85 246 
4991 246 83 
4992 246 161 
4993 161 83 
4994 83 246 
4995 61 62 
4996 62 211 
4997 211 61 
4998 212 242 
4999 242 250 
5000 250 212 
5001 201 245 
5002 245 246 
5003 246 201 
5004 250 152 
5005 152 212 
5006 212 250 
5007 65 66 
5008 66 205 
5009 205 65 
5010 250 242 
5011 242 236 
5012 236 250 
5013 246 194 
5014 194 201 
5015 201 246 
5016 231 155 
5017 155 251 
5018 251 231 
5019 189 207 
5020 207 235 
5021 235 189 
5022 236 242 
5023 242 235 
5024 235 236 
5025 79 81 
5026 81 240 
5027 240 79 
5028 240 170 
5029 170 79 
5030 79 240 
5031 157 67 
5032 67 69 
5033 69 157 
5034 157 159 
5035 159 25 
5036 25 157 
5037 204 245 
5038 245 251 
5039 251 204 
5040 241 172 
5041 172 87 
5042 87 241 
5043 166 196 
5044 196 164 
5045 164 166 
5046 233 162 
5047 162 164 
5048 164 233 
5049 50 150 
5050 150 226 
5051 226 50 
5052 226 150 
5053 150 233 
5054 233 226 
5055 154 63 
5056 63 65 
5057 65 154 
5058 154 156 
5059 156 38 
5060 38 154 
5061 192 248 
5062 248 244 
5063 244 192 
5064 251 155 
5065 155 204 
5066 204 251 
5067 151 71 
5068 71 73 
5069 73 151 
5070 151 153 
5071 153 12 
5072 12 151 
5073 228 161 
5074 161 252 
5075 252 228 
5076 204 205 
5077 205 252 
5078 252 204 
5079 252 161 
5080 161 204 
5081 204 252 
5082 252 205 
5083 205 228 
5084 228 252 
5085 220 170 
5086 170 253 
5087 253 220 
5088 212 213 
5089 213 253 
5090 253 212 
5091 253 170 
5092 170 212 
5093 212 253 
5094 253 213 
5095 213 220 
5096 220 253 
5097 247 168 
5098 168 243 
5099 243 247 
5100 208 209 
5101 209 243 
5102 243 208 
5103 243 168 
5104 168 208 
5105 208 243 
5106 251 245 
5107 245 231 
5108 231 251 
5109 224 172 
5110 172 254 
5111 254 224 
5112 210 211 
5113 211 254 
5114 254 210 
5115 254 172 
5116 172 210 
5117 210 254 
5118 254 211 
5119 211 224 
5120 224 254 
2 1 2 450
57 57 58 30 
58 58 29 30 
59 59 60 61 
60 60 62 61 
61 63 64 65 
62 64 66 65 
63 67 68 69 
64 68 70 69 
65 71 72 73 
66 72 74 73 
67 75 76 77 
68 75 78 76 
69 79 80 81 
70 79 82 80 
71 83 84 85 
72 83 86 84 
73 87 88 89 
74 87 90 88 
75 58 91 92 
76 93 92 91 
77 94 93 91 
78 91 32 94 
79 95 96 97 
80 98 99 96 
81 96 99 97 
82 100 101 102 
83 103 104 101 
84 101 104 102 
85 105 106 107 
86 108 109 106 
87 106 109 107 
88 110 111 112 
89 111 113 112 
90 92 113 111 
91 31 91 57 
92 91 31 32 
93 114 103 115 
94 103 114 104 
95 116 108 117 
96 108 116 109 
97 118 98 119 
98 98 118 99 
99 58 111 29 
100 45 115 120 
101 103 121 120 
102 115 103 120 
103 6 119 122 
104 98 123 122 
105 119 98 122 
106 19 117 124 
107 108 125 124 
108 117 108 124 
109 126 127 128 
110 129 126 128 
111 130 131 132 
112 133 130 132 
113 134 135 136 
114 137 134 136 
115 138 139 140 
116 141 138 140 
117 126 93 94 
118 130 116 142 
119 142 116 117 
120 134 114 143 
121 143 114 115 
122 138 118 144 
123 144 118 119 
124 145 96 55 
125 54 55 96 
126 146 101 42 
127 41 42 101 
128 147 106 16 
129 46 47 135 
130 15 16 106 
131 28 29 111 
132 103 101 146 
133 121 103 146 
134 108 106 147 
135 125 108 147 
136 33 34 127 
137 98 96 145 
138 123 98 145 
139 117 19 142 
140 19 20 142 
141 115 45 143 
142 45 46 143 
143 20 21 131 
144 119 6 144 
145 6 7 144 
146 32 33 94 
147 58 92 111 
148 58 57 91 
149 111 110 28 
150 7 8 139 
151 43 4 121 
152 121 4 44 
153 44 120 121 
154 17 2 125 
155 95 53 54 
156 125 2 18 
157 18 124 125 
158 56 1 123 
159 123 1 5 
160 5 122 123 
161 100 40 41 
162 96 95 54 
163 101 100 41 
164 106 105 15 
165 145 56 123 
166 55 56 145 
167 110 27 28 
168 146 43 121 
169 42 43 146 
170 147 17 125 
171 16 17 147 
172 57 3 31 
173 105 14 15 
174 30 3 57 
175 33 127 94 
176 126 94 127 
177 20 131 142 
178 130 142 131 
179 46 135 143 
180 134 143 135 
181 7 139 144 
182 138 144 139 
183 148 149 150 
184 148 61 149 
185 151 152 153 
186 151 73 152 
187 154 155 156 
188 154 65 155 
189 157 158 159 
190 157 69 158 
191 160 83 161 
192 160 86 83 
193 47 136 135 
194 47 48 136 
195 162 163 164 
196 137 165 134 
197 163 166 164 
198 167 75 168 
199 167 78 75 
200 169 79 170 
201 169 82 79 
202 34 128 127 
203 34 35 128 
204 171 87 172 
205 129 173 126 
206 62 174 175 
207 171 90 87 
208 92 93 113 
209 176 89 160 
210 66 177 178 
211 21 132 131 
212 21 22 132 
213 89 86 160 
214 133 179 130 
215 5 6 122 
216 180 163 176 
217 70 181 182 
218 180 166 163 
219 183 81 171 
220 8 140 139 
221 8 9 140 
222 74 184 185 
223 141 186 138 
224 18 19 124 
225 81 90 171 
226 95 59 53 
227 59 52 53 
228 134 165 114 
229 165 104 114 
230 187 188 183 
231 187 189 188 
232 100 63 40 
233 63 39 40 
234 126 173 93 
235 173 113 93 
236 190 77 169 
237 77 82 169 
238 110 67 27 
239 67 26 27 
240 130 179 116 
241 179 109 116 
242 44 45 120 
243 191 192 190 
244 105 71 14 
245 71 13 14 
246 138 186 118 
247 186 99 118 
248 191 193 192 
249 97 62 60 
250 97 174 62 
251 59 95 60 
252 102 66 64 
253 102 177 66 
254 63 100 64 
255 112 70 68 
256 112 181 70 
257 67 110 68 
258 107 74 72 
259 107 184 74 
260 71 105 72 
261 99 174 97 
262 99 186 174 
263 60 95 97 
264 194 85 167 
265 48 195 136 
266 48 49 195 
267 196 166 137 
268 166 178 137 
269 196 136 195 
270 104 177 102 
271 104 165 177 
272 64 100 102 
273 85 78 167 
274 35 197 128 
275 35 36 197 
276 198 199 129 
277 200 201 194 
278 198 128 197 
279 113 181 112 
280 113 173 181 
281 68 110 112 
282 200 199 201 
283 22 202 132 
284 22 23 202 
285 203 193 133 
286 204 155 205 
287 203 132 202 
288 109 184 107 
289 109 179 184 
290 72 105 107 
291 155 65 205 
292 9 206 140 
293 9 10 206 
294 207 189 141 
295 189 175 141 
296 207 140 206 
297 208 158 209 
298 137 178 165 
299 178 177 165 
300 137 136 196 
301 158 69 209 
302 129 182 173 
303 182 181 173 
304 129 128 198 
305 210 149 211 
306 133 185 179 
307 149 61 211 
308 185 184 179 
309 212 152 213 
310 152 73 213 
311 88 84 86 
312 88 214 84 
313 78 84 76 
314 133 132 203 
315 84 214 76 
316 80 88 90 
317 80 214 88 
318 82 76 80 
319 76 214 80 
320 215 191 185 
321 215 133 193 
322 141 175 186 
323 175 174 186 
324 141 140 207 
325 193 191 215 
326 185 133 215 
327 216 200 182 
328 216 129 199 
329 199 200 216 
330 182 129 216 
331 23 217 202 
332 24 217 23 
333 36 218 197 
334 37 218 36 
335 219 213 74 
336 220 213 219 
337 221 209 70 
338 89 222 87 
339 223 211 62 
340 224 211 223 
341 10 225 206 
342 11 225 10 
343 49 226 195 
344 50 226 49 
345 227 205 66 
346 228 205 227 
347 67 157 26 
348 26 157 25 
349 63 154 39 
350 39 154 38 
351 71 151 13 
352 13 151 12 
353 59 148 52 
354 52 148 51 
355 229 230 198 
356 231 230 229 
357 232 164 196 
358 233 164 232 
359 234 235 207 
360 236 235 234 
361 237 238 203 
362 239 238 237 
363 81 183 240 
364 240 183 188 
365 222 241 87 
366 188 242 240 
367 221 243 209 
368 77 190 244 
369 231 245 230 
370 199 198 230 
371 85 194 246 
372 221 247 243 
373 239 159 158 
374 245 201 230 
375 201 199 230 
376 241 210 172 
377 231 156 155 
378 248 192 238 
379 149 210 233 
380 240 212 170 
381 233 150 149 
382 192 193 238 
383 232 226 233 
384 242 188 235 
385 232 196 195 
386 242 212 240 
387 195 226 232 
388 244 208 168 
389 188 189 235 
390 222 163 241 
391 222 89 176 
392 233 210 162 
393 239 248 238 
394 162 210 241 
395 193 203 238 
396 246 204 161 
397 234 225 236 
398 176 163 222 
399 234 207 206 
400 239 158 249 
401 206 225 234 
402 248 208 244 
403 159 24 25 
404 37 156 218 
405 236 153 152 
406 218 156 231 
407 156 37 38 
408 225 153 236 
409 24 159 217 
410 11 153 225 
411 224 183 171 
412 217 159 239 
413 208 248 249 
414 171 172 224 
415 220 190 169 
416 229 218 231 
417 229 198 197 
418 169 170 220 
419 247 194 167 
420 197 218 229 
421 148 150 51 
422 167 168 247 
423 228 176 160 
424 148 59 61 
425 163 162 241 
426 160 161 228 
427 244 190 192 
428 249 158 208 
429 237 217 239 
430 245 204 246 
431 153 11 12 
432 237 203 202 
433 202 217 237 
434 78 85 84 
435 150 50 51 
436 82 77 76 
437 86 89 88 
438 90 81 80 
439 227 180 228 
440 227 66 178 
441 178 180 227 
442 191 190 220 
443 221 200 247 
444 221 70 182 
445 182 200 221 
446 200 194 247 
447 223 187 224 
448 223 62 175 
449 187 175 189 
450 187 183 224 
451 175 187 223 
452 219 191 220 
453 180 178 166 
454 180 176 228 
455 219 74 185 
456 185 191 219 
457 73 74 213 
458 249 248 239 
459 75 77 244 
460 244 168 75 
461 69 70 209 
462 236 152 250 
463 83 85 246 
464 246 161 83 
465 61 62 211 
466 212 242 250 
467 201 245 246 
468 250 152 212 
469 65 66 205 
470 250 242 236 
471 246 194 201 
472 231 155 251 
473 189 207 235 
474 236 242 235 
475 79 81 240 
476 240 170 79 
477 157 67 69 
478 157 159 25 
479 204 245 251 
480 241 172 87 
481 166 196 164 
482 233 162 164 
483 50 150 226 
484 226 150 233 
485 154 63 65 
486 154 156 38 
487 192 248 244 
488 251 155 204 
489 151 71 73 
490 151 153 12 
491 228 161 252 
492 204 205 252 
493 252 161 204 
494 252 205 228 
495 220 170 253 
496 212 213 253 
497 253 170 212 
498 253 213 220 
499 247 168 243 
500 208 209 243 
501 243 168 208 
502 251 245 231 
503 224 172 254 
504 210 211 254 
505 254 172 210 
506 254 211 224 
$EndElements
