$MeshFormat
4.1 0 8
$EndMeshFormat
$PhysicalNames
6
1 1 "Γ¹"
1 2 "Γ²"
1 3 "Γ³"
1 4 "Γ⁴"
1 6 "Γ"
2 5 "Ω"
$EndPhysicalNames
$Entities
4 5 1 0
1 0 0 0 0 
2 1 0 0 0 
3 1 1 0 0 
4 0 1 0 0 
1 0 0 0 1 0 0 1 1 2 1 -2 
2 1 0 0 1 1 0 1 2 2 2 -3 
3 0 1 0 1 1 0 1 3 2 3 -4 
4 0 0 0 0 1 0 1 4 2 4 -1 
5 0 0 0 1 1 0 1 6 0 
1 0 0 0 1 1 0 1 5 4 1 2 3 4 
$EndEntities
$Nodes
10 657 1 657
0 1 0 1
1
0 0 0
0 2 0 1
2
1 0 0
0 3 0 1
3
1 1 0
0 4 0 1
4
0 1 0
1 1 0 21
5
6
7
8
9
10
11
12
13
14
15
16
17
18
19
20
21
22
23
24
25
0.04545454545445519 0 0
0.0909090909089194 0 0
0.1363636363633797 0 0
0.1818181818177927 0 0
0.2272727272722056 0 0
0.2727272727266185 0 0
0.3181818181810314 0 0
0.3636363636354443 0 0
0.4090909090898573 0 0
0.4545454545442705 0 0
0.4999999999986945 0 0
0.5454545454533488 0 0
0.5909090909080139 0 0
0.636363636362679 0 0
0.6818181818173441 0 0
0.7272727272720092 0 0
0.7727272727266743 0 0
0.8181818181813394 0 0
0.8636363636360046 0 0
0.9090909090906697 0 0
0.9545454545453349 0 0
1 2 0 21
26
27
28
29
30
31
32
33
34
35
36
37
38
39
40
41
42
43
44
45
46
1 0.04545454545445519 0
1 0.0909090909089194 0
1 0.1363636363633797 0
1 0.1818181818177927 0
1 0.2272727272722056 0
1 0.2727272727266185 0
1 0.3181818181810314 0
1 0.3636363636354443 0
1 0.4090909090898573 0
1 0.4545454545442705 0
1 0.4999999999986945 0
1 0.5454545454533488 0
1 0.5909090909080139 0
1 0.636363636362679 0
1 0.6818181818173441 0
1 0.7272727272720092 0
1 0.7727272727266743 0
1 0.8181818181813394 0
1 0.8636363636360046 0
1 0.9090909090906697 0
1 0.9545454545453349 0
1 3 0 21
47
48
49
50
51
52
53
54
55
56
57
58
59
60
61
62
63
64
65
66
67
0.9545454545452652 1 0
0.9090909090905305 1 0
0.8636363636359219 1 0
0.8181818181816918 1 0
0.7727272727274616 1 0
0.7272727272732314 1 0
0.6818181818190012 1 0
0.6363636363647711 1 0
0.590909090910541 1 0
0.5454545454563109 1 0
0.500000000002059 1 0
0.4545454545473461 1 0
0.4090909090926116 1 0
0.3636363636378769 1 0
0.3181818181831423 1 0
0.2727272727284077 1 0
0.227272727273673 1 0
0.1818181818189384 1 0
0.1363636363642038 1 0
0.09090909090946919 1 0
0.04545454545473471 1 0
1 4 0 21
68
69
70
71
72
73
74
75
76
77
78
79
80
81
82
83
84
85
86
87
88
0 0.9545454545452652 0
0 0.9090909090905305 0
0 0.8636363636359219 0
0 0.8181818181816918 0
0 0.7727272727274616 0
0 0.7272727272732314 0
0 0.6818181818190012 0
0 0.6363636363647711 0
0 0.590909090910541 0
0 0.5454545454563109 0
0 0.500000000002059 0
0 0.4545454545473461 0
0 0.4090909090926116 0
0 0.3636363636378769 0
0 0.3181818181831423 0
0 0.2727272727284077 0
0 0.227272727273673 0
0 0.1818181818189384 0
0 0.1363636363642038 0
0 0.09090909090946919 0
0 0.04545454545473471 0
1 5 0 0
2 1 0 569
89
90
91
92
93
94
95
96
97
98
99
100
101
102
103
104
105
106
107
108
109
110
111
112
113
114
115
116
117
118
119
120
121
122
123
124
125
126
127
128
129
130
131
132
133
134
135
136
137
138
139
140
141
142
143
144
145
146
147
148
149
150
151
152
153
154
155
156
157
158
159
160
161
162
163
164
165
166
167
168
169
170
171
172
173
174
175
176
177
178
179
180
181
182
183
184
185
186
187
188
189
190
191
192
193
194
195
196
197
198
199
200
201
202
203
204
205
206
207
208
209
210
211
212
213
214
215
216
217
218
219
220
221
222
223
224
225
226
227
228
229
230
231
232
233
234
235
236
237
238
239
240
241
242
243
244
245
246
247
248
249
250
251
252
253
254
255
256
257
258
259
260
261
262
263
264
265
266
267
268
269
270
271
272
273
274
275
276
277
278
279
280
281
282
283
284
285
286
287
288
289
290
291
292
293
294
295
296
297
298
299
300
301
302
303
304
305
306
307
308
309
310
311
312
313
314
315
316
317
318
319
320
321
322
323
324
325
326
327
328
329
330
331
332
333
334
335
336
337
338
339
340
341
342
343
344
345
346
347
348
349
350
351
352
353
354
355
356
357
358
359
360
361
362
363
364
365
366
367
368
369
370
371
372
373
374
375
376
377
378
379
380
381
382
383
384
385
386
387
388
389
390
391
392
393
394
395
396
397
398
399
400
401
402
403
404
405
406
407
408
409
410
411
412
413
414
415
416
417
418
419
420
421
422
423
424
425
426
427
428
429
430
431
432
433
434
435
436
437
438
439
440
441
442
443
444
445
446
447
448
449
450
451
452
453
454
455
456
457
458
459
460
461
462
463
464
465
466
467
468
469
470
471
472
473
474
475
476
477
478
479
480
481
482
483
484
485
486
487
488
489
490
491
492
493
494
495
496
497
498
499
500
501
502
503
504
505
506
507
508
509
510
511
512
513
514
515
516
517
518
519
520
521
522
523
524
525
526
527
528
529
530
531
532
533
534
535
536
537
538
539
540
541
542
543
544
545
546
547
548
549
550
551
552
553
554
555
556
557
558
559
560
561
562
563
564
565
566
567
568
569
570
571
572
573
574
575
576
577
578
579
580
581
582
583
584
585
586
587
588
589
590
591
592
593
594
595
596
597
598
599
600
601
602
603
604
605
606
607
608
609
610
611
612
613
614
615
616
617
618
619
620
621
622
623
624
625
626
627
628
629
630
631
632
633
634
635
636
637
638
639
640
641
642
643
644
645
646
647
648
649
650
651
652
653
654
655
656
657
0.03999315774116202 0.9575310831679898 0
0.06982944643386421 0.958108851714081 0
0.1544983198222232 0.6709359186709395 0
0.1321946354072482 0.6434623047257444 0
0.1716282947764051 0.6277684593966586 0
0.1080354440998682 0.6482438765701981 0
0.1921470369970942 0.5935100168902259 0
0.2005734022709165 0.6465812069519521 0
0.2230944087035223 0.6158688124847003 0
0.3980554696083516 0.17351099633121 0
0.3565648794251623 0.1843126172998387 0
0.3438080794297559 0.1417834279033937 0
0.4085848704958899 0.217956780799692 0
0.2520521347904 0.6948435168834608 0
0.2010254281574715 0.6947505705323807 0
0.226773567471685 0.6689337395190019 0
0.186447667783597 0.6712100754675483 0
0.3662555899462042 0.2301345077658042 0
0.3160821232971895 0.2423912535989062 0
0.3361781378611816 0.2899104613868408 0
0.3542742900403099 0.7607694893195582 0
0.3198279885207698 0.7790330181224144 0
0.3375359403706417 0.739962895090623 0
0.3386142140061978 0.8132059289612343 0
0.2354370017056423 0.3397332852829541 0
0.2180679984079537 0.3209770888816511 0
0.2593571416482749 0.3131651682116313 0
0.1917209586459772 0.3241531069529738 0
0.2791117941892648 0.6094225275016131 0
0.2521644344590848 0.6400750555932839 0
0.2481687021886053 0.5849435507976892 0
0.1909284779272936 0.5461920588410938 0
0.1571539892075486 0.5654739885093555 0
0.1408221336809793 0.6129998213733332 0
0.8593792684704474 0.9690639730455505 0
0.4681701007334706 0.07976438952941738 0
0.4625694666211793 0.04061511461731319 0
0.5072726049225986 0.08484601946674726 0
0.9023638227291387 0.9621619543303344 0
0.6527762779663763 0.5067458753261196 0
0.6359181681856841 0.4877639635542688 0
0.6396297568418083 0.4611275250337594 0
0.9500243478982457 0.9579730645908295 0
0.9421282109047208 0.9183592671543216 0
0.03801203835727766 0.9146861177246343 0
0.0821770908212673 0.9218386176510739 0
0.07026905150662072 0.8733009230987285 0
0.03611599715241793 0.8721740761722729 0
0.04434770736118627 0.122362557362647 0
0.09930932644771694 0.1446590395651858 0
0.05385817337080778 0.1709842893684794 0
0.08503067699612948 0.06298498981203823 0
0.09007449954094388 0.1085098160767625 0
0.8838073241575209 0.05237451892471717 0
0.8680248593867063 0.08783908201059254 0
0.8467963127021274 0.04289114567698663 0
0.9209287136925929 0.07733540607036074 0
0.892789669753198 0.09925997202722039 0
0.1177609046137294 0.9465436436533387 0
0.1341472452604751 0.9105351315399851 0
0.1542151160272928 0.9564045783864012 0
0.1098199314690659 0.8989481029987931 0
0.5112621412333923 0.9229947709319394 0
0.507484653043102 0.9611513950853833 0
0.467519407944174 0.926417730400338 0
0.9322232192314106 0.125005113291997 0
0.1273420094301067 0.06398910883175797 0
0.1044068800519933 0.03258658602179085 0
0.06838713324341876 0.03530046761763146 0
0.03995906990354362 0.03957108882863521 0
0.608286035798238 0.4600236104601464 0
0.9608797673499865 0.04205008004363298 0
0.963381173080917 0.08466809890522729 0
0.9164017896604721 0.4830246298668807 0
0.9543071818114245 0.4931808123638017 0
0.9150983412559897 0.5323666165879491 0
0.9391963586198574 0.1546089516693417 0
0.9652754263557561 0.12701255367058 0
0.4833238532784928 0.4606576050551895 0
0.4733561108464379 0.5047562604985144 0
0.06291880599064034 0.8435587498104902 0
0.1536178399788445 0.05966893238337171 0
0.1312559511320293 0.03242317583483482 0
0.9573035091500962 0.8431982425694823 0
0.9591845705905305 0.8785912807170608 0
0.9302828125954729 0.8848269502456496 0
0.9139347337844764 0.8558961398567894 0
0.8043269706158389 0.9582619251667948 0
0.8200629453935299 0.9107003311606474 0
0.8439463289804059 0.939008116422747 0
0.8274879194808946 0.9769698801552125 0
0.952030801229827 0.2098262434995734 0
0.9206516679890592 0.1734753647026739 0
0.9640602746340245 0.1670176526200507 0
0.04846460494495727 0.7888657283168119 0
0.08104448529725425 0.8244604724700264 0
0.03705625257744634 0.8319504247901583 0
0.1958596661687274 0.04833738759688085 0
0.1680982541623115 0.07774536581267456 0
0.1653181459556614 0.03531421743771208 0
0.8887513952139735 0.9189800284516383 0
0.9013707142136091 0.889664898888072 0
0.04100737757950112 0.07980988614891865 0
0.9315432884934033 0.0407805813011033 0
0.3955930064770408 0.3252918207083543 0
0.4344861438230614 0.3507882308462275 0
0.3863308526945099 0.3722145208966767 0
0.4697023393583252 0.6710331069026649 0
0.4488091578161982 0.6354695663863463 0
0.4994156524063609 0.6506548877686832 0
0.4703882598698663 0.6078274995681647 0
0.5026278819873778 0.5114484558373202 0
0.9460486100750837 0.3145065470692331 0
0.9583073783200204 0.3630219663633667 0
0.9077343911411546 0.3495173607307435 0
0.4265275379610163 0.6697783612822543 0
0.1098038853407514 0.8618382938606963 0
0.4402626566900201 0.1639566251224546 0
0.4329735648542978 0.120805386542086 0
0.3823061505628236 0.1207561361421736 0
0.2822023852618217 0.2804345700168481 0
0.3057993703870848 0.3009221284213461 0
0.2265133434459553 0.2956035358251546 0
0.7401698428574456 0.8689526026620711 0
0.7682054609022333 0.8398815489351965 0
0.793752765372934 0.8813196788958683 0
0.8528083462923512 0.8891152644053664 0
0.808007495243251 0.8361245239410888 0
0.5120264811855886 0.5457811717975004 0
0.468841156306203 0.5514286054410659 0
0.4166491801387191 0.5968826869496796 0
0.5301630700444416 0.5996134904597542 0
0.2160368438305864 0.5629174615312796 0
0.1648954122564756 0.430971233432865 0
0.1849848422864639 0.3979733336703821 0
0.8923475596855852 0.1359214413444571 0
0.4171239559335637 0.9618390010863007 0
0.4247317252250316 0.9256680370464481 0
0.201926551637857 0.3609976672273518 0
0.4870963646816632 0.7743993588624543 0
0.445362236960071 0.7651579690371448 0
0.4860368145539667 0.743551799641511 0
0.4573023651178186 0.7275832937540575 0
0.07424010363878418 0.4721978375299123 0
0.05147322150993138 0.4315097302461948 0
0.08072716765103011 0.4186236159725619 0
0.1325157096238123 0.09523029351312526 0
0.3216367676888593 0.4142056941212324 0
0.3644376929451221 0.4376431449997011 0
0.3294789346194945 0.4485489676809583 0
0.4905829329625067 0.7020356238778328 0
0.4394110372822841 0.6924514890029351 0
0.04449962520611894 0.2206123648924663 0
0.5098452010080374 0.7306293007811774 0
0.1950986120237428 0.9579574020965581 0
0.5425616848150551 0.7140321713798504 0
0.5587678648117589 0.7459044686436794 0
0.9587607956283856 0.8031872406960002 0
0.5935494164355399 0.7392781781324697 0
0.6535520437238875 0.3416014592447108 0
0.6251789238663517 0.3015553893004754 0
0.6616033734588409 0.3135369908308397 0
0.8057582664817613 0.04177890118061117 0
0.6188992892819176 0.3490007584822543 0
0.1148386192185546 0.177380640047809 0
0.08597574886636018 0.1890411747368952 0
0.1708033294518329 0.8931690196886822 0
0.1657751764932695 0.9184336892168964 0
0.1484875835771637 0.8797165860639534 0
0.8939032892409595 0.8271419859386777 0
0.9209986692995829 0.8196631764495296 0
0.8827067194980698 0.8699916053251302 0
0.8312063597609312 0.1045892828332893 0
0.8359846825632806 0.08002624331281664 0
0.8535110067097619 0.1177923798175156 0
0.4087886619073838 0.7122467797603099 0
0.4242707824909143 0.7315725516913536 0
0.04193380277489005 0.7372128037607175 0
0.08022890540749446 0.7750961574233188 0
0.1048556154052404 0.7946821056758679 0
0.1379569023284563 0.8226292093400644 0
0.7414766416986054 0.9562375542650814 0
0.7924948030144949 0.9270961114185675 0
0.8270018869080829 0.8601326678364396 0
0.6196116673895888 0.5786656041419352 0
0.6161127974681722 0.6160444238561362 0
0.5859756206027062 0.6075288001813188 0
0.9544438630496002 0.2623981410151583 0
0.9194915973885418 0.2222356104723884 0
0.8954727141478672 0.2017489070728484 0
0.8625459254623643 0.1732103197680043 0
0.656424447737297 0.5802471198810547 0
0.2449686725692457 0.04327706685565659 0
0.2255204985852464 0.06970396186203202 0
0.1944989871168022 0.1106950916690861 0
0.1443121017049239 0.1284255320589115 0
0.08716523552869331 0.2179302797686054 0
0.04371869465075309 0.2649053629406383 0
0.2020730359617564 0.9169732581229253 0
0.2389283473581767 0.9576775553956257 0
0.9189658944714522 0.7937643900399775 0
0.958667236008265 0.7621696994888163 0
0.799923956567399 0.08121086439453097 0
0.7610736601263769 0.04373605587622606 0
0.1311460379206313 0.2129947076675184 0
0.1595999807912946 0.1623852486306482 0
0.1953962321815772 0.8804082971469229 0
0.1711376410311351 0.8505588081954529 0
0.8789908123992882 0.7940325918379355 0
0.8595379707070743 0.841456891827872 0
0.8067934304984274 0.1156665879720308 0
0.8299388768637405 0.1448367928538697 0
0.0812107678125444 0.7417789683451277 0
0.03952704953132027 0.6911570728000013 0
0.1283115089250311 0.747338991753395 0
0.1659038183563127 0.7874495504949985 0
0.7521867777136455 0.9130320955825372 0
0.684743545213041 0.9472235726733781 0
0.7236918524559506 0.8129894932053316 0
0.7778483577644869 0.7898587333254914 0
0.9139328373440508 0.2531702159330594 0
0.8692232661371939 0.2427664381297034 0
0.8324351897365009 0.2057712926579338 0
0.2517495397192806 0.08603004827327479 0
0.2894459119504598 0.0617156678565032 0
0.2501614958672443 0.1269210618977107 0
0.19201782734589 0.1485367976634736 0
0.08976168731257016 0.2589266196102756 0
0.04168211611366746 0.3092353573391719 0
0.2454093213313018 0.9134487221345186 0
0.2839422956708297 0.9592636838148121 0
0.9172138863280335 0.7560395191888239 0
0.9586173686663961 0.7191635152288395 0
0.7580072044960324 0.08612378145551301 0
0.7051027019513468 0.04727162251237613 0
0.1384435140843877 0.2534280532969735 0
0.1859085291025368 0.2023908467970805 0
0.2474121357739893 0.8548305576163955 0
0.1999239751776722 0.8191710483457149 0
0.8746035367860754 0.7549003690619229 0
0.8297557298641394 0.8042634832973388 0
0.7598459933175397 0.1346657393126487 0
0.797511270566294 0.173794923688688 0
0.07845230573315164 0.6955174716554874 0
0.6653675969332521 0.4201269160142153 0
0.6410376169100225 0.4339940635626371 0
0.5282902267649295 0.4249284403915541 0
0.4920898124138378 0.418533486390155 0
0.5275949389753105 0.3938980897738976 0
0.1708644020741571 0.7182958768166445 0
0.1969441305556674 0.7544534206834613 0
0.07357561037231697 0.6491390620674747 0
0.7008436724410377 0.9015969829112334 0
0.6370855243132731 0.9595329823245434 0
0.6502273379826053 0.9121804542574655 0
0.2998889775232261 0.5096498942338866 0
0.2739887063643545 0.552709427792289 0
0.2560875527713261 0.5076363904005329 0
0.9015575280108987 0.2916351163165027 0
0.3075148319049481 0.5777073131104544 0
0.8288284818227429 0.2699190920323392 0
0.8012945089116618 0.2374263903884568 0
0.2980998692080699 0.1150239253058526 0
0.7858716751067972 0.7476515417194046 0
0.8303117889459459 0.753481538478417 0
0.3122141377460007 0.3806994516271724 0
0.3556771881831922 0.4053608404987503 0
0.2768794859473245 0.1679382914478028 0
0.2180409929827338 0.1662849886209364 0
0.3411437950194759 0.09112289477266569 0
0.3551215581531407 0.0701049977144132 0
0.3784697574204747 0.03827385240361163 0
0.3859572939162498 0.07570818381064531 0
0.4195007413761718 0.03942776527684889 0
0.3280128034239204 0.1138324668233907 0
0.2904930118066677 0.8769972490464615 0
0.7446980171813771 0.2417309219912495 0
0.7108597899078213 0.2280689356956402 0
0.7668246116272552 0.2080601609128748 0
0.7066965918297998 0.255661702075901 0
0.9273596607332367 0.3695610110047408 0
0.957880552225255 0.405548128886375 0
0.9178817127829985 0.4014755120048512 0
0.8753977534442478 0.7138335232748616 0
0.9555667995790188 0.4492676379443284 0
0.8778787975940461 0.3263287319182784 0
0.8455750584951067 0.358993651458654 0
0.8733800760315877 0.3942621235478627 0
0.7197336194497725 0.1228928756288362 0
0.7889565064631898 0.7025706635415492 0
0.7556535496531583 0.7100310884763077 0
0.6307773085542988 0.9302966608757366 0
0.5952052750339555 0.9607910903589193 0
0.5989189406967006 0.9234394846966911 0
0.1442646165844161 0.2941357026987615 0
0.551506597943394 0.9604473218404163 0
0.6680216657590015 0.8924383246610091 0
0.6557268430251086 0.8617985911866032 0
0.6089838797234959 0.8790145383240129 0
0.9551063561050164 0.6182434689899634 0
0.9748644052334972 0.5859316666710211 0
0.1869765376646799 0.2508357207561298 0
0.2631742064957478 0.7517328835291269 0
0.2815859159971871 0.7951251577890861 0
0.2521020194362754 0.8084611467505651 0
0.3096288673175093 0.7443868856556561 0
0.6328697634785612 0.04014820183688631 0
0.5947797500090193 0.02845274062474075 0
0.298742413939809 0.8302239112244043 0
0.03532513962284167 0.5994465309115328 0
0.03519553338814897 0.5544978076951573 0
0.07132398459551115 0.5598187328123124 0
0.2478245076334072 0.1922645239048317 0
0.2261576967221707 0.2141899006186572 0
0.8339577958339225 0.7122635337537472 0
0.2754490025195513 0.2178033913181634 0
0.7189498518907906 0.181041642586872 0
0.3376499545452263 0.04176927722054867 0
0.7149649036434234 0.09299644332436541 0
0.8743605070718422 0.2799939640766961 0
0.9169861159004958 0.715011226694807 0
0.7014546464216947 0.8528714529640162 0
0.2999119119155002 0.9131246519532201 0
0.07133687029757431 0.6035921260978414 0
0.03719505790188703 0.6442512190929995 0
0.1164868325072666 0.6904732774820245 0
0.08793297419518305 0.3044787691875971 0
0.6593179005196066 0.07377610836419279 0
0.6733168891249748 0.02764007715167557 0
0.9150769302866345 0.6722855533333894 0
0.9571472673474327 0.6740176525774372 0
0.3336625850879378 0.9327632843580245 0
0.3273292535219544 0.9614968736908956 0
0.0698861765001389 0.3459766242589565 0
0.03997569915717272 0.3524603146810851 0
0.2282603030816663 0.7860559519167853 0
0.03623392416258547 0.5116926481920422 0
0.2911955142408653 0.1934262475381848 0
0.8685924293079136 0.6365323683436919 0
0.8310126560965875 0.6424437212271686 0
0.8589830946058815 0.5995699505218322 0
0.9079509834165784 0.6291175241890221 0
0.8738455870392965 0.674619545522384 0
0.4562139505242288 0.4042563424538171 0
0.4451623964322958 0.446145014647752 0
0.6396702078327133 0.1186340325947988 0
0.6337795505723414 0.09054410411782732 0
0.6764709662665963 0.1054474592414243 0
0.6551976685786567 0.1544649184248054 0
0.5958308901214947 0.1287720752991293 0
0.7376129816868303 0.7736783682842794 0
0.04208551154998393 0.3937255352389634 0
0.2266053342765988 0.7236069662887088 0
0.548316369510928 0.1014319699988675 0
0.5616467222749557 0.05016683377466583 0
0.6069586823750752 0.07833779619965645 0
0.851754889022267 0.3003547364770965 0
0.3710732785702984 0.9617262010846646 0
0.1212610309688655 0.347923740347575 0
0.7732999623218644 0.2681414484272083 0
0.3417100600660259 0.8887786229154542 0
0.1499228576808307 0.3762128989689399 0
0.08745935710872865 0.3814603553361271 0
0.1674602195676317 0.3558284708343281 0
0.1282239251468464 0.4071746653853034 0
0.6778780666534266 0.819780906150708 0
0.6449178158235074 0.8201940348192569 0
0.6433262896263487 0.7704539390068048 0
0.5970617422666085 0.7740611147485055 0
0.3701559326439939 0.4647658683725828 0
0.6695227183609263 0.1898627720324359 0
0.6743088691561978 0.2262158144922473 0
0.2399348340771529 0.2506735519480573 0
0.4207436513205274 0.3867751561075043 0
0.4675344019173684 0.3677684844694714 0
0.3659940837326026 0.8718314902970312 0
0.3733883911489255 0.9187414855638014 0
0.3557396512551778 0.8467980840860345 0
0.4049477830636908 0.8780039178065149 0
0.8082022620924014 0.6760622627586839 0
0.7632459400427269 0.6680455742740962 0
0.8212882437853478 0.3290384940008108 0
0.687135682997345 0.7910846329776021 0
0.7006986830323393 0.7534436912861426 0
0.7978994385651037 0.2983707862601536 0
0.7679378457189536 0.326015889838291 0
0.7486815283805334 0.2954064955517877 0
0.1878923925769604 0.2902540914354797 0
0.2387010265878236 0.5325402217619193 0
0.1979169335847849 0.5114415204957337 0
0.6905749317706426 0.5678318753977943 0
0.6523217883172827 0.5515217335228166 0
0.6732497155448133 0.5344511264084966 0
0.7039421430672175 0.5100578499840919 0
0.6777842522210138 0.4674682596189652 0
0.8355796939063003 0.6763213909730935 0
0.8002034500192021 0.4487336275624117 0
0.8471811724762283 0.4542458855183281 0
0.8187147973781651 0.4808851856228221 0
0.831517944602461 0.4222637375956977 0
0.6932959607785714 0.1387127186451106 0
0.4772065158854686 0.3336868093707037 0
0.4487612331070547 0.32756698751122 0
0.1561289492313296 0.3309795894134028 0
0.5294580234712541 0.3123731100732779 0
0.5152207587077425 0.3485451601175702 0
0.8035608684854048 0.5390501275617837 0
0.8494100622559893 0.5628089959714486 0
0.8148025498671359 0.572915279765679 0
0.3088080222969954 0.1537860051505708 0
0.8437001341925434 0.5180078504556411 0
0.8222951511236248 0.6073569277972076 0
0.7888276123083454 0.5796125948801168 0
0.7778465655359753 0.6105668650323153 0
0.1502694106124083 0.5171623234299164 0
0.5932038301481249 0.5364307608968754 0
0.5486892492163608 0.5264731026621584 0
0.5820600618283654 0.5076082423323867 0
0.5478562349470271 0.7867830007410973 0
0.5371090570772159 0.8400292427473637 0
0.5146367618849302 0.8062365744986505 0
0.5872970203848676 0.8190249294123459 0
0.3176666545006747 0.1920942327843052 0
0.6132230212412463 0.4959283230604353 0
0.3185979853923835 0.8616007608185635 0
0.5768845923943323 0.5691846106910119 0
0.4108197751075657 0.7544379982693229 0
0.437082456599501 0.7974326912449139 0
0.4669821095280068 0.7989327304867107 0
0.5568605927477325 0.3750061666159861 0
0.5018394521291896 0.3826068906958551 0
0.5717464030698385 0.329718143933746 0
0.5958960252611254 0.3793251650089178 0
0.8832675076528911 0.5511104859093919 0
0.8752022485215307 0.5248977859063431 0
0.7446344893174554 0.5793971741401434 0
0.7376317781164242 0.6359622691701409 0
0.7113250057375573 0.6019237355078386 0
0.70594568287877 0.6623008526761281 0
0.5690838681386725 0.1753441109494465 0
0.6235856643470897 0.1729439076584453 0
0.6044403622712744 0.2036026577839222 0
0.6433804062221702 0.195140665059594 0
0.5481707334871228 0.6598150888586307 0
0.5839620854233348 0.694679214793301 0
0.5241642442339918 0.6384285434850964 0
0.5698279930318901 0.6301094751569415 0
0.5202993048163445 0.1871018208766629 0
0.5345831465731673 0.1427687212034745 0
0.7551721158304423 0.525269060003536 0
0.7386285675159939 0.4877386767851514 0
0.07273412972005924 0.5177084847392219 0
0.7620181214557379 0.4426326755626083 0
0.7819982470265999 0.4195791276271457 0
0.2340653393226176 0.4165721523081096 0
0.2317744359994809 0.3810325193726369 0
0.7486857932455614 0.7362320784183154 0
0.380720408749232 0.3999673652781882 0
0.5440186489209488 0.2220528698587478 0
0.7260331095669645 0.2715566894741918 0
0.5724147677612872 0.4661686274813069 0
0.6972475667388593 0.3934033043598316 0
0.6715220001618069 0.3618643735882439 0
0.7291584529508665 0.3509536513679504 0
0.6919951591859395 0.330841455491483 0
0.4995551556257911 0.2345311498306963 0
0.4898620763159379 0.195124204092311 0
0.4497870606757683 0.2059847430167665 0
0.6449537206750766 0.6723046594508406 0
0.6829285847081193 0.6952657212055492 0
0.6303634528931703 0.7107084487011428 0
0.6656568239895473 0.7315081691176264 0
0.6667547081369274 0.6265429140404355 0
0.7083158945763673 0.2989517119226923 0
0.3871091967138716 0.6784573023239431 0
0.3534707513070885 0.7157981655428245 0
0.3428729913046782 0.6588240436218032 0
0.3106145853760063 0.7003942965969225 0
0.5088502381954748 0.2644749761047949 0
0.4621661631275669 0.2465696567745471 0
0.7162481192804325 0.7186872820237697 0
0.540024479702721 0.2732918577416403 0
0.1072046625001351 0.6059216058029745 0
0.6391099507274772 0.2211150755820798 0
0.5919857670576423 0.24387554141126 0
0.5823072308238788 0.287192099457577 0
0.397177817541801 0.8371854732367229 0
0.2737398681987163 0.7144887320289436 0
0.5264437019714009 0.4784796584829907 0
0.566591853937657 0.4224445112727409 0
0.8960511527146975 0.5877450244692088 0
0.8123739784614739 0.3902275615959166 0
0.7893896367159381 0.358523856447917 0
0.110202732337189 0.5626295257937902 0
0.7579627167304651 0.3904919181772142 0
0.7279138712903293 0.4359079981013243 0
0.2576352161986575 0.3659766882713095 0
0.2771755945196423 0.397041419450159 0
0.4264305399236322 0.07911183761448622 0
0.4736451993123958 0.1173420892242538 0
0.481925376851806 0.1554387399192246 0
0.5547696173484297 0.9210102496339175 0
0.5058532104733913 0.8869060440499631 0
0.5510046889050181 0.8804765707882105 0
0.4218632247548326 0.2607808843014866 0
0.4936188420415817 0.8527189836692547 0
0.7362966657094784 0.6904533669143536 0
0.3400827885549033 0.5452962819059246 0
0.3732450593821017 0.5124631532635096 0
0.3678995498699287 0.5752917423921569 0
0.3446242622882823 0.4823016088168361 0
0.7715607864325493 0.4694949308676262 0
0.3371728972327252 0.6034926977876365 0
0.3094048037037073 0.6351716565328248 0
0.7955726779321155 0.6514499268770696 0
0.7288948262741748 0.3132608996553303 0
0.387578411729831 0.7925072089152511 0
0.9056182265496574 0.4494079779594563 0
0.3787540769625337 0.275280867627314 0
0.3678969869017193 0.6231645105436249 0
0.2927931477193745 0.4203418732669646 0
0.2794302446088761 0.4544641676360515 0
0.6114429174181382 0.4155619539061116 0
0.9660142015334946 0.5524149116203751 0
0.9320826967509124 0.570128122067733 0
0.2962547229502898 0.3377119327655542 0
0.871471816753415 0.4811059793757162 0
0.8739623383953395 0.4332521368874347 0
0.2806355257454938 0.6661609873085546 0
0.5033698439309852 0.1138419034954444 0
0.6256083023064147 0.5348222596656309 0
0.3823410556480908 0.7358197161255988 0
0.03822515308756649 0.4806746524095389 0
0.6775675186722254 0.2708120557662834 0
0.6326300050171281 0.2591408779779956 0
0.6439655028789932 0.3868255207143778 0
0.6207498261010481 0.737962341977499 0
0.3450166113377236 0.3312593107398665 0
0.3495420814307879 0.3711035106374111 0
0.7876367747148176 0.5038812886581802 0
0.7737322380914257 0.5571892589991817 0
0.4634596918410251 0.8942686600896828 0
0.5208952907341914 0.682460502934811 0
0.4517798917711428 0.8631024099101009 0
0.4400505264295161 0.8302004437105178 0
0.4785944672336078 0.8210158477863442 0
0.7235251500622246 0.5460189337352187 0
0.432858917328915 0.4918409661288556 0
0.2031675043458341 0.4544288273427201 0
0.4315245856802578 0.9003876741853009 0
0.4372457929128259 0.3008498423290976 0
0.4834725186263787 0.2905923189688897 0
0.1421849559766656 0.4711493414044584 0
0.1088805639205738 0.4886031525186965 0
0.1051090929313248 0.4389913491040441 0
0.4620026183782259 0.9622776132174031 0
0.4126937323718424 0.5461021038692409 0
0.2357829174215617 0.4828031384451139 0
0.5067332854791229 0.04412018188730284 0
0.3945113900655983 0.475532367504883 0
0.605002779951575 0.6526112687873924 0
0.4052023767615067 0.6336845532636979 0
0.1105843463253321 0.5199443515459071 0
0.3843448903935716 0.5972795706311238 0
0.4012372571134328 0.4283806032253151 0
0.5683805988853412 0.7701239912490916 0
0.1818832734408485 0.4782629947118542 0
0.5265621832494592 0.7591459180807133 0
0.8951367461290245 0.5044654259463849 0
$EndNodes
$Elements
6 3148 1 11916
1 1 1 22
1 1 5 
2 5 6 
3 6 7 
4 7 8 
5 8 9 
6 9 10 
7 10 11 
8 11 12 
9 12 13 
10 13 14 
11 14 15 
12 15 16 
13 16 17 
14 17 18 
15 18 19 
16 19 20 
17 20 21 
18 21 22 
19 22 23 
20 23 24 
21 24 25 
22 25 2 
1 2 1 22
23 2 26 
24 26 27 
25 27 28 
26 28 29 
27 29 30 
28 30 31 
29 31 32 
30 32 33 
31 33 34 
32 34 35 
33 35 36 
34 36 37 
35 37 38 
36 38 39 
37 39 40 
38 40 41 
39 41 42 
40 42 43 
41 43 44 
42 44 45 
43 45 46 
44 46 3 
1 3 1 22
45 3 47 
46 47 48 
47 48 49 
48 49 50 
49 50 51 
50 51 52 
51 52 53 
52 53 54 
53 54 55 
54 55 56 
55 56 57 
56 57 58 
57 58 59 
58 59 60 
59 60 61 
60 61 62 
61 62 63 
62 63 64 
63 64 65 
64 65 66 
65 66 67 
66 67 4 
1 4 1 22
67 4 68 
68 68 69 
69 69 70 
70 70 71 
71 71 72 
72 72 73 
73 73 74 
74 74 75 
75 75 76 
76 76 77 
77 77 78 
78 78 79 
79 79 80 
80 80 81 
81 81 82 
82 82 83 
83 83 84 
84 84 85 
85 85 86 
86 86 87 
87 87 88 
88 88 1 
1 5 1 2448
9469 89 90 
9470 90 66 
9471 66 67 
9472 67 89 
9473 93 95 
9474 95 97 
9475 97 96 
9476 96 93 
9477 98 101 
9478 101 106 
9479 106 99 
9480 99 98 
9481 99 106 
9482 106 107 
9483 107 511 
9484 511 99 
9485 117 118 
9486 118 97 
9487 97 119 
9488 119 117 
9489 49 123 
9490 123 127 
9491 127 48 
9492 48 49 
9493 134 133 
9494 133 136 
9495 136 135 
9496 135 134 
9497 139 137 
9498 137 141 
9499 141 138 
9500 138 139 
9501 145 146 
9502 146 143 
9503 143 142 
9504 142 145 
9505 148 147 
9506 147 134 
9507 134 150 
9508 150 148 
9509 89 68 
9510 68 69 
9511 69 133 
9512 133 89 
9513 6 156 
9514 156 140 
9515 140 157 
9516 157 6 
9517 140 156 
9518 156 171 
9519 171 155 
9520 155 140 
9521 173 174 
9522 174 175 
9523 175 172 
9524 172 173 
9525 181 165 
9526 165 182 
9527 182 180 
9528 180 181 
9529 184 169 
9530 169 185 
9531 185 183 
9532 183 184 
9533 187 170 
9534 170 188 
9535 188 186 
9536 186 187 
9537 178 189 
9538 189 127 
9539 127 123 
9540 123 178 
9541 131 127 
9542 127 189 
9543 189 132 
9544 132 131 
9545 174 132 
9546 132 189 
9547 189 190 
9548 190 174 
9549 191 137 
9550 137 86 
9551 86 87 
9552 87 191 
9553 24 192 
9554 192 145 
9555 145 142 
9556 142 24 
9557 161 145 
9558 145 192 
9559 192 160 
9560 160 161 
9561 141 137 
9562 137 191 
9563 191 140 
9564 140 141 
9565 157 140 
9566 140 191 
9567 191 158 
9568 158 157 
9569 156 6 
9570 6 7 
9571 7 171 
9572 171 156 
9573 174 173 
9574 173 45 
9575 45 132 
9576 132 174 
9577 196 197 
9578 197 199 
9579 199 198 
9580 198 196 
9581 133 69 
9582 69 70 
9583 70 136 
9584 136 133 
9585 66 90 
9586 90 134 
9587 134 147 
9588 147 66 
9589 134 90 
9590 90 89 
9591 89 133 
9592 133 134 
9593 45 173 
9594 173 172 
9595 172 44 
9596 44 45 
9597 66 147 
9598 147 149 
9599 149 65 
9600 65 66 
9601 25 2 
9602 2 26 
9603 26 160 
9604 160 25 
9605 88 1 
9606 1 5 
9607 5 158 
9608 158 88 
9609 85 86 
9610 86 137 
9611 137 139 
9612 139 85 
9613 24 142 
9614 142 144 
9615 144 23 
9616 23 24 
9617 158 191 
9618 191 87 
9619 87 88 
9620 88 158 
9621 160 192 
9622 192 24 
9623 24 25 
9624 25 160 
9625 68 89 
9626 89 67 
9627 67 4 
9628 4 68 
9629 29 182 
9630 182 166 
9631 166 28 
9632 28 29 
9633 154 166 
9634 166 182 
9635 182 165 
9636 165 154 
9637 71 185 
9638 185 136 
9639 136 70 
9640 70 71 
9641 135 136 
9642 136 185 
9643 185 169 
9644 169 135 
9645 8 188 
9646 188 171 
9647 171 7 
9648 7 8 
9649 155 171 
9650 171 188 
9651 188 170 
9652 170 155 
9653 50 179 
9654 179 123 
9655 123 49 
9656 49 50 
9657 176 178 
9658 178 123 
9659 123 179 
9660 179 176 
9661 158 5 
9662 5 6 
9663 6 157 
9664 157 158 
9665 185 71 
9666 71 72 
9667 72 183 
9668 183 185 
9669 160 26 
9670 26 27 
9671 27 161 
9672 161 160 
9673 206 98 
9674 98 208 
9675 208 207 
9676 207 206 
9677 179 50 
9678 50 51 
9679 51 176 
9680 176 179 
9681 218 217 
9682 217 220 
9683 220 199 
9684 199 218 
9685 121 120 
9686 120 221 
9687 221 95 
9688 95 121 
9689 182 29 
9690 29 30 
9691 30 180 
9692 180 182 
9693 228 229 
9694 229 231 
9695 231 230 
9696 230 228 
9697 188 8 
9698 8 9 
9699 9 186 
9700 186 188 
9701 47 131 
9702 131 46 
9703 46 3 
9704 3 47 
9705 139 241 
9706 241 84 
9707 84 85 
9708 85 139 
9709 184 205 
9710 205 135 
9711 135 169 
9712 169 184 
9713 134 135 
9714 135 205 
9715 205 150 
9716 150 134 
9717 196 239 
9718 239 231 
9719 231 240 
9720 240 196 
9721 65 149 
9722 149 243 
9723 243 64 
9724 64 65 
9725 177 215 
9726 215 189 
9727 189 178 
9728 178 177 
9729 242 230 
9730 230 231 
9731 231 239 
9732 239 242 
9733 44 172 
9734 172 246 
9735 246 43 
9736 43 44 
9737 181 224 
9738 224 154 
9739 154 165 
9740 165 181 
9741 145 154 
9742 154 224 
9743 224 146 
9744 146 145 
9745 23 144 
9746 144 251 
9747 251 22 
9748 22 23 
9749 187 235 
9750 235 155 
9751 155 170 
9752 170 187 
9753 140 155 
9754 155 235 
9755 235 141 
9756 141 140 
9757 250 248 
9758 248 252 
9759 252 249 
9760 249 250 
9761 256 148 
9762 148 257 
9763 257 255 
9764 255 256 
9765 262 143 
9766 143 263 
9767 263 261 
9768 261 262 
9769 138 141 
9770 141 235 
9771 235 284 
9772 284 138 
9773 253 254 
9774 254 139 
9775 139 138 
9776 138 253 
9777 183 72 
9778 72 73 
9779 73 266 
9780 266 183 
9781 148 150 
9782 150 205 
9783 205 257 
9784 257 148 
9785 147 148 
9786 148 256 
9787 256 149 
9788 149 147 
9789 264 240 
9790 240 231 
9791 231 265 
9792 265 264 
9793 176 51 
9794 51 52 
9795 52 270 
9796 270 176 
9797 174 190 
9798 190 260 
9799 260 175 
9800 175 174 
9801 189 215 
9802 215 260 
9803 260 190 
9804 190 189 
9805 258 259 
9806 259 172 
9807 172 175 
9808 175 258 
9809 180 30 
9810 30 31 
9811 31 276 
9812 276 180 
9813 143 146 
9814 146 224 
9815 224 263 
9816 263 143 
9817 142 143 
9818 143 262 
9819 262 144 
9820 144 142 
9821 9 281 
9822 281 282 
9823 282 186 
9824 186 9 
9825 139 254 
9826 254 285 
9827 285 241 
9828 241 139 
9829 241 286 
9830 286 83 
9831 83 84 
9832 84 241 
9833 268 269 
9834 269 205 
9835 205 184 
9836 184 268 
9837 268 184 
9838 184 183 
9839 183 267 
9840 267 268 
9841 149 256 
9842 256 287 
9843 287 243 
9844 243 149 
9845 64 243 
9846 243 288 
9847 288 63 
9848 63 64 
9849 214 272 
9850 272 215 
9851 215 177 
9852 177 214 
9853 178 176 
9854 176 271 
9855 271 177 
9856 177 178 
9857 172 259 
9858 259 289 
9859 289 246 
9860 246 172 
9861 43 246 
9862 246 290 
9863 290 42 
9864 42 43 
9865 278 279 
9866 279 224 
9867 224 181 
9868 181 278 
9869 278 181 
9870 181 180 
9871 180 277 
9872 277 278 
9873 144 262 
9874 262 291 
9875 291 251 
9876 251 144 
9877 22 251 
9878 251 292 
9879 292 21 
9880 21 22 
9881 283 284 
9882 284 235 
9883 235 187 
9884 187 283 
9885 283 187 
9886 187 186 
9887 186 282 
9888 282 283 
9889 254 253 
9890 253 293 
9891 293 285 
9892 285 254 
9893 256 255 
9894 255 295 
9895 295 287 
9896 287 256 
9897 259 258 
9898 258 297 
9899 297 289 
9900 289 259 
9901 262 261 
9902 261 299 
9903 299 291 
9904 291 262 
9905 138 284 
9906 284 294 
9907 294 253 
9908 253 138 
9909 183 266 
9910 266 301 
9911 301 267 
9912 267 183 
9913 266 73 
9914 73 74 
9915 74 302 
9916 302 266 
9917 267 301 
9918 301 303 
9919 303 268 
9920 268 267 
9921 295 255 
9922 255 257 
9923 257 296 
9924 296 295 
9925 205 269 
9926 269 296 
9927 296 257 
9928 257 205 
9929 176 270 
9930 270 305 
9931 305 271 
9932 271 176 
9933 177 271 
9934 271 305 
9935 305 214 
9936 214 177 
9937 270 52 
9938 52 53 
9939 53 306 
9940 306 270 
9941 213 214 
9942 214 305 
9943 305 212 
9944 212 213 
9945 175 260 
9946 260 298 
9947 298 258 
9948 258 175 
9949 215 272 
9950 272 298 
9951 298 260 
9952 260 215 
9953 180 276 
9954 276 309 
9955 309 277 
9956 277 180 
9957 276 31 
9958 31 32 
9959 32 201 
9960 201 276 
9961 277 309 
9962 309 310 
9963 310 278 
9964 278 277 
9965 299 261 
9966 261 263 
9967 263 300 
9968 300 299 
9969 224 279 
9970 279 300 
9971 300 263 
9972 263 224 
9973 9 10 
9974 10 313 
9975 313 281 
9976 281 9 
9977 282 312 
9978 312 314 
9979 314 283 
9980 283 282 
9981 282 281 
9982 281 313 
9983 313 312 
9984 312 282 
9985 241 285 
9986 285 316 
9987 316 286 
9988 286 241 
9989 286 317 
9990 317 82 
9991 82 83 
9992 83 286 
9993 303 304 
9994 304 269 
9995 269 268 
9996 268 303 
9997 243 287 
9998 287 318 
9999 318 288 
10000 288 243 
10001 63 288 
10002 288 319 
10003 319 62 
10004 62 63 
10005 213 216 
10006 216 272 
10007 272 214 
10008 214 213 
10009 246 289 
10010 289 320 
10011 320 290 
10012 290 246 
10013 42 290 
10014 290 321 
10015 321 41 
10016 41 42 
10017 310 311 
10018 311 279 
10019 279 278 
10020 278 310 
10021 251 291 
10022 291 322 
10023 322 292 
10024 292 251 
10025 21 292 
10026 292 323 
10027 323 20 
10028 20 21 
10029 283 315 
10030 315 294 
10031 294 284 
10032 284 283 
10033 285 293 
10034 293 324 
10035 324 316 
10036 316 285 
10037 287 295 
10038 295 326 
10039 326 318 
10040 318 287 
10041 289 297 
10042 297 328 
10043 328 320 
10044 320 289 
10045 291 299 
10046 299 330 
10047 330 322 
10048 322 291 
10049 253 294 
10050 294 325 
10051 325 293 
10052 293 253 
10053 266 302 
10054 302 332 
10055 332 301 
10056 301 266 
10057 326 295 
10058 295 296 
10059 296 327 
10060 327 326 
10061 269 304 
10062 304 327 
10063 327 296 
10064 296 269 
10065 270 306 
10066 306 341 
10067 341 305 
10068 305 270 
10069 258 298 
10070 298 329 
10071 329 297 
10072 297 258 
10073 272 216 
10074 216 329 
10075 329 298 
10076 298 272 
10077 276 201 
10078 201 347 
10079 347 309 
10080 309 276 
10081 330 299 
10082 299 300 
10083 300 331 
10084 331 330 
10085 279 311 
10086 311 331 
10087 331 300 
10088 300 279 
10089 313 351 
10090 351 314 
10091 314 312 
10092 312 313 
10093 338 339 
10094 339 304 
10095 304 303 
10096 303 338 
10097 363 358 
10098 358 208 
10099 208 100 
10100 100 363 
10101 213 308 
10102 308 329 
10103 329 216 
10104 216 213 
10105 349 350 
10106 350 311 
10107 311 310 
10108 310 349 
10109 374 203 
10110 203 376 
10111 376 375 
10112 375 374 
10113 283 314 
10114 314 357 
10115 357 315 
10116 315 283 
10117 294 315 
10118 315 357 
10119 357 325 
10120 325 294 
10121 385 343 
10122 343 387 
10123 387 386 
10124 386 385 
10125 388 389 
10126 389 38 
10127 38 39 
10128 39 388 
10129 395 396 
10130 396 17 
10131 17 18 
10132 18 395 
10133 372 328 
10134 328 353 
10135 353 403 
10136 403 372 
10137 361 359 
10138 359 406 
10139 406 360 
10140 360 361 
10141 293 325 
10142 325 390 
10143 390 324 
10144 324 293 
10145 292 322 
10146 322 407 
10147 407 323 
10148 323 292 
10149 330 377 
10150 377 407 
10151 407 322 
10152 322 330 
10153 371 369 
10154 369 202 
10155 202 370 
10156 370 371 
10157 309 347 
10158 347 408 
10159 408 310 
10160 310 309 
10161 290 320 
10162 320 409 
10163 409 321 
10164 321 290 
10165 328 372 
10166 372 409 
10167 409 320 
10168 320 328 
10169 382 380 
10170 380 342 
10171 342 381 
10172 381 382 
10173 305 341 
10174 341 410 
10175 410 212 
10176 212 305 
10177 306 343 
10178 343 385 
10179 385 341 
10180 341 306 
10181 213 212 
10182 212 410 
10183 410 307 
10184 307 213 
10185 288 318 
10186 318 411 
10187 411 319 
10188 319 288 
10189 326 364 
10190 364 411 
10191 411 318 
10192 318 326 
10193 301 332 
10194 332 414 
10195 414 303 
10196 303 301 
10197 286 316 
10198 316 415 
10199 415 317 
10200 317 286 
10201 324 383 
10202 383 415 
10203 415 316 
10204 316 324 
10205 20 323 
10206 323 417 
10207 417 19 
10208 19 20 
10209 41 321 
10210 321 419 
10211 419 40 
10212 40 41 
10213 297 329 
10214 329 353 
10215 353 328 
10216 328 297 
10217 352 353 
10218 353 329 
10219 329 308 
10220 308 352 
10221 62 319 
10222 319 421 
10223 421 61 
10224 61 62 
10225 201 203 
10226 203 374 
10227 374 347 
10228 347 201 
10229 10 11 
10230 11 406 
10231 406 313 
10232 313 10 
10233 332 302 
10234 302 413 
10235 413 340 
10236 340 332 
10237 304 339 
10238 339 424 
10239 424 327 
10240 327 304 
10241 326 327 
10242 327 424 
10243 424 393 
10244 393 326 
10245 401 402 
10246 402 325 
10247 325 357 
10248 357 401 
10249 398 76 
10250 76 77 
10251 77 399 
10252 399 398 
10253 405 330 
10254 330 331 
10255 331 367 
10256 367 405 
10257 311 350 
10258 350 367 
10259 367 331 
10260 331 311 
10261 314 356 
10262 356 401 
10263 401 357 
10264 357 314 
10265 313 358 
10266 358 363 
10267 363 351 
10268 351 313 
10269 404 401 
10270 401 356 
10271 356 426 
10272 426 404 
10273 238 236 
10274 236 355 
10275 355 237 
10276 237 238 
10277 91 92 
10278 92 122 
10279 122 93 
10280 93 91 
10281 310 408 
10282 408 445 
10283 445 349 
10284 349 310 
10285 347 374 
10286 374 445 
10287 445 408 
10288 408 347 
10289 213 307 
10290 307 439 
10291 439 308 
10292 308 213 
10293 423 317 
10294 317 415 
10295 415 422 
10296 422 423 
10297 421 319 
10298 319 411 
10299 411 420 
10300 420 421 
10301 323 407 
10302 407 436 
10303 436 416 
10304 416 323 
10305 419 321 
10306 321 409 
10307 409 418 
10308 418 419 
10309 372 431 
10310 431 418 
10311 418 409 
10312 409 372 
10313 303 414 
10314 414 91 
10315 91 338 
10316 338 303 
10317 340 94 
10318 94 414 
10319 414 332 
10320 332 340 
10321 92 91 
10322 91 414 
10323 414 94 
10324 94 92 
10325 432 336 
10326 336 167 
10327 167 433 
10328 433 432 
10329 447 450 
10330 450 453 
10331 453 451 
10332 451 447 
10333 131 47 
10334 47 48 
10335 48 127 
10336 127 131 
10337 405 366 
10338 366 460 
10339 460 459 
10340 459 405 
10341 401 404 
10342 404 461 
10343 461 402 
10344 402 401 
10345 325 402 
10346 402 461 
10347 461 390 
10348 390 325 
10349 392 393 
10350 393 424 
10351 424 391 
10352 391 392 
10353 391 424 
10354 424 339 
10355 339 441 
10356 441 391 
10357 449 464 
10358 464 467 
10359 467 465 
10360 465 449 
10361 28 166 
10362 166 161 
10363 161 27 
10364 27 28 
10365 360 406 
10366 406 11 
10367 11 12 
10368 12 360 
10369 313 406 
10370 406 359 
10371 359 358 
10372 358 313 
10373 166 154 
10374 154 145 
10375 145 161 
10376 161 166 
10377 365 366 
10378 366 405 
10379 405 367 
10380 367 365 
10381 352 378 
10382 378 403 
10383 403 353 
10384 353 352 
10385 302 74 
10386 74 75 
10387 75 413 
10388 413 302 
10389 398 412 
10390 412 340 
10391 340 413 
10392 413 398 
10393 306 53 
10394 53 54 
10395 54 342 
10396 342 306 
10397 306 342 
10398 342 380 
10399 380 343 
10400 343 306 
10401 415 447 
10402 447 451 
10403 451 422 
10404 422 415 
10405 201 32 
10406 32 33 
10407 33 202 
10408 202 201 
10409 201 202 
10410 202 369 
10411 369 203 
10412 203 201 
10413 61 421 
10414 421 446 
10415 446 60 
10416 60 61 
10417 434 435 
10418 435 416 
10419 416 436 
10420 436 434 
10421 427 430 
10422 430 418 
10423 418 431 
10424 431 427 
10425 317 423 
10426 423 81 
10427 81 82 
10428 82 317 
10429 451 440 
10430 440 423 
10431 423 422 
10432 422 451 
10433 80 81 
10434 81 423 
10435 423 440 
10436 440 80 
10437 411 449 
10438 449 465 
10439 465 420 
10440 420 411 
10441 421 420 
10442 420 465 
10443 465 446 
10444 446 421 
10445 341 385 
10446 385 386 
10447 386 410 
10448 410 341 
10449 432 462 
10450 462 194 
10451 194 463 
10452 463 432 
10453 470 445 
10454 445 374 
10455 374 375 
10456 375 470 
10457 323 416 
10458 416 395 
10459 395 417 
10460 417 323 
10461 19 417 
10462 417 395 
10463 395 18 
10464 18 19 
10465 430 388 
10466 388 419 
10467 419 418 
10468 418 430 
10469 40 419 
10470 419 388 
10471 388 39 
10472 39 40 
10473 455 456 
10474 456 471 
10475 471 454 
10476 454 455 
10477 474 475 
10478 475 448 
10479 448 473 
10480 473 474 
10481 391 394 
10482 394 110 
10483 110 392 
10484 392 391 
10485 109 110 
10486 110 394 
10487 394 111 
10488 111 109 
10489 211 114 
10490 114 116 
10491 116 476 
10492 476 211 
10493 113 114 
10494 114 211 
10495 211 115 
10496 115 113 
10497 445 470 
10498 470 473 
10499 473 349 
10500 349 445 
10501 350 349 
10502 349 473 
10503 473 448 
10504 448 350 
10505 410 454 
10506 454 471 
10507 471 307 
10508 307 410 
10509 472 439 
10510 439 307 
10511 307 471 
10512 471 472 
10513 481 479 
10514 479 280 
10515 280 480 
10516 480 481 
10517 481 128 
10518 128 483 
10519 483 482 
10520 482 481 
10521 431 372 
10522 372 403 
10523 403 484 
10524 484 431 
10525 487 485 
10526 485 488 
10527 488 486 
10528 486 487 
10529 407 377 
10530 377 489 
10531 489 436 
10532 436 407 
10533 450 447 
10534 447 492 
10535 492 452 
10536 452 450 
10537 490 463 
10538 463 194 
10539 194 491 
10540 491 490 
10541 330 405 
10542 405 489 
10543 489 377 
10544 377 330 
10545 415 383 
10546 383 492 
10547 492 447 
10548 447 415 
10549 324 390 
10550 390 476 
10551 476 383 
10552 383 324 
10553 492 383 
10554 383 476 
10555 476 116 
10556 116 492 
10557 497 495 
10558 495 499 
10559 499 496 
10560 496 497 
10561 326 393 
10562 393 392 
10563 392 397 
10564 397 326 
10565 497 500 
10566 500 502 
10567 502 501 
10568 501 497 
10569 110 112 
10570 112 397 
10571 397 392 
10572 392 110 
10573 12 13 
10574 13 362 
10575 362 360 
10576 360 12 
10577 104 102 
10578 102 441 
10579 441 103 
10580 103 104 
10581 91 105 
10582 105 103 
10583 103 338 
10584 338 91 
10585 509 507 
10586 507 510 
10587 510 508 
10588 508 509 
10589 339 338 
10590 338 103 
10591 103 441 
10592 441 339 
10593 464 449 
10594 449 513 
10595 513 466 
10596 466 464 
10597 506 504 
10598 504 514 
10599 514 505 
10600 505 506 
10601 466 513 
10602 513 397 
10603 397 112 
10604 112 466 
10605 351 363 
10606 363 100 
10607 100 498 
10608 498 351 
10609 426 356 
10610 356 498 
10611 498 511 
10612 511 426 
10613 314 351 
10614 351 498 
10615 498 356 
10616 356 314 
10617 411 364 
10618 364 513 
10619 513 449 
10620 449 411 
10621 326 397 
10622 397 513 
10623 513 364 
10624 364 326 
10625 515 265 
10626 265 231 
10627 231 229 
10628 229 515 
10629 342 54 
10630 54 55 
10631 55 381 
10632 381 342 
10633 56 384 
10634 384 381 
10635 381 55 
10636 55 56 
10637 413 75 
10638 75 76 
10639 76 398 
10640 398 413 
10641 399 400 
10642 400 412 
10643 412 398 
10644 398 399 
10645 518 337 
10646 337 519 
10647 519 494 
10648 494 518 
10649 384 56 
10650 56 57 
10651 57 152 
10652 152 384 
10653 13 14 
10654 14 125 
10655 125 362 
10656 362 13 
10657 518 520 
10658 520 252 
10659 252 521 
10660 521 518 
10661 202 33 
10662 33 34 
10663 34 370 
10664 370 202 
10665 35 373 
10666 373 370 
10667 370 34 
10668 34 35 
10669 522 496 
10670 496 499 
10671 499 523 
10672 523 522 
10673 434 436 
10674 436 489 
10675 489 437 
10676 437 434 
10677 437 489 
10678 489 405 
10679 405 459 
10680 459 437 
10681 208 358 
10682 358 359 
10683 359 361 
10684 361 208 
10685 427 431 
10686 431 484 
10687 484 428 
10688 428 427 
10689 245 244 
10690 244 533 
10691 533 247 
10692 247 245 
10693 378 468 
10694 468 484 
10695 484 403 
10696 403 378 
10697 532 534 
10698 534 220 
10699 220 535 
10700 535 532 
10701 36 163 
10702 163 373 
10703 373 35 
10704 35 36 
10705 399 425 
10706 425 540 
10707 540 400 
10708 400 399 
10709 399 77 
10710 77 78 
10711 78 425 
10712 425 399 
10713 498 100 
10714 100 99 
10715 99 511 
10716 511 498 
10717 543 223 
10718 223 227 
10719 227 544 
10720 544 543 
10721 378 352 
10722 352 545 
10723 545 379 
10724 379 378 
10725 537 528 
10726 528 547 
10727 547 536 
10728 536 537 
10729 308 439 
10730 439 545 
10731 545 352 
10732 352 308 
10733 366 365 
10734 365 548 
10735 548 368 
10736 368 366 
10737 193 194 
10738 194 462 
10739 462 195 
10740 195 193 
10741 350 448 
10742 448 365 
10743 365 367 
10744 367 350 
10745 60 446 
10746 446 225 
10747 225 59 
10748 59 60 
10749 387 343 
10750 343 380 
10751 380 382 
10752 382 387 
10753 550 551 
10754 551 553 
10755 553 552 
10756 552 550 
10757 376 203 
10758 203 369 
10759 369 371 
10760 371 376 
10761 103 105 
10762 105 96 
10763 96 104 
10764 104 103 
10765 557 558 
10766 558 560 
10767 560 559 
10768 559 557 
10769 91 93 
10770 93 96 
10771 96 105 
10772 105 91 
10773 273 280 
10774 280 561 
10775 561 274 
10776 274 273 
10777 563 564 
10778 564 566 
10779 566 565 
10780 565 563 
10781 365 448 
10782 448 475 
10783 475 548 
10784 548 365 
10785 555 554 
10786 554 568 
10787 568 556 
10788 556 555 
10789 569 545 
10790 545 439 
10791 439 472 
10792 472 569 
10793 92 94 
10794 94 571 
10795 571 122 
10796 122 92 
10797 529 531 
10798 531 572 
10799 572 530 
10800 530 529 
10801 340 412 
10802 412 571 
10803 571 94 
10804 94 340 
10805 466 575 
10806 575 467 
10807 467 464 
10808 464 466 
10809 437 529 
10810 529 438 
10811 438 434 
10812 434 437 
10813 577 335 
10814 335 578 
10815 578 549 
10816 549 577 
10817 115 211 
10818 211 461 
10819 461 209 
10820 209 115 
10821 476 390 
10822 390 461 
10823 461 211 
10824 211 476 
10825 492 116 
10826 116 227 
10827 227 452 
10828 452 492 
10829 430 427 
10830 427 429 
10831 429 579 
10832 579 430 
10833 121 95 
10834 95 93 
10835 93 122 
10836 122 121 
10837 580 542 
10838 542 583 
10839 583 581 
10840 581 580 
10841 440 233 
10842 233 79 
10843 79 80 
10844 80 440 
10845 569 558 
10846 558 527 
10847 527 595 
10848 595 569 
10849 584 541 
10850 541 600 
10851 600 539 
10852 539 584 
10853 378 469 
10854 469 603 
10855 603 468 
10856 468 378 
10857 548 475 
10858 475 604 
10859 604 562 
10860 562 548 
10861 99 100 
10862 100 208 
10863 208 98 
10864 98 99 
10865 130 129 
10866 129 512 
10867 512 159 
10868 159 130 
10869 132 45 
10870 45 46 
10871 46 131 
10872 131 132 
10873 506 549 
10874 549 159 
10875 159 512 
10876 512 506 
10877 370 373 
10878 373 606 
10879 606 371 
10880 371 370 
10881 107 106 
10882 106 607 
10883 607 108 
10884 108 107 
10885 101 593 
10886 593 607 
10887 607 106 
10888 106 101 
10889 98 206 
10890 206 556 
10891 556 101 
10892 101 98 
10893 236 238 
10894 238 610 
10895 610 609 
10896 609 236 
10897 549 578 
10898 578 611 
10899 611 159 
10900 159 549 
10901 473 470 
10902 470 581 
10903 581 474 
10904 474 473 
10905 496 522 
10906 522 579 
10907 579 429 
10908 429 496 
10909 443 396 
10910 396 395 
10911 395 444 
10912 444 443 
10913 381 384 
10914 384 590 
10915 590 382 
10916 382 381 
10917 478 120 
10918 120 121 
10919 121 503 
10920 503 478 
10921 113 115 
10922 115 614 
10923 614 585 
10924 585 113 
10925 233 440 
10926 440 451 
10927 451 234 
10928 234 233 
10929 585 614 
10930 614 354 
10931 354 586 
10932 586 585 
10933 163 162 
10934 162 606 
10935 606 373 
10936 373 163 
10937 209 210 
10938 210 614 
10939 614 115 
10940 115 209 
10941 371 606 
10942 606 616 
10943 616 376 
10944 376 371 
10945 152 151 
10946 151 590 
10947 590 384 
10948 384 152 
10949 125 124 
10950 124 587 
10951 587 362 
10952 362 125 
10953 163 36 
10954 36 37 
10955 37 612 
10956 612 163 
10957 229 516 
10958 516 605 
10959 605 515 
10960 515 229 
10961 382 590 
10962 590 592 
10963 592 387 
10964 387 382 
10965 207 587 
10966 587 124 
10967 124 588 
10968 588 207 
10969 471 456 
10970 456 560 
10971 560 472 
10972 472 471 
10973 512 129 
10974 129 128 
10975 128 619 
10976 619 512 
10977 605 109 
10978 109 620 
10979 620 515 
10980 515 605 
10981 410 386 
10982 386 455 
10983 455 454 
10984 454 410 
10985 581 470 
10986 470 375 
10987 375 580 
10988 580 581 
10989 366 368 
10990 368 622 
10991 622 460 
10992 460 366 
10993 548 562 
10994 562 622 
10995 622 368 
10996 368 548 
10997 378 379 
10998 379 595 
10999 595 469 
11000 469 378 
11001 545 569 
11002 569 595 
11003 595 379 
11004 379 545 
11005 537 618 
11006 618 126 
11007 126 442 
11008 442 537 
11009 588 589 
11010 589 206 
11011 206 207 
11012 207 588 
11013 232 621 
11014 621 79 
11015 79 233 
11016 233 232 
11017 168 167 
11018 167 577 
11019 577 200 
11020 200 168 
11021 360 362 
11022 362 587 
11023 587 361 
11024 361 360 
11025 207 208 
11026 208 361 
11027 361 587 
11028 587 207 
11029 391 576 
11030 576 566 
11031 566 394 
11032 394 391 
11033 562 604 
11034 604 552 
11035 552 553 
11036 553 562 
11037 121 122 
11038 122 571 
11039 571 582 
11040 582 121 
11041 114 113 
11042 113 227 
11043 227 116 
11044 116 114 
11045 475 474 
11046 474 552 
11047 552 604 
11048 604 475 
11049 582 571 
11050 571 412 
11051 412 400 
11052 400 582 
11053 110 109 
11054 109 605 
11055 605 112 
11056 112 110 
11057 225 446 
11058 446 465 
11059 465 226 
11060 226 225 
11061 220 217 
11062 217 505 
11063 505 514 
11064 514 220 
11065 375 376 
11066 376 488 
11067 488 580 
11068 580 375 
11069 217 200 
11070 200 577 
11071 577 505 
11072 505 217 
11073 210 209 
11074 209 107 
11075 107 108 
11076 108 210 
11077 426 511 
11078 511 107 
11079 107 404 
11080 404 426 
11081 461 404 
11082 404 107 
11083 107 209 
11084 209 461 
11085 434 438 
11086 438 444 
11087 444 435 
11088 435 434 
11089 416 435 
11090 435 444 
11091 444 395 
11092 395 416 
11093 386 387 
11094 387 510 
11095 510 455 
11096 455 386 
11097 102 104 
11098 104 118 
11099 118 617 
11100 617 102 
11101 456 455 
11102 455 510 
11103 510 457 
11104 457 456 
11105 96 97 
11106 97 118 
11107 118 104 
11108 104 96 
11109 391 441 
11110 441 102 
11111 102 576 
11112 576 391 
11113 566 576 
11114 576 102 
11115 102 617 
11116 617 566 
11117 579 613 
11118 613 388 
11119 388 430 
11120 430 579 
11121 387 592 
11122 592 508 
11123 508 510 
11124 510 387 
11125 591 594 
11126 594 508 
11127 508 592 
11128 592 591 
11129 484 468 
11130 468 603 
11131 603 428 
11132 428 484 
11133 502 500 
11134 500 428 
11135 428 603 
11136 603 502 
11137 95 221 
11138 221 119 
11139 119 97 
11140 97 95 
11141 478 477 
11142 477 221 
11143 221 120 
11144 120 478 
11145 574 570 
11146 570 547 
11147 547 573 
11148 573 574 
11149 193 195 
11150 195 627 
11151 627 626 
11152 626 193 
11153 592 590 
11154 590 151 
11155 151 591 
11156 591 592 
11157 280 273 
11158 273 619 
11159 619 480 
11160 480 280 
11161 237 458 
11162 458 599 
11163 599 238 
11164 238 237 
11165 626 108 
11166 108 607 
11167 607 193 
11168 193 626 
11169 469 595 
11170 595 527 
11171 527 525 
11172 525 469 
11173 538 628 
11174 628 495 
11175 495 629 
11176 629 538 
11177 450 223 
11178 223 222 
11179 222 453 
11180 453 450 
11181 450 452 
11182 452 227 
11183 227 223 
11184 223 450 
11185 596 598 
11186 598 601 
11187 601 348 
11188 348 596 
11189 129 130 
11190 130 483 
11191 483 128 
11192 128 129 
11193 334 333 
11194 333 483 
11195 483 130 
11196 130 334 
11197 335 336 
11198 336 519 
11199 519 337 
11200 337 335 
11201 463 519 
11202 519 336 
11203 336 432 
11204 432 463 
11205 495 497 
11206 497 501 
11207 501 629 
11208 629 495 
11209 502 524 
11210 524 629 
11211 629 501 
11212 501 502 
11213 614 626 
11214 626 627 
11215 627 354 
11216 354 614 
11217 217 218 
11218 218 168 
11219 168 200 
11220 200 217 
11221 112 605 
11222 605 575 
11223 575 466 
11224 466 112 
11225 197 196 
11226 196 240 
11227 240 204 
11228 204 197 
11229 538 629 
11230 629 524 
11231 524 635 
11232 635 538 
11233 376 616 
11234 616 486 
11235 486 488 
11236 488 376 
11237 606 615 
11238 615 486 
11239 486 616 
11240 616 606 
11241 222 223 
11242 223 543 
11243 543 637 
11244 637 222 
11245 579 522 
11246 522 164 
11247 164 613 
11248 613 579 
11249 593 568 
11250 568 640 
11251 640 639 
11252 639 593 
11253 388 613 
11254 613 612 
11255 612 389 
11256 389 388 
11257 163 612 
11258 612 613 
11259 613 164 
11260 164 163 
11261 443 444 
11262 444 438 
11263 438 442 
11264 442 443 
11265 641 642 
11266 642 232 
11267 232 643 
11268 643 641 
11269 528 537 
11270 537 442 
11271 442 438 
11272 438 528 
11273 226 153 
11274 153 644 
11275 644 225 
11276 225 226 
11277 59 225 
11278 225 644 
11279 644 58 
11280 58 59 
11281 596 597 
11282 597 645 
11283 645 598 
11284 598 596 
11285 637 543 
11286 543 610 
11287 610 646 
11288 646 637 
11289 506 512 
11290 512 619 
11291 619 504 
11292 504 506 
11293 514 504 
11294 504 619 
11295 619 273 
11296 273 514 
11297 634 633 
11298 633 516 
11299 516 517 
11300 517 634 
11301 575 605 
11302 605 516 
11303 516 633 
11304 633 575 
11305 602 117 
11306 117 348 
11307 348 601 
11308 601 602 
11309 633 634 
11310 634 594 
11311 594 632 
11312 632 633 
11313 508 594 
11314 594 634 
11315 634 509 
11316 509 508 
11317 442 126 
11318 126 647 
11319 647 443 
11320 443 442 
11321 624 611 
11322 611 521 
11323 521 252 
11324 252 624 
11325 611 578 
11326 578 518 
11327 518 521 
11328 521 611 
11329 17 396 
11330 396 443 
11331 443 16 
11332 16 17 
11333 588 124 
11334 124 126 
11335 126 618 
11336 618 588 
11337 588 618 
11338 618 537 
11339 537 589 
11340 589 588 
11341 394 566 
11342 566 564 
11343 564 111 
11344 111 394 
11345 109 111 
11346 111 564 
11347 564 620 
11348 620 109 
11349 622 250 
11350 250 249 
11351 249 623 
11352 623 622 
11353 573 623 
11354 623 249 
11355 249 574 
11356 574 573 
11357 645 597 
11358 597 648 
11359 648 636 
11360 636 645 
11361 591 151 
11362 151 153 
11363 153 630 
11364 630 591 
11365 591 630 
11366 630 632 
11367 632 594 
11368 594 591 
11369 516 229 
11370 229 228 
11371 228 517 
11372 517 516 
11373 465 467 
11374 467 638 
11375 638 226 
11376 226 465 
11377 336 335 
11378 335 577 
11379 577 167 
11380 167 336 
11381 630 153 
11382 153 226 
11383 226 638 
11384 638 630 
11385 630 638 
11386 638 467 
11387 467 632 
11388 632 630 
11389 524 526 
11390 526 479 
11391 479 635 
11392 635 524 
11393 585 586 
11394 586 543 
11395 543 544 
11396 544 585 
11397 198 534 
11398 534 532 
11399 532 631 
11400 631 198 
11401 570 493 
11402 493 640 
11403 640 567 
11404 567 570 
11405 601 608 
11406 608 565 
11407 565 602 
11408 602 601 
11409 570 574 
11410 574 520 
11411 520 493 
11412 493 570 
11413 494 490 
11414 490 640 
11415 640 493 
11416 493 494 
11417 486 615 
11418 615 499 
11419 499 487 
11420 487 486 
11421 535 275 
11422 275 274 
11423 274 649 
11424 649 535 
11425 573 547 
11426 547 528 
11427 528 530 
11428 530 573 
11429 561 557 
11430 557 649 
11431 649 274 
11432 274 561 
11433 585 544 
11434 544 227 
11435 227 113 
11436 113 585 
11437 559 560 
11438 560 456 
11439 456 625 
11440 625 559 
11441 515 620 
11442 620 264 
11443 264 265 
11444 265 515 
11445 247 625 
11446 625 456 
11447 456 457 
11448 457 247 
11449 641 503 
11450 503 651 
11451 651 642 
11452 642 641 
11453 400 540 
11454 540 651 
11455 651 582 
11456 582 400 
11457 610 543 
11458 543 586 
11459 586 609 
11460 609 610 
11461 232 642 
11462 642 651 
11463 651 540 
11464 540 232 
11465 121 582 
11466 582 651 
11467 651 503 
11468 503 121 
11469 130 159 
11470 159 611 
11471 611 334 
11472 334 130 
11473 611 624 
11474 624 333 
11475 333 334 
11476 334 611 
11477 625 247 
11478 247 533 
11479 533 559 
11480 559 625 
11481 535 649 
11482 649 533 
11483 533 532 
11484 532 535 
11485 482 483 
11486 483 584 
11487 584 539 
11488 539 482 
11489 628 538 
11490 538 539 
11491 539 600 
11492 600 628 
11493 239 196 
11494 196 198 
11495 198 631 
11496 631 239 
11497 425 78 
11498 78 79 
11499 79 621 
11500 621 425 
11501 425 621 
11502 621 232 
11503 232 540 
11504 540 425 
11505 614 210 
11506 210 108 
11507 108 626 
11508 626 614 
11509 534 198 
11510 198 199 
11511 199 220 
11512 220 534 
11513 478 646 
11514 646 346 
11515 346 477 
11516 477 478 
11517 599 344 
11518 344 610 
11519 610 238 
11520 238 599 
11521 570 567 
11522 567 554 
11523 554 547 
11524 547 570 
11525 554 567 
11526 567 640 
11527 640 568 
11528 568 554 
11529 274 275 
11530 275 514 
11531 514 273 
11532 273 274 
11533 555 536 
11534 536 547 
11535 547 554 
11536 554 555 
11537 101 556 
11538 556 568 
11539 568 593 
11540 593 101 
11541 608 652 
11542 652 219 
11543 219 650 
11544 650 608 
11545 589 555 
11546 555 556 
11547 556 206 
11548 206 589 
11549 480 619 
11550 619 128 
11551 128 481 
11552 481 480 
11553 533 649 
11554 649 557 
11555 557 559 
11556 559 533 
11557 584 583 
11558 583 542 
11559 542 541 
11560 541 584 
11561 526 524 
11562 524 502 
11563 502 525 
11564 525 526 
11565 603 469 
11566 469 525 
11567 525 502 
11568 502 603 
11569 485 542 
11570 542 580 
11571 580 488 
11572 488 485 
11573 239 631 
11574 631 244 
11575 244 242 
11576 242 239 
11577 533 244 
11578 244 631 
11579 631 532 
11580 532 533 
11581 530 528 
11582 528 438 
11583 438 529 
11584 529 530 
11585 335 337 
11586 337 518 
11587 518 578 
11588 578 335 
11589 233 234 
11590 234 643 
11591 643 232 
11592 232 233 
11593 537 536 
11594 536 555 
11595 555 589 
11596 589 537 
11597 451 453 
11598 453 643 
11599 643 234 
11600 234 451 
11601 459 531 
11602 531 529 
11603 529 437 
11604 437 459 
11605 236 354 
11606 354 627 
11607 627 355 
11608 355 236 
11609 195 546 
11610 546 355 
11611 355 627 
11612 627 195 
11613 646 610 
11614 610 344 
11615 344 346 
11616 346 646 
11617 443 647 
11618 647 15 
11619 15 16 
11620 16 443 
11621 124 125 
11622 125 647 
11623 647 126 
11624 126 124 
11625 14 15 
11626 15 647 
11627 647 125 
11628 125 14 
11629 550 584 
11630 584 483 
11631 483 333 
11632 333 550 
11633 607 593 
11634 593 639 
11635 639 193 
11636 193 607 
11637 535 220 
11638 220 514 
11639 514 275 
11640 275 535 
11641 530 572 
11642 572 623 
11643 623 573 
11644 573 530 
11645 479 481 
11646 481 482 
11647 482 635 
11648 635 479 
11649 539 538 
11650 538 635 
11651 635 482 
11652 482 539 
11653 38 389 
11654 389 612 
11655 612 37 
11656 37 38 
11657 463 490 
11658 490 494 
11659 494 519 
11660 519 463 
11661 652 598 
11662 598 645 
11663 645 219 
11664 219 652 
11665 168 218 
11666 218 645 
11667 645 636 
11668 636 168 
11669 199 219 
11670 219 645 
11671 645 218 
11672 218 199 
11673 240 264 
11674 264 563 
11675 563 204 
11676 204 240 
11677 564 563 
11678 563 264 
11679 264 620 
11680 620 564 
11681 563 650 
11682 650 197 
11683 197 204 
11684 204 563 
11685 597 599 
11686 599 458 
11687 458 648 
11688 648 597 
11689 650 219 
11690 219 199 
11691 199 197 
11692 197 650 
11693 646 478 
11694 478 655 
11695 655 637 
11696 637 646 
11697 641 655 
11698 655 478 
11699 478 503 
11700 503 641 
11701 581 583 
11702 583 552 
11703 552 474 
11704 474 581 
11705 459 460 
11706 460 572 
11707 572 531 
11708 531 459 
11709 333 624 
11710 624 551 
11711 551 550 
11712 550 333 
11713 584 550 
11714 550 552 
11715 552 583 
11716 583 584 
11717 622 623 
11718 623 572 
11719 572 460 
11720 460 622 
11721 472 560 
11722 560 558 
11723 558 569 
11724 569 472 
11725 228 230 
11726 230 242 
11727 242 656 
11728 656 228 
11729 639 640 
11730 640 490 
11731 490 491 
11732 491 639 
11733 622 562 
11734 562 553 
11735 553 250 
11736 250 622 
11737 639 491 
11738 491 194 
11739 194 193 
11740 193 639 
11741 427 428 
11742 428 500 
11743 500 429 
11744 429 427 
11745 457 654 
11746 654 245 
11747 245 247 
11748 247 457 
11749 496 429 
11750 429 500 
11751 500 497 
11752 497 496 
11753 244 245 
11754 245 656 
11755 656 242 
11756 242 244 
11757 542 485 
11758 485 600 
11759 600 541 
11760 541 542 
11761 245 654 
11762 654 507 
11763 507 656 
11764 656 245 
11765 606 162 
11766 162 657 
11767 657 615 
11768 615 606 
11769 522 523 
11770 523 657 
11771 657 164 
11772 164 522 
11773 163 164 
11774 164 657 
11775 657 162 
11776 162 163 
11777 499 615 
11778 615 657 
11779 657 523 
11780 523 499 
11781 457 510 
11782 510 507 
11783 507 654 
11784 654 457 
11785 609 586 
11786 586 354 
11787 354 236 
11788 236 609 
11789 117 119 
11790 119 345 
11791 345 348 
11792 348 117 
11793 344 345 
11794 345 477 
11795 477 346 
11796 346 344 
11797 221 477 
11798 477 345 
11799 345 119 
11800 119 221 
11801 168 636 
11802 636 433 
11803 433 167 
11804 167 168 
11805 648 653 
11806 653 433 
11807 433 636 
11808 636 648 
11809 643 453 
11810 453 222 
11811 222 641 
11812 641 643 
11813 250 553 
11814 553 551 
11815 551 248 
11816 248 250 
11817 655 641 
11818 641 222 
11819 222 637 
11820 637 655 
11821 507 509 
11822 509 228 
11823 228 656 
11824 656 507 
11825 252 248 
11826 248 551 
11827 551 624 
11828 624 252 
11829 634 517 
11830 517 228 
11831 228 509 
11832 509 634 
11833 433 653 
11834 653 462 
11835 462 432 
11836 432 433 
11837 597 596 
11838 596 344 
11839 344 599 
11840 599 597 
11841 195 462 
11842 462 653 
11843 653 546 
11844 546 195 
11845 345 344 
11846 344 596 
11847 596 348 
11848 348 345 
11849 558 557 
11850 557 561 
11851 561 527 
11852 527 558 
11853 479 526 
11854 526 561 
11855 561 280 
11856 280 479 
11857 485 487 
11858 487 628 
11859 628 600 
11860 600 485 
11861 525 527 
11862 527 561 
11863 561 526 
11864 526 525 
11865 495 628 
11866 628 487 
11867 487 499 
11868 499 495 
11869 601 598 
11870 598 652 
11871 652 608 
11872 608 601 
11873 648 458 
11874 458 237 
11875 237 653 
11876 653 648 
11877 505 577 
11878 577 549 
11879 549 506 
11880 506 505 
11881 650 563 
11882 563 565 
11883 565 608 
11884 608 650 
11885 355 546 
11886 546 653 
11887 653 237 
11888 237 355 
11889 151 152 
11890 152 644 
11891 644 153 
11892 153 151 
11893 152 57 
11894 57 58 
11895 58 644 
11896 644 152 
11897 575 633 
11898 633 632 
11899 632 467 
11900 467 575 
11901 565 566 
11902 566 617 
11903 617 602 
11904 602 565 
11905 494 493 
11906 493 520 
11907 520 518 
11908 518 494 
11909 249 252 
11910 252 520 
11911 520 574 
11912 574 249 
11913 118 117 
11914 117 602 
11915 602 617 
11916 617 118 
2 1 3 612
89 89 90 66 67 
90 93 95 97 96 
91 98 101 106 99 
92 99 106 107 511 
93 117 118 97 119 
94 49 123 127 48 
95 134 133 136 135 
96 139 137 141 138 
97 145 146 143 142 
98 148 147 134 150 
99 89 68 69 133 
100 6 156 140 157 
101 140 156 171 155 
102 173 174 175 172 
103 181 165 182 180 
104 184 169 185 183 
105 187 170 188 186 
106 178 189 127 123 
107 131 127 189 132 
108 174 132 189 190 
109 191 137 86 87 
110 24 192 145 142 
111 161 145 192 160 
112 141 137 191 140 
113 157 140 191 158 
114 156 6 7 171 
115 174 173 45 132 
116 196 197 199 198 
117 133 69 70 136 
118 66 90 134 147 
119 134 90 89 133 
120 45 173 172 44 
121 66 147 149 65 
122 25 2 26 160 
123 88 1 5 158 
124 85 86 137 139 
125 24 142 144 23 
126 158 191 87 88 
127 160 192 24 25 
128 68 89 67 4 
129 29 182 166 28 
130 154 166 182 165 
131 71 185 136 70 
132 135 136 185 169 
133 8 188 171 7 
134 155 171 188 170 
135 50 179 123 49 
136 176 178 123 179 
137 158 5 6 157 
138 185 71 72 183 
139 160 26 27 161 
140 206 98 208 207 
141 179 50 51 176 
142 218 217 220 199 
143 121 120 221 95 
144 182 29 30 180 
145 228 229 231 230 
146 188 8 9 186 
147 47 131 46 3 
148 139 241 84 85 
149 184 205 135 169 
150 134 135 205 150 
151 196 239 231 240 
152 65 149 243 64 
153 177 215 189 178 
154 242 230 231 239 
155 44 172 246 43 
156 181 224 154 165 
157 145 154 224 146 
158 23 144 251 22 
159 187 235 155 170 
160 140 155 235 141 
161 250 248 252 249 
162 256 148 257 255 
163 262 143 263 261 
164 138 141 235 284 
165 253 254 139 138 
166 183 72 73 266 
167 148 150 205 257 
168 147 148 256 149 
169 264 240 231 265 
170 176 51 52 270 
171 174 190 260 175 
172 189 215 260 190 
173 258 259 172 175 
174 180 30 31 276 
175 143 146 224 263 
176 142 143 262 144 
177 9 281 282 186 
178 139 254 285 241 
179 241 286 83 84 
180 268 269 205 184 
181 268 184 183 267 
182 149 256 287 243 
183 64 243 288 63 
184 214 272 215 177 
185 178 176 271 177 
186 172 259 289 246 
187 43 246 290 42 
188 278 279 224 181 
189 278 181 180 277 
190 144 262 291 251 
191 22 251 292 21 
192 283 284 235 187 
193 283 187 186 282 
194 254 253 293 285 
195 256 255 295 287 
196 259 258 297 289 
197 262 261 299 291 
198 138 284 294 253 
199 183 266 301 267 
200 266 73 74 302 
201 267 301 303 268 
202 295 255 257 296 
203 205 269 296 257 
204 176 270 305 271 
205 177 271 305 214 
206 270 52 53 306 
207 213 214 305 212 
208 175 260 298 258 
209 215 272 298 260 
210 180 276 309 277 
211 276 31 32 201 
212 277 309 310 278 
213 299 261 263 300 
214 224 279 300 263 
215 9 10 313 281 
216 282 312 314 283 
217 282 281 313 312 
218 241 285 316 286 
219 286 317 82 83 
220 303 304 269 268 
221 243 287 318 288 
222 63 288 319 62 
223 213 216 272 214 
224 246 289 320 290 
225 42 290 321 41 
226 310 311 279 278 
227 251 291 322 292 
228 21 292 323 20 
229 283 315 294 284 
230 285 293 324 316 
231 287 295 326 318 
232 289 297 328 320 
233 291 299 330 322 
234 253 294 325 293 
235 266 302 332 301 
236 326 295 296 327 
237 269 304 327 296 
238 270 306 341 305 
239 258 298 329 297 
240 272 216 329 298 
241 276 201 347 309 
242 330 299 300 331 
243 279 311 331 300 
244 313 351 314 312 
245 338 339 304 303 
246 363 358 208 100 
247 213 308 329 216 
248 349 350 311 310 
249 374 203 376 375 
250 283 314 357 315 
251 294 315 357 325 
252 385 343 387 386 
253 388 389 38 39 
254 395 396 17 18 
255 372 328 353 403 
256 361 359 406 360 
257 293 325 390 324 
258 292 322 407 323 
259 330 377 407 322 
260 371 369 202 370 
261 309 347 408 310 
262 290 320 409 321 
263 328 372 409 320 
264 382 380 342 381 
265 305 341 410 212 
266 306 343 385 341 
267 213 212 410 307 
268 288 318 411 319 
269 326 364 411 318 
270 301 332 414 303 
271 286 316 415 317 
272 324 383 415 316 
273 20 323 417 19 
274 41 321 419 40 
275 297 329 353 328 
276 352 353 329 308 
277 62 319 421 61 
278 201 203 374 347 
279 10 11 406 313 
280 332 302 413 340 
281 304 339 424 327 
282 326 327 424 393 
283 401 402 325 357 
284 398 76 77 399 
285 405 330 331 367 
286 311 350 367 331 
287 314 356 401 357 
288 313 358 363 351 
289 404 401 356 426 
290 238 236 355 237 
291 91 92 122 93 
292 310 408 445 349 
293 347 374 445 408 
294 213 307 439 308 
295 423 317 415 422 
296 421 319 411 420 
297 323 407 436 416 
298 419 321 409 418 
299 372 431 418 409 
300 303 414 91 338 
301 340 94 414 332 
302 92 91 414 94 
303 432 336 167 433 
304 447 450 453 451 
305 131 47 48 127 
306 405 366 460 459 
307 401 404 461 402 
308 325 402 461 390 
309 392 393 424 391 
310 391 424 339 441 
311 449 464 467 465 
312 28 166 161 27 
313 360 406 11 12 
314 313 406 359 358 
315 166 154 145 161 
316 365 366 405 367 
317 352 378 403 353 
318 302 74 75 413 
319 398 412 340 413 
320 306 53 54 342 
321 306 342 380 343 
322 415 447 451 422 
323 201 32 33 202 
324 201 202 369 203 
325 61 421 446 60 
326 434 435 416 436 
327 427 430 418 431 
328 317 423 81 82 
329 451 440 423 422 
330 80 81 423 440 
331 411 449 465 420 
332 421 420 465 446 
333 341 385 386 410 
334 432 462 194 463 
335 470 445 374 375 
336 323 416 395 417 
337 19 417 395 18 
338 430 388 419 418 
339 40 419 388 39 
340 455 456 471 454 
341 474 475 448 473 
342 391 394 110 392 
343 109 110 394 111 
344 211 114 116 476 
345 113 114 211 115 
346 445 470 473 349 
347 350 349 473 448 
348 410 454 471 307 
349 472 439 307 471 
350 481 479 280 480 
351 481 128 483 482 
352 431 372 403 484 
353 487 485 488 486 
354 407 377 489 436 
355 450 447 492 452 
356 490 463 194 491 
357 330 405 489 377 
358 415 383 492 447 
359 324 390 476 383 
360 492 383 476 116 
361 497 495 499 496 
362 326 393 392 397 
363 497 500 502 501 
364 110 112 397 392 
365 12 13 362 360 
366 104 102 441 103 
367 91 105 103 338 
368 509 507 510 508 
369 339 338 103 441 
370 464 449 513 466 
371 506 504 514 505 
372 466 513 397 112 
373 351 363 100 498 
374 426 356 498 511 
375 314 351 498 356 
376 411 364 513 449 
377 326 397 513 364 
378 515 265 231 229 
379 342 54 55 381 
380 56 384 381 55 
381 413 75 76 398 
382 399 400 412 398 
383 518 337 519 494 
384 384 56 57 152 
385 13 14 125 362 
386 518 520 252 521 
387 202 33 34 370 
388 35 373 370 34 
389 522 496 499 523 
390 434 436 489 437 
391 437 489 405 459 
392 208 358 359 361 
393 427 431 484 428 
394 245 244 533 247 
395 378 468 484 403 
396 532 534 220 535 
397 36 163 373 35 
398 399 425 540 400 
399 399 77 78 425 
400 498 100 99 511 
401 543 223 227 544 
402 378 352 545 379 
403 537 528 547 536 
404 308 439 545 352 
405 366 365 548 368 
406 193 194 462 195 
407 350 448 365 367 
408 60 446 225 59 
409 387 343 380 382 
410 550 551 553 552 
411 376 203 369 371 
412 103 105 96 104 
413 557 558 560 559 
414 91 93 96 105 
415 273 280 561 274 
416 563 564 566 565 
417 365 448 475 548 
418 555 554 568 556 
419 569 545 439 472 
420 92 94 571 122 
421 529 531 572 530 
422 340 412 571 94 
423 466 575 467 464 
424 437 529 438 434 
425 577 335 578 549 
426 115 211 461 209 
427 476 390 461 211 
428 492 116 227 452 
429 430 427 429 579 
430 121 95 93 122 
431 580 542 583 581 
432 440 233 79 80 
433 569 558 527 595 
434 584 541 600 539 
435 378 469 603 468 
436 548 475 604 562 
437 99 100 208 98 
438 130 129 512 159 
439 132 45 46 131 
440 506 549 159 512 
441 370 373 606 371 
442 107 106 607 108 
443 101 593 607 106 
444 98 206 556 101 
445 236 238 610 609 
446 549 578 611 159 
447 473 470 581 474 
448 496 522 579 429 
449 443 396 395 444 
450 381 384 590 382 
451 478 120 121 503 
452 113 115 614 585 
453 233 440 451 234 
454 585 614 354 586 
455 163 162 606 373 
456 209 210 614 115 
457 371 606 616 376 
458 152 151 590 384 
459 125 124 587 362 
460 163 36 37 612 
461 229 516 605 515 
462 382 590 592 387 
463 207 587 124 588 
464 471 456 560 472 
465 512 129 128 619 
466 605 109 620 515 
467 410 386 455 454 
468 581 470 375 580 
469 366 368 622 460 
470 548 562 622 368 
471 378 379 595 469 
472 545 569 595 379 
473 537 618 126 442 
474 588 589 206 207 
475 232 621 79 233 
476 168 167 577 200 
477 360 362 587 361 
478 207 208 361 587 
479 391 576 566 394 
480 562 604 552 553 
481 121 122 571 582 
482 114 113 227 116 
483 475 474 552 604 
484 582 571 412 400 
485 110 109 605 112 
486 225 446 465 226 
487 220 217 505 514 
488 375 376 488 580 
489 217 200 577 505 
490 210 209 107 108 
491 426 511 107 404 
492 461 404 107 209 
493 434 438 444 435 
494 416 435 444 395 
495 386 387 510 455 
496 102 104 118 617 
497 456 455 510 457 
498 96 97 118 104 
499 391 441 102 576 
500 566 576 102 617 
501 579 613 388 430 
502 387 592 508 510 
503 591 594 508 592 
504 484 468 603 428 
505 502 500 428 603 
506 95 221 119 97 
507 478 477 221 120 
508 574 570 547 573 
509 193 195 627 626 
510 592 590 151 591 
511 280 273 619 480 
512 237 458 599 238 
513 626 108 607 193 
514 469 595 527 525 
515 538 628 495 629 
516 450 223 222 453 
517 450 452 227 223 
518 596 598 601 348 
519 129 130 483 128 
520 334 333 483 130 
521 335 336 519 337 
522 463 519 336 432 
523 495 497 501 629 
524 502 524 629 501 
525 614 626 627 354 
526 217 218 168 200 
527 112 605 575 466 
528 197 196 240 204 
529 538 629 524 635 
530 376 616 486 488 
531 606 615 486 616 
532 222 223 543 637 
533 579 522 164 613 
534 593 568 640 639 
535 388 613 612 389 
536 163 612 613 164 
537 443 444 438 442 
538 641 642 232 643 
539 528 537 442 438 
540 226 153 644 225 
541 59 225 644 58 
542 596 597 645 598 
543 637 543 610 646 
544 506 512 619 504 
545 514 504 619 273 
546 634 633 516 517 
547 575 605 516 633 
548 602 117 348 601 
549 633 634 594 632 
550 508 594 634 509 
551 442 126 647 443 
552 624 611 521 252 
553 611 578 518 521 
554 17 396 443 16 
555 588 124 126 618 
556 588 618 537 589 
557 394 566 564 111 
558 109 111 564 620 
559 622 250 249 623 
560 573 623 249 574 
561 645 597 648 636 
562 591 151 153 630 
563 591 630 632 594 
564 516 229 228 517 
565 465 467 638 226 
566 336 335 577 167 
567 630 153 226 638 
568 630 638 467 632 
569 524 526 479 635 
570 585 586 543 544 
571 198 534 532 631 
572 570 493 640 567 
573 601 608 565 602 
574 570 574 520 493 
575 494 490 640 493 
576 486 615 499 487 
577 535 275 274 649 
578 573 547 528 530 
579 561 557 649 274 
580 585 544 227 113 
581 559 560 456 625 
582 515 620 264 265 
583 247 625 456 457 
584 641 503 651 642 
585 400 540 651 582 
586 610 543 586 609 
587 232 642 651 540 
588 121 582 651 503 
589 130 159 611 334 
590 611 624 333 334 
591 625 247 533 559 
592 535 649 533 532 
593 482 483 584 539 
594 628 538 539 600 
595 239 196 198 631 
596 425 78 79 621 
597 425 621 232 540 
598 614 210 108 626 
599 534 198 199 220 
600 478 646 346 477 
601 599 344 610 238 
602 570 567 554 547 
603 554 567 640 568 
604 274 275 514 273 
605 555 536 547 554 
606 101 556 568 593 
607 608 652 219 650 
608 589 555 556 206 
609 480 619 128 481 
610 533 649 557 559 
611 584 583 542 541 
612 526 524 502 525 
613 603 469 525 502 
614 485 542 580 488 
615 239 631 244 242 
616 533 244 631 532 
617 530 528 438 529 
618 335 337 518 578 
619 233 234 643 232 
620 537 536 555 589 
621 451 453 643 234 
622 459 531 529 437 
623 236 354 627 355 
624 195 546 355 627 
625 646 610 344 346 
626 443 647 15 16 
627 124 125 647 126 
628 14 15 647 125 
629 550 584 483 333 
630 607 593 639 193 
631 535 220 514 275 
632 530 572 623 573 
633 479 481 482 635 
634 539 538 635 482 
635 38 389 612 37 
636 463 490 494 519 
637 652 598 645 219 
638 168 218 645 636 
639 199 219 645 218 
640 240 264 563 204 
641 564 563 264 620 
642 563 650 197 204 
643 597 599 458 648 
644 650 219 199 197 
645 646 478 655 637 
646 641 655 478 503 
647 581 583 552 474 
648 459 460 572 531 
649 333 624 551 550 
650 584 550 552 583 
651 622 623 572 460 
652 472 560 558 569 
653 228 230 242 656 
654 639 640 490 491 
655 622 562 553 250 
656 639 491 194 193 
657 427 428 500 429 
658 457 654 245 247 
659 496 429 500 497 
660 244 245 656 242 
661 542 485 600 541 
662 245 654 507 656 
663 606 162 657 615 
664 522 523 657 164 
665 163 164 657 162 
666 499 615 657 523 
667 457 510 507 654 
668 609 586 354 236 
669 117 119 345 348 
670 344 345 477 346 
671 221 477 345 119 
672 168 636 433 167 
673 648 653 433 636 
674 643 453 222 641 
675 250 553 551 248 
676 655 641 222 637 
677 507 509 228 656 
678 252 248 551 624 
679 634 517 228 509 
680 433 653 462 432 
681 597 596 344 599 
682 195 462 653 546 
683 345 344 596 348 
684 558 557 561 527 
685 479 526 561 280 
686 485 487 628 600 
687 525 527 561 526 
688 495 628 487 499 
689 601 598 652 608 
690 648 458 237 653 
691 505 577 549 506 
692 650 563 565 608 
693 355 546 653 237 
694 151 152 644 153 
695 152 57 58 644 
696 575 633 632 467 
697 565 566 617 602 
698 494 493 520 518 
699 249 252 520 574 
700 118 117 602 617 
$EndElements
